<svg height="256" viewBox="0 0 256 256" width="256" xmlns="http://www.w3.org/2000/svg" xmlns:xlink="http://www.w3.org/1999/xlink">
  <defs>
    <linearGradient id="linearGradient6701">
      <stop offset="0" stop-color="#fff"/>
      <stop offset="1" stop-color="#fff" stop-opacity="0"/>
    </linearGradient>
    <filter id="filter4454" color-interpolation-filters="sRGB" height="4.714403" width="1.322992" x="-.161496" y="-1.857202">
      <feGaussianBlur stdDeviation="15.476679"/>
    </filter>
    <linearGradient id="linearGradient4786" gradientTransform="matrix(5.3662019 0 0 5.0873708 24.876041 281.34659)" gradientUnits="userSpaceOnUse" x1="15.132965" x2="15.043873" y1="17.420126" y2="6.623367">
      <stop offset="0" stop-color="#f0c923"/>
      <stop offset="1" stop-color="#fff1a5"/>
    </linearGradient>
    <filter id="filter4123" color-interpolation-filters="sRGB" height="1.737155" width="1.15412" x="-.07706" y="-.368578">
      <feGaussianBlur stdDeviation="6.4501067"/>
    </filter>
    <linearGradient id="linearGradient4790" gradientUnits="userSpaceOnUse" x1="107.5" x2="94.813972" y1="357" y2="279.76166">
      <stop offset="0" stop-color="#ffcd44"/>
      <stop offset="1" stop-color="#f5e38c"/>
    </linearGradient>
    <linearGradient id="linearGradient11897" gradientUnits="userSpaceOnUse" x1="148.06615" x2="148.06615" y1="486.029187" y2="315.26278">
      <stop offset="0" stop-color="#b79b0a"/>
      <stop offset=".06283271" stop-color="#dcb50c"/>
      <stop offset=".13" stop-color="#f5ce0c"/>
      <stop offset=".2" stop-color="#f7d435"/>
      <stop offset=".69999999" stop-color="#ffe564"/>
      <stop offset="1" stop-color="#ffe76d"/>
    </linearGradient>
    <radialGradient id="radialGradient69112" cx="147.01562" cy="525.86011" gradientTransform="matrix(1.5869209 .00000013 -.00000006 .7528981 -86.286523 85.899531)" gradientUnits="userSpaceOnUse" r="103.04688" xlink:href="#linearGradient6701"/>
    <filter id="filter4375-19" color-interpolation-filters="sRGB" height="2.70625" width="1.027256" x="-.013628" y="-.853125">
      <feGaussianBlur stdDeviation="1.0664062"/>
    </filter>
    <linearGradient id="linearGradient4324-3">
      <stop offset="0" stop-color="#fff"/>
      <stop offset=".71109551" stop-color="#fff" stop-opacity=".652941"/>
      <stop offset="1" stop-color="#fff" stop-opacity="0"/>
    </linearGradient>
    <linearGradient id="linearGradient6330" gradientUnits="userSpaceOnUse" x1="167.42222" x2="180.588074" y1="320.081253" y2="482.75946">
      <stop offset="0" stop-color="#ffe051"/>
      <stop offset=".85273892" stop-color="#e3a700"/>
      <stop offset="1" stop-color="#9b7200"/>
    </linearGradient>
    <linearGradient id="linearGradient6345" gradientUnits="userSpaceOnUse" x1="85.710602" x2="130.89238" y1="333.96301" y2="426.5687">
      <stop offset="0" stop-color="#fff" stop-opacity=".501323"/>
      <stop offset="1" stop-color="#fff" stop-opacity="0"/>
    </linearGradient>
    <radialGradient id="radialGradient6522" cx="129.6713" cy="373.82709" gradientTransform="matrix(1.6479878 -.20963477 .12857357 1.0000028 -143.25941 41.552401)" gradientUnits="userSpaceOnUse" r="108.06256">
      <stop offset="0" stop-color="#fff" stop-opacity=".3"/>
      <stop offset="1" stop-color="#fff" stop-opacity="0"/>
    </radialGradient>
    <linearGradient id="linearGradient1153" gradientUnits="userSpaceOnUse" x1="28.764215" x2="104.45377" y1="36.473291" y2="36.473291">
      <stop offset="0" stop-color="#fff"/>
      <stop offset=".80391872" stop-color="#fff"/>
      <stop offset=".80391872" stop-color="#c2daff"/>
      <stop offset="1" stop-color="#67a5ff"/>
    </linearGradient>
    <radialGradient id="radialGradient4473" cx="247.51796" cy="398.59106" gradientTransform="matrix(18.995059 1.4881598 -.69502644 8.7771065 -4177.0689 -3468.2313)" gradientUnits="userSpaceOnUse" r="6.669825" xlink:href="#linearGradient4324-3"/>
    <filter id="filter4504" color-interpolation-filters="sRGB" height="1.016538" width="1.596151" x="-.298075" y="-.008269">
      <feGaussianBlur stdDeviation=".36649449"/>
    </filter>
    <radialGradient id="radialGradient4510" cx="247.06819" cy="400.18509" gradientTransform="matrix(18.991109 -1.5372251 .72828823 8.9017414 -4934.6608 -2770.632)" gradientUnits="userSpaceOnUse" r="6.669825" xlink:href="#linearGradient4324-3"/>
    <radialGradient id="radialGradient4684" cx="143.60225" cy="314.05942" gradientTransform="matrix(.99998876 .0047154 -.00314412 .65968261 .993526 125.47248)" gradientUnits="userSpaceOnUse" r="101.60544" xlink:href="#linearGradient4324-3"/>
    <filter id="filter4686" color-interpolation-filters="sRGB" height="1.266905" width="1.013573" x="-.006787" y="-.133453">
      <feGaussianBlur stdDeviation=".55859871"/>
    </filter>
    <radialGradient id="radialGradient5200" cx="143.60225" cy="314.05942" gradientTransform="matrix(.99998876 .0047154 -.00314412 .65968261 .993526 134.19434)" gradientUnits="userSpaceOnUse" r="101.60544" xlink:href="#linearGradient4324-3"/>
    <radialGradient id="radialGradient1239" cx="53.077576" cy="315.76599" gradientTransform="matrix(12.121708 -.51919541 1.2554004 28.998403 -987.39718 -8818.0506)" gradientUnits="userSpaceOnUse" r=".945125" xlink:href="#linearGradient6701"/>
    <filter id="filter1241" color-interpolation-filters="sRGB" height="1.082104" width="5.770302" x="-2.385151" y="-.041052">
      <feGaussianBlur stdDeviation=".69616742"/>
    </filter>
    <linearGradient id="linearGradient5060">
      <stop offset="0"/>
      <stop offset="1" stop-opacity="0"/>
    </linearGradient>
    <linearGradient id="linearGradient3912" gradientUnits="userSpaceOnUse" x1="79.82045" x2="79.82045" xlink:href="#linearGradient5060" y1="-32.079426" y2="203.27065"/>
    <filter id="filter3884" height="1.03445" width="1.03445" x="-.017225" y="-.017225">
      <feGaussianBlur stdDeviation="1.3492823"/>
    </filter>
    <linearGradient id="linearGradient3914" gradientUnits="userSpaceOnUse" x1="66.619331" x2="66.619331" y1="-31.00098" y2="164.58943">
      <stop offset="0" stop-color="#e9e9e9"/>
      <stop offset=".31598574" stop-color="#fff"/>
      <stop offset="1" stop-color="#fff"/>
    </linearGradient>
    <linearGradient id="linearGradient3916" gradientUnits="userSpaceOnUse" x1="66" x2="66" y1="157" y2="-31">
      <stop offset="0" stop-color="#f6f6f6"/>
      <stop offset=".3583397" stop-color="#bcb9b8"/>
      <stop offset=".43154052" stop-color="#312e2d"/>
      <stop offset=".47642162" stop-color="#9b9493"/>
      <stop offset=".56865364" stop-color="#fff"/>
      <stop offset=".71001911" stop-color="#d3d3d3"/>
      <stop offset=".8135038" stop-color="#ada7a3"/>
      <stop offset="1" stop-color="#fff"/>
    </linearGradient>
    <radialGradient id="radialGradient3918" cx="66" cy="63" fx="69.022705" fy="109.85191" gradientTransform="matrix(1.026526 -.00000003 .00000003 1.026526 -1.750717 -1.671135)" gradientUnits="userSpaceOnUse" r="94">
      <stop offset="0" stop-color="#393939" stop-opacity="0"/>
      <stop offset=".64334816" stop-color="#393939" stop-opacity=".092683"/>
      <stop offset=".92916411" stop-color="#393939" stop-opacity=".572549"/>
      <stop offset="1"/>
    </radialGradient>
    <clipPath id="clipPath3809">
      <circle cx="66" cy="63" filter="url(#filter3801)" r="94" transform="matrix(1.0192088 0 0 1.0192088 -1.267779 -1.210152)"/>
    </clipPath>
    <filter id="filter3801" height="1.183732" width="1.183732" x="-.091866" y="-.091866">
      <feGaussianBlur stdDeviation="7.1961722"/>
    </filter>
    <linearGradient id="linearGradient3930" gradientUnits="userSpaceOnUse" x1="83.56278798795" x2="114.90954485868" xlink:href="#linearGradient6701" y1="36.60176156198" y2="185.54270485751"/>
    <radialGradient id="radialGradient3927" cx="125.5041" cy="167.16315" gradientTransform="matrix(.8923782 0 0 .62782401 13.506977 32.759565)" gradientUnits="userSpaceOnUse" r="92.861908" xlink:href="#linearGradient6701"/>
    <filter id="filter4076" height="1.031485" width="3.810074" x="-1.405037" y="-.015743">
      <feGaussianBlur stdDeviation=".58543213"/>
    </filter>
    <filter id="filter4062" height="1.341229" width="1.02425" x="-.012125" y="-.170615">
      <feGaussianBlur stdDeviation=".49762598"/>
    </filter>
    <linearGradient id="linearGradient4012" gradientTransform="matrix(.77099945 -.6368358 .6368358 .77099945 -57.36699 112.713568)" gradientUnits="userSpaceOnUse" x1="211.94576" x2="134.93153" y1="115.60049" y2="134.33568">
      <stop offset="0" stop-color="#a2a2a2"/>
      <stop offset="1" stop-color="#eaeaea"/>
    </linearGradient>
    <filter id="filter4070" height="1.611491" width="1.056546" x="-.028273" y="-.305745">
      <feGaussianBlur stdDeviation=".89175739"/>
    </filter>
    <linearGradient id="linearGradient4038" gradientUnits="userSpaceOnUse" x1="75.865326" x2="134.54863" y1="109.63228" y2="109.63228">
      <stop offset="0" stop-color="#e9e9e6"/>
      <stop offset="1" stop-color="#fff"/>
    </linearGradient>
    <radialGradient id="radialGradient1102" cx="66" cy="63" fx="68.168884" fy="4.440037" gradientUnits="userSpaceOnUse" r="94" xlink:href="#linearGradient3939"/>
    <linearGradient id="linearGradient3939">
      <stop offset="0" stop-color="#515151"/>
      <stop offset="1"/>
    </linearGradient>
    <filter id="filter4056" height="1.218182" width="1.218182" x="-.109091" y="-.109091">
      <feGaussianBlur stdDeviation="8.5454545"/>
    </filter>
    <radialGradient id="radialGradient4110" cx="123.99960216" cy="212.00044888" fx="124.07179945006" fy="210.05111888605" gradientUnits="userSpaceOnUse" r="3.12904944" xlink:href="#linearGradient3939"/>
    <radialGradient id="radialGradient4114" cx="66" cy="63" fx="68.168884" fy="4.440037" gradientTransform="matrix(0 .03328776 -.03328776 0 38.971695 122.67762)" gradientUnits="userSpaceOnUse" r="94" xlink:href="#linearGradient3939"/>
    <radialGradient id="radialGradient4118" cx="66" cy="63" fx="68.168884" fy="4.440037" gradientTransform="matrix(0 .03328776 -.03328776 0 213.2217 122.67762)" gradientUnits="userSpaceOnUse" r="94" xlink:href="#linearGradient3939"/>
    <linearGradient id="linearGradient3516" gradientUnits="userSpaceOnUse" x1="76.520761" x2="65.910554" y1="143.137293" y2="141.532438">
      <stop offset="0" stop-color="#db8900"/>
      <stop offset="1" stop-color="#db8900" stop-opacity="0"/>
    </linearGradient>
    <radialGradient id="radialGradient3744" cx="105.26407" cy="32.175175" fx="107.45033" fy="10.808978" gradientTransform="matrix(.30898515 .11778642 -.07493863 .19661551 56.221778 139.01257)" gradientUnits="userSpaceOnUse" r="59.995121" xlink:href="#linearGradient5060"/>
    <linearGradient id="linearGradient1160" gradientUnits="userSpaceOnUse" x1="70.083619" x2="58.628057" y1="139.430008" y2="138.997387">
      <stop offset="0" stop-color="#75511a"/>
      <stop offset="1" stop-color="#75511a" stop-opacity="0"/>
    </linearGradient>
    <linearGradient id="linearGradient1436" gradientUnits="userSpaceOnUse" spreadMethod="reflect" x1="118.933276" x2="124.174436" xlink:href="#linearGradient6701" y1="140.002666" y2="141.877666"/>
    <filter id="filter3738-3" height="1.397879" width="1.301924" x="-.150962" y="-.198939">
      <feGaussianBlur stdDeviation=".39257441"/>
    </filter>
    <linearGradient id="linearGradient2268" gradientUnits="userSpaceOnUse" spreadMethod="reflect" x1="120.0625" x2="125.30366" xlink:href="#linearGradient6701" y1="12.569496" y2="14.444496"/>
    <linearGradient id="linearGradient1146" gradientUnits="userSpaceOnUse" x1="59.520112" x2="66.971856" y1="137.98565" y2="138.525618">
      <stop offset="0" stop-color="#db8900" stop-opacity="0"/>
      <stop offset="1" stop-color="#db8900"/>
    </linearGradient>
    <radialGradient id="radialGradient3535" cx="99.726295" cy="27.418272" fx="64.689766" fy="68.231934" gradientTransform="matrix(.693735 .05867125 -.0362428 .4285387 35.545828 144.24369)" gradientUnits="userSpaceOnUse" r="56">
      <stop offset="0" stop-color="#eaf209"/>
      <stop offset="1" stop-color="#c7c634" stop-opacity="0"/>
    </radialGradient>
    <radialGradient id="radialGradient4331" cx="113.26276" cy="163.11391" gradientTransform="matrix(-1.6883648 -.74484491 .52859643 -1.1983824 218.59308 430.91391)" gradientUnits="userSpaceOnUse" r="28.298851">
      <stop offset="0" stop-color="#fffe63"/>
      <stop offset="1" stop-color="#fff" stop-opacity="0"/>
    </radialGradient>
    <linearGradient id="linearGradient3581" gradientUnits="userSpaceOnUse" x1="90.053648" x2="59.193701" xlink:href="#linearGradient6701" y1="138.498873" y2="134.74647"/>
    <linearGradient id="linearGradient3567" gradientUnits="userSpaceOnUse" x1="57.37716" x2="94.55502" y1="133.519553" y2="136.380721">
      <stop offset="0" stop-color="#fffe63" stop-opacity="0"/>
      <stop offset=".1892325" stop-color="#fffe63"/>
      <stop offset="1" stop-color="#fff" stop-opacity="0"/>
    </linearGradient>
    <filter id="filter3639" height="1.11053" width="1.0975" x="-.048751" y="-.055266">
      <feGaussianBlur stdDeviation="1.0580524"/>
    </filter>
  </defs>
  <rect fill-rule="evenodd" filter="url(#filter4454)" height="20" opacity=".8" rx="8.153439" ry="10" transform="matrix(.90283514 0 0 .29664711 9.5731 162.76082)" width="230" x="15" y="201"/>
  <g enable-background="new" transform="matrix(1.0583333 0 0 1.0640034 -28.633331 -300.29071)">
    <path d="m52.094352 312c-2.335611 0-4.094352 1.27843-4.094352 3.94967v167.46562c0 3.95197 2.446761 6.58471 5.771787 6.58471h189.555213c3.34438 0 4.673-2.46074 4.673-5.90535v-147.52177c0-2.95096-2.01067-4.54661-4.51602-4.54661h-93.98741c-1.69284 0-4.43377-.2055-6.49302-2.5614l-13.0712-14.95423c-1.75748-2.01066-4.22518-2.51056-6.08975-2.51056z" fill="url(#linearGradient4786)" fill-rule="evenodd"/>
    <path d="m122.25 324c-3.19807 0-5.91553 1.72373-7.53125 4.125l-7.65625 11.34375c-1.91159 2.84099-5.30031 4.7797-9.46875 4.78125h-44.690945c-3.196847 0-5.39241 3.03742-5.34375 5.0625l.40625 16.6875h199.194385l1.28125-36.9375c.10424-3.03661-2.14692-5.06249-5.34375-5.0625z" fill-rule="evenodd" filter="url(#filter4123)" opacity=".712329" transform="translate(0 20)"/>
    <path d="m51.094352 311c-2.335611 0-4.094352 1.27843-4.094352 3.94967l3.779528 168.46562c0 3.95197 2.446761 6.58471 5.771787 6.58471h183.996155c3.34438 0 4.673-2.46074 4.673-5.90535l3.77953-148.52177c0-2.95096-2.01067-4.54661-4.51602-4.54661h-94.98741c-1.69284 0-4.43377-.2055-6.49302-2.5614l-13.0712-14.95423c-1.75748-2.01066-4.22518-2.51056-6.08975-2.51056z" fill="none" stroke="url(#linearGradient4790)" stroke-width="3.76944"/>
    <path d="m51.070083 314.44327h67.537087c15.09647 0 17.92002 20.63788 26.98266 20.63788h103.02184" fill="none" filter="url(#filter4686)" stroke="url(#radialGradient5200)" stroke-width="2.82708"/>
    <path d="m32.764215 36.473291h67.689555" fill="#82b7ff" stroke="url(#linearGradient1153)" stroke-linecap="round" stroke-width="8" transform="matrix(.94488192 0 0 .93984662 27.055117 289.74598)"/>
    <path d="m50.672676 296.60521 1.095457 41.30827" fill="none" filter="url(#filter1241)" opacity=".6" stroke="url(#radialGradient1239)" stroke-width="1.88472" transform="translate(0 20)"/>
  </g>
  <g enable-background="new" transform="matrix(1.0583333 0 0 1.0640034 -28.703403 -290.72503)">
    <path d="m122.25371 334.00973h128.40625c3.19684 0 5.34375 5.0625 5.34375 5.0625l-10.34375 146.9375h-197.25l-8.40625-126.6875s2.11566-5.0625 5.3125-5.0625l52.28125-.0313c4.16844-.002 7.55716-1.94026 9.46875-4.78125l7.65625-11.34375c1.61572-2.40122 4.33318-4.0937 7.53125-4.0937z" fill="url(#linearGradient11897)"/>
    <path d="m245.65625 480.9375h-197.25v3h197.25z" fill="url(#radialGradient69112)" fill-rule="evenodd" filter="url(#filter4375-19)" opacity=".499377" transform="matrix(1 0 0 3.291657 0 -1113.5278)"/>
    <path d="m122.25371 334.00973h128.40625c3.19684 0 5.34375 5.0625 5.34375 5.0625l-10.34375 146.9375h-197.25l-8.40625-126.6875s2.11566-5.0625 5.3125-5.0625l52.28125-.0313c4.16844-.002 7.55716-1.94026 9.46875-4.78125l7.65625-11.34375c1.61572-2.40122 4.33318-4.0937 7.53125-4.0937z" fill="url(#radialGradient6522)"/>
    <path d="m122.25359 334.0094c-3.19807 0-5.91566 1.69225-7.53137 4.09347l-7.65687 11.34424c-1.91159 2.84099-5.29884 4.77984-9.467274 4.78184l-52.282236.0312c-3.196837 0-5.32997 3.03712-5.31127 5.06269l4.287202 61.42044 208.934958-37.7554 2.77747-43.9158c-.003-3.0384-2.14765-5.06269-5.34449-5.06269z" fill="url(#linearGradient6345)"/>
    <path d="m241.87672 480.9375h-187.801178v3h187.801178z" fill="url(#radialGradient69112)" fill-rule="evenodd" filter="url(#filter4375-19)" opacity=".3" transform="matrix(1 0 0 .7217391 0 131.78117)"/>
    <path d="m122.1875 323h128.40625c3.19684 0 5.34375 5.0625 5.34375 5.0625l-10.34375 146.9375h-197.25l-8.40625-126.6875s2.11566-5.0625 5.3125-5.0625l52.28125-.0313c4.16844-.002 7.55716-1.94026 9.46875-4.78125l7.65625-11.34375c1.61572-2.40122 4.33318-4.0937 7.53125-4.0937z" fill="none" stroke="url(#linearGradient6330)" stroke-linecap="round" stroke-linejoin="round" stroke-width="3.76944" transform="translate(.06621 11.009727)"/>
    <path d="m242.72824 466.93019 9.57943-136.67828" fill="none" filter="url(#filter4504)" opacity=".6" stroke="url(#radialGradient4473)" stroke-width="2.82708" transform="translate(.06621 11.009727)"/>
    <path d="m51.845123 467.08123-7.68301-117.52373" fill="none" filter="url(#filter4504)" opacity=".6" stroke="url(#radialGradient4510)" stroke-width="2.82708" transform="translate(.06621 11.009727)"/>
    <path d="m45.400791 347.07466h52.418975c15.096474 0 16.030254-20.71537 25.092894-20.71537h125.69901" fill="none" filter="url(#filter4686)" stroke="url(#radialGradient4684)" stroke-width="2.82708" transform="translate(.06621 11.009727)"/>
  </g>
  <g transform="matrix(4.8785088 0 0 4.8785088 -33.956042 -48.948656)">
    <g transform="matrix(.125 0 0 .125 27.899934 30.848132)">
      <circle cx="66" cy="63" fill="url(#linearGradient3912)" filter="url(#filter3884)" r="94" transform="matrix(1.2180852 0 0 -1.2180852 43.606383 201.73937)"/>
      <circle cx="66" cy="63" fill="url(#linearGradient3914)" r="94" transform="matrix(1.2180852 0 0 -1.2180852 43.606383 201.73937)"/>
      <circle cx="66" cy="63" fill="url(#linearGradient3916)" r="94" transform="matrix(1.2065342 0 0 1.2065342 44.368744 48.988346)"/>
      <circle cx="124.0000066" cy="125.0000058" fill="#f5f5f5" r="100.3307684"/>
      <circle clip-path="url(#clipPath3809)" cx="66" cy="63" fill="url(#radialGradient3918)" filter="url(#filter3801)" opacity=".785366" r="102.98344" transform="matrix(1.0331959 0 0 1.0331959 55.809072 59.908659)"/>
      <path d="m124.02855 31.40778c-51.578537 0-93.38635 41.807813-93.38635 93.38635 0 7.9978 1.010735 15.7718 2.901936 23.18051.993948.005 1.974691.0349 2.971861.0349 75.284843 0 141.498243-14.81387 179.850013-37.27062-6.77575-44.9137-45.53382-79.331248-92.33746-79.331248z" fill="url(#linearGradient3930)"/>
      <path d="m124.02855 31.40778c-51.578537 0-93.38635 41.807813-93.38635 93.38635 0 7.9978 1.010735 15.7718 2.901936 23.18051.993948.005 1.974691.0349 2.971861.0349 75.284843 0 141.498243-14.81387 179.850013-37.27062-6.77575-44.9137-45.53382-79.331248-92.33746-79.331248z" fill="url(#radialGradient3927)"/>
      <path d="m113.60092 133.62346 75.94345-62.728326-67.73928 60.491346z"/>
      <rect fill-opacity=".485549" filter="url(#filter4076)" height="89.25" transform="matrix(-.87909978 .47663778 .47663778 .87909978 -1 1)" width="1" x="-49.884197" y="159.59009"/>
      <path d="m118.13605 121.79498-7.75 3.5 7.75 3.5 90.75-3.5z" filter="url(#filter4062)" opacity=".317073" transform="matrix(.77099945 -.6368358 .6368358 .77099945 -51.198994 107.618888)"/>
      <path d="m113.60092 133.62346 75.94345-62.728326-72.19713 55.094356z" fill="url(#linearGradient4012)"/>
      <path d="m118.01221 121.04894-7.75 3.5 7.75 3.5 67.94864-3.41001z" filter="url(#filter4070)" opacity=".326829" transform="matrix(-.77597265 -.63076655 .63076655 -.77597265 141.4478 300.237565)"/>
      <path d="m134.54863 133.54128-58.683304-47.818 54.877204 40.21365z" fill="url(#linearGradient4038)"/>
      <path d="m134.54863 133.44128-58.683305-47.718007 50.461845 45.645467z" fill="#090909"/>
      <circle cx="66" cy="63" fill="url(#radialGradient1102)" filter="url(#filter4056)" r="94" transform="matrix(.01664388 0 0 .01664388 122.90151 123.95145)"/>
      <rect fill="#b70000" height="89.25" transform="matrix(-.87909978 .47663778 .47663778 .87909978 0 0)" width="1" x="-49.884197" y="159.59009"/>
      <circle cx="66" cy="63" fill="url(#radialGradient1102)" r="94" transform="matrix(.01664388 0 0 .01664388 122.90151 123.95145)"/>
      <path d="m119.21875 35.990234c-.14368 0-.15719.02522-.23437.04883-.0772.02361-.17129.05398-.28126.0918-.21992.07564-.5009.177074-.80664.28125-.61148.208353-1.32743.430014-1.75195.488282a.32177063.32177063 0 0 0 -.0117.002c-.24056.04148-.54736.05072-.82226.0918-.13745.02054-.26923.04455-.4043.115234-.13507.07068-.29102.252547-.29102.453125 0 .151602.1024.342796.23829.421875.13588.07908.26408.08789.39648.08789.6862 0 1.30295-.101672 1.96289-.214844.008 1.544172.0586 3.080667.0586 4.611328 0 1.388189-.0109 3.677208-.0586 4.949219-.20406.01146-.41056.02042-.76172.04883-.48804.03949-1.02199.09388-1.40429.189453a.32177063.32177063 0 0 0 -.0234.0078c-.0919.03062-.15958.07726-.22266.148438-.0631.07118-.12305.177317-.12305.3125 0 .127206.0483.265116.14649.363281.0982.09817.23608.146485.36328.146485.16348 0 .53316-.02355 1.11133-.04687.57816-.02333 1.34061-.04687 2.20117-.04687.83211 0 1.56881.02356 2.125.04687.55619.02332.90501.04687 1.0625.04687.1272 0 .26511-.04832.36328-.146485.0982-.09817.14649-.236075.14649-.363281 0-.135183-.06-.241323-.12305-.3125-.0631-.07118-.1308-.117818-.22266-.148438a.32177063.32177063 0 0 0 -.0195-.0059c-.366-.09688-.87175-.151863-1.33594-.191406-.32963-.02808-.51975-.03735-.71289-.04883-.0644-1.267533-.0859-3.561711-.0859-4.949219 0-.822628.0234-2.183723.0469-3.378906.0234-1.195184.0469-2.203181.0469-2.402344 0-.149429-.01-.297241-.10352-.449219-.0938-.151977-.30046-.248047-.46875-.248047zm10.21875 0c-1.62106 0-2.85136.726405-3.66211 1.494141-.40538.383868-.70941.778786-.91601 1.109375-.10331.165294-.18205.314466-.23829.443359-.0562.128893-.0996.212252-.0996.369141 0 .126043.0663.26358.16407.341797.0978.07822.2108.105469.31445.105469.20797 0 .29977-.10829.37695-.1875.0772-.07921.14296-.167312.21875-.267578.1516-.200534.33264-.448621.56641-.691407.46753-.485572 1.12028-.947265 2.18164-.947265 1.50597 0 2.14648 1.004394 2.14648 1.958984 0 1.26629-.84295 2.748394-1.91015 4.058594s-2.33625 2.450194-3.10156 3.103515c-.26713.220932-.53084.4263-.73829.607422-.10432.09108-.19407.175698-.26953.263672-.0755.08797-.16797.167333-.16797.373047 0 .177114.1369.372205.27344.439453.13655.06725.25327.07031.36133.07031.21283 0 .82388-.04383 1.66406-.0625a.32177063.32177063 0 0 0 .006 0c.83416-.03707 1.88055-.03125 2.86133-.03125.9979 0 2.02459.03539 2.88477.08398.0261.177189.0471.353479.0918.541016.0331.138815.0711.269821.14258.396484.0715.126663.22151.291016.44336.291016.11779 0 .24909-.04401.3418-.136719.0927-.09271.13672-.224012.13672-.341797 0-.390316-.125-1.131674-.125-2.21875 0-.32919.0294-.827264.0605-1.273438.0311-.446173.0645-.819105.0645-1.007812 0-.08578.00073-.187542-.0625-.316406-.0632-.128864-.25398-.25586-.41602-.25586-.1739 0-.29624.113955-.35742.199219-.0612.08526-.095.168035-.125.257813-.06.179554-.0992.388433-.13281.611328-.0551.365077-.0852.70426-.11524.96289-.83495.245095-1.77889.425122-3.20703.564454-.66688.06284-1.38127.09152-2.07813.126953l.14844-.113282a.32177063.32177063 0 0 0 .006-.0059c.71878-.578758 2.20392-1.725676 3.51367-3.105469 1.30976-1.379792 2.48243-2.991094 2.48243-4.613281 0-.901692-.35609-1.718631-1.00782-2.292969-.65172-.574338-1.5854-.904297-2.7207-.904297z" fill="#fff"/>
      <g fill="#282828">
        <path d="m117.4229 38.995302v9.209826h2.63676v-13.353306h-1.75156c-.41435 1.582056-1.78923 2.391918-4.08698 2.391918v1.751562z"/>
        <path d="m133.05511 45.850878h-5.66903c.35785-.715692.77219-1.111206 2.73093-2.523756 2.31658-1.69506 2.99461-2.693262 2.99461-4.52016 0-2.580258-1.78923-4.23765-4.57667-4.23765-2.76859 0-4.38832 1.638558-4.38832 4.463658v.47085h2.54259v-.433182c0-1.487886.69686-2.35425 1.90224-2.35425 1.1677 0 1.8834.809862 1.8834 2.147076 0 1.487886-.45202 2.034072-3.42779 4.14348-2.26008 1.544388-2.95694 2.712096-3.06994 5.198184h9.07798z"/>
      </g>
      <path d="m123.91639 208.80586c-1.3228.016-2.56062.94334-2.9552 2.20162-.41216 1.21464.00092 2.64942.99852 3.45226.9864.846 2.51182.97624 3.63042.31296 1.11202-.62082 1.76756-1.94944 1.57426-3.21296-.168-1.36694-1.31496-2.52992-2.679-2.71746-.1874-.0304-.37884-.0412-.569-.0364z" fill="url(#radialGradient4110)" opacity=".62439"/>
      <path d="m40.069151 124.7914c-.0152-1.3228-.943344-2.56062-2.201614-2.9552-1.214646-.41216-2.64943.00092-3.452254.99852-.84601.9864-.97625 2.51182-.312964 3.63042.62081 1.11202 1.949426 1.76756 3.212958 1.57426 1.366932-.168 2.529922-1.31496 2.717466-2.679.0303-.1874.04124-.37884.0364-.569z" fill="url(#radialGradient4114)" opacity=".62439"/>
      <path d="m214.31916 124.7914c-.016-1.3228-.94334-2.56062-2.20162-2.9552-1.21464-.41216-2.64942.00092-3.45226.99852-.846.9864-.97624 2.51182-.31296 3.63042.62082 1.11202 1.94944 1.76756 3.21296 1.57426 1.36694-.168 2.52992-1.31496 2.71746-2.679.0304-.1874.0412-.37884.0364-.569z" fill="url(#radialGradient4118)" opacity=".62439"/>
    </g>
    <g transform="matrix(-.14335287 0 0 .1433412 51.899454 19.013732)">
      <path d="m58.724396 119.1488c-.120913 11.59902.04393 25.84636 0 33.66216 14.790103.19335 23.3082 6.99088 27.761906 11.44459l-5.531301 8.59772c-2.05587 2.05587-2.243725 3.30578-1.679608 4.61553.508568 1.18078 1.520732 2.52604 4.209725 2.52604l35.746322 2.73589c3.84589 0 6.45899-2.65438 6.45899-6.25013l-2.80456-35.87036c0-2.48075-.90251-3.84322-2.18147-4.34961-1.31432-.52038-3.11955-.22447-5.29619.86418l-7.27052 4.44261c-10.859354-10.85935-32.850695-22.41862-49.413294-22.41862z" fill="url(#linearGradient3516)"/>
      <path d="m58.724396 119.1488c-.344749 12.52786.05501 25.58336 0 33.66216 14.514854.37962 23.310012 6.99827 27.763718 11.45198l-5.533113 8.59033c-2.05587 2.05587-2.243725 3.30578-1.679608 4.61553.508568 1.18078 1.520732 2.52604 4.209725 2.52604 10.51579.91196 23.256162 1.82393 35.746322 2.73589 3.84589 0 6.45899-2.65438 6.45899-6.25013l-2.80456-35.87036c0-2.48075-.90251-3.84322-2.18147-4.34961-1.31432-.52038-2.47614.032-5.37378 1.11603l-7.19293 4.19076c-10.859354-10.85935-32.850695-22.41862-49.413294-22.41862z" fill="url(#radialGradient3744)" opacity=".797753"/>
      <path d="m58.724396 119.4488c-.142783 7.10793.177158 28.58672 0 33.36216 15.488942.73154 23.197294 6.98213 27.651 11.43584l-2.283646 3.54526-2.908124 4.21737c-1.768361 2.90143-2.47235 4.14962-1.908233 5.45937.508568 1.18078 1.520732 2.52604 4.209725 2.52604l35.746322 2.73589c3.84589 0 6.45899-2.65438 6.45899-6.25013l-2.80456-35.87036c0-2.48075-.90251-3.84322-2.18147-4.34961-1.31432-.52038-2.17538-.65729-4.73516.49097l-7.83155 4.81582c-10.859354-10.85935-32.850695-22.11862-49.413294-22.11862z" fill="url(#linearGradient1160)" opacity=".745318"/>
      <path d="m116.55828 138.18317.9375 4.375 1.25.875 4-2.625c.24688-1.72375-.35117-3.34743-1.9375-4-1.58634-.65257-3.16128.12671-4.25 1.375z" fill="url(#linearGradient1436)" fill-rule="evenodd" filter="url(#filter3738-3)" opacity=".820225"/>
      <path d="m117.6875 10.75 2.1875 3.125.5-.125 3.5-.375c.24688-1.723751-.35117-3.347429-1.9375-4.0000001-1.58634-.6525714-3.16128.1267033-4.25 1.3750001z" fill="url(#linearGradient2268)" fill-rule="evenodd" filter="url(#filter3738-3)" opacity=".820225" transform="matrix(0 1 1 0 70.177013 55.631259)"/>
      <path d="m58.724396 121.78086c.01401 4.43642.05954 23.58691 0 27.40625 13.021455.16002 23.452643 6.60656 28.610845 11.09691.759464.75141 2.506859 2.54166 2.506862 3.61002 0 1.06836-.136566 2.04014-1.534555 4.1287l-4.806618 6.60416 35.73051 2.73589c1.99954.1531 2.46875-.59216 2.46875-2.25l-2.82936-35.88609-6.69052 3.85829c-1.52657.59711-2.97421 1.14574-4.04257 1.14574s-2.09234-.42804-2.84375-1.1875c-10.137718-10.13766-31.086238-21.26237-46.569594-21.26237z" fill="url(#linearGradient1146)"/>
      <path d="m58.724396 121.78086c-.215574 11.79028.252284 17.59057 0 27.40625 13.736498.49122 23.717911 6.38947 28.885107 11.55667.759464.75141 2.232597 2.0819 2.2326 3.15026 0 1.06836-.558773 2.43969-1.498139 4.1612l-4.843034 6.57166 35.73051 2.73589c1.99954.1531 2.46875-.59216 2.46875-2.25l-2.82936-35.88609-6.07846 3.75919c-1.26741.45147-3.58627 1.24484-4.65463 1.24484s-2.09234-.42804-2.84375-1.1875c-10.137718-10.13766-31.086238-21.26237-46.569594-21.26237z" fill="url(#radialGradient3535)"/>
      <path d="m58.299439 121.78086c-.235732 6.76476-.007 9.48429-.172744 19.20079 8.79373.75719 24.979437 4.27003 36.260995 15.72489 2.802084 2.84513 4.756598 5.68837 6.5625 9.25l-12.29301 7.67036 10.949258 1.36795c7.152552-.86339 14.867492-2.06903 21.775032-4.81956l-2.51064-30.94859-7.1308 4.11434c-1.26544.51601-2.53393.88969-3.60229.88969s-2.09234-.42804-2.84375-1.1875c-10.137718-10.13766-31.511195-21.26237-46.994551-21.26237z" fill="url(#radialGradient4331)"/>
      <path d="m58.730512 121.78338c-.04961.55991-.07709.55226 0 1 15.48337 0 36.43187 11.1247 46.569538 21.26236.75142.75947 1.77539 1.1875 2.84375 1.1875 1.06837.00001 1.95808-.4319 2.84375-.65626l7.38934-3.84776 2.91069 29.34233c-6.90754 2.75053-13.93519 3.80495-22.175022 4.51956l-10.449262-.9617 10.949262 1.36795c8.262192-.72929 14.867482-2.06903 21.775022-4.81956l-2.51064-29.94858-.12075-.46941-.37925-.0306-7.38934 3.84776c-.9509.22929-1.77539.65626-2.84375.65626-1.06835.00001-2.0883-.43205-2.84375-1.1875l-.0312-.0312c-.0524-.0524-.10367-.10416-.15625-.15625-.5738-.56787-1.15087-1.11515-1.75-1.65624-.0815-.0741-.16804-.14511-.25-.21875-9.91615-8.91023-29.985478-19.19992-44.382138-19.19992zm-.65625 19.21874c.06823.34029.142714.88443.120387 1.19056 7.718108-.1968 20.913103 3.63673 29.917906 9.20387-6.177294-5.13506-21.884296-10.16212-30.038293-10.39443z" fill="url(#linearGradient3581)"/>
      <path d="m58.081086 121.78086c.02023 9.12581-.140944 19.26449 0 27.40625 11.180841.23478 18.764245 3.43473 26.0028 8.72375 3.127856 1.88381 5.148345 3.73992 5.114907 5.98318-.02854 1.91449-.345356 2.49129-1.209987 3.83239l-5.131186 6.90047 35.73051 2.73589c1.99954.1531 2.46875-.59216 2.46875-2.25-1.04978-11.76943-2.99788-23.53885-2.96418-35.30828l-6.00726 3.32284c-1.48477.57789-3.52265 1.10338-4.59101 1.10338s-2.09234-.42804-2.84375-1.1875c-10.137708-10.13766-31.086234-21.26237-46.569594-21.26237z" style="fill:none;stroke-width:1.06714;stroke-linecap:round;stroke-linejoin:round;stroke-dashoffset:1.0878;stroke:url(#linearGradient3567);filter:url(#filter3639)"/>
    </g>
  </g>
</svg>
