<svg height="256" width="256" xmlns="http://www.w3.org/2000/svg" xmlns:xlink="http://www.w3.org/1999/xlink">
  <defs>
    <filter id="filter4824" height="1.074304" width="1.054563" x="-.027281" y="-.037152">
      <feGaussianBlur stdDeviation=".8693574"/>
    </filter>
    <linearGradient id="lg1">
      <stop offset="0" stop-color="#fff"/>
      <stop offset="1" stop-color="#fff" stop-opacity="0"/>
    </linearGradient>
    <linearGradient id="linearGradient4788" xlink:href="#lg1"/>
    <filter id="filter4118" height="1.155979" width="1.168068" x="-.084034" y="-.07799">
      <feGaussianBlur stdDeviation=".43767556"/>
    </filter>
    <filter id="filter3996" height="1.198975" width="1.530599" x="-.2653" y="-.099487">
      <feGaussianBlur stdDeviation=".51816347"/>
    </filter>
    <filter id="filter4284" height="1.094248" width="1.612281" x="-.30614" y="-.047124">
      <feGaussianBlur stdDeviation="1.3604144"/>
    </filter>
    <filter id="filter4868" height="1.020805" width="1.043475" x="-.021624" y="-.010401">
      <feGaussianBlur stdDeviation=".67908282"/>
    </filter>
    <linearGradient id="linearGradient3659">
      <stop offset="0"/>
      <stop offset="1" stop-opacity="0"/>
    </linearGradient>
    <filter id="filter3649" height="1.080107" width="1.215883" x="-.107942" y="-.040054">
      <feGaussianBlur stdDeviation=".97618467"/>
    </filter>
    <filter id="filter3331" height="1.206141" width="1.354438" x="-.177219" y="-.103071">
      <feGaussianBlur stdDeviation="2.5103085"/>
    </filter>
    <filter id="filter3247" height="1.243404" width="1.410555" x="-.205278" y="-.121702">
      <feGaussianBlur stdDeviation="3.5084449"/>
    </filter>
    <filter id="filter3364" height="1.02821" width="1.049562" x="-.024781" y="-.014105">
      <feGaussianBlur stdDeviation="1.005968"/>
    </filter>
    <mask id="XMLID_29_" height="35.657" maskUnits="userSpaceOnUse" width="102.022" x="1.974" y="65.75">
      <g>
        <path d="m100.963 83.994c-29.847-13.829-96.382-16.644-96.382-16.644-.697-.226-1.444-.833-2.179-1.6l-.428 33.612c21.418-1.73 100.074.645 100.074.645.976.515 1.568 1.004 1.941 1.4 0-.055.009-.107.006-.163l-1.162-18z" fill="url(#XMLID_30_)"/>
      </g>
    </mask>
    <filter id="filter12253" height="1.105846" width="1.10561" x="-.051019" y="-.048975">
      <feGaussianBlur stdDeviation="1.0792305"/>
    </filter>
    <clipPath id="clipPath12229">
      <path d="m51.713 57.441c2.149-2.539 14.517-16.95 19.25-22.403 4.734-5.453 32.571-34.905 35.828-35.033 0 0 .33-.078.789.364.61.532.375 1.025.375 1.025-3.01 7.059-28.514 36.227-31.36 39.508-2.842 3.28-19.101 19.844-20.454 21.569-2.678 2.753-9.077 10.711-9.077 10.711l-4.801-5.679c-.001 0 6.431-6.585 9.45-10.062z"/>
    </clipPath>
    <filter id="filter4429" height="1.044819" width="1.051667" x="-.025834" y="-.022409">
      <feGaussianBlur stdDeviation=".65136"/>
    </filter>
    <linearGradient id="linearGradient13256" gradientUnits="userSpaceOnUse" x1="52.0005" x2="52.0005" y1="102.9697" y2="32.4342">
      <stop offset="0" stop-color="#597392"/>
      <stop offset=".0947" stop-color="#fff"/>
      <stop offset=".1017" stop-color="#eff2f5"/>
      <stop offset=".1109" stop-color="#e4e9ee"/>
      <stop offset=".1238" stop-color="#dde4ea"/>
      <stop offset=".1598" stop-color="#dbe2e9"/>
      <stop offset="1" stop-color="#7289a3"/>
    </linearGradient>
    <linearGradient id="linearGradient13258" gradientUnits="userSpaceOnUse" x1="52.984901" x2="52.984901" xlink:href="#lg1" y1="67.214798" y2="109.8794"/>
    <linearGradient id="linearGradient13260" gradientUnits="userSpaceOnUse" x1="52.003899" x2="52.003899" y1="102.7676" y2="32.7663">
      <stop offset="0" stop-color="#8a8aff"/>
      <stop offset=".32539999" stop-color="#6b8aad"/>
      <stop offset=".70410001" stop-color="#8c97b3"/>
      <stop offset="1" stop-color="#466180"/>
    </linearGradient>
    <linearGradient id="lg2">
      <stop offset=".3965" stop-color="#fff"/>
      <stop offset="1" stop-color="#000007"/>
    </linearGradient>
    <linearGradient id="linearGradient13262" gradientUnits="userSpaceOnUse" x1="46.846199" x2="46.846199" xlink:href="#lg2" y1="41.675301" y2="32.612598"/>
    <linearGradient id="linearGradient13264" gradientUnits="userSpaceOnUse" x1="48.829601" x2="48.829601" xlink:href="#lg2" y1="41.675301" y2="32.6134"/>
    <linearGradient id="linearGradient13266" gradientUnits="userSpaceOnUse" x1="50.8745" x2="50.8745" xlink:href="#lg2" y1="41.6763" y2="32.612099"/>
    <linearGradient id="linearGradient13268" gradientUnits="userSpaceOnUse" x1="52.8843" x2="52.8843" xlink:href="#lg2" y1="41.675301" y2="32.612202"/>
    <linearGradient id="linearGradient13270" gradientUnits="userSpaceOnUse" x1="55.117199" x2="55.117199" xlink:href="#lg2" y1="41.675301" y2="32.612598"/>
    <linearGradient id="linearGradient13272" gradientUnits="userSpaceOnUse" x1="57.315399" x2="57.315399" xlink:href="#lg2" y1="41.675301" y2="32.612598"/>
    <linearGradient id="linearGradient13274" gradientUnits="userSpaceOnUse" x1="51.998001" x2="51.998001" y1="45.7183" y2="83.832397">
      <stop offset="0" stop-color="#3e556f"/>
      <stop offset="1" stop-color="#7289a3"/>
    </linearGradient>
    <linearGradient id="linearGradient13276" gradientUnits="userSpaceOnUse" x1="51.997601" x2="51.997601" y1="84.334" y2="44.965302">
      <stop offset="0" stop-color="#b1becd"/>
      <stop offset="1" stop-color="#7289a3"/>
    </linearGradient>
    <linearGradient id="linearGradient13278" gradientUnits="userSpaceOnUse" x1="100.970122" x2="13.96982" y1="56.059101" y2="81.059097">
      <stop offset=".2308" stop-color="#5c6adf" stop-opacity="0"/>
      <stop offset="1" stop-color="#25374b"/>
    </linearGradient>
    <linearGradient id="linearGradient13280" gradientUnits="userSpaceOnUse" x1="72.786102" x2="78.790199" y1="32.607399" y2="38.124699">
      <stop offset="0" stop-color="#6b829c"/>
      <stop offset=".4675" stop-color="#fff"/>
      <stop offset=".4783" stop-color="#eff2f5"/>
      <stop offset=".4925" stop-color="#e4e8ed"/>
      <stop offset=".5125" stop-color="#dde3e8"/>
      <stop offset=".568" stop-color="#dbe1e7"/>
      <stop offset="1" stop-color="#8195ab"/>
    </linearGradient>
    <linearGradient id="linearGradient13282" gradientTransform="matrix(1.0869 .2446 -.2195 .9756 1.9198 -16.5221)" gradientUnits="userSpaceOnUse" x1="49.065399" x2="50.208" y1="84.944298" y2="85.630898">
      <stop offset="0" stop-color="#eceff2"/>
      <stop offset="1" stop-color="#969696"/>
    </linearGradient>
    <linearGradient id="linearGradient13284" gradientTransform="matrix(1.0869 .2446 -.2195 .9756 1.9198 -16.5221)" gradientUnits="userSpaceOnUse" x1="49.815899" x2="49.815899" y1="86.6689" y2="84.1875">
      <stop offset="0" stop-color="#fff"/>
      <stop offset=".25650001" stop-color="#939393"/>
      <stop offset=".4675" stop-color="#8a8a8a"/>
      <stop offset=".66229999" stop-color="#797979"/>
      <stop offset=".84630001" stop-color="#636363"/>
      <stop offset="1" stop-color="#4b4b4b"/>
    </linearGradient>
    <radialGradient id="radialGradient13286" cx="39.006302" cy="59.0811" gradientTransform="matrix(.8001 .177 -.1979 .8646 22.7331 14.8284)" gradientUnits="userSpaceOnUse" r="5.6735">
      <stop offset=".4379" stop-color="#b7c2cf"/>
      <stop offset=".5576" stop-color="#b3bfcc"/>
      <stop offset=".6689" stop-color="#a8b4c3"/>
      <stop offset=".7769" stop-color="#95a3b3"/>
      <stop offset=".8828" stop-color="#7b8b9e"/>
      <stop offset=".9864" stop-color="#596d82"/>
      <stop offset="1" stop-color="#54687e"/>
    </radialGradient>
    <linearGradient id="linearGradient13288" gradientTransform="matrix(.9756 .2195 -.2195 .9756 7.8908 -15.1683)" gradientUnits="userSpaceOnUse" x1="71.736298" x2="71.736298" y1="46.858398" y2="45.996601">
      <stop offset=".0118" stop-color="#fff"/>
      <stop offset=".2183" stop-color="#e8ecf0"/>
      <stop offset=".5257" stop-color="#cdd4dd"/>
      <stop offset=".7966" stop-color="#bcc6d2"/>
      <stop offset="1" stop-color="#b6c1ce"/>
    </linearGradient>
    <linearGradient id="linearGradient13290" gradientUnits="userSpaceOnUse" x1="89.262009" x2="69.651459" xlink:href="#linearGradient4788" y1="27.077908" y2="46.168324"/>
    <radialGradient id="radialGradient13292" cx="40.584999" cy="70.5" gradientTransform="matrix(1.0171 0 0 1 -2.7806 0)" gradientUnits="userSpaceOnUse" r="7.9718">
      <stop offset=".0473" stop-color="#dbe1e7"/>
      <stop offset=".6864" stop-color="#8195ab"/>
      <stop offset=".7741" stop-color="#7c90a6"/>
      <stop offset=".8836" stop-color="#6c8096"/>
      <stop offset="1" stop-color="#54687e"/>
    </radialGradient>
    <radialGradient id="radialGradient13294" cx="39.715302" cy="72.061501" gradientUnits="userSpaceOnUse" r="5.9809">
      <stop offset=".0473" stop-color="#b7c2cf"/>
      <stop offset=".6864" stop-color="#8195ab"/>
      <stop offset="1" stop-color="#54687e"/>
    </radialGradient>
    <linearGradient id="linearGradient13296" gradientTransform="matrix(.9756 .2195 -.2195 .9756 7.8908 -15.1683)" gradientUnits="userSpaceOnUse" x1="67.671898" x2="75.7939" y1="45.875" y2="45.875">
      <stop offset=".0118" stop-color="#8195ab"/>
      <stop offset=".1237" stop-color="#6b7f95"/>
      <stop offset=".2421" stop-color="#5a6e84"/>
      <stop offset=".3314" stop-color="#54687e"/>
      <stop offset="1" stop-color="#8195ab"/>
    </linearGradient>
    <linearGradient id="linearGradient13298" gradientTransform="matrix(1.0171 0 0 1 -2.7806 0)" gradientUnits="userSpaceOnUse" x1="40.069958" x2="43.775002" y1="71.044403" y2="74.544403">
      <stop offset=".0473" stop-color="#484e67"/>
      <stop offset=".40455437" stop-opacity="0"/>
      <stop offset=".68782461" stop-opacity="0"/>
      <stop offset="1" stop-color="#13142e"/>
    </linearGradient>
    <linearGradient id="linearGradient13300" gradientUnits="userSpaceOnUse" x1="73.763" x2="66.249512" y1="45.965847" y2="38.215847">
      <stop offset="0" stop-color="#18244f"/>
      <stop offset="1" stop-opacity="0"/>
    </linearGradient>
    <filter id="filter16630" height="1.120456" width="1.080304" x="-.040152" y="-.060228">
      <feGaussianBlur stdDeviation="1.7477424"/>
    </filter>
    <linearGradient id="linearGradient2997" gradientUnits="userSpaceOnUse" x1="678.97717" x2="660.93494" xlink:href="#linearGradient3659" y1="469.88528" y2="178.31888"/>
    <radialGradient id="radialGradient2999" cx="638.35217" cy="328.974" gradientTransform="matrix(1.6890418 0 0 1.1985339 -1045.4168 -365.81485)" gradientUnits="userSpaceOnUse" r="48.713684">
      <stop offset="0" stop-color="#ebebeb"/>
      <stop offset="1" stop-color="#cfcfcf"/>
    </radialGradient>
    <radialGradient id="radialGradient3001" cx="662.27393" cy="362.62781" fx="654.18811" fy="358.18716" gradientTransform="matrix(.8927026 .2672035 -.5387264 1.2478507 -343.47039 -559.40106)" gradientUnits="userSpaceOnUse" r="41.154457" spreadMethod="reflect">
      <stop offset="0" stop-color="#929292"/>
      <stop offset=".5" stop-color="#cfcfcf"/>
      <stop offset="1" stop-color="#ededed"/>
    </radialGradient>
    <radialGradient id="radialGradient3003" cx="661.93762" cy="307.5" fx="665.26593" fy="307.79102" gradientTransform="matrix(1.6222571 0 0 1.6867206 -416.97891 -211.16658)" gradientUnits="userSpaceOnUse" r="20.509474" xlink:href="#linearGradient4788"/>
    <radialGradient id="radialGradient3005" cx="687.64062" cy="415.79688" gradientTransform="matrix(1.521149 -2.329701 1.1206283 .7317002 -824.3171 1713.5552)" gradientUnits="userSpaceOnUse" r="13.484375" xlink:href="#linearGradient4788"/>
    <linearGradient id="linearGradient3007" gradientUnits="userSpaceOnUse" x1="648.69159" x2="629.51672" xlink:href="#linearGradient4788" y1="360.4375" y2="427.24884"/>
    <linearGradient id="linearGradient3009" gradientUnits="userSpaceOnUse" x1="665.60358" x2="741.18127" xlink:href="#linearGradient3659" y1="417.89856" y2="349.14856"/>
    <linearGradient id="linearGradient3011" gradientUnits="userSpaceOnUse" x1="715.67871" x2="745.875" xlink:href="#linearGradient4788" y1="359.76755" y2="372.26755"/>
    <radialGradient id="radialGradient3013" cx="678.125" cy="331.26843" gradientTransform="matrix(1 0 0 2.6666667 0 -552.11405)" gradientUnits="userSpaceOnUse" r="2.34375">
      <stop offset="0" stop-color="#a60000"/>
      <stop offset="1" stop-color="#a60000" stop-opacity="0"/>
    </radialGradient>
    <linearGradient id="linearGradient3015" gradientTransform="matrix(.8193108 0 0 .682203 -490.22208 -181.49029)" gradientUnits="userSpaceOnUse" x1="678.125" x2="678.125" y1="332.23517" y2="337.06891">
      <stop offset="0" stop-color="#b30000"/>
      <stop offset="1" stop-color="#ff6868"/>
    </linearGradient>
    <linearGradient id="linearGradient3017" gradientTransform="matrix(.8193108 0 0 .682203 -490.22208 -181.49029)" gradientUnits="userSpaceOnUse" x1="678.125" x2="678.125" xlink:href="#linearGradient4788" y1="324.57254" y2="329.88965"/>
    <linearGradient id="linearGradient3019" gradientTransform="matrix(.9028901 0 0 .8888721 -416.2632 -246.1332)" gradientUnits="userSpaceOnUse" x1="533.92084" x2="533.92084" y1="291.82483" y2="324.81561">
      <stop offset="0" stop-color="#bababa"/>
      <stop offset=".07881773" stop-color="#e7e7e7"/>
      <stop offset="1" stop-color="#bababa"/>
    </linearGradient>
    <radialGradient id="radialGradient3021" cx="534.98535" cy="300.16165" fy="305.79822" gradientTransform="matrix(.36212 .00000006 0 .9894037 -128.17212 -267.80612)" gradientUnits="userSpaceOnUse" r="8.984375">
      <stop offset="0"/>
      <stop offset="1" stop-color="#707070"/>
    </radialGradient>
    <radialGradient id="radialGradient3023" cx="564.46094" cy="297.39062" gradientTransform="matrix(1 .00000055 -.000002 2.728522 .000595 -514.04656)" gradientUnits="userSpaceOnUse" r="6.25" xlink:href="#linearGradient4788"/>
    <linearGradient id="linearGradient3025" gradientUnits="userSpaceOnUse" x1="90.417191" x2="22.365082" xlink:href="#linearGradient4788" y1="120.44122" y2="74.392487"/>
    <filter id="filter3991" height="1.066843" width="1.095184" x="-.047592" y="-.033422">
      <feGaussianBlur stdDeviation="1.5624711"/>
    </filter>
    <linearGradient id="XMLID_30_" gradientUnits="userSpaceOnUse" x1="2.3262" x2="103.0546" y1="83.578102" y2="83.578102">
      <stop offset="0"/>
      <stop offset=".0414" stop-color="#fff"/>
      <stop offset=".9112" stop-color="#fff"/>
      <stop offset="1"/>
    </linearGradient>
  </defs>
  <path d="m1115.8746 30.362767c-.4361-.00065-.8419.144426-1.209.343642-.129.06995-.2478.139005-.3628.229095-.05.03957-.1036.07141-.151.114547-.058.05229-.098.114559-.1511.171821-.2076.224403-.3685.486095-.4837.773196-.059.146832-.091.299217-.1209.45819-.017.09-.054.164561-.06.257731v.05728c-.1115.673189-.1066 1.398096-.151 2.033217-.1527 2.183946-.3007 4.344281-.4534 6.529206-.4891 7.005446-.9919 14.01597-1.481 21.019461-.7892 11.325835-1.5684 22.667099-2.3575 33.991963v.143184l-.03.200458c-.012.179363 0 .354026.03.515464l-.03.05727c-.088 1.298244.8875 2.749138 2.1762 2.749138h100.0741c1.2896.004 2.2918-1.282006 2.2064-2.577318l-.03-.05727c0-.01882 0-.0381 0-.05727.012-.07919.028-.172554.03-.257732 0-.102872 0-.211087 0-.315005-.01-.123207-.022-.246598-.03-.37228-.1025-1.549488-.1988-3.090664-.3023-4.639172-.4238-6.385646-.8748-12.768503-1.2997-19.158065-.8446-12.734153-1.6639-25.465474-2.5086-38.201582-.031-.493688-.088-.995431-.1209-1.489117-.026-.402644-.1638-.782621-.3627-1.116838-.02-.03363-.01-.08188-.03-.114548-.236-.446516-.5502-.830468-.9068-.830468-.3696-.21268-.7977-.342984-1.2391-.343643z" filter="url(#filter16630)" opacity=".6" transform="matrix(2.1442109 0 0 2.0676324 -2362.6639 32.884536)"/>
  <g transform="matrix(2.0769103 0 0 2.1336025 18.960501 8.7725)">
    <path d="m103.995 101.812c.085 1.325-.896 2.659-2.18 2.655h-99.638c-1.283 0-2.26-1.488-2.172-2.816l4.442-5.611 95.324.17z" fill="#acb4e5"/>
    <path d="m99.925 64.447 4.07 36.797c.085 1.302-.896 1.996-2.18 1.995h-99.638c-1.283-.001-2.26-.872-2.172-2.173l4.215-37.05.227-28.395c.091-1.347 1.235-2.397 2.542-2.395l90.25.11c1.306.002 2.446 1.106 2.532 2.453z" fill="url(#linearGradient13256)"/>
    <path d="m100.963 83.994c-29.847-13.829-96.382-16.644-96.382-16.644-.697-.226-1.444-.833-2.179-1.6l-.428 33.612c21.418-1.73 100.074.645 100.074.645.976.515 1.568 1.004 1.941 1.4 0-.055.009-.107.006-.163l-1.162-18z" fill="url(#linearGradient13258)" mask="url(#XMLID_29_)" opacity=".8"/>
    <path d="m99.771 35.789c-.034-.552-.602-2.103-1.312-2.103-.537 1.12-.208 2.976-.134 4.221.135 2.234.271 4.468.404 6.702.433 7.167.864 14.335 1.294 21.502.702 11.634 1.402 23.271 2.104 34.905.003.073.009.146.014.221.028.47.108.94.267 1.383.321.897 1.176.159 1.449-.49.182-.46.135-.913.105-1.387-.102-1.585-.203-3.171-.306-4.755-.422-6.532-.843-13.064-1.266-19.6-.841-13.026-1.681-26.055-2.522-39.083-.031-.505-.064-1.011-.097-1.516m-94.655-1.706c-.844.956-.73 2.452-.812 3.657-.152 2.234-.303 4.468-.455 6.703-.487 7.166-.973 14.332-1.46 21.496-.789 11.634-1.579 23.267-2.368 34.9-.057.847.977 3.09 1.528 1.726.259-.643.306-1.32.349-2.001.101-1.583.201-3.167.302-4.752.416-6.531.83-13.063 1.246-19.595.828-13.025 1.656-26.05 2.483-39.074.071-1.124.316-2.57-.149-3.591-.249.137-.473.318-.664.531" fill="url(#linearGradient13260)"/>
    <g>
      <path d="m47.005 38.077c-.533 0-1.021.398-1.13 1.113-.104.689.26 1.124.81 1.124h.005c.486 0 1.049-.328 1.138-1.175.063-.613-.268-1.062-.823-1.062z" fill="#5e7996"/>
      <path d="m49.435 38.127-.301.45c-.076.101-.149.202-.226.355h-.012c-.053-.153-.105-.255-.17-.355l-.239-.45h-.394l.573 1.013-.826 1.175h.411l.342-.543c.083-.106.167-.267.242-.371h.008c.062.104.117.265.188.371l.261.543h.423l-.629-1.175.735-1.013z" fill="#5e7996"/>
      <path d="m51.015 39.347c-.054.157-.102.371-.141.478h-.009c-.03-.107-.074-.321-.12-.425l-.38-1.273h-.386l.647 1.968c.019.054.026.108.026.108-.002.055-.015.055-.033.111-.097.219-.226.386-.332.444-.117.112-.246.225-.341.225l.079.343c.095 0 .279-.057.475-.229.268-.283.462-.672.743-1.432l.559-1.539h-.372z" fill="#5e7996"/>
      <path d="m53.759 38.127h-.312v.299h-.009c-.096-.15-.281-.349-.617-.349-.449 0-.877.398-.879 1.113-.002.635.36 1.068.868 1.068.316 0 .535-.163.638-.379h.008l.01.27c.021.552-.257.778-.643.778-.257 0-.473-.056-.611-.168l-.092.338c.168.115.446.172.697.172.265 0 .555-.057.755-.286.19-.169.276-.504.251-1.051l-.056-1.255c-.009-.251-.013-.402-.008-.55z" fill="#5e7996"/>
      <path d="m55.094 38.077c-.564 0-.885.5-.851 1.113.038.689.44 1.124 1.067 1.124.327 0 .548-.056.675-.111l-.097-.324c-.128.053-.29.107-.552.107-.37 0-.698-.215-.74-.743h1.396c.007-.053.003-.104-.004-.155-.038-.411-.261-1.011-.894-1.011z" fill="#5e7996"/>
      <path d="m58.112 38.984c-.106-.708-.552-.907-.82-.907-.321 0-.522.198-.594.398h-.007l-.062-.349h-.312c.029.148.052.349.075.55l.179 1.637h.372l-.162-1.382c-.006-.052-.005-.102.005-.153.04-.202.197-.402.427-.402.337 0 .494.301.545.659l.186 1.279h.37z" fill="#5e7996"/>
    </g>
    <g>
      <path d="m47.005 37.143c-.533 0-1.021.398-1.13 1.114-.104.688.26 1.123.81 1.123h.005c.486 0 1.049-.327 1.138-1.174.063-.614-.268-1.063-.823-1.063z" fill="url(#linearGradient13262)"/>
      <path d="m49.435 37.193-.301.449c-.076.101-.149.202-.226.355h-.012c-.053-.153-.105-.255-.17-.355l-.239-.449h-.394l.573 1.012-.826 1.174h.411l.342-.543c.083-.105.167-.266.242-.37h.008c.062.104.117.265.188.37l.261.543h.423l-.629-1.174.735-1.012z" fill="url(#linearGradient13264)"/>
      <path d="m51.015 38.413c-.054.158-.102.371-.141.478h-.009c-.03-.107-.074-.32-.12-.424l-.38-1.273h-.386l.647 1.967c.019.054.026.109.026.109-.002.055-.015.055-.033.11-.097.221-.226.387-.332.445-.117.112-.246.224-.341.224l.079.344c.095 0 .279-.058.475-.229.268-.284.462-.673.743-1.433l.559-1.538h-.372z" fill="url(#linearGradient13266)"/>
      <path d="m53.759 37.193h-.312v.298h-.009c-.096-.151-.281-.348-.617-.348-.449 0-.877.398-.879 1.114-.002.634.36 1.067.868 1.067.316 0 .535-.164.638-.379h.008l.01.27c.021.552-.257.778-.643.778-.257 0-.473-.056-.611-.168l-.092.339c.168.114.446.171.697.171.265 0 .555-.057.755-.286.19-.168.276-.503.251-1.05l-.056-1.255c-.009-.253-.013-.404-.008-.551z" fill="url(#linearGradient13268)"/>
      <path d="m55.094 37.143c-.564 0-.885.499-.851 1.114.038.688.44 1.123 1.067 1.123.327 0 .548-.055.675-.11l-.097-.325c-.128.053-.29.108-.552.108-.37 0-.698-.216-.74-.744h1.396c.007-.052.003-.104-.004-.155-.038-.411-.261-1.011-.894-1.011z" fill="url(#linearGradient13270)"/>
      <path d="m58.112 38.049c-.106-.709-.552-.906-.82-.906-.321 0-.522.197-.594.398h-.007l-.062-.348h-.312c.029.147.052.348.075.549l.179 1.637h.372l-.162-1.382c-.006-.051-.005-.102.005-.153.04-.202.197-.402.427-.402.337 0 .494.301.545.659l.186 1.279h.37z" fill="url(#linearGradient13272)"/>
    </g>
    <ellipse cx="17.615" cy="39.644001" fill="none" rx="1.633" ry="1.007" stroke="#3f576f" stroke-width=".5"/>
    <g>
      <path d="m15.595 44.549c-1.391 0-2.584 1.129-2.659 2.518l-1.898 35.228c-.039.709.216 1.409.699 1.919.481.507 1.133.787 1.836.787h76.85c.702 0 1.354-.278 1.833-.784.483-.509.739-1.208.705-1.919 0-.003-1.901-35.23-1.901-35.23-.072-1.387-1.264-2.518-2.659-2.518h-72.806z" fill="url(#linearGradient13274)"/>
      <path d="m92.341 82.812c.042.835-.581 1.522-1.385 1.522h-77.917c-.806 0-1.429-.688-1.384-1.522l1.924-36.388c.042-.804.723-1.458 1.511-1.458h73.816c.788 0 1.468.655 1.508 1.458z" fill="url(#linearGradient13276)" opacity=".7"/>
    </g>
    <path d="m81.782622 59c-.559.058-.912-.264-1.456-.169-2.593.452-4.983 1.262-6.725 1.737-8.504 2.324-16.912 4.763-24.547 7.329-8.229 2.767-16.269 5.585-25.073 8.203-2.598.772-4.867 1.969-5.728 3.022-.305.373-1.435.669-1.361 1.12.305 1.864 9.546.366 11.896-.158 3.29-.736 5.621-1.473 8.285-2.394 6.668-2.306 14.241-4.376 21.303-6.577 7.792-2.43 15.155-5.021 22.201-7.634.561-.208.922-.017 1.479-.227-.09-1.416-.182-2.834-.274-4.252z" fill="url(#linearGradient13278)" opacity=".6"/>
    <path d="m11.655 82.812c-.044.835.578 1.522 1.384 1.522h77.917c.804 0 1.427-.688 1.385-1.522l-.049-.94c-24.66-8.386-63.413-11.755-79.908-12.858z" fill="#fff" opacity=".1"/>
    <g transform="matrix(.44653 -.2424224 .2648413 .4313493 -15.978025 61.29986)">
      <path d="m133.64126 59.92884c-3.95863.0048-8.14809.285765-12.58601.921807-17.94448 18.048899-16.58909 37.479273-9.24995 57.336373-7.57563 33.22794 10.2444 47.18154 23.61986 52.46705 17.62745 6.96576 59.31754-11.39934 48.23154-41.0981-6.68271-17.90257.36207-49.792856-13.19255-62.334617-7.67022-2.567286-15.4306-5.025787-24.05999-6.329735l-1.5922-.245816c-3.55949-.471813-7.24941-.721686-11.1707-.716962z" fill-rule="evenodd" filter="url(#filter3991)" opacity=".4"/>
      <g transform="matrix(.9629689 0 0 .9373817 87.741449 54.397269)">
        <path d="m663.5625 271.40625c-4.89482.007-10.07505.43595-15.5625 1.40625-22.18823 27.53425-20.51231 57.176-11.4375 87.46875-9.36722 50.69043 12.66712 71.97716 29.20579 80.0404 21.79622 10.62652 73.34573-17.39012 59.63796-62.69665-8.26312-27.31103.44771-75.96084-16.3125-95.09375-9.48417-3.91649-19.07982-7.66703-29.75-9.65625v9.78125c-.00003.54386-.45614 1-1 1-.54385.00002-.96875-.45614-.96875-1v-10.15625c-4.40128-.71977-8.96385-1.10096-13.8125-1.09375z" fill="url(#linearGradient2997)" fill-rule="evenodd" filter="url(#filter3364)" transform="matrix(.8193108 0 0 .682203 -490.22208 -181.49029)"/>
        <path d="m53.441852 3.6638537c-4.010375.0049634-8.254594.2974021-12.750522.9593471-18.179059 18.7839492-16.805958 39.0056372-9.370869 59.6714372-7.674667 34.581165 10.378306 49.103032 23.928619 54.603802 17.857875 7.24944 60.09295-11.86359 48.86203-42.771842-6.77007-18.631666.36681-51.820711-13.36501-64.873241-7.770488-2.6718404-15.632308-5.2304645-24.374502-6.5875158v44.8761558c-.000024.371027-.373716.682208-.819308.682208-.445585.000015-.793707-.311181-.793707-.682208v-45.1319827c-3.606019-.4910284-7.344178-.7510776-11.316731-.7461606z" fill="url(#radialGradient2999)" fill-rule="evenodd"/>
        <path d="m53.441852 3.6638537c-2.041245.00253-4.164177.071464-6.324056.2345067-14.359916 14.2993596-17.534004 42.6829316-2.432332 61.5688116 14.808851 18.519701 29.250251 35.400498 16.975101 54.832058 13.378124 1.04888 32.454025-6.5353 40.530285-20.08234-22.981153-35.727213.99527-66.413605-15.438896-90.3066126-6.489824-2.1594688-13.133566-4.095886-20.380356-5.223116v44.8548356c-.000024.371027-.373716.682208-.819308.682208-.445585.000015-.793707-.311181-.793707-.682208v-45.1106625c-3.597043-.4901484-7.351091-.7723901-11.316731-.7674808z" fill="url(#radialGradient3001)" fill-rule="evenodd"/>
        <path d="m654.9375 272.90625c-12.42179 15.80837-17.51394 42.23097-11.90625 65.9375 3.50141 2.08185 7.41206 3.25 11.53125 3.25 9.56493 0 17.95855-6.2724 22.8125-15.75v-37.71875c-4.79428-9.33102-13.04399-15.5534-22.4375-15.71875zm24.40625 20.3125v28.59375c1.56186-4.36234 2.43751-9.20775 2.4375-14.3125 0-5.09701-.87913-9.92372-2.4375-14.28125z" fill="url(#radialGradient3003)" fill-rule="evenodd" filter="url(#filter3247)" transform="matrix(.8193108 0 0 .682203 -490.22208 -181.49029)"/>
        <path d="m677.15625 397.75c-1.02176 0-2.0118.0625-3 .15625 4.95383 11.71412 6.89069 23.52684 3 35.9375 13.21978 0 21.22281-8.45442 23.96875-18.03125 19.93209-69.51576-7.16127-31.06792-23.96875-18.0625z" fill="url(#radialGradient3005)" filter="url(#filter3331)" opacity=".423221" transform="matrix(.8193108 0 0 .682203 -500.22208 -181.49029)"/>
        <path d="m45.677677 4.751129c-8.060011 8.729367-12.237407 21.964105-11.265524 35.154773-.043366-4.331648 1.186502-11.407873 2.265624-16.302973 1.7329-6.799176 4.861577-13.014898 9.15352-17.8711332-.082062-.3148435-.138365-.6434811-.15362-.9806668zm19.407424 1.5136379-.768104 43.0628231h.768104zm.793708.1065942v42.9562289h.768103zm22.070184 4.7967399c-.147033.155501-.382888.255826-.640086.255826h-.153621c3.259538 5.26628 4.658584 10.871942 5.118754 16.798608l.82125 11.683367c.58976-10.349224.24324-19.9844-5.146297-28.737801z" fill-opacity=".497942" fill-rule="evenodd"/>
        <path d="m636.53125 360.4375c-2.81302 15.31213-2.74751 27.92879-.84375 38.3125 6.45681 12.30503 13.23271 22.14702 18.3125 19.84375 7.65887-3.47267-8.35702-29.80919-14.375-49.375-1.01634-3.30436-2.04136-6.21792-3.09375-8.78125z" fill="url(#linearGradient3007)" filter="url(#filter3649)" opacity=".614232" transform="matrix(.8193108 0 0 .682203 -490.22208 -181.49029)"/>
        <path d="m663.5625 271.40625c-2.49142.004-5.08254.10475-7.71875.34375-17.52683 20.96057-21.40092 62.56633-2.96875 90.25 18.07476 27.1469 35.70104 51.89144 20.71875 80.375 16.32851 1.53748 39.61138-9.57971 49.46875-29.4375-28.04937-52.37035 1.21477-97.35168-18.84375-132.375-7.92108-3.16543-16.03002-6.00391-24.875-7.65625v65.75c-.00003.54386-.45614 1-1 1-.54385.00002-.96875-.45614-.96875-1v-66.125c-4.39033-.71848-8.97229-1.1322-13.8125-1.125z" fill="none" filter="url(#filter4868)" stroke="url(#linearGradient3009)" stroke-width=".3" transform="matrix(.8193108 0 0 .682203 -490.22208 -181.49029)"/>
        <path d="m720.3125 325.125c-1.647 7.21764-3.04099 16.66154-3.875 27.0625-1.84413 22.99806-.21257 41.90852 3.65625 42.21875 2.04858.16427 4.29946-4.95148 6.25-13.1875-.27498-1.18595-.57108-2.38268-.9375-3.59375-4.27709-14.13651-4.0258-33.98188-5.09375-52.5z" fill="url(#linearGradient3011)" filter="url(#filter4284)" opacity=".614232" transform="matrix(.8193108 0 0 .682203 -490.22208 -181.49029)"/>
        <rect fill="url(#radialGradient3013)" filter="url(#filter3996)" height="12.5" rx="2.093595" transform="matrix(1.6386216 0 0 .8527536 -1045.8172 -238.25485)" width="4.6875" x="675.78125" y="325.01843"/>
        <rect fill="url(#linearGradient3015)" height="8.527536" rx="1.262695" ry="1.051389" width="3.840519" x="63.452789" y="40.238243"/>
        <path d="m64.860993 40.801272c-.556545 0-1.024136.368017-1.024136.831442v1.04462c.96411-.05893 2.000269-.02934 3.072416.06395v-1.108573c0-.463417-.4676-.831442-1.024136-.831442z" fill="url(#linearGradient3017)"/>
        <rect height="24.551855" rx="6.234764" ry="8.384054" stroke="url(#linearGradient3019)" stroke-dashoffset="1.0878" stroke-linecap="round" stroke-linejoin="round" stroke-width=".716683" width="12.469527" x="59.573971" y="14.10623"/>
        <path d="m70.584155 26.770083c0 8.424233-2.119788 10.306755-4.731664 10.306755-2.611892 0-4.73168-2.348533-4.73168-10.306755 0-7.731342 2.119788-10.306771 4.73168-10.306771 2.611876 0 4.731664 2.109078 4.731664 10.306771z" fill="url(#radialGradient3021)"/>
        <path d="m570.71095 290.65625c-3.45 0-6.24998 4.31603-6.25 10.78479 0 .60058.0159 2.10762.0625 2.68396.45485-5.63136 3.05781-9.96875 6.1875-9.96875 3.12971-.00001 5.70142 4.33739 6.15625 9.96875.0466-.57634.0937-2.08338.0937-2.68396 0-6.46875-2.79998-10.7848-6.25-10.78479z" fill="url(#radialGradient3023)" filter="url(#filter4118)" opacity=".46442" transform="matrix(.7570674 0 0 .8795109 -366.21409 -239.16073)"/>
        <path d="m31.312501 64.28125c-7.67467 34.581163 10.38719 49.12423 23.9375 54.625 17.50668 7.10687 58.415469-11.12869 49.437499-40.96875 5.13583 27.36011-32.688339 43.71055-49.218749 37-25.97345-9.2107-26.13359-43.117415-24.15625-50.65625z" fill="url(#linearGradient3025)" fill-rule="evenodd" filter="url(#filter4824)" opacity=".434457"/>
      </g>
    </g>
  </g>
  <g transform="matrix(2.1110953 0 0 2.200019 -27.038324 7.664248)">
    <path d="m51.713 57.441c2.149-2.539 14.517-16.95 19.25-22.403 4.734-5.453 32.571-34.905 35.828-35.033 0 0 .33-.078.789.364.61.532.375 1.025.375 1.025-3.01 7.059-28.514 36.227-31.36 39.508-2.842 3.28-19.101 19.844-20.454 21.569-2.678 2.753-9.077 10.711-9.077 10.711l-4.801-5.679c-.001 0 6.431-6.585 9.45-10.062z" fill="url(#linearGradient13280)"/>
    <path d="m36.004 79.897c.115-.506 1.362-2.421 1.658-2.531.295-.109 1.052.622.871 1.076-.181.455-2.645 1.959-2.529 1.455z" fill="url(#linearGradient13282)"/>
    <path d="m38.486 77.999c.011.084.007.166-.021.242-.173.448-2.42 1.979-2.305 1.479.054-.239.35-.808.675-1.344-.389.585-.771 1.254-.832 1.521-.117.504 2.348-1 2.529-1.455.054-.131.025-.292-.046-.443z" fill="url(#linearGradient13284)"/>
    <polygon fill="url(#radialGradient13286)" points="47.063 73.182 42.262 67.503 41.973 68.382 46.275 73.384"/>
    <path d="m75.786 40.422-.591.663c-1.496 1.689-6.476 6.783-11.29 11.707-4.75 4.857-9.234 9.444-9.932 10.309-1.882 1.904-5.548 6.225-7.674 8.76.18.214.548.648.768.906 1.054-1.307 6.493-8.017 8.899-10.489.661-.847 4.994-5.347 9.583-10.114 4.639-4.817 9.436-9.799 10.86-11.443l.566-.65c16.06-18.48 26.476-31.432 29.837-37.063-3.92 6.023-14.728 19.067-31.026 37.414z" filter="url(#filter4429)" opacity=".3"/>
    <path d="m71.836 45.625c-3.872.317-5.743-.5-6.631-1.24-.316-.265-.562-.563-.739-.885-.008-.021-.022-.039-.04-.055-.213.249-.43.5-.651.755.215.349.491.669.825.952.93.788 2.815 1.674 6.514 1.501.321-.343.621-.664.898-.958-.046-.048-.108-.075-.176-.07z" fill="url(#linearGradient13288)" opacity=".5"/>
    <path d="m107.302 1.485s-31.134 35.524-31.295 36.176c-.015.1.049.369.093.446.05.078.348.241.47.246.118.004 26.117-29.551 30.732-36.868z" fill="url(#linearGradient13290)" opacity=".3"/>
    <path d="m41.973 68.382 4.302 5.002-7.263 5.302s-.555.095-.825-.121c-.032-.574-.61-1.087-.964-.789-.079-.059.034-.591.034-.591z" fill="url(#radialGradient13292)"/>
    <path d="m45.085 72c-.878 1.186-4.349 5.75-6.399 6.578-.127.047-.211.069-.284.083.277.077.611.024.611.024l7.263-5.302z" fill="url(#radialGradient13294)"/>
    <path d="m65.058 44.581c-.389-.327-.634-.663-.791-.952-.109.127-.217.254-.328.383.178.299.434.627.809.943.989.839 2.909 1.658 6.604 1.442.171-.183.337-.358.493-.525-3.861.314-5.808-.476-6.787-1.291z" fill="url(#linearGradient13296)"/>
    <path d="m41.973 68.382 4.302 5.002-7.263 5.302s-.555.095-.825-.121c-.032-.574-.61-1.087-.964-.789-.079-.059.034-.591.034-.591z" fill="url(#linearGradient13298)" opacity=".475285"/>
    <path clip-path="url(#clipPath12229)" d="m51.713 57.441c2.149-2.539 14.517-16.95 19.25-22.403 4.734-5.453 32.571-34.905 35.828-35.033 0 0 .33-.078.789.364.61.532.375 1.025.375 1.025-3.01 7.059-28.514 36.227-31.36 39.508-2.842 3.28-19.101 19.844-20.454 21.569-2.678 2.753-9.077 10.711-9.077 10.711l-4.801-5.679c-.001 0 6.431-6.585 9.45-10.062z" fill="none" filter="url(#filter12253)" stroke="url(#linearGradient13300)" stroke-width="2"/>
  </g>
</svg>
