<svg height="256" width="256" xmlns="http://www.w3.org/2000/svg" xmlns:xlink="http://www.w3.org/1999/xlink">
  <defs>
    <filter id="filter3934">
      <feGaussianBlur stdDeviation=".61780488"/>
    </filter>
    <filter id="filter3033" height="1.089163" width="1.074037" x="-.037018" y="-.044581">
      <feGaussianBlur stdDeviation="1.7275281"/>
    </filter>
    <filter id="filter2991" height="1.107865" width="1.107865" x="-.053933" y="-.053933">
      <feGaussianBlur stdDeviation="2.5168539"/>
    </filter>
    <radialGradient cx="235.25241" cy="58.209709" fy="74.209709" gradientUnits="userSpaceOnUse" r="56">
      <stop offset="0"/>
      <stop offset=".57474756" stop-color="#a10000"/>
      <stop offset=".69331437" stop-color="#fe5050"/>
      <stop offset=".81188118" stop-color="#ffeaea"/>
      <stop offset=".90594059" stop-color="#ff3434"/>
      <stop offset="1" stop-color="#700"/>
    </radialGradient>
    <clipPath id="clipPath2939">
      <path d="m235.25241 8c-30.912 0-56 25.088-56 56s25.088 56 56 56 56-25.088 56-56-25.088-56-56-56zm0 24c17.664 0 32 14.336 32 32s-14.336 32-32 32-32-14.336-32-32 14.336-32 32-32z"/>
    </clipPath>
    <filter id="filter2929" height="1.128812" width="1.128812" x="-.064406" y="-.064406">
      <feGaussianBlur stdDeviation="2.1722846"/>
    </filter>
    <clipPath id="clipPath10790">
      <path d="m90.0033-3.20782s-26.666 53.332-21.3328 53.332 69.3316 15.9996 69.3316 15.9996l10.6664 58.6652-90.6644 21.3328 15.9996-63.9984-90.6644-21.3328-37.3324-37.3324s74.6648-47.9988 79.998-47.9988 63.9984 21.3328 63.9984 21.3328z"/>
    </clipPath>
    <radialGradient id="radialGradient11895" cx="-137.8632096" cy="194.32155688187" fy="194.04454083503" gradientUnits="userSpaceOnUse" r="57.3950216">
      <stop offset="0"/>
      <stop offset=".57474756" stop-color="#a10000"/>
      <stop offset=".64446282" stop-color="#fe5050"/>
      <stop offset=".81188118" stop-color="#ffeaea"/>
      <stop offset=".92322564" stop-color="#ff1e1e"/>
      <stop offset="1" stop-color="#620000"/>
    </radialGradient>
    <radialGradient id="radialGradient11897" cx="-137.8733948" cy="194.3215560231" fy="211.0915848231" gradientUnits="userSpaceOnUse" r="58.6951008">
      <stop offset="0" stop-color="#7f7f7f"/>
      <stop offset=".57474756" stop-color="#7e7e7e"/>
      <stop offset=".81188118" stop-color="#fff"/>
      <stop offset="1" stop-color="#ababab"/>
    </radialGradient>
    <filter id="filter2826" height="1.096" width="1.096" x="-.048" y="-.048">
      <feGaussianBlur stdDeviation="2.40001"/>
    </filter>
    <radialGradient id="radialGradient2894" cx="205.22449" cy="-114.21429" gradientUnits="userSpaceOnUse" r="125.1714">
      <stop offset=".1775" stop-color="#f0f0f0"/>
      <stop offset=".5325" stop-color="#a5a5bb"/>
    </radialGradient>
    <linearGradient id="linearGradient2896" gradientUnits="userSpaceOnUse" x1="205.71429" x2="205.71429" y1="-225.36909" y2="-118.00019">
      <stop offset="0" stop-color="#fff"/>
      <stop offset="1" stop-color="#fff" stop-opacity="0"/>
    </linearGradient>
    <linearGradient id="linearGradient2898" gradientUnits="userSpaceOnUse" x1="205.715289" x2="205.715289" y1="-144.21429" y2="-212.21379">
      <stop offset=".2959" stop-color="#fff"/>
      <stop offset="1" stop-color="#4a4a55"/>
    </linearGradient>
    <linearGradient id="linearGradient2900" gradientUnits="userSpaceOnUse" x1="205.715289" x2="205.715289" y1="-146.21429" y2="-210.21379">
      <stop offset=".1953" stop-color="#e9e9f0"/>
      <stop offset=".2597" stop-color="#dadae2"/>
      <stop offset=".461" stop-color="#b1b1bb"/>
      <stop offset=".6437" stop-color="#93939f"/>
      <stop offset=".7999" stop-color="#81818e"/>
      <stop offset=".9112" stop-color="#7a7a88"/>
      <stop offset="1" stop-color="#696975"/>
    </linearGradient>
    <linearGradient id="linearGradient2902-2" gradientUnits="userSpaceOnUse" x1="205.715289" x2="205.715289" y1="-152.21429" y2="-204.21379">
      <stop offset="0" stop-color="#bbb"/>
      <stop offset="1" stop-color="#555"/>
    </linearGradient>
  </defs>
  <g transform="matrix(1.9623189 0 0 1.9623352 -276.72016 477.75384)">
    <path d="m265.71479-171.21229v-12.002l-12.439-.415c-.552-4.127-1.622-8.089-3.153-11.816l10.555-6.572-6-10.394-10.981 5.861c-2.503-3.236-5.408-6.142-8.645-8.645l5.861-10.981-10.393-5.999-6.572 10.555c-3.728-1.532-7.689-2.603-11.817-3.155l-.416-12.439h-12l-.415 12.439c-4.128.552-8.09 1.623-11.817 3.154l-6.572-10.554-10.393 6 5.861 10.981c-3.236 2.503-6.142 5.409-8.646 8.646l-10.981-5.861-6 10.392 10.556 6.573c-1.532 3.727-2.603 7.689-3.154 11.817l-12.439.413-.001 12 12.44.415c.552 4.128 1.623 8.09 3.154 11.817l-10.555 6.573 5.999 10.393 10.983-5.862c2.503 3.236 5.409 6.143 8.646 8.646l-5.862 10.982 10.392 6 6.573-10.557c3.727 1.531 7.689 2.603 11.817 3.154l.414 12.439h12l.415-12.439c4.128-.552 8.09-1.622 11.816-3.154l6.572 10.556 10.393-6-5.861-10.983c3.235-2.503 6.142-5.409 8.645-8.645l10.981 5.861 6.001-10.393-10.556-6.572c1.531-3.727 2.603-7.688 3.154-11.816zm-60 23.998c-16.542 0-30-13.458-30-30s13.458-30 30-30 30 13.458 30 30-13.458 30-30 30z" filter="url(#filter2826)"/>
    <path d="m265.71479-172.21229v-12.002l-12.439-.415c-.552-4.127-1.622-8.089-3.153-11.816l10.555-6.572-6-10.394-10.981 5.861c-2.503-3.236-5.408-6.142-8.645-8.645l5.861-10.981-10.393-5.999-6.572 10.555c-3.728-1.532-7.689-2.603-11.817-3.155l-.416-12.439h-12l-.415 12.439c-4.128.552-8.09 1.623-11.817 3.154l-6.572-10.554-10.393 6 5.861 10.981c-3.236 2.503-6.142 5.409-8.646 8.646l-10.981-5.861-6 10.392 10.556 6.573c-1.532 3.727-2.603 7.689-3.154 11.817l-12.439.413-.001 12 12.44.415c.552 4.128 1.623 8.09 3.154 11.817l-10.555 6.573 5.999 10.393 10.983-5.862c2.503 3.236 5.409 6.143 8.646 8.646l-5.862 10.982 10.392 6 6.573-10.557c3.727 1.531 7.689 2.603 11.817 3.154l.414 12.439h12l.415-12.439c4.128-.552 8.09-1.622 11.816-3.154l6.572 10.556 10.393-6-5.861-10.983c3.235-2.503 6.142-5.409 8.645-8.645l10.981 5.861 6.001-10.393-10.556-6.572c1.531-3.727 2.603-7.688 3.154-11.816zm-60 23.998c-16.542 0-30-13.458-30-30s13.458-30 30-30 30 13.458 30 30-13.458 30-30 30z" fill="url(#radialGradient2894)"/>
    <path d="m200.68179-237.21429c-.055 1.645-.382 11.473-.382 11.473-.016.488-.383.893-.867.958-3.989.533-7.881 1.572-11.569 3.088-.452.186-.972.018-1.229-.396 0 0-5.191-8.338-6.061-9.734-1.292.746-7.425 4.287-8.717 5.033.775 1.452 5.406 10.128 5.406 10.128.08.149.118.311.118.47 0 .301-.136.597-.388.792-3.167 2.45-6.016 5.299-8.466 8.466-.298.386-.832.5-1.262.271 0 0-8.677-4.631-10.128-5.406-.746 1.292-4.287 7.425-5.033 8.717 1.396.87 9.734 6.061 9.734 6.061.301.188.472.513.472.85 0 .127-.024.256-.075.38-1.517 3.689-2.556 7.582-3.088 11.569-.064.484-.47.851-.958.867 0 0-9.828.328-11.473.382v3.171c8.88 1.789 18.332 3.162 28.128 4.095-.06-1.024-.129-2.235-.129-2.235 0-17.093 13.907-31 31-31 17.094 0 31 13.907 31 31 0 0-.07 1.223-.129 2.251 9.789-.925 19.24-2.292 28.129-4.074 0-.887 0-2.208 0-3.209-1.645-.055-11.473-.382-11.473-.382-.488-.016-.894-.383-.958-.867-.533-3.988-1.572-7.88-3.087-11.568-.051-.124-.075-.252-.075-.379 0-.337.171-.662.472-.85 0 0 8.337-5.191 9.733-6.061-.746-1.292-4.287-7.426-5.033-8.718-1.451.774-10.128 5.406-10.128 5.406-.43.229-.963.115-1.262-.271-2.45-3.168-5.299-6.017-8.465-8.466-.253-.195-.389-.49-.389-.792 0-.16.038-.321.118-.47 0 0 4.631-8.676 5.405-10.128-1.292-.746-7.425-4.288-8.717-5.034-.87 1.396-6.062 9.734-6.062 9.734-.258.414-.777.582-1.229.396-3.689-1.516-7.582-2.555-11.57-3.088-.483-.065-.851-.47-.866-.958 0 0-.328-9.828-.383-11.473-1.49.001-8.572.001-10.064.001z" fill="url(#linearGradient2896)"/>
    <path d="m205.71479-212.21429c-18.777 0-34 15.223-34 34 0 18.778 15.223 34 34 34 18.778 0 34-15.222 34-34 0-18.777-15.222-34-34-34zm0 59c-13.785 0-25-11.215-25-25s11.215-25 25-25 25 11.215 25 25-11.215 25-25 25z" fill="url(#linearGradient2898)"/>
    <path d="m205.71479-210.21429c-17.645 0-32 14.355-32 32s14.355 32 32 32 32-14.355 32-32-14.355-32-32-32zm0 57c-13.785 0-25-11.215-25-25s11.215-25 25-25 25 11.215 25 25-11.215 25-25 25z" fill="url(#linearGradient2900)"/>
    <path d="m205.71479-204.21429c-14.336 0-26 11.664-26 26 0 14.337 11.664 26 26 26 14.337 0 26-11.663 26-26 0-14.336-11.663-26-26-26zm0 50c-13.233 0-24-10.767-24-24s10.767-24 24-24 24 10.767 24 24-10.767 24-24 24z" fill="url(#linearGradient2902-2)"/>
    <path d="m161.00579-159.79329-10.253 6.384.425.735 10.131-6.308c-.11-.266-.199-.543-.303-.811z" fill="#fff"/>
    <path d="m180.91079-232.17529 6.572 10.555c3.727-1.532 7.689-2.603 11.817-3.154l.415-12.44h12l.415 12.439c4.128.552 8.09 1.623 11.817 3.155l6.572-10.555 9.984 5.766.408-.765-10.391-6.001-6.572 10.555c-3.728-1.532-7.689-2.603-11.817-3.155l-.416-12.439h-12l-.415 12.439c-4.128.552-8.09 1.623-11.817 3.154l-6.572-10.554-10.393 6 .408.765z" fill="#fff"/>
    <path d="m235.42079-215.88729-.37.694c3.236 2.503 6.142 5.409 8.645 8.645l10.981-5.861 5.575 9.658.425-.265-6-10.394-10.981 5.861c-2.406-3.108-5.19-5.903-8.275-8.338z" fill="#fff"/>
    <path d="m176.00979-139.53929-5.491 10.288.408.235 5.454-10.218c-.127-.097-.245-.207-.371-.305z" fill="#fff"/>
    <path d="m249.69579-176.83029c-.394 23.923-19.966 43.267-43.981 43.267-24.016 0-43.587-19.344-43.981-43.267-.004.244-.019.487-.019.732 0 24.262 19.738 44 44 44s44-19.738 44-44c0-.245-.015-.488-.019-.732z" fill="#fff" opacity=".5"/>
    <path d="m253.27579-184.62829c-.513-3.833-1.489-7.514-2.85-11.005l-.304.189c1.531 3.727 2.602 7.688 3.153 11.816l12.44.414v-1z" fill="#fff"/>
    <path d="m250.12079-158.98229 10.131 6.308.425-.735-10.252-6.384c-.106.268-.194.545-.304.811z" fill="#fff"/>
    <path d="m156.75279-212.41029 10.981 5.861c2.503-3.236 5.409-6.142 8.646-8.646l-.371-.694c-3.084 2.435-5.87 5.23-8.275 8.339l-10.981-5.861-6 10.392.425.265z" fill="#fff"/>
    <path d="m235.04979-139.23429 5.453 10.217.408-.235-5.491-10.287c-.125.098-.243.208-.37.305z" fill="#fff"/>
    <path d="m145.71479-183.21429 12.439-.415c.551-4.128 1.623-8.09 3.154-11.817l-.303-.189c-1.361 3.491-2.339 7.173-2.851 11.006l-12.439.415-.001 12z" fill="#fff"/>
  </g>
  <g transform="matrix(1.3472142 0 0 1.3472142 312.68815 -143.15402)">
    <path d="m64 11c-30.912 0-56 25.088-56 56s25.088 56 56 56 56-25.088 56-56-25.088-56-56-56zm0 24c17.664 0 32 14.336 32 32s-14.336 32-32 32-32-14.336-32-32 14.336-32 32-32z" fill-opacity=".610294" filter="url(#filter2991)" transform="matrix(1.0481268 0 0 1.0481268 -204.94332 133.3104)"/>
    <path d="m64 30c-17.664 0-32.00001 14.336-32 32 0 .838553.03031 1.677625.09375 2.5 1.27288-16.50084 15.0808-29.5 31.90625-29.5 16.82544 0 30.63337 12.99916 31.90625 29.5.06344-.822375.09375-1.661447.09375-2.5 0-17.664-14.33601-32-32-32zm-55.9375 34.5c-.03667.831071-.0625 1.65994-.0625 2.5-.00001 30.912 25.088 56 56 56 30.91199 0 56-25.088 56-56 0-.84006-.0258-1.668929-.0625-2.5-1.31268 29.750158-25.86557 53.5-55.9375 53.5-30.07194 0-54.62483-23.749842-55.9375-53.5z" filter="url(#filter3033)" opacity=".359116" transform="matrix(1.0481268 0 0 1.0481268 -204.94332 133.3104)"/>
    <path d="m-137.8632 141.69541c-32.3997 0-58.69511 26.29541-58.69511 58.69511 0 32.39969 26.29541 58.6951 58.69511 58.6951 32.39969 0 58.695096-26.29541 58.695096-58.6951 0-32.3997-26.295406-58.69511-58.695096-58.69511zm0 25.15505c18.51411 0 33.54005 15.02594 33.54005 33.54006 0 18.51411-15.02594 33.54005-33.54005 33.54005-18.51412 0-33.54006-15.02594-33.54006-33.54005 0-18.51412 15.02594-33.54006 33.54006-33.54006z" fill="url(#radialGradient11895)"/>
    <path d="m235.25241 8c-30.912 0-56 25.088-56 56s25.088 56 56 56 56-25.088 56-56-25.088-56-56-56zm0 24c17.664 0 32 14.336 32 32s-14.336 32-32 32-32-14.336-32-32 14.336-32 32-32z" style="fill:none;stroke:#db7100;stroke-width:4;stroke-linecap:round;stroke-linejoin:round;stroke-dashoffset:1.0878;clip-path:url(#clipPath2939);filter:url(#filter2929)" transform="matrix(1.0481268 0 0 1.0481268 -384.43756 133.3104)"/>
    <path d="m-137.8632 141.5906c-3.02642 0-6.00565.24543-8.90908.68783v25.78392c2.83634-.78008 5.82599-1.21189 8.90908-1.21189 2.70652 0 5.33956.31093 7.86095.91711v-25.62015c-2.5794-.34685-5.18705-.55682-7.86095-.55682zm-58.10553 50.4149c-.39219 2.73842-.58958 5.53869-.58958 8.38502 0 2.84632.19739 5.64659.58958 8.38501h25.61359c-.68967-2.6785-1.04812-5.49218-1.04812-8.38501s.35845-5.70652 1.04812-8.38502zm90.5647 0c.68968 2.6785 1.08088 5.49219 1.08088 8.38502s-.3912 5.70651-1.08088 8.38501h25.613601c.392188-2.73842.622325-5.53869.622325-8.38501 0-2.84633-.230137-5.6466-.622325-8.38502zm-41.36825 40.71318v25.6791c2.90343.44242 5.88266.68784 8.90908.68784 2.6739 0 5.28155-.20998 7.86095-.55682v-25.51534c-2.5214.60618-5.15443.91711-7.86095.91711-3.08309 0-6.07274-.43181-8.90908-1.21189z" fill="url(#radialGradient11897)"/>
    <g clip-path="url(#clipPath10790)" transform="translate(-202.0005 136.54102)">
      <path d="m64.5 125.033c8.343.197 16.75 1.062 16.75-11.763 0-14.5-2.25-26.25 4.75-29.25s7.25 3.5 22.5-2 16.5-11 16.75-15.5" fill="none"/>
      <g filter="url(#filter3934)"/>
      <rect fill="none" height="128" width="128"/>
    </g>
  </g>
</svg>
