<svg height="256" width="256" xmlns="http://www.w3.org/2000/svg" xmlns:xlink="http://www.w3.org/1999/xlink">
  <defs>
    <filter id="filter3834" color-interpolation-filters="sRGB" height="1.064318" width="1.080929" x="-.040464" y="-.032159">
      <feGaussianBlur stdDeviation="1.50075"/>
    </filter>
    <filter id="filter3826" color-interpolation-filters="sRGB" height="1.044321" width="1.055874" x="-.027937" y="-.02216">
      <feGaussianBlur stdDeviation="1.036"/>
    </filter>
    <linearGradient id="linearGradient4524-4" gradientTransform="matrix(2 0 0 -2 -7.01182 257.00001)" gradientUnits="userSpaceOnUse" x1="72" x2="72" y1="0" y2="116.40091">
      <stop offset="0" stop-color="#eeecec"/>
      <stop offset=".40000001" stop-color="#f4f4f4"/>
      <stop offset="1" stop-color="#f6f5f5"/>
    </linearGradient>
    <filter id="filter1164" color-interpolation-filters="sRGB" height="1.096" width="1.090435" x="-.045217" y="-.048">
      <feGaussianBlur stdDeviation=".65000024"/>
    </filter>
    <radialGradient id="radialGradient5988-0" cx="64" cy="64.004021" fx="63.793392" fy="47.274845" gradientTransform="matrix(3.368421 .16859038 .13772678 -2.7517692 -103.40582 294.32648)" gradientUnits="userSpaceOnUse" r="47.5" xlink:href="#linearGradient3872"/>
    <linearGradient id="linearGradient3872">
      <stop offset="0" stop-color="#fff"/>
      <stop offset="1" stop-color="#fff" stop-opacity="0"/>
    </linearGradient>
    <clipPath id="clipPath6093-7">
      <path d="m17.000001 8-.000001 112h61.5c1.675283 0 3.914297-.56468 7-3.6 8.870045-8.72523 16.24047-13.8518 23.49904-21.175957 2.44056-2.462612 3.00096-4.47117 3.00096-6.724043v-80.5z"/>
    </clipPath>
    <filter id="filter6171-8" color-interpolation-filters="sRGB" height="2.02159" width="1.956141" x="-.47807" y="-.510795">
      <feGaussianBlur stdDeviation="10.140743"/>
    </filter>
    <linearGradient id="linearGradient3895-3" gradientTransform="matrix(2.0239716 0 0 -2.0239716 -.8029 246.97433)" gradientUnits="userSpaceOnUse" x1="86.73793" x2="93.189758" y1="93.621468" y2="100.45876">
      <stop offset="0" stop-color="#fcfcfc"/>
      <stop offset=".52275378" stop-color="#f8f8f8"/>
      <stop offset=".72337759" stop-color="#f0efef"/>
      <stop offset=".89024991" stop-color="#e3e1e1"/>
      <stop offset="1" stop-color="#cecbcb"/>
    </linearGradient>
    <clipPath id="clipPath3750">
      <path d="m232.3945-96.257404c-68.09732 0-123.30141 55.204093-123.30141 123.301404 0 68.09731 55.20409 123.30141 123.30141 123.30141 68.09731 0 123.3014-55.205127 123.3014-123.30141s-55.20409-123.301404-123.3014-123.301404zm0 164.401872c-22.69877 0-41.10047-18.401707-41.10047-41.100468 0-22.698762 18.4017-41.100468 41.10047-41.100468 22.69978 0 41.10046 18.401706 41.10046 41.100468 0 22.698761-18.40068 41.100468-41.10046 41.100468z"/>
    </clipPath>
    <filter id="filter3736" height="1.086207" width="1.033839" x="-.016919" y="-.043103">
      <feGaussianBlur stdDeviation=".94917551"/>
    </filter>
    <linearGradient id="linearGradient5942" gradientUnits="userSpaceOnUse" x1="422.8064767413" x2="678.74134141314" y1="-126.30695979146" y2="129.62789040278">
      <stop offset="0" stop-color="#c2c2d0"/>
      <stop offset=".5" stop-color="#fff"/>
      <stop offset="1" stop-color="#b3b2be"/>
    </linearGradient>
    <linearGradient id="linearGradient5956" gradientUnits="userSpaceOnUse" x1="220.70064369547" x2="248.16507750931" y1="55.09698256669" y2="27.63254776494">
      <stop offset="0" stop-color="#473a56"/>
      <stop offset=".5" stop-color="#c4c4c4"/>
      <stop offset="1" stop-color="#282131"/>
    </linearGradient>
    <clipPath id="clipPath4100">
      <path d="m664.33473-117.70671v281.08867h282.30884v-281.08867zm140.7691 29.476739c64.07917 0 115.98038 51.96642 115.98038 116.044602 0 64.078195-51.90121 116.044599-115.98038 116.044599-64.07916 0-116.0446-51.965443-116.0446-116.044599 0-64.079149 51.96544-116.044602 116.0446-116.044602zm-.3211 100.824585c-8.54055 0-15.47689 6.93509-15.47689 15.476895 0 8.542786 6.93634 15.476895 15.47689 15.476895 8.54056 0 15.4769-6.934109 15.4769-15.476895 0-8.541805-6.93634-15.476895-15.4769-15.476895z"/>
    </clipPath>
    <filter id="filter4227" height="1.011649" width="1.011652" x="-.005826" y="-.005824">
      <feGaussianBlur stdDeviation=".56324537"/>
    </filter>
    <filter id="filter4215" height="1.058244" width="1.058261" x="-.02913" y="-.029122">
      <feGaussianBlur stdDeviation="2.8162269"/>
    </filter>
  </defs>
  <path d="m-128.8111-19.056071v112h56.187504c5.114947-.238308 32.613203-27.078301 32.775-30.612499.08138-25.126708.0375-56.2589983.0375-81.387501z" filter="url(#filter3834)" opacity=".262376" transform="matrix(2 0 0 -2 296.61038 201.88787)"/>
  <path d="m-128.8111-19.556071v112.2h55.746422c3.098719 0 24.709876-18.512112 30.003672-24.699929 1.602664-1.873324 3.24991-3.03751 3.24991-7.20007v-80.300001z" fill-opacity=".700535" filter="url(#filter3826)" transform="matrix(2 0 0 -2 296.61038 201.88787)"/>
  <path d="m38.98818 241.00001v-223.999998h111.00001c3.35056 0 7.82859 1.12936 14 7.2 17.74009 17.45046 32.48094 27.703618 46.99808 42.351918 4.88112 4.92522 6.00192 8.94234 6.00192 13.44808v161z" fill="#fff" stroke-width="2"/>
  <path d="m41.98818 239.00001c-.67968 0-1-.46923-1-1v-215.937498c0-1.64316 1.35864-3 3-3h103.37501c.10614 0 1.62077-.0468 3-.0626 3.55533.0802 6.26395 1.50748 8.71207 3.18656 2.10373.58206 33.29967 27.239178 51.54191 45.618478 2.72478 2.74524 4.37092 7.89634 4.37092 9.79122l.0001 160.40384c0 .64544-.32644 1-1 1z" fill="url(#linearGradient4524-4)" stroke-width="2"/>
  <path d="m41.98818 239.00001c-.67968 0-1-.46923-1-1v-215.937498c0-1.64316 1.35864-2.999022 3-3l105.00001-.0626c.10614-.000064 6.54777.016 7.927-.0001 13.08194 9.00722 37.2746 31.906578 55.16506 49.910198 2.9537 3.31296.9152.74012 2.90782 3.2149l.00012 165.875c0 .64544-.32644 1-1 1z" fill="url(#radialGradient5988-0)" opacity=".846535" stroke-width="2"/>
  <path d="m-39.811096 59.94691c0 4.46531-3.067448 5.978576-5.549678 7.662246-5.10854 3.46508-13.669156 1.756744-19.450326 1.837764-.081 5.78116 1.723142 12.231893-1.741938 17.340433-1.68367 2.48224-4.847792 5.659577-7.758062 5.659577 2.31803 0 4.74284-1.334761 7.58402-4.084811 9.14197-8.84873 14.36714-11.135349 22.673154-20.297529 1.91895-2.11675 4.24283-3.64188 4.24283-8.11768z" filter="url(#filter1164)" opacity=".4" transform="matrix(2 0 0 -2 296.61038 201.88787)"/>
  <path clip-path="url(#clipPath6093-7)" d="m114.4 82.502986c0 4.465301-4.99749 12.609952-7.47972 14.293625-5.10854 3.465079-12.739114 1.52536-18.520284 1.60638-.081 5.781159 1.96586 11.304599-1.49922 16.413139-1.68367 2.48224-9.79051 8.68687-12.70078 8.68687-2.091359 1.5337 3.488204 8.21101 6.734971 5.31989 9.501888-8.46107 35.131683-30.022704 43.350823-39.262889 2.04044-2.29392-4.90514-9.844666-9.88579-7.057015z" filter="url(#filter6171-8)" opacity=".277228" transform="matrix(2 0 0 -2 -7.01182 257.00001)"/>
  <path d="m216.98819 79.99405c0-8.93062-5.59498-12.81992-10.55944-16.18726-10.21708-6.93016-21.87823-6.65072-33.44057-6.81276-.162-11.56232.33172-19.009198-6.59844-29.226278-3.36734-4.96448-10.58102-10.773742-16.40156-10.773742 4.63606 0 8.88785 3.363424 15.16804 8.169622 19.0787 14.60084 26.40937 20.968606 43.34631 38.595058 3.95915 4.12033 8.48566 7.28376 8.48566 16.23536z" fill="url(#linearGradient3895-3)"/>
  <path d="m217.02569 78.57501c-.63286-7.7982-7.04582-11.80562-11.7-14.9625-10.21708-6.93016-22.67516-4.65046-34.2375-4.8125-.162-11.56232 1.70516-20.632918-5.225-30.849998-2.94642-4.34392-8.19891-9.3202-13.525-10.500002 3.96092.724602 7.76986 3.322782 12.5375 7.937502.67823.77706 1.14859 1.3579 2.2125 3 6.93016 10.21708 5.84737 16.931438 6.00937 28.493758 11.56234.162 23.43605-.42392 33.65313 6.50624.93084.63138 3.18798 2.3755 4.0125 3.2 3.07258 3.07258 5.80342 5.22684 6.2625 11.9875zm-64.6875-61.125c-.31532-.0698-.62688-.0828-.9375-.125.31398.0338.62088.067.9375.125z" fill="#fff"/>
  <g transform="matrix(1.1937469 0 0 1.1937469 119.34791 43.752847)">
    <path clip-path="url(#clipPath4100)" d="m805.10383-84.119925c-64.07916 0-116.0446 51.965451-116.0446 116.044603 0 64.079158 51.96544 116.044602 116.0446 116.044602 64.07917 0 115.98038-51.966406 115.98038-116.044602 0-64.078184-51.90121-116.044603-115.98038-116.044603zm-.3211 100.824586c8.54056 0 15.4769 6.935089 15.4769 15.476895 0 8.542785-6.93634 15.476895-15.4769 15.476895-8.54055 0-15.47689-6.93411-15.47689-15.476895 0-8.541806 6.93634-15.476895 15.47689-15.476895z" filter="url(#filter4215)" opacity=".440594" transform="matrix(.40763452 0 0 .40763452 -320.92718 82.69107)"/>
    <path clip-path="url(#clipPath4100)" d="m805.10383-86.174948c-64.07916 0-116.0446 51.965451-116.0446 116.044603 0 64.079158 51.96544 116.044605 116.0446 116.044605 64.07917 0 115.98038-51.966409 115.98038-116.044605 0-64.078184-51.90121-116.044603-115.98038-116.044603zm-.3211 100.824586c8.54056 0 15.4769 6.935089 15.4769 15.476895 0 8.542785-6.93634 15.476895-15.4769 15.476895-8.54055 0-15.47689-6.93411-15.47689-15.476895 0-8.541806 6.93634-15.476895 15.47689-15.476895z" filter="url(#filter4227)" opacity=".232673" transform="matrix(.40763452 0 0 .40763452 -320.92718 82.69107)"/>
    <g transform="matrix(.2649482 0 0 .2649482 -141.04637 92.057497)">
      <path d="m559.73405-171.05208c-98.58863 0-178.51094 79.922314-178.51094 178.5109278 0 98.5886222 79.92231 178.5109522 178.51094 178.5109522s178.51094-79.92381 178.51094-178.5109522c0-98.5871238-79.92231-178.5109278-178.51094-178.5109278zm0 238.014583c-32.8624 0-59.50366-26.641274-59.50366-59.5036552 0-32.8623628 26.64126-59.5036408 59.50366-59.5036408 32.86385 0 59.50364 26.641278 59.50364 59.5036408 0 32.8623812-26.63979 59.5036552-59.50364 59.5036552z" fill="url(#linearGradient5942)"/>
      <path d="m559.29312-51.644899c-32.84781 0-59.47729 26.636393-59.47729 59.4927628 0 32.8563702 26.62948 59.4927742 59.47729 59.4927742 32.84934 0 59.47733-26.636404 59.47733-59.4927742 0-32.8563698-26.62799-59.4927628-59.47733-59.4927628zm0 83.289872c-13.14002 0-23.79091-10.653657-23.79091-23.7971092 0-13.141945 10.65089-23.7971088 23.79091-23.7971088 13.14004 0 23.79095 10.6551638 23.79095 23.7971088 0 13.1434522-10.65091 23.7971092-23.79095 23.7971092z" fill="#fff" opacity=".5"/>
      <path d="m232.40625-74.84375c-56.63949 0-102.5625 45.923019-102.5625 102.5625 0 56.639478 45.92301 102.5625 102.5625 102.5625 56.63948 0 102.5625-45.923881 102.5625-102.5625 0-56.638622-45.92302-102.5625-102.5625-102.5625zm0 .96875c56.11172 0 101.59375 45.482031 101.59375 101.59375 0 56.110837-45.48202 101.59375-101.59375 101.59375s-101.59375-45.48291-101.59375-101.59375c0-56.11172 45.48203-101.59375 101.59375-101.59375z" fill="#2b383d" fill-opacity=".502646" transform="matrix(1.740972 0 0 1.740972 155.12121 -40.7932)"/>
      <path d="m559.29312-51.644899c-32.84781 0-59.47729 26.636393-59.47729 59.4927628 0 32.8563702 26.62948 59.4927742 59.47729 59.4927742 32.84934 0 59.47733-26.636404 59.47733-59.4927742 0-32.8563698-26.62799-59.4927628-59.47733-59.4927628zm0 95.188435c-19.67805 0-35.68639-16.013967-35.68639-35.6956722 0-19.6816878 16.00834-35.6956538 35.68639-35.6956538 19.6766 0 35.68639 16.012477 35.68639 35.6956538 0 19.6831952-16.00979 35.6956722-35.68639 35.6956722z" fill="none" opacity=".5"/>
      <path d="m559.29312-27.84779c-19.67805 0-35.68639 16.012477-35.68639 35.6956538 0 19.6831952 16.00834 35.6956722 35.68639 35.6956722 19.6766 0 35.68639-16.013967 35.68639-35.6956722 0-19.6816878-16.00979-35.6956538-35.68639-35.6956538z" fill="none" stroke="#d0d0d0" stroke-width="1.78511"/>
      <path d="m559.29312-27.84779c-19.67805 0-35.68639 16.012477-35.68639 35.6956538 0 19.6831952 16.00834 35.6956722 35.68639 35.6956722 19.6766 0 35.68639-16.013967 35.68639-35.6956722 0-19.6816878-16.00979-35.6956538-35.68639-35.6956538zm0 59.492763c-13.14002 0-23.79091-10.653657-23.79091-23.7971092 0-13.141945 10.65089-23.7971088 23.79091-23.7971088 13.14004 0 23.79095 10.6551638 23.79095 23.7971088 0 13.1434522-10.65091 23.7971092-23.79095 23.7971092z" fill="#fff" opacity=".2"/>
      <path d="m559.29312-27.84779c-19.67805 0-35.68639 16.012477-35.68639 35.6956538 0 19.6831952 16.00834 35.6956722 35.68639 35.6956722 19.6766 0 35.68639-16.013967 35.68639-35.6956722 0-19.6816878-16.00979-35.6956538-35.68639-35.6956538zm0 59.492763c-13.14002 0-23.79091-10.653657-23.79091-23.7971092 0-13.141945 10.65089-23.7971088 23.79091-23.7971088 13.14004 0 23.79095 10.6551638 23.79095 23.7971088 0 13.1434522-10.65091 23.7971092-23.79095 23.7971092z" fill="none" opacity=".5"/>
      <path d="m559.29312-63.543466c-39.35464 0-71.37279 32.026465-71.37279 71.3913298 0 39.3648832 32.01815 71.3913292 71.37279 71.3913292 39.35467 0 71.3728-32.026446 71.3728-71.3913292 0-39.3648648-32.01813-71.3913298-71.3728-71.3913298zm0 130.884104c-32.84781 0-59.47729-26.636404-59.47729-59.4927742 0-32.8563698 26.62948-59.4927628 59.47729-59.4927628 32.84934 0 59.47733 26.636393 59.47733 59.4927628 0 32.8563702-26.62799 59.4927742-59.47733 59.4927742z" fill="#323232" opacity=".1"/>
      <path d="m234.40625 25.78125c-7.60347 0-13.75 6.115184-13.75 13.71875s6.14628 13.8125 13.75 13.8125c7.60375 0 13.78125-6.208848 13.78125-13.8125s-6.17775-13.71875-13.78125-13.71875zm0 .59375c7.26625 0 13.1875 5.858945 13.1875 13.125 0 7.266057-5.92152 13.21875-13.1875 13.21875-7.26596 0-13.15625-5.952603-13.15625-13.21875 0-7.266145 5.89002-13.125 13.15625-13.125z" fill="url(#linearGradient5956)" transform="matrix(1.732116 0 0 1.732116 153.24429 -60.640916)"/>
    </g>
    <g clip-path="url(#clipPath3750)" transform="matrix(.38057973 0 0 .38057973 -81.03602 83.942366)">
      <path d="m238.54702 22.905514 128.94274-52.850202 5.69789 4.177962z" fill="#fff" filter="url(#filter3736)"/>
      <path d="m226.56916 27.006292-128.94274 52.85021-5.69789-4.17797z" fill="#fff" filter="url(#filter3736)" transform="matrix(1.033133 0 0 1.033133 -5.276388 -1.770341)"/>
    </g>
  </g>
</svg>
