<svg height="256" width="256" xmlns="http://www.w3.org/2000/svg" xmlns:xlink="http://www.w3.org/1999/xlink">
  <defs>
    <filter id="filter3834" color-interpolation-filters="sRGB" height="1.064318" width="1.080929" x="-.040464" y="-.032159">
      <feGaussianBlur stdDeviation="1.50075"/>
    </filter>
    <filter id="filter3826" color-interpolation-filters="sRGB" height="1.044321" width="1.055874" x="-.027937" y="-.02216">
      <feGaussianBlur stdDeviation="1.036"/>
    </filter>
    <linearGradient id="linearGradient4524-4" gradientTransform="matrix(2 0 0 -2 -7.01182 257.00001)" gradientUnits="userSpaceOnUse" x1="72" x2="72" y1="0" y2="116.40091">
      <stop offset="0" stop-color="#eeecec"/>
      <stop offset=".40000001" stop-color="#f4f4f4"/>
      <stop offset="1" stop-color="#f6f5f5"/>
    </linearGradient>
    <filter id="filter1164" color-interpolation-filters="sRGB" height="1.096" width="1.090435" x="-.045217" y="-.048">
      <feGaussianBlur stdDeviation=".65000024"/>
    </filter>
    <radialGradient id="radialGradient5988-0" cx="64" cy="64.004021" fx="63.793392" fy="47.274845" gradientTransform="matrix(3.368421 .16859038 .13772678 -2.7517692 -103.40582 294.32648)" gradientUnits="userSpaceOnUse" r="47.5">
      <stop offset="0" stop-color="#fff"/>
      <stop offset="1" stop-color="#fff" stop-opacity="0"/>
    </radialGradient>
    <clipPath id="clipPath6093-7">
      <path d="m17.000001 8-.000001 112h61.5c1.675283 0 3.914297-.56468 7-3.6 8.870045-8.72523 16.24047-13.8518 23.49904-21.175957 2.44056-2.462612 3.00096-4.47117 3.00096-6.724043v-80.5z"/>
    </clipPath>
    <filter id="filter6171-8" color-interpolation-filters="sRGB" height="2.02159" width="1.956141" x="-.47807" y="-.510795">
      <feGaussianBlur stdDeviation="10.140743"/>
    </filter>
    <linearGradient id="linearGradient3895-3" gradientTransform="matrix(2.0239716 0 0 -2.0239716 -.8029 246.97433)" gradientUnits="userSpaceOnUse" x1="86.73793" x2="93.189758" y1="93.621468" y2="100.45876">
      <stop offset="0" stop-color="#fcfcfc"/>
      <stop offset=".52275378" stop-color="#f8f8f8"/>
      <stop offset=".72337759" stop-color="#f0efef"/>
      <stop offset=".89024991" stop-color="#e3e1e1"/>
      <stop offset="1" stop-color="#cecbcb"/>
    </linearGradient>
    <linearGradient id="XMLID_76_" gradientTransform="matrix(0 1 -1 0 30.335 -71.999)" gradientUnits="userSpaceOnUse" x1="186.91499" x2="181.66499" y1="-76.331497" y2="-76.331497">
      <stop offset="0" stop-color="#bbb"/>
      <stop offset=".2308" stop-color="#8d8d8d"/>
      <stop offset=".46309999" stop-color="#666"/>
      <stop offset=".67659998" stop-color="#494949"/>
      <stop offset=".86250001" stop-color="#383838"/>
      <stop offset="1" stop-color="#323232"/>
    </linearGradient>
    <linearGradient id="lg1">
      <stop offset="0" stop-color="#888"/>
      <stop offset=".27919999" stop-color="#656565"/>
      <stop offset=".565" stop-color="#494949"/>
      <stop offset=".815" stop-color="#383838"/>
      <stop offset="1" stop-color="#323232"/>
    </linearGradient>
    <linearGradient id="XMLID_77_" gradientTransform="matrix(0 -1 1 0 182.9971 295.082)" gradientUnits="userSpaceOnUse" x1="180.916" x2="186.166" xlink:href="#lg1" y1="-76.333" y2="-76.333"/>
    <radialGradient id="XMLID_78_" cx="106.666" cy="111.541" fx="106.7286" fy="110.6661" gradientUnits="userSpaceOnUse" r="1.875">
      <stop offset="0" stop-color="#f0ff80"/>
      <stop offset=".0392" stop-color="#edfe77"/>
      <stop offset=".1031" stop-color="#e3fc5f"/>
      <stop offset=".1838" stop-color="#d4f937"/>
      <stop offset=".2773" stop-color="#bff500"/>
      <stop offset=".27810001" stop-color="#bff500"/>
      <stop offset=".3818" stop-color="#bcf400"/>
      <stop offset=".44369999" stop-color="#b4f200"/>
      <stop offset=".49470001" stop-color="#a6ee00"/>
      <stop offset=".53969997" stop-color="#92e800"/>
      <stop offset=".58069998" stop-color="#77e100"/>
      <stop offset=".6189" stop-color="#57d800"/>
      <stop offset=".65490001" stop-color="#31cd00"/>
      <stop offset=".68830001" stop-color="#06c100"/>
      <stop offset=".69230002" stop-color="#00bf00"/>
      <stop offset="1" stop-color="#008c00"/>
    </radialGradient>
    <linearGradient id="linearGradient3119" gradientUnits="userSpaceOnUse" x1="30.1147" x2="69.125999" y1="9.646" y2="9.646">
      <stop offset="0" stop-color="#fff"/>
      <stop offset=".0582" stop-color="#fdfdfd"/>
      <stop offset=".542" stop-color="#f2f2f0"/>
      <stop offset="1" stop-color="#eeeeec"/>
    </linearGradient>
    <linearGradient id="lg2">
      <stop offset="0" stop-color="#eee"/>
      <stop offset=".16" stop-color="#cecece"/>
      <stop offset=".4675" stop-color="#888"/>
      <stop offset=".6864" stop-color="#555"/>
      <stop offset="1" stop-color="#323232"/>
    </linearGradient>
    <radialGradient id="radialGradient3169" cx="70.969121" cy="12.362313" fx="71.625321" fy="13.143513" gradientUnits="userSpaceOnUse" r="3.82" xlink:href="#lg2"/>
    <linearGradient id="lg3">
      <stop offset="0" stop-color="#eee"/>
      <stop offset=".29089999" stop-color="#cecece"/>
      <stop offset=".85000002" stop-color="#888"/>
      <stop offset="1" stop-color="#555"/>
    </linearGradient>
    <linearGradient id="linearGradient3172" gradientUnits="userSpaceOnUse" x1="70.968121" x2="70.968121" xlink:href="#lg3" y1="16.858313" y2="7.867113"/>
    <radialGradient id="radialGradient3175" cx="238.781521" cy="12.362313" fx="240.125321" fy="13.143513" gradientUnits="userSpaceOnUse" r="3.82" xlink:href="#lg2"/>
    <linearGradient id="linearGradient3178" gradientUnits="userSpaceOnUse" x1="238.781521" x2="238.781521" xlink:href="#lg3" y1="16.858313" y2="7.867113"/>
    <radialGradient id="radialGradient3181" cx="65.189721" cy="84.443311" fx="65.875321" fy="85.893513" gradientUnits="userSpaceOnUse" r="4.3294" xlink:href="#lg2"/>
    <linearGradient id="lg4">
      <stop offset="0" stop-color="#eee"/>
      <stop offset=".54689997" stop-color="#cecece"/>
      <stop offset=".85000002" stop-color="#bbb"/>
      <stop offset="1" stop-color="#555"/>
    </linearGradient>
    <linearGradient id="linearGradient3184-9" gradientUnits="userSpaceOnUse" x1="65.189721" x2="65.189721" xlink:href="#lg4" y1="89.579113" y2="79.307515"/>
    <radialGradient id="radialGradient3187" cx="244.558921" cy="84.443311" fx="245.625321" fy="85.643513" gradientUnits="userSpaceOnUse" r="4.33" xlink:href="#lg2"/>
    <linearGradient id="linearGradient3190" gradientUnits="userSpaceOnUse" x1="244.558921" x2="244.558921" xlink:href="#lg4" y1="89.579113" y2="79.307515"/>
    <radialGradient id="radialGradient3193" cx="56.742521" cy="189.819309" fx="56.875321" fy="190.643513" gradientUnits="userSpaceOnUse" r="5.1268">
      <stop offset=".1302" stop-color="#eee"/>
      <stop offset=".2456" stop-color="#cecece"/>
      <stop offset=".4675" stop-color="#888"/>
      <stop offset="1" stop-color="#555"/>
    </radialGradient>
    <linearGradient id="lg5">
      <stop offset="0" stop-color="#eee"/>
      <stop offset=".66860002" stop-color="#ddd"/>
      <stop offset="1" stop-color="#555"/>
    </linearGradient>
    <linearGradient id="linearGradient3196" gradientUnits="userSpaceOnUse" x1="56.743521" x2="56.743521" xlink:href="#lg5" y1="195.967713" y2="183.668919"/>
    <radialGradient id="radialGradient3199" cx="253.006121" cy="189.819309" fx="254.209321" fy="190.643513" gradientUnits="userSpaceOnUse" r="5.1262">
      <stop offset="0" stop-color="#eee"/>
      <stop offset=".16" stop-color="#cecece"/>
      <stop offset=".4675" stop-color="#888"/>
      <stop offset="1" stop-color="#555"/>
    </radialGradient>
    <linearGradient id="linearGradient3202" gradientUnits="userSpaceOnUse" x1="253.006121" x2="253.006121" xlink:href="#lg5" y1="195.967713" y2="183.668919"/>
    <radialGradient id="radialGradient3205" cx="134.875321" cy="82.643513" gradientUnits="userSpaceOnUse" r="121.655198">
      <stop offset=".4497" stop-color="#fff"/>
      <stop offset=".4628" stop-color="#ededed"/>
      <stop offset=".50029999" stop-color="#bfbfbf"/>
      <stop offset=".53780001" stop-color="#999"/>
      <stop offset=".57489997" stop-color="#7b7b7b"/>
      <stop offset=".61140001" stop-color="#666"/>
      <stop offset=".6469" stop-color="#595959"/>
      <stop offset=".68049997" stop-color="#555"/>
      <stop offset=".96450001" stop-color="#888"/>
    </radialGradient>
    <radialGradient id="radialGradient3208" cx="142.875321" cy="100.643513" gradientUnits="userSpaceOnUse" r="140.235596">
      <stop offset=".4497" stop-color="#fff"/>
      <stop offset=".46740001" stop-color="#f1f1f1"/>
      <stop offset=".52380002" stop-color="#ccc"/>
      <stop offset=".57990003" stop-color="#aeaeae"/>
      <stop offset=".63499999" stop-color="#999"/>
      <stop offset=".68879998" stop-color="#8c8c8c"/>
      <stop offset=".7396" stop-color="#888"/>
      <stop offset=".8369" stop-color="#6c6c6c"/>
      <stop offset=".92400002" stop-color="#5b5b5b"/>
      <stop offset=".98820001" stop-color="#555"/>
    </radialGradient>
    <radialGradient id="radialGradient3211" cx="153.875321" cy="144.643513" gradientUnits="userSpaceOnUse" r="63">
      <stop offset=".32539999" stop-color="#fff"/>
      <stop offset=".36219999" stop-color="#f4f4f4"/>
      <stop offset=".4267" stop-color="#d7d7d7"/>
      <stop offset=".51059997" stop-color="#a8a8a8"/>
      <stop offset=".56209999" stop-color="#888"/>
      <stop offset=".5934" stop-color="#a4a4a4"/>
      <stop offset=".64480001" stop-color="#cbcbcb"/>
      <stop offset=".69209999" stop-color="#e8e8e8"/>
      <stop offset=".7331" stop-color="#f9f9f9"/>
      <stop offset=".7633" stop-color="#fff"/>
    </radialGradient>
    <radialGradient id="radialGradient3214" cx="64" cy="100.2246" gradientTransform="matrix(2 0 0 1.954 26.875321 -5.264487)" gradientUnits="userSpaceOnUse" r="90.000099">
      <stop offset=".32539999" stop-color="#fff"/>
      <stop offset=".3714" stop-color="#f4f4f4"/>
      <stop offset=".45199999" stop-color="#d7d7d7"/>
      <stop offset=".55690002" stop-color="#a8a8a8"/>
      <stop offset=".62129998" stop-color="#888"/>
      <stop offset=".67930001" stop-color="#a3a3a3"/>
      <stop offset=".7396" stop-color="#bbb"/>
      <stop offset=".75199997" stop-color="#b3b3b3"/>
      <stop offset=".79140002" stop-color="#a0a0a0"/>
      <stop offset=".83710003" stop-color="#929292"/>
      <stop offset=".89450002" stop-color="#8a8a8a"/>
      <stop offset="1" stop-color="#888"/>
    </radialGradient>
    <linearGradient id="linearGradient3217" gradientUnits="userSpaceOnUse" x1="154.874321" x2="154.874321" y1="198.086913" y2="7.644513">
      <stop offset="0" stop-color="#ddd"/>
      <stop offset=".51670003" stop-color="#e3e3e3"/>
      <stop offset="1" stop-color="#eee"/>
    </linearGradient>
    <radialGradient id="radialGradient3220" cx="152.875321" cy="242.643513" gradientUnits="userSpaceOnUse" r="324">
      <stop offset="0" stop-color="#888"/>
      <stop offset=".14740001" stop-color="#aaa"/>
      <stop offset=".30239999" stop-color="#c6c6c6"/>
      <stop offset=".43810001" stop-color="#d7d7d7"/>
      <stop offset=".53850001" stop-color="#ddd"/>
      <stop offset=".60960001" stop-color="#d9d9d9"/>
      <stop offset=".68040001" stop-color="#cdcdcd"/>
      <stop offset=".74559999" stop-color="#bbb"/>
      <stop offset=".78420001" stop-color="#bfbfbf"/>
      <stop offset=".82260001" stop-color="#cbcbcb"/>
      <stop offset=".85799998" stop-color="#ddd"/>
    </radialGradient>
    <radialGradient id="radialGradient3223" cx="152.875321" cy="242.643513" gradientUnits="userSpaceOnUse" r="323.99978">
      <stop offset="0" stop-color="#888"/>
      <stop offset=".242" stop-color="#a4a4a4"/>
      <stop offset=".45649999" stop-color="#b5b5b5"/>
      <stop offset=".61540002" stop-color="#bbb"/>
      <stop offset=".65420002" stop-color="#b7b7b7"/>
      <stop offset=".6929" stop-color="#ababab"/>
      <stop offset=".73150003" stop-color="#979797"/>
      <stop offset=".77020001" stop-color="#7b7b7b"/>
      <stop offset=".80860001" stop-color="#575757"/>
      <stop offset=".8107" stop-color="#555"/>
    </radialGradient>
    <linearGradient id="linearGradient3226" gradientUnits="userSpaceOnUse" x1="154.876329" x2="154.876329" y1="204.352513" y2="198.600513">
      <stop offset="0" stop-color="#888"/>
      <stop offset=".1671" stop-color="#a8a8a8"/>
      <stop offset=".53189999" stop-color="#f8f8f8"/>
      <stop offset=".56209999" stop-color="#fff"/>
    </linearGradient>
    <linearGradient id="linearGradient3229" gradientUnits="userSpaceOnUse" x1="72.875321" x2="132.875321" y1="213.998913" y2="213.998913">
      <stop offset="0" stop-color="#888"/>
      <stop offset=".0022" stop-color="#767676"/>
      <stop offset=".0067" stop-color="#575757"/>
      <stop offset=".0118" stop-color="#3b3b3b"/>
      <stop offset=".0176" stop-color="#252525"/>
      <stop offset=".0243" stop-color="#141414"/>
      <stop offset=".0327" stop-color="#090909"/>
      <stop offset=".0444" stop-color="#020202"/>
      <stop offset=".0769"/>
      <stop offset=".62129998" stop-color="#323232"/>
      <stop offset=".7845" stop-color="#353535"/>
      <stop offset=".8818" stop-color="#3d3d3d"/>
      <stop offset=".96160001" stop-color="#4b4b4b"/>
      <stop offset="1" stop-color="#555"/>
    </linearGradient>
    <linearGradient id="linearGradient3232" gradientUnits="userSpaceOnUse" x1="166.875321" x2="170.875321" y1="214.998913" y2="214.998913">
      <stop offset="0" stop-color="#888"/>
      <stop offset=".0803" stop-color="#858585"/>
      <stop offset=".1286" stop-color="#7d7d7d"/>
      <stop offset=".1684" stop-color="#6f6f6f"/>
      <stop offset=".2036" stop-color="#5b5b5b"/>
      <stop offset=".23549999" stop-color="#414141"/>
      <stop offset=".25" stop-color="#323232"/>
      <stop offset=".4813" stop-color="#353535"/>
      <stop offset=".61940002" stop-color="#3d3d3d"/>
      <stop offset=".73250002" stop-color="#4b4b4b"/>
      <stop offset=".787" stop-color="#555"/>
      <stop offset=".83429998" stop-color="#888"/>
    </linearGradient>
    <linearGradient id="lg6">
      <stop offset="0" stop-color="#888"/>
      <stop offset=".0803" stop-color="#858585"/>
      <stop offset=".1286" stop-color="#7d7d7d"/>
      <stop offset=".1684" stop-color="#6f6f6f"/>
      <stop offset=".2036" stop-color="#5b5b5b"/>
      <stop offset=".23549999" stop-color="#414141"/>
      <stop offset=".25" stop-color="#323232"/>
      <stop offset=".57309997" stop-color="#353535"/>
      <stop offset=".76590002" stop-color="#3d3d3d"/>
      <stop offset=".92400002" stop-color="#4b4b4b"/>
      <stop offset="1" stop-color="#555"/>
    </linearGradient>
    <linearGradient id="linearGradient3235" gradientUnits="userSpaceOnUse" x1="162.875321" x2="166.875321" xlink:href="#lg6" y1="214.998913" y2="214.998913"/>
    <linearGradient id="linearGradient3238" gradientUnits="userSpaceOnUse" x1="158.875321" x2="162.875321" xlink:href="#lg6" y1="214.998913" y2="214.998913"/>
    <linearGradient id="linearGradient3241" gradientUnits="userSpaceOnUse" x1="154.875321" x2="158.875321" xlink:href="#lg6" y1="214.998913" y2="214.998913"/>
    <linearGradient id="linearGradient3244" gradientUnits="userSpaceOnUse" x1="150.875321" x2="154.875321" xlink:href="#lg6" y1="214.998913" y2="214.998913"/>
    <linearGradient id="linearGradient3247" gradientUnits="userSpaceOnUse" x1="146.875321" x2="150.875321" xlink:href="#lg6" y1="214.998913" y2="214.998913"/>
    <linearGradient id="linearGradient3250" gradientUnits="userSpaceOnUse" x1="142.875321" x2="146.875321" xlink:href="#lg6" y1="214.998913" y2="214.998913"/>
    <linearGradient id="linearGradient3253" gradientUnits="userSpaceOnUse" x1="138.875321" x2="142.875321" xlink:href="#lg6" y1="214.998913" y2="214.998913"/>
    <linearGradient id="linearGradient3256" gradientUnits="userSpaceOnUse" x1="134.875321" x2="138.875321" y1="214.998913" y2="214.998913">
      <stop offset="0" stop-color="#888"/>
      <stop offset=".014" stop-color="#656565"/>
      <stop offset=".0282" stop-color="#494949"/>
      <stop offset=".0407" stop-color="#383838"/>
      <stop offset=".05" stop-color="#323232"/>
      <stop offset=".45930001" stop-color="#353535"/>
      <stop offset=".70349997" stop-color="#3d3d3d"/>
      <stop offset=".90369999" stop-color="#4b4b4b"/>
      <stop offset="1" stop-color="#555"/>
    </linearGradient>
    <linearGradient id="lg7">
      <stop offset=".28400001" stop-color="#888"/>
      <stop offset=".66860002" stop-color="#fff"/>
    </linearGradient>
    <linearGradient id="XMLID_43_" gradientUnits="userSpaceOnUse" x1="15.9995" x2="15.9995" xlink:href="#lg7" y1="112" y2="109.8838"/>
    <linearGradient id="XMLID_44_" gradientUnits="userSpaceOnUse" x1="88" x2="88" xlink:href="#lg7" y1="112" y2="109.8848"/>
    <linearGradient id="linearGradient3268" gradientUnits="userSpaceOnUse" x1="154.876329" x2="154.876329" xlink:href="#lg1" y1="225.280313" y2="196.672713"/>
    <linearGradient id="linearGradient3271" gradientUnits="userSpaceOnUse" x1="154.876329" x2="154.876329" y1="227.643513" y2="198.309513">
      <stop offset="0" stop-color="#323232"/>
      <stop offset=".0557" stop-color="#3e3e3e"/>
      <stop offset=".163" stop-color="#4f4f4f"/>
      <stop offset=".24259999" stop-color="#555"/>
      <stop offset=".4165" stop-color="#494949"/>
      <stop offset=".75150001" stop-color="#383838"/>
      <stop offset="1" stop-color="#323232"/>
    </linearGradient>
    <linearGradient id="linearGradient3274" gradientUnits="userSpaceOnUse" x1="154.876329" x2="154.876329" xlink:href="#lg1" y1="227.643513" y2="198.309513"/>
    <filter id="filter3858" height="1.095583" width="1.096421" x="-.048211" y="-.047791">
      <feGaussianBlur stdDeviation="2.29"/>
    </filter>
  </defs>
  <path d="m-128.8111-19.056071v112h56.187504c5.114947-.238308 32.613203-27.078301 32.775-30.612499.08138-25.126708.0375-56.2589983.0375-81.387501z" filter="url(#filter3834)" opacity=".262376" transform="matrix(2 0 0 -2 296.61038 201.88787)"/>
  <path d="m-128.8111-19.556071v112.2h55.746422c3.098719 0 24.709876-18.512112 30.003672-24.699929 1.602664-1.873324 3.24991-3.03751 3.24991-7.20007v-80.300001z" fill-opacity=".700535" filter="url(#filter3826)" transform="matrix(2 0 0 -2 296.61038 201.88787)"/>
  <path d="m38.98818 241.00001v-223.999998h111.00001c3.35056 0 7.82859 1.12936 14 7.2 17.74009 17.45046 32.48094 27.703618 46.99808 42.351918 4.88112 4.92522 6.00192 8.94234 6.00192 13.44808v161z" fill="#fff" stroke-width="2"/>
  <path d="m41.98818 239.00001c-.67968 0-1-.46923-1-1v-215.937498c0-1.64316 1.35864-3 3-3h103.37501c.10614 0 1.62077-.0468 3-.0626 3.55533.0802 6.26395 1.50748 8.71207 3.18656 2.10373.58206 33.29967 27.239178 51.54191 45.618478 2.72478 2.74524 4.37092 7.89634 4.37092 9.79122l.0001 160.40384c0 .64544-.32644 1-1 1z" fill="url(#linearGradient4524-4)" stroke-width="2"/>
  <path d="m41.98818 239.00001c-.67968 0-1-.46923-1-1v-215.937498c0-1.64316 1.35864-2.999022 3-3l105.00001-.0626c.10614-.000064 6.54777.016 7.927-.0001 13.08194 9.00722 37.2746 31.906578 55.16506 49.910198 2.9537 3.31296.9152.74012 2.90782 3.2149l.00012 165.875c0 .64544-.32644 1-1 1z" fill="url(#radialGradient5988-0)" opacity=".846535" stroke-width="2"/>
  <path d="m-39.811096 59.94691c0 4.46531-3.067448 5.978576-5.549678 7.662246-5.10854 3.46508-13.669156 1.756744-19.450326 1.837764-.081 5.78116 1.723142 12.231893-1.741938 17.340433-1.68367 2.48224-4.847792 5.659577-7.758062 5.659577 2.31803 0 4.74284-1.334761 7.58402-4.084811 9.14197-8.84873 14.36714-11.135349 22.673154-20.297529 1.91895-2.11675 4.24283-3.64188 4.24283-8.11768z" filter="url(#filter1164)" opacity=".4" transform="matrix(2 0 0 -2 296.61038 201.88787)"/>
  <path clip-path="url(#clipPath6093-7)" d="m114.4 82.502986c0 4.465301-4.99749 12.609952-7.47972 14.293625-5.10854 3.465079-12.739114 1.52536-18.520284 1.60638-.081 5.781159 1.96586 11.304599-1.49922 16.413139-1.68367 2.48224-9.79051 8.68687-12.70078 8.68687-2.091359 1.5337 3.488204 8.21101 6.734971 5.31989 9.501888-8.46107 35.131683-30.022704 43.350823-39.262889 2.04044-2.29392-4.90514-9.844666-9.88579-7.057015z" filter="url(#filter6171-8)" opacity=".277228" transform="matrix(2 0 0 -2 -7.01182 257.00001)"/>
  <path d="m216.98819 79.99405c0-8.93062-5.59498-12.81992-10.55944-16.18726-10.21708-6.93016-21.87823-6.65072-33.44057-6.81276-.162-11.56232.33172-19.009198-6.59844-29.226278-3.36734-4.96448-10.58102-10.773742-16.40156-10.773742 4.63606 0 8.88785 3.363424 15.16804 8.169622 19.0787 14.60084 26.40937 20.968606 43.34631 38.595058 3.95915 4.12033 8.48566 7.28376 8.48566 16.23536z" fill="url(#linearGradient3895-3)"/>
  <path d="m217.02569 78.57501c-.63286-7.7982-7.04582-11.80562-11.7-14.9625-10.21708-6.93016-22.67516-4.65046-34.2375-4.8125-.162-11.56232 1.70516-20.632918-5.225-30.849998-2.94642-4.34392-8.19891-9.3202-13.525-10.500002 3.96092.724602 7.76986 3.322782 12.5375 7.937502.67823.77706 1.14859 1.3579 2.2125 3 6.93016 10.21708 5.84737 16.931438 6.00937 28.493758 11.56234.162 23.43605-.42392 33.65313 6.50624.93084.63138 3.18798 2.3755 4.0125 3.2 3.07258 3.07258 5.80342 5.22684 6.2625 11.9875zm-64.6875-61.125c-.31532-.0698-.62688-.0828-.9375-.125.31398.0338.62088.067.9375.125z" fill="#fff"/>
  <g transform="matrix(.5 0 0 .5 50.562336 86.266477)">
    <path d="m19.2 5.5c-1.972 0-3.571 1.262-3.72 2.935l-8.467 94.827c-.002.029-.004.06-.004.089 0 .028.001.056.003.084 0 0 .013.155.025.301-.004.036-.037.059-.037.097v12.872c0 2.093 1.763 3.795 3.93 3.795h106.14c2.167 0 3.93-1.702 3.93-3.795v-12.872c0-.038-.033-.061-.037-.098.012-.152.024-.31.024-.31.002-.026.003-.053.003-.079 0-.029-.001-.06-.004-.089l-8.466-94.823c-.146-1.672-1.745-2.934-3.72-2.934z" filter="url(#filter3858)" opacity=".6" transform="matrix(2 0 0 1.9508952 26.875321 .560648)"/>
    <path d="m268.87531 224.0535c0 1.982-1.792 3.59-4 3.59h-219.999989c-2.208 0-4-1.608-4-3.59v-25.744h227.999989z" fill="url(#linearGradient3274)" stroke-width="2"/>
    <path d="m268.87531 224.0535c0 1.982-1.792 3.59-4 3.59h-219.999989c-2.208 0-4-1.608-4-3.59v-25.744h227.999989z" fill="url(#linearGradient3271)" stroke-width="2"/>
    <path d="m264.86731 221.8155c-.088 1.914-1.888 3.464-4.016 3.464h-211.951989c-2.128 0-3.926-1.55-4.018-3.464l-1.178-25.142h222.343989z" fill="url(#linearGradient3268)" stroke-width="2"/>
    <g opacity=".5" transform="matrix(2 0 0 2 26.875321 -5.356488)">
      <path d="m25 111h-16.134c-.908 0-1.622-.473-1.81-1.116l-.051.556c-.08.861.753 1.56 1.861 1.56h16.134z" fill="url(#XMLID_43_)"/>
      <path d="m120.942 109.885c-.188.644-.901 1.115-1.808 1.115h-64.134v1h64.135c1.106 0 1.94-.699 1.859-1.561z" fill="url(#XMLID_44_)"/>
    </g>
    <rect fill="url(#linearGradient3256)" height="21.292" stroke-width="2" width="4" x="134.87532" y="204.3515"/>
    <rect fill="url(#linearGradient3253)" height="21.292" stroke-width="2" width="4" x="138.87532" y="204.3515"/>
    <rect fill="url(#linearGradient3250)" height="21.292" stroke-width="2" width="4" x="142.87532" y="204.3515"/>
    <rect fill="url(#linearGradient3247)" height="21.292" stroke-width="2" width="4" x="146.87532" y="204.3515"/>
    <rect fill="url(#linearGradient3244)" height="21.292" stroke-width="2" width="4" x="150.87532" y="204.3515"/>
    <rect fill="url(#linearGradient3241)" height="21.292" stroke-width="2" width="4" x="154.87532" y="204.3515"/>
    <rect fill="url(#linearGradient3238)" height="21.292" stroke-width="2" width="4" x="158.87531" y="204.3515"/>
    <rect fill="url(#linearGradient3235)" height="21.292" stroke-width="2" width="4" x="162.87531" y="204.3515"/>
    <rect fill="url(#linearGradient3232)" height="21.292" stroke-width="2" width="4" x="166.87531" y="204.3515"/>
    <path d="m72.875321 202.3515v23.292h59.999999s-53.999999-2-53.999999-10 0-13.292 0-13.292z" fill="url(#linearGradient3229)" stroke-width="2"/>
    <path d="m40.875321 198.6015c1.476 2.538 3.78 5.752 5.584 5.752h216.833989c1.804 0 4.11-3.214 5.584-5.752z" fill="url(#linearGradient3226)" stroke-width="2"/>
    <path d="m62.017321 5.643512c-1.866 0-3.468.994-3.582 2.224l-17.55 189.655988c-.16 1.722 1.506 3.12 3.722 3.12h220.537989c2.212 0 3.88-1.398 3.718-3.122l-17.54798-189.653988c-.114-1.23-1.716-2.224-3.582-2.224z" fill="url(#radialGradient3223)" stroke-width="2"/>
    <path d="m62.017321 7.643512c-.916 0-1.528.386-1.628.546 0 .27-17.514 189.515988-17.514 189.515988v.048c0 .072.02.19.16.342.24.264.78.548 1.572.548h220.537989c.792 0 1.33-.284 1.572-.548.174-.192.16-.326.154-.384 0-.004-17.54798-189.657988-17.54798-189.657988-.062-.022-.672-.408-1.59-.408h-185.716009z" fill="url(#radialGradient3220)" stroke-width="2"/>
    <path d="m60.389321 10.189512c.1-.162.71-.546 1.628-.546h185.716009c.918 0 1.528.386 1.59.408 0 0 15.70798 169.743998 17.39798 188.035988.166-.186.156-.318.15-.376 0-.004-17.54798-189.657988-17.54798-189.657988-.062-.022-.672-.408-1.59-.408h-185.716009c-.916 0-1.528.386-1.628.546 0 .268-17.514 189.513988-17.514 189.513988v.048c0 .07.024.184.152.33 1.69-18.27599 17.362-187.637988 17.362-187.893988z" fill="url(#linearGradient3217)" opacity=".8" stroke-width="2"/>
    <path d="m242.66333 119.35151c-1.126-14.162-8.672-27.665997-21.21001-38.321997-.252-4.096-3.466-56.494-3.466-56.494-.246-4.028-3.992-7.068-8.716-7.068h-29.646c-4.758 0-8.436 3.08-8.556 7.164-.544 18.452-17.132 28.086-41.876 36.85-8.67 2.058-31.273999 11.732-36.461999 15.978-15.272 11.154-24.38 26.023997-25.642 41.891997-1.148 14.432 4.37 28.874 15.538 40.666 16.346 17.26 43.353999 27.566 72.247999 27.566s55.902-10.306 72.25001-27.566c10.2-10.768 15.686-23.75 15.686-36.914 0-1.25-.052-2.502-.148-3.752zm-87.78801 61.074c-48.124 0-84.973999-28.922-82.307999-62.448 1.15-14.454 9.592-29.883997 23.572-40.051997 2.618-2.704 26.261999-13.222 34.743999-15.07 23.508-8.308 45.006-19.09 45.68-41.812.032-1.088 1.384-1.95 3.062-1.95h29.642c1.716 0 3.164.904 3.232 2.02l3.6 58.704c12.46001 9.894 20.01001 24.661997 21.08201 38.159997 2.668 33.526-34.18201 62.448-82.30601 62.448z" fill="url(#radialGradient3214)" stroke-width="2"/>
    <path d="m154.87532 100.64951c-15.964 0-28.202 8.088-28.46 18.816-.002.116-.004.23-.004.344 0 3.882 1.604 7.574 4.652 10.7 5.156 5.284 14.058 8.438 23.814 8.438 9.754 0 18.656-3.154 23.812-8.438 3.138-3.214 4.746-7.034 4.648-11.042-.262-10.728-12.5-18.818-28.462-18.818zm0 32.296c-15 0-22.642-8.016-22.462-15.334.174-7.204 10.23-12.96 22.462-12.96s22.288 5.758 22.462 12.96c.178 7.32-7.462 15.334-22.462 15.334z" fill="url(#radialGradient3211)" stroke-width="2"/>
    <path d="m162.37532 30.489513-.47-1.584c-.618-2.25-1.764-6.436-7.366-6.436h-69.251999c-6.306 0-11.608 5.102-12.07 11.616 0 0-1.846 26.108-1.846 26.108-.25 3.522.944 6.932 3.274 9.352 3.34 3.476 7.992 2.488 9.744 2.114 45.161999-9.616 73.675999-30.246 77.411999-36.834 1.06-1.87.896-3.39.574-4.336zm-3.786 1.292c1.096 3.208-27.488 25.84-75.033999 35.964-2.18.464-4.476.64-6.028-.976-1.55-1.612-2.336-3.902-2.166-6.296l.04-.56c-.042-.474-.074-.952-.04-1.44l1.846-26.106c.31-4.378 3.926-7.898 8.08-7.898h69.251999c3.208 0 2.962 2.128 4.05 5.314.084.246-.028.618-.288 1.076.09.298.18.602.288.922z" fill="url(#radialGradient3208)" stroke-width="2"/>
    <path d="m162.37532 30.489513-.47-1.584c-.574-2.09-1.654-5.814-6.298-6.332 2.098.458 2.034 2.43 2.984 5.21.084.246-.028.618-.288 1.076.088.3.178.602.288.924 1.096 3.208-27.488 25.84-75.033999 35.964-2.18.464-4.476.64-6.028-.976-1.55-1.612-2.336-3.902-2.166-6.296l.04-.56c-.042-.474-.074-.952-.04-1.44l1.846-26.106c.31-4.378 3.926-7.898 8.08-7.898-6.306 0-11.608 5.102-12.07 11.616 0 0-1.846 26.108-1.846 26.108-.25 3.522.944 6.932 3.274 9.352 3.34 3.476 7.992 2.488 9.744 2.114 45.159999-9.618 73.673999-30.248 77.409999-36.836 1.06-1.87.896-3.39.574-4.336z" fill="url(#radialGradient3205)" stroke-width="2"/>
    <path d="m245.07533 189.78751c.252 3.404 4.026 6.17999 8.42598 6.17999 4.398 0 7.728-2.77599 7.434-6.17999-.292-3.386-4.064-6.12-8.42-6.12-4.35798.002-7.68798 2.734-7.43998 6.12z" fill="url(#linearGradient3202)" stroke-width="2"/>
    <path d="m247.92133 187.39351c-.402.432-.862 1.124-.862 2.044 0 .066.004.132.008.202.174 2.346 3.12 4.328 6.43198 4.328 1.886 0 3.61-.65 4.61-1.742.43-.466.92-1.238.832-2.266-.202-2.326-3.144-4.292-6.428-4.292-1.87198.002-3.58998.646-4.59198 1.726z" fill="url(#radialGradient3199)" stroke-width="2"/>
    <path d="m48.815321 189.78751c-.294 3.404 3.034 6.17999 7.434 6.17999s8.174-2.77599 8.424-6.17999c.25-3.386-3.084-6.12-7.44-6.12-4.354.002-8.124 2.734-8.418 6.12z" fill="url(#linearGradient3196)" stroke-width="2"/>
    <path d="m50.807321 189.95951c-.088 1.028.404 1.798.832 2.266 1 1.092 2.724 1.742 4.612 1.742 3.312 0 6.256-1.98 6.43-4.326.076-1.02-.422-1.784-.85-2.246-1.004-1.082-2.722-1.726-4.594-1.726-3.284 0-6.228 1.964-6.43 4.29z" fill="url(#radialGradient3193)" stroke-width="2"/>
    <path d="m237.31133 84.419513c.21 2.844 3.64 5.16 7.662 5.16 4.018 0 7.078-2.316 6.832-5.16-.244-2.828-3.674-5.112-7.656-5.112-3.984 0-7.046 2.284-6.838 5.112z" fill="url(#linearGradient3190)" stroke-width="2"/>
    <path d="m239.88733 82.821513c-.388.418-.586.866-.586 1.33 0 .04.002.08.004.12.118 1.564 2.472 3.308 5.668 3.308 1.772 0 3.408-.584 4.272-1.526.422-.458.612-.95.568-1.46-.134-1.554-2.494-3.284-5.664-3.284-1.76-.002-3.394.578-4.262 1.512z" fill="url(#radialGradient3187)" stroke-width="2"/>
    <path d="m57.945321 84.419513c-.246 2.844 2.814 5.16 6.834 5.16 4.018 0 7.452-2.316 7.66-5.16.208-2.828-2.854-5.112-6.836-5.112-3.986 0-7.414 2.284-7.658 5.112z" fill="url(#linearGradient3184-9)" stroke-width="2"/>
    <path d="m59.937321 84.591513c-.044.51.148 1.002.568 1.46.864.942 2.5 1.526 4.274 1.526 3.196 0 5.55-1.742 5.666-3.306.038-.508-.158-.996-.58-1.45-.868-.934-2.5-1.514-4.262-1.514-3.172 0-5.532 1.73-5.666 3.284z" fill="url(#radialGradient3181)" stroke-width="2"/>
    <path d="m231.99933 12.343512c.184 2.488 3.382 4.514001 7.142 4.514001 3.758 0 6.632-2.026001 6.418-4.514001-.214-2.476-3.412-4.476-7.138-4.476-3.728 0-6.602 2-6.422 4.476z" fill="url(#linearGradient3178)" stroke-width="2"/>
    <path d="m234.40933 11.227512c-.372.398-.418.718-.418.884 0 .036.002.064.004.084.092 1.232 2.36 2.662 5.148 2.662 2.04 0 3.414-.708 4.024-1.372.444-.484.412-.85.402-.972-.11-1.25-2.332-2.648-5.146-2.648-2.028.002-3.404.704-4.014 1.362z" fill="url(#radialGradient3175)" stroke-width="2"/>
    <path d="m64.189321 12.343512c-.216 2.488 2.658 4.514001 6.418 4.514001 3.758 0 6.958-2.026001 7.142-4.514001.182-2.476-2.696-4.476-6.422-4.476-3.728 0-6.924 2-7.138 4.476z" fill="url(#linearGradient3172)" stroke-width="2"/>
    <path d="m66.181321 12.515512c0 .002 0 .002 0 0-.01.122-.042.488.402.972.608.662 1.984 1.37 4.024 1.37 2.79 0 5.058-1.43 5.148-2.662.008-.12.036-.484-.414-.966-.612-.658-1.988-1.362-4.014-1.362-2.814 0-5.036 1.398-5.146 2.648z" fill="url(#radialGradient3169)" stroke-width="2"/>
    <path d="m87.709321 8.979512c-1.054 0-1.928.666-1.996 1.522l-.606 7.666001c-.036.448.16.888.538 1.216s.906.514 1.458.514h78.021999c.534 0 1.044-.174 1.422-.482.376-.308.584-.726.578-1.16l-.09-7.666001c-.012-.89-.902-1.61-2-1.61z" fill="#bbb" stroke-width="2"/>
    <polygon fill="url(#linearGradient3119)" points="30.417 7.289 69.08 7.289 69.126 12.003 30.115 12.003" transform="matrix(2 0 0 2 26.875321 -5.356488)"/>
    <g transform="matrix(2 0 0 2 26.875321 -5.356488)">
      <path d="m62.954 10.843v-.34h-1.458l-.002.34h-.394l.004-.813h.393l-.002.38h1.459v-.38h.393l-.001.813z" fill="#888"/>
      <path d="m60.428 10.832c-.242.01-.524.017-.833.017-.56 0-.958-.033-1.221-.1-.273-.066-.428-.162-.427-.293.001-.132.159-.241.438-.316.287-.076.752-.117 1.338-.117.281 0 .51.002.71.01zm-.388-.721c-.098-.005-.241-.005-.393-.005-.832-.001-1.285.126-1.287.345-.007.194.395.313 1.219.313.202 0 .354-.004.456-.011z" fill="#888"/>
      <path d="m57.446 10.832c-.242.01-.524.017-.833.017-.56 0-.958-.033-1.221-.1-.272-.066-.427-.162-.425-.293.002-.132.161-.241.439-.316.288-.076.753-.117 1.338-.117.282 0 .51.002.71.01zm-.384-.721c-.098-.005-.241-.005-.394-.005-.832-.001-1.285.126-1.289.345-.007.194.394.313 1.217.313.202 0 .354-.004.457-.011z" fill="#888"/>
      <path d="m51.76 10.813.001-.07 1.283-.714h.402l-1.271.693v.002h1.423l-.002.088h-1.836z" fill="#888"/>
      <path d="m51.372 10.03-.001.065-.311.081c-.748.19-1.09.292-1.094.41-.002.08.135.153.569.153.265 0 .484-.036.62-.066l.124.074c-.198.045-.49.08-.826.08-.623 0-.884-.116-.88-.229.004-.145.396-.262 1.013-.421l.23-.058v-.002h-1.302l.002-.088h1.856z" fill="#888"/>
      <path d="m48.153 10.017c.568 0 .953.143.954.402-.007.264-.437.408-1.028.408-.609 0-.958-.147-.95-.397.009-.266.385-.413 1.02-.413zm-.02.081c-.399 0-.595.127-.601.327-.006.193.169.32.582.32.358 0 .595-.123.6-.32.015-.204-.214-.327-.576-.327z" fill="#888"/>
      <path d="m45.859 10.017c.568 0 .953.143.953.402-.009.264-.439.408-1.03.408-.609 0-.958-.147-.948-.397.01-.266.387-.413 1.021-.413zm-.02.081c-.398 0-.595.127-.603.327-.007.193.168.32.58.32.358 0 .595-.123.602-.32.016-.204-.213-.327-.575-.327z" fill="#888"/>
      <path d="m44.322 10.831c-.197.01-.484.018-.749.018-.416 0-.688-.021-.875-.067-.146-.035-.234-.091-.231-.155.004-.106.263-.177.577-.206v-.004c-.228-.021-.363-.08-.436-.164-.094-.114-.163-.192-.219-.223h.402c.048.023.113.093.189.194.085.112.249.154.602.158h.367l.013-.352h.389zm-.375-.37h-.398c-.416 0-.682.062-.686.154-.004.105.275.151.687.151.188 0 .319-.005.386-.01z" fill="#888"/>
      <path d="m41.913 10.832c-.188.01-.435.017-.749.017-.385 0-.666-.024-.843-.067-.164-.039-.264-.098-.261-.17.003-.074.087-.131.246-.174.208-.059.544-.089.925-.089.117 0 .224.001.313.008l.014-.326h.389zm-.373-.391c-.085-.006-.197-.009-.322-.009-.474 0-.759.063-.764.172s.275.161.705.161c.17 0 .3-.004.367-.008z" fill="#888"/>
      <path d="m37.01 10.386c.017.114.036.251.031.352h.009c.112-.095.239-.197.396-.309l.552-.394h.295l.473.387c.138.116.25.22.33.316h.009c.014-.102.043-.237.076-.36l.097-.348h.371l-.249.813h-.497l-.496-.394c-.121-.1-.214-.189-.291-.274h-.009c-.084.082-.197.171-.335.274l-.557.394h-.497l-.146-.813h.385z" fill="#888"/>
    </g>
    <g transform="matrix(2 0 0 2 26.875321 -5.356488)">
      <circle cx="106.666" cy="112.291" fill="url(#XMLID_76_)" r="2.625"/>
      <circle cx="106.664" cy="111.541" fill="url(#XMLID_77_)" r="2.625"/>
      <circle cx="106.666" cy="111.541" fill="url(#XMLID_78_)" r="1.875"/>
    </g>
  </g>
</svg>
