<svg height="256" width="256" xmlns="http://www.w3.org/2000/svg" xmlns:xlink="http://www.w3.org/1999/xlink">
  <defs>
    <filter id="filter3834" color-interpolation-filters="sRGB" height="1.064318" width="1.080929" x="-.040464" y="-.032159">
      <feGaussianBlur stdDeviation="1.50075"/>
    </filter>
    <filter id="filter3826" color-interpolation-filters="sRGB" height="1.044321" width="1.055874" x="-.027937" y="-.02216">
      <feGaussianBlur stdDeviation="1.036"/>
    </filter>
    <linearGradient id="linearGradient4524-4" gradientTransform="matrix(2 0 0 -2 -7.01182 257.00001)" gradientUnits="userSpaceOnUse" x1="72" x2="72" y1="0" y2="116.40091">
      <stop offset="0" stop-color="#b2b2b2"/>
      <stop offset=".40000001" stop-color="#bebebe"/>
      <stop offset="1" stop-color="#d8d8d8"/>
    </linearGradient>
    <filter id="filter1164" color-interpolation-filters="sRGB" height="1.096" width="1.090435" x="-.045217" y="-.048">
      <feGaussianBlur stdDeviation=".65000024"/>
    </filter>
    <radialGradient id="radialGradient5988-0" cx="64" cy="64.004021" fx="63.793392" fy="47.274845" gradientTransform="matrix(3.368421 .16859038 .13772678 -2.7517692 -103.40582 294.32648)" gradientUnits="userSpaceOnUse" r="47.5" xlink:href="#linearGradient3872"/>
    <linearGradient id="linearGradient3872">
      <stop offset="0" stop-color="#fff"/>
      <stop offset="1" stop-color="#fff" stop-opacity="0"/>
    </linearGradient>
    <clipPath id="clipPath6093-7">
      <path d="m17.000001 8-.000001 112h61.5c1.675283 0 3.914297-.56468 7-3.6 8.870045-8.72523 16.24047-13.8518 23.49904-21.175957 2.44056-2.462612 3.00096-4.47117 3.00096-6.724043v-80.5z"/>
    </clipPath>
    <filter id="filter6171-8" color-interpolation-filters="sRGB" height="2.02159" width="1.956141" x="-.47807" y="-.510795">
      <feGaussianBlur stdDeviation="10.140743"/>
    </filter>
    <linearGradient id="linearGradient3895-3" gradientTransform="matrix(2.0239716 0 0 -2.0239716 -.8029 246.97433)" gradientUnits="userSpaceOnUse" x1="86.73793" x2="93.189758" y1="93.621468" y2="100.45876">
      <stop offset="0" stop-color="#fcfcfc"/>
      <stop offset=".52275378" stop-color="#f8f8f8"/>
      <stop offset=".72337759" stop-color="#f0efef"/>
      <stop offset=".89024991" stop-color="#e3e1e1"/>
      <stop offset="1" stop-color="#cecbcb"/>
    </linearGradient>
    <filter id="filter13055" height="1.138272" width="1.138272" x="-.069136" y="-.069136">
      <feGaussianBlur stdDeviation="1.3708176"/>
    </filter>
    <filter id="filter13065" height="1.069136" width="1.069136" x="-.034568" y="-.034568">
      <feGaussianBlur stdDeviation=".68540881"/>
    </filter>
    <radialGradient id="radialGradient11840" cx="66.992203" cy="88.160202" gradientUnits="userSpaceOnUse" r="75.703796">
      <stop offset="0" stop-color="#2e3436"/>
      <stop offset=".6805"/>
      <stop offset="1" stop-color="#555753"/>
    </radialGradient>
    <radialGradient id="radialGradient12142" cx="47.000999" cy="55.717499" gradientTransform="matrix(1 0 0 .9999607 0 .002192)" gradientUnits="userSpaceOnUse" r="38.105">
      <stop offset="0" stop-color="#9e9e9e"/>
      <stop offset=".89285713" stop-color="#cecece"/>
      <stop offset="1" stop-color="#fff"/>
    </radialGradient>
    <radialGradient id="radialGradient12144" cx="62.190399" cy="72.274399" gradientUnits="userSpaceOnUse" r="53.033798">
      <stop offset="0" stop-color="#85878a"/>
      <stop offset=".2189" stop-color="#c9cdd1"/>
      <stop offset=".293" stop-color="#c2c6ca"/>
      <stop offset=".3993" stop-color="#b0b4b7"/>
      <stop offset=".5246" stop-color="#939598"/>
      <stop offset=".574" stop-color="#85878a"/>
      <stop offset=".8107" stop-color="#fff"/>
    </radialGradient>
    <linearGradient id="linearGradient12146" gradientUnits="userSpaceOnUse" x1="74.671864" x2="87.036484" y1="32.864807" y2="88.903019">
      <stop offset="0"/>
      <stop offset="1" stop-opacity="0"/>
    </linearGradient>
    <filter id="filter15054" height="1.246119" width="1.157391" x="-.078696" y="-.12306">
      <feGaussianBlur stdDeviation="1.1937557"/>
    </filter>
    <linearGradient id="linearGradient12148" gradientTransform="matrix(.52702883 0 0 .53917837 52.078718 41.536142)" gradientUnits="userSpaceOnUse" x1="40.927505" x2="104.58359" xlink:href="#linearGradient3872" y1="32.921314" y2="71.318947"/>
    <filter id="filter13133" height="1.049431" width="1.049334" x="-.024667" y="-.024716">
      <feGaussianBlur stdDeviation=".33124984"/>
    </filter>
    <linearGradient id="linearGradient12150" gradientUnits="userSpaceOnUse" x1="58.388699" x2="46.998501" y1="67.108398" y2="39.636002">
      <stop offset="0" stop-color="#c9cdd1"/>
      <stop offset=".1043" stop-color="#c2c6ca"/>
      <stop offset=".2541" stop-color="#b0b4b7"/>
      <stop offset=".4305" stop-color="#939598"/>
      <stop offset=".5" stop-color="#85878a"/>
      <stop offset="1" stop-color="#fff"/>
    </linearGradient>
    <linearGradient id="linearGradient12152" gradientUnits="userSpaceOnUse" x1="28.663601" x2="25.5091" y1="22.3232" y2="16.5853">
      <stop offset=".3" stop-color="#590000"/>
      <stop offset=".3536" stop-color="#850000"/>
      <stop offset=".425" stop-color="#b90000"/>
      <stop offset=".4872" stop-color="#df0000"/>
      <stop offset=".5369" stop-color="#f60000"/>
      <stop offset=".568" stop-color="#f00"/>
      <stop offset="1" stop-color="#bf0000"/>
    </linearGradient>
    <filter id="filter13703" height="1.126228" width="1.126228" x="-.063114" y="-.063114">
      <feGaussianBlur stdDeviation=".74515999"/>
    </filter>
    <linearGradient id="linearGradient12154" gradientUnits="userSpaceOnUse" x1="46.9995" x2="46.9995" y1="17.6143" y2="8.5493">
      <stop offset=".3"/>
      <stop offset=".3138" stop-color="#0f1010"/>
      <stop offset=".363" stop-color="#424344"/>
      <stop offset=".4058" stop-color="#66686a"/>
      <stop offset=".4401" stop-color="#7d7f81"/>
      <stop offset=".4615" stop-color="#85878a"/>
      <stop offset="1" stop-color="#555753"/>
    </linearGradient>
    <linearGradient id="linearGradient13089" gradientTransform="matrix(.50336113 0 0 .50434699 79.386145 47.604813)" gradientUnits="userSpaceOnUse" x1="47.749519" x2="47.080742" y1="70.1651" y2="38.964432">
      <stop offset="0" stop-color="#535557"/>
      <stop offset=".0305" stop-color="#6e7072"/>
      <stop offset=".0842" stop-color="#98999b"/>
      <stop offset=".1364" stop-color="#b9babc"/>
      <stop offset=".1863" stop-color="#d1d1d3"/>
      <stop offset=".2326" stop-color="#dfdfe1"/>
      <stop offset=".2722" stop-color="#e4e4e6"/>
      <stop offset=".4766" stop-color="#dfdfe1"/>
      <stop offset=".7245" stop-color="#d0d0d3"/>
      <stop offset=".9939" stop-color="#b8b8bc"/>
      <stop offset="1" stop-color="#b7b7bb"/>
    </linearGradient>
    <clipPath id="clipPath13095">
      <polygon points="59.863 47.555 61.121 47.956 60.786 49.232 61.983 49.786 61.49 51.011 62.607 51.711 61.966 52.864 62.988 53.699 62.205 54.762 63.113 55.719 62.205 56.674 62.988 57.737 61.966 58.573 62.607 59.726 61.49 60.427 61.983 61.649 60.786 62.204 61.121 63.481 59.863 63.882 60.037 65.191 58.739 65.43 58.746 66.75 57.43 66.826 57.271 68.136 55.955 68.044 55.634 69.325 54.34 69.069 53.86 70.3 52.608 69.884 51.979 71.045 50.789 70.476 50.02 71.548 48.909 70.834 48.011 71.802 47 70.953 45.988 71.802 45.09 70.834 43.98 71.548 43.211 70.476 42.02 71.045 41.391 69.884 40.138 70.3 39.66 69.069 38.365 69.325 38.044 68.044 36.729 68.136 36.57 66.826 35.253 66.75 35.261 65.43 33.963 65.191 34.136 63.882 32.878 63.481 33.215 62.204 32.017 61.649 32.51 60.427 31.392 59.726 32.035 58.573 31.012 57.737 31.793 56.674 30.884 55.719 31.793 54.762 31.012 53.699 32.035 52.864 31.392 51.711 32.51 51.011 32.017 49.786 33.215 49.232 32.878 47.956 34.136 47.555 33.963 46.247 35.261 46.007 35.253 44.687 36.57 44.613 36.729 43.302 38.044 43.393 38.365 42.112 39.66 42.367 40.138 41.137 41.391 41.552 42.02 40.393 43.211 40.961 43.98 39.889 45.09 40.603 45.988 39.636 47 40.482 47 40.482 48.011 39.636 48.909 40.603 50.02 39.889 50.789 40.961 51.979 40.393 52.608 41.552 53.86 41.137 54.34 42.367 55.634 42.112 55.955 43.393 57.271 43.302 57.43 44.613 58.746 44.687 58.739 46.007 60.037 46.247" transform="matrix(.50336113 0 0 .50434699 79.386145 47.604813)"/>
    </clipPath>
    <filter id="filter13123" height="1.167893" width="1.167909" x="-.083955" y="-.083947">
      <feGaussianBlur stdDeviation=".59207469"/>
    </filter>
    <filter id="filter12955" height="1.34892" width="1.34892" x="-.17446" y="-.17446">
      <feGaussianBlur stdDeviation=".47736626"/>
    </filter>
    <linearGradient id="linearGradient12991" gradientTransform="matrix(.66879276 .16907798 -.16907798 .66879276 20.851335 8.971009)" gradientUnits="userSpaceOnUse" x1="7.4639" x2="7.4639" xlink:href="#XMLID_137_" y1="3.5024" y2="11.5005"/>
    <linearGradient id="XMLID_137_" gradientTransform="matrix(.9695 .2451 -.2451 .9695 2.1015 -1.6022)" gradientUnits="userSpaceOnUse" x1="7.4639" x2="7.4639" y1="3.5024" y2="11.5005">
      <stop offset="0" stop-color="#fff"/>
      <stop offset="1" stop-color="#888"/>
    </linearGradient>
    <linearGradient id="linearGradient12993" gradientTransform="matrix(.34561899 .59696139 -.59696139 .34561899 26.692374 7.776059)" gradientUnits="userSpaceOnUse" x1="7.8394" x2="7.8394" xlink:href="#XMLID_138_" y1="8.5845" y2="7.5845"/>
    <linearGradient id="XMLID_138_" gradientTransform="matrix(.9135 .4067 -.4067 .9135 3.6272 -3.0738)" gradientUnits="userSpaceOnUse" x1="7.8394" x2="7.8394" y1="8.5845" y2="7.5845">
      <stop offset="0" stop-color="#888a85"/>
      <stop offset=".2226" stop-color="#7a7c78"/>
      <stop offset=".6436" stop-color="#565654"/>
      <stop offset="1" stop-color="#323232"/>
    </linearGradient>
    <linearGradient id="linearGradient13049" gradientTransform="matrix(.8653713 -.5010186 .5010186 .8653713 -3.334225 4.43138)" gradientUnits="userSpaceOnUse" x1="7.8394" x2="7.8394" xlink:href="#XMLID_138_" y1="8.5845" y2="7.5845"/>
    <linearGradient id="linearGradient12969" gradientTransform="matrix(-.59696139 -.34561899 -.34561899 .59696139 32.049484 13.133169)" gradientUnits="userSpaceOnUse" x1="7.8394" x2="7.8394" xlink:href="#XMLID_138_" y1="8.5845" y2="7.5845"/>
    <linearGradient id="linearGradient31135" gradientTransform="matrix(.9695 .2451 -.2451 .9695 2.1015 -1.6022)" gradientUnits="userSpaceOnUse" x1="7.4639" x2="7.4639" xlink:href="#XMLID_137_" y1="3.5024" y2="11.5005"/>
  </defs>
  <path d="m-128.8111-19.056071v112h56.187504c5.114947-.238308 32.613203-27.078301 32.775-30.612499.08138-25.126708.0375-56.2589983.0375-81.387501z" filter="url(#filter3834)" opacity=".262376" transform="matrix(2 0 0 -2 296.61038 201.88787)"/>
  <path d="m-128.8111-19.556071v112.2h55.746422c3.098719 0 24.709876-18.512112 30.003672-24.699929 1.602664-1.873324 3.24991-3.03751 3.24991-7.20007v-80.300001z" fill-opacity=".700535" filter="url(#filter3826)" transform="matrix(2 0 0 -2 296.61038 201.88787)"/>
  <path d="m38.98818 241.00001v-223.999998h111.00001c3.35056 0 7.82859 1.12936 14 7.2 17.74009 17.45046 32.48094 27.703618 46.99808 42.351918 4.88112 4.92522 6.00192 8.94234 6.00192 13.44808v161z" fill="#fff" stroke-width="2"/>
  <path d="m41.98818 239.00001c-.67968 0-1-.46923-1-1v-215.937498c0-1.64316 1.35864-3 3-3h103.37501c.10614 0 1.62077-.0468 3-.0626 3.55533.0802 6.26395 1.50748 8.71207 3.18656 2.10373.58206 33.29967 27.239178 51.54191 45.618478 2.72478 2.74524 4.37092 7.89634 4.37092 9.79122l.0001 160.40384c0 .64544-.32644 1-1 1z" fill="url(#linearGradient4524-4)" stroke-width="2"/>
  <path d="m41.98818 239.00001c-.67968 0-1-.46923-1-1v-215.937498c0-1.64316 1.35864-2.999022 3-3l105.00001-.0626c.10614-.000064 6.54777.016 7.927-.0001 13.08194 9.00722 37.2746 31.906578 55.16506 49.910198 2.9537 3.31296.9152.74012 2.90782 3.2149l.00012 165.875c0 .64544-.32644 1-1 1z" fill="url(#radialGradient5988-0)" opacity=".846535" stroke-width="2"/>
  <path d="m-39.811096 59.94691c0 4.46531-3.067448 5.978576-5.549678 7.662246-5.10854 3.46508-13.669156 1.756744-19.450326 1.837764-.081 5.78116 1.723142 12.231893-1.741938 17.340433-1.68367 2.48224-4.847792 5.659577-7.758062 5.659577 2.31803 0 4.74284-1.334761 7.58402-4.084811 9.14197-8.84873 14.36714-11.135349 22.673154-20.297529 1.91895-2.11675 4.24283-3.64188 4.24283-8.11768z" filter="url(#filter1164)" opacity=".4" transform="matrix(2 0 0 -2 296.61038 201.88787)"/>
  <path clip-path="url(#clipPath6093-7)" d="m114.4 82.502986c0 4.465301-4.99749 12.609952-7.47972 14.293625-5.10854 3.465079-12.739114 1.52536-18.520284 1.60638-.081 5.781159 1.96586 11.304599-1.49922 16.413139-1.68367 2.48224-9.79051 8.68687-12.70078 8.68687-2.091359 1.5337 3.488204 8.21101 6.734971 5.31989 9.501888-8.46107 35.131683-30.022704 43.350823-39.262889 2.04044-2.29392-4.90514-9.844666-9.88579-7.057015z" filter="url(#filter6171-8)" opacity=".277228" transform="matrix(2 0 0 -2 -7.01182 257.00001)"/>
  <path d="m216.98819 79.99405c0-8.93062-5.59498-12.81992-10.55944-16.18726-10.21708-6.93016-21.87823-6.65072-33.44057-6.81276-.162-11.56232.33172-19.009198-6.59844-29.226278-3.36734-4.96448-10.58102-10.773742-16.40156-10.773742 4.63606 0 8.88785 3.363424 15.16804 8.169622 19.0787 14.60084 26.40937 20.968606 43.34631 38.595058 3.95915 4.12033 8.48566 7.28376 8.48566 16.23536z" fill="url(#linearGradient3895-3)"/>
  <path d="m217.02569 78.57501c-.63286-7.7982-7.04582-11.80562-11.7-14.9625-10.21708-6.93016-22.67516-4.65046-34.2375-4.8125-.162-11.56232 1.70516-20.632918-5.225-30.849998-2.94642-4.34392-8.19891-9.3202-13.525-10.500002 3.96092.724602 7.76986 3.322782 12.5375 7.937502.67823.77706 1.14859 1.3579 2.2125 3 6.93016 10.21708 5.84737 16.931438 6.00937 28.493758 11.56234.162 23.43605-.42392 33.65313 6.50624.93084.63138 3.18798 2.3755 4.0125 3.2 3.07258 3.07258 5.80342 5.22684 6.2625 11.9875zm-64.6875-61.125c-.31532-.0698-.62688-.0828-.9375-.125.31398.0338.62088.067.9375.125z" fill="#fff"/>
  <g transform="matrix(2 0 0 2 0 -6.227423)">
    <g transform="matrix(1.1446111 0 0 1.1446111 -33.5781 .671164)">
      <path d="m61.456523 75.707092c0 13.120149 10.673072 23.792908 23.793477 23.792908 13.119269 0 23.79348-10.672759 23.79348-23.792908 0-13.12015-10.674211-23.794044-23.79348-23.794044-13.119837 0-23.793477 10.673894-23.793477 23.794044z" fill="#fff" filter="url(#filter13055)" opacity=".5" transform="matrix(.97824816 0 0 .97824816 1.854345 2.235871)"/>
      <path d="m61.456523 75.707092c0 13.120149 10.673072 23.792908 23.793477 23.792908 13.119269 0 23.79348-10.672759 23.79348-23.792908 0-13.12015-10.674211-23.794044-23.79348-23.794044-13.119837 0-23.793477 10.673894-23.793477 23.794044z" filter="url(#filter13065)" transform="matrix(.90988523 0 0 .90988523 7.682285 7.411391)"/>
      <circle cx="47" cy="55.719002" fill="url(#radialGradient11840)" r="38.105" transform="matrix(.56765343 0 0 .56765343 58.570287 44.077441)"/>
      <g fill="url(#radialGradient12142)" transform="matrix(.53927078 0 0 .53929199 59.903734 45.658522)">
        <g fill="url(#radialGradient12142)">
          <rect fill="url(#radialGradient12142)" height="6.043" width="1.007" x="46.497002" y="17.614"/>
          <rect fill="url(#radialGradient12142)" height="6.041" width="1.007" x="46.497002" y="87.779999"/>
        </g>
        <g fill="url(#radialGradient12142)">
          <polygon fill="url(#radialGradient12142)" points="27.748 30.077 24.195 25.187 25.01 24.595 28.563 29.483"/>
          <polygon fill="url(#radialGradient12142)" points="68.99 86.843 65.437 81.952 66.253 81.36 69.806 86.25"/>
        </g>
        <g fill="url(#radialGradient12142)">
          <polygon fill="url(#radialGradient12142)" points="16.352 46.29 10.605 44.422 10.916 43.464 16.663 45.332"/>
          <polygon fill="url(#radialGradient12142)" points="83.083 67.973 77.336 66.104 77.648 65.147 83.396 67.015"/>
        </g>
        <g fill="url(#radialGradient12142)">
          <polygon fill="url(#radialGradient12142)" points="16.664 66.104 10.916 67.973 10.605 67.015 16.353 65.147"/>
          <polygon fill="url(#radialGradient12142)" points="83.396 44.422 77.648 46.29 77.337 45.332 83.085 43.464"/>
        </g>
        <g fill="url(#radialGradient12142)">
          <polygon fill="url(#radialGradient12142)" points="28.563 81.952 25.01 86.843 24.195 86.25 27.748 81.36"/>
          <polygon fill="url(#radialGradient12142)" points="69.806 25.187 66.253 30.077 65.437 29.483 68.99 24.595"/>
        </g>
        <g fill="url(#radialGradient12142)">
          <polygon fill="url(#radialGradient12142)" points="44.357 21.742 44.104 17.721 45.111 17.657 45.363 21.678"/>
          <polygon fill="url(#radialGradient12142)" points="48.889 93.78 48.637 89.758 49.643 89.695 49.896 93.715"/>
        </g>
        <g fill="url(#radialGradient12142)">
          <polygon fill="url(#radialGradient12142)" points="42.23 21.974 41.726 17.977 42.724 17.852 43.228 21.848"/>
          <polygon fill="url(#radialGradient12142)" points="51.276 93.585 50.771 89.588 51.77 89.462 52.275 93.459"/>
        </g>
        <g fill="url(#radialGradient12142)">
          <polygon fill="url(#radialGradient12142)" points="40.121 22.341 39.366 18.383 40.354 18.195 41.109 22.151"/>
          <polygon fill="url(#radialGradient12142)" points="53.645 93.242 52.891 89.285 53.879 89.096 54.634 93.054"/>
        </g>
        <g fill="url(#radialGradient12142)">
          <polygon fill="url(#radialGradient12142)" points="38.037 22.838 37.035 18.937 38.012 18.686 39.013 22.588"/>
          <polygon fill="url(#radialGradient12142)" points="55.987 92.751 54.987 88.849 55.962 88.598 56.964 92.5"/>
        </g>
        <g fill="url(#radialGradient12142)">
          <polygon fill="url(#radialGradient12142)" points="35.991 23.465 34.746 19.634 35.703 19.324 36.949 23.155"/>
          <polygon fill="url(#radialGradient12142)" points="58.296 92.114 57.05 88.282 58.008 87.971 59.254 91.802"/>
        </g>
        <g fill="url(#radialGradient12142)">
          <polygon fill="url(#radialGradient12142)" points="33.441 20.104 34.924 23.851 33.987 24.221 32.505 20.475"/>
          <polygon fill="url(#radialGradient12142)" points="60.012 87.216 61.494 90.961 60.56 91.332 59.074 87.586"/>
        </g>
        <g fill="url(#radialGradient12142)">
          <polygon fill="url(#radialGradient12142)" points="32.036 25.1 30.32 21.455 31.231 21.026 32.947 24.671"/>
          <polygon fill="url(#radialGradient12142)" points="62.77 90.411 61.054 86.766 61.965 86.337 63.68 89.982"/>
        </g>
        <g fill="url(#radialGradient12142)">
          <polygon fill="url(#radialGradient12142)" points="30.142 26.1 28.202 22.57 29.083 22.084 31.025 25.615"/>
          <polygon fill="url(#radialGradient12142)" points="64.915 89.352 62.975 85.822 63.857 85.336 65.798 88.867"/>
        </g>
        <g fill="url(#radialGradient12142)">
          <polygon fill="url(#radialGradient12142)" points="28.315 27.217 26.157 23.815 27.007 23.276 29.166 26.677"/>
          <polygon fill="url(#radialGradient12142)" points="66.991 88.161 64.834 84.759 65.684 84.219 67.842 87.622"/>
        </g>
        <g fill="url(#radialGradient12142)">
          <polygon fill="url(#radialGradient12142)" points="24.892 29.784 22.323 26.679 23.1 26.037 25.667 29.141"/>
          <polygon fill="url(#radialGradient12142)" points="70.9 85.399 68.333 82.294 69.108 81.653 71.676 84.757"/>
        </g>
        <g fill="url(#radialGradient12142)">
          <polygon fill="url(#radialGradient12142)" points="23.307 31.224 20.548 28.286 21.283 27.597 24.04 30.533"/>
          <polygon fill="url(#radialGradient12142)" points="72.717 83.841 69.959 80.903 70.694 80.214 73.452 83.15"/>
        </g>
        <g fill="url(#radialGradient12142)">
          <polygon fill="url(#radialGradient12142)" points="21.815 32.759 18.878 30 19.567 29.267 22.504 32.024"/>
          <polygon fill="url(#radialGradient12142)" points="74.432 82.17 71.494 79.411 72.184 78.679 75.122 81.436"/>
        </g>
        <g fill="url(#radialGradient12142)">
          <polygon fill="url(#radialGradient12142)" points="20.424 34.386 17.319 31.817 17.961 31.042 21.065 33.609"/>
          <polygon fill="url(#radialGradient12142)" points="76.038 80.396 72.936 77.826 73.577 77.051 76.681 79.619"/>
        </g>
        <g fill="url(#radialGradient12142)">
          <polygon fill="url(#radialGradient12142)" points="19.137 36.096 15.876 33.728 16.469 32.913 19.728 35.281"/>
          <polygon fill="url(#radialGradient12142)" points="77.531 78.523 74.271 76.155 74.862 75.341 78.124 77.708"/>
        </g>
        <g fill="url(#radialGradient12142)">
          <polygon fill="url(#radialGradient12142)" points="17.96 37.884 14.557 35.726 15.097 34.876 18.499 37.034"/>
          <polygon fill="url(#radialGradient12142)" points="78.903 76.562 75.502 74.401 76.04 73.552 79.442 75.711"/>
        </g>
        <g fill="url(#radialGradient12142)">
          <polygon fill="url(#radialGradient12142)" points="16.897 39.743 13.366 37.802 13.851 36.92 17.382 38.861"/>
          <polygon fill="url(#radialGradient12142)" points="80.148 74.517 76.617 72.575 77.103 71.693 80.634 73.633"/>
        </g>
        <g fill="url(#radialGradient12142)">
          <polygon fill="url(#radialGradient12142)" points="15.954 41.666 12.309 39.949 12.737 39.039 16.382 40.754"/>
          <polygon fill="url(#radialGradient12142)" points="81.263 72.397 77.618 70.683 78.047 69.771 81.692 71.486"/>
        </g>
        <g fill="url(#radialGradient12142)">
          <polygon fill="url(#radialGradient12142)" points="15.132 43.643 11.386 42.158 11.756 41.224 15.502 42.706"/>
          <polygon fill="url(#radialGradient12142)" points="82.243 70.214 78.497 68.73 78.867 67.794 82.613 69.276"/>
        </g>
        <g fill="url(#radialGradient12142)">
          <polygon fill="url(#radialGradient12142)" points="13.87 47.731 9.967 46.729 10.218 45.755 14.12 46.756"/>
          <polygon fill="url(#radialGradient12142)" points="83.782 65.683 79.88 64.681 80.129 63.703 84.032 64.706"/>
        </g>
        <g fill="url(#radialGradient12142)">
          <polygon fill="url(#radialGradient12142)" points="13.435 49.829 9.477 49.071 9.665 48.084 13.623 48.837"/>
          <polygon fill="url(#radialGradient12142)" points="84.334 63.353 80.378 62.598 80.566 61.608 84.524 62.363"/>
        </g>
        <g fill="url(#radialGradient12142)">
          <polygon fill="url(#radialGradient12142)" points="13.13 51.946 9.133 51.44 9.259 50.443 13.256 50.949"/>
          <polygon fill="url(#radialGradient12142)" points="84.742 60.995 80.743 60.487 80.869 59.488 84.867 59.993"/>
        </g>
        <g fill="url(#radialGradient12142)">
          <polygon fill="url(#radialGradient12142)" points="12.96 54.081 8.938 53.828 9.003 52.824 13.024 53.076"/>
          <polygon fill="url(#radialGradient12142)" points="84.999 58.612 80.977 58.361 81.04 57.355 85.061 57.606"/>
        </g>
        <g fill="url(#radialGradient12142)">
          <rect fill="url(#radialGradient12142)" height="1.005" width="4.029" x="8.896" y="55.215"/>
          <rect fill="url(#radialGradient12142)" height="1.007" width="4.03" x="81.075996" y="55.214001"/>
        </g>
        <g fill="url(#radialGradient12142)">
          <polygon fill="url(#radialGradient12142)" points="13.024 58.361 9.003 58.613 8.938 57.609 12.96 57.356"/>
          <polygon fill="url(#radialGradient12142)" points="85.061 53.829 81.04 54.081 80.976 53.076 84.997 52.823"/>
        </g>
        <g fill="url(#radialGradient12142)">
          <polygon fill="url(#radialGradient12142)" points="13.257 60.487 9.259 60.995 9.133 59.996 13.13 59.49"/>
          <polygon fill="url(#radialGradient12142)" points="84.867 51.442 80.869 51.948 80.743 50.949 84.742 50.443"/>
        </g>
        <g fill="url(#radialGradient12142)">
          <polygon fill="url(#radialGradient12142)" points="13.624 62.598 9.665 63.354 9.477 62.365 13.433 61.608"/>
          <polygon fill="url(#radialGradient12142)" points="84.524 49.074 80.566 49.829 80.378 48.838 84.334 48.083"/>
        </g>
        <g fill="url(#radialGradient12142)">
          <polygon fill="url(#radialGradient12142)" points="14.12 64.681 10.218 65.684 9.967 64.708 13.87 63.705"/>
          <polygon fill="url(#radialGradient12142)" points="84.032 46.73 80.129 47.731 79.88 46.756 83.782 45.754"/>
        </g>
        <g fill="url(#radialGradient12142)">
          <polygon fill="url(#radialGradient12142)" points="15.502 68.732 11.756 70.214 11.385 69.277 15.132 67.794"/>
          <polygon fill="url(#radialGradient12142)" points="82.613 42.159 78.867 43.643 78.495 42.706 82.243 41.224"/>
        </g>
        <g fill="url(#radialGradient12142)">
          <polygon fill="url(#radialGradient12142)" points="16.382 70.683 12.736 72.398 12.307 71.487 15.953 69.771"/>
          <polygon fill="url(#radialGradient12142)" points="81.693 39.951 78.047 41.666 77.618 40.754 81.263 39.038"/>
        </g>
        <g fill="url(#radialGradient12142)">
          <polygon fill="url(#radialGradient12142)" points="17.382 72.575 13.851 74.517 13.366 73.633 16.896 71.693"/>
          <polygon fill="url(#radialGradient12142)" points="80.634 37.803 77.103 39.743 76.617 38.861 80.147 36.92"/>
        </g>
        <g fill="url(#radialGradient12142)">
          <polygon fill="url(#radialGradient12142)" points="18.499 74.4 15.097 76.562 14.557 75.711 17.959 73.553"/>
          <polygon fill="url(#radialGradient12142)" points="79.442 35.726 76.04 37.884 75.5 37.034 78.901 34.876"/>
        </g>
        <g fill="url(#radialGradient12142)">
          <polygon fill="url(#radialGradient12142)" points="19.728 76.155 16.469 78.524 15.876 77.708 19.137 75.341"/>
          <polygon fill="url(#radialGradient12142)" points="78.124 33.729 74.862 36.096 74.271 35.281 77.531 32.913"/>
        </g>
        <g fill="url(#radialGradient12142)">
          <polygon fill="url(#radialGradient12142)" points="21.065 77.826 17.961 80.396 17.319 79.619 20.424 77.051"/>
          <polygon fill="url(#radialGradient12142)" points="76.681 31.817 73.577 34.386 72.934 33.609 76.037 31.042"/>
        </g>
        <g fill="url(#radialGradient12142)">
          <polygon fill="url(#radialGradient12142)" points="22.504 79.411 19.567 82.17 18.878 81.436 21.815 78.677"/>
          <polygon fill="url(#radialGradient12142)" points="75.122 30.001 72.184 32.759 71.494 32.025 74.431 29.267"/>
        </g>
        <g fill="url(#radialGradient12142)">
          <polygon fill="url(#radialGradient12142)" points="24.041 80.903 21.282 83.841 20.548 83.15 23.307 80.213"/>
          <polygon fill="url(#radialGradient12142)" points="73.452 28.286 70.694 31.223 69.958 30.533 72.716 27.597"/>
        </g>
        <g fill="url(#radialGradient12142)">
          <polygon fill="url(#radialGradient12142)" points="25.667 82.294 23.099 85.399 22.323 84.757 24.892 81.651"/>
          <polygon fill="url(#radialGradient12142)" points="71.677 26.679 69.108 29.784 68.333 29.141 70.899 26.037"/>
        </g>
        <g fill="url(#radialGradient12142)">
          <polygon fill="url(#radialGradient12142)" points="29.167 84.759 27.007 88.161 26.157 87.622 28.316 84.219"/>
          <polygon fill="url(#radialGradient12142)" points="67.842 23.815 65.686 27.217 64.832 26.677 66.991 23.277"/>
        </g>
        <g fill="url(#radialGradient12142)">
          <polygon fill="url(#radialGradient12142)" points="31.025 85.822 29.085 89.352 28.202 88.867 30.143 85.336"/>
          <polygon fill="url(#radialGradient12142)" points="65.798 22.569 63.857 26.1 62.973 25.615 64.913 22.085"/>
        </g>
        <g fill="url(#radialGradient12142)">
          <polygon fill="url(#radialGradient12142)" points="32.947 86.764 31.231 90.41 30.32 89.982 32.036 86.335"/>
          <polygon fill="url(#radialGradient12142)" points="63.68 21.454 61.965 25.099 61.054 24.671 62.769 21.027"/>
        </g>
        <g fill="url(#radialGradient12142)">
          <polygon fill="url(#radialGradient12142)" points="34.924 87.586 33.441 91.332 32.505 90.962 33.988 87.215"/>
          <polygon fill="url(#radialGradient12142)" points="61.494 20.474 60.012 24.221 59.074 23.85 60.557 20.105"/>
        </g>
        <g fill="url(#radialGradient12142)">
          <polygon fill="url(#radialGradient12142)" points="36.949 88.282 35.703 92.114 34.746 91.802 35.991 87.969"/>
          <polygon fill="url(#radialGradient12142)" points="59.254 19.633 58.008 23.465 57.049 23.155 58.295 19.324"/>
        </g>
        <g fill="url(#radialGradient12142)">
          <polygon fill="url(#radialGradient12142)" points="39.014 88.847 38.012 92.751 37.035 92.5 38.039 88.596"/>
          <polygon fill="url(#radialGradient12142)" points="56.964 18.935 55.962 22.838 54.985 22.588 55.987 18.686"/>
        </g>
        <g fill="url(#radialGradient12142)">
          <polygon fill="url(#radialGradient12142)" points="41.11 89.284 40.354 93.242 39.366 93.054 40.121 89.096"/>
          <polygon fill="url(#radialGradient12142)" points="54.634 18.382 53.879 22.34 52.891 22.151 53.645 18.195"/>
        </g>
        <g fill="url(#radialGradient12142)">
          <polygon fill="url(#radialGradient12142)" points="43.229 89.588 42.724 93.585 41.726 93.46 42.23 89.461"/>
          <polygon fill="url(#radialGradient12142)" points="52.275 17.977 51.77 21.974 50.771 21.848 51.276 17.852"/>
        </g>
        <g fill="url(#radialGradient12142)">
          <polygon fill="url(#radialGradient12142)" points="45.363 89.757 45.111 93.779 44.104 93.717 44.358 89.695"/>
          <polygon fill="url(#radialGradient12142)" points="49.896 17.719 49.643 21.741 48.637 21.678 48.889 17.658"/>
        </g>
      </g>
      <circle cx="47" cy="55.719002" fill="url(#radialGradient12144)" r="24.844" transform="matrix(.52239013 0 0 .52239013 60.697662 46.599468)"/>
      <path d="m83.46875 60.468754c-9.62895.05348-16.73557 7.650735-17.8125 17.937496 4.12592 3.34762 9.37055 5.34375 15.09375 5.34375 9.27264 0 17.31636-5.2649 21.3125-12.968746-4.64984-6.270324-11.48132-10.352004-18.59375-10.3125z" fill="url(#linearGradient12146)" filter="url(#filter15054)" transform="matrix(.54076085 0 0 .54076085 42.665083 44.477583)"/>
      <path d="m85.808563 55.157612c-10.936374 0-20.666307 8.440015-20.912429 19.568118 1.673669 3.116785 5.41053 5.932827 8.980891 7.259774 6.64163-8.527521 20.364077-8.250203 24.334988-4.753245 2.995627-2.451288 5.227457-5.438458 6.460487-8.591953-2.81538-7.86769-10.198526-13.482694-18.863937-13.482694z" fill="url(#linearGradient12148)" opacity=".5"/>
      <circle cx="85.24999995" cy="75.70760688267" fill="#2e3436" r="8.9863638053" stroke-width=".54076085"/>
      <polygon filter="url(#filter13133)" points="38.365 69.325 38.044 68.044 36.729 68.136 36.57 66.826 35.253 66.75 35.261 65.43 33.963 65.191 34.136 63.882 32.878 63.481 33.215 62.204 32.017 61.649 32.51 60.427 31.392 59.726 32.035 58.573 31.012 57.737 31.793 56.674 30.884 55.719 31.793 54.762 31.012 53.699 32.035 52.864 31.392 51.711 32.51 51.011 32.017 49.786 33.215 49.232 32.878 47.956 34.136 47.555 33.963 46.247 35.261 46.007 35.253 44.687 36.57 44.613 36.729 43.302 38.044 43.393 38.365 42.112 39.66 42.367 40.138 41.137 41.391 41.552 42.02 40.393 43.211 40.961 43.98 39.889 45.09 40.603 45.988 39.636 47 40.482 47 40.482 48.011 39.636 48.909 40.603 50.02 39.889 50.789 40.961 51.979 40.393 52.608 41.552 53.86 41.137 54.34 42.367 55.634 42.112 55.955 43.393 57.271 43.302 57.43 44.613 58.746 44.687 58.739 46.007 60.037 46.247 59.863 47.555 61.121 47.956 60.786 49.232 61.983 49.786 61.49 51.011 62.607 51.711 61.966 52.864 62.988 53.699 62.205 54.762 63.113 55.719 62.205 56.674 62.988 57.737 61.966 58.573 62.607 59.726 61.49 60.427 61.983 61.649 60.786 62.204 61.121 63.481 59.863 63.882 60.037 65.191 58.739 65.43 58.746 66.75 57.43 66.826 57.271 68.136 55.955 68.044 55.634 69.325 54.34 69.069 53.86 70.3 52.608 69.884 51.979 71.045 50.789 70.476 50.02 71.548 48.909 70.834 48.011 71.802 47 70.953 45.988 71.802 45.09 70.834 43.98 71.548 43.211 70.476 42.02 71.045 41.391 69.884 40.138 70.3 39.66 69.069" transform="matrix(.50336113 0 0 .50434699 61.592784 47.700028)"/>
      <polygon fill="url(#linearGradient12150)" points="41.391 69.884 40.138 70.3 39.66 69.069 38.365 69.325 38.044 68.044 36.729 68.136 36.57 66.826 35.253 66.75 35.261 65.43 33.963 65.191 34.136 63.882 32.878 63.481 33.215 62.204 32.017 61.649 32.51 60.427 31.392 59.726 32.035 58.573 31.012 57.737 31.793 56.674 30.884 55.719 31.793 54.762 31.012 53.699 32.035 52.864 31.392 51.711 32.51 51.011 32.017 49.786 33.215 49.232 32.878 47.956 34.136 47.555 33.963 46.247 35.261 46.007 35.253 44.687 36.57 44.613 36.729 43.302 38.044 43.393 38.365 42.112 39.66 42.367 40.138 41.137 41.391 41.552 42.02 40.393 43.211 40.961 43.98 39.889 45.09 40.603 45.988 39.636 47 40.482 47 40.482 48.011 39.636 48.909 40.603 50.02 39.889 50.789 40.961 51.979 40.393 52.608 41.552 53.86 41.137 54.34 42.367 55.634 42.112 55.955 43.393 57.271 43.302 57.43 44.613 58.746 44.687 58.739 46.007 60.037 46.247 59.863 47.555 61.121 47.956 60.786 49.232 61.983 49.786 61.49 51.011 62.607 51.711 61.966 52.864 62.988 53.699 62.205 54.762 63.113 55.719 62.205 56.674 62.988 57.737 61.966 58.573 62.607 59.726 61.49 60.427 61.983 61.649 60.786 62.204 61.121 63.481 59.863 63.882 60.037 65.191 58.739 65.43 58.746 66.75 57.43 66.826 57.271 68.136 55.955 68.044 55.634 69.325 54.34 69.069 53.86 70.3 52.608 69.884 51.979 71.045 50.789 70.476 50.02 71.548 48.909 70.834 48.011 71.802 47 70.953 45.988 71.802 45.09 70.834 43.98 71.548 43.211 70.476 42.02 71.045" transform="matrix(.50336113 0 0 .50434699 61.592784 47.604813)"/>
      <polygon fill="url(#linearGradient12152)" points="25.95 16.343 29.104 22.08 28.222 22.565 25.123 16.811" transform="matrix(.54076085 0 0 .54076085 59.394872 44.664418)"/>
      <circle cx="47" cy="55.719002" fill="none" filter="url(#filter13703)" r="18.129" stroke="#fff" transform="matrix(.52250233 0 0 .52250233 60.692389 46.593216)"/>
      <polygon fill="url(#linearGradient12154)" points="46.497 17.614 47.503 17.614 47.503 13.67 49.518 10.648 47.503 10.648 47.503 8.549 46.497 8.549 46.497 10.648 44.481 10.648 46.497 13.67" transform="matrix(.64414633 0 0 .47722967 54.975444 45.670167)"/>
      <g fill="#fff" transform="matrix(.54076085 0 0 .54076085 59.83424 45.576952)">
        <g fill="#fff">
          <path d="m62.504 29.734c-.026-.011-.046-.02-.06-.025-.012-.006-.024-.011-.032-.018-.057-.036-.095-.082-.11-.136-.015-.056-.005-.11.029-.164.026-.043.067-.072.118-.086.054-.012.113-.009.184.012l.962.297c.023.007.045.016.067.025.021.009.041.021.062.034.034.022.052.057.052.101 0 .045-.018.095-.052.151l-1.894 2.993.443.28c.164.104.261.184.286.238.029.055.019.12-.026.193-.043.067-.095.105-.151.115-.059.01-.125-.008-.197-.055l-1.654-1.048c-.077-.046-.121-.098-.136-.154-.016-.058-.003-.119.039-.185.047-.075.1-.111.163-.11.06.001.172.054.337.158l.457.29 1.71-2.702z" fill="#fff"/>
          <path d="m64.439 35.599c-.311-.27-.429-.629-.357-1.079.071-.451.328-.931.771-1.44.439-.507.878-.829 1.314-.963.437-.135.809-.067 1.119.202.31.268.429.629.357 1.081s-.327.931-.767 1.437c-.439.506-.878.827-1.316.962-.437.135-.811.069-1.121-.2zm2.538-2.926c-.188-.164-.432-.18-.732-.048-.3.133-.627.404-.981.812-.354.411-.579.774-.668 1.09-.091.316-.04.557.148.722.191.165.438.181.737.048.301-.134.63-.405.985-.816.355-.408.576-.77.666-1.085.089-.317.038-.557-.155-.723z" fill="#fff"/>
          <path d="m71.42 44.76c-.042-.106-.051-.195-.029-.265.023-.068.079-.122.17-.159.133-.051.459.043.977.287l.119.054c.081.035.196.088.347.156.94.435 1.563.591 1.865.47.215-.086.366-.219.451-.396.087-.177.091-.366.012-.562-.052-.126-.126-.238-.226-.333s-.208-.161-.326-.196c-.021-.005-.055-.013-.105-.024-.165-.02-.267-.077-.304-.17-.029-.073-.029-.133.005-.181.03-.048.111-.098.235-.147.073-.029.13-.044.167-.043.04.001.085.014.141.036.177.079.342.199.492.361.149.163.267.344.345.544.136.337.141.662.015.974-.126.313-.347.533-.663.66-.397.16-1.062.027-1.997-.398-.235-.111-.416-.192-.548-.25l-.509-.229.557 1.387c.091-.026.165-.029.228-.008.062.022.105.065.133.133.027.066.026.128-.004.185-.028.056-.081.099-.158.13-.007.003-.019.006-.034.011-.017.002-.026.006-.032.008l-.244.069c-.065.02-.121.021-.169.004s-.082-.047-.101-.096z" fill="#fff"/>
          <path d="m72.951 49.668c-.096-.399.02-.76.342-1.083s.812-.561 1.468-.715c.653-.154 1.196-.157 1.629-.012.432.146.694.419.788.818.095.399-.021.76-.343 1.084-.323.324-.811.562-1.461.717-.652.153-1.195.157-1.63.009-.434-.146-.7-.419-.793-.818zm3.774-.886c-.06-.244-.248-.401-.568-.468s-.745-.041-1.272.084c-.528.125-.922.288-1.18.493-.26.204-.361.428-.303.671.057.246.249.403.568.47.323.069.749.041 1.278-.085.526-.124.919-.287 1.177-.491s.355-.428.3-.674z" fill="#fff"/>
          <path d="m75.013 63.329c-.13.23-.303.392-.515.484-.213.092-.448.106-.707.042-.37-.093-.641-.301-.811-.622-.172-.32-.203-.691-.1-1.105.079-.321.213-.595.399-.815.188-.219.354-.31.502-.272.064.016.112.051.142.107.029.055.036.117.02.183-.009.034-.096.152-.26.351-.163.199-.269.396-.317.59-.063.253-.042.475.062.669.103.194.271.318.498.376.188.045.361.032.518-.045.157-.076.278-.206.362-.387.023-.055.052-.128.081-.22.056-.175.152-.245.289-.209.125.031.18.137.155.314-.012.067-.017.126-.019.172-.017.172.018.321.103.451.085.128.204.211.361.251.202.051.381.028.539-.065.157-.093.261-.234.309-.429.044-.176.035-.373-.028-.586-.063-.215-.089-.347-.077-.393.015-.06.046-.104.094-.133.049-.031.101-.038.159-.023.127.032.228.184.296.452.068.27.066.546-.005.836-.083.33-.251.579-.506.748-.256.171-.529.218-.821.145-.222-.056-.391-.154-.508-.295-.12-.14-.19-.334-.215-.572z" fill="#fff"/>
          <path d="m71.583 66.066c.158-.379.462-.604.912-.678s.987.021 1.609.279c.621.259 1.062.575 1.326.947.266.371.319.746.161 1.126-.159.379-.465.604-.917.679-.451.073-.985-.018-1.604-.275-.617-.26-1.061-.574-1.326-.95-.265-.373-.32-.748-.161-1.128zm3.574 1.494c.097-.232.036-.469-.185-.712-.219-.244-.578-.47-1.077-.678-.502-.21-.915-.308-1.245-.292-.328.013-.54.136-.639.368-.097.234-.034.473.187.718.22.243.58.471 1.081.679.499.208.914.306 1.24.29.328-.015.541-.139.638-.373z" fill="#fff"/>
          <path d="m64.252 76.226c.08-.066.145-.1.195-.096.05.002.104.035.161.104.05.061.072.117.066.168-.007.053-.043.106-.107.16l-.292.244.353.422 1.17-.983c.043-.034.088-.047.132-.04.045.008.09.036.132.086l.146.172c.055.066.091.158.104.273.003.021.006.036.007.048l.452 2.687c.011.061.015.104.01.128-.006.023-.021.047-.046.067-.012.01-.029.022-.058.04-.008.004-.016.008-.024.013l-.29.175c-.026.016-.056.02-.089.008-.033-.01-.066-.033-.097-.069l-1.602-1.911-.127.106c-.038.031-.053.068-.048.116.005.046-.007.079-.032.101-.031.028-.071.039-.115.033-.045-.005-.082-.027-.113-.063-.013-.016-.022-.029-.032-.043-.009-.015-.017-.03-.023-.048l-.066-.119c-.037-.069-.056-.126-.051-.166s.031-.081.079-.121l.21-.178-.351-.421-.088.075c-.106.089-.193.139-.254.146-.062.008-.12-.021-.173-.084-.049-.059-.071-.118-.063-.177.01-.059.048-.115.114-.172zm.696 1.382 1.428 1.705-.479-2.501z" fill="#fff"/>
          <path d="m60.87 78.53c.351-.214.729-.218 1.136-.012.407.205.787.596 1.139 1.17.351.573.523 1.088.521 1.544-.004.456-.182.792-.532 1.005-.35.215-.729.219-1.139.015-.41-.206-.789-.594-1.138-1.166-.348-.573-.522-1.088-.52-1.547.006-.458.183-.794.533-1.009zm2.021 3.307c.214-.129.303-.358.268-.685s-.193-.721-.476-1.184-.562-.785-.838-.968c-.273-.18-.519-.207-.734-.074-.214.132-.306.361-.271.688.037.328.196.723.479 1.188.281.461.561.782.834.964.274.18.52.204.738.071z" fill="#fff"/>
          <path d="m49.798 84.98c-.14.062-.271.108-.39.144-.12.033-.236.053-.348.061-.379.029-.706-.081-.978-.329-.272-.246-.422-.564-.449-.957-.029-.415.087-.769.349-1.058.261-.289.61-.451 1.046-.481.365-.025.678.003.93.085.254.081.385.194.396.334.002.058-.017.109-.058.159-.044.046-.096.072-.156.077-.022 0-.154-.033-.393-.102-.237-.067-.455-.094-.653-.081-.291.021-.521.125-.691.313-.169.188-.243.42-.224.696.019.27.12.489.306.656.184.167.406.24.668.224.195-.013.386-.076.566-.188.181-.11.293-.169.33-.171.066-.004.114.017.144.062.031.047.052.133.06.258l.114 1.63c.006.072-.013.124-.055.16-.043.034-.121.057-.231.064l-1.651.116c-.104.008-.185-.009-.239-.048-.056-.039-.086-.102-.092-.187-.007-.081.016-.144.066-.192.052-.049.129-.077.229-.084l1.478-.104z" fill="#fff"/>
          <path d="m44.876 82.354c.409.03.717.251.927.657.209.403.287.943.233 1.615-.054.671-.217 1.188-.487 1.554-.272.367-.612.535-1.02.502-.409-.031-.719-.252-.928-.658-.211-.407-.29-.943-.235-1.612.054-.668.216-1.185.49-1.555.271-.368.613-.538 1.02-.503zm-.309 3.862c.249.02.456-.113.619-.397.162-.284.264-.696.308-1.236.043-.541.008-.965-.108-1.273-.114-.309-.296-.47-.545-.491-.252-.021-.459.112-.621.397-.163.286-.266.7-.31 1.242-.043.539-.006.962.108 1.269.114.304.296.467.549.489z" fill="#fff"/>
          <path d="m32.382 80.752c-.181.069-.353.097-.515.086s-.317-.062-.46-.152c-.293-.181-.473-.445-.541-.793s-.001-.684.199-1.007c.209-.336.481-.552.813-.645.333-.095.655-.045.965.147.365.228.567.556.607.98.04.426-.092.881-.392 1.364-.391.63-.869 1.036-1.431 1.219-.562.182-1.108.106-1.639-.224-.18-.111-.292-.198-.332-.261-.042-.061-.041-.127.004-.198.075-.119.221-.112.44.02.147.089.269.151.366.188.326.125.656.125.986 0 .331-.122.64-.365.93-.724zm.397-.777c.142-.228.198-.451.167-.67-.031-.218-.141-.386-.33-.504-.178-.11-.365-.134-.564-.069-.198.065-.365.208-.5.426-.141.227-.197.446-.167.659.031.216.138.381.323.496.179.11.371.134.572.072.202-.063.368-.199.499-.41z" fill="#fff"/>
          <path d="m29.681 76.07c.311.266.433.625.365 1.075-.067.45-.32.933-.757 1.446-.436.511-.871.834-1.307.972-.434.139-.808.075-1.12-.191-.312-.267-.434-.626-.366-1.08.067-.453.318-.933.753-1.441.436-.51.871-.833 1.308-.972.437-.14.812-.074 1.124.191zm-2.515 2.946c.191.163.436.176.733.04.299-.134.623-.407.974-.816.353-.413.572-.777.66-1.095.087-.316.035-.557-.156-.72-.191-.164-.437-.18-.735-.042-.299.136-.625.41-.978.821-.352.412-.569.776-.656 1.091-.087.317-.034.558.158.721z" fill="#fff"/>
          <path d="m22.117 65.896c.055-.006.092-.003.112.006.021.007.039.032.055.069l.021.052.088.215c.017.039.021.075.015.104-.006.03-.025.05-.053.061-.016.008-.033.014-.049.016-.016.004-.036.007-.059.009l-3.72.139.632 1.537c.096-.031.174-.038.234-.021s.104.062.133.131.032.126.012.173c-.021.048-.067.086-.14.117-.02.006-.035.013-.045.016s-.02.005-.029.007l-.284.081c-.06.018-.112.016-.156-.007-.045-.024-.08-.064-.104-.125l-.821-2c-.025-.059-.029-.107-.014-.146.013-.036.047-.067.102-.089l.103-.044c.025-.008.059-.017.102-.023.044-.004.103-.01.179-.017z" fill="#fff"/>
          <path d="m21.056 62.065c.096.398-.014.76-.333 1.085-.319.327-.806.57-1.46.729-.652.158-1.195.167-1.628.024s-.698-.413-.795-.811c-.097-.399.014-.762.334-1.089.32-.326.805-.569 1.455-.729.651-.158 1.194-.165 1.629-.022s.7.415.798.813zm-3.761.917c.059.242.249.396.57.461.321.066.745.034 1.269-.095.527-.126.919-.295 1.176-.501.256-.205.354-.429.295-.671-.06-.245-.25-.4-.572-.466-.322-.065-.747-.032-1.274.097-.525.126-.916.293-1.17.498-.256.207-.354.432-.294.677z" fill="#fff"/>
          <path d="m18.743 49.581c-.15.182-.317.305-.498.371s-.375.074-.583.024c-.33-.08-.57-.263-.725-.549-.153-.286-.187-.614-.098-.98.087-.361.265-.636.535-.824.271-.189.558-.246.863-.173.228.055.408.153.54.292.132.141.223.329.274.568.138-.193.305-.327.502-.4.196-.074.408-.083.635-.028.35.085.605.273.768.568.162.293.197.633.104 1.017-.094.384-.28.669-.56.854-.28.187-.598.237-.952.15-.216-.052-.395-.154-.536-.31-.14-.155-.23-.349-.269-.58zm-.956-.121c.209.052.397.023.564-.083s.277-.269.329-.485c.053-.219.029-.414-.071-.587-.102-.172-.258-.283-.47-.334-.203-.048-.388-.02-.554.088-.167.106-.276.27-.329.488-.053.219-.03.414.069.584.1.17.254.28.462.329zm1.888.49c.225.054.424.028.598-.079s.29-.278.346-.512c.057-.235.034-.439-.067-.614-.102-.174-.265-.288-.489-.343-.221-.054-.417-.024-.588.088-.172.112-.285.283-.34.511-.055.227-.032.428.067.606.098.178.256.29.473.343z" fill="#fff"/>
          <path d="m22.29 45.664c-.155.381-.457.608-.907.686-.45.077-.986-.013-1.61-.267-.623-.254-1.067-.566-1.335-.936s-.323-.744-.168-1.124.458-.608.909-.686c.452-.078.987.01 1.607.263s1.065.565 1.334.937c.268.372.326.748.17 1.127zm-3.586-1.464c-.094.232-.032.47.19.712.222.241.583.464 1.084.668.503.204.918.298 1.247.282.329-.018.541-.142.635-.375.096-.235.032-.473-.19-.715-.223-.242-.585-.466-1.088-.671-.501-.206-.915-.299-1.243-.281-.328.019-.539.145-.635.38z" fill="#fff"/>
          <path d="m28.893 33.4c.008.19-.018.36-.078.509-.06.147-.154.277-.284.388-.262.223-.568.315-.92.274s-.649-.204-.894-.492c-.257-.302-.38-.626-.371-.972.012-.347.155-.636.43-.872.327-.278.7-.371 1.123-.279.422.092.818.354 1.186.785.483.569.726 1.148.723 1.736-.002.588-.249 1.089-.737 1.506-.154.133-.268.208-.338.228s-.133-.001-.187-.065c-.09-.106-.039-.246.154-.419.128-.116.224-.214.288-.293.222-.272.323-.584.306-.935-.016-.351-.151-.718-.401-1.099zm-.62-.624c-.176-.206-.373-.328-.591-.363-.219-.035-.414.019-.583.162-.161.139-.24.31-.236.517.004.206.089.408.257.604.171.203.365.324.577.361.214.039.403-.013.567-.153.163-.138.244-.313.247-.526.002-.214-.076-.414-.238-.602z" fill="#fff"/>
          <path d="m32.905 33.111c-.349.217-.728.225-1.138.023-.408-.201-.791-.588-1.146-1.161-.356-.571-.533-1.084-.533-1.541.001-.457.175-.793.523-1.01.349-.216.729-.223 1.14-.022.411.202.794.587 1.146 1.156.354.568.531 1.082.531 1.542.001.459-.174.797-.523 1.013zm-2.046-3.292c-.214.132-.3.361-.262.687.038.325.2.718.485 1.177.287.461.568.782.844.961.275.18.521.203.732.071.216-.134.304-.364.265-.691s-.203-.72-.489-1.182c-.285-.459-.565-.778-.842-.957-.273-.177-.518-.199-.733-.066z" fill="#fff"/>
        </g>
        <path d="m46.941 29.092c-.41 0-.735-.192-.978-.579-.242-.387-.363-.917-.365-1.591-.003-.672.116-1.201.357-1.589s.565-.582.975-.583c.412-.001.737.192.98.58.244.387.365.916.368 1.585.001.67-.118 1.2-.359 1.59-.242.391-.567.586-.978.587zm-.009-3.872c-.25 0-.445.149-.584.445-.138.297-.206.715-.204 1.257.001.542.071.962.21 1.26.14.297.335.445.586.445.253 0 .449-.149.587-.448.139-.298.208-.718.207-1.261-.001-.54-.074-.959-.212-1.255-.141-.296-.337-.444-.59-.443z" fill="#fff"/>
      </g>
      <path clip-path="url(#clipPath13095)" d="m102.5093 67.242824-.1573.173369-.3146.330978-.37752-.236413-.2045-.126086-.14157.18913-.25168.362499-.40898-.18913-.22022-.09456-.11011.204891-.22022.394021-.440439-.141848-.220221-.0788-.07865.236413-.173031.409782-.440441-.0788-.23595-.04728-.06292.236413-.11011.441303-.456171-.03152-.235951-.01576-.03146.236412-.04719.457065-.456171.01576-.235951.01576v.236413.457065l-.440441.0788-.23595.04728.03146.236413.04719.457064-.424711.126087-.220221.0788.06292.236413.11011.441304-.408981.18913-.220221.09457.09438.220652.1573.425542-.377521.236413-.20449.126087.12584.220652.22022.394021-.36179.283695-.188761.157608.141571.18913.26741.3625-.29887.330978-.173031.173369.173031.173369.29887.330978-.26741.362499-.141571.18913.188761.157609.36179.283695-.22022.394021-.12584.220652.20449.126087.377521.236412-.1573.425543-.09438.220652.220221.09457.408981.18913-.11011.441304-.06292.236412.220221.07881.424711.126086-.04719.457065-.03146.236412.23595.04728.440441.0788v.457065.236412l.235951.01576.456171.01576.04719.457064.03146.236413.235951-.01576.456171-.03152.11011.441303.06292.236413.23595-.04728.440441-.0788.173031.409782.07865.236413.220221-.07881.440439-.141847.22022.394021.11011.204891.22022-.09457.40898-.18913.25168.362499.14157.18913.2045-.126087.37752-.236412.3146.330977.1573.17337.18876-.157609.34606-.299456.34606.299456.18876.157609.1573-.17337.3146-.330977.37752.236412.20449.126087.14157-.18913.25168-.362499.40898.18913.22022.09457.11011-.204891.22022-.394021.42472.141847.23595.07881.0787-.236413.17303-.409782.44044.0788.23595.04728.0629-.236413.11011-.441303.45617.03152.23595.01576.0315-.236413.0472-.457064.45617-.01576.23595-.01576v-.236412-.457065l.44044-.0788.23595-.04728-.0315-.236412-.0629-.457065.44044-.126086.22022-.07881-.0629-.236412-.11011-.441304.40899-.18913.22022-.09457-.0944-.220652-.1573-.425543.37752-.236412.20449-.126087-.12584-.220652-.22022-.394021.36179-.283695.18876-.157609-.1573-.18913-.26741-.362499.3146-.330978.17303-.173369-.17303-.173369-.3146-.330978.26741-.3625.1573-.18913-.18876-.157608-.36179-.283695.22022-.394021.12584-.220652-.20449-.126087-.37752-.236413.1573-.425542.0944-.220652-.22022-.09457-.40899-.18913.11011-.441304.0629-.236413-.22022-.0788-.44044-.126087.0629-.457064.0315-.236413-.23595-.04728-.44044-.0788v-.457065-.236413l-.23595-.01576-.45617-.01576-.0472-.457065-.0315-.236412-.23595.01576-.45617.03152-.11011-.441303-.0629-.236413-.23595.04728-.44044.0788-.17303-.409782-.0787-.236413-.23595.0788-.42472.141848-.22022-.394021-.11011-.204891-.22022.09456-.40898.18913-.25168-.362499-.14157-.18913-.20449.126086-.37752.236413-.3146-.330978-.1573-.173369-.18876.157608-.34606.299456-.34606-.299456zm.0472.709238.33033.267934.1573.126087.1573-.126087.33033-.267934.28314.299456.14157.157608.18876-.110326.36179-.236412.23595.346738.12584.17337.18876-.09457.37752-.189131.20449.378261.11011.18913.18876-.06304.40899-.126086.1573.394021.0787.18913.20449-.04728.42471-.0788.0944.409782.0472.204891h.22022l.42471-.03152.0472.425543.0157.204891.22022.01576.42471.01576v.425543.220651l.20449.03152.40898.0788-.0472.425543-.0315.204891.20449.06304.39325.126087-.0944.409782-.0629.204891.18876.09456.39325.18913-.1573.37826-.0786.204891.17303.110326.36179.220652-.20449.37826-.11011.18913.17303.126087.33034.283695-.25169.330978-.12584.173369.14157.141848.29888.315217-.29888.315217-.14157.141847.12584.17337.25169.330977-.33034.283695-.17303.126087.11011.18913.20449.378261-.36179.220651-.17303.110326.0786.204891.1573.378261-.39325.18913-.18876.09457.0629.204891.0944.409782-.39325.126086-.20449.06304.0315.204891.0472.425542-.40898.07881-.20449.03152v.220652.425543l-.42471.01576-.22022.01576-.0157.220651-.0472.409782-.42471-.03152h-.22022l-.0472.204891-.0944.409782-.42471-.0788-.20449-.04728-.0787.18913-.14157.394021-.40899-.126087-.20449-.06304-.11011.18913-.20449.37826-.37752-.18913-.18876-.09457-.12584.173369-.23595.346739-.36179-.236413-.18876-.110326-.14157.157609-.28314.299456-.33033-.267935-.1573-.126086-.1573.126086-.33033.267935-.28314-.299456-.1573-.157609-.17303.110326-.3618.236413-.23595-.346739-.12584-.173369-.18876.09457-.37752.18913-.20449-.37826-.11011-.18913-.20449.06304-.408979.126087-.141571-.394021-.07865-.18913-.20449.04728-.424711.0788-.09438-.409782-.04719-.204891h-.22022l-.424711.03152-.04719-.409782-.01573-.220651-.220221-.01576-.424711-.01576v-.425543-.220652l-.20449-.03152-.408981-.07881.04719-.425542.03146-.204891-.20449-.06304-.393251-.126086.09438-.409782.06292-.204891-.18876-.09457-.393251-.18913.1573-.378261.07865-.204891-.17303-.110326-.361791-.220651.204491-.378261.11011-.18913-.17303-.126087-.330331-.283695.25168-.330977.125841-.17337-.141571-.141847-.29887-.315217.29887-.315217.141571-.141848-.125841-.173369-.25168-.330978.330331-.283695.17303-.126087-.11011-.18913-.204491-.37826.361791-.220652.17303-.110326-.07865-.204891-.1573-.37826.393251-.18913.18876-.09456-.06292-.204891-.09438-.409782.393251-.126087.20449-.06304-.03146-.204891-.04719-.425543.408981-.0788.20449-.03152v-.220651-.425543l.424711-.01576.220221-.01576.01573-.204891.04719-.425543.424711.03152h.22022l.04719-.204891.09438-.409782.424711.0788.20449.04728.07865-.18913.141571-.394021.408979.126086.20449.06304.11011-.18913.20449-.378261.37752.189131.18876.09457.12584-.17337.23595-.346738.3618.236412.17303.110326.1573-.157608z" fill="url(#linearGradient13089)" filter="url(#filter13123)" transform="translate(-17.791873 .003719)"/>
      <path d="m85.25 62.539062c-7.286685 0-13.210938 5.861971-13.210938 13.148438s5.924471 13.210938 13.210938 13.210938 13.179688-5.924362 13.179688-13.210938-5.893003-13.148438-13.179688-13.148438zm0 .140626c7.188262 0 13.007812 5.81955 13.007812 13.007812s-5.819439 13.039062-13.007812 13.039062-13.039063-5.850689-13.039062-13.039062c0-7.188373 5.8508-13.007812 13.039062-13.007812z" transform="matrix(.99323114 0 0 .99323114 .57694 .51253)"/>
    </g>
    <g transform="matrix(-1 0 0 1 52.013589 48.548839)">
      <circle cx="86" cy="7.5" filter="url(#filter12955)" opacity=".7" r="4" stroke="#000" stroke-width=".5" transform="matrix(.68983266 0 0 .68983266 -34.749522 10.276259)"/>
      <circle cx="24.575397" cy="15.250004" fill="url(#linearGradient12991)" r="2.758641" stroke-width=".689833"/>
      <path d="m23.703408 13.055695c-.120535.01232-.234951.04442-.337857.105297-.103618.05951-.188229.142171-.258358.241289l2.33992 4.042032c.120535-.01232.234951-.04442.338415-.104892.103618-.05951.188229-.142172.258357-.24129z" fill="url(#linearGradient12993)" stroke-width=".689833"/>
    </g>
    <g transform="matrix(-.68983266 0 0 .68983266 32.611937 103.0001)">
      <circle cx="86" cy="7.5" filter="url(#filter12955)" opacity=".7" r="4" stroke="#000" stroke-width=".5" transform="translate(-78.499 .289925)"/>
      <circle cx="7.5" cy="7.5" fill="url(#linearGradient31135)" r="3.999"/>
      <path d="m4.3192772 8.7642657c.017864.1747309.064386.3405913.152641.489766.086271.1502074.206096.2728616.3497801.3745222l5.8594377-3.3920099c-.017864-.1747309-.064386-.3405913-.152054-.4905757-.086272-.1502074-.206096-.2728616-.34978-.3745222z" fill="url(#linearGradient13049)"/>
    </g>
    <g transform="matrix(-1 0 0 1 125.13858 92.923841)">
      <circle cx="86" cy="7.5" filter="url(#filter12955)" opacity=".7" r="4" stroke="#000" stroke-width=".5" transform="matrix(.68983266 0 0 .68983266 -34.749522 10.276259)"/>
      <circle cx="24.575397" cy="15.250004" fill="url(#linearGradient12991)" r="2.758641" stroke-width=".689833"/>
      <path d="m23.703408 13.055695c-.120535.01232-.234951.04442-.337857.105297-.103618.05951-.188229.142171-.258358.241289l2.33992 4.042032c.120535-.01232.234951-.04442.338415-.104892.103618-.05951.188229-.142172.258357-.24129z" fill="url(#linearGradient12993)" stroke-width=".689833"/>
    </g>
    <g transform="matrix(.68983266 0 0 .68983266 95.388063 58.625098)">
      <circle cx="86" cy="7.5" filter="url(#filter12955)" opacity=".7" r="4" stroke="#000" stroke-width=".5" transform="translate(-78.499 .289925)"/>
      <circle cx="7.5" cy="7.5" fill="url(#linearGradient31135)" r="3.999"/>
      <path d="m4.3192772 8.7642657c.017864.1747309.064386.3405913.152641.489766.086271.1502074.206096.2728616.3497801.3745222l5.8594377-3.3920099c-.017864-.1747309-.064386-.3405913-.152054-.4905757-.086272-.1502074-.206096-.2728616-.34978-.3745222z" fill="url(#linearGradient13049)"/>
    </g>
    <g transform="translate(2.861416 4.17384)">
      <circle cx="86" cy="7.5" filter="url(#filter12955)" opacity=".7" r="4" stroke="#000" stroke-width=".5" transform="matrix(.68983266 0 0 .68983266 -34.749522 10.276259)"/>
      <circle cx="24.575397" cy="15.250004" fill="url(#linearGradient12991)" r="2.758641" stroke-width=".689833"/>
      <path d="m26.769848 16.122136c-.01232.120535-.04442.234951-.105296.337856-.05951.103618-.142172.188229-.24129.258358l-4.042032-2.339919c.01232-.120535.04442-.234951.104892-.338415.05951-.103618.142172-.188229.24129-.258358z" fill="url(#linearGradient12969)" stroke-width=".689833"/>
    </g>
    <g transform="translate(37.923915 4.173843)">
      <circle cx="86" cy="7.5" filter="url(#filter12955)" opacity=".7" r="4" stroke="#000" stroke-width=".5" transform="matrix(.68983266 0 0 .68983266 -34.749522 10.276259)"/>
      <circle cx="24.575397" cy="15.250004" fill="url(#linearGradient12991)" r="2.758641" stroke-width=".689833"/>
      <path d="m23.703408 13.055695c-.120535.01232-.234951.04442-.337857.105297-.103618.05951-.188229.142171-.258358.241289l2.33992 4.042032c.120535-.01232.234951-.04442.338415-.104892.103618-.05951.188229-.142172.258357-.24129z" fill="url(#linearGradient12993)" stroke-width=".689833"/>
    </g>
  </g>
</svg>
