<svg height="256" width="256" xmlns="http://www.w3.org/2000/svg" xmlns:xlink="http://www.w3.org/1999/xlink">
  <defs>
    <filter id="filter3834" color-interpolation-filters="sRGB" height="1.064318" width="1.080929" x="-.040464" y="-.032159">
      <feGaussianBlur stdDeviation="1.50075"/>
    </filter>
    <filter id="filter3826" color-interpolation-filters="sRGB" height="1.044321" width="1.055874" x="-.027937" y="-.02216">
      <feGaussianBlur stdDeviation="1.036"/>
    </filter>
    <linearGradient id="linearGradient4524-4" gradientTransform="matrix(0 -2 2 0 -1.000008 263.01182)" gradientUnits="userSpaceOnUse" x1="107.18471" x2="29.218338" y1="14.134911" y2="109.62513">
      <stop offset="0" stop-color="#2e51d7"/>
      <stop offset="1" stop-color="#1d2d69"/>
    </linearGradient>
    <filter id="filter1164" color-interpolation-filters="sRGB" height="1.096" width="1.090435" x="-.045217" y="-.048">
      <feGaussianBlur stdDeviation=".65000024"/>
    </filter>
    <radialGradient id="radialGradient5988-0" cx="64" cy="64.004021" fx="63.793392" fy="47.274845" gradientTransform="matrix(-.16859038 -3.368421 2.7517692 -.13772678 -38.32647 359.40581)" gradientUnits="userSpaceOnUse" r="47.5">
      <stop offset="0" stop-color="#fff"/>
      <stop offset="1" stop-color="#fff" stop-opacity="0"/>
    </radialGradient>
    <clipPath id="clipPath6093-7">
      <path d="m17.000001 8-.000001 112h61.5c1.675283 0 3.914297-.56468 7-3.6 8.870045-8.72523 16.24047-13.8518 23.49904-21.175957 2.44056-2.462612 3.00096-4.47117 3.00096-6.724043v-80.5z"/>
    </clipPath>
    <filter id="filter6171-8" color-interpolation-filters="sRGB" height="2.02159" width="1.956141" x="-.47807" y="-.510795">
      <feGaussianBlur stdDeviation="10.140743"/>
    </filter>
    <linearGradient id="linearGradient3895-3" gradientTransform="matrix(0 -2.0239716 2.0239716 0 9.025672 256.8029)" gradientUnits="userSpaceOnUse" x1="86.73793" x2="93.189758" y1="93.621468" y2="100.45876">
      <stop offset="0" stop-color="#d5ddfb"/>
      <stop offset=".72337759" stop-color="#4464e6"/>
      <stop offset="1" stop-color="#1532ac"/>
    </linearGradient>
    <linearGradient id="linearGradient1570" gradientUnits="userSpaceOnUse" x1="230.13713848019" x2="44.60022468413" y1="206.29191993555" y2="66.44799543154">
      <stop offset="0" stop-color="#6b81d5"/>
      <stop offset="1" stop-color="#283d8c"/>
    </linearGradient>
    <linearGradient id="linearGradient19348" gradientTransform="matrix(0 -1 -1 0 256 256)" gradientUnits="userSpaceOnUse" x1="40.826466" x2="218.75768" y1="75.148254" y2="178.93289">
      <stop offset="0" stop-color="#233a90"/>
      <stop offset="1" stop-color="#8fa1e2"/>
    </linearGradient>
    <filter id="filter70635" color-interpolation-filters="sRGB" height="1.093194" width="1.09898" x="-.04949" y="-.046597">
      <feGaussianBlur stdDeviation="2.1928774"/>
    </filter>
  </defs>
  <path d="m-128.8111-19.056071v112h56.187504c5.114947-.238308 32.613203-27.078301 32.775-30.612499.08138-25.126708.0375-56.2589983.0375-81.387501z" filter="url(#filter3834)" opacity=".262376" transform="matrix(0 -2 2 0 54.112132 -40.610384)"/>
  <path d="m-128.8111-19.556071v112.2h55.746422c3.098719 0 24.709876-18.512112 30.003672-24.699929 1.602664-1.873324 3.24991-3.03751 3.24991-7.20007v-80.300001z" fill-opacity=".700535" filter="url(#filter3826)" transform="matrix(0 -2 2 0 54.112132 -40.610384)"/>
  <path d="m14.999992 217.01182h223.999998v-111.00001c0-3.35056-1.12936-7.828594-7.2-14.000004-17.45046-17.74009-27.70362-32.48094-42.35192-46.99808-4.92522-4.88112-8.94234-6.00192-13.44808-6.00192h-160.999998z" fill="url(#linearGradient19348)" stroke-width="2"/>
  <path d="m16.999992 214.01182c0 .67968.46923 1 1 1h215.937498c1.64316 0 3-1.35864 3-3v-103.37501c0-.10614.0468-1.62077.0626-3-.0802-3.55533-1.50748-6.263954-3.18656-8.712074-.58206-2.10373-27.23918-33.29967-45.61848-51.54191-2.74524-2.72478-7.89634-4.37092-9.79122-4.37092l-160.403838-.0001c-.64544 0-1 .32644-1 1z" fill="url(#linearGradient4524-4)" stroke-width="2"/>
  <path d="m17 214.01181c0 .67968.46923 1 1 1h215.9375c1.64316 0 2.99902-1.35864 3-3l.0626-105.00001c.00006-.10614-.016-6.54777.0001-7.927-9.00722-13.08194-31.90658-37.2746-49.9102-55.16506-3.31296-2.9537-.74012-.9152-3.2149-2.90782l-165.875-.00012c-.64544 0-1 .32644-1 1z" fill="url(#radialGradient5988-0)" opacity=".15" stroke-width="2"/>
  <path d="m17.001948 41.054697v173.861323h220.107412v-115.342728c-1.34772-2.641117-3.15717-4.679535-5.11327-6.526501v90.763759h-88.4668v9.41211 5.11328 11.46681h-121.416023v-163.634771h167.539063c-1.62592-2.126483-3.4526-3.860919-5.52617-5.113282zm131.638662 147.869153h83.35548v20.8789h-83.35548v-11.46681h17.05273v-5.11328h-17.05273zm40.91017 5.89452v1.91797h29.83592v-1.91797zm-30.68164 7.66992v1.91797h14.49412v-1.91797zm49.85741 0v1.91797h14.49415v-1.91797z" fill="url(#linearGradient1570)" stroke-width="1.91759"/>
  <path d="m-39.811096 59.94691c0 4.46531-3.067448 5.978576-5.549678 7.662246-5.10854 3.46508-13.669156 1.756744-19.450326 1.837764-.081 5.78116 1.723142 12.231893-1.741938 17.340433-1.68367 2.48224-4.847792 5.659577-7.758062 5.659577 2.31803 0 4.74284-1.334761 7.58402-4.084811 9.14197-8.84873 14.36714-11.135349 22.673154-20.297529 1.91895-2.11675 4.24283-3.64188 4.24283-8.11768z" filter="url(#filter1164)" opacity=".4" transform="matrix(0 -2 2 0 54.112132 -40.610384)"/>
  <path clip-path="url(#clipPath6093-7)" d="m114.4 82.502986c0 4.465301-4.99749 12.609952-7.47972 14.293625-5.10854 3.465079-12.739114 1.52536-18.520284 1.60638-.081 5.781159 1.96586 11.304599-1.49922 16.413139-1.68367 2.48224-9.79051 8.68687-12.70078 8.68687-2.091359 1.5337 3.488204 8.21101 6.734971 5.31989 9.501888-8.46107 35.131683-30.022704 43.350823-39.262889 2.04044-2.29392-4.90514-9.844666-9.88579-7.057015z" filter="url(#filter6171-8)" opacity=".277228" transform="matrix(0 -2 2 0 -1.000008 263.01182)"/>
  <path d="m176.00595 39.011806c8.93062 0 12.81992 5.59498 16.18726 10.55944 6.93016 10.21708 6.65072 21.87823 6.81276 33.44057 11.56232.162 19.0092-.33172 29.22628 6.59844 4.96448 3.36734 10.77374 10.581024 10.77374 16.401564 0-4.63606-3.36342-8.887854-8.16962-15.168044-14.60084-19.0787-20.96861-26.40937-38.59506-43.34631-4.12033-3.95915-7.28376-8.48566-16.23536-8.48566z" fill="url(#linearGradient3895-3)"/>
  <path d="m177.42499 38.974306c7.7982.63286 11.80562 7.04582 14.9625 11.7 6.93016 10.21708 4.65046 22.67516 4.8125 34.2375 11.56232.162 20.63292-1.70516 30.85 5.225 4.34392 2.94642 9.3202 8.19891 10.5 13.525004-.7246-3.960924-3.32278-7.769864-7.9375-12.537504-.77706-.67823-1.3579-1.14859-3-2.2125-10.21708-6.93016-16.93144-5.84737-28.49376-6.00937-.162-11.56234.42392-23.43605-6.50624-33.65313-.63138-.93084-2.3755-3.18798-3.2-4.0125-3.07258-3.07258-5.22684-5.80342-11.9875-6.2625zm61.125 64.687504c.0698.31532.0828.62688.125.9375-.0338-.31398-.067-.62088-.125-.9375z" fill="#b9c6f6"/>
  <g transform="matrix(3.0255182 0 0 3.0255182 -2118.7418 -202.41773)">
    <g filter="url(#filter70635)" opacity=".6" transform="matrix(.31862332 0 0 .31862332 699.76298 57.84711)">
      <path d="m105.68242 150.49308 16.9276-21.41018c3.46018-4.36453 5.19029-7.62815 5.19035-9.79088-.00006-.78633-.0984-1.41546-.29491-1.8874h29.54958c-2.24136 1.25835-5.0528 3.91251-8.43431 7.96246-.90445 1.06175-2.49694 3.00812-4.77747 5.83914l-22.17694 27.60321 26.48256 36.45038c1.61208 2.20197 3.65676 4.67918 6.13405 7.43165.66837.7078 1.63173 1.5532 2.89008 2.5362h-30.31634c.23587-.9044.35383-1.7105.35389-2.4183-.00006-2.1626-1.49425-5.2886-4.48257-9.37797l-17.04557-23.23859v23.5335c-.00004 5.4656 1.10095 9.29936 3.30294 11.50136h-27.721163c1.5335-1.5335 2.51652-3.28331 2.94906-5.24935.23591-1.10098.35387-3.16532.35389-6.19303v-64.9383c-.00002-3.02763-.11798-5.09197-.35389-6.19303-.43254-1.96596-1.41556-3.71573-2.94906-5.24933h27.721163c-2.20199 2.20205-3.30298 6.01617-3.30294 11.44236z" fill="#fff"/>
      <path d="m184.89417 140.7022v54.14474c-.00003 2.83111.0786 4.67918.23593 5.54423.31453 1.76944 1.14027 3.38159 2.47721 4.83649h-25.95173c1.3369-1.4549 2.16263-3.06705 2.47721-4.83649.15727-.86505.23591-2.71312.23592-5.54423v-43.88201c-.00001-2.83104-.0787-4.65946-.23592-5.48526-.31458-1.73005-1.12065-3.32254-2.41823-4.77747z" fill="#fff"/>
      <path d="m186.58125 104.23783c0 6.60244-5.36817 11.95472-11.99015 11.95472-6.62197 0-11.99015-5.35228-11.99015-11.95472 0-6.602438 5.36818-11.954798 11.99015-11.954798 6.62198 0 11.99015 5.35236 11.99015 11.954798z" fill="#f70"/>
    </g>
    <g transform="matrix(.31862332 0 0 .31862332 699.76298 57.84711)">
      <path d="m105.68242 150.49308 16.9276-21.41018c3.46018-4.36453 5.19029-7.62815 5.19035-9.79088-.00006-.78633-.0984-1.41546-.29491-1.8874h29.54958c-2.24136 1.25835-5.0528 3.91251-8.43431 7.96246-.90445 1.06175-2.49694 3.00812-4.77747 5.83914l-22.17694 27.60321 26.48256 36.45038c1.61208 2.20197 3.65676 4.67918 6.13405 7.43165.66837.7078 1.63173 1.5532 2.89008 2.5362h-30.31634c.23587-.9044.35383-1.7105.35389-2.4183-.00006-2.1626-1.49425-5.2886-4.48257-9.37797l-17.04557-23.23859v23.5335c-.00004 5.4656 1.10095 9.29936 3.30294 11.50136h-27.721163c1.5335-1.5335 2.51652-3.28331 2.94906-5.24935.23591-1.10098.35387-3.16532.35389-6.19303v-64.9383c-.00002-3.02763-.11798-5.09197-.35389-6.19303-.43254-1.96596-1.41556-3.71573-2.94906-5.24933h27.721163c-2.20199 2.20205-3.30298 6.01617-3.30294 11.44236z" fill="#fff"/>
      <path d="m184.89417 140.7022v54.14474c-.00003 2.83111.0786 4.67918.23593 5.54423.31453 1.76944 1.14027 3.38159 2.47721 4.83649h-25.95173c1.3369-1.4549 2.16263-3.06705 2.47721-4.83649.15727-.86505.23591-2.71312.23592-5.54423v-43.88201c-.00001-2.83104-.0787-4.65946-.23592-5.48526-.31458-1.73005-1.12065-3.32254-2.41823-4.77747z" fill="#fff"/>
      <path d="m186.58125 104.23783c0 6.60244-5.36817 11.95472-11.99015 11.95472-6.62197 0-11.99015-5.35228-11.99015-11.95472 0-6.602438 5.36818-11.954798 11.99015-11.954798 6.62198 0 11.99015 5.35236 11.99015 11.954798z" fill="#f70"/>
    </g>
  </g>
</svg>
