<svg height="256" width="256" xmlns="http://www.w3.org/2000/svg" xmlns:xlink="http://www.w3.org/1999/xlink">
  <defs>
    <filter id="filter3834" color-interpolation-filters="sRGB" height="1.064318" width="1.080929" x="-.040464" y="-.032159">
      <feGaussianBlur stdDeviation="1.50075"/>
    </filter>
    <filter id="filter3826" color-interpolation-filters="sRGB" height="1.044321" width="1.055874" x="-.027937" y="-.02216">
      <feGaussianBlur stdDeviation="1.036"/>
    </filter>
    <linearGradient id="linearGradient4524-4" gradientTransform="matrix(2 0 0 -2 -7.01182 257.00001)" gradientUnits="userSpaceOnUse" x1="72" x2="72" y1="0" y2="116.40091">
      <stop offset="0" stop-color="#eeecec"/>
      <stop offset=".40000001" stop-color="#f4f4f4"/>
      <stop offset="1" stop-color="#f6f5f5"/>
    </linearGradient>
    <filter id="filter1164" color-interpolation-filters="sRGB" height="1.096" width="1.090435" x="-.045217" y="-.048">
      <feGaussianBlur stdDeviation=".65000024"/>
    </filter>
    <radialGradient id="radialGradient5988-0" cx="64" cy="64.004021" fx="63.793392" fy="47.274845" gradientTransform="matrix(3.368421 .16859038 .13772678 -2.7517692 -103.40582 294.32648)" gradientUnits="userSpaceOnUse" r="47.5">
      <stop offset="0" stop-color="#fff"/>
      <stop offset="1" stop-color="#fff" stop-opacity="0"/>
    </radialGradient>
    <clipPath id="clipPath6093-7">
      <path d="m17.000001 8-.000001 112h61.5c1.675283 0 3.914297-.56468 7-3.6 8.870045-8.72523 16.24047-13.8518 23.49904-21.175957 2.44056-2.462612 3.00096-4.47117 3.00096-6.724043v-80.5z"/>
    </clipPath>
    <filter id="filter6171-8" color-interpolation-filters="sRGB" height="2.02159" width="1.956141" x="-.47807" y="-.510795">
      <feGaussianBlur stdDeviation="10.140743"/>
    </filter>
    <linearGradient id="linearGradient3895-3" gradientTransform="matrix(2.0239716 0 0 -2.0239716 -.8029 246.97433)" gradientUnits="userSpaceOnUse" x1="86.73793" x2="93.189758" y1="93.621468" y2="100.45876">
      <stop offset="0" stop-color="#fcfcfc"/>
      <stop offset=".52275378" stop-color="#f8f8f8"/>
      <stop offset=".72337759" stop-color="#f0efef"/>
      <stop offset=".89024991" stop-color="#e3e1e1"/>
      <stop offset="1" stop-color="#cecbcb"/>
    </linearGradient>
    <filter id="filter3536" color-interpolation-filters="sRGB" height="1.067177" width="1.077569" x="-.038785" y="-.033588">
      <feGaussianBlur stdDeviation=".99510159"/>
    </filter>
    <radialGradient id="radialGradient3500" cx="213.03525" cy="108.19457" gradientTransform="matrix(.99999981 .00000011 -.00000013 1.1547005 .000053 -16.699246)" gradientUnits="userSpaceOnUse" r="30.788549">
      <stop offset="0" stop-color="#41d65b"/>
      <stop offset="1" stop-color="#34b94b" stop-opacity=".967587"/>
    </radialGradient>
    <linearGradient id="linearGradient3508" gradientUnits="userSpaceOnUse" x1="231.43256" x2="192.76828" y1="135.27095" y2="80.476173">
      <stop offset="0" stop-color="#77ef91"/>
      <stop offset="1" stop-color="#a6f5b7"/>
    </linearGradient>
    <filter id="filter1389" color-interpolation-filters="sRGB" height="1.114283" width="1.280832" x="-.140416" y="-.057142">
      <feGaussianBlur stdDeviation=".83554686"/>
    </filter>
    <radialGradient id="radialGradient1002" cx="216.74321" cy="97.373405" gradientTransform="matrix(.73240297 .0000001 -.00000011 .84429781 55.796452 25.400104)" gradientUnits="userSpaceOnUse" r="25.875">
      <stop offset="0" stop-color="#b5ffb8"/>
      <stop offset="1" stop-color="#bdffd4"/>
    </radialGradient>
    <linearGradient id="linearGradient1356" gradientUnits="userSpaceOnUse" x1="230.39292303399" x2="196.81705874701" y1="125.58956407125" y2="85.46425214131">
      <stop offset="0" stop-color="#006c11"/>
      <stop offset="1" stop-color="#00a03d"/>
    </linearGradient>
  </defs>
  <path d="m-128.8111-19.056071v112h56.187504c5.114947-.238308 32.613203-27.078301 32.775-30.612499.08138-25.126708.0375-56.2589983.0375-81.387501z" filter="url(#filter3834)" opacity=".262376" transform="matrix(2 0 0 -2 296.61038 201.88787)"/>
  <path d="m-128.8111-19.556071v112.2h55.746422c3.098719 0 24.709876-18.512112 30.003672-24.699929 1.602664-1.873324 3.24991-3.03751 3.24991-7.20007v-80.300001z" fill-opacity=".700535" filter="url(#filter3826)" transform="matrix(2 0 0 -2 296.61038 201.88787)"/>
  <path d="m38.98818 241.00001v-223.999998h111.00001c3.35056 0 7.82859 1.12936 14 7.2 17.74009 17.45046 32.48094 27.703618 46.99808 42.351918 4.88112 4.92522 6.00192 8.94234 6.00192 13.44808v161z" fill="#fff" stroke-width="2"/>
  <path d="m41.98818 239.00001c-.67968 0-1-.46923-1-1v-215.937498c0-1.64316 1.35864-3 3-3h103.37501c.10614 0 1.62077-.0468 3-.0626 3.55533.0802 6.26395 1.50748 8.71207 3.18656 2.10373.58206 33.29967 27.239178 51.54191 45.618478 2.72478 2.74524 4.37092 7.89634 4.37092 9.79122l.0001 160.40384c0 .64544-.32644 1-1 1z" fill="url(#linearGradient4524-4)" stroke-width="2"/>
  <path d="m41.98818 239.00001c-.67968 0-1-.46923-1-1v-215.937498c0-1.64316 1.35864-2.999022 3-3l105.00001-.0626c.10614-.000064 6.54777.016 7.927-.0001 13.08194 9.00722 37.2746 31.906578 55.16506 49.910198 2.9537 3.31296.9152.74012 2.90782 3.2149l.00012 165.875c0 .64544-.32644 1-1 1z" fill="url(#radialGradient5988-0)" opacity=".846535" stroke-width="2"/>
  <g stroke="#b6b6b6" transform="translate(-125 -44.999999)">
    <path d="m293.37695 131h35.62305m-49.62305 0h10.79102m-35.16797 0h21.16797m-38.6582 0h14.39257m-40.12695 0h22.52734m-32.79296 0h7.05859m-15.05859 0h4.79296m-21.30273 0h13.30273m5.86524-12h-19.16797m28.90234 0h-6.52539m23.99414 0h-14.26172m26.79297 0h-9.32421m23.32421 0h-10.79101m23.58984 0h-9.58984m31.58984 0h-18.79297m36.79297 0h-14.79297m22.25977 0h-4.25977m23.0918 0h-15.62305m-27.07031-12h18.69336m-37.22461 0h15.32422m-30.39453 0h11.86328m-32.12891 0h17.0586m-49.98243 0h29.7168m-52.23242 0h19.30859m-5.74804-12h-13.56055m32.35742 0h-15.58984m43.1914 0h-24.39453m31.9961 0h-4.39453m23.99609 0h-16.39453m25.86328 0h-6.26172m29.73047 0h-20.26172m-.6582-12h16.26172m-19.46875 0h-18.12696m-14.26758 0h11.0586m-31.32422 0h17.05859m-23.99414 0h3.72852m-30.66602 0h23.73047m-33.16992 0h6.23242" fill="none" stroke="#b6b6b6" stroke-width="6"/>
    <g transform="matrix(1.7920825 0 0 1.7920825 -131.58768 14.741839)">
      <path d="m245.39234 127.2898-30.78855 17.77578-30.78855-17.77578v-35.551555l30.78855-17.775778 30.78855 17.775778z" fill="#08250d" filter="url(#filter3536)" opacity=".99" stroke="none"/>
      <path d="m243.96761 125.72125-30.78855 17.77578-30.78855-17.77578v-35.551555l30.78855-17.775778 30.78855 17.775778z" fill="url(#radialGradient3500)" stroke="url(#linearGradient3508)" stroke-linejoin="bevel" stroke-opacity=".964706"/>
      <path d="m196.17184 72.991982v-6.46875h8.78125v6.46875zm-.1875 53.187498q-3.125 0-5.3125-.28125v-6.1875l1.59375.125q2.25 0 3.0625-1 .84375-.96875.84375-4.0625v-35.687498h8.78125v37.812498q0 4.46875-2.28125 6.875-2.25 2.40625-6.6875 2.40625z" fill="#e8e8e8" filter="url(#filter1389)" stroke="none" transform="matrix(.73240297 0 0 .73240297 56.803167 37.188073)"/>
      <path d="m242.42184 103.02323q0 4.90625-4.03125 7.71875-4 2.78125-11.09375 2.78125-6.96875 0-10.6875-2.1875-3.6875-2.21875-4.90625-6.875l7.71875-1.15625q.65625 2.40625 2.25 3.40625 1.625 1 5.625 1 3.6875 0 5.375-.9375 1.6875-.9375 1.6875-2.9375 0-1.625-1.375-2.5625-1.34375-.96875-4.59375-1.624998-7.4375-1.46875-10.03125-2.71875-2.59375-1.28125-3.96875-3.28125-1.34375-2.03125-1.34375-4.96875 0-4.84375 3.71875-7.53125 3.75-2.71875 10.59375-2.71875 6.03125 0 9.6875 2.34375 3.6875 2.34375 4.59375 6.78125l-7.78125.8125q-.375-2.0625-1.84375-3.0625-1.46875-1.03125-4.65625-1.03125-3.125 0-4.6875.8125-1.5625.78125-1.5625 2.65625 0 1.46875 1.1875 2.34375 1.21875.84375 4.0625 1.40625 3.96875.8125 7.03125 1.6875 3.09375.84375 4.9375 2.03125 1.875 1.1875 2.96875 3.0625 1.125 1.843748 1.125 4.749998z" fill="#e8e8e8" filter="url(#filter1389)" stroke="none" transform="matrix(.73240297 0 0 .73240297 56.803167 37.188073)"/>
      <path d="m199.47328 89.640891v-4.737731h6.43141v4.737731zm-.13733 38.954679q-2.28876 0-3.89089-.20599v-4.53174l1.16727.0915q1.64791 0 2.24298-.7324.61797-.70952.61797-2.97539v-26.137578h6.43141v27.693988q0 3.27292-1.67079 5.03527-1.64791 1.76234-4.89795 1.76234z" fill="url(#radialGradient1002)" stroke="url(#linearGradient1356)" stroke-width=".732403"/>
      <path d="m233.34692 111.63587q0 3.59335-2.9525 5.65323-2.92961 2.037-8.1251 2.037-5.10393 0-7.82756-1.60213-2.70073-1.62502-3.59335-5.03527l5.65324-.84685q.48064 1.76235 1.6479 2.49475 1.19016.73241 4.11977.73241 2.70074 0 3.93667-.68663 1.23593-.68663 1.23593-2.15144 0-1.19015-1.00706-1.87678-.98416-.70951-3.36447-1.19015-5.44725-1.07572-7.34692-1.99122-1.89967-.93839-2.90672-2.4032-.98417-1.48769-.98417-3.63913 0-3.547574 2.72362-5.515907 2.74651-1.99122 7.7589-1.99122 4.4173 0 7.09515 1.716569 2.70074 1.716569 3.36448 4.966608l-5.69901.59508q-.27465-1.510584-1.35037-2.242987-1.07572-.755291-3.41025-.755291-2.28876 0-3.43314.595078-1.14438.57219-1.14438 1.94545 0 1.07571.86973 1.71656.89261.61797 2.97538 1.02995 2.90673.59507 5.14971 1.23593 2.26587.61796 3.61624 1.48769 1.37326.86973 2.17432 2.24298.82396 1.35037.82396 3.47892z" fill="url(#radialGradient1002)" stroke="url(#linearGradient1356)" stroke-width=".732403"/>
    </g>
  </g>
  <path d="m-39.811096 59.94691c0 4.46531-3.067448 5.978576-5.549678 7.662246-5.10854 3.46508-13.669156 1.756744-19.450326 1.837764-.081 5.78116 1.723142 12.231893-1.741938 17.340433-1.68367 2.48224-4.847792 5.659577-7.758062 5.659577 2.31803 0 4.74284-1.334761 7.58402-4.084811 9.14197-8.84873 14.36714-11.135349 22.673154-20.297529 1.91895-2.11675 4.24283-3.64188 4.24283-8.11768z" filter="url(#filter1164)" opacity=".4" transform="matrix(2 0 0 -2 296.61038 201.88787)"/>
  <path clip-path="url(#clipPath6093-7)" d="m114.4 82.502986c0 4.465301-4.99749 12.609952-7.47972 14.293625-5.10854 3.465079-12.739114 1.52536-18.520284 1.60638-.081 5.781159 1.96586 11.304599-1.49922 16.413139-1.68367 2.48224-9.79051 8.68687-12.70078 8.68687-2.091359 1.5337 3.488204 8.21101 6.734971 5.31989 9.501888-8.46107 35.131683-30.022704 43.350823-39.262889 2.04044-2.29392-4.90514-9.844666-9.88579-7.057015z" filter="url(#filter6171-8)" opacity=".277228" transform="matrix(2 0 0 -2 -7.01182 257.00001)"/>
  <path d="m216.98819 79.99405c0-8.93062-5.59498-12.81992-10.55944-16.18726-10.21708-6.93016-21.87823-6.65072-33.44057-6.81276-.162-11.56232.33172-19.009198-6.59844-29.226278-3.36734-4.96448-10.58102-10.773742-16.40156-10.773742 4.63606 0 8.88785 3.363424 15.16804 8.169622 19.0787 14.60084 26.40937 20.968606 43.34631 38.595058 3.95915 4.12033 8.48566 7.28376 8.48566 16.23536z" fill="url(#linearGradient3895-3)"/>
  <path d="m217.02569 78.57501c-.63286-7.7982-7.04582-11.80562-11.7-14.9625-10.21708-6.93016-22.67516-4.65046-34.2375-4.8125-.162-11.56232 1.70516-20.632918-5.225-30.849998-2.94642-4.34392-8.19891-9.3202-13.525-10.500002 3.96092.724602 7.76986 3.322782 12.5375 7.937502.67823.77706 1.14859 1.3579 2.2125 3 6.93016 10.21708 5.84737 16.931438 6.00937 28.493758 11.56234.162 23.43605-.42392 33.65313 6.50624.93084.63138 3.18798 2.3755 4.0125 3.2 3.07258 3.07258 5.80342 5.22684 6.2625 11.9875zm-64.6875-61.125c-.31532-.0698-.62688-.0828-.9375-.125.31398.0338.62088.067.9375.125z" fill="#fff"/>
</svg>
