<svg height="256" width="256" xmlns="http://www.w3.org/2000/svg" xmlns:xlink="http://www.w3.org/1999/xlink">
  <defs>
    <filter id="filter3834" color-interpolation-filters="sRGB" height="1.064318" width="1.080929" x="-.040464" y="-.032159">
      <feGaussianBlur stdDeviation="1.50075"/>
    </filter>
    <filter id="filter3826" color-interpolation-filters="sRGB" height="1.044321" width="1.055874" x="-.027937" y="-.02216">
      <feGaussianBlur stdDeviation="1.036"/>
    </filter>
    <linearGradient id="linearGradient4524-4" gradientTransform="matrix(2 0 0 -2 -7.01182 257.00001)" gradientUnits="userSpaceOnUse" x1="72" x2="72" y1="0" y2="116.40091">
      <stop offset="0" stop-color="#a3ecb3"/>
      <stop offset="1" stop-color="#e3faea"/>
    </linearGradient>
    <filter id="filter1164" color-interpolation-filters="sRGB" height="1.096" width="1.090435" x="-.045217" y="-.048">
      <feGaussianBlur stdDeviation=".65000024"/>
    </filter>
    <radialGradient id="radialGradient5988-0" cx="64" cy="64.004021" fx="63.793392" fy="47.274845" gradientTransform="matrix(3.368421 .16859038 .13772678 -2.7517692 -103.40582 294.32648)" gradientUnits="userSpaceOnUse" r="47.5">
      <stop offset="0" stop-color="#fff"/>
      <stop offset="1" stop-color="#fff" stop-opacity="0"/>
    </radialGradient>
    <clipPath id="clipPath6093-7">
      <path d="m17.000001 8-.000001 112h61.5c1.675283 0 3.914297-.56468 7-3.6 8.870045-8.72523 16.24047-13.8518 23.49904-21.175957 2.44056-2.462612 3.00096-4.47117 3.00096-6.724043v-80.5z"/>
    </clipPath>
    <filter id="filter6171-8" color-interpolation-filters="sRGB" height="2.02159" width="1.956141" x="-.47807" y="-.510795">
      <feGaussianBlur stdDeviation="10.140743"/>
    </filter>
    <linearGradient id="linearGradient3895-3" gradientTransform="matrix(2.0239716 0 0 -2.0239716 -.8029 246.97433)" gradientUnits="userSpaceOnUse" x1="86.73793" x2="93.189758" y1="93.621468" y2="100.45876">
      <stop offset="0" stop-color="#84e47e"/>
      <stop offset=".72817403" stop-color="#45ca3c"/>
      <stop offset="1" stop-color="#299721"/>
    </linearGradient>
    <linearGradient id="linearGradient3228" gradientUnits="userSpaceOnUse" x1="165.49706" x2="105.91904" y1="239.31187" y2="17.163004">
      <stop offset="0" stop-color="#038c41"/>
      <stop offset="1" stop-color="#3da53f"/>
    </linearGradient>
    <radialGradient id="radialGradient2461" cx="-353.55737" cy="51.665131" gradientTransform="matrix(.61166445 0 0 .66237003 298.19806 26.614436)" gradientUnits="userSpaceOnUse" r="45.995941">
      <stop offset="0" stop-color="#5bd03e"/>
      <stop offset="1" stop-color="#229a3f"/>
    </radialGradient>
    <linearGradient id="linearGradient2469" gradientUnits="userSpaceOnUse" x1="58.55625935981" x2="114.67623409817" y1="32.77588734205" y2="93.57251879225">
      <stop offset="0" stop-color="#dbffe8"/>
      <stop offset="1" stop-color="#9dffb7"/>
    </linearGradient>
    <linearGradient id="p" gradientUnits="userSpaceOnUse" x1="569" x2="569" y1="-1607.644" y2="-1496.6">
      <stop offset="0" stop-color="#18a303"/>
      <stop offset="1" stop-color="#106802"/>
    </linearGradient>
    <linearGradient id="c" gradientTransform="matrix(.1615 0 0 1 530.745 -391)" gradientUnits="userSpaceOnUse" x1="-17" x2="144" xlink:href="#m" y1="-1194.6379" y2="-1194.6379"/>
    <linearGradient id="m">
      <stop offset="0" stop-opacity="0"/>
      <stop offset=".493"/>
      <stop offset="1" stop-opacity="0"/>
    </linearGradient>
    <linearGradient id="e" gradientUnits="userSpaceOnUse" x1="529.25" x2="535.43799" xlink:href="#k" y1="-1569.6379" y2="-1575.826"/>
    <linearGradient id="k">
      <stop offset="0" stop-color="#008000"/>
      <stop offset="1" stop-color="#0f0" stop-opacity="0"/>
    </linearGradient>
    <linearGradient id="d" gradientUnits="userSpaceOnUse" x1="529.25" x2="535.43799" xlink:href="#k" y1="-1586.6379" y2="-1592.826"/>
    <linearGradient id="q" gradientUnits="userSpaceOnUse" x1="-526.00159" x2="-553.89252" y1="-1498.6293" y2="-1526.5201">
      <stop offset="0" stop-color="#125a00"/>
      <stop offset="1" stop-color="#69ce00" stop-opacity="0"/>
    </linearGradient>
    <linearGradient id="r" gradientTransform="matrix(.739 0 0 1 538.565 -303)" gradientUnits="userSpaceOnUse" x1="-17" x2="144" xlink:href="#m" y1="-1194.6379" y2="-1194.6379"/>
    <radialGradient id="s" cx="-1535.304" cy="-853" gradientTransform="matrix(-3.3157 0 0 -4.65 -3490.73 -4550.95)" gradientUnits="userSpaceOnUse" r="10">
      <stop offset="0" stop-color="#fff"/>
      <stop offset="1" stop-color="#f5ffaa" stop-opacity="0"/>
    </radialGradient>
    <linearGradient id="t" gradientTransform="matrix(.4845 0 0 1 583.236 -297)" gradientUnits="userSpaceOnUse" x1="-17" x2="144" xlink:href="#m" y1="-1194.6379" y2="-1194.6379"/>
    <linearGradient id="u" gradientUnits="userSpaceOnUse" x1="652.25" x2="652.25" y1="-1491.6379" y2="-1548.1379">
      <stop offset="0" stop-color="#808080"/>
      <stop offset="1" stop-color="#b3b3b3"/>
    </linearGradient>
    <linearGradient id="v" gradientTransform="matrix(1.8974 0 0 2.6 -777.77 1271.82)" gradientUnits="userSpaceOnUse" x1="714" x2="714" y1="-1063.6379" y2="-1083.6379">
      <stop offset="0" stop-color="#f2f2f2"/>
      <stop offset="1" stop-color="#fff"/>
    </linearGradient>
    <radialGradient id="g" cx="152.33299" cy="-754.638" gradientTransform="matrix(0 .3778 -.665 0 85.14 -1556.34)" gradientUnits="userSpaceOnUse" r="15">
      <stop offset="0" stop-opacity=".502"/>
      <stop offset="1" stop-opacity="0"/>
    </radialGradient>
    <linearGradient id="f" gradientTransform="matrix(.379 0 0 1 589.44 -344)" gradientUnits="userSpaceOnUse" x1="-17" x2="144" xlink:href="#m" y1="-1194.6379" y2="-1194.6379"/>
    <linearGradient id="w" gradientUnits="userSpaceOnUse" x1="650.00659" x2="626.76227" y1="-1494.6907" y2="-1517.9351">
      <stop offset="0"/>
      <stop offset=".455" stop-opacity=".361"/>
      <stop offset="1" stop-opacity="0"/>
    </linearGradient>
    <linearGradient id="x" gradientTransform="matrix(1.7143 0 0 3.3333 -316.43 5092.43)" gradientUnits="userSpaceOnUse" x1="525.63898" x2="525.63898" y1="-1078.644" y2="-1068.787">
      <stop offset="0" stop-color="#63bbee"/>
      <stop offset="1" stop-color="#aadcf7"/>
    </linearGradient>
    <linearGradient id="y" gradientTransform="matrix(1.7143 0 0 4.4444 -298.43 6290.36)" gradientUnits="userSpaceOnUse" x1="525.63898" x2="525.63898" y1="-1078.644" y2="-1068.787">
      <stop offset="0" stop-color="#f09e6f"/>
      <stop offset="1" stop-color="#f9cfb5"/>
    </linearGradient>
    <linearGradient id="z" gradientTransform="matrix(1.7143 0 0 2 -280.43 3654.91)" gradientUnits="userSpaceOnUse" x1="525.63898" x2="525.63898" y1="-1078.644" y2="-1068.787">
      <stop offset="0" stop-color="#f5ce53"/>
      <stop offset="1" stop-color="#fde9a9"/>
    </linearGradient>
    <linearGradient id="A" gradientTransform="matrix(1.7143 0 0 2.889 -262.43 4613.26)" gradientUnits="userSpaceOnUse" x1="525.63898" x2="525.63898" y1="-1078.644" y2="-1068.787">
      <stop offset="0" stop-color="#8ee780"/>
      <stop offset="1" stop-color="#ccf4c6"/>
    </linearGradient>
    <linearGradient id="B" gradientTransform="matrix(.8333 0 0 2.3333 141.167 2160.52)" gradientUnits="userSpaceOnUse" x1="529.25" x2="535" y1="-1568.6379" y2="-1574.6379">
      <stop offset="0" stop-color="#4a00ff"/>
      <stop offset="1" stop-color="#00a0c1" stop-opacity="0"/>
    </linearGradient>
    <linearGradient id="C" gradientTransform="matrix(.8333 0 0 3.1667 159.167 3467.72)" gradientUnits="userSpaceOnUse" x1="529.25" x2="535" y1="-1568.6379" y2="-1574.6379">
      <stop offset="0" stop-color="#800000"/>
      <stop offset="1" stop-color="#ffc600" stop-opacity="0"/>
    </linearGradient>
    <linearGradient id="h" gradientTransform="matrix(.0745 0 0 1 582.267 -334)" gradientUnits="userSpaceOnUse" x1="-17" x2="144" xlink:href="#j" y1="-1194.6379" y2="-1194.6379"/>
    <linearGradient id="j">
      <stop offset="0" stop-color="#fff" stop-opacity="0"/>
      <stop offset=".493" stop-color="#fff"/>
      <stop offset="1" stop-color="#fff" stop-opacity="0"/>
    </linearGradient>
    <linearGradient id="D" gradientTransform="matrix(.4596 0 0 1 584.814 -303)" gradientUnits="userSpaceOnUse" x1="-17" x2="144" xlink:href="#m" y1="-1194.6379" y2="-1194.6379"/>
    <linearGradient id="E" gradientTransform="matrix(.4596 0 0 1 584.814 -300)" gradientUnits="userSpaceOnUse" x1="-17" x2="144" xlink:href="#j" y1="-1194.6379" y2="-1194.6379"/>
    <linearGradient id="F" gradientTransform="matrix(.8333 0 0 2 195.167 1637.64)" gradientUnits="userSpaceOnUse" x1="529.25" x2="535" y1="-1568.6379" y2="-1574.6379">
      <stop offset="0" stop-color="#003362"/>
      <stop offset="1" stop-color="#00ff8c" stop-opacity="0"/>
    </linearGradient>
    <linearGradient id="G" gradientTransform="matrix(.8333 0 0 1.3333 177.167 591.88)" gradientUnits="userSpaceOnUse" x1="529.25" x2="535" y1="-1568.6379" y2="-1574.6379">
      <stop offset="0" stop-color="#f00"/>
      <stop offset="1" stop-color="#d3d300" stop-opacity="0"/>
    </linearGradient>
    <linearGradient id="i" gradientTransform="matrix(.4596 0 0 1 -643.186 2740.28)" gradientUnits="userSpaceOnUse" x1="-17" x2="144" xlink:href="#m" y1="-1194.6379" y2="-1194.6379"/>
  </defs>
  <path d="m-128.8111-19.056071v112h56.187504c5.114947-.238308 32.613203-27.078301 32.775-30.612499.08138-25.126708.0375-56.2589983.0375-81.387501z" filter="url(#filter3834)" opacity=".262376" transform="matrix(2 0 0 -2 296.61038 201.88787)"/>
  <path d="m-128.8111-19.556071v112.2h55.746422c3.098719 0 24.709876-18.512112 30.003672-24.699929 1.602664-1.873324 3.24991-3.03751 3.24991-7.20007v-80.300001z" fill-opacity=".700535" filter="url(#filter3826)" transform="matrix(2 0 0 -2 296.61038 201.88787)"/>
  <path d="m38.98818 241.00001v-223.999998h111.00001c3.35056 0 7.82859 1.12936 14 7.2 17.74009 17.45046 32.48094 27.703618 46.99808 42.351918 4.88112 4.92522 6.00192 8.94234 6.00192 13.44808v161z" fill="url(#linearGradient3228)" stroke-width="2"/>
  <path d="m41.98818 239.00001c-.67968 0-1-.46923-1-1v-215.937498c0-1.64316 1.35864-3 3-3h103.37501c.10614 0 1.62077-.0468 3-.0626 3.55533.0802 6.26395 1.50748 8.71207 3.18656 2.10373.58206 33.29967 27.239178 51.54191 45.618478 2.72478 2.74524 4.37092 7.89634 4.37092 9.79122l.0001 160.40384c0 .64544-.32644 1-1 1z" fill="url(#linearGradient4524-4)" stroke-width="2"/>
  <path d="m41.98818 239.00001c-.67968 0-1-.46923-1-1v-215.937498c0-1.64316 1.35864-2.999022 3-3l105.00001-.0626c.10614-.000064 6.54777.016 7.927-.0001 13.08194 9.00722 37.2746 31.906578 55.16506 49.910198 2.9537 3.31296.9152.74012 2.90782 3.2149l.00012 165.875c0 .64544-.32644 1-1 1z" fill="url(#radialGradient5988-0)" opacity=".846535" stroke-width="2"/>
  <path d="m-39.811096 59.94691c0 4.46531-3.067448 5.978576-5.549678 7.662246-5.10854 3.46508-13.669156 1.756744-19.450326 1.837764-.081 5.78116 1.723142 12.231893-1.741938 17.340433-1.68367 2.48224-4.847792 5.659577-7.758062 5.659577 2.31803 0 4.74284-1.334761 7.58402-4.084811 9.14197-8.84873 14.36714-11.135349 22.673154-20.297529 1.91895-2.11675 4.24283-3.64188 4.24283-8.11768z" filter="url(#filter1164)" opacity=".4" transform="matrix(2 0 0 -2 296.61038 201.88787)"/>
  <path clip-path="url(#clipPath6093-7)" d="m114.4 82.502986c0 4.465301-4.99749 12.609952-7.47972 14.293625-5.10854 3.465079-12.739114 1.52536-18.520284 1.60638-.081 5.781159 1.96586 11.304599-1.49922 16.413139-1.68367 2.48224-9.79051 8.68687-12.70078 8.68687-2.091359 1.5337 3.488204 8.21101 6.734971 5.31989 9.501888-8.46107 35.131683-30.022704 43.350823-39.262889 2.04044-2.29392-4.90514-9.844666-9.88579-7.057015z" filter="url(#filter6171-8)" opacity=".277228" transform="matrix(2 0 0 -2 -7.01182 257.00001)"/>
  <path d="m216.98819 79.99405c0-8.93062-5.59498-12.81992-10.55944-16.18726-10.21708-6.93016-21.87823-6.65072-33.44057-6.81276-.162-11.56232.33172-19.009198-6.59844-29.226278-3.36734-4.96448-10.58102-10.773742-16.40156-10.773742 4.63606 0 8.88785 3.363424 15.16804 8.169622 19.0787 14.60084 26.40937 20.968606 43.34631 38.595058 3.95915 4.12033 8.48566 7.28376 8.48566 16.23536z" fill="url(#linearGradient3895-3)"/>
  <path d="m217.02569 78.57501c-.63286-7.7982-7.04582-11.80562-11.7-14.9625-10.21708-6.93016-22.67516-4.65046-34.2375-4.8125-.162-11.56232 1.70516-20.632918-5.225-30.849998-2.94642-4.34392-8.19891-9.3202-13.525-10.500002 3.96092.724602 7.76986 3.322782 12.5375 7.937502.67823.77706 1.14859 1.3579 2.2125 3 6.93016 10.21708 5.84737 16.931438 6.00937 28.493758 11.56234.162 23.43605-.42392 33.65313 6.50624.93084.63138 3.18798 2.3755 4.0125 3.2 3.07258 3.07258 5.80342 5.22684 6.2625 11.9875zm-64.6875-61.125c-.31532-.0698-.62688-.0828-.9375-.125.31398.0338.62088.067.9375.125z" fill="#d5f4d2"/>
  <path d="m89.042482 84.550401c7.480014 0 11.034058-1.731402 13.947618-9.239431l12.44253 4.865496c-2.32524 5.715064-5.74307 9.973344-10.25349 12.774846-4.48241 2.773489-9.861293 4.16023-16.136658 4.16023-9.525102 0-16.893047-2.68944-22.103834-8.068325-5.182786-5.4069-7.774176-14.12611-7.774176-23.819307 0-9.721212 2.507347-18.35638 7.522035-23.567172 5.014682-5.210794 12.284577-7.81619 21.809691-7.81619 6.947726 0 12.606762 1.40075 16.977102 4.202252 4.37034 2.773487 7.43799 6.86368 9.20293 12.270578l-12.56861 3.77291c-2.396658-5.473854-8.562095-7.639832-13.359287-7.684596-5.603 0-8.218532.567765-11.132098 4.041628-2.885551 3.473862-4.486191 8.085001-4.486191 14.78059 0 6.80765 1.326932 10.677408 4.296526 14.26333 2.997615 3.585924 5.984898 5.063161 11.615912 5.063161z" fill="url(#radialGradient2461)" stroke="url(#linearGradient2469)" stroke-width="1.34472"/>
  <g transform="matrix(.9 0 0 .9 -402.1 1559.9742)">
    <path d="m525-1602.638v105h119v-105z" fill="url(#p)"/>
    <use height="1085" transform="translate(29 51)" width="5033" xlink:href="#Z"/>
    <use height="1085" transform="translate(0 34)" width="5033" xlink:href="#Z"/>
    <path id="W" d="m528-1585.638h26v1h-26z" fill="url(#c)" opacity=".5"/>
    <use height="1085" transform="matrix(0 .6154 -1 0 -999.638 -1925.56)" width="5033" xlink:href="#W"/>
    <path id="X" d="m528-1599.638h26v14h-26z" fill="#92e285"/>
    <use height="1085" transform="translate(29)" width="5033" xlink:href="#X"/>
    <use height="1085" transform="translate(58)" width="5033" xlink:href="#X"/>
    <use height="1085" transform="translate(87)" width="5033" xlink:href="#X"/>
    <path id="Y" d="m529-1598.638h12v12h-12z" fill="url(#d)" opacity=".5" stroke-width="15.997"/>
    <use height="1085" transform="matrix(0 .6154 -1 0 -1057.64 -1925.56)" width="5033" xlink:href="#W"/>
    <g id="Z">
      <use height="1085" transform="translate(0 17)" width="5033" xlink:href="#W"/>
      <path d="m528-1582.638h26v14h-26z" fill="#e0f4dd"/>
      <path d="m529-1581.638h12v12h-12z" fill="url(#e)" opacity=".25" stroke-width="15.997"/>
      <use height="1085" transform="matrix(0 .6154 -1 0 -1057.64 -1908.56)" width="5033" xlink:href="#W"/>
    </g>
    <use height="1085" transform="matrix(0 .6154 -1 0 -1028.64 -1925.56)" width="5033" xlink:href="#W"/>
    <use id="aa" height="1085" transform="translate(29)" width="5033" xlink:href="#Y"/>
    <use id="ab" height="1085" transform="translate(29)" width="5033" xlink:href="#aa"/>
    <use height="1085" transform="matrix(0 .6154 -1 0 -970.638 -1925.56)" width="5033" xlink:href="#W"/>
    <use height="1085" transform="translate(29)" width="5033" xlink:href="#ab"/>
    <use height="1085" transform="translate(29 34)" width="5033" xlink:href="#Z"/>
    <use height="1085" transform="translate(29)" width="5033" xlink:href="#Z"/>
    <use height="1085" transform="translate(58)" width="5033" xlink:href="#Z"/>
    <use height="1085" transform="translate(87)" width="5033" xlink:href="#Z"/>
    <use height="1085" transform="translate(0 17)" width="5033" xlink:href="#Z"/>
    <use height="1085" transform="translate(29 17)" width="5033" xlink:href="#Z"/>
    <use height="1085" transform="translate(58 17)" width="5033" xlink:href="#Z"/>
    <use height="1085" transform="translate(87 17)" width="5033" xlink:href="#Z"/>
    <use height="1085" transform="translate(0 51)" width="5033" xlink:href="#Z"/>
    <use height="1085" transform="translate(0 68)" width="5033" xlink:href="#Z"/>
    <use height="1085" transform="translate(29 68)" width="5033" xlink:href="#Z"/>
    <path d="m-586-1558.638h60v60h-60z" fill="url(#q)" opacity=".5" transform="scale(-1 1)"/>
    <use height="1085" transform="translate(87 34)" width="5033" xlink:href="#Z"/>
    <use height="1085" transform="translate(58 34)" width="5033" xlink:href="#Z"/>
    <path d="m526-1497.638h119v1h-119z" fill="url(#r)" opacity=".5"/>
    <rect fill="url(#s)" height="93" opacity=".6" rx="2" transform="matrix(0 -1 -1 0 0 0)" width="32" x="1567.6379" y="-631"/>
    <path d="m575-1491.638h78v1h-78z" fill="url(#t)" opacity=".25"/>
    <path d="m575-1547.638h78v56h-78z" fill="url(#u)"/>
    <path d="m577-1545.638h74v52h-74z" fill="url(#v)"/>
    <use height="1085" transform="translate(18)" width="5033" xlink:href="#ad"/>
    <use height="1085" transform="translate(36)" width="5033" xlink:href="#ad"/>
    <use height="1085" transform="translate(54)" width="5033" xlink:href="#ad"/>
    <use height="1085" transform="translate(0 30)" width="5033" xlink:href="#ac"/>
    <use height="1085" transform="translate(0 10)" width="5033" xlink:href="#ac"/>
    <path d="m600-1544.638h50v50h-50z" fill="url(#w)" opacity=".15"/>
    <use height="1085" transform="translate(0 20)" width="5033" xlink:href="#ac"/>
    <path d="m580-1529.638h14v32h-14z" fill="#0369a3"/>
    <path id="ac" d="m583-1538.638h61v1h-61z" fill="url(#f)" opacity=".25"/>
    <path d="m598-1539.638h14v42h-14z" fill="#a33e03"/>
    <path d="m616-1517.638h14v20h-14z" fill="#c99c00"/>
    <path d="m634-1525.638h14v28h-14z" fill="#43c330"/>
    <path id="ad" d="m577.57-1503.638h18.86c.315 0 .57 1.508.57 3.382v3.237c0 1.874-.255 3.382-.57 3.382h-18.86c-.315 0-.57-1.508-.57-3.38v-3.238c0-1.874.255-3.382.57-3.382z" fill="url(#g)" opacity=".5"/>
    <path d="m581 1498.638h12v30h-12z" fill="url(#x)" transform="scale(1 -1)"/>
    <path d="m599 1498.638h12v40h-12z" fill="url(#y)" transform="scale(1 -1)"/>
    <path d="m617 1498.638h12v18h-12z" fill="url(#z)" transform="scale(1 -1)"/>
    <path d="m635 1498.638h12v26h-12z" fill="url(#A)" transform="scale(1 -1)"/>
    <path d="m582-1527.638h10v28h-10z" fill="url(#B)" opacity=".35"/>
    <path d="m600-1537.638h10v38h-10z" fill="url(#C)" opacity=".35"/>
    <path id="ae" d="m581-1528.638h12v1h-12z" fill="url(#h)" opacity=".75"/>
    <path d="m577-1497.638h74v1h-74z" fill="url(#D)" opacity=".5"/>
    <path d="m577-1494.638h74v1h-74z" fill="url(#E)" opacity=".75"/>
    <path d="m636-1523.638h10v24h-10z" fill="url(#F)" opacity=".35"/>
    <path d="m618-1515.638h10v16h-10z" fill="url(#G)" opacity=".35"/>
    <path id="af" d="m-651 1545.638h74v1h-74z" fill="url(#i)" opacity=".25" transform="scale(-1)"/>
    <use height="1085" transform="translate(0 53)" width="5033" xlink:href="#af"/>
    <use height="1085" transform="translate(18 -10)" width="5033" xlink:href="#ae"/>
    <use height="1085" transform="translate(36 12)" width="5033" xlink:href="#ae"/>
    <use height="1085" transform="translate(54 4)" width="5033" xlink:href="#ae"/>
  </g>
</svg>
