<svg enable-background="new" height="256pt" viewBox="0 0 256 256" width="256pt" xmlns="http://www.w3.org/2000/svg" xmlns:xlink="http://www.w3.org/1999/xlink">
  <defs>
    <linearGradient id="linearGradient3287">
      <stop offset="0" stop-color="#fff"/>
      <stop offset="1" stop-color="#fff" stop-opacity="0"/>
    </linearGradient>
    <radialGradient id="radialGradient3253" cx="128.00000810243" cy="128.00001759183" gradientUnits="userSpaceOnUse" r="111.9092176348">
      <stop offset="0" stop-color="#fff" stop-opacity="0"/>
      <stop offset=".14503559" stop-color="#fff" stop-opacity="0"/>
      <stop offset=".74211556" stop-color="#7594e1" stop-opacity=".12549"/>
      <stop offset=".95987779" stop-color="#71aad9" stop-opacity=".027451"/>
      <stop offset="1" stop-color="#809dd9" stop-opacity=".231373"/>
    </radialGradient>
    <radialGradient id="radialGradient3277" cx="169.8259560668" cy="82.22110019536" gradientUnits="userSpaceOnUse" r="21.45886759069">
      <stop offset="0" stop-color="#fff" stop-opacity=".982885"/>
      <stop offset=".31072837" stop-color="#fff" stop-opacity=".982885"/>
      <stop offset="1" stop-color="#fff" stop-opacity=".041565"/>
    </radialGradient>
    <radialGradient id="radialGradient3289" cx="215.09282" cy="145.69983" gradientTransform="matrix(5.9761121 -.00000003 .0000004 83.205872 -1129.7392 -12232.154)" gradientUnits="userSpaceOnUse" r=".434313" xlink:href="#linearGradient3287"/>
    <radialGradient id="radialGradient3289-3" cx="215.09282" cy="145.69983" gradientTransform="matrix(4.0532881 -.00000017 .00000026 57.004971 -738.79658 -8163.692)" gradientUnits="userSpaceOnUse" r=".434313" xlink:href="#linearGradient3287"/>
    <radialGradient id="radialGradient887" cx="48.30468" cy="246.27449" gradientTransform="matrix(4.736306 -7.3301222 7.4169585 4.7924146 -1973.0152 -626.56942)" gradientUnits="userSpaceOnUse" r="22.577778">
      <stop offset="0" stop-color="#fff" stop-opacity="0"/>
      <stop offset=".71072531" stop-color="#88bdeb" stop-opacity="0"/>
      <stop offset=".82735944" stop-color="#96c8e7" stop-opacity=".462745"/>
      <stop offset="1" stop-color="#abcdee" stop-opacity=".933333"/>
    </radialGradient>
    <radialGradient id="radialGradient1091" cx="68.62442" cy="248.06133" gradientTransform="matrix(-7.1698478 -4.5765534 4.9990253 -7.8317124 -571.61189 2311.0623)" gradientUnits="userSpaceOnUse" r="22.577778">
      <stop offset="0" stop-color="#97b8e8" stop-opacity="0"/>
      <stop offset=".78329968" stop-color="#6996d6" stop-opacity="0"/>
      <stop offset=".90468949" stop-color="#a9cbe9" stop-opacity=".341176"/>
      <stop offset="1" stop-color="#92c9e8" stop-opacity=".709804"/>
    </radialGradient>
    <linearGradient id="linearGradient8575" gradientUnits="userSpaceOnUse" x1="-68.97435640318" x2="-13.29809764837" y1="29.05097388686" y2="29.05097388686">
      <stop offset="0" stop-color="#fff"/>
      <stop offset=".5" stop-color="#fff" stop-opacity=".498039"/>
      <stop offset="1" stop-opacity=".65704"/>
    </linearGradient>
    <linearGradient id="linearGradient5752-9" gradientTransform="matrix(.511996 0 0 .51000146 -74.500594 .296099)" gradientUnits="userSpaceOnUse" x1="22.196054" x2="51.625942" xlink:href="#linearGradient3287" y1="-3.090547" y2="35.567139"/>
    <filter id="filter6740-7" height="1.099141" width="1.210674" x="-.105337" y="-.04957">
      <feGaussianBlur stdDeviation=".20714785"/>
    </filter>
    <linearGradient id="linearGradient6346-3" gradientTransform="matrix(.2034892 0 0 .33399809 -19.315124 -48.827413)" gradientUnits="userSpaceOnUse" x1="119.58466" x2="-6.848976" xlink:href="#linearGradient3287" y1="1.565353" y2="8.759391"/>
    <linearGradient id="linearGradient6348-2" gradientTransform="matrix(.20348926 0 0 .33399807 47.599202 -6.066704)" gradientUnits="userSpaceOnUse" x1="108.6741" x2="-5.197605" xlink:href="#linearGradient3287" y1="-9.810864" y2="6.688276"/>
    <linearGradient id="linearGradient6350-0" gradientTransform="matrix(.20348925 0 0 .33399802 -11.023175 47.500284)" gradientUnits="userSpaceOnUse" x1="97.525558" x2="37.594189" xlink:href="#linearGradient3287" y1="51.70039" y2="11.567216"/>
    <linearGradient id="linearGradient6038-6" gradientUnits="userSpaceOnUse" x1="38.27116009326" x2="-31.40833415649" y1="37.11721778897" y2="23.79942254273">
      <stop offset="0" stop-color="#07fa2b"/>
      <stop offset="1" stop-color="#25ff55" stop-opacity="0"/>
    </linearGradient>
    <linearGradient id="linearGradient6041-9" gradientUnits="userSpaceOnUse" x1="-62.90047475693" x2="-4.83652177915" y1="40.73854625198" y2="25.18035556612">
      <stop offset="0" stop-color="#04f732"/>
      <stop offset="1" stop-color="#00fd1f" stop-opacity="0"/>
    </linearGradient>
    <filter id="filter4037-7" height="1.011448" width="1.012623" x="-.006311" y="-.005724">
      <feGaussianBlur stdDeviation=".4732792"/>
    </filter>
    <filter id="filter3793-2" height="1.227403" width="1.086992" x="-.043496" y="-.113701">
      <feGaussianBlur stdDeviation="2.881027"/>
    </filter>
    <radialGradient id="radialGradient6897-7" cx="-40.99227422891" cy="28.95287148445" fx="-42.05886868589" fy="50.09499251897" gradientUnits="userSpaceOnUse" r="28.0225108164">
      <stop offset="0" stop-color="#3cc1ee"/>
      <stop offset="1" stop-color="#141b7c"/>
    </radialGradient>
    <filter id="filter3748-3" height="1.035955" width="1.035955" x="-.017978" y="-.017978">
      <feGaussianBlur stdDeviation=".73328974"/>
    </filter>
    <linearGradient id="linearGradient721" gradientUnits="userSpaceOnUse" x1="-1100.7981" x2="-1100.7981" y1="457.99292" y2="379.85718">
      <stop offset="0" stop-color="#4fd6ff"/>
      <stop offset="1" stop-color="#4fd6ff" stop-opacity="0"/>
    </linearGradient>
    <linearGradient id="linearGradient723" gradientUnits="userSpaceOnUse" x1="5.91545" x2="132.87505" xlink:href="#linearGradient3287" y1="310.45167" y2="-163.367864"/>
    <linearGradient id="linearGradient725" gradientUnits="userSpaceOnUse" x1="101.78892" x2="97.069267" xlink:href="#linearGradient3287" y1="43.982601" y2="57.256634"/>
  </defs>
  <g transform="matrix(2.8652828 0 0 2.8652828 246.37881 43.109209)">
    <circle cx="61.183861" cy="58.709656" fill="#11196b" filter="url(#filter3748-3)" r="48.94709" transform="matrix(.5755237 0 0 .5755237 -76.238634 -4.65642)"/>
    <circle cx="-40.992271" cy="28.952875" fill="url(#radialGradient6897-7)" r="28.022511"/>
    <path d="m-1178.1562 380.46875c9.4741 35.01644 41.4689 60.81251 79.4687 60.8125 37.9998 0 70.0258-25.79606 79.5-60.8125-13.4771 30.49971-44.0299 44.13469-79.5 44.13469-35.4701-.00001-65.9917-13.63498-79.4687-44.13469z" fill="url(#linearGradient721)" filter="url(#filter3793-2)" opacity=".520599" transform="matrix(.31351071 0 0 .31351071 303.70893 -82.251409)"/>
    <path d="m99.542723 202.24408c-5.357908-1.49456-2.499707-3.14525-9.645214-3.40686-5.054321-1.0393-7.376654-1.78418-5.565026-3.20584-8.577527-.63748-7.663808-8.93353-1.220231-10.06055 4.445398-3.9862 6.71893-8.00968-1.091909-9.04913-7.394618-2.03608 2.707453-8.15892 4.292304-11.10472 6.021775-2.95061 10.67681-2.60247 16.402363-2.10356 5.10739-.90773 8.81784-.11827 13.40968-.74488 2.87115 1.30924 8.563 3.88014 10.76585 4.25857-3.51221 7.30243 5.6578 3.60055 9.90784 7.33581 4.73295-1.24654 1.64195 6.39886-1.06601 7.83361 3.88815 1.58039-1.50554 7.88518-3.30662 10.84439-7.32018 4.51699-16.38986 3.98079-24.72715 4.75325-5.82192-.40278-4.62337 4.89667-8.155877 4.64991zm84.359227-43.59523c2.68483-9.15519 7.82688-17.3614 10.4689-26.50273 3.59576-7.89414 2.39244-17.18295 5.72856-25.32622 2.28817-12.457748-3.20242-24.671161-5.6566-36.708964 5.44067 7.221282 6.44582 16.388673 7.25021 25.218768 1.4086 22.337466-3.48992 46.245726-17.86048 63.901066 0 0-.22459.10123-.22459.10123s.294-.68315.294-.68315zm-134.369397-15.3842c-5.071904-1.97339-10.69377-9.02127-2.34634-3.89452 2.531549-.008 8.040146 3.87504 2.34634 3.89452zm-9.85711-4.853c-6.422934-1.34628-1.555623-8.00043.4504-2.28389-1.117084.99401 3.052736 4.59222-.4504 2.28389zm-2.5303-8.2374c-.933456-3.83036 1.254933 1.45682 0 0zm32.03176-.27512c-6.351418-6.61187 7.843039-3.30859 0 0zm120.206177-2.27521c1.09012-5.96007 3.30635-18.66413 5.0851-20.24976.68679 5.47248-.0477 19.55528-5.0851 20.24976zm-122.523707-5.61408c-6.880972-2.57003-13.70891-11.89966-12.652119-20.21025 2.156853-7.078912 7.339818-12.722521 8.176419-20.457113 2.929632-1.993711 2.402096-11.248623 4.400274-3.008106-1.465488 9.86358 9.462241 5.829747 9.653216-.573475-4.086969-3.796205 5.841039-4.96364 8.672916-2.85228 1.00502 7.703452 6.583326-1.804597 9.698999 4.036463 1.799721 3.352457 3.480629.953894 6.056212 6.170698 6.00904 2.17261 15.46313 4.275018 10.96259 12.235079-3.42839 4.653404-.0709 18.467454-8.71141 12.957924-6.995892-.12102-14.485668-7.37449-21.213185-1.31474-.744684 6.04389-2.607723 2.87326-5.295342 1.19386.829135 2.81246-.929845 12.65946-7.233478 10.42619-.759467.74941-.924869 2.59447-2.515092 1.39575zm10.82926-8.29111c.980946-.73352 1.316746 1.145 0 0zm-55.73579-8.97933c.303655-1.88427 1.327577.64614 0 0zm14.61548-2.58321c.663845-3.773041.718695.56126 0 0zm1.77398-21.445174c.945069-1.589256 1.520393-.07348 0 0zm14.91839-4.64709c4.278644-6.523247 5.374756-11.986945 14.540987-15.515494 4.447743-4.22176 8.156853 1.682598 12.514018-1.535465.314341 2.159423-11.172714 3.422659-9.550605 8.972159 3.305371-.003-7.255298 5.588256-7.5339 2.21888-4.301455-2.816122-6.489614 7.332177-9.9705 5.85992zm-8.57811-3.25257c1.264981-1.64731-.457042 1.502152 0 0zm38.87943-.11229c1.328923-.409383.663153.628653 0 0zm-33.23944-3.40573c-2.506395-1.556365 9.550441-.634327 1.21933.73602 0 0-1.21933-.73602-1.21933-.73602zm44.06063-.25666c-7.016475-2.237409-.06748-2.617272 1.55188.52266 0 0-.415134.08838-.415134.08838s-1.136746-.611044-1.136746-.611044zm7.129827.26665c2.62489-2.705947 2.18944.04428 0 0zm93.02731-2.07151c-2.80041-6.834687-9.22903-13.864446-11.18208-19.883383 6.41255 5.803402 9.86359 14.262998 12.54025 22.319953 0 0-.4569-.715744-.4569-.715744s-.90127-1.720826-.90127-1.720826zm-88.15415-.09026c2.28759-1.320979.93187 1.451171 0 0zm1.98538-.20178c.55001-1.386398.9297 1.827716 0 0zm-7.49026-.18809c3.37934-.619385-.2414 1.34371 0 0zm3.61727.17178c1.32895-.409433.66316.628656 0 0zm5.8486-.15864c.74081-1.124514 1.89177.657328 0 0zm1.99449-.42643c3.45884-1.628278 11.53139-2.869934 13.79843-1.05021-3.93998 1.421467-10.00781 1.815303-13.79843 1.05021zm1.18132-1.58079c1.32893-.409407.66314.628658 0 0zm13.92226-1.13713c-1.97026-5.400444 3.84382-7.996417 6.91654-10.21234 2.45987-2.473174 13.13915-5.493024 6.26119-.82384-5.01201 2.847426-6.5519 10.739099-13.17773 11.03618zm-25.44202-3.78867c.58182-6.676819-5.955842 5.954162-2.656067-2.43659.849097-2.830752-3.083367-2.192301 2.208787-2.10888 4.66482-2.814919.75569 12.349305.44728 4.54547zm-17.817047-.06484c2.650812-2.161241 6.489125-.770421.71853-.20406 0 0-.71853.20406-.71853.20406zm26.080497-.56161c-2.21666-4.947158-6.89579-7.161341-3.24006-11.336228-5.52762-2.906412 2.52462-5.831536 4.56036-1.130002 4.51538 4.279579 13.38697 4.778489 7.04484 11.670763-2.86129-.329452-6.06805 1.050168-8.36514.795467zm-19.943897.03336c1.820415-2.397722 1.639131 1.769027 0 0zm32.487797-.19781c.68971-1.284887.97102.642781 0 0zm2.52682.01732c1.08782-1.190881 1.1002.490052 0 0zm-46.917477-1.75325c4.1703-5.635667 7.200117 2.445961 0 0zm48.000417.67034c1.48745-1.372686 1.32171.723544 0 0zm38.32632-2.85947c-2.809-9.15008 4.77502 1.961867 0 0zm3.73923-1.66833c-3.32588-8.087581-7.67095-14.857775-14.98895-20.198565-4.22838-4.92692-10.41003-3.984908-10.4607 2.848715-8.50707-6.10369-1.89035 9.980074-7.63093 12.48334-2.18734 7.724147-8.57769 2.451549-2.56449-1.74822 6.55462-.08092 4.94191-11.914764-.19601-8.622173-4.73427 4.373904-7.0409 3.686481-11.62646-.992565-1.29434-5.176257 9.81321-8.145178.7533-11.001923-5.19478.651354-11.87242-2.554904-17.66643-4.953901-2.53041-1.919312-3.88875-4.18566-2.95324-4.807578-1.351276-.384769 4.19206-4.301922-.0276-5.209658 10.47208-.536764-4.983541-3.5416124-7.312537-.07739-1.711696 4.329783-6.576419 1.02904-1.423473-1.3079002-2.501135-1.2618409-17.471341-1.0918742-8.571455-3.9745912 28.918385-6.37913055 60.358835 2.300203 82.841485 21.3859264 5.44421 4.933016 12.49795 11.026513 15.28031 16.946353-3.36831-3.02683-10.53218-6.575169-8.60064-2.229793-6.75958-8.261934 2.1471 10.388865-4.31933 12.226448 0 0-.53292-.766525-.53292-.766525zm-80.535227-.77709c.828754-1.487422 1.928587 2.196948 0 0zm14.284317.34059c-4.083388.759904-13.42521-2.625511-4.515833-.766469.888218-1.87627 6.307023 1.146031 4.515833.766469zm-13.115437-.91009c-1.108554-1.805271 1.428843.368217 0 0zm93.927907-6.88862c-1.20748-1.723401 2.1964 2.126855 0 0zm-89.988677-.97833c-3.946259-2.015758 2.472421-6.181098 2.26714.16612-.316122-.409115-2.912423 1.553978-2.26714-.16612zm5.45919-1.39757c-6.153677-1.725093 1.603097-1.286223 0 0zm-1.33665-2.87479c-1.299407-3.851049 2.182149.905026 0 0zm.56683-2.01804c1.322884-2.043119 1.835768 1.373885 0 0zm-4.23667-.73302c2.819472-3.475402-.169243 2.185428 0 0zm6.640367-1.54156c1.63908-1.969887.213 1.514873 0 0zm-3.663967-.80468c.382919-1.626164.197641 1.33835 0 0zm1.15219-.78963c1.328908-.409379.663147.628647 0 0zm2.545647-.81606c-3.551736-4.048869 2.3793-6.13854 2.03444-.761229-1.09236.151384-1.82176 3.312078-2.03444.761229zm18.76544-4.08969c-3.48097-3.146647 5.38991 1.089821 0 0zm-18.35095-5.85833c-1.256086-5.113735 3.62335 3.26294 0 0zm-14.855877-7.28962c.911983-3.205199 2.362378 1.268548 0 0zm-6.48045-1.03832c-2.905168 1.494561-8.269672-2.285127-3.21312-2.96462-.728229 1.722457 7.556137 2.343417 3.21312 2.96462zm4.20038.3802c.689712-1.284887.970969.64281 0 0zm-1.34615-.41988c1.32892-.409395.663174.628679 0 0zm.35033-.87691c4.864157-.341334 2.105212.753244-1.065517.247681 0 0 1.065517-.247681 1.065517-.247681zm-9.36066-3.27179c6.596363-2.1450826-2.041765 1.459611 0 0z" fill="url(#linearGradient723)" filter="url(#filter4037-7)" opacity=".64794" transform="matrix(.27307225 0 0 .27307225 -69.30271 .739212)"/>
    <path d="m-44.189548 53.708323c-.273949-.09705-.678082-.204425-.753972-.512985.32448-.187283.02529-.670978-.275535-.707893-.285953-.220884-.228983-.67977-.01842-.941808.29985-.336603.08196-.755668.06232-1.140759-.000164-.383177.181179-.74028.166952-1.128133.02072-.599056.07507-1.226396-.129471-1.801564-.216675-.44093-.727919-.590674-1.131075-.811971-.509545-.262589-1.051798-.50531-1.459325-.91811-.108027-.321117-.313638-.600636-.527466-.866005-.527591-.729173-.828405-1.629264-1.52194-2.232766-.290558-.280553-.51876-.865973.01826-1.010647.289765-.115874.30422-.532736-.065-.480663-.375461-.309359.153716-.69868.164809-1.043906.161225-.241324.634036-.195657.65595-.595725.219921-.149101.746146-.351346.635262-.66901-.175801-.425675.01119-.936635-.250813-1.341908-.217392-.302086-.0947-.769483-.56359-.869982-.222787-.101023-.392495.202983-.568026.270425.103941.177882-.03944.479756-.210929.227304-.000397-.229537-.295041-.197408-.403682-.41746-.330225-.105293-.565239-.383855-.808986-.619752-.185778-.07276-.312187-.615066-.468511-.408117.0655.263126-.328463-.24506-.236624-.404355-.08399-.451797-.461048-.773321-.577262-1.210463-.300061-.109977-.617221-.242136-.876087-.456496-.290238-.177792-.620425-.303197-.795273-.619181-.267458-.340148-.434294-.786799-.817255-1.017995-.336977-.07655-.746865.113853-.985254-.256193-.60538-.606409-1.236992-1.195232-1.760476-1.876034-.179373-.289123-.400351-.585742-.438705-.93182.07344-.35892.234405-.715243.15124-1.091223-.08789-.531689-.258435-1.046467-.350978-1.577179-.212763-.407231-.145221-.881491-.251146-1.317913-.126598-.765025-.01797-1.550411-.17214-2.311289-.216871-.471972-.341815.340505-.321465.539147-.05282 1.019283-.102107 2.04484-.02507 3.063827.08684.119136.160833.569841.03596.531857-.182097-.430157-.343158-.898956-.246806-1.370909.03059-.396161-.181041-.749586-.252247-1.126815.204177-.186399.333752-.440066.229164-.745668-.117589-.871728.285364-1.728359.12773-2.596311-.20424-.359107-.185999-.713838-.08016-1.095098-.0061-.349891.152-.600088.255684-.879157.103396-.3277.08868-.697564.274183-1.013411.264202-.671907.786276-1.188753 1.247625-1.727629.157096-.230219.558061-.521466.664759-.598843.06986-.24425.204196-.806007.501464-.746442.169721.202107-.401564.503551.02498.355106.403397-.262481.490232-.802164.496713-1.249534-.03575-.361025.08864-.702274.286501-.997162.07156-.346319.343997-.561991.512495-.884218.262465-.186922.259629-.520127.476719-.679004.209118-.333108.451372-.641913.662899-.973437.18875-.222927.198794-.39793-.124554-.316173.01395-.2549831.337526-.320401.313669-.519477.137836-.3360618-.06364-.8109799.289787-1.0916943.187601-.1772701.06324-.3937344-.158359-.2054728-.376774.1601211-.361516-.3596161.01545-.2580029.174383.1540454.375052-.064979.538096-.1565902.20173-.1013269-.100475-.032349-.180301-.038525-.35941.032035-.74298.019394-1.065935.1913713-.228221.031949-.902106-.084349-.837738-.22998.31015.02037.928312.0728.99089-.3050226.148952-.2564325.221552-.4667723.539098-.5625353.19303-.3109415.591625-.4504838.906874-.6326923.368577-.1768698.594768.4127677.939688.040877.196833-.2617902.373951-.6567826.765355-.6637795.08114.1360016-.341976.595101.03788.5002508.322352-.2212662.593298-.6217086 1.020451-.6192991.188018.1401559.748361.1811348.687926.4326134-.31119.3990961-.388774.9148926-.497939 1.3939213-.172051.174744-.326304.7866491.114928.5961279.131873.00453-.06033.2658464.181321.2108396.172994.05304.619735.010993.341806.2706645-.150898.3785978.531293.1436298.373241.523807.03238.2293868.45455.6930845-.04292.6110181-.302426.2908525.585895.3558104.422885.7282601-.01799.487924.265616-.131203.472131-.132034.382989.0255.463243.562068.872987.597613.178372.09814.393388.185174.274736-.111199.236669-.181926-.04119.686422.231425.334292.193982-.147149.750168-.282146.572352-.660404-.140734-.258092.386496-.6644181.55643-.5028673-.04759.3621393-.256191.7013243-.214567 1.0798283.03304.265293.400931-.33843.31314.0765-.134345.120095-.314267.588945.04012.43694.322231-.136857.503857-.495205.712674-.684591.296029.08947.317471.41104.118168.590856.06981.390663-.34267.567086-.667229.469938-.157522-.02186-.391718-.06115-.353235.146611-.242773.178485-.516808-.09839-.69215-.145601-.109818.287692.543804.4066.101227.59817-.208735.111003-.453162.03352-.642392.143903-.116123-.0834-.574135-.460884-.327308-.08326.270467.161016.200781.409925-.11511.319343-.307112.146073-.632865.298974-.861703.559402-.159512.236385-.506531.467911-.48224.755713.411152.157048.0035.602687.09505.855617.370385-.08466.732928.306116.850789.628607.20352.369046.691668.438278.923105.724827-.01823.40565-.06683.831031-.159967 1.214927.371258-.051.06979.577968.467902.467265.144163-.163741.675997-.200513.511307-.573382-.0038-.33522-.07599-.836051.332587-.964067.374097-.106088.643916-.416318.609224-.815848.0894-.313106-.195882-.552692-.22901-.789744.3375-.06197.510225-.305295.452636-.650273.09201-.246207.101071-.701954.47884-.528654.416444-.01875.702591.210547.894705.547823.198217.06022.519781.516115.110508.441918-.402347-.13376.557866.382593.03126.477676.01781.179763.530863-.06942.339903.28218-.385594.17315.286218.05458.405529-.02909.311198-.117015.381561-.463541.507227-.733209.09004.216739.185267.438247.349864.606597-.128241.30809.404895.52727.299114.805948-.346035.198378.325586.412721.420071.594493.14658.271836.50241.173567.675326.356161-.257496.09074-.582915.328658-.889786.27979.02785.440221.54415.01811.783013-.04447.224742-.06649.120883.292693.377547.188971.269058.15115.343154.68425-.0041.797456-.423903.04343-.643102.495614-1.056384.539636-.590931.06158-1.193628-.04893-1.779222.05845-.207008.308801-.594942.347859-.847349.619458-.147315.161508-.580084.531725-.506802.639712.304615-.262015.592601-.56208.98951-.686849.259895-.108966 1.013248-.340265.917043.147021-.114892.290082-.848862-.09068-.460803.275322.474448.0078.175577.669544.599106.836146.127392.204339.806096.04345.615768.347177-.300175.183036-.699135.218402-.924066.516783-.327194.337982-.589983-.245404-.170195-.348264.123282-.128794.615764-.134036.569412-.274313-.229788-.06627-.352356-.270843-.577509-.02894-.290203.08335-.538612.12333-.751734.33535-.217461.07861-.441092.01565-.565137.222226-.430339.003-.739113.555931-.537826.929419-.233778.178549-.615535.05916-.895697.190582-.469876.03833-.375433.552091-.632322.812197-.232992-.0376-.61854-.321072-.708081.103984-.03603.266192-.526883-.05623-.212701.243949.234699.239268.02847.596196.244189.814818-.01714.15662-.507386.22582-.136882.33246.262755.08301-.105674.179149-.209129.136411.0085.462153-.557207.370517-.835356.616508-.285988.258308-.678219.32198-.956488.565343-.261084.292029-.494725.68139-.371268 1.086806.07687.641466.295012 1.322757.04793 1.951992-.287733.296265-.49396-.399788-.49181-.640244-.249839-.267327-.14157-.642025-.158458-.975873.0016-.405305-.302947-.756272-.720014-.733983-.290496-.220856-.563501-.466723-.945035-.476367.05949-.254712-.01374-.159975-.18114-.08742-.212628.06551-.677578-.181685-.742708.01778.419047.130026.01523.509955-.240137.284773-.201076-.299595-.542162-.338579-.84079-.492072-.338913-.163153-.586741.0762-.832303.231704-.391041-.12695-.723492.26689-.820357.608896.05271.427522-.316888.680302-.425047 1.055719-.07491.341014-.192188.683353-.211853 1.029422.06851.575874.137597 1.174475.407614 1.696019.175713.343948.587887.411652.936716.396923.242172-.07413.29034.173805.440168.196165.349133-.176141.524136-.552821.676941-.892419.233577-.254119.718908-.165856.99331-.02466.452549-.09329.191765.470556.02012.654357-.09575.273158-.200892.694835-.399634.488095-.02659.384406-.123189.772716-.378074 1.072775-.05903.340632.566915.289568.801367.384532.429857.07936.893614.18869 1.21439.505007.122447.330129-.06376.684895-.110294 1.018898-.11015.433091-.213906.946046.106496 1.321202.223093.279672.390924.694319.821286.636696.315117.09277.585651-.145262.870941-.08702.376845.129374.618265.455996.890409.72263.124007-.131188.350893-.401539.564359-.54207.05712-.321752.29211-.614434.637233-.469985.178493-.229404.561935-.138184.813667-.264477.136203-.04072.564817-.380013.44037-.04036-.296423.171003-.02103.605808-.276788.85109-.01371.265557.423256.688922.432898.195443-.08529-.295294-.180991-.690468.264821-.714052.336373-.07558.886032-.04968 1.01727.326911.327332.171333.794062-.05358 1.064657.262662.318619.169865.717801.0087 1.023363-.126801.361022.100676.629558.431575 1.010047.517308.246949.08959.03346.549489.392044.435901.356246.08652.760436.27133.892363.639617.316695.113514.529886.476546.905346.443619.67687-.0083 1.403924.02471 1.993101.395282.297262.176112.541252.37896.603273.746739.0831.293005.559959.46787.184696.760349-.158436.220765-.683051.55944-.342631.817099.325784-.07886.105508.287769.07831.262686.259837-.02749.598451-.04284.782527.05367.255929-.200885.451432-.465169.673417-.700961.412523.09421.826553.189124 1.244375.250121.191178.110887.149149.576811.456642.320943.384188-.10686.783378.04635 1.173469-.03926.366073-.09919.759363-.09481 1.083943.125868.357687.198413.758867.359195 1.175189.296582.318423.09128.306769.560096.253804.833673-.215037.717214-.84854 1.185108-1.313061 1.737481-.259982.32125-.66762.623631-.633301 1.081551-.02246.428154-.18338.837999-.435277 1.180216-.09337.402214-.448037.673621-.708924.97331-.258202.27292-.568698.527047-.958258.560175-.759854.211979-1.503314.523912-2.15379.973537-.298971.24506-.130098.774994-.590897.90772-.39094.294957-.716626.685212-1.187751.862261-.340323.123537-.579919.456583-.951989.48636-.46739.06376-.947465.05873-1.407422-.03894-.175062.207907.624101.264596.39516.584856-.377148.290827-.889627.230928-1.338543.267369-.247457.000265-.578474.0053-.57794.318781-.281683.06556-.576932-.03337-.863618-.04962-.08711.04835.05729.297053.03557.418994-.0019.262157-.806699.075-.487273.37791.170061.0417.515816.1139.135554.151066-.389993-.01503-.657796.320141-1.042974.211701-.137856-.0191-.27423-.04797-.408837-.08314zm-1.176816-.996138c.05833-.392573.282009.341852 0 0zm9.071398-11.446115c-.06705-.412504.540351-.286245.810311-.288584.131508.312454-.380035.545637-.651354.523391-.13066.0013-.167005-.127077-.158957-.234807zm19.287083-2.247829c.408966-1.27091 1.00616-2.498871 1.165031-3.83884.03366-.441801.112313-.896286.01437-1.33364-.166222-.314063-.354581-.63577-.298971-1.00911-.0027-.574617.111167-1.154435.02746-1.725583-.161928-.445048-.452133-.08247-.548923.180908-.06046.05249-.142076.341477-.186579.215535-.07513-.175609-.142378-.537427-.401434-.407275-.41412.33782-.640564.844949-.924967 1.286721-.17331.298445-.391832.599289-.734783.709377-.448291.255839-.717716.71619-1.1186 1.027914-.368435.02783-.713962-.175691-1.053473-.298804-.305892-.122944-.652052-.276421-.739706-.627616-.154847-.22951-.443973-.293851-.60221-.517712-.329414.000029-.149035-.301088-.04537-.3565-.26879.132747-.752088.170294-.672734-.302485-.02867-.335137-.270722-.60838-.189913-.964599.0057-.523724.125725-1.088885-.15294-1.56777-.08502-.325824-.1104-.676543-.438216-.851353-.06775-.420473.03804-.848963.05596-1.272011.0809-.708564.0691-1.435753.262948-2.126363.156578-.31291.357053-.615238.373301-.979435.07732-.343429-.04209-.667858-.155832-.984408-.09502-.469035-.112755-.985973.121756-1.418366.153585-.334133-.191185-.736934-.06712-1.022889.365845.08752.809707-.144378.964327-.483693.07497-.455953.20932-.90814.468286-1.296848.217379-.244545.418243-.437671.556993-.733499.228592-.146452.250661-.728571.57771-.333875.245459.231078.403132.543737.446093.877317.22153.451855.714303.01402.967261-.143938.286829.239312.576487.03332.860205-.07758.167048-.413367-.327826-.707943-.323969-1.115656-.05264-.211293-.06413-.470537.21022-.428688.458123-.273727.409757-.871026.365307-1.329312-.06763-.651663-.526312-1.160435-.8548-1.698922-.210357-.29006-.397597-.60906-.673573-.842278-.142169.187479.295732.615288.04649.886971.131064.161557.184012.566352-.14306.399935-.317569-.195332-.626915-.442857-.817256-.76801-.01627-.388986-.22498-.688711-.286176-1.064182-.166386-.334248-.28856-.675489-.116663-1.024459-.04406-.411892-.317145-.777313-.645766-1.015202-.337404-.02694-.724572.06466-.912352-.336305-.112331-.09583-.379185-.5267058-.456271-.3937226.130702.3713736.343212.7337456.640548.9943526.338154-.06845.277493.587146.0637.232642-.206391-.223992-.458888.01099-.23825.227658.135597.347448.473218.485209.595832.81979.280439.358807.571473.72336.937273.998528.404955.163802.100375.653539.139832.936941.07812.394095.354584.795031.761167.892646-.07946.09332-.207603.414971-.4405.202669-.292608-.132431-.534442-.348482-.744932-.586247-.357023-.250121-.840922-.05929-1.215162-.275729-.225507-.127118-.792784-.155573-.537176.243145.176096.37722.59803.375799.914713.541907.292364.191071.65578.05713.963197.146229-.131292.352002.371744.44407.416615.700801-.322397-.134282-.664993-.25672-1.02472-.269257-.363763-.03433-.709478-.157241-1.027229-.33276-.505746-.179705-.281451.505309-.323162.774613-.185299.183677-.570492.404654-.29554.728203.350348.375813.134162.896179.210455 1.346162-.0069.371532.390035.56059.403333.92504.0581.376778-.04247.794064-.342439 1.046872-.201666.121506-.05503.653755-.381413.367926-.243446-.265344-.482264-.06087-.698704.08047-.138628-.311085-.429979-.447002-.564851-.737559-.176157-.522301-.396954-1.05409-.810543-1.434361-.100938-.344112.335492-.539039.574133-.690641.290742-.157815.845653-.39852.575003-.815696-.25191-.510222-.704583-1.022789-1.319755-1.01772-.313187.112378-.629354-.257461-.225002-.386899.402569-.02271.01513-.381498-.01968-.466808.387276.01433.284499-.587757.107482-.779462-.05378-.330313.08975-.676412-.137901-.938254-.04706-.283923-.326152-.542585-.03216-.824476-.0563-.222081-.258349-.360578-.397248-.531592.164817.0021.439502.163964.519764-.03454-.01357-.257809.392033-.225784.238535-.545889-.0085-.188541-.145267-.555364.130238-.516442.0089-.322372-.262612-.584018-.53386-.741938-.25332-.124528-.714447-.485897-.258506-.5640682-.18157-.32576-.569283-.2961359-.804114-.4783605-.189891-.2644378-.0034-.7631449-.424317-.853444-.435317.04308.258307.7088008-.15621.7210671-.540811-.070978-.984626-.4518043-1.359673-.8229163-.20924-.1932747-.495191-.60749-.801994-.455522-.07475.3752765.359685.4831826.585655.6445617.246994.2930795.436298.6369601.756666.8628975.182134.1218298.545573.5063906.673777.4209926.05484-.2061681.362162.076542.28099.2444152.329655-.087484.363223.4187739.678112.5202049.356415.169402.396742.56277.612505.826267-.197279.295409-.468128-.236061-.730375-.261446-.374718-.182101-.763852-.368732-1.13471-.537849.144954.219084.623493.81259.09606.826406-.157951-.10669-.232529-.255934-.418854-.274039-.02418-.226275-.523047-.118347-.391411-.379166.133297.06098.268001.290078.1467.0068-.09263-.121194-.354824-.409123-.278294-.09038-.279767.0514-.405757-.442555-.502533-.6693115.06241-.415757-.261679-.5890381-.524619-.8440353-.439782-.4622618-.888074-.9180338-1.314048-1.3925069-.121322-.1913567-.412303-.5013944-.351567-.6705576.200292.1036688-.263898-.3491333-.05687-.4790561.301774.4429606.486588-.3537374.798862-.3867309.288518-.1538462 1.033344.054622.783722.4624895-.163642.1264166-.242038.3258656.04565.263692.318981-.077164.932457.381907 1.027845-.097739-.122756-.1565523-.497739.1175592-.34321-.2315363-.05344-.2610527-.531823-.1463754-.676251-.4194032-.112093-.2068711-.212497-.3503919-.470905-.4018963-.200544-.2878103-.569381-.3824382-.838428-.5971415-.216297-.207491-.592005-.4181348-.703458-.6269958-.08802-.2664669-.741167.017518-.800645-.4035748-.02466-.5367425-.530294-.1418423-.849143-.2313168-.272278-.037236-.679836.015182-.860536-.1631333.473326-.1297138.981218-.089509 1.467135-.0591.159333-.027834.583065.2275282.587762.048295-.364921-.2139643-.803566-.2111195-1.209008-.2623947-.02283-.1815515-.356315-.2446623-.36272-.00323-.208669.1239266-.580562.2072228-.5817-.068395-.165105-.00952-.863735.040763-.516602-.2340697.324266-.2872939-.427709-.074677-.514106.095538-.367702.031415-.737656-.1203092-1.113526-.1065969-.722172-.061187-1.453126-.033562-2.169263-.1520949-.124235-.1509178-.771183.025924-.594312-.2159305.335473-.1375354.704117-.1487802 1.057434-.2145368-.908868-.060401-1.820694-.042557-2.729696-.090861-.372809.036144-.700082-.3042335-1.063654-.1202164-.374031.0696-.761585.098016-1.107628.2718099-.784347.2256124-1.622925.2131812-2.386756.5195724-.322781.075717-.66716.062743-.965293.2309159-.286832.1911321-.656047.2337588-.926504.4309583-.135361.3037319-.541254.3867894-.816232.5483373-.404654.1703057-.78838.3931209-1.199385.5444977-.351231-.021669-.388992.514499-.778826.4418333-.522438-.083749.210207-.3599969.387299-.4585698.146392-.05299.657069-.3835492.220696-.2763803-.290123.134434.04398-.2928043-.247494-.122982-.189611.073301-.375999.1546011-.563876.2321864.118314-.22045.182855-.4888865.38008-.6524.223465-.1163521.543103-.2455162.647487-.4676196-.389683-.066962.598301-.4284382.416656-.084913.356147.2891505.495868-.3553258.892675-.2871287.357424-.1437039.677776-.369456 1.060158-.4564036 2.751809-.8109497 5.65318-1.0803802 8.512293-.8959755 3.775155.2451442 7.48342 1.3408364 10.807359 3.1426976 1.920931 1.0002316 3.689638 2.2823841 5.250902 3.7824597 1.899357 1.7838957 3.616706 3.7865257 4.898388 6.0640927.421933.753306.835662 1.516118 1.178459 2.308106-.270317-.252581-.410027-.643909-.747757-.821622-.159129.08241-.482127-.262555-.234591.05759.363503.417929.720871.843024 1.008759 1.318574.518744.776879.898646 1.636785 1.164444 2.530882.532479 1.75399.89853 3.56161 1.073306 5.386539.10981 1.714376.09324 3.438361-.04925 5.150326-.294439 2.733099-1.017897 5.42176-2.143654 7.929814-.06777.105325-.130078.344453-.228995.374621zm-26.648688-5.778701c-.335891-.15744.723596-.111318.260945.08305-.0923-.0055-.176522-.0493-.260945-.08305zm-2.060054-.100907c-.0943-.193008-.657698-.170616-.597609-.264416.477896.06901.194498-.477854.04733-.671378.355547.187553.787157.09956 1.146511.287562.226851.11996.70702.258943.709904.499198-.392049.07484-.858729-.120126-1.186334.180297-.03409.03943-.115895.02933-.119806-.03126zm-1.073607-.277497c-.02899-.219647.435078-.02484.10904.05549-.04326.0053-.0869-.01871-.10904-.05549zm-1.115375-1.060196c-.109564-.269166-.530602-.303835-.621445-.641051-.333781-.101251-.588356-.370002-.938816-.453888-.25202-.10105-.375363-.551754-.725722-.336706-.162063.12872-.858661.290642-.420155-.05661.341877-.209566.78104-.06658 1.153757-.01852.419156.08859.733691.404837 1.083309.631367.327419.22705.626388.534644 1.021699.632111.03014.218861.672372.235284.366461.483444-.286827.06483-.698436.04923-.900716-.192646 0 0-.01836-.0475-.01836-.0475v-.000005zm1.601229-7.965803c.01206-.144232-.02482-.771456.212632-.419536.134835.176037-.09226.691409-.216889.579591-.000529-.0534.0021-.106739.0043-.160055zm5.259985-3.115922c.03511-.186263.361445-.582108.204219-.158382-.109662.256055.302726-.06327.100558.167485-.06918.05875-.276535.122321-.304777-.0091zm-.639199-.170536c.145617-.09823.341723.09791.05852.04827-.01267.000661-.09393-.01307-.05852-.04827zm2.976267-.378628c-.148667-.314568.223525-.3466.218231-.02518.05866.224497-.177284.213482-.218231.02518zm-.373701-.196963c-.41934-.114814-.875056.03929-1.287176-.102779.03854-.144767.253875-.206725.22112-.43331.142748-.371136.28647-.759152.538607-1.070008.218279-.0018-.272701.667749-.01667.677964.239832.15976.583965.115599.813366.212669-.08805.247813.22941.463249-.105515.644876-.04551.03186-.101084.09841-.163725.07059zm-2.622084-.831866c-.207327-.305521.672034.16575.186685.124355-.07182-.02375-.137335-.0669-.186685-.124355zm19.750683-2.132948c-.146217-.08742-.424649-.660335-.08029-.396991.121139.163522.384572.407965.317225.596054-.09858-.03801-.167643-.123608-.236937-.199063zm1.045585.02949c.04036-.240324.255575-.570317.398198-.177331.24678.291595-.27509.261236-.398198.177331zm-1.626917-.872399c-.262459-.365518.482772.395574.05345.06455 0 0-.02653-.03115-.02653-.03115s-.02692-.03339-.02692-.03339-.000002-.000001-.000002-.000001zm2.410576-.561599c-.281784-.174158.01654-.492473.144193-.127071.14229.181898.02892.218584-.144193.127071zm-8.087862-.403904c-.177906-.131254.05047-.380079-.192474-.37523.02127-.284501-.420592.0093-.32136-.348502-.124709-.322787.08467-.961874.467987-.545107-.0172.375441.53304.520531.415298.930331-.09687.132477-.145976.579729-.369451.338508zm1.269661-.411593c.02751-.122189.06216-.462308-.118459-.212028-.380651.31517-.251042-.310052-.549733-.397248.2965-.309459-.231825-.621053-.526299-.615966-.23836.1102-.374335-.336261-.644181-.332603-.176014-.161086-.502674-.386963-.535455-.733384.107621-.374403.20688.479076.415977.09224.372158-.148045.355167.622422.789012.536603.290168.192749.632857.256296.92416.443714.281414.195912.699347.122452.753581.548018.491935.116451-.202745.534894-.296791.784978.03784.258493-.360045.335425-.228269.0013 0 0 .0074-.05453.0074-.05453s.009-.0611.009-.0611-.000008.000003-.000008.000003zm-29.320494-.132582c.0052-.327508.04049-.740898.204315-.998976.164941.315156-.09364.64168-.08439.956019-.01757.03539-.08615.103468-.119925.04296zm18.941543-.283261c-.30176-.182427-.707874-.126947-.96257-.423716-.214172-.224922-.785722-.541652-.506526-.886077.08028-.253569-.392247-.000767-.384392-.318592-.08887-.283072-.607256-.804195-.160774-.971893.289581-.04289.243372-.612303.06832-.75687-.150945.05162-.640628-.256577-.234551-.151395.500703.124495.03129-.362434-.190166-.424212-.121288-.03732-.33663.245598-.262737-.08695.0085-.3974022-.232812-.7565544-.455094-1.0702873-.258799-.3102547-.697034-.3464454-1.071348-.3043936-.13213-.037372-.140475-.2578208-.282162-.3240662.138792.026069.728022.04145.423513-.1523746-.305739.1383417-.596008-.3169197-.151061-.3210385.293023-.013092.577551-.28234.319677-.4498123.226978-.141414.4054-.3958481.600755-.4192622.124013-.1657982.455301.1117709.517996-.1528008.165026.062491.384477.2037294.364808-.093123.202012-.021889.175752-.4864579.398991-.3320661-.104928.2969868.200933.065398.247619-.02435.154953-.028086.677542.070579.281913.1974953-.224978-.00973-.42631.4456078-.09822.1837375.179478-.020214.346247.013658.433488-.1042622.131213.1043074.364514.4814816.257001.08675-.04638-.2799011.446741-.4097472.284739-.049478-.166947.1814608-.10546.213368.104444.1518018-.146013.291165.263388.2316419.337143.5156758.08848.2672927.536239.2063028.601342.3540662-.228639.1019059-.231719.273172.04083.2667874.469853-.06089.237231.7414995.698352.6329309.323659.2018615-.664832.154663-.349962.4737074.29876.2111242.736471.1086683.973413.4229097-.04411.2523828-.491913-.1654612-.718304-.05111-.219414.052667.35791.079356.231021.2403008.360709.257076-.432837-.1356568-.14696.212909.173249.468009.451876-.223826.762378-.07672.103529.333787-.257088.750136-.578818.87468-.140711.06662-.470488-.118143-.279512.159073.07971.315186-.02957.930875-.479253.783813-.110003.09029-.120673.271213-.267387.350063.04775.217033-.325414.183998-.07876.37971-.05499.21401.208703.25481.08322.502172-.113916.386617.117793.807566-.07525 1.17805-.07352.122735-.224576.06861-.297149-.02178zm-5.159811-.589353c-.20374-.179264-.555929-.220115-.547516-.519713-.234259-.165742-.357981-.663922-.750948-.409205-.280302.189018-.511148-.216263-.135355-.253384.28817-.05243.746347.122894.740645-.324126.343837-.181561.406548-.597835.16591-.90372-.182264-.21168-.375449-.617089-.598649-.675369-.248097.183848-.644597-.01481-.917083-.117939-.280641-.07656-.438931-.387398-.03824-.351269-.453454-.2723178.08499-.6374442.366347-.7723298.289288-.1723393.27762.085976.05074.2081932-.141618.1784551-.2637.4849586-.240967.6752266.274408.0435.162886-.3653871.363591-.4301827-.08672-.1902955.259566-.1060956.278423-.2939468.391287-.1653784.35137.3560053.188296.4963085.30394-.08859.81279-.2242499.856237.244097.03917.238232.383863-.0089.341355.289205.08561.197657.440028.18431.220681.36319.110252.321208.09412.699244.514969.800523.164208.192475.539517.319228.601064.506315-.16171.138432-.313187.684565-.575609.310316-.114876-.266623-.68513-.580617-.532259-.06158.07028.346981.52759.497571.473882.888791-.13171.505854-.682046-.342227-.770472-.06049.01664.176446.557051.52837.235241.561251-.106685-.03708-.200824-.102759-.290277-.170162zm-2.45877-.105552c.118284-.278517.282368.111507.0075.03443 0 0-.0075-.03443-.0075-.03443v-.000003zm-.783694-.846212c-.02712-.29501.183375-.530926.324663-.769862.202737.242327.441346.482853.491582.805757.340723.1627-.147121.09453-.224821-.08122-.194789-.175616-.518065.422584-.591424.04533zm11.957333-1.001798c-.180773-.275139.174959-.658994.426466-.830642.339498-.140201.811763.17736.581584.557221-.04623.435313-.500822.627474-.864122.392258-.05438-.03076-.104417-.07017-.143928-.118837zm6.908041.09584c-.233532-.122672-.617503-.371116-.475983-.670208.241173.19993.627092.575541.687044.780107-.07179-.03379-.141621-.07156-.211061-.109899zm-16.737171-.205641c.02503-.306104.42998-.227493.194897.04695-.0592.11015-.252708.12783-.194897-.04695zm9.420849-.275848c.179845-.326156.05539.392825.000006-.000002 0 0-.000006.000002-.000006.000002zm7.498154.08091c.145622-.09823.341699.09792.05851.04827-.01267.000661-.09394-.01308-.05851-.04827zm-13.134133-.417551c.03723-.26688.611417.184133.170791.09188-.06099-.0089-.154358-.01829-.170791-.09188zm-6.703256-.580553c-.05877-.396689.602448-.260247.260395.07778-.0889.06105-.211974.01107-.260395-.07778zm-.774012-.5619749c-.165362-.3273827-.731271.086664-.949267-.2970133-.08895-.2497606-.09533-.8566486.305131-.5163688.138435.1633098.477507.1113674.215215-.091206-.198419-.1026957-.382871-.3994341.000264-.3362545.04055-.3480408.540041-.4315518.850779-.3374961-.15244.1061032-.189167.1454248-.0053.1957821-.04452.166611.01307.269635.192376.2729143-.109347.1401352-.204181.3711688.05747.162279.09833-.1219661.459764-.3737496.301599-.042318-.236635.2813089-.314735.6415674-.338331.9701659-.185652.00842-.334825.03709-.366318.2046623-.123066.03909-.235262-.07443-.263678-.1851474zm-.525518.034742c.25363-.080412.325107.096091.0359.044132-.01384.02052-.110398-.0354-.0359-.044132zm4.488212-.2606551c.0631-.2883445.707749.1473576.243067.1335873-.09024-.00159-.232934-.019201-.243067-.1335873zm-2.590861-.309132c-.11039-.3099615.327882-.1142161.398372-.3819089.107204-.1444111.575726.085427.20125.07415-.0592.2220151-.326506.7698306-.583282.3663125 0 0-.01635-.058554-.01635-.058554h.000013zm.691089.064955c.111749-.2908093.580125-.4496752.829802-.254641-.18061.2727883-.597712.078931-.697931.3395003-.05874.027981-.133461-.019553-.131871-.084859zm1.662298-.2803821c-.228593-.082583-.723898-.1563021-.680215-.4596947.333647.00382-.07995-.6240156.185161-.4077629.03597.127685.166692.172701.120541.3603903.206253.3395792.766588.066772.930529.3541694-.130148.277445-.313076.2333858-.556016.1528979zm-1.092365-.4817082c.362149-.3991829.256845.3415348 0 0zm1.443758-.093703c-.137716-.00807-.596723-.192124-.210537-.2043811.149619-.044571.06223-.4276468.199212-.1531173.110829.2426475.31201.1597776.21362-.079122.206817-.048115.115353-.1007046.0024-.2127197.23636.077044.498364.064569.358934-.2556962.04267-.3516413.227515.091296.218604.1118497-.0319-.3036499.661178-.3079295.468942-.5107506-.199996.3323225-.997916.1006769-.48673-.2210554.317219-.045483.620085-.147211.949939-.137011.233278.012764.571592.076425.71493.1988301-.112326.2130279-.806521.1100735-.497382.3926417-.28902.1529402-.493353.370746-.852323.3427774.06651.366136-.338707.5681144-.672066.541699-.01556.1093636.447125.327547.05132.2641531-.15453-.015166-.307708-.043393-.458968-.078098zm-1.728724-.072979c-.0037-.220527.626022-.4845306.324598-.1455809-.08244.053418-.230245.198551-.324598.1455809zm-3.164287-.3950533c.201059-.3300087.661823-.2860363.95164-.5011275.255937-.176857.297754.1400371.301762.3062224.326009.2029839-.341262.2712358-.503991.2953475-.192434-.030607-.767202.1997025-.749411-.1004424zm2.119407.010612c-.343249-.00691-.207592-.109702.02408-.1488572.247886-.034374-.08015-.096915-.165068-.1491623-.245168-.1016577.614172-.4265237.38575-.048427-.101429.3244323.254939.2280055.374155.08356.01265.4424285-.327417.2985846-.618911.2628865zm2.564691-.3037715c.09044-.1411817.391957-.072798.152638-.2985027-.04723-.2808814.509252-.5368988.417293-.084797.0815.2621386-.428066.653955-.569931.3832997zm-.47494-.09499c.06165-.2917319.267846.2783972.0079.03688 0 0-.0079-.03688-.0079-.03688zm-.315465-.0674989c-.117796-.2527327.278847-.3828127.178286-.056771-.02416.06167-.12746.1317672-.178286.056771zm-11.12997-.1213935c.0265-.1891427.424698.2063943.06724.066315 0 0-.03766-.029857-.03766-.029857s-.02959-.036459-.02959-.036459v.0000013zm9.308197-.1910657c-.594193-.074016.646218-.2068361.303107.083753-.09944-.033118-.201869-.056849-.303107-.083753zm-2.067592-3.0514152c.250746-.2034749.15715.1093137-.05909.081095 0 0 .0091-.025961.0091-.025961s.05001-.055132.05001-.055132-.000002-.0000021-.000002-.0000021z" fill="url(#linearGradient6041-9)" stroke-width=".528704"/>
    <path d="m-44.189548 53.708323c-.273949-.09705-.678079-.204428-.753972-.512985.32448-.187283.02529-.670978-.275535-.707893-.285966-.220879-.228917-.67977-.01839-.941808.299852-.3366.08197-.755668.06233-1.140759-.000188-.383177.181147-.740285.166928-1.128133.02072-.599056.07507-1.226396-.129471-1.801564-.216675-.44093-.727916-.590674-1.131072-.811971-.509548-.262586-1.051804-.505307-1.459331-.918112-.108027-.321115-.313634-.600634-.52746-.866003-.52759-.729173-.828406-1.629264-1.521942-2.232766-.290559-.280553-.518759-.865976.01826-1.010647.289768-.115874.304222-.532739-.065-.480663-.375463-.309359.153717-.69868.164808-1.043906.161209-.241321.634043-.195651.655946-.595725.219925-.149101.746146-.351346.635269-.66901-.175808-.425675.01122-.936638-.250816-1.341906-.217393-.30209-.09469-.769485-.563589-.869984-.222789-.101026-.392498.202991-.568032.270425.103987.177885-.03942.479756-.210908.227304-.000397-.229542-.29504-.1974-.403679-.41746-.330224-.105293-.565239-.383855-.808986-.619752-.185786-.07276-.31217-.615063-.468516-.408117.06547.263123-.328467-.245062-.236637-.404355-.08399-.451797-.461047-.773318-.57726-1.21046-.300061-.109982-.617221-.242139-.876088-.456499-.290239-.177792-.620427-.303194-.795274-.619181-.267454-.340151-.434295-.786797-.817255-1.017992-.336976-.07655-.746864.113847-.985253-.256199-.605383-.606404-1.236991-1.195229-1.760476-1.876031-.179374-.289123-.400352-.585742-.438704-.93182.07344-.35892.234401-.715245.15124-1.091223-.08788-.531689-.258433-1.046467-.350971-1.577179-.212783-.407225-.145203-.881494-.251147-1.317913-.126747-.765019-.01771-1.550443-.172126-2.311289-.216902-.471969-.341824.340497-.321482.539147-.05282 1.019283-.102107 2.04484-.02508 3.063827.08685.119134.160832.569841.03596.531857-.18209-.430157-.34317-.898959-.246794-1.370909.03073-.396184-.181105-.749567-.252251-1.126815.204232-.18637.333802-.440055.229215-.745668-.11757-.871728.285347-1.728359.127733-2.596311-.204231-.35911-.185988-.713839-.08015-1.095098-.0063-.349926.152075-.600049.255664-.879157.103401-.327699.08868-.697564.274184-1.013411.264204-.671905.786278-1.188753 1.247626-1.727629.15711-.230218.558032-.521464.664775-.598843.06986-.24425.204196-.806008.501465-.746442.169748.202085-.401489.503559.02501.355106.403401-.262479.490237-.802163.496722-1.249534-.03576-.361024.08864-.702272.286493-.997162.07156-.346315.343988-.562004.512495-.884218.262467-.186919.25963-.520148.476752-.679004.209101-.333118.451368-.641911.662892-.973437.188727-.222914.198818-.397932-.124533-.316173.01394-.2549815.337519-.3204021.313692-.519477.137857-.3360608-.06361-.8109796.289803-1.0916943.18751-.1771756.06343-.3937553-.158189-.2054728-.376774.1601203-.361513-.3596169.01545-.2580029.174381.1540454.375049-.06498.538094-.1565883.201734-.101327-.100465-.032353-.180296-.038527-.35941.032035-.742981.019394-1.065936.1913713-.228222.031949-.90211-.084348-.83774-.22998.310143.020373.928326.072798.99088-.3050228.148968-.2564262.221555-.466775.539109-.5625351.193029-.3109434.591625-.4504836.906875-.6326923.368576-.176869.594766.4127677.939685.040877.19683-.2617925.37395-.6567845.765355-.6637795.08116.1359979-.341988.5950984.03786.5002508.322361-.2212586.593303-.6217102 1.020459-.6192991.188018.1401546.748361.1811359.687925.4326134-.311188.3990972-.388768.9148939-.497945 1.3939213-.172033.1747551-.326293.7866427.114937.5961279.131874.00452-.06032.2658462.181322.2108425.173002.053038.61974.010999.341791.2706645-.150901.3785994.531297.143628.373241.5238067.03238.2293798.454548.6930798-.0429.6110185-.302428.2908501.585893.3558103.42288.7282592-.01799.487924.265621-.131201.472136-.132033.38299.0255.463238.562071.872985.597613.178371.09815.393398.18517.274714-.1112.236717-.18196-.04114.686432.231465.334293.19398-.147151.750168-.282145.57235-.660404-.140716-.258087.386492-.6644204.556429-.5028674-.04759.3621394-.256191.7013244-.214564 1.0798284.03303.26529.400931-.338429.31314.0765-.134337.120088-.314275.588943.04011.43694.322228-.136858.503856-.495204.712673-.684592.296029.08948.317471.411041.118166.590857.06981.390664-.342667.567086-.667229.469938-.157525-.02186-.391713-.06115-.353235.146611-.242771.178482-.51681-.09838-.692147-.145602-.109826.287688.54379.406583.101256.598168-.208735.111003-.45316.03352-.642392.143903-.116121-.08341-.574141-.460881-.327311-.08326.270462.161014.20079.409924-.115102.319343-.307117.146071-.632862.298983-.861703.559411-.159512.23638-.506534.467905-.482235.755704.411166.157041.0035.602687.09506.855616.370387-.08466.732927.306118.850789.628607.203522.369045.691668.438277.923104.724827-.01823.405652-.06682.831041-.159972 1.214928.371258-.05101.06981.577961.46791.467264.144164-.163746.675982-.200507.511316-.573382-.0038-.335216-.07596-.836042.332589-.964066.374097-.106088.643914-.416319.609224-.815849.0894-.313102-.195863-.552694-.229-.789743.337498-.06197.510231-.305295.452631-.650273.09205-.246266.100997-.701971.478843-.528654.416449-.01876.702588.210549.894702.547823.198239.06023.519779.516132.110484.441917-.402359-.133755.557827.382597.03123.477676.01781.179765.530838-.06943.339902.28218-.385601.173148.286213.05459.405527-.02909.311195-.117016.381563-.463539.507224-.73321.09004.216741.18527.438248.349864.606599-.12828.308084.404897.527269.299104.805946-.346028.198384.32562.412712.420095.594493.146611.271834.502372.173575.675362.356162-.257416.09067-.582957.328669-.889831.279789.02788.440228.54415.0181.783019-.04447.224745-.06649.12088.292696.377549.188971.269055.151153.343157.684248-.0041.797456-.423902.04343-.643107.495612-1.056386.539636-.590931.06157-1.193628-.04893-1.779223.05845-.207007.308802-.594939.347859-.847349.619458-.147309.161506-.580101.531737-.506793.639713.304607-.262021.592595-.56208.989499-.68685.259898-.108965 1.013246-.340265.917046.147021-.114893.290082-.848866-.09068-.460806.275323.47445.0078.17558.669542.599109.836145.127391.204341.806095.04345.615767.347177-.300178.183034-.699135.218404-.924068.516783-.327191.337982-.589981-.245404-.170196-.348263.123283-.128794.615771-.134037.569418-.274313-.22979-.06627-.352356-.270844-.577508-.02894-.290206.08335-.538613.123332-.751735.33535-.217458.07861-.441094.01565-.565139.222227-.430342.003-.739116.55593-.537829.929418-.233775.178554-.615532.05916-.895694.190582-.469866.03833-.375446.552085-.632325.812197-.232987-.03761-.618538-.321069-.708078.103984-.03604.266189-.526891-.05622-.212677.243949.234714.239265.02846.596193.244181.814818-.01714.15662-.507386.22582-.136882.33246.262757.08301-.105672.179149-.20913.136411.0085.462153-.557204.370517-.835355.616508-.285986.25831-.67822.32198-.956488.565343-.261084.292026-.494723.681392-.371265 1.086806.0769.641466.29497 1.322763.04786 1.951992-.287666.296236-.493899-.399822-.491734-.640244-.249842-.267322-.141571-.642025-.158472-.975873.0016-.405299-.302933-.756275-.720002-.733983-.290498-.220853-.563502-.466723-.945038-.476367.05949-.254714-.01374-.159972-.181139-.08742-.21263.06551-.677577-.181685-.74271.01778.419053.130026.01523.509955-.240135.284773-.201081-.29959-.542161-.338584-.840788-.492072-.338907-.163147-.586744.0762-.832306.231704-.391042-.12695-.723492.26689-.820358.608896.05271.427519-.316884.680302-.425045 1.055719-.07491.341014-.1922.683353-.211843 1.029422.06852.575874.137596 1.174475.407617 1.696019.175712.343948.587884.411655.936713.396926.242173-.07413.290343.173802.440171.196164.349132-.176143.524134-.552823.67694-.892421.233577-.254121.718906-.165851.99331-.02466.452546-.09329.191769.470559.02013.65436-.09582.273179-.200777.694819-.399732.488095-.02642.384418-.123107.772713-.377965 1.072772-.05903.340632.566916.289565.801369.384532.429856.07936.893614.18869 1.214389.505005.122446.330131-.06376.684897-.110297 1.0189-.110151.433093-.213903.946046.106497 1.321204.223092.27967.390926.694315.821285.636694.315117.09276.585652-.145259.870941-.08702.376846.129368.618267.455993.890414.722627.124011-.131188.350891-.401542.564357-.542073.05712-.321746.29211-.614428.63723-.469982.178496-.229404.561935-.138186.813671-.26448.136223-.04071.564745-.380024.440449-.04036-.2965.170873-.02127.605761-.276842.85109-.01344.265467.423392.688962.433084.195443-.08529-.295294-.181004-.690475.264821-.714055.336373-.07558.886034-.04968 1.017273.326914.327329.171336.794062-.05358 1.064654.262665.318622.16987.717799.0087 1.023363-.126802.361022.100677.629558.431573 1.010047.517306.246973.08963.03339.54951.392044.435903.356245.08652.760439.271328.892365.639617.316693.11352.529887.476544.905346.443619.676868-.0083 1.403924.02471 1.993101.395282.297265.176115.541256.378955.603271.746742.0831.293.559957.467871.184695.760346-.158435.220763-.683053.559446-.342624.817102.325757-.07887.105531.287756.07834.262684.259839-.02749.59845-.04284.782529.05367.255929-.200884.451435-.465169.67342-.70096.41252.09421.826551.189124 1.244373.250118.191177.110903.149137.576819.456647.320945.384185-.10686.783373.04635 1.173461-.03927.36607-.09919.759362-.09481 1.083942.12587.357688.198416.758868.359188 1.175192.296585.318421.09129.306774.560088.253807.833667-.215032.71722-.848542 1.185109-1.313063 1.737487-.25998.32125-.667621.623629-.633304 1.081548-.02246.428154-.183383.837996-.435274 1.180214-.09337.402214-.448033.673624-.70892.973312-.258204.272918-.5687.527047-.958262.560176-.759855.211976-1.503315.523909-2.153791.973537-.298936.245022-.130235.774954-.590899.907722-.390938.294963-.716634.685204-1.187754.862258-.34032.12354-.579914.456586-.951982.486357-.467391.06377-.947467.05873-1.407427-.03894-.175053.207904.624105.264594.395166.584853-.377148.290825-.889627.230931-1.338543.26737-.247459.000264-.578477.0053-.57795.318778-.281681.06556-.576927-.03337-.863614-.04962-.08711.04834.05726.297053.03555.418992-.0019.262152-.806691.075-.48727.377904.170061.04169.51581.113901.135554.151072-.389993-.01503-.657799.320133-1.042972.211699-.138096-.019-.274632-.04832-.409503-.08313zm-1.176816-.996138c.0583-.392589.281964.341847 0 0zm9.071401-11.446115c-.06702-.412507.540374-.286248.810339-.288584.131509.31246-.380042.545632-.651362.523388-.130667.0013-.166973-.127066-.158977-.234804zm19.28708-2.247829c.408963-1.27091 1.00616-2.498871 1.165031-3.83884.03366-.441801.112313-.896286.01437-1.33364-.166222-.314063-.354581-.63577-.298968-1.009113-.0027-.574614.111172-1.154432.02746-1.72558-.161932-.445045-.452135-.08248-.548925.180908-.06046.05249-.142076.341477-.186579.215535-.07513-.175606-.142378-.537427-.401434-.407275-.414118.337822-.640564.844949-.924967 1.286721-.173313.298445-.391835.599289-.734785.709377-.448292.255836-.717714.71619-1.118598 1.027914-.368435.02783-.713959-.175691-1.05347-.298804-.305898-.122947-.652058-.276424-.739719-.627618-.15484-.22951-.443966-.293852-.6022-.51771-.329409.000026-.149035-.301091-.04537-.3565-.268782.132741-.752099.170294-.672711-.302485-.02864-.335142-.270738-.608372-.1899-.964602.0058-.523724.125765-1.08889-.152921-1.56777-.08502-.325824-.110403-.676542-.438216-.851352-.06775-.420474.03805-.848964.05597-1.272011.0809-.708565.0691-1.435754.26294-2.126364.156578-.312909.357055-.615235.373303-.979434.07732-.34343-.04209-.667856-.155834-.984406-.09501-.469038-.112749-.985973.121759-1.418368.153588-.334132-.19118-.736935-.06711-1.022889.365844.08752.809707-.144376.964326-.483692.07497-.455952.209315-.908141.468286-1.296848.21738-.244543.418241-.437673.556993-.7335.228595-.146448.250651-.72857.5777-.333875.245464.231077.40314.543736.446098.877318.221535.451854.714303.01402.967263-.143939.28683.23931.576488.03333.860206-.07758.16705-.413367-.327822-.707944-.323967-1.115656-.05263-.211292-.06413-.470537.21022-.428686.45812-.273734.409763-.871026.365307-1.329315-.06763-.65166-.526304-1.160437-.854794-1.698921-.21036-.290061-.3976-.609061-.673579-.842279-.142169.187478.295727.615287.04649.886971.131056.161551.184015.566351-.143055.399936-.317572-.19533-.626917-.442856-.817258-.768011-.01627-.388984-.224984-.688711-.286176-1.064181-.166376-.334253-.28856-.675487-.116666-1.024459-.04406-.411888-.317143-.777313-.64576-1.015202-.337408-.02695-.724578.06466-.912355-.336306-.112332-.09583-.379188-.5267044-.456271-.3937219.130698.3713729.343209.7337429.640543.9943519.338158-.06846.277492.587147.0637.232642-.206394-.223991-.458894.01099-.23825.227659.135602.347436.473213.485214.595829.81979.280442.358807.571479.723363.937284.998527.404963.163802.100337.653544.139845.936941.07813.394094.354584.795035.761169.892647-.07945.09332-.207602.414972-.440499.202669-.292608-.132431-.534445-.34848-.744935-.586249-.35702-.25012-.840922-.05929-1.215159-.275727-.225505-.127117-.792785-.155573-.537176.243145.176099.377218.59803.375799.914712.541907.292365.191071.655781.05713.963197.146229-.13131.352007.371748.444065.416616.700801-.3224-.13428-.664993-.256723-1.024718-.26926-.363768-.03433-.70948-.15724-1.027232-.332758-.505751-.179704-.28145.505311-.323157.774613-.185306.183674-.570494.404654-.295544.728204.350348.375814.134157.89618.210462 1.346162-.0069.371525.390023.560595.403326.92504.0581.376774-.04245.794063-.342421 1.046871-.201663.121501-.05504.653756-.381418.367924-.243443-.265351-.482261-.06086-.698701.08047-.138629-.311086-.429988-.447-.564851-.737558-.176144-.522306-.396955-1.054088-.810538-1.434361-.100952-.344113.335486-.539043.57413-.690641.290743-.157814.845656-.398521.575003-.815696-.251912-.510223-.704583-1.02279-1.319758-1.017721-.313187.112379-.629353-.257464-.225001-.386899.402563-.02271.01516-.381496-.01969-.466807.387276.01433.284501-.58776.107481-.779463-.05378-.330312.08975-.676411-.137892-.938254-.04707-.283931-.32611-.542556-.0322-.824476-.05641-.222032-.258252-.36063-.397203-.531591.164817.0021.439499.163964.519761-.03454-.01357-.257808.392033-.225788.238535-.54589-.0085-.188544-.145238-.555367.130262-.516441.0089-.322368-.262612-.584019-.533863-.741939-.25332-.124525-.714449-.4858947-.258511-.5640679-.181568-.3257616-.56928-.2961341-.804108-.4783598-.189929-.2644553-.0032-.7632335-.424321-.8534445-.435316.04308.258308.7088021-.156212.7210668-.540811-.070979-.984621-.4518056-1.35967-.8229158-.209241-.1932744-.495192-.6074902-.801995-.4555222-.07475.375276.359686.4831826.585656.644562.246991.2930795.436297.6369592.756666.8628973.182133.1218297.545573.5063907.673777.420992.0548-.206162.362188.076525.280979.2444152.329666-.087491.363234.4187709.678122.5202059.356423.169398.396746.562769.612503.826265-.197282.295416-.468136-.236055-.730385-.261445-.374701-.182105-.76385-.368703-1.134666-.537848.145005.219104.62339.812629.09599.826405-.157957-.106691-.232532-.255937-.418862-.274039-.02418-.226297-.522986-.118303-.391435-.379166.13331.06098.26802.290087.146682.0068-.0926-.121223-.354785-.409107-.278273-.09038-.279786.05141-.405765-.442554-.502547-.6693121.06228-.4157239-.261644-.5890858-.524621-.8440354-.439793-.4622908-.88823-.9179655-1.314188-1.392496-.121319-.1913572-.412298-.5013933-.351568-.6705573.200314.1036796-.263863-.3491823-.05687-.4790564.301821.4429519.486603-.3537252.798891-.3867309.288518-.1538462 1.033344.054625.78372.4624895-.163645.1264158-.242038.3258688.04565.2636946.318987-.077165.93245.3819022 1.027848-.097742-.122754-.1565545-.497748.1175607-.343199-.2315366-.05347-.2610483-.531829-.1463763-.676267-.419403-.112091-.2068711-.212498-.3503903-.470906-.401896-.200543-.2878111-.569383-.382438-.838427-.5971418-.216289-.2074897-.592016-.4181337-.70344-.6269955-.08801-.2664669-.741161.017518-.800637-.4035748-.02469-.536743-.530294-.1418437-.849143-.231317-.272278-.037236-.679839.015182-.860539-.1631336.473329-.1297131.98122-.089509 1.467136-.059099.159332-.027836.583062.2275271.587756.048295-.364919-.2139643-.803558-.21112-1.208998-.2623952-.02283-.1815409-.356309-.2446718-.362728-.00323-.208669.1239266-.580559.2072211-.581694-.068394-.165108-.00951-.863767.040743-.516578-.2340708.324265-.2872931-.427712-.074678-.514112.095537-.367699.031415-.73765-.1203087-1.11352-.1065966-.722172-.061187-1.453129-.033562-2.169263-.1520952-.124238-.1509165-.771186.025924-.594315-.2159302.335447-.1375259.704069-.1487781 1.057359-.2145374-.908867-.060401-1.820693-.042557-2.729698-.090861-.372808.036144-.700082-.3042338-1.063651-.1202163-.374031.0696-.761582.098015-1.107625.2718101-.78435.2256087-1.622928.213182-2.386762.5195726-.322778.075715-.667157.062742-.965287.2309157-.286832.1911321-.65605.2337567-.926507.4309583-.135377.3037226-.541252.3867933-.816235.5483368-.404653.1703065-.788379.3931198-1.199384.544498-.351228-.021667-.388991.5144979-.778823.441833-.522436-.083748.210204-.3600001.387297-.4585716.14639-.052989.657068-.3835461.220699-.2763788-.290121.1344343.04398-.292804-.247505-.1229836-.189609.073298-.375992.1545979-.563866.2321825.118311-.2204511.182853-.4888881.38008-.6523996.223463-.1163576.543104-.2455134.647488-.4676195-.389677-.066963.598298-.4284395.416654-.084913.35615.2891497.495868-.3553248.892675-.2871292.357424-.1437019.677774-.3694563 1.060155-.4564031 2.751809-.8109498 5.653182-1.0803805 8.512294-.8959757 3.775154.2451444 7.483422 1.3408358 10.807361 3.1426972 1.92093 1.0002316 3.689636 2.2823852 5.250902 3.7824603 1.899354 1.7838966 3.616706 3.7865256 4.898387 6.0640926.421934.753306.835658 1.51612 1.178457 2.308106-.270314-.252581-.410025-.643908-.747752-.821622-.159134.08241-.482134-.262556-.234595.05759.363503.417929.72087.843024 1.008758 1.318574.518747.776877.898647 1.636785 1.164447 2.530881.532477 1.753992.898528 3.561612 1.073301 5.386541.109807 1.714378.09324 3.438361-.04925 5.150326-.294439 2.733098-1.017891 5.421762-2.143654 7.929816-.06767.105307-.130297.344586-.228917.374619zm-26.648685-5.778701c-.335902-.157438.723593-.111323.260942.08305-.0923-.0055-.176519-.0493-.260942-.08305zm-2.060057-.100907c-.09429-.193019-.657701-.170611-.597609-.264416.477891.06901.194506-.477856.04734-.671378.355542.187558.787154.09956 1.146508.287565.226767.11992.707284.259061.709793.499195-.392015.07483-.85865-.120105-1.186223.1803-.03409.03943-.115892.02933-.119806-.03127zm-1.073605-.277497c-.02898-.21965.435068-.02482.109035.05549-.04326.0053-.08689-.01871-.109035-.05549zm-1.115377-1.060196c-.109559-.269172-.530604-.303829-.621444-.641051-.333779-.101254-.588359-.369996-.938817-.453888-.252021-.10105-.375361-.551757-.72572-.336706-.162062.128717-.85866.290642-.420157-.0566.341876-.209569.78104-.06659 1.153757-.01852.419153.0886.733694.404834 1.083312.631367.327419.22705.626385.534646 1.021699.632111.03014.218863.672367.235283.366461.483444-.28683.06483-.698442.04923-.900721-.192646 0 0-.01836-.0475-.01836-.0475v-.000005zm1.601229-7.965803c.01204-.144243-.02482-.771459.212635-.419536.134832.17603-.09223.691414-.216866.579591-.000529-.0534.0021-.106757.0042-.160055zm5.259983-3.115922c.03511-.186262.361447-.582108.204218-.158382-.109677.256058.302734-.06327.100561.167485-.06919.05875-.276527.122322-.304779-.0091zm-.639194-.170536c.145616-.09823.341715.09791.05851.04827-.01265.000661-.09393-.01307-.05851-.04827zm2.976269-.378628c-.148685-.31457.22352-.3466.218226-.02518.05866.224495-.177279.213483-.218226.02518zm-.373706-.196963c-.41934-.114816-.875056.0393-1.287176-.102779.03855-.14476.253873-.206735.221123-.43331.142745-.371136.286464-.759153.538601-1.070008.218247-.0018-.272727.667763-.01669.677964.239826.159765.583959.115596.813356.212669-.08802.247817.229407.463251-.105506.644876-.0455.03187-.101131.09841-.163708.07059zm-2.622084-.831866c-.207333-.305521.672039.165748.186688.124355-.07182-.02375-.137338-.0669-.186688-.124355zm19.750683-2.132948c-.146214-.08742-.424649-.660335-.08029-.396991.121139.163522.384574.407964.317227.596054-.09858-.03802-.167645-.123609-.236939-.199063zm1.045585.02949c.04035-.240329.255583-.570315.398198-.177331.24678.291594-.27509.261236-.398198.177331zm-1.62692-.872399c-.262451-.365523.482804.395565.05348.06455 0 0-.02653-.03115-.02653-.03115s-.02692-.03339-.02692-.03339-.000029-.000001-.000029-.000001zm2.410579-.561599c-.281784-.174158.01654-.492473.144193-.127071.14229.181898.02892.218584-.144193.127071zm-8.087862-.403904c-.177896-.131256.05045-.380086-.19249-.37523.02127-.284496-.42059.0093-.321355-.348502-.124696-.322785.08466-.961876.467987-.545107-.0172.375437.533051.520534.415287.930331-.09687.132481-.14605.579746-.369429.338508zm1.269658-.411593c.02751-.122169.06218-.46231-.118427-.212028-.380648.315169-.251045-.310048-.54973-.397248.296542-.309437-.231818-.62106-.526283-.615966-.238363.110202-.374338-.336261-.644181-.332603-.176017-.161086-.502671-.386966-.535458-.733384.107624-.374402.206883.479078.415977.09224.372161-.148045.355164.622425.789017.536603.290163.192754.632854.256294.924158.443714.281408.195919.699352.122447.753575.548018.491943.116449-.202744.534891-.296785.784978.03781.258494-.36004.335419-.228272.0013 0 0 .0074-.05453.0074-.05453s.009-.0611.009-.0611-.000055.000003-.000055.000003zm-29.32049-.132582c.0053-.327503.04048-.740899.204314-.998976.164941.315156-.09366.641671-.08437.956019-.01758.0354-.08615.103458-.119944.04296zm18.941545-.283261c-.301763-.182425-.707874-.126948-.96257-.423716-.214172-.224922-.785725-.541652-.506532-.886077.08027-.253578-.392279-.000741-.384415-.318592-.08887-.283074-.607269-.804204-.160764-.971893.289587-.04289.243369-.612301.06831-.75687-.150944.05161-.640617-.256577-.234542-.151395.500705.124495.03129-.362432-.190167-.424212-.121295-.03733-.336597.245602-.262763-.08695.0085-.3974007-.232809-.7565553-.455091-1.0702903-.258802-.3102533-.697037-.3464457-1.071351-.3043936-.132135-.037371-.140478-.2578227-.282162-.3240662.138792.026069.728027.041448.423513-.1523746-.305739.1383409-.596008-.3169203-.151061-.3210385.293021-.013092.577546-.2823379.31968-.4498123.226981-.1414134.405392-.3958495.600752-.4192622.124021-.1657927.455295.1117635.518002-.1528008.16502.06249.384474.2037302.364791-.093123.202023-.021878.17576-.4864592.399002-.3320661-.104904.2969873.200933.065393.247619-.02435.15495-.028084.677542.070574.281921.1974953-.224986-.00973-.426299.4456062-.09822.1837375.179445-.020225.346286.013671.433384-.1042622.131308.1041849.364609.4815416.257101.08675-.04637-.2798984.446733-.4097496.284737-.049478-.166934.181455-.105474.2133698.104434.1518018-.146029.2911615.263355.2316459.337116.5156758.08848.2672927.536242.206302.601342.3540662-.228645.1019059-.231714.2731733.04083.2667874.469855-.060889.237225.7415066.698352.6329309.326384.186381-.761384.2084811-.301197.5022416.30208.1831464.757547.089733.948008.4427397-.222235.1170436-.547153-.2193798-.831282-.084699.219324.069524.318813.1051444.36848.2651216.209968.176666-.471744-.1553232-.194789.173313.17325.468009.451877-.223823.762373-.07672.103519.333781-.257082.750138-.578813.874681-.14071.06662-.47049-.118145-.279513.159072.07972.315188-.02957.930875-.479253.783813-.110001.0903-.120669.271209-.26738.350063.04765.217064-.325433.184049-.0785.37971-.05497.213994.208658.254843.08319.50217-.113927.386616.11779.807567-.07522 1.178052-.07364.122907-.224602.06836-.297352-.02178zm-5.159817-.589353c-.203739-.179263-.555926-.220123-.54751-.519713-.234259-.165742-.357981-.663922-.750951-.409205-.2803.189017-.511148-.216259-.135358-.253384.288173-.05243.746352.122896.740651-.324126.343831-.181564.406545-.597833.165909-.90372-.182263-.211683-.375451-.617089-.598651-.675369-.248238.183841-.64457-.01483-.917083-.117939-.280638-.07656-.438931-.387397-.03824-.351269-.453448-.2723202.08499-.6374463.36635-.7723298.28929-.1723395.277614.085978.05073.2081932-.141615.1784564-.263681.4849746-.240964.6752266.2744.0435.162894-.3653749.363583-.4301827-.08676-.1902894.259556-.1060972.278408-.2939468.391286-.1653778.351369.3560037.188303.4963085.303941-.08859.812782-.2242444.856232.244097.03917.238231.38386-.0089.341355.289205.08561.197656.440015.184308.220689.36319.110273.321195.09414.699244.514982.800523.164206.192479.539525.319228.601064.506315-.161713.13843-.313184.684565-.575606.310316-.114871-.266624-.685138-.580614-.532252-.06158.07028.346982.52758.497574.473874.888791-.131709.505854-.682045-.342228-.770471-.06049.01664.176447.557053.52837.235243.561251-.106693-.03708-.200811-.102754-.290285-.170162zm-2.45877-.105552c.118271-.278523.28239.111514.0075.03443 0 0-.0075-.03443-.0075-.03443v-.000003zm-.783693-.846212c-.02709-.295011.183364-.530931.324667-.769862.202732.242328.441352.482849.49157.805757.340741.162691-.147103.09454-.224811-.08122-.194792-.175615-.518062.422582-.591426.04533zm11.95733-1.001798c-.180766-.275149.174966-.658996.426469-.830642.3395-.140201.811763.177359.581583.557221-.04623.435314-.500822.627473-.864121.392258-.05438-.03076-.104421-.07017-.143931-.118837zm6.908054.09584c-.233537-.122675-.617495-.371104-.475999-.670208.241194.199924.627063.57552.687062.780105-.07179-.0338-.141626-.07157-.211063-.109897zm-16.737176-.205641c.02506-.306104.429971-.227487.194878.04695-.05919.110157-.252692.127821-.194878-.04695zm9.420846-.275848c.179872-.326148.05533.392824-.000021-.000002 0 0 .000021.000002.000021.000002zm7.498152.08091c.145621-.09824.341706.09792.05851.04827-.01267.000661-.09394-.01308-.05851-.04827zm-13.134131-.417551c.03723-.26688.611423.184135.170788.09188-.06099-.0089-.154355-.01829-.170788-.09188zm-6.703256-.580553c-.05877-.396693.602451-.260244.260395.07778-.0889.06105-.211974.01107-.260395-.07778zm-.774015-.5619749c-.165354-.3273803-.731271.086666-.949261-.2970125-.08895-.2497638-.09532-.8566476.305141-.5163696.138435.1633085.477512.1113695.21522-.091206-.198432-.1027012-.382865-.399438.000265-.3362545.04054-.348044.540041-.4315505.850778-.3374961-.152373.1060754-.189233.1454311-.0054.1957821-.04452.1666034.0131.2696398.192373.2729143-.109368.1401246-.204197.3711731.05746.162279.09834-.121965.459766-.3737502.301601-.042318-.236633.28131-.314738.6415606-.338336.9701659-.185653.00842-.334825.037094-.3663.2046633-.123066.03911-.235342-.07447-.263657-.1851484zm-.525515.034742c.25363-.080411.325117.096093.0359.044132-.01384.02052-.1104-.0354-.0359-.044132zm4.488212-.2606551c.06311-.2883448.707749.1473594.243064.1335873-.09024-.00159-.232939-.019206-.243064-.1335873zm-2.590861-.309132c-.110408-.3099626.327887-.1142132.398375-.3819089.107183-.144404.575717.085415.201274.07415-.0592.2220182-.326507.7698295-.583279.3663125 0 0-.01635-.058554-.01635-.058554h-.000016zm.691091.064955c.111745-.2908085.580123-.449676.829797-.254641-.180615.2727856-.597738.078928-.697941.3395003-.05874.027992-.133514-.019584-.131856-.084859zm1.662298-.2803821c-.228592-.082583-.723897-.1563013-.68022-.4596947.33365.00374-.08004-.6241548.185433-.4077629.03602.1276832.166648.1727216.120523.3603903.206254.339581.766591.066771.930532.3541694-.130193.2776527-.313248.2331939-.556268.1528979zm-1.092369-.4817118c.362148-.3991816.256844.3415292 0 0zm1.443757-.093703c-.137716-.00807-.596717-.1921246-.210534-.2043811.149595-.044541.06232-.4276439.19921-.1531173.110826.2426473.312018.159779.213622-.079122.206793-.048109.115392-.1007041.0026-.2127197.236381.077041.498318.064574.358968-.2556962.04279-.3516286.227404.091363.218593.1118497-.03189-.3036395.661186-.3079417.468929-.5107506-.199985.3323317-.997905.1006695-.486719-.2210554.317222-.045484.620088-.1472107.949938-.137011.233276.012764.571598.076425.714923.1988301-.112326.2130226-.806513.1100783-.497374.3926417-.28902.1529416-.493353.3707458-.852324.3427774.06651.3661379-.338706.5681155-.672068.541699-.0155.1094038.447088.3275771.05119.2641531-.154485-.015166-.307832-.0434-.458888-.078098zm-1.728724-.072979c-.0037-.2205201.626009-.4845362.324607-.1455809-.08244.053416-.230251.198551-.324607.1455809zm-3.164284-.3950533c.201049-.330013.661826-.2860336.95164-.5011275.255944-.1768596.297743.1400472.30176.3062224.326017.2029794-.34126.2712376-.503989.2953475-.192437-.030607-.767199.1997025-.749411-.1004424zm2.119413.010612c-.343252-.00691-.2076-.1097013.02408-.1488572.247885-.034374-.08015-.096916-.165071-.1491623-.245174-.1016556.614175-.4265261.385749-.048427-.101428.3244379.254939.2279978.374158.08356.01267.4424447-.327424.2985727-.618908.2628865zm2.564685-.3037715c.09045-.1411817.391949-.072801.152625-.298504-.0472-.2808698.50927-.5369034.417317-.084796.08149.2621399-.428046.6539505-.569942.3833zm-.47494-.09499c.06162-.2917155.267832.278389.0079.036882 0 0-.0079-.036882-.0079-.036882h-.000005zm-.315468-.067499c-.117832-.2527234.278868-.3828182.178289-.056771-.02416.06166-.127465.131772-.178289.056771zm-11.129969-.1213898c.02632-.189176.424798.206384.06724.066315 0 0-.03766-.029857-.03766-.029857s-.02958-.036459-.02958-.036459 0 .0000013 0 .000001zm9.308199-.1910657c-.594191-.07402.646224-.2068335.303107.083753-.09944-.033118-.201869-.056849-.303107-.083753zm-2.067592-3.0514152c.250746-.2034767.157139.1093158-.05909.081095 0 0 .0091-.025961.0091-.025961s.04999-.055132.04999-.055132.000029-.0000021.000029-.0000024z" fill="url(#linearGradient6038-6)" stroke-width=".528704"/>
    <ellipse cx="-8.759492" cy="49.274757" rx="16.977625" ry="27.866302" style="fill:none;stroke-width:.627242;stroke-linecap:round;stroke-linejoin:round;stroke-dashoffset:1.0878;stroke:url(#linearGradient6350-0)" transform="matrix(.70710678 .70710678 -.70710678 .70710678 0 0)"/>
    <ellipse cx="49.862885" cy="-4.292228" rx="16.977625" ry="27.866308" style="fill:none;stroke-width:.482492;stroke-linecap:round;stroke-linejoin:round;stroke-dashoffset:1.0878;stroke:url(#linearGradient6348-2)" transform="matrix(-.8660254 .5 -.5 -.8660254 0 0)"/>
    <ellipse cx="-17.051441" cy="-47.052933" rx="16.977621" ry="27.86631" style="fill:none;stroke-width:.482492;stroke-linecap:round;stroke-linejoin:round;stroke-dashoffset:1.0878;stroke:url(#linearGradient6346-3)" transform="matrix(-.25881905 -.96592583 .96592583 -.25881905 0 0)"/>
    <path d="m101.78892 43.9826-4.719656 6.882833 3.343096 3.146438z" fill="url(#linearGradient725)" fill-rule="evenodd" filter="url(#filter6740-7)" transform="matrix(.5303875 -.04631429 .04631429 .5303875 -74.783593 4.558595)"/>
    <path d="m-41.137936 1.6826653c-11.988511 0-22.148678 7.8495193-25.587274 18.6628667 2.598993 3.733874 7.355139 6.776767 13.311566 8.542525.16458-.735327.332464-1.472057.525658-2.215319 3.559785-13.695143 10.806636-23.8837987 16.975732-24.4800717-1.690473-.3328545-3.437517-.510001-5.225682-.510001z" fill="url(#linearGradient5752-9)"/>
    <path d="m-25.182823 51.648491a20.334882 10.62381 0 0 1 -15.854767 4.111818 20.334882 10.62381 0 0 1 -16.016117-3.937447m40.145352-11.138468a24.270916 12.31144 0 0 1 -19.952062 12.114958 24.270916 12.31144 0 0 1 -27.052749-7.803401m49.211169-7.633557a26.869289 13.590242 0 0 1 -26.461085 11.230321 26.869289 13.590242 0 0 1 -26.461089-11.230321m54.249591-8.470583a27.76742 13.978689 0 0 1 -13.911699 12.114022 27.76742 13.978689 0 0 1 -27.795358-.02442 27.76742 13.978689 0 0 1 -13.827618-12.138395m54.342523-8.034049a26.845694 13.457289 0 0 1 -12.028776 13.180396 26.845694 13.457289 0 0 1 -28.913921.06324 26.845694 13.457289 0 0 1 -12.257767-13.127275m49.936879-6.815968a24.018172 12.013086 0 0 1 -9.706157 12.713191 24.018172 12.013086 0 0 1 -27.208047.02375 24.018172 12.013086 0 0 1 -9.794823-12.696168m39.403913-7.7250871a19.618763 9.7639297 0 0 1 -2.774487 12.7798651 19.618763 9.7639297 0 0 1 -25.819316.336485 19.618763 9.7639297 0 0 1 -4.114605-12.6900847m30.583248 1.281553a13.909827 6.9292186 0 0 1 -13.909828 6.9292187 13.909827 6.9292186 0 0 1 -13.90983-6.9292187 13.909827 6.9292186 0 0 1 13.90983-6.9292186 13.909827 6.9292186 0 0 1 13.909828 6.9292186zm-6.747615-2.4396392a7.1707961 3.5291418 0 0 1 -7.170796 3.5291415 7.1707961 3.5291418 0 0 1 -7.170798-3.5291415 7.1707961 3.5291418 0 0 1 7.170798-3.5291419 7.1707961 3.5291418 0 0 1 7.170796 3.5291419zm-5.307598 3.5360135c4.251995 9.9410264 8.743067 44.6322454 1.767515 47.4122834m-.0445-47.796652c13.205529 18.380666 12.662781 44.913593 4.202655 46.82847m4.716-1.86859c10.760524-5.125563 10.01606-30.445664-7.377304-45.4977975m1.065689-.7298528c13.673669 6.7339583 25.4344297 29.8150873 12.031096 42.2979483m6.332691-7.910295c6.102188-11.362553-.137711-28.672562-17.565994-35.2721311m.152217-.9796576c5.092586.90238 20.494551 7.2161057 20.672713 23.5777837m-20.86502-24.4782994c7.362923.7514074 14.110972 4.7136846 17.495977 10.9695214m-18.177933-11.8367057c3.337669-.1263991 7.850844.5787559 11.884663 4.0309749m-13.045014-4.7578742c2.785192-.6288045 5.287952-.032368 7.233621.8851945m-8.699286-1.4694569c.927428-.5026472 2.7183-.7314097 3.957087-.387867m-5.669327-.051646c.482462-.4933431.927462-.6864355 1.6466-.7763626m-3.558783.7178556-.0158-.9451055m-1.863603 1.0812122c-.419241-.3993089-.786075-.701149-1.557142-.8596419m-.176305 1.2213267c-.871219-.4875071-2.258985-.6623112-3.888499-.3990751m2.375203.9685623c-1.399112-.3410633-4.593788-.4803262-7.188829.8662056m5.999071-.073824c-1.259702-.1137836-6.690538-.2663897-11.831714 3.8848574m11.088709-3.0603216c-4.347113.4655225-12.522909 2.5586727-17.153769 10.5517313m16.952614-9.5280833c-6.928622.9932046-21.144519 9.1718213-20.455274 24.0886713m3.191272 12.091075c-7.875263-16.382386 6.03296-31.327528 17.554343-35.3887757m.709321.8708654c-14.716381 8.4129453-24.594314 29.8366403-12.244446 42.2882413m5.977634 4.016613c-10.900817-5.146543-9.779925-30.631127 7.428918-45.5099274m1.462166.5013661c-12.032613 16.7993293-13.627942 43.6114713-4.163322 46.8117013m3.960993.959644c-6.090884-2.961912-3.20865-33.348292 1.948275-47.3187718m1.868324.074648-.000059 47.6339478" fill="none" opacity=".4" stroke="url(#linearGradient8575)" stroke-linejoin="round" stroke-width=".132292"/>
  </g>
  <ellipse cx="155.67969" cy="-109.07285" fill="url(#radialGradient3289)" opacity=".945" rx="2.595503" ry="36.137386" transform="matrix(.48651238 .87367368 -.87367368 .48651238 0 0)"/>
  <ellipse cx="133.03658" cy="141.92191" fill="url(#radialGradient3289-3)" opacity=".945" rx="1.760396" ry="24.757998" transform="matrix(.92955389 -.36868628 .33321667 .94285028 0 0)"/>
  <circle cx="169.82596" cy="82.221161" fill="url(#radialGradient3277)" r="21.458864"/>
  <circle cx="128" cy="128" fill="url(#radialGradient3253)" opacity=".94" r="111.9092"/>
  <circle cx="128" cy="128" fill="url(#radialGradient1091)" opacity=".91" r="111.9092"/>
  <circle cx="128" cy="128" fill="url(#radialGradient887)" opacity=".97" r="111.9092"/>
</svg>
