<svg height="256" width="256" xmlns="http://www.w3.org/2000/svg" xmlns:xlink="http://www.w3.org/1999/xlink">
  <defs>
    <linearGradient id="linearGradient4862">
      <stop offset="0" stop-color="#ededed"/>
      <stop offset="1" stop-color="#c8c8c8" stop-opacity=".878752"/>
    </linearGradient>
    <linearGradient id="linearGradient4570" gradientTransform="matrix(3.8827462 -2.9647966 2.9647966 3.8827462 -86.377237 -1166.6487)" gradientUnits="userSpaceOnUse" x1="-107.39664" x2="-108.02049" y1="227.49049" y2="236.49913">
      <stop offset="0" stop-color="#fff" stop-opacity="0"/>
      <stop offset=".5" stop-color="#fff" stop-opacity=".763505"/>
      <stop offset="1" stop-color="#fbe5ec" stop-opacity="0"/>
    </linearGradient>
    <linearGradient id="linearGradient4583" gradientUnits="userSpaceOnUse" x1="187.8049810409" x2="115.35170856451" y1="235.26810003889" y2="134.07791332889">
      <stop offset="0" stop-opacity=".470588"/>
      <stop offset=".30000001" stop-opacity=".470588"/>
      <stop offset=".30000001" stop-color="#1726cb"/>
      <stop offset="1" stop-color="#090909" stop-opacity="0"/>
    </linearGradient>
    <linearGradient id="linearGradient4854" gradientUnits="userSpaceOnUse" x1="129.70220503359" x2="74.21079924178" y1="187.13131690918" y2="11.51726714008">
      <stop offset="0" stop-color="#1a3ed8"/>
      <stop offset="1" stop-color="#2f5afb"/>
    </linearGradient>
    <linearGradient id="linearGradient4856" gradientUnits="userSpaceOnUse" x1="106.52639390822" x2="65.1934207026" y1="93.61191204503" y2="16.57673250827">
      <stop offset="0" stop-color="#fff" stop-opacity=".133253"/>
      <stop offset="1" stop-color="#fff" stop-opacity=".202881"/>
    </linearGradient>
    <linearGradient id="linearGradient4864" gradientUnits="userSpaceOnUse" x1="50.82764314931" x2="176.16522580198" xlink:href="#linearGradient4862" y1="14.56048919796" y2="245.38033797303"/>
    <linearGradient id="linearGradient4872" gradientUnits="userSpaceOnUse" x1="49.73552926883" x2="205.13455614213" xlink:href="#linearGradient4862" y1="127.35877956612" y2="127.35877956612"/>
    <filter id="filter951" color-interpolation-filters="sRGB" height="1.173315" width="1.083954" x="-.041977" y="-.086658">
      <feGaussianBlur stdDeviation=".57302533"/>
    </filter>
    <linearGradient id="linearGradient3247" gradientUnits="userSpaceOnUse" x1="75.279099" x2="75.489517" y1="11.448374" y2="149.14511">
      <stop offset="0" stop-color="#0a00dd"/>
      <stop offset="1" stop-color="#00010e"/>
    </linearGradient>
    <filter id="filter4587" color-interpolation-filters="sRGB" height="1.012906" width="1.015489" x="-.007745" y="-.006453">
      <feGaussianBlur stdDeviation=".40704226"/>
    </filter>
    <linearGradient id="linearGradient3249" gradientUnits="userSpaceOnUse" x1="119.80516389609" x2="118.77543383076" y1="143.15942398711" y2="75.09942640166">
      <stop offset="0" stop-color="#2500a0"/>
      <stop offset="1" stop-color="#170071"/>
    </linearGradient>
    <radialGradient id="radialGradient3251" cx="73.312431" cy="101.73965" gradientTransform="matrix(4.3432695 .00218875 -.00208183 4.1315393 -198.79879 -280.7784)" gradientUnits="userSpaceOnUse" r="18.978512">
      <stop offset="0" stop-color="#1f58e9"/>
      <stop offset="1" stop-color="#4840df"/>
    </radialGradient>
    <radialGradient id="radialGradient3253" cx="74.080917" cy="26.055937" gradientTransform="matrix(2.9794745 -.01291911 .01244224 2.8695212 -103.91171 4.687312)" gradientUnits="userSpaceOnUse" r="18.978512" xlink:href="#linearGradient10381"/>
    <linearGradient id="linearGradient10381">
      <stop offset="0" stop-color="#fff"/>
      <stop offset="1" stop-color="#fff" stop-opacity="0"/>
    </linearGradient>
    <radialGradient id="radialGradient3255" cx="52.340275" cy="42.181152" gradientTransform="matrix(2.6855535 -.11375591 .07032413 1.6602146 -45.242066 13.593842)" gradientUnits="userSpaceOnUse" r="18.978512">
      <stop offset="0" stop-color="#bfc7ff"/>
      <stop offset="1" stop-color="#c8bfff" stop-opacity="0"/>
    </radialGradient>
    <radialGradient id="radialGradient3257" cx="51.669422" cy="73.216042" gradientTransform="matrix(3.2826053 -.36549408 .18537635 1.6649171 -96.839638 6.008352)" gradientUnits="userSpaceOnUse" r="18.978512" xlink:href="#linearGradient10381"/>
    <linearGradient id="linearGradient3259" gradientUnits="userSpaceOnUse" x1="122.59327448213" x2="110.25832384271" y1="147.0405887205" y2="80.88842611948">
      <stop offset="0" stop-color="#9b80ff"/>
      <stop offset="1" stop-color="#80a4ff" stop-opacity="0"/>
    </linearGradient>
  </defs>
  <path d="m18.817207 283.00875 27.594065 9.53955 4.755842-4.85923c.89572-.76326.200839-2.94244-.827102-3.67027l-22.07331-7.34054z" filter="url(#filter951)" opacity=".476" transform="matrix(4.8852571 0 0 4.8852571 -43.953267 -1175.3302)"/>
  <path d="m52.014238 203.45224 124.366052 43.08748 21.21731-20.23806 5.22272-125.67172-151.785342-15.99463z" fill="#fefbfc"/>
  <path d="m178.01239 196.92382 21.54372-15.34171 4.89631-112.941376c-.006-15.125196-11.17983-33.710961-37.2119-42.760997l-100.047749-18.1163417c-15.738486 2.2167837-15.464697 7.3766407-16.157793 12.2407447l.97926 173.32907c21.782155-12.02384 34.88609-15.83429 69.853902-14.36251 34.96781 1.47178 41.91747 8.63103 56.14425 17.95312z" fill="url(#linearGradient4854)"/>
  <path d="m53.646339 13.495561c-.97288 5.626009-.873391 8.633373 8.486922 11.404877l83.237129 14.688893c24.88616 8.082707 35.47153 16.30435 34.92694 44.719595l-3.91704 162.230794" fill="none" stroke="url(#linearGradient4864)" stroke-width="1.29256"/>
  <path d="m197.5976 226.30166s4.68278-101.63025 6.85482-156.02881c.80327-20.117929-11.81079-36.688916-39.49683-45.698796l-98.089242-16.484177c-6.549489.675582-15.699678 4.713003-16.484211 11.587879l1.632101 183.774484 124.366052 43.08748z" fill="none" stroke="url(#linearGradient4872)" stroke-width="1.29256"/>
  <path d="m156.78331 42.221051 18.73737-13.11453c20.69559 10.16413 28.89227 23.045411 29.59654 37.555474l-23.96015 13.44095c-1.61395-21.141225-11.50305-31.461111-24.37376-37.881894z" fill="url(#linearGradient4570)"/>
  <path d="m176.38029 246.53972 4.77678-166.436756 23.96015-13.440955-7.51962 159.639651z" fill="url(#linearGradient4583)"/>
  <path d="m163.96154 125.6142c-.83166 28.94176-23.31228 45.17697-48.766 37.41511-23.967171-7.30857-42.690104-33.69958-43.064937-59.89618-.384199-26.85143 18.552227-45.615532 43.660627-41.050389 26.74344 4.862436 49.02524 33.779669 48.17031 63.531459z" fill="#f9f9f9"/>
  <path d="m53.646339 13.149343c-2.692397 2.801206-3.149511 5.325663-3.264202 6.528413l.326433 106.086534c11.050163-35.762721 52.26486-42.755526 62.34623-44.719595 10.08138-1.964069 37.83551-2.00232 66.26328 6.854846 3.89102-25.659617-6.78018-40.359893-33.94768-48.31021l-83.237124-14.688893c-3.625242-1.044419-11.073642-2.978395-8.486937-11.751095z" fill="url(#linearGradient4856)"/>
  <g transform="translate(-2.19885 .441954)">
    <path d="m82.538361 13.501325c-3.931103-.589277-7.868603-.483217-11.087278.793279-3.204171 1.270743-5.833052 3.997336-6.145223 8.163333-.273465 3.649536 1.866972 6.668827 3.176693 9.122556.655879 1.228779 1.130511 2.367112 1.296666 3.138499.166193.771615.221898 1.10909-.226469 1.806165-.759119 1.180251-2.097901 1.809228-3.953104 2.033891-1.850286.224066-4.202387.0528-6.822342-.487987-5.209914-1.075372-11.248538-3.276026-16.380398-4.232802l-1.795382-.334728.0058 2.069042c.05132 6.836594-.342083 14.180337-.951818 20.246062-.609482 6.063214-1.555465 11.066514-2.313444 12.581444-1.044878 2.088332-2.018865 2.807593-2.666112 2.91691-.646637.109214-1.439983-.174645-2.999568-1.676395-.971044-.935038-2.53453-3.039366-4.204514-5.00955-1.665603-1.965013-3.541486-4.076424-5.922332-4.574229-3.063981-.64064-5.895942 1.199659-8.010863 4.420112-2.108796 3.211126-3.533576 7.954312-3.524535 13.949665.01816 12.042782 6.080166 20.876162 11.834635 22.254908 2.390413.57274 4.466537-.14831 6.362547-1.050848 1.901201-.905005 3.707973-2.042362 5.195305-2.642208 1.755149-.707857 3.250464-.777275 3.898006-.510223.323995.133621.381972.231493.560253.519829.178349.288422.43599.819568.564225 1.81806.09267.721617.262113 3.46623.4664 6.85842.204404 3.39412.479422 7.56734.704944 11.86446.451503 8.60289.882749 17.43705 1.06727 20.4486l.0602 1.38435c4.795857 1.36288 13.708036 4.52446 19.354706 5.98713 6.05318 1.56798 11.681382 2.56199 15.206185.0283 1.559183-1.12078 1.826723-3.51391 1.396888-5.51805-.429505-2.00259-1.314273-3.95521-2.15379-5.8959-.838387-1.93807-1.607103-3.80965-2.026209-5.31225-.418807-1.50152-.445257-2.37173-.129836-2.96263 1.037904-1.94438 2.312207-2.94885 4.353489-3.32385 2.047181-.37609 4.955163-.0483 8.580973.89964 3.543194.9264 7.057313 2.5849 9.677504 4.67019 2.630305 2.09334 4.202975 4.38275 4.425222 7.065.12399 1.49653-1.137508 3.16927-2.658733 5.29865-.759488 1.06312-1.550447 2.2821-1.928075 3.84251-.377472 1.55976-.271262 3.61118.758157 5.61842 1.538276 2.99944 4.201855 4.98071 7.129576 6.50235 2.94009 1.52808 6.36796 2.70327 9.92619 3.59424 7.17015 1.79541 15.05274 2.75453 20.3869 4.16851l1.92994.51159.11577-1.92158c.45979-5.71228.50961-15.24654-.29112-24.3123-.39983-4.52689-.97523-8.86283-1.88019-12.68886-.90358-3.82022-2.00183-7.12524-4.02132-9.54097l-.12841-.16821-.1275-.0296c-1.7633-1.73116-3.61976-2.73956-5.21734-2.7286-1.59407.0109-2.62204.82532-3.52051 1.52327-.8974.69713-1.62868 1.42196-2.37493 1.78089-.63153.30375-1.34663.21705-2.12765.0493-4.07976-3.08736-8.28398-10.58531-8.30073-17.753431-.008-3.504569.97456-7.159482 2.54242-9.793083 1.57098-2.638848 3.7735-4.063059 5.57193-4.128875 1.81276-.06634 4.13643 1.250365 7.16911 3.037301 3.04587 1.794701 6.74518 3.825305 10.81981 3.421412 1.11909-.110922 1.44169-.724599 1.65795-1.169727.21632-.445242.39316-.920393.50375-1.418269.22122-.995925.37069-2.16419.48907-3.641847.23678-2.955548.34391-6.910512.31085-11.029581-.0332-4.117653-.18854-8.481506-.46805-12.284459-.27934-3.800429-.73464-6.994622-1.34381-9.248748l-.39463-1.594099-1.53575-.286322c-5.82957-1.051661-14.03389-1.893727-21.40621-3.311001-3.65764-.70321-7.07643-1.502837-9.86048-2.518314-2.772989-1.011437-4.953307-2.345039-5.86007-3.378468-.440262-.501756-.367723-.605736-.129484-1.637135.238302-1.031665.963916-2.545018 1.798964-4.110585.835931-1.567224 1.695629-3.235095 2.285008-5.112024.589784-1.87822.879742-4.207461-.155761-6.491504-1.498399-3.305046-3.760095-5.766901-6.583117-7.428787-2.811429-1.655062-6.091014-2.550819-9.956186-3.130219z" fill="url(#linearGradient3247)" fill-rule="evenodd" filter="url(#filter4587)" transform="matrix(.48735575 0 0 .48735575 80.636065 71.715308)"/>
    <path d="m120.8569 77.257693c-1.91566-.284231-3.83444-.229639-5.40294.394743-1.56142.621569-2.8425 1.952109-2.99462 3.982317-.13327 1.778523.90979 3.248158 1.54803 4.442825.31961.598265.55091 1.152592.63188 1.528345.081.375865.10813.540265-.11036.880264-.36993.575666-1.02233.883142-1.92639.993986-.90166.110551-2.04786.02884-3.32459-.23273-2.53885-.520147-5.48154-1.587993-7.98235-2.050406l-.87491-.161776.003 1.008186c.025 3.331255-.1667 6.909959-.46383 9.86608-.297007 2.954893-.757996 5.393573-1.127368 6.132323-.509181 1.01836-.983818 1.36956-1.299229 1.42331-.315113.0537-.701721-.084-1.461725-.81464-.473202-.4549-1.235108-1.47913-2.048911-2.43791-.811669-.95626-1.72581-1.98371-2.886027-2.224513-1.493116-.309897-2.873169.588933-3.903797 2.159743-1.027645 1.56626-1.72196 3.87855-1.717555 6.79993.0088 5.86813 2.962946 10.16791 5.767172 10.83547 1.164878.2773 2.176598-.0756 3.100547-.51678.92648-.4424 1.806941-.99794 2.531737-1.29133.855304-.34623 1.583989-.38116 1.899544-.25151.157886.0649.18614.11251.273017.25288.08691.14041.212464.39903.274954.88547.04516.35156.127731 1.68881.227282 3.34158.09961 1.65372.233626 3.68701.343527 5.78072.220022 4.19162.430172 8.49595.520092 9.96326l.0293.67451c2.33707.66053 6.68007 2.19446 9.43176 2.90298 2.94977.75952 5.69245 1.2397 7.41012.002.7598-.54729.89018-1.71359.68072-2.68983-.20931-.97549-.64046-1.92629-1.04957-2.87131-.40855-.94375-.78315-1.85514-.98738-2.58701-.20409-.73134-.21698-1.15534-.0633-1.44351.50578-.94821 1.12676-1.43861 2.1215-1.62286.99761-.18477 2.41469-.0272 4.18158.432 1.72663.44877 3.43909 1.2543 4.71593 2.26846 1.28177 1.01807 2.04814 2.13247 2.15644 3.43929.0604.72912-.55431 1.54514-1.29562 2.58385-.3701.5186-.75554 1.11316-.93956 1.87378-.18395.76031-.13219 1.75983.36945 2.73713.74961 1.4604 2.0476 2.42384 3.4743 3.16311 1.43273.74241 3.10315 1.31249 4.8371 1.74399 3.49407.86951 7.3353 1.331 9.93467 2.01602l.94047.24785.0564-.93642c.22406-2.78376.24834-7.42957-.14186-11.84645-.19484-2.20552-.47524-4.31787-.91623-6.18151-.44032-1.86081-.9755-3.47043-1.95961-4.64604l-.0626-.0819-.0621-.0143c-.85926-.84224-1.76393-1.33222-2.54244-1.3257-.7768.007-1.27773.40411-1.71557.74487-.43731.34035-.79366.69408-1.15732.86953-.30774.14848-.65622.10677-1.03681.0256-1.9881-1.50135-4.03685-5.15176-4.04501-8.64457-.004-1.70768.47492-3.48933 1.23895-4.77378.76555-1.287 1.83885-1.98261 2.71524-2.01601.88337-.0337 2.01571.6062 3.49356 1.47467 1.48426.87224 3.28696 1.85895 5.27255 1.65912.54534-.0549.70254-.35414.80793-.5712.10541-.21712.19159-.44877.24549-.69145.10779-.48545.18063-1.05483.23832-1.77493.11539-1.44033.16759-3.36755.15148-5.37462-.0162-2.00641-.0919-4.13265-.22808-5.98551-.13611-1.851633-.35799-3.407734-.65484-4.505652l-.1923-.776459-.74838-.138378c-2.84078-.508049-6.8388-.912365-10.43139-1.597501-1.78239-.339871-3.44839-.727054-4.80508-1.219801-1.3513-.490789-2.41379-1.139003-2.85566-1.641891-.21455-.244168-.1792-.294887-.0631-.797637.11613-.502877.46972-1.24083.87665-2.004304.40735-.764284.82629-1.577626 1.1135-2.492639.28741-.915639.42871-2.050828-.0759-3.163012-.73017-1.609346-1.83231-2.807266-3.20799-3.614968-1.37004-.804387-2.96821-1.238438-4.85174-1.517905z" fill="url(#linearGradient3249)" fill-rule="evenodd"/>
    <path d="m120.86161 78.295257c-3.61001-.541148-7.25059.296545-7.49529 3.561001-.18534 2.472483 3.29412 5.189677 1.9064 7.345679-2.08092 3.232988-9.16609-.09893-13.97428-.995359.0513 6.762604-.66368 14.364162-1.702199 16.438222-1.115944 2.2287-2.27149 2.39081-4.008383.71783-1.239579-1.19396-2.925272-4.05959-4.449521-4.37829-2.157951-.4512-4.794619 2.67613-4.785973 8.15043.0087 5.47942 2.808856 9.14769 4.927813 9.64885 1.798325.42533 3.58172-1.13335 5.199077-1.79082 1.867717-.75924 3.439461-.5184 3.756746 1.94688.24675 1.91728.91115 16.10953 1.08791 18.98683l.11689.0386c4.95805 1.33112 12.64145 4.55462 15.29211 2.64032 1.9349-1.39738-2.90282-7.01442-1.64458-9.37703 1.19746-2.24847 3.45744-2.46366 7.10279-1.52174 3.67869.95054 7.54295 3.37598 7.83249 6.86198.2196 2.64393-3.45524 3.86308-1.99175 6.70968 2.2178 4.3138 12.00609 4.79953 17.42143 6.21838.43215-5.37164.0836-18.31556-2.69149-21.63677-2.8547-2.8036-3.21252 1.5855-6.1363.64636-2.50124-1.7675-4.76135-5.93419-4.77039-9.93865-.009-3.8444 2.12985-7.59366 4.667-7.69444 2.56681-.10196 5.43903 3.52495 8.75945 3.1857.98388-.10052.8502-14.091476-.11681-17.673924-5.52982-.997578-15.92283-1.708287-18.68603-4.858767-1.98947-2.268306 2.94234-5.81124 1.61-8.752513-1.25857-2.778423-3.57204-3.930494-7.22711-4.478399z" fill="url(#radialGradient3251)" fill-rule="evenodd"/>
    <path d="m120.86276 78.295449c-3.61002-.541151-7.2506.296545-7.49531 3.561005-.008.109815-.004.210279.001.32091.28734-3.210962 3.90944-4.032444 7.49583-3.492781 3.65522.550019 5.9688 1.703503 7.2274 4.482821.12973.286489.21901.596818.24155.89379.0211-.425348-.0598-.881494-.24358-1.287326-1.25855-2.778424-3.57205-3.930512-7.22713-4.478419zm-5.30695 10.056796c-.0377.285785-.10877.580842-.28195.849901-2.08093 3.232994-9.16612-.09893-13.97433-.995364.00093.123548.00066.254535.001.378624 4.80838.899231 11.89381 4.235404 13.97482 1.003388.25981-.403514.30679-.797273.28038-1.236549zm10.44797 2.235913c-.0119.477999.11969.922579.47808 1.331423 2.76333 3.152265 13.15676 3.868959 18.6868 4.869746.24147.894712.45591 2.470734.58905 4.286193-.13396-1.980231-.33343-3.733468-.59173-4.690344-5.52982-.997579-15.92286-1.708292-18.68609-4.858779-.24935-.284301-.41734-.618956-.47611-.938239zm-25.16826 7.6242c-.30226 3.005332-.71931 5.396362-1.238192 6.432672-1.11594 2.2287-2.271493 2.39082-4.008399.71783-1.239582-1.19397-2.925283-4.05959-4.449533-4.3783-1.947626-.40722-4.253123 2.11322-4.683623 6.62628.526705-4.25797 2.795303-6.64871 4.684367-6.25264 1.524301.31959 3.210057 3.18636 4.449681 4.38111 1.736964 1.67408 2.892556 1.51262 4.008534-.71559.538735-1.07564.934255-3.64617 1.237165-6.811362zm31.02295 20.753512c.009 4.00473 2.26926 8.173 4.77059 9.94205 2.92392.94088 3.28174-3.44832 6.13656-.6429 1.38471 1.65805 2.17176 5.74512 2.55274 10.06761-.36693-4.47408-1.12654-8.76251-2.55533-10.47245-2.85471-2.8036-3.21252 1.58551-6.13632.64637-2.41696-1.70795-4.61513-5.66461-4.76824-9.54068zm-16.98165 13.4284c-.16025 2.03735 2.05795 5.35174 2.26794 7.32882.1468-1.77809-2.14278-5.108-2.26794-7.32882zm15.10179 4.48118c-.0713 1.93619-2.10224 3.14217-2.23837 4.92562.4035-1.66573 2.46362-2.79499 2.29892-4.77798-.004-.0513-.0548-.0968-.0606-.14764z" fill="url(#radialGradient3253)" fill-rule="evenodd"/>
    <path d="m120.86161 78.295257c-3.61001-.541148-7.25059.296545-7.49529 3.561001-.18534 2.472483 3.29412 5.189677 1.9064 7.345679-2.08092 3.232988-9.16609-.09893-13.97428-.995359.0513 6.762604-.66368 14.364162-1.702199 16.438222-1.115944 2.2287-2.27149 2.39081-4.008383.71783-1.239579-1.19396-2.925272-4.05959-4.449521-4.37829-2.157951-.4512-4.794619 2.67613-4.785973 8.15043.000173.10996-.0019.20104.000478.30951 22.471068 2.61995 43.540158.0446 59.475048-7.00741-.12838-2.532918-.34864-4.8868-.66315-6.051925-5.52982-.997578-15.92283-1.708287-18.68603-4.858765-1.98946-2.268306 2.94234-5.811241 1.61001-8.752514-1.25857-2.778423-3.57204-3.930505-7.22711-4.478409z" fill="url(#radialGradient3255)" fill-rule="evenodd"/>
    <path d="m127.24637 81.386043c.17272.277523.33321.61346.47758.932215 1.33079 2.93863-3.59575 6.48271-1.6085 8.74834.0127.01449.046-.0035.059.01084-1.10486-2.265697 3.15578-5.547998 1.90692-8.305037-.24029-.530467-.51538-.967064-.83497-1.38636zm17.59923 14.939402c.27359 1.242299.47983 3.311846.59733 5.632255-15.84112 7.02471-36.76906 9.59258-59.09729 7.05181-.000251.0423.000128.0812.000195.12379.000174.10997-.0013.20117.000479.30951 22.470596 2.61988 43.539236.0446 59.473796-7.00747-.1284-2.532887-.34864-4.886738-.66313-6.05185-.0881-.01588-.22087-.0423-.31138-.05805z" fill="url(#radialGradient3257)" fill-rule="evenodd" opacity=".619247"/>
    <path d="m120.86161 78.295257c-3.61001-.541148-7.25059.296545-7.49529 3.561001-.18534 2.472483 3.29412 5.189677 1.9064 7.345679-2.08092 3.232988-9.16609-.09893-13.97428-.995359.0513 6.762604-.66368 14.364162-1.702199 16.438222-1.115944 2.2287-2.27149 2.39081-4.008383.71783-1.239579-1.19396-2.925272-4.05959-4.449521-4.37829-2.157951-.4512-4.794619 2.67613-4.785973 8.15043.0087 5.47942 2.808856 9.14769 4.927813 9.64885 1.798325.42533 3.58172-1.13335 5.199077-1.79082 1.867717-.75924 3.439461-.5184 3.756746 1.94688.24675 1.91728.91115 16.10953 1.08791 18.98683l.11689.0386c4.95805 1.33112 12.64145 4.55462 15.29211 2.64032 1.9349-1.39738-2.90282-7.01442-1.64458-9.37703 1.19746-2.24847 3.45744-2.46366 7.10279-1.52174 3.67869.95054 7.54295 3.37598 7.83249 6.86198.2196 2.64393-3.45524 3.86308-1.99175 6.70968 2.2178 4.3138 12.00609 4.79953 17.42143 6.21838.43215-5.37164.0836-18.31556-2.69149-21.63677-2.8547-2.8036-3.21252 1.5855-6.1363.64636-2.50124-1.7675-4.76135-5.93419-4.77039-9.93865-.009-3.8444 2.12985-7.59366 4.667-7.69444 2.56681-.10196 5.43903 3.52495 8.75945 3.1857.98388-.10052.8502-14.091476-.11681-17.673924-5.52982-.997578-15.92283-1.708287-18.68603-4.858767-1.98947-2.268306 2.94234-5.81124 1.61-8.752513-1.25857-2.778423-3.57204-3.930494-7.22711-4.478399z" fill="none" stroke="url(#linearGradient3259)" stroke-width=".097471"/>
  </g>
</svg>
