<svg enable-background="new" height="256pt" viewBox="0 0 256 256" width="256pt" xmlns="http://www.w3.org/2000/svg" xmlns:xlink="http://www.w3.org/1999/xlink">
  <defs>
    <linearGradient id="linearGradient4862">
      <stop offset="0" stop-color="#ededed"/>
      <stop offset="1" stop-color="#c8c8c8" stop-opacity=".878752"/>
    </linearGradient>
    <linearGradient id="linearGradient4570" gradientTransform="matrix(3.8729584 -2.9573229 2.9573229 3.8729584 -85.836832 -1163.37)" gradientUnits="userSpaceOnUse" x1="-107.39664" x2="-108.02049" y1="227.49049" y2="236.49913">
      <stop offset="0" stop-color="#fff" stop-opacity="0"/>
      <stop offset=".5" stop-color="#fff" stop-opacity=".763505"/>
      <stop offset="1" stop-color="#fbe5ec" stop-opacity="0"/>
    </linearGradient>
    <linearGradient id="linearGradient4583" gradientUnits="userSpaceOnUse" x1="187.65421902246" x2="115.38358888955" y1="235.01282229293" y2="134.0777187863">
      <stop offset="0" stop-opacity=".470588"/>
      <stop offset=".30000001" stop-opacity=".470588"/>
      <stop offset=".30000001" stop-color="#57000c"/>
      <stop offset="1" stop-color="#090909" stop-opacity="0"/>
    </linearGradient>
    <linearGradient id="linearGradient4854" gradientUnits="userSpaceOnUse" x1="129.69791020442" x2="74.3463887829" y1="186.99738378408" y2="11.82602708461">
      <stop offset="0" stop-color="#a80030"/>
      <stop offset="1" stop-color="#8f0a24"/>
    </linearGradient>
    <linearGradient id="linearGradient4856" gradientUnits="userSpaceOnUse" x1="106.58052134641" x2="65.35174151716" y1="93.71372539046" y2="16.87273840346">
      <stop offset="0" stop-color="#fff" stop-opacity=".133253"/>
      <stop offset="1" stop-color="#fff" stop-opacity=".202881"/>
    </linearGradient>
    <linearGradient id="linearGradient4864" gradientUnits="userSpaceOnUse" x1="51.0221776391" x2="176.04380562142" xlink:href="#linearGradient4862" y1="14.86157769867" y2="245.09956899982"/>
    <linearGradient id="linearGradient4872" gradientUnits="userSpaceOnUse" x1="49.93281679146" x2="204.94010922031" xlink:href="#linearGradient4862" y1="127.37552281384" y2="127.37552281384"/>
    <filter id="filter951" color-interpolation-filters="sRGB" height="1.173315" width="1.083954" x="-.041977" y="-.086658">
      <feGaussianBlur stdDeviation=".57302533"/>
    </filter>
  </defs>
  <path d="m18.817207 283.00875 27.594065 9.53955 4.755842-4.85923c.89572-.76326.200839-2.94244-.827102-3.67027l-22.07331-7.34054z" filter="url(#filter951)" opacity=".476" transform="matrix(4.8729422 0 0 4.8729422 -43.519806 -1172.0296)"/>
  <path d="m52.205781 203.27715 124.052549 42.97887 21.16382-20.18704 5.20955-125.35493-151.40271-15.954307z" fill="#fefbfc"/>
  <path d="m177.88631 196.7652 21.48942-15.30304 4.88397-112.656674c-.00585-15.087067-11.15165-33.625981-37.1181-42.653204l-99.795548-18.0706724c-15.698812 2.2111954-15.425713 7.3580454-16.117062 12.2098874l.976791 172.892133c21.727246-11.99353 34.798148-15.79437 69.677809-14.3263 34.87966 1.46807 41.81181 8.60927 56.00272 17.90787z" fill="url(#linearGradient4854)"/>
  <path d="m53.833768 13.799325c-.970427 5.611826-.87119 8.61161 8.465528 11.376127l83.027304 14.651865c24.82343 8.062332 35.38211 16.26325 34.8389 44.606865l-3.90717 161.821838" fill="none" stroke="url(#linearGradient4864)" stroke-width="1.2893"/>
  <path d="m197.42215 226.06898s4.67098-101.37406 6.83754-155.635492c.80124-20.067215-11.78101-36.59643-39.39726-45.583597l-97.841979-16.4426227c-6.532978.6738792-15.660101 4.7011227-16.442656 11.5586677l1.627986 183.311214 124.052549 42.97887z" fill="none" stroke="url(#linearGradient4872)" stroke-width="1.2893"/>
  <path d="m156.71076 42.452396 18.69014-13.081472c20.64342 10.138508 28.81944 22.987318 29.52193 37.460803l-23.89974 13.407068c-1.60988-21.087932-11.47406-31.381802-24.31233-37.786399z" fill="url(#linearGradient4570)"/>
  <path d="m176.25833 246.25602 4.76474-166.017198 23.89975-13.407072-7.50067 159.23723z" fill="url(#linearGradient4583)"/>
  <g transform="matrix(2.883107 0 0 2.883107 23.712709 -794.82358)">
    <path d="m47.451894 320.49473c-.39426 9.9105-7.751159 15.70978-16.015305 13.25885-7.830402-2.32229-13.815429-11.33025-13.730857-20.37695.08615-9.2157 6.427253-15.68439 14.552716-14.22077 8.592127 1.54768 15.595852 11.2237 15.193446 21.33887z" fill="#fffbfc"/>
    <g transform="matrix(.26458333 0 0 .26458333 20.902229 300.09242)">
      <path d="m49.943754 68.095065c-1.84439-.421572.325646.99583 2.733003 1.938427.682821-.336334 1.304689-.694118 1.860701-1.054582-1.521194-.0123-3.055723-.375855-4.593704-.883845" fill="#a80030"/>
      <path d="m60.011668 68.128166c1.163699-1.200153 2.029815-2.61546 2.367986-4.21421-.287339 1.129069-.997006 1.992997-1.667257 2.921625-3.568983 1.258933-.295025-1.328343.07112-2.525566-3.902606 3.615682-.598316 2.588962-.771851 3.818151" fill="#a80030"/>
      <path d="m64.025603 59.771973c.326222-3.190445-.606747-2.371829-.946227-1.204777.348293.255845.56532 2.429333.946227 1.204777" fill="#a80030"/>
      <path d="m44.328377 10.899105c.985879.364255 2.133816.719494 1.966601.919483 1.09258-.02248 1.344832-.189096-1.966601-.919483" fill="#a80030"/>
      <path d="m46.294978 11.818588-.704768.0058.654028.06961.05074-.07538" fill="#a80030"/>
      <path d="m76.585752 63.933446c.0178 2.962132-1.060198 4.140763-2.070301 6.432775l-1.689911.381557c-1.437551 2.147691.08081 1.603987-.955053 3.33612-2.169555 1.24955-6.558502 3.939983-7.928921 3.943778-.990055-.266157.705577-.938424.936435-1.309782-2.844687 1.119502-2.321059 2.16121-6.595958 2.198892l-.11642-.291271c-10.446881 2.02764-24.274471-10.558174-23.821241-22.908396-.124393.764124-.317354.520767-.546474.787426-.379162-6.522664 3.328272-12.176348 9.462751-13.480749 6.079853-1.555443 13.175325 1.194435 17.460188 6.083299-2.332006-3.561043-7.031406-7.812204-12.664174-8.73888-5.458205-1.105946-10.590374 1.125953-12.34622 4.363478-2.77259 1.067038-3.191082 5.784137-4.394897 6.38557-1.824946 11.030756 2.647525 17.056405 10.330493 24.786337 1.219476 1.114442.326452 1.012225.479531 1.665943-2.580385-1.832264-4.918419-4.200798-6.819276-6.854682 1.000908 1.721943 2.086023 3.425542 3.507083 4.908018-2.427209-1.413614-5.571862-7.142419-6.51459-7.575624 4.033707 8.324942 16.892035 17.14182 23.886788 16.16054-3.216868-.706076-7.272592-1.789704-10.80549-3.956411-1.472684-1.113525-3.457879-3.146733-3.090144-3.340847 9.272645 5.711954 19.122268 7.390841 27.68617 3.17707 2.201612-1.037948 4.649988-3.137675 5.33556-3.007492-1.077902 1.195501.152999.73998-.680612 1.824114 2.271097-2.728521-.893691-1.553786 2.423744-5.084664l1.126625 1.798158c-.346611-2.820127 3.834024-5.155265 3.569444-9.574215.984153-1.105172.997199 1.668522-.10352 4.473417 1.498356-3.047138.499323-3.828587.951692-6.53411.351223 1.027075.820501 2.141247 1.044474 3.191119-.787028-3.477856 1.121899-5.295783 1.643341-7.098573-.440787-.286631-1.44776 1.131157-1.528245-2.792527.09093-1.678001.533783-.770101.730365-1.144089-.348404-.269835-1.233845-1.770947-1.713082-4.376845.430805-.492453 1.044274 1.755123 1.600315 1.965488-.290216-2.054352-.856825-3.697371-.828989-5.219531-1.52126-3.547104-.592357.299113-1.853195-1.783944-1.559231-5.443369 1.481672-.864887 1.777206-3.127126 2.51692 4.149627 3.829006 10.024611 4.439732 12.472589-.428307-2.914386-1.186336-5.814721-2.135823-8.6675.793024.49021-1.090309-6.048534 1.108209-1.513372-2.197288-9.14067-10.078051-18.856427-17.373083-24.100225.878141.965906 1.988425 2.181464 1.573434 2.254644-3.599683-2.807056-2.951834-2.841861-3.448904-3.823559-2.936265-1.739454-3.16759-.529925-5.123355-1.006409-5.458597-3.910502-6.528624-3.816974-11.525402-6.558632l.201585 1.08063c-3.575753-1.865099-4.208955-.372274-8.064746-1.560402-.23029-.224572 1.251852-.408948 2.469312-.346765-3.462816-.222705-3.275258-1.300023-6.652543-1.162766.839121-.409456 1.72239-.61761 2.617946-.9321819-2.801704-.3708812-6.690994.3111989-5.474647-.755036-4.55335 1.1138459-12.525519 2.3364259-16.989705 5.5680939l-.121698-.94433c-2.0395 1.996594-8.771733 5.375746-9.3445944 8.338407l-.5265404.01355c-1.0453805 1.522656-1.732216 3.348122-2.5634744 4.95734-1.3570849 1.988639-1.9537095.458684-1.7705342.855195-2.6640466 4.737984-4.00288394 8.889795-5.15215807 12.267297.77075656 1.363675-.0698044 7.122194.16724669 11.928017-1.56715342 22.886017 15.76263078 50.062448 35.54818878 60.899188 2.949561 1.86591 7.400085 3.09887 11.209887 4.29385-4.465885-2.50449-5.05822-2.09662-9.366303-4.77808-3.081246-2.28724-3.726387-4.08228-5.880481-6.52995l.835613 1.7191c-4.253947-2.66391-2.457386-2.51084-5.910076-4.54406l.941893-.90657c-1.379015-.48424-3.607414-3.263687-4.204242-4.6249l-1.501664-.354085c-1.758543-2.656134-2.686756-4.475701-2.595761-5.665405l-.497042.710205c-.53002-1.065083-6.426471-9.863392-3.338011-7.365541-.571489-.675198-1.336274-1.205908-2.14627-2.91921l.646073-.548671c-1.468166-2.293982-2.687079-5.05849-2.578969-5.846792.78152 1.272028 1.332773 1.614586 1.879053 1.938955-3.6347002-10.249379-3.9782555-1.540518-6.6921668-11.180975l.6020275.102127c-.4511108-.806833-.7201053-1.627808-1.0802552-2.457074l.2986311-2.536915c-2.6544658-3.776242-.5691935-13.484839-.0989328-19.002389.3042026-2.224095 2.3412134-4.212364 3.927373-7.7093l-.9301264-.366297c1.8318236-2.72868 10.4873716-10.398564 14.4643096-9.073981 1.987583-2.013719-.384465-.08928-.75165-.776371 4.353586-3.497593 5.678024-1.93082 8.60263-2.124894 3.194126-1.19882-2.707314.163465-1.192467-.948734 5.483017-.259717 3.926199-2.333467 11.122801-1.587387.75285.577772-1.781527.298971-2.427036.720158 4.666845-1.279137 14.776727 1.25491 21.364022 5.569368 7.726271 5.101156 16.303352 17.35074 16.33436 27.170898l.39798.191426c-.331336 3.813947.352556 8.459532-1.221799 12.206487z" fill="#a80030"/>
      <path d="m30.088049 65.689464-.274987 1.15668c1.138756 1.837668 2.033709 3.746975 3.507744 5.331784-1.035766-2.315666-1.818916-3.359438-3.232757-6.488464" fill="#a80030"/>
      <path d="m32.865595 66.26034c-.60819-.821384-.959325-1.717198-1.354209-2.620494.364058 1.507479 1.145536 2.917296 1.871353 4.334867z" fill="#a80030"/>
      <path d="m84.744545 67.945257-.312482.604736c-.651709 3.362653-1.910795 6.532326-3.760184 9.292764 2.03829-2.892223 3.415654-6.278072 4.072666-9.8975" fill="#a80030"/>
      <path d="m44.715836 10.10037c1.266933-.2084197 3.098644.346618 4.446028.306713-1.749328-.191565-3.483472-.4384926-5.193737-.5504524z" fill="#a80030"/>
      <path d="m2.037501 23.908555c.2336224 2.548332-1.89429284 3.059273.4459937 1.916317 1.2858304-2.575186-.4765718-.887291-.4459937-1.916317" fill="#a80030"/>
      <path d="m-.82779084 34.806208c.55175823-1.531152.66047667-2.50143.87564439-3.412631-1.49221095 1.576257-.70500667 2.156136-.87564439 3.412631" fill="#a80030"/>
    </g>
  </g>
  <path d="m53.833768 13.45398c-2.68561 2.794145-3.141571 5.312238-3.255973 6.511956l.32561 105.819104c11.022307-35.672565 52.133105-42.647743 62.189065-44.606861s37.74014-1.997273 66.09624 6.837566c3.88121-25.594934-6.76308-40.258153-33.8621-48.188428l-83.027299-14.651865c-3.616103-1.041786-11.045727-2.970886-8.465543-11.721472z" fill="url(#linearGradient4856)"/>
</svg>
