<svg height="256" width="256" xmlns="http://www.w3.org/2000/svg" xmlns:xlink="http://www.w3.org/1999/xlink">
  <defs>
    <filter id="filter3834" color-interpolation-filters="sRGB" height="1.064318" width="1.080929" x="-.040464" y="-.032159">
      <feGaussianBlur stdDeviation="1.50075"/>
    </filter>
    <filter id="filter3826" color-interpolation-filters="sRGB" height="1.044321" width="1.055874" x="-.027937" y="-.02216">
      <feGaussianBlur stdDeviation="1.036"/>
    </filter>
    <linearGradient id="linearGradient4524-4" gradientTransform="matrix(2 0 0 -2 -7.01182 257.00001)" gradientUnits="userSpaceOnUse" x1="72" x2="72" y1="0" y2="116.40091">
      <stop offset="0" stop-color="#ffb28d"/>
      <stop offset="1" stop-color="#ffdecf"/>
    </linearGradient>
    <filter id="filter1164" color-interpolation-filters="sRGB" height="1.096" width="1.090435" x="-.045217" y="-.048">
      <feGaussianBlur stdDeviation=".65000024"/>
    </filter>
    <radialGradient id="radialGradient5988-0" cx="64" cy="64.004021" fx="63.793392" fy="47.274845" gradientTransform="matrix(3.368421 .16859038 .13772678 -2.7517692 -103.40582 294.32648)" gradientUnits="userSpaceOnUse" r="47.5">
      <stop offset="0" stop-color="#fff"/>
      <stop offset="1" stop-color="#fff" stop-opacity="0"/>
    </radialGradient>
    <clipPath id="clipPath6093-7">
      <path d="m17.000001 8-.000001 112h61.5c1.675283 0 3.914297-.56468 7-3.6 8.870045-8.72523 16.24047-13.8518 23.49904-21.175957 2.44056-2.462612 3.00096-4.47117 3.00096-6.724043v-80.5z"/>
    </clipPath>
    <filter id="filter6171-8" color-interpolation-filters="sRGB" height="2.02159" width="1.956141" x="-.47807" y="-.510795">
      <feGaussianBlur stdDeviation="10.140743"/>
    </filter>
    <linearGradient id="linearGradient3895-3" gradientTransform="matrix(2.0239716 0 0 -2.0239716 -.8029 246.97433)" gradientUnits="userSpaceOnUse" x1="86.73793" x2="93.189758" y1="93.621468" y2="100.45876">
      <stop offset="0" stop-color="#f2c0ae"/>
      <stop offset=".72817403" stop-color="#c84f2f"/>
      <stop offset="1" stop-color="#89301e"/>
    </linearGradient>
    <linearGradient id="linearGradient3228" gradientUnits="userSpaceOnUse" x1="165.49706" x2="105.91904" y1="239.31187" y2="17.163004">
      <stop offset="0" stop-color="#e02901"/>
      <stop offset="1" stop-color="#f07429"/>
    </linearGradient>
    <radialGradient id="radialGradient920" cx="-17.366652" cy="21.667215" gradientTransform="matrix(1.4230404 0 0 1.7299948 105.21039 17.304598)" gradientUnits="userSpaceOnUse" r="18.109375" xlink:href="#linearGradient3863"/>
    <linearGradient id="linearGradient3863">
      <stop offset="0" stop-color="#f58b25"/>
      <stop offset="1" stop-color="#d63c04"/>
    </linearGradient>
    <linearGradient id="linearGradient928" gradientUnits="userSpaceOnUse" x1="62.79992252531" x2="117.55180036663" xlink:href="#linearGradient3863" y1="34.13249151875" y2="96.5077846242"/>
    <linearGradient id="linearGradient3935" gradientTransform="matrix(1.7464114 -.42183633 .42183633 1.7464114 -199.97255 -76.178915)" gradientUnits="userSpaceOnUse" x1="113.99281" x2="183.73698" y1="151.63486" y2="168.32143">
      <stop offset="0" stop-color="#ff844b"/>
      <stop offset="1" stop-color="#f62"/>
    </linearGradient>
    <linearGradient id="linearGradient2336" gradientTransform="matrix(1.7489343 -.41125087 .41125087 1.7489343 -289.68925 -248.78829)" gradientUnits="userSpaceOnUse" x1="136.20087" x2="203.72942" y1="290.29898" y2="306.03467">
      <stop offset="0" stop-color="#ff824c"/>
      <stop offset="1" stop-color="#f62"/>
    </linearGradient>
  </defs>
  <path d="m-128.8111-19.056071v112h56.187504c5.114947-.238308 32.613203-27.078301 32.775-30.612499.08138-25.126708.0375-56.2589983.0375-81.387501z" filter="url(#filter3834)" opacity=".262376" transform="matrix(2 0 0 -2 296.61038 201.88787)"/>
  <path d="m-128.8111-19.556071v112.2h55.746422c3.098719 0 24.709876-18.512112 30.003672-24.699929 1.602664-1.873324 3.24991-3.03751 3.24991-7.20007v-80.300001z" fill-opacity=".700535" filter="url(#filter3826)" transform="matrix(2 0 0 -2 296.61038 201.88787)"/>
  <path d="m38.98818 241.00001v-223.999998h111.00001c3.35056 0 7.82859 1.12936 14 7.2 17.74009 17.45046 32.48094 27.703618 46.99808 42.351918 4.88112 4.92522 6.00192 8.94234 6.00192 13.44808v161z" fill="url(#linearGradient3228)" stroke-width="2"/>
  <path d="m41.98818 239.00001c-.67968 0-1-.46923-1-1v-215.937498c0-1.64316 1.35864-3 3-3h103.37501c.10614 0 1.62077-.0468 3-.0626 3.55533.0802 6.26395 1.50748 8.71207 3.18656 2.10373.58206 33.29967 27.239178 51.54191 45.618478 2.72478 2.74524 4.37092 7.89634 4.37092 9.79122l.0001 160.40384c0 .64544-.32644 1-1 1z" fill="url(#linearGradient4524-4)" stroke-width="2"/>
  <path d="m41.98818 239.00001c-.67968 0-1-.46923-1-1v-215.937498c0-1.64316 1.35864-2.999022 3-3l105.00001-.0626c.10614-.000064 6.54777.016 7.927-.0001 13.08194 9.00722 37.2746 31.906578 55.16506 49.910198 2.9537 3.31296.9152.74012 2.90782 3.2149l.00012 165.875c0 .64544-.32644 1-1 1z" fill="url(#radialGradient5988-0)" opacity=".846535" stroke-width="2"/>
  <path d="m-39.811096 59.94691c0 4.46531-3.067448 5.978576-5.549678 7.662246-5.10854 3.46508-13.669156 1.756744-19.450326 1.837764-.081 5.78116 1.723142 12.231893-1.741938 17.340433-1.68367 2.48224-4.847792 5.659577-7.758062 5.659577 2.31803 0 4.74284-1.334761 7.58402-4.084811 9.14197-8.84873 14.36714-11.135349 22.673154-20.297529 1.91895-2.11675 4.24283-3.64188 4.24283-8.11768z" filter="url(#filter1164)" opacity=".4" transform="matrix(2 0 0 -2 296.61038 201.88787)"/>
  <path clip-path="url(#clipPath6093-7)" d="m114.4 82.502986c0 4.465301-4.99749 12.609952-7.47972 14.293625-5.10854 3.465079-12.739114 1.52536-18.520284 1.60638-.081 5.781159 1.96586 11.304599-1.49922 16.413139-1.68367 2.48224-9.79051 8.68687-12.70078 8.68687-2.091359 1.5337 3.488204 8.21101 6.734971 5.31989 9.501888-8.46107 35.131683-30.022704 43.350823-39.262889 2.04044-2.29392-4.90514-9.844666-9.88579-7.057015z" filter="url(#filter6171-8)" opacity=".277228" transform="matrix(2 0 0 -2 -7.01182 257.00001)"/>
  <path d="m216.98819 79.99405c0-8.93062-5.59498-12.81992-10.55944-16.18726-10.21708-6.93016-21.87823-6.65072-33.44057-6.81276-.162-11.56232.33172-19.009198-6.59844-29.226278-3.36734-4.96448-10.58102-10.773742-16.40156-10.773742 4.63606 0 8.88785 3.363424 15.16804 8.169622 19.0787 14.60084 26.40937 20.968606 43.34631 38.595058 3.95915 4.12033 8.48566 7.28376 8.48566 16.23536z" fill="url(#linearGradient3895-3)"/>
  <path d="m217.02569 78.57501c-.63286-7.7982-7.04582-11.80562-11.7-14.9625-10.21708-6.93016-22.67516-4.65046-34.2375-4.8125-.162-11.56232 1.70516-20.632918-5.225-30.849998-2.94642-4.34392-8.19891-9.3202-13.525-10.500002 3.96092.724602 7.76986 3.322782 12.5375 7.937502.67823.77706 1.14859 1.3579 2.2125 3 6.93016 10.21708 5.84737 16.931438 6.00937 28.493758 11.56234.162 23.43605-.42392 33.65313 6.50624.93084.63138 3.18798 2.3755 4.0125 3.2 3.07258 3.07258 5.80342 5.22684 6.2625 11.9875zm-64.6875-61.125c-.31532-.0698-.62688-.0828-.9375-.125.31398.0338.62088.067.9375.125z" fill="#f2ddd3"/>
  <path d="m111.27983 190.31718 71.90938-.29817m-107.864055.44723 11.984878-.0497m23.553167 29.5277 71.90934-.29817m-107.864054.44727 11.984897-.0499" fill="none" stroke="url(#linearGradient2336)" stroke-width="12.8498"/>
  <path d="m79.581675 159.55661 24.867355-20.03536 40.3459 14.14485 28.93822-29.85878m13.36466 46.22416-.0669-59.13136-118.128766.23206.06686 59.13136z" fill="none" stroke="url(#linearGradient3935)" stroke-width="7.55519"/>
  <path d="m114.34067 53.966117q0 6.047922-2.75714 10.806213-2.75714 4.758291-7.91567 7.382022-5.114048 2.579261-12.18478 2.579261h-15.564504v22.057126h-13.118653v-62.658248h28.149517q11.25091 0 17.29883 5.202992 6.0924 5.158521 6.0924 14.630634zm-13.2076.22235q0-9.872343-11.65114-9.872343h-13.563354v20.322796h13.919114q5.425341 0 8.360362-2.668201 2.935018-2.71267 2.935018-7.782252z" fill="url(#radialGradient920)" stroke="url(#linearGradient928)" stroke-width="1.42304"/>
</svg>
