<svg height="256" width="256" xmlns="http://www.w3.org/2000/svg" xmlns:xlink="http://www.w3.org/1999/xlink">
  <defs>
    <filter id="filter3834" color-interpolation-filters="sRGB" height="1.064318" width="1.080929" x="-.040464" y="-.032159">
      <feGaussianBlur stdDeviation="1.50075"/>
    </filter>
    <filter id="filter3826" color-interpolation-filters="sRGB" height="1.044321" width="1.055874" x="-.027937" y="-.02216">
      <feGaussianBlur stdDeviation="1.036"/>
    </filter>
    <linearGradient id="linearGradient4524-4" gradientTransform="matrix(2 0 0 -2 -7.01182 257.00001)" gradientUnits="userSpaceOnUse" x1="72" x2="72" y1="0" y2="116.40091">
      <stop offset="0" stop-color="#eeecec"/>
      <stop offset=".40000001" stop-color="#f4f4f4"/>
      <stop offset="1" stop-color="#f6f5f5"/>
    </linearGradient>
    <filter id="filter1164" color-interpolation-filters="sRGB" height="1.096" width="1.090435" x="-.045217" y="-.048">
      <feGaussianBlur stdDeviation=".65000024"/>
    </filter>
    <radialGradient id="radialGradient5988-0" cx="64" cy="64.004021" fx="63.793392" fy="47.274845" gradientTransform="matrix(3.368421 .16859038 .13772678 -2.7517692 -103.40582 294.32648)" gradientUnits="userSpaceOnUse" r="47.5" xlink:href="#linearGradient3872"/>
    <linearGradient id="linearGradient3872">
      <stop offset="0" stop-color="#fff"/>
      <stop offset="1" stop-color="#fff" stop-opacity="0"/>
    </linearGradient>
    <clipPath id="clipPath6093-7">
      <path d="m17.000001 8-.000001 112h61.5c1.675283 0 3.914297-.56468 7-3.6 8.870045-8.72523 16.24047-13.8518 23.49904-21.175957 2.44056-2.462612 3.00096-4.47117 3.00096-6.724043v-80.5z"/>
    </clipPath>
    <filter id="filter6171-8" color-interpolation-filters="sRGB" height="2.02159" width="1.956141" x="-.47807" y="-.510795">
      <feGaussianBlur stdDeviation="10.140743"/>
    </filter>
    <linearGradient id="linearGradient3895-3" gradientTransform="matrix(2.0239716 0 0 -2.0239716 -.8029 246.97433)" gradientUnits="userSpaceOnUse" x1="86.73793" x2="93.189758" y1="93.621468" y2="100.45876">
      <stop offset="0" stop-color="#fcfcfc"/>
      <stop offset=".52275378" stop-color="#f8f8f8"/>
      <stop offset=".72337759" stop-color="#f0efef"/>
      <stop offset=".89024991" stop-color="#e3e1e1"/>
      <stop offset="1" stop-color="#cecbcb"/>
    </linearGradient>
    <filter id="filter1029" color-interpolation-filters="sRGB" height="1.243503" width="1.186454" x="-.101295" y="-.110707">
      <feGaussianBlur stdDeviation="1.3404607"/>
    </filter>
    <radialGradient id="radialGradient1396" cx="75.017433" cy="199.27237" gradientTransform="matrix(1 0 0 .99780592 0 .42135)" gradientUnits="userSpaceOnUse" r="47.035664">
      <stop offset="0" stop-color="#56a1da" stop-opacity=".7"/>
      <stop offset="1" stop-color="#95b2c8" stop-opacity=".501961"/>
    </radialGradient>
    <linearGradient id="linearGradient1380" gradientUnits="userSpaceOnUse" x1="40.091965" x2="104.7505" y1="165.72571" y2="233.09932">
      <stop offset="0" stop-color="#616161"/>
      <stop offset="1" stop-color="#282828"/>
    </linearGradient>
    <radialGradient id="radialGradient1342" cx="72.903053" cy="192.06075" gradientUnits="userSpaceOnUse" r="6.13895" xlink:href="#linearGradient1348"/>
    <linearGradient id="linearGradient1348">
      <stop offset="0" stop-color="#3c6ff4"/>
      <stop offset="1" stop-color="#1569d9"/>
    </linearGradient>
    <radialGradient id="radialGradient1364" cx="19.170671" cy="222.4828" gradientUnits="userSpaceOnUse" r="6.13895" xlink:href="#linearGradient1348"/>
    <radialGradient id="radialGradient1356" cx="107.52401" cy="236.46091" gradientUnits="userSpaceOnUse" r="6.13895" xlink:href="#linearGradient1348"/>
    <radialGradient id="radialGradient1334" cx="67.88024" cy="145.10686" gradientUnits="userSpaceOnUse" r="6.13895" xlink:href="#linearGradient1348"/>
    <linearGradient id="linearGradient4185" gradientUnits="userSpaceOnUse" x1="217.16058" x2="217.16058" y1="124.8269" y2="69.528954">
      <stop offset="0"/>
      <stop offset="1" stop-opacity="0"/>
    </linearGradient>
    <filter id="filter4275" height="1.309663" width="1.145018" x="-.072509" y="-.154831">
      <feGaussianBlur stdDeviation="2.2260123"/>
    </filter>
    <radialGradient id="radialGradient4187" cx="189.03362" cy="72.302116" fx="186.98212" fy="96.034042" gradientTransform="matrix(1.0394788 0 0 .84439331 6.787183 10.311332)" gradientUnits="userSpaceOnUse" r="37.097149">
      <stop offset="0" stop-color="#ffbf38"/>
      <stop offset="1" stop-color="#cf6600"/>
    </radialGradient>
    <linearGradient id="linearGradient4189" gradientUnits="userSpaceOnUse" x1="349.72412" x2="349.72412" y1="90.92189" y2="37.703979">
      <stop offset="0" stop-color="#910000"/>
      <stop offset="1" stop-color="#ff9506"/>
    </linearGradient>
    <clipPath id="clipPath4127">
      <path d="m344.82677 37.5c-.97662.0013-1.98217.274248-2.75.8125-.78313.546824-1.17298 1.201696-1.21875 1.84375-.0458.642054.25271 1.310425.9375 1.875 3.18863 2.517246 6.36503 5.114994 9.5625 7.625l.75.625h-.96875-29.4375c-1.61843 0-2.85982.363675-3.75 1s-1.43172 1.541241-1.625 2.625c-.32679 1.83243 1.10652 4.1875 3.8125 4.1875 4.95435.0065 9.96311-.02145 14.9375-.03125h1.03125l-.84375.625-26.625 19.71875h-.0313c.0144-.0058.0275.02521-.0625.09375-1.19727.918198-2.01143 2.130496-2.3125 3.34375s-.0949 2.389641.625 3.3125c1.46606 1.878085 4.63431 1.92893 7.0625-.03125l14.53125-11.90625c.30908-.263073.5984-.01977.5625.28125 0 0-.2014 1.619114-.1875 2.53125.0153.90323.30166 2.814218.75 4.25.95969 3.059665 2.60501 5.870863 4.875 8.375 2.32704 2.567813 5.18767 4.626089 8.5 6.09375 3.4866 1.542745 7.26956 2.34995 11.1875 2.34375 3.91845-.0083 7.70284-.821203 11.1875-2.375 3.31076-1.482027 6.14235-3.549441 8.46875-6.125 2.26501-2.514183 3.91538-5.344857 4.875-8.40625.48472-1.545701.74882-3.138254.875-4.71875.12128-1.553809.0954-3.07657-.125-4.625-.42899-3.028886-1.48024-5.872985-3.09375-8.46875-1.47955-2.381865-3.39092-4.461287-5.65625-6.21875l-23.1875-17.8125v-.03125c-.0904-.0751-.10767-.08391-.0313-.03125h-.0313c-.68578-.525142-1.61198-.78265-2.5936-.78125z"/>
    </clipPath>
    <filter id="filter4137" height="1.060902" width="1.049338" x="-.024655" y="-.030451">
      <feGaussianBlur stdDeviation=".54778637"/>
    </filter>
    <linearGradient id="linearGradient4191" gradientUnits="userSpaceOnUse" x1="34.653126" x2="34.653126" y1="34.57774" y2="18.921917">
      <stop offset="0" stop-color="#fff"/>
      <stop offset="1" stop-color="#dadada"/>
    </linearGradient>
    <radialGradient id="radialGradient4193" cx="-60.200909" cy="70.768074" fx="-59.847355" fy="76.968933" gradientTransform="matrix(1 0 0 .91226931 264.22229 6.308615)" gradientUnits="userSpaceOnUse" r="9.207007">
      <stop offset="0" stop-color="#67a4f2"/>
      <stop offset="1" stop-color="#1161c7"/>
    </radialGradient>
    <radialGradient id="radialGradient4195" cx="27.738966" cy="21.727385" gradientTransform="matrix(2.7611366 0 0 2.1253361 187.79384 19.235401)" gradientUnits="userSpaceOnUse" r="20.278975" xlink:href="#linearGradient3872"/>
    <radialGradient id="radialGradient4197" cx="31.967321" cy="21.498756" gradientTransform="matrix(2.7611366 0 0 2.1253361 125.4818 19.918828)" gradientUnits="userSpaceOnUse" r="20.278975" xlink:href="#linearGradient3872"/>
    <radialGradient id="radialGradient4199" cx="22.361021" cy="12.910742" gradientTransform="matrix(4.9935111 0 0 3.8436669 75.28278 -3.349524)" gradientUnits="userSpaceOnUse" r="20.278975" xlink:href="#linearGradient3872"/>
    <filter id="filter4168" height="1.049329" width="1.032946" x="-.016473" y="-.024665">
      <feGaussianBlur stdDeviation=".47627268"/>
    </filter>
  </defs>
  <path d="m-128.8111-19.056071v112h56.187504c5.114947-.238308 32.613203-27.078301 32.775-30.612499.08138-25.126708.0375-56.2589983.0375-81.387501z" filter="url(#filter3834)" opacity=".262376" transform="matrix(2 0 0 -2 296.61038 201.88787)"/>
  <path d="m-128.8111-19.556071v112.2h55.746422c3.098719 0 24.709876-18.512112 30.003672-24.699929 1.602664-1.873324 3.24991-3.03751 3.24991-7.20007v-80.300001z" fill-opacity=".700535" filter="url(#filter3826)" transform="matrix(2 0 0 -2 296.61038 201.88787)"/>
  <path d="m38.98818 241.00001v-223.999998h111.00001c3.35056 0 7.82859 1.12936 14 7.2 17.74009 17.45046 32.48094 27.703618 46.99808 42.351918 4.88112 4.92522 6.00192 8.94234 6.00192 13.44808v161z" fill="#fff" stroke-width="2"/>
  <path d="m41.98818 239.00001c-.67968 0-1-.46923-1-1v-215.937498c0-1.64316 1.35864-3 3-3h103.37501c.10614 0 1.62077-.0468 3-.0626 3.55533.0802 6.26395 1.50748 8.71207 3.18656 2.10373.58206 33.29967 27.239178 51.54191 45.618478 2.72478 2.74524 4.37092 7.89634 4.37092 9.79122l.0001 160.40384c0 .64544-.32644 1-1 1z" fill="url(#linearGradient4524-4)" stroke-width="2"/>
  <path d="m41.98818 239.00001c-.67968 0-1-.46923-1-1v-215.937498c0-1.64316 1.35864-2.999022 3-3l105.00001-.0626c.10614-.000064 6.54777.016 7.927-.0001 13.08194 9.00722 37.2746 31.906578 55.16506 49.910198 2.9537 3.31296.9152.74012 2.90782 3.2149l.00012 165.875c0 .64544-.32644 1-1 1z" fill="url(#radialGradient5988-0)" opacity=".846535" stroke-width="2"/>
  <path d="m-39.811096 59.94691c0 4.46531-3.067448 5.978576-5.549678 7.662246-5.10854 3.46508-13.669156 1.756744-19.450326 1.837764-.081 5.78116 1.723142 12.231893-1.741938 17.340433-1.68367 2.48224-4.847792 5.659577-7.758062 5.659577 2.31803 0 4.74284-1.334761 7.58402-4.084811 9.14197-8.84873 14.36714-11.135349 22.673154-20.297529 1.91895-2.11675 4.24283-3.64188 4.24283-8.11768z" filter="url(#filter1164)" opacity=".4" transform="matrix(2 0 0 -2 296.61038 201.88787)"/>
  <path clip-path="url(#clipPath6093-7)" d="m114.4 82.502986c0 4.465301-4.99749 12.609952-7.47972 14.293625-5.10854 3.465079-12.739114 1.52536-18.520284 1.60638-.081 5.781159 1.96586 11.304599-1.49922 16.413139-1.68367 2.48224-9.79051 8.68687-12.70078 8.68687-2.091359 1.5337 3.488204 8.21101 6.734971 5.31989 9.501888-8.46107 35.131683-30.022704 43.350823-39.262889 2.04044-2.29392-4.90514-9.844666-9.88579-7.057015z" filter="url(#filter6171-8)" opacity=".277228" transform="matrix(2 0 0 -2 -7.01182 257.00001)"/>
  <path d="m216.98819 79.99405c0-8.93062-5.59498-12.81992-10.55944-16.18726-10.21708-6.93016-21.87823-6.65072-33.44057-6.81276-.162-11.56232.33172-19.009198-6.59844-29.226278-3.36734-4.96448-10.58102-10.773742-16.40156-10.773742 4.63606 0 8.88785 3.363424 15.16804 8.169622 19.0787 14.60084 26.40937 20.968606 43.34631 38.595058 3.95915 4.12033 8.48566 7.28376 8.48566 16.23536z" fill="url(#linearGradient3895-3)"/>
  <path d="m217.02569 78.57501c-.63286-7.7982-7.04582-11.80562-11.7-14.9625-10.21708-6.93016-22.67516-4.65046-34.2375-4.8125-.162-11.56232 1.70516-20.632918-5.225-30.849998-2.94642-4.34392-8.19891-9.3202-13.525-10.500002 3.96092.724602 7.76986 3.322782 12.5375 7.937502.67823.77706 1.14859 1.3579 2.2125 3 6.93016 10.21708 5.84737 16.931438 6.00937 28.493758 11.56234.162 23.43605-.42392 33.65313 6.50624.93084.63138 3.18798 2.3755 4.0125 3.2 3.07258 3.07258 5.80342 5.22684 6.2625 11.9875zm-64.6875-61.125c-.31532-.0698-.62688-.0828-.9375-.125.31398.0338.62088.067.9375.125z" fill="#fff"/>
  <g transform="matrix(1.1937469 0 0 1.1937469 119.34791 43.752847)">
    <g transform="matrix(1.1924658 0 0 1.1924658 -68.30328 -150.2881)">
      <path d="m75.01743 193.11754 33.9753 44.22401-89.822058-14.85874z" fill="none" filter="url(#filter1029)" opacity=".5" stroke="#000" stroke-width="3.79346"/>
      <path d="m75.017435 193.11754 33.975295 44.22401m-89.822057-14.85874 55.846762-29.36527-5.808554-45.40097m-50.038208 74.76624 89.822057 14.85874-39.783849-89.62498z" fill="url(#radialGradient1396)" stroke="url(#linearGradient1380)" stroke-width="2.52897"/>
      <path d="m70.775208 188.87532h8.48445v8.48445h-8.48445z" fill="url(#radialGradient1342)" stroke="#83cff1" stroke-linecap="round" stroke-linejoin="round" stroke-width="3.79345"/>
      <path d="m14.928448 218.24059h8.48445v8.48445h-8.48445z" fill="url(#radialGradient1364)" stroke="#83cff1" stroke-linecap="round" stroke-linejoin="round" stroke-width="3.79345"/>
      <path d="m104.7505 233.09932h8.48445v8.48445h-8.48445z" fill="url(#radialGradient1356)" stroke="#83cff1" stroke-linecap="round" stroke-linejoin="round" stroke-width="3.79345"/>
      <path d="m64.96666 143.47435h8.48445v8.48445h-8.48445z" fill="url(#radialGradient1334)" stroke="#83cff1" stroke-linecap="round" stroke-linejoin="round" stroke-width="3.79345"/>
    </g>
    <g transform="matrix(1.5570151 0 0 1.5570151 -292.47797 -5.935039)">
      <path d="m194.47306 64.66947c-.97876.000753-1.98651.15879-2.75602.470438-.78485.316612-1.17555.695783-1.22142 1.067533-.0459.37175.25326.758737.93955 1.085626 3.19562 1.457487 6.37898 2.961585 9.58345 4.41488l.75164.361876h-.97087-29.50199c-1.62197 0-2.86608.210568-3.75821.579001-.89213.368432-1.43486.892379-1.62856 1.519876-.32751 1.060979 1.10894 2.424566 3.82085 2.424566 4.9652.0038 9.98494-.01242 14.97022-.01809h1.03351l-.8456.361875-26.68332 11.41717h-.0314c.0144-.0034.0276.0146-.0626.05428-1.19989.531637-2.01583 1.233559-2.31756 1.936034s-.0951 1.383604.62637 1.917939c1.46927 1.087413 4.64446 1.116852 7.07797-.01809l14.56308-6.893727c.30976-.15232.59971-.01145.56373.162844 0 0-.20184.937468-.18791 1.465595.0153.522971.30232 1.629434.75164 2.460753.9618 1.771548 2.61072 3.399234 4.88568 4.849131 2.33214 1.486765 5.19904 2.678509 8.51862 3.528285 3.49424.893251 7.28549 1.360625 11.21201 1.357035 3.92704-.005 7.71972-.475479 11.21201-1.375129 3.31801-.858094 6.15581-2.055128 8.4873-3.546379 2.26998-1.455713 3.92396-3.094675 4.88568-4.867224.48578-.894962.75046-1.817051.87692-2.73216.12155-.899656.0956-1.781336-.12527-2.677878-.42993-1.753727-1.48349-3.400462-3.10053-4.903412-1.48279-1.379101-3.39835-2.583088-5.66864-3.60066l-23.2383-10.31345v-.01809c-.0906-.04348-.1079-.04858-.0314-.01809h-.0314c-.68728-.304058-1.61551-.453155-2.59928-.452345z" fill="url(#linearGradient4185)" fill-rule="evenodd" filter="url(#filter4275)" opacity=".401674"/>
      <path d="m194.46875 37.5c-.97662.0013-1.98217.274248-2.75.8125-.78313.546824-1.17298 1.201696-1.21875 1.84375-.0458.642054.25271 1.310425.9375 1.875 3.18863 2.517246 6.36503 5.114994 9.5625 7.625l.75.625h-.96875-29.4375c-1.61843 0-2.85982.363675-3.75 1s-1.43172 1.541241-1.625 2.625c-.32679 1.83243 1.10652 4.1875 3.8125 4.1875 4.95435.0065 9.96311-.02145 14.9375-.03125h1.03125l-.84375.625-26.625 19.71875h-.0313c.0144-.0058.0275.02521-.0625.09375-1.19727.918198-2.01143 2.130496-2.3125 3.34375s-.0949 2.389641.625 3.3125c1.46606 1.878085 4.63431 1.92893 7.0625-.03125l14.53125-11.90625c.30908-.263073.5984-.01977.5625.28125 0 0-.2014 1.619114-.1875 2.53125.0153.90323.30166 2.814218.75 4.25.95969 3.059665 2.60501 5.870863 4.875 8.375 2.32704 2.567813 5.18767 4.626089 8.5 6.09375 3.4866 1.542745 7.26956 2.34995 11.1875 2.34375 3.91845-.0083 7.70284-.821203 11.1875-2.375 3.31076-1.482027 6.14235-3.549441 8.46875-6.125 2.26501-2.514183 3.91538-5.344857 4.875-8.40625.48472-1.545701.74882-3.138254.875-4.71875.12128-1.553809.0954-3.07657-.125-4.625-.42899-3.028886-1.48024-5.872985-3.09375-8.46875-1.47955-2.381865-3.39092-4.461287-5.65625-6.21875l-23.1875-17.8125v-.03125c-.0904-.0751-.10767-.08391-.0313-.03125h-.0313c-.68578-.525142-1.61198-.78265-2.5936-.78125z" fill="url(#radialGradient4187)" fill-rule="evenodd"/>
      <path clip-path="url(#clipPath4127)" d="m344.82677 37.4c-.97662.0013-1.98217.274248-2.75.8125-.78313.546824-1.17298 1.201696-1.21875 1.84375-.0458.642054.25271 1.310425.9375 1.875 3.18863 2.517246 6.36503 5.114994 9.5625 7.625l.75.625h-.96875-29.4375c-1.61843 0-2.85982.363675-3.75 1s-1.43172 1.541241-1.625 2.625c-.32679 1.83243 1.10652 4.1875 3.8125 4.1875 4.95435.0065 9.96311-.02145 14.9375-.03125h1.03125l-.84375.625-26.625 19.71875h-.0313c.0144-.0058.0275.02521-.0625.09375-1.19727.918198-2.01143 2.130496-2.3125 3.34375s-.0949 2.389641.625 3.3125c1.46606 1.878085 4.63431 1.92893 7.0625-.03125l14.53125-11.90625c.30908-.263073.5984-.01977.5625.28125 0 0-.2014 1.619114-.1875 2.53125.0153.90323.30166 2.814218.75 4.25.95969 3.059665 2.60501 5.870863 4.875 8.375 2.32704 2.567813 5.18767 4.626089 8.5 6.09375 3.4866 1.542745 7.26956 2.34995 11.1875 2.34375 3.91845-.0083 7.70284-.821203 11.1875-2.375 3.31076-1.482027 6.14235-3.549441 8.46875-6.125 2.26501-2.514183 3.91538-5.344857 4.875-8.40625.48472-1.545701.74882-3.138254.875-4.71875.12128-1.553809.0954-3.07657-.125-4.625-.42899-3.028886-1.48024-5.872985-3.09375-8.46875-1.47955-2.381865-3.39092-4.461287-5.65625-6.21875l-23.1875-17.8125v-.03125c-.0904-.0751-.10767-.08391-.0313-.03125h-.0313c-.68578-.525142-1.61198-.78265-2.5936-.78125z" fill="none" filter="url(#filter4137)" opacity=".682008" stroke="url(#linearGradient4189)" transform="translate(-150.35091)"/>
      <ellipse cx="31.1875" cy="25.75" fill="url(#linearGradient4191)" rx="11.5625" ry="10.125" transform="matrix(1.3772326 0 0 1.4072121 161.08123 35.462501)"/>
      <path d="m194.82624 70.447816c.12482-2.281626 1.23923-4.29562 2.91448-5.721457 1.64861-1.401641 3.86241-2.257469 6.28066-2.257469 2.4167 0 4.6305.855828 6.27873 2.257469 1.6771 1.425837 2.79016 3.438321 2.91645 5.719947.12936 2.348159-.8093 4.528486-2.45444 6.14333-1.6771 1.645073-4.06839 2.677794-6.74074 2.677794-2.67389 0-5.06519-1.032721-6.74221-2.677794-1.64684-1.614844-2.58226-3.795171-2.45293-6.14182z" fill="url(#radialGradient4193)" fill-rule="evenodd"/>
      <path d="m256.99805 38.355469c-.81986.0015-1.64398.214804-2.2793.660156-.59053.413205-.85601.890906-.89258 1.294922-.007.07422-.0258.335666.0801.580078.10588.244412.27408.415209.48828.591797.0948.07816.10888.06951.15235.08594.21316.1735 9.5371 7.791016 9.5371 7.791016a.70717748.70717748 0 0 0 0 .002c.40508.329656.54745.82106.375 1.308594-.0655.185158-.002.1082-.1582.138672-.15583.03047-.514.01419-.95898.01563a.70717748.70717748 0 0 0 -.004 0c-9.43389.08563-29.55664.0625-29.55664.0625-.92585.000637-1.99195.232289-2.91602.74414-.92406.511852-1.74634 1.38347-1.82031 2.576172-.0678 1.093016.48283 1.972236 1.17969 2.466797s1.50757.689453 2.21289.689453h14.78125c.59788-.000726.98381.2121 1.14258.677735.0423.123976.0461.167436.0488.193359-.0132.0056-.17132.141074-.49805.392578l-26.45117 20.359375h-.002c-.003.0014-.10149.04489-.10156.04492-.00006.000032-.14385.107085-.16015.119141-.00093.000684-.01.0059-.01.0059-.0251.02172-.0484.03784-.0781.07031-.0284.031-.059.06867-.0996.138672-.005.0089-.0102.02685-.0156.03711-.89924.772707-1.54216 1.709757-1.77344 2.646484-.24039.973691-.0746 1.88142.44141 2.542969 1.15079 1.474221 3.74728 1.582864 5.875-.134766a.70717748.70717748 0 0 0 .006-.0039l14.49805-11.90625c.37804-.308899.93549-.356535 1.36523-.117187.41737.232461.64658.722238.58008 1.228515a.70717748.70717748 0 0 0 -.002.01758s-.17224 1.544668-.16016 2.335938a.70717748.70717748 0 0 0 .002.03906c.16621 2.278124.78915 4.394788 1.72071 6.375a.70717748.70717748 0 0 0 .0273.05078c.6295 1.102455 1.60313 1.726951 2.65039 1.683594 1.04726-.04336 2.05636-.595294 3.17578-1.394531 2.23885-1.598473 4.95205-4.32522 8.38281-7.193359 6.86153-5.73628 16.44913-11.998698 29.95899-10.650391a.70717748.70717748 0 0 0 .68554-1.052734c-1.47143-2.581652-3.54291-4.926506-6.10546-7.011719-7.54745-6.141545-15.46847-11.884695-23.17188-17.800781-.002-.0017-.004-.0042-.006-.0059-.012-.01229-.0312-.03524-.0898-.08008-.00046-.00035-.002.00035-.002 0-.52339-.400125-1.23757-.61599-2.05273-.615234z" fill="url(#radialGradient4195)" fill-rule="evenodd" opacity=".502092" transform="translate(-62.5)"/>
      <path d="m224.71921 63.652177c.19538.304882.38485.62581.5625.9375-26.65806-2.66052-38.44693 23.9023-43.15625 18.5625 4.57271 6.353016 16.33603-20.948535 43.375-18.25-.2392-.419689-.50998-.842681-.78125-1.25z" fill="url(#radialGradient4197)" fill-rule="evenodd" opacity=".52"/>
      <path d="m194.41433 37.94375c-.82051.0011-1.64543.210545-2.28125.65625-.59239.413628-.86962.90788-.90625 1.3125-.007.07422-.0121.318088.0937.5625.0892.205927.2357.350658.40625.5-.003-.06208-.002-.129741 0-.15625.0366-.40462.31386-.898872.90625-1.3125.63582-.445705 1.46074-.655128 2.28125-.65625.80543-.0011 1.50933.234535 2.03125.625.007.0055.024-.0056.0313 0 .0193.01475.0227.02322.0313.03125a.70717748.70717748 0 0 1 .0313.03125c.003.0045.0273.02717.0313.03125.0142.01456.0253.02486.0313.03125 7.69135 5.905701 15.59008 11.618645 23.125 17.75 2.32535 1.892189 4.24934 4.006808 5.6875 6.3125a.70717748.70717748 0 0 0 -.0625-.1875c-1.47143-2.581652-3.56244-4.946037-6.125-7.03125-7.53492-6.131355-15.43365-11.844299-23.125-17.75-.006-.0064-.0171-.01669-.0313-.03125-.004-.0041-.0278-.02678-.0313-.03125a.70717748.70717748 0 0 0 -.03135-.03125c-.009-.008-.012-.0165-.0313-.03125-.007-.0056-.0239.0055-.0313 0-.52192-.390465-1.22582-.626117-2.03125-.625zm7.53125 11.875c.003.138827-.0109.291481-.0625.4375-.0655.185158-.00042.125778-.15625.15625-.15583.03047-.52377-.0014-.96875 0-9.43389.08563-29.5625.0625-29.5625.0625-.92585.000638-1.98219.238148-2.90625.75s-1.76979 1.401047-1.84375 2.59375c-.0508.819761.23963 1.523542.6875 2.03125-.12846-.344714-.21327-.709438-.1875-1.125.074-1.192703.91969-2.081898 1.84375-2.59375s1.9804-.749362 2.90625-.75c0 0 20.12861.02313 29.5625-.0625.44498-.0014.81292.03047.96875 0s.0908.02891.15625-.15625c.17244-.487534.0301-.951594-.375-1.28125 0 0-.0616-.06173-.0625-.0625zm-16.28125 8.15625c-.0746.05441-.12244.07965-.34375.25l-26.4375 20.375h-.0625c-.003.0013.003.02994 0 .03125-.0242.01046-.0625-.000016-.0625 0-.00004.000019-.047.02797-.0937.0625-.0241.01837-.0385.04148-.0625.0625s-.0341.0315-.0625.0625-.0843.08624-.125.15625c-.006.0105-.0248.01881-.0313.03125-.89179.770702-1.51988 1.724206-1.75 2.65625-.24039.973691-.0785 1.869701.4375 2.53125.027.03455.0652.06069.0937.09375-.1605-.516365-.18425-1.099027-.0313-1.71875.23012-.932044.85821-1.885548 1.75-2.65625.006-.01244.0251-.02075.0313-.03125.0407-.07001.0966-.125255.125-.15625.0284-.031.0385-.04148.0625-.0625s.0384-.04413.0625-.0625c.0467-.03453.0937-.06248.0937-.0625.00003-.000016.0383.01046.0625 0 .003-.0013-.003-.02994 0-.03125h.0625l26.4375-20.375c.32546-.25052.48543-.36818.5-.375-.002-.02092.0137-.08705-.0313-.21875-.10401-.305041-.32624-.469776-.625-.5625zm-6.25 15.03125c.005.0819.0111.165621 0 .25a.70717748.70717748 0 0 0 -.0313.03125s-.16833 1.52123-.15625 2.3125a.70717748.70717748 0 0 0 0 .0625c.16621 2.278123.81845 4.394788 1.75 6.375a.70717748.70717748 0 0 0 0 .03125c.10634.186244.21879.373018.34375.53125-.8483-1.882693-1.43696-3.882183-1.59375-6.03125a.70717748.70717748 0 0 1 0-.0625c-.0121-.79127.15625-2.3125.15625-2.3125a.70717748.70717748 0 0 1 .0313-.03125c.0613-.466359-.14166-.907426-.5-1.15625z" fill="url(#radialGradient4199)" fill-rule="evenodd" filter="url(#filter4168)"/>
    </g>
  </g>
</svg>
