<svg height="256" width="256" xmlns="http://www.w3.org/2000/svg" xmlns:xlink="http://www.w3.org/1999/xlink">
  <defs>
    <filter id="filter3834" color-interpolation-filters="sRGB" height="1.064318" width="1.080929" x="-.040464" y="-.032159">
      <feGaussianBlur stdDeviation="1.50075"/>
    </filter>
    <filter id="filter3826" color-interpolation-filters="sRGB" height="1.044321" width="1.055874" x="-.027937" y="-.02216">
      <feGaussianBlur stdDeviation="1.036"/>
    </filter>
    <linearGradient id="linearGradient4524-4" gradientTransform="matrix(2 0 0 -2 -7.01182 257.00001)" gradientUnits="userSpaceOnUse" x1="72" x2="72" y1="0" y2="116.40091">
      <stop offset="0" stop-color="#eeecec"/>
      <stop offset=".40000001" stop-color="#f4f4f4"/>
      <stop offset="1" stop-color="#f6f5f5"/>
    </linearGradient>
    <filter id="filter1164" color-interpolation-filters="sRGB" height="1.096" width="1.090435" x="-.045217" y="-.048">
      <feGaussianBlur stdDeviation=".65000024"/>
    </filter>
    <radialGradient id="radialGradient5988-0" cx="64" cy="64.004021" fx="63.793392" fy="47.274845" gradientTransform="matrix(3.368421 .16859038 .13772678 -2.7517692 -103.40582 294.32648)" gradientUnits="userSpaceOnUse" r="47.5">
      <stop offset="0" stop-color="#fff"/>
      <stop offset="1" stop-color="#fff" stop-opacity="0"/>
    </radialGradient>
    <clipPath id="clipPath6093-7">
      <path d="m17.000001 8-.000001 112h61.5c1.675283 0 3.914297-.56468 7-3.6 8.870045-8.72523 16.24047-13.8518 23.49904-21.175957 2.44056-2.462612 3.00096-4.47117 3.00096-6.724043v-80.5z"/>
    </clipPath>
    <filter id="filter6171-8" color-interpolation-filters="sRGB" height="2.02159" width="1.956141" x="-.47807" y="-.510795">
      <feGaussianBlur stdDeviation="10.140743"/>
    </filter>
    <linearGradient id="linearGradient3895-3" gradientTransform="matrix(2.0239716 0 0 -2.0239716 -.8029 246.97433)" gradientUnits="userSpaceOnUse" x1="86.73793" x2="93.189758" y1="93.621468" y2="100.45876">
      <stop offset="0" stop-color="#fcfcfc"/>
      <stop offset=".52275378" stop-color="#f8f8f8"/>
      <stop offset=".72337759" stop-color="#f0efef"/>
      <stop offset=".89024991" stop-color="#e3e1e1"/>
      <stop offset="1" stop-color="#cecbcb"/>
    </linearGradient>
    <filter id="filter7237-6" height="1.116393" width="1.083448" x="-.041724" y="-.058196">
      <feGaussianBlur stdDeviation="8.3447749"/>
    </filter>
    <radialGradient id="radialGradient2581-6" cx="81.47065" cy="-347.54205" gradientTransform="matrix(1.7648658 1.6855958 -1.7647948 1.9327335 -661.95002 319.15311)" gradientUnits="userSpaceOnUse" r="240">
      <stop offset="0" stop-color="#00489b"/>
      <stop offset=".5" stop-color="#9bceff"/>
      <stop offset=".54056305" stop-color="#064798"/>
      <stop offset=".72974294" stop-color="#0251c0"/>
      <stop offset="1" stop-color="#a8caff"/>
    </radialGradient>
    <filter id="filter2937-9" height="1.193556" width="1.190475" x="-.095238" y="-.096778">
      <feGaussianBlur stdDeviation="11.259063"/>
    </filter>
    <radialGradient id="radialGradient2583-0" cx="353.10449" cy="-347.7803" gradientTransform="matrix(1 0 0 -1.0366026 -242.00001 -607.09585)" gradientUnits="userSpaceOnUse" r="296.4624">
      <stop offset=".1479" stop-color="#ddd"/>
      <stop offset=".40239999" stop-color="#fff"/>
      <stop offset=".43110001" stop-color="#f2f2f2"/>
      <stop offset=".47760001" stop-color="#e2e2e2"/>
      <stop offset=".51480001" stop-color="#ddd"/>
      <stop offset=".67460001" stop-color="#fff"/>
    </radialGradient>
    <linearGradient id="linearGradient45914" gradientUnits="userSpaceOnUse" x1="15.584" x2="495.58401" y1="-121.13597" y2="-121.13597">
      <stop offset="0" stop-color="#373737"/>
      <stop offset="1"/>
    </linearGradient>
  </defs>
  <path d="m-128.8111-19.056071v112h56.187504c5.114947-.238308 32.613203-27.078301 32.775-30.612499.08138-25.126708.0375-56.2589983.0375-81.387501z" filter="url(#filter3834)" opacity=".262376" transform="matrix(2 0 0 -2 296.61038 201.88787)"/>
  <path d="m-128.8111-19.556071v112.2h55.746422c3.098719 0 24.709876-18.512112 30.003672-24.699929 1.602664-1.873324 3.24991-3.03751 3.24991-7.20007v-80.300001z" fill-opacity=".700535" filter="url(#filter3826)" transform="matrix(2 0 0 -2 296.61038 201.88787)"/>
  <path d="m38.98818 241.00001v-223.999998h111.00001c3.35056 0 7.82859 1.12936 14 7.2 17.74009 17.45046 32.48094 27.703618 46.99808 42.351918 4.88112 4.92522 6.00192 8.94234 6.00192 13.44808v161z" fill="#fff" stroke-width="2"/>
  <path d="m41.98818 239.00001c-.67968 0-1-.46923-1-1v-215.937498c0-1.64316 1.35864-3 3-3h103.37501c.10614 0 1.62077-.0468 3-.0626 3.55533.0802 6.26395 1.50748 8.71207 3.18656 2.10373.58206 33.29967 27.239178 51.54191 45.618478 2.72478 2.74524 4.37092 7.89634 4.37092 9.79122l.0001 160.40384c0 .64544-.32644 1-1 1z" fill="url(#linearGradient4524-4)" stroke-width="2"/>
  <path d="m41.98818 239.00001c-.67968 0-1-.46923-1-1v-215.937498c0-1.64316 1.35864-2.999022 3-3l105.00001-.0626c.10614-.000064 6.54777.016 7.927-.0001 13.08194 9.00722 37.2746 31.906578 55.16506 49.910198 2.9537 3.31296.9152.74012 2.90782 3.2149l.00012 165.875c0 .64544-.32644 1-1 1z" fill="url(#radialGradient5988-0)" opacity=".846535" stroke-width="2"/>
  <path d="m-39.811096 59.94691c0 4.46531-3.067448 5.978576-5.549678 7.662246-5.10854 3.46508-13.669156 1.756744-19.450326 1.837764-.081 5.78116 1.723142 12.231893-1.741938 17.340433-1.68367 2.48224-4.847792 5.659577-7.758062 5.659577 2.31803 0 4.74284-1.334761 7.58402-4.084811 9.14197-8.84873 14.36714-11.135349 22.673154-20.297529 1.91895-2.11675 4.24283-3.64188 4.24283-8.11768z" filter="url(#filter1164)" opacity=".4" transform="matrix(2 0 0 -2 296.61038 201.88787)"/>
  <path clip-path="url(#clipPath6093-7)" d="m114.4 82.502986c0 4.465301-4.99749 12.609952-7.47972 14.293625-5.10854 3.465079-12.739114 1.52536-18.520284 1.60638-.081 5.781159 1.96586 11.304599-1.49922 16.413139-1.68367 2.48224-9.79051 8.68687-12.70078 8.68687-2.091359 1.5337 3.488204 8.21101 6.734971 5.31989 9.501888-8.46107 35.131683-30.022704 43.350823-39.262889 2.04044-2.29392-4.90514-9.844666-9.88579-7.057015z" filter="url(#filter6171-8)" opacity=".277228" transform="matrix(2 0 0 -2 -7.01182 257.00001)"/>
  <path d="m216.98819 79.99405c0-8.93062-5.59498-12.81992-10.55944-16.18726-10.21708-6.93016-21.87823-6.65072-33.44057-6.81276-.162-11.56232.33172-19.009198-6.59844-29.226278-3.36734-4.96448-10.58102-10.773742-16.40156-10.773742 4.63606 0 8.88785 3.363424 15.16804 8.169622 19.0787 14.60084 26.40937 20.968606 43.34631 38.595058 3.95915 4.12033 8.48566 7.28376 8.48566 16.23536z" fill="url(#linearGradient3895-3)"/>
  <path d="m217.02569 78.57501c-.63286-7.7982-7.04582-11.80562-11.7-14.9625-10.21708-6.93016-22.67516-4.65046-34.2375-4.8125-.162-11.56232 1.70516-20.632918-5.225-30.849998-2.94642-4.34392-8.19891-9.3202-13.525-10.500002 3.96092.724602 7.76986 3.322782 12.5375 7.937502.67823.77706 1.14859 1.3579 2.2125 3 6.93016 10.21708 5.84737 16.931438 6.00937 28.493758 11.56234.162 23.43605-.42392 33.65313 6.50624.93084.63138 3.18798 2.3755 4.0125 3.2 3.07258 3.07258 5.80342 5.22684 6.2625 11.9875zm-64.6875-61.125c-.31532-.0698-.62688-.0828-.9375-.125.31398.0338.62088.067.9375.125z" fill="#fff"/>
  <g transform="translate(7.420215 -30.25298)">
    <path id="path9574" d="m92.878462 115.59963h-5.637329v-15.41865q0-.970667.03733-2.538666.07467-1.567998.112-2.762664-.186667.224-.821333.821333-.597333.559999-1.119999 1.007999l-3.061331 2.463998-2.725331-3.397331 8.586659-6.831994h4.62933z" fill="#808080"/>
    <path id="path9576" d="m118.78779 102.27164q0 4.29333-.93333 7.35466-.896 3.06133-2.94933 4.704-2.016 1.64267-5.45066 1.64267-4.816 0-7.056-3.62133-2.24-3.65867-2.24-10.08 0-4.330659.896-7.39199.896-3.061331 2.94933-4.703996 2.05334-1.642665 5.45067-1.642665 4.77866 0 7.05599 3.62133 2.27733 3.62133 2.27733 10.117321zm-13.02932 0q0 4.55467.784 6.86933.784 2.27733 2.912 2.27733 2.09066 0 2.91199-2.27733.82134-2.27733.82134-6.86933 0-4.554659-.82134-6.869324-.82133-2.314665-2.91199-2.314665-2.128 0-2.912 2.314665-.784 2.314665-.784 6.869324z" fill="#808080"/>
    <use id="use9583" fill="#808080" transform="translate(42.709311)" xlink:href="#path9574"/>
    <use id="use9585" fill="#808080" transform="translate(42.709311)" xlink:href="#path9576"/>
    <use transform="translate(-20.496001 34)" xlink:href="#path9576"/>
    <use id="use9644" transform="translate(-20.496001 34)" xlink:href="#use9583"/>
    <use transform="translate(-20.496001 34)" xlink:href="#use9585"/>
    <use transform="translate(42.709311)" xlink:href="#use9644"/>
  </g>
  <g transform="matrix(.27959348 0 0 .25508794 56.959772 208.23158)">
    <path d="m46.416656-293.204 421.839344 13.991 27.328 301.131c-159.999-47.878-320 63.645-480 17.628z" fill="url(#linearGradient45914)" filter="url(#filter7237-6)" opacity=".7" transform="matrix(.98124994 0 0 .9502191 3.292199 13.929093)"/>
    <path d="m42.595001-299.43633c141.886999 52.53709 283.773009-39.74543 425.661019 14.5031 9.109 104.05106 18.219 208.103156 27.328 312.153181-159.99901-49.63046-320.00002 65.974571-480.00002 18.273231 9.004-114.976854 18.007-229.953712 27.011001-344.929512z" fill="url(#radialGradient2581-6)" stroke-width=".954503"/>
    <path d="m131.654-144.144c.581 4.275 1.419 8.97 1.905 14.338-.001.094-.003.186-.005.28.005-.044.014-.088.02-.132.006.059.013.116.017.177.044-.38.088-.757.133-1.135.858-4.906 2.833-8.28 4.269-12.046 1.634-3.971 5.998-9.871 8.663-15.061 3.357-6.825 7.189-14.327 8.96-26.091-10.289 7.79-15.017 18.485-17.751 25.501-.535 1.463-.955 2.722-1.317 3.961.19-3.297.226-6.436.075-8.384-.471-7.572-1.547-16.841-7.044-27.345-3.801 13.763-1.496 25.025-.342 32.577.496 4.245 2.053 10.526 2.417 13.36zm31.382 100.496c3.742 1.664 11.292 5.815 16.59 7.341-.632-.51-1.334-1.074-2.076-1.672-4.27-3.646-6.778-7.308-8.083-11.095-1.318-4.153-2.176-9.07-2.92-12.934-1.618-7.848-2.78-14.311-11.07-25.136-1.493 13.993-.438 19.982 2.188 26.908.883 2.37 1.496 4.536 2.47 6.749-1.72-1.529-3.363-2.75-5.493-3.958-6.492-3.521-17.099-11.006-29.083-12.139 6.554 12.414 18.517 18.552 25.539 21.549 3.473 1.443 8.152 2.597 11.938 4.387zm-31.308-65.08c2.497 3.886 4.351 9.783 6.971 14.657-.052-.257-.101-.518-.151-.776-.327-5.331.067-11.325.838-15.643.766-4.195 2.694-9.366 4.041-12.955 2.643-7.331 6.146-15.732 4.985-29.021-8.859 9.692-10.74 18.899-12.731 26.152-.628 2.41-.897 5.786-.913 8.946-.708-3.47-1.698-7.202-2.985-9.812-3.042-6.584-6.134-13.542-16.429-20.651 1.184 13.514 5.816 21.083 9.688 27.454 1.948 3.107 4.587 8.132 6.686 11.649zm.982 27.371c2.808 2.516 6.787 5.644 9.998 8.348 3.033 2.455 6.959 5.78 9.786 10.676.113.225.225.444.339.669-.014-.043-.026-.083-.04-.126.093.168.187.337.277.509-.328-.836-.649-1.709-.966-2.601-1.384-4.587-1.912-9.025-2.115-12.828-.356-4.509.267-9.697.61-13.776.595-8.311 1.388-18.047-3.427-31.246-6.223 12.693-5.386 21.4-5.282 29.425.095 2.979.489 5.388 1.122 7.733-1.155-1.939-2.247-3.616-3.856-5.433-5.025-5.492-12.795-14.993-22.93-20.185 2.888 14.335 10.841 23.657 16.484 28.835zm243.839-103.676c-2.748-6.467-7.502-16.469-17.808-22.927 1.796 10.992 5.646 17.741 9.018 23.948 2.677 4.7 7.054 10.019 8.698 13.688 1.445 3.478 3.425 6.578 4.297 11.157.042.352.088.701.133 1.055.005-.056.012-.108.016-.165.007.042.016.081.021.122-.002-.087-.005-.17-.006-.258.473-5.051 1.303-9.468 1.873-13.475.356-2.661 1.899-8.54 2.389-12.494 1.137-7.052 3.416-17.459-.416-30.399-5.473 9.671-6.531 18.47-6.98 25.562-.15 1.832-.105 4.776.092 7.866-.365-1.154-.789-2.323-1.327-3.68zm-18.377-28.014c2.574 2.118 7.305 5.006 9.651 7.277 2.403 2.216 5.15 6.17 7.257 10.112.266.59.517 1.175.74 1.742-.046-.193-.086-.377-.129-.565.02.04.04.079.061.119-.036-.103-.068-.208-.106-.312-1.438-6.377-1.242-10.032-1.366-13.721-.224-3.737.232-8.031.682-11.327.698-6.673.923-14.616-3.93-25.467-5.596 10.17-4.604 16.41-4.394 22.912.111 2.367.473 4.968.993 7.681-1.22-1.694-2.532-3.19-3.937-4.511-4.861-4.413-10.646-10.277-22.193-12.422 4.994 9.902 11.216 13.879 16.671 18.482zm-2.514-17.893c2.41 1.812 6.335 5.497 8.385 8.432-1.978-3.012-3.588-8.186-4.55-11.675-.961-3.486-1.704-5.321-3.086-7.915-2.525-4.506-5.898-10.216-14.718-14.199.396 9.751 4.13 14.768 7.236 19.102 1.568 2.102 4.322 4.436 6.733 6.255zm-215.582 47.68c-.114 3.93.091 7.812-1.333 14.648-.034.112-.068.225-.104.337.021-.042.042-.086.062-.129-.042.203-.082.4-.128.607.222-.612.473-1.242.735-1.88 2.097-4.267 4.834-8.59 7.232-11.088 2.343-2.539 7.064-5.968 9.633-8.468 5.443-5.376 11.656-10.38 16.625-21.483-11.539 3.938-17.312 10.501-22.162 15.555-1.399 1.497-2.708 3.164-3.924 5.028.513-2.905.87-5.684.975-8.197.194-6.93 1.172-13.499-4.45-24.169-4.824 11.621-4.583 20.086-3.866 27.19.454 3.506.922 8.065.705 12.049zm239.662 36.54c-.025-2.961-.302-6.111-.933-8.34-2.006-6.699-3.91-15.37-12.791-23.843-1.128 12.678 2.395 20.307 5.055 27.019 1.352 3.279 3.294 8.016 4.068 11.916.777 4.009 1.191 9.614.88 14.656-.053.255-.104.516-.155.768 2.608-4.788 4.448-10.433 6.936-14.165 2.091-3.375 4.72-8.112 6.66-10.996 3.859-5.943 8.473-12.732 9.626-25.126-10.279 5.914-13.356 12.656-16.382 18.831-1.278 2.465-2.265 5.998-2.964 9.28zm-211.324 45.842c-.073.024-.145.05-.217.075.125 1.67.555 1.52 1.066 2.827.267.706-.012 1.032.738 2.366.354.562.598 1.162 1.315 1.252-.388-1.807-.723-2.826-1.52-4.377-.548-.947-.895-.94-1.382-2.143zm111.304 64.411c-16.086 3.387-15.628 8.37-23.99 9.75 0-.001 0-.002 0-.002-.055.01-.111.021-.166.031v.002c-8.362 1.792-7.91-3.319-23.998-.743-6.183 1.006-35.208 17.992-52.661 17.576.993 4.322 17.69 8.701 32.638 5.224 7.758-1.757 30.288-20.021 39.177-15.509-.005-.001-10.8 5.783-22.762 17.432-7.337 7.237-13.291 17.801-14.495 21.862 4.578-.839 9.146-.062 13.752-3.68 4.028-2.96 11.416-26.044 28.436-33.437 17.026.866 24.434 20.931 28.464 22.313 4.611 1.824 9.175-.649 13.753-1.479-1.208-3.555-7.17-11.797-14.515-16.218-11.972-7.054-22.77-8.683-22.776-8.684 8.884-7.912 31.429 1.788 39.188.851 14.945-1.928 31.637-10.965 32.625-15.334-17.449 4.992-46.486-1.27-52.67.045zm49.387-21.141c-1.221.514-2.344.974-3.439 1.421.814-.81 1.6-1.659 2.382-2.572 5.601-6.711 11.331-13.677 14.346-27.107-13.417 8.437-18.246 15.574-23.466 22.855-2.516 3.619-5.417 8.291-9.326 11.543-4.002 3.41-11.534 6.663-17.239 9.069.027-.005.059-.013.085-.018-.076.025-.156.053-.23.08.337-.074.718-.158 1.129-.251 2.174-.421 4.696-.968 7.318-1.61 5.318-1.146 11.292-2.325 14.227-2.642 4.808-.641 8.529-1.067 13.353-1.525 11.2-1.352 27.682-7.571 38.13-17.555-15.11.662-29.531 5.607-37.27 8.312zm46.308-63.074c-1.604 1.843-2.694 3.528-3.843 5.476.628-2.279 1.017-4.593 1.104-7.412.087-7.582.903-15.886-5.348-27.323-4.785 12.989-3.969 22.209-3.355 30.004.354 3.828.987 8.673.642 13-.194 3.64-.713 7.923-2.085 12.492-.316.896-.635 1.775-.961 2.622.09-.179.183-.353.275-.526-.015.042-.026.081-.041.123.115-.23.226-.456.339-.687 2.813-5.094 6.732-8.754 9.761-11.39 3.204-2.901 7.175-6.166 9.978-8.679 5.631-5.239 13.562-13.926 16.418-27.045-10.124 4.381-17.872 13.767-22.884 19.345zm-175.574 94.383c2.935-.61 8.909-1.375 14.229-2.058 2.621-.255 5.144-.588 7.317-.937.411-.054.793-.103 1.13-.148-.075-.001-.155 0-.232.001.027-.005.058-.008.084-.012-5.709-.388-13.245-1.119-17.253-3.3-3.917-2.039-6.827-5.917-9.352-8.864-5.235-5.944-10.075-11.693-23.51-17.249 3.045 13.264 8.791 19.015 14.406 24.323.784.716 1.566 1.365 2.387 1.959-1.099-.139-2.22-.288-3.442-.473-7.745-.569-22.17-1.889-37.279-.228 10.471 8.969 26.963 11.479 38.165 9.513 4.818-.937 8.543-1.643 13.35-2.527zm154.682-56.889c.968-2.294 1.575-4.472 2.454-6.887 2.61-7.06 3.651-12.9 2.125-26.005-8.262 11.608-9.409 18.164-11.01 25.978-.734 3.856-1.578 8.752-2.888 13.031-1.3 3.931-3.801 8.004-8.062 12.591-.737.76-1.438 1.48-2.065 2.132 5.292-2.865 12.83-8.556 16.568-10.868 3.781-2.479 8.456-4.404 11.925-6.303 7.013-4.018 18.962-11.02 25.486-22.731-11.981 1.391-22.57 9.906-29.052 14.332-2.126 1.497-3.767 2.953-5.481 4.73zm-83.035-30.514c-.098-.372-.195-.745-.293-1.117-.428.628-.561 1.021.293 1.117zm-24.516-34.68c-.078-.157-.155-.313-.233-.47-.318.13-.82.449-1.088.784-.266.334-.059.702-.405 1.184-.401.729-1.198 1.281-1.383 1.47-.293.233-.111.497-.565 1.022-.641.714-1.139.578-1.538.856-.506.318-1.176 1.384-1.525 1.866-.484.877-.596 1.375-.739 2.223-.055.25-.191.645-.035.807.155.161.474.031.663-.158.399-.276 1.252-1.078 1.597-1.107.317-.13.475.032.711.046.344-.027.555-.113.794-.099.237.016.526.236.79.354.606.09 1.09-.786 1.2-1.283.056-.248.11-.496.034-.804.131.059.262.117.393.176.695-.962.806-1.46 1.289-2.336.401-.729.72-.859.987-1.195.16-.291.11-.497.139-.848.11-.497.402-.729.224-1.448-.05-.652-.596-1.445-1.31-1.04zm-.256-3.849c-.527.215-.633.26-.612.816-.176.072-.352.144-.528.216.061.088.122.175.183.263.606-.361 1.029-.533.957-1.295zm.933 1.425c-.368-.074-.765.201-1.055.433-.026-.102-.209-.367-.338-.426-.943-.517-1.705 2.052-.406 1.184.363.528 1.494.855 2.148 1.152.187-.189.268-.335.323-.583.188-.643-.066-1.67-.672-1.76zm-6.522 4.702c-.08.147-.242.438-.297.687-.03.353.363.53.657.298.292-.233.589-.919.855-1.254.268-.336.374-.378.666-.611.267-.335.614-.816.882-1.152.799-1.005.901-.595 1.07-1.793-.052-.206.029-.353-.022-.557-.544-.794-1.978.47-2.107.41-.229.019-.457.037-.685.055-.237-.018-.635.259-.951.387.81.461.835.564 1.785.175-.059.702-.783 2.016-1.546 1.763-.497-.136-.598-.548-.834-.563-.368-.076-.297.687-.459.978-.353.937-1.118 1.135-1.029 2.455.124-.126.249-.252.373-.377.518.689 1.163-.48 1.642-.901zm3.675-3.989c.009.034.018.068.027.103-.044-.019-.089-.038-.133-.058.035-.014.071-.029.106-.045zm13.032 17.45c.188-.189.188-.641.137-.846s-.211-.364-.343-.423c-.239-.016-.346.029-.557.117-.053-.204-.105-.408-.157-.612-.106.044-.213.087-.318.132.024.253.05.506.074.759-.097-.073-.192-.146-.289-.22.069.423.138.846.206 1.269.289.671 1.086.115 1.247-.176zm14.719-48.363c.338-.474.313-1.027.521-1.561.313-1.025 1.068-1.666 1.012-2.77-.328.057-.658.114-.988.171 0 .45.054 1.105-.441 1.416-.104.041-.547.108-.678.047-.077.444-.155.889-.234 1.333-.13.391-.338 1.375-.259 1.681.027.553.755.258 1.067-.317zm20.825-8.249c-.206.081-.416.162-.597.344.055.203.186.267.343.428.131.061.263.123.393.184.732.166.986-.606.669-.933-.158-.164-.601-.104-.808-.023zm-33.365 69.244c.266.116.346.423.424.729-.276.151-.553.303-.829.455-.099.229-.196.458-.295.688-.135.243-.269.486-.404.729.507-.021 1.014-.043 1.521-.063-.694.51-1.149.587-1.527 1.42.607-.251 1.214-.502 1.82-.752 1.204-.385 2.136-.435 3.182-1.43-.089-.037-.178-.076-.268-.114.064-.364.127-.729.189-1.093-.293-.066-.585-.134-.878-.2-.125-.174-.249-.35-.374-.523-.532-.382-1.064-.762-1.596-1.144-.159-.009-.319-.019-.479-.027.32-.585.989-1.65-.157-1.514-.187.039-.372.076-.558.115.134-.242.268-.484.4-.727-.666.16-1.226.279-1.653.907-.484.875-.381 1.735.577 1.792-.082 1.048.482.477.905.752zm11.263 7.748c.83.445 1.635-1.46.375-1.281-.106.044-.35.032-.429.176-.216.091-.429.177-.615.366.125.173.251.348.375.521.026.104.188.262.294.218zm-25.76-41.059c.072-.18.144-.359.216-.539.632-.259.611-.816.273-1.242-.131-.06-.368-.077-.498-.136-1.232-.288-1.215.723-1.432 1.264-.108.345-.216.69-.325 1.036.139.094.279.188.418.281.713-.404.975-.285 1.659-.338-.103-.109-.207-.217-.311-.326zm29.064-32.324c.574-.456.626-.701 1.016-.969.181-.185 1.534-.277 1.117-1.01-.132-.061-.261-.121-.394-.181-.007.115-.016.231-.023.347-.39-.181-.911-.423-1.38-.461-.47-.036-1.952.445-2.473.653.382.147.763.294 1.146.441.33.393.66.787.991 1.18zm-115.934-22.677c2.408-2.147 5.154-4.913 6.717-7.307 3.095-4.916 6.814-10.679 7.188-20.92-8.809 5.321-12.167 11.552-14.68 16.545-1.378 2.854-2.117 4.848-3.068 8.604-.953 3.756-2.551 9.35-4.521 12.67 2.043-3.237 5.958-7.442 8.364-9.592zm87.723 53.749c.034.137.067.273.101.41.211-.086.421-.172.609-.36.345-.481-.015-1.462-.38-1.539-.344.027-.477.42-.426.625-.01.117-.02.234-.03.351.041.171.084.342.126.513zm.742 2.067c-.151-.615-.02-.555.534-.669-.049-.356-.099-.712-.148-1.069-.292.233-.713.406-.979.739-.403.729-.275 1.244.593.999zm-66.194 84.798c-.029.032-.058.065-.087.098.74.664 1.48 1.328 2.222 1.989.034-.038.069-.075.103-.113 18.761 15.969 45.091 22.445 74.201 16.952 60.312-12.357 106.921-62.407 104.104-118.13-2.817-56.557-49.534-100.371-104.349-92.15-54.815 8.208-101.423 59.196-104.104 118.786-1.136 29.522 9.378 55.676 27.91 72.568zm-24.191-68.572c5.464-.383 10.929-.851 16.393-1.39.044 2.568.218 5.087.48 7.568-.522-.148-1.364-.704-1.871-.817-.129-.067-.517-.276-.708-.096-.213.074-.229.536-.293.786.073.888.332 1.027.894 1.517.13.07.539.383.264.708-.467.506-1.36-1.012-1.844-.046-.063.25-.041.358-.125.5-.071.023-.142.049-.214.073-.234-.567-.468-1.134-.702-1.701-.052-.248-.104-.496-.157-.745-.297-.508-.594-1.015-.89-1.523-.268.358-.537.716-.805 1.074-.102-.308-.204-.616-.306-.924-.123-.225-.246-.449-.368-.674-.217-.5-.646-.355-1.028.002-.743.822-1.207 1.893-1.676 2.392-.576.535-1.068.355-1.474.604-.489.392-.786 1.175-.889 1.784-.133 1.568-.267 3.139-.4 4.707-.387 3.675-.77 4.602-.017 8.24.212.654.424 1.308.637 1.961.229.914.458 1.829.687 2.743.169.439.337.879.505 1.317.072-.023.145-.048.217-.072-.291-1.389-.502-4.062-.232-5.526.248-1.568.847-1.998.706-3.78.133.452.266.903.398 1.354.533-.752.442-1.178 1.233-1.789.327.461.457.531.697 1.136.219.497.309.923.635 1.382.328.461.565.493.87.846.282.247.503.741.699 1.13.373.673.728 1.809 1.655 1.828.272-.895.071-1.852-.004-2.741.063-.251.035-.925.226-1.105.516-.294.826.627.894.944.395.776.728 1.803 1.316 2.393.636.806 1.041.548 1.898 1.842.034-.202.067-.403.101-.604.375.665.059 1.348.924 1.612-.089-.424-.37-2.265-.224-2.66.061-.25.385-.365.6-.442.294 1.188.589 2.377.884 3.564.091.423.313.912.597 1.153.675.442 1.339-.254 1.667.198.21.607.42 1.215.631 1.822.515 1.299 1.208 2.868 1.916 3.976.533.834 1.243 1.94 2.053 2.438.181.151.418.312.671.353 3.344 5.489 7.407 10.387 12.083 14.579-4.045 4.54-8.109 9.067-12.189 13.575-16.952-15.404-26.963-38.809-27.015-65.466zm92.183-94.648c1.25.066 2.038.542 3.418.215-.585-.406-1.169-.812-1.753-1.219.266-.294.532-.589.797-.883-.509-.249-.713-.167-1.196-.313-.205-.1-.281-.253-.434-.374.351-.085.706-.156 1.056-.236.008.004.011.011.02.016.356.083 2.092-.158 2.526-.217.416-.122.66-.299.878-.505.077-.014.155-.026.231-.04-.005 7.062-.011 14.124-.017 21.185-15.603 3.053-29.771 11.72-40.675 23.651-4.454-4.08-8.884-8.203-13.289-12.377 12.8-15.147 29.687-26.517 48.461-31.286-.092.037-.177.071-.236.094-.588.348-1.075.655-1.743 1.146-.589.348-1.385.778-1.314 1.541 1.381-.323 1.893-.528 3.27-.398zm-7.038 64.992c-.01-.003-.019-.008-.029-.012.159-.291.239-.436-.021-.558-.261-.118-.836-.112-1.331-.251-.911-.421-.954-1.081-1.178-2.009-.201-.822-.305-.78-.687-1.415-.18-.268-.229-.475-.515-.697-.284-.225-.907-.425-1.296-.607-.519-.244-1.167-.548-1.716-.438-.401.045-.735.242-1.059.43-1.755-1.538-3.506-3.079-5.252-4.626 6.937-7.426 15.838-12.872 25.63-15.044-.004 5.629-.009 11.258-.014 16.887.733-.115 1.466-.231 2.199-.347-.135.155-.27.31-.405.464-.219.279-.514.579-.848.772-4.91 1.158-9.596 3.766-13.478 7.451zm6.584.573c-.059.06-.117.12-.176.18-.202.061-1.776.63-1.479.607-.371.076-.786-.039-1.177-.194 1.477-1.205 3.053-2.255 4.711-3.096-.222.443-.444.887-.667 1.331.001-.151.002-.302.003-.453-.997.632-.844 1.248-1.215 1.625zm-37.607 58.921c-.412-.252-.824-.504-1.236-.756.659.307 1.187.55 1.987.457.043-.319.086-.639.128-.958.235-1.001.535-1.234.396-2.315-.307-1.805-2.333-3.95-2.84-6.134-.218-.934-.113-1.997-.116-3.019-.057-.583-.114-1.165-.171-1.747-.073-.313.092-.605.104-1.064-.053-.395-.106-.79-.159-1.186.069-.708.129-.958-.015-1.584-.244-.548-.487-1.095-.73-1.643-.061-.43-.121-.86-.181-1.289-.128-.556-.256-1.111-.384-1.667-.286-1.249.34-2.063.36-2.98.012-.458-.678-1.436-.938-1.562-.367-.084-1.09.312-.889-.334.199-.645 1.291.064 1.574.293.188-1.207-.074-1.333-.396-2.229-.242-.889-.484-1.779-.727-2.668-.274-.688-.793-.94-.865-1.254.037-.355.353-.479.683-1.061.116-.203.193-.409.255-.614 1.488-.209 2.975-.422 4.462-.638-.017.412-.043.823-.05 1.235-.186 11.291 3.56 21.08 10.034 28.106-2.766 3.184-5.541 6.366-8.324 9.546-.677-.611-1.644-.357-2.448-1.492.577.449 1.631.939 2.35.99-.408-.744-1.263-1.879-1.864-2.433zm-8.756-34.497c-.062-.044-.093-.105-.134-.161.434-.06.868-.119 1.302-.179-.414.269-.826.508-1.168.34zm-.149 49.78c-1.074 1.213-2.149 2.426-3.226 3.638-1.819-1.626-3.539-3.365-5.158-5.209.172.078.339.157.519.229.512.183 1.025.365 1.537.548.424.14.849.279 1.273.418 1.118.252 1.119-.773 1.768-1.025.348-.021 1.646.497 2.043.68.63.354.988.561 1.244.721zm-1.258-52.977c-.123-.454-.303-.974-.783-1.417-.459-.508-.931-.556-1.189.339-.06.25-.119.5-.178.749-.529-.821-.375-1.676-1.164-1.604-.394.059-.657.302-.863.623 1.712-14.616 8.115-28.362 17.417-39.455 3.447 3.145 6.908 6.264 10.384 9.361-2.949 3.561-5.497 7.468-7.548 11.629-.736.844-1.432 1.736-1.908 2.675-.545 1.123-.319 1.601-.868 2.724-.57 1.02-2.008 2.263-2.884 3.969-.631 1.267-.489 1.891-.733 2.329-.164.291-1.396 1.453-1.69 1.682s-.611.351-.799.538c-.269.333-.41.728-.551 1.123-.309.499-.618.997-.927 1.495-.177.433-.791 1.82-1.04 2.601-1.56.216-3.118.429-4.676.639zm24.325-25.775c.315-.125.733-.292.943-.376.956-.004 1.912-.01 2.868-.017.459-.051.905-.12 1.319-.072.173.153.347.306.521.459-1.021.376-.899.113-1.929.215-.991.172-1.259.504-2.017.695-.445.065-.679.044-1.019.067-.929.447-1.858.894-2.788 1.34-.275.067-.47.036-.641-.018 1.293-2.072 2.726-4.054 4.277-5.935.703.624 1.408 1.247 2.112 1.869-.26.13-.532.3-.757.391-.419.167-.599-.101-.938-.079-.338.024-1.832.506-1.994.796-.184.189-.006.46.043.665zm-3.428 17.799c-.146.852-.659 1.623-.806 2.475-.22.542-.124.956-.579 1.478-.375.375-1.035.527-1.458.695-.437.254-.796.595-1.14.92-.485.073-.969.145-1.454.216.026-.161.07-.316.085-.481.011-.458-.044-1.683-.352-2.016-.154-.165-.261-.122-.497-.143.21.904.195 1.793-.017 2.755-.247.037-.495.073-.742.109.189-1.686.477-3.356.84-5.008.114-.039.251-.173.389-.312.274-.49.489-1.917.354-2.618.619-2.174 1.383-4.304 2.281-6.378.535-.107 1.066-.091 1.52.092.647.311.615.663.898.891.414.289.939.078 1.192.66.047.207.065.767.033 1.118.146.623.299.787.127 1.537-.276.79-.811 1.457-.958 2.31-.225.996.325.888.284 1.7zm4.966-25.996c-3.477-3.094-6.94-6.209-10.388-9.35 10.268-11.222 23.596-19.385 38.274-22.305-.004 5.109-.008 10.218-.013 15.327-10.656 2.307-20.346 8.232-27.873 16.328zm-13.878 25.271c-.596 2.364-1.027 4.772-1.287 7.207-1.57.227-3.141.451-4.712.672.098-.906.679-2.121 1.518-2.659.929-.475 2.015.234 2.544.026.53-.206.729-.853.867-1.248.274-1.317.548-2.635.822-3.952.07-.027.141-.055.211-.083.013.013.026.022.037.037zm1.681 12.397c.135-.45.225-.903.384-1.351.128-.403.271-.798.417-1.191 2.616-.388 5.233-.784 7.85-1.186.15.253.306.464.476.587.653.305 1.078.134 1.762.085.474.036.841.113 1.232.295.913.424.72 1.069 1.162 1.457.391.181.686-.051 1.103.233.63.688 1.261 1.376 1.893 2.063.322-.434.645-.867.967-1.3.3.203.596.163.737-.077.518 3.786 1.931 7.237 4.086 10.09-4.287 4.984-8.596 9.976-12.924 14.965-5.668-6.255-9.033-14.809-9.145-24.67zm17.561-1.906c.127.073.212.151.308.229.013.153.022.307.038.458-.108-.258-.238-.528-.346-.687zm-20.388-44.751c-10.331 12.281-17.295 27.666-18.709 43.982-5.302.665-10.605 1.28-15.908 1.83.006-.361-.006-.716.004-1.078.621-21.104 8.789-41.051 21.418-57.049 4.375 4.154 8.773 8.257 13.195 12.315zm-18.91 47.224c-.003.088-.008.175-.013.263-.232.354-.465.707-.698 1.06-.28.295-.561.59-.841.885-.438.619-.655 1.724-.836 2.474-.196 1.553-.391 3.106-.587 4.66-.136.96-.366 2.527-1.282 3.095-.297.224-1.282.475-1.624.487-.367-.093-.65-.33-.993-.319-.321.119-1.176.434-2.017.285-.519-.267-1.236-.916-1.71-.972-.472-.057-.9.098-1.328.252-.535.193-1.282.464-1.733.511-.423-.014-.81-.226-1.158-.528-.505-3.354-.822-6.797-.897-10.333 5.239-.549 10.478-1.159 15.717-1.82zm61.532 87.804c-26.711 4.227-50.772-2.107-68.157-16.797 4.083-4.521 8.148-9.062 12.196-13.613 14.409 11.795 34.111 17.015 55.961 13.765zm0-20.454c-20.744 3.031-39.454-1.938-53.178-13.093 1.115-1.256 2.228-2.514 3.34-3.772.808.536 1.616 1.071 2.424 1.605.819.472 1.895 1.518 2.919 1.335.341-.061.683-.121 1.024-.183 1.156-.123 2.472-.084 3.612-.771.434-.174.71-.511.877-.805.25-.442.369-.944.801-1.117.457-.071 1.554.05 2.037.08.169.026.368.061.554.093 9.986 5.673 22.254 8.021 35.589 6.264.001 3.454.001 6.909.001 10.364zm0-28.341c-.494.286-1.765.718-2.269.927-1.21.39-1.752 1.068-2.751 1.821-.369.267-.738.534-1.108.8-.406.284-1.241.744-1.379 1.139-.138.398.181.716.26 1.022.078.309.048.658.017 1.01-.466.985-1.848 2.125-1.454 3.204.289.67.747.592 1.687.991 1.258.717 2.299 1.975 3.616 2.442.964.304 2.165.613 3.382.779v.304c-11.072 1.418-21.36-.165-30.09-4.233-.002-.12-.021-.237-.063-.344-.417-.737-1.831-1.177-2.694-2.299-.813-.914-1.437-2.024-2.332-2.796-.677-.519-1.353-1.037-2.028-1.558-.42-.435-.84-.871-1.259-1.307-.202-.184-.402-.369-.604-.554-.156-.163-.436-.845-.509-1.155-.046-.078-.092-.156-.139-.234 2.938-3.36 5.866-6.722 8.785-10.085 7.751 7.145 18.68 10.724 30.934 9.381-.001.249-.001.496-.002.745.001 0 .001 0 0 0zm0-4.013c-11.326 1.175-21.423-2.18-28.589-8.812 4.287-4.946 8.555-9.893 12.802-14.832 2.632 2.567 6.019 4.417 10.029 5.235 1.897.39 3.83.499 5.759.411 0 5.999 0 11.998-.001 17.998zm.001-23.083v1.416c-1.5.035-2.999-.08-4.474-.384-7.416-1.517-12.344-7.145-13.601-14.24.063-.158.122-.317.206-.467.403-.73 1.333-1.222 2.062-2.537-.237-.016-.947-.066-.916-.417.109-.499.746-.757 1.119-1.135.535-.671.889-1.606.924-2.412-.44.104-.879.208-1.319.312-.264.032-.527.064-.791.097-.353.143-.705.287-1.058.43-.129-.048-.258-.097-.387-.146.114-.979.275-1.963.521-2.959.461-.6.996-1.036 1.005-1.77.895-.138 1.055-.428 1.503-.498.944.066 1.428 1.565 1.945 2.258-1.157.021-.825.903-.755 1.665.373-.377.776-1.108 1.172-1.382.467-.153.934-.306 1.399-.458.317-.13.398-.275.69-.508.714-.406 1.264-.064 1.732.421.373-.378.321-.583.008-.907.175-.072.351-.144.527-.215-.138-.245-.276-.49-.414-.735-.528.217-.659.157-.743.756-.499-.134-.499-.134-1.051-.023.116-.16.231-.319.347-.479-.017-.069-.034-.138-.051-.207-.971-.167.034-.804.119-1.402.03-.353-.125-.514-.282-.677.423-.324.847-.648 1.27-.971.482-.874 1.028-.533 1.168-1.38 1.13-.122.59-1.37 1.383-1.919.185-.188.525-.214.736-.301.292-.231.581-.463.872-.694.42-.172.631-.259 1.026-.534.371-.376.664-1.06.904-1.496.16-.292.504-.77.557-1.018.029-.352-.153-.615-.28-1.127.447-.069.762-.2.999-.633.264-.336.164-.746-.308-.777-.105.042-.421.17-.526.213.432-.59.864-1.18 1.296-1.77.038-.467.076-.935.114-1.401-.131.091-.263.182-.394.273.019-.232.038-.464.057-.696.639-.255 1.283-.494 1.937-.688.032.231.089.474.154.734.129.513.588 2.356.795 2.723.232.469.992.725 1.569.714.366.076.915-.034 1.231-.164-.033-.438-.066-.875-.1-1.312.105-.043.21-.086.316-.129.155.312.311.625.467.938.104-.042.314-.128.419-.171.455-.034.909-.068 1.363-.102.132.057.132.057.262.117.184.264-.004.904.073 1.21.288.673 1.073.579 1.703.321.104.86.156.612.182 1.167.132.509-.187.639.626 1.548.155.16.498.585.813.458.314-.129.869-1.144 1.526-1.749.234.467.26.569.76.706-.026.198-.054.397-.08.596.368-.375.737-.75 1.105-1.125-.134 1.744-.87 1.59-1.477 2.852-.184.638.051 1.106-.028 1.702.044.02.087.039.131.059.123-.125.245-.25.369-.375.097-.078.193-.154.29-.232.92-.487.34.877.393 1.08.078.306.315.321.553.339-.149.173-.299.347-.447.521.131.209.262.419.393.628-.631.257-1.263.515-1.895.772-.923.488-1.608 1.445-2.324 2.299.019.068.036.137.055.205.113-.009.228-.019.341-.027-.571.497-1.145.993-1.716 1.49.579-.012 1.266-.518 1.794-.733.502-.317.42-.172 1.029-.534.124.025.247.05.37.075 0 .15-.001.301-.001.452.816.004 1.634.008 2.45.013.58-.01.949-.387 1.318-.31.501.133.423.728 1.213.631.926-.039 1.557-.745 2.269-1.147-.246.399-.492.799-.738 1.198.167.195.335.39.502.584.334-.21.668-.421 1.001-.631-.657 1.053-.711.4-2.189 1 .371.076 1.452.198 1.69.214.581-.011.846-.343 1.663-.334.685-.055 1.557.156 1.634-.889.159.161.319.32.451.38.37.076.581-.01.922-.037.261-.039.748.058 1.119.25-.003.218.012.432.001.652-.114-.141-.242-.28-.404-.403-.716-.5-1.611.088-2.404.184-.537.03-1.073.059-1.61.089-.404.089-.809.178-1.213.267-.66.156-1.083-.123-1.716.134-.212.086-.502.317-.449.521.055.205.317.322.447.38.741.15.451-.071 1.587.257.635.191.818.004 1.399-.006.203.03.405.061.607.091.449-.071.501-.316.95-.385.211-.085.662-.156.899-.138-.58.459-1.161.919-1.741 1.38-.484.084-.969.169-1.454.253.372.523.505.583.108 1.305-.105-.106-.211-.212-.317-.318-.238.433-.184.637-.422 1.07-.132.241-.264.482-.396.724-.054.247-.292.681-.504.767-.316.129-.738-.149-1.004-.268-.502-.131-.716-.044-1.218.272.477.482.662.294 1.272.384.501.132 1.825.718 2.249.996-.105.045-.211.086-.265.333-.156.29.186 1.164.479 1.381.264.118.502.133.82.004-.369.525-.74 1.051-1.109 1.577.582-.013.767-.201 1.299.034-.354.144-.706.288-1.061.431-.521-.2-1.043-.401-1.564-.602-.521-.05-1.043-.1-1.563-.15.556-.113 1.432-.358 1.907-.778.848-.795.264-1.682-.529-2.035-.504-.133-.822-.003-1.378.111-.45.071-1.165.025-1.589.199-.379.192-.759.385-1.14.578.01-.117.019-.232.028-.349-.343.028-.476-.03-.74.304-.399-.177-.424-.277-.874-.206.043.169.086.339.13.509-.185-.112-.37-.224-.554-.335.008.184.017.368.024.552-.317-.32-.344-.423-.818-.453.184.413.369.826.554 1.238-.046.131-.091.263-.136.394-.528.667-.371 1.729-.215 2.341.317 1.223.076 1.659.101 2.665.078.757.369.975.315 2.123 0 .451-.244 1.79-.376 2.184-.133.243-.267.485-.4.728-.089.262-.179.524-.268.786-.068.203-.175.392-.276.579-2.192 1.109-4.513 1.877-6.871 2.282 0-.542-.001-1.082-.002-1.624-1.052.182-2.108.36-3.163.538zm61.246-83.584c.019-.344.197-.519.188-.962.02-.345-.146-.953.134-1.168.28-.214.934.111 1.168.139-.42-1.204-1.313-2.236-2.357-3.039.086-.099.172-.198.259-.297 13.289 12.742 21.953 30.947 22.642 51.671.014.428.002.851.008 1.277-5.194.503-10.387 1.073-15.581 1.696-.935-10.417-4.386-19.864-9.677-27.785-.699-1.308-1.604-2.536-2.379-3.7-.503-.596-.903-1.231-1.561-1.547.004.014.009.028.013.042-.439-.517-.892-1.018-1.349-1.517.103.037.228.029.454-.098-.448-.392-1.744-1.812-2.239-1.96.139.257.258.434.373.58-.483-.492-.971-.98-1.473-1.452.205.098.401.168.57.176-.648-.746-1.503-1.84-2.517-1.931-.121-.104-.249-.201-.371-.304.154-.18.31-.359.464-.539.267.043.53.063.776.034-.177-.183-.332-.287-.488-.369 2.525-2.934 5.043-5.853 7.552-8.754.512.32 1.02.647 1.528.993.551.358 1.884 1.1 2.455 1.116.102-.036.204-.075.308-.112.367-.319.732-.639 1.099-.958 0 0 .103-.039.073-.139.018-.344-.091-.751-.072-1.093zm11.852 79.541c-.366-.872-1.929-.199-2.394.641-.231.42-.029 1.128-.02 1.572.124.849.164 2.623-.062 3.485-.224.863-1.027 2.163-.9 3.014.171.606.926.777 1.488.684.125.438.163 1.488.365 1.912-2.341 3.969-4.983 7.796-7.93 11.434-.154.028-.324.052-.539.057.396-1.941 1.357-3.98 2.128-5.833.361-.807 1.007-2.279.883-3.126-.152-.948-1.034-.733-1.469-1.016-.408-.186-.359-.429-.6-.45-.483-.043-1.145.54-1.6.6-.32.122-.59-.001-.832-.021-.379-.083-.775.181-1.095.299-.72-1.292-.125-4.203.143-5.763.128-.88.275-1.768.408-2.656 4.68-9.647 7.164-20.197 6.876-31.064-.008-.302-.035-.597-.047-.897 5.13-.619 10.261-1.185 15.391-1.686-.261 11.59-3.075 22.757-7.979 33.085-.198-.353-.396-.706-.593-1.058-.339-.771-.85-2.151-1.816-2.25.05-.24.281-.659.194-.963zm-69.921 11.801c-.001-1.008-.003-2.017-.004-3.024 2.644-.456 5.244-1.309 7.713-2.522.12.461.571.592 1.125.278.406-.26.786-.87.964-1.411.164-.096.334-.18.496-.28.533.557 1.066 1.113 1.601 1.67.293.219.427.726.88.653.454-.074.562-.566.694-.959.16-.291.346-.479.506-.771.186-.64-.455-1.277-.481-1.829.001-.42.22-.744.233-1.227.854-.699 1.682-1.433 2.466-2.221-.013.067-.019.136-.014.209-.104.943 1.066.464 1.146 1.222.028.551-.904.142-1.064.884-.266.784.269 1.016.508 1.479.08.306-.052.697-.079 1.047-.345.929-.797.552-1.357 1.119-.478.421-.932 1.395-1.438 1.713-.4.275-.798.104-1.12.235-.427.175-.694.961-1.495.613-.824-.45-.051-1.106-.316-1.673-.194-.295-.39-.59-.585-.885-.561.566-1.093 1.239-.774 2.009.398.624 1.199.972.904 1.655-.269.336-.907.599-1.364 1.124-.559.568-1.042 1.895-1.23 2.087-.268.334-.587.466-.855.803-.312.467-.625.934-.938 1.4-.08.146-.08.146-.162.292-.472.007-.942.015-1.414.021.062.238.123.477.185.714-.533.221-.533.221-.988.296-.349.031-1.017.195-1.125.691-.137.396.8.347 1.04.358 1.47.18 1.948 1.561 1.437 2.336-.349.483-1.073.443-1.525.518-.992.192-2.558.307-3.554.589-.003-2.129-.006-4.259-.008-6.389.32-.158.61-.329.756-.478.349-.485.138-.849.272-1.242.08-.147.241-.438.322-.585-.022-.423-.76-.679-1.358-.519zm12.908-13.156c-.362.332-.731.646-1.11.957-.047-.812.338-1.349.317-2.188-.055-.656-.48-.932-.585-1.339-.079-.305-.052-.654.266-.785.717-.405.928.408 1.061.917.018.368.036.736.054 1.104 0 .446-.129.834-.003 1.334zm-12.417 26.89c.59-.02.776.242 1.284.369.482.024.673-.166 1.075-.443.967-.4 1.958-.25 3.301-1.484.295-.233.564-.571.618-.818.241-.439.057-.699.404-1.183.431-.629 1.368-1.13 1.825-1.656.35-.481-.025-1.002.671-1.516.509-.321 1.15-.138 1.848-.648.615-.366 1.203-1.286 1.819-1.653.643-.263 1.15.317 2.087.271 1.23-.132 2.461-.262 3.693-.392.105-.043.346-.027.48.029 1.073.462-.265 1.234-.771 1.557-.402.276-.509.32-.937.494.134.058.161.158.295.218.481.024 1.605-.208 1.954-.688.161-.29.105-.495.024-.801.403-.275.587-.462.694-.957-.082-.305-.27-.563-.003-.897.158-.292.588-.467.909-.595-.591-.435-.965-.06-1.634.101-.345.031-.508-.129-.856-.1-.319.133-.586.467-1.066.438-.35.029-.751-.142-1.098-.113-.376-.072-1.283.078-1.312-.476.054-.245.133-.393.347-.479.08-.146.188-.189.294-.232.072.12.144.241.216.362 1.095-.786.802-.104 1.816-.296.936-.046 1.952-.683 2.914-.627.588-.014.454.378 1.019.711.671.289 1.498-.159 2.244-.464-.078.146-.186.188-.158.288-.132.392.135.509.376.522.115.026.234.024.35.005-2.584 2.266-5.386 4.306-8.372 6.058-.032-.061-.068-.12-.128-.145-.296-.216-1.154.136-1.475.268-.724.409-.563.57-1.742 1.056-1.312.58-2.626 1.159-3.94 1.74-1.216.501-2.239 1.193-3.021 1.715-1.349.436-2.72.811-4.106 1.129-.237-.021-.476.015-.705.149-.565.121-1.133.24-1.705.34 0-.35-.001-.699-.001-1.048.17-.044.336-.085.473-.109zm27.853-22.116c-.118-.097-.236-.192-.354-.289.156-.114.3-.219.393-.292-.013.194-.026.387-.039.581zm.1 4.477c-.028.182-.062.359-.4.697.075-.278.15-.559.225-.838.058.047.116.094.175.141zm-.216-.176c-.337.036-.736.18-1.018-.025-.189-.262-.27-.566-.245-.914.002-.024.002-.059.004-.087.42.342.839.684 1.259 1.026zm-.714 1.538c-.423 1.069.163.61.514 1.478.39-.157.861-.23 1.297-.341-1.009 1.089-2.064 2.138-3.16 3.145.019-.2-.094-.37-.451-.407.517-.433 1.031-.865 1.545-1.298-.855-.103-1.2.373-2.354.054.534-.218.644-.26.986-.736 0-.15-.001-.3-.001-.45.541-.484 1.083-.965 1.624-1.445zm-2.174 9.985c-.479.42-2.596 1.394-3.156 1.513-.101.017-.182.025-.259.03 1.249-.867 2.461-1.783 3.635-2.738-.027.434.218.815-.22 1.195zm-9.44 21.059c-2.405 1.034-4.873 1.933-7.388 2.71 1.167-.582 2.333-1.164 3.498-1.745.864-.361 2.134-.998 3.077-1.052.323-.019.569.034.813.087zm-10.842 3.681c-1.227.313-2.464.593-3.71.839.512-.146 1.023-.29 1.534-.435.774-.177 1.476-.284 2.176-.404zm-4.977 4.63c7.668-1.371 15.023-3.972 21.846-7.486.058.123.155.228.323.296.676.284 2.702-.21 3.541-.214.566-.118 2.461.229 2.896.503.271.115.326.315.626.532.299.217.894.198.977.501.085.303-.533 1.117-.694 1.406-.51.77-1.448 2.614-.659 3.303.3.215 1.031.255 1.411.323.106-.004.214-.008.319-.011-9.42 5.296-19.764 9.225-30.61 11.205-.005-3.451-.009-6.901-.013-10.352.014-.004.025-.004.037-.006zm28.804-33.392c-.075.038-.149.076-.225.113 1.38-1.294 2.695-2.646 3.938-4.059.2.163.401.327.602.489-.124.163-.255.308-.401.422-.715.848-2.901 2.401-3.914 3.035zm1.935-11.227c-.241.368-.384.694-.521 1.02-.622-.508-1.243-1.014-1.864-1.521.321-.132.77-.321.938-.49.505-.314.87-1.584 1.078-2.12-.458.334-.918.669-1.378 1.005.156-.738.679-2.294 1.207-2.957.09.338.182.676.272 1.014.001.299.003.598.005.896 1.144-.568 1.805-1.169 2.784-1.897.291-.23.874-.685 1.142-.568.375.077.242.467.19.71-.102.489-.654 1.496-.89 1.926-.736 1.191-2.013 1.7-2.963 2.982zm-.353-55.018c-.283-.062-1.107-.378-1.519-.706.114-.133.228-.267.342-.401.97.792 1.898 1.635 2.783 2.527-.838-.087-1.72-.247-2.332-.685.26-.177.52-.354.78-.532-.018-.067-.036-.135-.054-.203zm5.76 57.74c.055.114.114.231.144.339.091.877-.448 1.476-1.059 2.047-.18-.147-.36-.294-.54-.44.499-.64.983-1.288 1.455-1.946zm-1.847-61.632c-.181.183-.102.488-.149.733-.134-.062-.264-.123-.471-.041-.446.046-.665.373-.771.745-.478-.434-.964-.856-1.464-1.264 3.312-3.872 6.611-7.721 9.896-11.546.142.1.282.199.424.299.604.553 1.208 1.108 1.891 1.521.339.163.757.234 1.17.181.38.369.75.747 1.118 1.127-.394-.054-.787-.107-1.181-.16.031.398.063.797.095 1.196-.504-.032-1.008-.064-1.513-.096.087.751.596 1.79 1.28 2.203.427.173.854.347 1.281.521 1.049.499 2.128 1.1 3.103 1.742.871.679.954.984 1.271 1.314.264.125.527.25.812.031.068-.069.102-.198.124-.338.975 1.393 1.883 2.842 2.727 4.338-.172 1.104.193 2.16.375 3.194.126 1.296.252 2.593.379 3.889.183.528.366 1.057.55 1.585.432-.944.326-2.582.387-3.612.032-.537.104-1.016.185-1.475 2.719 5.774 4.488 12.179 5.116 19.034-1.022.127-2.044.256-3.065.387.636-.512.461-2.271-.645-1.751-.467.397-.593.78-.454 1.287.019.269.159.465.355.56-.294.038-.588.076-.882.114-.101-.063-.209-.106-.361-.121-.58-.008-1.287.371-1.798-.221-.588-.451-1.462-2.362-2.002-3.055-1.214-1.893-1.207-1.447-1.743-2.141-.348-.427-.383-.975-.521-1.482-.216-.367-.507-.592-.563-.795-.109-.407.146-.728.379-1.152.329-.91.162-1.516.572-2.12.336-.463.706-.379.831-.761.508-1.088-1.176-1.348-.799-2.499.201-.525.842-1.549 1.363-1.746.392-.257.758-.173 1.148-.431.36-.358.271-1.108.369-1.594.241-1.21.896-1.341.817-2.879-.035-.546-.126-1.296-.444-1.625-.583-.454-1.2.225-1.297.708-.277.665-.084 1.375.083 1.985.062.647.076 1.539-.202 2.203-.327.905-1.328.61-1.646.282-.16-.164-.11-.407-.166-.61-.119-.851-.41-1.078-.347-2.109-.005-.446.211-1.76.05-1.923-.083-.305-1.219-1.107-1.509-1.334-.554-.351-1.586-1.193-2.308-.471-.646.581-.289 1.904-.305 2.693-.022.346-.064 1.035-.379 1.154-.179.179-.576-.004-.838-.129-.687-.41-1.109-.696-1.354-1.612.34-.018 1.254-.032 1.249-.477-.109-.407-.718-.96-1.135-.801-.442.06-.439.506-1.068.299-.525-.247-1.822-1.654-2.401-2.104-.736-.613-1.758-1.003-2.726-1.189-.574-.002-2.454-.168-2.893.339zm7.472-11.872c.041-.049.084-.098.125-.146.7.586 1.386 1.192 2.055 1.815-1.143-.418-1.332-1.009-2.167-1.663-.006-.003-.007-.004-.013-.006zm6.831 1.104c.125.112.263.241.43.415.021.027.032.047.052.074-.158-.167-.325-.324-.482-.489zm-10.414 72.771c.106-.042.319-.126.425-.168.612-.204 1.226-.409 1.838-.612.346-.175.691-.35 1.037-.523.562-.106.749.154 1.497-.138.85-.482 1.698-.963 2.547-1.443 1.064-.414 1.664.475 2.664-.587.817-.875 1.346-3.207 1.518-4.28.193-.859.385-1.718.577-2.576.036-.574.072-1.147.108-1.721.22-1.318.503-1.986.14-3.301-.178-.642-.355-1.283-.533-1.925-.225-.811-.497-1.379-1.253-.305-.573.892-.695 1.725-1.81 1.929-.088 1.379.358 2.999-.852 4.139-.446.51-1.032.512-1.534.82-.291.225-.661.593-.901.576-.316.124-.585.002-.667-.302-.007-.445.68-.938.971-1.162.978-.716 1.479-1.024 2.104-2.163.362-.812.329-1.361.612-2.03.312-.568.658-.589.969-1.157.235-.428.59-1.685.793-2.211.239-1.398.478-2.797.714-4.195.46-1.296 1.485-1.799 1.543-3.278.083.156.164.312.246.468 1.047-.846.872-1.9.488-2.873.631-.24 1.95-.516 2.449-.814.729-.723 1.458-1.444 2.188-2.165.322-.319.76-.799 1.075-1.28 1.332-.174 2.665-.344 3.997-.51.013.299.038.594.045.894.197 7.843-1.14 15.518-3.743 22.775-.213-.558-.425-1.117-.637-1.674-.191-.263-.518-.59-.911-.328-.609.341-.871 2.342-1.046 2.967-.35.992-.699 1.983-1.049 2.976-.283.666-.404 1.496-.823 2.105-.339.466-.922.911-1.398 1.317-.246-.467-.537-.241-.933.025-.599.527-1.199 1.058-1.798 1.587-.369.367-1.08 1.203-1.614 1.41-.425.163-.724-.057-1.332.293-.427.168-1.116.658-1.465.684-.454.065-.992-.172-1.448-.106-.346.023-.958.377-1.249.602-1.066.418-2.833.446-3.98.565.184-.188.397-.272.343-.474.071-.59-.924-1.205.088-1.831zm16.286-93.126c-.065-.032-.13-.064-.195-.096-.836-.588-1.809-1.687-3.007-2.364-1.299-.641-2.201-.642-3.341-1.114-.658-.352-1.316-.705-1.974-1.057-1.166-.571-2.331-1.141-3.496-1.71-.905-.442-2.021-1.254-2.749-1.875-.753-.723-.628-1.108-1.042-1.398-.285-.228-1.211-.324-1.646-.27.033-.162.065-.324.099-.486-.274-.044-.549-.089-.823-.134.298-1.012-.262-.574-.985-1.193-.285-.228-.393-.636-.859-1.131-.693-.519-1.569-.855-2.418-1.091-1.36-.336-2.721-.671-4.079-1.005-1.31-.28-3.103-.703-4.481-.389-1.047.296-1.634 1.087-2.63 1.592-.896.462-2.89 1.024-3.398 2.124-.536.999 1.285 1.968 1.952 2.382.625.391 1.25.783 1.875 1.174.543.349.722.615 1.288 1.068.516.249 1.492.539 1.93.931.438.389-.15.733.444 1.287.466.493 1.496.988 1.86 1.521.208.368.365.981.753 1.167.361.086.718-.279 1.025-.399.488-.302 1.869-1.513 2.358-1.366.49.147 2.249 1.264 2.665 1.553.259.125.802.476.779.821.133.509-1.595.391-1.099.985.155.165 1.239.419 1.629.606.482.263.966.526 1.448.79.554.236 1.107.473 1.66.709.389.189.859.683 1.221.768.698.071.92-.799 1.541-.587 1.19.221 2.213 1.515 3.511 2.145.857.238 1.035.059 1.734.133.597.112 1.014.403 1.637.619.959.2.979-.143 2.153.429.053.026.102.054.154.08-2.596 3.009-5.2 6.037-7.814 9.08-.238-.079-.46-.137-.646-.164-3.645-2.683-7.616-4.915-11.859-6.62-.147-.075-.337-.169-.54-.204-8.741-3.405-18.579-4.61-29.009-3.09-.004-7.052-.006-14.104-.01-21.156 21.294-2.988 40.655 3.38 55.115 16.096-.244.277-.488.558-.731.839zm-20.428 13.686c.445.483 1.143.942 1.607.928 1.355.826 2.663 1.723 3.934 2.668-3.476 4.054-6.969 8.135-10.475 12.239-.381-.266-.768-.52-1.157-.772.06-.291.173-.464.039-.657-.124-.178-.695-.271-1.037.021-7.569-4.561-16.832-6.545-26.851-5.07-.002-5.099-.004-10.197-.005-15.295 12.549-1.837 24.202.482 33.945 5.938zm-14.733 14.529c-.209.221-.458.297-.661.554-.23.429-.074 1.042.029 1.452 1.457-.584 1.145-.908 1.976-1.239.073-.049.162-.085.25-.12 2.103.91 4.1 2.006 5.965 3.287-.229.268-.458.536-.687.805-.179-.014-.352-.026-.482-.016-.444.062-.909.472-1.512.374-.808-.016-1.176-.544-1.88-.601-1.302-.155-2.291.464-3.411 1.024-.521.208-1.355.541-1.823.955-.363.371-.494.761-.625 1.152-.391.719-1.276 1.299-1.066 2.116.289.672.94.524 1.202.642.287.372.576.744.864 1.115-.706.396-1.071.319-1.697.57-.81.438-1.619.877-2.429 1.317-1.281.404-1.779-.183-2.614-.296-.47-.035-.782.093-1.147.014-.393-.179-.47-.486-.603-.544-.287-.222-1.383-.004-1.697.124.053.204.078.306-.079.595-.131.391-.969 1.181-1.387 1.352-.184.186-.523.212-.757.195 0-.15.001-.301.001-.451-.025-.555-.339-.427-.731-.156-.601.357-.917.937-1.363 1.456.131-.392.238-.886.475-1.32.342-.477.839-.792 1.311-1.208.488-.499.977-.998 1.465-1.496.365-.373.942-.832 1.204-1.164.783-.993.655-3.308.268-4.392-1.537 1.187-1.095 1.118-2.114 2.095-.366.373-.575.458-.861.687-.262.331-.289.682-.317 1.03-1.199.26-.239 1.336-.318 1.933-.186.639-1.26 1.865-1.886 1.667-.287.23-.601.358-.941.382-.339.025-.6-.094-.913.035-.068.078-.137.156-.206.234-.001-5.356-.003-10.711-.005-16.067 6.907-1.022 13.423-.27 19.202 1.908zm-19.314 137.232c-.006-5.545-.013-11.089-.02-16.634 12.834-2.354 24.992-7.292 35.843-13.954.139.093.281.175.452.231.653.184 1.627-.208 2.413-.413 1.14-.083 2.279-.164 3.419-.244 1.196-.026.824.794 1.746.65 1.926-.431 4.587-2.935 5.978-4.373.966-.826 1.932-1.65 2.896-2.473 1.153-1.007 2.165-2.069 3.178-3.13 1.565-1.805 2.779-3.871 3.549-6.006 3.425 2.765 6.862 5.541 10.312 8.331-17.913 18.56-42.565 32.898-69.766 38.015zm72.042-40.459c-3.815-3.097-7.615-6.176-11.4-9.241.164-.468.287-.873.284-1.051.017-.297-.114-.494-.255-.676 14.192-16.128 22.769-35.954 23.148-57.155 5.51-.503 11.019-.929 16.528-1.262-.053 26.007-10.577 49.965-28.305 69.385zm-72.334-162.204c52.927-7.937 97.958 34.008 100.577 88.55.016.397.006.789.018 1.185-5.5.327-11.001.748-16.502 1.246-.007-.424.003-.846-.012-1.271-.754-21.728-9.894-40.866-23.862-54.256 3.681-4.231 7.344-8.422 10.99-12.569-.741-.667-1.481-1.333-2.221-1.999-3.631 4.141-7.279 8.325-10.944 12.548-15.145-13.37-35.396-20.074-57.665-16.963-.002-5.164-.005-10.328-.007-15.491-1.006.141-2.011.281-3.017.422-.003 5.188-.008 10.376-.011 15.564-21.957 3.913-41.804 16.496-56.533 33.843-3.679-3.511-7.341-7.058-10.985-10.647 18.299-21.146 42.973-36.308 70.174-40.162zm-61.336 53.412c-13.311 16.742-21.948 37.666-22.632 59.868-.011.362 0 .715-.006 1.075-5.458.535-10.916.998-16.373 1.375.009-.334 0-.662.012-.998.996-27.009 11.707-52.114 27.99-72.02 3.652 3.608 7.322 7.172 11.009 10.7z" fill="#003172" filter="url(#filter2937-9)" opacity=".823688" transform="matrix(1 0 0 1.0366026 -.000001 4.499694)"/>
    <path d="m131.654-144.92035c.58101 4.43148 1.419 9.29832 1.905 14.8628-.00094.0974-.003.19281-.005.29025.005-.0456.014-.0912.02-.13683.006.0611.013.12025.017.18348.044-.39391.088-.78472.13299-1.17655.858-5.08556 2.83301-8.58307 4.269-12.4869 1.63401-4.11636 5.99801-10.23231 8.66301-15.61228 3.357-7.07481 7.18899-14.85141 8.96-27.04599-10.289 8.07512-15.017 19.16159-17.751 26.4344-.53501 1.51655-.95501 2.82163-1.317 4.10597.19-3.41767.226-6.67156.075-8.69087-.471-7.84916-1.547-17.45742-7.044-28.3459-3.801 14.26676-1.496 25.94098-.342 33.7694.496 4.40038 2.053 10.91128 2.41699 13.84902zm31.38201 104.174413c3.74199 1.724906 11.292 6.027844 16.59 7.6097-.632-.528668-1.334-1.113311-2.076-1.733199-4.27001-3.779454-6.77801-7.575493-8.08301-11.501106-1.318-4.305011-2.176-9.401986-2.92-13.407416-1.61799-8.135258-2.78-14.834821-11.07-26.056044-1.493 14.505181-.438 20.713393 2.188 27.892901.88301 2.456748 1.496 4.702029 2.47001 6.99603-1.72001-1.584964-3.363-2.850656-5.493-4.102872-6.492-3.649876-17.09901-11.408846-29.08301-12.583317 6.554 12.868383 18.51701 19.231049 25.539 22.337748 3.473 1.495816 8.15201 2.692057 11.93801 4.547575zm-31.308-67.462093c2.49699 4.02823 4.35099 10.141083 6.97099 15.19348-.052-.266403-.10099-.536956-.151-.8044-.327-5.526128.067-11.73952.838-16.21558.76601-4.34854 2.694-9.70882 4.041-13.42919 2.643-7.59933 6.146-16.30783 4.985-30.08323-8.859 10.04674-10.74 19.59074-12.731 27.10922-.628 2.49822-.897 5.99779-.913 9.27344-.708-3.59701-1.698-7.4656-2.985-10.17113-3.042-6.82499-6.134-14.03768-16.42899-21.40688 1.18399 14.00864 5.81599 21.85468 9.68799 28.45888 1.948 3.22073 4.587 8.42966 6.68601 12.07539zm.98199 28.372847c2.808 2.608092 6.787 5.850585 9.99801 8.653558 3.033 2.54486 6.95899 5.991564 9.786 11.066771.11299.233235.225.460251.339.693487-.014-.04458-.026-.08603-.04-.130613.093.17415.187.349336.277.527631-.32801-.866599-.64901-1.771553-.966-2.696204-1.38401-4.754895-1.912-9.355338-2.115-13.297537-.35601-4.674041.267-10.051936.60999-14.280239.595-8.615207 1.38801-18.707571-3.42699-32.389691-6.223 13.1576-5.38601 22.183302-5.28201 30.502038.095 3.08804.489 5.585215 1.122 8.016049-1.155-2.009973-2.247-3.748356-3.85599-5.631867-5.025-5.693018-12.795-15.54178-22.93-20.92381 2.88799 14.859685 10.84099 24.522898 16.48399 29.890427zm243.83902-107.470817c-2.748-6.7037-7.50201-17.0718-17.80801-23.76618 1.796 11.39433 5.646 18.39036 9.018 24.82456 2.677 4.87203 7.054 10.38571 8.698 14.18901 1.44501 3.6053 3.42501 6.81877 4.297 11.56538.042.36488.088.72666.13301 1.09361.005-.058.012-.11195.016-.17104.007.0435.016.084.021.12647-.002-.0902-.005-.17622-.006-.26744.47301-5.23588 1.303-9.81456 1.873-13.96822.356-2.7584 1.899-8.8526 2.38901-12.95132 1.137-7.31012 3.41599-18.09804-.41601-31.51169-5.47299 10.025-6.531 19.14606-6.98 26.49765-.15 1.89905-.105 4.95081.092 8.15392-.36499-1.19625-.789-2.40804-1.32699-3.81471zm-18.37701-29.03938c2.574 2.19552 7.305 5.18924 9.651 7.54336 2.403 2.2971 5.15001 6.39584 7.257 10.48212.26601.61159.517 1.218.74001 1.80576-.046-.20006-.086-.3908-.129-.58568.02.0415.04.0819.061.12336-.036-.10678-.068-.21561-.106-.32343-1.438-6.6104-1.242-10.39919-1.366-14.22321-.224-3.87379.232-8.32497.682-11.74161.698-6.91725.923-15.15098-3.93-26.39916-5.596 10.54226-4.604 17.01065-4.394 23.75064.111 2.45364.47299 5.14985.993 7.96216-1.22-1.75602-2.532-3.30677-3.93701-4.67613-4.86099-4.57452-10.64599-10.65316-22.19299-12.87667 4.99399 10.26444 11.21599 14.387 16.671 19.15849zm-2.514-18.54794c2.41 1.87833 6.335 5.69821 8.385 8.74064-1.978-3.12225-3.588-8.48564-4.55-12.10234-.961-3.6136-1.704-5.51576-3.086-8.2047-2.525-4.67093-5.898-10.58993-14.718-14.71872.396 10.10791 4.13 15.30854 7.236 19.80118 1.568 2.17894 4.322 4.59836 6.733 6.48394zm-215.58201 49.42522c-.114 4.07385.091 8.09794-1.333 15.18416-.034.11609-.068.23323-.104.34933.021-.0435.042-.0891.062-.13373-.042.21044-.082.41465-.12799.62923.22199-.6344.47299-1.28746.73499-1.94881 2.097-4.42319 4.83401-8.90442 7.232-11.49385 2.343-2.63194 7.06401-6.18645 9.633-8.77796 5.44301-5.57278 11.65601-10.75994 16.62501-22.26933-11.539 4.08214-17.31201 10.88537-22.162 16.12435-1.39901 1.55179-2.708 3.27982-3.924 5.21204.513-3.01133.87-5.89204.975-8.49703.19399-7.18366 1.17199-13.9931-4.45001-25.05365-4.824 12.04636-4.58299 20.8212-3.86599 28.18523.454 3.63432.922 8.36019.705 12.49002zm239.66202 37.87745c-.025-3.06938-.30201-6.33467-.933-8.64526-2.00601-6.9442-3.91001-15.93257-12.79101-24.71571-1.128 13.14204 2.395 21.05029 5.055 28.00796 1.35201 3.39902 3.294 8.30941 4.068 12.35217.777 4.15572 1.191 9.96588.88 15.19243-.053.26433-.10399.53489-.15499.79611 2.60799-4.96325 4.44799-10.81487 6.936-14.68347 2.091-3.49853 4.71999-8.40892 6.66-11.39848 3.85899-6.16053 8.47299-13.19803 9.62599-26.04567-10.279 6.13045-13.356 13.11924-16.38199 19.52026-1.278 2.55522-2.265 6.21754-2.964 9.61966zm-211.32402 47.51995c-.073.0249-.145.0518-.217.07774.12501 1.731123.555 1.575633 1.066 2.930479.267.731835-.012 1.069774.738 2.452598.354.582574.59801 1.204536 1.31501 1.29783-.38801-1.873144-.723-2.929439-1.52001-4.53721-.548-.981669-.89499-.974409-1.382-2.221437zm111.30401 66.768607c-16.086 3.510973-15.62801 8.676364-23.99 10.106875 0-.001 0-.002 0-.002-.055.01037-.111.02177-.166.03214v.002c-8.36201 1.857591-7.91-3.440485-23.99801-.770196-6.183 1.042822-35.208 18.6505547-52.66099 18.2193283.993 4.4801961 17.68999 9.019479 32.638 5.41521175 7.758-1.82131085 30.288-20.75382105 39.177-16.07667005-.005-.001-10.8 5.994673-22.762 18.0700568-7.337 7.5018936-13.29101 18.4525622-14.495 22.6622062 4.578-.86971 9.146-.06426 13.752-3.814698 4.028-3.068343 11.41599-26.9972778 28.436-34.660881 17.026.897697 24.434 21.6971297 28.464 23.1297143 4.611 1.8907627 9.175-.6727552 13.753-1.5331358-1.208-3.6851217-7.17-12.2288007-14.515-16.8116213-11.972-7.3121952-22.77-9.0008202-22.776-9.0018582 8.884-8.201598 31.429 1.853447 39.188.882151 14.945-1.998572 31.637-11.366349 32.625-15.895266-17.449 5.174721-46.486-1.316484-52.67.04665zm49.387-21.914816c-1.221.532813-2.344 1.009651-3.439 1.473012.814-.839648 1.6-1.719724 2.382-2.666141 5.601-6.95664 11.331-14.177613 14.346-28.099186-13.417 8.745816-18.246 16.14405-23.466 23.691553-2.516 3.751463-5.417 8.59447-9.326 11.965502-4.002 3.534815-11.534 6.906884-17.239 9.400949.027-.0051.059-.01348.085-.01866-.076.02592-.156.05494-.23.08293.33699-.0767.71799-.163784 1.12899-.260187 2.17401-.43641 4.69601-1.003433 7.31801-1.668931 5.31799-1.187947 11.292-2.410101 14.227-2.738704 4.808-.664462 8.529-1.106054 13.353-1.580819 11.19999-1.401487 27.68199-7.848118 38.13-18.197558-15.11001.686232-29.53101 5.81223-37.27 8.61624zm46.308-65.382681c-1.604 1.91047-2.694 3.65714-3.843 5.67645.628-2.36243 1.017-4.76112 1.104-7.68331.087-7.85951.903-16.46746-5.348-28.32309-4.785 13.46443-3.969 23.02191-3.355 31.10222.354 3.96812.987 8.99046.642 13.47585-.194 3.77322-.713 8.212997-2.085 12.949235-.316.928792-.635 1.839966-.961 2.717971.09-.185558.183-.365927.275-.545256-.015.04354-.026.08396-.041.127502.11501-.238415.22601-.47269.339-.712145 2.81301-5.280454 6.732-9.074417 9.76101-11.806897 3.204-3.00719 7.175-6.3917 9.978-8.99668 5.631-5.43077 13.562-14.43574 16.418-28.03492-10.124 4.54135-17.872 14.2709-22.884 20.05307zm-175.57401 97.837672c2.93501-.632327 8.90901-1.425329 14.229-2.133328 2.62101-.264333 5.14401-.609522 7.317-.971296.411-.05598.79301-.106771 1.13001-.153418-.075-.001-.15501 0-.232.001.027-.0051.058-.0083.084-.01244-5.709-.402202-13.245-1.159958-17.253-3.420789-3.917-2.113633-6.827-6.133578-9.35201-9.188446-5.235-6.161566-10.07499-12.120995-23.50999-17.880358 3.045 13.749496 8.791 19.710999 14.406 25.213285.784.742208 1.566 1.414962 2.38699 2.030704-1.09899-.144087-2.22-.298541-3.44199-.490313-7.74501-.589825-22.17001-1.958141-37.279-.236345 10.47099 9.29729 26.96299 11.899162 38.16499 9.861201 4.818-.971296 8.54301-1.703138 13.35-2.619495zm154.68201-58.971284c.968-2.377967 1.575-4.635687 2.454-7.139083 2.61-7.318418 3.651-13.372175 2.125-26.956855-8.262 12.03288-9.409 18.828857-11.01 26.928866-.734 3.997141-1.578 9.072347-2.888 13.50797-1.3 4.074885-3.801 8.296967-8.062 13.051864-.737.787818-1.438 1.534171-2.065 2.210036 5.292-2.969866 12.83-8.869171 16.568-11.265797 3.781-2.569739 8.456-4.565198 11.925-6.533706 7.013-4.16507 18.962-11.423359 25.486-23.563013-11.981 1.44192-22.57 10.26858-29.052 14.856587-2.126 1.551794-3.767 3.061088-5.481 4.903131zm-83.035-31.630888c-.098-.38562-.195-.77227-.293-1.15789-.428.65099-.561 1.05838.293 1.15789zm-24.516-35.94939c-.078-.16274-.155-.32445-.233-.4872-.318.13476-.82.46543-1.08801.8127-.26599.34622-.059.72769-.405 1.22734-.40099.75568-1.19799 1.32788-1.383 1.5238-.29299.24153-.111.51519-.56499 1.05941-.64101.74013-1.13901.59916-1.53801.88733-.50599.32964-1.176 1.43466-1.52499 1.93431-.484.9091-.59601 1.42532-.739 2.30436-.055.25916-.191.6686-.035.83654.15499.16688.474.0322.663-.16378.399-.2861 1.25199-1.11746 1.59699-1.14753.31701-.13476.475.0332.711.0477.34401-.028.555-.11714.79401-.10263.237.0166.52599.24465.78999.36696.606.0933 1.09-.81477 1.2-1.32996.056-.25707.11001-.51416.034-.83343.131.0611.26201.12128.393.18244.695-.99721.806-1.51344 1.289-2.4215.40101-.75568.72-.89044.987-1.23875.16-.30164.11001-.51518.139-.87903.11-.51519.402-.75569.224-1.501-.05-.67586-.596-1.4979-1.31-1.07807zm-.25601-3.98988c-.52699.22287-.633.26953-.612.84586-.17599.0747-.35199.14927-.528.22391.061.0912.12201.18141.183.27264.606-.37423 1.029-.55253.957-1.34241zm.933 1.47716c-.36799-.0767-.765.20835-1.05499.44884-.026-.10573-.209-.38043-.338-.44158-.943-.53593-1.705 2.1271-.406 1.22733.363.54733 1.494.8863 2.148 1.19417.187-.19592.268-.34726.32299-.60434.18801-.66653-.066-1.73113-.672-1.82442zm-6.522 4.8741c-.08.15239-.24199.45403-.297.71215-.03.36592.363.5494.657.30891.29201-.24153.58901-.95264.855-1.2999.26801-.34829.37401-.39183.666-.63337.267-.34726.61401-.84587.882-1.19417.79901-1.04178.90101-.61677 1.07001-1.85862-.052-.21354.029-.36592-.022-.57738-.54401-.82307-1.97801.4872-2.107.425-.229.0198-.457.0384-.685.057-.237-.0186-.635.26847-.951.40116.81.47788.83499.58464 1.785.1814-.059.7277-.783 2.0898-1.546 1.82754-.497-.14099-.59801-.56806-.834-.58362-.368-.0788-.297.71215-.459 1.0138-.353.9713-1.118 1.17655-1.029 2.54487.124-.13062.249-.26123.373-.3908.518.71421 1.163-.49757 1.642-.93398zm3.675-4.135c.009.0352.018.0705.027.10677-.044-.0198-.089-.0393-.13299-.0601.035-.0145.071-.03.10599-.0467zm13.032 18.08871c.18801-.19591.18801-.66446.13701-.87697-.051-.2125-.211-.37732-.343-.43847-.239-.0166-.34601.03-.557.12127-.053-.21146-.105-.42293-.157-.63439-.10601.0456-.213.0902-.318.13683.024.26226.05.52451.074.78678-.097-.0757-.192-.15134-.289-.22806.069.43849.138.87697.206 1.31545.289.69556 1.086.11922 1.247-.18244zm14.71901-50.13321c.338-.49135.313-1.06459.521-1.61813.313-1.06252 1.068-1.72698 1.012-2.87139-.328.0591-.658.11817-.988.17726 0 .46647.054 1.14544-.441 1.46783-.104.0425-.547.11195-.678.0487-.077.46025-.155.92154-.234 1.38179-.13.40531-.338 1.42532-.259 1.74252.027.57325.755.26745 1.067-.32859zm20.825-8.55093c-.206.084-.416.16793-.597.35659.055.21042.186.27678.343.44366.131.0633.263.1275.393.19074.732.17208.986-.62818.669-.96715-.158-.17-.601-.1078-.808-.0238zm-33.365 71.7785c.26599.12025.346.43848.424.75568-.276.15653-.553.3141-.829.47166-.099.23738-.19601.47477-.29501.71318-.135.25189-.26899.50379-.40399.75568.507-.0218 1.014-.0446 1.521-.0653-.69401.52867-1.149.60849-1.527 1.47198.607-.26018 1.21399-.52038 1.81999-.77953 1.20401-.39909 2.136-.45091 3.18201-1.48235-.089-.0384-.178-.0788-.268-.11817.064-.37731.127-.75568.189-1.133-.293-.0684-.585-.1389-.878-.20732-.12501-.18037-.249-.36281-.37401-.54214-.53199-.39598-1.06399-.78989-1.596-1.18588-.159-.01-.31899-.0198-.47899-.0279.31999-.60642.98899-1.7104-.15701-1.56942-.18699.0404-.372.0788-.558.1192.13401-.25085.26801-.50171.40001-.7536-.666.16585-1.226.28921-1.653.94019-.48401.90704-.381 1.79851.577 1.8576-.082 1.08636.482.49445.905.77952zm11.263 8.03161c.83.46129 1.635-1.51344.375-1.32789-.106.0456-.35.0332-.429.18243-.216.0944-.429.18348-.615.37941.125.17933.251.36073.375.54007.026.10781.188.27159.294.22598zm-25.76001-42.56188c.072-.18658.144-.37213.216-.55872.63201-.26848.61101-.84586.273-1.28746-.13099-.0622-.36799-.0798-.498-.14098-1.23199-.29854-1.215.74947-1.43199 1.31027-.108.35763-.216.71525-.325 1.07391.139.0975.279.19489.418.29129.713-.41879.975-.29543 1.659-.35037-.103-.11299-.207-.22494-.31101-.33794zm29.06401-33.50713c.574-.47269.626-.72667 1.016-1.00447.181-.19178 1.534-.28714 1.117-1.04697-.132-.0633-.261-.12542-.394-.18762-.007.1192-.016.23945-.023.35969-.39-.18763-.91101-.43848-1.38-.47786-.47001-.0373-1.95201.46127-2.473.6769.382.15237.763.30475 1.146.45714.33.40738.66.81581.991 1.22319zm-115.934-23.50704c2.40799-2.22559 5.154-5.09283 6.717-7.57446 3.09499-5.09593 6.814-11.06987 7.188-21.68573-8.80901 5.51578-12.16701 11.97484-14.68001 17.15059-1.378 2.95847-2.11699 5.02546-3.06799 8.91894-.95301 3.89348-2.55101 9.69223-4.521 13.13375 2.043-3.35549 5.958-7.7144 8.364-9.94309zm87.723 55.71635c.034.14202.067.28299.10099.42501.21101-.0891.42101-.1783.609-.37318.345-.49861-.015-1.51551-.37999-1.59532-.344.0279-.477.43537-.426.64787-.01.12127-.02.24256-.03.36384.041.17726.084.35452.126.53178zm.742 2.14265c-.151-.63751-.02-.57531.534-.69348-.049-.36903-.099-.73806-.148-1.10812-.29201.24153-.713.42085-.97901.76604-.40299.75569-.27499 1.28954.59301 1.03556zm-66.19401 87.90184c-.029.03317-.058.06738-.087.101587.74001.688305 1.48001 1.376607 2.22201 2.061803.034-.03939.069-.07775.10299-.117137 18.76101 16.553505 45.09101 23.266544 74.20101 17.572487 60.312-12.809298 106.921-64.69126 104.104-122.45387-2.817-58.62714-49.534-104.04484-104.34901-95.52293-54.81499 8.50843-101.42299 61.36273-104.104 123.13389-1.136 30.60257 9.378 57.713878 27.91 75.22417zm-24.19099-71.08191c5.46399-.39703 10.929-.88216 16.393-1.44089.044 2.662.218 5.2732.48 7.84501-.522-.15341-1.36401-.72977-1.87101-.8469-.129-.0695-.51699-.2861-.708-.0995-.213.0767-.22899.55563-.29299.81478.073.92051.33199 1.06458.894 1.57252.13.0726.53899.39702.264.73392-.467.52451-1.36001-1.04905-1.844-.0477-.063.25915-.041.37111-.12501.5183-.071.0239-.142.0508-.214.0757-.234-.58775-.468-1.17551-.702-1.76326-.052-.25708-.104-.51415-.15699-.77226-.297-.5266-.594-1.05216-.89001-1.57875-.26799.3711-.537.7422-.80499 1.1133-.102-.31927-.204-.63853-.306-.95782-.123-.23323-.246-.46542-.36801-.69867-.21699-.51829-.64599-.36799-1.028.002-.74299.85209-1.207 1.96229-1.67599 2.47956-.576.55459-1.068.368-1.47401.62611-.489.40634-.786 1.218-.889 1.8493-.13299 1.62539-.267 3.25389-.39999 4.87928-.387 3.80952-.77001 4.77045-.017 8.54161.212.67795.424 1.35588.637 2.03278.229.94745.458 1.89594.687 2.84341.169.45506.337.91117.505 1.36521.072-.0239.145-.0498.217-.0747-.291-1.43984-.502-4.21068-.232-5.72826.248-1.62541.847-2.07114.706-3.91838.133.46856.266.93606.398 1.40356.533-.77952.442-1.2211 1.233-1.85448.327.47788.457.55044.697 1.17759.219.51519.309.95678.635 1.43258.328.47788.565.51105.87.87697.282.25604.503.76812.699 1.17136.373.69764.728 1.87521 1.655 1.89491.272-.92775.071-1.91978-.004-2.84132.063-.26019.035-.95887.226-1.14546.516-.30476.82601.64995.894.97856.39501.80441.72801 1.86899 1.31601 2.48059.636.8355 1.041.56805 1.898 1.90942.034-.2094.067-.41775.10099-.62611.375.68935.059 1.39735.924 1.67101-.089-.43952-.36999-2.34791-.22399-2.75736.061-.25916.385-.37837.6-.45818.294 1.23148.589 2.464.88399 3.69445.091.43848.31301.94538.597 1.19521.675.45816 1.33901-.26331 1.66701.20524.21.62921.42 1.25947.63099 1.88869.51501 1.34654 1.20801 2.97297 1.91601 4.12153.533.86453 1.24299 2.011005 2.05299 2.527233.18101.15653.41801.32342.67101.365927 3.344 5.689909 7.407 10.76719 12.083 15.112628-4.04501 4.706175-8.109 9.398875-12.189 14.07188-16.95201-15.967827-26.96301-40.229518-27.015-67.862228zm92.18299-98.11237c1.25001.0684 2.03801.56184 3.41801.22287-.585-.42086-1.169-.84172-1.75301-1.26362.26601-.30477.53201-.61056.79701-.91532-.50901-.25811-.71301-.17312-1.19601-.32446-.20499-.10366-.28099-.26226-.43399-.38768.351-.0882.706-.16171 1.056-.24465.008.004.011.0114.02.0166.35601.086 2.09201-.16378 2.526-.22495.41601-.12646.66-.30993.87801-.52348.077-.0144.155-.0269.231-.0415-.005 7.32049-.011 14.64097-.017 21.96044-15.603 3.16474-29.77099 12.14897-40.67499 24.51667-4.45401-4.22933-8.884-8.50325-13.28901-12.83002 12.80001-15.70142 29.68701-27.4876 48.46101-32.43115-.092.0384-.177.0735-.23601.0974-.588.36073-1.07499.67897-1.743 1.18795-.58899.36074-1.38499.80647-1.314 1.5974 1.38101-.33482 1.893-.54733 3.27-.41257zm-7.038 67.37088c-.01-.003-.019-.009-.029-.0125.159-.30165.239-.45196-.021-.57843-.261-.12232-.83599-.1161-1.33099-.26018-.91101-.43641-.954-1.12057-1.17801-2.08254-.201-.85209-.305-.80855-.687-1.46679-.18-.27781-.22899-.49239-.515-.72252-.28399-.23323-.907-.44055-1.296-.6292-.519-.25294-1.167-.56807-1.716-.45404-.40099.0467-.735.25085-1.059.44573-1.755-1.59429-3.50599-3.19169-5.25199-4.79532 6.93699-7.69781 15.83799-13.34315 25.62999-15.59465-.004 5.83505-.009 11.67008-.014 17.50512.73301-.11922 1.466-.23946 2.199-.35971-.135.16067-.27.32135-.405.48098-.219.28922-.514.6002-.84799.80027-4.91001 1.20038-9.59601 3.90383-13.47801 7.72372zm6.58401.59397c-.059.0622-.117.1244-.17601.18659-.20199.0633-1.776.65305-1.479.62922-.37099.0788-.786-.0405-1.17699-.20111 1.47699-1.2491 3.053-2.33753 4.71099-3.20932-.222.45922-.444.91947-.66699 1.37973.00094-.15654.002-.31307.003-.46959-.997.65513-.844 1.29369-1.215 1.68448zm-37.60701 61.07766c-.41199-.26122-.82399-.52245-1.236-.78367.65901.31825 1.18701.57014 1.98701.47373.043-.33068.086-.66239.12799-.99306.23501-1.03764.53501-1.27918.396-2.39974-.30699-1.87107-2.33299-4.09458-2.83999-6.35853-.218-.96819-.113-2.07009-.116-3.1295-.057-.60434-.114-1.20764-.171-1.81093-.073-.32447.092-.62716.104-1.10296-.053-.40945-.10601-.81891-.159-1.22941.069-.73391.129-.99306-.015-1.64197-.24401-.56806-.48701-1.13508-.73001-1.70315-.061-.44573-.12099-.89147-.18099-1.33618-.12801-.57635-.256-1.15166-.384-1.72801-.286-1.29472.33999-2.13851.36-3.08908.012-.47476-.678-1.48855-.93801-1.61917-.36699-.087-1.08999.32342-.88899-.34623.19899-.6686 1.29099.0664 1.574.30373.18799-1.25117-.074-1.38179-.396-2.31059-.242-.92153-.48401-1.84412-.72701-2.76565-.27399-.71319-.79299-.97442-.86499-1.2999.037-.36799.353-.49654.683-1.09984.11599-.21043.193-.42396.255-.63647 1.488-.21665 2.97499-.43744 4.462-.66135-.017.42707-.043.85311-.05 1.2802-.186 11.70428 3.56001 21.85158 10.03401 29.13475-2.766 3.30054-5.541 6.59902-8.32401 9.89541-.677-.63337-1.644-.37006-2.448-1.54661.577.46543 1.63101.97337 2.35 1.02624-.408-.77123-1.263-1.94778-1.864-2.52206zm-8.75599-35.75968c-.062-.0456-.093-.10884-.134-.16689.434-.0622.86799-.12336 1.302-.18555-.414.27884-.826.5266-1.168.35244zm-.149 51.602084c-1.074 1.257392-2.149 2.514796-3.226 3.771158-1.81901-1.685516-3.539-3.488165-5.15801-5.399667.17201.08085.339.16275.519.237385.51201.189699 1.02501.378357 1.53701.568055.424.145131.849.289212 1.273.433303 1.118.261224 1.119-.801291 1.76799-1.062514.348-.02177 1.64601.515187 2.043.704886.63.366958.98801.581534 1.24401.747394zm-1.258-54.916104c-.123-.47062-.303-1.00965-.783-1.46886-.459-.5266-.93101-.57635-1.18901.35141-.06.25915-.11899.5183-.17799.77641-.529-.85105-.375-1.73735-1.164-1.66271-.394.0611-.657.31305-.86301.6458 1.71201-15.15098 8.115-29.40012 17.41701-40.89915 3.447 3.26011 6.908 6.49328 10.38399 9.70363-2.949 3.69134-5.49699 7.74135-7.548 12.05466-.73599.87489-1.43199 1.79953-1.908 2.77291-.54499 1.1641-.31899 1.6596-.86799 2.8237-.57 1.05734-2.008 2.34583-2.884 4.11428-.63101 1.31337-.489 1.96021-.73301 2.41425-.16399.30164-1.39599 1.50618-1.68999 1.74356-.294.23739-.61101.36384-.799.5577-.269.34518-.41.75464-.551 1.1641-.309.51726-.618 1.03349-.927 1.54971-.177.44886-.79101 1.88663-1.04001 2.69621-1.56.22391-3.11799.4447-4.67599.66239zm24.325-26.71843c.315-.12957.73299-.30269.94299-.38976.95601-.004 1.91201-.0105 2.868-.0176.459-.0528.90501-.1244 1.31901-.0747.173.1586.347.3172.521.4758-1.02101.38976-.899.11714-1.929.22287-.99101.1783-1.259.52245-2.01701.72045-.44499.0674-.67899.0456-1.01899.0695-.929.46336-1.85801.92673-2.78801 1.38905-.27499.0695-.46999.0374-.64099-.0186 1.293-2.14785 2.72599-4.20239 4.27699-6.15224.70301.64684 1.40801 1.29264 2.112 1.93741-.25999.13476-.53199.31099-.75699.40532-.41901.17311-.59901-.10471-.93801-.0819-.33799.0249-1.83199.52451-1.99399.82513-.18401.19592-.006.47683.043.68934zm-3.42801 18.45049c-.14599.88319-.65899 1.68241-.80599 2.56559-.22001.56184-.12401.99099-.579 1.53209-.375.38873-1.035.5463-1.458.72045-.437.2633-.79601.61678-1.14.95367-.485.0757-.969.15031-1.454.22391.026-.16689.07-.32757.085-.49861.011-.47476-.044-1.7446-.35199-2.08979-.15401-.17104-.261-.12646-.49701-.14823.21.93709.195 1.85863-.017 2.85584-.247.0384-.495.0757-.742.11298.189-1.7477.477-3.47883.84-5.19129.114-.0405.251-.17934.389-.32343.274-.50793.489-1.98716.354-2.71383.619-2.25357 1.383-4.46153 2.281-6.61144.535-.11092 1.066-.0944 1.52.0953.647.32238.615.68727.898.92361.414.29957.939.0809 1.192.68416.047.21457.065.79507.033 1.15892.146.64579.299.81581.127 1.59326-.276.81891-.811 1.51032-.958 2.39455-.225 1.03246.325.92051.284 1.76222zm4.96601-26.94752c-3.477-3.20725-6.94001-6.43626-10.388-9.69224 10.268-11.63274 23.59599-20.09454 38.274-23.12141-.004 5.296-.008 10.592-.013 15.888-10.656 2.39145-20.346 8.53331-27.873 16.92565zm-13.878 26.19599c-.596 2.45053-1.02701 4.94666-1.287 7.47078-1.57001.23532-3.141.46751-4.712.6966.098-.93916.67899-2.19864 1.518-2.75632.929-.49238 2.015.24256 2.544.0269.53-.21353.729-.88423.867-1.29367.27399-1.36521.548-2.73146.822-4.09667.07-.0279.141-.057.21099-.086.013.0135.026.0228.037.0384zm1.681 12.85075c.135-.46647.225-.93605.384-1.40044.128-.41775.27099-.82721.417-1.23459 2.616-.40221 5.23299-.8127 7.85-1.22942.15.26227.306.48098.47599.60848.65301.31618 1.07801.13891 1.76201.0882.474.0373.841.11712 1.23199.3058.91301.43951.72 1.10812 1.16201 1.51033.391.18763.68599-.0528 1.10299.24152.63.71319 1.26101 1.42637 1.893 2.13852.32201-.44989.645-.89874.96701-1.34759.3.21042.59599.16897.73699-.0798.51801 3.92457 1.93101 7.50188 4.086 10.45931-4.287 5.16643-8.59599 10.34115-12.924 15.51276-5.66799-6.48395-9.033-15.35105-9.14499-25.57299zm17.561-1.97576c.127.0757.21199.15652.30799.23738.013.1586.022.31824.038.47477-.108-.26745-.238-.54732-.346-.71215zm-20.388-46.389c-10.331 12.73051-17.295 28.67865-18.70901 45.59185-5.30199.68934-10.605 1.32685-15.90799 1.89698.006-.37421-.006-.7422.004-1.11746.621-21.87645 8.78899-42.55356 21.41799-59.13713 4.375 4.30604 8.773 8.55922 13.195 12.76576zm-18.91001 48.95251c-.003.0912-.008.18142-.013.27264-.232.36695-.465.73287-.698 1.09879-.28.3058-.561.6116-.841.91739-.438.64167-.655 1.78712-.836 2.56457-.196 1.60984-.391 3.21967-.587 4.83056-.136.99514-.366 2.6195-1.282 3.20829-.297.2322-1.282.49238-1.624.50482-.367-.0964-.65-.34208-.993-.33067-.321.12335-1.176.44988-2.017.29543-.519-.27677-1.236-.94953-1.71-1.00757-.472-.0591-.9.10158-1.328.26121-.535.20006-1.282.48098-1.733.5297-.423-.0144-.81-.23427-1.158-.54732-.505-3.47677-.822-7.04578-.897-10.71121 5.239-.56909 10.478-1.20143 15.717-1.88663zm61.53201 91.017866c-26.71101 4.381719-50.772-2.184122-68.157-17.411812 4.083-4.68648 8.148-9.393693 12.19599-14.111271 14.409 12.226728 34.11101 17.637794 55.96101 14.268834zm0-21.202667c-20.74401 3.141942-39.454-2.008936-53.178-13.572239 1.115-1.301972 2.228-2.606019 3.33999-3.910064.80801.555618 1.61601 1.1102 2.424 1.663747.819.489275 1.89501 1.573563 2.919 1.383864.34101-.06324.68301-.125429 1.02401-.189698 1.156-.127502 2.472-.08708 3.612-.799221.43399-.180369.70999-.529704.877-.834465.24999-.458179.369-.978553.801-1.157886.45699-.07359 1.554.05182 2.037.08293.16899.02695.368.06324.554.0964 9.98599 5.880647 22.254 8.314589 35.589 6.493279.00093 3.580425.00093 7.161888.00093 10.74335zm0-29.378349c-.49401.296458-1.765.74427-2.269.960926-1.21001.404276-1.752 1.107092-2.751 1.887654-.369.276772-.738.553545-1.10801.829278-.40599.294392-1.24099.771233-1.37899 1.180687-.138.412575.181.742215.25999 1.059415.078.32031.048.682078.017 1.046965-.466 1.021057-1.848 2.202784-1.454 3.321275.289.694527.747.613672 1.687 1.027277 1.258.743241 2.299 2.047288 3.616 2.531381.964.315127 2.165.635438 3.382.807513v.315128c-11.072 1.469902-21.36-.17104-30.09-4.387937-.002-.124392-.021-.245675-.063-.356598-.417-.763973-1.831-1.220075-2.694-2.383142-.813-.947462-1.437-2.098091-2.332-2.898342-.677-.537997-1.353-1.074963-2.028-1.61503-.42-.450922-.84-.902884-1.259-1.354836-.202-.190738-.402-.382507-.604-.574285-.156-.168959-.436-.875926-.509-1.197276-.046-.08085-.092-.161713-.139-.242563 2.938-3.48298 5.866-6.96804 8.785-10.45413 7.751 7.40652 18.68 11.116517 30.934 9.72436-.00094.25812-.00094.51416-.002.77228.00094 0 .00094 0 0 0zm0-4.1599c-11.326 1.21801-21.423-2.25979-28.58901-9.13453 4.287-5.12705 8.55501-10.25512 12.80201-15.37491 2.632 2.66097 6.019 4.57868 10.029 5.42662 1.897.40428 3.82999.51727 5.75899.42605 0 6.21859 0 12.43716-.00093 18.65677zm.00094-23.9279v1.46783c-1.5.0363-2.999-.0829-4.474-.39806-7.416-1.57251-12.344-7.40652-13.601-14.76121.063-.16378.122-.3286.206-.48409.403-.75673 1.333-1.26673 2.062-2.62987-.237-.0166-.947-.0684-.916-.43226.109-.51726.746-.7847 1.119-1.17654.535-.69556.889-1.66479.924-2.50028-.44.1078-.879.2156-1.319.32341-.264.0332-.527.0664-.791.10055-.353.14824-.705.29751-1.058.44574-.129-.0498-.258-.10055-.387-.15134.114-1.01483.275-2.03486.521-3.06731.461-.62196.996-1.07392 1.005-1.83478.895-.14306 1.055-.44367 1.503-.51623.944.0684 1.428 1.62227 1.945 2.34064-1.157.0218-.825.93606-.755 1.72595.373-.3908.776-1.14855 1.172-1.43258.467-.1586.934-.3172 1.399-.47477.317-.13476.398-.28507.69-.52659.714-.42087 1.264-.0664 1.732.4364.373-.39183.321-.60433.008-.94019.175-.0747.351-.14928.527-.22287-.138-.25398-.276-.50794-.414-.7619-.528.22494-.659.16274-.743.78367-.499-.13892-.499-.13892-1.051-.0238.116-.16585.231-.33068.347-.49654-.017-.0716-.034-.14304-.051-.21457-.971-.17311.034-.83343.119-1.45332.03-.36592-.125-.5328-.282-.70177.423-.33587.847-.67172 1.27-1.00654.482-.906 1.028-.55252 1.168-1.43052 1.13-.12647.59-1.42015 1.383-1.98924.185-.19488.525-.22183.736-.31202.292-.23945.581-.47994.872-.7194.42-.1783.631-.26848 1.026-.55355.371-.38976.664-1.09879.904-1.55075.16-.30269.504-.79819.557-1.05526.029-.36489-.153-.63751-.28-1.16825.447-.0716.762-.20733.999-.65617.264-.3483.164-.77331-.308-.80544-.105.0435-.421.17622-.526.2208.432-.6116.864-1.2232 1.296-1.83479.038-.4841.076-.96924.114-1.45228-.131.0944-.263.18866-.394.283.019-.24051.038-.481.057-.72149.639-.26433 1.283-.51208 1.937-.71318.032.23945.089.49134.154.76086.129.53178.588 2.44224.795 2.82268.232.48616.992.75154 1.569.74013.366.0788.915-.0353 1.231-.17001-.033-.45403-.066-.90702-.1-1.36001.105-.0447.21-.0891.316-.13372.155.32341.311.64786.467.97233.104-.0435.314-.13268.419-.17727.455-.0352.909-.0704 1.363-.10573.132.0591.132.0591.262.12129.184.27366-.004.93708.073 1.25429.288.69763 1.073.60019 1.703.33274.104.89148.156.63441.182 1.20972.132.52763-.187.66239.626 1.60466.155.16585.498.60641.813.47476.314-.13371.869-1.18587 1.526-1.81302.234.48409.26.58983.76.73185-.026.20525-.054.41152-.08.61782.36801-.38873.73701-.77746 1.10501-1.16619-.134 1.80784-.87 1.6482-1.47701 2.95639-.18399.66136.051 1.14649-.028 1.7643.044.0207.087.0404.131.0611.123-.12957.245-.25915.369-.38873.097-.0809.193-.15962.29-.24048.92-.50483.34.90909.393 1.11953.078.3172.315.33275.553.35141-.149.17933-.299.3597-.447.54007.131.21665.262.43433.393.65098-.631.26641-1.263.53385-1.895.80026-.923.50587-1.608 1.4979-2.324 2.38315.019.0705.036.14201.055.2125.11299-.01.228-.0198.34099-.0279-.57099.51518-1.14499 1.02934-1.716 1.54453.579-.0125 1.266-.53696 1.794-.75983.50201-.32861.42-.17829 1.029-.55355.12401.0259.24701.0518.37001.0777 0 .15549-.00094.31202-.00094.46855.816.004 1.63401.009 2.45001.0135.57999-.0103.94899-.40116 1.31799-.32133.501.13785.423.75464 1.213.65409.92601-.0405 1.557-.77226 2.26901-1.18898-.246.4136-.492.82824-.738 1.24184.16699.20214.33499.40428.502.60539.33399-.21769.668-.43642 1.001-.65411-.657 1.09155-.711.41465-2.189 1.03662.371.0788 1.452.20524 1.68999.22181.58101-.0114.846-.35554 1.66301-.34621.685-.057 1.557.16171 1.63399-.92155.159.1669.31901.33171.45101.39391.37.0788.58099-.0104.922-.0384.261-.0405.74799.0601 1.119.25914-.003.22598.012.44781.00094.67587-.114-.14616-.242-.29025-.404-.41775-.716-.51831-1.611.0912-2.404.19073-.537.0311-1.073.0611-1.61.0922-.404.0923-.809.18452-1.213.27678-.66.1617-1.083-.12751-1.716.1389-.212.0891-.502.3286-.449.54007.055.2125.317.33379.447.39391.741.15548.451-.0735 1.587.26641.635.19799.818.004 1.399-.006.203.0311.405.0633.607.0944.449-.0736.501-.32756.95-.39909.211-.0882.662-.16171.899-.14305-.58.4758-1.161.95263-1.741 1.43051-.484.087-.969.17518-1.454.26226.372.54214.505.60434.108 1.35276-.105-.10988-.211-.21976-.317-.32964-.238.44885-.184.66032-.422 1.10917-.132.24982-.264.49964-.396.75049-.054.25605-.292.70593-.504.79509-.316.13372-.738-.15446-1.004-.27782-.502-.13578-.716-.0456-1.218.28196.477.49964.662.30475 1.272.39805.501.13683 1.825.74428 2.249 1.03246-.105.0466-.211.0891-.265.34518-.156.30062.186 1.20661.479 1.43156.264.12232.502.13787.82.004-.369.54422-.74 1.08946-1.109 1.63472.582-.0135.767-.20836 1.299.0353-.354.14927-.706.29854-1.061.44677-.521-.20732-1.043-.41568-1.564-.62403-.521-.0518-1.043-.10366-1.563-.15549.556-.11714 1.432-.37111 1.907-.80648.848-.8241.264-1.74356-.529-2.10949-.504-.13786-.822-.003-1.378.11506-.45.0736-1.16501.0259-1.589.20629-.379.19902-.759.39909-1.14.59915.01-.12128.019-.24049.028-.36177-.34299.0291-.476-.0311-.74.31513-.399-.18348-.424-.28714-.874-.21355.043.17519.086.35141.13.52763-.18499-.11609-.37-.23219-.55399-.34726.008.19074.017.38147.024.57221-.31701-.33171-.34401-.43848-.81801-.46958.184.42811.369.85624.55401 1.28331-.046.1358-.091.27263-.13601.40843-.528.69142-.37099 1.79228-.21499 2.42669.31699 1.26776.076 1.71972.10099 2.76253.078.78471.369 1.01069.315 2.20072 0 .4675-.244 1.85551-.376 2.26393-.13299.25191-.267.50275-.39999.75465-.089.27159-.17901.54318-.26801.81477-.068.21043-.175.40635-.276.60019-2.19199 1.14959-4.513 1.94571-6.871 2.36553 0-.56183-.00094-1.12161-.002-1.68343-1.052.18865-2.108.37317-3.16301.55768zm61.246-86.64338c.019-.3566.19701-.538.18801-.99722.02-.35762-.14601-.98788.13399-1.21074.28001-.22184.93401.11506 1.16801.14408-.42-1.24806-1.31301-2.31784-2.35701-3.15024.086-.10262.172-.20525.259-.30787 13.289 13.2084 21.953 32.07975 22.64201 53.5623.014.44366.002.88215.008 1.32374-5.194.5214-10.387 1.11227-15.58099 1.75808-.93501-10.79829-4.386-20.59108-9.67701-28.80201-.699-1.35588-1.604-2.62882-2.379-3.83542-.503-.61783-.903-1.27606-1.56099-1.60363.004.0144.009.0291.013.0435-.439-.53593-.892-1.05526-1.349-1.57253.103.0384.228.03.454-.10158-.448-.40636-1.744-1.87832-2.239-2.03175.139.26641.258.44988.373.60123-.483-.51001-.971-1.01587-1.473-1.50514.205.10159.401.17414.57.18244-.648-.77331-1.503-1.90736-2.517-2.00167-.121-.10783-.249-.20837-.371-.31514.154-.18659.31-.37214.464-.55872.267.0446.53.0653.776.0353-.177-.18969-.332-.2975-.488-.3825 2.525-3.0414 5.043-6.06724 7.552-9.07442.512.33172 1.02.67069 1.528 1.02934.551.37111 1.884 1.14027 2.455 1.15685.102-.0373.204-.0777.308-.11609.367-.33068.732-.66239 1.099-.99307 0 0 .103-.0405.073-.14409.018-.35659-.091-.77849-.072-1.133zm11.85201 82.4524c-.366-.90392-1.929-.20628-2.394.66446-.231.43537-.029 1.16929-.02 1.62954.124.88007.164 2.71901-.062 3.61257-.224.89458-1.027 2.24217-.9 3.12431.171.62818.926.80545 1.488.70904.125.45403.163 1.54247.365 1.98198-2.341 4.11428-4.983 8.08136-7.93 11.85252-.154.0291-.324.054-.539.0591.396-2.01205 1.357-4.12568 2.128-6.0465.361-.83655 1.007-2.36243.883-3.24042-.152-.98271-1.034-.75984-1.469-1.0532-.408-.19281-.359-.4447-.6-.46647-.483-.0446-1.145.55977-1.6.62196-.32.12647-.59-.00095-.832-.0218-.379-.086-.775.18763-1.095.30995-.72-1.3393-.125-4.35684.143-5.97394.128-.91221.275-1.83272.408-2.75322 4.68-10.0001 7.164-20.93627 6.876-32.20102-.008-.31306-.035-.61885-.047-.92983 5.13-.64166 10.261-1.22837 15.391-1.74772-.261 12.01422-3.075 23.58997-7.97901 34.296-.198-.36592-.396-.73183-.59299-1.09673-.339-.79922-.85001-2.22973-1.81601-2.33235.05-.24879.28101-.68312.19401-.99825zm-69.92101 12.23295c-.00094-1.0449-.003-2.09082-.004-3.13469 2.64399-.47269 5.244-1.35691 7.713-2.61431.12.47787.57099.61367 1.125.28818.40599-.26952.786-.90185.96399-1.46265.16401-.0995.334-.18658.496-.29025.533.57739 1.06601 1.15374 1.601 1.73113.29301.22701.427.75257.88.6769.45401-.0767.56201-.58672.69401-.99411.16-.30164.346-.49652.50599-.79922.186-.66342-.45499-1.32374-.48099-1.89594.00094-.43537.21999-.77124.233-1.27192.85399-.72458 1.68199-1.48543 2.466-2.30229-.013.0695-.019.14098-.014.21666-.10401.97751 1.06599.48098 1.146 1.26672.028.57117-.90401.1472-1.06401.91636-.26599.81269.26901 1.05318.50801 1.53314.08.3172-.052.7225-.079 1.08532-.345.963-.79699.5722-1.35699 1.15996-.478.4364-.93201 1.44606-1.438 1.7757-.40001.28506-.798.10781-1.12001.24359-.427.18141-.694.99619-1.495.63544-.824-.46647-.051-1.14647-.31599-1.73423-.19401-.3058-.39-.6116-.585-.91739-.561.58671-1.09301 1.28435-.774 2.08253.39799.64684 1.19899 1.00758.90399 1.71557-.269.3483-.90699.62093-1.364 1.16515-.559.58878-1.042 1.96436-1.23 2.16339-.268.34622-.58699.48306-.855.83239-.312.48409-.625.96818-.93799 1.45125-.08.15134-.08.15134-.162.30268-.47201.007-.942.0156-1.41401.0218.062.24671.123.49445.185.74014-.533.22909-.533.22909-.98799.30683-.34901.0322-1.017.20214-1.125.7163-.13701.4105.79999.3597 1.03999.37109 1.47.1866 1.94801 1.61815 1.437 2.42151-.349.50068-1.07299.45921-1.525.53696-.992.19903-2.558.31824-3.554.61056-.003-2.20693-.006-4.41489-.008-6.62285.31999-.16378.60999-.34104.756-.4955.34899-.50275.138-.88008.27199-1.28746.08-.15238.24101-.45404.32201-.60642-.022-.43848-.76001-.70384-1.35801-.53799zm12.908-13.63755c-.362.34416-.731.66964-1.11.99203-.047-.84172.338-1.39838.317-2.26808-.055-.68001-.48-.96611-.585-1.38802-.079-.31615-.052-.67793.266-.81373.717-.41982.928.42294 1.061.95056.018.38148.036.76294.054 1.14441 0 .46234-.129.86453-.003 1.38283zm-12.417 27.87425c.59-.0207.776.25086 1.284.38252.482.0249.673-.17209 1.075-.45923.967-.41463 1.958-.25914 3.301-1.53832.295-.24152.564-.5919.618-.84793.241-.45507.057-.72458.404-1.22631.431-.65202 1.368-1.17135 1.825-1.71661.35-.49861-.025-1.03867.671-1.57149.509-.33276 1.15-.14305 1.848-.67172.615-.3794 1.20301-1.33307 1.819-1.71351.643-.27262 1.15.32861 2.08701.28092 1.23-.13683 2.46099-.27159 3.693-.40634.105-.0446.34599-.0279.48.03 1.07299.47891-.26501 1.27917-.771 1.61399-.402.2861-.50901.33171-.93701.51208.134.0601.161.16379.29501.22599.48099.0249 1.605-.21562 1.95399-.71319.16101-.30061.105-.51312.024-.83032.403-.28506.58701-.47891.694-.99203-.082-.31617-.27-.58361-.003-.92983.158-.30269.588-.4841.909-.61678-.591-.45092-.965-.0622-1.634.10469-.345.0322-.508-.13372-.856-.10365-.319.13786-.586.48409-1.066.45403-.35.03-.751-.1472-1.098-.11714-.376-.0747-1.283.0809-1.312-.49342.054-.25396.133-.40739.347-.49654.08-.15135.188-.19591.294-.24049.072.1244.144.24983.216.37525 1.095-.81477.802-.10781 1.816-.30683.936-.0477 1.952-.708 2.914-.64995.588-.0144.454.39183 1.019.73703.671.29957 1.498-.16483 2.244-.48098-.078.15134-.186.19487-.158.29854-.132.40634.135.52762.376.5411.115.0269.234.0249.35.005-2.584 2.34894-5.386 4.46361-8.372 6.27974-.032-.0633-.068-.12439-.128-.15032-.296-.2239-1.154.14099-1.475.27782-.724.42397-.563.59087-1.742 1.09465-1.312.60124-2.626 1.20143-3.94 1.80369-1.21601.51934-2.23901 1.23666-3.021 1.77777-1.349.45197-2.72.84069-4.106 1.17033-.237-.0218-.47601.0156-.705.15445-.565.12543-1.13301.24879-1.705.35245 0-.36281-.00094-.72458-.00094-1.08637.17001-.0456.336-.0882.47301-.11298zm27.85301-22.9255c-.11801-.10055-.23601-.19904-.354-.29958.156-.11817.3-.22702.393-.30269-.013.20109-.026.40116-.039.60227zm.1 4.64087c-.028.18865-.062.37213-.39999.72251.075-.28818.15-.57946.225-.86868.058.0486.11599.0974.17499.14617zm-.216-.18245c-.33699.0374-.73599.1866-1.01799-.0259-.189-.2716-.27-.58671-.24501-.94745.002-.0249.002-.0611.004-.0902.42.35452.839.70904 1.259 1.06355zm-.714 1.5943c-.423 1.10813.163.63233.514 1.5321.39-.16275.861-.23842 1.29701-.35349-1.00901 1.12886-2.064 2.21626-3.16001 3.26012.019-.20733-.094-.38355-.451-.4219.517-.44884 1.03101-.89665 1.545-1.34551-.855-.10677-1.2.38666-2.354.056.534-.22598.644-.26951.986-.76294 0-.15549-.00094-.31099-.00094-.46647.541-.50172 1.083-1.00033 1.624-1.49789zm-2.174 10.35048c-.47899.43537-2.596 1.44502-3.156 1.56838-.10099.0176-.18199.0259-.259.0311 1.249-.89873 2.461-1.84826 3.63501-2.83822-.027.44989.21799.84484-.22001 1.23874zm-9.43999 21.829809c-2.40501 1.071854-4.87301 2.003757-7.38801 2.809197 1.167-.603303 2.333-1.206606 3.498-1.808869.864-.374217 2.134-1.034536 3.07701-1.090513.32299-.01973.56899.03528.813.09019zm-10.84201 3.815738c-1.227.324457-2.464.614706-3.71.86971.512-.151344 1.023-.300615 1.534-.450922.774-.183479 1.476-.294395 2.176-.418788zm-4.977 4.799471c7.668-1.421182 15.023-4.117386 21.84601-7.760012.058.127502.15499.236345.32299.306841.67601.294392 2.702-.217687 3.54101-.221836.56599-.122323 2.46099.237385 2.89599.521408.271.119212.32601.326529.62601.551476.29899.224943.894.205248.97699.519338.085.314091-.53299 1.157886-.694 1.457464-.51.798184-1.448 2.709679-.659 3.423899.3.222869 1.031.264333 1.41101.334822.10599-.0042.21399-.0083.31899-.0114-9.42 5.489848-19.764 9.562659-30.61 11.615133-.005-3.577317-.009-7.153596-.013-10.73091.014-.0042.025-.0042.037-.0062zm28.804-34.614248c-.075.0393-.149.0788-.225.11714 1.38-1.34136 2.695-2.74284 3.93801-4.20757.19999.16897.40099.33898.60199.50691-.124.16896-.255.31927-.40099.43744-.71501.87904-2.901 2.48889-3.91401 3.14608zm1.935-11.63792c-.24099.38146-.384.71939-.521 1.05733-.622-.5266-1.243-1.05112-1.864-1.57667.321-.13683.77001-.33275.93801-.50794.50499-.32549.87-1.64198 1.07799-2.19759-.458.34621-.918.69349-1.37799 1.04178.156-.76501.67899-2.37797 1.20699-3.06524.09.35038.18201.70074.27201 1.05112.00093.30995.003.61989.005.9288 1.14401-.5888 1.805-1.2118 2.784-1.96644.291-.23841.87401-.71007 1.142-.5888.375.0798.24201.4841.19.736-.102.5069-.654 1.55075-.88999 1.9965-.73601 1.23459-2.013 1.76222-2.96301 3.09115zm-.353-57.03181c-.283-.0642-1.107-.39183-1.519-.73184.114-.13787.228-.27678.342-.41568.97.82099 1.89801 1.69485 2.78301 2.6195-.83801-.0902-1.72001-.25604-2.33201-.71007.26-.18348.52001-.36696.78-.55148-.018-.0695-.036-.13994-.054-.21043zm5.76 59.85343c.055.11818.114.23945.144.35141.091.9091-.448 1.53002-1.059 2.12193-.18-.15238-.36-.30476-.54-.4561.49901-.66344.983-1.33515 1.455-2.01724zm-1.84699-63.88789c-.18101.1897-.102.50587-.14901.75983-.134-.0642-.264-.1275-.471-.0425-.446.0477-.665.38664-.771.77226-.47799-.44988-.96399-.88733-1.464-1.31026 3.312-4.01373 6.61101-8.00361 9.89601-11.96862.14199.10367.282.20629.42399.30995.604.57324 1.20801 1.14855 1.891 1.57667.339.16896.75701.24257 1.17.18762.38.38251.75.77434 1.118 1.16826-.39399-.056-.78699-.11092-1.181-.16586.031.41256.063.82616.095 1.23978-.504-.0332-1.008-.0664-1.51299-.0995.087.77849.59599 1.85552 1.27999 2.28364.42701.17933.854.3597 1.281.54007 1.049.51726 2.12801 1.14026 3.10301 1.80577.87099.70384.954 1.02001 1.27099 1.36209.264.12957.527.25914.812.0322.068-.0716.102-.20525.124-.35036.975 1.44399 1.883 2.94603 2.727 4.49677-.172 1.14442.19301 2.23907.375 3.31091.126 1.34344.252 2.68791.37901 4.03135.183.54733.366 1.0957.54999 1.64303.432-.97857.32601-2.67652.387-3.74422.032-.55666.10401-1.05319.18501-1.529 2.71899 5.98536 4.488 12.62479 5.11599 19.7307-1.022.13165-2.04399.26537-3.065.40117.636-.53075.461-2.35412-.645-1.81509-.46699.41153-.59299.80855-.454 1.33411.019.27885.159.48201.355.58049-.294.0393-.588.0788-.882.11818-.10099-.0653-.20899-.10988-.361-.12544-.57999-.009-1.287.38459-1.79799-.22908-.588-.46751-1.46201-2.44846-2.00201-3.16683-1.21399-1.96229-1.207-1.49996-1.743-2.21936-.348-.44263-.38299-1.01068-.52099-1.53625-.216-.38043-.507-.61367-.56301-.82409-.10899-.42191.14601-.75466.379-1.19417.329-.94331.162-1.57149.572-2.1976.336-.47994.706-.39287.831-.78885.508-1.12782-1.176-1.39735-.79899-2.59047.201-.54422.84199-1.6057 1.36299-1.80991.39201-.26641.75801-.17933 1.14801-.44677.36-.37111.27099-1.14857.369-1.65235.24099-1.25429.89599-1.39009.81699-2.98437-.035-.56599-.126-1.34344-.444-1.68449-.58299-.47061-1.2.23323-1.29699.73391-.27701.68935-.084 1.42533.083 2.05767.062.67067.076 1.59533-.202 2.28363-.327.93813-1.328.63232-1.646.29231-.16-.16999-.10999-.42188-.166-.63232-.119-.88215-.41-1.11746-.347-2.18619-.005-.46233.21101-1.82443.05-1.99339-.083-.31616-1.21899-1.14752-1.509-1.38283-.55399-.36385-1.58599-1.23666-2.30799-.48824-.646.60228-.289 1.9737-.30501 2.79158-.022.35865-.064 1.07288-.37899 1.19623-.17901.18555-.576-.004-.838-.13372-.687-.425-1.109-.72148-1.35401-1.671.34001-.0186 1.254-.0332 1.24901-.49447-.10901-.42188-.71801-.99513-1.13501-.83032-.44199.0622-.43899.52453-1.068.30995-.525-.25604-1.82199-1.71453-2.40099-2.181-.736-.63544-1.758-1.03972-2.72601-1.23253-.57399-.002-2.454-.17415-2.89299.35141zm7.47199-12.30654c.041-.0508.084-.10159.125-.15135.7.60745 1.386 1.23563 2.055 1.88143-1.143-.43329-1.332-1.04592-2.16699-1.72386-.006-.003-.007-.004-.013-.006zm6.831 1.14441c.125.11609.263.24982.43001.43019.021.028.032.0487.052.0767-.158-.17312-.325-.33586-.482-.5069zm-10.414 75.43461c.106-.0435.319-.13062.42501-.17416.612-.21146 1.22599-.42397 1.83799-.63439.34601-.18141.69101-.36282 1.037-.54215.562-.10988.74901.15964 1.497-.14305.85-.49964 1.698-.99825 2.547-1.49582 1.06401-.42915 1.66401.49239 2.664-.60848.817-.90703 1.34601-3.32438 1.518-4.43666.193-.89044.385-1.78088.577-2.67029.036-.59502.072-1.18899.108-1.78399.22001-1.36625.503-2.05869.14-3.42183-.17799-.6655-.35499-1.32996-.533-1.99545-.225-.8407-.49699-1.42948-1.25299-.31618-.573.92466-.69501 1.78814-1.81001 1.99961-.088 1.42949.35801 3.10878-.852 4.2905-.44599.52867-1.032.53075-1.534.85001-.291.23324-.66099.61472-.90099.59709-.31601.12854-.585.002-.66701-.31305-.007-.46129.68-.97233.971-1.20454.978-.7422 1.479-1.06148 2.104-2.24217.362-.84172.329-1.41081.612-2.1043.312-.58879.65801-.61056.969-1.19935.23501-.44367.59-1.74668.79301-2.29193.23899-1.44916.47799-2.89938.714-4.34855.45999-1.34344 1.485-1.86484 1.54299-3.39797.083.1617.16401.32341.246.48512 1.047-.87697.87201-1.96955.48801-2.97817.63099-.24878 1.95-.53488 2.44899-.84378.729-.74947 1.458-1.49686 2.188-2.24425.32201-.33067.76001-.82824 1.07501-1.32685 1.332-.18037 2.66499-.35658 3.99699-.52867.013.30994.038.61574.045.92672.19701 8.13009-1.14 16.086-3.743 23.60862-.213-.57841-.42499-1.15788-.637-1.73527-.191-.27262-.518-.61159-.911-.34-.609.35349-.871 2.42773-1.04599 3.07561-.35001 1.0283-.699 2.05558-1.04901 3.08492-.28299.69038-.404 1.55076-.82299 2.18205-.339.48306-.92201.94434-1.398 1.3652-.246-.48409-.537-.24982-.933.0259-.59901.54628-1.19901 1.09672-1.79801 1.64508-.369.38043-1.08 1.24703-1.614 1.46161-.42499.16896-.724-.0591-1.332.30372-.427.17415-1.116.68209-1.465.70904-.45399.0674-.992-.1783-1.448-.10988-.346.0239-.958.3908-1.249.62404-1.06599.43329-2.83299.46232-3.98.58567.18401-.19488.39701-.28196.34301-.49135.071-.6116-.924-1.24911.088-1.89801zm16.28601-96.53467c-.065-.0332-.13001-.0664-.195-.0995-.83601-.60952-1.809-1.74874-3.00701-2.45053-1.299-.66445-2.20099-.6655-3.34099-1.15477-.65801-.36488-1.31601-.7308-1.974-1.09569-1.16601-.5919-2.331-1.18276-3.49601-1.77259-.90499-.45818-2.02099-1.2999-2.749-1.94363-.753-.74946-.62799-1.14856-1.04199-1.44917-.285-.23635-1.21101-.33586-1.64601-.27988.033-.16793.065-.33586.099-.50379-.27399-.0456-.549-.0923-.82299-.1389.29799-1.04905-.26201-.59501-.98501-1.23668-.285-.23634-.393-.65928-.859-1.1724-.693-.53799-1.569-.88628-2.418-1.13092-1.35999-.3483-2.721-.69556-4.079-1.04179-1.30999-.29025-3.103-.72873-4.48099-.40323-1.047.30683-1.63401 1.12677-2.63001 1.65027-.896.47891-2.88999 1.06148-3.398 2.20174-.53599 1.03556 1.28501 2.04004 1.952 2.46918.625.40532 1.25001.81166 1.875 1.21698.543.36177.72201.63751 1.288 1.10709.516.25812 1.49201.55873 1.93001.96507.438.40325-.15.75983.444 1.33411.46599.51105 1.49599 1.02416 1.86 1.57667.20799.38148.36499 1.01691.753 1.20972.36099.0891.71799-.28922 1.02499-.41361.488-.31305 1.869-1.56837 2.358-1.41599.49001.15238 2.249 1.31026 2.66501 1.60985.25899.12957.80199.49342.77899.85104.13301.52764-1.59499.40532-1.099 1.02106.15501.17104 1.239.43433 1.629.62818.48201.27262.966.54525 1.44801.81892.55399.24463 1.107.49031 1.65999.73494.38901.19592.859.70801 1.221.79612.69801.0735.92001-.82824 1.54101-.60849 1.18999.22908 2.21299 1.57045 3.51099 2.22352.85701.24671 1.035.0611 1.734.13786.597.11611 1.014.41776 1.63701.64167.95899.20731.97899-.14825 2.15299.4447.053.0269.102.056.15401.0829-2.59601 3.11914-5.20001 6.25798-7.81401 9.41236-.23799-.0819-.45999-.14202-.64599-.17001-3.645-2.7812-7.61601-5.0949-11.859-6.8623-.147-.0777-.33701-.17519-.54-.21147-8.74101-3.52964-18.57901-4.77875-29.00901-3.2031-.004-7.31013-.006-14.62025-.01-21.93038 21.29401-3.09737 40.655 3.50373 55.115 16.68516-.244.28714-.48799.57842-.73099.8697zm-20.42801 14.18696c.44501.50067 1.143.97648 1.607.96196 1.35501.85624 2.66301 1.78607 3.934 2.76566-3.47599 4.20239-6.969 8.43275-10.47499 12.68697-.381-.27573-.768-.53902-1.15701-.80025.06-.30165.17301-.48099.039-.68105-.12399-.18451-.695-.28092-1.037.0218-7.569-4.72794-16.832-6.78457-26.851-5.25557-.002-5.28564-.004-10.57024-.005-15.85484 12.549-1.90424 24.20201.49964 33.945 6.15535zm-14.733 15.06079c-.20899.22909-.45799.30788-.661.57428-.23.4447-.074 1.08014.029 1.50515 1.457-.60537 1.145-.94123 1.976-1.28435.073-.0508.162-.0882.25-.12439 2.103.94331 4.1 2.07942 5.96499 3.4073-.22899.27782-.45799.55563-.687.83448-.17899-.0145-.35199-.0269-.48199-.0166-.444.0642-.909.48927-1.512.3877-.80801-.0166-1.176-.56392-1.88-.62301-1.302-.16067-2.29101.48098-3.411 1.06149-.52101.2156-1.35501.56079-1.82301.98994-.363.38459-.49399.78887-.62499 1.19417-.391.74532-1.276 1.34655-1.066 2.19346.289.6966.94.54317 1.20199.66549.28701.38562.576.77124.864 1.15581-.70599.4105-1.071.33068-1.69699.59087-.81.45403-1.619.9091-2.429 1.3652-1.28101.4188-1.77901-.1897-2.614-.30683-.47001-.0363-.78201.0964-1.14701.0144-.393-.18554-.46999-.50378-.603-.5639-.28699-.23013-1.383-.004-1.69699.12853.053.21146.078.3172-.079.61678-.13099.40532-.969 1.22423-1.387 1.40149-.18399.1928-.52299.21976-.75699.20213 0-.15549.00093-.31201.00093-.4675-.025-.57532-.339-.44263-.73099-.16171-.60101.37007-.917.97129-1.36301 1.50928.13101-.40634.23801-.91841.47501-1.36831.342-.49446.83899-.82099 1.311-1.25221.48799-.51727.97699-1.03452 1.465-1.55076.365-.38665.942-.86246 1.20399-1.2066.783-1.02935.65501-3.42909.26801-4.55276-1.53701 1.23045-1.095 1.15892-2.114 2.17168-.366.38665-.57501.47476-.861.71214-.262.34312-.289.70697-.31701 1.0677-1.19899.26952-.23899 1.38491-.318 2.00376-.186.6624-1.26 1.93327-1.88599 1.72802-.287.23841-.60101.37111-.941.39598-.339.0259-.6-.0974-.913.0363-.068.0809-.137.16171-.206.24256-.00094-5.55204-.003-11.10305-.005-16.65508 6.90701-1.05942 13.42301-.27989 19.20201 1.97783zm-19.314 142.255052c-.006-5.74796-.013-11.494883-.02-17.242845 12.83401-2.440162 24.99201-7.558906 35.84301-14.464752.139.0964.281.181405.452.239455.653.190734 1.627-.215614 2.413-.428118 1.14-.08603 2.279-.170002 3.419-.25293 1.196-.02695.824.823062 1.746.673792 1.926-.446776 4.587-3.042429 5.978-4.533064.966-.856233 1.932-1.710395 2.896-2.563518 1.153-1.04386 2.165-2.144732 3.178-3.244564 1.565-1.871074 2.779-4.012692 3.549-6.225835 3.425 2.866203 6.862 5.743815 10.312 8.635936-17.913 19.239343-42.565 34.102148-69.766 39.406443zm72.042-41.939907c-3.81499-3.210351-7.615-6.402053-11.4-9.579245.164-.48512.287-.90495.284-1.08946.017-.30787-.114-.51208-.255-.70075 14.19201-16.71832 22.76901-37.27001 23.148-59.24701 5.51001-.52143 11.019-.96302 16.528-1.30821-.053 26.95892-10.57699 51.79386-28.305 71.924675zm-72.334-168.141085c52.927-8.22752 97.95801 35.25279 100.57701 91.79115.016.41154.006.81789.018 1.22838-5.50001.33897-11.001.77538-16.50201 1.29161-.007-.43952.003-.87696-.012-1.31752-.75399-22.52331-9.894-42.3618-23.862-56.24191 3.681-4.38587 7.344-8.73027 10.99-13.02906-.741-.69141-1.48099-1.38179-2.221-2.07217-3.63099 4.29256-7.27899 8.62971-10.944 13.00729-15.14499-13.85938-35.396-20.80876-57.665-17.58389-.002-5.35301-.005-10.70604-.007-16.05801-1.006.14616-2.011.29128-3.017.43744-.003 5.3779-.008 10.7558-.011 16.13369-21.957 4.05622-41.80399 17.0998-56.53299 35.08174-3.679-3.63951-7.341-7.31634-10.98501-11.03671 18.29901-21.92 42.97301-37.63697 70.17401-41.63203zm-61.336 55.36701c-13.311 17.35481-21.948 39.04469-22.632 62.05933-.011.37525 0 .74118-.006 1.11436-5.458.55456-10.916 1.03452-16.373 1.42532.009-.34623 0-.68623.012-1.03454.996-27.99759 11.707-54.0215 27.99-74.65611 3.65201 3.74006 7.322 7.43452 11.009 11.09164z" fill="url(#radialGradient2583-0)" stroke-width=".954503"/>
  </g>
</svg>
