<svg height="256" width="256" xmlns="http://www.w3.org/2000/svg" xmlns:xlink="http://www.w3.org/1999/xlink">
  <defs>
    <linearGradient id="linearGradient1090" gradientTransform="matrix(0 1 -1 0 275.59087 14.35937)" gradientUnits="userSpaceOnUse" x1="-3.298546" x2="33.7686" y1="134.19772" y2="134.19772">
      <stop offset="0" stop-color="#363735"/>
      <stop offset=".07077314" stop-color="#7d827c"/>
      <stop offset=".25934681" stop-color="#2e3436"/>
      <stop offset="1" stop-color="#2b3133"/>
    </linearGradient>
    <linearGradient id="linearGradient921" gradientTransform="matrix(0 1 -1 0 276.00112 -31.07304)" gradientUnits="userSpaceOnUse" x1="46.419395" x2="46.780209" y1="41.729702" y2="52.098267">
      <stop offset="0" stop-color="#1d1e1d" stop-opacity="0"/>
      <stop offset="1" stop-color="#1e1e1e"/>
    </linearGradient>
    <filter id="filter3834" color-interpolation-filters="sRGB" height="1.064318" width="1.080929" x="-.040464" y="-.032159">
      <feGaussianBlur stdDeviation="1.50075"/>
    </filter>
    <filter id="filter3826" color-interpolation-filters="sRGB" height="1.044321" width="1.055874" x="-.027937" y="-.02216">
      <feGaussianBlur stdDeviation="1.036"/>
    </filter>
    <linearGradient id="linearGradient4524-4" gradientUnits="userSpaceOnUse" x1="91.176412" x2="153.986716" y1="29.011894" y2="237.39868">
      <stop offset="0" stop-color="#ffdecf"/>
      <stop offset="1" stop-color="#ffb28d"/>
    </linearGradient>
    <filter id="filter1164" color-interpolation-filters="sRGB" height="1.096" width="1.090435" x="-.045217" y="-.048">
      <feGaussianBlur stdDeviation=".65000024"/>
    </filter>
    <radialGradient id="radialGradient5988-0" cx="64" cy="64.004021" fx="63.793392" fy="47.274845" gradientTransform="matrix(3.368421 -.16859038 .13772678 2.7517692 -103.40582 -35.590906)" gradientUnits="userSpaceOnUse" r="47.5">
      <stop offset="0" stop-color="#fff"/>
      <stop offset="1" stop-color="#fff" stop-opacity="0"/>
    </radialGradient>
    <clipPath id="clipPath6093-7">
      <path d="m17.000001 8-.000001 112h61.5c1.675283 0 3.914297-.56468 7-3.6 8.870045-8.72523 16.24047-13.8518 23.49904-21.175957 2.44056-2.462612 3.00096-4.47117 3.00096-6.724043v-80.5z"/>
    </clipPath>
    <filter id="filter6171-8" color-interpolation-filters="sRGB" height="2.02159" width="1.956141" x="-.47807" y="-.510795">
      <feGaussianBlur stdDeviation="10.140743"/>
    </filter>
    <linearGradient id="linearGradient3895-3" gradientUnits="userSpaceOnUse" x1="174.75220696279" x2="187.81052360287" y1="205.24843838231" y2="219.08692321122">
      <stop offset="0" stop-color="#f2c0ae"/>
      <stop offset=".72817403" stop-color="#c84f2f"/>
      <stop offset="1" stop-color="#89301e"/>
    </linearGradient>
    <linearGradient id="linearGradient33639" gradientUnits="userSpaceOnUse" x1="155.93423" x2="86.919678" y1="246.86024" y2="21.704842">
      <stop offset="0" stop-color="#e02901"/>
      <stop offset="1" stop-color="#f07429"/>
    </linearGradient>
    <linearGradient id="linearGradient3863">
      <stop offset="0" stop-color="#f58b25"/>
      <stop offset="1" stop-color="#d63c04"/>
    </linearGradient>
    <linearGradient id="linearGradient2336" gradientTransform="matrix(.92595086 -.2177315 .2177315 .92595086 -364.06504 -90.652711)" gradientUnits="userSpaceOnUse" x1="136.20087" x2="203.72942" y1="290.29898" y2="306.03467">
      <stop offset="0" stop-color="#ff824c"/>
      <stop offset="1" stop-color="#f62"/>
    </linearGradient>
    <linearGradient id="linearGradient3935" gradientTransform="matrix(.92461511 -.22333584 .22333584 .92461511 -316.56568 .73311)" gradientUnits="userSpaceOnUse" x1="113.99281" x2="183.73698" y1="151.63486" y2="168.32143">
      <stop offset="0" stop-color="#ff844b"/>
      <stop offset="1" stop-color="#f62"/>
    </linearGradient>
    <radialGradient id="radialGradient920" cx="-17.366652" cy="21.667215" gradientTransform="matrix(1.4230404 0 0 1.7299948 106.72635 41.425569)" gradientUnits="userSpaceOnUse" r="18.109375" xlink:href="#linearGradient3863"/>
    <linearGradient id="linearGradient928" gradientUnits="userSpaceOnUse" x1="64.31588252531" x2="119.06776036663" xlink:href="#linearGradient3863" y1="58.25346251875" y2="120.6287556242"/>
  </defs>
  <path d="m-128.8111-19.056071v112h56.187504c5.114947-.238308 32.613203-27.078301 32.775-30.612499.08138-25.126708.0375-56.2589983.0375-81.387501z" filter="url(#filter3834)" opacity=".262376" transform="matrix(2 0 0 2 296.61038 60.847702)"/>
  <path d="m-128.8111-19.556071v112.2h55.746422c3.098719 0 24.709876-18.512112 30.003672-24.699929 1.602664-1.873324 3.24991-3.03751 3.24991-7.20007v-80.300001z" fill-opacity=".700535" filter="url(#filter3826)" transform="matrix(2 0 0 2 296.61038 60.847702)"/>
  <path d="m38.98818 21.73556v224h111.00001c3.35056 0 7.82859-1.12936 14-7.2 17.74009-17.45046 32.48094-27.70362 46.99808-42.35192 4.88112-4.92522 6.00192-8.94234 6.00192-13.44808v-161z" fill="url(#linearGradient33639)" stroke-width="2"/>
  <path d="m41.98818 23.73556c-.67968 0-1 .469236-1 1v215.9375c0 1.64316 1.35864 3 3 3h103.37501c.10614 0 1.62077.0468 3 .0626 3.55533-.0802 6.26395-1.50748 8.71207-3.18656 2.10373-.58206 33.29967-27.23918 51.54191-45.61848 2.72478-2.74524 4.37092-7.89634 4.37092-9.79122l.0001-160.40384c0-.645436-.32644-1-1-1z" fill="url(#linearGradient4524-4)" stroke-width="2"/>
  <path d="m41.98818 19.73556c-.67968 0-1 .469236-1 1v215.9375c0 1.64316 1.35864 2.99902 3 3l105.00001.0626c.10614.00006 6.54777-.016 7.927.0001 13.08194-9.00722 37.2746-31.90658 55.16506-49.9102 2.9537-3.31296.9152-.74012 2.90782-3.2149l.00012-165.875c0-.645436-.32644-1-1-1z" fill="url(#radialGradient5988-0)" opacity=".846535" stroke-width="2"/>
  <g transform="matrix(1.8887982 0 0 1.8887982 397.95615 -50.380266)">
    <path d="m-151.7771 141.82605 38.0715-.15786m-57.10724.23678 6.34524-.0263" fill="none" stroke="url(#linearGradient2336)" stroke-width="6.80315"/>
    <path d="m-168.55928 125.54026 13.1657-10.60746 21.36062 7.48881 15.32097-15.80835m7.07575 24.47279-.0354-31.306344-62.54176.122861.0354 31.306343z" fill="none" stroke="url(#linearGradient3935)" stroke-width="4"/>
  </g>
  <path d="m-39.811096 59.94691c0 4.46531-3.067448 5.978576-5.549678 7.662246-5.10854 3.46508-13.669156 1.756744-19.450326 1.837764-.081 5.78116 1.723142 12.231893-1.741938 17.340433-1.68367 2.48224-4.847792 5.659577-7.758062 5.659577 2.31803 0 4.74284-1.334761 7.58402-4.084811 9.14197-8.84873 14.36714-11.135349 22.673154-20.297529 1.91895-2.11675 4.24283-3.64188 4.24283-8.11768z" filter="url(#filter1164)" opacity=".4" transform="matrix(2 0 0 2 296.61038 60.847702)"/>
  <path clip-path="url(#clipPath6093-7)" d="m114.4 82.502986c0 4.465301-4.99749 12.609952-7.47972 14.293625-5.10854 3.465079-12.739114 1.52536-18.520284 1.60638-.081 5.781159 1.96586 11.304599-1.49922 16.413139-1.68367 2.48224-9.79051 8.68687-12.70078 8.68687-2.091359 1.5337 3.488204 8.21101 6.734971 5.31989 9.501888-8.46107 35.131683-30.022704 43.350823-39.262889 2.04044-2.29392-4.90514-9.844666-9.88579-7.057015z" filter="url(#filter6171-8)" opacity=".277228" transform="matrix(2 0 0 2 -7.01182 5.73556)"/>
  <path d="m216.98819 182.74152c0 8.93062-5.59498 12.81992-10.55944 16.18726-10.21708 6.93016-21.87823 6.65072-33.44057 6.81276-.162 11.56232.33172 19.0092-6.59844 29.22628-3.36734 4.96448-10.58102 10.77374-16.40156 10.77374 4.63606 0 8.88785-3.36342 15.16804-8.16962 19.0787-14.60084 26.40937-20.96861 43.34631-38.59506 3.95915-4.12033 8.48566-7.28376 8.48566-16.23536z" fill="url(#linearGradient3895-3)"/>
  <path d="m217.02569 184.16056c-.63286 7.7982-7.04582 11.80562-11.7 14.9625-10.21708 6.93016-22.67516 4.65046-34.2375 4.8125-.162 11.56232 1.70516 20.63292-5.225 30.85-2.94642 4.34392-8.19891 9.3202-13.525 10.5 3.96092-.7246 7.76986-3.32278 12.5375-7.9375.67823-.77706 1.14859-1.3579 2.2125-3 6.93016-10.21708 5.84737-16.93144 6.00937-28.49376 11.56234-.162 23.43605.42392 33.65313-6.50624.93084-.63138 3.18798-2.3755 4.0125-3.2 3.07258-3.07258 5.80342-5.22684 6.2625-11.9875zm-64.6875 61.125c-.31532.0698-.62688.0828-.9375.125.31398-.0338.62088-.067.9375-.125z" fill="#f2ddd3"/>
  <path d="m215.56229 21.556063.008 26.071903h-175.140574v-26.071903c0-5.537309 4.45784-9.995243 9.99515-9.995243h155.640944c7.21962 0 9.49443 3.33778 9.49648 9.995243z" fill="url(#linearGradient1090)" stroke="url(#linearGradient921)" stroke-linecap="round" stroke-linejoin="round" stroke-width="3"/>
  <path d="m115.85663 78.087088q0 6.047922-2.75714 10.806213-2.75714 4.758291-7.91567 7.382022-5.11404 2.579261-12.184776 2.579261h-15.564504v22.057136h-13.118656v-62.658258h28.14952q11.250906 0 17.298826 5.202992 6.0924 5.158521 6.0924 14.630634zm-13.2076.22235q0-9.872343-11.651136-9.872343h-13.563354v20.322796h13.919114q5.425341 0 8.360362-2.668201 2.935014-2.71267 2.935014-7.782252z" fill="url(#radialGradient920)" stroke="url(#linearGradient928)" stroke-width="1.42304"/>
</svg>
