<svg height="256" width="256" xmlns="http://www.w3.org/2000/svg" xmlns:xlink="http://www.w3.org/1999/xlink">
  <defs>
    <filter id="filter3834" color-interpolation-filters="sRGB" height="1.064318" width="1.080929" x="-.040464" y="-.032159">
      <feGaussianBlur stdDeviation="1.50075"/>
    </filter>
    <filter id="filter3826" color-interpolation-filters="sRGB" height="1.044321" width="1.055874" x="-.027937" y="-.02216">
      <feGaussianBlur stdDeviation="1.036"/>
    </filter>
    <linearGradient id="linearGradient4524-4" gradientTransform="matrix(2 0 0 -2 -7.01182 257.00001)" gradientUnits="userSpaceOnUse" x1="72" x2="72" y1="0" y2="116.40091">
      <stop offset="0" stop-color="#eeecec"/>
      <stop offset=".40000001" stop-color="#f4f4f4"/>
      <stop offset="1" stop-color="#f6f5f5"/>
    </linearGradient>
    <filter id="filter1164" color-interpolation-filters="sRGB" height="1.096" width="1.090435" x="-.045217" y="-.048">
      <feGaussianBlur stdDeviation=".65000024"/>
    </filter>
    <radialGradient id="radialGradient5988-0" cx="64" cy="64.004021" fx="63.793392" fy="47.274845" gradientTransform="matrix(3.368421 .16859038 .13772678 -2.7517692 -103.40582 294.32648)" gradientUnits="userSpaceOnUse" r="47.5" xlink:href="#linearGradient3872"/>
    <linearGradient id="linearGradient3872">
      <stop offset="0" stop-color="#fff"/>
      <stop offset="1" stop-color="#fff" stop-opacity="0"/>
    </linearGradient>
    <clipPath id="clipPath6093-7">
      <path d="m17.000001 8-.000001 112h61.5c1.675283 0 3.914297-.56468 7-3.6 8.870045-8.72523 16.24047-13.8518 23.49904-21.175957 2.44056-2.462612 3.00096-4.47117 3.00096-6.724043v-80.5z"/>
    </clipPath>
    <filter id="filter6171-8" color-interpolation-filters="sRGB" height="2.02159" width="1.956141" x="-.47807" y="-.510795">
      <feGaussianBlur stdDeviation="10.140743"/>
    </filter>
    <linearGradient id="linearGradient3895-3" gradientTransform="matrix(2.0239716 0 0 -2.0239716 -.8029 246.97433)" gradientUnits="userSpaceOnUse" x1="86.73793" x2="93.189758" y1="93.621468" y2="100.45876">
      <stop offset="0" stop-color="#fcfcfc"/>
      <stop offset=".52275378" stop-color="#f8f8f8"/>
      <stop offset=".72337759" stop-color="#f0efef"/>
      <stop offset=".89024991" stop-color="#e3e1e1"/>
      <stop offset="1" stop-color="#cecbcb"/>
    </linearGradient>
    <linearGradient id="linearGradient5060">
      <stop offset="0"/>
      <stop offset="1" stop-opacity="0"/>
    </linearGradient>
    <filter id="filter2997" height="1.02037" width="1.033991" x="-.016996" y="-.010185">
      <feGaussianBlur stdDeviation=".19518712"/>
    </filter>
    <radialGradient id="radialGradient3055" cx="-34.210983" cy="170.17201" fx="-34.299141" fy="169.78783" gradientTransform="matrix(1.9388393 .1388064 -.3433554 2.7222029 90.548099 -288.32204)" gradientUnits="userSpaceOnUse" r="10.210983">
      <stop offset="0" stop-color="#cf4913"/>
      <stop offset="1" stop-color="#cf4913" stop-opacity="0"/>
    </radialGradient>
    <filter id="filter3061" height="1.121679" width="1.202135" x="-.101068" y="-.060839">
      <feGaussianBlur stdDeviation=".85999916"/>
    </filter>
    <radialGradient id="radialGradient3027" cx="-34.896648" cy="165.18288" gradientTransform="matrix(1.503229 -.03268672 .1745282 4.5556914 -11.268055 -588.47998)" gradientUnits="userSpaceOnUse" r="5.791772">
      <stop offset="0" stop-color="#ebeaff"/>
      <stop offset="1" stop-color="#ebeaff" stop-opacity="0"/>
    </radialGradient>
    <filter id="filter3045" height="1.15199" width="1.299472" x="-.149736" y="-.075995">
      <feGaussianBlur stdDeviation=".72269835"/>
    </filter>
    <linearGradient id="linearGradient2304" gradientUnits="userSpaceOnUse" x1="11.898753" x2="115.87801" y1="124.81951" y2="19.340925">
      <stop offset="0" stop-color="#910000"/>
      <stop offset="1" stop-color="#700000"/>
    </linearGradient>
    <linearGradient id="linearGradient2314" gradientUnits="userSpaceOnUse" spreadMethod="reflect" x1="99.219933" x2="86.084175" y1="44.186584" y2="32.530457">
      <stop offset="0" stop-color="#6d0000"/>
      <stop offset="1" stop-color="#ff0909" stop-opacity=".007203"/>
    </linearGradient>
    <filter id="filter2961" height="1.024292" width="1.023715" x="-.011857" y="-.012146">
      <feGaussianBlur stdDeviation=".45375803"/>
    </filter>
    <filter id="filter3013" height="1.024283" width="1.023724" x="-.011862" y="-.012141">
      <feGaussianBlur stdDeviation=".45358023"/>
    </filter>
    <filter id="filter3009" height="1.03647" width="1.017885" x="-.008942" y="-.018235">
      <feGaussianBlur stdDeviation=".25112155"/>
    </filter>
    <filter id="filter3005" height="1.036564" width="1.017862" x="-.008931" y="-.018282">
      <feGaussianBlur stdDeviation=".25169665"/>
    </filter>
    <filter id="filter3001" height="1.036595" width="1.017855" x="-.008927" y="-.018297">
      <feGaussianBlur stdDeviation=".25183759"/>
    </filter>
    <linearGradient id="linearGradient2361" gradientUnits="userSpaceOnUse" x1="-120.57857461574" x2="-134.4729747536" xlink:href="#linearGradient2319" y1="145.194420296" y2="90.9316161887"/>
    <linearGradient id="linearGradient2319">
      <stop offset="0" stop-color="#fffbfb"/>
      <stop offset="1" stop-color="#fffbfb" stop-opacity="0"/>
    </linearGradient>
    <filter id="filter2985" height="1.035863" width="1.072553" x="-.036277" y="-.017932">
      <feGaussianBlur stdDeviation=".4363304"/>
    </filter>
    <filter id="filter2973" height="1.036733" width="1.017822" x="-.008911" y="-.018367">
      <feGaussianBlur stdDeviation=".25271617"/>
    </filter>
    <linearGradient id="linearGradient2364" gradientUnits="userSpaceOnUse" x1="-109.55835388698" x2="-141.1638195934" xlink:href="#linearGradient2319" y1="131.2223525576" y2="85.02793041406"/>
    <filter id="filter2977" height="1.018336" width="1.034729" x="-.017364" y="-.009168">
      <feGaussianBlur stdDeviation=".23264223"/>
    </filter>
    <linearGradient id="linearGradient2357" gradientUnits="userSpaceOnUse" x1="-112.08458475416" x2="-92.828092335" xlink:href="#linearGradient3872" y1="37.0471122349" y2="58.95346698978"/>
    <linearGradient id="linearGradient2387" gradientUnits="userSpaceOnUse" x1="-124.107358" x2="-135.829305" xlink:href="#linearGradient5060" y1="75.469572" y2="116.531911"/>
    <filter id="filter2981" height="1.059057" width="1.092209" x="-.046105" y="-.029528">
      <feGaussianBlur stdDeviation=".56084103"/>
    </filter>
    <linearGradient id="linearGradient2353" gradientUnits="userSpaceOnUse" x1="-140.209523125" x2="-118.04069201108" xlink:href="#linearGradient3872" y1="62.1798048601" y2="83.18385178526"/>
    <linearGradient id="linearGradient2349" gradientUnits="userSpaceOnUse" x1="-151.0433150235" x2="-148.85743320132" xlink:href="#linearGradient3872" y1="85.30785037018" y2="111.54279158974"/>
    <radialGradient id="radialGradient2346" cx="49.370686" cy="82.646782" gradientTransform="matrix(1.021338 -.50208 .312203 .635085 -229.03295 60.464881)" gradientUnits="userSpaceOnUse" r="24.015759" xlink:href="#linearGradient3872"/>
    <filter id="filter2969" height="1.024292" width="1.023733" x="-.011867" y="-.012146">
      <feGaussianBlur stdDeviation=".45375803"/>
    </filter>
    <linearGradient id="linearGradient2338" gradientUnits="userSpaceOnUse" x1="-122.297772" x2="-158.399266" xlink:href="#linearGradient5060" y1="59.623907" y2="70.052279"/>
    <radialGradient id="radialGradient3073" cx="35.753014" cy="92.375504" gradientTransform="matrix(1.5614104 -.3702615 .3859539 1.6275859 -55.465606 -44.104132)" gradientUnits="userSpaceOnUse" r="3.28125">
      <stop offset="0" stop-color="#fff"/>
      <stop offset=".125" stop-color="#e0741f" stop-opacity=".87451"/>
      <stop offset=".25" stop-color="#ffe93f" stop-opacity=".74902"/>
      <stop offset=".5" stop-color="#ffe93f" stop-opacity=".498039"/>
      <stop offset="1" stop-color="#ffe93f" stop-opacity="0"/>
    </radialGradient>
    <filter id="filter3117" height="1.292531" width="1.14196" x="-.07098" y="-.146265">
      <feGaussianBlur stdDeviation=".19408531"/>
    </filter>
  </defs>
  <path d="m-128.8111-19.056071v112h56.187504c5.114947-.238308 32.613203-27.078301 32.775-30.612499.08138-25.126708.0375-56.2589983.0375-81.387501z" filter="url(#filter3834)" opacity=".262376" transform="matrix(2 0 0 -2 296.61038 201.88787)"/>
  <path d="m-128.8111-19.556071v112.2h55.746422c3.098719 0 24.709876-18.512112 30.003672-24.699929 1.602664-1.873324 3.24991-3.03751 3.24991-7.20007v-80.300001z" fill-opacity=".700535" filter="url(#filter3826)" transform="matrix(2 0 0 -2 296.61038 201.88787)"/>
  <path d="m38.98818 241.00001v-223.999998h111.00001c3.35056 0 7.82859 1.12936 14 7.2 17.74009 17.45046 32.48094 27.703618 46.99808 42.351918 4.88112 4.92522 6.00192 8.94234 6.00192 13.44808v161z" fill="#fff" stroke-width="2"/>
  <path d="m41.98818 239.00001c-.67968 0-1-.46923-1-1v-215.937498c0-1.64316 1.35864-3 3-3h103.37501c.10614 0 1.62077-.0468 3-.0626 3.55533.0802 6.26395 1.50748 8.71207 3.18656 2.10373.58206 33.29967 27.239178 51.54191 45.618478 2.72478 2.74524 4.37092 7.89634 4.37092 9.79122l.0001 160.40384c0 .64544-.32644 1-1 1z" fill="url(#linearGradient4524-4)" stroke-width="2"/>
  <path d="m41.98818 239.00001c-.67968 0-1-.46923-1-1v-215.937498c0-1.64316 1.35864-2.999022 3-3l105.00001-.0626c.10614-.000064 6.54777.016 7.927-.0001 13.08194 9.00722 37.2746 31.906578 55.16506 49.910198 2.9537 3.31296.9152.74012 2.90782 3.2149l.00012 165.875c0 .64544-.32644 1-1 1z" fill="url(#radialGradient5988-0)" opacity=".846535" stroke-width="2"/>
  <path d="m-39.811096 59.94691c0 4.46531-3.067448 5.978576-5.549678 7.662246-5.10854 3.46508-13.669156 1.756744-19.450326 1.837764-.081 5.78116 1.723142 12.231893-1.741938 17.340433-1.68367 2.48224-4.847792 5.659577-7.758062 5.659577 2.31803 0 4.74284-1.334761 7.58402-4.084811 9.14197-8.84873 14.36714-11.135349 22.673154-20.297529 1.91895-2.11675 4.24283-3.64188 4.24283-8.11768z" filter="url(#filter1164)" opacity=".4" transform="matrix(2 0 0 -2 296.61038 201.88787)"/>
  <path clip-path="url(#clipPath6093-7)" d="m114.4 82.502986c0 4.465301-4.99749 12.609952-7.47972 14.293625-5.10854 3.465079-12.739114 1.52536-18.520284 1.60638-.081 5.781159 1.96586 11.304599-1.49922 16.413139-1.68367 2.48224-9.79051 8.68687-12.70078 8.68687-2.091359 1.5337 3.488204 8.21101 6.734971 5.31989 9.501888-8.46107 35.131683-30.022704 43.350823-39.262889 2.04044-2.29392-4.90514-9.844666-9.88579-7.057015z" filter="url(#filter6171-8)" opacity=".277228" transform="matrix(2 0 0 -2 -7.01182 257.00001)"/>
  <path d="m216.98819 79.99405c0-8.93062-5.59498-12.81992-10.55944-16.18726-10.21708-6.93016-21.87823-6.65072-33.44057-6.81276-.162-11.56232.33172-19.009198-6.59844-29.226278-3.36734-4.96448-10.58102-10.773742-16.40156-10.773742 4.63606 0 8.88785 3.363424 15.16804 8.169622 19.0787 14.60084 26.40937 20.968606 43.34631 38.595058 3.95915 4.12033 8.48566 7.28376 8.48566 16.23536z" fill="url(#linearGradient3895-3)"/>
  <path d="m217.02569 78.57501c-.63286-7.7982-7.04582-11.80562-11.7-14.9625-10.21708-6.93016-22.67516-4.65046-34.2375-4.8125-.162-11.56232 1.70516-20.632918-5.225-30.849998-2.94642-4.34392-8.19891-9.3202-13.525-10.500002 3.96092.724602 7.76986 3.322782 12.5375 7.937502.67823.77706 1.14859 1.3579 2.2125 3 6.93016 10.21708 5.84737 16.931438 6.00937 28.493758 11.56234.162 23.43605-.42392 33.65313 6.50624.93084.63138 3.18798 2.3755 4.0125 3.2 3.07258 3.07258 5.80342 5.22684 6.2625 11.9875zm-64.6875-61.125c-.31532-.0698-.62688-.0828-.9375-.125.31398.0338.62088.067.9375.125z" fill="#fff"/>
  <g transform="matrix(1.1273232 0 0 1.1273232 281.83569 63.854506)">
    <path d="m-157.8502 88.089678c-5.54629 2.780312-10.43635 6.589981-14.85637 10.981517-.77479.711107.8829 1.608865 1.29769 1.484285 2.90957-1.085298 5.03249-.46619 7.94206-1.551497" fill="#280000" fill-rule="evenodd"/>
    <g transform="matrix(.483402 .53777 -.713798 .641634 -33.744314 24.915528)">
      <path d="m-40 155.42968c3.166667-3.42021 7.573869-3.05376 11 0s9.868185 12.36405 9.368185 20.79244-2.162436 14.45698-10.579417 22.77104c-9.808718-6.69029-15.40555-12.604-16.738883-21.03239s3.783448-19.11087 6.950115-22.53109z" fill="#ffe93f" fill-rule="evenodd" filter="url(#filter2997)"/>
      <path d="m-38.011331 154.86326c2.155568-2.32816 5.155574-2.07871 7.48776 0s6.845709 6.73503 6.505357 12.47228c-.340353 5.73725-2.678659 14.05395-8.423824 19.79912-5.523531-3.97711-10.964421-11.84685-11.872028-17.5841s4.147168-12.35914 6.302735-14.6873z" fill="url(#radialGradient3055)" fill-rule="evenodd" filter="url(#filter3061)" opacity=".405738"/>
      <path d="m-37.392489 154.74933c1.275005-1.37709 3.04949-1.22954 4.428963 0 1.379474 1.22955 4.049194 3.98373 3.847878 7.37728s-1.457141 11.06982-4.85537 14.46806c-3.11932-3.11932-6.105691-10.18924-6.642535-13.58279s1.94606-6.88546 3.221064-8.26255z" fill="url(#radialGradient3027)" fill-rule="evenodd" filter="url(#filter3045)"/>
    </g>
    <g transform="matrix(.788513 .788513 -.788513 .788513 -119.49337 18.612183)">
      <path d="m126.53125.8125c-5.41125.13106365-11.439 2.4905809-16.09375 5.59375-12.049298 8.032865-25.373584 20.764622-37.34375 32.75-26.208155 4.141424-50.327493 17.572016-67.96875 33.53125-.00535.0053-.026112.02569-.03125.03125-.00494.0058-.026506.02527-.03125.03125-.050119.06758-.092644.152037-.125.21875-.00269.0062-.028692.02498-.03125.03125-.072632.191432-.081025.435724-.03125.65625.2491866.995481 1.5967118 2.188166 2.65625 2.21875.054558.00056.1346362-.02546.1875-.03125.03503-.0046.090889.0076.125 0 .023248-.0059.039731-.02386.0625-.03125 11.028433-3.580991 24.528983-7.200305 35.375-5.46875-1.712383 2.383489-3.434508 5.125864-5.34375 8.5625-2.833687 5.100633-5.813361 9.780389-2.21875 13.375 3.420237 3.420239 8.274367.614936 13.375-2.21875 3.436637-1.909243 6.179011-3.631367 8.5625-5.34375 1.731554 10.846016-1.887763 24.34657-5.46875 35.375-.0055.0171-.02522.0438-.03125.0625-.01302.0587.0043.15757 0 .21875-.0016.037-.0013.11858 0 .15625.06507 1.0858 1.310748 2.44977 2.3125 2.625.08761.013.190427.005.28125 0 .02435-.002.07114.004.09375 0 .167806-.0385.339987-.13892.46875-.28125 15.959233-17.64126 29.389826-41.760595 33.53125-67.96875 11.98538-11.970167 24.71713-25.294452 32.75-37.34375 3.22931-4.84397 5.64657-11.1727118 5.59375-16.75-.21786-.002063-.43628-.005328-.65625 0z" fill="url(#linearGradient2304)" fill-rule="evenodd" transform="matrix(.634105 -.634105 .634105 .634105 -52.99317 51.69598)"/>
      <path d="m126.53125.8125c-5.41125.13106365-11.439 2.4905809-16.09375 5.59375-12.049298 8.032865-25.373584 20.764622-37.34375 32.75-20.625394 2.920812-49.747114 19.594472-56.364417 24.874951-3.283798 2.620407-5.522296 10.153219-2.599585 9.11887 7.160344-2.534048 23.157274-4.861765 29.151502-2.806321-1.712383 2.383489-3.434508 5.125864-5.34375 8.5625-2.833687 5.100633-5.813361 9.780389-2.21875 13.375 3.420237 3.420239 8.274367.614936 13.375-2.21875 3.436637-1.909243 6.179011-3.631367 8.5625-5.34375 1.954892 19.37923 17.875786 29.27916 31.1875-29.8125 11.98538-11.970167 24.71713-25.294452 32.75-37.34375 3.22931-4.84397 5.64657-11.1727118 5.59375-16.75-.21786-.002063-.43628-.005328-.65625 0z" fill="url(#linearGradient2314)" fill-rule="evenodd" transform="matrix(.634105 -.634105 .634105 .634105 -52.99317 51.69598)"/>
    </g>
    <path d="m-74.864314 18.411232c-14.32179 1.82618-25.408456 14.880193-51.528996 38.400831 1.78777 4.436586-.96006 5.605891-11.57359 16.164293-10.70874 10.653126-12.72701 12.996387-17.85356 14.832176-3.77879 5.612573-11.93453 14.079678-10.76547 20.263158 4.26285-10.331308 12.44159-14.69484 33.41952-34.649159 11.48024-10.920062 45.421106-51.302398 58.302096-55.011299z" fill="#f2f2f2" fill-rule="evenodd" opacity=".180328"/>
    <path d="m-74.864314 18.411232c-14.32179 1.82618-25.408456 14.880193-51.528996 38.400831 1.78777 4.436586-.96006 5.605891-11.57359 16.164293-10.70874 10.653126-12.72701 12.996387-17.85356 14.832176-3.77879 5.612573-11.93453 14.079678-10.76547 20.263158 2.93073-10.711912 9.77736-15.456049 30.75529-35.410368 11.48023-10.920062 36.857506-47.876957 60.966326-54.25009z" fill="#f2f2f2" fill-rule="evenodd" opacity=".180328"/>
    <path d="m-74.864314 18.411232c-14.32179 1.82618-26.359966 14.499589-52.480506 38.020226 1.78777 4.436587-.57946 5.986496-11.19298 16.544898-10.70875 10.653126-12.72702 12.044877-17.85356 13.880665-3.7788 5.612573-11.36363 15.031189-10.19457 21.214669 4.26285-10.141006 10.53857-14.885143 31.5165-34.839462 11.48023-10.920062 37.047806-47.115748 60.205116-54.820996z" fill="#f2f2f2" fill-rule="evenodd" filter="url(#filter2961)" opacity=".180328"/>
    <path d="m-74.864314 18.411232c-14.05219 2.5451-25.910646 14.679319-52.031186 38.199956 1.78778 4.436587-.75918 5.896631-11.37271 16.455032-10.70874 10.653126-12.90674 12.404337-18.03329 14.240126-3.77879 5.612573-11.00417 14.492004-10.28443 20.765344 5.25136-10.859925 11.07776-14.525683 32.05569-34.480002 11.48023-10.920062 37.407266-46.846153 59.665926-55.180456z" fill="#f2f2f2" fill-rule="evenodd" filter="url(#filter3013)" opacity=".180328"/>
    <path d="m-195.44217 90.551832c19.02074-16.149314 40.34919-28.285222 65.95712-32.97856 1.93725-.455515 1.82962 1.349091.21525 1.754574-24.00853 2.616681-45.88906 15.712326-66.17237 31.223986z" fill="#fefefe" fill-opacity=".544715" fill-rule="evenodd" filter="url(#filter3009)"/>
    <path d="m-195.44217 90.551832c19.02074-16.149314 40.34919-28.285222 65.95712-32.97856 1.93725-.455515 2.26012 1.671966.64575 2.077448-24.00853 2.616681-46.31956 15.389452-66.60287 30.901112z" fill="#fefefe" fill-opacity=".390244" fill-rule="evenodd" filter="url(#filter3005)"/>
    <path d="m-195.44217 90.551832c19.02074-16.149314 40.34919-28.285222 65.95712-32.97856 1.93725-.455515 2.36775 2.102465.75337 2.507947-24.00852 2.616681-46.42718 14.958953-66.71049 30.470613z" fill="#fefefe" fill-opacity=".235772" fill-rule="evenodd" filter="url(#filter3001)"/>
    <path d="m-117.80658 77.744661c.92681-2.421791-6.46706 8.107831-8.83015 13.200751-3.29742 7.106577-3.82714 18.911128-6.97064 22.807378-3.19356 2.14562-4.22242-5.35146-5.94006-9.30631-.5386-.87399-1.47079-.86242-1.71421.92025.32584 11.51485-1.93875 18.66302-5.19953 29.15311-.64566.8355 1.26695 1.86779 1.50684.83379 13.73674-17.66906 23.3354-33.9874 27.14775-57.608969z" fill="url(#linearGradient2361)" fill-rule="evenodd" filter="url(#filter2985)" opacity=".295082"/>
    <path d="m-195.44217 90.551832c19.02074-16.149314 40.34919-28.285222 65.95712-32.97856 1.93725-.455515 2.90587 2.748214 1.2915 3.153696-24.00853 2.616681-46.96531 14.313204-67.24862 29.824864z" fill="#fefefe" fill-opacity=".138211" fill-rule="evenodd" filter="url(#filter2973)"/>
    <path d="m-116.03547 76.760712c.92681-2.42179-9.02533 8.698201-11.38842 13.79112-3.29742 7.106578-9.61875 15.291238-11.33638 11.336378-.53861-.87398-2.84832-.27205-3.09174 1.51063.32584 11.51484-2.9227 22.00843-6.18348 32.49852-.64566.8355 2.2509 2.06458 2.4908 1.03058 13.73673-17.66906 25.69686-36.54566 29.50922-60.167228z" fill="url(#linearGradient2364)" fill-rule="evenodd" filter="url(#filter2977)" opacity=".569672"/>
    <path d="m-91.148544 23.712714 5.46801 5.561484-10.8893 10.749086-6.636386-7.24395c3.822906-3.21852 7.861076-6.221782 12.057676-9.06662z" fill="#fff" fill-opacity=".45935" fill-rule="evenodd"/>
    <path d="m-96.615354 40.030088 6.87372 7.402472c-3.68615 4.427444-7.6096 8.719279-11.632446 12.954324l-7.40248-8.195593z" fill="url(#linearGradient2357)" fill-rule="evenodd"/>
    <path d="m-116.07736 44.201494 7.25071 8.011839-12.6587 12.538525-4.88722-5.127575c.26878-2.455412-1.19107-3.351137-2.52373-2.804144 4.00432-4.158816 8.20261-8.461394 12.81894-12.618645z" fill="#fff" fill-opacity=".45935" fill-rule="evenodd"/>
    <path d="m-113.56385 72.804546c.0128 12.330699-15.97446 46.943454-18.84856 45.494514-.80626-1.42032 2.5552-4.90178 3.74283-14.14458 0-2.91936-2.43618-6.930571-5.69636-5.83979-1.58849.531471-6.86055 12.62156-8.39282 11.08928.59941-3.87855 1.19882-7.7571 1.79823-11.635652.53348-1.332655 25.43743-26.209096 27.39668-24.963772z" fill="url(#linearGradient2387)" fill-rule="evenodd" filter="url(#filter2981)"/>
    <path d="m-113.75393 72.843815c-4.67923 2.830495-9.45801 8.888645-14.18095 13.339711l-7.13054-7.771483 13.62013-13.660185z" fill="url(#linearGradient2353)" fill-rule="evenodd"/>
    <path d="m-139.35175 73.805236 4.20622 4.646866-16.02368 15.783321-6.16912-6.209175.72107-1.121657c3.95129-.888987 7.67393-3.656267 10.49551-6.289293z" fill="#fff" fill-opacity=".45935" fill-rule="evenodd"/>
    <path d="m-151.20927 94.235423 6.20917 6.329347.60089 1.68249c-3.11379 2.44108-6.78563 4.32411-10.29521 6.36941l-5.60829-5.28781z" fill="url(#linearGradient2349)" fill-rule="evenodd"/>
    <path d="m-128.97629 63.32241s-17.20889 17.259223-19.44667 19.27451c-1.86895 1.683114-6.41351 4.508275-8.3843 4.153716-11.05276-1.988465-21.66935 1.413941-21.66935 1.413941 10.68041-13.979177 29.7923-19.702524 49.50032-24.842167z" fill="url(#radialGradient2346)" fill-rule="evenodd" opacity=".495902"/>
    <path d="m-160.27367 103.29059-5.03499-4.692049c-1.93679 3.676949-4.18183 7.635699-1.37176 10.896159z" fill="#fff" fill-opacity=".349594" fill-rule="evenodd"/>
    <path d="m-74.864314 18.411232c-14.05219 2.5451-24.97561 15.146839-51.096136 38.667477 1.78777 4.436586-1.69423 6.130391-12.30776 16.688792-10.70874 10.653126-12.90674 11.703056-18.03329 13.538845-3.77879 5.612573-11.00417 14.492004-10.28443 20.765344 3.8488-10.859925 8.46552-16.113807 30.65313-34.713762 13.58407-11.387582 38.342306-48.248714 61.068486-54.946696z" fill="#f2f2f2" fill-rule="evenodd" filter="url(#filter2969)" opacity=".635246"/>
    <path d="m-74.864314 18.411232c-14.05219 2.5451-25.610776 14.591068-51.731306 38.111706 1.78777 4.436586-1.21786 6.52737-11.83138 17.085771-10.70874 10.653126-12.74795 11.861848-17.8745 13.697637-3.77879 5.612573-11.00417 14.492004-10.28443 20.765344 7.82273-8.989844 11.03688-14.009965 33.22449-32.609921 13.58408-11.387582 39.744866-45.911112 58.497126-57.050537z" fill="#f2f2f2" fill-rule="evenodd" filter="url(#filter3013)" opacity=".471312"/>
    <path d="m-128.95983 56.719934c1.17284-.200988 2.0153.07523 2.39151 1.024933.54546 1.285326.0548 2.47142-.25624 3.074798-4.29296 7.194553-13.8106 14.042955-20.84029 21.01112l-24.37036-.213586 10.79-15.074993c11.06371-4.280491 21.90308-7.813187 32.28538-9.822272z" fill="url(#linearGradient2338)" fill-rule="evenodd"/>
    <path d="m-129.20446 56.710147c.002-.0302 4.71669-4.57868 11.04851-10.42428 6.33182-5.845601 16.98835-15.298719 20.749926-18.206989 9.89429-7.64976 17.22074-9.70829 22.54803-9.612762-.25886 2.607331.74294 8.954942-10.09368 22.977235-11.78438 15.261929-36.361956 38.342079-36.361956 38.342079" fill="none" stroke="#000" stroke-width=".1"/>
    <path d="m-128.9146 57.000009c-.0323-.04156 4.63606-4.845368 10.95185-10.683762 6.3158-5.838394 14.15822-12.922756 20.788006-17.972248 10.47983-7.981822 15.92021-9.477901 22.069-9.682287-.25886 2.607331.75597 8.641988-10.08065 22.664281-11.78438 15.261929-35.221416 39.002929-35.221416 39.002929" fill="none" stroke="#000" stroke-opacity=".203252" stroke-width=".4"/>
    <ellipse cx="37.03125" cy="91.90625" fill="url(#radialGradient3073)" filter="url(#filter3117)" opacity=".527174" rx="3.28125" ry="1.592328" transform="matrix(.67935681 .7338081 -.7338081 .67935681 -122.62934 18.730283)"/>
  </g>
</svg>
