<svg height="256" width="256" xmlns="http://www.w3.org/2000/svg" xmlns:xlink="http://www.w3.org/1999/xlink">
  <defs>
    <filter id="filter3834" color-interpolation-filters="sRGB" height="1.064318" width="1.080929" x="-.040464" y="-.032159">
      <feGaussianBlur stdDeviation="1.50075"/>
    </filter>
    <filter id="filter3826" color-interpolation-filters="sRGB" height="1.044321" width="1.055874" x="-.027937" y="-.02216">
      <feGaussianBlur stdDeviation="1.036"/>
    </filter>
    <linearGradient id="linearGradient4524-4" gradientTransform="matrix(2 0 0 -2 -7.01182 257.00001)" gradientUnits="userSpaceOnUse" x1="72" x2="72" y1="0" y2="116.40091">
      <stop offset="0" stop-color="#eeecec"/>
      <stop offset=".40000001" stop-color="#f4f4f4"/>
      <stop offset="1" stop-color="#f6f5f5"/>
    </linearGradient>
    <filter id="filter1164" color-interpolation-filters="sRGB" height="1.096" width="1.090435" x="-.045217" y="-.048">
      <feGaussianBlur stdDeviation=".65000024"/>
    </filter>
    <radialGradient id="radialGradient5988-0" cx="64" cy="64.004021" fx="63.793392" fy="47.274845" gradientTransform="matrix(3.368421 .16859038 .13772678 -2.7517692 -103.40582 294.32648)" gradientUnits="userSpaceOnUse" r="47.5" xlink:href="#linearGradient3872"/>
    <linearGradient id="linearGradient3872">
      <stop offset="0" stop-color="#fff"/>
      <stop offset="1" stop-color="#fff" stop-opacity="0"/>
    </linearGradient>
    <clipPath id="clipPath6093-7">
      <path d="m17.000001 8-.000001 112h61.5c1.675283 0 3.914297-.56468 7-3.6 8.870045-8.72523 16.24047-13.8518 23.49904-21.175957 2.44056-2.462612 3.00096-4.47117 3.00096-6.724043v-80.5z"/>
    </clipPath>
    <filter id="filter6171-8" color-interpolation-filters="sRGB" height="2.02159" width="1.956141" x="-.47807" y="-.510795">
      <feGaussianBlur stdDeviation="10.140743"/>
    </filter>
    <linearGradient id="linearGradient3895-3" gradientTransform="matrix(2.0239716 0 0 -2.0239716 -.8029 246.97433)" gradientUnits="userSpaceOnUse" x1="86.73793" x2="93.189758" y1="93.621468" y2="100.45876">
      <stop offset="0" stop-color="#fcfcfc"/>
      <stop offset=".52275378" stop-color="#f8f8f8"/>
      <stop offset=".72337759" stop-color="#f0efef"/>
      <stop offset=".89024991" stop-color="#e3e1e1"/>
      <stop offset="1" stop-color="#cecbcb"/>
    </linearGradient>
    <radialGradient id="radialGradient3328" cx="51.767773" cy="14.017021" gradientTransform="matrix(1.72893 .00000002 0 .08175904 -35.735084 6.887999)" gradientUnits="userSpaceOnUse" r="46" xlink:href="#linearGradient3872"/>
    <radialGradient id="radialGradient3330" cx="50" cy="106.01698" gradientTransform="matrix(.8043478 .00000021 -.00000006 .2293229 11.782615 87.687866)" gradientUnits="userSpaceOnUse" r="46" xlink:href="#linearGradient3872"/>
    <radialGradient id="radialGradient3332" cx="52" cy="98.397842" gradientTransform="matrix(1 0 0 1.1459883 2 -8.762777)" gradientUnits="userSpaceOnUse" r="41.838463">
      <stop offset="0" stop-color="#5e5e5e"/>
      <stop offset="1" stop-opacity="0"/>
    </radialGradient>
    <linearGradient id="linearGradient3334" gradientUnits="userSpaceOnUse" x1="62" x2="62" xlink:href="#linearGradient3872" y1="140" y2="28"/>
    <filter id="filter3032" height="1.017245" width="1.020323" x="-.010184" y="-.008622">
      <feGaussianBlur stdDeviation=".13617728"/>
    </filter>
    <linearGradient id="linearGradient3336" gradientUnits="userSpaceOnUse" x1="91.095451" x2="96.487144" xlink:href="#linearGradient3872" y1="14.023225" y2="4.300506"/>
    <filter id="filter3102" height="1.317541" width="1.244662" x="-.122331" y="-.15877">
      <feGaussianBlur stdDeviation=".27482165"/>
    </filter>
    <linearGradient id="linearGradient3338" gradientUnits="userSpaceOnUse" x1="12.518213" x2="12.518213" xlink:href="#linearGradient3872" y1="12.211263" y2="-1.444737"/>
    <filter id="filter3098" height="1.317541" width="1.271353" x="-.135676" y="-.15877">
      <feGaussianBlur stdDeviation=".27482165"/>
    </filter>
    <linearGradient id="linearGradient3340" gradientUnits="userSpaceOnUse" x1="42" x2="58" xlink:href="#linearGradient3872" y1="-104" y2="64"/>
    <linearGradient id="linearGradient3342-3" gradientUnits="userSpaceOnUse" x1="78.225001" x2="46.225001" xlink:href="#linearGradient3872" y1="63.975" y2="-32.025"/>
    <linearGradient id="linearGradient3344-6" gradientUnits="userSpaceOnUse" x1="54.000002" x2="57.725" xlink:href="#linearGradient3872" y1="0" y2="63.975"/>
    <linearGradient id="linearGradient3346" gradientUnits="userSpaceOnUse" x1="80.125" x2="76.8125" xlink:href="#linearGradient3872" y1="106.1875" y2="101.125"/>
    <filter id="filter3240" height="1.225591" width="1.097377" x="-.048689" y="-.112795">
      <feGaussianBlur stdDeviation=".17624262"/>
    </filter>
    <linearGradient id="linearGradient3348" gradientUnits="userSpaceOnUse" x1="78.125" x2="74.8125" xlink:href="#linearGradient3872" y1="106.1875" y2="101.125"/>
    <linearGradient id="linearGradient3436" gradientUnits="userSpaceOnUse" x1="48" x2="48" y1="108" y2="-20">
      <stop offset="0"/>
      <stop offset=".36741748" stop-color="#620000"/>
      <stop offset="1" stop-color="#c50000"/>
    </linearGradient>
    <radialGradient id="radialGradient3438" cx="51.767773" cy="14.017021" gradientTransform="matrix(1.72893 .00000002 0 .08175904 -41.735084 -1.112001)" gradientUnits="userSpaceOnUse" r="46" xlink:href="#linearGradient3872"/>
    <radialGradient id="radialGradient3440" cx="50" cy="106.01698" gradientTransform="matrix(.8043478 .00000021 -.00000006 .2293229 5.782615 79.687866)" gradientUnits="userSpaceOnUse" r="46">
      <stop offset="0" stop-color="#ca5c00"/>
      <stop offset="1" stop-color="#fff" stop-opacity="0"/>
    </radialGradient>
    <radialGradient id="radialGradient3442" cx="48" cy="77.455223" gradientTransform="matrix(1 0 0 1.1459883 -4 -16.762777)" gradientUnits="userSpaceOnUse" r="41.838463">
      <stop offset="0" stop-color="#e00"/>
      <stop offset="1" stop-color="#4c0000"/>
    </radialGradient>
    <linearGradient id="linearGradient3444" gradientUnits="userSpaceOnUse" x1="56" x2="56" xlink:href="#linearGradient3872" y1="132" y2="20"/>
    <linearGradient id="linearGradient3446" gradientUnits="userSpaceOnUse" x1="85.095451" x2="90.487144" xlink:href="#linearGradient3872" y1="6.023225" y2="-3.699494"/>
    <radialGradient id="radialGradient3448" cx="48" cy="12.812049" gradientTransform="matrix(1.5652174 0 0 .2608696 -31.130435 8.657726)" gradientUnits="userSpaceOnUse" r="46">
      <stop offset="0" stop-color="#1d0000"/>
      <stop offset="1" stop-color="#4f0000" stop-opacity="0"/>
    </radialGradient>
    <linearGradient id="linearGradient3450" gradientUnits="userSpaceOnUse" x1="6.518213" x2="6.518213" xlink:href="#linearGradient3872" y1="4.211263" y2="-9.444737"/>
    <linearGradient id="linearGradient3452" gradientUnits="userSpaceOnUse" x1="44" x2="52" xlink:href="#linearGradient3872" y1="-16" y2="68"/>
    <linearGradient id="linearGradient3454" gradientUnits="userSpaceOnUse" x1="72.225001" x2="40.225001" xlink:href="#linearGradient3872" y1="55.975" y2="-40.025"/>
    <linearGradient id="linearGradient3456" gradientUnits="userSpaceOnUse" x1="48.000002" x2="51.725" xlink:href="#linearGradient3872" y1="-8" y2="55.975"/>
    <linearGradient id="linearGradient3458" gradientUnits="userSpaceOnUse" x1="74.125" x2="64" xlink:href="#linearGradient3872" y1="98.1875" y2="88"/>
    <linearGradient id="linearGradient3460" gradientUnits="userSpaceOnUse" x1="78.125" x2="68.0625" xlink:href="#linearGradient3872" y1="106.1875" y2="99.800003"/>
  </defs>
  <path d="m-128.8111-19.056071v112h56.187504c5.114947-.238308 32.613203-27.078301 32.775-30.612499.08138-25.126708.0375-56.2589983.0375-81.387501z" filter="url(#filter3834)" opacity=".262376" transform="matrix(2 0 0 -2 296.61038 201.88787)"/>
  <path d="m-128.8111-19.556071v112.2h55.746422c3.098719 0 24.709876-18.512112 30.003672-24.699929 1.602664-1.873324 3.24991-3.03751 3.24991-7.20007v-80.300001z" fill-opacity=".700535" filter="url(#filter3826)" transform="matrix(2 0 0 -2 296.61038 201.88787)"/>
  <path d="m38.98818 241.00001v-223.999998h111.00001c3.35056 0 7.82859 1.12936 14 7.2 17.74009 17.45046 32.48094 27.703618 46.99808 42.351918 4.88112 4.92522 6.00192 8.94234 6.00192 13.44808v161z" fill="#fff" stroke-width="2"/>
  <path d="m41.98818 239.00001c-.67968 0-1-.46923-1-1v-215.937498c0-1.64316 1.35864-3 3-3h103.37501c.10614 0 1.62077-.0468 3-.0626 3.55533.0802 6.26395 1.50748 8.71207 3.18656 2.10373.58206 33.29967 27.239178 51.54191 45.618478 2.72478 2.74524 4.37092 7.89634 4.37092 9.79122l.0001 160.40384c0 .64544-.32644 1-1 1z" fill="url(#linearGradient4524-4)" stroke-width="2"/>
  <path d="m41.98818 239.00001c-.67968 0-1-.46923-1-1v-215.937498c0-1.64316 1.35864-2.999022 3-3l105.00001-.0626c.10614-.000064 6.54777.016 7.927-.0001 13.08194 9.00722 37.2746 31.906578 55.16506 49.910198 2.9537 3.31296.9152.74012 2.90782 3.2149l.00012 165.875c0 .64544-.32644 1-1 1z" fill="url(#radialGradient5988-0)" opacity=".846535" stroke-width="2"/>
  <g stroke="#b6b6b6" transform="translate(-125 -44.999999)">
    <g transform="matrix(1.0732812 0 0 1.0732812 186.45657 124.68079)">
      <path d="m1.6184157.0340192-1.6184158 31.9659808h7.6886241l.336729-1.616495c1.620211-8.865674 4.911925-13.323265 7.567278-15.496907 1.541606-1.260214 2.506958-1.82056 4.321344-2.251547s4.526678-.635051 9.035537-.635051h7.015168l.03532 67.999999c-.313043 4.423918.547584 9.576952-2.122968 13.399761-2.636929 2.93537-8.073635 2.82925-12.08115 3.26828l-1.795883.1732v7.15876h52v-7.15876l-1.795883-.1732c-6.44286-.48116-9.93895-1.15418-11.734776-2.64742-2.453359-2.039992-2.469337-7.774431-2.469339-14.020621v-67.999999h7.295775c4.708211 0 7.552777.200033 9.372265.635051s2.681715 1.003308 4.040737 2.251547c2.387107 2.19517 5.383475 6.717683 7.26587 15.554639l.336728 1.558763 7.688624.099999-1.373128-32.0659798z" fill="url(#linearGradient3436)" stroke="none"/>
      <path d="m1.6184157.0340192-1.6184158 31.9659808h7.6886241l.336729-1.616495c1.620211-8.865674 4.911925-13.323265 7.567278-15.496907 1.541606-1.260214 2.506958-1.82056 4.321344-2.251547s4.526678-.635051 9.035537-.635051h7.015168 20.035321 7.295775c4.708211 0 7.552777.200033 9.372265.635051s2.681715 1.003308 4.040737 2.251547c2.387107 2.19517 5.383475 6.717683 7.26587 15.554639l.336728 1.558763 7.688624.099999-1.373128-32.0659798z" fill="url(#radialGradient3438)" opacity=".74" stroke="none"/>
      <path d="m36 79.999999c-.313043 4.423918.547584 9.576952-2.122968 13.399761-2.636929 2.93537-8.073635 2.82925-12.08115 3.26828l-1.795883.1732v7.15876h52v-7.15876l-1.795883-.1732c-6.44286-.48116-9.93895-1.15418-11.734776-2.64742-2.453359-2.039992-2.469337-7.774431-2.469339-14.020621z" fill="url(#radialGradient3440)" opacity=".148" stroke="none"/>
      <path d="m5.3658975 4.077427h81.4881955l1.010184 23.901031h-.617334c-2.031178-8.253911-4.963004-13.394313-7.91311-16.107216-1.5336-1.408586-3.490912-2.627843-5.780499-3.175258-2.442676-.584015-5.453406-.750512-10.270207-.750516h-7.295775-3.928494v4.041237 68.008249c.000002 3.126654-.02548 6.242548.336728 9.121649.36221 2.879101.963326 5.896897 3.591766 8.082477 1.950085 1.62151 4.388503 2.31098 7.239654 2.77113h-34.1779c2.572241-.46432 5.493303-1.30406 7.744746-3.81031l.168364-.17319.112242-.23093c3.885007-5.561263 2.722718-11.79946 2.981663-15.458872v-.115464-.173195l-.056121-72.008249h-12c-4.624535 0-6.608615.128746-8.996615.695984-2.245754.533452-4.112989 1.593053-5.83662 3.002062-3.236194 2.649113-6.707414 7.770849-8.5865664 16.22268h-.3928494z" fill="url(#radialGradient3442)" stroke="none"/>
      <path d="m5.3658975 4.077427h81.4881955l1.010184 23.901031h-.617334c-2.031178-8.253911-4.963004-13.394313-7.91311-16.107216-1.5336-1.408586-3.490912-2.627843-5.780499-3.175258-2.442676-.584015-5.453406-.750512-10.270207-.750516h-7.295775-3.928494v4.041237 68.008249c.000002 3.126654-.02548 6.242548.336728 9.121649.36221 2.879101.963326 5.896897 3.591766 8.082477 1.950085 1.62151 4.388503 2.31098 7.239654 2.77113h-34.1779c2.572241-.46432 5.493303-1.30406 7.744746-3.81031l.168364-.17319.112242-.23093c3.885007-5.561263 2.722718-11.79946 2.981663-15.458872v-.115464-.173195l-.056121-72.008249h-12c-4.624535 0-6.608615.128746-8.996615.695984-2.245754.533452-4.112989 1.593053-5.83662 3.002062-3.236194 2.649113-6.707414 7.770849-8.5865664 16.22268h-.3928494z" fill="none" filter="url(#filter3032)" opacity=".56" stroke="url(#linearGradient3444)"/>
      <path d="m90.487145.0570111-3.535534 4.1542519-1.856156-.265165z" fill="url(#linearGradient3446)" fill-rule="evenodd" filter="url(#filter3102)" stroke="none"/>
      <path d="m1.6184157.0340192-1.6184158 31.9659808h7.6886241l.336729-1.616495c1.620211-8.865674 4.911925-13.323265 7.567278-15.496907 1.541606-1.260214 2.506958-1.82056 4.321344-2.251547s4.526678-.635051 9.035537-.635051h7.015168l.03532 23.999999h20.000001v-23.999999h7.295775c4.708211 0 7.552777.200033 9.372265.635051s2.681715 1.003308 4.040737 2.251547c2.387107 2.19517 5.383475 6.717683 7.26587 15.554639l.336728 1.558763 7.688624.099999-1.373128-32.0659798z" fill="url(#radialGradient3448)" stroke="none"/>
      <path d="m5.2807766 4.122875-3.6239223-4.1542523 4.8613587 3.9774753z" fill="url(#linearGradient3450)" fill-rule="evenodd" filter="url(#filter3098)" stroke="none"/>
      <path d="m5.375 4.0625-1.1875 23.84375h.40625c1.879152-8.451831 5.326306-13.569637 8.5625-16.21875 1.723631-1.409009 3.597995-2.466548 5.84375-3 2.388-.567238 4.375465-.6875 9-.6875h12l.0063 34.59375c4.223425-.606961 8.189108-1.410961 12.05625-2.375v-28.21875-4.0625h3.93745 7.28125c4.816801.000004 7.838571.165985 10.28125.75 2.289587.547415 4.247651 1.778913 5.78125 3.1875 2.264701 2.082608 4.499776 5.620927 6.34375 10.875.675527-.750161 1.301403-1.50489 1.875-2.28125l-.71875-16.40625z" fill="url(#linearGradient3452)" opacity=".908" stroke="none"/>
      <path d="m86.5375 4.0375.6875 15.40625c-.5736.77636-1.19947 1.531089-1.875 2.28125-.82979-2.364333-1.73226-4.154601-2.6875-5.625 1.07235 1.801665 2.07801 3.997964 3 6.625.67553-.750161 1.3014-1.50489 1.875-2.28125l-.71875-16.40625zm-34.8125 35.15625c-3.7708.940023-7.53322 2.011109-11.64375 2.6125v.7625c4.22343-.606961 8.08911-1.410961 11.95625-2.375v-28.21875-4.0625zm-28.90625-31.125c-1.60781.116595-2.96225.310131-4.15625.59375-2.24575.533452-4.12012 1.590991-5.84375 3-3.23619 2.649113-6.68335 6.766919-8.5625004 15.21875h-.03125l-.0625 1h.40625c1.8791504-8.451831 5.3263104-13.569637 8.5625004-16.21875 1.72363-1.409009 3.598-2.466548 5.84375-3 1.194-.283619 2.51719-.477155 4.125-.59375-.08756.0058-.19531-.0062-.28125 0z" fill="url(#linearGradient3454)" opacity=".908" stroke="none"/>
      <path d="m5.0999996 4.0375-1.1875 23.84375h.0625l1.125-23.64375c26.9515964.409308 54.0474004.6302 81.4687504.1l.6875 16.16875c.01342-.01807.01788-.04441.03125-.0625l-.71875-16.40625z" fill="url(#linearGradient3456)" opacity=".908" stroke="none"/>
      <path d="m63.312501 99.8125 2.375-3.75 6.3125.8125z" fill="url(#linearGradient3458)" fill-rule="evenodd" filter="url(#filter3240)" stroke="none"/>
      <path d="m67.312501 107.8125 2.375-3.75 6.3125.8125z" fill="url(#linearGradient3460)" fill-rule="evenodd" filter="url(#filter3240)" stroke="none" transform="matrix(-1 0 0 1 96.0625 -7.8)"/>
    </g>
    <g transform="matrix(1.0732812 0 0 1.0732812 214.36187 141.85329)">
      <path d="m7.6184157 8.0340192-1.6184158 31.9659808h7.6886241l.336729-1.616495c1.620211-8.865674 4.911925-13.323265 7.567278-15.496907 1.541606-1.260214 2.506958-1.82056 4.321344-2.251547s4.526678-.635051 9.035537-.635051h7.015168l.03532 67.999999c-.313043 4.423918.547584 9.576952-2.122968 13.399761-2.636929 2.93537-8.073635 2.82925-12.08115 3.26828l-1.795883.1732v7.15876h52v-7.15876l-1.795883-.1732c-6.44286-.48116-9.93895-1.15418-11.734776-2.64742-2.453359-2.039992-2.469337-7.774431-2.469339-14.020621v-67.999999h7.295775c4.708211 0 7.552777.200033 9.372265.635051s2.681715 1.003308 4.040737 2.251547c2.387107 2.19517 5.383475 6.717683 7.26587 15.554639l.336728 1.558763 7.688624.099999-1.373128-32.0659798z" stroke="none"/>
      <path d="m7.6184157 8.0340192-1.6184158 31.9659808h7.6886241l.336729-1.616495c1.620211-8.865674 4.911925-13.323265 7.567278-15.496907 1.541606-1.260214 2.506958-1.82056 4.321344-2.251547s4.526678-.635051 9.035537-.635051h7.015168 20.035321 7.295775c4.708211 0 7.552777.200033 9.372265.635051s2.681715 1.003308 4.040737 2.251547c2.387107 2.19517 5.383475 6.717683 7.26587 15.554639l.336728 1.558763 7.688624.099999-1.373128-32.0659798z" fill="url(#radialGradient3328)" opacity=".74" stroke="none"/>
      <path d="m42 87.999999c-.313043 4.423918.547584 9.576952-2.122968 13.399761-2.636929 2.93537-8.073635 2.82925-12.08115 3.26828l-1.795883.1732v7.15876h52v-7.15876l-1.795883-.1732c-6.44286-.48116-9.93895-1.15418-11.734776-2.64742-2.453359-2.039992-2.469337-7.774431-2.469339-14.020621z" fill="url(#radialGradient3330)" opacity=".632" stroke="none"/>
      <path d="m11.365898 12.077427h81.488195l1.010184 23.901031h-.617334c-2.031178-8.253911-4.963004-13.394313-7.91311-16.107216-1.5336-1.408586-3.490912-2.627843-5.780499-3.175258-2.442676-.584015-5.453406-.750512-10.270207-.750516h-7.295775-3.928494v4.041237 68.008249c.000002 3.126654-.02548 6.242548.336728 9.121649.36221 2.879101.963326 5.896897 3.591766 8.082477 1.950085 1.62151 4.388503 2.31098 7.239654 2.77113h-34.1779c2.572241-.46432 5.493303-1.30406 7.744746-3.81031l.168364-.17319.112242-.23093c3.885007-5.561263 2.722718-11.79946 2.981663-15.458872v-.115464-.173195l-.056121-72.008249h-12c-4.624535 0-6.608615.128746-8.996615.695984-2.245754.533452-4.112989 1.593053-5.83662 3.002062-3.236194 2.649113-6.707414 7.770849-8.586566 16.22268h-.39285z" fill="url(#radialGradient3332)" stroke="none"/>
      <path d="m11.365898 12.077427h81.488195l1.010184 23.901031h-.617334c-2.031178-8.253911-4.963004-13.394313-7.91311-16.107216-1.5336-1.408586-3.490912-2.627843-5.780499-3.175258-2.442676-.584015-5.453406-.750512-10.270207-.750516h-7.295775-3.928494v4.041237 68.008249c.000002 3.126654-.02548 6.242548.336728 9.121649.36221 2.879101.963326 5.896897 3.591766 8.082477 1.950085 1.62151 4.388503 2.31098 7.239654 2.77113h-34.1779c2.572241-.46432 5.493303-1.30406 7.744746-3.81031l.168364-.17319.112242-.23093c3.885007-5.561263 2.722718-11.79946 2.981663-15.458872v-.115464-.173195l-.056121-72.008249h-12c-4.624535 0-6.608615.128746-8.996615.695984-2.245754.533452-4.112989 1.593053-5.83662 3.002062-3.236194 2.649113-6.707414 7.770849-8.586566 16.22268h-.39285z" fill="none" filter="url(#filter3032)" opacity=".56" stroke="url(#linearGradient3334)"/>
      <path d="m96.487145 8.0570111-3.535534 4.1542519-1.856156-.265165z" fill="url(#linearGradient3336)" fill-rule="evenodd" filter="url(#filter3102)" stroke="none"/>
      <path d="m11.280777 12.122875-3.6239227-4.1542523 4.8613587 3.9774753z" fill="url(#linearGradient3338)" fill-rule="evenodd" filter="url(#filter3098)" stroke="none"/>
      <path d="m11.375 12.0625-1.1875 23.84375h.40625c1.879152-8.451831 5.326306-13.569637 8.5625-16.21875 1.723631-1.409009 3.597995-2.466548 5.84375-3 2.388-.567238 4.375465-.6875 9-.6875h12l.0063 34.59375c4.223425-.606961 8.189108-1.410961 12.05625-2.375v-28.21875-4.0625h3.93745 7.28125c4.816801.000004 7.838571.165985 10.28125.75 2.289587.547415 4.247651 1.778913 5.78125 3.1875 2.264701 2.082608 4.499776 5.620927 6.34375 10.875.675527-.750161 1.301403-1.50489 1.875-2.28125l-.71875-16.40625z" fill="url(#linearGradient3340)" opacity=".908" stroke="none"/>
      <path d="m92.5375 12.0375.6875 15.40625c-.5736.77636-1.19947 1.531089-1.875 2.28125-.82979-2.364333-1.73226-4.154601-2.6875-5.625 1.07235 1.801665 2.07801 3.997964 3 6.625.67553-.750161 1.3014-1.50489 1.875-2.28125l-.71875-16.40625zm-34.8125 35.15625c-3.7708.940023-7.53322 2.011109-11.64375 2.6125v.7625c4.22343-.606961 8.08911-1.410961 11.95625-2.375v-28.21875-4.0625zm-28.90625-31.125c-1.60781.116595-2.96225.310131-4.15625.59375-2.24575.533452-4.12012 1.590991-5.84375 3-3.23619 2.649113-6.68335 6.766919-8.5625 15.21875h-.03125l-.0625 1h.40625c1.87915-8.451831 5.32631-13.569637 8.5625-16.21875 1.72363-1.409009 3.598-2.466548 5.84375-3 1.194-.283619 2.51719-.477155 4.125-.59375-.08756.0058-.19531-.0062-.28125 0z" fill="url(#linearGradient3342-3)" opacity=".908" stroke="none"/>
      <path d="m11.1 12.0375-1.1875004 23.84375h.0625l1.1250004-23.64375c26.951596.409308 54.0474.6302 81.46875.1l.6875 16.16875c.01342-.01807.01788-.04441.03125-.0625l-.71875-16.40625z" fill="url(#linearGradient3344-6)" opacity=".908" stroke="none"/>
      <path d="m69.312501 107.8125 2.375-3.75 6.3125.8125z" fill="url(#linearGradient3346)" fill-rule="evenodd" filter="url(#filter3240)" stroke="none"/>
      <path d="m67.312501 107.8125 2.375-3.75 6.3125.8125z" fill="url(#linearGradient3348)" fill-rule="evenodd" filter="url(#filter3240)" stroke="none" transform="matrix(-1 0 0 1 102.0625 .2)"/>
    </g>
  </g>
  <path d="m-39.811096 59.94691c0 4.46531-3.067448 5.978576-5.549678 7.662246-5.10854 3.46508-13.669156 1.756744-19.450326 1.837764-.081 5.78116 1.723142 12.231893-1.741938 17.340433-1.68367 2.48224-4.847792 5.659577-7.758062 5.659577 2.31803 0 4.74284-1.334761 7.58402-4.084811 9.14197-8.84873 14.36714-11.135349 22.673154-20.297529 1.91895-2.11675 4.24283-3.64188 4.24283-8.11768z" filter="url(#filter1164)" opacity=".4" transform="matrix(2 0 0 -2 296.61038 201.88787)"/>
  <path clip-path="url(#clipPath6093-7)" d="m114.4 82.502986c0 4.465301-4.99749 12.609952-7.47972 14.293625-5.10854 3.465079-12.739114 1.52536-18.520284 1.60638-.081 5.781159 1.96586 11.304599-1.49922 16.413139-1.68367 2.48224-9.79051 8.68687-12.70078 8.68687-2.091359 1.5337 3.488204 8.21101 6.734971 5.31989 9.501888-8.46107 35.131683-30.022704 43.350823-39.262889 2.04044-2.29392-4.90514-9.844666-9.88579-7.057015z" filter="url(#filter6171-8)" opacity=".277228" transform="matrix(2 0 0 -2 -7.01182 257.00001)"/>
  <path d="m216.98819 79.99405c0-8.93062-5.59498-12.81992-10.55944-16.18726-10.21708-6.93016-21.87823-6.65072-33.44057-6.81276-.162-11.56232.33172-19.009198-6.59844-29.226278-3.36734-4.96448-10.58102-10.773742-16.40156-10.773742 4.63606 0 8.88785 3.363424 15.16804 8.169622 19.0787 14.60084 26.40937 20.968606 43.34631 38.595058 3.95915 4.12033 8.48566 7.28376 8.48566 16.23536z" fill="url(#linearGradient3895-3)"/>
  <path d="m217.02569 78.57501c-.63286-7.7982-7.04582-11.80562-11.7-14.9625-10.21708-6.93016-22.67516-4.65046-34.2375-4.8125-.162-11.56232 1.70516-20.632918-5.225-30.849998-2.94642-4.34392-8.19891-9.3202-13.525-10.500002 3.96092.724602 7.76986 3.322782 12.5375 7.937502.67823.77706 1.14859 1.3579 2.2125 3 6.93016 10.21708 5.84737 16.931438 6.00937 28.493758 11.56234.162 23.43605-.42392 33.65313 6.50624.93084.63138 3.18798 2.3755 4.0125 3.2 3.07258 3.07258 5.80342 5.22684 6.2625 11.9875zm-64.6875-61.125c-.31532-.0698-.62688-.0828-.9375-.125.31398.0338.62088.067.9375.125z" fill="#fff"/>
</svg>
