<svg height="256" width="256" xmlns="http://www.w3.org/2000/svg" xmlns:xlink="http://www.w3.org/1999/xlink">
  <defs>
    <linearGradient id="linearGradient3426">
      <stop offset="0" stop-color="#555"/>
      <stop offset="1" stop-color="#555" stop-opacity="0"/>
    </linearGradient>
    <linearGradient id="linearGradient7555">
      <stop offset="0" stop-color="#fff"/>
      <stop offset="1" stop-color="#fff" stop-opacity="0"/>
    </linearGradient>
    <clipPath id="clipPath16814-3">
      <path d="m12 28v80h104v-80z"/>
    </clipPath>
    <radialGradient id="radialGradient21667-7" cx="96.675285" cy="93.389153" gradientTransform="matrix(1.9592408 0 0 .7057335 -92.63189 3.684153)" gradientUnits="userSpaceOnUse" r="63.998783">
      <stop offset="0" stop-color="#ff7e00"/>
      <stop offset="1" stop-color="#ff007b"/>
    </radialGradient>
    <filter id="filter3336-2" height="1.546667" width="1.546667" x="-.273333" y="-.273333">
      <feGaussianBlur stdDeviation="3.5813918"/>
    </filter>
    <radialGradient id="radialGradient21675-1" cx="50.269897" cy="47.169552" gradientUnits="userSpaceOnUse" r="15.723184">
      <stop offset="0" stop-color="#fff8de"/>
      <stop offset="1" stop-color="#ff0"/>
    </radialGradient>
    <filter id="filter3410-0" height="1.48" width="1.48" x="-.24" y="-.24">
      <feGaussianBlur stdDeviation="3.1446367"/>
    </filter>
    <filter id="filter7623-3" height="1.604646" width="1.604646" x="-.302323" y="-.302323">
      <feGaussianBlur stdDeviation="3.9612318"/>
    </filter>
    <filter id="filter7585-0" height="1.983171" width="1.071516" x="-.035758" y="-.491585">
      <feGaussianBlur stdDeviation="3.8156296"/>
    </filter>
    <filter id="filter1902" color-interpolation-filters="sRGB" height="2.223251" width="1.04996" x="-.02498" y="-.611626">
      <feGaussianBlur stdDeviation=".46229847"/>
    </filter>
    <linearGradient id="linearGradient2447-2" gradientTransform="matrix(.50664076 0 0 .35125016 -58.339395 -48.250919)" gradientUnits="userSpaceOnUse" x1="73.10424" x2="54.405266" y1="112.78188" y2="10.968399">
      <stop offset="0" stop-color="#fff"/>
      <stop offset="1" stop-color="#e0e0e0"/>
    </linearGradient>
    <linearGradient id="linearGradient1643" gradientUnits="userSpaceOnUse" x1="-39.21118081472" x2="-30.22843034062" y1="-43.33457525442" y2="-7.05094182905">
      <stop offset="0" stop-color="#999"/>
      <stop offset="1" stop-color="#c1c1c1"/>
    </linearGradient>
    <linearGradient id="linearGradient2471" gradientTransform="matrix(.4103611 0 0 .4330773 11.197909 27.054412)" gradientUnits="userSpaceOnUse" x1="190.0625" x2="193" y1="187.73239" y2="122.8568">
      <stop offset="0" stop-color="#323232"/>
      <stop offset="1" stop-color="#101010"/>
    </linearGradient>
    <linearGradient id="linearGradient2473" gradientTransform="matrix(.2763587 0 0 .09333054 27.98082 75.411416)" gradientUnits="userSpaceOnUse" x1="82.802177" x2="83.742836" xlink:href="#linearGradient3426" y1="154.27817" y2="167.16171"/>
    <linearGradient id="linearGradient2475" gradientTransform="matrix(.2763587 0 0 .09333054 26.78551 85.855903)" gradientUnits="userSpaceOnUse" x1="82.802177" x2="83.742836" xlink:href="#linearGradient3426" y1="154.27817" y2="167.16171"/>
    <linearGradient id="linearGradient2477" gradientTransform="matrix(.2763587 0 0 .09333054 36.60848 73.09434)" gradientUnits="userSpaceOnUse" x1="82.802177" x2="83.742836" xlink:href="#linearGradient3426" y1="154.27817" y2="167.16171"/>
    <linearGradient id="linearGradient2479" gradientTransform="matrix(.2763587 0 0 .09333054 -1.99325 88.072721)" gradientUnits="userSpaceOnUse" x1="82.802177" x2="83.742836" xlink:href="#linearGradient3426" y1="154.27817" y2="167.16171"/>
    <linearGradient id="linearGradient2481" gradientTransform="matrix(.2763587 0 0 .09333054 47.83175 86.843073)" gradientUnits="userSpaceOnUse" x1="82.802177" x2="83.742836" xlink:href="#linearGradient3426" y1="154.27817" y2="167.16171"/>
    <linearGradient id="linearGradient2483" gradientTransform="matrix(.2763587 0 0 .09333054 57.65472 74.081509)" gradientUnits="userSpaceOnUse" x1="82.802177" x2="83.742836" xlink:href="#linearGradient3426" y1="154.27817" y2="167.16171"/>
    <linearGradient id="linearGradient2485" gradientTransform="matrix(.2763587 0 0 .09333054 48.99633 73.751418)" gradientUnits="userSpaceOnUse" x1="82.802177" x2="83.742836" xlink:href="#linearGradient3426" y1="154.27817" y2="167.16171"/>
    <linearGradient id="linearGradient2487" gradientTransform="matrix(.2763587 0 0 .09333054 37.77434 80.971102)" gradientUnits="userSpaceOnUse" x1="82.802177" x2="83.742836" xlink:href="#linearGradient3426" y1="154.27817" y2="167.16171"/>
    <linearGradient id="linearGradient2489" gradientTransform="matrix(.2763587 0 0 .09333054 36.15406 73.094106)" gradientUnits="userSpaceOnUse" x1="82.802177" x2="83.742836" xlink:href="#linearGradient3426" y1="154.27817" y2="167.16171"/>
    <linearGradient id="linearGradient2491" gradientTransform="matrix(.2763587 0 0 .09333054 75.64961 74.00068)" gradientUnits="userSpaceOnUse" x1="82.802177" x2="83.742836" xlink:href="#linearGradient3426" y1="154.27817" y2="167.16171"/>
    <linearGradient id="linearGradient2493" gradientTransform="matrix(.2763587 0 0 .09333054 70.848586 84.534846)" gradientUnits="userSpaceOnUse" x1="82.802177" x2="83.742836" xlink:href="#linearGradient3426" y1="154.27817" y2="167.16171"/>
    <linearGradient id="linearGradient2495" gradientTransform="matrix(.2763587 0 0 .09333054 65.91592 80.588816)" gradientUnits="userSpaceOnUse" x1="82.802177" x2="83.742836" xlink:href="#linearGradient3426" y1="154.27817" y2="167.16171"/>
    <linearGradient id="linearGradient2497" gradientTransform="matrix(.2763587 0 0 .09333054 85.24867 75.726787)" gradientUnits="userSpaceOnUse" x1="82.802177" x2="83.742836" xlink:href="#linearGradient3426" y1="154.27817" y2="167.16171"/>
    <linearGradient id="linearGradient2499" gradientTransform="matrix(.2763587 0 0 .09333054 76.59028 82.063366)" gradientUnits="userSpaceOnUse" x1="82.802177" x2="83.742836" xlink:href="#linearGradient3426" y1="154.27817" y2="167.16171"/>
    <linearGradient id="linearGradient2501" gradientTransform="matrix(.2763587 0 0 .09333054 72.5902 67.336322)" gradientUnits="userSpaceOnUse" x1="82.802177" x2="83.742836" xlink:href="#linearGradient3426" y1="154.27817" y2="167.16171"/>
    <linearGradient id="linearGradient2503" gradientTransform="matrix(.2763587 0 0 .09333054 60.376438 66.281208)" gradientUnits="userSpaceOnUse" x1="82.802177" x2="83.742836" xlink:href="#linearGradient3426" y1="154.27817" y2="167.16171"/>
    <linearGradient id="linearGradient2505" gradientTransform="matrix(.2763587 0 0 .09333054 48.051227 68.246694)" gradientUnits="userSpaceOnUse" x1="82.802177" x2="83.742836" xlink:href="#linearGradient3426" y1="154.27817" y2="167.16171"/>
    <linearGradient id="linearGradient2507" gradientTransform="matrix(.2763587 0 0 .09333054 41.169166 64.717098)" gradientUnits="userSpaceOnUse" x1="82.802177" x2="83.742836" xlink:href="#linearGradient3426" y1="154.27817" y2="167.16171"/>
    <linearGradient id="linearGradient2509" gradientTransform="matrix(.2763587 0 0 .09333054 24.510621 64.460362)" gradientUnits="userSpaceOnUse" x1="82.802177" x2="83.742836" xlink:href="#linearGradient3426" y1="154.27817" y2="167.16171"/>
    <linearGradient id="linearGradient2511" gradientTransform="matrix(.2763587 0 0 .09333054 9.575134 64.53888)" gradientUnits="userSpaceOnUse" x1="82.802177" x2="83.742836" xlink:href="#linearGradient3426" y1="154.27817" y2="167.16171"/>
    <linearGradient id="linearGradient2513" gradientTransform="matrix(.2763587 0 0 .09333054 .916743 64.208793)" gradientUnits="userSpaceOnUse" x1="82.802177" x2="83.742836" xlink:href="#linearGradient3426" y1="154.27817" y2="167.16171"/>
    <linearGradient id="linearGradient2515" gradientTransform="matrix(.2763587 0 0 .09333054 13.575211 63.071818)" gradientUnits="userSpaceOnUse" x1="82.802177" x2="83.742836" xlink:href="#linearGradient3426" y1="154.27817" y2="167.16171"/>
    <linearGradient id="linearGradient2517" gradientTransform="matrix(.2763587 0 0 .09333054 -.916668 73.926191)" gradientUnits="userSpaceOnUse" x1="82.802177" x2="83.742836" xlink:href="#linearGradient3426" y1="154.27817" y2="167.16171"/>
    <linearGradient id="linearGradient2519" gradientTransform="matrix(.2763587 0 0 .09333054 33.739332 68.818796)" gradientUnits="userSpaceOnUse" x1="82.802177" x2="83.742836" xlink:href="#linearGradient3426" y1="154.27817" y2="167.16171"/>
    <linearGradient id="linearGradient2521" gradientTransform="matrix(.2763587 0 0 .09333054 51.080944 81.822041)" gradientUnits="userSpaceOnUse" x1="82.802177" x2="83.742836" xlink:href="#linearGradient3426" y1="154.27817" y2="167.16171"/>
    <linearGradient id="linearGradient2523" gradientTransform="matrix(.2763587 0 0 .09333054 37.739409 85.12951)" gradientUnits="userSpaceOnUse" x1="82.802177" x2="83.742836" xlink:href="#linearGradient3426" y1="154.27817" y2="167.16171"/>
    <linearGradient id="linearGradient2525" gradientTransform="matrix(.2763587 0 0 .09333054 60.08087 69.317219)" gradientUnits="userSpaceOnUse" x1="82.802177" x2="83.742836" xlink:href="#linearGradient3426" y1="154.27817" y2="167.16171"/>
    <linearGradient id="linearGradient2527" gradientTransform="matrix(.2763587 0 0 .09333054 86.5355 64.058986)" gradientUnits="userSpaceOnUse" x1="82.802177" x2="83.742836" xlink:href="#linearGradient3426" y1="154.27817" y2="167.16171"/>
    <linearGradient id="linearGradient2529" gradientTransform="matrix(.2763587 0 0 .09333054 69.876953 63.802249)" gradientUnits="userSpaceOnUse" x1="82.802177" x2="83.742836" xlink:href="#linearGradient3426" y1="154.27817" y2="167.16171"/>
    <linearGradient id="linearGradient2531" gradientTransform="matrix(.2763587 0 0 .09333054 79.230835 70.797971)" gradientUnits="userSpaceOnUse" x1="82.802177" x2="83.742836" xlink:href="#linearGradient3426" y1="154.27817" y2="167.16171"/>
    <linearGradient id="linearGradient2533" gradientTransform="matrix(.2763587 0 0 .09333054 11.32227 75.154679)" gradientUnits="userSpaceOnUse" x1="82.802177" x2="83.742836" xlink:href="#linearGradient3426" y1="154.27817" y2="167.16171"/>
    <linearGradient id="linearGradient2537" gradientTransform="matrix(.2763587 0 0 .09333054 52.575217 78.627372)" gradientUnits="userSpaceOnUse" x1="82.802177" x2="83.742836" xlink:href="#linearGradient3426" y1="154.27817" y2="167.16171"/>
    <linearGradient id="linearGradient2539" gradientTransform="matrix(.2763587 0 0 .09333054 1.580862 78.206107)" gradientUnits="userSpaceOnUse" x1="82.802177" x2="83.742836" xlink:href="#linearGradient3426" y1="154.27817" y2="167.16171"/>
    <linearGradient id="linearGradient2541" gradientTransform="matrix(.4103611 0 0 .4330773 11.197909 27.054412)" gradientUnits="userSpaceOnUse" x1="252.7813" x2="3.973908" y1="158.64418" y2="145.26782">
      <stop offset="0" stop-color="#181818" stop-opacity=".000065"/>
      <stop offset=".74053472" stop-color="#d6c220" stop-opacity=".637661"/>
      <stop offset="1" stop-color="#1f1f1f" stop-opacity=".000041"/>
    </linearGradient>
    <linearGradient id="linearGradient2543" gradientTransform="matrix(.4103611 0 0 .2638169 11.197909 46.514122)" gradientUnits="userSpaceOnUse" x1="121.88446" x2="121.88446" y1="114.96759" y2="124.25063">
      <stop offset="0" stop-color="#ff7e00"/>
      <stop offset="1" stop-color="#ff7e00" stop-opacity="0"/>
    </linearGradient>
    <linearGradient id="linearGradient2545" gradientTransform="matrix(.4103611 0 0 .3192147 11.197909 29.066876)" gradientUnits="userSpaceOnUse" x1="150.04311" x2="150.04311" xlink:href="#linearGradient7555" y1=".059548" y2="51.622837"/>
    <linearGradient id="linearGradient2547" gradientTransform="matrix(.6298032 0 0 .6007775 -44.212917 -48.145246)" gradientUnits="userSpaceOnUse" x1="126.03124" x2="126.03124" y1="40.936672" y2="-5.271013">
      <stop offset="0" stop-color="#3383e6" stop-opacity="0"/>
      <stop offset="1" stop-color="#23fff0"/>
    </linearGradient>
    <linearGradient id="linearGradient2549" gradientTransform="matrix(1.2462121 0 0 1.2230467 -46.531215 -73.217086)" gradientUnits="userSpaceOnUse" x1="48" x2="74.222046" xlink:href="#linearGradient7555" y1="38.75" y2="70.519157"/>
    <linearGradient id="linearGradient2551" gradientTransform="matrix(1.2727273 0 0 -1.2057416 -354.92894 -63.963001)" gradientUnits="userSpaceOnUse" x1="314.05814" x2="314.05814" y1="11.862287" y2="-113.61256">
      <stop offset="0"/>
      <stop offset="1" stop-opacity="0"/>
    </linearGradient>
    <radialGradient id="radialGradient1169" cx="416.50659" cy="115.09413" gradientTransform="matrix(.77722146 -.62922715 .98712367 1.2192953 -20.823416 242.18392)" gradientUnits="userSpaceOnUse" r="39.849969">
      <stop offset="0" stop-color="#36adff"/>
      <stop offset="1" stop-color="#0555ce"/>
    </radialGradient>
    <radialGradient id="radialGradient9644" cx="462.60623" cy="167.49516" gradientTransform="matrix(.42570691 -.46822802 .87874362 .79894243 118.48626 249.215)" gradientUnits="userSpaceOnUse" r="45.204004">
      <stop offset="0" stop-color="#8ef9fb"/>
      <stop offset="1" stop-color="#0aa3df"/>
    </radialGradient>
    <radialGradient id="radialGradient18967" cx="492.20673" cy="195.64528" gradientTransform="matrix(.31834174 -.40648516 .57490669 .45024226 223.039 301.22878)" gradientUnits="userSpaceOnUse" r="42.809718">
      <stop offset="0" stop-color="#0fe810"/>
      <stop offset="1" stop-color="#23aa32"/>
    </radialGradient>
    <radialGradient id="radialGradient27539" cx="501.42966" cy="206.13887" gradientTransform="matrix(.41871302 -.5635963 .73440234 .54561016 150.66567 372.66124)" gradientUnits="userSpaceOnUse" r="38.489437">
      <stop offset="0" stop-color="#ffff80"/>
      <stop offset="1" stop-color="#ffea00"/>
    </radialGradient>
    <linearGradient id="linearGradient27812" gradientUnits="userSpaceOnUse" x1="360.44681" x2="560.52002" y1="43.319744" y2="216.49767">
      <stop offset="0" stop-color="#0072c9"/>
      <stop offset="1" stop-color="#018535"/>
    </linearGradient>
    <linearGradient id="linearGradient31293" gradientUnits="userSpaceOnUse" x1="382.17581" x2="579.07019" y1="34.083302" y2="208.32503">
      <stop offset="0" stop-color="#0092c2"/>
      <stop offset="1" stop-color="#03c97d"/>
    </linearGradient>
    <linearGradient id="linearGradient51741" gradientUnits="userSpaceOnUse" x1="401.55634" x2="464.79623" y1="26.958527" y2="86.689339">
      <stop offset="0" stop-color="#002f76"/>
      <stop offset="1" stop-color="#1c77fc"/>
    </linearGradient>
    <linearGradient id="linearGradient58373" gradientUnits="userSpaceOnUse" x1="444.91693" x2="490.16089" y1="89.406952" y2="130.14406">
      <stop offset="0" stop-color="#7cdef1"/>
      <stop offset="1" stop-color="#50e699"/>
    </linearGradient>
    <linearGradient id="linearGradient63418" gradientUnits="userSpaceOnUse" x1="483.81393" x2="520.56409" y1="126.34454" y2="157.03079">
      <stop offset="0" stop-color="#0de823"/>
      <stop offset="1" stop-color="#92f33b"/>
    </linearGradient>
    <linearGradient id="linearGradient66945" gradientUnits="userSpaceOnUse" x1="519.29321" x2="555.24274" y1="141.65642" y2="168.86615">
      <stop offset="0" stop-color="#ffd267"/>
      <stop offset="1" stop-color="#ffe599"/>
    </linearGradient>
    <linearGradient id="linearGradient68963" gradientUnits="userSpaceOnUse" x1="369.73151" x2="572.14124" y1="34.80685" y2="207.63586">
      <stop offset="0" stop-color="#fff" stop-opacity=".652587"/>
      <stop offset="1" stop-color="#fff"/>
    </linearGradient>
    <filter id="filter68965" color-interpolation-filters="sRGB" height="1.035219" width="1.029011" x="-.015391" y="-.016909">
      <feGaussianBlur stdDeviation="1.1606214"/>
    </filter>
    <filter id="filter69578" color-interpolation-filters="sRGB" height="1.276557" width="1.224594" x="-.118929" y="-.132919">
      <feGaussianBlur stdDeviation="9.1224313"/>
    </filter>
    <clipPath id="clipPath69606">
      <path d="m354.90234 37.5c-2.50883 2.897542-2.05549 10.420874.70704 20.386719 10.04615 16.990966 20.87973 34.299949 33.09374 51.244141 4.22125.86922 7.54053 1.00056 11.56055 1.70508-3.90467.0936-4.75835.62885-9.95703.54492 17.095 23.42169 36.96148 46.01454 61.38867 65.81641 4.39929.53686 8.72792.8064 13.08985 1.20117-3.51748.27719-5.89055 1.01354-10.10547 1.21875 12.72471 10.04113 26.69519 19.30208 42.0957 27.56054 2.53016-1.51153 4.76736-2.38333 6-2.15039 3.67595.69468 4.01738 5.15233 3.99219 7.26563.0189.009.0377.0181.0566.0273.21606-2.57407 1.31629-8.4341 6.93359-10.125 12.64697 5.99129 25.98275 10.91406 40.01563 14.39258 9.01409 2.23445 11.37367.20508 15.33984-.72461-18.27599-3.41874-35.41475-9.17903-51.51172-16.6289 2.25517-4.81353 6.30399-7.50705 11.4375-8.91602-1.5318-.80704-3.05855-1.62026-4.57226-2.44727-2.67391.99458-5.62967 2.72279-8.96875 5.44336 2.01679-2.88551 3.16546-5.6787 3.68554-8.40429-2.18104-1.24169-4.34443-2.50109-6.48828-3.78321-1.61787 3.23691-3.93222 5.88572-7.39843 7.56055.59478-3.41404 1.59201-7.09419 2.22656-10.69922-21.15317-13.14415-40.50332-28.22142-58.46875-44.57422-1.25451 1.38265-2.54885 2.50902-3.76563 3.72266 1.02211-1.49155 1.85807-3.11619 2.54492-4.83399-30.29633-27.76984-56.6644-59.137358-81.16597-90.888628-3.8357-1.646413-7.7451-3.000213-11.76563-3.914062z"/>
    </clipPath>
    <filter id="filter73798" color-interpolation-filters="sRGB" height="1.099641" width="1.084635" x="-.042318" y="-.049821">
      <feGaussianBlur stdDeviation="3.8062055"/>
    </filter>
  </defs>
  <g transform="matrix(5 0 0 5 8.000006 -.326695)">
    <rect fill="#000305" filter="url(#filter1902)" height="1.814045" opacity=".6" stroke-linejoin="round" stroke-width="14" transform="matrix(1.0097917 0 0 1.0097917 -.235002 1.187261)" width="44.415802" x="1.7921" y="41.244648"/>
    <rect fill="url(#linearGradient2447-2)" height="35.922016" stroke="url(#linearGradient1643)" stroke-linecap="round" stroke-opacity=".96863" transform="matrix(-.9999985 .0017332 -.00096053 -.99999954 0 0)" width="44.966068" x="-46.458378" y="-43.667912"/>
  </g>
  <g transform="matrix(2.0696194 0 0 2.127015 61.815785 117.86634)">
    <g clip-path="url(#clipPath16814-3)" transform="matrix(.9230769 0 0 .9 -27.096775 -56.435732)">
      <rect fill="url(#radialGradient21667-7)" height="40.601517" width="105.02679" x="11.223557" y="27.0802"/>
      <rect fill="url(#linearGradient2471)" height="40.601517" width="105.02679" x="11.223557" y="67.755539"/>
      <circle cx="50.269897" cy="47.169552" fill="#ff7e00" filter="url(#filter3336-2)" opacity=".627778" r="15.723184" transform="matrix(2.7604692 0 0 .9533723 -78.809706 15.60179)"/>
      <circle cx="50.269897" cy="47.169552" fill="url(#radialGradient21675-1)" filter="url(#filter3410-0)" r="15.723184" transform="matrix(.709197 0 0 .7484557 5.809368 21.718126)"/>
      <circle cx="50.269897" cy="47.169552" fill="#ff7e00" filter="url(#filter7623-3)" opacity=".627778" r="15.723184" transform="matrix(3.060609 0 0 .2647755 -90.409629 32.491805)"/>
      <path d="m11.179582 64.099911 8.432228-2.154496 4.260493-.09367 2.574046-1.873476 4.970576 2.248171 4.793056-1.686128 2.574046 2.810212 11.006277 3.372256 1.775205-.936737 11.538832 1.217758 1.331404-.655716 1.331409 1.030411 26.273041-6.088794 2.041485.562043 11.1838-.281022 2.84032 1.592454 5.41438-1.49878 2.75157.281021v12.833303h-105.092168z" fill="#3b2611"/>
      <path d="m11.715254 72.275512 6.984155-3.290561 7.889509 2.60503 19.529768-.137108 5.173448-4.113201 2.716061 3.016347 19.012419-6.169799 9.95889 1.782383 4.268096-1.919492 2.328052 2.193706 11.510918 1.371068 4.26809 1.371066 10.34691.137108v6.444013h-104.503661z" fill="#131617"/>
      <path d="m11.512042 74.085325 4.869068-3.619621 2.356001 1.316226 6.125601.987169 5.968535-2.138865 16.177871 1.151696 12.565334 2.467921h14.450135l5.968534-1.645282 3.769602.16453 6.439735 1.645278 15.706672-1.809808 6.5968-2.303392 2.04187-1.645282 1.41359.987169v7.239234h-104.763481z"/>
      <path d="m42.55749 91.012714c3.65907-.476381 7.85922-.724343 10.499-1.631008 3.6819.898016 8.20709 1.084057 12.38881 1.560092-4.1996-.177285-8.3992-.91838-12.59879-.531854-3.2097-.09622-6.82754.358887-10.28902.60277z" fill="url(#linearGradient2473)" opacity=".533333"/>
      <path d="m41.36219 101.4572c3.65907-.47637 7.85921-.72434 10.49899-1.631007 3.6819.898017 8.2071 1.084057 12.38881 1.560097-4.19959-.17728-8.39919-.91838-12.59879-.53185-3.2097-.0962-6.82754.35888-10.28901.60276z" fill="url(#linearGradient2475)" opacity=".533333"/>
      <path d="m51.18516 88.695638c3.65907-.476376 7.85921-.724343 10.49899-1.631008 3.68191.89802 8.2071 1.084057 12.38881 1.560092-4.19959-.177281-8.39919-.918375-12.59879-.531845-3.20969-.09623-6.82754.358882-10.28901.602761z" fill="url(#linearGradient2477)" opacity=".533333"/>
      <path d="m12.583429 103.67401c3.65907-.47637 7.85922-.72434 10.49899-1.631 3.68191.89802 8.2071 1.08406 12.38882 1.56009-4.1996-.17728-8.3992-.91838-12.5988-.53185-3.20969-.0962-6.82754.35888-10.28901.60276z" fill="url(#linearGradient2479)" opacity=".533333"/>
      <path d="m62.40842 102.44437c3.65907-.47638 7.85922-.72434 10.499-1.63101 3.6819.89802 8.2071 1.08406 12.38881 1.56009-4.1996-.17728-8.39919-.91837-12.59879-.53184-3.2097-.0962-6.82755.35888-10.28902.60276z" fill="url(#linearGradient2481)" opacity=".533333"/>
      <path d="m72.23139 89.682807c3.65908-.476376 7.85922-.724343 10.499-1.631008 3.68191.898021 8.2071 1.084058 12.38881 1.560092-4.1996-.17728-8.39919-.918375-12.59879-.531845-3.2097-.09623-6.82754.358883-10.28902.602761z" fill="url(#linearGradient2483)" opacity=".533333"/>
      <path d="m63.573 89.352716c3.65907-.476377 7.85922-.724344 10.499-1.631008 3.6819.89802 8.20709 1.084062 12.38881 1.560096-4.1996-.177285-8.39919-.91838-12.59879-.531849-3.2097-.09623-6.82755.358882-10.28902.602761z" fill="url(#linearGradient2485)" opacity=".533333"/>
      <path d="m52.35102 96.5724c3.65907-.476376 7.85922-.724344 10.49899-1.631008 3.68191.89802 8.20711 1.084057 12.38882 1.560092-4.1996-.177281-8.3992-.918376-12.59879-.53185-3.2097-.09623-6.82755.358887-10.28902.602766z" fill="url(#linearGradient2487)" opacity=".533333"/>
      <path d="m50.73074 88.6954c3.65906-.476377 7.85921-.724339 10.49899-1.631004 3.68191.89802 8.2071 1.084057 12.38882 1.560092-4.1996-.17728-8.3992-.91838-12.5988-.53185-3.2097-.09623-6.82754.358883-10.28901.602762z" fill="url(#linearGradient2489)" opacity=".533333"/>
      <path d="m90.22629 89.601973c3.65908-.476376 7.85922-.724339 10.499-1.631008 3.6819.898025 8.2071 1.084062 12.38881 1.560096-4.19959-.17728-8.39919-.918379-12.59879-.531849-3.2097-.09623-6.82754.358883-10.28902.602761z" fill="url(#linearGradient2491)" opacity=".533333"/>
      <path d="m85.425266 100.13614c3.65907-.476377 7.85921-.72434 10.49899-1.631009 3.681907.898025 8.207094 1.084062 12.388814 1.560099-4.1996-.177283-8.399197-.918382-12.598794-.531852-3.2097-.09623-6.82754.358883-10.28901.602762z" fill="url(#linearGradient2493)" opacity=".533333"/>
      <path d="m80.4926 96.190114c3.65906-.476376 7.85921-.724344 10.49899-1.631008 3.68191.89802 8.2071 1.084057 12.38881 1.560092-4.19959-.177281-8.39919-.918376-12.59879-.53185-3.2097-.09623-6.82755.358887-10.28901.602766z" fill="url(#linearGradient2495)" opacity=".533333"/>
      <path d="m99.82535 91.328085c3.65908-.476376 7.85922-.724343 10.499-1.631008 3.6819.898021 8.20709 1.084058 12.38881 1.560092-4.1996-.17728-8.39919-.918375-12.59879-.531845-3.2097-.09623-6.82754.358883-10.28902.602761z" fill="url(#linearGradient2497)" opacity=".533333"/>
      <path d="m91.16695 97.66466c3.65908-.476377 7.85923-.724344 10.49901-1.631008 3.6819.89802 8.20709 1.084062 12.38881 1.560096-4.1996-.177285-8.3992-.91838-12.5988-.531849-3.2097-.09624-6.82754.358882-10.28902.602761z" fill="url(#linearGradient2499)" opacity=".533333"/>
      <path d="m87.16688 82.937611c3.65907-.476376 7.85922-.724343 10.499-1.631008 3.6819.898021 8.2071 1.084058 12.38881 1.560096-4.1996-.177284-8.39919-.918379-12.59879-.531849-3.2097-.09623-6.82755.358883-10.28902.602761z" fill="url(#linearGradient2501)" opacity=".533333"/>
      <path d="m74.953121 81.882503c3.659067-.47638 7.859215-.724343 10.498994-1.631008 3.681904.898016 8.207095 1.084058 12.388808 1.560092-4.199597-.177285-8.399191-.918379-12.59879-.531854-3.209696-.09623-6.827538.358887-10.289012.60277z" fill="url(#linearGradient2503)" opacity=".533333"/>
      <path d="m62.627903 83.847984c3.659067-.476376 7.85922-.724343 10.498999-1.631008 3.681903.89802 8.207099 1.084057 12.38881 1.560096-4.199595-.177285-8.399193-.918379-12.598792-.531849-3.209701-.09623-6.827543.358882-10.289017.602761z" fill="url(#linearGradient2505)" opacity=".533333"/>
      <path d="m55.745848 80.318394c3.659067-.47638 7.859216-.724343 10.498995-1.631008 3.681903.898016 8.207094 1.084058 12.388809 1.560092-4.199598-.177285-8.399193-.91838-12.598791-.531854-3.209697-.09623-6.827539.358887-10.289013.60277z" fill="url(#linearGradient2507)" opacity=".533333"/>
      <path d="m39.087298 80.061653c3.659066-.476376 7.859219-.724343 10.498998-1.631008 3.681903.89802 8.207098 1.084057 12.388809 1.560096-4.199594-.177285-8.399193-.918379-12.598791-.531849-3.209701-.09623-6.827542.358882-10.289016.602761z" fill="url(#linearGradient2509)" opacity=".533333"/>
      <path d="m24.151813 80.140179c3.659074-.476377 7.859218-.724344 10.498997-1.631008 3.681904.89802 8.207095 1.084057 12.38881 1.560091-4.199598-.17728-8.399193-.918375-12.598791-.531845-3.209697-.09623-6.827539.358883-10.289016.602762z" fill="url(#linearGradient2511)" opacity=".533333"/>
      <path d="m15.493415 79.810087c3.659075-.476376 7.859224-.724343 10.499002-1.631008 3.681903.89802 8.207095 1.084062 12.38881 1.560096-4.199595-.177285-8.399193-.918379-12.598792-.531849-3.2097-.09623-6.827546.358882-10.28902.602761z" fill="url(#linearGradient2513)" opacity=".533333"/>
      <path d="m28.151893 78.673112c3.659067-.476381 7.859215-.724344 10.498994-1.631008 3.681904.898016 8.207095 1.084057 12.38881 1.560092-4.199598-.177285-8.399193-.91838-12.598792-.531854-3.209696-.09622-6.827538.358887-10.289012.60277z" fill="url(#linearGradient2515)" opacity=".533333"/>
      <path d="m13.66001 89.527481c3.659066-.476377 7.859219-.724344 10.498998-1.631008 3.681902.89802 8.207098 1.084057 12.388809 1.560096-4.199595-.177285-8.399193-.91838-12.598791-.53185-3.209701-.09623-6.827543.358883-10.289016.602762z" fill="url(#linearGradient2517)" opacity=".533333"/>
      <path d="m48.316011 84.420097c3.659074-.476377 7.859219-.724344 10.498998-1.631009 3.681903.898021 8.207094 1.084058 12.38881 1.560092-4.199599-.17728-8.399194-.918375-12.598792-.531845-3.209697-.09623-6.827539.358883-10.289016.602762z" fill="url(#linearGradient2519)" opacity=".533333"/>
      <path d="m65.657617 97.423337c3.659075-.476376 7.859223-.724343 10.499002-1.631008 3.681904.89802 8.207095 1.084062 12.38881 1.560096-4.199594-.177285-8.399193-.918379-12.598792-.531849-3.2097-.09623-6.827546.358882-10.28902.602761z" fill="url(#linearGradient2521)" opacity=".533333"/>
      <path d="m52.316091 100.73081c3.659067-.47638 7.859215-.72435 10.498995-1.631012 3.681903.898016 8.207094 1.084062 12.388809 1.560092-4.199598-.17728-8.399193-.91838-12.598791-.53185-3.209697-.0962-6.827539.35888-10.289013.60277z" fill="url(#linearGradient2523)" opacity=".533333"/>
      <path d="m74.657547 84.918511c3.659066-.476377 7.859219-.724344 10.498998-1.631008 3.681902.89802 8.207098 1.084057 12.388809 1.560096-4.199594-.177285-8.399193-.91838-12.598791-.53185-3.209701-.09623-6.827543.358883-10.289016.602762z" fill="url(#linearGradient2525)" opacity=".533333"/>
      <path d="m101.11218 79.660281c3.65907-.47638 7.85922-.724343 10.499-1.631008 3.6819.898016 8.20709 1.084058 12.38881 1.560092-4.1996-.177285-8.3992-.918379-12.59879-.531854-3.2097-.09623-6.82754.358887-10.28902.60277z" fill="url(#linearGradient2527)" opacity=".533333"/>
      <path d="m84.453632 79.40354c3.659066-.476376 7.859219-.724343 10.498998-1.631008 3.681903.89802 8.2071 1.084057 12.38881 1.560096-4.19959-.177285-8.399193-.918379-12.598792-.531849-3.209701-.09623-6.827543.358882-10.289016.602761z" fill="url(#linearGradient2529)" opacity=".533333"/>
      <path d="m93.807513 86.399263c3.659067-.476377 7.859217-.724344 10.498997-1.631009 3.68191.898021 8.2071 1.084058 12.38881 1.560096-4.19959-.177284-8.39919-.918379-12.59879-.531849-3.2097-.09623-6.827543.358883-10.289017.602762z" fill="url(#linearGradient2531)" opacity=".533333"/>
      <path d="m25.89895 90.755973c3.65907-.476376 7.85921-.724344 10.49899-1.631008 3.6819.89802 8.2071 1.084057 12.38881 1.560096-4.19959-.177285-8.39919-.91838-12.59879-.531849-3.2097-.09623-6.82754.358882-10.28901.602761z" fill="url(#linearGradient2533)" opacity=".533333"/>
      <path d="m24.151813 80.140179c3.659074-.476377 7.859218-.724344 10.498997-1.631008 3.681904.89802 8.207095 1.084057 12.38881 1.560091-4.199598-.17728-8.399193-.918375-12.598791-.531845-3.209697-.09623-6.827539.358883-10.289016.602762z" fill="url(#linearGradient2511)" opacity=".533333"/>
      <path d="m67.151899 94.228666c3.659067-.476381 7.859215-.724344 10.498994-1.631008 3.681904.898016 8.207098 1.084057 12.388812 1.560092-4.199604-.177285-8.399195-.91838-12.598794-.531854-3.209696-.09622-6.827538.358887-10.289012.60277z" fill="url(#linearGradient2537)" opacity=".533333"/>
      <path d="m16.157538 93.807399c3.659066-.476377 7.859219-.724344 10.498998-1.631008 3.681902.89802 8.207098 1.084057 12.388809 1.560096-4.199594-.177285-8.399193-.91838-12.598791-.53185-3.209701-.09623-6.827543.358883-10.289016.602762z" fill="url(#linearGradient2539)" opacity=".533333"/>
      <path d="m25.89895 90.755973c3.65907-.476376 7.85921-.724344 10.49899-1.631008 3.6819.89802 8.2071 1.084057 12.38881 1.560096-4.19959-.177285-8.39919-.91838-12.59879-.531849-3.2097-.09623-6.82754.358882-10.28901.602761z" fill="#ffeb55" opacity=".294444"/>
      <path d="m24.151813 80.140179c3.659074-.476377 7.859218-.724344 10.498997-1.631008 3.681904.89802 8.207095 1.084057 12.38881 1.560091-4.199598-.17728-8.399193-.918375-12.598791-.531845-3.209697-.09623-6.827539.358883-10.289016.602762z" fill="#ffeb55" opacity=".294444"/>
      <path d="m25.985226 85.339778c3.659067-.476381 7.859215-.724344 10.498994-1.631008 3.681904.898016 8.207095 1.084057 12.38881 1.560092-4.199598-.177285-8.399193-.91838-12.598792-.531854-3.209696-.09622-6.827538.358887-10.289012.60277z" fill="#ffeb55" opacity=".294444"/>
      <path d="m35.657541 80.474067c3.659066-.476377 7.859219-.724344 10.498998-1.631008 3.681902.89802 8.207098 1.084057 12.388809 1.560096-4.199594-.177285-8.399193-.91838-12.598791-.53185-3.209701-.09623-6.827543.358883-10.289016.602762z" fill="#ffeb55" opacity=".294444"/>
      <path d="m23.732283 99.644861c3.65907-.476376 7.85921-.724344 10.49899-1.631008 3.6819.89802 8.2071 1.084057 12.38881 1.560096-4.19959-.177285-8.39919-.91838-12.59879-.531849-3.2097-.09623-6.82754.358882-10.28901.602761z" fill="#ffeb55" opacity=".294444"/>
      <path d="m24.151813 80.140179c3.659074-.476377 7.859218-.724344 10.498997-1.631008 3.681904.89802 8.207095 1.084057 12.38881 1.560091-4.199598-.17728-8.399193-.918375-12.598791-.531845-3.209697-.09623-6.827539.358883-10.289016.602762z" fill="#ffeb55" opacity=".294444"/>
      <path d="m28.151893 87.562c3.659067-.476381 7.859215-.724344 10.498994-1.631008 3.681904.898016 8.207095 1.084057 12.38881 1.560092-4.199598-.177285-8.399193-.91838-12.598792-.531854-3.209696-.09622-6.827538.358887-10.289012.60277z" fill="#ffeb55" opacity=".294444"/>
      <path d="m35.657541 82.696289c3.659066-.476377 7.859219-.724344 10.498998-1.631008 3.681902.89802 8.207098 1.084057 12.388809 1.560096-4.199594-.177285-8.399193-.91838-12.598791-.53185-3.209701-.09623-6.827543.358883-10.289016.602762z" fill="#ffeb55" opacity=".294444"/>
      <path d="m32.70396 95.200417c3.65907-.476376 7.85922-.724344 10.499-1.631008 3.6819.89802 8.2071 1.084057 12.38881 1.560096-4.1996-.177285-8.39919-.91838-12.59879-.531849-3.2097-.09623-6.82754.358882-10.28902.602761z" fill="#e3ad00" opacity=".294444"/>
      <rect fill="url(#linearGradient2541)" height="30.212458" width="101.97912" x="13.233362" y="76.823875"/>
      <path d="m32.70396 86.311529c3.65907-.476376 7.85922-.724344 10.499-1.631008 3.6819.89802 8.2071 1.084057 12.38881 1.560096-4.1996-.177285-8.39919-.91838-12.59879-.531849-3.2097-.09623-6.82754.358882-10.28902.602761z" fill="#e3ad00" opacity=".294444"/>
      <path d="m20.323991 84.584623c3.659074-.476377 7.859219-.724344 10.498998-1.631008 3.681903.89802 8.207094 1.084057 12.38881 1.560091-4.199599-.17728-8.399194-.918375-12.598792-.531845-3.209697-.09623-6.827539.358883-10.289016.602762z" fill="#e3ad00" opacity=".294444"/>
      <path d="m25.329718 96.029621c3.659067-.476377 7.859219-.724344 10.498999-1.631008 3.6819.89802 8.207099 1.084057 12.38881 1.560096-4.199594-.177285-8.399197-.91838-12.598792-.53185-3.209702-.09623-6.827543.358883-10.289017.602762z" fill="#e3ad00" opacity=".294444"/>
      <rect fill="url(#linearGradient2543)" height="2.448633" opacity=".427778" width="105.02679" x="11.223557" y="76.844902"/>
      <rect fill="url(#linearGradient2545)" height="29.926754" opacity=".522222" width="105.02679" x="11.223557" y="29.085884"/>
      <path d="m-.04466021 80.174298 20.54831121-2.711748 10.382302-.117902 6.272637-2.358042 12.112688 2.82965 11.680094-2.122236 6.272637 3.53706 26.820955 4.244475 4.325959-1.179019 28.118727 1.532725 3.24447-.825313 3.24448 1.296921 64.0242-7.663634 4.97485.707413 27.25356-.353707 6.92152 2.004336 13.19417-1.886433 6.70524.353706v16.152584h-256.09680021z" fill="#ff7e00" filter="url(#filter7585-0)" opacity=".488889" transform="matrix(.4037181 0 0 .4330773 12.048239 26.156697)"/>
    </g>
    <rect fill="url(#linearGradient2547)" height="71.75" opacity=".771863" ry="0" transform="scale(1 -1)" width="96" x="-16.019852" y="-40.764259"/>
    <path d="m-15.019852 12.04674c31.197145 8.203863 65.387552 2.15464 94-11.5315831 0-15.8353609 0-30.1567139 0-30.7508889-1.30357 0-92.696425 0-94 0z" fill="url(#linearGradient2549)" opacity=".5"/>
    <path d="m-16.019852 40.764264v-71.999996h96v71.999996zm1-.947368h94v-70.10526h-94z" fill="url(#linearGradient2551)"/>
  </g>
  <g transform="matrix(.62263572 0 0 .62263572 -155.41189 43.034477)">
    <path d="m348.90234 45.5c-5.83942 6.744131 4.28201 38.453434 22.53321 68.03906 11.12515 4.64315 15.89045 4.08104 22.82812 5.29688-5.64914.13544-4.30319 1.284-20.12109-.0234 1.47203 2.58854 3.30936 5.52001 5.32226 8.57227-.0126.00048-.0245.001-.0371.002 12.76773 19.71855 28.76388 37.07853 47.01172 52.79492.14401.0329.26196.0538.4043.0859 11.44221 5.06693 21.58521 5.1936 31.94141 6.13086-7.11474.56068-9.49191 3.01253-32.06836-.89063 14.78199 4.92372 21.85641 11.88123 31.3789 18.19336.0771.008.13819.0117.21485.0195 2.52769 1.61374 6.08402 3.80111 9.23047 6.12696-5.16941-1.40694-8.73512-.29686-12.35938.72265 18.51521 2.38307 13.79211 11.26146 27.44727 4.53125-2.65555 3.98121-6.60833 7.10132-5.24805 13.75391 3.94026-8.27053 15.80708-16.50608 19.39453-15.82813 3.94136.74483 4.07478 5.92197 4.00391 7.77539.12926-2.27414 1.01487-8.78901 6.98437-10.60351 12.6451 5.98992 25.97923 10.91073 40.00977 14.38867 9.01409 2.23445 11.37367.20508 15.33984-.72461-18.27599-3.41874-35.41475-9.17903-51.51172-16.6289 3.26619-6.99798 10.29521-9.54568 18.97461-10.14063-5.1099-3.5669-11.62674-3.47997-21.07812 4.2207 6.46137-9.24456 4.01212-17.53719.52929-25.71875-.90936 9.28621-3.16206 17.43486-10.73046 21.0918 1.78469-10.24393 7.49652-22.93766-5.35743-28.53906-7.03621-3.56069-15.26384-12.45324-25.78515-22.99219-5.104-5.25603-9.80597-10.25722-19.09961-18.17969-1.81878 11.91576-6.14593 14.54979-9.76563 18.16016 4.09491-5.97568 5.20491-14.07471 5.68946-21.83203-7.26557-8.14065-14.5769-16.25715-22.68946-23.966799-23.22784-22.840445-45.96922-47.606015-73.38673-53.837911zm151.87696 175.30273c-.0278.48858-.0332.84766-.0332.84766s.0183-.45833.0332-.84766z" filter="url(#filter73798)" opacity=".39519"/>
    <path d="m461.98291 194.17548c2.11259 1.52654 7.24405 4.48233 11.55813 7.67129-5.16941-1.40694-8.73488-.29512-12.35914.72439 18.51523 2.38307 13.79091 11.26136 27.44608 4.53115-2.65555 3.98121-6.60807 7.09966-5.24779 13.75226 3.94026-8.27054 15.80822-16.50591 19.39567-15.82796 4.76928.90129 3.96945 8.62334 3.96945 8.62334s-.29932-11.55597 9.89344-11.91549c2.66386-8.92335 10.28877-11.97852 19.93742-12.63991-5.10991-3.5669-11.62711-3.48139-21.0785 4.21929 6.46138-9.24457 4.01294-17.53671.53011-25.71828-.90936 9.28622-3.16312 17.43593-10.73153 21.09287 1.7992-10.32717 7.60014-23.14786-5.66406-28.6779z" fill="url(#radialGradient27539)" stroke="url(#linearGradient66945)"/>
    <path d="m465.5612 128.75644c15.20597 14.35943 26.03603 27.55107 35.01218 31.72247 3.88992 21.43326-2.33051 20.80928-4.12263 29.84634-8.77681 2.32194-3.52856 8.34296-32.35525 5.37677-9.5225-6.31214-16.59611-13.27075-31.37812-18.19447 22.57648 3.90316 24.95207 1.45141 32.06681.89073-10.45684-.94637-20.6942-1.05811-32.27329-6.27194l-14.28909-13.0763 34.04646-.62705z" fill="url(#radialGradient18967)" stroke="url(#linearGradient63418)"/>
    <path d="m425.01385 88.284404c9.44846 8.60331 17.73405 17.798376 25.96534 27.021056-.48455 7.75733-1.59607 15.85578-5.69098 21.83146 3.6197-3.61037 7.94763-6.24393 9.76641-18.1597 9.41458 8.02556 14.11778 13.05262 19.29963 18.38432.88385 22.4482-5.37089 20.91702-8.17443 32.42279-9.06742 2.29951-7.38347 8.41079-33.73997 2.39807-18.24786-15.71641-34.24378-33.07741-47.01152-52.79598 24.40624-.91411 31.23831-16.64685 39.58552-31.102016z" fill="url(#radialGradient9644)" stroke="url(#linearGradient58373)"/>
    <path d="m354.90202 37.500754c-5.83943 6.744138 4.28252 38.452678 22.53374 68.038336 11.12516 4.64315 15.88958 4.08024 22.82726 5.29608-5.64915.13544-4.30343 1.28454-20.12135-.0229 2.98524 5.2495 7.45591 11.89887 11.89833 18.13794 16.85575 2.04909 18.93738-3.01876 25.06425-4.04131 6.49541-9.74243 12.208-9.80725 14.81072-30.002637-24.50496-23.757478-48.16878-50.849337-77.01295-57.405509z" fill="url(#radialGradient1169)" stroke="url(#linearGradient51741)"/>
    <path d="m568.8955 217.89245c-49.56525-7.83358-137.30458-50.56868-213.11005-179.930489" style="opacity:.690829;fill:none;stroke:#fff;stroke-width:8;clip-path:url(#clipPath69606);filter:url(#filter69578)"/>
    <path d="m355.78545 37.961961c40.35156 63.059049 108.55722 158.302509 213.3286 177.901259-3.96618.92969-6.32666 2.95863-15.34076.72418-110.00604-27.26869-177.76607-142.377918-197.98784-178.625439z" fill="url(#linearGradient27812)" stroke="url(#linearGradient31293)"/>
    <path d="m565.09244 217.16818c-45.16625-5.94921-140.13305-55.98801-209.30699-179.206219" fill="none" filter="url(#filter68965)" stroke="url(#linearGradient68963)"/>
  </g>
</svg>
