<svg height="256" width="256" xmlns="http://www.w3.org/2000/svg" xmlns:xlink="http://www.w3.org/1999/xlink">
  <defs>
    <linearGradient id="linearGradient5060">
      <stop offset="0"/>
      <stop offset="1" stop-opacity="0"/>
    </linearGradient>
    <linearGradient id="linearGradient2447" gradientTransform="matrix(.50664076 0 0 .35125016 -58.340184 -47.42914)" gradientUnits="userSpaceOnUse" x1="73.10424" x2="54.405266" y1="112.78188" y2="10.968399">
      <stop offset="0" stop-color="#fff"/>
      <stop offset="1" stop-color="#e0e0e0"/>
    </linearGradient>
    <clipPath id="clipPath16814">
      <path d="m12 28v80h104v-80z"/>
    </clipPath>
    <radialGradient id="radialGradient21667" cx="96.675285" cy="93.389153" gradientTransform="matrix(1.9592408 0 0 .7057335 -92.63189 3.684153)" gradientUnits="userSpaceOnUse" r="63.998783">
      <stop offset="0" stop-color="#0081ff"/>
      <stop offset="1" stop-color="#00ff84"/>
    </radialGradient>
    <linearGradient id="linearGradient21669" gradientTransform="matrix(.4103611 0 0 .4330773 11.197909 27.054412)" gradientUnits="userSpaceOnUse" x1="190.0625" x2="193" y1="187.73239" y2="122.8568">
      <stop offset="0" stop-color="#cdcdcd"/>
      <stop offset="1" stop-color="#efefef"/>
    </linearGradient>
    <filter id="filter3336" height="1.546667" width="1.546667" x="-.273333" y="-.273333">
      <feGaussianBlur stdDeviation="3.5813918"/>
    </filter>
    <radialGradient id="radialGradient21675" cx="50.269897" cy="47.169552" gradientUnits="userSpaceOnUse" r="15.723184">
      <stop offset="0" stop-color="#000721"/>
      <stop offset="1" stop-color="#00f"/>
    </radialGradient>
    <filter id="filter3410" height="1.48" width="1.48" x="-.24" y="-.24">
      <feGaussianBlur stdDeviation="3.1446367"/>
    </filter>
    <filter id="filter7623" height="1.604646" width="1.604646" x="-.302323" y="-.302323">
      <feGaussianBlur stdDeviation="3.9612318"/>
    </filter>
    <linearGradient id="linearGradient3426">
      <stop offset="0" stop-color="#aaa"/>
      <stop offset="1" stop-color="#aaa" stop-opacity="0"/>
    </linearGradient>
    <linearGradient id="linearGradient21689" gradientTransform="matrix(.2763587 0 0 .09333054 27.98082 75.411416)" gradientUnits="userSpaceOnUse" x1="82.802177" x2="83.742836" xlink:href="#linearGradient3426" y1="154.27817" y2="167.16171"/>
    <linearGradient id="linearGradient21691" gradientTransform="matrix(.2763587 0 0 .09333054 11.32227 75.154679)" gradientUnits="userSpaceOnUse" x1="82.802177" x2="83.742836" xlink:href="#linearGradient3426" y1="154.27817" y2="167.16171"/>
    <linearGradient id="linearGradient21699" gradientTransform="matrix(.2763587 0 0 .09333054 26.78551 85.855903)" gradientUnits="userSpaceOnUse" x1="82.802177" x2="83.742836" xlink:href="#linearGradient3426" y1="154.27817" y2="167.16171"/>
    <linearGradient id="linearGradient21701" gradientTransform="matrix(.2763587 0 0 .09333054 36.60848 73.09434)" gradientUnits="userSpaceOnUse" x1="82.802177" x2="83.742836" xlink:href="#linearGradient3426" y1="154.27817" y2="167.16171"/>
    <linearGradient id="linearGradient21711" gradientTransform="matrix(.2763587 0 0 .09333054 -1.99325 88.072721)" gradientUnits="userSpaceOnUse" x1="82.802177" x2="83.742836" xlink:href="#linearGradient3426" y1="154.27817" y2="167.16171"/>
    <linearGradient id="linearGradient21763" gradientTransform="matrix(.2763587 0 0 .09333054 47.83175 86.843073)" gradientUnits="userSpaceOnUse" x1="82.802177" x2="83.742836" xlink:href="#linearGradient3426" y1="154.27817" y2="167.16171"/>
    <linearGradient id="linearGradient21765" gradientTransform="matrix(.2763587 0 0 .09333054 57.65472 74.081509)" gradientUnits="userSpaceOnUse" x1="82.802177" x2="83.742836" xlink:href="#linearGradient3426" y1="154.27817" y2="167.16171"/>
    <linearGradient id="linearGradient21767" gradientTransform="matrix(.2763587 0 0 .09333054 48.99633 73.751418)" gradientUnits="userSpaceOnUse" x1="82.802177" x2="83.742836" xlink:href="#linearGradient3426" y1="154.27817" y2="167.16171"/>
    <linearGradient id="linearGradient21773" gradientTransform="matrix(.2763587 0 0 .09333054 37.77434 80.971102)" gradientUnits="userSpaceOnUse" x1="82.802177" x2="83.742836" xlink:href="#linearGradient3426" y1="154.27817" y2="167.16171"/>
    <linearGradient id="linearGradient21775" gradientTransform="matrix(.2763587 0 0 .09333054 36.15406 73.094106)" gradientUnits="userSpaceOnUse" x1="82.802177" x2="83.742836" xlink:href="#linearGradient3426" y1="154.27817" y2="167.16171"/>
    <linearGradient id="linearGradient21809" gradientTransform="matrix(.2763587 0 0 .09333054 75.64961 74.00068)" gradientUnits="userSpaceOnUse" x1="82.802177" x2="83.742836" xlink:href="#linearGradient3426" y1="154.27817" y2="167.16171"/>
    <linearGradient id="linearGradient21857" gradientTransform="matrix(.2763587 0 0 .09333054 70.848586 84.534846)" gradientUnits="userSpaceOnUse" x1="82.802177" x2="83.742836" xlink:href="#linearGradient3426" y1="154.27817" y2="167.16171"/>
    <linearGradient id="linearGradient21859" gradientTransform="matrix(.2763587 0 0 .09333054 65.91592 80.588816)" gradientUnits="userSpaceOnUse" x1="82.802177" x2="83.742836" xlink:href="#linearGradient3426" y1="154.27817" y2="167.16171"/>
    <linearGradient id="linearGradient21877" gradientTransform="matrix(.2763587 0 0 .09333054 85.24867 75.726787)" gradientUnits="userSpaceOnUse" x1="82.802177" x2="83.742836" xlink:href="#linearGradient3426" y1="154.27817" y2="167.16171"/>
    <linearGradient id="linearGradient21879" gradientTransform="matrix(.2763587 0 0 .09333054 76.59028 82.063366)" gradientUnits="userSpaceOnUse" x1="82.802177" x2="83.742836" xlink:href="#linearGradient3426" y1="154.27817" y2="167.16171"/>
    <linearGradient id="linearGradient21881" gradientTransform="matrix(.2763587 0 0 .09333054 72.5902 67.336322)" gradientUnits="userSpaceOnUse" x1="82.802177" x2="83.742836" xlink:href="#linearGradient3426" y1="154.27817" y2="167.16171"/>
    <linearGradient id="linearGradient21895" gradientTransform="matrix(.2763587 0 0 .09333054 60.376438 66.281208)" gradientUnits="userSpaceOnUse" x1="82.802177" x2="83.742836" xlink:href="#linearGradient3426" y1="154.27817" y2="167.16171"/>
    <linearGradient id="linearGradient21897" gradientTransform="matrix(.2763587 0 0 .09333054 48.051227 68.246694)" gradientUnits="userSpaceOnUse" x1="82.802177" x2="83.742836" xlink:href="#linearGradient3426" y1="154.27817" y2="167.16171"/>
    <linearGradient id="linearGradient21911" gradientTransform="matrix(.2763587 0 0 .09333054 41.169166 64.717098)" gradientUnits="userSpaceOnUse" x1="82.802177" x2="83.742836" xlink:href="#linearGradient3426" y1="154.27817" y2="167.16171"/>
    <linearGradient id="linearGradient21913" gradientTransform="matrix(.2763587 0 0 .09333054 24.510621 64.460362)" gradientUnits="userSpaceOnUse" x1="82.802177" x2="83.742836" xlink:href="#linearGradient3426" y1="154.27817" y2="167.16171"/>
    <linearGradient id="linearGradient21923" gradientTransform="matrix(.2763587 0 0 .09333054 9.575134 64.53888)" gradientUnits="userSpaceOnUse" x1="82.802177" x2="83.742836" xlink:href="#linearGradient3426" y1="154.27817" y2="167.16171"/>
    <linearGradient id="linearGradient21925" gradientTransform="matrix(.2763587 0 0 .09333054 .916743 64.208793)" gradientUnits="userSpaceOnUse" x1="82.802177" x2="83.742836" xlink:href="#linearGradient3426" y1="154.27817" y2="167.16171"/>
    <linearGradient id="linearGradient21927" gradientTransform="matrix(.2763587 0 0 .09333054 52.575217 78.627372)" gradientUnits="userSpaceOnUse" x1="82.802177" x2="83.742836" xlink:href="#linearGradient3426" y1="154.27817" y2="167.16171"/>
    <linearGradient id="linearGradient21929" gradientTransform="matrix(.2763587 0 0 .09333054 -.916668 73.926191)" gradientUnits="userSpaceOnUse" x1="82.802177" x2="83.742836" xlink:href="#linearGradient3426" y1="154.27817" y2="167.16171"/>
    <linearGradient id="linearGradient21939" gradientTransform="matrix(.2763587 0 0 .09333054 33.739332 68.818796)" gradientUnits="userSpaceOnUse" x1="82.802177" x2="83.742836" xlink:href="#linearGradient3426" y1="154.27817" y2="167.16171"/>
    <linearGradient id="linearGradient21941" gradientTransform="matrix(.2763587 0 0 .09333054 51.080944 81.822041)" gradientUnits="userSpaceOnUse" x1="82.802177" x2="83.742836" xlink:href="#linearGradient3426" y1="154.27817" y2="167.16171"/>
    <linearGradient id="linearGradient21943" gradientTransform="matrix(.2763587 0 0 .09333054 37.739409 85.12951)" gradientUnits="userSpaceOnUse" x1="82.802177" x2="83.742836" xlink:href="#linearGradient3426" y1="154.27817" y2="167.16171"/>
    <linearGradient id="linearGradient21945" gradientTransform="matrix(.2763587 0 0 .09333054 1.580862 78.206107)" gradientUnits="userSpaceOnUse" x1="82.802177" x2="83.742836" xlink:href="#linearGradient3426" y1="154.27817" y2="167.16171"/>
    <linearGradient id="linearGradient21959" gradientTransform="matrix(.2763587 0 0 .09333054 86.5355 64.058986)" gradientUnits="userSpaceOnUse" x1="82.802177" x2="83.742836" xlink:href="#linearGradient3426" y1="154.27817" y2="167.16171"/>
    <linearGradient id="linearGradient21961" gradientTransform="matrix(.2763587 0 0 .09333054 69.876953 63.802249)" gradientUnits="userSpaceOnUse" x1="82.802177" x2="83.742836" xlink:href="#linearGradient3426" y1="154.27817" y2="167.16171"/>
    <linearGradient id="linearGradient21967" gradientTransform="matrix(.2763587 0 0 .09333054 79.230835 70.797971)" gradientUnits="userSpaceOnUse" x1="82.802177" x2="83.742836" xlink:href="#linearGradient3426" y1="154.27817" y2="167.16171"/>
    <linearGradient id="linearGradient22587" gradientTransform="matrix(.4103611 0 0 .2638169 11.197909 46.514122)" gradientUnits="userSpaceOnUse" x1="121.88446" x2="121.88446" y1="114.96759" y2="124.25063">
      <stop offset="0" stop-color="#0081ff"/>
      <stop offset="1" stop-color="#0081ff" stop-opacity="0"/>
    </linearGradient>
    <linearGradient id="linearGradient22589" gradientTransform="matrix(.4103611 0 0 .3192147 11.197909 29.066876)" gradientUnits="userSpaceOnUse" x1="150.04311" x2="150.04311" xlink:href="#linearGradient5060" y1=".059548" y2="51.622837"/>
    <filter id="filter7585" height="1.983171" width="1.071516" x="-.035758" y="-.491585">
      <feGaussianBlur stdDeviation="3.8156296"/>
    </filter>
    <linearGradient id="linearGradient3012" gradientTransform="matrix(.6298032 0 0 .6007775 -44.212917 -48.145246)" gradientUnits="userSpaceOnUse" x1="126.03124" x2="126.03124" y1="40.936672" y2="-5.271013">
      <stop offset="0" stop-color="#cc7c19" stop-opacity="0"/>
      <stop offset="1" stop-color="#dc000f"/>
    </linearGradient>
    <linearGradient id="linearGradient24224" gradientTransform="matrix(1.2462121 0 0 1.2230467 -46.531215 -73.217086)" gradientUnits="userSpaceOnUse" x1="48" x2="74.222046" xlink:href="#linearGradient5060" y1="38.75" y2="70.519157"/>
    <linearGradient id="linearGradient3002" gradientTransform="matrix(1.2727273 0 0 -1.2057416 -354.92894 -63.963001)" gradientUnits="userSpaceOnUse" x1="314.05814" x2="314.05814" xlink:href="#linearGradient5060" y1="11.862287" y2="-113.61256"/>
    <linearGradient id="linearGradient7118" gradientTransform="matrix(.2763587 0 0 .09333054 13.575211 63.071818)" gradientUnits="userSpaceOnUse" x1="82.802177" x2="83.742836" xlink:href="#linearGradient3426" y1="154.27817" y2="167.16171"/>
    <linearGradient id="linearGradient7120" gradientTransform="matrix(.2763587 0 0 .09333054 60.08087 69.317219)" gradientUnits="userSpaceOnUse" x1="82.802177" x2="83.742836" xlink:href="#linearGradient3426" y1="154.27817" y2="167.16171"/>
    <linearGradient id="linearGradient8291" gradientTransform="matrix(.4103611 0 0 .4330773 11.197909 27.054412)" gradientUnits="userSpaceOnUse" x1="252.7813" x2="3.973908" y1="158.64418" y2="145.26782">
      <stop offset="0" stop-color="#e7e7e7" stop-opacity=".000065"/>
      <stop offset=".74053472" stop-color="#293ddf" stop-opacity=".637661"/>
      <stop offset="1" stop-color="#e0e0e0" stop-opacity=".000041"/>
    </linearGradient>
    <linearGradient id="linearGradient1643" gradientUnits="userSpaceOnUse" x1="-39.21196981472" x2="-30.22921934062" y1="-42.51279725442" y2="-6.22916382905">
      <stop offset="0" stop-color="#999"/>
      <stop offset="1" stop-color="#c1c1c1"/>
    </linearGradient>
    <filter id="filter1902" color-interpolation-filters="sRGB" height="2.223251" width="1.04996" x="-.02498" y="-.611626">
      <feGaussianBlur stdDeviation=".46229847"/>
    </filter>
  </defs>
  <g transform="matrix(5 0 0 5 8.000006 3.782204)">
    <rect fill="#000305" filter="url(#filter1902)" height="1.814045" opacity=".6" stroke-linejoin="round" stroke-width="14" transform="matrix(1.0097917 0 0 1.0097917 -.235002 .387261)" width="44.415802" x="1.7921" y="41.244648"/>
    <rect fill="url(#linearGradient2447)" height="35.922016" stroke="url(#linearGradient1643)" stroke-linecap="round" stroke-opacity=".96863" transform="matrix(-.9999985 .0017332 -.00096053 -.99999954 0 0)" width="44.966068" x="-46.459167" y="-42.846134"/>
  </g>
  <g transform="matrix(2.0696194 0 0 2.127015 61.815789 117.86633)">
    <g clip-path="url(#clipPath16814)" transform="matrix(.9230769 0 0 .9 -27.096775 -56.435732)">
      <rect fill="url(#radialGradient21667)" height="40.601517" width="105.02679" x="11.223557" y="27.0802"/>
      <rect fill="url(#linearGradient21669)" height="40.601517" width="105.02679" x="11.223557" y="67.755539"/>
      <circle cx="50.269897" cy="47.169552" fill="#0081ff" filter="url(#filter3336)" opacity=".627778" r="15.723184" transform="matrix(2.7604692 0 0 .9533723 -78.809706 15.60179)"/>
      <circle cx="50.269897" cy="47.169552" fill="url(#radialGradient21675)" filter="url(#filter3410)" r="15.723184" transform="matrix(.709197 0 0 .7484557 5.809368 21.718126)"/>
      <circle cx="50.269897" cy="47.169552" fill="#0081ff" filter="url(#filter7623)" opacity=".627778" r="15.723184" transform="matrix(3.060609 0 0 .2647755 -90.409629 32.491805)"/>
      <path d="m11.179582 64.099911 8.432228-2.154496 4.260493-.09367 2.574046-1.873476 4.970576 2.248171 4.793056-1.686128 2.574046 2.810212 11.006277 3.372256 1.775205-.936737 11.538832 1.217758 1.331404-.655716 1.331409 1.030411 26.273041-6.088794 2.041485.562043 11.1838-.281022 2.84032 1.592454 5.41438-1.49878 2.75157.281021v12.833303h-105.092168z" fill="#c4d9ee"/>
      <path d="m11.715254 72.275512 6.984155-3.290561 7.889509 2.60503 19.529768-.137108 5.173448-4.113201 2.716061 3.016347 19.012419-6.169799 9.95889 1.782383 4.268096-1.919492 2.328052 2.193706 11.510918 1.371068 4.26809 1.371066 10.34691.137108v6.444013h-104.503661z" fill="#ece9e8"/>
      <path d="m11.512042 74.085325 4.869068-3.619621 2.356001 1.316226 6.125601.987169 5.968535-2.138865 16.177871 1.151696 12.565334 2.467921h14.450135l5.968534-1.645282 3.769602.16453 6.439735 1.645278 15.706672-1.809808 6.5968-2.303392 2.04187-1.645282 1.41359.987169v7.239234h-104.763481z" fill="#fff"/>
      <path d="m42.55749 91.012714c3.65907-.476381 7.85922-.724343 10.499-1.631008 3.6819.898016 8.20709 1.084057 12.38881 1.560092-4.1996-.177285-8.3992-.91838-12.59879-.531854-3.2097-.09622-6.82754.358887-10.28902.60277z" fill="url(#linearGradient21689)" opacity=".533333"/>
      <path d="m41.36219 101.4572c3.65907-.47637 7.85921-.72434 10.49899-1.631007 3.6819.898017 8.2071 1.084057 12.38881 1.560097-4.19959-.17728-8.39919-.91838-12.59879-.53185-3.2097-.0962-6.82754.35888-10.28901.60276z" fill="url(#linearGradient21699)" opacity=".533333"/>
      <path d="m51.18516 88.695638c3.65907-.476376 7.85921-.724343 10.49899-1.631008 3.68191.89802 8.2071 1.084057 12.38881 1.560092-4.19959-.177281-8.39919-.918375-12.59879-.531845-3.20969-.09623-6.82754.358882-10.28901.602761z" fill="url(#linearGradient21701)" opacity=".533333"/>
      <path d="m12.583429 103.67401c3.65907-.47637 7.85922-.72434 10.49899-1.631 3.68191.89802 8.2071 1.08406 12.38882 1.56009-4.1996-.17728-8.3992-.91838-12.5988-.53185-3.20969-.0962-6.82754.35888-10.28901.60276z" fill="url(#linearGradient21711)" opacity=".533333"/>
      <path d="m62.40842 102.44437c3.65907-.47638 7.85922-.72434 10.499-1.63101 3.6819.89802 8.2071 1.08406 12.38881 1.56009-4.1996-.17728-8.39919-.91837-12.59879-.53184-3.2097-.0962-6.82755.35888-10.28902.60276z" fill="url(#linearGradient21763)" opacity=".533333"/>
      <path d="m72.23139 89.682807c3.65908-.476376 7.85922-.724343 10.499-1.631008 3.68191.898021 8.2071 1.084058 12.38881 1.560092-4.1996-.17728-8.39919-.918375-12.59879-.531845-3.2097-.09623-6.82754.358883-10.28902.602761z" fill="url(#linearGradient21765)" opacity=".533333"/>
      <path d="m63.573 89.352716c3.65907-.476377 7.85922-.724344 10.499-1.631008 3.6819.89802 8.20709 1.084062 12.38881 1.560096-4.1996-.177285-8.39919-.91838-12.59879-.531849-3.2097-.09623-6.82755.358882-10.28902.602761z" fill="url(#linearGradient21767)" opacity=".533333"/>
      <path d="m52.35102 96.5724c3.65907-.476376 7.85922-.724344 10.49899-1.631008 3.68191.89802 8.20711 1.084057 12.38882 1.560092-4.1996-.177281-8.3992-.918376-12.59879-.53185-3.2097-.09623-6.82755.358887-10.28902.602766z" fill="url(#linearGradient21773)" opacity=".533333"/>
      <path d="m50.73074 88.6954c3.65906-.476377 7.85921-.724339 10.49899-1.631004 3.68191.89802 8.2071 1.084057 12.38882 1.560092-4.1996-.17728-8.3992-.91838-12.5988-.53185-3.2097-.09623-6.82754.358883-10.28901.602762z" fill="url(#linearGradient21775)" opacity=".533333"/>
      <path d="m90.22629 89.601973c3.65908-.476376 7.85922-.724339 10.499-1.631008 3.6819.898025 8.2071 1.084062 12.38881 1.560096-4.19959-.17728-8.39919-.918379-12.59879-.531849-3.2097-.09623-6.82754.358883-10.28902.602761z" fill="url(#linearGradient21809)" opacity=".533333"/>
      <path d="m85.425266 100.13614c3.65907-.476377 7.85921-.72434 10.49899-1.631009 3.681907.898025 8.207094 1.084062 12.388814 1.560099-4.1996-.177283-8.399197-.918382-12.598794-.531852-3.2097-.09623-6.82754.358883-10.28901.602762z" fill="url(#linearGradient21857)" opacity=".533333"/>
      <path d="m80.4926 96.190114c3.65906-.476376 7.85921-.724344 10.49899-1.631008 3.68191.89802 8.2071 1.084057 12.38881 1.560092-4.19959-.177281-8.39919-.918376-12.59879-.53185-3.2097-.09623-6.82755.358887-10.28901.602766z" fill="url(#linearGradient21859)" opacity=".533333"/>
      <path d="m99.82535 91.328085c3.65908-.476376 7.85922-.724343 10.499-1.631008 3.6819.898021 8.20709 1.084058 12.38881 1.560092-4.1996-.17728-8.39919-.918375-12.59879-.531845-3.2097-.09623-6.82754.358883-10.28902.602761z" fill="url(#linearGradient21877)" opacity=".533333"/>
      <path d="m91.16695 97.66466c3.65908-.476377 7.85923-.724344 10.49901-1.631008 3.6819.89802 8.20709 1.084062 12.38881 1.560096-4.1996-.177285-8.3992-.91838-12.5988-.531849-3.2097-.09624-6.82754.358882-10.28902.602761z" fill="url(#linearGradient21879)" opacity=".533333"/>
      <path d="m87.16688 82.937611c3.65907-.476376 7.85922-.724343 10.499-1.631008 3.6819.898021 8.2071 1.084058 12.38881 1.560096-4.1996-.177284-8.39919-.918379-12.59879-.531849-3.2097-.09623-6.82755.358883-10.28902.602761z" fill="url(#linearGradient21881)" opacity=".533333"/>
      <path d="m74.953121 81.882503c3.659067-.47638 7.859215-.724343 10.498994-1.631008 3.681904.898016 8.207095 1.084058 12.388808 1.560092-4.199597-.177285-8.399191-.918379-12.59879-.531854-3.209696-.09623-6.827538.358887-10.289012.60277z" fill="url(#linearGradient21895)" opacity=".533333"/>
      <path d="m62.627903 83.847984c3.659067-.476376 7.85922-.724343 10.498999-1.631008 3.681903.89802 8.207099 1.084057 12.38881 1.560096-4.199595-.177285-8.399193-.918379-12.598792-.531849-3.209701-.09623-6.827543.358882-10.289017.602761z" fill="url(#linearGradient21897)" opacity=".533333"/>
      <path d="m55.745848 80.318394c3.659067-.47638 7.859216-.724343 10.498995-1.631008 3.681903.898016 8.207094 1.084058 12.388809 1.560092-4.199598-.177285-8.399193-.91838-12.598791-.531854-3.209697-.09623-6.827539.358887-10.289013.60277z" fill="url(#linearGradient21911)" opacity=".533333"/>
      <path d="m39.087298 80.061653c3.659066-.476376 7.859219-.724343 10.498998-1.631008 3.681903.89802 8.207098 1.084057 12.388809 1.560096-4.199594-.177285-8.399193-.918379-12.598791-.531849-3.209701-.09623-6.827542.358882-10.289016.602761z" fill="url(#linearGradient21913)" opacity=".533333"/>
      <path d="m24.151813 80.140179c3.659074-.476377 7.859218-.724344 10.498997-1.631008 3.681904.89802 8.207095 1.084057 12.38881 1.560091-4.199598-.17728-8.399193-.918375-12.598791-.531845-3.209697-.09623-6.827539.358883-10.289016.602762z" fill="url(#linearGradient21923)" opacity=".533333"/>
      <path d="m15.493415 79.810087c3.659075-.476376 7.859224-.724343 10.499002-1.631008 3.681903.89802 8.207095 1.084062 12.38881 1.560096-4.199595-.177285-8.399193-.918379-12.598792-.531849-3.2097-.09623-6.827546.358882-10.28902.602761z" fill="url(#linearGradient21925)" opacity=".533333"/>
      <path d="m28.151893 78.673112c3.659067-.476381 7.859215-.724344 10.498994-1.631008 3.681904.898016 8.207095 1.084057 12.38881 1.560092-4.199598-.177285-8.399193-.91838-12.598792-.531854-3.209696-.09622-6.827538.358887-10.289012.60277z" fill="url(#linearGradient7118)" opacity=".533333"/>
      <path d="m13.66001 89.527481c3.659066-.476377 7.859219-.724344 10.498998-1.631008 3.681902.89802 8.207098 1.084057 12.388809 1.560096-4.199595-.177285-8.399193-.91838-12.598791-.53185-3.209701-.09623-6.827543.358883-10.289016.602762z" fill="url(#linearGradient21929)" opacity=".533333"/>
      <path d="m48.316011 84.420097c3.659074-.476377 7.859219-.724344 10.498998-1.631009 3.681903.898021 8.207094 1.084058 12.38881 1.560092-4.199599-.17728-8.399194-.918375-12.598792-.531845-3.209697-.09623-6.827539.358883-10.289016.602762z" fill="url(#linearGradient21939)" opacity=".533333"/>
      <path d="m65.657617 97.423337c3.659075-.476376 7.859223-.724343 10.499002-1.631008 3.681904.89802 8.207095 1.084062 12.38881 1.560096-4.199594-.177285-8.399193-.918379-12.598792-.531849-3.2097-.09623-6.827546.358882-10.28902.602761z" fill="url(#linearGradient21941)" opacity=".533333"/>
      <path d="m52.316091 100.73081c3.659067-.47638 7.859215-.72435 10.498995-1.631012 3.681903.898016 8.207094 1.084062 12.388809 1.560092-4.199598-.17728-8.399193-.91838-12.598791-.53185-3.209697-.0962-6.827539.35888-10.289013.60277z" fill="url(#linearGradient21943)" opacity=".533333"/>
      <path d="m74.657547 84.918511c3.659066-.476377 7.859219-.724344 10.498998-1.631008 3.681902.89802 8.207098 1.084057 12.388809 1.560096-4.199594-.177285-8.399193-.91838-12.598791-.53185-3.209701-.09623-6.827543.358883-10.289016.602762z" fill="url(#linearGradient7120)" opacity=".533333"/>
      <path d="m101.11218 79.660281c3.65907-.47638 7.85922-.724343 10.499-1.631008 3.6819.898016 8.20709 1.084058 12.38881 1.560092-4.1996-.177285-8.3992-.918379-12.59879-.531854-3.2097-.09623-6.82754.358887-10.28902.60277z" fill="url(#linearGradient21959)" opacity=".533333"/>
      <path d="m84.453632 79.40354c3.659066-.476376 7.859219-.724343 10.498998-1.631008 3.681903.89802 8.2071 1.084057 12.38881 1.560096-4.19959-.177285-8.399193-.918379-12.598792-.531849-3.209701-.09623-6.827543.358882-10.289016.602761z" fill="url(#linearGradient21961)" opacity=".533333"/>
      <path d="m93.807513 86.399263c3.659067-.476377 7.859217-.724344 10.498997-1.631009 3.68191.898021 8.2071 1.084058 12.38881 1.560096-4.19959-.177284-8.39919-.918379-12.59879-.531849-3.2097-.09623-6.827543.358883-10.289017.602762z" fill="url(#linearGradient21967)" opacity=".533333"/>
      <path d="m25.89895 90.755973c3.65907-.476376 7.85921-.724344 10.49899-1.631008 3.6819.89802 8.2071 1.084057 12.38881 1.560096-4.19959-.177285-8.39919-.91838-12.59879-.531849-3.2097-.09623-6.82754.358882-10.28901.602761z" fill="url(#linearGradient21691)" opacity=".533333"/>
      <path d="m24.151813 80.140179c3.659074-.476377 7.859218-.724344 10.498997-1.631008 3.681904.89802 8.207095 1.084057 12.38881 1.560091-4.199598-.17728-8.399193-.918375-12.598791-.531845-3.209697-.09623-6.827539.358883-10.289016.602762z" fill="url(#linearGradient21923)" opacity=".533333"/>
      <path d="m67.151899 94.228666c3.659067-.476381 7.859215-.724344 10.498994-1.631008 3.681904.898016 8.207098 1.084057 12.388812 1.560092-4.199604-.177285-8.399195-.91838-12.598794-.531854-3.209696-.09622-6.827538.358887-10.289012.60277z" fill="url(#linearGradient21927)" opacity=".533333"/>
      <path d="m16.157538 93.807399c3.659066-.476377 7.859219-.724344 10.498998-1.631008 3.681902.89802 8.207098 1.084057 12.388809 1.560096-4.199594-.177285-8.399193-.91838-12.598791-.53185-3.209701-.09623-6.827543.358883-10.289016.602762z" fill="url(#linearGradient21945)" opacity=".533333"/>
      <path d="m25.89895 90.755973c3.65907-.476376 7.85921-.724344 10.49899-1.631008 3.6819.89802 8.2071 1.084057 12.38881 1.560096-4.19959-.177285-8.39919-.91838-12.59879-.531849-3.2097-.09623-6.82754.358882-10.28901.602761z" fill="#0014aa" opacity=".294444"/>
      <path d="m24.151813 80.140179c3.659074-.476377 7.859218-.724344 10.498997-1.631008 3.681904.89802 8.207095 1.084057 12.38881 1.560091-4.199598-.17728-8.399193-.918375-12.598791-.531845-3.209697-.09623-6.827539.358883-10.289016.602762z" fill="#0014aa" opacity=".294444"/>
      <path d="m25.985226 85.339778c3.659067-.476381 7.859215-.724344 10.498994-1.631008 3.681904.898016 8.207095 1.084057 12.38881 1.560092-4.199598-.177285-8.399193-.91838-12.598792-.531854-3.209696-.09622-6.827538.358887-10.289012.60277z" fill="#0014aa" opacity=".294444"/>
      <path d="m35.657541 80.474067c3.659066-.476377 7.859219-.724344 10.498998-1.631008 3.681902.89802 8.207098 1.084057 12.388809 1.560096-4.199594-.177285-8.399193-.91838-12.598791-.53185-3.209701-.09623-6.827543.358883-10.289016.602762z" fill="#0014aa" opacity=".294444"/>
      <path d="m23.732283 99.644861c3.65907-.476376 7.85921-.724344 10.49899-1.631008 3.6819.89802 8.2071 1.084057 12.38881 1.560096-4.19959-.177285-8.39919-.91838-12.59879-.531849-3.2097-.09623-6.82754.358882-10.28901.602761z" fill="#0014aa" opacity=".294444"/>
      <path d="m24.151813 80.140179c3.659074-.476377 7.859218-.724344 10.498997-1.631008 3.681904.89802 8.207095 1.084057 12.38881 1.560091-4.199598-.17728-8.399193-.918375-12.598791-.531845-3.209697-.09623-6.827539.358883-10.289016.602762z" fill="#0014aa" opacity=".294444"/>
      <path d="m28.151893 87.562c3.659067-.476381 7.859215-.724344 10.498994-1.631008 3.681904.898016 8.207095 1.084057 12.38881 1.560092-4.199598-.177285-8.399193-.91838-12.598792-.531854-3.209696-.09622-6.827538.358887-10.289012.60277z" fill="#0014aa" opacity=".294444"/>
      <path d="m35.657541 82.696289c3.659066-.476377 7.859219-.724344 10.498998-1.631008 3.681902.89802 8.207098 1.084057 12.388809 1.560096-4.199594-.177285-8.399193-.91838-12.598791-.53185-3.209701-.09623-6.827543.358883-10.289016.602762z" fill="#0014aa" opacity=".294444"/>
      <path d="m32.70396 95.200417c3.65907-.476376 7.85922-.724344 10.499-1.631008 3.6819.89802 8.2071 1.084057 12.38881 1.560096-4.1996-.177285-8.39919-.91838-12.59879-.531849-3.2097-.09623-6.82754.358882-10.28902.602761z" fill="#1c52ff" opacity=".294444"/>
      <rect fill="url(#linearGradient8291)" height="30.212458" width="101.97912" x="13.233362" y="76.823875"/>
      <path d="m32.70396 86.311529c3.65907-.476376 7.85922-.724344 10.499-1.631008 3.6819.89802 8.2071 1.084057 12.38881 1.560096-4.1996-.177285-8.39919-.91838-12.59879-.531849-3.2097-.09623-6.82754.358882-10.28902.602761z" fill="#1c52ff" opacity=".294444"/>
      <path d="m20.323991 84.584623c3.659074-.476377 7.859219-.724344 10.498998-1.631008 3.681903.89802 8.207094 1.084057 12.38881 1.560091-4.199599-.17728-8.399194-.918375-12.598792-.531845-3.209697-.09623-6.827539.358883-10.289016.602762z" fill="#1c52ff" opacity=".294444"/>
      <path d="m25.329718 96.029621c3.659067-.476377 7.859219-.724344 10.498999-1.631008 3.6819.89802 8.207099 1.084057 12.38881 1.560096-4.199594-.177285-8.399197-.91838-12.598792-.53185-3.209702-.09623-6.827543.358883-10.289017.602762z" fill="#1c52ff" opacity=".294444"/>
      <rect fill="url(#linearGradient22587)" height="2.448633" opacity=".427778" width="105.02679" x="11.223557" y="76.844902"/>
      <rect fill="url(#linearGradient22589)" height="29.926754" opacity=".522222" width="105.02679" x="11.223557" y="29.085884"/>
      <path d="m-.04466021 80.174298 20.54831121-2.711748 10.382302-.117902 6.272637-2.358042 12.112688 2.82965 11.680094-2.122236 6.272637 3.53706 26.820955 4.244475 4.325959-1.179019 28.118727 1.532725 3.24447-.825313 3.24448 1.296921 64.0242-7.663634 4.97485.707413 27.25356-.353707 6.92152 2.004336 13.19417-1.886433 6.70524.353706v16.152584h-256.09680021z" fill="#0081ff" filter="url(#filter7585)" opacity=".488889" transform="matrix(.4037181 0 0 .4330773 12.048239 26.156697)"/>
    </g>
    <rect fill="url(#linearGradient3012)" height="71.75" opacity=".771863" ry="0" transform="scale(1 -1)" width="96" x="-16.019852" y="-40.764259"/>
    <path d="m-15.019852 12.04674c31.197145 8.203863 65.387552 2.15464 94-11.5315831 0-15.8353609 0-30.1567139 0-30.7508889-1.30357 0-92.696425 0-94 0z" fill="url(#linearGradient24224)" opacity=".5"/>
    <path d="m-16.019852 40.764264v-71.999996h96v71.999996zm1-.947368h94v-70.10526h-94z" fill="url(#linearGradient3002)"/>
  </g>
</svg>
