<svg height="256" width="256" xmlns="http://www.w3.org/2000/svg" xmlns:xlink="http://www.w3.org/1999/xlink">
  <defs>
    <filter id="filter3834" color-interpolation-filters="sRGB" height="1.064318" width="1.080929" x="-.040464" y="-.032159">
      <feGaussianBlur stdDeviation="1.50075"/>
    </filter>
    <filter id="filter3826" color-interpolation-filters="sRGB" height="1.044321" width="1.055874" x="-.027937" y="-.02216">
      <feGaussianBlur stdDeviation="1.036"/>
    </filter>
    <linearGradient id="linearGradient4524-4" gradientTransform="matrix(2 0 0 -2 -7.01182 257.00001)" gradientUnits="userSpaceOnUse" x1="72" x2="72" y1="0" y2="116.40091">
      <stop offset="0" stop-color="#eeecec"/>
      <stop offset=".40000001" stop-color="#f4f4f4"/>
      <stop offset="1" stop-color="#f6f5f5"/>
    </linearGradient>
    <filter id="filter1164" color-interpolation-filters="sRGB" height="1.096" width="1.090435" x="-.045217" y="-.048">
      <feGaussianBlur stdDeviation=".65000024"/>
    </filter>
    <radialGradient id="radialGradient5988-0" cx="64" cy="64.004021" fx="63.793392" fy="47.274845" gradientTransform="matrix(3.368421 .16859038 .13772678 -2.7517692 -103.40582 294.32648)" gradientUnits="userSpaceOnUse" r="47.5">
      <stop offset="0" stop-color="#fff"/>
      <stop offset="1" stop-color="#fff" stop-opacity="0"/>
    </radialGradient>
    <clipPath id="clipPath6093-7">
      <path d="m17.000001 8-.000001 112h61.5c1.675283 0 3.914297-.56468 7-3.6 8.870045-8.72523 16.24047-13.8518 23.49904-21.175957 2.44056-2.462612 3.00096-4.47117 3.00096-6.724043v-80.5z"/>
    </clipPath>
    <filter id="filter6171-8" color-interpolation-filters="sRGB" height="2.02159" width="1.956141" x="-.47807" y="-.510795">
      <feGaussianBlur stdDeviation="10.140743"/>
    </filter>
    <linearGradient id="linearGradient3895-3" gradientTransform="matrix(2.0239716 0 0 -2.0239716 -.8029 246.97433)" gradientUnits="userSpaceOnUse" x1="86.73793" x2="93.189758" y1="93.621468" y2="100.45876">
      <stop offset="0" stop-color="#fcfcfc"/>
      <stop offset=".52275378" stop-color="#f8f8f8"/>
      <stop offset=".72337759" stop-color="#f0efef"/>
      <stop offset=".89024991" stop-color="#e3e1e1"/>
      <stop offset="1" stop-color="#cecbcb"/>
    </linearGradient>
    <radialGradient id="radialGradient28309" cx="28.001314" cy="56.207787" gradientTransform="matrix(2.9549017 -2.0783631 3.0419242 4.3248396 -186.91964 3.124094)" gradientUnits="userSpaceOnUse" r="8.46875" xlink:href="#linearGradient1573"/>
    <linearGradient id="linearGradient1573">
      <stop offset="0" stop-color="#9200e9"/>
      <stop offset="1" stop-color="#b12cff"/>
    </linearGradient>
    <linearGradient id="linearGradient28333" gradientUnits="userSpaceOnUse" x1="81.56670735559" x2="55.74585454133" xlink:href="#linearGradient4093" y1="206.32481415327" y2="109.57312338344"/>
    <linearGradient id="linearGradient4093">
      <stop offset="0" stop-color="#780ede"/>
      <stop offset="1" stop-color="#dfbbfb"/>
    </linearGradient>
    <radialGradient id="radialGradient28301" cx="68.736229" cy="50.561504" gradientTransform="matrix(1.6894153 0 0 1.8974213 9.996076 77.442944)" gradientUnits="userSpaceOnUse" r="15.609375" xlink:href="#linearGradient1573"/>
    <linearGradient id="linearGradient28325" gradientUnits="userSpaceOnUse" x1="134.73049507746" x2="107.47927852648" xlink:href="#linearGradient4093" y1="187.14529278029" y2="137.97283824367"/>
    <radialGradient id="radialGradient28217" cx="94.711075" cy="50.267197" gradientTransform="matrix(1.6894153 0 0 5.9503575 9.996076 -102.47656)" gradientUnits="userSpaceOnUse" r="8.46875" xlink:href="#linearGradient1573"/>
    <linearGradient id="linearGradient28317" gradientUnits="userSpaceOnUse" x1="174.14674857694" x2="146.3514896169" xlink:href="#linearGradient4093" y1="206.83351230484" y2="114.27359708796"/>
    <filter id="filter30445" color-interpolation-filters="sRGB" height="1.21648" width="1.448138" x="-.224069" y="-.10824">
      <feGaussianBlur stdDeviation="1.5813187"/>
    </filter>
  </defs>
  <path d="m-128.8111-19.056071v112h56.187504c5.114947-.238308 32.613203-27.078301 32.775-30.612499.08138-25.126708.0375-56.2589983.0375-81.387501z" filter="url(#filter3834)" opacity=".262376" transform="matrix(2 0 0 -2 296.61038 201.88787)"/>
  <path d="m-128.8111-19.556071v112.2h55.746422c3.098719 0 24.709876-18.512112 30.003672-24.699929 1.602664-1.873324 3.24991-3.03751 3.24991-7.20007v-80.300001z" fill-opacity=".700535" filter="url(#filter3826)" transform="matrix(2 0 0 -2 296.61038 201.88787)"/>
  <path d="m38.98818 241.00001v-223.999998h111.00001c3.35056 0 7.82859 1.12936 14 7.2 17.74009 17.45046 32.48094 27.703618 46.99808 42.351918 4.88112 4.92522 6.00192 8.94234 6.00192 13.44808v161z" fill="#fff" stroke-width="2"/>
  <path d="m41.98818 239.00001c-.67968 0-1-.46923-1-1v-215.937498c0-1.64316 1.35864-3 3-3h103.37501c.10614 0 1.62077-.0468 3-.0626 3.55533.0802 6.26395 1.50748 8.71207 3.18656 2.10373.58206 33.29967 27.239178 51.54191 45.618478 2.72478 2.74524 4.37092 7.89634 4.37092 9.79122l.0001 160.40384c0 .64544-.32644 1-1 1z" fill="url(#linearGradient4524-4)" stroke-width="2"/>
  <path d="m41.98818 239.00001c-.67968 0-1-.46923-1-1v-215.937498c0-1.64316 1.35864-2.999022 3-3l105.00001-.0626c.10614-.000064 6.54777.016 7.927-.0001 13.08194 9.00722 37.2746 31.906578 55.16506 49.910198 2.9537 3.31296.9152.74012 2.90782 3.2149l.00012 165.875c0 .64544-.32644 1-1 1z" fill="url(#radialGradient5988-0)" opacity=".846535" stroke-width="2"/>
  <path d="m168.37695 86.000001h35.62305m-49.62305 0h10.79102m-35.16797 0h21.16797m-38.6582 0h14.39257m-40.12695 0h22.52734m-32.79296 0h7.05859m-15.05859 0h4.79296m-21.30273 0h13.30273m5.86524-12h-19.16797m28.90234 0h-6.52539m23.99414 0h-14.26172m26.79297 0h-9.32421m23.32421 0h-10.79101m23.58984 0h-9.58984m31.58984 0h-18.79297m36.79297 0h-14.79297m22.25977 0h-4.25977m23.0918 0h-15.62305m-27.07031-12h18.69336m-37.22461 0h15.32422m-30.39453 0h11.86328m-32.12891 0h17.0586m-49.98243 0h29.7168m-52.23242 0h19.30859m-5.74804-12h-13.56055m32.35742 0h-15.58984m43.1914 0h-24.39453m31.9961 0h-4.39453m23.99609 0h-16.39453m25.86328 0h-6.26172m29.73047 0h-20.26172m-.6582-12h16.26172m-19.46875 0h-18.12696m-14.26758 0h11.0586m-31.32422 0h17.05859m-23.99414 0h3.72852m-30.66602 0h23.73047m-33.16992 0h6.23242" fill="none" stroke="#b6b6b6" stroke-width="6"/>
  <path d="m-39.811096 59.94691c0 4.46531-3.067448 5.978576-5.549678 7.662246-5.10854 3.46508-13.669156 1.756744-19.450326 1.837764-.081 5.78116 1.723142 12.231893-1.741938 17.340433-1.68367 2.48224-4.847792 5.659577-7.758062 5.659577 2.31803 0 4.74284-1.334761 7.58402-4.084811 9.14197-8.84873 14.36714-11.135349 22.673154-20.297529 1.91895-2.11675 4.24283-3.64188 4.24283-8.11768z" filter="url(#filter1164)" opacity=".4" transform="matrix(2 0 0 -2 296.61038 201.88787)"/>
  <path clip-path="url(#clipPath6093-7)" d="m114.4 82.502986c0 4.465301-4.99749 12.609952-7.47972 14.293625-5.10854 3.465079-12.739114 1.52536-18.520284 1.60638-.081 5.781159 1.96586 11.304599-1.49922 16.413139-1.68367 2.48224-9.79051 8.68687-12.70078 8.68687-2.091359 1.5337 3.488204 8.21101 6.734971 5.31989 9.501888-8.46107 35.131683-30.022704 43.350823-39.262889 2.04044-2.29392-4.90514-9.844666-9.88579-7.057015z" filter="url(#filter6171-8)" opacity=".277228" transform="matrix(2 0 0 -2 -7.01182 257.00001)"/>
  <path d="m216.98819 79.99405c0-8.93062-5.59498-12.81992-10.55944-16.18726-10.21708-6.93016-21.87823-6.65072-33.44057-6.81276-.162-11.56232.33172-19.009198-6.59844-29.226278-3.36734-4.96448-10.58102-10.773742-16.40156-10.773742 4.63606 0 8.88785 3.363424 15.16804 8.169622 19.0787 14.60084 26.40937 20.968606 43.34631 38.595058 3.95915 4.12033 8.48566 7.28376 8.48566 16.23536z" fill="url(#linearGradient3895-3)"/>
  <path d="m217.02569 78.57501c-.63286-7.7982-7.04582-11.80562-11.7-14.9625-10.21708-6.93016-22.67516-4.65046-34.2375-4.8125-.162-11.56232 1.70516-20.632918-5.225-30.849998-2.94642-4.34392-8.19891-9.3202-13.525-10.500002 3.96092.724602 7.76986 3.322782 12.5375 7.937502.67823.77706 1.14859 1.3579 2.2125 3 6.93016 10.21708 5.84737 16.931438 6.00937 28.493758 11.56234.162 23.43605-.42392 33.65313 6.50624.93084.63138 3.18798 2.3755 4.0125 3.2 3.07258 3.07258 5.80342 5.22684 6.2625 11.9875zm-64.6875-61.125c-.31532-.0698-.62688-.0828-.9375-.125.31398.0338.62088.067.9375.125z" fill="#fff"/>
  <g transform="translate(12.865133 2.835745)">
    <path d="m26.954979 74.202065v-59.65625h16.9375v5.9375h-8.625v47.75h8.625v5.96875z" filter="url(#filter30445)" transform="matrix(1.6894153 0 0 1.6894153 13.596076 90.198241)"/>
    <path d="m63.236229 61.545815q-7.6875 0-11.875-4.5625-4.1875-4.59375-4.1875-12.78125 0-8.375 4.21875-13.03125 4.21875-4.6875 11.96875-4.6875 5.96875 0 9.875 3 3.90625 3 4.90625 8.28125l-8.84375.4375q-.375-2.59375-1.875-4.125-1.5-1.5625-4.25-1.5625-6.78125 0-6.78125 11.34375 0 11.6875 6.90625 11.6875 2.5 0 4.1875-1.5625 1.6875-1.59375 2.09375-4.71875l8.8125.40625q-.46875 3.46875-2.5 6.1875-2 2.71875-5.28125 4.21875-3.28125 1.46875-7.375 1.46875z" filter="url(#filter30445)" transform="matrix(1.6894153 0 0 1.6894153 13.596076 90.198241)"/>
    <path d="m81.048729 74.202065v-5.96875h8.6875v-47.75h-8.6875v-5.9375h16.9375v59.65625z" filter="url(#filter30445)" transform="matrix(1.6894153 0 0 1.6894153 13.596076 90.198241)"/>
    <path d="m55.53423 211.95634v-100.78418h28.614471v10.03091h-14.571206v80.66958h14.571206v10.08369z" fill="url(#radialGradient28309)" stroke="url(#linearGradient28333)" stroke-width="1.68942"/>
    <path d="m116.82833 190.57468q-12.98738 0-20.061808-7.70795-7.074427-7.76076-7.074427-21.59284 0-14.14886 7.127221-22.0152 7.127224-7.91913 20.220194-7.91913 10.08369 0 16.68297 5.06824 6.59928 5.06825 8.2887 13.99047l-14.94077.73912q-.63353-4.38192-3.16765-6.96883-2.53413-2.63972-7.18002-2.63972-11.45635 0-11.45635 19.16431 0 19.74504 11.66753 19.74504 4.22354 0 7.07442-2.63971 2.85089-2.69251 3.53722-7.97193l14.88797.68633q-.79191 5.86016-4.22354 10.45325-3.37883 4.5931-8.92222 7.12722-5.5434 2.48133-12.45944 2.48133z" fill="url(#radialGradient28301)" stroke="url(#linearGradient28325)" stroke-width="1.68942"/>
    <path d="m146.92104 211.95634v-10.08369h14.67679v-80.66958h-14.67679v-10.03091h28.61447v100.78418z" fill="url(#radialGradient28217)" stroke="url(#linearGradient28317)" stroke-width="1.68942"/>
  </g>
</svg>
