<svg height="256" width="256" xmlns="http://www.w3.org/2000/svg" xmlns:xlink="http://www.w3.org/1999/xlink">
  <defs>
    <filter id="filter3834" color-interpolation-filters="sRGB" height="1.064318" width="1.080929" x="-.040464" y="-.032159">
      <feGaussianBlur stdDeviation="1.50075"/>
    </filter>
    <filter id="filter3826" color-interpolation-filters="sRGB" height="1.044321" width="1.055874" x="-.027937" y="-.02216">
      <feGaussianBlur stdDeviation="1.036"/>
    </filter>
    <linearGradient id="linearGradient4524-4" gradientTransform="matrix(2 0 0 -2 -7.01182 257.00001)" gradientUnits="userSpaceOnUse" x1="72" x2="72" y1="0" y2="116.40091">
      <stop offset="0" stop-color="#eeecec"/>
      <stop offset=".40000001" stop-color="#f4f4f4"/>
      <stop offset="1" stop-color="#f6f5f5"/>
    </linearGradient>
    <filter id="filter1164" color-interpolation-filters="sRGB" height="1.096" width="1.090435" x="-.045217" y="-.048">
      <feGaussianBlur stdDeviation=".65000024"/>
    </filter>
    <radialGradient id="radialGradient5988-0" cx="64" cy="64.004021" fx="63.793392" fy="47.274845" gradientTransform="matrix(3.368421 .16859038 .13772678 -2.7517692 -103.40582 294.32648)" gradientUnits="userSpaceOnUse" r="47.5">
      <stop offset="0" stop-color="#fff"/>
      <stop offset="1" stop-color="#fff" stop-opacity="0"/>
    </radialGradient>
    <clipPath id="clipPath6093-7">
      <path d="m17.000001 8-.000001 112h61.5c1.675283 0 3.914297-.56468 7-3.6 8.870045-8.72523 16.24047-13.8518 23.49904-21.175957 2.44056-2.462612 3.00096-4.47117 3.00096-6.724043v-80.5z"/>
    </clipPath>
    <filter id="filter6171-8" color-interpolation-filters="sRGB" height="2.02159" width="1.956141" x="-.47807" y="-.510795">
      <feGaussianBlur stdDeviation="10.140743"/>
    </filter>
    <linearGradient id="linearGradient3895-3" gradientTransform="matrix(2.0239716 0 0 -2.0239716 -.8029 246.97433)" gradientUnits="userSpaceOnUse" x1="86.73793" x2="93.189758" y1="93.621468" y2="100.45876">
      <stop offset="0" stop-color="#fcfcfc"/>
      <stop offset=".52275378" stop-color="#f8f8f8"/>
      <stop offset=".72337759" stop-color="#f0efef"/>
      <stop offset=".89024991" stop-color="#e3e1e1"/>
      <stop offset="1" stop-color="#cecbcb"/>
    </linearGradient>
    <filter id="filter969" color-interpolation-filters="sRGB" height="1.113791" width="1.125479" x="-.06274" y="-.056896">
      <feGaussianBlur stdDeviation="1.1850624"/>
    </filter>
    <radialGradient id="radialGradient943" cx="-28.015547" cy="92.6269" gradientTransform="matrix(1.8 0 0 1.9848861 191.15937 4.314582)" gradientUnits="userSpaceOnUse" r="22.666328">
      <stop offset="0" stop-color="#5730b7"/>
      <stop offset="1" stop-color="#6d42dd"/>
    </radialGradient>
    <linearGradient id="linearGradient957" gradientUnits="userSpaceOnUse" x1="97.8787638" x2="153.7699572" y1="122.8833858" y2="210.538767">
      <stop offset="0" stop-color="#b398fb"/>
      <stop offset="1" stop-color="#a557f5"/>
    </linearGradient>
  </defs>
  <path d="m-128.8111-19.056071v112h56.187504c5.114947-.238308 32.613203-27.078301 32.775-30.612499.08138-25.126708.0375-56.2589983.0375-81.387501z" filter="url(#filter3834)" opacity=".262376" transform="matrix(2 0 0 -2 296.61038 201.88787)"/>
  <path d="m-128.8111-19.556071v112.2h55.746422c3.098719 0 24.709876-18.512112 30.003672-24.699929 1.602664-1.873324 3.24991-3.03751 3.24991-7.20007v-80.300001z" fill-opacity=".700535" filter="url(#filter3826)" transform="matrix(2 0 0 -2 296.61038 201.88787)"/>
  <path d="m38.98818 241.00001v-223.999998h111.00001c3.35056 0 7.82859 1.12936 14 7.2 17.74009 17.45046 32.48094 27.703618 46.99808 42.351918 4.88112 4.92522 6.00192 8.94234 6.00192 13.44808v161z" fill="#fff" stroke-width="2"/>
  <path d="m41.98818 239.00001c-.67968 0-1-.46923-1-1v-215.937498c0-1.64316 1.35864-3 3-3h103.37501c.10614 0 1.62077-.0468 3-.0626 3.55533.0802 6.26395 1.50748 8.71207 3.18656 2.10373.58206 33.29967 27.239178 51.54191 45.618478 2.72478 2.74524 4.37092 7.89634 4.37092 9.79122l.0001 160.40384c0 .64544-.32644 1-1 1z" fill="url(#linearGradient4524-4)" stroke-width="2"/>
  <path d="m41.98818 239.00001c-.67968 0-1-.46923-1-1v-215.937498c0-1.64316 1.35864-2.999022 3-3l105.00001-.0626c.10614-.000064 6.54777.016 7.927-.0001 13.08194 9.00722 37.2746 31.906578 55.16506 49.910198 2.9537 3.31296.9152.74012 2.90782 3.2149l.00012 165.875c0 .64544-.32644 1-1 1z" fill="url(#radialGradient5988-0)" opacity=".846535" stroke-width="2"/>
  <path d="m168.37695 86.000001h35.62305m-49.62305 0h10.79102m-35.16797 0h21.16797m-38.6582 0h14.39257m-40.12695 0h22.52734m-32.79296 0h7.05859m-15.05859 0h4.79296m-21.30273 0h13.30273m5.86524-12h-19.16797m28.90234 0h-6.52539m23.99414 0h-14.26172m26.79297 0h-9.32421m23.32421 0h-10.79101m23.58984 0h-9.58984m31.58984 0h-18.79297m36.79297 0h-14.79297m22.25977 0h-4.25977m23.0918 0h-15.62305m-27.07031-12h18.69336m-37.22461 0h15.32422m-30.39453 0h11.86328m-32.12891 0h17.0586m-49.98243 0h29.7168m-52.23242 0h19.30859m-5.74804-12h-13.56055m32.35742 0h-15.58984m43.1914 0h-24.39453m31.9961 0h-4.39453m23.99609 0h-16.39453m25.86328 0h-6.26172m29.73047 0h-20.26172m-.6582-12h16.26172m-19.46875 0h-18.12696m-14.26758 0h11.0586m-31.32422 0h17.05859m-23.99414 0h3.72852m-30.66602 0h23.73047m-33.16992 0h6.23242" fill="none" stroke="#b6b6b6" stroke-width="6"/>
  <path d="m-39.811096 59.94691c0 4.46531-3.067448 5.978576-5.549678 7.662246-5.10854 3.46508-13.669156 1.756744-19.450326 1.837764-.081 5.78116 1.723142 12.231893-1.741938 17.340433-1.68367 2.48224-4.847792 5.659577-7.758062 5.659577 2.31803 0 4.74284-1.334761 7.58402-4.084811 9.14197-8.84873 14.36714-11.135349 22.673154-20.297529 1.91895-2.11675 4.24283-3.64188 4.24283-8.11768z" filter="url(#filter1164)" opacity=".4" transform="matrix(2 0 0 -2 296.61038 201.88787)"/>
  <path clip-path="url(#clipPath6093-7)" d="m114.4 82.502986c0 4.465301-4.99749 12.609952-7.47972 14.293625-5.10854 3.465079-12.739114 1.52536-18.520284 1.60638-.081 5.781159 1.96586 11.304599-1.49922 16.413139-1.68367 2.48224-9.79051 8.68687-12.70078 8.68687-2.091359 1.5337 3.488204 8.21101 6.734971 5.31989 9.501888-8.46107 35.131683-30.022704 43.350823-39.262889 2.04044-2.29392-4.90514-9.844666-9.88579-7.057015z" filter="url(#filter6171-8)" opacity=".277228" transform="matrix(2 0 0 -2 -7.01182 257.00001)"/>
  <path d="m216.98819 79.99405c0-8.93062-5.59498-12.81992-10.55944-16.18726-10.21708-6.93016-21.87823-6.65072-33.44057-6.81276-.162-11.56232.33172-19.009198-6.59844-29.226278-3.36734-4.96448-10.58102-10.773742-16.40156-10.773742 4.63606 0 8.88785 3.363424 15.16804 8.169622 19.0787 14.60084 26.40937 20.968606 43.34631 38.595058 3.95915 4.12033 8.48566 7.28376 8.48566 16.23536z" fill="url(#linearGradient3895-3)"/>
  <path d="m217.02569 78.57501c-.63286-7.7982-7.04582-11.80562-11.7-14.9625-10.21708-6.93016-22.67516-4.65046-34.2375-4.8125-.162-11.56232 1.70516-20.632918-5.225-30.849998-2.94642-4.34392-8.19891-9.3202-13.525-10.500002 3.96092.724602 7.76986 3.322782 12.5375 7.937502.67823.77706 1.14859 1.3579 2.2125 3 6.93016 10.21708 5.84737 16.931438 6.00937 28.493758 11.56234.162 23.43605-.42392 33.65313 6.50624.93084.63138 3.18798 2.3755 4.0125 3.2 3.07258 3.07258 5.80342 5.22684 6.2625 11.9875zm-64.6875-61.125c-.31532-.0698-.62688-.0828-.9375-.125.31398.0338.62088.067.9375.125z" fill="#fff"/>
  <path d="m144.28133 177.97301-1.07329-45.52966c-3.1248 1.17131-5.56544 3.00424-7.32191 5.49879-1.73688 2.49553-2.60531 5.59828-2.60531 9.30824 0 .8459.0436 1.54035.13085 2.08337.10782.52047.21613.94342.32493 1.26884.1088.30385.20682.54252.29405.71602.10782.17349.16173.32541.16173.45578-1.14975 0-2.16913-.10831-3.05815-.32493-.89-.23916-1.63885-.6082-2.24656-1.10711-.58615-.49793-1.04193-1.15955-1.36735-1.98486-.30385-.82334-.45578-1.84273-.45578-3.05815 0-1.47516.31415-2.92876.94244-4.3608.65084-1.43106 1.52956-2.78713 2.63618-4.06822 1.12819-1.27913 2.44113-2.46122 3.93884-3.54628 1.51927-1.08505 3.13558-2.01818 4.84893-2.79938 1.73491-.80277 3.5355-1.42077 5.40175-1.854 1.88782-.45677 3.76486-.68515 5.63111-.68515.49891 0 .9547.0108 1.36735.0324.43324.0216.86648.0539 1.29971.097l.58664 41.00567 14.02632-40.8116h4.65339l-18.51651 49.66552z" filter="url(#filter969)" transform="matrix(1.8 0 0 1.8 -139.51557 -107.36401)"/>
  <path d="m116.59083 209.38741-1.93192-81.95339c-5.62464 2.10836-10.0178 5.40763-13.17944 9.89782-3.126388 4.49195-4.689558 10.0769-4.689558 16.75483 0 1.52262.0785 2.77263.23553 3.75007.19408.93684.38903 1.69815.58487 2.28391.19584.54693.37228.97654.52929 1.28884.19408.31228.29112.58573.29112.8204-2.06955 0-3.90444-.19496-5.50467-.58487-1.602-.43049-2.94993-1.09476-4.04381-1.9928-1.05507-.89628-1.87547-2.08719-2.46123-3.57275-.54693-1.48201-.8204-3.31691-.8204-5.50467 0-2.65529.56547-5.27177 1.69639-7.84944 1.17151-2.57591 2.75321-5.01683 4.74512-7.3228 2.03074-2.30243 4.39404-4.43019 7.08991-6.3833 2.734688-1.95309 5.644048-3.63272 8.728078-5.03888 3.12284-1.44499 6.3639-2.55739 9.72315-3.3372 3.39807-.82219 6.77675-1.23327 10.136-1.23327.89803 0 1.71846.0194 2.46123.0581.77983.0389 1.55966.097 2.33947.1746l1.05596 73.8102 25.24737-73.46088h8.3761l-33.32971 89.39794z" fill="url(#radialGradient943)" stroke="url(#linearGradient957)" stroke-linecap="square" stroke-width="2.646"/>
</svg>
