<svg height="256" width="256" xmlns="http://www.w3.org/2000/svg" xmlns:xlink="http://www.w3.org/1999/xlink">
  <defs>
    <filter id="filter3834" color-interpolation-filters="sRGB" height="1.064318" width="1.080929" x="-.040464" y="-.032159">
      <feGaussianBlur stdDeviation="1.50075"/>
    </filter>
    <filter id="filter3826" color-interpolation-filters="sRGB" height="1.044321" width="1.055874" x="-.027937" y="-.02216">
      <feGaussianBlur stdDeviation="1.036"/>
    </filter>
    <linearGradient id="linearGradient4524-4" gradientTransform="matrix(2 0 0 -2 -7.01182 257.00001)" gradientUnits="userSpaceOnUse" x1="72" x2="72" y1="0" y2="116.40091">
      <stop offset="0" stop-color="#eeecec"/>
      <stop offset=".40000001" stop-color="#f4f4f4"/>
      <stop offset="1" stop-color="#f6f5f5"/>
    </linearGradient>
    <filter id="filter1164" color-interpolation-filters="sRGB" height="1.096" width="1.090435" x="-.045217" y="-.048">
      <feGaussianBlur stdDeviation=".65000024"/>
    </filter>
    <radialGradient id="radialGradient5988-0" cx="64" cy="64.004021" fx="63.793392" fy="47.274845" gradientTransform="matrix(3.368421 .16859038 .13772678 -2.7517692 -103.40582 294.32648)" gradientUnits="userSpaceOnUse" r="47.5">
      <stop offset="0" stop-color="#fff"/>
      <stop offset="1" stop-color="#fff" stop-opacity="0"/>
    </radialGradient>
    <clipPath id="clipPath6093-7">
      <path d="m17.000001 8-.000001 112h61.5c1.675283 0 3.914297-.56468 7-3.6 8.870045-8.72523 16.24047-13.8518 23.49904-21.175957 2.44056-2.462612 3.00096-4.47117 3.00096-6.724043v-80.5z"/>
    </clipPath>
    <filter id="filter6171-8" color-interpolation-filters="sRGB" height="2.02159" width="1.956141" x="-.47807" y="-.510795">
      <feGaussianBlur stdDeviation="10.140743"/>
    </filter>
    <linearGradient id="linearGradient3895-3" gradientTransform="matrix(2.0239716 0 0 -2.0239716 -.8029 246.97433)" gradientUnits="userSpaceOnUse" x1="86.73793" x2="93.189758" y1="93.621468" y2="100.45876">
      <stop offset="0" stop-color="#fcfcfc"/>
      <stop offset=".52275378" stop-color="#f8f8f8"/>
      <stop offset=".72337759" stop-color="#f0efef"/>
      <stop offset=".89024991" stop-color="#e3e1e1"/>
      <stop offset="1" stop-color="#cecbcb"/>
    </linearGradient>
    <filter id="filter2600" color-interpolation-filters="sRGB" height="1.443832" width="1.240677" x="-.120339" y="-.221916">
      <feGaussianBlur stdDeviation="2.4423174"/>
    </filter>
    <radialGradient id="radialGradient5377" cx="196.57788" cy="308.96252" gradientTransform="matrix(.12263648 0 0 .19389804 39.282078 22.04428)" gradientUnits="userSpaceOnUse" r="166.12347">
      <stop offset="0" stop-color="#aee9f1"/>
      <stop offset="1" stop-color="#6ad7e5" stop-opacity=".989196"/>
    </radialGradient>
  </defs>
  <path d="m-128.8111-19.056071v112h56.187504c5.114947-.238308 32.613203-27.078301 32.775-30.612499.08138-25.126708.0375-56.2589983.0375-81.387501z" filter="url(#filter3834)" opacity=".262376" transform="matrix(2 0 0 -2 296.61038 201.88787)"/>
  <path d="m-128.8111-19.556071v112.2h55.746422c3.098719 0 24.709876-18.512112 30.003672-24.699929 1.602664-1.873324 3.24991-3.03751 3.24991-7.20007v-80.300001z" fill-opacity=".700535" filter="url(#filter3826)" transform="matrix(2 0 0 -2 296.61038 201.88787)"/>
  <path d="m38.98818 241.00001v-223.999998h111.00001c3.35056 0 7.82859 1.12936 14 7.2 17.74009 17.45046 32.48094 27.703618 46.99808 42.351918 4.88112 4.92522 6.00192 8.94234 6.00192 13.44808v161z" fill="#fff" stroke-width="2"/>
  <path d="m41.98818 239.00001c-.67968 0-1-.46923-1-1v-215.937498c0-1.64316 1.35864-3 3-3h103.37501c.10614 0 1.62077-.0468 3-.0626 3.55533.0802 6.26395 1.50748 8.71207 3.18656 2.10373.58206 33.29967 27.239178 51.54191 45.618478 2.72478 2.74524 4.37092 7.89634 4.37092 9.79122l.0001 160.40384c0 .64544-.32644 1-1 1z" fill="url(#linearGradient4524-4)" stroke-width="2"/>
  <path d="m41.98818 239.00001c-.67968 0-1-.46923-1-1v-215.937498c0-1.64316 1.35864-2.999022 3-3l105.00001-.0626c.10614-.000064 6.54777.016 7.927-.0001 13.08194 9.00722 37.2746 31.906578 55.16506 49.910198 2.9537 3.31296.9152.74012 2.90782 3.2149l.00012 165.875c0 .64544-.32644 1-1 1z" fill="url(#radialGradient5988-0)" opacity=".846535" stroke-width="2"/>
  <path d="m168.37695 86.000001h35.62305m-49.62305 0h10.79102m-35.16797 0h21.16797m-38.6582 0h14.39257m-40.12695 0h22.52734m-32.79296 0h7.05859m-15.05859 0h4.79296m-21.30273 0h13.30273m5.86524-12h-19.16797m28.90234 0h-6.52539m23.99414 0h-14.26172m26.79297 0h-9.32421m23.32421 0h-10.79101m23.58984 0h-9.58984m31.58984 0h-18.79297m36.79297 0h-14.79297m22.25977 0h-4.25977m23.0918 0h-15.62305m-27.07031-12h18.69336m-37.22461 0h15.32422m-30.39453 0h11.86328m-32.12891 0h17.0586m-49.98243 0h29.7168m-52.23242 0h19.30859m-5.74804-12h-13.56055m32.35742 0h-15.58984m43.1914 0h-24.39453m31.9961 0h-4.39453m23.99609 0h-16.39453m25.86328 0h-6.26172m29.73047 0h-20.26172m-.6582-12h16.26172m-19.46875 0h-18.12696m-14.26758 0h11.0586m-31.32422 0h17.05859m-23.99414 0h3.72852m-30.66602 0h23.73047m-33.16992 0h6.23242" fill="none" stroke="#b6b6b6" stroke-width="6"/>
  <path d="m-39.811096 59.94691c0 4.46531-3.067448 5.978576-5.549678 7.662246-5.10854 3.46508-13.669156 1.756744-19.450326 1.837764-.081 5.78116 1.723142 12.231893-1.741938 17.340433-1.68367 2.48224-4.847792 5.659577-7.758062 5.659577 2.31803 0 4.74284-1.334761 7.58402-4.084811 9.14197-8.84873 14.36714-11.135349 22.673154-20.297529 1.91895-2.11675 4.24283-3.64188 4.24283-8.11768z" filter="url(#filter1164)" opacity=".4" transform="matrix(2 0 0 -2 296.61038 201.88787)"/>
  <path clip-path="url(#clipPath6093-7)" d="m114.4 82.502986c0 4.465301-4.99749 12.609952-7.47972 14.293625-5.10854 3.465079-12.739114 1.52536-18.520284 1.60638-.081 5.781159 1.96586 11.304599-1.49922 16.413139-1.68367 2.48224-9.79051 8.68687-12.70078 8.68687-2.091359 1.5337 3.488204 8.21101 6.734971 5.31989 9.501888-8.46107 35.131683-30.022704 43.350823-39.262889 2.04044-2.29392-4.90514-9.844666-9.88579-7.057015z" filter="url(#filter6171-8)" opacity=".277228" transform="matrix(2 0 0 -2 -7.01182 257.00001)"/>
  <path d="m216.98819 79.99405c0-8.93062-5.59498-12.81992-10.55944-16.18726-10.21708-6.93016-21.87823-6.65072-33.44057-6.81276-.162-11.56232.33172-19.009198-6.59844-29.226278-3.36734-4.96448-10.58102-10.773742-16.40156-10.773742 4.63606 0 8.88785 3.363424 15.16804 8.169622 19.0787 14.60084 26.40937 20.968606 43.34631 38.595058 3.95915 4.12033 8.48566 7.28376 8.48566 16.23536z" fill="url(#linearGradient3895-3)"/>
  <path d="m217.02569 78.57501c-.63286-7.7982-7.04582-11.80562-11.7-14.9625-10.21708-6.93016-22.67516-4.65046-34.2375-4.8125-.162-11.56232 1.70516-20.632918-5.225-30.849998-2.94642-4.34392-8.19891-9.3202-13.525-10.500002 3.96092.724602 7.76986 3.322782 12.5375 7.937502.67823.77706 1.14859 1.3579 2.2125 3 6.93016 10.21708 5.84737 16.931438 6.00937 28.493758 11.56234.162 23.43605-.42392 33.65313 6.50624.93084.63138 3.18798 2.3755 4.0125 3.2 3.07258 3.07258 5.80342 5.22684 6.2625 11.9875zm-64.6875-61.125c-.31532-.0698-.62688-.0828-.9375-.125.31398.0338.62088.067.9375.125z" fill="#fff"/>
  <g transform="matrix(1.8 0 0 1.8 12.800003 23.924894)">
    <ellipse cx="64" cy="98" fill="#00000b" filter="url(#filter2600)" opacity=".364" rx="24.354433" ry="13.206704"/>
    <path d="m40.586194 78.441063c.0937 1.931647 2.02338 1.037872 2.89741.43401.829636-.573325 1.072211-.09676 1.145057-1.228204.04771-.743668.133428-1.487335.09124-2.233946-1.254571-.113684-2.619147.185058-3.647699.932282-.52979.384956-1.523145 1.613651-.486009 2.095858" style="clip-rule:evenodd;fill:#f6d2a2;fill-rule:evenodd;stroke:#000;stroke-width:.367909;stroke-linecap:round"/>
    <path d="m40.586194 78.441063c.280838-.104486.578477-.178682.769054-.432662" style="clip-rule:evenodd;fill:#c6b198;fill-rule:evenodd;stroke:#000;stroke-width:.367909;stroke-linecap:round"/>
    <path d="m45.045625 55.429554c-7.394612-2.079424-1.896083-11.486624 4.041975-7.61732z" style="clip-rule:evenodd;fill:#6ad7e5;fill-rule:evenodd;stroke:#000;stroke-width:.367909;stroke-linecap:round"/>
    <path d="m77.899692 47.106338c5.853072-4.111142 11.14226 5.164345 4.33986 7.498117z" style="clip-rule:evenodd;fill:#6ad7e5;fill-rule:evenodd;stroke:#000;stroke-width:.367909;stroke-linecap:round"/>
    <path d="m79.158678 102.21414c1.486723.9199 4.204224 3.70142 1.973957 5.05017-2.14295 1.96207-3.342334-2.15361-5.22321-2.72387.810014-1.10005 1.836726-2.1031 3.249253-2.3263z" style="clip-rule:evenodd;fill:#f6d2a2;fill-rule:evenodd;stroke:#000;stroke-width:.367909;stroke-linecap:round"/>
    <path clip-rule="evenodd" d="m81.132635 107.26419c-.330628-.65745-.441614-1.42479-.993601-1.9547" fill="none" stroke="#000" stroke-linecap="round" stroke-width=".367909"/>
    <path d="m52.597824 105.35756c-1.744994.27005-2.72719 1.84433-4.181904 2.6438-1.37083.81737-1.895224-.26171-2.018719-.48074-.214859-.098-.196831.0913-.52844-.24269-1.27076-2.0056 1.324106-3.4716 2.675315-4.46789 1.881979-.38042 3.061374 1.25113 4.053748 2.54752z" style="clip-rule:evenodd;fill:#f6d2a2;fill-rule:evenodd;stroke:#000;stroke-width:.367909;stroke-linecap:round"/>
    <path clip-rule="evenodd" d="m46.397324 107.5205c.06647-.76439.672538-1.27628.961225-1.92257" fill="none" stroke="#000" stroke-linecap="round" stroke-width=".367909"/>
    <path clip-rule="evenodd" d="m45.354178 52.831377c-.975573-.516054-1.69128-1.216922-1.094531-2.3453.552478-1.044617 1.578822-.931179 2.554518-.415124z" fill-rule="evenodd" stroke-width=".122636"/>
    <path clip-rule="evenodd" d="m80.698379 51.850285c.975574-.516054 1.69128-1.216921 1.094531-2.3453-.552477-1.044617-1.578822-.931178-2.554518-.415124z" fill-rule="evenodd" stroke-width=".122636"/>
    <path d="m87.41383 78.19579c-.09369 1.931647-2.023379 1.037872-2.897409.43401-.829636-.573325-1.072211-.09676-1.145057-1.228204-.0477-.743668-.133428-1.487335-.09124-2.233946 1.254571-.113684 2.619147.185058 3.647699.932282.529667.384956 1.523145 1.613651.486008 2.095858" style="clip-rule:evenodd;fill:#f6d2a2;fill-rule:evenodd;stroke:#000;stroke-width:.367909;stroke-linecap:round"/>
    <path d="m87.41383 78.19579c-.280837-.104486-.578476-.178682-.769053-.432662" style="clip-rule:evenodd;fill:#c6b198;fill-rule:evenodd;stroke:#000;stroke-width:.367909;stroke-linecap:round"/>
    <path d="m63.258981 43.19914c7.402952 0 14.342705 1.058721 17.960358 8.171146 3.247169 7.972107 2.092424 16.568679 2.58763 24.994051.425303 7.234571 1.368255 15.592615-1.987937 22.296783-3.530705 7.05331-12.353173 8.82762-19.621837 8.56775-5.709341-.20431-12.606294-2.06691-15.828568-7.283255-3.780392-6.119561-1.990635-15.218942-1.716052-22.02821.325232-8.065924-2.184769-16.156375.465037-24.049136 2.748897-8.18758 10.162517-10.037919 18.141369-10.669129" style="clip-rule:evenodd;fill-rule:evenodd;stroke:#000;stroke-width:.367909;stroke-linecap:round;fill:url(#radialGradient5377)"/>
    <path d="m64.565918 53.13711c1.329135 7.726466 13.95873 5.683588 12.144691-2.10898-1.62665-6.987826-12.586427-5.053604-12.144691 2.10898" style="clip-rule:evenodd;fill:#fff;fill-rule:evenodd;stroke:#000;stroke-width:.356639;stroke-linecap:round"/>
    <path d="m49.473537 54.386776c1.722675 6.726611 12.492243 5.004427 12.086316-1.743033-.486376-8.08113-13.733324-6.521808-12.086316 1.743033" style="clip-rule:evenodd;fill:#fff;fill-rule:evenodd;stroke:#000;stroke-width:.346007;stroke-linecap:round"/>
    <path d="m66.089677 62.408673c.0056 1.004516.228226 2.132281.03826 3.200935-.256433.484659-.759487.535921-1.19313.731772-.599692-.09406-1.103974-.487848-1.344464-1.048787-.153909-1.219743.05739-2.400732.09627-3.620965z" style="clip-rule:evenodd;fill:#fff;fill-rule:evenodd;stroke:#000;stroke-width:.367909;stroke-linecap:round"/>
    <g transform="matrix(.12263648 0 0 .12263648 39.282078 41.589659)">
      <ellipse clip-rule="evenodd" cx="107.324" cy="95.403999" fill-rule="evenodd" rx="14.829" ry="16.062"/>
      <ellipse clip-rule="evenodd" cx="114.069" cy="99.028999" fill="#fff" fill-rule="evenodd" rx="3.496" ry="4.082"/>
    </g>
    <g transform="matrix(.12263648 0 0 .12263648 39.282078 41.589659)">
      <ellipse clip-rule="evenodd" cx="231.571" cy="91.403999" fill-rule="evenodd" rx="14.582" ry="16.062"/>
      <ellipse clip-rule="evenodd" cx="238.20399" cy="95.028999" fill="#fff" fill-rule="evenodd" rx="3.438" ry="4.082"/>
    </g>
    <path d="m60.892711 62.299281c-.793458 1.92294.442472 5.768207 2.595355 2.931993-.153908-1.219742.05739-2.400731.09627-3.620964z" style="clip-rule:evenodd;fill:#fff;fill-rule:evenodd;stroke:#000;stroke-width:.367909;stroke-linecap:round"/>
    <g transform="matrix(.12263648 0 0 .12263648 39.282078 41.589659)">
      <path d="m178.431 138.673c-12.059 1.028-21.916 15.366-15.646 26.709 8.303 15.024 26.836-1.329 38.379.203 13.285.272 24.17 14.047 34.84 2.49 11.867-12.854-5.109-25.373-18.377-30.97z" style="clip-rule:evenodd;fill:#f6d2a2;fill-rule:evenodd;stroke:#231f20;stroke-width:3;stroke-linecap:round"/>
      <path clip-rule="evenodd" d="m176.913 138.045c-.893-20.891 38.938-23.503 43.642-6.016 4.692 17.446-41.681 21.498-43.642 6.016-1.565-12.363 0 0 0 0z" fill-rule="evenodd"/>
    </g>
  </g>
</svg>
