<svg height="256" width="256" xmlns="http://www.w3.org/2000/svg" xmlns:xlink="http://www.w3.org/1999/xlink">
  <defs>
    <filter id="filter3834" color-interpolation-filters="sRGB" height="1.064318" width="1.080929" x="-.040464" y="-.032159">
      <feGaussianBlur stdDeviation="1.50075"/>
    </filter>
    <filter id="filter3826" color-interpolation-filters="sRGB" height="1.044321" width="1.055874" x="-.027937" y="-.02216">
      <feGaussianBlur stdDeviation="1.036"/>
    </filter>
    <linearGradient id="linearGradient4524-4" gradientTransform="matrix(2 0 0 -2 -7.01182 257.00001)" gradientUnits="userSpaceOnUse" x1="72" x2="72" y1="0" y2="116.40091">
      <stop offset="0" stop-color="#eeecec"/>
      <stop offset=".40000001" stop-color="#f4f4f4"/>
      <stop offset="1" stop-color="#f6f5f5"/>
    </linearGradient>
    <filter id="filter1164" color-interpolation-filters="sRGB" height="1.096" width="1.090435" x="-.045217" y="-.048">
      <feGaussianBlur stdDeviation=".65000024"/>
    </filter>
    <radialGradient id="radialGradient5988-0" cx="64" cy="64.004021" fx="63.793392" fy="47.274845" gradientTransform="matrix(3.368421 .16859038 .13772678 -2.7517692 -103.40582 294.32648)" gradientUnits="userSpaceOnUse" r="47.5" xlink:href="#linearGradient3872"/>
    <linearGradient id="linearGradient3872">
      <stop offset="0" stop-color="#fff"/>
      <stop offset="1" stop-color="#fff" stop-opacity="0"/>
    </linearGradient>
    <clipPath id="clipPath6093-7">
      <path d="m17.000001 8-.000001 112h61.5c1.675283 0 3.914297-.56468 7-3.6 8.870045-8.72523 16.24047-13.8518 23.49904-21.175957 2.44056-2.462612 3.00096-4.47117 3.00096-6.724043v-80.5z"/>
    </clipPath>
    <filter id="filter6171-8" color-interpolation-filters="sRGB" height="2.02159" width="1.956141" x="-.47807" y="-.510795">
      <feGaussianBlur stdDeviation="10.140743"/>
    </filter>
    <linearGradient id="linearGradient3895-3" gradientTransform="matrix(2.0239716 0 0 -2.0239716 -.8029 246.97433)" gradientUnits="userSpaceOnUse" x1="86.73793" x2="93.189758" y1="93.621468" y2="100.45876">
      <stop offset="0" stop-color="#fcfcfc"/>
      <stop offset=".52275378" stop-color="#f8f8f8"/>
      <stop offset=".72337759" stop-color="#f0efef"/>
      <stop offset=".89024991" stop-color="#e3e1e1"/>
      <stop offset="1" stop-color="#cecbcb"/>
    </linearGradient>
    <linearGradient id="linearGradient4747" gradientUnits="userSpaceOnUse" x1="-175.8602" x2="-174.98068" y1="125.05635" y2="67.385735">
      <stop offset="0" stop-color="#00316e"/>
      <stop offset="1" stop-color="#00316e" stop-opacity="0"/>
    </linearGradient>
    <filter id="filter4737" height="1.048" width="1.048" x="-.024" y="-.024">
      <feGaussianBlur stdDeviation=".61380459"/>
    </filter>
    <radialGradient id="radialGradient1657" cx="-166.53223" cy="65.938202" gradientTransform="matrix(1 0 0 .6578174 0 22.562908)" gradientUnits="userSpaceOnUse" r="31.190229" xlink:href="#linearGradient3872"/>
    <filter id="filter6074" height="1.149692" width="1.149692" x="-.074846" y="-.074846">
      <feGaussianBlur stdDeviation="1.9142018"/>
    </filter>
    <radialGradient id="radialGradient3960" cx="-166.53223" cy="65.938202" gradientTransform="matrix(.5375647 0 0 .6578174 -77.010381 22.562908)" gradientUnits="userSpaceOnUse" r="31.190229">
      <stop offset="0" stop-color="#00c4cc"/>
      <stop offset="1" stop-color="#fff" stop-opacity="0"/>
    </radialGradient>
    <clipPath id="clipPath6080">
      <path d="m-135.842 93.331604a30.69023 30.69023 0 1 1 -61.38046 0 30.69023 30.69023 0 1 1 61.38046 0z" filter="url(#filter6074)"/>
    </clipPath>
    <radialGradient id="radialGradient3962" cx="-166.53223" cy="84.275475" gradientTransform="matrix(-.91018005 0 0 .91018005 -211.68327 112.16549)" gradientUnits="userSpaceOnUse" r="31.190229">
      <stop offset="0" stop-color="#0081ec"/>
      <stop offset="1" stop-color="#003871"/>
    </radialGradient>
    <radialGradient id="radialGradient3966" cx="-166.53223" cy="116.62209" gradientTransform="matrix(-.84448115 0 0 .84448115 -200.74228 118.29727)" gradientUnits="userSpaceOnUse" r="31.190229">
      <stop offset="0" stop-color="#0081ec"/>
      <stop offset="1" stop-color="#004c98"/>
    </radialGradient>
    <linearGradient id="linearGradient3987" gradientUnits="userSpaceOnUse" x1="-41.96700807607" x2="-41.96700807607" y1="171.08683923767" y2="217.98867539177">
      <stop offset="0" stop-color="#a4c0e4"/>
      <stop offset="1" stop-color="#a4c0e4" stop-opacity="0"/>
    </linearGradient>
    <filter id="filter5956" height="1.089982" width="1.04574" x="-.02287" y="-.044991">
      <feGaussianBlur stdDeviation=".55418773"/>
    </filter>
    <linearGradient id="linearGradient3983" gradientUnits="userSpaceOnUse" x1="-62.56189892823" x2="-62.56189892823" xlink:href="#linearGradient3872" y1="111.88587455782" y2="203.8176456362"/>
    <linearGradient id="linearGradient3977" gradientUnits="userSpaceOnUse" x1="-62.56189892823" x2="-61.95717953826" xlink:href="#linearGradient3872" y1="171.10037624782" y2="191.99374628225"/>
    <linearGradient id="linearGradient3980" gradientUnits="userSpaceOnUse" x1="-46.80863542225" x2="-67.21444504439" xlink:href="#linearGradient3872" y1="205.38587491459" y2="185.38322492348"/>
    <filter id="filter1590" color-interpolation-filters="sRGB" height="1.200572" width="1.226559" x="-.11071" y="-.100286">
      <feGaussianBlur stdDeviation="1.4825898"/>
    </filter>
  </defs>
  <path d="m-128.8111-19.056071v112h56.187504c5.114947-.238308 32.613203-27.078301 32.775-30.612499.08138-25.126708.0375-56.2589983.0375-81.387501z" filter="url(#filter3834)" opacity=".262376" transform="matrix(2 0 0 -2 296.61038 201.88787)"/>
  <path d="m-128.8111-19.556071v112.2h55.746422c3.098719 0 24.709876-18.512112 30.003672-24.699929 1.602664-1.873324 3.24991-3.03751 3.24991-7.20007v-80.300001z" fill-opacity=".700535" filter="url(#filter3826)" transform="matrix(2 0 0 -2 296.61038 201.88787)"/>
  <path d="m38.98818 241.00001v-223.999998h111.00001c3.35056 0 7.82859 1.12936 14 7.2 17.74009 17.45046 32.48094 27.703618 46.99808 42.351918 4.88112 4.92522 6.00192 8.94234 6.00192 13.44808v161z" fill="#fff" stroke-width="2"/>
  <path d="m41.98818 239.00001c-.67968 0-1-.46923-1-1v-215.937498c0-1.64316 1.35864-3 3-3h103.37501c.10614 0 1.62077-.0468 3-.0626 3.55533.0802 6.26395 1.50748 8.71207 3.18656 2.10373.58206 33.29967 27.239178 51.54191 45.618478 2.72478 2.74524 4.37092 7.89634 4.37092 9.79122l.0001 160.40384c0 .64544-.32644 1-1 1z" fill="url(#linearGradient4524-4)" stroke-width="2"/>
  <path d="m41.98818 239.00001c-.67968 0-1-.46923-1-1v-215.937498c0-1.64316 1.35864-2.999022 3-3l105.00001-.0626c.10614-.000064 6.54777.016 7.927-.0001 13.08194 9.00722 37.2746 31.906578 55.16506 49.910198 2.9537 3.31296.9152.74012 2.90782 3.2149l.00012 165.875c0 .64544-.32644 1-1 1z" fill="url(#radialGradient5988-0)" opacity=".846535" stroke-width="2"/>
  <path d="m168.37695 86.000001h35.62305m-49.62305 0h10.79102m-35.16797 0h21.16797m-38.6582 0h14.39257m-40.12695 0h22.52734m-32.79296 0h7.05859m-15.05859 0h4.79296m-21.30273 0h13.30273m5.86524-12h-19.16797m28.90234 0h-6.52539m23.99414 0h-14.26172m26.79297 0h-9.32421m23.32421 0h-10.79101m23.58984 0h-9.58984m31.58984 0h-18.79297m36.79297 0h-14.79297m22.25977 0h-4.25977m23.0918 0h-15.62305m-27.07031-12h18.69336m-37.22461 0h15.32422m-30.39453 0h11.86328m-32.12891 0h17.0586m-49.98243 0h29.7168m-52.23242 0h19.30859m-5.74804-12h-13.56055m32.35742 0h-15.58984m43.1914 0h-24.39453m31.9961 0h-4.39453m23.99609 0h-16.39453m25.86328 0h-6.26172m29.73047 0h-20.26172m-.6582-12h16.26172m-19.46875 0h-18.12696m-14.26758 0h11.0586m-31.32422 0h17.05859m-23.99414 0h3.72852m-30.66602 0h23.73047m-33.16992 0h6.23242" fill="none" stroke="#b6b6b6" stroke-width="6"/>
  <path d="m-39.811096 59.94691c0 4.46531-3.067448 5.978576-5.549678 7.662246-5.10854 3.46508-13.669156 1.756744-19.450326 1.837764-.081 5.78116 1.723142 12.231893-1.741938 17.340433-1.68367 2.48224-4.847792 5.659577-7.758062 5.659577 2.31803 0 4.74284-1.334761 7.58402-4.084811 9.14197-8.84873 14.36714-11.135349 22.673154-20.297529 1.91895-2.11675 4.24283-3.64188 4.24283-8.11768z" filter="url(#filter1164)" opacity=".4" transform="matrix(2 0 0 -2 296.61038 201.88787)"/>
  <path clip-path="url(#clipPath6093-7)" d="m114.4 82.502986c0 4.465301-4.99749 12.609952-7.47972 14.293625-5.10854 3.465079-12.739114 1.52536-18.520284 1.60638-.081 5.781159 1.96586 11.304599-1.49922 16.413139-1.68367 2.48224-9.79051 8.68687-12.70078 8.68687-2.091359 1.5337 3.488204 8.21101 6.734971 5.31989 9.501888-8.46107 35.131683-30.022704 43.350823-39.262889 2.04044-2.29392-4.90514-9.844666-9.88579-7.057015z" filter="url(#filter6171-8)" opacity=".277228" transform="matrix(2 0 0 -2 -7.01182 257.00001)"/>
  <path d="m216.98819 79.99405c0-8.93062-5.59498-12.81992-10.55944-16.18726-10.21708-6.93016-21.87823-6.65072-33.44057-6.81276-.162-11.56232.33172-19.009198-6.59844-29.226278-3.36734-4.96448-10.58102-10.773742-16.40156-10.773742 4.63606 0 8.88785 3.363424 15.16804 8.169622 19.0787 14.60084 26.40937 20.968606 43.34631 38.595058 3.95915 4.12033 8.48566 7.28376 8.48566 16.23536z" fill="url(#linearGradient3895-3)"/>
  <path d="m217.02569 78.57501c-.63286-7.7982-7.04582-11.80562-11.7-14.9625-10.21708-6.93016-22.67516-4.65046-34.2375-4.8125-.162-11.56232 1.70516-20.632918-5.225-30.849998-2.94642-4.34392-8.19891-9.3202-13.525-10.500002 3.96092.724602 7.76986 3.322782 12.5375 7.937502.67823.77706 1.14859 1.3579 2.2125 3 6.93016 10.21708 5.84737 16.931438 6.00937 28.493758 11.56234.162 23.43605-.42392 33.65313 6.50624.93084.63138 3.18798 2.3755 4.0125 3.2 3.07258 3.07258 5.80342 5.22684 6.2625 11.9875zm-64.6875-61.125c-.31532-.0698-.62688-.0828-.9375-.125.31398.0338.62088.067.9375.125z" fill="#fff"/>
  <g transform="matrix(2 0 0 2 248.21792 -226.22812)">
    <path d="m-135.842 93.331604a30.69023 30.69023 0 1 1 -61.38046 0 30.69023 30.69023 0 1 1 61.38046 0z" fill="url(#linearGradient4747)" filter="url(#filter4737)" transform="matrix(-.9167481 0 0 .9167481 -212.77707 111.55249)"/>
    <path d="m-135.842 93.331604a30.69023 30.69023 0 1 1 -61.38046 0 30.69023 30.69023 0 1 1 61.38046 0z" fill="url(#radialGradient1657)" filter="url(#filter6074)" transform="matrix(-.9167481 0 0 .9167481 -212.77707 111.55249)"/>
    <path clip-path="url(#clipPath6080)" d="m-135.842 93.331604a30.69023 30.69023 0 1 1 -61.38046 0 30.69023 30.69023 0 1 1 61.38046 0z" fill="url(#radialGradient3960)" filter="url(#filter6074)" transform="matrix(-.91018005 0 0 -.91018005 -211.68327 282.06262)"/>
    <path d="m-88.04259 197.11406a27.933635 27.933635 0 1 0 55.86727 0 27.933635 27.933635 0 1 0 -55.86727 0z" fill="url(#radialGradient3962)"/>
    <path clip-path="url(#clipPath6080)" d="m-135.842 93.331604a30.69023 30.69023 0 1 1 -61.38046 0 30.69023 30.69023 0 1 1 61.38046 0z" fill="url(#radialGradient1657)" filter="url(#filter6074)" transform="matrix(-.91018005 0 0 .91018005 -211.68327 112.16549)"/>
    <path d="m-86.026275 197.11405a25.91732 25.91732 0 1 0 51.83464 0 25.91732 25.91732 0 1 0 -51.83464 0z" fill="url(#radialGradient3966)"/>
    <path d="m-60.11153 171.0874c-14.306365 0-25.906415 11.60006-25.906415 25.90642 0 1.33187.08449 2.64981.278565 3.92775.0015.009-.0015.0189 0 .0279 5.447175.87126 11.247955 1.30925 17.270935 1.30925 12.86756 0 24.745025-2.1502 34.263335-5.76627-.267615-14.07516-11.76764-25.405-25.90642-25.40501z" fill="url(#linearGradient3987)" opacity=".892193"/>
    <path d="m-134.09375 98.625c-.003.166656-.0312.332675-.0312.5 0 16.04925 13.0445 29.0625 29.09375 29.0625 16.049249 0 29.062503-13.01325 29.0625-29.0625 0-.167107.0028-.33356 0-.5-.267346 15.81875-13.180358 28.5625-29.0625 28.5625-15.88193 0-28.79481-12.74404-29.0625-28.5625z" fill="#007fea" filter="url(#filter5956)" transform="matrix(-.89140375 0 0 .89140375 -153.75085 108.90599)"/>
    <path d="m-60.127085 171.10581c-14.30636 0-25.90642 11.60006-25.90642 25.90643 0 .1312-.0015.25907 0 .38998.26737-14.07491 11.76764-25.40501 25.90642-25.405 13.8381 0 25.15286 10.85585 25.878565 24.5136.008-.003.0198.003.02785 0-.26763-14.07516-11.76766-25.405-25.90644-25.40501z" fill="url(#linearGradient3983)"/>
    <path d="m-60.127085 171.10581c-14.30636 0-25.90642 11.60006-25.90642 25.90643 0 .1312-.0015.25907 0 .38998.26737-14.07491 11.76764-25.76157 25.90642-25.76156 13.8381 0 25.15286 11.21241 25.878565 24.87016.008-.003.0198.003.02785 0-.26763-14.07516-11.76766-25.405-25.90644-25.40501z" fill="url(#linearGradient3977)" opacity=".8"/>
    <path d="m-50.41922 172.96207c8.594785 4.09698 15.66197 13.19453 15.85415 23.30226-9.51831 3.61608-22.97985 5.60882-35.84741 5.60883-5.011045.10622-9.86275-.0674-15.35647-.9433.0015.009-.0015.0189 0 .0279 5.44716.87125 11.24796 1.30924 17.270945 1.30924 12.86756 0 24.745025-2.15018 34.263335-5.76626-.20259-10.6547-6.836725-19.75396-16.18455-23.53863z" fill="url(#linearGradient3980)" opacity=".6"/>
    <path d="m35.266679 59.904184c0 4.311609.942174 7.649114 2.826503 10.012514 1.884329 2.363401 4.519199 3.545098 7.904619 3.545098 2.107895 0 3.976258-.590849 5.605088-1.772546 1.628831-1.181705 2.890369-2.874408 3.784634-5.078119l7.665086 2.251618c-1.852397 3.992232-4.167892 6.88261-6.946487 8.671123-2.778585 1.788522-6.148029 2.682778-10.108321 2.682778-6.164005 0-10.938713-1.772546-14.324123-5.317648-3.353477-3.545102-5.030216-8.543374-5.030216-14.994818 0-6.483382 1.62883-11.41778 4.886491-14.80319 3.25766-3.385412 7.93656-5.078118 14.036681-5.078118 4.151926 0 7.617177.89426 10.395772 2.682779 2.810527 1.788519 4.982298 4.551143 6.51532 8.287871l-7.473461 1.964174c-.830381-1.948209-2.028044-3.465256-3.593-4.551143-1.533023-1.085887-3.401386-1.62883-5.605098-1.62883-3.481227 0-6.116097 1.117824-7.904609 3.353474-1.756589 2.235649-2.634879 5.493309-2.634879 9.77298z" fill="none" filter="url(#filter1590)" opacity=".7" stroke="#00366b" stroke-width=".945312" transform="matrix(.7933884 0 0 .7933884 -95.69087 149.41573)"/>
    <path d="m-67.710695 196.94302c0 3.42078.74751 6.06871 2.242515 7.94381 1.495005 1.87509 3.58548 2.81264 6.271432 2.81264 1.67238 0 3.154718-.46878 4.447013-1.40632 1.292295-.93755 2.293185-2.28052 3.002685-4.02892l6.08139 1.78641c-1.46967 3.16739-3.306758 5.46058-5.511263 6.87956-2.204497 1.419-4.877775 2.12849-8.019825 2.12849-4.89045 0-8.678647-1.40632-11.364592-4.21896-2.66061-2.81264-3.990915-6.77821-3.990915-11.89671 0-5.14384 1.292295-9.05874 3.876885-11.74468 2.58459-2.68595 6.296775-4.02892 11.13654-4.02892 3.29409 0 6.04338.70949 8.247885 2.12848 2.22984 1.41899 3.952897 3.61083 5.16918 6.5755l-5.929358 1.55836c-.658815-1.54569-1.609027-2.7493-2.850645-3.61083-1.216282-.86153-2.69862-1.29229-4.44702-1.29229-2.761965 0-4.85244.88687-6.271425 2.66061-1.393657 1.77373-2.090482 4.35832-2.090482 7.75377z" fill="#f4f4f4" opacity=".908" stroke-width=".608138"/>
  </g>
</svg>
