<svg height="256" width="256" xmlns="http://www.w3.org/2000/svg" xmlns:xlink="http://www.w3.org/1999/xlink">
  <defs>
    <filter id="filter3834" color-interpolation-filters="sRGB" height="1.064318" width="1.080929" x="-.040464" y="-.032159">
      <feGaussianBlur stdDeviation="1.50075"/>
    </filter>
    <filter id="filter3826" color-interpolation-filters="sRGB" height="1.044321" width="1.055874" x="-.027937" y="-.02216">
      <feGaussianBlur stdDeviation="1.036"/>
    </filter>
    <linearGradient id="linearGradient4524-4" gradientTransform="matrix(2 0 0 -2 -7.01182 257.00001)" gradientUnits="userSpaceOnUse" x1="72" x2="72" y1="0" y2="116.40091">
      <stop offset="0" stop-color="#eeecec"/>
      <stop offset=".40000001" stop-color="#f4f4f4"/>
      <stop offset="1" stop-color="#f6f5f5"/>
    </linearGradient>
    <filter id="filter1164" color-interpolation-filters="sRGB" height="1.096" width="1.090435" x="-.045217" y="-.048">
      <feGaussianBlur stdDeviation=".65000024"/>
    </filter>
    <radialGradient id="radialGradient5988-0" cx="64" cy="64.004021" fx="63.793392" fy="47.274845" gradientTransform="matrix(3.368421 .16859038 .13772678 -2.7517692 -103.40582 294.32648)" gradientUnits="userSpaceOnUse" r="47.5">
      <stop offset="0" stop-color="#fff"/>
      <stop offset="1" stop-color="#fff" stop-opacity="0"/>
    </radialGradient>
    <clipPath id="clipPath6093-7">
      <path d="m17.000001 8-.000001 112h61.5c1.675283 0 3.914297-.56468 7-3.6 8.870045-8.72523 16.24047-13.8518 23.49904-21.175957 2.44056-2.462612 3.00096-4.47117 3.00096-6.724043v-80.5z"/>
    </clipPath>
    <filter id="filter6171-8" color-interpolation-filters="sRGB" height="2.02159" width="1.956141" x="-.47807" y="-.510795">
      <feGaussianBlur stdDeviation="10.140743"/>
    </filter>
    <linearGradient id="linearGradient3895-3" gradientTransform="matrix(2.0239716 0 0 -2.0239716 -.8029 246.97433)" gradientUnits="userSpaceOnUse" x1="86.73793" x2="93.189758" y1="93.621468" y2="100.45876">
      <stop offset="0" stop-color="#fcfcfc"/>
      <stop offset=".52275378" stop-color="#f8f8f8"/>
      <stop offset=".72337759" stop-color="#f0efef"/>
      <stop offset=".89024991" stop-color="#e3e1e1"/>
      <stop offset="1" stop-color="#cecbcb"/>
    </linearGradient>
    <radialGradient id="radialGradient991" cx="60.953659" cy="88.093277" gradientTransform="matrix(1.1767793 0 0 1.2076344 -44.092901 -45.931229)" gradientUnits="userSpaceOnUse" r="16.955679">
      <stop offset="0" stop-color="#930013"/>
      <stop offset="1" stop-color="#d03823"/>
    </radialGradient>
    <linearGradient id="linearGradient1009" gradientUnits="userSpaceOnUse" x1="7.73811874561" x2="47.67904977354" y1="40.60352466771" y2="82.49921774611">
      <stop offset="0" stop-color="#ff6d1a"/>
      <stop offset="1" stop-color="#d30046"/>
    </linearGradient>
    <radialGradient id="radialGradient1485" cx="27.843304" cy="62.685257" gradientTransform="matrix(1 0 0 .72918258 0 16.976259)" gradientUnits="userSpaceOnUse" r="40.90625" xlink:href="#linearGradient2282"/>
    <linearGradient id="linearGradient2282">
      <stop offset="0" stop-color="#202020"/>
      <stop offset="1" stop-color="#494949"/>
    </linearGradient>
    <linearGradient id="linearGradient1493" gradientUnits="userSpaceOnUse" x1="-13.062947" x2="68.74955" xlink:href="#linearGradient5881" y1="62.685257" y2="62.685257"/>
    <linearGradient id="linearGradient5881">
      <stop offset="0" stop-color="#656565"/>
      <stop offset="1" stop-color="#afafaf" stop-opacity=".968627"/>
    </linearGradient>
    <filter id="filter1591" color-interpolation-filters="sRGB" height="1.056914" width="1.150691" x="-.075345" y="-.028457">
      <feGaussianBlur stdDeviation=".70734375"/>
    </filter>
    <radialGradient id="radialGradient1499" cx="-5.309239" cy="62.545792" gradientTransform="matrix(.57488575 0 0 .72918258 -2.257033 16.976259)" gradientUnits="userSpaceOnUse" r="40.90625" xlink:href="#linearGradient2282"/>
    <linearGradient id="linearGradient1501" gradientUnits="userSpaceOnUse" x1="9.372712" x2="-13.298808" xlink:href="#linearGradient5881" y1="92.815201" y2="32.699135"/>
    <radialGradient id="radialGradient1505" cx="58.188976" cy="61.834618" gradientTransform="matrix(.44561121 .00248606 -.00406804 .72917123 34.510859 16.8323)" gradientUnits="userSpaceOnUse" r="40.90625" xlink:href="#linearGradient2282"/>
    <linearGradient id="linearGradient1503" gradientUnits="userSpaceOnUse" x1="71.201141" x2="48.026253" xlink:href="#linearGradient5881" y1="92.743286" y2="32.267681"/>
    <filter id="filter1791" color-interpolation-filters="sRGB" height="1.108127" width="1.110962" x="-.055481" y="-.054064">
      <feGaussianBlur stdDeviation="1.6605308"/>
    </filter>
  </defs>
  <path d="m-128.8111-19.056071v112h56.187504c5.114947-.238308 32.613203-27.078301 32.775-30.612499.08138-25.126708.0375-56.2589983.0375-81.387501z" filter="url(#filter3834)" opacity=".262376" transform="matrix(2 0 0 -2 296.61038 201.88787)"/>
  <path d="m-128.8111-19.556071v112.2h55.746422c3.098719 0 24.709876-18.512112 30.003672-24.699929 1.602664-1.873324 3.24991-3.03751 3.24991-7.20007v-80.300001z" fill-opacity=".700535" filter="url(#filter3826)" transform="matrix(2 0 0 -2 296.61038 201.88787)"/>
  <path d="m38.98818 241.00001v-223.999998h111.00001c3.35056 0 7.82859 1.12936 14 7.2 17.74009 17.45046 32.48094 27.703618 46.99808 42.351918 4.88112 4.92522 6.00192 8.94234 6.00192 13.44808v161z" fill="#fff" stroke-width="2"/>
  <path d="m41.98818 239.00001c-.67968 0-1-.46923-1-1v-215.937498c0-1.64316 1.35864-3 3-3h103.37501c.10614 0 1.62077-.0468 3-.0626 3.55533.0802 6.26395 1.50748 8.71207 3.18656 2.10373.58206 33.29967 27.239178 51.54191 45.618478 2.72478 2.74524 4.37092 7.89634 4.37092 9.79122l.0001 160.40384c0 .64544-.32644 1-1 1z" fill="url(#linearGradient4524-4)" stroke-width="2"/>
  <path d="m41.98818 239.00001c-.67968 0-1-.46923-1-1v-215.937498c0-1.64316 1.35864-2.999022 3-3l105.00001-.0626c.10614-.000064 6.54777.016 7.927-.0001 13.08194 9.00722 37.2746 31.906578 55.16506 49.910198 2.9537 3.31296.9152.74012 2.90782 3.2149l.00012 165.875c0 .64544-.32644 1-1 1z" fill="url(#radialGradient5988-0)" opacity=".846535" stroke-width="2"/>
  <path d="m168.37695 86.000001h35.62305m-49.62305 0h10.79102m-35.16797 0h21.16797m-38.6582 0h14.39257m-40.12695 0h22.52734m-32.79296 0h7.05859m-15.05859 0h4.79296m-21.30273 0h13.30273m5.86524-12h-19.16797m28.90234 0h-6.52539m23.99414 0h-14.26172m26.79297 0h-9.32421m23.32421 0h-10.79101m23.58984 0h-9.58984m31.58984 0h-18.79297m36.79297 0h-14.79297m22.25977 0h-4.25977m23.0918 0h-15.62305m-27.07031-12h18.69336m-37.22461 0h15.32422m-30.39453 0h11.86328m-32.12891 0h17.0586m-49.98243 0h29.7168m-52.23242 0h19.30859m-5.74804-12h-13.56055m32.35742 0h-15.58984m43.1914 0h-24.39453m31.9961 0h-4.39453m23.99609 0h-16.39453m25.86328 0h-6.26172m29.73047 0h-20.26172m-.6582-12h16.26172m-19.46875 0h-18.12696m-14.26758 0h11.0586m-31.32422 0h17.05859m-23.99414 0h3.72852m-30.66602 0h23.73047m-33.16992 0h6.23242" fill="none" stroke="#b6b6b6" stroke-width="6"/>
  <path d="m-39.811096 59.94691c0 4.46531-3.067448 5.978576-5.549678 7.662246-5.10854 3.46508-13.669156 1.756744-19.450326 1.837764-.081 5.78116 1.723142 12.231893-1.741938 17.340433-1.68367 2.48224-4.847792 5.659577-7.758062 5.659577 2.31803 0 4.74284-1.334761 7.58402-4.084811 9.14197-8.84873 14.36714-11.135349 22.673154-20.297529 1.91895-2.11675 4.24283-3.64188 4.24283-8.11768z" filter="url(#filter1164)" opacity=".4" transform="matrix(2 0 0 -2 296.61038 201.88787)"/>
  <path clip-path="url(#clipPath6093-7)" d="m114.4 82.502986c0 4.465301-4.99749 12.609952-7.47972 14.293625-5.10854 3.465079-12.739114 1.52536-18.520284 1.60638-.081 5.781159 1.96586 11.304599-1.49922 16.413139-1.68367 2.48224-9.79051 8.68687-12.70078 8.68687-2.091359 1.5337 3.488204 8.21101 6.734971 5.31989 9.501888-8.46107 35.131683-30.022704 43.350823-39.262889 2.04044-2.29392-4.90514-9.844666-9.88579-7.057015z" filter="url(#filter6171-8)" opacity=".277228" transform="matrix(2 0 0 -2 -7.01182 257.00001)"/>
  <path d="m216.98819 79.99405c0-8.93062-5.59498-12.81992-10.55944-16.18726-10.21708-6.93016-21.87823-6.65072-33.44057-6.81276-.162-11.56232.33172-19.009198-6.59844-29.226278-3.36734-4.96448-10.58102-10.773742-16.40156-10.773742 4.63606 0 8.88785 3.363424 15.16804 8.169622 19.0787 14.60084 26.40937 20.968606 43.34631 38.595058 3.95915 4.12033 8.48566 7.28376 8.48566 16.23536z" fill="url(#linearGradient3895-3)"/>
  <path d="m217.02569 78.57501c-.63286-7.7982-7.04582-11.80562-11.7-14.9625-10.21708-6.93016-22.67516-4.65046-34.2375-4.8125-.162-11.56232 1.70516-20.632918-5.225-30.849998-2.94642-4.34392-8.19891-9.3202-13.525-10.500002 3.96092.724602 7.76986 3.322782 12.5375 7.937502.67823.77706 1.14859 1.3579 2.2125 3 6.93016 10.21708 5.84737 16.931438 6.00937 28.493758 11.56234.162 23.43605-.42392 33.65313 6.50624.93084.63138 3.18798 2.3755 4.0125 3.2 3.07258 3.07258 5.80342 5.22684 6.2625 11.9875zm-64.6875-61.125c-.31532-.0698-.62688-.0828-.9375-.125.31398.0338.62088.067.9375.125z" fill="#fff"/>
  <g fill="url(#radialGradient1485)" stroke="url(#linearGradient1493)" transform="matrix(1.8 0 0 1.8 75.204193 52.288672)">
    <path d="m145.74994 200.78727-2.87743-18.8341h-28.09418l-10.2018 18.8341h-15.38117l41.17341-73.71454h18.20629l12.45142 73.71454zm-8.52765-62.36177q-1.09866 3.34828-5.12706 11.09119l-11.09119 20.82213h20.66518l-3.50523-23.64725q-.9417-7.06278-.9417-8.26607z" fill="#000" filter="url(#filter1791)" opacity=".595509" stroke="none" transform="matrix(.55555556 0 0 .55555556 -40.668996 -27.938151)"/>
    <path d="m39.192082 82.499222-1.598572-10.463389h-15.607878l-5.667666 10.463389h-8.5450949l22.8741169-40.952522h10.114606l6.917455 40.952522zm-4.737583-34.645428q-.610367 1.860156-2.848367 6.161772l-6.161772 11.567851h11.480656l-1.94735-13.137362q-.523167-3.923766-.523167-4.592261z" fill="url(#radialGradient991)" stroke="url(#linearGradient1009)" stroke-width=".930078"/>
    <path d="m5.3120527 94.513382q-4.1875 0-6.71875-2.46875-2.5-2.4375-2.5-6.875v-10.25q0-3.5625-1.71875-5.3125-1.71875-1.78125-5.4374997-1.84375v-6.09375q3.7812497-.15625 5.4687497-1.90625 1.6875-1.78125 1.6875-5.3125v-10.25q0-4.5625 2.4375-6.9375 2.46875-2.40625 6.78125-2.40625h6.1562503v5.9375h-1.8125003q-2.84375 0-4.125 1.625-1.25 1.625-1.25 4.90625v9.40625q0 2.96875-1.8125 5.125-1.78125 2.15625-4.65625 2.75v.125q2.96875.6875 4.71875 2.84375 1.75 2.125 1.75 5.03125v9.40625q0 3.3125 1.25 4.90625 1.28125 1.625 4.125 1.625h1.8125003v5.96875z" fill="#000" filter="url(#filter1591)" opacity=".605875" stroke="none"/>
    <path d="m50.155803 88.544632h1.78125q2.90625 0 4.125-1.625 1.25-1.59375 1.25-4.90625v-9.40625q0-2.875 1.75-5.03125 1.78125-2.15625 4.71875-2.84375v-.125q-2.84375-.59375-4.65625-2.71875-1.8125-2.15625-1.8125-5.15625v-9.40625q0-3.28125-1.25-4.90625-1.21875-1.625-4.125-1.625h-1.78125v-5.9375h6.15625q4.3125 0 6.75 2.40625 2.46875 2.375 2.46875 6.9375v10.25q0 3.5 1.71875 5.28125 1.71875 1.78125 5.5 1.9375v6.09375q-3.78125.0625-5.5 1.875-1.71875 1.8125-1.71875 5.28125v10.25q0 4.40625-2.5 6.875-2.5 2.46875-6.71875 2.46875h-6.15625z" fill="#000" filter="url(#filter1591)" opacity=".605875" stroke="none"/>
    <path d="m3.3120527 92.513382q-4.18749997 0-6.71875-2.46875-2.5-2.4375-2.5-6.875v-10.25q0-3.5625-1.71875-5.3125-1.71875-1.78125-5.4374997-1.84375v-6.09375q3.7812497-.15625 5.4687497-1.90625 1.6875-1.78125 1.6875-5.3125v-10.25q0-4.5625 2.4375-6.9375 2.46875-2.40625 6.78125-2.40625h6.15625v5.9375h-1.8125q-2.84375 0-4.125 1.625-1.25 1.625-1.25 4.90625v9.40625q0 2.96875-1.81249997 5.125-1.78125003 2.15625-4.65625003 2.75v.125q2.96875.6875 4.71875003 2.84375 1.74999997 2.125 1.74999997 5.03125v9.40625q0 3.3125 1.25 4.90625 1.28125 1.625 4.125 1.625h1.8125v5.96875z" fill="url(#radialGradient1499)" stroke="url(#linearGradient1501)"/>
    <path d="m48.155803 86.544632h1.78125q2.90625 0 4.125-1.625 1.25-1.59375 1.25-4.90625v-9.40625q0-2.875 1.75-5.03125 1.78125-2.15625 4.71875-2.84375v-.125q-2.84375-.59375-4.65625-2.71875-1.8125-2.15625-1.8125-5.15625v-9.40625q0-3.28125-1.25-4.90625-1.21875-1.625-4.125-1.625h-1.78125v-5.9375h6.15625q4.3125 0 6.75 2.40625 2.46875 2.375 2.46875 6.9375v10.25q0 3.5 1.71875 5.28125 1.71875 1.78125 5.5 1.9375v6.09375q-3.78125.0625-5.5 1.875-1.71875 1.8125-1.71875 5.28125v10.25q0 4.40625-2.5 6.875-2.5 2.46875-6.71875 2.46875h-6.15625z" fill="url(#radialGradient1505)" stroke="url(#linearGradient1503)"/>
  </g>
</svg>
