<svg height="256" width="256" xmlns="http://www.w3.org/2000/svg" xmlns:xlink="http://www.w3.org/1999/xlink">
  <defs>
    <filter id="filter3834" color-interpolation-filters="sRGB" height="1.064318" width="1.080929" x="-.040464" y="-.032159">
      <feGaussianBlur stdDeviation="1.50075"/>
    </filter>
    <filter id="filter3826" color-interpolation-filters="sRGB" height="1.044321" width="1.055874" x="-.027937" y="-.02216">
      <feGaussianBlur stdDeviation="1.036"/>
    </filter>
    <linearGradient id="linearGradient4524-4" gradientTransform="matrix(2 0 0 -2 -7.01182 257.00001)" gradientUnits="userSpaceOnUse" x1="72" x2="72" y1="0" y2="116.40091">
      <stop offset="0" stop-color="#eeecec"/>
      <stop offset=".40000001" stop-color="#f4f4f4"/>
      <stop offset="1" stop-color="#f6f5f5"/>
    </linearGradient>
    <filter id="filter1164" color-interpolation-filters="sRGB" height="1.096" width="1.090435" x="-.045217" y="-.048">
      <feGaussianBlur stdDeviation=".65000024"/>
    </filter>
    <radialGradient id="radialGradient5988-0" cx="64" cy="64.004021" fx="63.793392" fy="47.274845" gradientTransform="matrix(3.368421 .16859038 .13772678 -2.7517692 -103.40582 294.32648)" gradientUnits="userSpaceOnUse" r="47.5" xlink:href="#linearGradient3872"/>
    <linearGradient id="linearGradient3872">
      <stop offset="0" stop-color="#fff"/>
      <stop offset="1" stop-color="#fff" stop-opacity="0"/>
    </linearGradient>
    <clipPath id="clipPath6093-7">
      <path d="m17.000001 8-.000001 112h61.5c1.675283 0 3.914297-.56468 7-3.6 8.870045-8.72523 16.24047-13.8518 23.49904-21.175957 2.44056-2.462612 3.00096-4.47117 3.00096-6.724043v-80.5z"/>
    </clipPath>
    <filter id="filter6171-8" color-interpolation-filters="sRGB" height="2.02159" width="1.956141" x="-.47807" y="-.510795">
      <feGaussianBlur stdDeviation="10.140743"/>
    </filter>
    <linearGradient id="linearGradient3895-3" gradientTransform="matrix(2.0239716 0 0 -2.0239716 -.8029 246.97433)" gradientUnits="userSpaceOnUse" x1="86.73793" x2="93.189758" y1="93.621468" y2="100.45876">
      <stop offset="0" stop-color="#fcfcfc"/>
      <stop offset=".52275378" stop-color="#f8f8f8"/>
      <stop offset=".72337759" stop-color="#f0efef"/>
      <stop offset=".89024991" stop-color="#e3e1e1"/>
      <stop offset="1" stop-color="#cecbcb"/>
    </linearGradient>
    <linearGradient id="linearGradient5060">
      <stop offset="0"/>
      <stop offset="1" stop-opacity="0"/>
    </linearGradient>
    <filter id="filter3473" height="1.13818" width="1.057074" x="-.028537" y="-.06909">
      <feGaussianBlur stdDeviation="1.1420684"/>
    </filter>
    <linearGradient id="linearGradient4477" gradientUnits="userSpaceOnUse" x1="177.7580148851" x2="273.19892673604" y1="75.38337140278" y2="75.38337140278">
      <stop offset="0" stop-color="#f2f2f2"/>
      <stop offset=".5" stop-color="#d1d1d1"/>
      <stop offset="1" stop-color="#f2f2f2"/>
    </linearGradient>
    <radialGradient id="radialGradient4479" cx="113.77316" cy="421.47171" gradientTransform="matrix(.41791312 0 0 .16837936 177.34943 2.692734)" gradientUnits="userSpaceOnUse" r="102.65367">
      <stop offset="0" stop-opacity="0"/>
      <stop offset="1"/>
    </radialGradient>
    <linearGradient id="linearGradient4481" gradientTransform="matrix(.41791312 0 0 .42014418 189.77302 -98.068103)" gradientUnits="userSpaceOnUse" x1="91.17688" x2="91.17688" xlink:href="#linearGradient3158" y1="425.95612" y2="354.96344"/>
    <linearGradient id="linearGradient3158">
      <stop offset="0" stop-color="#f5f5f5"/>
      <stop offset="1" stop-color="#d0d2cb"/>
    </linearGradient>
    <radialGradient id="radialGradient4483" cx="85.4375" cy="511.89078" gradientTransform="matrix(.4323239 0 0 .7003167 48.500824 129.74886)" gradientUnits="userSpaceOnUse" r="78.9375" xlink:href="#linearGradient5060"/>
    <clipPath id="clipPath3242">
      <path d="m55.6875 476.98453c4.51842 7.82612 19.422723 10.75001 29.75 10.75 10.327283.00001 25.23158-2.92388 29.75-10.75-24.210842-41.93441-42.235062-39.0662-59.5 0z"/>
    </clipPath>
    <filter id="filter3308" height="1.112116" width="1.087991" x="-.044004" y="-.056064">
      <feGaussianBlur stdDeviation="1.6588145"/>
    </filter>
    <linearGradient id="linearGradient4485" gradientUnits="userSpaceOnUse" x1="15.700015" x2="47.812019" xlink:href="#linearGradient5060" y1="373.83566" y2="379.24933"/>
    <clipPath id="clipPath3753">
      <path d="m10.827324 344.15678c2.553114 27.85215 16.270643 47.47416 25.099705 56.59737 30.044805 20.54141 2.661092-30.93257 4.921511-52.16801 1.168498-4.1991-19.657866-18.24779-30.021216-4.42936z"/>
    </clipPath>
    <filter id="filter3744" height="1.352194" width="1.868143" x="-.434072" y="-.176097">
      <feGaussianBlur stdDeviation="3.7606027"/>
    </filter>
    <linearGradient id="linearGradient4487" gradientUnits="userSpaceOnUse" x1="393.01744" x2="369.85067" xlink:href="#linearGradient5060" y1="286.958072" y2="389.325502"/>
    <filter id="filter3905" height="1.089908" width="1.029089" x="-.014544" y="-.044954">
      <feGaussianBlur stdDeviation=".55431548"/>
    </filter>
    <radialGradient id="radialGradient4489" cx="81.204926" cy="437.66547" gradientTransform="matrix(2.3091157 -2.9890341 -.4116385 3.4641789 73.85333 -835.7617)" gradientUnits="userSpaceOnUse" r="38.879936" xlink:href="#linearGradient4007"/>
    <linearGradient id="linearGradient4007">
      <stop offset="0" stop-color="#fff"/>
      <stop offset=".5" stop-color="#eee" stop-opacity=".651246"/>
      <stop offset="1" stop-color="#dedede" stop-opacity="0"/>
    </linearGradient>
    <clipPath id="clipPath4015">
      <path d="m73.337545 392.01946c-43.296692 0-73.08802861 12.8449-64.3760348 33.74674 8.7119998 20.90185 52.6468928 41.99022 95.9435798 41.99022 43.2967 0 69.65212-21.08837 60.94012-41.99022-8.71201-20.90185-49.21097-33.74674-92.507665-33.74674z"/>
    </clipPath>
    <filter id="filter4043" height="1.096225" width="1.108405" x="-.054203" y="-.048112">
      <feGaussianBlur stdDeviation="1.7561592"/>
    </filter>
    <linearGradient id="linearGradient4491" gradientTransform="matrix(.41791312 0 0 .35375403 177.34943 -75.437479)" gradientUnits="userSpaceOnUse" x1="185.81718" x2="82.097534" xlink:href="#linearGradient3872" y1="466.01611" y2="399.19949"/>
    <filter id="filter3540" height="1.346185" width="1.140083" x="-.070042" y="-.173092">
      <feGaussianBlur stdDeviation="3.8017605"/>
    </filter>
    <linearGradient id="linearGradient4493" gradientTransform="matrix(.41791312 0 0 .42014418 -110.94219 -101.87102)" gradientUnits="userSpaceOnUse" x1="896.69934" x2="912.86719" y1="334.94537" y2="406.60666">
      <stop offset="0" stop-color="#f7f7f7"/>
      <stop offset=".5" stop-color="#f4f4f4"/>
      <stop offset=".75" stop-color="#efefef"/>
      <stop offset="1" stop-color="#cbcbcb"/>
    </linearGradient>
    <clipPath id="clipPath4981">
      <path d="m879.96614 354.9841-.49216 4.92151 5.41367-3.44506c3.12923-10.70029 21.65727-13.68529 25.0997-4.18328 8.46201 23.35733-31.72383 37.58745-45.03182 42.81715l-10.0891 16.73313c24.17613-8.14178 71.80544-23.55735 64.96394-62.25711-1.95121-11.03726-20.43358-20.9503-36.66526-9.59695z"/>
    </clipPath>
    <filter id="filter4965" height="1.118572" width="1.127938" x="-.063969" y="-.059286">
      <feGaussianBlur stdDeviation="1.6890359"/>
    </filter>
    <linearGradient id="linearGradient4495" gradientTransform="matrix(.41791312 0 0 .42014418 189.77302 -98.068103)" gradientUnits="userSpaceOnUse" x1="85.4375" x2="91.17688" xlink:href="#linearGradient3158" y1="471.89255" y2="354.96344"/>
    <linearGradient id="linearGradient4499" gradientUnits="userSpaceOnUse" x1=".749501" x2="47.812019" xlink:href="#linearGradient5060" y1="367.77185" y2="379.24933"/>
    <linearGradient id="linearGradient4501" gradientUnits="userSpaceOnUse" x1="422.94515" x2="324.11629" xlink:href="#linearGradient4007" y1="363.733642" y2="363.733642"/>
    <filter id="filter4439" height="1.181567" width="1.058744" x="-.029372" y="-.090784">
      <feGaussianBlur stdDeviation="1.1194278"/>
    </filter>
    <linearGradient id="linearGradient4503" gradientUnits="userSpaceOnUse" x1="393.72086" x2="311.03949" xlink:href="#linearGradient3872" y1="440.52148" y2="401.24631"/>
    <filter id="filter4112" height="1.117321" width="1.041708" x="-.020854" y="-.058661">
      <feGaussianBlur stdDeviation=".71842693"/>
    </filter>
    <linearGradient id="linearGradient4505" gradientUnits="userSpaceOnUse" x1="155.51974" x2="72.83837" xlink:href="#linearGradient3872" y1="440.52148" y2="401.24631"/>
    <filter id="filter4178" height="1.816195" width="1.121154" x="-.060577" y="-.408097">
      <feGaussianBlur stdDeviation=".56215934"/>
    </filter>
    <radialGradient id="radialGradient4507" cx="189.80782" cy="375.14883" gradientTransform="matrix(.41620978 .03789509 -.15050327 1.6707048 234.13387 -581.86635)" gradientUnits="userSpaceOnUse" r="27.057121" xlink:href="#linearGradient3872"/>
    <clipPath id="clipPath4403">
      <path d="m353.21004-62.549056c-43.22202 0-78.28125 11.68642-78.28125 26.09375 0 14.40734 35.05923 30.9970596 78.28125 30.9970496 43.22202.00001 78.3125-16.5897096 78.3125-30.9970496-.00001-14.40733-35.09048-26.09375-78.3125-26.09375z"/>
    </clipPath>
    <filter id="filter4483" height="1.069384" width="1.023137" x="-.011569" y="-.034692">
      <feGaussianBlur stdDeviation=".76488095"/>
    </filter>
    <linearGradient id="linearGradient28202" gradientUnits="userSpaceOnUse" x1="277.038019" x2="429.69456" y1="332.720734" y2="332.720734">
      <stop offset="0" stop-color="#ada8a4"/>
      <stop offset=".25" stop-color="#e2dedb"/>
      <stop offset=".5" stop-color="#ece9e4"/>
      <stop offset=".625" stop-color="#fff"/>
      <stop offset=".75" stop-color="#e0ddd9"/>
      <stop offset="1" stop-color="#ccc5bb"/>
    </linearGradient>
    <filter id="filter4000" height="1.051836" width="1.015726" x="-.007863" y="-.025918">
      <feGaussianBlur stdDeviation=".50014537"/>
    </filter>
    <filter id="filter3549" height="1.051506" width="1.015626" x="-.007813" y="-.025753">
      <feGaussianBlur stdDeviation=".49695348"/>
    </filter>
    <linearGradient id="linearGradient4513" gradientUnits="userSpaceOnUse" x1="286.51459" x2="420.60834" y1="337.91403" y2="337.91403">
      <stop offset="0"/>
      <stop offset="1" stop-color="#4a3c2d"/>
    </linearGradient>
    <filter id="filter4515" height="1.025351" width="1.006522" x="-.003261" y="-.012675">
      <feGaussianBlur stdDeviation=".18220647"/>
    </filter>
    <radialGradient id="radialGradient4515" cx="354.77142" cy="343.22891" gradientTransform="matrix(1 0 0 .0940997 0 310.93117)" gradientUnits="userSpaceOnUse" r="56.351295" xlink:href="#linearGradient3872"/>
    <filter id="filter4578" height="1.408863" width="1.038474" x="-.019237" y="-.204431">
      <feGaussianBlur stdDeviation=".90335436"/>
    </filter>
    <clipPath id="clipPath4642">
      <path d="m353.35106 309.56426c-42.13529 0-76.31304 10.36471-76.31304 23.1426 0 12.77791 34.17775 23.17034 76.31304 23.17033 42.1353.00001 76.3435-10.39242 76.3435-23.17033 0-12.77789-34.2082-23.1426-76.3435-23.1426z" filter="url(#filter4515)" transform="matrix(1.0017829 0 0 1 449.70867 -2.626548)"/>
    </clipPath>
    <filter id="filter4638" height="1.195739" width="1.054118" x="-.027076" y="-.097867">
      <feGaussianBlur stdDeviation="1.2976958"/>
    </filter>
    <radialGradient id="radialGradient4517" cx="773.41541" cy="338.25098" gradientTransform="matrix(1 0 0 .5454546 0 153.75044)" gradientUnits="userSpaceOnUse" r="2.706831" xlink:href="#linearGradient3872"/>
    <filter id="filter4878" height="1.062271" width="1.033966" x="-.016983" y="-.031136">
      <feGaussianBlur stdDeviation=".038308464"/>
    </filter>
    <linearGradient id="linearGradient4523" gradientTransform="matrix(1 0 0 -1 0 1052.3622)" gradientUnits="userSpaceOnUse" x1="469.34384" x2="341.89795" xlink:href="#linearGradient3872" y1="749.65424" y2="698.16644"/>
    <filter id="filter4937" height="1.051377" width="1.016663" x="-.008331" y="-.025688">
      <feGaussianBlur stdDeviation=".26036794"/>
    </filter>
    <linearGradient id="linearGradient4525" gradientUnits="userSpaceOnUse" x1="51.852501" x2="9.048086" xlink:href="#linearGradient3872" y1="80.671539" y2="65.707398"/>
    <filter id="filter3536" height="1.098824" width="1.093333" x="-.046667" y="-.049412">
      <feGaussianBlur stdDeviation=".48720472"/>
    </filter>
    <linearGradient id="linearGradient4527" gradientUnits="userSpaceOnUse" spreadMethod="reflect" x1="81.629553" x2="82.497263" xlink:href="#linearGradient3872" y1="27.573841" y2="1.120716"/>
    <filter id="filter3886" height="1.152712" width="1.358165" x="-.179083" y="-.076356">
      <feGaussianBlur stdDeviation="1.3332481"/>
    </filter>
  </defs>
  <path d="m-128.8111-19.056071v112h56.187504c5.114947-.238308 32.613203-27.078301 32.775-30.612499.08138-25.126708.0375-56.2589983.0375-81.387501z" filter="url(#filter3834)" opacity=".262376" transform="matrix(2 0 0 -2 296.61038 201.88787)"/>
  <path d="m-128.8111-19.556071v112.2h55.746422c3.098719 0 24.709876-18.512112 30.003672-24.699929 1.602664-1.873324 3.24991-3.03751 3.24991-7.20007v-80.300001z" fill-opacity=".700535" filter="url(#filter3826)" transform="matrix(2 0 0 -2 296.61038 201.88787)"/>
  <path d="m38.98818 241.00001v-223.999998h111.00001c3.35056 0 7.82859 1.12936 14 7.2 17.74009 17.45046 32.48094 27.703618 46.99808 42.351918 4.88112 4.92522 6.00192 8.94234 6.00192 13.44808v161z" fill="#fff" stroke-width="2"/>
  <path d="m41.98818 239.00001c-.67968 0-1-.46923-1-1v-215.937498c0-1.64316 1.35864-3 3-3h103.37501c.10614 0 1.62077-.0468 3-.0626 3.55533.0802 6.26395 1.50748 8.71207 3.18656 2.10373.58206 33.29967 27.239178 51.54191 45.618478 2.72478 2.74524 4.37092 7.89634 4.37092 9.79122l.0001 160.40384c0 .64544-.32644 1-1 1z" fill="url(#linearGradient4524-4)" stroke-width="2"/>
  <path d="m41.98818 239.00001c-.67968 0-1-.46923-1-1v-215.937498c0-1.64316 1.35864-2.999022 3-3l105.00001-.0626c.10614-.000064 6.54777.016 7.927-.0001 13.08194 9.00722 37.2746 31.906578 55.16506 49.910198 2.9537 3.31296.9152.74012 2.90782 3.2149l.00012 165.875c0 .64544-.32644 1-1 1z" fill="url(#radialGradient5988-0)" opacity=".846535" stroke-width="2"/>
  <path d="m168.37695 86.000001h35.62305m-49.62305 0h10.79102m-35.16797 0h21.16797m-38.6582 0h14.39257m-40.12695 0h22.52734m-32.79296 0h7.05859m-15.05859 0h4.79296m-21.30273 0h13.30273m5.86524-12h-19.16797m28.90234 0h-6.52539m23.99414 0h-14.26172m26.79297 0h-9.32421m23.32421 0h-10.79101m23.58984 0h-9.58984m31.58984 0h-18.79297m36.79297 0h-14.79297m22.25977 0h-4.25977m23.0918 0h-15.62305m-27.07031-12h18.69336m-37.22461 0h15.32422m-30.39453 0h11.86328m-32.12891 0h17.0586m-49.98243 0h29.7168m-52.23242 0h19.30859m-5.74804-12h-13.56055m32.35742 0h-15.58984m43.1914 0h-24.39453m31.9961 0h-4.39453m23.99609 0h-16.39453m25.86328 0h-6.26172m29.73047 0h-20.26172m-.6582-12h16.26172m-19.46875 0h-18.12696m-14.26758 0h11.0586m-31.32422 0h17.05859m-23.99414 0h3.72852m-30.66602 0h23.73047m-33.16992 0h6.23242" fill="none" stroke="#b6b6b6" stroke-width="6"/>
  <path d="m-39.811096 59.94691c0 4.46531-3.067448 5.978576-5.549678 7.662246-5.10854 3.46508-13.669156 1.756744-19.450326 1.837764-.081 5.78116 1.723142 12.231893-1.741938 17.340433-1.68367 2.48224-4.847792 5.659577-7.758062 5.659577 2.31803 0 4.74284-1.334761 7.58402-4.084811 9.14197-8.84873 14.36714-11.135349 22.673154-20.297529 1.91895-2.11675 4.24283-3.64188 4.24283-8.11768z" filter="url(#filter1164)" opacity=".4" transform="matrix(2 0 0 -2 296.61038 201.88787)"/>
  <path clip-path="url(#clipPath6093-7)" d="m114.4 82.502986c0 4.465301-4.99749 12.609952-7.47972 14.293625-5.10854 3.465079-12.739114 1.52536-18.520284 1.60638-.081 5.781159 1.96586 11.304599-1.49922 16.413139-1.68367 2.48224-9.79051 8.68687-12.70078 8.68687-2.091359 1.5337 3.488204 8.21101 6.734971 5.31989 9.501888-8.46107 35.131683-30.022704 43.350823-39.262889 2.04044-2.29392-4.90514-9.844666-9.88579-7.057015z" filter="url(#filter6171-8)" opacity=".277228" transform="matrix(2 0 0 -2 -7.01182 257.00001)"/>
  <path d="m216.98819 79.99405c0-8.93062-5.59498-12.81992-10.55944-16.18726-10.21708-6.93016-21.87823-6.65072-33.44057-6.81276-.162-11.56232.33172-19.009198-6.59844-29.226278-3.36734-4.96448-10.58102-10.773742-16.40156-10.773742 4.63606 0 8.88785 3.363424 15.16804 8.169622 19.0787 14.60084 26.40937 20.968606 43.34631 38.595058 3.95915 4.12033 8.48566 7.28376 8.48566 16.23536z" fill="url(#linearGradient3895-3)"/>
  <path d="m217.02569 78.57501c-.63286-7.7982-7.04582-11.80562-11.7-14.9625-10.21708-6.93016-22.67516-4.65046-34.2375-4.8125-.162-11.56232 1.70516-20.632918-5.225-30.849998-2.94642-4.34392-8.19891-9.3202-13.525-10.500002 3.96092.724602 7.76986 3.322782 12.5375 7.937502.67823.77706 1.14859 1.3579 2.2125 3 6.93016 10.21708 5.84737 16.931438 6.00937 28.493758 11.56234.162 23.43605-.42392 33.65313 6.50624.93084.63138 3.18798 2.3755 4.0125 3.2 3.07258 3.07258 5.80342 5.22684 6.2625 11.9875zm-64.6875-61.125c-.31532-.0698-.62688-.0828-.9375-.125.31398.0338.62088.067.9375.125z" fill="#fff"/>
  <g transform="matrix(1.2501115 0 0 1.2501115 -154.21455 102.8255)">
    <ellipse cx="64.72863" cy="87.283607" filter="url(#filter3473)" opacity=".565056" rx="48.024464" ry="19.836191" transform="matrix(.70659845 0 0 .76180141 178.44818 15.351982)"/>
    <path d="m225.47847 55.882677c-26.33974 0-47.72045 6.614589-47.72045 17.37817 0 10.763587 19.70133 21.623225 46.04107 21.623225 33.96931 0 48.9579-14.944595 48.9579-21.534837 0-8.480986-20.93878-17.466558-47.27852-17.466558z" fill="url(#linearGradient4477)"/>
    <path d="m224.89673 56.375106c-23.67922 0-42.90031 5.862951-42.90031 15.403422 0 9.540483 19.22109 19.166094 42.90031 19.166094 23.67923 0 42.90032-9.625611 42.90032-19.166094-.00001-9.540476-19.2211-15.403422-42.90032-15.403422z" fill="url(#radialGradient4479)" opacity=".227106"/>
    <path d="m192.69841 37.71724c0 18.729955 7.35037 32.28317 20.34715 41.515492 1.8883 3.288099 8.117 4.516554 12.43291 4.516551 4.31591.000003 10.54461-1.228452 12.43292-4.516551 12.99677-9.232322 20.34713-22.785537 20.34713-41.515492l-32.78005.958454z" fill="url(#linearGradient4481)" fill-rule="evenodd"/>
    <path clip-path="url(#clipPath3242)" d="m55.6875 476.98453c4.51842 7.82612 19.422723 10.75001 29.75 10.75 10.327283.00001 25.23158-2.92388 29.75-10.75 171.86401-134.72125-230.15688-144.85923-59.5 0z" fill="none" filter="url(#filter3308)" stroke="url(#radialGradient4483)" stroke-width="2.6" transform="matrix(.41791312 0 0 .42014418 189.77302 -121.4336)"/>
    <path clip-path="url(#clipPath3753)" d="m15.866498 348.2093c-1.81958 21.7456 11.703385 39.5428 19.712577 51.2527 5.277683-10.62814-14.277574-28.84685-8.761146-46.43407z" fill="url(#linearGradient4485)" fill-rule="evenodd" filter="url(#filter3744)" opacity=".227106" transform="matrix(.41791312 0 0 .42014418 189.77302 -98.068103)"/>
    <path d="m415.49129 348.93677c-14.31281 6.2587-36.88704 10.31251-62.28125 10.3125-10.28386 0-20.09638-.6699-29.09375-1.875 1.20535 11.83293 14.79589 21.15625 31.34375 21.15625 8.22882-.00001 15.71026-2.31682 21.3125-6.09375 3.58967 1.59632 7.60243 2.53125 11.875 2.53125 14.86191.00001 26.9375-10.84303 26.9375-24.21875 0-.60582-.0451-1.21774-.0937-1.8125z" fill="url(#linearGradient4487)" filter="url(#filter3905)" opacity=".227106" transform="matrix(.41791312 0 0 .42014418 77.80206 -102.20358)"/>
    <ellipse clip-path="url(#clipPath4015)" cx="81.204926" cy="437.66547" fill="url(#radialGradient4489)" filter="url(#filter4043)" rx="38.879936" ry="43.801445" transform="matrix(.6083546 0 -.25356525 .51495849 280.26576 -145.99107)"/>
    <path d="m224.89673 56.375106c-23.67922 0-42.90031 5.862951-42.90031 15.403422 0 9.540483 19.22109 19.166094 42.90031 19.166094 23.67923 0 42.90032-9.625611 42.90032-19.166094-.00001-9.540476-19.2211-15.403422-42.90032-15.403422z" fill="url(#linearGradient4491)"/>
    <path d="m311.03948 424.3774c.29333 14.4414 3.20954 28.5081 21.65465 40.35639 37.00014-6.79747 46.48788-18.9088 61.02673-30.69767 18.23527 3.68964 33.66501-3.08388 44.2936-10.15087 6.18904-4.11512 2.76685-14.32392-2.95291-11.31947-13.59587 7.14158-29.48926 13.28423-45.2779 7.87441z" fill="#9d9d9d" fill-rule="evenodd" filter="url(#filter3540)" opacity=".564103" transform="matrix(.41791312 0 0 .35375403 77.80206 -75.437479)"/>
    <path d="m256.8072 47.273478-.20568 2.067744 2.26244-1.447422c1.30776-4.495665 9.05087-5.749794 10.4895-1.75758 3.53639 9.813446-13.2578 15.792147-18.81939 17.989375l-4.21636 7.030327c10.10352-3.420721 30.00843-9.897483 27.14928-26.156961-.81544-4.637241-8.53946-8.802147-15.3229-4.032104z" fill="url(#linearGradient4493)" fill-rule="evenodd"/>
    <path clip-path="url(#clipPath4981)" d="m879.47399 353.9998-.49216 4.92151 5.41367-3.44506c3.12923-10.70029 22.14942-12.70099 25.59185-3.19898 8.46201 23.35733-29.26307 39.80213-42.57106 45.03183l-13.53416 12.54985c23.94087-9.43615 65.98646-19.96757 63.24141-55.367-.86656-11.17486-19.44928-18.73562-35.68096-7.38227z" fill="#1f1f1f" fill-rule="evenodd" filter="url(#filter4965)" opacity=".362637" transform="matrix(.41791312 0 0 .42014418 -110.94219 -101.87102)"/>
    <path d="m192.69841 37.71724c0 18.729955 7.35037 32.28317 20.34715 41.515492 1.8883 3.288099 8.117 4.516554 12.43291 4.516551 4.31591.000003 10.54461-1.228452 12.43292-4.516551 12.99677-9.232322 20.34713-22.785537 20.34713-41.515492l-32.78005.958454z" fill="url(#linearGradient4495)" fill-rule="evenodd"/>
    <path d="m55.6875 476.98453c4.51842 7.82612 19.422723 10.75001 29.75 10.75 10.327283.00001 25.23158-2.92388 29.75-10.75 171.86401-134.72125-230.15688-144.85923-59.5 0z" style="opacity:.575092;fill:none;stroke-width:5;clip-path:url(#clipPath3242);filter:url(#filter3308);stroke:url(#radialGradient4483)" transform="matrix(.41791312 0 0 .42014418 189.77302 -120.80339)"/>
    <path clip-path="url(#clipPath3753)" d="m15.866498 348.2093c-1.81958 21.7456 11.703385 39.5428 19.712577 51.2527 5.277683-10.62814-14.277574-28.84685-8.761146-46.43407z" fill="url(#linearGradient4499)" fill-rule="evenodd" filter="url(#filter3744)" opacity=".14652" transform="matrix(.73888339 0 .07770558 .61379584 159.49965 -163.45245)"/>
    <path d="m415.49129 348.93677c-14.31281 6.2587-36.88704 10.31251-62.28125 10.3125-10.28386 0-20.09638-.6699-29.09375-1.875 1.20535 11.83293 14.79589 21.15625 31.34375 21.15625 8.22882-.00001 15.71026-2.31682 21.3125-6.09375 3.58967 1.59632 7.60243 2.53125 11.875 2.53125 14.86191.00001 26.9375-10.84303 26.9375-24.21875 0-.60582-.0451-1.21774-.0937-1.8125z" fill="url(#linearGradient4501)" filter="url(#filter4439)" transform="matrix(.41791312 0 0 .42014418 77.80206 -100.42528)"/>
    <path d="m393.72086 418.47159c-32.88472 17.94043-58.48241-1.77531-82.68138-17.22529 23.79198 16.60593 47.11705 40.70422 76.31092 23.42561 2.24868-1.3309 4.04295-4.37498 6.37046-6.20032z" fill="url(#linearGradient4503)" fill-rule="evenodd" filter="url(#filter4112)" opacity=".597069" transform="matrix(.41791312 0 0 .42014418 77.80206 -102.20358)"/>
    <path d="m155.51974 418.47159c-32.88472 17.94043-58.482411-1.77531-82.681381-17.22529 23.79198 16.60593 47.117051 40.70422 76.310921 23.42561 2.24868-1.3309 4.04295-4.37498 6.37046-6.20032z" fill="url(#linearGradient4505)" fill-rule="evenodd" filter="url(#filter4112)" opacity=".597069" transform="matrix(-.42494905 0 0 .59922001 273.87751 -178.90719)"/>
    <path d="m382.62252 426.65213-10.61411 3.30603-11.65811-.52201z" fill="#fff" fill-rule="evenodd" filter="url(#filter4178)" transform="matrix(.41791312 0 0 .42014418 77.80206 -102.20358)"/>
    <path d="m256.67185 42.560573c.12565 16.852999-15.16686 34.155223-20.60795 36.195604l-2.00634.407463c8.32623-8.493121 18.54383-14.857897 22.61429-36.603067z" fill="url(#radialGradient4507)" fill-rule="evenodd" opacity=".714286"/>
    <path clip-path="url(#clipPath4403)" d="m353.20983-63.245063c-43.79811 0-79.32464 11.842185-79.32464 26.441545 0 14.599371 35.52653 26.473222 79.32464 26.473212 43.79811.00001 79.35631-11.873841 79.35631-26.473212-.00001-14.59936-35.5582-26.441545-79.35631-26.441545z" fill="#fff" filter="url(#filter4483)" transform="matrix(.41865823 0 0 .4213046 77.59801 53.026318)"/>
    <path d="m353.35106 309.56426c-42.13529 0-76.31304 10.36471-76.31304 23.1426 0 12.77791 34.17775 23.17034 76.31304 23.17033 42.1353.00001 76.3435-10.39242 76.3435-23.17033 0-12.77789-34.2082-23.1426-76.3435-23.1426z" fill="url(#linearGradient28202)" filter="url(#filter4000)" transform="matrix(.41924178 0 0 .41025256 77.60409 -98.999915)"/>
    <path d="m353.35106 309.56426c-42.13529 0-76.31304 10.36471-76.31304 23.1426 0 12.77791 34.17775 23.17034 76.31304 23.17033 42.1353.00001 76.3435-10.39242 76.3435-23.17033 0-12.77789-34.2082-23.1426-76.3435-23.1426z" fill="url(#linearGradient28202)" filter="url(#filter3549)" opacity=".308" transform="matrix(.41865823 0 0 .41025256 77.6211 -98.999915)"/>
    <path d="m353.54583 320.66402c-36.39467.00001-65.99637 10.00245-67.03125 22.46875 13.00104 7.1681 38.14433 12.03126 67.03125 12.03125 28.88694.00001 54.05245-4.86315 67.0625-12.03125-1.03579-12.4663-30.66781-22.46875-67.0625-22.46875z" fill="url(#linearGradient4513)" filter="url(#filter4515)" opacity=".883" transform="matrix(.41791312 0 0 .42014418 77.80206 -102.20358)"/>
    <path d="m298.42013 348.0394c37.84554-10.48294 78.958-11.66274 112.70259.49215-23.04771-14.67203-83.73538-13.43971-112.70259-.49215z" fill="url(#radialGradient4515)" fill-rule="evenodd" filter="url(#filter4578)" transform="matrix(.41791312 0 0 .42014418 77.80206 -102.20358)"/>
    <path clip-path="url(#clipPath4642)" d="m803.6875 318.75c-36.39467.00001-65.99637 10.00245-67.03125 22.46875 10.04813 11.10531 38.14433 14.46062 67.03125 14.46061 28.88694.00001 57.98966.58191 67.0625-14.46061-1.03579-12.4663-30.66781-22.46875-67.0625-22.46875z" fill="none" filter="url(#filter4638)" stroke="#000" stroke-dashoffset="1.0878" transform="matrix(.41791312 0 0 .42014418 -110.31806 -101.39942)"/>
    <ellipse cx="773.41541" cy="338.25098" fill="url(#radialGradient4517)" filter="url(#filter4878)" rx="2.706831" ry="1.476453" transform="matrix(.59757989 0 0 .56809764 -248.78877 -158.64102)"/>
    <ellipse cx="773.41541" cy="338.25098" fill="url(#radialGradient4517)" filter="url(#filter4878)" rx="2.706831" ry="1.476453" transform="matrix(.59757989 0 0 .56809764 -246.21917 -159.20912)"/>
    <ellipse cx="773.41541" cy="338.25098" fill="url(#radialGradient4517)" filter="url(#filter4878)" rx="2.706831" ry="1.476453" transform="matrix(.41791312 0 0 .42014418 -88.04329 -109.38216)"/>
    <path d="m358.65625 322.40625c-7.77309.11439-14.68868 1.03191-19.3125 2.8125-12.8271 4.93958-10.7613 10.38251-2.15625 14.96875 18.0019-6.08652 37.04045-10.04911 55.75-13.625-10.46869-2.86286-23.23592-4.31879-34.28125-4.15625zm38.875 5.5625c-17.27048 3.86207-34.31891 8.42165-49.125 16.71875 5.36191 5.16784 79.67082.7674 49.75-16.53125-.20025-.0702-.42213-.11852-.625-.1875z" fill="url(#linearGradient4523)" fill-rule="evenodd" filter="url(#filter4937)" opacity=".736264" transform="matrix(.41791312 0 0 .42014418 77.80206 -102.20358)"/>
    <path d="m40.368391 83.455569c-15.383085-4.492887-22.252575-13.304735-25.056243-23.664229 3.368038 10.317423 12.210737 17.31047 21.576209 18.792182z" fill="url(#linearGradient4525)" fill-rule="evenodd" filter="url(#filter3536)" transform="matrix(.76180141 0 0 .76180141 176.99621 17.101982)"/>
    <path d="m73.793497 1.1207161c2.799476 5.508331 6.247626 11.5722619 4.0625 17.2812499-2.434277 6.359934-9.582848 6.701993-8 16.15625.405489 2.421966 1.745928 5.70398 3.3125 8.46875h3.875c-.600837-1.223271-1.144004-2.775708-1.40625-3.875-1.097649-4.784864.268859-9.251174 4.6875-11.53125-1.0289 2.024499-2.303109 4.245502-1.5 6.34375.894679 2.337491 3.519251 2.462738 2.9375 5.9375-.14903.890155-.642981 2.108853-1.21875 3.125h2.15625c1.63478-3.328318 3.098972-7.509005 3.8125-10.5 2.986527-13.018822-.696353-25.2025369-12.71875-31.4062499z" fill="url(#linearGradient4527)" fill-rule="evenodd" filter="url(#filter3886)" opacity=".802974" transform="matrix(.76912498 0 0 .76912498 175.09371 6.824901)"/>
  </g>
</svg>
