<svg height="256" width="256" xmlns="http://www.w3.org/2000/svg" xmlns:xlink="http://www.w3.org/1999/xlink">
  <defs>
    <filter id="filter3834" color-interpolation-filters="sRGB" height="1.064318" width="1.080929" x="-.040464" y="-.032159">
      <feGaussianBlur stdDeviation="1.50075"/>
    </filter>
    <filter id="filter3826" color-interpolation-filters="sRGB" height="1.044321" width="1.055874" x="-.027937" y="-.02216">
      <feGaussianBlur stdDeviation="1.036"/>
    </filter>
    <linearGradient id="linearGradient4524-4" gradientTransform="matrix(2 0 0 -2 -7.01182 257.00001)" gradientUnits="userSpaceOnUse" x1="72" x2="72" y1="0" y2="116.40091">
      <stop offset="0" stop-color="#eeecec"/>
      <stop offset=".40000001" stop-color="#f4f4f4"/>
      <stop offset="1" stop-color="#f6f5f5"/>
    </linearGradient>
    <filter id="filter1164" color-interpolation-filters="sRGB" height="1.096" width="1.090435" x="-.045217" y="-.048">
      <feGaussianBlur stdDeviation=".65000024"/>
    </filter>
    <radialGradient id="radialGradient5988-0" cx="64" cy="64.004021" fx="63.793392" fy="47.274845" gradientTransform="matrix(3.368421 .16859038 .13772678 -2.7517692 -103.40582 294.32648)" gradientUnits="userSpaceOnUse" r="47.5" xlink:href="#linearGradient3872"/>
    <linearGradient id="linearGradient3872">
      <stop offset="0" stop-color="#fff"/>
      <stop offset="1" stop-color="#fff" stop-opacity="0"/>
    </linearGradient>
    <clipPath id="clipPath6093-7">
      <path d="m17.000001 8-.000001 112h61.5c1.675283 0 3.914297-.56468 7-3.6 8.870045-8.72523 16.24047-13.8518 23.49904-21.175957 2.44056-2.462612 3.00096-4.47117 3.00096-6.724043v-80.5z"/>
    </clipPath>
    <filter id="filter6171-8" color-interpolation-filters="sRGB" height="2.02159" width="1.956141" x="-.47807" y="-.510795">
      <feGaussianBlur stdDeviation="10.140743"/>
    </filter>
    <linearGradient id="linearGradient3895-3" gradientTransform="matrix(2.0239716 0 0 -2.0239716 -.8029 246.97433)" gradientUnits="userSpaceOnUse" x1="86.73793" x2="93.189758" y1="93.621468" y2="100.45876">
      <stop offset="0" stop-color="#fcfcfc"/>
      <stop offset=".52275378" stop-color="#f8f8f8"/>
      <stop offset=".72337759" stop-color="#f0efef"/>
      <stop offset=".89024991" stop-color="#e3e1e1"/>
      <stop offset="1" stop-color="#cecbcb"/>
    </linearGradient>
    <linearGradient id="linearGradient2282">
      <stop offset="0" stop-color="#202020"/>
      <stop offset="1" stop-color="#494949"/>
    </linearGradient>
    <linearGradient id="linearGradient5881">
      <stop offset="0" stop-color="#656565"/>
      <stop offset="1" stop-color="#afafaf" stop-opacity=".968627"/>
    </linearGradient>
    <filter id="filter5929" color-interpolation-filters="sRGB" height="1.123098" width="1.263884" x="-.131942" y="-.061549">
      <feGaussianBlur stdDeviation=".88476563"/>
    </filter>
    <radialGradient id="radialGradient2276" cx="32.805862" cy="89.594803" gradientTransform="matrix(1 0 0 2.1480289 0 -104.85742)" gradientUnits="userSpaceOnUse" r="8.546875" xlink:href="#linearGradient2282"/>
    <linearGradient id="linearGradient6547" gradientUnits="userSpaceOnUse" x1="40.852737" x2="24.24172" xlink:href="#linearGradient5881" y1="104.8448" y2="69.257965"/>
    <filter id="filter5933" color-interpolation-filters="sRGB" height="1.123098" width="1.263883" x="-.131942" y="-.061549">
      <feGaussianBlur stdDeviation=".88476563"/>
    </filter>
    <radialGradient id="radialGradient2268" cx="96.180862" cy="89.594803" gradientTransform="matrix(1 0 0 2.1480285 0 -104.85739)" gradientUnits="userSpaceOnUse" r="8.546877" xlink:href="#linearGradient2282"/>
    <linearGradient id="linearGradient5891" gradientUnits="userSpaceOnUse" x1="103.66637" x2="88.133987" xlink:href="#linearGradient5881" y1="105.28445" y2="70.344803"/>
    <linearGradient id="linearGradient8575" gradientUnits="userSpaceOnUse" x1="20.013976" x2="230.443933" y1="169.665279" y2="169.665279">
      <stop offset="0" stop-color="#fff"/>
      <stop offset=".5" stop-color="#fff" stop-opacity=".498039"/>
      <stop offset="1" stop-opacity=".65704"/>
    </linearGradient>
    <linearGradient id="linearGradient5752-9" gradientTransform="matrix(1.935103 0 0 1.9275646 -.872592 60.985433)" gradientUnits="userSpaceOnUse" x1="22.196054" x2="51.625942" xlink:href="#linearGradient3872" y1="-3.090547" y2="35.567139"/>
    <filter id="filter6740-7" height="1.099141" width="1.210674" x="-.105337" y="-.04957">
      <feGaussianBlur stdDeviation=".20714785"/>
    </filter>
    <linearGradient id="linearGradient6346-3" gradientTransform="matrix(.76909306 0 0 1.262355 -203.48013 71.10059)" gradientUnits="userSpaceOnUse" x1="119.58466" x2="-6.848976" xlink:href="#linearGradient3872" y1="1.565353" y2="8.759391"/>
    <linearGradient id="linearGradient6348-2" gradientTransform="matrix(.76909326 0 0 1.2623549 -33.26154 -215.12725)" gradientUnits="userSpaceOnUse" x1="108.6741" x2="-5.197605" xlink:href="#linearGradient3872" y1="-9.810864" y2="6.688276"/>
    <linearGradient id="linearGradient6350-0" gradientTransform="matrix(.76909324 0 0 1.2623547 199.15751 23.372487)" gradientUnits="userSpaceOnUse" x1="97.525558" x2="37.594189" xlink:href="#linearGradient3872" y1="51.70039" y2="11.567216"/>
    <linearGradient id="linearGradient6038-6" gradientUnits="userSpaceOnUse" x1="425.35137107355" x2="161.99578608271" y1="200.15187803389" y2="149.81690078378">
      <stop offset="0" stop-color="#07fa2b"/>
      <stop offset="1" stop-color="#25ff55" stop-opacity="0"/>
    </linearGradient>
    <linearGradient id="linearGradient6041-9" gradientUnits="userSpaceOnUse" x1="42.97036548024" x2="262.42468942435" y1="213.83878960078" y2="155.03617552342">
      <stop offset="0" stop-color="#04f732"/>
      <stop offset="1" stop-color="#00fd1f" stop-opacity="0"/>
    </linearGradient>
    <filter id="filter4037-7" height="1.011448" width="1.012566" x="-.006283" y="-.005724">
      <feGaussianBlur stdDeviation=".4732792"/>
    </filter>
    <filter id="filter3793-2" height="1.227403" width="1.086992" x="-.043496" y="-.113701">
      <feGaussianBlur stdDeviation="2.881027"/>
    </filter>
    <radialGradient id="radialGradient6897-7" cx="125.77302838138" cy="169.2944991785" fx="121.74180515107" fy="249.2017299861" gradientUnits="userSpaceOnUse" r="105.91185415874">
      <stop offset="0" stop-color="#3cc1ee"/>
      <stop offset="1" stop-color="#141b7c"/>
    </radialGradient>
    <filter id="filter3748-3" height="1.035955" width="1.035955" x="-.017978" y="-.017978">
      <feGaussianBlur stdDeviation=".73328974"/>
    </filter>
    <linearGradient id="linearGradient897" gradientUnits="userSpaceOnUse" x1="-1100.7981" x2="-1100.7981" y1="457.99292" y2="379.85718">
      <stop offset="0" stop-color="#4fd6ff"/>
      <stop offset="1" stop-color="#4fd6ff" stop-opacity="0"/>
    </linearGradient>
    <linearGradient id="linearGradient899" gradientUnits="userSpaceOnUse" x1="5.91545" x2="132.87505" xlink:href="#linearGradient3872" y1="310.45167" y2="-163.367864"/>
    <linearGradient id="linearGradient901" gradientUnits="userSpaceOnUse" x1="101.78892" x2="97.069267" xlink:href="#linearGradient3872" y1="43.982601" y2="57.256634"/>
  </defs>
  <path d="m-128.8111-19.056071v112h56.187504c5.114947-.238308 32.613203-27.078301 32.775-30.612499.08138-25.126708.0375-56.2589983.0375-81.387501z" filter="url(#filter3834)" opacity=".262376" transform="matrix(2 0 0 -2 296.61038 201.88787)"/>
  <path d="m-128.8111-19.556071v112.2h55.746422c3.098719 0 24.709876-18.512112 30.003672-24.699929 1.602664-1.873324 3.24991-3.03751 3.24991-7.20007v-80.300001z" fill-opacity=".700535" filter="url(#filter3826)" transform="matrix(2 0 0 -2 296.61038 201.88787)"/>
  <path d="m38.98818 241.00001v-223.999998h111.00001c3.35056 0 7.82859 1.12936 14 7.2 17.74009 17.45046 32.48094 27.703618 46.99808 42.351918 4.88112 4.92522 6.00192 8.94234 6.00192 13.44808v161z" fill="#fff" stroke-width="2"/>
  <path d="m41.98818 239.00001c-.67968 0-1-.46923-1-1v-215.937498c0-1.64316 1.35864-3 3-3h103.37501c.10614 0 1.62077-.0468 3-.0626 3.55533.0802 6.26395 1.50748 8.71207 3.18656 2.10373.58206 33.29967 27.239178 51.54191 45.618478 2.72478 2.74524 4.37092 7.89634 4.37092 9.79122l.0001 160.40384c0 .64544-.32644 1-1 1z" fill="url(#linearGradient4524-4)" stroke-width="2"/>
  <path d="m41.98818 239.00001c-.67968 0-1-.46923-1-1v-215.937498c0-1.64316 1.35864-2.999022 3-3l105.00001-.0626c.10614-.000064 6.54777.016 7.927-.0001 13.08194 9.00722 37.2746 31.906578 55.16506 49.910198 2.9537 3.31296.9152.74012 2.90782 3.2149l.00012 165.875c0 .64544-.32644 1-1 1z" fill="url(#radialGradient5988-0)" opacity=".846535" stroke-width="2"/>
  <path d="m168.37695 86.000001h35.62305m-49.62305 0h10.79102m-35.16797 0h21.16797m-38.6582 0h14.39257m-40.12695 0h22.52734m-32.79296 0h7.05859m-15.05859 0h4.79296m-21.30273 0h13.30273m5.86524-12h-19.16797m28.90234 0h-6.52539m23.99414 0h-14.26172m26.79297 0h-9.32421m23.32421 0h-10.79101m23.58984 0h-9.58984m31.58984 0h-18.79297m36.79297 0h-14.79297m22.25977 0h-4.25977m23.0918 0h-15.62305m-27.07031-12h18.69336m-37.22461 0h15.32422m-30.39453 0h11.86328m-32.12891 0h17.0586m-49.98243 0h29.7168m-52.23242 0h19.30859m-5.74804-12h-13.56055m32.35742 0h-15.58984m43.1914 0h-24.39453m31.9961 0h-4.39453m23.99609 0h-16.39453m25.86328 0h-6.26172m29.73047 0h-20.26172m-.6582-12h16.26172m-19.46875 0h-18.12696m-14.26758 0h11.0586m-31.32422 0h17.05859m-23.99414 0h3.72852m-30.66602 0h23.73047m-33.16992 0h6.23242" fill="none" stroke="#b6b6b6" stroke-width="6"/>
  <path d="m-39.811096 59.94691c0 4.46531-3.067448 5.978576-5.549678 7.662246-5.10854 3.46508-13.669156 1.756744-19.450326 1.837764-.081 5.78116 1.723142 12.231893-1.741938 17.340433-1.68367 2.48224-4.847792 5.659577-7.758062 5.659577 2.31803 0 4.74284-1.334761 7.58402-4.084811 9.14197-8.84873 14.36714-11.135349 22.673154-20.297529 1.91895-2.11675 4.24283-3.64188 4.24283-8.11768z" filter="url(#filter1164)" opacity=".4" transform="matrix(2 0 0 -2 296.61038 201.88787)"/>
  <path clip-path="url(#clipPath6093-7)" d="m114.4 82.502986c0 4.465301-4.99749 12.609952-7.47972 14.293625-5.10854 3.465079-12.739114 1.52536-18.520284 1.60638-.081 5.781159 1.96586 11.304599-1.49922 16.413139-1.68367 2.48224-9.79051 8.68687-12.70078 8.68687-2.091359 1.5337 3.488204 8.21101 6.734971 5.31989 9.501888-8.46107 35.131683-30.022704 43.350823-39.262889 2.04044-2.29392-4.90514-9.844666-9.88579-7.057015z" filter="url(#filter6171-8)" opacity=".277228" transform="matrix(2 0 0 -2 -7.01182 257.00001)"/>
  <path d="m216.98819 79.99405c0-8.93062-5.59498-12.81992-10.55944-16.18726-10.21708-6.93016-21.87823-6.65072-33.44057-6.81276-.162-11.56232.33172-19.009198-6.59844-29.226278-3.36734-4.96448-10.58102-10.773742-16.40156-10.773742 4.63606 0 8.88785 3.363424 15.16804 8.169622 19.0787 14.60084 26.40937 20.968606 43.34631 38.595058 3.95915 4.12033 8.48566 7.28376 8.48566 16.23536z" fill="url(#linearGradient3895-3)"/>
  <path d="m217.02569 78.57501c-.63286-7.7982-7.04582-11.80562-11.7-14.9625-10.21708-6.93016-22.67516-4.65046-34.2375-4.8125-.162-11.56232 1.70516-20.632918-5.225-30.849998-2.94642-4.34392-8.19891-9.3202-13.525-10.500002 3.96092.724602 7.76986 3.322782 12.5375 7.937502.67823.77706 1.14859 1.3579 2.2125 3 6.93016 10.21708 5.84737 16.931438 6.00937 28.493758 11.56234.162 23.43605-.42392 33.65313 6.50624.93084.63138 3.18798 2.3755 4.0125 3.2 3.07258 3.07258 5.80342 5.22684 6.2625 11.9875zm-64.6875-61.125c-.31532-.0698-.62688-.0828-.9375-.125.31398.0338.62088.067.9375.125z" fill="#fff"/>
  <g transform="matrix(1.8 0 0 1.8 11.970389 9.600002)">
    <path d="m25.837622 91.632779v-6.0625l16.09375-14.21875v7.844092l-10.03125 9.437158 10.03125 9.405911v7.81285z" filter="url(#filter5929)"/>
    <path d="m24.758987 90.626053v-6.0625l16.09375-14.21875v7.844092l-10.03125 9.437158 10.03125 9.405907v7.81284z" fill="url(#radialGradient2276)" stroke="url(#linearGradient6547)"/>
    <path d="m89.212622 105.85154v-7.81285l10.000018-9.405911-10.000018-9.437158v-7.844092l16.093768 14.21875v6.0625z" filter="url(#filter5933)"/>
    <path d="m88.133987 104.8448v-7.812839l10.000003-9.405908-10.000003-9.437158v-7.844092l16.093753 14.21875v6.0625z" fill="url(#radialGradient2268)" stroke="url(#linearGradient5891)"/>
  </g>
  <g transform="matrix(.33333333 0 0 .33333333 86.117986 112.42512)">
    <circle cx="61.183861" cy="58.709656" fill="#11196b" filter="url(#filter3748-3)" r="48.94709" transform="matrix(2.1752077 0 0 2.1752077 -7.441563 42.267251)"/>
    <circle cx="125.77304" cy="169.29451" fill="url(#radialGradient6897-7)" r="105.91185"/>
    <path d="m-1178.1562 380.46875c9.4741 35.01644 41.4689 60.81251 79.4687 60.8125 37.9998 0 70.0258-25.79606 79.5-60.8125-13.4771 30.49971-44.0299 44.13469-79.5 44.13469-35.4701-.00001-65.9917-13.63498-79.4687-44.13469z" fill="url(#linearGradient897)" filter="url(#filter3793-2)" opacity=".520599" transform="matrix(1.1849224 0 0 1.1849224 1428.5807 -251.00515)"/>
    <path d="m99.542723 202.24408c-8.765437-5.33377-20.688697-2.70669-20.75845-14.17574 17.383049-7.28267-2.454416-10.00154 2.898847-18.42734 7.503145-8.02608 18.98199-7.38528 28.20218-6.09001 5.63587-2.49249 17.37313 1.29409 16.53226 5.63444.68476 5.79561 20.18468 1.67267 10.18475 12.24109 3.29105 10.00852-16.19564 19.28553-27.77658 16.0041-5.79339-.90221-6.05303 4.45021-9.283007 4.81346zm84.359227-43.59523c8.99229-22.94192 20.90049-47.71028 14.52441-72.817024-7.89501-35.135259 9.84532 18.534564 2.47725 31.927424-2.38113 14.52005-6.86871 29.87079-17.00166 40.8896zm-134.369397-15.3842c-21.458246-11.51099 8.203226-2.82775 0 0zm-9.85711-4.853c-10.750558-8.42173 6.23282-2.95885 0 0zm-2.5303-8.2374c-1.302653-3.72523 1.545743 1.32433 0 0zm32.03176-.27512c-6.47517-6.0639 7.988814-3.70537 0 0zm120.206177-2.27521c1.24578-10.65443 7.4588-31.861086 4.64897-8.50189-.94128.8861-2.10142 11.09716-4.64897 8.50189zm-122.523707-5.61408c-19.569621-7.18257-10.132961-29.899041-2.76632-42.837394.32679-12.804792 7.609885 18.869381 12.34411-1.41155-1.131053-10.072177 12.259793 3.479999 15.98785-.8834 5.678012 5.6833 9.979827 8.123645 20.132137 14.26049-.50294 12.500384-3.60583 27.226984-17.615197 16.641184-10.615341-.90626-18.224758 2.33932-18.277003 7.00217-1.120989 6.00657-5.172861 6.26817-9.805577 7.2285zm10.82926-8.29111c1.446839-.64076 1.409269 1.17701 0 0zm-55.73579-8.97933c.163321-1.84725 1.823345.25198 0 0zm14.61548-2.58321c-.05214-2.694295.999574-.0431 0 0zm1.77398-21.445174c.92332-1.472496 1.461203-.0023 0 0zm14.91839-4.64709c4.12435-10.463617 15.32249-18.576994 26.26121-17.29763-1.050427 1.561404-9.13551 9.377807-11.81332 11.2605-6.213064.260734-8.561008 1.500753-14.44789 6.03713zm-8.57811-3.25257c.778165-1.611364.393155.908654 0 0zm38.87943-.11229c1.429337-.758547.337379.81342 0 0zm-33.23944-3.40573c-1.451354-2.560309 9.408238 1.756783 0 0zm44.06063-.25666c-14.758495-5.64114 7.050937 1.332969 0 0zm7.129827.26665c3.56966-3.073476 1.23668.433513 0 0zm93.02731-2.07151c-7.12132-10.453862-16.8818-30.366356-3.26486-8.854028.38628-.519848 7.61359 17.540026 3.26486 8.854028zm-88.15415-.09026c1.9729-1.321504 1.34301 1.355516 0 0zm1.98538-.20178c1.12118-1.309174.68505 1.817655 0 0zm-7.49026-.18809c2.76636-1.079834.45207 1.249622 0 0zm3.61727.17178c1.42937-.758594.3374.813412 0 0zm5.8486-.15864c1.27845-1.177131 1.99975.625647 0 0zm1.99449-.42643c9.5352-5.088657 26.93025 1.350313 0 0zm1.18132-1.58079c1.42934-.758554.33737.8134 0 0zm13.92226-1.13713c-4.35726-7.214506 17.64172-15.994821 15.15148-12.4353-6.33286 2.703371-7.79546 11.698541-15.15148 12.4353zm-25.44202-3.78867c-2.075592.428435-7.236801-4.331758.79073-4.888653 2.32321.588674-.45308 11.557687-.79073 4.888653zm-17.817047-.06484c6.050299-2.416565 4.967521-.644615 0 0zm26.080497-.56161c-5.1195-5.006395-8.43414-19.652699 1.3203-12.46623 10.86377 3.47466 12.97388 13.501794-1.3203 12.46623zm-19.943897.03336c1.736255-2.377474 1.621487 1.754286 0 0zm32.487797-.19781c.84242-1.239902 1.03971.687901 0 0zm2.52682.01732c.16453-.969244 2.13459.323532 0 0zm-46.917477-1.75325c6.716317-6.209854 4.988685 3.607511 0 0zm48.000417.67034c1.40926-1.177011 1.44678.64076 0 0zm38.32632-2.85947c-2.53483-7.90177 4.27847 1.549091 0 0zm3.73923-1.66833c-4.0066-15.49747-21.30177-27.197657-29.18486-19.33888 3.9105 13.738684-18.88235 25.542292-1.70806 8.800776-1.12174-9.255886-26.07443 3.740848-11.53369-13.295286-6.4506-4.348274-28.37148-8.12042-24.72681-13.99715 1.37648-5.054587 5.40146-8.0583079-6.262637-4.57346-7.116698 5.432898-1.591491-5.2297599-14.55986-4.0483902 36.904007-10.6720035 80.472297 6.3804502 101.428737 37.2222602-15.76356-9.703648-7.22874-2.048864-13.45282 9.23013zm-80.535227-.77709c1.794769-.935718 1.602304 1.959086 0 0zm14.284317.34059c-17.771722-.08143-4.773901-3.042594 0 0zm-13.115437-.91009c-1.111872-1.634732 1.588249.308588 0 0zm93.927907-6.88862c-1.17262-1.794189 2.05344 2.279006 0 0zm-89.988677-.97833c-4.859367-7.080539 6.58845.361043 0 0zm5.45919-1.39757c-5.182011-1.206565.08427-1.809796 0 0zm-1.33665-2.87479c-1.465086-4.440686 2.224966.725127 0 0zm.56683-2.01804c1.238778-1.735635 1.96502 1.219168 0 0zm-4.23667-.73302c2.88019-3.240671-.880563 2.308099 0 0zm6.640367-1.54156c1.15461-1.986068.73502 1.664945 0 0zm-3.663967-.80468c.161023-1.556289.520966.961426 0 0zm1.15219-.78963c1.429316-.758538.337373.813412 0 0zm2.545647-.81606c-3.072463-9.5145 4.8535 1.188348 0 0zm18.76544-4.08969c-3.67968-3.231098 5.78151 1.00476 0 0zm-18.35095-5.85833c-.988014-5.035026 3.31064 3.303701 0 0zm-14.855877-7.28962c.690573-3.203852 2.533487 1.241905 0 0zm-6.48045-1.03832c-14.158176-1.609452 2.500591-4.198564 0 0zm4.20038.3802c.84243-1.239871 1.039612.687915 0 0zm-1.34615-.41988c1.42932-.758576.337391.813467 0 0zm.35033-.87691c8.737796-.459123-4.306105.952749 0 0zm-9.36066-3.27179c7.170685-2.1662593-3.914319 1.516691 0 0z" fill="url(#linearGradient899)" filter="url(#filter4037-7)" opacity=".64794" transform="matrix(1.0320841 0 0 1.0320841 18.772954 62.660194)"/>
    <path d="m113.68885 262.85841c-1.0354-.36681-2.56283-.77263-2.84966-1.93884 1.22638-.70784.0956-2.53598-1.04139-2.6755-1.08077-.83484-.86545-2.56921-.0696-3.55959 1.13329-1.2722.30978-2.85607.23555-4.31153-.00062-1.44823.68477-2.79791.631-4.26381.0783-2.26415.28372-4.6352-.48934-6.80906-.81893-1.66651-2.75119-2.23247-4.27493-3.06887-1.92584-.99246-3.9753-1.90983-5.51556-3.47002-.408295-1.21367-1.185405-2.27012-1.993575-3.27309-1.994047-2.75593-3.130979-6.15785-5.752213-8.4388-1.098173-1.06036-1.960669-3.27297.06903-3.81977 1.095176-.43795 1.149811-2.01349-.245685-1.81668-1.419067-1.16923.580973-2.64068.622897-3.94547.609356-.91209 2.396358-.73949 2.479184-2.25156.831195-.56353 2.820077-1.32792 2.400987-2.52854-.664443-1.60885.0423-3.54004-.947953-5.07178-.821638-1.14174-.357916-2.90828-2.130105-3.28812-.842027-.38182-1.483446.76718-2.146867 1.02208.392846.67231-.149073 1.81325-.797215.8591-.0015-.86754-1.115114-.74611-1.525725-1.5778-1.248095-.39796-2.136339-1.45079-3.057587-2.34237-.702152-.27498-1.179919-2.32466-1.770748-1.54249.247567.99449-1.241436-.92621-.89433-1.52827-.31744-1.70758-1.742542-2.92279-2.181776-4.57498-1.13409-.41566-2.332803-.91516-3.311196-1.72534-1.096962-.67197-2.344913-1.14594-3.005755-2.34021-1.010865-1.2856-1.641428-2.97373-3.088839-3.84754-1.273611-.28931-2.822794.43031-3.723792-.96829-2.288052-2.29194-4.675246-4.51741-6.653769-7.09052-.677944-1.09275-1.513139-2.21383-1.658099-3.52184.277573-1.35655.885942-2.70328.571617-4.12431-.332196-2.00953-.976762-3.95515-1.326532-5.96099-.804144-1.53914-.548867-3.33162-.949213-4.98109-.47848-2.89143-.06791-5.85982-.650609-8.73558-.81967-1.78383-1.291897 1.28695-1.214986 2.03772-.199618 3.85241-.385916 7.72853-.09477 11.57982.328231.45028.607873 2.15373.135902 2.01017-.688241-1.62579-1.296976-3.39763-.932811-5.18139.115633-1.4973-.684249-2.83308-.953375-4.25883.771694-.7045 1.261426-1.66324.866132-2.81827-.444433-3.29472 1.078539-6.53238.482757-9.81283-.771929-1.35726-.702988-2.69797-.302954-4.13895-.02313-1.32243.574489-2.26805.966365-3.3228.390788-1.23855.335163-2.63646 1.036284-3.83022.998557-2.53949 2.971751-4.49292 4.715431-6.52962.59375-.87012 2.109208-1.97089 2.512475-2.26334.264037-.92315.771765-3.04633 1.895298-2.8212.641463.76387-1.517723 1.90319.09442 1.34213 1.524651-.99205 1.852846-3.0318 1.87734-4.72265-.135132-1.3645.335005-2.65426 1.082839-3.7688.270463-1.30892 1.300146-2.12406 1.93699-3.34192.991993-.70648.981272-1.96584 1.801772-2.56632.790367-1.25899 1.705973-2.42612 2.505445-3.67913.713384-.84256.751347-1.503987-.470758-1.194983.05271-.963717 1.275689-1.210966 1.185524-1.963379.520952-1.270155-.240525-3.065121 1.095257-4.126089.709042-.669997.239017-1.48813-.598522-.77659-1.424028.605182-1.366361-1.359179.05839-.975129.659084.582219 1.417517-.24559 2.033747-.591837.762445-.382968-.379748-.122265-.681452-.145605-1.358399.121078-2.808113.0733-4.028731.723293-.862569.120753-3.409536-.318798-3.166252-.869216 1.172219.07699 3.508578.27515 3.745096-1.152841.562965-.969194.837362-1.764179 2.037533-2.126118.729565-1.175212 2.236064-1.702616 3.427557-2.391278 1.393048-.668484 2.247943 1.560067 3.551576.154495.743937-.989443 1.41336-2.482328 2.892681-2.508773.306681.514022-1.292509 2.249201.143152 1.890712 1.218341-.836282 2.242389-2.349765 3.856825-2.340658.710618.529723 2.82845.684604 2.600034 1.635074-1.17615 1.508395-1.469382 3.457862-1.881975 5.268364-.65027.66045-1.233274 2.973162.434374 2.253082.498417.01711-.228028 1.004774.68531.796874.653833.200468 2.342302.04155 1.291865 1.022984-.570325 1.430921 2.008034.542853 1.410673 1.979743.122389.866974 1.717985 2.619532-.162201 2.30936-1.143028 1.099285 2.214406 1.344795 1.598306 2.752477-.068 1.844118 1.0039-.495883 1.78443-.499024 1.447525.09638 1.750845 2.124352 3.299485 2.258692.67416.37093 1.48682.69987 1.03837-.42028.8945-.687593-.15568 2.59435.87468 1.26347.73316-.55616 2.83528-1.06638 2.16322-2.496015-.53191-.975466 1.46077-2.511188 2.10304-1.900602-.17987 1.368715-.96828 2.650673-.81096 4.081237.12487 1.00269 1.51533-1.279104 1.18352.28915-.50776.4539-1.18778 2.22593.15162 1.65142 1.21788-.51725 1.90434-1.87163 2.69357-2.58743 1.11885.33817 1.19989 1.55354.44662 2.23316.26384 1.47652-1.29513 2.14332-2.52181 1.77615-.59536-.0826-1.48051-.23111-1.33506.55412-.91757.67458-1.95329-.37185-2.616-.55031-.41506 1.08734 2.05532 1.53676.38259 2.2608-.78892.41954-1.71274.12667-2.42794.54389-.43889-.31522-2.16996-1.74193-1.23707-.31468 1.02224.60856.75886 1.54932-.43506 1.20697-1.16074.55208-2.39193 1.12998-3.256835 2.11427-.60288.89342-1.91445 1.76848-1.82264 2.85624 1.55396.59356.0133 2.27787.35924 3.23383 1.39988-.31997 2.770125 1.15697 3.215585 2.37583.76921 1.39482 2.61418 1.65649 3.4889 2.73951-.0689 1.53316-.25259 3.1409-.6046 4.59185 1.40318-.19277.26377 2.18444 1.76845 1.76604.54487-.61887 2.55495-.75785 1.9325-2.16712-.0142-1.26697-.28721-3.15987 1.25702-3.64371 1.41391-.40097 2.4337-1.57349 2.30258-3.08352.33791-1.1834-.74034-2.08892-.86555-2.98486 1.27559-.23422 1.92841-1.15387 1.71075-2.45773.34776-.93054.382-2.65305 1.80979-1.99806 1.57396-.0709 2.65546.79577 3.38156 2.07051.74917.22763 1.96453 1.95067.41767 1.67024-1.52068-.50555 2.10847 1.44603.11813 1.80539.0673.67942 2.00641-.26238 1.28467 1.06651-1.45736.65443 1.08177.2063 1.53271-.10993 1.17618-.44226 1.44212-1.75197 1.91708-2.77118.34031.81917.70022 1.65636 1.32232 2.29265-.48469 1.16443 1.53031 1.99283 1.13051 3.0461-1.30785.74977 1.23056 1.55989 1.58767 2.2469.554 1.02741 1.89887.656 2.55241 1.34612-.97321.34294-2.20314 1.24217-3.36297 1.05748.10526 1.66382 2.05663.0684 2.95942-.16809.84942-.2513.45688 1.10624 1.42695.71422 1.01691.57128 1.29696 2.58614-.0154 3.01401-1.60215.16414-2.43062 1.87318-3.99263 2.03957-2.23344.23273-4.51135-.18493-6.72462.22092-.78239 1.16712-2.2486 1.31474-3.20258 2.34126-.55678.61042-2.19244 2.00967-1.91547 2.41781 1.1513-.99029 2.23975-2.1244 3.73988-2.59597.98228-.41184 3.8296-1.28604 3.46599.55567-.43424 1.09638-3.2083-.34274-1.74162 1.04059 1.79319.0293.6636 2.53056 2.26434 3.16024.48148.7723 3.04666.16421 2.32731 1.31216-1.13452.69179-2.6424.82546-3.49253 1.9532-1.23664 1.27741-2.22986-.92751-.64326-1.31627.46595-.48678 2.3273-.5066 2.15211-1.03678-.86849-.25047-1.33174-1.02366-2.18271-.10937-1.09683.31502-2.0357.46613-2.8412 1.26746-.8219.29712-1.66712.0592-2.13595.83991-1.62648.0112-2.7935 2.10116-2.03273 3.51277-.88357.67483-2.32643.22358-3.38531.72031-1.77591.14485-1.41896 2.08664-2.38988 3.06972-.8806-.14213-2.33779-1.2135-2.67621.39301-.13617 1.00608-1.99137-.21252-.80391.92201.88705.90432.1076 2.25334.92292 3.07963-.0648.59195-1.91768.85349-.51735 1.25654.99309.31376-.3994.6771-.79041.51557.0322 1.74672-2.10598 1.40038-3.15725 2.33011-1.080905.97628-2.563355 1.21693-3.615078 2.13673-.986775 1.10373-1.869829 2.57533-1.40322 4.10761.290527 2.42444 1.115007 4.9994.18117 7.37761-1.087496 1.11974-1.866936-1.51101-1.858809-2.41982-.944275-1.01037-.535069-2.42655-.598899-3.68834.006-1.53186-1.144994-2.85835-2.72131-2.77411-1.097937-.83473-2.129769-1.76399-3.571788-1.80044.224831-.96269-.05194-.60463-.684621-.33039-.803636.24761-2.560927-.68668-2.807088.0672 1.5838.49144.05755 1.92739-.907602 1.07631-.759975-1.13233-2.049118-1.27967-3.177791-1.8598-1.28093-.61664-2.217604.28799-3.145711.87573-1.477952-.47981-2.734457 1.00872-3.100562 2.30134.199228 1.61583-1.197688 2.57122-1.606477 3.99012-.283135 1.28887-.726381 2.58275-.800706 3.89073.258923 2.17653.520053 4.43896 1.540591 6.41015.664111 1.29996 2.221934 1.55585 3.540343 1.50018.915295-.28016 1.097347.6569 1.663627.74141 1.319558-.66573 1.980988-2.0894 2.558519-3.37292.882809-.96045 2.717132-.62686 3.75424-.0932 1.710424-.35259.724782 1.77848.07605 2.47316-.361895 1.03241-.759279 2.62615-1.51043 1.84477-.100504 1.45287-.465597 2.9205-1.42894 4.05458-.223115 1.28743 2.142669 1.09443 3.02879 1.45335 1.624656.29996 3.377439.71316 4.58982 1.90869.46279 1.24773-.240987 2.58858-.416861 3.85095-.416315 1.63688-.808463 3.57561.402506 4.99352.843187 1.05703 1.477508 2.6242 3.104074 2.40641 1.190993.35062 2.213484-.54902 3.291744-.3289 1.424295.48897 2.336748 1.72345 3.365324 2.7312.46869-.49583 1.32621-1.51763 2.133015-2.04877.2159-1.21607 1.10404-2.32227 2.40844-1.77632.67462-.86704 2.12385-.52227 3.07528-.9996.51478-.1539 2.13474-1.43627 1.66439-.15256-1.12034.64631-.0795 2.28967-1.04613 3.21672-.0518 1.00368 1.59971 2.6038 1.63615.73868-.32237-1.11607-.68406-2.60964 1.0009-2.69878 1.27133-.28565 3.34878-.18776 3.8448 1.23557 1.23716.64756 3.00118-.2025 4.0239.99274 1.20423.64201 2.71295.033 3.86783-.47925 1.36449.38051 2.37943 1.63115 3.8175 1.95518.93335.33862.12647 2.07681 1.48174 1.6475 1.34644.32699 2.87409 1.0255 3.37271 2.41745 1.19696.42903 2.00272 1.80112 3.42178 1.67667 2.55825-.0315 5.30617.0934 7.53298 1.49398 1.12351.66562 2.04568 1.43229 2.28009 2.82232.31408 1.10742 2.11638 1.76833.69806 2.87376-.59881.83439-2.58161 2.11442-1.29498 3.08825 1.23131-.29806.39877 1.08763.29599.99283.98206-.10392 2.26186-.16191 2.95758.20283.96729-.75925 1.7062-1.75812 2.5452-2.6493 1.55914.35606 3.12398.7148 4.70315.94534.72256.4191.56371 2.18007 1.72589 1.21301 1.45205-.40388 2.9608.17519 4.43516-.14839 1.38358-.37489 2.87003-.35834 4.09679.47572 1.35189.74991 2.86816 1.35759 4.44166 1.12094 1.20349.34501 1.15944 2.1169.95926 3.15089-.81274 2.71073-3.20708 4.47915-4.96275 6.56686-.98261 1.21417-2.52329 2.35703-2.39358 4.08775-.0849 1.61822-.69309 3.16724-1.64514 4.46066-.35288 1.52018-1.69337 2.54597-2.6794 3.67865-.97588 1.03151-2.14941 1.99199-3.62176 2.1172-2.87189.80118-5.68182 1.98014-8.14031 3.67951-1.12997.92621-.49171 2.92911-2.23331 3.43075-1.47757 1.1148-2.70851 2.58978-4.48914 3.25894-1.28626.46691-2.19182 1.72567-3.59807 1.83821-1.76651.241-3.58097.22198-5.31939-.14719-.66165.78579 2.35881 1.00005 1.49352 2.21048-1.42544 1.09919-3.36237.8728-5.05906 1.01053-.93527.001-2.18636.02-2.18434 1.20484-1.06463.24779-2.18053-.12612-3.26407-.18754-.32922.18273.21652 1.12272.13445 1.5836-.007.99083-3.04894.28347-1.84166 1.42832.64275.15762 1.94954.43049.51233.57096-1.47399-.0568-2.48616 1.20998-3.94195.80013-.52103-.0722-1.03646-.18132-1.54521-.31422zm-4.44781-3.76493c.22045-1.48374 1.06586 1.29204 0 0zm34.2856-43.26091c-.25343-1.55907 2.04227-1.08187 3.06259-1.09071.49704 1.18093-1.43635 2.06225-2.46181 1.97817-.49383.005-.6312-.48029-.60078-.88746zm72.89606-8.49573c1.5457-4.80344 3.80281-9.44455 4.40327-14.509.12723-1.6698.42449-3.38754.0543-5.04053-.62824-1.18701-1.34015-2.40291-1.12997-3.81396-.0102-2.17178.42016-4.36322.1038-6.52189-.61201-1.68207-1.70885-.31171-2.07467.68375-.22852.1984-.53698 1.29062-.70518.81462-.28395-.66372-.53812-2.03122-1.51723-1.53931-1.56518 1.2768-2.42103 3.19351-3.49594 4.8632-.65503 1.12798-1.48094 2.26503-2.77713 2.68111-1.69433.96695-2.71263 2.70686-4.22778 3.88503-1.39251.10519-2.69844-.66403-3.98163-1.12934-1.15613-.46467-2.46445-1.04474-2.79574-2.37209-.58525-.86744-1.67801-1.11062-2.27607-1.95671-1.24503.00011-.56328-1.13797-.17146-1.3474-1.0159.50172-2.84254.64363-2.54262-1.14325-.10834-1.26666-1.0232-2.29939-.71778-3.64573.0217-1.97943.47518-4.11547-.57804-5.92543-.32133-1.23146-.41726-2.55701-1.65625-3.21771-.25607-1.58919.14378-3.20868.21152-4.8076.30577-2.67804.26117-5.42647.99382-8.03665.59179-1.18265 1.34949-2.32531 1.4109-3.7018.29225-1.298-.15906-2.52419-.58897-3.7206-.35912-1.77273-.42616-3.72651.46018-5.36075.58048-1.26287-.72259-2.78527-.25368-3.86604 1.38272.3308 3.06031-.54568 3.6447-1.82813.28335-1.72329.79113-3.43234 1.7699-4.90147.82159-.92427 1.58076-1.65419 2.10517-2.77228.86397-.55352.94738-2.75366 2.18347-1.26189.92772.87336 1.52365 2.05507 1.68602 3.31584.83728 1.7078 2.69973.053 3.65579-.54402 1.08408.90449 2.17885.12595 3.25117-.29322.63136-1.56233-1.23903-2.67569-1.22445-4.21665-.19894-.79859-.24238-1.77841.79453-1.62024 1.73149-1.03456 1.54869-3.29207 1.38069-5.02417-.25561-2.46298-1.98921-4.3859-3.23074-6.42112-.79505-1.0963-1.50273-2.30196-2.54579-3.18342-.53733.70858 1.11773 2.3255.1757 3.35233.49536.61061.69548 2.14055-.5407 1.51157-1.20026-.73826-2.36944-1.67379-3.08884-2.90272-.0615-1.47018-.85032-2.603-1.08161-4.0221-.62886-1.2633-1.09062-2.55303-.44093-3.87197-.16651-1.55676-1.19866-2.93788-2.44069-3.83698-1.27523-.101843-2.73854.24437-3.44826-1.271082-.42456-.362185-1.43314-1.990698-1.72449-1.488084.49399 1.403617 1.29718 2.773216 2.42097 3.758186 1.27806-.25871 1.04879 2.21913.24075.87927-.78006-.84658-1.73438.0415-.90047.86044.51249 1.31319 1.78854 1.83386 2.25196 3.09842 1.05993 1.35612 2.1599 2.73396 3.54245 3.77397 1.53054.61909.37937 2.47007.5285 3.54119.29527 1.4895 1.34016 3.00484 2.87685 3.37378-.30032.35272-.78464 1.56839-1.66488.766-1.10592-.50053-2.01994-1.3171-2.81549-2.21574-1.34938-.94534-3.17829-.22408-4.59274-1.04213-.85231-.48044-2.99635-.58799-2.03027.91898.66556 1.42571 2.26027 1.42034 3.45718 2.04815 1.105.72216 2.47854.21593 3.64043.55268-.49622 1.3304 1.40502 1.67837 1.57461 2.64869-1.21851-.50752-2.51336-.97028-3.87296-1.01766-1.37485-.12976-2.68149-.5943-3.88244-1.25768-1.91148-.6792-1.06375 1.90983-1.2214 2.92767-.70034.69422-2.15619 1.5294-1.117 2.75227 1.32415 1.42039.50707 3.38713.79542 5.08785-.0262 1.40422 1.47415 2.11877 1.52441 3.49622.21959 1.42404-.16051 3.00118-1.29426 3.95668-.7622.45923-.20797 2.47088-1.44156 1.39059-.92011-1.00288-1.82273-.23006-2.64077.30414-.52395-1.17575-1.62512-1.68945-2.13487-2.78762-.66579-1.97405-1.5003-3.98396-3.06347-5.42121-.3815-1.30058 1.268-2.03731 2.16995-2.61029 1.09887-.59647 3.19617-1.50622 2.17324-3.08295-.9521-1.9284-2.66299-3.86566-4.98805-3.8465-1.1837.42474-2.37866-.97308-.8504-1.46229 1.52152-.0858.0572-1.44189-.0744-1.76432 1.46372.0542 1.07527-2.22144.40623-2.946-.20328-1.24843.33921-2.55652-.5212-3.54616-.17787-1.07309-1.2327-2.05071-.12156-3.11613-.21279-.83935-.97644-1.36281-1.50141-2.00916.62293.008 1.66111.61971 1.96446-.13055-.0513-.9744 1.4817-.85336.90155-2.06321-.0323-.71259-.54904-2.09901.49224-1.9519.0337-1.218416-.99255-2.207316-2.01774-2.804178-.95743-.470658-2.70027-1.836461-.97703-2.131911-.68625-1.231219-2.15162-1.119254-3.03917-1.807977-.7177-.99945-.0129-2.884327-1.60372-3.225615-1.64529.162822.97628 2.678932-.5904 2.725293-2.04401-.268262-3.72142-1.707607-5.13892-3.110235-.79083-.730487-1.87159-2.296025-3.03116-1.721658-.28253 1.418368 1.35944 1.826202 2.2135 2.436139.93352 1.107702 1.649 2.407408 2.85984 3.261345.68838.460459 2.06201 1.913917 2.54656 1.591153.20728-.779218 1.3688.289291 1.06201.923774 1.24594-.330647 1.37281 1.582767 2.56294 1.966129 1.34708.640258 1.4995 2.127001 2.31498 3.122901-.74562 1.11651-1.7693-.8922-2.76047-.98814-1.41626-.68826-2.887-1.39364-4.28867-2.032818.54786.828038 2.35651 3.071208.36305 3.123418-.59698-.40323-.87885-.96731-1.58307-1.03573-.0914-.85522-1.97687-.4473-1.47935-1.43307.5038.23048 1.01292 1.09636.55446.0259-.35009-.458059-1.34107-1.546294-1.05182-.341598-1.05739.194269-1.53357-1.672652-1.89934-2.529683.23588-1.571365-.98902-2.226286-1.98281-3.190055-1.66217-1.747131-3.3565-3.469734-4.96648-5.263018-.45854-.723238-1.55831-1.895034-1.32876-2.534391.75701.391819-.99741-1.319559-.21495-1.810606 1.14056 1.674182 1.83907-1.33696 3.01932-1.46166 1.09046-.581466 3.90555.206444 2.9621 1.747992-.61849.477795-.91479 1.231618.17254.996631 1.2056-.291642 3.52425 1.443428 3.88477-.369407-.46396-.591694-1.88122.444318-1.29717-.875098-.20197-.986656-2.01004-.55323-2.55591-1.585146-.42366-.781875-.80314-1.324316-1.7798-1.518978-.75796-1.087787-2.15199-1.445436-3.16886-2.256913-.8175-.784218-2.2375-1.580352-2.65874-2.369748-.33269-1.007119-2.80126.06621-3.02606-1.525322-.0932-2.028633-2.00426-.536097-3.20936-.874268-1.02908-.140735-2.56946.05738-3.25242-.616567 1.78895-.490257 3.70854-.338302 5.54508-.22337.6022-.105199 2.20371.859949 2.22146.182532-1.37923-.808684-3.0371-.797932-4.56948-.991728-.0863-.686179-1.3467-.924708-1.37091-.01222-.78867.468384-2.19425.783204-2.19855-.258501-.62402-.03597-3.26451.154066-1.95251-.884673 1.22557-1.085835-1.61654-.282242-1.94308.361088-1.38974.118733-2.78799-.454712-4.2086-.402886-2.72947-.231259-5.49213-.126847-8.19879-.574847-.46955-.570398-2.91471.09798-2.24622-.816115 1.26793-.519819 2.66123-.562319 3.9966-.810848-3.43509-.228289-6.88136-.160845-10.31696-.343412-1.40904.136609-2.64598-1.149859-4.02011-.454361-1.41366.263056-2.87843.370452-4.18631 1.027313-2.96446.852708-6.13389.805724-9.02081 1.963738-1.21996.286173-2.52155.237137-3.64835.872753-1.08409.722389-2.47955.883498-3.501755 1.628819-.5116 1.147963-2.045683 1.461881-3.084971 2.072456-1.529401.643675-2.979702 1.485811-4.53311 2.057944-1.327484-.0819-1.470206 1.944563-2.943593 1.669921-1.974569-.316533.794484-1.360618 1.463809-1.733177.553292-.200279 2.483408-1.449635.834127-1.044587-1.096529.508097.166239-1.106662-.935414-.464814-.71664.277044-1.421095.584319-2.131183.877555.44717-.833197.691105-1.84776 1.436523-2.465764.844592-.439756 2.052672-.927935 2.447196-1.767381-1.472818-.253085 2.261294-1.619294 1.57476-.320929 1.346068 1.092852 1.874147-1.342964 3.373891-1.085211 1.350895-.543133 2.561675-1.396369 4.0069-1.72499 10.40054-3.065007 21.36635-4.083327 32.17245-3.386364 14.2683.926529 28.28379 5.067728 40.84671 11.877912 7.26021 3.780403 13.94509 8.626334 19.84593 14.295911 7.17867 6.742285 13.66944 14.311281 18.51359 22.919401 1.59471 2.84715 3.15841 5.73022 4.45402 8.72355-1.02167-.95463-1.54971-2.43367-2.82617-3.10534-.60143.31145-1.82221-.99233-.88664.21765 1.37387 1.57957 2.72455 3.18623 3.81263 4.98359 1.96061 2.93623 3.39646 6.18627 4.40105 9.56554 2.01252 6.62925 3.39602 13.4612 4.05659 20.35857.41503 6.47953.3524 12.99538-.18614 19.4658-1.11284 10.32982-3.84717 20.49169-8.102 29.97095-.25613.39808-.49163 1.30187-.86549 1.41589zm-100.71945-21.84076c-1.26951-.59505 2.73485-.42073.98625.3139-.34884-.0209-.66717-.18633-.98625-.3139zm-7.78603-.38138c-.3564-.72948-2.48579-.64485-2.25868-.99937 1.80622.26082.73511-1.80606.1789-2.53749 1.3438.70886 2.97508.37627 4.33327 1.08685.85739.45339 2.6722.97868 2.6831 1.88673-1.48176.28285-3.24559-.45402-4.48378.68144-.12883.14904-.43803.11085-.45281-.11816zm-4.05773-1.04881c-.10957-.83016 1.64439-.0939.41212.20973-.16351.0201-.32843-.0707-.41212-.20973zm-4.215595-4.00704c-.4141-1.01732-2.005424-1.14835-2.348769-2.42287-1.261534-.38268-2.223706-1.39843-3.548279-1.71548-.952517-.38192-1.418696-2.08537-2.742888-1.27259-.612522.4865-3.245331 1.09849-1.587986-.21394 1.292132-.79206 2.951961-.25166 4.360656-.07 1.584212.33483 2.773006 1.53009 4.094396 2.38627 1.23749.85814 2.367455 2.0207 3.861545 2.38908.11392.82719 2.54125.88926 1.38505 1.82719-1.08407.24504-2.63976.18606-3.404285-.72811 0 0-.0694-.17954-.0694-.17954v-.00002zm6.051895-30.10697c.0456-.54513-.0938-2.91574.80365-1.58565.50961.66534-.34872 2.6132-.81974 2.19058-.002-.20181.008-.40342.0161-.60493zm19.88026-11.77672c.13269-.70398 1.36609-2.20009.77185-.5986-.41447.96776 1.14416-.23912.38006.63301-.26148.22205-1.04517.46231-1.15191-.0344zm-2.41587-.64454c.55036-.37128 1.29155.37006.22117.18243-.0479.002-.35502-.0494-.22117-.18243zm11.24888-1.43104c-.56189-1.18892.84482-1.30998.82481-.0952.22169.8485-.67005.80686-.82481.0952zm-1.41241-.74442c-1.58491-.43395-3.3073.14851-4.86492-.38846.14566-.54715.95953-.78132.83573-1.63771.53952-1.40271 1.08272-2.86923 2.03568-4.04412.82499-.007-1.03068 2.52378-.063 2.56239.90645.60381 2.20711.4369 3.07414.80378-.3328.93662.86706 1.75086-.3988 2.43733-.17201.12042-.38205.37193-.6188.26679zm-9.91024-3.14406c-.7836-1.15473 2.53997.62645.70558.47-.27146-.0898-.51906-.25285-.70558-.47zm74.64825-8.06154c-.55263-.3304-1.60497-2.49575-.30345-1.50044.45785.61804 1.4535 1.54192 1.19896 2.25281-.37257-.14368-.63361-.46718-.89551-.75237zm3.95182.11144c.15255-.90831.96595-2.15553 1.505-.67023.93271 1.10209-1.03971.98735-1.505.67023zm-6.14898-3.29726c-.99197-1.38148 1.82465 1.49509.20202.24396 0 0-.10027-.11774-.10027-.11774s-.10174-.12621-.10174-.12621-.00001-.00001-.00001-.00001zm9.11084-2.12257c-1.06501-.65824.0625-1.86132.54498-.48027.53779.68748.1093.82614-.54498.48027zm-30.5683-1.52657c-.6724-.49608.19074-1.43652-.72746-1.41819.0804-1.07528-1.58964.0353-1.21459-1.31717-.47134-1.21999.32-3.63543 1.76877-2.06025-.065 1.41899 2.01464 1.96736 1.56963 3.51621-.36612.5007-.55172 2.1911-1.39635 1.2794zm4.79872-1.55563c.10398-.46182.23493-1.74731-.44772-.80136-1.43868 1.19119-.94882-1.17185-2.07773-1.50141 1.12063-1.16961-.87619-2.34729-1.98916-2.32806-.90089.4165-1.41481-1.27091-2.4347-1.25709-.66525-.60882-1.89987-1.46253-2.02377-2.77184.40676-1.41507.78191 1.81068 1.5722.34863 1.40658-.55954 1.34236 2.35246 2.98209 2.0281 1.0967.7285 2.3919.96868 3.49289 1.67703 1.06361.74046 2.6432.46281 2.84818 2.07125 1.85928.44013-.76628 2.02165-1.12173 2.96685.143.97698-1.3608 1.26774-.86275.005 0 0 .0281-.20611.0281-.20611s.0342-.23094.0342-.23094h-.00003zm-110.817623-.5011c.01984-1.23782.153039-2.80024.772217-3.77565.623399 1.19114-.353933 2.42524-.318955 3.6133-.06639.13374-.325592.39106-.453262.16235zm71.590093-1.07059c-1.14051-.68949-2.67543-.4798-3.63806-1.60145-.80947-.85009-2.96966-2.04718-1.91443-3.34895.30341-.95837-1.48251-.003-1.45282-1.20412-.3359-1.06988-2.29514-3.03948-.60765-3.6733 1.09448-.1621.91983-2.31422.25822-2.86061-.5705.19508-2.42127-.96974-.88649-.5722 1.89242.47053.11824-1.369833-.71874-1.603325-.45841-.141065-1.2723.928245-.99302-.328637.0323-1.501992-.87992-2.859418-1.72004-4.04518-.97814-1.172616-2.63446-1.3094-4.04919-1.150464-.49939-.141248-.53093-.974441-1.06644-1.224817.52457.09853 2.75158.156661 1.60068-.575904-1.15555.522866-2.25263-1.197807-.57094-1.213374 1.10749-.04948 2.18287-1.067112 1.20823-1.700078.85787-.534478 1.53222-1.496119 2.27057-1.584613.46871-.626639 1.72082.422441 1.95778-.577515.62372.236185 1.45314.770001 1.3788-.351961.76351-.08273.66426-1.838581 1.508-1.255053-.39658 1.12247.75943.247172.93588-.09203.58565-.106152 2.56079.266757 1.0655.746439-.85031-.03677-1.61125 1.684187-.37124.694441.67834-.0764 1.30865.05162 1.63838-.394062.49592.394233 1.37769 1.819773.97134.327874-.17528-1.057894 1.68847-1.548651 1.07618-.187005-.63098.685836-.39859.80643.39475.573739-.55186 1.100466.99548.875497 1.27424 1.949011.33443 1.01024 2.02673.779727 2.27279 1.338203-.86415.385156-.87579 1.032461.15431 1.00833 1.77582-.230136.89662 2.802518 2.63944 2.39218 1.22328.762941-2.51275.584553-1.32269 1.79039 1.12917.79795 2.78351.410715 3.67904 1.598399-.16673.95389-1.8592-.625365-2.71485-.193171-.82928.199056 1.35273.299929.87315.908223 1.36331.971627-1.63592-.512718-.55544.804696.6548 1.768854 1.70788-.845955 2.88143-.289973.39129 1.261557-.97167 2.835157-2.18766 3.305877-.53182.25179-1.77822-.44653-1.05642.60122.30125 1.19125-.11177 3.51827-1.81135 2.96245-.41576.34126-.45609 1.02505-1.0106 1.32307.18048.82028-1.22991.69542-.29769 1.43512-.20783.80886.7888.96306.31455 1.89798-.43055 1.46122.4452 3.05221-.28442 4.45247-.27786.46388-.84879.25931-1.12308-.0823zm-19.50165-2.22747c-.77004-.67754-2.10115-.83193-2.06935-1.96427-.88539-.62643-1.353-2.50931-2.83823-1.5466-1.05941.71439-1.9319-.81738-.51158-.95768 1.08915-.19815 2.82084.46449 2.79929-1.22504 1.29954-.68621 1.53656-2.25953.62706-3.41563-.68887-.80006-1.41902-2.33231-2.26261-2.55258-.93769.69486-2.43627-.056-3.46614-.445755-1.06069-.289375-1.65895-1.46418-.14454-1.327629-1.71384-1.029234.32121-2.409239 1.38462-2.919043 1.09337-.651361 1.04927.324947.19176.786872-.53525.674476-.99666 1.832915-.91074 2.552036 1.03713.16443.61563-1.380989 1.3742-1.625886-.32776-.719227.98104-.400991 1.05231-1.11098 1.47888-.625052 1.32801 1.345532.71167 1.875812 1.14875-.334821 3.07196-.847559 3.23617.92257.14805.900404 1.45082-.03379 1.29016 1.093063.32357.74705 1.6631.6966.83407 1.37268.4167 1.21402.35571 2.64281 1.94634 3.0256.62063.72747 2.03912 1.20653 2.27174 1.91363-.61119.52321-1.1837 2.58734-2.17553 1.17285-.43418-1.00771-2.58947-2.19445-2.01169-.23275.26561 1.31143 1.99404 1.88059 1.79105 3.35922-.4978 1.91188-2.57781-1.29346-2.91202-.22863.0629.66689 2.10539 1.99699.8891 2.12127-.40322-.14016-.75902-.38838-1.09711-.64313zm-9.29299-.39894c.44706-1.05266 1.06722.42144.0283.13012 0 0-.0283-.13011-.0283-.13011zm-2.96199-3.19828c-.10249-1.115.69307-2.00665 1.22707-2.90972.76625.91588 1.66808 1.82496 1.85795 3.04539 1.28777.61492-.55605.35729-.84972-.30699-.73621-.66375-1.95804 1.59717-2.2353.17132zm45.19307-3.78632c-.68324-1.0399.66126-2.49069 1.61184-3.13944 1.28314-.52989 3.06808.67034 2.19811 2.10603-.17474 1.64528-1.89287 2.37156-3.26597 1.48255-.20554-.11627-.39465-.26521-.54398-.44914zm26.10913.36223c-.88264-.46364-2.33387-1.40264-1.79899-2.53306.91152.75564 2.37011 2.17527 2.5967 2.94843-.27133-.12773-.53526-.27048-.79771-.41537zm-63.2586-.77721c.0946-1.15693 1.62512-.85982.73662.17745-.22375.41631-.95512.48314-.73662-.17745zm35.60636-1.04258c.67973-1.23271.20933 1.4847.00002 0zm28.33948.30581c.55038-.37127 1.29146.37009.22112.18243-.0479.002-.35505-.0494-.22112-.18243zm-49.64082-1.57814c.1407-1.00868 2.31087.69593.64551.34727-.23052-.0337-.5834-.0691-.64551-.34727zm-25.33514-2.194216c-.22211-1.499297 2.27697-.983612.98417.29397-.33599.230756-.80116.04184-.98417-.29397zm-2.9254-2.124c-.62499-1.237352-2.763865.327547-3.587785-1.12257-.33619-.943977-.3603-3.237727 1.15325-1.95163.523225.617234 1.804755.420916.813415-.344715-.749935-.388141-1.447075-1.509672.001-1.270883.15327-1.31543 2.0411-1.631062 3.21554-1.275576-.57615.40102-.71496.549637-.0201.739964-.16828.629711.0494 1.019093.72709 1.031487-.41328.529645-.77171 1.402843.21721.613338.37166-.460974 1.73769-1.412597 1.1399-.159941-.89437 1.063215-1.18955 2.424822-1.27873 3.666769-.70168.03182-1.26548.140183-1.38451.773527-.46513.147745-.88918-.281303-.99658-.69977zm-1.986215.131309c.958605-.303921 1.228755.363179.135685.166797-.0523.07757-.417255-.133787-.135685-.166797zm16.963325-.985153c.2385-1.089806 2.67496.556942.91868.504897-.34108-.006-.88038-.07257-.91868-.504897zm-9.79223-1.168373c-.41722-1.171508 1.23924-.431683 1.50566-1.443435.40518-.545806 2.17597.322872.76063.280253-.22377.839112-1.23404 2.909596-2.20453 1.384488 0 0-.0618-.221306-.0618-.221306h.00005zm2.61199.245501c.42236-1.099122 2.1926-1.69956 3.13626-.962423-.68262 1.031011-2.25907.298324-2.63785 1.283151-.22202.105755-.50442-.0739-.49841-.320728zm6.2827-1.059712c-.86397-.312123-2.73599-.590748-2.57089-1.737429 1.26103.01442-.30216-2.358484.69982-1.541151.13594.482589.63002.652728.45559 1.362105.77954 1.283449 2.89734.252365 3.51696 1.338593-.4919 1.048611-1.18328.882088-2.10148.577882zm-4.12862-1.820643c1.36875-1.508723.97075 1.29084 0 0zm5.45672-.354154c-.5205-.03051-2.25533-.726138-.79573-.772464.56549-.168457.23519-1.616303.75293-.578711.41888.917093 1.17925.603884.80738-.299044.78167-.181851.43598-.380616.009-.80398.89333.291189 1.88358.244039 1.3566-.966411.16129-1.329038.8599.345057.82622.422739-.12056-1.147653 2.49894-1.163828 1.77238-1.930396-.75589 1.256022-3.77165.380511-1.83961-.835485 1.19894-.171904 2.34363-.556388 3.59032-.517837.88168.04824 2.16035.288849 2.7021.751484-.42454.805145-3.04827.416026-1.87987 1.484-1.09236.578042-1.86464 1.401245-3.22138 1.295537.25136 1.383821-1.28015 2.147204-2.54009 2.047366-.0588.413343 1.68992 1.237973.19396.998374-.58405-.05732-1.16299-.164005-1.73468-.295172zm-6.53376-.275826c-.0141-.833488 2.36607-1.831297 1.22683-.550227-.31157.201894-.87022.750429-1.22683.550227zm-11.959515-1.493115c.75991-1.247277 2.501385-1.081082 3.596755-1.894025.96732-.668436 1.12537.529274 1.14052 1.157376 1.23216.767183-1.28981 1.025143-1.90485 1.116274-.72731-.11568-2.899665.754781-2.832425-.379625zm8.010365.04011c-1.29732-.0261-.7846-.414622.091-.56261.93689-.129917-.30292-.366294-.62388-.563763-.92662-.384218 2.32128-1.612058 1.45795-.183032-.38335 1.226201.96355.861753 1.41413.315818.0478 1.672171-1.23748 1.128509-2.33919.993587zm9.69332-1.148113c.34182-.5336 1.48141-.275142.5769-1.128199-.1785-1.061599 1.92473-2.029224 1.57717-.320492.30804.99076-1.61789 2.471641-2.15407 1.448691zm-1.79505-.359016c.23302-1.102609 1.01233 1.05221.03.13939 0 0-.03-.13939-.03-.13939zm-1.19231-.255116c-.44521-.95521 1.05391-1.446851.67384-.214566-.0913.233082-.48174.498018-.67384.214566zm-42.066033-.45881c.100152-.71487 1.605158.780073.254138.25064 0 0-.142319-.112846-.142319-.112846s-.111819-.137799-.111819-.137799zm35.180593-.722138c-2.24577-.279744 2.4424-.781743 1.1456.316548-.37583-.12517-.76297-.214861-1.1456-.316548zm-7.814525-11.532908c.9477-.769039.59395.413154-.22334.306502 0 0 .0343-.09812.0343-.09812s.18901-.208373.18901-.208373-.00001-.000008-.00001-.000008z" fill="url(#linearGradient6041-9)" stroke-width="1.99825"/>
    <path d="m113.68885 262.85841c-1.0354-.36681-2.56282-.77264-2.84966-1.93884 1.22638-.70784.0956-2.53598-1.04139-2.6755-1.08082-.83482-.8652-2.56921-.0695-3.55959 1.1333-1.27219.3098-2.85607.23556-4.31153-.00071-1.44823.68465-2.79793.63091-4.26381.0783-2.26415.28372-4.6352-.48934-6.80906-.81893-1.66651-2.75118-2.23247-4.27492-3.06887-1.92585-.99245-3.97532-1.90982-5.51558-3.47003-.408295-1.21366-1.185395-2.27011-1.993555-3.27308-1.994041-2.75593-3.130983-6.15785-5.752222-8.4388-1.098175-1.06036-1.960665-3.27298.06903-3.81977 1.095185-.43795 1.149815-2.0135-.245688-1.81668-1.419073-1.16923.580976-2.64068.622894-3.94547.609294-.91208 2.396385-.73947 2.479168-2.25156.831213-.56353 2.820078-1.32792 2.401018-2.52854-.664473-1.60885.0424-3.54005-.947966-5.07177-.821646-1.14176-.357886-2.90829-2.130103-3.28813-.842036-.38183-1.483456.76721-2.146891 1.02208.393021.67232-.148999 1.81325-.797132.8591-.0015-.86756-1.115113-.74608-1.525716-1.5778-1.248093-.39796-2.136339-1.45079-3.057587-2.34237-.702181-.27498-1.179853-2.32465-1.77077-1.54249.247431.99448-1.241448-.92622-.894376-1.52827-.317431-1.70758-1.742537-2.92278-2.181768-4.57497-1.134089-.41568-2.332806-.91517-3.3112-1.72535-1.096965-.67197-2.344921-1.14593-3.005759-2.34021-1.01085-1.28561-1.641432-2.97372-3.088838-3.84753-1.273612-.28932-2.822793.43029-3.723792-.96831-2.288062-2.29192-4.675239-4.5174-6.653768-7.09051-.677947-1.09275-1.513141-2.21383-1.658094-3.52184.27758-1.35655.885928-2.70329.571616-4.12431-.332162-2.00953-.976754-3.95515-1.326503-5.96099-.804219-1.53912-.548799-3.33163-.949217-4.98109-.479044-2.89141-.06694-5.85994-.650555-8.73558-.819789-1.78382-1.291932 1.28692-1.215052 2.03772-.199619 3.85241-.385916 7.72853-.09477 11.57982.32824.45027.607868 2.15373.135903 2.01017-.688214-1.62579-1.297021-3.39764-.932764-5.18139.116163-1.49739-.684491-2.83301-.95339-4.25883.771903-.70439 1.261613-1.6632.866326-2.81827-.444358-3.29472 1.078477-6.53238.482769-9.81283-.771897-1.35727-.702947-2.69797-.302921-4.13895-.02381-1.32256.574772-2.26791.966289-3.3228.390807-1.23855.335157-2.63646 1.036285-3.83022.998568-2.53948 2.97176-4.49292 4.715438-6.52962.593803-.87011 2.109096-1.97089 2.512534-2.26334.264038-.92315.771766-3.04633 1.895304-2.8212.641567.76379-1.517439 1.90321.09453 1.34213 1.524662-.99204 1.852863-3.03179 1.877374-4.72265-.135178-1.36449.335009-2.65425 1.082808-3.7688.270481-1.3089 1.300112-2.1241 1.936988-3.34192.992001-.70647.981278-1.96592 1.801897-2.56632.790305-1.25903 1.705959-2.42612 2.505417-3.67913.713302-.842511.751439-1.503995-.470674-1.194983.0527-.963711 1.275663-1.21097 1.185609-1.963379.521031-1.270151-.240415-3.06512 1.095316-4.126089.7087-.66964.239739-1.488209-.597877-.77659-1.424031.605179-1.366349-1.359182.05839-.975129.659076.582219 1.417506-.245594 2.03374-.59183.76246-.382968-.379712-.122278-.681435-.145612-1.3584.121077-2.808116.0733-4.028735.723293-.862569.120751-3.40955-.318796-3.166259-.869216 1.172194.077 3.508633.275143 3.745056-1.152842.56303-.96917.837374-1.764189 2.037579-2.126117.729558-1.175219 2.236064-1.702615 3.427557-2.391278 1.393045-.668481 2.247935 1.560067 3.551567.154495.743926-.989452 1.413353-2.482335 2.89268-2.508773.306743.514008-1.292554 2.249191.143081 1.890712 1.218372-.836253 2.242405-2.349771 3.856854-2.340658.710618.529718 2.828451.684608 2.600033 1.635074-1.176147 1.508399-1.46936 3.457867-1.881997 5.268364-.650205.660492-1.233236 2.973138.434405 2.253082.498421.01708-.227972 1.004773.685313.796885.653865.20046 2.342323.04157 1.291809 1.022984-.570337 1.430927 2.00805.542846 1.410675 1.979742.122371.866947 1.717977 2.619514-.162152 2.309361-1.143032 1.099276 2.214399 1.344795 1.598289 2.752477-.068 1.844117 1.00392-.495879 1.78445-.499024 1.447525.09639 1.750825 2.124361 3.299475 2.258691.67416.37095 1.48686.69986 1.03829-.42028.89468-.687724-.1555 2.59439.87483 1.26347.73315-.55616 2.83528-1.06637 2.16321-2.496014-.53184-.975447 1.46076-2.511196 2.10304-1.900602-.17988 1.368714-.96828 2.650673-.81095 4.081236.12485 1.00267 1.51533-1.279097 1.18352.28915-.50773.45388-1.18781 2.22593.1516 1.65143 1.21787-.51726 1.90434-1.87164 2.69357-2.58744 1.11885.33818 1.19989 1.55355.44661 2.23316.26384 1.47653-1.29512 2.14332-2.52181 1.77615-.59537-.0826-1.48049-.23111-1.33506.55412-.91756.67457-1.9533-.37183-2.61599-.55031-.41509 1.08732 2.05527 1.53669.3827 2.26079-.78892.41954-1.71273.12668-2.42794.54389-.43888-.31524-2.16998-1.74192-1.23708-.31468 1.02222.60856.75889 1.54932-.43503 1.20697-1.16076.55208-2.39192 1.13001-3.256835 2.11431-.60288.8934-1.91446 1.76846-1.82262 2.8562 1.55401.59354.0133 2.27787.35926 3.23383 1.39989-.31997 2.770125 1.15698 3.215585 2.37583.76922 1.39482 2.61418 1.65648 3.4889 2.73951-.0689 1.53317-.25253 3.14094-.60462 4.59185 1.40318-.1928.26384 2.18442 1.76848 1.76604.54487-.61889 2.55489-.75783 1.93253-2.16711-.0142-1.26696-.2871-3.15985 1.25703-3.64372 1.41391-.40096 2.43369-1.57349 2.30258-3.08352.33791-1.18338-.74027-2.08893-.86551-2.98486 1.27558-.23423 1.92843-1.15387 1.71073-2.45772.3479-.93077.38172-2.65312 1.8098-1.99807 1.57398-.0709 2.65545.79578 3.38155 2.07052.74925.22763 1.96452 1.95073.41758 1.67023-1.52073-.50553 2.10832 1.44604.11805 1.80539.0673.67943 2.00632-.26239 1.28467 1.06651-1.45739.65442 1.08175.20632 1.5327-.10993 1.17617-.44226 1.44213-1.75195 1.91707-2.77118.34031.81917.70023 1.65637 1.32232 2.29265-.48484 1.16441 1.53032 1.99283 1.13047 3.0461-1.30782.74979 1.23069 1.55985 1.58776 2.2469.55412 1.02741 1.89873.65603 2.55255 1.34612-.97291.34271-2.2033 1.24222-3.36314 1.05748.10537 1.66385 2.05663.0684 2.95944-.16809.84943-.25129.45687 1.10625 1.42696.71422 1.0169.57129 1.29697 2.58614-.0154 3.01401-1.60215.16414-2.43064 1.87318-3.99264 2.03957-2.23344.23272-4.51135-.18493-6.72462.22092-.78239 1.16713-2.24859 1.31474-3.20258 2.34126-.55676.61042-2.19251 2.00972-1.91544 2.41781 1.15127-.99031 2.23973-2.12439 3.73984-2.59597.98229-.41183 3.82959-1.28604 3.466.55567-.43424 1.09638-3.20831-.34273-1.74163 1.04059 1.7932.0293.66361 2.53056 2.26435 3.16024.48148.77231 3.04666.16422 2.32731 1.31216-1.13453.69179-2.6424.82547-3.49254 1.9532-1.23663 1.27741-2.22985-.92751-.64326-1.31627.46595-.48678 2.32732-.5066 2.15213-1.03678-.8685-.25047-1.33174-1.02366-2.18271-.10937-1.09684.31501-2.0357.46613-2.8412 1.26746-.82189.29713-1.66713.0592-2.13596.83992-1.62649.0112-2.79351 2.10115-2.03274 3.51276-.88356.67485-2.32642.22359-3.3853.72031-1.77587.14486-1.41901 2.08662-2.38989 3.06972-.88058-.14214-2.33778-1.21349-2.6762.39301-.13621 1.00607-1.9914-.2125-.80382.92201.88711.90431.10756 2.25333.92289 3.07963-.0648.59195-1.91768.85349-.51735 1.25654.9931.31375-.39939.6771-.79041.51557.0322 1.74672-2.10597 1.40038-3.15725 2.33011-1.080895.97629-2.563355 1.21693-3.615076 2.13673-.986773 1.10372-1.869818 2.57534-1.403207 4.10761.290636 2.42444 1.114849 4.99942.180892 7.37761-1.087241 1.11963-1.866703-1.51114-1.858521-2.41982-.944287-1.01035-.535072-2.42655-.598949-3.68834.0059-1.53184-1.144944-2.85836-2.721267-2.77411-1.097948-.83472-2.129772-1.76399-3.571798-1.80044.22483-.9627-.05193-.60462-.684622-.33039-.803639.24761-2.560918-.68668-2.80709.0672 1.583821.49144.05756 1.92739-.907597 1.07631-.759994-1.13231-2.049113-1.27969-3.177783-1.8598-1.280907-.61662-2.217617.28801-3.145724.87573-1.477954-.47981-2.734459 1.00872-3.100567 2.30134.199223 1.61582-1.197671 2.57122-1.606468 3.99012-.28312 1.28887-.726426 2.58275-.800668 3.89073.258971 2.17653.520049 4.43896 1.540603 6.41015.664108 1.29996 2.221924 1.55586 3.540332 1.50019.915299-.28017 1.097357.65689 1.663637.74141 1.319554-.66574 1.980981-2.08941 2.558513-3.37293.882811-.96046 2.717126-.62684 3.754242-.0932 1.71041-.35259.724796 1.77849.07607 2.47317-.362149 1.03249-.758842 2.62609-1.510799 1.84477-.09987 1.45292-.465287 2.92049-1.428528 4.05457-.223119 1.28743 2.142673 1.09442 3.028793 1.45335 1.624655.29996 3.37744.71316 4.58982 1.90868.462787 1.24774-.240993 2.58859-.416871 3.85096-.416322 1.63689-.808454 3.57561.402506 4.99353.843184 1.05702 1.477515 2.62418 3.104072 2.4064 1.190993.35061 2.213485-.54901 3.291745-.32889 1.424299.48895 2.336757 1.72344 3.365345 2.73119.4687-.49583 1.3262-1.51764 2.133005-2.04878.2159-1.21605 1.10404-2.32225 2.40843-1.77631.67463-.86704 2.12385-.52228 3.07529-.99961.51486-.15387 2.13447-1.43631 1.66469-.15255-1.12063.64582-.0804 2.28949-1.04633 3.21672-.0508 1.00334 1.60022 2.60395 1.63685.73868-.32234-1.11607-.68411-2.60967 1.0009-2.69879 1.27133-.28564 3.34879-.18775 3.84481 1.23558 1.23715.64757 3.00118-.20249 4.02389.99275 1.20424.64203 2.71294.033 3.86783-.47925 1.36449.38051 2.37943 1.63114 3.8175 1.95517.93344.33874.12619 2.07689 1.48174 1.64751 1.34644.32699 2.8741 1.02549 3.37272 2.41745 1.19695.42905 2.00272 1.80111 3.42178 1.67667 2.55824-.0315 5.30617.0934 7.53298 1.49398 1.12352.66563 2.04569 1.43227 2.28008 2.82233.31409 1.1074 2.11637 1.76833.69806 2.87375-.59881.83438-2.58162 2.11444-1.29496 3.08826 1.23121-.29809.39886 1.08758.29609.99282.98207-.10392 2.26186-.1619 2.95759.20283.96729-.75925 1.70621-1.75812 2.54521-2.6493 1.55913.35606 3.12397.7148 4.70314.94533.72256.41916.56367 2.1801 1.72591 1.21302 1.45204-.40388 2.96078.17519 4.43513-.14842 1.38357-.3749 2.87003-.35832 4.09679.47573 1.35189.74992 2.86816 1.35756 4.44167 1.12095 1.20348.34505 1.15946 2.11687.95927 3.15087-.81272 2.71075-3.20709 4.47915-4.96276 6.56688-.9826 1.21417-2.52329 2.35702-2.39359 4.08774-.0849 1.61822-.6931 3.16723-1.64513 4.46065-.35289 1.52018-1.69335 2.54598-2.67938 3.67866-.97589 1.0315-2.14942 1.99199-3.62178 2.1172-2.87189.80117-5.68182 1.98013-8.14031 3.67951-1.12984.92607-.49223 2.92896-2.23332 3.43076-1.47756 1.11482-2.70854 2.58975-4.48915 3.25893-1.28625.46692-2.1918 1.72568-3.59804 1.8382-1.76652.24101-3.58098.22195-5.31941-.14718-.66162.78578 2.35882 1.00004 1.49354 2.21047-1.42544 1.09918-3.36237.87281-5.05906 1.01053-.93528.001-2.18637.02-2.18438 1.20483-1.06462.24779-2.18051-.12611-3.26405-.18753-.32924.18272.2164 1.12272.13436 1.58359-.007.99081-3.04891.28347-1.84165 1.4283.64275.15758 1.94952.43049.51233.57098-1.47399-.0568-2.48617 1.20995-3.94194.80012-.52194-.0718-1.03798-.18261-1.54773-.31418zm-4.44781-3.76493c.22033-1.4838 1.06569 1.29202 0 0zm34.28561-43.26091c-.25329-1.55908 2.04236-1.08188 3.0627-1.09071.49704 1.18095-1.43638 2.06223-2.46184 1.97816-.49386.005-.63108-.48025-.60086-.88745zm72.89605-8.49573c1.54569-4.80344 3.80281-9.44455 4.40327-14.509.12723-1.6698.42449-3.38754.0543-5.04053-.62824-1.18701-1.34015-2.40291-1.12996-3.81397-.0102-2.17177.42018-4.36321.1038-6.52188-.61203-1.68206-1.70886-.31172-2.07468.68375-.22852.1984-.53698 1.29062-.70518.81462-.28395-.66371-.53812-2.03122-1.51723-1.53931-1.56517 1.27681-2.42103 3.19351-3.49594 4.8632-.65504 1.12798-1.48095 2.26503-2.77714 2.68111-1.69433.96694-2.71262 2.70686-4.22777 3.88503-1.39251.10517-2.69843-.66403-3.98162-1.12934-1.15615-.46468-2.46447-1.04475-2.79579-2.3721-.58522-.86744-1.67798-1.11062-2.27603-1.9567-1.24501.0001-.56328-1.13798-.17147-1.3474-1.01587.5017-2.84258.64363-2.54253-1.14325-.10826-1.26668-1.02326-2.29936-.71773-3.64574.0218-1.97943.47533-4.11549-.57797-5.92543-.32133-1.23146-.41727-2.55701-1.65625-3.21771-.25607-1.58919.1438-3.20868.21154-4.8076.30576-2.67804.26115-5.42647.99379-8.03665.59179-1.18265 1.3495-2.3253 1.41091-3.7018.29225-1.298-.15908-2.52418-.58898-3.72059-.3591-1.77274-.42614-3.72651.46019-5.36076.58049-1.26286-.72257-2.78527-.25366-3.86604 1.38272.33081 3.06031-.54567 3.6447-1.82813.28336-1.72328.79111-3.43234 1.7699-4.90147.82159-.92426 1.58075-1.65419 2.10517-2.77228.86398-.55351.94734-2.75365 2.18343-1.26189.92774.87336 1.52368 2.05506 1.68604 3.31585.8373 1.70779 2.69973.053 3.6558-.54402 1.08408.90447 2.17885.12595 3.25117-.29323.63137-1.56233-1.23901-2.67569-1.22444-4.21665-.19893-.79858-.24237-1.7784.79453-1.62023 1.73148-1.03458 1.54871-3.29206 1.38069-5.02418-.25562-2.46297-1.98918-4.38591-3.23072-6.42112-.79506-1.09629-1.50274-2.30196-2.54581-3.18341-.53733.70857 1.11771 2.32549.17571 3.35232.49533.61059.69549 2.14054-.54068 1.51158-1.20027-.73826-2.36945-1.67379-3.08885-2.90272-.0615-1.47018-.85033-2.60301-1.08161-4.02211-.62882-1.26331-1.09062-2.55302-.44094-3.87197-.16653-1.55674-1.19865-2.93787-2.44067-3.83698-1.27524-.101841-2.73856.24439-3.44827-1.271077-.42456-.362184-1.43315-1.990695-1.72449-1.488084.49398 1.403614 1.29717 2.773201 2.42095 3.758181 1.27808-.25874 1.04879 2.21914.24076.87928-.78007-.84659-1.7344.0415-.90047.86044.51251 1.31314 1.78852 1.83388 2.25195 3.09842 1.05994 1.35612 2.15992 2.73397 3.54249 3.77396 1.53057.61909.37923 2.47008.52855 3.5412.29529 1.48948 1.34016 3.00485 2.87686 3.37378-.3003.35271-.78464 1.56839-1.66488.76599-1.10592-.50053-2.01995-1.31709-2.8155-2.21574-1.34937-.94534-3.17829-.22408-4.59273-1.04212-.8523-.48044-2.99635-.58799-2.03027.91897.66557 1.42571 2.26027 1.42034 3.45718 2.04815 1.105.72216 2.47854.21593 3.64043.55268-.49629 1.33042 1.40503 1.67836 1.57461 2.6487-1.21852-.50752-2.51336-.9703-3.87295-1.01768-1.37487-.12973-2.6815-.59429-3.88245-1.25766-1.9115-.6792-1.06375 1.90983-1.22138 2.92767-.70037.6942-2.1562 1.5294-1.11702 2.75226 1.32415 1.4204.50705 3.38714.79545 5.08786-.0262 1.40419 1.4741 2.11878 1.52438 3.49621.21958 1.42403-.16045 3.00118-1.29419 3.95668-.76219.45922-.20803 2.47089-1.44158 1.39058-.9201-1.0029-1.82272-.23004-2.64076.30415-.52395-1.17576-1.62515-1.68945-2.13487-2.78763-.66574-1.97407-1.5003-3.98395-3.06345-5.4212-.38155-1.30059 1.26798-2.03733 2.16994-2.6103 1.09887-.59646 3.19618-1.50622 2.17324-3.08295-.95211-1.92839-2.66299-3.86566-4.98806-3.8465-1.1837.42474-2.37866-.97309-.8504-1.46229 1.5215-.0858.0573-1.44188-.0744-1.76431 1.46372.0542 1.07528-2.22146.40623-2.94601-.20326-1.24842.33922-2.55651-.52117-3.54615-.1779-1.07313-1.23254-2.05061-.12168-3.11613-.21322-.83918-.97607-1.36301-1.50124-2.00917.62293.008 1.6611.61971 1.96445-.13055-.0513-.97439 1.4817-.85337.90155-2.0632-.0323-.71261-.54893-2.09903.49233-1.95191.0336-1.218395-.99255-2.207315-2.01775-2.804175-.95743-.470649-2.70028-1.836454-.97705-2.131912-.68624-1.231225-2.15161-1.119247-3.03915-1.807974-.71784-.999516-.0121-2.884662-1.60373-3.225617-1.64529.162822.97628 2.678937-.59041 2.725292-2.04401-.268268-3.7214-1.707612-5.13891-3.110233-.79083-.730486-1.87159-2.296026-3.03116-1.721659-.28253 1.418366 1.35944 1.826202 2.2135 2.43614.93351 1.107702 1.649 2.407405 2.85984 3.261344.68838.460459 2.06201 1.913918 2.54656 1.591151.20713-.779195 1.3689.289229 1.06197.923774 1.24598-.330675 1.37285 1.582756 2.56298 1.966132 1.34711.640246 1.49951 2.127007 2.31497 3.122887-.74563 1.11654-1.76933-.89217-2.76051-.98813-1.41619-.68828-2.88699-1.39352-4.2885-2.032815.54805.828105 2.35612 3.071355.36281 3.123425-.597-.40325-.87886-.96733-1.5831-1.03574-.0914-.8553-1.97664-.44713-1.47944-1.43307.50385.23048 1.01299 1.09639.55439.0259-.34999-.458168-1.34092-1.546235-1.05174-.341599-1.05746.194316-1.5336-1.672644-1.89939-2.529682.23538-1.57124-.98889-2.226466-1.98282-3.190055-1.66221-1.747241-3.35709-3.469476-4.96701-5.262977-.45853-.72324-1.55829-1.89503-1.32876-2.53439.75709.39186-.99728-1.319744-.21493-1.810607 1.14074 1.674149 1.83913-1.336914 3.01943-1.46166 1.09046-.581466 3.90555.206455 2.96209 1.747992-.6185.477792-.91479 1.23163.17255.996641 1.20562-.291646 3.52422 1.44341 3.88478-.369418-.46395-.591702-1.88125.444324-1.29713-.875099-.20207-.986639-2.01006-.553233-2.55597-1.585145-.42365-.781875-.80314-1.32431-1.7798-1.518977-.75796-1.08779-2.152-1.445435-3.16886-2.256914-.81747-.784213-2.23754-1.580348-2.65867-2.369747-.33265-1.007119-2.80124.06621-3.02603-1.525322-.0933-2.028635-2.00426-.536102-3.20936-.874269-1.02908-.140735-2.56947.05738-3.25243-.616568 1.78896-.490254 3.70855-.3383 5.54508-.223368.6022-.105205 2.2037.859945 2.22144.182532-1.37922-.808684-3.03707-.797934-4.56944-.99173-.0863-.686139-1.34668-.924744-1.37094-.01222-.78867.468384-2.19424.783198-2.19853-.258496-.62403-.03594-3.26463.153988-1.95242-.884677 1.22557-1.085832-1.61655-.282248-1.9431.361086-1.38973.118733-2.78797-.45471-4.20858-.402885-2.72947-.231259-5.49214-.126848-8.19879-.574848-.46956-.570393-2.91472.09798-2.24623-.816114 1.26783-.519783 2.66105-.562311 3.99632-.81085-3.43509-.228289-6.88136-.160845-10.31697-.343412-1.40904.136608-2.64598-1.14986-4.0201-.454361-1.41366.263057-2.87842.37045-4.1863 1.027314-2.96447.852694-6.1339.805727-9.02083 1.963739-1.21995.286168-2.52154.237135-3.64833.872752-1.08409.722389-2.47956.88349-3.501765 1.628819-.51166 1.147928-2.045674 1.461896-3.084981 2.072454-1.529398.643678-2.979701 1.485807-4.533107 2.057945-1.327475-.08189-1.470201 1.944559-2.943582 1.66992-1.974562-.316527.794471-1.36063 1.463799-1.733184.553286-.200275 2.483409-1.449623.834141-1.044581-1.096522.508098.166206-1.106661-.935453-.46482-.716632.277031-1.421073.584307-2.131149.87754.44716-.833201.691098-1.847766 1.436525-2.465762.844583-.439777 2.052677-.927925 2.447196-1.767381-1.472794-.253087 2.261287-1.619299 1.574757-.320929 1.346077 1.092849 1.874147-1.34296 3.373889-1.085213 1.350895-.543125 2.561665-1.39637 4.00689-1.724988 10.40054-3.065007 21.36636-4.083328 32.17245-3.386365 14.2683.92653 28.2838 5.067726 40.84672 11.877911 7.26021 3.780403 13.94508 8.626338 19.84593 14.295913 7.17866 6.742285 13.66944 14.311275 18.51359 22.919405 1.59471 2.84714 3.15839 5.73022 4.45401 8.72355-1.02166-.95464-1.5497-2.43367-2.82615-3.10534-.60145.31146-1.82224-.99234-.88666.21765 1.37387 1.57957 2.72455 3.18623 3.81263 4.98358 1.96062 2.93623 3.39646 6.18628 4.40106 9.56554 2.01251 6.62926 3.39601 13.46121 4.05657 20.35858.41502 6.47954.35242 12.99538-.18614 19.4658-1.11284 10.32982-3.84715 20.4917-8.102 29.97096-.25577.39801-.49246 1.30237-.8652 1.41588zm-100.71944-21.84076c-1.26955-.59504 2.73484-.42075.98624.3139-.34884-.0209-.66716-.18633-.98624-.3139zm-7.78604-.38138c-.35636-.72952-2.4858-.64483-2.25868-.99937 1.8062.26081.73514-1.80607.17891-2.53749 1.34378.70888 2.97507.37628 4.33326 1.08686.85707.45324 2.6732.97913 2.68268 1.88672-1.48163.28282-3.24529-.45394-4.48336.68145-.12883.14904-.43802.11085-.45281-.11817zm-4.05772-1.04881c-.10952-.83017 1.64435-.0938.4121.20973-.16351.0201-.32842-.0707-.4121-.20973zm-4.215605-4.00704c-.41408-1.01734-2.005433-1.14833-2.348765-2.42287-1.261527-.38269-2.223718-1.39841-3.548284-1.71548-.952521-.38192-1.418687-2.08538-2.742877-1.27259-.612519.48649-3.245332 1.09849-1.587996-.21393 1.292129-.79207 2.951962-.25167 4.360655-.07 1.584203.33486 2.773018 1.53008 4.094407 2.38627 1.23749.85814 2.367445 2.02071 3.861545 2.38908.11392.8272 2.54123.88926 1.38505 1.82719-1.08408.24504-2.63978.18607-3.404305-.72811 0 0-.0694-.17954-.0694-.17954v-.00002zm6.051895-30.10697c.0455-.54517-.0938-2.91575.80366-1.58565.5096.66531-.34859 2.61322-.81965 2.19058-.002-.20181.008-.40349.016-.60493zm19.88025-11.77672c.1327-.70398 1.3661-2.20009.77185-.5986-.41453.96777 1.14419-.23913.38007.63301-.26149.22204-1.04514.46232-1.15192-.0344zm-2.41585-.64454c.55036-.37128 1.29152.37006.22116.18243-.0478.002-.35502-.0494-.22116-.18243zm11.24889-1.43104c-.56196-1.18892.8448-1.30998.82479-.0952.22169.84849-.67003.80687-.82479.0952zm-1.41243-.74442c-1.58491-.43395-3.3073.14852-4.86492-.38846.14572-.54712.95952-.78136.83574-1.63771.53951-1.40271 1.0827-2.86924 2.03566-4.04412.82487-.007-1.03078 2.52383-.0631 2.56239.90643.60383 2.20709.43689 3.0741.80378-.33267.93663.86705 1.75087-.39876 2.43733-.17196.12044-.38223.37195-.61874.26679zm-9.91024-3.14406c-.78362-1.15473 2.53999.62645.70559.47-.27146-.0898-.51907-.25285-.70559-.47zm74.64825-8.06154c-.55262-.33041-1.60497-2.49575-.30345-1.50044.45785.61804 1.45351 1.54191 1.19897 2.25281-.37258-.14369-.63362-.46719-.89552-.75237zm3.95182.11144c.1525-.90833.96598-2.15552 1.505-.67023.93271 1.10209-1.03971.98735-1.505.67023zm-6.14899-3.29726c-.99194-1.3815 1.82477 1.49505.20213.24396 0 0-.10028-.11774-.10028-.11774s-.10174-.12621-.10174-.12621-.00011-.00001-.00011-.00001zm9.11085-2.12257c-1.06501-.65824.0625-1.86132.54498-.48027.53779.68748.1093.82614-.54498.48027zm-30.5683-1.52657c-.67236-.49609.19067-1.43655-.72752-1.41819.0804-1.07526-1.58963.0352-1.21457-1.31717-.47129-1.21998.31999-3.63544 1.76877-2.06025-.065 1.41897 2.01468 1.96737 1.56959 3.51621-.36614.50071-.552 2.19116-1.39627 1.2794zm4.79871-1.55563c.10399-.46174.235-1.74731-.4476-.80136-1.43867 1.19119-.94883-1.17184-2.07772-1.50141 1.12079-1.16953-.87616-2.34732-1.9891-2.32806-.9009.41651-1.41482-1.27091-2.4347-1.25709-.66526-.60882-1.89986-1.46254-2.02378-2.77184.40677-1.41506.78192 1.81069 1.5722.34863 1.40659-.55954 1.34235 2.35247 2.98211 2.0281 1.09668.72852 2.39189.96867 3.49288 1.67703 1.06359.74048 2.64322.46279 2.84816 2.07125 1.85931.44012-.76628 2.02164-1.12171 2.96685.14289.97698-1.36078 1.26772-.86276.005 0 0 .0281-.20611.0281-.20611s.0342-.23094.0342-.23094h-.00021zm-110.817606-.5011c.02003-1.2378.152976-2.80024.772208-3.77565.623401 1.19114-.353992 2.42521-.318879 3.6133-.06643.1338-.325608.39102-.453329.16235zm71.590096-1.07059c-1.14052-.68948-2.67543-.4798-3.63806-1.60145-.80947-.85009-2.96967-2.04718-1.91445-3.34895.30337-.9584-1.48263-.003-1.45291-1.20412-.33587-1.06989-2.29519-3.03951-.60761-3.6733 1.0945-.1621.91982-2.31421.25818-2.86061-.5705.19507-2.42123-.96974-.88646-.5722 1.89243.47053.11825-1.369826-.71874-1.603325-.45844-.141096-1.27218.928265-.99312-.328626.0323-1.501986-.87991-2.859421-1.72003-4.045191-.97815-1.172611-2.63447-1.309401-4.0492-1.150464-.49941-.141245-.53094-.974448-1.06644-1.224817.52457.09853 2.7516.156654 1.60068-.575904-1.15555.522863-2.25263-1.197809-.57094-1.213374 1.10748-.04948 2.18285-1.067104 1.20824-1.700078.85788-.534476 1.53219-1.496124 2.27056-1.584613.46874-.626618 1.7208.422413 1.9578-.577515.6237.236183 1.45313.770004 1.37874-.351961.76355-.08269.66429-1.838586 1.50804-1.255053-.39649 1.122472.75943.247154.93588-.09203.58564-.106145 2.56079.266738 1.06553.746439-.85034-.03676-1.61121 1.684181-.37122.694441.67822-.07644 1.3088.05167 1.63799-.394062.49628.39377 1.37805 1.82.97172.327874-.17527-1.057884 1.68844-1.54866 1.07617-.187005-.63093.685814-.39864.806437.39471.573739-.55192 1.100453.99536.875512 1.27414 1.949011.33442 1.01024 2.02674.779724 2.27279 1.338203-.86417.385156-.87577 1.032466.15432 1.00833 1.77583-.230133.8966 2.802545 2.63944 2.39218 1.23358.704432-2.87767.78796-1.13838 1.898236 1.14172.692207 2.86317.33915 3.58302 1.673347-.83994.44237-2.06798-.829152-3.14185-.320121.82894.262766 1.20496.397396 1.39268 1.002032.79358.667714-1.78297-.587046-.73621.655043.6548 1.768854 1.70788-.845946 2.88141-.289973.39125 1.261536-.97165 2.835167-2.18764 3.305877-.53182.25179-1.77823-.44653-1.05643.60122.30129 1.19126-.11177 3.51827-1.81135 2.96245-.41575.34128-.45607 1.02504-1.01057 1.32307.18009.8204-1.22998.69561-.2967 1.43512-.20778.8088.78863.96319.31441 1.89797-.43059 1.46122.44519 3.05222-.28429 4.45247-.27832.46453-.84889.25838-1.12385-.0823zm-19.50167-2.22747c-.77004-.67753-2.10114-.83196-2.06933-1.96427-.88539-.62643-1.353-2.50932-2.83824-1.5466-1.0594.71439-1.9319-.81736-.51159-.95768 1.08916-.19815 2.82086.46449 2.79931-1.22504 1.29952-.68623 1.53655-2.25953.62706-3.41563-.68887-.80007-1.41903-2.33231-2.26262-2.55258-.93822.69483-2.43617-.056-3.46614-.445755-1.06068-.289373-1.65895-1.464177-.14454-1.327629-1.71382-1.029243.32121-2.409247 1.38463-2.919043 1.09338-.651362 1.04925.324955.19174.786872-.53524.674481-.99659 1.832974-.91073 2.552036 1.0371.164431.61566-1.380943 1.37417-1.625886-.32789-.719204.981-.400997 1.05225-1.11098 1.47888-.62505 1.32801 1.345526.7117 1.875812 1.14875-.334839 3.07193-.847538 3.23615.92257.14806.9004 1.45081-.03378 1.29016 1.093063.32358.74704 1.66305.69659.8341 1.37268.41678 1.21397.3558 2.64281 1.94639 3.0256.62062.72748 2.03915 1.20653 2.27174 1.91363-.6112.5232-1.18369 2.58733-2.17552 1.17285-.43416-1.00771-2.5895-2.19445-2.01166-.23275.26561 1.31143 1.994 1.8806 1.79102 3.35922-.4978 1.91188-2.57781-1.29347-2.91202-.22863.0629.66689 2.1054 1.99699.88911 2.12127-.40325-.14017-.75897-.38836-1.09714-.64313zm-9.29299-.39894c.44701-1.05269 1.0673.42147.0283.13012 0 0-.0283-.13011-.0283-.13011zm-2.96199-3.19828c-.10239-1.115.69303-2.00667 1.22709-2.90972.76623.91589 1.6681 1.82494 1.8579 3.04539 1.28784.61489-.55598.35732-.84968-.30699-.73622-.66374-1.95803 1.59716-2.23531.17132zm45.19306-3.78632c-.68321-1.03994.66129-2.4907 1.61185-3.13944 1.28315-.52989 3.06808.67034 2.19811 2.10603-.17473 1.64528-1.89287 2.37155-3.26597 1.48255-.20554-.11627-.39466-.26521-.54399-.44914zm26.10918.36223c-.88266-.46365-2.33384-1.40259-1.79905-2.53306.9116.75561 2.37 2.17519 2.59677 2.94843-.27133-.12774-.53528-.27049-.79772-.41537zm-63.25862-.77721c.0947-1.15693 1.62509-.8598.73655.17745-.22373.41634-.95506.4831-.73655-.17745zm35.60635-1.04258c.67983-1.23268.20912 1.48469-.00008 0zm28.33947.30581c.55038-.37127 1.29149.37009.22113.18243-.0479.002-.35505-.0494-.22113-.18243zm-49.64081-1.57814c.14071-1.00868 2.31089.69594.6455.34727-.23051-.0337-.58339-.0691-.6455-.34727zm-25.33514-2.194216c-.22211-1.499314 2.27698-.983598.98417.29397-.33599.230746-.80116.04184-.98417-.29397zm-2.92541-2.124c-.62496-1.237343-2.763865.327557-3.587765-1.122567-.33617-.943989-.36025-3.237723 1.15329-1.951633.523225.617229 1.804775.420924.813435-.344715-.749985-.388162-1.447055-1.509687.001-1.270883.15323-1.315442 2.0411-1.631057 3.21554-1.275576-.5759.400915-.71521.549661-.0203.739964-.16825.629682.0495 1.019111.72708 1.031487-.41336.529605-.77177 1.402859.21715.613338.37167-.46097 1.7377-1.412599 1.13991-.159941-.89436 1.063219-1.18956 2.424796-1.27875 3.666769-.70168.03182-1.26548.140199-1.38444.773527-.46513.147802-.88948-.281462-.9965-.69977zm-1.986205.131309c.958605-.303917 1.228795.363187.135695.166797-.0523.07756-.417265-.133779-.135695-.166797zm16.963325-.985153c.23851-1.089807 2.67496.556949.91867.504897-.34107-.006-.8804-.07259-.91867-.504897zm-9.79223-1.168373c-.41729-1.171512 1.23926-.431672 1.50567-1.443435.4051-.545779 2.17594.32283.76072.280253-.22375.839124-1.23404 2.909592-2.20452 1.384488 0 0-.0618-.221306-.0618-.221306h-.00006zm2.612.245501c.42234-1.099119 2.19259-1.699563 3.13624-.962423-.68264 1.031001-2.25917.298309-2.63789 1.283151-.222.105798-.50462-.07402-.49835-.320728zm6.2827-1.059712c-.86397-.312123-2.73599-.590745-2.57091-1.737429 1.26104.01414-.30252-2.35901.70085-1.541151.13612.482582.62985.652806.45552 1.362105.77954 1.283456 2.89735.252362 3.51697 1.338593-.49207 1.049396-1.18393.881363-2.10243.577882zm-4.12864-1.820643c1.36875-1.508718.97075 1.290819 0 0zm5.45672-.354154c-.5205-.03051-2.25531-.72614-.79572-.772464.5654-.168345.23553-1.616292.75292-.578711.41887.917092 1.17928.603889.80739-.299044.78158-.181831.43613-.380614.01-.80398.89341.291177 1.88341.244058 1.35673-.966411.16173-1.32899.85948.345308.82618.422739-.12053-1.147614 2.49897-1.163874 1.77233-1.930396-.75585 1.256057-3.77161.380483-1.83957-.835485 1.19895-.171906 2.34364-.556387 3.59032-.517837.88167.04824 2.16037.288849 2.70207.751484-.42454.805125-3.04824.416044-1.87984 1.484-1.09236.578047-1.86464 1.401244-3.22138 1.295537.25138 1.383828-1.28015 2.147208-2.5401 2.047366-.0586.413495 1.68978 1.238087.19348.998374-.58388-.05732-1.16346-.164031-1.73438-.295172zm-6.53376-.275826c-.0141-.833462 2.36602-1.831318 1.22686-.550227-.31158.201886-.87024.750429-1.22686.550227zm-11.959505-1.493115c.75987-1.247293 2.501395-1.081072 3.596755-1.894025.96735-.668446 1.12533.529312 1.14051 1.157376 1.23219.767166-1.2898 1.02515-1.90484 1.116274-.72732-.115681-2.899655.754781-2.832425-.379625zm8.010385.04011c-1.29733-.0261-.78463-.414619.091-.56261.93689-.129916-.30293-.366298-.62389-.563763-.92664-.38421 2.32129-1.612067 1.45795-.183032-.38335 1.226222.96355.861724 1.41414.315818.0479 1.672232-1.23751 1.128464-2.33918.993587zm9.6933-1.148113c.34186-.5336 1.48138-.275152.57685-1.128204-.1784-1.061555 1.9248-2.029241 1.57726-.320487.308.990765-1.61781 2.471624-2.15411 1.448691zm-1.79505-.359016c.23291-1.102547 1.01228 1.052179.03.139398 0 0-.03-.139398-.03-.139398h-.00002zm-1.19232-.255116c-.44535-.955175 1.05399-1.446872.67385-.214566-.0913.233044-.48176.498036-.67385.214566zm-42.066031-.45881c.09947-.714996 1.605535.780034.254144.25064 0 0-.142324-.112846-.142324-.112846s-.11182-.137799-.11182-.137799zm35.180601-.722138c-2.24576-.279761 2.44242-.781733 1.1456.316548-.37583-.125171-.76297-.214863-1.1456-.316548zm-7.814525-11.532908c.9477-.769046.59391.413162-.22335.306502 0 0 .0343-.09812.0343-.09812s.18894-.208373.18894-.208373.00011-.000008.00011-.000009z" fill="url(#linearGradient6038-6)" stroke-width="1.99825"/>
    <ellipse cx="207.71317" cy="30.079165" rx="64.167404" ry="105.32146" style="fill:none;stroke-width:2.37068;stroke-linecap:round;stroke-linejoin:round;stroke-dashoffset:1.0878;stroke:url(#linearGradient6350-0)" transform="matrix(.70710678 .70710678 -.70710678 .70710678 0 0)"/>
    <ellipse cx="-24.705891" cy="-208.42058" rx="64.167404" ry="105.32148" style="fill:none;stroke-width:1.82359;stroke-linecap:round;stroke-linejoin:round;stroke-dashoffset:1.0878;stroke:url(#linearGradient6348-2)" transform="matrix(-.8660254 .5 -.5 -.8660254 0 0)"/>
    <ellipse cx="-194.92447" cy="77.807281" rx="64.167389" ry="105.32149" style="fill:none;stroke-width:1.82359;stroke-linecap:round;stroke-linejoin:round;stroke-dashoffset:1.0878;stroke:url(#linearGradient6346-3)" transform="matrix(-.25881905 -.96592583 .96592583 -.25881905 0 0)"/>
    <path d="m101.78892 43.9826-4.719656 6.882833 3.343096 3.146438z" fill="url(#linearGradient901)" fill-rule="evenodd" filter="url(#filter6740-7)" transform="matrix(2.0046142 -.17504613 .17504613 2.0046142 -1.942196 77.095656)"/>
    <path d="m125.2225 66.226c-45.310914 0-83.711545 29.667475-96.707813 70.53682 9.822965 14.11228 27.798951 25.61298 50.311429 32.28671.622035-2.77919 1.25656-5.56368 1.986742-8.37286 13.454305-51.76117 40.843982-90.269477 64.160252-92.523107-6.38919-1.258033-12.99219-1.927563-19.75061-1.927563z" fill="url(#linearGradient5752-9)"/>
    <path d="m185.52529 255.07322a76.856247 40.152985 0 0 1 -59.92353 15.54073 76.856247 40.152985 0 0 1 -60.53336-14.88169m151.73047-42.09815a91.732597 46.531429 0 0 1 -75.40937 45.78882 91.732597 46.531429 0 0 1 -102.246614-29.49317m185.994974-28.85124a101.55322 51.364693 0 0 1 -100.0104 42.44531 101.55322 51.364693 0 0 1 -100.010421-42.44531m205.037831-32.0148a104.94773 52.83284 0 0 1 -52.57965 45.78528 104.94773 52.83284 0 0 1 -105.053326-.0923 104.94773 52.83284 0 0 1 -52.261864-45.8774m205.38907-30.36491a101.46404 50.862194 0 0 1 -45.46309 49.81567 101.46404 50.862194 0 0 1 -109.280968.23903 101.46404 50.862194 0 0 1 -46.32857-49.6149m188.737818-25.76114a90.777344 45.40379 0 0 1 -36.68469 48.04986 90.777344 45.40379 0 0 1 -102.833569.08977 90.777344 45.40379 0 0 1 -37.019805-47.98552m148.928184-29.197179a74.149658 36.903042 0 0 1 -10.48625 48.301859 74.149658 36.903042 0 0 1 -97.584824 1.27175 74.149658 36.903042 0 0 1 -15.551261-47.962527m115.590235 4.843665a52.572575 26.189173 0 0 1 -52.57258 26.189172 52.572575 26.189173 0 0 1 -52.57259-26.189172 52.572575 26.189173 0 0 1 52.57259-26.189173 52.572575 26.189173 0 0 1 52.57258 26.189173zm-25.5028-9.220684a27.102222 13.338489 0 0 1 -27.10222 13.338488 27.102222 13.338489 0 0 1 -27.102235-13.338488 27.102222 13.338489 0 0 1 27.102235-13.338489 27.102222 13.338489 0 0 1 27.10222 13.338489zm-20.06021 13.364461c16.07053 37.572385 33.04466 168.688805 6.68037 179.196035m-.16818-180.648767c49.91066 69.470237 47.85933 169.752167 15.88405 176.989497m17.82425-7.06239c40.66969-19.37222 37.85597-115.07024-27.88273-171.960196m4.0278-2.758499c51.68001 25.451185 96.13013 112.686945 45.47186 159.866265m23.93458-29.89718c23.06339-42.94508-.52048-108.36874-66.39116-133.311993m.57531-3.702643c19.24757 3.41057 77.45972 27.273466 78.13309 89.112886m-78.85992-92.51641c27.82837 2.839965 53.33281 17.815501 66.12653 41.45961m-68.704-44.737157c12.61481-.477729 29.67248 2.187424 44.91841 15.235181m-49.30399-17.982517c10.52671-2.376584 19.98596-.122335 27.33967 3.345617m-32.87919-5.553853c3.50524-1.899769 10.27389-2.764383 14.95592-1.465954m-21.42738-.195197c1.82348-1.864604 3.50537-2.594402 6.22337-2.934284m-13.45052 2.713155-.0597-3.572052m-7.04354 4.086471c-1.58453-1.509199-2.97099-2.650012-5.88526-3.24904m-.66635 4.616038c-3.29281-1.842547-8.53791-2.503224-14.696708-1.508316m8.977148 3.660708c-5.28798-1.289058-17.362352-1.815406-27.170383 3.273848m22.673663-.279018c-4.761084-.43005-25.287079-1.006829-44.718296 14.682924m41.910081-11.56657c-16.430032 1.759455-47.330681 9.670574-64.833143 39.880556m64.072873-36.01165c-26.186919 3.753844-79.916293 34.66515-77.311274 91.0438m12.061503 45.69855c-29.7647767-61.91768 22.801739-118.40326 66.347121-133.752855m2.680905 3.29146c-55.620975 31.796965-92.9548947 112.768405-46.278226 159.829575m22.592633 15.1809c-41.199939-19.4515-36.963496-115.77119 28.077803-172.006027m5.5263 1.894927c-45.4776 63.49353-51.507191 164.83076-15.735397 176.92612m14.970687 3.627c-23.020668-11.19463-12.127185-126.04079 7.36356-178.842606m7.06138.282134-.00022 180.033822" fill="none" opacity=".4" stroke="url(#linearGradient8575)" stroke-linejoin="round" stroke-width=".5"/>
  </g>
</svg>
