<svg height="256" width="256" xmlns="http://www.w3.org/2000/svg" xmlns:xlink="http://www.w3.org/1999/xlink">
  <defs>
    <filter id="filter3834" color-interpolation-filters="sRGB" height="1.064318" width="1.080929" x="-.040464" y="-.032159">
      <feGaussianBlur stdDeviation="1.50075"/>
    </filter>
    <filter id="filter3826" color-interpolation-filters="sRGB" height="1.044321" width="1.055874" x="-.027937" y="-.02216">
      <feGaussianBlur stdDeviation="1.036"/>
    </filter>
    <linearGradient id="linearGradient4524-4" gradientTransform="matrix(2 0 0 -2 -7.01182 257.00001)" gradientUnits="userSpaceOnUse" x1="72" x2="72" y1="0" y2="116.40091">
      <stop offset="0" stop-color="#eeecec"/>
      <stop offset=".40000001" stop-color="#f4f4f4"/>
      <stop offset="1" stop-color="#f6f5f5"/>
    </linearGradient>
    <filter id="filter1164" color-interpolation-filters="sRGB" height="1.096" width="1.090435" x="-.045217" y="-.048">
      <feGaussianBlur stdDeviation=".65000024"/>
    </filter>
    <radialGradient id="radialGradient5988-0" cx="64" cy="64.004021" fx="63.793392" fy="47.274845" gradientTransform="matrix(3.368421 .16859038 .13772678 -2.7517692 -103.40582 294.32648)" gradientUnits="userSpaceOnUse" r="47.5">
      <stop offset="0" stop-color="#fff"/>
      <stop offset="1" stop-color="#fff" stop-opacity="0"/>
    </radialGradient>
    <clipPath id="clipPath6093-7">
      <path d="m17.000001 8-.000001 112h61.5c1.675283 0 3.914297-.56468 7-3.6 8.870045-8.72523 16.24047-13.8518 23.49904-21.175957 2.44056-2.462612 3.00096-4.47117 3.00096-6.724043v-80.5z"/>
    </clipPath>
    <filter id="filter6171-8" color-interpolation-filters="sRGB" height="2.02159" width="1.956141" x="-.47807" y="-.510795">
      <feGaussianBlur stdDeviation="10.140743"/>
    </filter>
    <linearGradient id="linearGradient3895-3" gradientTransform="matrix(2.0239716 0 0 -2.0239716 -.8029 246.97433)" gradientUnits="userSpaceOnUse" x1="86.73793" x2="93.189758" y1="93.621468" y2="100.45876">
      <stop offset="0" stop-color="#fcfcfc"/>
      <stop offset=".52275378" stop-color="#f8f8f8"/>
      <stop offset=".72337759" stop-color="#f0efef"/>
      <stop offset=".89024991" stop-color="#e3e1e1"/>
      <stop offset="1" stop-color="#cecbcb"/>
    </linearGradient>
    <clipPath id="clipPath8">
      <path d="m76 2v46h-22v23h-18.419263c-.07818.665694-.141485 1.332869-.205737 2-1.151162 12.530963 1.036422 24.087546 6.0625 33.96875l1.6875 3.03125c1.011403 1.81678 2.191241 3.52297 3.4375 5.1875 1.244725 1.66248 1.685716 2.58262 2.46875 3.6875 13.288661 14.93583 33.098223 22.125 55.96875 22.125 50.64836 0 93.63299-22.43799 112.65625-72.84375 13.49677 1.38497 26.44343-2.075892 32.34375-13.59375-9.39863-5.423665-21.47837-3.685274-28.4375-.1875l18.4375-52.375-72 46h-23v-46z"/>
    </clipPath>
    <filter id="filter35" color-interpolation-filters="sRGB" height="1.12218" width="1.07906" x="-.03953" y="-.06109">
      <feGaussianBlur stdDeviation="3.6862531"/>
    </filter>
  </defs>
  <path d="m-128.8111-19.056071v112h56.187504c5.114947-.238308 32.613203-27.078301 32.775-30.612499.08138-25.126708.0375-56.2589983.0375-81.387501z" filter="url(#filter3834)" opacity=".262376" transform="matrix(2 0 0 -2 296.61038 201.88787)"/>
  <path d="m-128.8111-19.556071v112.2h55.746422c3.098719 0 24.709876-18.512112 30.003672-24.699929 1.602664-1.873324 3.24991-3.03751 3.24991-7.20007v-80.300001z" fill-opacity=".700535" filter="url(#filter3826)" transform="matrix(2 0 0 -2 296.61038 201.88787)"/>
  <path d="m38.98818 241.00001v-223.999998h111.00001c3.35056 0 7.82859 1.12936 14 7.2 17.74009 17.45046 32.48094 27.703618 46.99808 42.351918 4.88112 4.92522 6.00192 8.94234 6.00192 13.44808v161z" fill="#fff" stroke-width="2"/>
  <path d="m41.98818 239.00001c-.67968 0-1-.46923-1-1v-215.937498c0-1.64316 1.35864-3 3-3h103.37501c.10614 0 1.62077-.0468 3-.0626 3.55533.0802 6.26395 1.50748 8.71207 3.18656 2.10373.58206 33.29967 27.239178 51.54191 45.618478 2.72478 2.74524 4.37092 7.89634 4.37092 9.79122l.0001 160.40384c0 .64544-.32644 1-1 1z" fill="url(#linearGradient4524-4)" stroke-width="2"/>
  <path d="m41.98818 239.00001c-.67968 0-1-.46923-1-1v-215.937498c0-1.64316 1.35864-2.999022 3-3l105.00001-.0626c.10614-.000064 6.54777.016 7.927-.0001 13.08194 9.00722 37.2746 31.906578 55.16506 49.910198 2.9537 3.31296.9152.74012 2.90782 3.2149l.00012 165.875c0 .64544-.32644 1-1 1z" fill="url(#radialGradient5988-0)" opacity=".846535" stroke-width="2"/>
  <g>
    <path d="m168.37695 86.000001h35.62305m-49.62305 0h10.79102m-35.16797 0h21.16797m-38.6582 0h14.39257m-40.12695 0h22.52734m-32.79296 0h7.05859m-15.05859 0h4.79296m-21.30273 0h13.30273m5.86524-12h-19.16797m28.90234 0h-6.52539m23.99414 0h-14.26172m26.79297 0h-9.32421m23.32421 0h-10.79101m23.58984 0h-9.58984m31.58984 0h-18.79297m36.79297 0h-14.79297m22.25977 0h-4.25977m23.0918 0h-15.62305m-27.07031-12h18.69336m-37.22461 0h15.32422m-30.39453 0h11.86328m-32.12891 0h17.0586m-49.98243 0h29.7168m-52.23242 0h19.30859m-5.74804-12h-13.56055m32.35742 0h-15.58984m43.1914 0h-24.39453m31.9961 0h-4.39453m23.99609 0h-16.39453m25.86328 0h-6.26172m29.73047 0h-20.26172m-.6582-12h16.26172m-19.46875 0h-18.12696m-14.26758 0h11.0586m-31.32422 0h17.05859m-23.99414 0h3.72852m-30.66602 0h23.73047m-33.16992 0h6.23242" fill="none" stroke="#b6b6b6" stroke-width="6"/>
    <g transform="matrix(.6 0 0 .6 159.48244 208.75414)">
      <path d="m-29.179067-107.93513h22.8660003v23.374733h11.56177c5.3390497 0 10.8307297-.95117 15.8869997-2.66444 2.48448-.84244 5.27317-2.01479 7.72392-3.4892-3.22785-4.21436-4.87579-9.535743-5.36101-14.781063-.65874-7.13426.78032-16.42042 5.60897-22.00422l2.40362-2.78011 2.8642 2.30239c7.21138 5.79374 13.27612 13.88934 14.3451 23.11819 8.68312-2.55411 18.87759-1.95 26.53135 2.46735l3.14002 1.81182-1.65276 3.225703c-6.47289 12.633374-20.00501 16.546746-33.23507 15.854261-19.79715 49.308389-62.89781 72.6525893-115.15715 72.6525893-26.9989 0-51.769843-10.0927203-65.875553-34.0469303-.82702-1.48798-1.53523-3.0439-2.28633-4.57212-4.76813-10.544203-6.3518-22.095263-5.27745-33.636683l.32241-3.457072h19.55293v-23.374738h22.866v-22.86599h45.732003v-22.86601h27.43967v45.732" filter="url(#filter35)" opacity=".6"/>
      <path d="m-32.5124-111.26846h22.866v23.37473h11.56177c5.33905 0 10.83073-.95117 15.887-2.66444 2.48448-.84244 5.27317-2.01479 7.72392-3.4892-3.22785-4.21436-4.87579-9.53574-5.36101-14.78106-.65874-7.13426.78032-16.42042 5.60897-22.00422l2.40362-2.78011 2.8642 2.30239c7.21138 5.79374 13.27612 13.88934 14.3451 23.11819 8.68312-2.55411 18.87759-1.95 26.53135 2.46735l3.14002 1.81182-1.65276 3.2257c-6.47289 12.633374-20.00501 16.546746-33.23507 15.854261-19.79715 49.308389-62.89781 72.652589-115.15715 72.652589-26.9989 0-51.76984-10.09272-65.87555-34.04693-.82702-1.48798-1.53523-3.0439-2.28633-4.57212-4.76813-10.544203-6.3518-22.095263-5.27745-33.636683l.32241-3.457072h19.55293v-23.374735h22.866v-22.86599h45.732v-22.86601h27.43967v45.732" fill="#394d54"/>
      <g clip-path="url(#clipPath8)" transform="translate(-180 -157.00046)">
        <g id="g18">
          <g id="g20" transform="translate(0 -22.866)">
            <path d="m123.85901 3.8110794h19.81751v19.8169706h-19.81751z" fill="#00acd3"/>
            <path d="m123.85901 26.676485h19.81751v19.818043h-19.81751z" fill="#20c2ef"/>
            <path id="path26" d="m126.29235 21.976904v-16.5157492m2.97185 16.5157492v-16.5157492m3.00184 16.5157492v-16.5157492m3.00344 16.5157492v-16.5157492m3.00292 16.5157492v-16.5157492m2.97131 16.5157492v-16.5157492" stroke="#394d54" stroke-width="1.56"/>
            <use transform="translate(0 22.866)" xlink:href="#path26"/>
          </g>
          <use transform="matrix(1 0 0 -1 22.866 4.572651)" xlink:href="#g20"/>
        </g>
        <use transform="translate(-91.464 45.732)" xlink:href="#g18"/>
        <use transform="translate(-45.732 45.732)" xlink:href="#g18"/>
        <use transform="translate(0 45.732)" xlink:href="#g18"/>
      </g>
      <path clip-path="url(#clipPath8)" d="m221.57014 54.379649c1.53332-11.915247-7.38383-21.274779-12.91407-25.71836-6.37269 7.367765-7.36295 26.677556 2.63498 34.807431-5.57952 4.956117-17.33731 9.448435-29.37574 9.448435h-147.91531c-1.170745 12.567029 0 73.082845 0 73.082845h217l-.98657-91.424c-9.39863-5.423665-21.48419-3.694326-28.44332-.196552" fill="#17b5eb" transform="translate(-180 -157.00046)"/>
      <path clip-path="url(#clipPath8)" d="m34 89v57h217v-57" fill-opacity=".17" transform="translate(-180 -157.00046)"/>
      <path clip-path="url(#clipPath8)" d="m111.23736 140.88997c-13.539619-6.42517-20.971653-15.15916-25.106749-24.69435l-41.130611 1.80438 21 28z" fill="#d4edf1" transform="translate(-180 -157.00046)"/>
      <path clip-path="url(#clipPath8)" d="m222.5 53.9375v.03125c-20.86119 26.889144-50.78312 50.37872-82.90625 62.71875-28.65478 11.00767-53.638381 11.06039-70.875 2.21875-1.85607-1.04832-3.675701-2.21152-5.5-3.3125-12.636653-8.832-19.754476-23.441442-19.15625-42.6875h-10.0625v73.09375h217v-96h-25z" fill-opacity=".085" transform="translate(-180 -157.00046)"/>
      <path d="m-134.375-39.96921c14.16515.77531 29.28245.91433 42.46875-3.21875" fill="none" stroke="#394d54" stroke-linecap="round" stroke-width="3.4"/>
      <path d="m-77.82976-50.0412c0 3.01898-2.447529 5.46651-5.466508 5.46651-3.019514 0-5.467581-2.44753-5.467581-5.46651 0-3.01897 2.448067-5.46758 5.467581-5.46758 3.018979 0 5.466508 2.44861 5.466508 5.46758z" fill="#d4edf1"/>
      <path d="m-81.878628-53.69268c-.477188.27582-.800133.79264-.800133 1.3839 0 .88261.715514 1.59706 1.598125 1.59706.604653 0 1.130046-.3358 1.401576-.83174.19173.4622.29831.96991.29831 1.50226 0 2.16208-1.752907 3.91498-3.915518 3.91498-2.162075 0-3.91605-1.7529-3.91605-3.91498 0-2.16314 1.753975-3.91658 3.91605-3.91658.500218 0 .977406.0943 1.41764.2651z" fill="#394d54"/>
      <path d="m-180-66.838117h254.32743c-5.53774-1.404786-17.521-3.302293-15.54477-10.559732-10.06915 11.651749-34.35274 8.174326-40.4812 2.428786-6.82471 9.89831-46.55451 6.135967-49.32553-1.575096-8.55565 10.04077-35.06718 10.04077-43.62336 0-2.77209 7.711063-42.50136 11.473406-49.32659 1.575096-6.12847 5.74554-30.40991 9.222963-40.48014-2.428786 1.97624 7.257439-10.00703 9.154946-15.54584 10.559732" fill="#394d54"/>
    </g>
  </g>
  <path d="m-39.811096 59.94691c0 4.46531-3.067448 5.978576-5.549678 7.662246-5.10854 3.46508-13.669156 1.756744-19.450326 1.837764-.081 5.78116 1.723142 12.231893-1.741938 17.340433-1.68367 2.48224-4.847792 5.659577-7.758062 5.659577 2.31803 0 4.74284-1.334761 7.58402-4.084811 9.14197-8.84873 14.36714-11.135349 22.673154-20.297529 1.91895-2.11675 4.24283-3.64188 4.24283-8.11768z" filter="url(#filter1164)" opacity=".4" transform="matrix(2 0 0 -2 296.61038 201.88787)"/>
  <path clip-path="url(#clipPath6093-7)" d="m114.4 82.502986c0 4.465301-4.99749 12.609952-7.47972 14.293625-5.10854 3.465079-12.739114 1.52536-18.520284 1.60638-.081 5.781159 1.96586 11.304599-1.49922 16.413139-1.68367 2.48224-9.79051 8.68687-12.70078 8.68687-2.091359 1.5337 3.488204 8.21101 6.734971 5.31989 9.501888-8.46107 35.131683-30.022704 43.350823-39.262889 2.04044-2.29392-4.90514-9.844666-9.88579-7.057015z" filter="url(#filter6171-8)" opacity=".277228" transform="matrix(2 0 0 -2 -7.01182 257.00001)"/>
  <path d="m216.98819 79.99405c0-8.93062-5.59498-12.81992-10.55944-16.18726-10.21708-6.93016-21.87823-6.65072-33.44057-6.81276-.162-11.56232.33172-19.009198-6.59844-29.226278-3.36734-4.96448-10.58102-10.773742-16.40156-10.773742 4.63606 0 8.88785 3.363424 15.16804 8.169622 19.0787 14.60084 26.40937 20.968606 43.34631 38.595058 3.95915 4.12033 8.48566 7.28376 8.48566 16.23536z" fill="url(#linearGradient3895-3)"/>
  <path d="m217.02569 78.57501c-.63286-7.7982-7.04582-11.80562-11.7-14.9625-10.21708-6.93016-22.67516-4.65046-34.2375-4.8125-.162-11.56232 1.70516-20.632918-5.225-30.849998-2.94642-4.34392-8.19891-9.3202-13.525-10.500002 3.96092.724602 7.76986 3.322782 12.5375 7.937502.67823.77706 1.14859 1.3579 2.2125 3 6.93016 10.21708 5.84737 16.931438 6.00937 28.493758 11.56234.162 23.43605-.42392 33.65313 6.50624.93084.63138 3.18798 2.3755 4.0125 3.2 3.07258 3.07258 5.80342 5.22684 6.2625 11.9875zm-64.6875-61.125c-.31532-.0698-.62688-.0828-.9375-.125.31398.0338.62088.067.9375.125z" fill="#fff"/>
</svg>
