<svg height="256" width="256" xmlns="http://www.w3.org/2000/svg" xmlns:xlink="http://www.w3.org/1999/xlink">
  <defs>
    <linearGradient id="linearGradient3211">
      <stop offset="0" stop-color="#fff"/>
      <stop offset="1" stop-color="#fff" stop-opacity="0"/>
    </linearGradient>
    <linearGradient id="linearGradient1090" gradientTransform="matrix(0 1 -1 0 275.59087 14.35937)" gradientUnits="userSpaceOnUse" x1="-3.298546" x2="33.7686" y1="134.19772" y2="134.19772">
      <stop offset="0" stop-color="#363735"/>
      <stop offset=".07077314" stop-color="#7d827c"/>
      <stop offset=".25934681" stop-color="#2e3436"/>
      <stop offset="1" stop-color="#2b3133"/>
    </linearGradient>
    <linearGradient id="linearGradient921" gradientTransform="matrix(0 1 -1 0 276.00112 -31.07304)" gradientUnits="userSpaceOnUse" x1="46.419395" x2="46.780209" y1="41.729702" y2="52.098267">
      <stop offset="0" stop-color="#1d1e1d" stop-opacity="0"/>
      <stop offset="1" stop-color="#1e1e1e"/>
    </linearGradient>
    <filter id="filter3834" color-interpolation-filters="sRGB" height="1.064318" width="1.080929" x="-.040464" y="-.032159">
      <feGaussianBlur stdDeviation="1.50075"/>
    </filter>
    <filter id="filter3826" color-interpolation-filters="sRGB" height="1.044321" width="1.055874" x="-.027937" y="-.02216">
      <feGaussianBlur stdDeviation="1.036"/>
    </filter>
    <linearGradient id="linearGradient4524-4" gradientUnits="userSpaceOnUse" x1="136.98818" x2="136.98818" y1="5.73556" y2="238.53738">
      <stop offset="0" stop-color="#eeecec"/>
      <stop offset=".40000001" stop-color="#f4f4f4"/>
      <stop offset="1" stop-color="#f6f5f5"/>
    </linearGradient>
    <filter id="filter1164" color-interpolation-filters="sRGB" height="1.096" width="1.090435" x="-.045217" y="-.048">
      <feGaussianBlur stdDeviation=".65000024"/>
    </filter>
    <radialGradient id="radialGradient5988-0" cx="64" cy="64.004021" fx="63.793392" fy="47.274845" gradientTransform="matrix(3.368421 -.16859038 .13772678 2.7517692 -103.40582 -31.590906)" gradientUnits="userSpaceOnUse" r="47.5" xlink:href="#linearGradient3211"/>
    <clipPath id="clipPath6093-7">
      <path d="m17.000001 8-.000001 112h61.5c1.675283 0 3.914297-.56468 7-3.6 8.870045-8.72523 16.24047-13.8518 23.49904-21.175957 2.44056-2.462612 3.00096-4.47117 3.00096-6.724043v-80.5z"/>
    </clipPath>
    <filter id="filter6171-8" color-interpolation-filters="sRGB" height="2.02159" width="1.956141" x="-.47807" y="-.510795">
      <feGaussianBlur stdDeviation="10.140743"/>
    </filter>
    <linearGradient id="linearGradient3895-3" gradientUnits="userSpaceOnUse" x1="174.75220696279" x2="187.81052360287" y1="205.24843838231" y2="219.08692321122">
      <stop offset="0" stop-color="#fcfcfc"/>
      <stop offset=".52275378" stop-color="#f8f8f8"/>
      <stop offset=".72337759" stop-color="#f0efef"/>
      <stop offset=".89024991" stop-color="#e3e1e1"/>
      <stop offset="1" stop-color="#cecbcb"/>
    </linearGradient>
    <linearGradient id="linearGradient8652-8" gradientUnits="userSpaceOnUse" x1="268.768167" x2="268.768167" y1="105.635" y2="185.635">
      <stop offset="0" stop-color="#259dd2"/>
      <stop offset="1" stop-color="#025583"/>
    </linearGradient>
    <linearGradient id="linearGradient19761-6" gradientTransform="matrix(9.81802 0 0 8 -1897.1018 4747.7327)" gradientUnits="userSpaceOnUse" x1="230" x2="230" y1="-581.63782" y2="-577.57336">
      <stop offset="0" stop-color="#44adeb"/>
      <stop offset="1" stop-color="#aadcf7"/>
    </linearGradient>
    <linearGradient id="linearGradient8608" gradientTransform="matrix(-8.86632 0 0 8.1065 3418.6482 -9416.9273)" gradientUnits="userSpaceOnUse" x1="345" x2="345" y1="1173" y2="1178">
      <stop offset="0" stop-color="#666"/>
      <stop offset="1" stop-color="#333"/>
    </linearGradient>
    <linearGradient id="linearGradient8680" gradientUnits="userSpaceOnUse" x1="317.463847" x2="332.136297" xlink:href="#linearGradient3211" y1="116.7535" y2="126.4762"/>
    <linearGradient id="linearGradient8604" gradientTransform="matrix(8.86632 0 0 8.1065 -2775.1118 -9414.4273)" gradientUnits="userSpaceOnUse" x1="345" x2="345" y1="1173.9109" y2="1178">
      <stop offset="0" stop-color="#666"/>
      <stop offset="1" stop-color="#1a1a1a"/>
    </linearGradient>
    <linearGradient id="linearGradient9085" gradientUnits="userSpaceOnUse" x1="327.3096" x2="327.3096" y1="138.8074826192" y2="130.9062836304">
      <stop offset="0" stop-color="#18a303"/>
      <stop offset="1" stop-color="#106802"/>
    </linearGradient>
    <linearGradient id="linearGradient8598" gradientTransform="matrix(8.86632 0 0 8.1065 -2775.1118 -9404.3273)" gradientUnits="userSpaceOnUse" x1="345" x2="345" y1="1173" y2="1178">
      <stop offset="0" stop-color="#0369a3"/>
      <stop offset="1" stop-color="#023f62"/>
    </linearGradient>
    <linearGradient id="linearGradient8633" gradientUnits="userSpaceOnUse" x1="308.143077" x2="308.143077" xlink:href="#linearGradient8627" y1="118.9142" y2="125.871"/>
    <linearGradient id="linearGradient8627">
      <stop offset="0" stop-color="#666"/>
      <stop offset="1" stop-color="#666" stop-opacity=".5"/>
    </linearGradient>
    <radialGradient id="radialGradient8546" cx="-1535.3044" cy="-842.90808" gradientTransform="matrix(-3.31574 0 0 -7.58441 -5185.0027 -6753.0782)" gradientUnits="userSpaceOnUse" r="10">
      <stop offset="0" stop-color="#fff"/>
      <stop offset="1" stop-color="#00a8ff" stop-opacity="0"/>
    </radialGradient>
    <linearGradient id="linearGradient8633-1" gradientUnits="userSpaceOnUse" x1="308.143077" x2="308.143077" xlink:href="#linearGradient8627" y1="118.9142" y2="130.6237"/>
    <linearGradient id="linearGradient8641" gradientUnits="userSpaceOnUse" x1="320.318427" x2="320.318427" xlink:href="#linearGradient8635" y1="121.3267" y2="127.5465"/>
    <linearGradient id="linearGradient8635">
      <stop offset="0" stop-color="#808080"/>
      <stop offset="1" stop-color="#666"/>
    </linearGradient>
    <linearGradient id="linearGradient8641-8" gradientUnits="userSpaceOnUse" x1="320.318427" x2="320.318427" xlink:href="#linearGradient8635" y1="122.5767" y2="129.0465"/>
    <linearGradient id="linearGradient9159" gradientUnits="userSpaceOnUse" x1="308.143167" x2="308.143167" y1="136.6349" y2="142.7612">
      <stop offset="0" stop-color="#0369a3"/>
      <stop offset="1" stop-color="#047fc6"/>
    </linearGradient>
    <linearGradient id="linearGradient10761" gradientTransform="matrix(1.71401 0 0 2.77333 -661.5673 -3409.5682)" gradientUnits="userSpaceOnUse" x1="445.69522" x2="441.38797" y1="1103.5776" y2="1099.8198">
      <stop offset="0" stop-color="#e9b913"/>
      <stop offset="1" stop-color="#ff0"/>
    </linearGradient>
    <linearGradient id="linearGradient7410" gradientTransform="matrix(.524068 0 0 1 289.17717 1337.2727)" gradientUnits="userSpaceOnUse" x1="-17" x2="144" xlink:href="#linearGradient8074-2" y1="-1194.6378" y2="-1194.6378"/>
    <linearGradient id="linearGradient8074-2">
      <stop offset="0" stop-opacity="0"/>
      <stop offset=".49305555"/>
      <stop offset="1" stop-opacity="0"/>
    </linearGradient>
    <linearGradient id="linearGradient7414" gradientTransform="matrix(.524068 0 0 1 289.17717 1288.2727)" gradientUnits="userSpaceOnUse" x1="-17" x2="144" xlink:href="#linearGradient8074-2" y1="-1194.6378" y2="-1194.6378"/>
    <linearGradient id="linearGradient20129" gradientTransform="matrix(.298137 0 0 1 99.7027 910.86984)" gradientUnits="userSpaceOnUse" x1="-17" x2="144" xlink:href="#linearGradient8074-2" y1="-1194.6378" y2="-1194.6378"/>
    <linearGradient id="linearGradient20133" gradientTransform="matrix(.298137 0 0 1 99.7027 833.86984)" gradientUnits="userSpaceOnUse" x1="-17" x2="144" xlink:href="#linearGradient8074-2" y1="-1194.6378" y2="-1194.6378"/>
    <linearGradient id="linearGradient20141" gradientTransform="matrix(.298137 0 0 1 99.7027 913.86984)" gradientUnits="userSpaceOnUse" x1="-17" x2="144" xlink:href="#linearGradient8074-2" y1="-1194.6378" y2="-1194.6378"/>
    <linearGradient id="linearGradient20145" gradientTransform="matrix(.524068 0 0 1 289.17717 1340.2727)" gradientUnits="userSpaceOnUse" x1="-17" x2="144" xlink:href="#linearGradient8074-2" y1="-1194.6378" y2="-1194.6378"/>
    <linearGradient id="linearGradient20149" gradientTransform="matrix(.298137 0 0 1 99.7027 830.86984)" gradientUnits="userSpaceOnUse" x1="-17" x2="144" xlink:href="#linearGradient8074-2" y1="-1194.6378" y2="-1194.6378"/>
  </defs>
  <path d="m-128.8111-19.056071v112h56.187504c5.114947-.238308 32.613203-27.078301 32.775-30.612499.08138-25.126708.0375-56.2589983.0375-81.387501z" filter="url(#filter3834)" opacity=".262376" transform="matrix(2 0 0 2 296.61038 60.847702)"/>
  <path d="m-128.8111-19.556071v112.2h55.746422c3.098719 0 24.709876-18.512112 30.003672-24.699929 1.602664-1.873324 3.24991-3.03751 3.24991-7.20007v-80.300001z" fill-opacity=".700535" filter="url(#filter3826)" transform="matrix(2 0 0 2 296.61038 60.847702)"/>
  <path d="m38.98818 21.73556v224h111.00001c3.35056 0 7.82859-1.12936 14-7.2 17.74009-17.45046 32.48094-27.70362 46.99808-42.35192 4.88112-4.92522 6.00192-8.94234 6.00192-13.44808v-161z" fill="#fff" stroke-width="2"/>
  <path d="m41.98818 23.73556c-.67968 0-1 .469236-1 1v215.9375c0 1.64316 1.35864 3 3 3h103.37501c.10614 0 1.62077.0468 3 .0626 3.55533-.0802 6.26395-1.50748 8.71207-3.18656 2.10373-.58206 33.29967-27.23918 51.54191-45.61848 2.72478-2.74524 4.37092-7.89634 4.37092-9.79122l.0001-160.40384c0-.645436-.32644-1-1-1z" fill="url(#linearGradient4524-4)" stroke-width="2"/>
  <path d="m41.98818 23.73556c-.67968 0-1 .469236-1 1v215.9375c0 1.64316 1.35864 2.99902 3 3l105.00001.0626c.10614.00006 6.54777-.016 7.927.0001 13.08194-9.00722 37.2746-31.90658 55.16506-49.9102 2.9537-3.31296.9152-.74012 2.90782-3.2149l.00012-165.875c0-.645436-.32644-1-1-1z" fill="url(#radialGradient5988-0)" opacity=".846535" stroke-width="2"/>
  <path d="m153.39062 222h10.79102m-35.16797 0h21.16797m-38.6582 0h14.39257m-40.126949 0h22.527339m-32.792959 0h7.05859m-15.05859 0h4.79296m-21.30273 0h13.30273m5.86524-12h-19.16797m28.90234 0h-6.52539m23.99414 0h-14.26172m26.792969 0h-9.32421m23.32421 0h-10.79101m23.58984 0h-9.58984m31.58984 0h-18.79297m36.79297 0h-14.79297m22.25977 0h-4.25977m-19.60156-12h18.69336m-37.22461 0h15.32422m-30.39453 0h11.86328m-32.12891 0h17.0586m-49.982429 0h29.716799m-52.232419 0h19.30859m-5.74804-12h-13.56055m32.35742 0h-15.58984m43.191399 0h-24.394529m31.996099 0h-4.39453m23.99609 0h-16.39453m25.86328 0h-6.26172m29.73047 0h-20.26172m44.16211 0h-20.69336m13.3418-12h15.35156m-33.35156 0h14.79297m-34.26172 0h16.26172m-19.46875 0h-18.12696m-14.26758 0h11.0586m-31.324219 0h17.058589m-23.994139 0h3.72852m-30.66602 0h23.73047m-33.16992 0h6.23242m132.814449-20h14.92579m-36.26172 0h18.1289m-41.83984 0h20.50391m-20.50391-12h25.83984m8 0h-4.79297m9.60157-12h10.92578m-49.57422 0h35.44141m-21.86719-12h-13.57422m35.57422 0h-18.79297m36.26172 0h-14.26172m-1.91626 24h8.39453m-9.13452-36h14.39453m-29.05859 0h11.45703m-19.05274 0h4.38868m-18.25391 0h10.6582m-41.72265-27.999999h6.39453m59.87109 12h18.79883m-24.79883-12h28.79883m-48.93164 0h16.92578m-36.92578 0h16.79297m15.87109 12h10.26172m-28.52734 0h15.05859m-29.99609 0h11.73047m-25.19727 0h10.25977m-6.78516-12h7.32422m-32.798829 12h18.792969m-41.191409 0h19.19141m-29.19141 0h6.79102m-21.45508 0h11.45508m32.41797-12h15.855469m-29.324219 0h10.26172m-20.26172 0h6.79297m-27.19727 0h17.19727m3.46875-12h-20.66602m30.93164 0h-7.05859m31.058589 0h-20.792969m30.792969 0h-6.79297m14.79297 0h-4.79297m23.45703 0h-15.45703m33.45703 0h-14.79297m-2-12.000002h19.19141m-32.92578 0h10.52734m-24.52734 0h10.79297m-28.792969 0h14.792969m-28.792969 0h10.79297m-43.86133 0h29.86133m44.003899-12h32.12891m-47.86328 0h12.52734m-19.99414 0h4.25977m-18.917969 0h11.44922m-28.1211 0h13.46485m-32.79883 0h16.12695" fill="none" stroke="#b6b6b6" stroke-width="6"/>
  <path d="m-39.811096 59.94691c0 4.46531-3.067448 5.978576-5.549678 7.662246-5.10854 3.46508-13.669156 1.756744-19.450326 1.837764-.081 5.78116 1.723142 12.231893-1.741938 17.340433-1.68367 2.48224-4.847792 5.659577-7.758062 5.659577 2.31803 0 4.74284-1.334761 7.58402-4.084811 9.14197-8.84873 14.36714-11.135349 22.673154-20.297529 1.91895-2.11675 4.24283-3.64188 4.24283-8.11768z" filter="url(#filter1164)" opacity=".4" transform="matrix(2 0 0 2 296.61038 60.847702)"/>
  <path clip-path="url(#clipPath6093-7)" d="m114.4 82.502986c0 4.465301-4.99749 12.609952-7.47972 14.293625-5.10854 3.465079-12.739114 1.52536-18.520284 1.60638-.081 5.781159 1.96586 11.304599-1.49922 16.413139-1.68367 2.48224-9.79051 8.68687-12.70078 8.68687-2.091359 1.5337 3.488204 8.21101 6.734971 5.31989 9.501888-8.46107 35.131683-30.022704 43.350823-39.262889 2.04044-2.29392-4.90514-9.844666-9.88579-7.057015z" filter="url(#filter6171-8)" opacity=".277228" transform="matrix(2 0 0 2 -7.01182 5.73556)"/>
  <g transform="translate(-228.75448 11.814354)">
    <rect fill="url(#linearGradient8652-8)" height="55.999992" width="84" x="279.76816" y="90.63488"/>
    <rect fill="url(#linearGradient19761-6)" height="48" width="75.998436" x="283.76962" y="94.63488"/>
    <path d="m339.11192 108.7727c-15.06455 6.008-29.77881 14.2205-39.78125 27.25 20.47917 0 39.95543-.9876 60.4346-.9876l.003-9.0436c-5.06837-4.3947-14.40166-15.0328-20.65615-17.2188z" fill="#fff" opacity=".5"/>
    <path d="m339.50182 109.7024c5.06659 2.5332 13.87172 11.3551 20.26345 17.733v7.5997h-58.26412c10.13459-12.6662 25.33429-20.2661 38.00067-25.3327z" fill="url(#linearGradient8608)"/>
    <path d="m320.89804 124.4271s.44272-3.5773.44272-3.5773 6.65294-2.8463 6.65294-2.8463 3.74161-3.4959 3.74161-3.4959 6.57905-2.6676 6.57905-2.6676-1.71689 4.3216-1.71689 4.3216-2.56482 4.493-2.56482 4.493-1.52666 4.8826-1.52666 4.8826-1.05581 2.8131-1.05581 2.8131-10.55214-3.9232-10.55214-3.9232z" fill="#333"/>
    <path d="m303.20567 101.5539c-6.44898 9.7171-11.85933 18.5139-19.43604 27.2131l.0676 7.0347c16.78125 0 44.49346.221 61.27471.221-14.05705-10.2048-29.3751-19.5806-38.09375-35.0312-1.2011 1.0694-3.04104-.519-3.8125.5624z" fill="url(#linearGradient8680)" opacity=".5"/>
    <path d="m323.03552 121.1021c-7.58307-6.2914-11.39978-11.3997-16.46634-18.9996-1.48156.4474-1.42497.2772-2.53328 0 0 0-6.77802 10.0696-10.13314 15.1997-3.3551 5.1301-10.13459 12.6664-10.13459 12.6664v5.0665h58.26412s-13.91947-10.0546-18.99677-13.933z" fill="url(#linearGradient8604)"/>
    <path d="m359.76809 129.9686h-3.26563s-14.46735 2.5333-14.46735 2.5333-14.29633-3.7999-16.44699-3.7999c-2.11303 0-8.88582 1.2666-10.15319 1.2666-.88823 0-6.33248-2.5332-7.61991-2.5332-2.12419 0-4.57202 2.6915-10.90522 3.7998 0 0-1.81956-4.0372-3.00704-3.7998-7.59985 2.9292-10.13459 2.5332-10.13459 2.5332v12.6664h75.9971s.002-12.6664.002-12.6664h.00028z" fill="url(#linearGradient9085)"/>
    <path d="m283.76965 132.5019-.00099 10.1331h65.86679s2.53328-2.5333 2.53328-2.5333-2.53328-2.5332-2.53328-2.5332-5.06657-2.5334-5.06657-2.5334-12.66641-2.5332-12.66641-2.5332-12.6664-1.2667-12.6664-1.2667-11.39977 1.2667-11.39977 1.2667h-15.1997-8.86648z" fill="url(#linearGradient8598)"/>
    <path d="m288.8362 127.4354s3.60932-5.7939 3.60932-5.7939 4.27798-5.063 4.27798-5.063 3.2666-5.9502 3.2666-5.9502 4.0458-5.9926 4.0458-5.9926-2.74602 7.5677-2.74602 7.5677-2.01069 6.2344-2.01069 6.2344-.97249 3.9328-.97249 3.9328-1.81468 4.19-1.81468 4.19c-.73049-.5328-1.65402-.5525-2.4869-.8228 0 0-2.37836.9322-2.37836.9322s-2.79056.7654-2.79056.7654z" fill="#333"/>
    <path d="m298.12964 127.5473 2.72366-6.8784 1.32843-7.1007 1.92133-4.3839 1.19947-4.5486 1.66504 4.6804.47301 4.4696 2.01407 3.9818 1.99664 4.5749.37323 3.2315-3.35375.9414-3.18579-1.2421-3.5217 2.2848h-3.63364z" fill="url(#linearGradient8633)"/>
    <path d="m330.78083 128.7066s-4.43728-3.1983-4.43728-3.1983-2.8341-2.261-2.8341-2.261 2.75251 4.2894 2.75251 4.2894 4.51887 1.1699 4.51887 1.1699z" fill="#808080"/>
    <rect fill="url(#radialGradient8546)" height="76" transform="matrix(0 -1 -1 0 0 0)" width="32" x="-126.63488" y="-359.76816"/>
    <path d="m109.55364-359.76819a15.00001 15 0 0 1 -15.000013 15v-15z" fill="#e9b913" opacity=".5" transform="rotate(90)"/>
    <path d="m334.49846 125.6562s1.56591-5.0425 1.56591-5.0425 1.92131-4.3839 1.92131-4.3839 1.19949-4.5482 1.19949-4.5482 1.66502 4.6803 1.66502 4.6803 2.13549 3.9947 2.13549 3.9947 1.5391 3.9818 1.5391 3.9818-.2199 4.2582-.2199 4.2582 2.11487 2.1231 2.11487 2.1231-4.35374-.2356-4.35374-.2356-8.78699-1.8183-8.78699-1.8183 1.21952-3.0101 1.21952-3.0101z" fill="url(#linearGradient8633-1)"/>
    <path d="m324.30214 127.4354s-3.68849-5.5898-3.68849-5.5898-6.54106-7.1331-6.54106-7.1331-5.41174-7.1153-5.41174-7.1153-2.09167-2.9615-2.09167-2.9615 2.267 7.6889 2.267 7.6889 2.48629 4.611 2.48629 4.611 2.2055 7.0438 2.2055 7.0438.64107 3.456.64107 3.456 2.27708.763 2.27708.763 3.48079-.8064 3.48079-.8064c1.46126-.1444 2.92258.026 4.37523.044z" fill="url(#linearGradient8641)"/>
    <path d="m358.73894 128.4643s-2.97601-1.7897-2.97601-1.7897-4.16611-5.7083-4.16611-5.7083-6.12423-5.2942-6.12423-5.2942-4.78328-3.9905-4.78328-3.9905.92119 3.3345.92119 3.3345 4.22793 6.6695 4.22793 6.6695.46386 6.0147.46386 6.0147 2.54103 1.9517 2.54103 1.9517 5.69988-1.1083 5.69988-1.1083l4.19574-.078z" fill="url(#linearGradient8641-8)"/>
    <path d="m283.79533 135.1014-.0257 7.5336h63.33202v-2.5333l-2.53326-2.5332-12.66643-2.5334-12.6664-1.2665-12.6664 1.2665-13.70914.3778z" fill="url(#linearGradient9159)"/>
    <path d="m319.26985 132.568-12.72043 1.4419-13.56901 1.0378-8.2752.029 8.15671.3393 13.98392-.021 12.39108-1.2813 12.6875 1.209 5.64415 1.101 6.9496 1.6177 2.28125 2.1875.3125 2.4063h1.15625l.20512-2.7873-3.41109-3.2617-13.20012-2.4813z" fill="#0088b7"/>
    <path d="m311.63574 140.1017s2.5333-2.5332 2.5333-2.5332h10.1331s7.59984 2.5332 7.59984 2.5332 2.53329 2.5333 2.53329 2.5333h-5.06655s-17.73298-2.5333-17.73298-2.5333z" fill="#1c99e0" opacity=".5"/>
    <path d="m306.58067 104.6349 1.5625 5.9062c1.28434 2.3781 3.8039 3.3846 5.88388 5.4107 3.00348 2.9257 6.33881 6.3819 7.61612 7.4956l-1.03125-1.5938-6.53125-7.1562-5.40625-7.0938z" fill="#fff" opacity=".4"/>
    <path d="m304.04942 104.6349-3.26961 7.6132-3.26164 9.1368-3.5736 4.3728c.51396.1149 2.10574.4962 2.54235.8147l1.8125-4.1875.96875-3.9375 2.03125-6.25z" opacity=".25"/>
    <path d="m307.79942 127.4474c-2.06881 0-4.43308 2.5305-10.40625 3.6875l-.21875.125c.10772.037.48667.1051 1.8125-.094 1.76776-.2652 8.0599-2.9322 9.5625-2.8437 1.5026.088 5.99111 2.6508 6.875 2.5625.88388-.089 9.37776-1.3224 10.96875-.9688 1.59099.3535 16.1875 3.625 16.1875 3.625l13.9375-2.5625 3.25.094v-1.0938h-3.28125l-14.4375 2.5313s-14.31809-3.8125-16.46875-3.8125c-2.11303 0-8.88888 1.2812-10.15625 1.2812-.88823 0-6.33757-2.5312-7.625-2.5312z" fill="#ff0" opacity=".35"/>
    <path d="m107.63245-359.77185a12.999968 12.999985 0 0 1 -12.999966 12.99998v-12.99998z" fill="url(#linearGradient10761)" opacity=".74" transform="rotate(90)"/>
    <path d="m343.76817 94.6349c0 8.8432 7.15662 16 16 16v-.9884c-8.29749 0-15.01158-6.7142-15.01158-15.0116z" fill="#fff" opacity=".5"/>
    <path d="m340.67442 111.6661.9375 3.3438 4.21875 6.6875.46875 6 2.53125 1.9687.4375-.094-2.25-2.25-.4375-5.75-2.41291-3.709 6.47541 3.459 5.125 5.3437-4.15625-5.6875-6.125-5.3125zm15.09375 15 .25.2813-.0625-.1563z" fill="#fff" opacity=".4"/>
    <rect fill="url(#linearGradient7410)" height="1.000016" opacity=".25" width="84.375" x="280.26816" y="142.63489"/>
    <rect fill="url(#linearGradient7414)" height="1.000016" opacity=".15" width="84.375" x="280.26816" y="93.63488"/>
    <path d="m283.76817 94.6349v48h76v-48zm1 1h74v46h-74z" fill="#fff" opacity=".35"/>
    <rect fill="url(#linearGradient20129)" height="1.000016" opacity=".25" transform="rotate(90)" width="48" x="94.63488" y="-283.76819"/>
    <rect fill="url(#linearGradient20133)" height="1.000016" opacity=".25" transform="rotate(90)" width="48" x="94.63488" y="-360.76819"/>
    <rect fill="url(#linearGradient20141)" height="1.000016" opacity=".25" transform="rotate(90)" width="48" x="94.63488" y="-280.76819"/>
    <rect fill="url(#linearGradient20145)" height="1.000016" opacity=".25" width="84.375" x="280.26816" y="145.63489"/>
    <rect fill="url(#linearGradient20149)" height="1.000016" opacity=".25" transform="rotate(90)" width="48" x="94.63488" y="-363.76819"/>
  </g>
  <path d="m216.98819 182.74152c0 8.93062-5.59498 12.81992-10.55944 16.18726-10.21708 6.93016-21.87823 6.65072-33.44057 6.81276-.162 11.56232.33172 19.0092-6.59844 29.22628-3.36734 4.96448-10.58102 10.77374-16.40156 10.77374 4.63606 0 8.88785-3.36342 15.16804-8.16962 19.0787-14.60084 26.40937-20.96861 43.34631-38.59506 3.95915-4.12033 8.48566-7.28376 8.48566-16.23536z" fill="url(#linearGradient3895-3)"/>
  <path d="m217.02569 184.16056c-.63286 7.7982-7.04582 11.80562-11.7 14.9625-10.21708 6.93016-22.67516 4.65046-34.2375 4.8125-.162 11.56232 1.70516 20.63292-5.225 30.85-2.94642 4.34392-8.19891 9.3202-13.525 10.5 3.96092-.7246 7.76986-3.32278 12.5375-7.9375.67823-.77706 1.14859-1.3579 2.2125-3 6.93016-10.21708 5.84737-16.93144 6.00937-28.49376 11.56234-.162 23.43605.42392 33.65313-6.50624.93084-.63138 3.18798-2.3755 4.0125-3.2 3.07258-3.07258 5.80342-5.22684 6.2625-11.9875zm-64.6875 61.125c-.31532.0698-.62688.0828-.9375.125.31398-.0338.62088-.067.9375-.125z" fill="#fff"/>
  <path d="m215.56229 21.556063.008 26.071903h-175.140574v-26.071903c0-5.537309 4.45784-9.995243 9.99515-9.995243h155.640944c7.21962 0 9.49443 3.33778 9.49648 9.995243z" fill="url(#linearGradient1090)" stroke="url(#linearGradient921)" stroke-linecap="round" stroke-linejoin="round" stroke-width="3"/>
</svg>
