<svg height="256" viewBox="0 0 256 256" width="256" xmlns="http://www.w3.org/2000/svg" xmlns:xlink="http://www.w3.org/1999/xlink">
  <defs>
    <linearGradient id="linearGradient74">
      <stop offset="0" stop-color="#ddefff"/>
      <stop offset=".50889999" stop-color="#77c0ff"/>
      <stop offset="1" stop-color="#bbe3ff"/>
    </linearGradient>
    <filter id="filter3858" height="1.095583" width="1.096421" x="-.048211" y="-.047791">
      <feGaussianBlur stdDeviation="2.29"/>
    </filter>
    <linearGradient id="linearGradient3473" gradientUnits="userSpaceOnUse" x1="127.998992" x2="127.998992" y1="204.619874" y2="14.177474">
      <stop offset="0" stop-color="#bbd6ff"/>
      <stop offset=".3335" stop-color="#c7ddff"/>
      <stop offset=".77890003" stop-color="#e9f3ff"/>
      <stop offset="1" stop-color="#fff"/>
    </linearGradient>
    <radialGradient id="radialGradient3479" cx="125.999992" cy="249.176474" gradientUnits="userSpaceOnUse" r="323.99978">
      <stop offset="0" stop-color="#ddecff"/>
      <stop offset=".61540002" stop-color="#77b0ff"/>
      <stop offset=".68239999" stop-color="#7fb4ff"/>
      <stop offset=".74919999" stop-color="#97c1ff"/>
      <stop offset=".8107" stop-color="#bbd6ff"/>
    </radialGradient>
    <linearGradient id="linearGradient3482" gradientUnits="userSpaceOnUse" x1="128.001" x2="128.001" y1="210.885474" y2="205.133474">
      <stop offset="0" stop-color="#53b2ff"/>
      <stop offset=".52499998" stop-color="#1193ff"/>
      <stop offset=".56209999" stop-color="#1095ff"/>
    </linearGradient>
    <linearGradient id="linearGradient3485" gradientUnits="userSpaceOnUse" x1="128.001" x2="128.001" y1="231.813274" y2="203.205674">
      <stop offset="0" stop-color="#8fcaff"/>
      <stop offset=".27379999" stop-color="#40aaff"/>
      <stop offset=".56169999" stop-color="#0c97ff"/>
      <stop offset=".8136" stop-color="#007be8"/>
      <stop offset="1" stop-color="#007bdb"/>
    </linearGradient>
    <linearGradient id="linearGradient3488" gradientUnits="userSpaceOnUse" x1="128.001" x2="128.001" y1="234.176474" y2="204.842474">
      <stop offset="0" stop-color="#77afff"/>
      <stop offset=".0954" stop-color="#3f8eff"/>
      <stop offset=".18000001" stop-color="#1d7cff"/>
      <stop offset=".24259999" stop-color="#1175ff"/>
      <stop offset="1" stop-color="#1175ff"/>
    </linearGradient>
    <linearGradient id="XMLID_20_" gradientTransform="matrix(0 -1 1 0 182.9971 295.082)" gradientUnits="userSpaceOnUse" x1="180.37399" x2="188.83299" y1="-157.96339" y2="-157.96339">
      <stop offset="0" stop-color="#ddd"/>
      <stop offset=".27379999" stop-color="#bbb"/>
      <stop offset=".56169999" stop-color="#9f9f9f"/>
      <stop offset=".8136" stop-color="#8e8e8e"/>
      <stop offset="1" stop-color="#888"/>
    </linearGradient>
    <radialGradient id="XMLID_21_" cx="25.0366" cy="110.4785" fx="25" fy="110" gradientUnits="userSpaceOnUse" r="3.0208">
      <stop offset="0" stop-color="#f0ff80"/>
      <stop offset=".0509" stop-color="#edfe77"/>
      <stop offset=".1338" stop-color="#e3fc5f"/>
      <stop offset=".2385" stop-color="#d4f937"/>
      <stop offset=".3599" stop-color="#bff500"/>
      <stop offset=".36090001" stop-color="#bff500"/>
      <stop offset=".48249999" stop-color="#bcf400"/>
      <stop offset=".55500001" stop-color="#b4f200"/>
      <stop offset=".61470002" stop-color="#a6ee00"/>
      <stop offset=".6674" stop-color="#92e800"/>
      <stop offset=".71539998" stop-color="#77e100"/>
      <stop offset=".76020002" stop-color="#57d800"/>
      <stop offset=".80239999" stop-color="#31cd00"/>
      <stop offset=".84140003" stop-color="#06c100"/>
      <stop offset=".84619999" stop-color="#00bf00"/>
      <stop offset="1" stop-color="#008c00"/>
    </radialGradient>
    <linearGradient id="XMLID_22_" gradientUnits="userSpaceOnUse" x1="39.5" x2="39.5" xlink:href="#linearGradient74" y1="98" y2="9.0005"/>
    <linearGradient id="XMLID_23_" gradientUnits="userSpaceOnUse" x1="88.5" x2="88.5" xlink:href="#linearGradient74" y1="98" y2="9.0005"/>
    <radialGradient id="radialGradient3892" cx="61.031124" cy="77.887314" gradientTransform="matrix(2.8701665 0 0 2.3395648 -113.14508 -101.5491)" gradientUnits="userSpaceOnUse" r="17.015625" xlink:href="#linearGradient3885"/>
    <linearGradient id="linearGradient3885">
      <stop offset="0" stop-color="#00316e"/>
      <stop offset="1" stop-color="#00316e" stop-opacity="0"/>
    </linearGradient>
    <filter id="filter3894" height="1.166585" width="1.26804" x="-.134019" y="-.083293">
      <feGaussianBlur stdDeviation=".8696875"/>
    </filter>
    <radialGradient id="radialGradient3879" cx="58.609375" cy="39.361935" gradientTransform="matrix(3.9306215 0 0 1.1236544 -171.76189 -4.555329)" gradientUnits="userSpaceOnUse" r="11.462072" xlink:href="#linearGradient3885"/>
    <filter id="filter3881" height="1.414705" width="1.422824" x="-.211412" y="-.207352">
      <feGaussianBlur stdDeviation=".45848289"/>
    </filter>
    <radialGradient id="radialGradient72" cx="126.77022" cy="212.03549" gradientTransform="matrix(1.7737713 .00997695 -.0156308 2.7789484 -94.776881 -393.54429)" gradientUnits="userSpaceOnUse" r="111.99952">
      <stop offset="0" stop-color="#199fff"/>
      <stop offset="1" stop-color="#0070e1"/>
    </radialGradient>
  </defs>
  <path d="m19.2 5.5c-1.972 0-3.571 1.262-3.72 2.935l-8.467 94.827c-.002.029-.004.06-.004.089 0 .028.001.056.003.084 0 0 .013.155.025.301-.004.036-.037.059-.037.097v12.872c0 2.093 1.763 3.795 3.93 3.795h106.14c2.167 0 3.93-1.702 3.93-3.795v-12.872c0-.038-.033-.061-.037-.098.012-.152.024-.31.024-.31.002-.026.003-.053.003-.079 0-.029-.001-.06-.004-.089l-8.466-94.823c-.146-1.672-1.745-2.934-3.72-2.934z" filter="url(#filter3858)" opacity=".6" transform="matrix(2 0 0 1.9508952 -.000008 7.093602)"/>
  <path d="m242 230.58648c0 1.982-1.792 3.59-4 3.59h-220.000008c-2.208 0-4-1.608-4-3.59v-25.744h228.000008z" fill="url(#linearGradient3488)" stroke-width="2"/>
  <path d="m237.992 228.34848c-.088 1.914-1.888 3.464-4.016 3.464h-211.952008c-2.128 0-3.926-1.55-4.018-3.464l-1.178-25.142h222.344008z" fill="url(#linearGradient3485)" stroke-width="2"/>
  <path d="m13.999992 205.13448c1.476 2.538 3.78 5.752 5.584 5.752h216.834008c1.804 0 4.11-3.214 5.584-5.752z" fill="url(#linearGradient3482)" stroke-width="2"/>
  <path d="m35.141992 12.176474c-1.866 0-3.468.994-3.582 2.224l-17.55 189.656006c-.16 1.722 1.506 3.12 3.722 3.12h220.538008c2.212 0 3.88-1.398 3.718-3.122l-17.548-189.654006c-.114-1.23-1.716-2.224-3.582-2.224z" fill="url(#radialGradient3479)" stroke-width="2"/>
  <path d="m35.141992 14.176474c-.916 0-1.528.386-1.628.546 0 .27-17.514 189.516006-17.514 189.516006v.048c0 .072.02.19.16.342.24.264.78.548 1.572.548h220.538008c.792 0 1.33-.284 1.572-.548.174-.192.16-.326.154-.384 0-.004-17.548-189.658006-17.548-189.658006-.062-.022-.672-.408-1.59-.408h-185.716008z" fill="url(#radialGradient72)" stroke-width="2"/>
  <path d="m33.513992 16.722474c.1-.162.71-.546 1.628-.546h185.716008c.918 0 1.528.386 1.59.408 0 0 15.708 169.743996 17.398 188.036006.166-.186.156-.318.15-.376 0-.004-17.548-189.658006-17.548-189.658006-.062-.022-.672-.408-1.59-.408h-185.716008c-.916 0-1.528.386-1.628.546 0 .268-17.514 189.514006-17.514 189.514006v.048c0 .07.024.184.152.33 1.69-18.27601 17.362-187.638006 17.362-187.894006z" fill="url(#linearGradient3473)" opacity=".8" stroke-width="2"/>
  <g transform="matrix(2 0 0 2 0 1.176474)">
    <path d="m25.034 114.708c2.331 0 4.229-1.897 4.229-4.229s-1.897-4.229-4.229-4.229-4.229 1.897-4.229 4.229 1.897 4.229 4.229 4.229z" fill="url(#XMLID_20_)"/>
    <circle cx="25.037001" cy="110.479" fill="url(#XMLID_21_)" r="3.021"/>
  </g>
  <g transform="matrix(2 0 0 2 0 1.176474)">
    <path d="m15.185 90.812c-.115 2.411-.175 4.807-.185 7.188h.676c.01-2.381.512675-4.777.625675-7.188 2.181-46.842 23.213325-81.812 47.698325-81.812-24.827 0-46.604 34.97-48.815 81.812z" fill="url(#XMLID_22_)" stroke-width="2"/>
    <path d="m112.816 90.812c-2.212-46.842-23.989-81.812-48.816-81.812 24.485 0 45.51833 34.97 47.69933 81.812.112 2.41.172 4.807.182 7.188h1.11867c-.01-2.381-.07-4.777-.184-7.188z" fill="url(#XMLID_23_)" stroke-width="2"/>
  </g>
  <g transform="translate(19.093582 -3.383227)">
    <path d="m66.729412 33.959112c.08021 4.617263-3.554911 8.427732-8.120703 8.427732-4.565791 0-8.200981-3.810469-8.120867-8.427732.07856-4.527874 3.713716-8.134609 8.120706-8.134609s8.042213 3.606735 8.120864 8.134609z" style="opacity:.3;fill:none;stroke-width:4.66776;stroke-linecap:round;stroke-linejoin:round;stroke:url(#radialGradient3879);filter:url(#filter3881)" transform="matrix(1.7011655 0 0 1.7011655 9.202178 -1.130671)"/>
    <path d="m67.893182 85.106387 7.393278.000007.300161 8.751221h-30.173264l.299991-8.751221 7.393278-.000007.544556-31.780191h-6.848412l.247719-7.226378h20.173553z" fill="none" filter="url(#filter3894)" opacity=".5" stroke="url(#radialGradient3892)" stroke-width="3.78125" transform="matrix(2.1 0 0 2.1 -18.143582 -12.256961)"/>
    <path d="m124.09496 56.639401c.1651 8.645031-6.63408 15.792297-15.18969 15.792297-8.5556 0-15.354923-7.147266-15.189984-15.792297.161432-8.461184 6.960704-15.189401 15.189684-15.189401s15.02839 6.728217 15.18999 15.189401z" fill="#eee"/>
    <path d="m124.39357 164.22052 15.48738.00003.78797 22.97326h-63.525002l.787521-22.97326 15.487378-.00003 1.105084-64.492463h-14.381666l.52021-15.175397h42.364465z" fill="#ededed"/>
  </g>
</svg>
