<svg enable-background="new" height="256" width="256" xmlns="http://www.w3.org/2000/svg" xmlns:xlink="http://www.w3.org/1999/xlink">
  <defs>
    <linearGradient id="linearGradient3291">
      <stop offset="0"/>
      <stop offset="1" stop-opacity="0"/>
    </linearGradient>
    <linearGradient id="linearGradient2874">
      <stop offset="0" stop-color="#414141"/>
      <stop offset="1" stop-color="#414141" stop-opacity="0"/>
    </linearGradient>
    <linearGradient id="lg1">
      <stop offset="0" stop-color="#fff"/>
      <stop offset="1" stop-color="#fff" stop-opacity="0"/>
    </linearGradient>
    <radialGradient id="radialGradient3842-3" cx="12.308078" cy="3.040689" fx="13.944797" gradientTransform="matrix(6.276236 0 0 .34492296 51.38335 14.430506)" gradientUnits="userSpaceOnUse" r="2.983107" xlink:href="#lg1"/>
    <radialGradient id="radialGradient3838-5" cx="12.308078" cy="3.040689" fx="13.944797" gradientTransform="matrix(10.935058 0 0 .34492296 6.97105 34.25683)" gradientUnits="userSpaceOnUse" r="2.983107" xlink:href="#lg1"/>
    <linearGradient id="linearGradient2179-3" gradientTransform="matrix(1.023008 0 0 3.61298 97.92891 -8.69627)" gradientUnits="userSpaceOnUse" x1="38.875084" x2="90.409752" xlink:href="#lg1" y1="67.528122" y2="67.528122"/>
    <linearGradient id="linearGradient2182-2" gradientTransform="matrix(1.023008 0 0 1.5427 97.92891 16.80955)" gradientUnits="userSpaceOnUse" x1="38.875084" x2="90.409752" xlink:href="#lg1" y1="67.528122" y2="67.528122"/>
    <linearGradient id="linearGradient2185-9" gradientTransform="matrix(10.935058 0 0 11.64115 9.72803 -1.19243)" gradientUnits="userSpaceOnUse" x1="11.543377" x2="10.88339" xlink:href="#lg1" y1="3.4375" y2="5.900602"/>
    <radialGradient id="radialGradient2188-7" cx="68.000046" cy="-117.34602" gradientTransform="matrix(1.98073 0 0 3.328316 -5.62799 147.53083)" gradientUnits="userSpaceOnUse" r="27.999956" xlink:href="#lg1"/>
    <linearGradient id="linearGradient2191-3" gradientTransform="matrix(2.036374 0 0 1.729228 36.92475 -262.56479)" gradientUnits="userSpaceOnUse" x1="43.918915" x2="43.918915" xlink:href="#linearGradient2874" y1="7.845094" y2="15.315003"/>
    <linearGradient id="linearGradient2194-6" gradientTransform="matrix(2.033784 0 0 1.679116 36.97149 -261.99859)" gradientUnits="userSpaceOnUse" x1="63.948738" x2="43.918915" xlink:href="#linearGradient2874" y1="-163.6496" y2="54.970299"/>
    <linearGradient id="linearGradient2197-2" gradientTransform="matrix(1.023008 0 0 1.92216 97.92891 12.13443)" gradientUnits="userSpaceOnUse" x1="38.875084" x2="90.409752" xlink:href="#lg1" y1="67.528122" y2="67.528122"/>
    <linearGradient id="linearGradient2200-6" gradientTransform="matrix(2.006874 0 0 1.92216 39.19337 12.13443)" gradientUnits="userSpaceOnUse" x1="69.07917" x2="63.575024" xlink:href="#linearGradient2874" y1="1.012883" y2="39.769947"/>
    <linearGradient id="linearGradient2203-1" gradientTransform="matrix(2.035432 0 0 1.920338 36.94155 12.15507)" gradientUnits="userSpaceOnUse" x1="18.01074" x2="72.498932" y1="65.760353" y2="65.760353">
      <stop offset="0" stop-color="#303030"/>
      <stop offset=".05769231" stop-color="#fff" stop-opacity=".592157"/>
      <stop offset=".11538462" stop-color="#4b4b4b" stop-opacity=".184314"/>
      <stop offset=".69156802" stop-opacity="0"/>
      <stop offset=".90384614" stop-opacity=".097473"/>
      <stop offset=".95192307" stop-color="#fff" stop-opacity=".545098"/>
      <stop offset="1" stop-color="#5d5d5d"/>
    </linearGradient>
    <linearGradient id="linearGradient2206-7" gradientTransform="matrix(9.722124 0 0 10.76747 95.01801 13.63999)" gradientUnits="userSpaceOnUse" x1="5.656854" x2="5.656854" xlink:href="#linearGradient3291" y1="6.085033" y2="1.463986"/>
    <linearGradient id="linearGradient2209-2" gradientTransform="matrix(10.961904 0 0 11.64115 11.32299 -1.19243)" gradientUnits="userSpaceOnUse" x1="11.434079" x2="11.174653" xlink:href="#lg1" y1="1.028958" y2="2.279265"/>
    <linearGradient id="linearGradient2212-9" gradientTransform="matrix(9.722124 0 0 10.76747 95.01801 13.63999)" gradientUnits="userSpaceOnUse" x1="6.452349" x2="5.559313" xlink:href="#linearGradient3291" y1="-2.801619" y2="1.04851"/>
    <linearGradient id="linearGradient2215-7" gradientTransform="matrix(9.722124 0 0 10.76747 95.01801 13.63999)" gradientUnits="userSpaceOnUse" x1="1.422799" x2="5.596073" y1="1.022699" y2="1.022699">
      <stop offset="0" stop-color="#303030"/>
      <stop offset=".11538462" stop-color="#555"/>
      <stop offset=".26590282" stop-color="#3b3b3b"/>
      <stop offset=".28553563" stop-color="#646464"/>
      <stop offset=".43724003" stop-color="#7b7b7b"/>
      <stop offset=".69156802" stop-color="#888"/>
      <stop offset=".90384614" stop-color="#747474"/>
      <stop offset="1" stop-color="#5d5d5d"/>
    </linearGradient>
    <radialGradient id="radialGradient3297-4" cx="63.912209" cy="115.70919" fx="66.022942" gradientTransform="matrix(1.137168 0 0 .1649289 55.32107 221.79755)" gradientUnits="userSpaceOnUse" r="63.912209" xlink:href="#linearGradient3291"/>
    <radialGradient id="radialGradient913-3" cx="-2.122412" cy="14.219431" gradientTransform="matrix(-8.208536 .07315268 -.16227596 -18.20915 34.85189 188.18481)" gradientUnits="userSpaceOnUse" r="20.361954">
      <stop offset="0" stop-color="#3a84d6"/>
      <stop offset=".5393" stop-color="#3355c7"/>
      <stop offset="1" stop-color="#2854da"/>
    </radialGradient>
    <filter id="filter3446" height="1.359499" width="1.134812" x="-.067406" y="-.17975">
      <feGaussianBlur stdDeviation="2.24687"/>
    </filter>
    <radialGradient id="radialGradient3141" cx="48.704403" cy="42.525261" fy="52.241333" gradientTransform="matrix(5.0984797 -.00000023 .00000032 7.1378715 -227.23405 -140.45317)" gradientUnits="userSpaceOnUse" r="20.327044">
      <stop offset="0" stop-color="#0081ec"/>
      <stop offset="1" stop-color="#003871"/>
    </radialGradient>
    <radialGradient id="radialGradient3364" cx="48.704403" cy="14.174014" fy="15.586639" gradientTransform="matrix(4.9584354 0 0 -2.1978698 -220.41327 278.33705)" gradientUnits="userSpaceOnUse" r="20.327044" xlink:href="#linearGradient3336"/>
    <linearGradient id="linearGradient3336">
      <stop offset="0" stop-color="#06f"/>
      <stop offset="1" stop-color="#06f" stop-opacity="0"/>
    </linearGradient>
    <radialGradient id="radialGradient3360" cx="48.704403" cy="14.174014" fy="15.586639" gradientTransform="matrix(2.5953486 0 0 2.0009208 -105.32054 -4.36108)" gradientUnits="userSpaceOnUse" r="20.327044">
      <stop offset="0" stop-color="#dceaff"/>
      <stop offset="1" stop-color="#dceaff" stop-opacity="0"/>
    </radialGradient>
    <radialGradient id="radialGradient3153" cx="64" cy="64" fy="54.987789" gradientTransform="matrix(3.5174022 0 0 5.080692 -204.02938 -189.0462)" gradientUnits="userSpaceOnUse" r="36" xlink:href="#linearGradient3336"/>
    <radialGradient id="radialGradient3184" cx="64" cy="82.564697" fy="89.949318" gradientTransform="matrix(.9105521 0 0 1.3152418 5.724668 -20.175479)" gradientUnits="userSpaceOnUse" r="36" xlink:href="#linearGradient3336"/>
    <filter id="filter3202" height="1.107915" width="1.155878" x="-.077939" y="-.053958">
      <feGaussianBlur stdDeviation="2.1290203"/>
    </filter>
    <radialGradient id="radialGradient3208" cx="64" cy="82.564697" fy="89.949318" gradientTransform="matrix(1.6936868 .00000002 0 1.154912 -44.395952 -6.937901)" gradientUnits="userSpaceOnUse" r="36" xlink:href="#linearGradient3336"/>
    <filter id="filter3284" height="1.080903" width="1.146924" x="-.073462" y="-.040452">
      <feGaussianBlur stdDeviation="1.3468071"/>
    </filter>
    <radialGradient id="radialGradient3303" cx="64" cy="-.735085" fy="10.298304" gradientTransform="matrix(7.0118332 0 0 4.4076124 -427.67296 -13.579438)" gradientUnits="userSpaceOnUse" r="35.84375" xlink:href="#linearGradient5919"/>
    <linearGradient id="linearGradient5919">
      <stop offset="0" stop-color="#fff"/>
      <stop offset=".5" stop-color="#78c9ff" stop-opacity=".498039"/>
      <stop offset="1" stop-color="#fff" stop-opacity="0"/>
    </linearGradient>
    <radialGradient id="radialGradient3319" cx="64" cy="27.5" gradientTransform="matrix(2.3483691 0 0 3.3777914 -86.295621 -81.389262)" gradientUnits="userSpaceOnUse" r="36.5" xlink:href="#linearGradient5919"/>
    <filter id="filter3309" height="1.034962" width="1.0505" x="-.02525" y="-.017481">
      <feGaussianBlur stdDeviation=".445"/>
    </filter>
    <radialGradient id="radialGradient3330" cx="64" cy="17.436096" fx="73.001312" fy="33.273273" gradientTransform="matrix(7.0118332 0 0 4.4076124 -427.67296 -13.579438)" gradientUnits="userSpaceOnUse" r="35.84375" xlink:href="#linearGradient5919"/>
    <radialGradient id="radialGradient3334" cx="64" cy="27.5" gradientTransform="matrix(1.1369885 0 0 1.6353946 -8.767265 -33.473349)" gradientUnits="userSpaceOnUse" r="36.5" xlink:href="#linearGradient3336"/>
    <filter id="filter3348" height="1.055731" width="1.0805" x="-.04025" y="-.027865">
      <feGaussianBlur stdDeviation=".895"/>
    </filter>
  </defs>
  <path d="m110.58719 10.167082v-5.589418z" fill="#fff" fill-opacity=".756881" stroke-width="2"/>
  <ellipse cx="128" cy="240.88136" fill="url(#radialGradient3297-4)" opacity=".381395" rx="72.678917" ry="10.54098" stroke-width="2"/>
  <path d="m109.25155 13.640046h39.90372c2.49934 0 4.51142 2.228442 4.51142 4.996524v16.58482h-48.92656v-16.58482c0-2.768082 2.01208-4.996524 4.51142-4.996524z" fill="url(#linearGradient2215-7)" stroke-width="2"/>
  <path d="m109.25155 13.640046h39.90372c2.49934 0 4.51142 2.228442 4.51142 4.996524v6.29322h-48.92656v-6.29322c0-2.768082 2.01208-4.996524 4.51142-4.996524z" fill="url(#linearGradient2212-9)" stroke-width="2"/>
  <path d="m112.28121 15.277082h35.64206c2.23242 0 4.02962 1.908568 4.02962 4.279328v2.40154c-31.11258 7.3474-9.39192.51446-43.7013 0v-2.40154c0-2.37076 1.7972-4.279328 4.02962-4.279328z" fill="url(#linearGradient2209-2)" stroke-width="2"/>
  <path d="m153.66669 29.40403v5.7212h-48.92656v-5.7212z" fill="url(#linearGradient2206-7)" stroke-width="2"/>
  <rect fill="url(#linearGradient2203-1)" height="209.27097" rx="4.38755" ry="3.91783" stroke-width="2" width="110.90763" x="73.601471" y="33.801296"/>
  <rect fill="url(#linearGradient2200-6)" height="74.059586" opacity=".51" rx="4.40389" ry="3.926678" stroke-width="2" width="109.35036" x="75.338531" y="33.801296"/>
  <rect fill="url(#radialGradient913-3)" height="183.88728" ry="0" width="81.447823" x="88.438324" y="47.094143"/>
  <rect fill="url(#linearGradient2197-2)" height="205.7034" opacity=".22541" rx="0" stroke-width="2" width="26.341652" x="137.82437" y="35.815304"/>
  <rect fill="url(#linearGradient2194-6)" height="119.43533" opacity=".87" rx="4.163922" ry="3.849926" stroke-width="2" transform="scale(1 -1)" width="110.81705" x="73.601471" y="-243.07225"/>
  <rect fill="url(#linearGradient2191-3)" height="123.00286" rx="4.152428" ry="3.829904" stroke-width="2" transform="scale(1 -1)" width="110.9584" x="73.601471" y="-243.07225"/>
  <rect fill="url(#radialGradient2188-7)" height="122.41202" opacity=".41" rx="4.19216" ry="3.878216" stroke-width="2" transform="scale(1 -1)" width="110.92078" x="73.601471" y="-242.98143"/>
  <path d="m82.85621 38.82401c-1.04122 0-1.7086 1.07426-1.7086 2.1827v6.18436c21.77102 37.26298 66.41178 16.73836 97.04858 10.18602v-16.37038c0-1.10844-.66736-2.1827-1.70858-2.1827z" fill="url(#linearGradient2185-9)" opacity=".483607" stroke-width="2"/>
  <rect fill="url(#linearGradient2182-2)" height="63.727722" opacity=".22541" rx="0" stroke-width="2" width="26.341652" x="137.82437" y="35.815304"/>
  <rect fill="url(#linearGradient2179-3)" height="143.6765" opacity=".22541" rx="0" stroke-width="2" width="26.341652" x="137.82437" y="35.815304"/>
  <ellipse cx="141.56061" cy="35.30563" fill="url(#radialGradient3838-5)" rx="32.620445" ry="1.028942" stroke-width="2"/>
  <ellipse cx="128.63174" cy="15.479305" fill="url(#radialGradient3842-3)" rx="18.722685" ry="1.028942" stroke-width="2"/>
  <g transform="matrix(.66666666 0 0 .66666666 182.55419 79.715069)">
    <path d="m106 113a40 15 0 1 1 -80 0 40 15 0 1 1 80 0z" fill="#002447" filter="url(#filter3446)" transform="matrix(1.0610089 0 0 .84880746 -48.942233 142.20286)"/>
    <path d="m101.08436 136.11809c0 96-35.84 112.00001-80 112.00001-44.160001 0-80.000004-16.00001-80.000004-112.00001 0-95.999996 35.840003-111.999995 80.000004-111.999995 44.16 0 80 15.999999 80 111.999995z" fill="url(#radialGradient3141)"/>
    <path d="m100.41746 136.11808c0-95.199712-35.54123-111.066311-79.3331-111.066311-43.791865 0-79.333093 15.866599-79.333093 111.066311 0 95.19971 35.541228 111.06633 79.333093 111.06633 43.79187 0 79.3331-15.86662 79.3331-111.06633z" fill="url(#radialGradient3364)" opacity=".801932"/>
    <path d="m101.16872 136.11809c0 96.10124-35.8778 112.11808-80.08436 112.11808-44.206563 0-80.084357-16.01684-80.084357-112.11808 0-96.10122 35.877794-112.11809 80.084357-112.11809 44.20656 0 80.08436 16.01687 80.08436 112.11809z" fill="url(#radialGradient3360)"/>
    <path d="m93.08436 136.11809c0 89.14286-32.256 104-72 104-39.744001 0-72.000003-14.85714-72.000003-104 0-89.142852 32.256002-103.999996 72.000003-103.999996 39.744 0 72 14.857144 72 103.999996z" fill="url(#radialGradient3153)"/>
    <path d="m96.779874 64.000002c0 40.584608-14.685382 47.348708-32.779872 47.348708-18.094492 0-32.779876-6.7641-32.779876-47.348708s14.685384-47.348709 32.779876-47.348709c18.09449 0 32.779872 6.764101 32.779872 47.348709z" fill="url(#radialGradient3184)" filter="url(#filter3202)" opacity=".990338" transform="matrix(1.6316194 0 0 1.3860322 -83.339279 73.575554)"/>
    <path d="m96.779874 64.000002c0 40.584608-14.685382 47.348708-32.779872 47.348708-18.094492 0-32.779876-6.7641-32.779876-47.348708s14.685384-47.348709 32.779876-47.348709c18.09449 0 32.779872 6.764101 32.779872 47.348709z" fill="url(#radialGradient3208)" filter="url(#filter3202)" opacity=".990338" transform="matrix(1.6316194 0 0 -1.3860322 -83.339279 196.98767)"/>
    <path d="m60 24v13.3125 18.59375l-5 4-15-12v8l10 8-10 8v8l15-12 5 4v32l24-19.96875-24-20 24-19.96875zm4 10.28125 12 9.625-12 9.625zm0 40 12 9.625-12 9.625z" fill="#fff" fill-rule="evenodd" filter="url(#filter3284)" transform="matrix(2 0 0 2 -106.91564 8.118094)"/>
    <path d="m13.08436 56.118094v26.625 37.187496l-10 8-30.000003-24v16l20 16-20 16v16l30.000003-24 10 8v64l48-39.9375-48-40 48-39.937496zm8 20.5625 24 19.25-24 19.249996zm0 79.999996 24 19.25-24 19.25z" fill="#fff" fill-rule="evenodd"/>
    <path d="m21.08436 32.118094c-37.580403 0-68.436161 13.316106-71.687503 90.124996 20.238688-3.28972 43.895473-5.125 71.687503-5.125 27.79202 0 51.44881 1.83528 71.6875 5.125-3.25134-76.808892-34.1071-90.124996-71.6875-90.124996z" fill="url(#radialGradient3303)" opacity=".652174"/>
    <path d="m100 64.000002c0 44.571428-16.127998 51.999998-35.999998 51.999998-19.872001 0-36.000002-7.42857-36.000002-51.999998 0-44.57143 16.128001-52.000002 36.000002-52.000002 19.872 0 35.999998 7.428572 35.999998 52.000002z" style="fill:none;stroke-width:1.5;stroke-linecap:round;stroke-linejoin:round;stroke:url(#radialGradient3319);filter:url(#filter3309)" transform="matrix(2 0 0 2 -106.91564 8.118094)"/>
    <path d="m21.08436 32.118094c-37.580403 0-68.436161 13.316106-71.687503 90.124996 20.238688-3.28972 43.895473-5.125 71.687503-5.125 27.79202 0 51.44881 1.83528 71.6875 5.125-3.25134-76.808892-34.1071-90.124996-71.6875-90.124996zm0 4.0625c36.52535 0 67.63435 13.265666 70.79442 85.516896-19.67051-3.09451-43.78264-4.91313-70.79442-4.91313-27.01179 0-50.017003 1.11422-69.687503 4.20873 3.160064-72.251228 33.162144-84.812496 69.687503-84.812496z" fill="url(#radialGradient3330)" opacity=".652174"/>
    <path d="m100 64.000002c0 44.571428-16.127998 51.999998-35.999998 51.999998-19.872001 0-36.000002-7.42857-36.000002-51.999998 0-44.57143 16.128001-52.000002 36.000002-52.000002 19.872 0 35.999998 7.428572 35.999998 52.000002z" style="fill:none;stroke-width:1.5;stroke-linecap:round;stroke-linejoin:round;stroke:url(#radialGradient3334);filter:url(#filter3348)" transform="matrix(2 0 0 -2 -106.91564 264.11809)"/>
  </g>
</svg>
