<svg height="256" width="256" xmlns="http://www.w3.org/2000/svg" xmlns:xlink="http://www.w3.org/1999/xlink">
  <defs>
    <radialGradient id="radialGradient1" cx="-140.24049" cy="54.94302" gradientTransform="matrix(-.02259825 1.7874325 -1.2714963 -.01607533 -73.909375 299.82268)" gradientUnits="userSpaceOnUse" r="68.287071">
      <stop offset="0" stop-color="#ffd2b8"/>
      <stop offset=".5" stop-color="#f5d5c0"/>
      <stop offset="1" stop-color="#e6bfa0"/>
    </radialGradient>
    <linearGradient id="linearGradient51" gradientUnits="userSpaceOnUse" x1="-81.313446" x2="-160.67032" y1="187.86508" y2="32.987965">
      <stop offset="0" stop-color="#dc8756"/>
      <stop offset="1" stop-color="#fff1e8"/>
    </linearGradient>
    <filter id="filter51" color-interpolation-filters="sRGB" height="1.092157" width="1.100177" x="-.050089" y="-.046079">
      <feGaussianBlur stdDeviation="2.9861805"/>
    </filter>
    <mask id="mask54" maskUnits="userSpaceOnUse">
      <path d="m-134.61251 182.06023c16.8736 2.2496 37.8728 2.0372 40.3352 2.0036.1624-.002.322-.003.4844-.004 15.308-.0976 27.2216-9.3652 29.0916-23.858l4.6632-32.1412c4-24-14-30.000005-20-18 0-14.000005-16-22.000005-24-10 0-12.000005-16-20.000005-24-8.000005v-44c0-16.000001-23.78326-19.998827-24 0l-.85178 78.592905s-3.16702-2.6117-7.14822-6.5929c-27.272-27.272405-36-4-36-4 16 12 31.4256 62 61.4256 66z" fill="none"/>
    </mask>
    <linearGradient id="linearGradient55" gradientUnits="userSpaceOnUse" x1="-81.313446" x2="-160.67032" y1="187.86508" y2="32.987965">
      <stop offset="0" stop-color="#ffe8db"/>
      <stop offset="1" stop-color="#f9e6da"/>
    </linearGradient>
    <filter id="filter68" color-interpolation-filters="sRGB" height="1.092919" width="1.099293" x="-.049646" y="-.046459">
      <feGaussianBlur stdDeviation="2.9571724"/>
    </filter>
    <radialGradient id="radialGradient21210" cx="63.071262" cy="-8.361158" gradientTransform="matrix(2 0 0 1.3956543 134.18431 -125.495)" gradientUnits="userSpaceOnUse" r="61.843754">
      <stop offset="0" stop-color="#f6f6f6"/>
      <stop offset="1" stop-color="#ccc"/>
    </radialGradient>
    <linearGradient id="linearGradient4898" gradientTransform="matrix(1 0 0 -1 0 106.24806)" gradientUnits="userSpaceOnUse" x1="110.2377" x2="12.362701" y1="82.125" y2="-9.046475">
      <stop offset="0" stop-color="#1d1e23"/>
      <stop offset=".5" stop-color="#101113"/>
      <stop offset="1" stop-color="#26292e"/>
    </linearGradient>
    <filter id="filter6186" height="1.002717" width="1.001892" x="-.000946" y="-.001359">
      <feGaussianBlur stdDeviation=".0441875"/>
    </filter>
    <linearGradient id="linearGradient4900" gradientTransform="matrix(2.1092076 0 0 2.1367524 127.40594 -167.90703)" gradientUnits="userSpaceOnUse" x1="84.361366" x2="42.887676" xlink:href="#linearGradient7136" y1="29.365416" y2="18.252573"/>
    <linearGradient id="linearGradient7136">
      <stop offset="0" stop-color="#fff"/>
      <stop offset="1" stop-color="#fff" stop-opacity="0"/>
    </linearGradient>
    <linearGradient id="linearGradient5006" gradientTransform="matrix(2.223528 0 0 2.25416 119.81315 -173.56591)" gradientUnits="userSpaceOnUse" x1="82.44709" x2="82.44709" y1="87.650002" y2="21.826469">
      <stop offset="0" stop-color="#1949ed"/>
      <stop offset="1" stop-color="#3879f8"/>
    </linearGradient>
    <filter id="filter7497" height="1.133899" width="1.03292" x="-.01646" y="-.06695">
      <feGaussianBlur stdDeviation=".036652415"/>
    </filter>
    <clipPath id="clipPath7399-6">
      <rect height="73" rx="0" width="96" x="165.90663" y="29.000002"/>
    </clipPath>
    <filter id="filter5885" height="1.028152" width="1.021409" x="-.010705" y="-.014076">
      <feGaussianBlur stdDeviation=".46554058"/>
    </filter>
    <linearGradient id="linearGradient4957" gradientTransform="matrix(2.3193384 0 0 2.3105142 113.64444 -174.693)" gradientUnits="userSpaceOnUse" x1="80.264381" x2="38.917843" xlink:href="#linearGradient7136" y1="26.93886" y2="17.18886"/>
    <linearGradient id="linearGradient1186" gradientUnits="userSpaceOnUse" x1="228.087784" x2="142.914876" y1="-55.79439" y2="-100.608604">
      <stop offset="0" stop-color="#fff" stop-opacity=".2"/>
      <stop offset="1" stop-color="#fff" stop-opacity=".1"/>
    </linearGradient>
    <linearGradient id="linearGradient1196" gradientUnits="userSpaceOnUse" x1="202.812408" x2="368.09991" y1="-7.77666" y2="-9.26254">
      <stop offset="0" stop-color="#fff" stop-opacity=".2"/>
      <stop offset="1" stop-color="#fff" stop-opacity="0"/>
    </linearGradient>
    <linearGradient id="linearGradient1206" gradientUnits="userSpaceOnUse" x1="368.28203" x2="199.984879" y1="-97.736809" y2="-8.11539">
      <stop offset="0" stop-color="#fff" stop-opacity=".15"/>
      <stop offset="1" stop-color="#fff" stop-opacity="0"/>
    </linearGradient>
    <linearGradient id="linearGradient7455" gradientUnits="userSpaceOnUse" x1="262.1875" x2="262.1875" y1="-1.25171" y2="8.72989">
      <stop offset="0" stop-color="#fff"/>
      <stop offset="1" stop-color="#fff" stop-opacity=".004545"/>
    </linearGradient>
    <linearGradient id="linearGradient7434" gradientTransform="matrix(2.2240896 0 0 .04196374 119.84576 -5.85806)" gradientUnits="userSpaceOnUse" x1="64" x2="64" y1="72" y2="112">
      <stop offset="0" stop-color="#fff"/>
      <stop offset="1" stop-color="#fff"/>
    </linearGradient>
    <linearGradient id="linearGradient7446" gradientUnits="userSpaceOnUse" x1="262.1875" x2="262.1875" y1="2.68683" y2="10.47113">
      <stop offset="0"/>
      <stop offset=".28571504" stop-opacity=".498039"/>
      <stop offset="1" stop-opacity="0"/>
    </linearGradient>
    <linearGradient id="linearGradient52" gradientUnits="userSpaceOnUse" spreadMethod="reflect" x1="64.492081" x2="64.492081" y1="83.273643" y2="83.705124">
      <stop offset="0" stop-color="#a5acb2"/>
      <stop offset=".64333254" stop-color="#bdc1c7"/>
      <stop offset=".88042605" stop-color="#33373c"/>
      <stop offset="1"/>
    </linearGradient>
    <filter id="filter8" color-interpolation-filters="sRGB" height="1.614874" width="1.395629" x="-.197814" y="-.307437">
      <feGaussianBlur stdDeviation="8.2079213"/>
    </filter>
    <mask id="mask9" maskUnits="userSpaceOnUse">
      <path d="m142.01562 60.472656c-6.88178 0-12.85882 1.383644-17.92968 3.789063l-52.357471 26.40825c-8.64385 4.359816-14.572266 13.316121-14.572266 23.658201-.000002 14.62568 11.855044 26.56725 26.480469 26.48243l58.613518-.33993c21.98279-.12749 39.76562-17.98537 39.76562-39.99804 0-22.091397-17.90861-40.000007-40-40.000007z" fill="#fff"/>
    </mask>
    <linearGradient id="linearGradient32" gradientUnits="userSpaceOnUse" x1="177.6268" x2="56.935375" y1="83.431755" y2="124.92035">
      <stop offset="0" stop-color="#fff" stop-opacity=".497441"/>
      <stop offset="1" stop-color="#fff"/>
    </linearGradient>
    <linearGradient id="linearGradient34" gradientUnits="userSpaceOnUse" x1="58.614788" x2="179.32793" y1="124.61303" y2="83.431755">
      <stop offset="0" stop-color="#fff" stop-opacity=".35"/>
      <stop offset="1" stop-color="#fff" stop-opacity=".152172"/>
    </linearGradient>
  </defs>
  <g transform="translate(-134.1875 173.1875)">
    <path d="m148.5-144.5c-4.97881 0-9 4.02119-9 9v3.25 146.125 3.3125c0 4.97881 4.02119 8.9375 9 8.9375h227.37501c4.9788 0 9-3.95869 9-8.9375v-152.6875c0-4.97881-4.0212-9-9-9z" fill-rule="evenodd" stroke="url(#radialGradient21210)" stroke-width="3"/>
    <path d="m9.25 11.9375c-.4270534 0-.7568164.142635-.96875.34375s-.34375.467228-.34375.96875v2.84375 69.75 2.84375c0 .757756.5547428 1.3125 1.3125 1.3125h109.5c.27365 0 .62452-.155611.90625-.46875s.40625-.776819.40625-.84375v-2.84375-69.75-2.84375c0-.75775-.55476-1.3125-1.3125-1.3125z" fill="url(#linearGradient4898)" fill-rule="evenodd" filter="url(#filter6186)" transform="matrix(2.1092076 0 0 2.0733474 127.19502 -164.92422)"/>
    <path d="m145.98015-140.17363c-1.14926 0-2.04315.85334-2.04329 2.20293v156.34335l2.76833 4.0819h52.53245l92.47557-162.62818z" fill="url(#linearGradient4900)" fill-rule="evenodd" opacity=".5" stroke-width="2"/>
    <rect fill="url(#linearGradient5006)" fill-rule="evenodd" height="138.63081" opacity=".840909" rx="0" stroke-width="2" width="213.45869" x="155.3896" y="-128.48273"/>
    <g transform="matrix(2.4269702 0 0 2.3857078 107.98398 -179.56045)">
      <g style="opacity:.427273;stroke:#000;stroke-width:0;stroke-linecap:round;stroke-linejoin:round;filter:url(#filter7497)" transform="matrix(1.8247035 0 0 1.8247035 -52.398467 -69.035703)">
        <path d="m61.363611 82.433983c-.25688 0-.40962.182246-.40962.487726 0 .307215.15274.487726.411356.487726.25688 0 .411356-.182246.411356-.480783 0-.315894-.149268-.494669-.413092-.494669zm.0017.133647c.163154 0 .260352.133648.260352.359286 0 .215224-.10067.348872-.260352.348872-.161418 0-.260352-.133648-.260352-.354079s.09893-.354079.260352-.354079z"/>
        <path d="m62.316498 82.899145.30548-.439127h-.163154l-.218696.329779-.218695-.329779h-.16489l.303744.44607-.321101.463426h.16489l.230845-.348871.227374.348871h.168361z"/>
        <path d="m63.37179 82.460018-.251673.708158-.232582-.708158h-.154475l.307215.912968-.05554.144061c-.0243.06422-.05554.08852-.116291.08852-.0243 0-.04513-.0035-.07637-.01041v.130176c.02951.01562.05901.02256.0972.02256.04686 0 .0972-.01562.135383-.04339.04513-.03298.07116-.07116.09893-.144062l.404413-1.100421z"/>
        <path d="m64.232687 82.460018v.131912c-.0729-.109348-.15274-.157947-.267295-.157947-.220431 0-.373171.20481-.373171.496404 0 .15274.03645.263824.114555.355815.06769.07984.154475.123233.248202.123233.109348 0 .187453-.0486.263823-.163154v.04686c0 .242995-.06769.33325-.248202.33325-.123233 0-.187453-.0486-.201339-.15274h-.147533c.01389.168361.147533.274238.345401.274238.133647 0 .244731-.04339.303744-.116291.06943-.08505.09546-.197867.09546-.411356v-.760228zm-.25341.107612c.15274 0 .239524.128441.239524.359286 0 .220431-.08852.348872-.239524.348872-.149268 0-.236052-.130176-.236052-.354079 0-.222167.08678-.354079.236052-.354079z"/>
        <path d="m65.378236 82.963365c0-.138854-.01041-.222167-.03645-.289858-.05901-.149269-.197867-.239524-.367964-.239524-.253409 0-.416563.19266-.416563.492933s.156211.482519.413092.482519c.208281 0 .352343-.118026.388792-.315894h-.145797c-.03992.119762-.121498.182247-.237788.182247-.09199 0-.170097-.04166-.218696-.118026-.03471-.05207-.04686-.104141-.0486-.194397zm-.666501-.118026c.01215-.168361.114555-.277709.260352-.277709.147533 0 .249938.114555.249938.277709z"/>
        <path d="m65.574368 82.460018v.909496h.145797v-.501611c0-.185718.0972-.307215.246467-.307215.114555 0 .187453.06943.187453.178775v.630051h.144062v-.687329c0-.151004-.11282-.248202-.288123-.248202-.135383 0-.222167.05207-.302009.178775v-.15274z"/>
      </g>
      <g filter="url(#filter7497)" stroke="#000" stroke-linecap="round" stroke-linejoin="round" stroke-width="0" transform="matrix(1.8247035 0 0 1.8247035 -52.398467 -69.035703)">
        <path d="m61.363611 82.433983c-.25688 0-.40962.182246-.40962.487726 0 .307215.15274.487726.411356.487726.25688 0 .411356-.182246.411356-.480783 0-.315894-.149268-.494669-.413092-.494669zm.0017.133647c.163154 0 .260352.133648.260352.359286 0 .215224-.10067.348872-.260352.348872-.161418 0-.260352-.133648-.260352-.354079s.09893-.354079.260352-.354079z"/>
        <path d="m62.316498 82.899145.30548-.439127h-.163154l-.218696.329779-.218695-.329779h-.16489l.303744.44607-.321101.463426h.16489l.230845-.348871.227374.348871h.168361z"/>
        <path d="m63.37179 82.460018-.251673.708158-.232582-.708158h-.154475l.307215.912968-.05554.144061c-.0243.06422-.05554.08852-.116291.08852-.0243 0-.04513-.0035-.07637-.01041v.130176c.02951.01562.05901.02256.0972.02256.04686 0 .0972-.01562.135383-.04339.04513-.03298.07116-.07116.09893-.144062l.404413-1.100421z"/>
        <path d="m64.232687 82.460018v.131912c-.0729-.109348-.15274-.157947-.267295-.157947-.220431 0-.373171.20481-.373171.496404 0 .15274.03645.263824.114555.355815.06769.07984.154475.123233.248202.123233.109348 0 .187453-.0486.263823-.163154v.04686c0 .242995-.06769.33325-.248202.33325-.123233 0-.187453-.0486-.201339-.15274h-.147533c.01389.168361.147533.274238.345401.274238.133647 0 .244731-.04339.303744-.116291.06943-.08505.09546-.197867.09546-.411356v-.760228zm-.25341.107612c.15274 0 .239524.128441.239524.359286 0 .220431-.08852.348872-.239524.348872-.149268 0-.236052-.130176-.236052-.354079 0-.222167.08678-.354079.236052-.354079z"/>
        <path d="m65.378236 82.963365c0-.138854-.01041-.222167-.03645-.289858-.05901-.149269-.197867-.239524-.367964-.239524-.253409 0-.416563.19266-.416563.492933s.156211.482519.413092.482519c.208281 0 .352343-.118026.388792-.315894h-.145797c-.03992.119762-.121498.182247-.237788.182247-.09199 0-.170097-.04166-.218696-.118026-.03471-.05207-.04686-.104141-.0486-.194397zm-.666501-.118026c.01215-.168361.114555-.277709.260352-.277709.147533 0 .249938.114555.249938.277709z"/>
        <path d="m65.574368 82.460018v.909496h.145797v-.501611c0-.185718.0972-.307215.246467-.307215.114555 0 .187453.06943.187453.178775v.630051h.144062v-.687329c0-.151004-.11282-.248202-.288123-.248202-.135383 0-.222167.05207-.302009.178775v-.15274z"/>
      </g>
      <g fill="url(#linearGradient52)" transform="matrix(1.8247035 0 0 1.8247035 -52.398467 -69.161151)">
        <path d="m61.363611 82.433983c-.25688 0-.40962.182246-.40962.487726 0 .307215.15274.487726.411356.487726.25688 0 .411356-.182246.411356-.480783 0-.315894-.149268-.494669-.413092-.494669zm.0017.133647c.163154 0 .260352.133648.260352.359286 0 .215224-.10067.348872-.260352.348872-.161418 0-.260352-.133648-.260352-.354079s.09893-.354079.260352-.354079z" fill="url(#linearGradient52)"/>
        <path d="m62.316498 82.899145.30548-.439127h-.163154l-.218696.329779-.218695-.329779h-.16489l.303744.44607-.321101.463426h.16489l.230845-.348871.227374.348871h.168361z" fill="url(#linearGradient52)"/>
        <path d="m63.37179 82.460018-.251673.708158-.232582-.708158h-.154475l.307215.912968-.05554.144061c-.0243.06422-.05554.08852-.116291.08852-.0243 0-.04513-.0035-.07637-.01041v.130176c.02951.01562.05901.02256.0972.02256.04686 0 .0972-.01562.135383-.04339.04513-.03298.07116-.07116.09893-.144062l.404413-1.100421z" fill="url(#linearGradient52)"/>
        <path d="m64.232687 82.460018v.131912c-.0729-.109348-.15274-.157947-.267295-.157947-.220431 0-.373171.20481-.373171.496404 0 .15274.03645.263824.114555.355815.06769.07984.154475.123233.248202.123233.109348 0 .187453-.0486.263823-.163154v.04686c0 .242995-.06769.33325-.248202.33325-.123233 0-.187453-.0486-.201339-.15274h-.147533c.01389.168361.147533.274238.345401.274238.133647 0 .244731-.04339.303744-.116291.06943-.08505.09546-.197867.09546-.411356v-.760228zm-.25341.107612c.15274 0 .239524.128441.239524.359286 0 .220431-.08852.348872-.239524.348872-.149268 0-.236052-.130176-.236052-.354079 0-.222167.08678-.354079.236052-.354079z" fill="url(#linearGradient52)"/>
        <path d="m65.378236 82.963365c0-.138854-.01041-.222167-.03645-.289858-.05901-.149269-.197867-.239524-.367964-.239524-.253409 0-.416563.19266-.416563.492933s.156211.482519.413092.482519c.208281 0 .352343-.118026.388792-.315894h-.145797c-.03992.119762-.121498.182247-.237788.182247-.09199 0-.170097-.04166-.218696-.118026-.03471-.05207-.04686-.104141-.0486-.194397zm-.666501-.118026c.01215-.168361.114555-.277709.260352-.277709.147533 0 .249938.114555.249938.277709z" fill="url(#linearGradient52)"/>
        <path d="m65.574368 82.460018v.909496h.145797v-.501611c0-.185718.0972-.307215.246467-.307215.114555 0 .187453.06943.187453.178775v.630051h.144062v-.687329c0-.151004-.11282-.248202-.288123-.248202-.135383 0-.222167.05207-.302009.178775v-.15274z" fill="url(#linearGradient52)"/>
      </g>
      <g fill="#c4c7ce" transform="matrix(1.8247035 0 0 1.8247035 -52.398467 -69.161151)">
        <path d="m61.363611 82.433983c-.25688 0-.40962.182246-.40962.487726 0 .307215.15274.487726.411356.487726.25688 0 .411356-.182246.411356-.480783 0-.315894-.149268-.494669-.413092-.494669zm.0017.133647c.163154 0 .260352.133648.260352.359286 0 .215224-.10067.348872-.260352.348872-.161418 0-.260352-.133648-.260352-.354079s.09893-.354079.260352-.354079z"/>
        <path d="m62.316498 82.899145.30548-.439127h-.163154l-.218696.329779-.218695-.329779h-.16489l.303744.44607-.321101.463426h.16489l.230845-.348871.227374.348871h.168361z"/>
        <path d="m63.37179 82.460018-.251673.708158-.232582-.708158h-.154475l.307215.912968-.05554.144061c-.0243.06422-.05554.08852-.116291.08852-.0243 0-.04513-.0035-.07637-.01041v.130176c.02951.01562.05901.02256.0972.02256.04686 0 .0972-.01562.135383-.04339.04513-.03298.07116-.07116.09893-.144062l.404413-1.100421z"/>
        <path d="m64.232687 82.460018v.131912c-.0729-.109348-.15274-.157947-.267295-.157947-.220431 0-.373171.20481-.373171.496404 0 .15274.03645.263824.114555.355815.06769.07984.154475.123233.248202.123233.109348 0 .187453-.0486.263823-.163154v.04686c0 .242995-.06769.33325-.248202.33325-.123233 0-.187453-.0486-.201339-.15274h-.147533c.01389.168361.147533.274238.345401.274238.133647 0 .244731-.04339.303744-.116291.06943-.08505.09546-.197867.09546-.411356v-.760228zm-.25341.107612c.15274 0 .239524.128441.239524.359286 0 .220431-.08852.348872-.239524.348872-.149268 0-.236052-.130176-.236052-.354079 0-.222167.08678-.354079.236052-.354079z"/>
        <path d="m65.378236 82.963365c0-.138854-.01041-.222167-.03645-.289858-.05901-.149269-.197867-.239524-.367964-.239524-.253409 0-.416563.19266-.416563.492933s.156211.482519.413092.482519c.208281 0 .352343-.118026.388792-.315894h-.145797c-.03992.119762-.121498.182247-.237788.182247-.09199 0-.170097-.04166-.218696-.118026-.03471-.05207-.04686-.104141-.0486-.194397zm-.666501-.118026c.01215-.168361.114555-.277709.260352-.277709.147533 0 .249938.114555.249938.277709z"/>
        <path d="m65.574368 82.460018v.909496h.145797v-.501611c0-.185718.0972-.307215.246467-.307215.114555 0 .187453.06943.187453.178775v.630051h.144062v-.687329c0-.151004-.11282-.248202-.288123-.248202-.135383 0-.222167.05207-.302009.178775v-.15274z"/>
      </g>
    </g>
    <path clip-path="url(#clipPath7399-6)" d="m161.71875 25.8125v79.375h104.375v-79.375zm4.1875 3.1875h96v73h-96z" fill="#002540" fill-rule="evenodd" filter="url(#filter5885)" transform="matrix(2.2235278 0 0 1.8990025 -213.50836 -183.5538)"/>
    <rect fill="#1c1e22" fill-rule="evenodd" height=".288576" opacity=".431818" stroke-width="2" width="80.026833" x="212.56818" y="-128.7713"/>
    <path d="m155.39254-128.48272v138.63082l52.37438-.41992 78.26475-138.24881z" fill="url(#linearGradient4957)" fill-rule="evenodd" opacity=".090909" stroke-width="2"/>
    <path d="m156.13052-127.6596v134.11172c42.66754-37.37779 66.9731-82.80172 78.01444-134.03798z" fill="url(#linearGradient1186)" stroke-width="2"/>
    <path d="m368.09993-28.07551v37.62592h-185.7732c57.71231-22.60078 119.63949-35.13611 185.7732-37.62592z" fill="url(#linearGradient1196)" stroke-width="2"/>
    <path d="m368.22593-117.43883v31.4903c-52.28978 34.38754-98.92823 69.60127-205.59531 96.03915 46.5465-50.81797 128.91998-88.09706 205.59531-127.52945z" fill="url(#linearGradient1206)" stroke-width="2"/>
    <rect fill="url(#linearGradient7455)" fill-rule="evenodd" height="13.951997" opacity=".5" stroke-width="2.22409" width="213.5126" x="155.4312" y="-3.801117"/>
    <rect fill="url(#linearGradient7434)" fill-rule="evenodd" height="2.223967" opacity=".5" stroke-width="2.22409" width="213.5126" x="155.4312" y="-3.801117"/>
    <rect fill="url(#linearGradient7446)" fill-rule="evenodd" height="6.671975" opacity=".409091" stroke-width="2.22409" transform="scale(1 -1)" width="213.51259" x="155.4312" y="3.801117"/>
  </g>
  <g transform="matrix(-1 0 0 -1 224.82956 219.10312)">
    <path d="m142.01562 60.472656c-6.88178 0-12.85882 1.383644-17.92968 3.789063l-52.357471 26.40825c-8.64385 4.359816-14.572266 13.316121-14.572266 23.658201-.000002 14.62568 11.855044 26.56725 26.480469 26.48243l58.613518-.33993c21.98279-.12749 39.76562-17.98537 39.76562-39.99804 0-22.091397-17.90861-40.000007-40-40.000007z" fill="none" stroke="url(#linearGradient34)" stroke-opacity=".35" stroke-width="2"/>
    <path d="m142.01562 60.472656c-6.88178 0-12.85882 1.383644-17.92968 3.789063l-52.357471 26.40825c-8.64385 4.359816-14.572266 13.316121-14.572266 23.658201-.000002 14.62568 11.855044 26.56725 26.480469 26.48243l58.613518-.33993c21.98279-.12749 39.76562-17.98537 39.76562-39.99804 0-22.091397-17.90861-40.000007-40-40.000007z" fill="none" filter="url(#filter8)" mask="url(#mask9)" stroke="url(#linearGradient32)" stroke-width="10"/>
  </g>
  <g transform="translate(282.22182 62.921363)">
    <path d="m-141.07534 34.520043c-5.5811.064206-10.86129 4.166566-10.96289 13.541016l-.73437 67.820311-3.23242 3.56055c-.84762-.79538-.78113-.64441-1.77539-1.63867-7.03876-7.03886-13.03414-11.00333-18.31836-12.88086-5.28421-1.87754-9.91496-1.5359-13.42969-.02149-7.02944 3.02885-9.5 10.03907-9.5 10.03907-.49789 1.32786-.0604 2.825 1.07422 3.67578 6.69116 5.01838 14.97442 20.5038 24.7168 35.20898s21.54665 29.17953 38.20312 31.40039c17.24363 2.29893 38.274043 2.06768 40.800781 2.0332.147267-.002.298829-.0029.460938-.0039 16.586206-.10575 30.170139-10.6161 32.238281-26.64453l-.005859.05078 4.662109-32.14063-.011719.06641c2.134772-12.80864-1.510741-21.8198-7.693359-25.72461-3.091309-1.95241-6.795442-2.50385-10.164063-1.48047-1.217766.36995-2.349357 1.00421-3.423828 1.75586-1.779574-4.908905-5.24613-8.79855-9.55664-10.73828-4.517479-2.032866-9.997285-1.663652-14.478511 1.394531-1.82479-4.448819-5.36168-7.983344-9.64649-9.697266-4.05031-1.620124-8.81655-1.279292-12.99219 1.011719l-3.19336 3.519531v-40.566406c0-8.500001-6.71186-13.613782-13.03711-13.541016z" filter="url(#filter68)" opacity=".6" stroke-width="4"/>
    <path d="m-134.61251 182.06023c16.8736 2.2496 37.8728 2.0372 40.3352 2.0036.1624-.002.322-.003.4844-.004 15.308-.0976 27.2216-9.3652 29.0916-23.858l4.6632-32.1412c4-24-14-30.000005-20-18 0-14.000005-16-22.000005-24-10 0-12.000005-16-20.000005-24-8.000005v-44c0-16.000001-23.78326-19.998827-24 0l-.85178 78.592905s-3.16702-2.6117-7.14822-6.5929c-27.272-27.272405-36-4-36-4 16 12 31.4256 62 61.4256 66z" fill="url(#radialGradient1)"/>
    <path d="m-141.70523 31.543597c-2.46732.136025-4.92494.911954-7.03896 2.401085-.9021.635448-2.19605 1.891091-2.86541 2.76844-1.81546 2.379574-2.99311 5.527062-3.32968 9.317141-.0977 1.099952-.10754 2.892459-.11952 3.996963l-.73592 67.849844c-.012 1.1045-.70982 1.42526-1.50903.66284-.3427-.32694-1.24377-1.23545-2.04054-2.00042-5.61205-5.38809-10.54135-8.77473-14.96051-10.7001-1.01243-.4411-2.70144-1.04585-3.7693-1.32697-3.57545-.94122-6.7898-.85088-9.49395-.098-1.06328.29606-2.71616 1.00813-3.66729 1.56835-3.59631 2.11824-5.71731 5.25014-6.77192 7.21226-.52243.972-1.15489 2.65112-1.54283 3.68532.13066.76013.74694 1.34303 1.51316 1.43121.10994.0825.9192.686 1.72452 1.4412 6.2091 5.82263 13.59105 19.20433 22.13853 32.29474.60325.92387 1.59133 2.41636 2.2093 3.33188 9.12113 13.51265 20.06601 26.40855 34.98164 29.33118 1.08378.21237 2.8608.44246 3.95576.58791.35481.44457 1.01992.47506 1.4139.0648 15.53011 1.59981 29.93827 1.72687 35.377429 1.71465 1.104328-.002 2.205885-.0159 2.46046-.0175h.002c16.905627-.9238 28.977339-10.31159 31.728773-24.50041.210241-1.08419.446701-2.86035.605337-3.95347l4.073967-28.07271c.158636-1.09312.439383-2.86218.575149-3.95829 1.309626-10.57325-1.476636-18.28699-6.285465-22.36828-.841458-.71416-2.363603-1.67934-3.376287-2.11764-2.006087-.86826-4.174327-1.19359-6.284889-.93717-1.095123.13306-2.822653.66622-3.794744 1.18696-.01.005-.01994.0107-.0299.0161-.971468.52389-1.971848.22061-2.434815-.78177-1.587215-3.436522-4.056679-6.247557-7.042577-8.066919-.942659-.57438-2.583242-1.314968-3.6428-1.623906-3.524156-1.027547-7.434335-.709143-10.908658 1.114624-.9773.513011-2.02505.203542-2.54553-.770042-1.61495-3.020849-4.06909-5.498942-6.98096-7.097853-.96762-.531321-2.6382-1.201942-3.71108-1.460609-3.03998-.732933-6.34522-.457996-9.42268.848567-1.0161.431396-1.78846-.003-1.78846-1.107546v-33.349509c0-1.104569.0125-2.898708-.10902-3.996011-.83895-7.576497-6.40194-12.828268-12.58313-14.192002-1.07782-.237797-1.97584-.300268-1.97587-.300268zm3.45993 6.378244c3.31374.982792 6.34358 3.747551 7.05113 8.146846.17521 1.089404.15511 2.887291.15511 3.99186v65.570033c0 3.31371.58622 3.37718 1.1601.11393 1.04009-5.91419 1.97814-16.554408 3.44101-20.239117.40634-1.023494 1.38182-2.540307 2.11667-3.363802 2.52696-2.831768 5.41007-3.489155 8.25989-2.883831 1.07914.229215 2.75383.90917 3.68867 1.49475 2.53992 1.591001 4.557 4.22756 5.15376 7.319546.20897 1.082719.16464 2.884744.0708 3.985074-.29232 3.42644-1.96931 12.33483-2.71841 17.23555-.50066 3.2754.16411 3.45438 1.32789.35199 1.68825-4.50054 4.21863-12.93862 5.97484-16.20362.52275-.97185 1.50791-2.47574 2.24182-3.30011 2.515898-2.825995 5.351212-3.458345 8.168175-2.756194 1.07033.266788 2.714422 1.019727 3.622651 1.645736 2.681903 1.848538 4.881933 5.018698 5.385694 9.034578.137368 1.09506.09065 2.89166-.000063 3.9923-.24152 2.93049-1.910262 10.53187-2.49746 14.19368-.52462 3.27158.26433 3.50997 1.688828.51808 1.711077-3.59381 4.541989-11.21461 5.70252-13.57953.486458-.9913 1.289531-2.60293 1.968421-3.47232.490125-.62765 1.012331-1.1295 1.555062-1.5208.89189-.64305 2.658247-1.19338 3.755636-1.13489.419784.0224.842884.0922 1.26718.21206 1.059316.29921 2.589859 1.29921 3.355818 2.09142 2.571816 2.65999 4.625992 7.86851 3.634748 16.22364-.13012 1.09678-.284943 1.99278-.287097 2.00896l-4.384679 30.21799c-.116016.66458-.212457 1.33242-.289196 2.00267-2.634678 13.26194-11.765318 20.40923-24.138109 21.17458-1.102326.0682-2.223349.0684-2.500563.0716h-.002-.002c-7.833936.039-24.068316-.0691-37.914826-1.72777-1.0964-.13134-1.99234-.25164-2.00311-.25274-13.9956-2.93636-23.9821-14.11463-32.72482-27.01805-.61957-.91443-1.60826-2.4077-2.20945-3.33433-7.77754-11.98766-14.26438-24.48279-21.63565-31.93786-.77543-.78424-1.01536-2.17626-.33677-3.04664.58905-.75554 1.33875-1.52629 2.31554-2.19683.9091-.62408 2.5726-1.34347 3.65279-1.56476 1.40126-.28705 3.0541-.29392 5.08628.19719 1.07318.25934 2.76198.87031 3.76587 1.33019 3.46463 1.58714 7.71106 4.46829 12.73274 9.2702.79831.76336 2.06174 2.03287 2.85513 2.80136 1.79474 1.73841 3.35185 3.14443 4.42045 4.0832.82872.72803 2.20629 1.87071 3.05855 2.57336l1.75353 1.44571c.62014.51128 1.55613.0761 1.56484-.72762l.87656-80.865467c.012-1.104505.0169-2.89821.13764-3.995706.23676-2.151413.81417-3.779213 1.56984-5.009201.5767-.938675 1.88177-2.218568 2.8549-2.733291.7152-.378289 1.48634-.625112 2.29669-.747038 1.0898-.163974 1.99468-.05763 1.99474-.05764z" fill="url(#linearGradient55)" filter="url(#filter51)" mask="url(#mask54)"/>
    <path d="m-141.70523 31.543597c-2.46732.136025-4.92494.911954-7.03896 2.401085-.9021.635448-2.19605 1.891091-2.86541 2.76844-1.81546 2.379574-2.99311 5.527062-3.32968 9.317141-.0977 1.099952-.10754 2.892459-.11952 3.996963l-.73592 67.849844c-.012 1.1045-.70982 1.42526-1.50903.66284-.3427-.32694-1.24377-1.23545-2.04054-2.00042-5.61205-5.38809-10.54135-8.77473-14.96051-10.7001-1.01243-.4411-2.70144-1.04585-3.7693-1.32697-3.57545-.94122-6.7898-.85088-9.49395-.098-1.06328.29606-2.71616 1.00813-3.66729 1.56835-3.59631 2.11824-5.71731 5.25014-6.77192 7.21226-.52243.972-1.15489 2.65112-1.54283 3.68532.13066.76013.74694 1.34303 1.51316 1.43121.10994.0825.9192.686 1.72452 1.4412 6.2091 5.82263 13.59105 19.20433 22.13853 32.29474.60325.92387 1.59133 2.41636 2.2093 3.33188 9.12113 13.51265 20.06601 26.40855 34.98164 29.33118 1.08378.21237 2.8608.44246 3.95576.58791.35481.44457 1.01992.47506 1.4139.0648 15.53011 1.59981 29.93827 1.72687 35.377429 1.71465 1.104328-.002 2.205885-.0159 2.46046-.0175h.002c16.905627-.9238 28.977339-10.31159 31.728773-24.50041.210241-1.08419.446701-2.86035.605337-3.95347l4.073967-28.07271c.158636-1.09312.439383-2.86218.575149-3.95829 1.309626-10.57325-1.476636-18.28699-6.285465-22.36828-.841458-.71416-2.363603-1.67934-3.376287-2.11764-2.006087-.86826-4.174327-1.19359-6.284889-.93717-1.095123.13306-2.822653.66622-3.794744 1.18696-.01.005-.01994.0107-.0299.0161-.971468.52389-1.971848.22061-2.434815-.78177-1.587215-3.436522-4.056679-6.247557-7.042577-8.066919-.942659-.57438-2.583242-1.314968-3.6428-1.623906-3.524156-1.027547-7.434335-.709143-10.908658 1.114624-.9773.513011-2.02505.203542-2.54553-.770042-1.61495-3.020849-4.06909-5.498942-6.98096-7.097853-.96762-.531321-2.6382-1.201942-3.71108-1.460609-3.03998-.732933-6.34522-.457996-9.42268.848567-1.0161.431396-1.78846-.003-1.78846-1.107546v-33.349509c0-1.104569.0125-2.898708-.10902-3.996011-.83895-7.576497-6.40194-12.828268-12.58313-14.192002-1.07782-.237797-1.97584-.300268-1.97587-.300268zm3.45993 6.378244c3.31374.982792 6.34358 3.747551 7.05113 8.146846.17521 1.089404.15511 2.887291.15511 3.99186v65.570033c0 3.31371.58622 3.37718 1.1601.11393 1.04009-5.91419 1.97814-16.554408 3.44101-20.239117.40634-1.023494 1.38182-2.540307 2.11667-3.363802 2.52696-2.831768 5.41007-3.489155 8.25989-2.883831 1.07914.229215 2.75383.90917 3.68867 1.49475 2.53992 1.591001 4.557 4.22756 5.15376 7.319546.20897 1.082719.16464 2.884744.0708 3.985074-.29232 3.42644-1.96931 12.33483-2.71841 17.23555-.50066 3.2754.16411 3.45438 1.32789.35199 1.68825-4.50054 4.21863-12.93862 5.97484-16.20362.52275-.97185 1.50791-2.47574 2.24182-3.30011 2.515898-2.825995 5.351212-3.458345 8.168175-2.756194 1.07033.266788 2.714422 1.019727 3.622651 1.645736 2.681903 1.848538 4.881933 5.018698 5.385694 9.034578.137368 1.09506.09065 2.89166-.000063 3.9923-.24152 2.93049-1.910262 10.53187-2.49746 14.19368-.52462 3.27158.26433 3.50997 1.688828.51808 1.711077-3.59381 4.541989-11.21461 5.70252-13.57953.486458-.9913 1.289531-2.60293 1.968421-3.47232.490125-.62765 1.012331-1.1295 1.555062-1.5208.89189-.64305 2.658247-1.19338 3.755636-1.13489.419784.0224.842884.0922 1.26718.21206 1.059316.29921 2.589859 1.29921 3.355818 2.09142 2.571816 2.65999 4.625992 7.86851 3.634748 16.22364-.13012 1.09678-.284943 1.99278-.287097 2.00896l-4.384679 30.21799c-.116016.66458-.212457 1.33242-.289196 2.00267-2.634678 13.26194-11.765318 20.40923-24.138109 21.17458-1.102326.0682-2.223349.0684-2.500563.0716h-.002-.002c-7.833936.039-24.068316-.0691-37.914826-1.72777-1.0964-.13134-1.99234-.25164-2.00311-.25274-13.9956-2.93636-23.9821-14.11463-32.72482-27.01805-.61957-.91443-1.60826-2.4077-2.20945-3.33433-7.77754-11.98766-14.26438-24.48279-21.63565-31.93786-.77543-.78424-1.01536-2.17626-.33677-3.04664.58905-.75554 1.33875-1.52629 2.31554-2.19683.9091-.62408 2.5726-1.34347 3.65279-1.56476 1.40126-.28705 3.0541-.29392 5.08628.19719 1.07318.25934 2.76198.87031 3.76587 1.33019 3.46463 1.58714 7.71106 4.46829 12.73274 9.2702.79831.76336 2.06174 2.03287 2.85513 2.80136 1.79474 1.73841 3.35185 3.14443 4.42045 4.0832.82872.72803 2.20629 1.87071 3.05855 2.57336l1.75353 1.44571c.62014.51128 1.55613.0761 1.56484-.72762l.87656-80.865467c.012-1.104505.0169-2.89821.13764-3.995706.23676-2.151413.81417-3.779213 1.56984-5.009201.5767-.938675 1.88177-2.218568 2.8549-2.733291.7152-.378289 1.48634-.625112 2.29669-.747038 1.0898-.163974 1.99468-.05763 1.99474-.05764z" fill="url(#linearGradient51)"/>
  </g>
</svg>
