<svg height="256" width="256" xmlns="http://www.w3.org/2000/svg" xmlns:xlink="http://www.w3.org/1999/xlink">
  <defs>
    <linearGradient id="linearGradient7912" gradientTransform="matrix(.242914 0 0 .351321 -7.762237 -169.08361)" gradientUnits="userSpaceOnUse" x1="399.77466" x2="399.77466" y1="727.07941" y2="480.60214">
      <stop offset="0" stop-color="#cbcbcd"/>
      <stop offset=".5" stop-color="#e0e0e2"/>
      <stop offset="1" stop-color="#f2f2f2"/>
    </linearGradient>
    <linearGradient id="linearGradient12912" gradientTransform="matrix(2.371406 0 0 2.3714056 -2274.542 1186.943)" gradientUnits="userSpaceOnUse" x1="1055.3002" x2="1055.3002" y1="-473.54486" y2="-483.66544">
      <stop offset="0" stop-color="#2bc50f"/>
      <stop offset="1" stop-color="#b9ffb4"/>
    </linearGradient>
    <filter id="filter4400" height="1.055767" width="1.047076" x="-.023538" y="-.027883">
      <feGaussianBlur stdDeviation="1.177891"/>
    </filter>
    <linearGradient id="linearGradient2194" gradientTransform="matrix(2.371406 0 0 2.3714056 -2306.542 1186.943)" gradientUnits="userSpaceOnUse" x1="1055.3002" x2="1055.3002" y1="-473.54486" y2="-483.66544">
      <stop offset="0" stop-color="#e3ba0e"/>
      <stop offset="1" stop-color="#fff3ca"/>
    </linearGradient>
    <linearGradient id="linearGradient2213" gradientTransform="matrix(2.371406 0 0 2.3714056 -2338.542 1186.943)" gradientUnits="userSpaceOnUse" x1="1055.3002" x2="1055.3002" y1="-473.54486" y2="-483.66544">
      <stop offset="0" stop-color="#df0000"/>
      <stop offset="1" stop-color="#ffc7c7"/>
    </linearGradient>
    <linearGradient id="linearGradient2219" gradientTransform="matrix(2.371406 0 0 2.3714056 -2466.542 1186.943)" gradientUnits="userSpaceOnUse" x1="1055.3002" x2="1055.3002" y1="-473.54486" y2="-481.76657">
      <stop offset="0" stop-color="#656565"/>
      <stop offset="1" stop-color="#fff"/>
    </linearGradient>
    <filter id="filter2275" color-interpolation-filters="sRGB" height="1.105069" width="1.088372" x="-.044186" y="-.052535">
      <feGaussianBlur stdDeviation="2.160153"/>
    </filter>
    <filter id="filter2281" color-interpolation-filters="sRGB" height="1.096" width="1.096" x="-.048" y="-.048">
      <feGaussianBlur stdDeviation=".23999996"/>
    </filter>
    <clipPath id="clipPath3496">
      <rect height="22.63365" ry="1.171887" width="13.277639" x="5.309958" y="1.231668"/>
    </clipPath>
    <filter id="filter3484" height="1.691419" width="1.634805" x="-.31086" y="-.344786">
      <feGaussianBlur stdDeviation=".97202214"/>
    </filter>
    <radialGradient id="radialGradient5470" cx="10.857204" cy="16.091434" gradientTransform="matrix(1.1106976 -.4036489 .6516398 1.7930801 -9.212751 -4.797263)" gradientUnits="userSpaceOnUse" r="5.32381" spreadMethod="reflect" xlink:href="#linearGradient2911"/>
    <linearGradient id="linearGradient2911">
      <stop offset="0" stop-color="#fff"/>
      <stop offset="1" stop-color="#fff" stop-opacity="0"/>
    </linearGradient>
    <linearGradient id="linearGradient5430" gradientUnits="userSpaceOnUse" x1="9.154032" x2="7.677631" xlink:href="#linearGradient2911" y1="3.24891" y2="19.013866"/>
    <radialGradient id="radialGradient5332" cx="10.275363" cy="14.151872" gradientUnits="userSpaceOnUse" r="2.60757" xlink:href="#linearGradient2911"/>
    <linearGradient id="linearGradient5729" gradientTransform="matrix(3.4777648 0 0 3.3888712 67.201073 71.742123)" gradientUnits="userSpaceOnUse" x1="18.180271" x2="15.672464" xlink:href="#linearGradient2911" y1="14.206214" y2="19.299807"/>
  </defs>
  <path d="m87.62845 247.5457c-1.303794 0-2.6666 1.0425-2.6666 2.6666v93.3517c0 1.62218 1.375348 2.6666 2.6666 2.6666h111.9972c1.478 0 2.6666-1.2163 2.6666-2.6666v-93.3517c0-1.49059-1.20393-2.6666-2.6666-2.6666zm1.96875 2.67187 108.0597.0336c1.09166 0 1.96875 1.02406 1.96875 2.29688l.026 88.71912c0 1.2728-.87709 2.29687-1.96875 2.29687l-108.0857.0416c-1.091657 0-1.96875-1.02407-1.96875-2.29687v-88.79428c0-1.27282.877093-2.29688 1.96875-2.29688z" fill="#fff" filter="url(#filter2275)" transform="matrix(2 0 0 2 -159.2541 -465.77629)"/>
  <rect filter="url(#filter4400)" height="101.384" opacity=".4" rx="3.595974" transform="matrix(2 0 0 2.0071684 -159.2541 -460.29154)" width="120.1011" x="83.54525" y="242.45522"/>
  <rect fill="url(#linearGradient7912)" height="197.3284" rx="5.385861" width="234.6608" x="10.669606" y="29.315092"/>
  <use transform="translate(32)" xlink:href="#use2287"/>
  <ellipse cx="228.00325" cy="51.975952" fill="url(#linearGradient12912)" rx="11.999999" ry="11.999997"/>
  <use id="use2287" transform="translate(32)" xlink:href="#use2285"/>
  <ellipse cx="196.00325" cy="51.975952" fill="url(#linearGradient2194)" rx="11.999999" ry="11.999997"/>
  <use id="use2285" transform="translate(128)" xlink:href="#ellipse2279"/>
  <ellipse cx="164.00327" cy="51.975952" fill="url(#linearGradient2213)" rx="11.999999" ry="11.999997"/>
  <ellipse id="ellipse2279" cx="97.628677" cy="258.87613" filter="url(#filter2281)" rx="6" ry="5.999999" transform="matrix(2 0 0 2 -159.2541 -465.77629)"/>
  <ellipse cx="36.003246" cy="51.975952" fill="url(#linearGradient2219)" rx="11.999999" ry="11.999997"/>
  <path d="m14.669599 87.98031h226.660801v134.6632h-226.660801z" fill="#fff" opacity=".6"/>
  <path d="m16.002799 29.31511c-2.607588 0-5.3332 2.085-5.3332 5.3332v186.7034c0 3.24436 2.750696 5.3332 5.3332 5.3332h223.994401c2.956 0 5.3332-2.4326 5.3332-5.3332v-186.7034c0-2.98118-2.40786-5.3332-5.3332-5.3332zm3.9375 5.34374 216.119401.0672c2.18332 0 3.9375 2.04812 3.9375 4.59376l.052 177.43824c0 2.5456-1.75418 4.59374-3.9375 4.59374l-216.171401.0832c-2.183314 0-3.9375-2.04814-3.9375-4.59374v-177.58856c0-2.54564 1.754186-4.59376 3.9375-4.59376z" fill="#fff"/>
  <g transform="translate(68.003253 26.082619)">
    <g transform="matrix(2.7828328 .69961716 -1.079342 1.8037994 109.08495 60.160978)">
      <path clip-path="url(#clipPath3496)" d="m10.3366 13.200539-4.3366 5.276474 3.9136329.405834 2.1376721 2.71884 2.17213-.67208.03816-4.26501 2.386024-1.837274z" fill-rule="evenodd" filter="url(#filter3484)" opacity=".725979" stroke="#000" transform="matrix(1.0551164 .00539891 -.00539891 1.0551164 -.496887 -2.074123)"/>
      <path d="m5.9993581 1.0078665.030014 16.1541545 3.9334799.451805 2.908213 2.112222.94824-.354911.678912-3.627069 2.500151-3.271242z" fill="#000100" fill-rule="evenodd" stroke="#000100" stroke-linejoin="round" stroke-width="3.73374"/>
      <path d="m5.9988381 1.0786288-.09398 15.9258662 4.0425806.358431 2.8597063 2.485045 1.089168-.485511.519387-3.558479 2.573346-3.273387z" fill="#d3d7cf" fill-rule="evenodd"/>
      <path d="m5.9983584 1.1723776-.0935 15.8321174 4.0737621.344501 2.8454205 2.457434 1.168235-.388998.418708-3.674306 2.557884-3.173736z" fill="url(#radialGradient5470)" fill-rule="evenodd"/>
      <path d="m6.7153305 2.9231325.01726 13.1471245 3.1977189.292396 3.0595696 2.530815.795495-3.622859 2.05043-2.739915z" fill="none" stroke="url(#linearGradient5430)" stroke-width="1.72566"/>
    </g>
    <g transform="matrix(2.7828328 -.69961716 -1.079342 -1.8037994 109.08495 195.83902)">
      <path clip-path="url(#clipPath3496)" d="m10.3366 13.200539-4.3366 5.276474 3.9136329.405834 2.1376721 2.71884 2.17213-.67208.03816-4.26501 2.386024-1.837274z" fill-rule="evenodd" filter="url(#filter3484)" opacity=".725979" stroke="#000" transform="matrix(1.0551164 .00539891 -.00539891 1.0551164 -.496887 -2.074123)"/>
      <path d="m5.9993581 1.0078665.030014 16.1541545 3.9334799.451805 2.908213 2.112222.94824-.354911.678912-3.627069 2.500151-3.271242z" fill="#000100" fill-rule="evenodd" stroke="#000100" stroke-linejoin="round" stroke-width="3.73374"/>
      <path d="m5.9988381 1.0786288-.09398 15.9258662 4.0425806.358431 2.8597063 2.485045 1.089168-.485511.519387-3.558479 2.573346-3.273387z" fill="#d3d7cf" fill-rule="evenodd"/>
      <path d="m5.9983584 1.1723776-.0935 15.8321174 4.0737621.344501 2.8454205 2.457434 1.168235-.388998.418708-3.674306 2.557884-3.173736z" fill="url(#radialGradient5470)" fill-rule="evenodd"/>
      <path d="m6.7153305 2.9231325.01726 13.1471245 3.1977189.292396 3.0595696 2.530815.795495-3.622859 2.05043-2.739915z" fill="none" stroke="url(#linearGradient5430)" stroke-width="1.72566"/>
    </g>
    <g transform="matrix(2.956312 0 0 2.956312 91.793913 94.967763)">
      <circle cx="11.660776" cy="11.339223" fill="#000100" r="2.507431" stroke="#000100" stroke-linecap="round" stroke-linejoin="round" stroke-width="3.18092"/>
      <circle cx="11.660776" cy="11.339222" fill="#d3d7cf" r="2.558204"/>
      <circle cx="11.389421" cy="12.480784" fill="url(#radialGradient5332)" r="2.174049" transform="matrix(1.1716595 0 0 1.1716595 -1.643933 -3.303914)"/>
    </g>
    <ellipse cx="126.3744" cy="128.5159" rx="5.379393" ry="5.241893" style="opacity:.822064;fill:none;stroke-width:4.24274;stroke-linecap:round;stroke-linejoin:round;stroke:url(#linearGradient5729)"/>
  </g>
</svg>
