<svg height="256" width="256" xmlns="http://www.w3.org/2000/svg" xmlns:xlink="http://www.w3.org/1999/xlink">
  <defs>
    <linearGradient id="linearGradient1248">
      <stop offset="0" stop-color="#fff"/>
      <stop offset="1" stop-color="#fff" stop-opacity="0"/>
    </linearGradient>
    <linearGradient id="linearGradient4972">
      <stop offset="0"/>
      <stop offset="1" stop-opacity="0"/>
    </linearGradient>
    <filter id="filter21488" color-interpolation-filters="sRGB" height="1.107544" width="1.107544" x="-.053772" y="-.053772">
      <feGaussianBlur stdDeviation="1.1855987"/>
    </filter>
    <radialGradient id="radialGradient6304" cx="49.967976" cy="51.476395" gradientTransform="matrix(1.7312234 -.16899547 .07155189 .73299184 -39.15004 22.375002)" gradientUnits="userSpaceOnUse" r="36.794067">
      <stop offset="0" stop-color="#dfdfdf"/>
      <stop offset="1" stop-color="#f4f4f4"/>
    </radialGradient>
    <linearGradient id="linearGradient21172" gradientUnits="userSpaceOnUse" x1="57.604606" x2="64.01015" y1="35.762402" y2="80.352784">
      <stop offset="0" stop-color="#adadad"/>
      <stop offset="1" stop-color="#404040"/>
    </linearGradient>
    <linearGradient id="linearGradient2835" gradientUnits="userSpaceOnUse" x1="35.063762" x2="35.176879" y1="44.72904" y2="60.975501">
      <stop offset="0" stop-color="#fff" stop-opacity="0"/>
      <stop offset=".5" stop-color="#fff"/>
      <stop offset="1" stop-color="#fff" stop-opacity="0"/>
    </linearGradient>
    <linearGradient id="linearGradient4645" gradientUnits="userSpaceOnUse" x1="51.419468" x2="51.429958" xlink:href="#linearGradient1248" y1="78.164722" y2="72.021762"/>
    <filter id="filter4799" color-interpolation-filters="sRGB" height="1.363274" width="1.099662" x="-.049831" y="-.181637">
      <feGaussianBlur stdDeviation=".83572366"/>
    </filter>
    <linearGradient id="linearGradient3657" gradientUnits="userSpaceOnUse" x1="4.503002" x2="-21.504536" xlink:href="#linearGradient1248" y1="162.71764" y2="174.66975"/>
    <filter id="filter3777" color-interpolation-filters="sRGB" height="1.285438" width="1.163069" x="-.091779" y="-.156455">
      <feGaussianBlur stdDeviation=".63802753"/>
    </filter>
    <linearGradient id="linearGradient3764" gradientTransform="matrix(.01000972 -2.9999833 2.9999833 .01000972 -363.78043 647.61994)" gradientUnits="userSpaceOnUse" x1="-5.085646" x2="-9.879584" y1="169.53192" y2="179.65425">
      <stop offset="0" stop-color="#5a5a5a"/>
      <stop offset="1" stop-color="#dbdbdb" stop-opacity="0"/>
    </linearGradient>
    <filter id="filter3819" color-interpolation-filters="sRGB" height="1.141478" width="1.159615" x="-.079807" y="-.070739">
      <feGaussianBlur stdDeviation="1.9827824"/>
    </filter>
    <linearGradient id="linearGradient4965" gradientUnits="userSpaceOnUse" x1="158.2021" x2="171.3475" xlink:href="#linearGradient4972" y1="673.16083" y2="671.229"/>
    <linearGradient id="linearGradient4974" gradientUnits="userSpaceOnUse" x1="160.19226" x2="171.69371" xlink:href="#linearGradient4972" y1="676.66345" y2="673.74506"/>
    <linearGradient id="linearGradient1059" gradientTransform="matrix(.18371628 0 0 .19396019 61.86214 23.930774)" gradientUnits="userSpaceOnUse" x1="378.51639" x2="376.69135" y1="313.08685" y2="503.55664">
      <stop offset="0" stop-color="#fff" stop-opacity="0"/>
      <stop offset="1" stop-color="#fff" stop-opacity=".6"/>
    </linearGradient>
    <radialGradient id="radialGradient1094" cx="128.33701" cy="506.66724" gradientTransform="matrix(1.6542637 -.03183439 .02261874 1.1753757 -95.359017 -534.99714)" gradientUnits="userSpaceOnUse" r="47.268921">
      <stop offset="0" stop-color="#fff" stop-opacity="0"/>
      <stop offset=".5" stop-color="#fff" stop-opacity="0"/>
      <stop offset="1" stop-color="#fff" stop-opacity=".447194"/>
    </radialGradient>
    <radialGradient id="radialGradient1357" cx="357.7637" cy="238.70393" gradientTransform="matrix(.33846215 0 0 .22370503 239.84594 215.56793)" gradientUnits="userSpaceOnUse" r="605.68099">
      <stop offset="0" stop-color="#63c600"/>
      <stop offset="1" stop-color="#3d7b00"/>
    </radialGradient>
    <radialGradient id="radialGradient1365" cx="357.7637" cy="238.70393" gradientTransform="matrix(.33846215 0 0 .22370503 239.84594 215.56793)" gradientUnits="userSpaceOnUse" r="605.68099">
      <stop offset="0" stop-color="#57b200"/>
      <stop offset="1" stop-color="#58b100"/>
    </radialGradient>
    <radialGradient id="radialGradient7859" cx="483.02173" cy="355.09747" gradientTransform="matrix(.338462 0 0 .40958285 358.203 381.30816)" gradientUnits="userSpaceOnUse" r="477.62009">
      <stop offset="0" stop-color="#0a4c9d"/>
      <stop offset="1" stop-color="#003a81"/>
    </radialGradient>
    <radialGradient id="radialGradient13549" cx="226.97821" cy="355.09747" gradientTransform="matrix(.338462 0 0 .40958285 121.489 381.30816)" gradientUnits="userSpaceOnUse" r="477.62008">
      <stop offset="0" stop-color="#ba0000"/>
      <stop offset="1" stop-color="#750000"/>
    </radialGradient>
    <radialGradient id="radialGradient17086" cx="226.97821" cy="355.09747" gradientTransform="matrix(.338462 0 0 .40958285 121.489 381.30816)" gradientUnits="userSpaceOnUse" r="477.62008">
      <stop offset="0" stop-color="#ff2121"/>
      <stop offset="1" stop-color="#940000"/>
    </radialGradient>
    <radialGradient id="radialGradient17091" cx="351.86392" cy="270.92249" gradientTransform="matrix(.33846205 0 0 .22370502 239.84598 215.56793)" gradientUnits="userSpaceOnUse" r="605.68099">
      <stop offset="0" stop-color="#7aef00"/>
      <stop offset="1" stop-color="#59b400"/>
    </radialGradient>
    <radialGradient id="radialGradient17093" cx="351.86392" cy="270.92249" gradientTransform="matrix(.33846205 0 0 .22370502 239.84598 215.56793)" gradientUnits="userSpaceOnUse" r="605.68099">
      <stop offset="0" stop-color="#9fff44"/>
      <stop offset="1" stop-color="#70e300"/>
    </radialGradient>
    <radialGradient id="radialGradient17096" cx="483.02173" cy="355.09747" gradientTransform="matrix(.338462 0 0 .40958285 358.203 381.30816)" gradientUnits="userSpaceOnUse" r="477.62009">
      <stop offset="0" stop-color="#2959ff"/>
      <stop offset="1" stop-color="#003dd2"/>
    </radialGradient>
    <radialGradient id="radialGradient1106" cx="363.79758" cy="372.18744" gradientTransform="matrix(1.5786279 -.02734667 .01968999 1.0197429 -217.8318 -66.874021)" gradientUnits="userSpaceOnUse" r="205">
      <stop offset="0" stop-color="#fff" stop-opacity="0"/>
      <stop offset=".790739" stop-color="#fff" stop-opacity="0"/>
      <stop offset="1" stop-color="#fff"/>
    </radialGradient>
    <linearGradient id="linearGradient1242" gradientUnits="userSpaceOnUse" x1="140.8257" x2="142.58864" xlink:href="#linearGradient1248" y1="316.68872" y2="370.95685"/>
    <linearGradient id="linearGradient1252" gradientUnits="userSpaceOnUse" x1="593.89758" x2="592.91425" xlink:href="#linearGradient1248" y1="321.72864" y2="366.67294"/>
    <radialGradient id="radialGradient394" cx="483.02173" cy="355.09747" gradientTransform="matrix(.338462 0 0 .40958285 358.203 381.30816)" gradientUnits="userSpaceOnUse" r="477.62009">
      <stop offset="0" stop-color="#90c2ff"/>
      <stop offset="1" stop-color="#63a5f8"/>
    </radialGradient>
    <radialGradient id="radialGradient396" cx="226.97821" cy="355.09747" gradientTransform="matrix(.338462 0 0 .40958285 121.489 381.30816)" gradientUnits="userSpaceOnUse" r="477.62008">
      <stop offset="0" stop-color="#ff7f7f"/>
      <stop offset="1" stop-color="#ff1515"/>
    </radialGradient>
  </defs>
  <g transform="translate(0 -452.36218)">
    <path d="m179.72909 682.67454c-6.1412 2.89036-34.66841 19.77532-42.91372-4.31953-2.76801-8.0888-4.27187-14.64783-4.33992-43.90257l-9.11729-.15366c.0424 18.90537-.91103 33.62371 3.39907 47.583 9.33493 30.23337 45.23487 18.33633 56.16629 11.79425z" fill="url(#linearGradient4974)" filter="url(#filter3819)" opacity=".6"/>
    <path d="m179.72909 682.67454c-6.1412 2.89036-34.66841 19.77532-42.91372-4.31953-2.76801-8.0888-4.27187-14.64783-4.33992-43.90257l-9.11729-.15366c.0424 18.90537-.91103 33.62371 3.39907 47.583 9.33493 30.23337 45.23487 18.33633 56.16629 11.79425z" fill="url(#linearGradient4965)" stroke="url(#linearGradient3764)" stroke-width="1.5"/>
    <path d="m4.80508 163.11964c-16.963646-1.26844-23.968973 4.7424-21.531673 12.82203" fill="none" filter="url(#filter3777)" stroke="url(#linearGradient3657)" transform="matrix(.01000972 -2.9999833 2.9999833 .01000972 -363.78043 647.61994)"/>
  </g>
  <g transform="matrix(3.4015747 0 0 3.4015747 -47.972784 -75.883726)">
    <rect filter="url(#filter21488)" height="52.916668" opacity=".3" ry="21.166666" width="52.916668" x="25.274406" y="27.600075"/>
    <rect fill="url(#radialGradient6304)" height="52.916668" ry="21.166666" stroke="url(#linearGradient21172)" stroke-linecap="round" stroke-linejoin="bevel" width="52.916668" x="25.274406" y="27.600075"/>
    <path d="m26.377296 29.758907v45.488179zm50.800001 0v45.488179z" fill="none" stroke="url(#linearGradient2835)" stroke-width=".799999"/>
    <path d="m71.593477 67.768577v3.042566c0 4.432-3.568 8-8 8h-24.250634c-4.432 0-7.240582-3.633547-8-8v-3.042566z" fill="url(#linearGradient4645)" filter="url(#filter4799)"/>
  </g>
  <g transform="matrix(.18371628 0 0 .19396019 61.86214 23.930774)">
    <path d="m544.3571 517.36266a66.00009 66.00009 0 0 1 -66.00009 66.00009 66.00009 66.00009 0 0 1 -66.00009-66.00009 66.00009 66.00009 0 0 1 66.00009-66.00009 66.00009 66.00009 0 0 1 66.00009 66.00009zm19.79915-186.23766c-4.08938 45.07219-22.77114 85.92859-51.28125 117.8125 24.98433 12.62895 42.125 38.52971 42.125 68.4375 0 42.32886-34.32739 76.625-76.65625 76.625-15.48707 0-29.88425-4.60116-41.9375-12.5-13.84908 42.09331-40.94001 78.18089-76.375 103.28125 33.42699 23.6674 74.23871 37.59375 118.3125 37.59375 113.21838 0 205-91.78162 205-205 0-82.58153-48.82525-153.77622-119.1875-186.25z" fill="url(#radialGradient7859)" stroke="url(#radialGradient394)" stroke-width="3.17849"/>
    <path d="m426.0001 312.36266a66.00009 66.00009 0 0 1 -66.00009 66.00009 66.00009 66.00009 0 0 1 -66.00009-66.00009 66.00009 66.00009 0 0 1 66.00009-66.00009 66.00009 66.00009 0 0 1 66.00009 66.00009zm-66.0001-204.98766c-113.21838 0-205 91.78162-205 205 0 6.33048.31341 12.56586.875 18.75 26.096-12.03884 55.15598-18.75 85.78125-18.75 14.34093 0 28.33619 1.48011 41.84375 4.28125-.0784-1.42068-.15625-2.84097-.15625-4.28125 0-42.32886 34.32739-76.65625 76.65625-76.65625s76.65625 34.32739 76.65625 76.65625c0 1.44028-.0778 2.86057-.15625 4.28125 13.50756-2.80114 27.50282-4.28125 41.84375-4.28125 30.62527 0 59.68525 6.71116 85.78125 18.75.56159-6.18414.875-12.41952.875-18.75 0-113.21838-91.78162-205-205-205z" fill="url(#radialGradient1357)" stroke="url(#radialGradient1365)" stroke-width="3.17849"/>
    <path d="m307.6431 517.36266a66.00009 66.00009 0 0 1 -66.00009 66.00009 66.00009 66.00009 0 0 1 -66.00009-66.00009 66.00009 66.00009 0 0 1 66.00009-66.00009 66.00009 66.00009 0 0 1 66.00009 66.00009zm-151.79935-186.23766c-70.362253 32.47378-119.187499 103.66847-119.187499 186.25 0 113.21838 91.781619 205 204.999999 205 44.07379 0 84.88551-13.92635 118.3125-37.59375-35.43499-25.10036-62.52592-61.18794-76.375-103.28125-12.05325 7.89884-26.45043 12.5-41.9375 12.5-42.32886 0-76.65625-34.29614-76.65625-76.625 0-29.90779 17.14067-55.80855 42.125-68.4375-28.51011-31.88391-47.19187-72.74031-51.28125-117.8125z" fill="url(#radialGradient13549)" stroke="url(#radialGradient396)" stroke-width="3.17849"/>
    <path d="m582.54102 372.34961c-6.8827 25.53459-18.20418 49.8691-33.3379 71.55859 13.98619 13.46939 24.04716 30.9875 28.48239 49.90216 5.20764 21.90141 2.94386 45.52166-6.4744 65.98188-8.81872 19.34965-23.86787 35.77772-42.35384 46.2835-16.91742 9.66914-36.65261 14.30035-56.10522 13.19697-7.63274-.4104-15.21405-1.69624-22.56455-3.79029-11.41855 24.26995-27.1386 46.49825-46.1582 65.40625 21.28297 9.69018 44.47735 15.1481 67.84999 15.94254 26.90022.9715 54.02745-4.10992 78.66386-14.98604 27.68644-12.1523 52.17839-31.45277 70.52623-55.48081 17.57675-22.94171 29.50719-50.19125 34.30511-78.69914.0762-.43094.13003-.80425.24261-1.47846 1.56251-9.69351 2.32603-19.51481 2.29696-29.33324.003-.019-.008-1.08224-.01-1.49024-.0426-3.79229-.20835-7.58258-.48047-11.36523-.005.009-.09-1.13512-.12538-1.56392-.44093-5.34909-1.11848-10.67862-2.03283-15.96733-.0131-.0965-.1992-1.1312-.2759-1.57257-.0007.0263-.19917-1.06023-.27611-1.46304-.0218-.13715-.19921-1.01937-.28962-1.48709-.53801-2.69507-1.138-5.37764-1.79704-8.04566-.0246-.0756-.27192-1.08478-.38086-1.50391-6.88533-26.75319-20.10274-51.83893-38.23365-72.67806-9.2484-10.64187-19.73083-20.21456-31.19213-28.42741-.0931.35352-.1862.70703-.27929 1.06055zm-105.22461 104.46484c-9.89161.24717-19.6448 4.24182-26.81074 11.07565-7.44771 6.98266-12.05955 16.87337-12.62769 27.06621-.67737 10.66385 3.10304 21.51446 10.26017 29.44871 7.10571 7.99427 17.48375 12.97185 28.17384 13.45204 10.94841.61281 22.04629-3.50647 29.96559-11.08718 7.45886-7.02557 12.04187-16.97292 12.57512-27.20255.74198-12.00187-4.2623-24.19652-13.21068-32.22764-7.47463-6.81488-17.55849-10.70339-27.68379-10.53084-.21394.002-.42788.004-.64182.006z" fill="url(#radialGradient17096)" stroke="url(#radialGradient394)" stroke-width="6.35699"/>
    <path d="m357.8125 132.81641c-27.47368.29556-54.86955 6.98175-79.33153 19.50814-25.81858 13.17402-48.36307 32.68914-65.10335 56.35248-15.86266 22.35428-26.51272 48.39335-30.74543 75.48145-.56319 3.58129-1.02131 7.17963-1.36461 10.78879 25.86305-6.99984 52.94811-9.42567 79.64648-7.19727 4.24838-17.1445 13.04951-33.12832 25.26754-45.88474 13.84516-14.5144 32.04-24.84158 51.64067-29.15042 21.58033-4.80953 44.71792-2.40883 64.79442 6.88123 19.81756 9.08086 36.55695 24.69871 46.98451 43.84282 4.18514 7.65306 7.38117 15.84685 9.48083 24.31306 26.69987-2.22955 53.78617.20099 79.65235 7.19336-2.3555-24.66273-9.90358-48.81874-22.07169-70.40334-13.8006-24.57144-33.45226-45.82351-56.8805-61.48833-21.28137-14.26036-45.64949-23.90183-70.95093-27.9495-10.24962-1.64446-20.63892-2.40647-31.01876-2.28773zm1.15234 138.99804c-10.15028.25063-20.15751 4.45333-27.36966 11.61354-7.7579 7.53324-12.23412 18.292-12.14401 29.10209-.004 10.92464 4.6675 21.74605 12.62329 29.23324 7.36253 7.04693 17.46435 11.11975 27.65634 11.1491 10.65924.11469 21.26951-4.21419 28.81327-11.74494 7.16746-7.05331 11.51279-16.85332 11.96987-26.89556.62065-11.61847-4.11066-23.38437-12.59485-31.34559-7.33029-6.96864-17.32605-11.07375-27.45276-11.11973-.50035-.008-1.00106.007-1.50149.008z" fill="url(#radialGradient17091)" stroke="url(#radialGradient17093)" stroke-width="6.35699"/>
    <path d="m136.8125 371.54688c-22.51985 16.23393-41.251362 37.70625-54.163105 62.2899-13.029587 24.66836-20.084672 52.43575-20.538126 80.3239-.467579 25.8712 4.654781 51.85158 15.12448 75.5263 12.119828 27.55927 31.323151 51.94551 55.219241 70.25226 22.91767 17.6089 50.14788 29.58353 78.65038 34.42026 5.44831.93484 10.94011 1.61332 16.45127 2.04284.0952.002 1.14531.0846 1.5918.11632 4.24911.29116 8.50851.43249 12.76758.42665.0729.003 1.08969-.006 1.50781-.008 2.69945-.0268 5.39803-.11614 8.09375-.25977.0488-.00092 1.13873-.0657 1.57634-.0926 3.19548-.20255 6.3853-.49122 9.56624-.85659.0406-.0108 1.13551-.13791 1.57053-.19221 3.69977-.46693 7.38618-1.04127 11.05056-1.73358.0885-.0227 1.11275-.21284 1.54492-.30078 13.48003-2.66396 26.64067-6.92205 39.14258-12.62109-19.02195-18.90124-34.73671-41.13116-46.15625-65.39648-20.16226 5.78472-42.10771 5.19081-61.90073-1.77377-18.77058-6.55116-35.51339-18.74196-47.53294-34.57659-11.6168-15.23713-18.81814-33.8042-20.4237-52.90316-1.72868-19.70069 2.38438-39.89246 11.82612-57.28164 4.99025-9.26146 11.46192-17.7349 19.00586-25.04297-15.31438-22.00388-26.78143-46.69124-33.60547-72.62109-.12305.0872-.24609.17448-.36914.26172zm104.44922 105.25195c-9.98419.0919-19.8817 4.00004-27.18193 10.8221-7.9947 7.34629-12.79705 18.02148-12.97494 28.87859-.28295 10.7854 4.00348 21.58469 11.58675 29.25646 7.20726 7.40728 17.3396 11.84239 27.6682 12.13981 10.05281.35003 20.16964-3.22911 27.76535-9.82375 7.95551-6.80704 13.06607-16.80562 13.91757-27.24175.89198-9.62026-1.87336-19.49711-7.57051-27.2934-6.13405-8.56121-15.75806-14.4822-26.14263-16.18887-2.33315-.39168-4.7021-.57742-7.06786-.54919z" fill="url(#radialGradient17086)" stroke="url(#radialGradient396)" stroke-width="6.35699"/>
    <path d="m360 107.375c-113.21838 0-205 91.78162-205 205 0 6.33048.31341 12.56586.875 18.75 26.096-12.03884 55.15598-18.75 85.78125-18.75 14.34093 0 28.33619 1.48011 41.84375 4.28125-.0784-1.42068-.15625-2.84097-.15625-4.28125 0-42.32886 34.32739-76.65625 76.65625-76.65625s76.65625 34.32739 76.65625 76.65625c0 1.44028-.0778 2.86057-.15625 4.28125 13.50756-2.80114 27.50282-4.28125 41.84375-4.28125 30.62527 0 59.68525 6.71116 85.78125 18.75.56159-6.18414.875-12.41952.875-18.75 0-113.21838-91.78162-205-205-205z" fill="url(#radialGradient1106)"/>
    <path d="m155.84375 331.125c-70.362253 32.47378-119.187499 103.66847-119.187499 186.25 0 113.21838 91.781619 205 204.999999 205 44.07379 0 84.88551-13.92635 118.3125-37.59375-35.43499-25.10036-62.52592-61.18794-76.375-103.28125-12.05325 7.89884-26.45043 12.5-41.9375 12.5-42.32886 0-76.65625-34.29614-76.65625-76.625 0-29.90779 17.14067-55.80855 42.125-68.4375-28.51011-31.88391-47.19187-72.74031-51.28125-117.8125z" fill="url(#linearGradient1242)"/>
    <path d="m564.15625 331.125c-4.08938 45.07219-22.77114 85.92859-51.28125 117.8125 24.98433 12.62895 42.125 38.52971 42.125 68.4375 0 42.32886-34.32739 76.625-76.65625 76.625-15.48707 0-29.88425-4.60116-41.9375-12.5-13.84908 42.09331-40.94001 78.18089-76.375 103.28125 33.42699 23.6674 74.23871 37.59375 118.3125 37.59375 113.21838 0 205-91.78162 205-205 0-82.58153-48.82525-153.77622-119.1875-186.25z" fill="url(#linearGradient1252)"/>
  </g>
  <path d="m128 44.756258c-20.80002 0-37.661719 17.801904-37.661719 39.761712 0 1.227864.05855 2.438028.16172 3.6375 4.794252-2.335056 10.133029-3.6375 15.759369-3.6375 2.63466 0 5.20595.28872 7.6875.832032-.0144-.275556-.0305-.552672-.0305-.832032 0-8.210088 6.30712-14.866404 14.0836-14.866404s14.08359 6.656316 14.08359 14.866404c0 .27936-.0161.556476-.0305.832032 2.48156-.543312 5.05284-.832032 7.6875-.832032 5.62635 0 10.96512 1.302444 15.75938 3.6375.1032-1.199472.16172-2.409636.16172-3.6375 0-21.959808-16.8617-39.761712-37.66172-39.761712zm0 26.960148a12.125291 12.80139 0 0 0 -12.12422 12.799224 12.125291 12.80139 0 0 0 12.12422 12.801564 12.125291 12.80139 0 0 0 12.12422-12.801564 12.125291 12.80139 0 0 0 -12.12422-12.799224zm-37.50703 16.439064c-8.122185 3.9576-14.677235 10.882512-18.43125 19.45547a89.196661 51.524611 0 0 0 22.950005 7.78125c1.29756-1.82592 2.958084-3.34717 4.903116-4.38516-5.237748-6.1842-8.670588-14.109368-9.421871-22.85156zm75.01406 0c-.75128 8.742192-4.18412 16.66736-9.42187 22.85156 1.94503 1.03799 3.60556 2.55924 4.90312 4.38516a89.196661 51.524611 0 0 0 22.95-7.78125c-3.75401-8.572958-10.30907-15.49787-18.43125-19.45547zm-59.25 23.32266a12.125291 12.80139 0 0 0 -8.946093 4.36406 89.196661 51.524611 0 0 0 19.830463 2.83594 12.125291 12.80139 0 0 0 -10.88437-7.2zm43.48594 0a12.125291 12.80139 0 0 0 -10.73437 7.19297 89.196661 51.524611 0 0 0 19.82343-2.85703 12.125291 12.80139 0 0 0 -9.08906-4.33594z" fill="url(#radialGradient1094)" stroke="url(#linearGradient1059)" stroke-width="1.2"/>
</svg>
