<svg height="256" width="256" xmlns="http://www.w3.org/2000/svg" xmlns:xlink="http://www.w3.org/1999/xlink">
  <defs>
    <radialGradient id="radialGradient933" cx="164.51276" cy="183.84511" gradientTransform="matrix(.86867726 1.0872531 -.65189899 .52084451 139.82478 -91.232909)" gradientUnits="userSpaceOnUse" r="52.345951">
      <stop offset="0" stop-color="#666"/>
      <stop offset="1" stop-color="#1f1f1f"/>
    </radialGradient>
    <clipPath id="clipPath52">
      <path d="m107.81445 150.22266c-6.84629 30.81768-4.77545 54.83251 16.48438 81.71289 3.26424 4.12723 11.18992 7.79274 17.80664 6.99609 21.73598-2.61699 42.4965-11.36688 58.62109-26.26367 2.58476-2.38795 2.59011-6.48891-.83203-7.16797-27.5557-5.46788-56.90323-25.56496-66.83203-47.91211-1.67101.30153-3.36457.46096-5.0625.47656-7.46901-.0157-14.66476-2.81116-20.18555-7.84179z"/>
    </clipPath>
    <linearGradient id="linearGradient54" gradientUnits="userSpaceOnUse" x1="142.43164" x2="106.38477" y1="218.64453" y2="202.9707">
      <stop offset="0" stop-color="#fff" stop-opacity=".33444"/>
      <stop offset="1" stop-color="#fff" stop-opacity="0"/>
    </linearGradient>
    <linearGradient id="linearGradient56" gradientUnits="userSpaceOnUse" x1="150.38147" x2="112.18253" y1="224.9239" y2="216.5593">
      <stop offset="0" stop-color="#fff" stop-opacity=".329227"/>
      <stop offset="1" stop-color="#fff" stop-opacity="0"/>
    </linearGradient>
    <linearGradient id="linearGradient58" gradientUnits="userSpaceOnUse" x1="159.9297" x2="119.61699" y1="230.15591" y2="228.63727">
      <stop offset="0" stop-color="#fff" stop-opacity=".335102"/>
      <stop offset="1" stop-color="#fff" stop-opacity="0"/>
    </linearGradient>
    <linearGradient id="linearGradient61" gradientUnits="userSpaceOnUse" x1="121.04507" x2="142.43164" y1="214.26694" y2="218.64453">
      <stop offset="0" stop-color="#0e0e0e"/>
      <stop offset="1" stop-color="#0e0e0e" stop-opacity="0"/>
    </linearGradient>
    <linearGradient id="linearGradient63" gradientUnits="userSpaceOnUse" x1="127.39348" x2="150.38147" y1="225.4239" y2="224.9239">
      <stop offset="0" stop-color="#0c0c0c"/>
      <stop offset="1" stop-color="#0c0c0c" stop-opacity="0"/>
    </linearGradient>
    <linearGradient id="linearGradient65" gradientUnits="userSpaceOnUse" x1="137.36328" x2="159.9297" y1="235.54871" y2="230.15591">
      <stop offset="0" stop-color="#0d0d0d"/>
      <stop offset="1" stop-color="#0d0d0d" stop-opacity="0"/>
    </linearGradient>
    <radialGradient id="radialGradient2" cx="127.0873445" cy="126.67348" gradientUnits="userSpaceOnUse" r="29.51036395">
      <stop offset="0" stop-color="#5a5a5a"/>
      <stop offset=".76488405" stop-color="#595959"/>
      <stop offset="1" stop-color="#191919"/>
    </radialGradient>
    <linearGradient id="linearGradient8" gradientUnits="userSpaceOnUse" x1="200.47257187403" x2="59.41349181967" y1="231.69278018307" y2="20.60127125142">
      <stop offset="0" stop-color="#252525"/>
      <stop offset="1" stop-color="#414141"/>
    </linearGradient>
    <linearGradient id="linearGradient14" gradientUnits="userSpaceOnUse" x1="68.64909986733" x2="201.43223990143" y1="20.57756287386" y2="228.21877573566">
      <stop offset="0" stop-color="#a6a6a6"/>
      <stop offset="1"/>
    </linearGradient>
    <linearGradient id="linearGradient17" gradientUnits="userSpaceOnUse" x1="124.74522" x2="180.50146" y1="234.85306" y2="199.28406">
      <stop offset="0"/>
      <stop offset="1" stop-color="#808080"/>
    </linearGradient>
    <filter id="filter2" color-interpolation-filters="sRGB" height="1.09635" width="1.095563" x="-.047782" y="-.048175">
      <feGaussianBlur stdDeviation="1.8210689"/>
    </filter>
    <filter id="filter5" color-interpolation-filters="sRGB" height="1.096" width="1.096" x="-.048" y="-.048">
      <feGaussianBlur stdDeviation="4.8168555"/>
    </filter>
  </defs>
  <g id="g933" stroke-width="2" transform="matrix(.95 0 0 .95 6.4 6.5)">
    <path d="m107.42383 149.37109a.93749021.93749021 0 0 0 -.52539.64844c-6.87732 30.95736-4.74394 55.42786 16.66601 82.49805 1.77503 2.24431 4.68223 4.27263 8.02344 5.67187s7.12102 2.16014 10.64648 1.66992c21.57992-3.0007 34.84683-8.74476 50.24415-19.17382 1.74496-1.18192 2.54532-3.13635 2.36718-4.9375-.17813-1.80116-1.44834-3.51014-3.54297-3.92578-27.08414-5.37431-51.32349-32.05214-61.13476-54.13477a.93749021.93749021 0 0 0 -.75586-.55078c-8.55729-.9366-14.06997-3.9201-21.15234-7.73828a.93749021.93749021 0 0 0 -.83594-.0273z" filter="url(#filter2)" opacity=".6"/>
    <path d="m107.81445 150.22266c-6.84629 30.81768-4.77545 54.83251 16.48438 81.71289 3.26424 4.12723 11.20564 7.91396 17.80664 6.99609 21.47129-2.9856 34.52434-8.64173 49.84798-19.02088 2.91356-1.97344 2.59011-6.48891-.83203-7.16797-27.5557-5.46788-51.88158-32.32692-61.81038-54.67407-8.72959-.95546-14.41467-4.02812-21.49659-7.84606z" fill="url(#radialGradient933)" stroke="url(#linearGradient17)" stroke-width="2"/>
    <g clip-path="url(#clipPath52)" stroke-width="2">
      <path d="m124.16093 235.23627c21.90579 1.25025 29.75632-1.60946 35.76878-5.08035" fill="none" stroke="url(#linearGradient65)" stroke-width="2"/>
      <path d="m115.1432 222.93335c24.67717 5.45049 28.82956 3.2586 35.23827 1.99055" fill="none" stroke="url(#linearGradient63)" stroke-width="2"/>
      <path d="m109.04297 209.70898c8.37509 4.37714 30.30825 9.56824 33.38867 8.93555" fill="none" stroke="url(#linearGradient61)" stroke-width="2"/>
      <path d="m107.06329 203.82906 1.97968 5.87992c12.45149 5.81949 24.34975 7.9777 33.38867 8.93555-13.39039-2.97763-24.16623-7.50058-35.36835-14.81547z" fill="#fff" opacity=".150051"/>
      <path d="m112.18253 216.5593c13.24982 5.882 25.86216 7.94803 38.19894 8.3646-4.51007.94727-14.17989 3.79663-35.23827-1.99055z" fill="#fff" opacity=".149999"/>
      <path d="m119.61699 228.63727c15.94346 4.06206 29.51856 4.76341 40.31272 1.51865-6.11462 3.79287-15.75151 6.19879-35.76878 5.08035z" fill="#fff" opacity=".149755"/>
      <path d="m106.38477 202.9707c12.02221 8.54675 25.52344 13.97271 36.04687 15.67383" fill="none" stroke="url(#linearGradient54)" stroke-linecap="round" stroke-width="2"/>
      <path d="m150.38147 224.9239c-11.53111-.0255-22.01294-1.38803-38.19894-8.3646" fill="none" stroke="url(#linearGradient56)" stroke-linecap="round" stroke-width="2"/>
      <path d="m119.61699 228.63727c21.41947 5.21097 31.6115 3.80418 40.31272 1.51865" fill="none" stroke="url(#linearGradient58)" stroke-linecap="round" stroke-width="2"/>
    </g>
  </g>
  <use transform="matrix(.5 -.8660254 .8660254 .5 -46.937854 174.901252)" xlink:href="#g933"/>
  <use transform="matrix(-.5 -.8660254 .8660254 -.5 81.062146 303.001252)" xlink:href="#g933"/>
  <use transform="matrix(-1 0 -0 -1 256 256.2)" xlink:href="#g933"/>
  <use transform="matrix(-.5 .8660254 -.8660254 -.5 302.937854 81.298748)" xlink:href="#g933"/>
  <use transform="matrix(.5 .8660254 -.8660254 .5 174.937854 -46.801252)" xlink:href="#g933"/>
  <path d="m128 7.6796875c-15.76317-.0001977-31.520652 3.1338625-46.083984 9.1660155-14.563333 6.032153-27.922024 14.957363-39.06836 26.103516-11.146336 11.146152-20.071123 24.503173-26.103515 39.066406-6.032393 14.563233-9.1659544 30.320815-9.166016 46.083985-.0001979 15.76333 3.13374 31.52052 9.166016 46.08398 6.032275 14.56346 14.957154 27.922 26.103515 39.06836s24.504899 20.07124 39.06836 26.10352c14.56346 6.03227 30.320654 9.16621 46.083984 9.16601 15.76334.0002 31.52052-3.13374 46.08398-9.16601 14.56346-6.03228 27.922-14.95716 39.06836-26.10352s20.07124-24.5049 26.10352-39.06836 9.16621-30.32065 9.16601-46.08398c-.00006-15.76317-3.13362-31.520752-9.16601-46.083985s-14.95718-27.920254-26.10352-39.066406c-11.14633-11.146153-24.50502-20.071363-39.06836-26.103516-14.56333-6.032152-30.32081-9.1662134-46.08398-9.1660155zm0 10.2460935c5.40807-.000023.005-.132527 5.40625.132813 5.40155.265339.0105-.131626 5.39258.398437 5.38202.530063.0177-.1314 5.36719.66211 5.34953.793509.024-.131217 5.32812.923828 5.30416 1.055044.0294-.128491 5.27539 1.185547 5.246 1.314037.0377-.128459 5.21289 1.441406 5.1752 1.569865.0428-.124645 5.13477 1.697265 5.09193 1.821911.0485-.124254 5.04492 1.945313 4.99641 2.069567.0545-.120831 4.94336 2.191406 4.88884 2.312237.0606-.117696 4.83008 2.431641 4.76949 2.549337.0664-.11428 4.70507 2.666015 4.63866 2.780296.0717-.111977 4.56836 2.892579 4.49665 3.004555.0781-.108297 4.42188 3.113281 4.3438 3.221578.0812-.102714 4.26172 3.328125 4.18049 3.430838.0886-.100584 4.0957 3.53125 4.00711 3.631834.0919-.09557 3.91602 3.728515 3.82408 3.824081.0967-.0911 3.72851 3.916016 3.63184 4.007114.10041-.08479 3.53125 4.095703 3.43084 4.180494.10655-.08208 3.32813 4.261719 3.22157 4.343802.10872-.07477 3.11328 4.421875 3.00455 4.496646.11228-.0703 2.89258 4.568359 2.78029 4.638657.11668-.06441 2.66601 4.705078 2.54934 4.769493.11941-.05876 2.43164 4.830079 2.31224 4.888838.12184-.05305 2.19141 4.943359 2.06957 4.996406.1234-.04702 1.94531 5.044922 1.82191 5.091937.1274-.04044 1.69727 5.134765 1.56986 5.175203.12737-.03311 1.4414 5.212893 1.31404 5.24599.13051-.0288 1.18555 5.27539 1.05504 5.30415.13032-.0214.92383 5.32812.79351 5.34954.13205-.0148.66211 5.36719.53006 5.38203.1331-.009.39844 5.39258.26533 5.40155.13283-.002.13281 5.40625.00002 5.40807.13253.005-.13281 5.40625-.26534 5.40155.13162.0105-.39844 5.39258-.53006 5.38202.1314.0177-.66211 5.36718-.79351 5.34954.13121.024-.92383 5.32813-1.05504 5.30415.12849.0294-1.18555 5.27539-1.31403 5.246.12846.0377-1.4414 5.21289-1.56987 5.1752.12464.0428-1.69727 5.13477-1.82191 5.09193.12426.0485-1.94531 5.04492-2.06957 4.9964.12083.0545-2.19141 4.94336-2.31223 4.88884.1177.0606-2.43164 4.83008-2.54933 4.76949.11428.0664-2.66601 4.70507-2.7803 4.63866.11197.0717-2.89258 4.56836-3.00456 4.49665.1083.0781-3.11328 4.42188-3.22158 4.3438.10271.0812-3.32813 4.26172-3.43084 4.18049.10059.0886-3.53125 4.0957-3.63183 4.00711.0956.0919-3.72851 3.91602-3.82408 3.82408.0911.0967-3.91602 3.72851-4.00711 3.63184.0848.10041-4.0957 3.53125s.0821.10655-4.26172 3.32813c-4.3438 3.22157.0748.10872-4.42188 3.11328-4.49664 3.00455.0703.11228-4.56836 2.89258-4.63865 2.78029.0644.11667-4.70507 2.66601-4.7695 2.54934.0588.11941-4.83008 2.43164-4.88884 2.31224.0531.12184-4.94336 2.19141-4.99641 2.06957.047.1234-5.04492 1.94531-5.09194 1.82191.0404.1274-5.13477 1.69727-5.1752 1.56986.0331.12737-5.21289 1.4414-5.246 1.31404.0288.13051-5.27539 1.18555-5.30415 1.05504.0214.13032-5.32812.92383-5.34954.79351.0148.13204-5.36719.66211-5.38203.53006.009.1331-5.39258.39843-5.40155.26534.002.13284-5.40625.13282-5.40807.00002-.005.13252-5.40625-.13282-5.40155-.26533-.0105.13163-5.39258-.39843-5.38202-.53007-.0177.1314-5.36719-.66211-5.34953-.79351-.024.13121-5.32812-.92383-5.30416-1.05504-.0294.12849-5.27539-1.18555-5.245998-1.31403-.0377.12846-5.212892-1.4414-5.175201-1.56987-.04283.12464-5.134766-1.69727s-.04851.12426-5.044921-1.94531c-4.996406-2.06957-.05452.12083-4.94336-2.19141-4.888838-2.31223-.06059.1177-4.830078-2.43164-4.769492-2.54933-.06642.11428-4.705078-2.66601-4.638657-2.7803-.07171.11197-4.568359-2.89258-4.496646-3.00456-.07807.10829-4.421875-3.11328-4.343802-3.22158-.08123.10271-4.261719-3.32813-4.180494-3.43084-.08859.10059-4.095703-3.53125-4.007114-3.63183-.09194.0956-3.916016-3.72851-3.82408-3.82408-.09668.0911-3.728516-3.91602-3.631834-4.00711-.100411.0848-3.53125-4.0957-3.430838-4.1805-.106547.0821-3.328125-4.26172-3.221577-4.3438-.108725.0748-3.113281-4.42188-3.004555-4.49664-.112283.0703-2.892578-4.56836-2.780295-4.63865-.116679.0644-2.666016-4.70507-2.549336-4.7695-.119403.0588-2.43164-4.83008-2.312237-4.88884-.12184.053-2.191406-4.94336-2.069567-4.99641-.123403.047-1.945313-5.04492-1.82191-5.09194-.127401.0404-1.697266-5.13477-1.569864-5.1752-.127368.0331-1.441406-5.21289-1.314037-5.246-.130502.0288-1.185547-5.27539-1.055044-5.30415-.130318.0214-.923828-5.32813-.793509-5.34953-.132046.0148-.662109-5.36718-.530063-5.38203-.133098.009-.398438-5.39258-.265339-5.40155-.132835.002-.132812-5.40625-.000024-5.40807-.132527-.005.132812-5.40625.26534-5.40155-.131625-.0105.398438-5.39258.530063-5.38203-.1314-.0177.662109-5.36719.793509-5.34953-.131216-.024.923828-5.32812 1.055044-5.30416-.12849-.0294 1.185547-5.27539 1.314037-5.245999-.128458-.0377 1.441406-5.212893 1.569865-5.1752-.124644-.04283 1.697266-5.134765 1.82191-5.091937-.124254-.04852 1.945313-5.044922 2.069566-4.996406-.120831-.05452 2.191406-4.943359 2.312237-4.888838-.117696-.06059 2.43164-4.830079 2.549337-4.769492-.114279-.06642 2.666016-4.705078 2.780295-4.638656-.111977-.07171 2.892578-4.568359 3.004556-4.496646-.108296-.07807 3.113281-4.421875 3.221578-4.343802-.102713-.08123 3.328125-4.261719 3.430839-4.180493-.100583-.08859 3.53125-4.095703 3.631834-4.007113-.09556-.09193 3.728516-3.916016 3.82408-3.82408-.0911-.09668 3.916016-3.728515 4.007113-3.631834-.08479-.100412 4.095703-3.53125 4.180493-3.430839-.08208-.106548 4.261719-3.328125 4.343801-3.221578-.07477-.108726 4.421875-3.113281 4.496645-3.004556-.0703-.112283 4.568359-2.892579 4.638657-2.780295-.06441-.116678 4.705078-2.666015 4.769493-2.549337-.05876-.119404 4.830078-2.431641s-.05305-.12184 4.94336-2.191406c4.996405-2.069566-.04702-.123402 5.044921-1.945313 5.091937-1.82191-.04043-.1274 5.134766-1.697265 5.175202-1.569865-.03311-.127369 5.212892-1.441406 5.246-1.314038-.0288-.130503 5.27539-1.185547 5.30415-1.055044-.0214-.130319 5.32812-.923828 5.34954-.79351-.0148-.132047 5.36719-.66211 5.38203-.530063-.009-.133098 5.39258-.398437 5.40155-.26534-.002-.132836 5.40625-.132813z" filter="url(#filter5)" opacity=".6" transform="translate(2 2)"/>
  <circle cx="128" cy="128.10001" fill="url(#radialGradient2)" r="28.560364" stroke="#000" stroke-linejoin="round" stroke-width="1.9"/>
  <circle cx="128" cy="128.10001" fill="none" r="20.788055" stroke="#727272" stroke-linejoin="round"/>
  <circle cx="128" cy="128.10001" opacity=".6" r="5.20348"/>
  <ellipse cx="128" cy="128.10001" fill="#b3b3b3" opacity=".6" rx="1.900002" ry="1.899995"/>
  <path d="m128 9.4014702a118.69773 118.69773 0 0 0 -118.6985298 118.6985298 118.69773 118.69773 0 0 0 118.6985298 118.69853 118.69773 118.69773 0 0 0 118.69853-118.69853 118.69773 118.69773 0 0 0 -118.69853-118.6985298zm0 6.8025788a111.896 111.896 0 0 1 111.89595 111.895951 111.896 111.896 0 0 1 -111.89595 111.89595 111.896 111.896 0 0 1 -111.89595-111.89595 111.896 111.896 0 0 1 111.89595-111.895951z" fill="url(#linearGradient8)"/>
  <path d="m128 8.3996777a119.69951 119.69951 0 0 0 -119.7003223 119.7003223 119.69951 119.69951 0 0 0 119.7003223 119.70032 119.69951 119.69951 0 0 0 119.70032-119.70032 119.69951 119.69951 0 0 0 -119.70032-119.7003223z" fill="none" stroke="url(#linearGradient14)" stroke-linejoin="round" stroke-width="2.85"/>
  <circle cx="128" cy="128.10001" fill="none" r="111.41348" stroke="#727272" stroke-linecap="round" stroke-linejoin="round" stroke-width="2.85"/>
</svg>
