<svg height="256" width="256" xmlns="http://www.w3.org/2000/svg" xmlns:xlink="http://www.w3.org/1999/xlink">
  <defs>
    <linearGradient id="linearGradient7136">
      <stop offset="0" stop-color="#fff"/>
      <stop offset="1" stop-color="#fff" stop-opacity="0"/>
    </linearGradient>
    <radialGradient id="radialGradient21210" cx="63.071262" cy="-8.361158" gradientTransform="matrix(1 0 0 .69782716 -70.024325 -38.139354)" gradientUnits="userSpaceOnUse" r="61.843754">
      <stop offset="0" stop-color="#f6f6f6"/>
      <stop offset="1" stop-color="#ccc"/>
    </radialGradient>
    <linearGradient id="linearGradient4898" gradientTransform="matrix(1 0 0 -1 0 106.24806)" gradientUnits="userSpaceOnUse" x1="110.2377" x2="12.362701" y1="82.125" y2="-9.046475">
      <stop offset="0" stop-color="#1d1e23"/>
      <stop offset=".5" stop-color="#101113"/>
      <stop offset="1" stop-color="#26292e"/>
    </linearGradient>
    <filter id="filter6186" height="1.002717" width="1.001892" x="-.000946" y="-.001359">
      <feGaussianBlur stdDeviation=".0441875"/>
    </filter>
    <linearGradient id="linearGradient4900" gradientTransform="matrix(1.0546038 0 0 1.0683762 -73.413509 -59.345371)" gradientUnits="userSpaceOnUse" x1="84.361366" x2="42.887676" xlink:href="#linearGradient7136" y1="29.365416" y2="18.252573"/>
    <linearGradient id="linearGradient5006" gradientTransform="matrix(1.111764 0 0 1.12708 -77.209904 -62.174812)" gradientUnits="userSpaceOnUse" x1="82.44709" x2="82.44709" y1="87.650002" y2="21.826469">
      <stop offset="0" stop-color="#1949ed"/>
      <stop offset="1" stop-color="#3879f8"/>
    </linearGradient>
    <filter id="filter7497" height="1.133899" width="1.03292" x="-.01646" y="-.06695">
      <feGaussianBlur stdDeviation=".036652415"/>
    </filter>
    <clipPath id="clipPath7399">
      <rect height="73" rx="0" width="96" x="165.90663" y="29.000002"/>
    </clipPath>
    <filter id="filter5885" height="1.028152" width="1.021409" x="-.010705" y="-.014076">
      <feGaussianBlur stdDeviation=".46554058"/>
    </filter>
    <linearGradient id="linearGradient4957" gradientTransform="matrix(1.1596692 0 0 1.1552571 -80.294262 -62.738355)" gradientUnits="userSpaceOnUse" x1="80.264381" x2="38.917843" xlink:href="#linearGradient7136" y1="26.93886" y2="17.18886"/>
    <linearGradient id="linearGradient1186" gradientUnits="userSpaceOnUse" x1="-23.072587" x2="-65.659042" y1="-3.289047" y2="-25.696157">
      <stop offset="0" stop-color="#fff" stop-opacity=".2"/>
      <stop offset="1" stop-color="#fff" stop-opacity=".1"/>
    </linearGradient>
    <linearGradient id="linearGradient1196" gradientUnits="userSpaceOnUse" x1="-35.710275" x2="46.933481" y1="20.719814" y2="19.976872">
      <stop offset="0" stop-color="#fff" stop-opacity=".2"/>
      <stop offset="1" stop-color="#fff" stop-opacity="0"/>
    </linearGradient>
    <linearGradient id="linearGradient1206" gradientUnits="userSpaceOnUse" x1="47.024531" x2="-37.12404" y1="-24.260258" y2="20.55045">
      <stop offset="0" stop-color="#fff" stop-opacity=".15"/>
      <stop offset="1" stop-color="#fff" stop-opacity="0"/>
    </linearGradient>
    <linearGradient id="linearGradient419" gradientUnits="userSpaceOnUse" spreadMethod="reflect" x1="64.492081" x2="64.492081" y1="83.273643" y2="83.705124">
      <stop offset="0" stop-color="#a5acb2"/>
      <stop offset=".64333254" stop-color="#bdc1c7"/>
      <stop offset=".88042605" stop-color="#33373c"/>
      <stop offset="1"/>
    </linearGradient>
    <linearGradient id="linearGradient4143-0" gradientTransform="matrix(.9680482 0 0 .9272319 2.205637 39.593344)" gradientUnits="userSpaceOnUse" x1="64.232018" x2="64.232018" xlink:href="#linearGradient3459" y1="539.42133" y2="531.5722"/>
    <linearGradient id="linearGradient3459">
      <stop offset="0" stop-color="#bebebe"/>
      <stop offset="1" stop-color="#ededed"/>
    </linearGradient>
    <linearGradient id="linearGradient326" gradientTransform="matrix(.9680482 0 0 .9272319 2.205637 39.593344)" gradientUnits="userSpaceOnUse" x1="72.815826" x2="62.601059" xlink:href="#linearGradient4910" y1="540.7486" y2="530.53381"/>
    <linearGradient id="linearGradient4910">
      <stop offset="0"/>
      <stop offset="1" stop-opacity="0"/>
    </linearGradient>
    <radialGradient id="radialGradient4147-4" cx="64.892586" cy="538.2995" gradientTransform="matrix(1.5876017 -.02019172 .01907982 1.5001774 -48.61302 -268.11124)" gradientUnits="userSpaceOnUse" r="7.015625" xlink:href="#linearGradient3469"/>
    <linearGradient id="linearGradient3469">
      <stop offset="0" stop-color="#e8e8e8"/>
      <stop offset="1" stop-color="#fff"/>
    </linearGradient>
    <filter id="filter3545-7" height="1.046242" width="1.043174" x="-.021587" y="-.023121">
      <feGaussianBlur stdDeviation=".12620405"/>
    </filter>
    <linearGradient id="linearGradient4287-3" gradientTransform="matrix(6.5888785 0 0 .90823292 -280.88 106.62193)" gradientUnits="userSpaceOnUse" x1="64.232018" x2="64.232018" xlink:href="#linearGradient3459" y1="539.42133" y2="531.5722"/>
    <linearGradient id="linearGradient4289-8" gradientTransform="matrix(6.5888785 0 0 .90823292 -280.88 106.62193)" gradientUnits="userSpaceOnUse" x1="72.815826" x2="62.601059" xlink:href="#linearGradient4910" y1="540.7486" y2="530.53381"/>
    <radialGradient id="radialGradient4314-5" cx="64.892586" cy="538.2995" gradientTransform="matrix(11.108404 -.01796302 .133501 1.3345926 -647.92003 -121.77177)" gradientUnits="userSpaceOnUse" r="7.015625" xlink:href="#linearGradient3469"/>
    <filter id="filter4344-1" height="1.248545" width="1.029504" x="-.014752" y="-.124272">
      <feGaussianBlur stdDeviation=".60346486"/>
    </filter>
  </defs>
  <g transform="matrix(2 0 0 2 140.04546 137.97121)">
    <path d="m-62.866479-47.641857c-2.489405 0-4.5 2.010595-4.5 4.5v1.625 73.0625 1.65625c0 2.489405 2.010595 4.46875 4.5 4.46875h113.687504c2.4894 0 4.5-1.979345 4.5-4.46875v-76.34375c0-2.489405-2.0106-4.5-4.5-4.5z" fill-rule="evenodd" stroke="url(#radialGradient21210)" stroke-width="1.5"/>
    <path d="m9.25 11.9375c-.4270534 0-.7568164.142635-.96875.34375s-.34375.467228-.34375.96875v2.84375 69.75 2.84375c0 .757756.5547428 1.3125 1.3125 1.3125h109.5c.27365 0 .62452-.155611.90625-.46875s.40625-.776819.40625-.84375v-2.84375-69.75-2.84375c0-.75775-.55476-1.3125-1.3125-1.3125z" fill="url(#linearGradient4898)" fill-rule="evenodd" filter="url(#filter6186)" transform="matrix(1.0546038 0 0 1.0366737 -73.518969 -57.853963)"/>
    <path d="m-64.126404-45.478671c-.574629 0-1.021574.426671-1.021648 1.101466v78.171676l1.384168 2.040951h26.266226l46.237785-81.314093z" fill="url(#linearGradient4900)" fill-rule="evenodd" opacity=".5"/>
    <rect fill="url(#linearGradient5006)" fill-rule="evenodd" height="69.315407" opacity=".840909" rx="0" width="106.72935" x="-59.42168" y="-39.633217"/>
    <g transform="matrix(1.2134851 0 0 1.1928539 -83.12449 -65.172079)">
      <g style="opacity:.427273;stroke:#000;stroke-width:0;stroke-linecap:round;stroke-linejoin:round;filter:url(#filter7497)" transform="matrix(1.8247035 0 0 1.8247035 -52.398467 -69.035703)">
        <path d="m61.363611 82.433983c-.25688 0-.40962.182246-.40962.487726 0 .307215.15274.487726.411356.487726.25688 0 .411356-.182246.411356-.480783 0-.315894-.149268-.494669-.413092-.494669zm.0017.133647c.163154 0 .260352.133648.260352.359286 0 .215224-.10067.348872-.260352.348872-.161418 0-.260352-.133648-.260352-.354079s.09893-.354079.260352-.354079z"/>
        <path d="m62.316498 82.899145.30548-.439127h-.163154l-.218696.329779-.218695-.329779h-.16489l.303744.44607-.321101.463426h.16489l.230845-.348871.227374.348871h.168361z"/>
        <path d="m63.37179 82.460018-.251673.708158-.232582-.708158h-.154475l.307215.912968-.05554.144061c-.0243.06422-.05554.08852-.116291.08852-.0243 0-.04513-.0035-.07637-.01041v.130176c.02951.01562.05901.02256.0972.02256.04686 0 .0972-.01562.135383-.04339.04513-.03298.07116-.07116.09893-.144062l.404413-1.100421z"/>
        <path d="m64.232687 82.460018v.131912c-.0729-.109348-.15274-.157947-.267295-.157947-.220431 0-.373171.20481-.373171.496404 0 .15274.03645.263824.114555.355815.06769.07984.154475.123233.248202.123233.109348 0 .187453-.0486.263823-.163154v.04686c0 .242995-.06769.33325-.248202.33325-.123233 0-.187453-.0486-.201339-.15274h-.147533c.01389.168361.147533.274238.345401.274238.133647 0 .244731-.04339.303744-.116291.06943-.08505.09546-.197867.09546-.411356v-.760228zm-.25341.107612c.15274 0 .239524.128441.239524.359286 0 .220431-.08852.348872-.239524.348872-.149268 0-.236052-.130176-.236052-.354079 0-.222167.08678-.354079.236052-.354079z"/>
        <path d="m65.378236 82.963365c0-.138854-.01041-.222167-.03645-.289858-.05901-.149269-.197867-.239524-.367964-.239524-.253409 0-.416563.19266-.416563.492933s.156211.482519.413092.482519c.208281 0 .352343-.118026.388792-.315894h-.145797c-.03992.119762-.121498.182247-.237788.182247-.09199 0-.170097-.04166-.218696-.118026-.03471-.05207-.04686-.104141-.0486-.194397zm-.666501-.118026c.01215-.168361.114555-.277709.260352-.277709.147533 0 .249938.114555.249938.277709z"/>
        <path d="m65.574368 82.460018v.909496h.145797v-.501611c0-.185718.0972-.307215.246467-.307215.114555 0 .187453.06943.187453.178775v.630051h.144062v-.687329c0-.151004-.11282-.248202-.288123-.248202-.135383 0-.222167.05207-.302009.178775v-.15274z"/>
      </g>
      <g filter="url(#filter7497)" stroke="#000" stroke-linecap="round" stroke-linejoin="round" stroke-width="0" transform="matrix(1.8247035 0 0 1.8247035 -52.398467 -69.035703)">
        <path d="m61.363611 82.433983c-.25688 0-.40962.182246-.40962.487726 0 .307215.15274.487726.411356.487726.25688 0 .411356-.182246.411356-.480783 0-.315894-.149268-.494669-.413092-.494669zm.0017.133647c.163154 0 .260352.133648.260352.359286 0 .215224-.10067.348872-.260352.348872-.161418 0-.260352-.133648-.260352-.354079s.09893-.354079.260352-.354079z"/>
        <path d="m62.316498 82.899145.30548-.439127h-.163154l-.218696.329779-.218695-.329779h-.16489l.303744.44607-.321101.463426h.16489l.230845-.348871.227374.348871h.168361z"/>
        <path d="m63.37179 82.460018-.251673.708158-.232582-.708158h-.154475l.307215.912968-.05554.144061c-.0243.06422-.05554.08852-.116291.08852-.0243 0-.04513-.0035-.07637-.01041v.130176c.02951.01562.05901.02256.0972.02256.04686 0 .0972-.01562.135383-.04339.04513-.03298.07116-.07116.09893-.144062l.404413-1.100421z"/>
        <path d="m64.232687 82.460018v.131912c-.0729-.109348-.15274-.157947-.267295-.157947-.220431 0-.373171.20481-.373171.496404 0 .15274.03645.263824.114555.355815.06769.07984.154475.123233.248202.123233.109348 0 .187453-.0486.263823-.163154v.04686c0 .242995-.06769.33325-.248202.33325-.123233 0-.187453-.0486-.201339-.15274h-.147533c.01389.168361.147533.274238.345401.274238.133647 0 .244731-.04339.303744-.116291.06943-.08505.09546-.197867.09546-.411356v-.760228zm-.25341.107612c.15274 0 .239524.128441.239524.359286 0 .220431-.08852.348872-.239524.348872-.149268 0-.236052-.130176-.236052-.354079 0-.222167.08678-.354079.236052-.354079z"/>
        <path d="m65.378236 82.963365c0-.138854-.01041-.222167-.03645-.289858-.05901-.149269-.197867-.239524-.367964-.239524-.253409 0-.416563.19266-.416563.492933s.156211.482519.413092.482519c.208281 0 .352343-.118026.388792-.315894h-.145797c-.03992.119762-.121498.182247-.237788.182247-.09199 0-.170097-.04166-.218696-.118026-.03471-.05207-.04686-.104141-.0486-.194397zm-.666501-.118026c.01215-.168361.114555-.277709.260352-.277709.147533 0 .249938.114555.249938.277709z"/>
        <path d="m65.574368 82.460018v.909496h.145797v-.501611c0-.185718.0972-.307215.246467-.307215.114555 0 .187453.06943.187453.178775v.630051h.144062v-.687329c0-.151004-.11282-.248202-.288123-.248202-.135383 0-.222167.05207-.302009.178775v-.15274z"/>
      </g>
      <g fill="url(#linearGradient419)" transform="matrix(1.8247035 0 0 1.8247035 -52.398467 -69.161151)">
        <path d="m61.363611 82.433983c-.25688 0-.40962.182246-.40962.487726 0 .307215.15274.487726.411356.487726.25688 0 .411356-.182246.411356-.480783 0-.315894-.149268-.494669-.413092-.494669zm.0017.133647c.163154 0 .260352.133648.260352.359286 0 .215224-.10067.348872-.260352.348872-.161418 0-.260352-.133648-.260352-.354079s.09893-.354079.260352-.354079z" fill="url(#linearGradient419)"/>
        <path d="m62.316498 82.899145.30548-.439127h-.163154l-.218696.329779-.218695-.329779h-.16489l.303744.44607-.321101.463426h.16489l.230845-.348871.227374.348871h.168361z" fill="url(#linearGradient419)"/>
        <path d="m63.37179 82.460018-.251673.708158-.232582-.708158h-.154475l.307215.912968-.05554.144061c-.0243.06422-.05554.08852-.116291.08852-.0243 0-.04513-.0035-.07637-.01041v.130176c.02951.01562.05901.02256.0972.02256.04686 0 .0972-.01562.135383-.04339.04513-.03298.07116-.07116.09893-.144062l.404413-1.100421z" fill="url(#linearGradient419)"/>
        <path d="m64.232687 82.460018v.131912c-.0729-.109348-.15274-.157947-.267295-.157947-.220431 0-.373171.20481-.373171.496404 0 .15274.03645.263824.114555.355815.06769.07984.154475.123233.248202.123233.109348 0 .187453-.0486.263823-.163154v.04686c0 .242995-.06769.33325-.248202.33325-.123233 0-.187453-.0486-.201339-.15274h-.147533c.01389.168361.147533.274238.345401.274238.133647 0 .244731-.04339.303744-.116291.06943-.08505.09546-.197867.09546-.411356v-.760228zm-.25341.107612c.15274 0 .239524.128441.239524.359286 0 .220431-.08852.348872-.239524.348872-.149268 0-.236052-.130176-.236052-.354079 0-.222167.08678-.354079.236052-.354079z" fill="url(#linearGradient419)"/>
        <path d="m65.378236 82.963365c0-.138854-.01041-.222167-.03645-.289858-.05901-.149269-.197867-.239524-.367964-.239524-.253409 0-.416563.19266-.416563.492933s.156211.482519.413092.482519c.208281 0 .352343-.118026.388792-.315894h-.145797c-.03992.119762-.121498.182247-.237788.182247-.09199 0-.170097-.04166-.218696-.118026-.03471-.05207-.04686-.104141-.0486-.194397zm-.666501-.118026c.01215-.168361.114555-.277709.260352-.277709.147533 0 .249938.114555.249938.277709z" fill="url(#linearGradient419)"/>
        <path d="m65.574368 82.460018v.909496h.145797v-.501611c0-.185718.0972-.307215.246467-.307215.114555 0 .187453.06943.187453.178775v.630051h.144062v-.687329c0-.151004-.11282-.248202-.288123-.248202-.135383 0-.222167.05207-.302009.178775v-.15274z" fill="url(#linearGradient419)"/>
      </g>
      <g fill="#c4c7ce" transform="matrix(1.8247035 0 0 1.8247035 -52.398467 -69.161151)">
        <path d="m61.363611 82.433983c-.25688 0-.40962.182246-.40962.487726 0 .307215.15274.487726.411356.487726.25688 0 .411356-.182246.411356-.480783 0-.315894-.149268-.494669-.413092-.494669zm.0017.133647c.163154 0 .260352.133648.260352.359286 0 .215224-.10067.348872-.260352.348872-.161418 0-.260352-.133648-.260352-.354079s.09893-.354079.260352-.354079z"/>
        <path d="m62.316498 82.899145.30548-.439127h-.163154l-.218696.329779-.218695-.329779h-.16489l.303744.44607-.321101.463426h.16489l.230845-.348871.227374.348871h.168361z"/>
        <path d="m63.37179 82.460018-.251673.708158-.232582-.708158h-.154475l.307215.912968-.05554.144061c-.0243.06422-.05554.08852-.116291.08852-.0243 0-.04513-.0035-.07637-.01041v.130176c.02951.01562.05901.02256.0972.02256.04686 0 .0972-.01562.135383-.04339.04513-.03298.07116-.07116.09893-.144062l.404413-1.100421z"/>
        <path d="m64.232687 82.460018v.131912c-.0729-.109348-.15274-.157947-.267295-.157947-.220431 0-.373171.20481-.373171.496404 0 .15274.03645.263824.114555.355815.06769.07984.154475.123233.248202.123233.109348 0 .187453-.0486.263823-.163154v.04686c0 .242995-.06769.33325-.248202.33325-.123233 0-.187453-.0486-.201339-.15274h-.147533c.01389.168361.147533.274238.345401.274238.133647 0 .244731-.04339.303744-.116291.06943-.08505.09546-.197867.09546-.411356v-.760228zm-.25341.107612c.15274 0 .239524.128441.239524.359286 0 .220431-.08852.348872-.239524.348872-.149268 0-.236052-.130176-.236052-.354079 0-.222167.08678-.354079.236052-.354079z"/>
        <path d="m65.378236 82.963365c0-.138854-.01041-.222167-.03645-.289858-.05901-.149269-.197867-.239524-.367964-.239524-.253409 0-.416563.19266-.416563.492933s.156211.482519.413092.482519c.208281 0 .352343-.118026.388792-.315894h-.145797c-.03992.119762-.121498.182247-.237788.182247-.09199 0-.170097-.04166-.218696-.118026-.03471-.05207-.04686-.104141-.0486-.194397zm-.666501-.118026c.01215-.168361.114555-.277709.260352-.277709.147533 0 .249938.114555.249938.277709z"/>
        <path d="m65.574368 82.460018v.909496h.145797v-.501611c0-.185718.0972-.307215.246467-.307215.114555 0 .187453.06943.187453.178775v.630051h.144062v-.687329c0-.151004-.11282-.248202-.288123-.248202-.135383 0-.222167.05207-.302009.178775v-.15274z"/>
      </g>
    </g>
    <path clip-path="url(#clipPath7399)" d="m161.71875 25.8125v79.375h104.375v-79.375zm4.1875 3.1875h96v73h-96z" fill="#002540" fill-rule="evenodd" filter="url(#filter5885)" transform="matrix(1.1117639 0 0 .94950123 -243.87066 -67.168754)"/>
    <rect fill="#1c1e22" fill-rule="evenodd" height=".144288" opacity=".431818" width="40.013416" x="-30.832392" y="-39.777504"/>
    <path d="m-59.420212-39.633216v69.315413l26.187192-.20996 39.132373-69.124409z" fill="url(#linearGradient4957)" fill-rule="evenodd" opacity=".090909"/>
    <path d="m-59.05122-39.221655v67.05586c21.333769-18.688896 33.486551-41.40086 39.007221-67.018991z" fill="url(#linearGradient1186)"/>
    <path d="m46.933485 10.570392v18.81296h-92.886598c28.856153-11.300393 59.819743-17.568056 92.886598-18.81296z" fill="url(#linearGradient1196)"/>
    <path d="m46.996485-34.111272v15.745153c-26.144891 17.193769-49.464116 34.800634-102.797654 48.019575 23.273247-25.408988 64.459988-44.04853 102.797654-63.764728z" fill="url(#linearGradient1206)"/>
  </g>
  <rect fill-opacity=".2" fill-rule="evenodd" height="78.552895" stroke-width="1.6735" width="213.45949" x="21.2013" y="118.78269"/>
  <g transform="matrix(.890055 0 0 .9104442 -6.540742 -353.87626)">
    <g transform="matrix(1.9034809 0 0 .97951 120.71515 10.239853)">
      <rect fill="url(#linearGradient4143-0)" height="13.975356" rx=".710854" ry=".677778" stroke="url(#linearGradient326)" stroke-dashoffset="1.0878" stroke-width=".190431" width="14.590545" x="58.007027" y="526.92413"/>
      <path d="m58.726135 526.4375-.53125 10.88111-.03125.5c.547046.29818 1.084787.56141 1.65625.78125.0086.003.02263-.003.03125 0 1.706148.65221 3.512899.95145 5.3125.9375.30156-.002.605084-.011.90625-.0312.602332-.0406 1.216946-.10774 1.8125-.21875s1.168155-.25779 1.75-.4375c.872767-.26957 1.740076-.61203 2.5625-1.03125l-.03125-.5-.5-10.88111z" fill="url(#radialGradient4147-4)" fill-rule="evenodd" filter="url(#filter3545-7)" transform="matrix(.9329728 0 0 .9272318 4.491822 39.593343)"/>
    </g>
    <g transform="matrix(1.4290094 0 0 .97951 155.49266 25.239853)">
      <rect fill="url(#linearGradient4143-0)" height="13.975356" rx=".487252" ry=".677778" stroke="url(#linearGradient326)" stroke-dashoffset="1.0878" stroke-width=".157661" width="14.590545" x="58.007027" y="526.92413"/>
      <path d="m58.726135 526.4375-.53125 10.88111-.03125.5c.547046.29818 1.084787.56141 1.65625.78125.0086.003.02263-.003.03125 0 1.706148.65221 3.512899.95145 5.3125.9375.30156-.002.605084-.011.90625-.0312.602332-.0406 1.216946-.10774 1.8125-.21875s1.168155-.25779 1.75-.4375c.872767-.26957 1.740076-.61203 2.5625-1.03125l-.03125-.5-.5-10.88111z" fill="url(#radialGradient4147-4)" fill-rule="evenodd" filter="url(#filter3545-7)" transform="matrix(.9329728 0 0 .9272318 4.491822 39.593343)"/>
    </g>
    <g transform="matrix(2.1448788 0 0 .97951 103.55725 39.639853)">
      <rect fill="url(#linearGradient4143-0)" height="13.975356" rx=".324628" ry=".677778" stroke="url(#linearGradient326)" stroke-dashoffset="1.0878" stroke-width=".128689" width="14.590545" x="58.007027" y="526.92413"/>
      <path d="m58.726135 526.4375-.53125 10.88111-.03125.5c.547046.29818 1.084787.56141 1.65625.78125.0086.003.02263-.003.03125 0 1.706148.65221 3.512899.95145 5.3125.9375.30156-.002.605084-.011.90625-.0312.602332-.0406 1.216946-.10774 1.8125-.21875s1.168155-.25779 1.75-.4375c.872767-.26957 1.740076-.61203 2.5625-1.03125l-.03125-.5-.5-10.88111z" fill="url(#radialGradient4147-4)" fill-rule="evenodd" filter="url(#filter3545-7)" transform="matrix(.9329728 0 0 .9272318 4.491822 39.593343)"/>
    </g>
    <g transform="matrix(2.6526466 0 0 .97951 66.673381 53.839853)">
      <rect fill="url(#linearGradient4143-0)" height="13.975356" rx=".262488" ry=".677778" stroke="url(#linearGradient326)" stroke-dashoffset="1.0878" stroke-width=".115719" width="14.590545" x="58.007027" y="526.92413"/>
      <path d="m58.338549 526.4375-.143664 10.88111-.03125.5c.547046.29818 1.084787.56141 1.65625.78125.0086.003.02263-.003.03125 0 1.706148.65221 3.512899.95145 5.3125.9375.30156-.002.605084-.011.90625-.0312.602332-.0406 1.216946-.10774 1.8125-.21875s1.168155-.25779 1.75-.4375c.872767-.26957 1.740076-.61203 2.5625-1.03125l-.03125-.5-.112414-10.88111z" fill="url(#radialGradient4147-4)" fill-rule="evenodd" filter="url(#filter3545-7)" transform="matrix(.9726411 0 0 .9272318 1.90627 39.593343)"/>
    </g>
    <g transform="matrix(1.4373334 0 0 .97951 -40.315735 25.239853)">
      <rect fill="url(#linearGradient4143-0)" height="13.975356" rx=".48443" ry=".677778" stroke="url(#linearGradient326)" stroke-dashoffset="1.0878" stroke-width=".157204" width="14.590545" x="58.007027" y="526.92413"/>
      <path d="m58.726135 526.4375-.53125 10.88111-.03125.5c.547046.29818 1.084787.56141 1.65625.78125.0086.003.02263-.003.03125 0 1.706148.65221 3.512899.95145 5.3125.9375.30156-.002.605084-.011.90625-.0312.602332-.0406 1.216946-.10774 1.8125-.21875s1.168155-.25779 1.75-.4375c.872767-.26957 1.740076-.61203 2.5625-1.03125l-.03125-.5-.5-10.88111z" fill="url(#radialGradient4147-4)" fill-rule="evenodd" filter="url(#filter3545-7)" transform="matrix(.9329728 0 0 .9272318 4.491822 39.593343)"/>
    </g>
    <g transform="matrix(1.7037034 0 0 .97951 -55.578913 39.639853)">
      <rect fill="url(#linearGradient4143-0)" height="13.975356" rx=".408691" ry=".677778" stroke="url(#linearGradient326)" stroke-dashoffset="1.0878" stroke-width=".144393" width="14.590545" x="58.007027" y="526.92413"/>
      <path d="m58.726135 526.4375-.53125 10.88111-.03125.5c.547046.29818 1.084787.56141 1.65625.78125.0086.003.02263-.003.03125 0 1.706148.65221 3.512899.95145 5.3125.9375.30156-.002.605084-.011.90625-.0312.602332-.0406 1.216946-.10774 1.8125-.21875s1.168155-.25779 1.75-.4375c.872767-.26957 1.740076-.61203 2.5625-1.03125l-.03125-.5-.5-10.88111z" fill="url(#radialGradient4147-4)" fill-rule="evenodd" filter="url(#filter3545-7)" transform="matrix(.9329728 0 0 .9272318 4.491822 39.593343)"/>
    </g>
    <g transform="matrix(2.178175 0 0 .97951 -83.069574 53.839853)">
      <rect fill="url(#linearGradient4143-0)" height="13.975356" rx=".319666" ry=".677778" stroke="url(#linearGradient326)" stroke-dashoffset="1.0878" stroke-width=".127702" width="14.590545" x="58.007027" y="526.92413"/>
      <path d="m58.538992 526.4375-.344107 10.88111-.03125.5c.547046.29818 1.084787.56141 1.65625.78125.0086.003.02263-.003.03125 0 1.706148.65221 3.512899.95145 5.3125.9375.30156-.002.605084-.011.90625-.0312.602332-.0406 1.216946-.10774 1.8125-.21875s1.168155-.25779 1.75-.4375c.872767-.26957 1.740076-.61203 2.5625-1.03125l-.03125-.5-.312857-10.88111z" fill="url(#radialGradient4147-4)" fill-rule="evenodd" filter="url(#filter3545-7)" transform="matrix(.9812821 0 0 .9272318 1.343059 39.593343)"/>
    </g>
    <g id="g4245-7" transform="matrix(.97951 0 0 .97951 12.67718 67.839853)">
      <rect fill="url(#linearGradient4143-0)" height="13.975356" rx=".710854" ry=".677778" stroke="url(#linearGradient326)" stroke-dashoffset="1.0878" stroke-width=".190431" width="14.590545" x="58.007027" y="526.92413"/>
      <path d="m58.726135 526.4375-.53125 10.88111-.03125.5c.547046.29818 1.084787.56141 1.65625.78125.0086.003.02263-.003.03125 0 1.706148.65221 3.512899.95145 5.3125.9375.30156-.002.605084-.011.90625-.0312.602332-.0406 1.216946-.10774 1.8125-.21875s1.168155-.25779 1.75-.4375c.872767-.26957 1.740076-.61203 2.5625-1.03125l-.03125-.5-.5-10.88111z" fill="url(#radialGradient4147-4)" fill-rule="evenodd" filter="url(#filter3545-7)" transform="matrix(.9329728 0 0 .9272318 4.491822 39.593343)"/>
    </g>
    <g transform="matrix(2.1615269 0 0 .97951 102.32444 67.839853)">
      <rect fill="url(#linearGradient4143-0)" height="13.975356" rx=".322128" ry=".677778" stroke="url(#linearGradient326)" stroke-dashoffset="1.0878" stroke-width=".128193" width="14.590545" x="58.007027" y="526.92413"/>
      <path d="m58.679773 526.4375-.484888 10.88111-.03125.5c.547046.29818 1.084787.56141 1.65625.78125.0086.003.02263-.003.03125 0 1.706148.65221 3.512899.95145 5.3125.9375.30156-.002.605084-.011.90625-.0312.602332-.0406 1.216946-.10774 1.8125-.21875s1.168155-.25779 1.75-.4375c.872767-.26957 1.740076-.61203 2.5625-1.03125l-.03125-.5-.360915-10.88111z" fill="url(#radialGradient4147-4)" fill-rule="evenodd" filter="url(#filter3545-7)" transform="matrix(.9978813 0 0 .9272318 .261136 39.593343)"/>
    </g>
    <rect fill="url(#linearGradient4287-3)" height="13.689001" rx=".696288" ry=".66389" stroke="url(#linearGradient4289-8)" stroke-dashoffset="1.0878" stroke-width=".18653" width="99.308411" x="98.924004" y="583.96729"/>
    <path d="m100.12234 585.07716-.710479 9.68009-.218651.44481c3.82765.26526 7.59022.49944 11.58873.69502.0603.003.15833-.003.21865 0 11.93787.58022 24.57966.84644 37.17141.83402 2.11001-.002 4.23376-.01 6.34101-.0278 4.2145-.0361 8.51494-.0959 12.68201-.19461 4.16708-.0987 8.17355-.22933 12.24471-.3892 6.10671-.23982 12.17525-.54449 17.92973-.91743l-.21865-.44481-.49184-9.68009z" fill="url(#radialGradient4314-5)" fill-rule="evenodd" filter="url(#filter4344-1)"/>
    <g transform="matrix(1.7682341 0 0 .97951 -59.357377 67.839853)">
      <rect fill="url(#linearGradient4143-0)" height="13.975356" rx=".393776" ry=".677778" stroke="url(#linearGradient326)" stroke-dashoffset="1.0878" stroke-width=".141734" width="14.590545" x="58.007027" y="526.92413"/>
      <path d="m58.726135 526.4375-.53125 10.88111-.03125.5c.547046.29818 1.084787.56141 1.65625.78125.0086.003.02263-.003.03125 0 1.706148.65221 3.512899.95145 5.3125.9375.30156-.002.605084-.011.90625-.0312.602332-.0406 1.216946-.10774 1.8125-.21875s1.168155-.25779 1.75-.4375c.872767-.26957 1.740076-.61203 2.5625-1.03125l-.03125-.5-.5-10.88111z" fill="url(#radialGradient4147-4)" fill-rule="evenodd" filter="url(#filter3545-7)" transform="matrix(.9329728 0 0 .9272318 4.491822 39.593343)"/>
    </g>
    <use id="use755-5" transform="translate(74.856228 -57.6)" xlink:href="#g4245-7"/>
    <use id="use757-9" transform="translate(72.390572)" xlink:href="#use755-5"/>
    <use id="use759-1" transform="translate(-14.47811)" xlink:href="#use757-9"/>
    <use id="use761-2" transform="translate(-14.47812)" xlink:href="#use759-1"/>
    <use id="use763-8" transform="translate(-14.47811)" xlink:href="#use761-2"/>
    <use id="use765-9" transform="translate(-14.47811)" xlink:href="#use763-8"/>
    <use id="use767-6" transform="translate(-28.956233)" xlink:href="#use765-9"/>
    <use id="use769-0" transform="translate(-14.478114)" xlink:href="#use767-6"/>
    <use id="use771-6" transform="translate(-14.478114)" xlink:href="#use769-0"/>
    <use id="use773-4" transform="translate(-14.478115)" xlink:href="#use771-6"/>
    <use id="use775-0" transform="translate(-14.478113)" xlink:href="#use773-4"/>
    <use id="use777-9" transform="translate(-14.478114)" xlink:href="#use775-0"/>
    <use id="use779-4" transform="translate(-14.478114)" xlink:href="#use777-9"/>
    <use id="use781-5" transform="translate(180.73737 15)" xlink:href="#use779-4"/>
    <use id="use783-4" transform="translate(-14.47811)" xlink:href="#use781-5"/>
    <use id="use785-6" transform="translate(-14.47812)" xlink:href="#use783-4"/>
    <use id="use787-6" transform="translate(-14.47811)" xlink:href="#use785-6"/>
    <use id="use789-3" transform="translate(-14.47811)" xlink:href="#use787-6"/>
    <use id="use791-9" transform="translate(-14.478122)" xlink:href="#use789-3"/>
    <use id="use793-9" transform="translate(-14.478111)" xlink:href="#use791-9"/>
    <use id="use795-5" transform="translate(-14.478114)" xlink:href="#use793-9"/>
    <use id="use797-2" transform="translate(-14.478114)" xlink:href="#use795-5"/>
    <use id="use799-1" transform="translate(-14.478115)" xlink:href="#use797-2"/>
    <use id="use801-3" transform="translate(-14.478113)" xlink:href="#use799-1"/>
    <use id="use803-0" transform="translate(-14.478114)" xlink:href="#use801-3"/>
    <use id="use805-9" transform="translate(148.78114 14.4)" xlink:href="#use803-0"/>
    <use id="use807-9" transform="translate(-14.47812)" xlink:href="#use805-9"/>
    <use id="use809-1" transform="translate(-14.47811)" xlink:href="#use807-9"/>
    <use id="use811-3" transform="translate(-14.47811)" xlink:href="#use809-1"/>
    <use id="use813-4" transform="translate(-14.478122)" xlink:href="#use811-3"/>
    <use id="use815-5" transform="translate(-14.478111)" xlink:href="#use813-4"/>
    <use id="use817-8" transform="translate(-14.478114)" xlink:href="#use815-5"/>
    <use id="use819-5" transform="translate(-14.478114)" xlink:href="#use817-8"/>
    <use id="use821-7" transform="translate(-14.478115)" xlink:href="#use819-5"/>
    <use id="use823-3" transform="translate(-14.478113)" xlink:href="#use821-7"/>
    <use id="use825-3" transform="translate(-14.478114)" xlink:href="#use823-3"/>
    <use id="use827-8" transform="translate(137.40302 14.2)" xlink:href="#use825-3"/>
    <use id="use829-9" transform="translate(-14.47811)" xlink:href="#use827-8"/>
    <use id="use831-5" transform="translate(-14.47811)" xlink:href="#use829-9"/>
    <use id="use833-5" transform="translate(-14.47812)" xlink:href="#use831-5"/>
    <use id="use835-3" transform="translate(-14.478113)" xlink:href="#use833-5"/>
    <use id="use837-8" transform="translate(-14.478114)" xlink:href="#use835-3"/>
    <use id="use839-6" transform="translate(-14.478114)" xlink:href="#use837-8"/>
    <use id="use841-0" transform="translate(-14.478115)" xlink:href="#use839-6"/>
    <use id="use843-3" transform="translate(-14.478113)" xlink:href="#use841-0"/>
    <use transform="translate(-14.478114)" xlink:href="#use843-3"/>
    <use transform="translate(14.399994)" xlink:href="#g4245-7"/>
    <use transform="translate(128.99999)" xlink:href="#g4245-7"/>
    <use transform="translate(143.39999)" xlink:href="#g4245-7"/>
  </g>
</svg>
