<svg enable-background="new 100.873 -104.477 263.043 263.042" height="256" viewBox="100.873 -104.477 256 256" width="256" xmlns="http://www.w3.org/2000/svg" xmlns:xlink="http://www.w3.org/1999/xlink">
  <defs>
    <filter id="filter3736" height="1.086207" width="1.033839" x="-.016919" y="-.043103">
      <feGaussianBlur stdDeviation=".94917551"/>
    </filter>
    <clipPath id="clipPath3750">
      <path d="m232.3945-96.257404c-68.09732 0-123.30141 55.204093-123.30141 123.301404 0 68.09731 55.20409 123.30141 123.30141 123.30141 68.09731 0 123.3014-55.205127 123.3014-123.30141s-55.20409-123.301404-123.3014-123.301404zm0 164.401872c-22.69877 0-41.10047-18.401707-41.10047-41.100468 0-22.698762 18.4017-41.100468 41.10047-41.100468 22.69978 0 41.10046 18.401706 41.10046 41.100468 0 22.698761-18.40068 41.100468-41.10046 41.100468z"/>
    </clipPath>
    <linearGradient gradientUnits="userSpaceOnUse" x1="137.81563" x2="314.59543" y1="-67.534854" y2="109.244936">
      <stop offset="0" stop-color="#c2c2d0"/>
      <stop offset=".5" stop-color="#fff"/>
      <stop offset="1" stop-color="#b3b2be"/>
    </linearGradient>
    <filter id="filter4330" height="1.562623" width="1.39964" x="-.19982" y="-.281312">
      <feGaussianBlur stdDeviation="3.4803895"/>
    </filter>
    <filter id="filter4236" height="1.061197" width="1.036349" x="-.018174" y="-.030598">
      <feGaussianBlur stdDeviation=".47892905"/>
    </filter>
    <filter id="filter4171" height="1.063889" width="1.085475" x="-.042738" y="-.031945">
      <feGaussianBlur stdDeviation=".84344359"/>
    </filter>
    <filter id="filter4155" height="1.099045" width="1.06261" x="-.031305" y="-.049523">
      <feGaussianBlur stdDeviation=".92807762"/>
    </filter>
    <mask id="mask3853" maskUnits="userSpaceOnUse">
      <path d="m-115.09711-75.000759c-56.83215 0-102.87962 46.11169-102.87962 102.943829 0 56.832134 46.04747 102.8796 102.87962 102.8796 56.832149 0 102.943828-46.047466 102.943828-102.8796 0-56.832139-46.111679-102.943829-102.943828-102.943829zm0 68.5864066c18.952909 0 34.357429 15.404511 34.357429 34.3574224 0 18.952911-15.40452 34.293204-34.357429 34.293204-18.95291 0-34.29321-15.340293-34.29321-34.293204 0-18.9529114 15.3403-34.3574224 34.29321-34.3574224z" fill="url(#radialGradient3857)"/>
    </mask>
    <radialGradient id="radialGradient3857" cx="-115.06501" cy="27.910955" fx="-79.102097" fy="89.561661" gradientUnits="userSpaceOnUse" r="102.91172">
      <stop offset="0" stop-color="#fff"/>
      <stop offset="1" stop-color="#fff" stop-opacity=".660714"/>
    </radialGradient>
    <filter id="filter3748" height="1.138049" width="1.101375" x="-.050688" y="-.069024">
      <feGaussianBlur stdDeviation="1.4159298"/>
    </filter>
    <filter id="filter3732" height="1.249702" width="1.16598" x="-.08299" y="-.124851">
      <feGaussianBlur stdDeviation="2.3427203"/>
    </filter>
    <filter id="filter4199-8" height="1.097598" width="1.094454" x="-.047227" y="-.048799">
      <feGaussianBlur stdDeviation="2.4476426"/>
    </filter>
    <linearGradient id="linearGradient2797-3">
      <stop offset="0" stop-color="#fff"/>
      <stop offset="1" stop-color="#fff" stop-opacity="0"/>
    </linearGradient>
    <filter id="filter5730" height="1.209389" width="1.181092" x="-.090546" y="-.104694">
      <feGaussianBlur stdDeviation="2.6277645"/>
    </filter>
    <filter id="filter5734" height="1.153567" width="1.114092" x="-.057046" y="-.076784">
      <feGaussianBlur stdDeviation="1.5207276"/>
    </filter>
    <linearGradient id="linearGradient5942" gradientUnits="userSpaceOnUse" x1="550.77389459962" x2="550.77389459962" y1="191.47330730196" y2="-188.15237669064">
      <stop offset="0" stop-color="#ffee93"/>
      <stop offset=".3773585" stop-color="#c57c00"/>
      <stop offset=".49483803" stop-color="#ffff7d"/>
      <stop offset="1" stop-color="#ffe171"/>
    </linearGradient>
    <linearGradient id="linearGradient5946" gradientUnits="userSpaceOnUse" x1="356.38586" x2="232" xlink:href="#linearGradient2797-3" y1="29.125801" y2="-63.069511"/>
    <linearGradient id="linearGradient5952" gradientUnits="userSpaceOnUse" x1="-123.7238" x2="-120.18929" y1="53.933527" y2="48.839929">
      <stop offset="0" stop-color="#e0d"/>
      <stop offset=".5" stop-color="#ae0"/>
      <stop offset="1" stop-color="#8d0083"/>
    </linearGradient>
    <linearGradient id="linearGradient5954" gradientUnits="userSpaceOnUse" x1="-127.20025" x2="-122.62708" y1="57.277845" y2="52.362814">
      <stop offset="0" stop-color="#00e0e0"/>
      <stop offset=".5" stop-color="#e0d800"/>
      <stop offset=".75" stop-color="#00dcd1"/>
      <stop offset="1" stop-color="#e000b4"/>
    </linearGradient>
    <linearGradient id="linearGradient5956" gradientUnits="userSpaceOnUse" x1="220.70064369547" x2="248.16507750931" y1="55.09698256669" y2="27.63254776494">
      <stop offset="0" stop-color="#473a56"/>
      <stop offset=".5" stop-color="#c4c4c4"/>
      <stop offset="1" stop-color="#282131"/>
    </linearGradient>
    <clipPath id="clipPath4100">
      <path d="m664.33473-117.70671v281.08867h282.30884v-281.08867zm140.7691 29.476739c64.07917 0 115.98038 51.96642 115.98038 116.044602 0 64.078195-51.90121 116.044599-115.98038 116.044599-64.07916 0-116.0446-51.965443-116.0446-116.044599 0-64.079149 51.96544-116.044602 116.0446-116.044602zm-.3211 100.824585c-8.54055 0-15.47689 6.93509-15.47689 15.476895 0 8.542786 6.93634 15.476895 15.47689 15.476895 8.54056 0 15.4769-6.934109 15.4769-15.476895 0-8.541805-6.93634-15.476895-15.4769-15.476895z"/>
    </clipPath>
    <filter id="filter4215" height="1.058244" width="1.058261" x="-.02913" y="-.029122">
      <feGaussianBlur stdDeviation="2.8162269"/>
    </filter>
    <filter id="filter4227" height="1.011649" width="1.011652" x="-.005826" y="-.005824">
      <feGaussianBlur stdDeviation=".56324537"/>
    </filter>
    <linearGradient id="linearGradient3874" gradientUnits="userSpaceOnUse" x1="228.804612" x2="166.611712" xlink:href="#linearGradient2797-3" y1="90.106983" y2="29.91753"/>
    <clipPath id="XMLID_17_-1">
      <path d="m232.5-92.699c-66.274 0-120 53.726-120 120s53.726 120 120 120 120-53.727 120-120-53.726-120-120-120zm0 163.44c-23.991 0-43.44-19.449-43.44-43.44 0-23.99 19.449-43.439 43.44-43.439 23.992 0 43.439 19.449 43.439 43.439 0 23.991-19.447 43.44-43.439 43.44z" height="263.04199" width="263.043"/>
    </clipPath>
  </defs>
  <path clip-path="url(#clipPath4100)" d="m805.10383-84.119925c-64.07916 0-116.0446 51.965451-116.0446 116.044603 0 64.079158 51.96544 116.044602 116.0446 116.044602 64.07917 0 115.98038-51.966406 115.98038-116.044602 0-64.078184-51.90121-116.044603-115.98038-116.044603zm-.3211 100.824586c8.54056 0 15.4769 6.935089 15.4769 15.476895 0 8.542785-6.93634 15.476895-15.4769 15.476895-8.54055 0-15.47689-6.93411-15.47689-15.476895 0-8.541806 6.93634-15.476895 15.47689-15.476895z" filter="url(#filter4215)" opacity=".440594" transform="translate(-576.19871 -4.401675)"/>
  <path clip-path="url(#clipPath4100)" d="m805.10383-86.174948c-64.07916 0-116.0446 51.965451-116.0446 116.044603 0 64.079158 51.96544 116.044605 116.0446 116.044605 64.07917 0 115.98038-51.966409 115.98038-116.044605 0-64.078184-51.90121-116.044603-115.98038-116.044603zm-.3211 100.824586c8.54056 0 15.4769 6.935089 15.4769 15.476895 0 8.542785-6.93634 15.476895-15.4769 15.476895-8.54055 0-15.47689-6.93411-15.47689-15.476895 0-8.541806 6.93634-15.476895 15.47689-15.476895z" filter="url(#filter4227)" opacity=".232673" transform="translate(-576.19871 -4.401675)"/>
  <g transform="matrix(.64996506 0 0 .64996506 -134.91908 18.575838)">
    <path d="m559.73405-171.05208c-98.58863 0-178.51094 79.922314-178.51094 178.5109278 0 98.5886222 79.92231 178.5109522 178.51094 178.5109522s178.51094-79.92381 178.51094-178.5109522c0-98.5871238-79.92231-178.5109278-178.51094-178.5109278zm0 238.014583c-32.8624 0-59.50366-26.641274-59.50366-59.5036552 0-32.8623628 26.64126-59.5036408 59.50366-59.5036408 32.86385 0 59.50364 26.641278 59.50364 59.5036408 0 32.8623812-26.63979 59.5036552-59.50364 59.5036552z" fill="url(#linearGradient5942)"/>
    <path d="m559.29312-51.644899c-32.84781 0-59.47729 26.636393-59.47729 59.4927628 0 32.8563702 26.62948 59.4927742 59.47729 59.4927742 32.84934 0 59.47733-26.636404 59.47733-59.4927742 0-32.8563698-26.62799-59.4927628-59.47733-59.4927628zm0 83.289872c-13.14002 0-23.79091-10.653657-23.79091-23.7971092 0-13.141945 10.65089-23.7971088 23.79091-23.7971088 13.14004 0 23.79095 10.6551638 23.79095 23.7971088 0 13.1434522-10.65091 23.7971092-23.79095 23.7971092z" fill="#fff" opacity=".5"/>
    <path d="m232.40625-74.8125c-56.62913 0-102.53125 45.902126-102.53125 102.53125 0 56.629121 45.90212 102.53125 102.53125 102.53125 56.62912 0 102.53125-45.902988 102.53125-102.53125 0-56.628265-45.90213-102.53125-102.53125-102.53125zm0 .90625c56.12208 0 101.625 45.502926 101.625 101.625 0 56.121193-45.50292 101.625-101.625 101.625s-101.625-45.503804-101.625-101.625c0-56.122075 45.50292-101.625 101.625-101.625z" fill="#2b383d" fill-opacity=".502646" transform="matrix(1.7404128 0 0 1.7404128 155.25119 -40.930326)"/>
    <path d="m559.29312-51.644899c-32.84781 0-59.47729 26.636393-59.47729 59.4927628 0 32.8563702 26.62948 59.4927742 59.47729 59.4927742 32.84934 0 59.47733-26.636404 59.47733-59.4927742 0-32.8563698-26.62799-59.4927628-59.47733-59.4927628zm0 95.188435c-19.67805 0-35.68639-16.013967-35.68639-35.6956722 0-19.6816878 16.00834-35.6956538 35.68639-35.6956538 19.6766 0 35.68639 16.012477 35.68639 35.6956538 0 19.6831952-16.00979 35.6956722-35.68639 35.6956722z" fill="none" opacity=".5"/>
    <g clip-path="url(#XMLID_17_-1)" opacity=".6" transform="matrix(1.4869328 0 0 1.4873192 213.93765 -33.113821)">
      <path d="m356.38585-18.607418-124.38585 45.607418 41.59529-120.378925z" fill="url(#linearGradient5946)" filter="url(#filter4199-8)" opacity=".8"/>
      <path d="m356.38585-18.607418-124.38585 45.607418 41.59529-120.378925z" fill="url(#linearGradient5946)" filter="url(#filter4199-8)" opacity=".8"/>
      <path d="m104.41879 75.524947 124.38583-45.607418-41.59529 120.378901z" fill="url(#linearGradient3874)" filter="url(#filter4199-8)" opacity=".8"/>
    </g>
    <path d="m559.29312-27.84779c-19.67805 0-35.68639 16.012477-35.68639 35.6956538 0 19.6831952 16.00834 35.6956722 35.68639 35.6956722 19.6766 0 35.68639-16.013967 35.68639-35.6956722 0-19.6816878-16.00979-35.6956538-35.68639-35.6956538z" fill="none" stroke="#d0d0d0" stroke-width="1.78511"/>
    <path d="m559.29312-27.84779c-19.67805 0-35.68639 16.012477-35.68639 35.6956538 0 19.6831952 16.00834 35.6956722 35.68639 35.6956722 19.6766 0 35.68639-16.013967 35.68639-35.6956722 0-19.6816878-16.00979-35.6956538-35.68639-35.6956538zm0 59.492763c-13.14002 0-23.79091-10.653657-23.79091-23.7971092 0-13.141945 10.65089-23.7971088 23.79091-23.7971088 13.14004 0 23.79095 10.6551638 23.79095 23.7971088 0 13.1434522-10.65091 23.7971092-23.79095 23.7971092z" fill="#fff" opacity=".2"/>
    <path d="m559.29312-27.84779c-19.67805 0-35.68639 16.012477-35.68639 35.6956538 0 19.6831952 16.00834 35.6956722 35.68639 35.6956722 19.6766 0 35.68639-16.013967 35.68639-35.6956722 0-19.6816878-16.00979-35.6956538-35.68639-35.6956538zm0 59.492763c-13.14002 0-23.79091-10.653657-23.79091-23.7971092 0-13.141945 10.65089-23.7971088 23.79091-23.7971088 13.14004 0 23.79095 10.6551638 23.79095 23.7971088 0 13.1434522-10.65091 23.7971092-23.79095 23.7971092z" fill="none" opacity=".5"/>
    <path d="m559.29312-63.543466c-39.35464 0-71.37279 32.026465-71.37279 71.3913298 0 39.3648832 32.01815 71.3913292 71.37279 71.3913292 39.35467 0 71.3728-32.026446 71.3728-71.3913292 0-39.3648648-32.01813-71.3913298-71.3728-71.3913298zm0 130.884104c-32.84781 0-59.47729-26.636404-59.47729-59.4927742 0-32.8563698 26.62948-59.4927628 59.47729-59.4927628 32.84934 0 59.47733 26.636393 59.47733 59.4927628 0 32.8563702-26.62799 59.4927742-59.47733 59.4927742z" fill="#323232" opacity=".1"/>
    <g mask="url(#mask3853)" opacity=".529703" transform="matrix(1.7342138 0 0 1.7342138 759.08652 -40.707643)">
      <g>
        <path d="m-100.8953 67.674953-66.02442-44.977191-5.12652 3.71231z" fill="#ff11f7" fill-opacity=".497326" filter="url(#filter4155)" opacity=".70297" transform="matrix(2.0550234 0 0 2.0550234 100.873 -104.4775)"/>
        <path d="m-101.07208 67.719147-37.39637-68.8080508-9.9685 6.0923376z" fill="#096eff" fill-opacity=".058201" filter="url(#filter4171)" transform="matrix(2.0550234 0 0 2.0550234 100.873 -104.4775)"/>
        <path d="m-100.9395 68.028506-65.9377-45.033862-11.84404 16.263455z" fill="#ff7e7e" fill-opacity=".31746" filter="url(#filter3732)" transform="matrix(2.0550234 0 0 2.0550234 100.873 -104.4775)"/>
        <path d="m-101.07208 67.586564-65.62834-46.182911-2.12132 3.18198z" fill="#ff7e7e" fill-opacity=".454545" filter="url(#filter3732)" transform="matrix(2.0550234 0 0 2.0550234 100.873 -104.4775)"/>
        <path d="m-100.71853 67.984312-64.21412-49.232309-2.82843 3.535533z" fill="#ff1" fill-opacity=".497326" filter="url(#filter3748)" opacity=".613861" transform="matrix(2.0550234 0 0 2.0550234 100.873 -104.4775)"/>
        <path d="m-100.85111 68.0727-69.65134-45.279454 16.05622-14.9590176z" fill="#f4ff0f" fill-opacity=".338624" filter="url(#filter5730)" transform="matrix(2.0550234 0 0 2.0550234 100.873 -104.4775)"/>
        <path d="m-101.07208 67.719147-45.55646-63.3679876-5.88846 4.0523139z" fill="#096eff" fill-opacity=".301587" filter="url(#filter4171)" transform="matrix(2.0550234 0 0 2.0550234 100.873 -104.4775)"/>
      </g>
      <g transform="matrix(-1 0 -0 -1 -229.83094 49.030172)">
        <path d="m-99.834642 64.979108-59.441158-37.565047-3.80348 14.606323z" fill="url(#linearGradient5952)" filter="url(#filter4236)" opacity=".118812" transform="matrix(2.0550234 0 0 2.0550234 100.873 -104.4775)"/>
        <path d="m-100.01142 64.89072-52.43407-29.692819-7.49314 10.968534z" fill="url(#linearGradient5954)" filter="url(#filter4330)" opacity=".074257" transform="matrix(2.0550234 0 0 2.0550234 100.873 -104.4775)"/>
        <path d="m-99.833485 65.071176-52.558355-47.532878-11.4209 11.214611z" fill="#f4ff0f" fill-opacity=".306878" filter="url(#filter5734)" transform="matrix(2.0550234 0 0 2.0550234 100.873 -104.4775)"/>
        <path d="m-100.01142 64.89072-34.30919-51.886544-7.49314 10.968534z" fill="url(#linearGradient5954)" filter="url(#filter4330)" opacity=".074257" transform="matrix(2.0550234 0 0 2.0550234 100.873 -104.4775)"/>
      </g>
    </g>
    <path d="m234.40625 25.78125c-7.60347 0-13.75 6.115184-13.75 13.71875s6.14628 13.8125 13.75 13.8125c7.60375 0 13.78125-6.208848 13.78125-13.8125s-6.17775-13.71875-13.78125-13.71875zm0 .59375c7.26625 0 13.1875 5.858945 13.1875 13.125 0 7.266057-5.92152 13.21875-13.1875 13.21875-7.26596 0-13.15625-5.952603-13.15625-13.21875 0-7.266145 5.89002-13.125 13.15625-13.125z" fill="url(#linearGradient5956)" transform="matrix(1.732116 0 0 1.732116 153.24429 -60.640916)"/>
  </g>
  <g clip-path="url(#clipPath3750)" transform="matrix(.93362979 0 0 .93362979 12.296967 -1.332022)">
    <path d="m238.54702 22.905514 128.94274-52.850202 5.69789 4.177962z" fill="#fff" filter="url(#filter3736)"/>
    <path d="m226.56916 27.006292-128.94274 52.85021-5.69789-4.17797z" fill="#fff" filter="url(#filter3736)" transform="matrix(1.033133 0 0 1.033133 -5.276388 -1.770341)"/>
  </g>
</svg>
