<svg enable-background="new 100.873 -104.477 263.043 263.042" height="256" viewBox="100.873 -104.477 256 256" width="256" xmlns="http://www.w3.org/2000/svg" xmlns:xlink="http://www.w3.org/1999/xlink">
  <defs>
    <linearGradient id="linearGradient4042">
      <stop offset="0" stop-color="#fff"/>
      <stop offset="1" stop-color="#fff" stop-opacity="0"/>
    </linearGradient>
    <linearGradient id="linearGradient3712">
      <stop offset="0" stop-color="#50d1ff"/>
      <stop offset="1" stop-color="#fff" stop-opacity="0"/>
    </linearGradient>
    <filter id="filter4199-8" height="1.714698" width="2.106676" x="-.553338" y="-.357349">
      <feGaussianBlur stdDeviation="2.4476426"/>
    </filter>
    <linearGradient id="linearGradient5942" gradientUnits="userSpaceOnUse" x1="422.8064767413" x2="678.74134141314" y1="-129.46870379146" y2="126.46614640278">
      <stop offset="0" stop-color="#0065b1"/>
      <stop offset=".5" stop-color="#0288e9"/>
      <stop offset="1" stop-color="#015b99"/>
    </linearGradient>
    <linearGradient id="linearGradient5946" gradientUnits="userSpaceOnUse" x1="356.38586" x2="232" xlink:href="#linearGradient4042" y1="27" y2="-65.195312"/>
    <linearGradient id="linearGradient5956" gradientUnits="userSpaceOnUse" x1="220.70064369547" x2="248.16507750931" y1="53.27161656669" y2="25.80718176494">
      <stop offset="0" stop-color="#473a56"/>
      <stop offset=".5" stop-color="#c4c4c4"/>
      <stop offset="1" stop-color="#282131"/>
    </linearGradient>
    <clipPath id="clipPath4100">
      <path d="m664.33473-117.70671v281.08867h282.30884v-281.08867zm140.7691 29.476739c64.07917 0 115.98038 51.96642 115.98038 116.044602 0 64.078195-51.90121 116.044599-115.98038 116.044599-64.07916 0-116.0446-51.965443-116.0446-116.044599 0-64.079149 51.96544-116.044602 116.0446-116.044602zm-.3211 100.824585c-8.54055 0-15.47689 6.93509-15.47689 15.476895 0 8.542786 6.93634 15.476895 15.47689 15.476895 8.54056 0 15.4769-6.934109 15.4769-15.476895 0-8.541805-6.93634-15.476895-15.4769-15.476895z"/>
    </clipPath>
    <filter id="filter4108" height="1.034947" width="1.034956" x="-.017478" y="-.017473">
      <feGaussianBlur stdDeviation="1.6897361"/>
    </filter>
    <linearGradient id="linearGradient2938" gradientUnits="userSpaceOnUse" x1="236.022781" x2="129.189881" xlink:href="#linearGradient3712" y1="114.74194" y2="43.855381"/>
    <linearGradient id="linearGradient3724" gradientUnits="userSpaceOnUse" spreadMethod="reflect" x1="487.92032" x2="559.29315" y1="79.239197" y2="7.847864">
      <stop offset="0" stop-color="#c2c2d0"/>
      <stop offset=".5" stop-color="#fff"/>
      <stop offset="1" stop-color="#b3b2be"/>
    </linearGradient>
    <linearGradient id="linearGradient3730" gradientUnits="userSpaceOnUse" x1="208.439581" x2="104.114241" xlink:href="#linearGradient3712" y1="25.699415" y2="45.778275"/>
    <radialGradient id="radialGradient3736" cx="236.02278" cy="27.945021" gradientTransform="matrix(7.1367111 0 0 6.8330062 -1448.4036 -165.24908)" gradientUnits="userSpaceOnUse" r="52.769085" xlink:href="#linearGradient3712"/>
    <radialGradient id="radialGradient3756" cx="236.02278" cy="27.945021" gradientTransform="matrix(7.1367111 0 0 6.8330062 -1448.4036 -165.24908)" gradientUnits="userSpaceOnUse" r="52.769085">
      <stop offset="0" stop-color="#002b74"/>
      <stop offset="1" stop-color="#fff" stop-opacity="0"/>
    </radialGradient>
    <filter id="filter3812" height="1.094036" width="1.042196" x="-.021098" y="-.047018">
      <feGaussianBlur stdDeviation=".57177192"/>
    </filter>
    <filter id="filter3828" height="1.136563" width="1.404777" x="-.202388" y="-.068282">
      <feGaussianBlur stdDeviation="1.4767843"/>
    </filter>
    <filter id="filter3838" height="1.044263" width="1.049202" x="-.024601" y="-.022131">
      <feGaussianBlur stdDeviation=".47865566"/>
    </filter>
    <clipPath id="clipPath3987">
      <path d="m233.71816-86.194788c-63.3459 0-114.70181 51.35593-114.70181 114.701834 0 63.345905 51.35591 114.701834 114.70181 114.701834s114.70183-51.355929 114.70183-114.701834c0-63.345904-51.35593-114.701834-114.70183-114.701834zm0 69.062979c25.2057 0 45.63886 20.4331557 45.63886 45.638855 0 25.2057-20.43316 45.638855-45.63886 45.638855-25.20569 0-45.63885-20.433155-45.63885-45.638855 0-25.2056993 20.43316-45.638855 45.63885-45.638855z"/>
    </clipPath>
    <linearGradient id="linearGradient4048" gradientUnits="userSpaceOnUse" x1="224.668725" x2="237.596745" xlink:href="#linearGradient4042" y1="116.447551" y2="76.631478"/>
    <linearGradient id="linearGradient4056" gradientUnits="userSpaceOnUse" x1="236.679035" x2="252.702245" xlink:href="#linearGradient4042" y1="115.071171" y2="75.551216"/>
    <linearGradient id="linearGradient4058" gradientUnits="userSpaceOnUse" x1="230.181615" x2="236.841405" xlink:href="#linearGradient4042" y1="126.594241" y2="101.739561"/>
    <linearGradient id="linearGradient4060" gradientUnits="userSpaceOnUse" x1="250.160635" x2="262.066205" xlink:href="#linearGradient4042" y1="114.822501" y2="111.566881"/>
    <clipPath id="XMLID_17_-1">
      <path d="m232.5-92.699c-66.274 0-120 53.726-120 120s53.726 120 120 120 120-53.727 120-120-53.726-120-120-120zm0 163.44c-23.991 0-43.44-19.449-43.44-43.44 0-23.99 19.449-43.439 43.44-43.439 23.992 0 43.439 19.449 43.439 43.439 0 23.991-19.447 43.44-43.439 43.44z" height="263.04199" width="263.043"/>
    </clipPath>
  </defs>
  <path clip-path="url(#clipPath4100)" d="m805.10383-86.174948c-64.07916 0-116.0446 51.965451-116.0446 116.044603 0 64.079158 51.96544 116.044605 116.0446 116.044605 64.07917 0 115.98038-51.966409 115.98038-116.044605 0-64.078184-51.90121-116.044603-115.98038-116.044603zm-.3211 100.824586c8.54056 0 15.4769 6.935089 15.4769 15.476895 0 8.542785-6.93634 15.476895-15.4769 15.476895-8.54055 0-15.47689-6.93411-15.47689-15.476895 0-8.541806 6.93634-15.476895 15.47689-15.476895z" filter="url(#filter4108)" opacity=".440594" transform="translate(-576.19872 -4.346649)"/>
  <g transform="matrix(.64996506 0 0 .64996506 -134.91909 18.630864)">
    <path d="m559.73405-171.05208c-98.58863 0-178.51094 79.922314-178.51094 178.5109278 0 98.5886222 79.92231 178.5109522 178.51094 178.5109522s178.51094-79.92381 178.51094-178.5109522c0-98.5871238-79.92231-178.5109278-178.51094-178.5109278zm0 238.014583c-32.8624 0-59.50366-26.641274-59.50366-59.5036552 0-32.8623628 26.64126-59.5036408 59.50366-59.5036408 32.86385 0 59.50364 26.641278 59.50364 59.5036408 0 32.8623812-26.63979 59.5036552-59.50364 59.5036552z" fill="url(#linearGradient5942)"/>
    <path d="m559.29312-51.644899c-32.84781 0-59.47729 26.636393-59.47729 59.4927628 0 32.8563702 26.62948 59.4927742 59.47729 59.4927742 32.84934 0 59.47733-26.636404 59.47733-59.4927742 0-32.8563698-26.62799-59.4927628-59.47733-59.4927628zm0 83.289872c-13.14002 0-23.79091-10.653657-23.79091-23.7971092 0-13.141945 10.65089-23.7971088 23.79091-23.7971088 13.14004 0 23.79095 10.6551638 23.79095 23.7971088 0 13.1434522-10.65091 23.7971092-23.79095 23.7971092z" fill="#fff" opacity=".5"/>
    <path d="m231.0625-75.1875c-56.22574.712228-101.5625 46.511576-101.5625 102.90625 0 56.838724 46.06751 102.90625 102.90625 102.90625 56.83873 0 102.90625-46.068382 102.90625-102.90625 0-56.837871-46.06752-102.90625-102.90625-102.90625-.44405 0-.90103-.0056-1.34375 0zm1.34375 1.65625c55.91249 0 101.25 45.337511 101.25 101.25 0 55.911604-45.33751 101.25-101.25 101.25s-101.25-45.338393-101.25-101.25c0-55.91249 45.33751-101.25 101.25-101.25z" fill="#2b2f3d" fill-opacity=".502646" transform="matrix(1.7353897 0 0 1.7353897 156.41859 -40.568791)"/>
    <path d="m559.29312-51.644899c-32.84781 0-59.47729 26.636393-59.47729 59.4927628 0 32.8563702 26.62948 59.4927742 59.47729 59.4927742 32.84934 0 59.47733-26.636404 59.47733-59.4927742 0-32.8563698-26.62799-59.4927628-59.47733-59.4927628zm0 95.188435c-19.67805 0-35.68639-16.013967-35.68639-35.6956722 0-19.6816878 16.00834-35.6956538 35.68639-35.6956538 19.6766 0 35.68639 16.012477 35.68639 35.6956538 0 19.6831952-16.00979 35.6956722-35.68639 35.6956722z" fill="none" opacity=".5"/>
    <g clip-path="url(#XMLID_17_-1)" opacity=".6" transform="matrix(1.4869328 0 0 1.4873192 213.93765 -33.113821)">
      <path d="m356.38585-18.607418-124.38585 45.607418 41.59529-120.378925z" fill="url(#linearGradient5946)" filter="url(#filter4199-8)" opacity=".8"/>
      <path d="m111.63693 71.306835 124.38585-45.607418-41.59529 120.378923c-44.79425-13.46188-67.9464-41.34808-82.79056-74.771505z" fill="url(#linearGradient2938)" filter="url(#filter4199-8)" opacity=".8"/>
      <path d="m90.322636-13.928189 145.700144 39.627606-136.882718-1.206332c-44.794252-13.46188 6.026728-4.997849-8.817426-38.421274z" fill="url(#linearGradient3730)" filter="url(#filter4199-8)" opacity=".8"/>
      <path d="m145.48904-75.347544 90.53374 101.046961-105.53817-90.201725z" fill="url(#radialGradient3736)" filter="url(#filter4199-8)" opacity=".8"/>
      <path d="m142.98148-64.066438 93.0413 89.765855-108.04573-78.920619z" fill="url(#radialGradient3736)" filter="url(#filter4199-8)" opacity=".8"/>
      <path d="m137.96635-61.559526 98.05643 87.258943-104.28438-83.934444z" fill="url(#radialGradient3736)" filter="url(#filter4199-8)" opacity=".8"/>
      <path d="m137.96635-61.559526 98.05643 87.258943-104.28438-83.934444z" fill="url(#radialGradient3736)" filter="url(#filter4199-8)" opacity=".8"/>
      <path d="m389.97653 95.122504-153.95375-69.423087 133.93419 87.789063z" fill="url(#radialGradient3736)" filter="url(#filter4199-8)" opacity=".8"/>
      <path d="m321.01852 121.44508-84.99574-95.745663 72.49887 105.337453z" fill="url(#radialGradient3736)" filter="url(#filter4199-8)" opacity=".8"/>
      <path d="m364.274 118.31144-128.25122-92.612023 108.23166 110.978003z" fill="url(#radialGradient3756)" filter="url(#filter4199-8)" opacity=".8"/>
      <path d="m367.40845 115.80453-131.38567-90.105113 123.90393 98.443443z" fill="url(#radialGradient3756)" filter="url(#filter4199-8)" opacity=".8"/>
      <path d="m388.72274 9.2607497-152.69996 16.4386673 148.97957-6.846881z" fill="url(#radialGradient3756)" filter="url(#filter4199-8)" opacity=".8"/>
      <path d="m240.77647-102.29686-4.75369 127.996277-5.8625-127.805407z" fill="url(#radialGradient3756)" filter="url(#filter4199-8)" opacity=".8"/>
      <path d="m240.77647-102.29686-4.75369 127.996277-5.8625-127.805407z" fill="url(#radialGradient3756)" filter="url(#filter4199-8)" opacity=".8"/>
      <path d="m230.11932-103.55032 5.90346 129.249737-16.51965-129.058867z" fill="url(#radialGradient3756)" filter="url(#filter4199-8)" opacity=".8"/>
      <path d="m230.11932-103.55032 5.90346 129.249737-67.92471-120.911401z" fill="url(#radialGradient3756)" filter="url(#filter4199-8)" opacity=".8"/>
      <path d="m248.92605 169.07641-12.90327-143.376993-10.87763 149.835143z" fill="url(#radialGradient3756)" filter="url(#filter4199-8)" opacity=".8"/>
      <path d="m248.92605 169.07641-12.90327-143.376993 2.28708 144.821323z" fill="url(#radialGradient3756)" filter="url(#filter4199-8)" opacity=".8"/>
      <path d="m248.92605 169.07641-12.90327-143.376993 2.28708 144.821323z" fill="url(#radialGradient3756)" filter="url(#filter4199-8)" opacity=".8"/>
      <path d="m248.92605 169.07641-12.90327-143.376993 2.28708 144.821323z" fill="url(#radialGradient3756)" filter="url(#filter4199-8)" opacity=".8"/>
    </g>
    <path d="m559.29312-27.84779c-19.67805 0-35.68639 16.012477-35.68639 35.6956538 0 19.6831952 16.00834 35.6956722 35.68639 35.6956722 19.6766 0 35.68639-16.013967 35.68639-35.6956722 0-19.6816878-16.00979-35.6956538-35.68639-35.6956538z" fill="none" stroke="#d0d0d0" stroke-width="1.78511"/>
    <path d="m559.29312-27.84779c-19.67805 0-35.68639 16.012477-35.68639 35.6956538 0 19.6831952 16.00834 35.6956722 35.68639 35.6956722 19.6766 0 35.68639-16.013967 35.68639-35.6956722 0-19.6816878-16.00979-35.6956538-35.68639-35.6956538zm0 59.492763c-13.14002 0-23.79091-10.653657-23.79091-23.7971092 0-13.141945 10.65089-23.7971088 23.79091-23.7971088 13.14004 0 23.79095 10.6551638 23.79095 23.7971088 0 13.1434522-10.65091 23.7971092-23.79095 23.7971092z" fill="#fff" opacity=".2"/>
    <path d="m559.29312-27.84779c-19.67805 0-35.68639 16.012477-35.68639 35.6956538 0 19.6831952 16.00834 35.6956722 35.68639 35.6956722 19.6766 0 35.68639-16.013967 35.68639-35.6956722 0-19.6816878-16.00979-35.6956538-35.68639-35.6956538zm0 59.492763c-13.14002 0-23.79091-10.653657-23.79091-23.7971092 0-13.141945 10.65089-23.7971088 23.79091-23.7971088 13.14004 0 23.79095 10.6551638 23.79095 23.7971088 0 13.1434522-10.65091 23.7971092-23.79095 23.7971092z" fill="none" opacity=".5"/>
    <path d="m234.40625 25.78125c-7.60347 0-13.75 6.115184-13.75 13.71875s6.14628 13.8125 13.75 13.8125c7.60375 0 13.78125-6.208848 13.78125-13.8125s-6.17775-13.71875-13.78125-13.71875zm0 .59375c7.26625 0 13.1875 5.858945 13.1875 13.125 0 7.266057-5.92152 13.21875-13.1875 13.21875-7.26596 0-13.15625-5.952603-13.15625-13.21875 0-7.266145 5.89002-13.125 13.15625-13.125z" fill="url(#linearGradient5956)" transform="matrix(1.732116 0 0 1.732116 153.24429 -60.640916)"/>
    <path d="m559.60929-63.200514c-38.99129 0-70.71383 31.730778-70.71383 70.7322034 0 39.0014436 31.72254 70.7322036 70.71383 70.7322036 38.99132 0 70.71384-31.73076 70.71384-70.7322036 0-39.0014254-31.72252-70.7322034-70.71384-70.7322034zm0 129.675707c-32.54454 0-58.92816-26.390482-58.92816-58.9435036 0-32.5530204 26.38362-58.9434904 58.92816-58.9434904 32.54605 0 58.9282 26.39047 58.9282 58.9434904 0 32.5530216-26.38215 58.9435036-58.9282 58.9435036z" fill="url(#linearGradient3724)"/>
  </g>
  <g clip-path="url(#clipPath3987)" transform="translate(-4.695365 -4.346649)">
    <path d="m64.208469 63.791531-65.04234522 25.850163 5.83713352 3.335505z" fill="#fff" fill-opacity=".767196" filter="url(#filter3812)" transform="matrix(2.0550234 0 0 2.0550234 106.01391 -107.04795)"/>
    <path d="m64.208469 63.791531 34.606737-53.161536 5.837134 3.335505z" fill="#0266c4" fill-opacity=".677249" filter="url(#filter3828)" transform="matrix(2.0550234 0 0 2.0550234 106.01391 -107.04795)"/>
    <path d="m64.208469 63.791531-65.04234522 25.850163 5.83713352 3.335505z" fill="#fff" fill-opacity=".767196" filter="url(#filter3812)" transform="matrix(-2.0550234 0 0 -2.0550234 351.06373 163.7064)"/>
    <path d="m64.208469 63.791531 11.67514 60.245629 5.837134 3.33551z" fill="#0266c4" fill-opacity=".677249" filter="url(#filter3828)" transform="matrix(2.0550234 0 0 2.0550234 106.01391 -107.04795)"/>
    <path d="m64.208469 63.791531-45.028444 51.906869-4.586319-3.3355z" fill="#0266c4" fill-opacity=".677249" filter="url(#filter3828)" transform="matrix(2.0550234 0 0 2.0550234 106.01391 -107.04795)"/>
    <path d="m64.208469 63.791531-45.028444 51.906869-1.667752-.41693z" fill="#0266c4" fill-opacity=".677249" filter="url(#filter3838)" transform="matrix(2.0550234 0 0 2.0550234 106.01391 -107.04795)"/>
  </g>
  <path d="m248.58186 114.06896h-.94739v-.10529-.10528h1.10528 1.1052v.21057h-.94739v1.71921h-.15781-.15789zm1.71915-.21054h.44032l.75404 1.61349.75705-1.59594.4344-.02v1.93306h-.28064l-.0262-1.56481-.73286 1.54726h-.29648l-.74251-1.56009-.0262 1.57764h-.28073l-.00017-1.93062z" fill="url(#linearGradient4060)"/>
  <path d="m230.21443 123.15829c-.43263-.0367-.51908-.0607-.62906-.17547-.12893-.13463-.11721-.331.0262-.43775.0952-.0708.14833-.0743 1.35648-.0912l1.25736-.0175.13474-.10829c.12321-.099.25833-.27908.46076-.6139l.076-.12574-.77993-.00093c-.99267-.00094-1.29262-.0536-1.52553-.26655-.0975-.0892-.10851-.3563-.0215-.52657.0319-.0617.32517-.54647.6526-1.07714.58039-.94072.83206-1.27295 1.05147-1.38859.0973-.0513.94184-.0741 1.06027-.0287.0731.0282.0722.22888 0 .37516-.031.0617-.30557.5149-.60946 1.00698-.30389.49209-.5639.93134-.57777.97614-.0169.0559-.009.10274.0356.14912.0544.0596.11095.0676.47792.0676.47163 0 .58668-.0328.76904-.21914.0656-.067.3638-.52058.66291-1.00808.81386-1.32654.86291-1.36912 1.57476-1.36912.47078 0 .56548.0269.56548.16086 0 .11908-.0412.19542-.57813 1.06714-.25542.4149-.7549 1.22645-1.10979 1.80344-.66535 1.08185-.87191 1.35071-1.14402 1.48954-.19624.10006-.6931.2412-1.07903.30643-.36454.0616-1.62632.093-2.1062.0522l-.001.00002h-.00004zm15.71842-1.54885c-.56717-.0334-.7141-.0783-.80365-.24548-.0937-.17459-.0563-.29382.11862-.38327.12883-.0658.20571-.0706 1.10603-.0706 1.08512 0 1.12131-.008 1.34541-.26228.1172-.13354.1489-.317.0684-.39732-.03-.0302-.25691-.0421-.7982-.0422-.64951-.00004-.77336-.009-.87885-.0614-.11095-.0554-.12386-.0773-.13342-.2254-.009-.12809.0141-.21272.10062-.38595.53727-1.07191 1.18189-1.35171 3.0417-1.32025.83084.0141.96651.037 1.13875.19292.0703.0635.0825.22446.0244.33181-.0806.15038-.21875.17015-1.19014.17015-1.00664 0-1.07471.0114-1.287.21691-.14945.14466-.20468.28021-.1532.37637.0375.0705.0656.0733.71345.0737.78517.00045.90603.0152 1.02483.12529.17768.16472.0732.55585-.2812 1.05248-.3082.43193-.62184.63277-1.17758.75406-.28578.0623-1.15947.14374-1.41807.13206-.0581-.003-.31046-.0169-.56137-.0317l.00043.00008zm4.77013.002c-.49236-.0293-.803-.10695-.86094-.2152-.0918-.17113.0207-.4466.55283-1.35512.79268-1.35361.96417-1.5271 1.71305-1.73298.25157-.0692.36812-.0773 1.12283-.0794.7247-.002.87219.007 1.05896.0631.11926.0359.24951.0957.28944.13295.10451.0974.0928.25153-.03.38883l-.10229.11458-.85691.0175-.85689.0175-.14553.10095c-.15799.10962-.21415.18814-.71786 1.00427-.3712.60138-.41058.69708-.32329.78438.0507.0506.17253.0576.99961.0576.51805 0 .9669.01.99746.0213.15809.0606-.0226.31185-.32021.44426-.29.12917-.68371.20053-1.30837.23715-.59408.0348-.59859.0348-1.21208-.002l.00017.00041zm-35.03164-.0345c-.84509-.062-1.09375-.30131-.83994-.80854.1074-.21468 1.19183-1.97152 1.3366-2.16535.076-.10162.20093-.22638.27782-.2773.13192-.0873.1655-.0928.58622-.096.53294-.003.60411.0219.60411.21976 0 .11062-.10284.30089-.61143 1.13162-.33634.54928-.62166 1.03921-.63413 1.08876-.0441.17441.0394.20545.54983.20545.71045 0 .69423.0137 1.44631-1.22849.61602-1.01768.73388-1.18165.95442-1.32766.16482-.10918.1713-.1104.61124-.1104.74805 0 .7472.0346-.0338 1.31622-.3096.50802-.56296.95594-.56296.9954 0 .10274.10351.1444.35903.1444.12695 0 .24154.0182.26545.0421.076.0757.0422.21704-.10884.46352-.2212.35992-.26977.38673-.72573.40087-.36184.0112-.38275.009-.42184-.0651-.0234-.0436-.0319-.12758-.0188-.19419l.0225-.11731-.19756.11894c-.10862.0654-.31044.14475-.44856.17631-.45354.10362-1.61095.14543-2.40888.087l-.001-.00002h-.00006zm-9.61349-.0324c-.30144-.0443-.39671-.16244-.31879-.39532.0441-.13123 2.04386-3.38721 2.27798-3.70852.24895-.34179.35293-.39473.83928-.42752.59727-.0403 2.5093-.0381 3.05481.003.6993.0533.83609.14763.80656.55592-.0112.15784-.0534.28814-.16522.51396-.2645.53373-.6854.90068-1.22951 1.07193-.1074.0338-.16034.0629-.11758.0646.0422.002.16624.0364.27454.0768.20365.0762.33192.21739.33154.36489-.00065.20279-.46384.94781-.78527 1.26309-.25053.24578-.61687.45007-.94231.52553-.12594.0292-.48729.0689-.803.0881-.62708.0382-2.96939.0402-3.22303.003v-.00019zm3.14436-.84783c.28982-.0504.55433-.21224.70361-.4303.19896-.29073.21359-.48657.0431-.57459-.13061-.0674-1.36022-.0612-1.45811.008-.0872.0609-.60825.87016-.60825.94422 0 .0279.0197.0586.0441.0683.0853.0343 1.05831.0228 1.27603-.0152l-.00046-.0002zm1.12423-1.9282c.37421-.19085.64341-.60517.51785-.79682-.0853-.13027-.20815-.1545-.7217-.14243-.40505.01-.48982.0212-.54983.0755-.1201.10885-.57551.8998-.55254.95962.0178.0473.0928.0528.54505.04.51504-.0147.52807-.017.76117-.13588zm1.69056 2.76899c-.11149-.0408-.14515-.14844-.099-.31593.031-.11106 1.13688-1.94887 1.89524-3.14878.32649-.51661.54261-.76518.76305-.87763.12415-.0633.20685-.0739.57786-.0739.28992 0 .44679.0139.47501.0421.0901.0902.0469.28976-.12489.57508-.67951 1.12875-2.12159 3.41873-2.23505 3.54892-.20655.23713-.34889.28866-.7908.28626-.20262-.00093-.41031-.0173-.4615-.0361l.00004-.00006zm10.15299-.0149c-.13118-.0919-.10429-.27089.0918-.61348.32386-.56431 1.06289-1.75273 1.21948-1.96111.26723-.35542.66085-.59315 1.11006-.67043.14159-.0244.4662-.0351.80703-.0268.50407.0123.59156.0234.75573.0963.10207.0453.20075.11073.21923.14529.0553.10318.0384.22772-.0403.29894-.0637.0575-.14777.0694-.60524.0851-.57505.0198-.65991.0435-.8523.23977-.0553.0562-.36859.54159-.69667 1.07864-.63375 1.03746-.85241 1.31614-1.06609 1.35887-.0648.013-.28626.0237-.49179.0237-.28148 0-.39296-.0136-.45175-.0546l.00078-.00011zm3.9135.0183c-.48766-.0822-.70614-.23986-.7021-.507 0-.1331.0469-.236.27379-.62382.34552-.59129.41097-.67794.57486-.76158.17759-.0906.38819-.10829 1.61873-.13576l1.03759-.0231.13839-.0916c.076-.0503.16879-.14825.2061-.21752.0665-.12275.0665-.12779 0-.19788-.0629-.0699-.1-.072-1.24968-.072-.65156 0-1.20955-.01-1.24012-.0213-.0853-.0328-.0665-.14763.0412-.2472.3307-.30746 1.02418-.43323 2.38862-.43323.8103 0 1.27575.0516 1.51465.16819.14581.0711.19822.22453.16119.47162-.0329.21755-1.04199 1.8567-1.30848 2.12485-.27838.28019-.68719.43367-1.46655.55055-.37824.0567-1.68784.0677-1.9907.0168l.002.00003h.00027zm1.86543-.59805c.19268-.0413.48765-.27224.58282-.45619.0732-.14203.0656-.30269-.0169-.3468-.0375-.02-.2781-.036-.53511-.0355-.53305.00087-.66535.04-.87941.26048-.25447.26205-.29835.52832-.0962.58458.14009.039.75218.0348.94458-.007l.00018.00013zm9.40119.59724c-.50257-.0157-.85821-.0415-.9035-.0659-.14393-.0771-.0991-.23166.21537-.7421 1.2149-1.97227 2.02351-3.25215 2.10828-3.33717.18199-.18227.26572-.20425.92723-.24339.88606-.0524 2.59078-.0212 2.87703.0526.54712.14132.79109.37082.78639.73968 0 .25219-.0656.40029-.41124.97052-.69657 1.15053-1.12872 1.80457-1.32103 1.99951-.56999.5776-1.49412.71282-4.27853.62602v.00015zm2.59332-.89567c.10006-.0499.24135-.15858.31391-.2416.17413-.19921 1.19586-1.83648 1.24406-1.99366.045-.14624.0169-.28177-.0779-.37658-.0629-.0634-.11852-.0693-.64762-.0693h-.57834l-.10173.0965c-.11392.10795-1.61855 2.50785-1.61855 2.58151 0 .0259.01.0574.0234.0704.0131.0129.30182.0233.64218.0233.59512 0 .62578-.003.80074-.0906l-.00023.00001zm2.7889.89868c-.091-.0385-.13287-.17041-.0987-.30804.0365-.14913 1.51204-2.51024 1.69609-2.71492.23975-.26671.35959-.30954.86844-.31047.75536-.00094.75714-.013-.24875 1.61254-1.13454 1.83337-1.03722 1.73326-1.69797 1.74569-.24266.004-.47622-.007-.51907-.0248v-.00003zm-22.19298-1.31979c-.0581-.0582-.0197-.22281.0991-.42007.16624-.27685.28335-.39463.43422-.43653.1654-.046 1.04067-.045 1.12704.00094.1065.057.0816.18451-.0928.47184-.22578.37191-.25383.38351-.96192.39792-.31843.007-.59081-.00001-.60525-.0144l-.00031.00034zm24.32338-2.52964c0-.15174.27603-.60402.42091-.68957.0665-.039.23337-.0551.6614-.0637.53296-.0111.57627-.007.62241.0563.0713.0974.0665.11277-.11843.42278-.23479.39282-.26094.40337-.99858.40344l-.58771.00005v-.12928.00002z" fill="url(#linearGradient4058)"/>
  <path d="m222.03938 108.46577c-.68692-.022-2.2869-.12133-3.03484-.18847-3.66635-.32905-6.24681-1.02461-7.03405-1.896-.28598-.31652-.30135-.55457-.0666-1.02312l3.68612-5.909729.40151-.57167h3.43399c2.2897 0 3.44131.0119 3.45602.0357.0122.0196-.36333.56038-.83439 1.201689-1.41855 1.93108-2.15066 2.96465-2.12113 2.9942.009.009.30615-.0233.66095-.0714 2.12918-.28791 4.17988-.35714 6.80272-.22964 2.99809.14574 5.76177.52505 7.55959 1.03756 1.29207.3683 2.19379.8379 2.50283 1.30328.10473.15772.12968.23052.14121.41254.0178.27376-.031.42552-.20571.64676-.90464 1.14449-4.82002 2.00625-10.20842 2.24684-.69348.031-4.28002.0389-5.14011.0114l.00034.00007zm5.31554-1.98983c1.97991-.17148 3.32017-.47566 3.52139-.79922.0806-.12908-.21519-.31615-.73886-.46793-2.13734-.61946-7.24173-.70693-10.13302-.17368-.77983.14383-1.30809.32477-1.46947.50328-.0619.0685-.0629.0785-.009.16123.23975.36588 2.05416.7059 4.47758.8391.63563.035 3.73957-.01 4.35063-.0627l.00063-.00003z" fill="url(#linearGradient4048)"/>
  <path d="m220.95172 115.05579c-.26095-.0204-.28148-.0279-.29236-.10495-.009-.0456 0-.0968.0188-.11376.0169-.0169.8088-.0468 1.75965-.0663 1.76248-.0362 3.17437-.0976 4.4608-.19396 5.1073-.38247 9.39277-1.23143 12.78364-2.53252 5.50073-2.11058 8.15751-5.34336 6.89986-8.39582-.80421-1.95197-3.33423-3.63637-7.14028-4.753759-2.38375-.69984-4.9554-1.1097-7.59766-1.21089-.92235-.0353-.97869-.0446-.98029-.16229 0-.13159.061-.13598 1.89073-.13248 5.68245.0111 10.71605.6678 14.14105 1.84557 3.4203 1.176149 5.33767 2.838039 5.76045 4.992769.031.15868.0479.48153.046.91223 0 .71833-.0591 1.0975-.24801 1.66658-1.46862 4.4134-8.85052 7.19508-21.36279 8.04994-.80355.0549-1.62492.10018-2.96481.16363-.87462.0413-6.73137.0708-7.17506.036l.00033.00002z" fill="url(#linearGradient4056)"/>
</svg>
