<svg height="256" width="256" xmlns="http://www.w3.org/2000/svg" xmlns:xlink="http://www.w3.org/1999/xlink">
  <defs>
    <linearGradient id="linearGradient7136">
      <stop offset="0" stop-color="#fff"/>
      <stop offset="1" stop-color="#fff" stop-opacity="0"/>
    </linearGradient>
    <linearGradient id="linearGradient7283" gradientTransform="matrix(1.1469166 0 0 .09992559 -108.10009 -11.110663)" gradientUnits="userSpaceOnUse" x1="38.357395" x2="48.092773" xlink:href="#XMLID_6_-9" y1="86.916695" y2="86.916695"/>
    <linearGradient id="XMLID_6_-9" gradientUnits="userSpaceOnUse" x1="21" x2="107" y1="70.875" y2="70.875">
      <stop offset="0" stop-color="#2f2f2f"/>
      <stop offset=".1224" stop-color="#b6b6b6"/>
      <stop offset=".27856848" stop-color="#f3f3f3"/>
      <stop offset=".47811708" stop-color="#cbcbcb"/>
      <stop offset=".6568" stop-color="#fff"/>
      <stop offset=".7202" stop-color="#f1f1f1"/>
      <stop offset=".8387" stop-color="#bbb"/>
      <stop offset="1" stop-color="#2f2f2f"/>
    </linearGradient>
    <linearGradient id="linearGradient7285" gradientTransform="matrix(1.3911146 0 0 .89879217 -24.155053 -48.371251)" gradientUnits="userSpaceOnUse" x1="46.449074" x2="47.910881" xlink:href="#linearGradient4166-4" y1="132.17882" y2="114.82433"/>
    <linearGradient id="linearGradient4166-4">
      <stop offset="0" stop-color="#1f1f1f"/>
      <stop offset="1" stop-color="#1f1f1f" stop-opacity="0"/>
    </linearGradient>
    <linearGradient id="linearGradient7287" gradientTransform="matrix(1.0888421 0 0 .73217323 -51.519828 -26.941678)" gradientUnits="userSpaceOnUse" x1="46.05291" x2="78.560844" xlink:href="#linearGradient7136" y1="114.45502" y2="114.45502"/>
    <linearGradient id="linearGradient7289" gradientTransform="matrix(1.3911146 0 0 .89879217 -28.811543 -49.090279)" gradientUnits="userSpaceOnUse" x1="49.834194" x2="46.901009" xlink:href="#linearGradient4166-4" y1="119.69429" y2="119.69429"/>
    <linearGradient id="linearGradient7291" gradientTransform="matrix(1.1469166 0 0 .09992559 -108.10009 -79.661579)" gradientUnits="userSpaceOnUse" x1="38.357395" x2="48.092773" xlink:href="#XMLID_6_-9" y1="86.916695" y2="86.916695"/>
    <linearGradient id="linearGradient7293" gradientTransform="matrix(.68427848 0 0 .46013134 21.410845 5.76033)" gradientUnits="userSpaceOnUse" x1="46.05291" x2="78.560844" xlink:href="#linearGradient7136" y1="114.45502" y2="114.45502"/>
    <filter id="filter4068" color-interpolation-filters="sRGB" height="1.44487" width="1.0393" x="-.01965" y="-.222435">
      <feGaussianBlur stdDeviation=".20207452"/>
    </filter>
    <linearGradient id="linearGradient7295" gradientTransform="matrix(.89879217 0 0 1.3911146 48.371251 34.237268)" gradientUnits="userSpaceOnUse" x1="-112.72134" x2="-112.72134" xlink:href="#linearGradient6566-0" y1="-110.7662" y2="-105.82124"/>
    <linearGradient id="linearGradient6566-0">
      <stop offset="0"/>
      <stop offset="1" stop-opacity="0"/>
    </linearGradient>
    <linearGradient id="linearGradient7297" gradientTransform="matrix(.89879217 0 0 1.3911146 49.090279 44.164222)" gradientUnits="userSpaceOnUse" x1="-120.916" x2="-121.06381" xlink:href="#linearGradient7136" y1="-116.70495" y2="-111.31748"/>
    <linearGradient id="linearGradient7299" gradientTransform="matrix(.89879217 0 0 1.3911146 49.090279 23.19948)" gradientUnits="userSpaceOnUse" x1="-117.58483" x2="-117.58483" y1="-13.913545" y2="-16.792545">
      <stop offset="0" stop-color="#2b2b2b"/>
      <stop offset="1" stop-color="#2b2b2b" stop-opacity="0"/>
    </linearGradient>
    <linearGradient id="linearGradient7301" gradientTransform="matrix(1.0902731 0 0 .1001159 10.004453 -20.846009)" gradientUnits="userSpaceOnUse" x1="38.809528" x2="47.56638" xlink:href="#XMLID_6_-9" y1="86.916695" y2="86.916695"/>
    <linearGradient id="linearGradient7303" gradientTransform="matrix(1.3258621 0 0 .5027447 -49.729873 -111.39521)" gradientUnits="userSpaceOnUse" x1="46.05291" x2="78.560844" xlink:href="#linearGradient7136" y1="114.45502" y2="114.45502"/>
    <linearGradient id="linearGradient7305" gradientTransform="matrix(1.9980668 0 0 .0794632 -144.65009 -48.315923)" gradientUnits="userSpaceOnUse" x1="38.357395" x2="48.092773" y1="86.916695" y2="86.916695">
      <stop offset="0" stop-color="#303030"/>
      <stop offset=".18975452" stop-color="#7e7e7e"/>
      <stop offset=".37950903" stop-color="#9e9e9e"/>
      <stop offset=".75901806" stop-color="#dedede"/>
      <stop offset=".93379617" stop-color="#8d8d8d"/>
      <stop offset="1" stop-color="#2f2f2f"/>
    </linearGradient>
    <linearGradient id="linearGradient7307" gradientTransform="matrix(1.1410915 0 0 1.1062471 78.130612 14.773889)" gradientUnits="userSpaceOnUse" x1="-116.85363" x2="-116.7804" xlink:href="#linearGradient7136" y1="-83.868286" y2="-80.228065"/>
    <radialGradient id="radialGradient7309" cx="64.709709" cy="105.81721" gradientTransform="matrix(1.626035 -.01014692 .0027884 .47543001 -48.642431 .51169)" gradientUnits="userSpaceOnUse" r="12.247135">
      <stop offset="0" stop-color="#87b7ff" stop-opacity="0"/>
      <stop offset=".40384614" stop-color="#87b7ff" stop-opacity="0"/>
      <stop offset=".40384614" stop-color="#87b7ff" stop-opacity=".498039"/>
      <stop offset="1" stop-color="#87b7ff" stop-opacity="0"/>
    </radialGradient>
    <linearGradient id="linearGradient7311" gradientTransform="matrix(1.0062995 0 0 2.012599 -8.10762 176.87456)" gradientUnits="userSpaceOnUse" x1="66.740074" x2="70.104553" xlink:href="#linearGradient6566-0" y1="-85.311409" y2="-101.59357"/>
    <linearGradient id="linearGradient7313" gradientTransform="matrix(1.1657281 0 0 .7916667 -7.512541 23.013579)" gradientUnits="userSpaceOnUse" x1="46.05291" x2="78.560844" xlink:href="#linearGradient7136" y1="114.45502" y2="114.45502"/>
    <filter id="filter3159" color-interpolation-filters="sRGB" height="1.239146" width="1.019322" x="-.009661" y="-.119573">
      <feGaussianBlur stdDeviation=".15397884"/>
    </filter>
    <linearGradient id="linearGradient7315" gradientTransform="matrix(1.1657281 0 0 .2916667 -7.512541 90.061194)" gradientUnits="userSpaceOnUse" x1="46.05291" x2="78.560844" xlink:href="#linearGradient7136" y1="114.45502" y2="114.45502"/>
    <filter id="filter3139" color-interpolation-filters="sRGB" height="1.592796" width="1.01854" x="-.00927" y="-.296398">
      <feGaussianBlur stdDeviation=".14636931"/>
    </filter>
    <linearGradient id="linearGradient7317" gradientTransform="matrix(.7956133 0 0 1.5912266 2.193806 -1594.5329)" gradientUnits="userSpaceOnUse" x1="51" x2="53" xlink:href="#linearGradient6566-0" y1="1038.8622" y2="1038.8622"/>
    <linearGradient id="linearGradient7319" gradientUnits="userSpaceOnUse" x1="40.85579722831" x2="43.2673425125" xlink:href="#XMLID_6_-9" y1="58.5322357" y2="58.5322357"/>
    <linearGradient id="linearGradient7321" gradientTransform="matrix(.7956133 0 0 1.5912266 32.427112 -1594.5329)" gradientUnits="userSpaceOnUse" x1="51" x2="53" xlink:href="#linearGradient6566-0" y1="1038.8622" y2="1038.8622"/>
    <linearGradient id="linearGradient7323" gradientUnits="userSpaceOnUse" x1="71.08910322831" x2="73.5006485125" xlink:href="#XMLID_6_-9" y1="58.5322357" y2="58.5322357"/>
    <linearGradient id="linearGradient2411">
      <stop offset="0" stop-color="#f5cb11"/>
      <stop offset=".25796592" stop-color="#fefe98"/>
      <stop offset=".50796592" stop-color="#efc200"/>
      <stop offset=".74009573" stop-color="#cf9c00"/>
      <stop offset="1" stop-color="#ffe00d"/>
    </linearGradient>
    <radialGradient id="radialGradient26274" cx="70.487465" cy="102.11657" gradientTransform="matrix(4.1219686 .03563022 -.01380672 1.5972662 -105.50679 -38.858807)" gradientUnits="userSpaceOnUse" r="21.531792">
      <stop offset="0" stop-color="#fefe97" stop-opacity=".50684"/>
      <stop offset="1" stop-color="#f4b900" stop-opacity=".254289"/>
    </radialGradient>
    <radialGradient id="radialGradient26268" cx="66.480537" cy="104.7655" gradientTransform="matrix(4.5030676 -.01809302 .00622428 1.5491193 -125.76994 -33.076912)" gradientUnits="userSpaceOnUse" r="21.531792">
      <stop offset="0" stop-color="#fefc93" stop-opacity=".723597"/>
      <stop offset="1" stop-color="#ffc205" stop-opacity=".338887"/>
    </radialGradient>
    <radialGradient id="radialGradient2020" cx="140.83513" cy="-30.5455" gradientUnits="userSpaceOnUse" r="12.49915" xlink:href="#linearGradient7136"/>
    <linearGradient id="linearGradient1816" gradientUnits="userSpaceOnUse" x1="136.38321" x2="150.0293" xlink:href="#linearGradient7136" y1="22.070805" y2="13.712175"/>
    <filter id="filter1802" color-interpolation-filters="sRGB" height="1.154667" width="1.276134" x="-.156378" y="-.087634">
      <feGaussianBlur stdDeviation="1.0168145"/>
    </filter>
    <linearGradient id="linearGradient1812" gradientUnits="userSpaceOnUse" x1="49.51309" x2="63.15918" xlink:href="#linearGradient7136" y1="22.070805" y2="13.712175"/>
    <linearGradient id="linearGradient1665" gradientUnits="userSpaceOnUse" x1="135.92735" x2="149.97227" xlink:href="#linearGradient6566-0" y1="35.426853" y2="18.994919"/>
    <filter id="filter1477" color-interpolation-filters="sRGB" height="1.141288" width="1.250151" x="-.136584" y="-.07717">
      <feGaussianBlur stdDeviation="1.0233253"/>
    </filter>
    <linearGradient id="linearGradient1487" gradientUnits="userSpaceOnUse" x1="49.05723" x2="63.10215" xlink:href="#linearGradient6566-0" y1="35.426853" y2="18.994919"/>
    <linearGradient id="linearGradient1071" gradientUnits="userSpaceOnUse" x1="162.074628" x2="217.66535" y1="-47.08461" y2="31.488678">
      <stop offset="0" stop-color="#f1f1f1"/>
      <stop offset="1" stop-color="#c3c3c3"/>
    </linearGradient>
    <linearGradient id="linearGradient12232" gradientUnits="userSpaceOnUse" x1="206.81071" x2="136.70223" y1="54.246384" y2="-34.495886">
      <stop offset="0" stop-color="#878787"/>
      <stop offset="1" stop-color="#d3d3d3"/>
    </linearGradient>
    <linearGradient id="linearGradient1667" gradientUnits="userSpaceOnUse" x1="161.75615" x2="189.23705" y1="33.143334" y2="64.13028">
      <stop offset="0" stop-color="#dba600"/>
      <stop offset="1" stop-color="#a87f00"/>
    </linearGradient>
    <filter id="filter12394" color-interpolation-filters="sRGB" height="3.542962" width="1.170809" x="-.085405" y="-1.271481">
      <feGaussianBlur stdDeviation="1.4869846"/>
    </filter>
    <linearGradient id="linearGradient1867" gradientUnits="userSpaceOnUse" x1="179.16417" x2="180.50381" y1="58.033936" y2="78.532616">
      <stop offset="0" stop-color="#fef4b8" stop-opacity=".844658"/>
      <stop offset="1" stop-color="#fef6c9"/>
    </linearGradient>
    <linearGradient id="linearGradient1659" gradientUnits="userSpaceOnUse" x1="106.42155" x2="240.38665" xlink:href="#linearGradient2411" y1="106.814644" y2="106.814644"/>
    <linearGradient id="linearGradient1675" gradientUnits="userSpaceOnUse" x1="177.55021" x2="176.98347" y1="56.813874" y2="40.410102">
      <stop offset="0" stop-color="#fbd600"/>
      <stop offset="1" stop-color="#fff56d"/>
    </linearGradient>
    <linearGradient id="linearGradient1857" gradientUnits="userSpaceOnUse" x1="116.18923" x2="228.46733" xlink:href="#linearGradient2411" y1="62.956818" y2="62.846222"/>
    <filter id="filter965" color-interpolation-filters="sRGB" height="1.564308" width="1.135944" x="-.067972" y="-.282154">
      <feGaussianBlur stdDeviation="1.9633793"/>
    </filter>
  </defs>
  <g transform="matrix(2 0 0 2 13.467584 103.99733)">
    <rect fill="url(#linearGradient7283)" height="48.162376" rx=".850365" ry="1.357617" transform="matrix(0 -1 -1 0 0 0)" width="11.165676" x="-64.107559" y="-46.735443"/>
    <path d="m39.105886 52.950723c-1.197325 4.98945-4.758096 9.07572-12.520032 11.150679h17.475875c1.021986 0 1.869311-.519376 1.869311-1.179735v-8.791209c0-.660359-.847325-1.179735-1.869311-1.179735z" fill="url(#linearGradient7285)" opacity=".27459"/>
    <rect fill="url(#linearGradient7287)" height="3.182449" rx="0" width="35.006985" x="-1.375488" y="54.554176"/>
    <rect fill="url(#linearGradient7289)" height="11.164022" rx="15.273194" ry="0" width="1.873651" x="36.433132" y="52.907978"/>
    <rect fill="url(#linearGradient7291)" height="48.162376" rx="1.126274" ry="1.749223" transform="matrix(0 -1 -1 0 0 0)" width="11.165676" x="-64.107559" y="-115.28638"/>
    <rect fill="url(#linearGradient7293)" filter="url(#filter4068)" height="2.180317" rx="1.090158" transform="matrix(1.5912266 0 0 1.5912266 -2.422229 -36.107668)" width="24.681074" x="49.230389" y="57.179443"/>
    <rect fill="url(#linearGradient7295)" height="8.191163" rx="1.126274" ry="1.749223" transform="matrix(0 -1 -1 0 0 0)" width="11.165676" x="-64.107559" y="-115.28638"/>
    <rect fill="url(#linearGradient7297)" height="4.356785" rx=".865475" ry="1.363137" transform="matrix(0 -1 -1 0 0 0)" width="10.304839" x="-63.569508" y="-114.62019"/>
    <rect fill="url(#linearGradient7299)" height="10.023189" rx="1.155482" ry="1.844739" transform="matrix(0 -1 -1 0 0 0)" width="11.165676" x="-64.107559" y="-8.596233"/>
    <rect fill="url(#linearGradient7301)" height="47.736794" rx="1.104373" ry=".145407" transform="scale(1 -1)" width="9.54736" x="52.31744" y="-56.14539"/>
    <rect fill="url(#linearGradient7303)" height="2.042899" rx="0" transform="rotate(90)" width="43.101059" x="11.329998" y="-54.874996"/>
    <rect fill="url(#linearGradient7305)" height="38.189442" rx="1.962104" ry="1.860588" transform="matrix(0 -1 -1 0 0 0)" width="17.503492" x="-67.283981" y="-76.185837"/>
    <rect fill="url(#linearGradient7307)" height="4.550875" rx="1.962104" ry="1.729115" transform="matrix(0 -1 -1 0 0 0)" width="18.976303" x="-67.819305" y="-76.271011"/>
    <path d="m45.516573 49.839237c-.623554.702686-.967959 1.471407-.967959 2.282137 0 3.242602 5.542529 5.88372 12.34157 5.88372 6.799025 0 12.306992-2.641118 12.306992-5.88372 0-.81073-.344405-1.579451-.967959-2.282137z" fill="url(#radialGradient7309)" opacity=".360656"/>
    <rect fill="url(#linearGradient7311)" height="47.73679" rx="1.104373" ry=".145407" transform="scale(1 -1)" width="9.54736" x="52.31744" y="-56.14539"/>
    <rect fill="url(#linearGradient7313)" filter="url(#filter3159)" height="3.090578" rx="0" transform="matrix(1.0062995 0 0 1.0379957 -8.10762 -65.030886)" width="38.252632" x="45.815418" y="112.14169"/>
    <rect fill="url(#linearGradient7315)" filter="url(#filter3139)" height="1.185185" opacity=".318352" rx="0" transform="matrix(.98941515 0 0 1.0379957 -7.499055 -64.64783)" width="37.89542" x="46.17263" y="122.85132"/>
    <rect fill="url(#linearGradient7317)" height="15.912271" opacity=".445714" rx="0" width="1.591227" x="42.770088" y="51.371712"/>
    <rect fill="url(#linearGradient7319)" height="17.503492" opacity=".537143" rx=".795613" width="1.591227" x="41.17886" y="49.780483"/>
    <rect fill="url(#linearGradient7321)" height="15.912271" opacity=".445714" rx="0" width="1.591227" x="73.003387" y="51.371712"/>
    <rect fill="url(#linearGradient7323)" height="17.503492" opacity=".537143" rx=".795613" width="1.591227" x="71.412163" y="49.780483"/>
    <rect fill="#0c2a44" fill-opacity=".639706" height="1.591227" width="9.54736" x="52.31744" y="37.050671"/>
  </g>
  <g transform="matrix(.7573595 0 0 .7573595 -3.328062 52.205685)">
    <ellipse cx="150.87012" cy="103.63491" filter="url(#filter965)" opacity=".615454" rx="34.662132" ry="8.35025" transform="matrix(1.9981237 0 0 1.6503763 -128.0546 -20.984558)"/>
    <path d="m107.42231 53.54274h131.96432c.2809 17.70146-23.33052 18.75685-65.98254 19.10308s-66.37408-1.57923-65.98178-19.10308z" fill="url(#linearGradient1857)"/>
    <path d="m107.42231 59.11426c44.25062 3.07718 88.3495 4.24957 131.96432 0v-21.48671c-43.9881-1.94617-87.97622-2.24942-131.96432 0z" fill="url(#linearGradient1675)"/>
    <path d="m107.42155 152.68007v-97.56581c23.86816 13.34247 44.73764 16.7458 65.98254 16.7458s42.11438-3.40333 65.98254-16.7458v97.56581c-19.76972 3.72372-39.26828 6.5396-65.98232 6.5396s-46.21304-2.81588-65.98276-6.5396z" fill="url(#linearGradient1659)"/>
    <path d="m107.42231 59.11426c44.78394 3.56008 88.80236 3.7328 131.96432 0-16.37378 8.33629-35.56764 16.76053-65.98254 16.7458-30.4149-.0148-49.22444-8.11343-65.98178-16.7458z" style="fill:#fff;fill-opacity:.399135;stroke-width:4;stroke-linecap:round;stroke-linejoin:round;stroke:url(#linearGradient1867)"/>
    <path d="m44.61927 54.57667c0 1.100843-2.30445 1.993252-5.14712 1.993252s-5.14712-.892409-5.14712-1.993252 2.30445-1.993252 5.14712-1.993252 5.14712.892409 5.14712 1.993252zm38.76146 0c0 1.100843 2.30445 1.993252 5.14712 1.993252s5.14712-.892409 5.14712-1.993252-2.30445-1.993252-5.14712-1.993252-5.14712.892409-5.14712 1.993252z" filter="url(#filter12394)" opacity=".599995" stroke="#000" stroke-linejoin="round" stroke-width="3" transform="matrix(2 0 0 2 45.402548 -60.174446)"/>
    <path d="m107.42003 152.68101c19.7697 3.72372 39.27036 6.53908 65.98436 6.53908 26.71402 0 46.21078-2.81536 65.98048-6.53908l.0001-115.05467c-21.99404-.97309-43.98644-1.53241-65.98048-1.57032-21.99402-.0379-43.98644.4456-65.98046 1.57032z" fill="none" stroke="url(#linearGradient1667)" stroke-width="4"/>
    <path d="m173.40449-43.303352c-24.299-.188504-59.35156 15.947212-59.35156 58.335938v33.148434c0 2.20169 4.61154 3.98438 10.29688 3.98438s10.29296-1.78269 10.29296-3.98438v-33.148434c0-30.645592 24.8683-38.677652 38.76172-38.59375 13.89344-.0839 38.76172 7.948158 38.76172 38.59375v33.148434c0 2.20169 4.60764 3.98438 10.29298 3.98438 5.68532 0 10.29296-1.78269 10.29296-3.98438v-33.148434c0-42.388726-35.04864-58.524442-59.34766-58.335938z" fill="url(#linearGradient1071)" stroke="url(#linearGradient12232)" stroke-width="4"/>
    <path d="m42.83194 54.323436v-18.295044c0-11.045515 8.49841-20.058072 21.6422-20.009294" fill="none" filter="url(#filter1477)" stroke="url(#linearGradient1487)" transform="matrix(2 0 0 2 45.402548 -60.174446)"/>
    <path d="m129.70206 54.323436v-18.295044c0-11.045515 8.49841-25.573623 21.6422-25.524845" fill="none" filter="url(#filter1477)" stroke="url(#linearGradient1665)" transform="matrix(-2 0 0 2 487.78979 -60.174446)"/>
    <path d="m36.1198 52.546579v-16.54316c0-16.854464 17.51884-25.895859 26.4015-25.86217" fill="none" filter="url(#filter1802)" stroke="url(#linearGradient1812)" stroke-width="2" transform="matrix(2 0 0 2 45.402548 -60.174446)"/>
    <path d="m122.98992 52.546579v-16.54316c0-12.567284 11.51884-19.895859 20.4015-19.86217" fill="none" filter="url(#filter1802)" stroke="url(#linearGradient1816)" stroke-width="1.5" transform="matrix(-2 0 0 2 462.43257 -60.174446)"/>
    <circle cx="140.83513" cy="-30.545502" fill="url(#radialGradient2020)" opacity=".615454" r="12.49915"/>
    <path d="m142.84367 97.06781c-6.76918-1.11704-11.07086 1.02288-11.05982 6.0531.01 4.20084 2.3 6.93362 9.14818 9.70514 1.43872.584 2.88018 1.15346 4.32516 1.70795 3.22522 1.23202 4.51064 2.47879 4.50954 4.48573-.002 2.69278-2.74192 4.18651-6.7914 3.53017-2.49654-.40465-4.58964-1.5049-5.74644-2.92234-.71584-.95235-1.04516-1.83243-1.31972-3.87932-1.61326-.31683-3.22104-.65081-4.82476-1.00073.2145 6.52012 3.90882 10.72854 11.49426 11.97479 7.32576 1.20358 12.04584-2.04662 12.04844-7.47381.002-4.23405-2.46608-6.62759-8.25974-8.78325-1.48354-.5475-2.96346-1.11106-4.44064-1.69025-3.764-1.46913-5.36182-2.97682-5.36566-4.87775-.006-2.53708 2.3561-3.58018 6.12714-2.95786 3.71848.61365 5.729 2.3228 5.8445 5.18842 1.63638.21943 3.27554.41796 4.91856.59473-.0616-5.34602-3.88426-8.54524-10.6076-9.65472zm29.86748 2.50918c-.60244-.005-1.1884.0166-1.75686.0637-7.25162.67755-11.78242 5.53322-11.78192 14.03216.00052 8.5088 4.39024 14.6869 11.77326 15.45997.53158.061 1.07926.0942 1.6427.0987.29744.002.59114-.003.88096-.0168 6.34434-.36967 10.69374-4.4763 11.83306-10.41175-1.58584.11994-3.17264.21919-4.76126.29722-1.22428 3.5324-3.63906 5.61059-7.0695 5.87436-.2323.0152-.46904.0219-.7102.0202-.62678-.004-1.23246-.069-1.81308-.1911-2.2045-.44208-4.05272-1.71969-5.30262-3.65326-1.12638-1.66521-1.52254-3.30438-1.57844-6.06394 2.2927.10902 4.58692.17294 6.88534.19062.8391.0152 1.68018.024 2.52338.0265 4.16022-.0361 8.30522-.22214 12.45084-.54963.004-4.23966-.33062-6.68531-1.17834-8.62917-1.8326-4.08414-6.04634-6.34248-11.268-6.52683-.25432-.012-.51082-.019-.76932-.021zm30.54236-2.72854c-7.96498 1.35491-13.12996 7.33913-13.13818 16.52334-.008 8.93221 5.08544 14.49469 13.0424 13.15386 6.99388-1.17855 11.35042-6.40704 11.90744-13.36203-1.54846.34126-3.1003.66877-4.65666.98142-.78158 4.6508-3.16506 7.46201-7.13752 8.13194-5.15138.86875-8.25414-2.91326-8.24736-9.46795.008-6.91299 3.0607-11.19221 8.16028-12.05431 3.9194-.66259 6.35648.90791 6.90396 4.59544 1.55718-.31143 3.10984-.6379 4.65914-.97829-.21468-2.60454-.81816-4.16472-1.92188-5.40988-1.98478-2.0753-5.48426-2.80882-9.57162-2.11354zm-30.59702 6.61263c.27922.002.55374.015.82316.0379 4.3876.32223 7.35564 3.36103 7.35248 8.00538-2.45024.12412-4.90076.1975-7.35484.2186-.84332-.003-1.6845-.0116-2.52372-.0268-2.26006-.0176-4.5161-.08-6.77064-.18598.34548-4.43902 2.93794-7.28256 6.77156-7.92731.54272-.0854 1.11106-.12664 1.702-.12184z" fill="url(#radialGradient26274)" stroke="url(#radialGradient26268)" stroke-width="2"/>
  </g>
</svg>
