<svg height="256" width="256" xmlns="http://www.w3.org/2000/svg" xmlns:xlink="http://www.w3.org/1999/xlink">
  <defs>
    <linearGradient id="linearGradient6384">
      <stop offset="0"/>
      <stop offset="1" stop-opacity="0"/>
    </linearGradient>
    <pattern id="pattern6373" patternTransform="matrix(.5646156 0 0 .73196658 -15.999332 -2741.545)"/>
    <linearGradient id="linearGradient9251">
      <stop offset="0" stop-color="#fff"/>
      <stop offset="1" stop-color="#fff" stop-opacity="0"/>
    </linearGradient>
    <linearGradient id="linearGradient4235" gradientTransform="matrix(1.9540051 0 0 1.9478645 3.023998 16.215837)" gradientUnits="userSpaceOnUse" x1="64" x2="64" y1="117" y2="104">
      <stop offset="0" stop-color="#d6d6d6"/>
      <stop offset="1" stop-color="#fff"/>
    </linearGradient>
    <linearGradient id="linearGradient4324" gradientTransform="matrix(2.1858494 0 0 2.1789802 -11.81404 -15.003823)" gradientUnits="userSpaceOnUse" spreadMethod="reflect" x1="29.509214" x2="64" y1="64" y2="64">
      <stop offset="0" stop-color="#b3b3b3"/>
      <stop offset=".10799085" stop-color="#f7f6f5"/>
      <stop offset="1" stop-color="#f7f7f5"/>
    </linearGradient>
    <linearGradient id="linearGradient4388" gradientTransform="matrix(-2.1858496 0 0 2.1789804 263.0703 -11.203683)" gradientUnits="userSpaceOnUse" x1="12.0625" x2="90.789825" xlink:href="#linearGradient9251" y1="65.265625" y2="65.265625"/>
    <linearGradient id="linearGradient4403" gradientTransform="matrix(2.2410222 0 0 2.9052568 -15.999332 -2741.545)" gradientUnits="userSpaceOnUse" x1="64.609207" x2="64.609207" y1="939.04266" y2="936.38202">
      <stop offset="0" stop-color="#696969"/>
      <stop offset="1" stop-color="#696969" stop-opacity="0"/>
    </linearGradient>
    <linearGradient id="linearGradient4430" gradientTransform="matrix(1.6813001 0 0 1.3557011 20.477116 80.551157)" gradientUnits="userSpaceOnUse" x1="64" x2="64" xlink:href="#linearGradient9251" y1="114.63895" y2="107.98861"/>
    <radialGradient id="radialGradient4434" cx="64.125" cy="113.9375" fx="64.1875" fy="115.3125" gradientTransform="matrix(1.9540051 0 0 1.9478645 3.023998 16.215837)" gradientUnits="userSpaceOnUse" r="5" xlink:href="#linearGradient9251"/>
    <linearGradient id="linearGradient9259" gradientTransform="matrix(2.1858494 0 0 2.114892 -11.81404 -8.105223)" gradientUnits="userSpaceOnUse" x1="139" x2="80" xlink:href="#linearGradient9251" y1="143" y2="82.717964"/>
    <filter id="filter5006" height="1.025946" width="1.025946" x="-.012973" y="-.012973">
      <feGaussianBlur stdDeviation="1.3787162"/>
    </filter>
    <filter id="filter4952" height="1.019339" width="1.00976" x="-.00488" y="-.009669">
      <feGaussianBlur stdDeviation=".33754463"/>
    </filter>
    <filter id="filter4896" height="1.061143" width="1.028544" x="-.014272" y="-.030571">
      <feGaussianBlur stdDeviation=".2726168"/>
    </filter>
    <filter id="filter4759" height="2.011892" width="1.18398" x="-.09199" y="-.505946">
      <feGaussianBlur stdDeviation="2.385052"/>
    </filter>
    <filter id="filter4741" height="1.0048" width="1.0048" x="-.0024" y="-.0024">
      <feGaussianBlur stdDeviation=".2550625"/>
    </filter>
    <filter id="filter4733" height="1.007365" width="1.003602" x="-.001801" y="-.003683">
      <feGaussianBlur stdDeviation=".18845312"/>
    </filter>
    <filter id="filter4725" height="1.0048" width="1.0048" x="-.0024" y="-.0024">
      <feGaussianBlur stdDeviation=".254"/>
    </filter>
    <linearGradient id="linearGradient4664">
      <stop offset="0" stop-color="#f3fdde"/>
      <stop offset=".5" stop-color="#83b029"/>
      <stop offset="1" stop-color="#4b6c0c"/>
    </linearGradient>
    <radialGradient id="radialGradient10904" cx="618.01129" cy="652.8468" gradientTransform="matrix(1 0 0 .18181818 675.87598 534.14738)" gradientUnits="userSpaceOnUse" r="31.112698" xlink:href="#linearGradient6384"/>
    <radialGradient id="radialGradient10906" cx="1290.1142" cy="611.2844" fy="679.2844" gradientUnits="userSpaceOnUse" r="127">
      <stop offset="0" stop-color="#689313"/>
      <stop offset="1" stop-color="#314708"/>
    </radialGradient>
    <radialGradient id="radialGradient10908" cx="636.1402" cy="598.19763" gradientTransform="matrix(.28335818 .09286387 -.11787864 .35968645 1206.728 321.38072)" gradientUnits="userSpaceOnUse" r="128.1434">
      <stop offset="0" stop-color="#314708"/>
      <stop offset="1" stop-color="#314708" stop-opacity="0"/>
    </radialGradient>
    <radialGradient id="radialGradient10910" cx="1295.77106" cy="625.44073" gradientUnits="userSpaceOnUse" r="127">
      <stop offset="0" stop-color="#a1e21f"/>
      <stop offset="1" stop-color="#3f5b0a"/>
    </radialGradient>
    <radialGradient id="radialGradient10912" cx="616.01642" cy="398.79343" fx="615.48914" fy="361.41937" gradientTransform="matrix(2.047445 .00791491 -.00390324 1.0096977 33.2968 32.291594)" gradientUnits="userSpaceOnUse" r="126.34375" xlink:href="#linearGradient4664"/>
    <radialGradient id="radialGradient10914" cx="620.65625" cy="379.01111" gradientTransform="matrix(1 0 0 .82894413 674.8125 85.889707)" gradientUnits="userSpaceOnUse" r="126.96875" xlink:href="#linearGradient9251"/>
    <radialGradient id="radialGradient10916" cx="1306.52128360374" cy="526.76862784744" gradientUnits="userSpaceOnUse" r="82.51480322" xlink:href="#linearGradient4664"/>
    <radialGradient id="radialGradient10918" cx="620.95856" cy="625.44073" gradientTransform="matrix(.27659941 .00095 -.01968843 5.7322835 1136.3282 -2960.3528)" gradientUnits="userSpaceOnUse" r="127" xlink:href="#linearGradient9251"/>
    <radialGradient id="radialGradient10920" cx="617.3125" cy="464.98407" gradientTransform="matrix(.46218814 0 0 2.2175292 1006.8105 -587.09637)" gradientUnits="userSpaceOnUse" r="84.125" xlink:href="#linearGradient9251"/>
    <radialGradient id="radialGradient10922" cx="617.3125" cy="464.98407" gradientTransform="matrix(.69876886 0 0 3.3526181 860.76624 -1155.3245)" gradientUnits="userSpaceOnUse" r="84.125" xlink:href="#linearGradient9251"/>
    <radialGradient id="radialGradient10924" cx="620.95856" cy="625.44073" gradientTransform="matrix(.3755772 .14558889 -.54330698 1.4015748 1402.3595 -341.26593)" gradientUnits="userSpaceOnUse" r="127" xlink:href="#linearGradient9251"/>
    <filter id="filter10932" height="2.386192" width="1.037009" x="-.018504" y="-.693096">
      <feGaussianBlur stdDeviation=".52204369"/>
    </filter>
    <filter id="filter10940" height="5.864077" width="1.132175" x="-.066087" y="-2.432038">
      <feGaussianBlur stdDeviation="1.8644418"/>
    </filter>
    <linearGradient id="linearGradient4859" gradientUnits="userSpaceOnUse" x1="72" x2="72" y1="120" y2="16">
      <stop offset="0" stop-color="#ececeb"/>
      <stop offset="1" stop-color="#ececeb" stop-opacity="0"/>
    </linearGradient>
    <filter id="filter4868" height="1.214286" width="1.142857" x="-.071429" y="-.107143">
      <feGaussianBlur stdDeviation="2.8571429"/>
    </filter>
    <mask id="mask4872" maskUnits="userSpaceOnUse">
      <path d="m81.9375 72c-1.077277 0-1.9375.86022-1.9375 1.9375v38.06252h-32v-30.0625c0-1.0773-.860223-1.9375-1.9375-1.9375h-20.125c-1.077277 0-1.9375.8602-1.9375 1.9375v30.0625h-6.0625c-1.077277 0-1.9375.8602-1.9375 1.9375v20.125c0 1.0773.860223 1.9375 1.9375 1.9375h92.125c1.07728 0 1.9375-.8602 1.9375-1.9375v-8-12.125-40.00002c0-1.07728-.86022-1.9375-1.9375-1.9375z" fill="#fff" fill-rule="evenodd" filter="url(#filter4868)"/>
    </mask>
    <filter id="filter4914" height="1.011258" width="1.00839" x="-.004195" y="-.005629">
      <feGaussianBlur stdDeviation=".11194364"/>
    </filter>
    <filter id="filter4922" height="1.004053" width="1.006271" x="-.003135" y="-.002026">
      <feGaussianBlur stdDeviation=".0765"/>
    </filter>
    <linearGradient id="linearGradient6390" gradientUnits="userSpaceOnUse" x1="65.345146" x2="65.345146" xlink:href="#linearGradient6384" y1="1045.1724" y2="1042.0262"/>
  </defs>
  <rect fill-rule="evenodd" filter="url(#filter10932)" height="1.807693" rx="1" ry=".873469" transform="matrix(2.1858496 0 0 2.1789804 -11.81404 -2027.1706)" width="67.708229" x="30.109127" y="1042.7699"/>
  <rect fill="url(#linearGradient6390)" fill-rule="evenodd" filter="url(#filter10940)" height="1.839881" opacity=".595455" rx="1" ry=".883883" transform="matrix(2.1858496 0 0 2.1789804 -11.81404 -2029.1706)" width="67.708237" x="30.109127" y="1043.2368"/>
  <rect fill="url(#linearGradient4324)" fill-rule="evenodd" height="239.99397" rx="4.25048" ry="4.237122" width="149.32961" x="52.68866" y="6.21878"/>
  <rect fill="url(#linearGradient4859)" fill-rule="evenodd" filter="url(#filter4914)" height="47.728748" mask="url(#mask4872)" rx="1.257044" transform="matrix(2.1858496 0 0 2.1789804 -11.81404 -16.311083)" width="64.048325" x="31.939079" y="70.98307"/>
  <path d="m36.828838 19.488579c-1.327031-.001-2.439875 1.120536-2.439875 2.447567v85.706154c0 1.32703 1.112845 2.44757 2.439875 2.44757h53.677252c1.32703 0 2.439875-1.12054 2.439875-2.44757v-85.706154c0-1.327031-1.07922-2.405229-2.40625-2.40625z" fill="#fff" fill-rule="evenodd" filter="url(#filter4922)" transform="matrix(2.1858496 0 0 2.1789804 -11.81404 -15.003683)"/>
  <path d="m74.02146 27.551577h111.9972c2.35724 0 5.3332 2.87138 5.3332 5.3332v186.662043c0 3.0028-3.03578 5.3332-5.3332 5.3332h-117.3304c-2.615062 0-5.3332-2.6736-5.3332-5.3332v-186.662043c0-2.66714 3.041456-5.3332 5.3332-5.3332z" fill="#111" fill-rule="evenodd"/>
  <path d="m137.85035 234.37666c0 5.37888-4.37419 9.73932-9.77003 9.73932-5.39583 0-9.77002-4.36044-9.77002-9.73932 0-5.37886 4.37419-9.73932 9.77002-9.73932 5.39584 0 9.77003 4.36046 9.77003 9.73932z" fill="url(#linearGradient4235)" fill-rule="evenodd"/>
  <path d="m136.87334 234.37666c0 4.841-3.93677 8.7654-8.79302 8.7654s-8.79302-3.9244-8.79302-8.7654c0-4.84098 3.93677-8.76538 8.79302-8.76538s8.79302 3.9244 8.79302 8.76538z" fill="url(#radialGradient4434)" fill-rule="evenodd"/>
  <rect fill-rule="evenodd" height="175.99573" rx="0" width="117.33041" x="68.688255" y="43.551178"/>
  <g transform="matrix(.30507166 0 0 .30411296 -266.59692 -40.224304)">
    <rect fill="url(#radialGradient10904)" filter="url(#filter4759)" height="11.313708" opacity=".740331" rx="2.709045" ry=".353553" width="62.225395" x="1262.7747" y="647.18994"/>
    <path d="m1291.4688 399.0875c-70.431 0-127.5313 57.10034-127.5313 127.53125s57.1003 127.53125 127.5313 127.53125c70.4309 0 127.5312-57.10034 127.5312-127.53125s-57.1003-127.53125-127.5312-127.53125zm-2.1563 45.0625c.6936-.0175 1.431 0 2.1563 0 45.5488 0 82.4687 36.91987 82.4687 82.46875 0 14.78446-3.9358 28.62654-10.75 40.625l-18.6562-18.625c-8.7912-8.79117-22.9589-8.79117-31.75 0-8.7912 8.79117-8.7912 22.95883 0 31.75l18.4687 18.46875c-11.796 6.51008-25.3545 10.25-39.7812 10.25-45.5489 0-82.4688-36.91987-82.4688-82.46875 0-44.8373 35.7492-81.33973 80.3125-82.46875z" fill="url(#radialGradient10906)" filter="url(#filter5006)"/>
    <path d="m1291.4688 399.0875c-70.431 0-127.5313 57.10034-127.5313 127.53125s57.1003 127.53125 127.5313 127.53125c70.4309 0 127.5312-57.10034 127.5312-127.53125s-57.1003-127.53125-127.5312-127.53125zm-2.1563 45.0625c.6936-.0175 1.431 0 2.1563 0 45.5488 0 82.4687 36.91987 82.4687 82.46875 0 14.78446-3.9358 28.62654-10.75 40.625l-18.6562-18.625c-8.7912-8.79117-22.9589-8.79117-31.75 0-8.7912 8.79117-8.7912 22.95883 0 31.75l18.4687 18.46875c-11.796 6.51008-25.3545 10.25-39.7812 10.25-45.5489 0-82.4688-36.91987-82.4688-82.46875 0-44.8373 35.7492-81.33973 80.3125-82.46875z" fill="url(#radialGradient10908)" filter="url(#filter4741)"/>
    <path d="m1291.4688 398.22672c-70.1402 0-127 56.85984-127 127s56.8598 127 127 127c70.1401 0 127-56.85984 127-127s-56.8599-127-127-127zm-2.1563 44c.7119-.018 1.44 0 2.1563 0 45.8396 0 83 37.16037 83 83 0 15.12642-4.0869 29.28715-11.1563 41.5l-19.1562-19.125c-8.587-8.587-22.413-8.587-31 0s-8.587 22.413 0 31l18.9687 18.96875c-12.0182 6.76793-25.8807 10.65625-40.6562 10.65625-45.8397 0-83-37.16037-83-83 0-45.12339 35.9941-81.86373 80.8437-83z" fill="url(#radialGradient10910)"/>
    <path d="m1291.4688 398.90625c-67.1597 0-122.0381 52.38786-126.0625 118.53125 13.951 1.80941 28.1251 3.25167 42.5 4.28125 1.8141-43.86034 37.3389-79.07184 81.375-80.1875.7348-.0186 1.4825 0 2.1875 0 42.8832 0 78.203 32.32142 83.0625 73.90625 14.2812-2.14141 28.2936-4.67052 42.0312-7.59375-8.4797-61.5321-61.2235-108.9375-125.0937-108.9375z" fill="url(#radialGradient10912)" filter="url(#filter4733)"/>
    <path d="m1291.4688 398.51875c-69.2113 0-125.4902 55.3622-126.9688 124.21875 1.7386-68.62522 57.9245-123.71875 126.9688-123.71875 69.0442 0 125.2301 55.09353 126.9687 123.71875-1.4786-68.85655-57.7575-124.21875-126.9687-124.21875zm82.9375 129.84375c-.4749 14.06426-4.4662 27.2067-11.0938 38.65625l-19.1562-19.125c-8.587-8.587-22.413-8.587-31 0-4.1552 4.15514-6.2724 9.54738-6.4063 14.96875.2516-5.24825 2.3811-10.44359 6.4063-14.46875 8.587-8.587 22.413-8.587 31 0l19.1562 19.125c6.7052-11.58369 10.6972-24.90593 11.0938-39.15625zm-165.8438 1.4375c1.9719 44.08897 38.3307 79.21875 82.9063 79.21875 14.7755 0 28.638-3.88832 40.6562-10.65625l-.3125-.3125c-11.945 6.65869-25.6975 10.46875-40.3437 10.46875-44.4072 0-80.6833-34.86405-82.9063-78.71875z" fill="#fff"/>
    <path d="m1291.4688 398.31875c-69.2113 0-125.4902 55.3622-126.9688 124.21875 1.7386-68.62522 57.9245-123.71875 126.9688-123.71875 69.0442 0 125.2301 55.09353 126.9687 123.71875-1.4786-68.85655-57.7575-124.21875-126.9687-124.21875zm82.9375 129.84375c-.4749 14.06426-4.4662 27.2067-11.0938 38.65625l-19.1562-19.125c-8.587-8.587-22.413-8.587-31 0-4.1552 4.15514-6.2724 9.54738-6.4063 14.96875.2516-5.24825 2.3811-10.44359 6.4063-14.46875 8.587-8.587 22.413-8.587 31 0l19.1562 19.125c6.7052-11.58369 10.6972-24.90593 11.0938-39.15625zm-165.8438 1.4375c1.9719 44.08897 38.3307 79.21875 82.9063 79.21875 14.7755 0 28.638-3.88832 40.6562-10.65625l-.3125-.3125c-11.945 6.65869-25.6975 10.46875-40.3437 10.46875-44.4072 0-80.6833-34.86405-82.9063-78.71875z" fill="url(#radialGradient10914)" opacity=".530387"/>
    <path d="m1328.3563 541.99375c-5.3679 0-10.7256 2.03801-14.8438 6.15625-4.1052 4.10523-6.0527 9.45866-6.0625 14.8125 15.4997 1.2889 31.4829-.30138 45.8438-4.75l-10.0938-10.0625c-4.1182-4.11824-9.4759-6.15625-14.8437-6.15625z" fill="url(#radialGradient10916)" filter="url(#filter4896)"/>
    <path d="m1291.4688 398.21875c-70.1402 0-127 56.85984-127 127s56.8598 127 127 127c70.1401 0 127-56.85984 127-127s-56.8599-127-127-127zm0 .125c69.9054 0 126.5625 56.65707 126.5625 126.5625s-56.6571 126.5625-126.5625 126.5625c-69.9055 0-126.5625-56.65707-126.5625-126.5625s56.657-126.5625 126.5625-126.5625zm-2.1563 43.125c-45.0806 1.14212-81.2812 38.08314-81.2812 83.4375 0 46.07436 37.3631 83.4375 83.4375 83.4375 14.8517 0 28.7943-3.91565 40.875-10.71875a.43436829.43436829 0 0 0 .094-.6875l-18.9688-18.96875c-8.4222-8.42217-8.4222-21.95283 0-30.375s21.9528-8.42217 30.375 0l19.1563 19.125a.43436829.43436829 0 0 0 .6875-.0937c7.106-12.27602 11.2187-26.5141 11.2187-41.71875 0-46.07436-37.3631-83.4375-83.4375-83.4375-.709 0-1.4296-.0184-2.1562 0zm0 .75c.7119-.018 1.44 0 2.1563 0 45.8396 0 83 37.16037 83 83 0 15.12642-4.0869 29.28715-11.1563 41.5l-19.1562-19.125c-8.587-8.587-22.413-8.587-31 0s-8.587 22.413 0 31l18.9687 18.96875c-12.0182 6.76793-25.8807 10.65625-40.6562 10.65625-45.8397 0-83-37.16037-83-83 0-45.12339 35.9941-81.86373 80.8437-83z" fill="url(#radialGradient10918)" filter="url(#filter4725)"/>
    <path d="m1292.125 440.71875c-46.0781 0-83.4933 37.0407-84.125 82.96875 1.152-45.46864 38.3787-81.96875 84.125-81.96875s82.973 36.50011 84.125 81.96875c-.6316-45.92814-38.0468-82.96875-84.125-82.96875z" fill="url(#radialGradient10920)"/>
    <path d="m1292.125 398.59945c-69.6642 0-126.2311 56.00076-127.1861 125.43805 1.7416-68.74271 58.0237-123.92618 127.1861-123.92618s125.4445 55.18347 127.1862 123.92618c-.955-69.43743-57.5219-125.43805-127.1862-125.43805z" fill="url(#radialGradient10922)"/>
    <path d="m1374.4688 526.05c-.094 14.92748-4.1694 28.89843-11.1563 40.96875l-19.1562-19.125c-8.587-8.587-22.413-8.587-31 0-4.4594 4.45933-6.5785 10.33861-6.4063 16.15625.1594-5.38495 2.2786-10.71608 6.4063-14.84375 8.587-8.587 22.413-8.587 31 0l19.1562 19.125c7.0694-12.21285 11.1563-26.37358 11.1563-41.5 0-.25945 0-.52236 0-.78125zm-166 .125v.65625c0 45.83963 37.1603 83 83 83 14.7755 0 28.638-3.88832 40.6562-10.65625l-.8437-.84375c-11.8226 6.47999-25.3796 10.1875-39.8125 10.1875-45.6217 0-82.649-36.80484-83-82.34375z" fill="url(#radialGradient10924)" filter="url(#filter4952)"/>
  </g>
  <path d="m128.08032 225.61142c-4.64278 0-8.51674 3.0356-8.4065 6.7784.1469 4.9874 16.9503 5.1786 16.813 0-.0992-3.743-3.76372-6.7784-8.4065-6.7784z" fill="url(#linearGradient4430)" fill-rule="evenodd"/>
  <path d="m168.39569 8.5433269-112.844486 207.6159731v-205.709365c0-1.1211701.787916-1.9066081 1.912618-1.9066081z" fill="url(#linearGradient4388)" fill-rule="evenodd" opacity=".622727"/>
  <rect fill="url(#linearGradient9259)" fill-rule="evenodd" height="175.99554" rx="0" width="117.33041" x="68.688255" y="43.551178"/>
  <g fill="#fff" stroke-width="2" transform="scale(.98157746 1.0187683)">
    <path d="m173.50458 28.521208c-1.98271 0-3.32982 1.460946-3.32982 3.623904 0 2.172445 1.33762 3.623904 3.33931 3.623904.84431 0 1.58427-.256139 2.14398-.730472.74945-.635607 1.19532-1.707599 1.19532-2.836512 0-2.229365-1.31864-3.680824-3.34879-3.680824zm0 .777906c1.49889 0 2.46653 1.128913 2.46653 2.883945 0 1.669652-.9961 2.808051-2.45704 2.808051-1.47992 0-2.45705-1.138399-2.45705-2.845998s.97713-2.845998 2.44756-2.845998z"/>
    <path d="m180.47727 32.002812 2.33372-3.367764h-1.05302l-1.78349 2.713185-1.774-2.713185h-1.072l2.29577 3.367764-2.44755 3.548011h1.07199l1.89733-2.883944 1.88785 2.883944h1.09096z"/>
    <path d="m186.89026 32.837638 2.59934-4.20259h-1.05302l-1.97322 3.367764-2.03015-3.367764h-1.09096l2.66575 4.20259v2.713185h.88226z"/>
  </g>
  <rect fill="#fff" fill-rule="evenodd" height="5.799555" opacity=".609091" rx="0" width="2.185849" x="183.83281" y="43.084869"/>
  <rect fill="#fff" fill-rule="evenodd" height="4.000031" opacity=".609091" rx="0" width="2.185849" x="173.16641" y="44.884308"/>
  <path d="m57.260864 6.2187769c-2.35477 0-4.235082 1.8744-4.235082 4.2217601v1.08952c0-2.3473801 1.648688-1.3798 4.003458-1.3798h141.09812c2.35478 0 3.8909-.9675801 3.8909 1.3798v-1.08952c0-2.3473601-1.8803-4.2217601-4.23508-4.2217601z" fill-opacity=".097143" fill-rule="evenodd"/>
  <g fill="#fff" fill-opacity=".651429" stroke-width="2" transform="scale(.98157746 1.0187683)">
    <path d="m78.597969 41.912467c-1.712429 0-2.875897 1.26179-2.875897 3.129894 0 1.876298 1.155275 3.129895 2.884091 3.129895.729216 0 1.368304-.221223 1.851717-.630895.647282-.548961 1.032374-1.474819 1.032374-2.449839 0-1.925458-1.138889-3.179055-2.892285-3.179055zm0 .671862c1.294564 0 2.130295.97502 2.130295 2.490806 0 1.442046-.860312 2.425259-2.122101 2.425259-1.278177 0-2.122101-.983213-2.122101-2.458033 0-1.474819.843924-2.458032 2.113907-2.458032z"/>
    <path d="m84.620146 44.91946 2.015587-2.908671h-.909472l-1.540367 2.343323-1.532173-2.343323h-.925859l1.982812 2.908671-2.113907 3.064347h.925859l1.638688-2.490806 1.630494 2.490806h.942246z"/>
    <path d="m90.158914 45.640483 2.245002-3.629694h-.909471l-1.704236 2.908671-1.753396-2.908671h-.942246l2.302357 3.629694v2.343324h.76199z"/>
    <path d="m95.632128 45.132489c-.03277-.417865-.122901-.688249-.28677-.925858-.294964-.401479-.811151-.639089-1.409272-.639089-1.163468 0-1.909071.917666-1.909071 2.343324 0 1.384692.737409 2.26139 1.900878 2.26139 1.02418 0 1.671462-.614508 1.753396-1.663269h-.688249c-.114708.688249-.467026 1.032374-1.04876 1.032374-.753797 0-1.204436-.614508-1.204436-1.630495 0-1.073341.442446-1.712429 1.188049-1.712429.573541 0 .934052.335931 1.015986.934052z"/>
    <path d="m98.163898 43.567542c-1.21263 0-1.933652.860311-1.933652 2.302357 0 1.450239.721022 2.302357 1.941845 2.302357 1.212629 0 1.941849-.860312 1.941849-2.269583 0-1.491206-.70464-2.335131-1.950042-2.335131zm.0082.630895c.770183 0 1.229016.630895 1.229016 1.696042 0 1.015987-.475219 1.646882-1.229016 1.646882-.76199 0-1.229016-.630895-1.229016-1.671462s.467026-1.671462 1.229016-1.671462z"/>
    <path d="m101.06437 43.690444v4.293363h.68825v-2.695642c0-.622702.45064-1.122502 1.0078-1.122502.50799 0 .79476.311351.79476.860312v2.957832h.68825v-2.695642c0-.622702.45064-1.122502 1.00779-1.122502.4998 0 .79477.319545.79477.860312v2.957832h.68824v-3.220022c0-.770184-.44244-1.196243-1.2454-1.196243-.57354 0-.91766.172062-1.31914.655475-.254-.458832-.59812-.655475-1.15528-.655475-.57354 0-.95863.21303-1.31914.729216v-.606314z"/>
  </g>
  <rect fill="url(#linearGradient4403)" fill-rule="evenodd" height="10.666475" rx="4.100958" ry="5.333234" transform="scale(1 -1)" width="53.312527" x="100.68746" y="-22.218418"/>
  <rect fill="url(#linearGradient4403)" fill-rule="evenodd" height="10.666357" opacity=".359091" rx="4.100915" ry="5.333179" transform="scale(1 -1)" width="53.312519" x="100.68746" y="-22.218418"/>
  <rect fill="url(#pattern6373)" fill-rule="evenodd" height="10.666475" opacity=".095455" rx="4.100958" ry="5.333234" transform="scale(1 -1)" width="53.312527" x="100.68746" y="-22.218418"/>
</svg>
