<svg height="256" width="256" xmlns="http://www.w3.org/2000/svg" xmlns:xlink="http://www.w3.org/1999/xlink">
  <defs>
    <linearGradient id="linearGradient339">
      <stop offset="0" stop-color="#fff"/>
      <stop offset="1"/>
    </linearGradient>
    <linearGradient id="linearGradient330" gradientUnits="userSpaceOnUse" x1="236.025986" x2="236.025986" y1="180.808498" y2="168.246478">
      <stop offset="0" stop-color="#66707f"/>
      <stop offset="1" stop-color="#4b5469"/>
    </linearGradient>
    <linearGradient id="linearGradient121" gradientUnits="userSpaceOnUse" x1="125.313444" x2="125.313444" y1="167.834792" y2="180.397292">
      <stop offset="0" stop-color="#fcdd29"/>
      <stop offset=".25" stop-color="#f0b700"/>
      <stop offset=".5" stop-color="#ebb400"/>
      <stop offset="1" stop-color="#fbe348"/>
    </linearGradient>
    <linearGradient id="linearGradient434" gradientUnits="userSpaceOnUse" x1="145.799457" x2="169.426577" y1="93.911358" y2="178.808078">
      <stop offset="0" stop-color="#015da5"/>
      <stop offset="1" stop-color="#012a59"/>
    </linearGradient>
    <radialGradient id="radialGradient437" cx="124.71407" cy="63.252953" gradientTransform="matrix(.92880841 .00800747 -.00548696 .63644705 9.192423 66.239824)" gradientUnits="userSpaceOnUse" r="117.06137">
      <stop offset="0" stop-color="#fff"/>
      <stop offset="1" stop-color="#fff" stop-opacity=".6"/>
    </radialGradient>
    <linearGradient id="linearGradient445" gradientUnits="userSpaceOnUse" x1="129.574888" x2="130.167918" xlink:href="#linearGradient339" y1="118.345757" y2="153.435017"/>
    <linearGradient id="linearGradient283" gradientUnits="userSpaceOnUse" x1="-2" x2="9.63942" y1=".130757" y2=".130757">
      <stop offset="0" stop-color="#252525"/>
      <stop offset=".41657403" stop-color="#595b57"/>
      <stop offset=".58226007" stop-color="#545553"/>
      <stop offset="1" stop-color="#191a19"/>
    </linearGradient>
    <radialGradient id="radialGradient286" cx="0" cy="6.75" gradientTransform="matrix(1 0 0 .83333333 0 1.125)" gradientUnits="userSpaceOnUse" r="3">
      <stop offset=".1065" stop-color="#d3d7cf"/>
      <stop offset="1" stop-color="#555753"/>
    </radialGradient>
    <radialGradient id="radialGradient287" cx="0" cy="-6.635588" gradientTransform="matrix(1 0 0 .8714707 0 -.852867)" gradientUnits="userSpaceOnUse" r="3">
      <stop offset=".4024" stop-color="#eeeeec"/>
      <stop offset="1" stop-color="#555753"/>
    </radialGradient>
    <filter id="filter295" color-interpolation-filters="sRGB" height="1.04691" width="1.063615" x="-.031808" y="-.023455">
      <feGaussianBlur stdDeviation=".18074148"/>
    </filter>
    <linearGradient id="linearGradient341" gradientUnits="userSpaceOnUse" x1="116.17194" x2="125.84948" xlink:href="#linearGradient339" y1="81.12722" y2="180.05763"/>
    <filter id="filter341" color-interpolation-filters="sRGB" height="1.038407" width="1.008602" x="-.004301" y="-.019203">
      <feGaussianBlur stdDeviation=".41611044"/>
    </filter>
    <radialGradient id="radialGradient343" cx="122.62952" cy="203.84174" gradientTransform="matrix(1.4818293 -.05571695 .02678716 .71242208 -61.076827 16.404081)" gradientUnits="userSpaceOnUse" r="116.09375">
      <stop offset="0" stop-color="#464646"/>
      <stop offset=".5696097" stop-color="#373737"/>
      <stop offset="1" stop-color="#0e0e0e"/>
    </radialGradient>
    <filter id="filter1128" color-interpolation-filters="sRGB" height="1.067673" width="1.030068" x="-.015034" y="-.033837">
      <feGaussianBlur stdDeviation="1.4822207"/>
    </filter>
  </defs>
  <path d="m40.095183 76.388152-9.630859 16.68164h-13.835938l-3.753906 4v2.330078h-.25c-1.107995 0-2 .89201-2 2.00002v28.70313h2.25v8.54101h-2.25v9.45899h2.25v8.54101h-2.25v22.87695c0 1.10796.892005 2 2 2h104.90236v-10.02539c0-1.108.892-2 2-2h.42969c1.108 0 2 .892 2 2v10.02539h123.28906c1.108 0 2-.89204 2-2v-22.87695h-2.18359v-8.54101h2.18359v-9.45899h-2.18359v-8.54101h2.18359v-28.70313c0-1.10801-.892-2.00002-2-2.00002h-.18359v-2.330078l-3.75391-4h-13.83593l-9.63086-16.68164h-16.61133l7.76953 13.453125-3.72461 2.150391-9.01172-15.603516h-8.36719l7.95313 13.77539-3.72461 2.150391-9.19336-15.925781h-8.39844l8.16797 14.15039-3.72461 2.150391-9.41211-16.300781h-8.43359l8.41992 14.58789-3.72461 2.150391-9.66406-16.738281h-9.97461l-7.60937 8.603516h-19.21876l-7.60937-8.603516h-9.97461l-9.664082 16.738281-3.724609-2.150391 8.419922-14.58789h-8.433594l-9.412109 16.300781-3.72461-2.150391 8.167969-14.15039h-8.398438l-9.193359 15.925781-3.724609-2.150391 7.953125-13.77539h-8.367188l-9.011719 15.603516-3.724609-2.150391 7.769531-13.453125zm73.023457 16.90625h31.69922v4.300781h-31.69922zm-97.15041 79.082048a2.5 2.5 0 0 1 2.5 2.5 2.5 2.5 0 0 1 -2.5 2.5 2.5 2.5 0 0 1 -2.5-2.5 2.5 2.5 0 0 1 2.5-2.5zm226.00002 0a2.5 2.5 0 0 1 2.5 2.5 2.5 2.5 0 0 1 -2.5 2.5 2.5 2.5 0 0 1 -2.5-2.5 2.5 2.5 0 0 1 2.5-2.5z" filter="url(#filter1128)" opacity=".599866" stroke-linejoin="bevel" stroke-opacity=".272694" stroke-width="2"/>
  <path d="m11.656251 98.432614c-1.107996 0-2 .892-2 1.999996v28.70313h6.501953v8.54101h-6.501953v9.45899h6.501953v8.54101h-6.501953v22.87696c0 1.10796.892004 2 2 2h104.902339v-10.02539c0-1.108.892-2 2-2h.42969c1.108 0 2 .892 2 2v10.02539h123.28906c1.108 0 2-.89204 2-2v-22.87696h-6.74218v-8.54101h6.74218v-9.45899h-6.74218v-8.54101h6.74218v-28.70313c0-1.107996-.892-1.999996-2-1.999996zm3.34375 72.976556a2.5 2.5 0 0 1 2.5 2.5 2.5 2.5 0 0 1 -2.5 2.5 2.5 2.5 0 0 1 -2.5-2.5 2.5 2.5 0 0 1 2.5-2.5zm225.999999 0a2.5 2.5 0 0 1 2.5 2.5 2.5 2.5 0 0 1 -2.5 2.5 2.5 2.5 0 0 1 -2.5-2.5 2.5 2.5 0 0 1 2.5-2.5z" fill="url(#linearGradient434)" stroke-linejoin="bevel" stroke-opacity=".272694" stroke-width="2"/>
  <rect filter="url(#filter341)" height="52.004543" opacity=".420622" width="232.1875" x="11.906252" y="106.62093"/>
  <path d="m11.656251 167.83496c-1.107997 0-2 .892-2 2v8.67187c0 1.108.892003 2 2 2h104.902339v-9.97851c0-1.108.892-2 2-2h.42969c1.108 0 2 .892 2 2v9.97851h123.32617c1.108 0 2-.892 2-2v-8.67187c0-1.108-.892-2-2-2zm3.34375 3.57421a2.5 2.5 0 0 1 2.5 2.5 2.5 2.5 0 0 1 -2.5 2.5 2.5 2.5 0 0 1 -2.5-2.5 2.5 2.5 0 0 1 2.5-2.5zm225.999999 0a2.5 2.5 0 0 1 2.5 2.5 2.5 2.5 0 0 1 -2.5 2.5 2.5 2.5 0 0 1 -2.5-2.5 2.5 2.5 0 0 1 2.5-2.5z" fill="url(#linearGradient330)"/>
  <path d="m19.518523 167.83478v11.25196l1.177734 1.31054 1.177735-1.04687v-11.51563zm2.617187 0v11.25196l1.177735 1.31054 1.177734-1.04687v-11.51563zm2.617188 0v11.25196l1.177734 1.31054 1.177735-1.04687v-11.51563zm2.617187 0v11.25196l1.177735 1.31054 1.177734-1.04687v-11.51563zm2.617188 0v11.25196l1.177734 1.31054 1.177735-1.04687v-11.51563zm2.617188 0v11.25196l1.177734 1.31054 1.175781-1.04687v-11.51563zm2.617187 0v11.25196l1.177735 1.31054 1.177734-1.04687v-11.51563zm2.617188 0v11.25196l1.177734 1.31054 1.177734-1.04687v-11.51563zm2.617187 0v11.25196l1.177734 1.31054 1.177735-1.04687v-11.51563zm2.617188 0v11.25196l1.177734 1.31054 1.177734-1.04687v-11.51563zm2.617187 0v11.25196l1.177735 1.31054 1.177734-1.04687v-11.51563zm2.617188 0v11.25196l1.177734 1.31054 1.177734-1.04687v-11.51563zm2.617187 0v11.25196l1.177734 1.31054 1.177735-1.04687v-11.51563zm2.617188 0v11.25196l1.177734 1.31054 1.177734-1.04687v-11.51563zm2.617187 0v11.25196l1.177735 1.31054 1.177734-1.04687v-11.51563zm2.617188 0v11.25196l1.177734 1.31054 1.177734-1.04687v-11.51563zm2.617187 0v11.25196l1.177734 1.31054 1.177735-1.04687v-11.51563zm2.617188 0v11.25196l1.177734 1.31054 1.177734-1.04687v-11.51563zm2.615234 0v11.25196l1.179688 1.31054 1.177734-1.04687v-11.51563zm2.619141 0v11.25196l1.177734 1.31054 1.177734-1.04687v-11.51563zm2.617187 0v11.25196l1.177734 1.31054 1.177735-1.04687v-11.51563zm2.617188 0v11.25196l1.177734 1.31054 1.177734-1.04687v-11.51563zm2.617187 0v11.25196l1.177735 1.31054 1.177734-1.04687v-11.51563zm2.617188 0v11.25196l1.177734 1.31054 1.177734-1.04687v-11.51563zm2.617187 0v11.25196l1.177734 1.31054 1.177735-1.04687v-11.51563zm2.617188 0v11.25196l1.177734 1.31054 1.177734-1.04687v-11.51563zm2.617187 0v11.25196l1.177735 1.31054 1.177734-1.04687v-11.51563zm2.617188 0v11.25196l1.177734 1.31054 1.177734-1.04687v-11.51563zm2.617187 0v11.25196l1.177734 1.31054 1.177735-1.04687v-11.51563zm2.617192 0v11.25196l1.17773 1.31054 1.17773-1.04687v-11.51563zm2.61718 0v11.25196l1.17774 1.31054 1.177725-1.04687v-11.51563zm2.617185 0v11.25196l1.17773 1.31054 1.17774-1.04687v-11.51563zm2.61719 0v11.25196l1.17773 1.31054 1.17969-1.04687v-11.51563zm2.61914 0v11.25196l1.17773 1.31054 1.17774-1.04687v-11.51563zm2.61719 0v11.25196l1.17773 1.31054 1.17774-1.04687v-11.51563zm2.60288 0v11.25196l1.17773 1.31054 1.17774-1.04687v-11.51563zm13.02798 0v11.25196l1.17773 1.31054 1.17773-1.04687v-11.51563zm2.61718 0v11.25196l1.17774 1.31054 1.17773-1.04687v-11.51563zm2.61719 0v11.25196l1.17774 1.31054 1.17773-1.04687v-11.51563zm2.61719 0v11.25196l1.17773 1.31054 1.17774-1.04687v-11.51563zm2.61719 0v11.25196l1.17773 1.31054 1.17578-1.04687v-11.51563zm2.61718 0v11.25196l1.17774 1.31054 1.17773-1.04687v-11.51563zm2.61719 0v11.25196l1.17773 1.31054 1.17774-1.04687v-11.51563zm2.61719 0v11.25196l1.17773 1.31054 1.17774-1.04687v-11.51563zm2.61719 0v11.25196l1.17773 1.31054 1.17773-1.04687v-11.51563zm2.61718 0v11.25196l1.17774 1.31054 1.17773-1.04687v-11.51563zm2.61719 0v11.25196l1.17774 1.31054 1.17773-1.04687v-11.51563zm2.61719 0v11.25196l1.17773 1.31054 1.17774-1.04687v-11.51563zm2.61719 0v11.25196l1.17773 1.31054 1.17773-1.04687v-11.51563zm2.61718 0v11.25196l1.17774 1.31054 1.17773-1.04687v-11.51563zm2.61719 0v11.25196l1.17773 1.31054 1.17774-1.04687v-11.51563zm2.61719 0v11.25196l1.17773 1.31054 1.17774-1.04687v-11.51563zm2.61719 0v11.25196l1.17773 1.31054 1.17773-1.04687v-11.51563zm2.61523 0v11.25196l1.17969 1.31054 1.17773-1.04687v-11.51563zm2.61914 0v11.25196l1.17774 1.31054 1.17773-1.04687v-11.51563zm2.61719 0v11.25196l1.17773 1.31054 1.17774-1.04687v-11.51563zm2.61719 0v11.25196l1.17773 1.31054 1.17773-1.04687v-11.51563zm2.61718 0v11.25196l1.17774 1.31054 1.17773-1.04687v-11.51563zm2.61719 0v11.25196l1.17773 1.31054 1.17774-1.04687v-11.51563zm2.61719 0v11.25196l1.17773 1.31054 1.17774-1.04687v-11.51563zm2.61719 0v11.25196l1.17773 1.31054 1.17773-1.04687v-11.51563zm2.61718 0v11.25196l1.17774 1.31054 1.17773-1.04687v-11.51563zm2.61719 0v11.25196l1.17774 1.31054 1.17773-1.04687v-11.51563zm2.61719 0v11.25196l1.17773 1.31054 1.17774-1.04687v-11.51563zm2.61719 0v11.25196l1.17773 1.31054 1.17773-1.04687v-11.51563zm2.61718 0v11.25196l1.17774 1.31054 1.17773-1.04687v-11.51563zm2.61719 0v11.25196l1.17773 1.31054 1.17774-1.04687v-11.51563zm2.61719 0v11.25196l1.17773 1.31054 1.17969-1.04687v-11.51563zm2.61914 0v11.25196l1.17773 1.31054 1.17774-1.04687v-11.51563zm2.61719 0v11.25196l1.17773 1.31054 1.17774-1.04687v-11.51563zm2.61718 0v11.25196l1.17774 1.31054 1.17773-1.04687v-11.51563zm2.61719 0v11.25196l1.17774 1.31054 1.17773-1.04687v-11.51563zm2.61719 0v11.25196l1.17773 1.31054 1.17774-1.04687v-11.51563zm2.61719 0v11.25196l1.17773 1.31054 1.17773-1.04687v-11.51563zm2.61718 0v11.25196l1.17774 1.31054 1.17773-1.04687v-11.51563zm2.61719 0v11.25196l1.17774 1.31054 1.17773-1.04687v-11.51563zm2.61719 0v11.25196l1.17773 1.31054 1.17774-1.04687v-11.51563zm2.61719 0v11.25196l1.17773 1.31054 1.17774-1.04687v-11.51563zm2.61718 0v11.25196l1.17774 1.31054 1.17773-1.04687v-11.51563z" fill="url(#linearGradient121)" stroke-width="2"/>
  <g id="use26" transform="matrix(.26179998 0 0 -.26179998 20.966761 162.79274)">
    <path d="m-2.81402 9.0613585v-4.9984486h.99969v-8.2660909h-.99969v-5.22972h5.998138v5.050671h1.641282v-5.050671h5.998136v5.22972h-.9996874v8.2660909h.9996874v4.9984486h-5.998136v-4.8193997h-1.641282v4.8193997z" filter="url(#filter295)" opacity=".4"/>
    <path d="m-2 4.4249593v-8.6210943h11.63942v8.6210943z" fill="url(#linearGradient283)"/>
    <path id="path43" d="m-3-4.0211758v-5.2288242h6v5.2288242z" fill="url(#radialGradient287)"/>
    <path id="path45" d="m-3 9.25v-5h6v5z" fill="url(#radialGradient286)"/>
    <use transform="translate(7.63942)" xlink:href="#path43"/>
    <use transform="translate(7.63942)" xlink:href="#path45"/>
  </g>
  <path d="m11.867188 99.335938c-.831 0-1.5.669002-1.5 1.500002v27.61523h5.791015v10h-5.791015v8h5.791015v10h-5.791015v21.87695c0 .831.669 1.5 1.5 1.5h104.006762v-9.29492c0-1.45313 1.11972-2.68464 2.68464-2.68464h.42969c1.45681 0 2.68464 1.13329 2.68464 2.68464v9.29492h122.45989c.831 0 1.5-.669 1.5-1.5v-21.87695h-6.09765v-10h6.09765v-8h-6.09765v-10h6.09765v-27.61523c0-.831-.669-1.500003-1.5-1.500002z" fill="none" stroke="url(#radialGradient437)" stroke-linejoin="round" stroke-width="1.5"/>
  <path d="m39.126954 75.420897-9.63086 16.681641h-13.835937l-3.753906 4v61.554682h232.187499v-61.554682l-3.75391-4h-13.83593l-9.63086-16.681641h-16.61133l7.76953 13.453121-3.72461 2.15039-9.01172-15.603511h-8.36719l7.95313 13.775391-3.72461 2.15039-9.19336-15.925781h-8.39844l8.16797 14.148441-3.72461 2.15039-9.41211-16.298831h-8.43359l8.41992 14.585941-3.72461 2.15039-9.66406-16.736331h-9.97461l-7.60938 8.603516h-19.21875l-7.60937-8.603516h-9.97461l-9.664061 16.736331-3.72461-2.15039 8.419922-14.585941h-8.433594l-9.412109 16.298831-3.724609-2.15039 8.167968-14.148441h-8.398437l-9.19336 15.925781-3.724609-2.15039 7.953125-13.775391h-8.367187l-9.011719 15.603511-3.72461-2.15039 7.769532-13.453121zm73.023436 16.904301h31.69922v4.30273h-31.69922z" fill="url(#radialGradient343)"/>
  <rect fill="none" height="39.667168" rx="2" stroke="url(#linearGradient445)" stroke-linejoin="bevel" stroke-opacity=".440008" stroke-width="2" width="218.32678" x="18.836611" y="111.52276"/>
  <use id="use295" transform="translate(6)" xlink:href="#use26"/>
  <use id="use296" transform="translate(6)" xlink:href="#use295"/>
  <use id="use297" transform="translate(6)" xlink:href="#use296"/>
  <use id="use298" transform="translate(6)" xlink:href="#use297"/>
  <use id="use299" transform="translate(6)" xlink:href="#use298"/>
  <use id="use300" transform="translate(6)" xlink:href="#use299"/>
  <use id="use301" transform="translate(6)" xlink:href="#use300"/>
  <use id="use302" transform="translate(6)" xlink:href="#use301"/>
  <use id="use303" transform="translate(6)" xlink:href="#use302"/>
  <use id="use304" transform="translate(6)" xlink:href="#use303"/>
  <use id="use305" transform="translate(6)" xlink:href="#use304"/>
  <use id="use306" transform="translate(6)" xlink:href="#use305"/>
  <use id="use307" transform="translate(6)" xlink:href="#use306"/>
  <use id="use308" transform="translate(6)" xlink:href="#use307"/>
  <use id="use309" transform="translate(6)" xlink:href="#use308"/>
  <use id="use310" transform="translate(14)" xlink:href="#use309"/>
  <use id="use311" transform="translate(6)" xlink:href="#use310"/>
  <use id="use312" transform="translate(6)" xlink:href="#use311"/>
  <use id="use313" transform="translate(6)" xlink:href="#use312"/>
  <use id="use314" transform="translate(6)" xlink:href="#use313"/>
  <use id="use315" transform="translate(6)" xlink:href="#use314"/>
  <use id="use316" transform="translate(6)" xlink:href="#use315"/>
  <use id="use317" transform="translate(6)" xlink:href="#use316"/>
  <use id="use318" transform="translate(6)" xlink:href="#use317"/>
  <use id="use319" transform="translate(6)" xlink:href="#use318"/>
  <use id="use320" transform="translate(6)" xlink:href="#use319"/>
  <use id="use321" transform="translate(6)" xlink:href="#use320"/>
  <use id="use322" transform="translate(6)" xlink:href="#use321"/>
  <use id="use323" transform="translate(6)" xlink:href="#use322"/>
  <use id="use324" transform="translate(6)" xlink:href="#use323"/>
  <use id="use325" transform="translate(6)" xlink:href="#use324"/>
  <use id="use326" transform="translate(6)" xlink:href="#use325"/>
  <use id="use327" transform="translate(6)" xlink:href="#use326"/>
  <use transform="translate(6)" xlink:href="#use327"/>
  <path d="m41.828125 89.896484-9.095703 15.755856a1.8493741 1.8493741 0 0 1 -1.601563.92579h-13.035156l-2.705078 2.88281v58.97265h228.488285v-58.97265l-2.70508-2.88281h-13.03516a1.8493741 1.8493741 0 0 1 -1.60156-.92579l-9.09766-15.755856h-12.33789l6.16602 10.677736a1.8493741 1.8493741 0 0 1 -.67774 2.52734l-3.72461 2.15039a1.8493741 1.8493741 0 0 1 -2.52539-.67578l-8.47851-14.679686h-4.09571l6.35157 11.001956a1.8493741 1.8493741 0 0 1 -.67774 2.52539l-3.72461 2.15039a1.8493741 1.8493741 0 0 1 -2.52539-.67774l-8.66015-14.999996h-4.12696l6.56641 11.374996a1.8493741 1.8493741 0 0 1 -.67773 2.5254l-3.72461 2.15039a1.8493741 1.8493741 0 0 1 -2.52539-.67774l-8.87891-15.373046h-4.16211l6.81836 11.812496a1.8493741 1.8493741 0 0 1 -.67774 2.5254l-3.7246 2.15039a1.8493741 1.8493741 0 0 1 -2.5254-.67774l-9.13085-15.810546h-8.07227l-7.05859 7.978516a1.8493741 1.8493741 0 0 1 -1.38477.625h-19.21875a1.8493741 1.8493741 0 0 1 -1.38476-.625l-7.0586-7.978516h-8.07226l-9.130864 15.810546a1.8493741 1.8493741 0 0 1 -2.52539.67774l-3.72461-2.15039a1.8493741 1.8493741 0 0 1 -.677734-2.5254l6.818359-11.812496h-4.162109l-8.878906 15.373046a1.8493741 1.8493741 0 0 1 -2.525391.67774l-3.724609-2.15039a1.8493741 1.8493741 0 0 1 -.677735-2.5254l6.566406-11.374996h-4.126953l-8.660156 14.999996a1.8493741 1.8493741 0 0 1 -2.525391.67774l-3.724609-2.15039a1.8493741 1.8493741 0 0 1 -.677734-2.52539l6.351562-11.001956h-4.095703l-8.478516 14.679686a1.8493741 1.8493741 0 0 1 -2.52539.67578l-3.72461-2.15039a1.8493741 1.8493741 0 0 1 -.677734-2.52734l6.166016-10.677736zm71.957035 13.205076h31.69921a1.8493741 1.8493741 0 0 1 1.84961 1.84961v4.30274a1.8493741 1.8493741 0 0 1 -1.84961 1.84961h-31.69921a1.8493741 1.8493741 0 0 1 -1.84961-1.84961v-4.30274a1.8493741 1.8493741 0 0 1 1.84961-1.84961z" fill="none" opacity=".694" stroke="url(#linearGradient341)" stroke-width="1.5" transform="translate(-1.635199 -12.625512)"/>
</svg>
