<svg height="256" width="256" xmlns="http://www.w3.org/2000/svg" xmlns:xlink="http://www.w3.org/1999/xlink">
  <defs>
    <linearGradient id="linearGradient9975">
      <stop offset="0" stop-color="#fff"/>
      <stop offset="1" stop-color="#fff" stop-opacity="0"/>
    </linearGradient>
    <mask id="mask3656-5" maskUnits="userSpaceOnUse">
      <path d="m4.017582-.203125c-1.656856 0-3.000001.606608-3.000001 1.355469v19.546878c-1.760351.99283-2.850456 2.85593-2.853515 4.87695-.00026 3.09732 2.510107 5.60855 5.607413 5.60938 3.098084.00025 5.609632-2.5113 5.609384-5.60938-.001-1.83162-.896544-3.5473-2.398442-4.5957.0021-6.54285-.0041-13.44109.0021-19.789066 0-.748861-1.309943-1.394531-2.966799-1.394531z" fill="#fff" opacity=".94"/>
    </mask>
    <filter id="filter2785-5" color-interpolation-filters="sRGB" height="1.104469" width="1.265244" x="-.132622" y="-.052234">
      <feGaussianBlur stdDeviation=".72430395"/>
    </filter>
    <linearGradient id="linearGradient3150" gradientUnits="userSpaceOnUse" x1="83.132808" x2="172.867184" y1="128.129605" y2="128.129605">
      <stop offset="0" stop-color="#d5dadc"/>
      <stop offset=".5" stop-color="#cedce2" stop-opacity=".316206"/>
      <stop offset="1" stop-color="#c2e2ef" stop-opacity="0"/>
    </linearGradient>
    <linearGradient id="linearGradient3154" gradientUnits="userSpaceOnUse" x1="26.503858" x2="59.936786" xlink:href="#linearGradient9975" y1="64.270785" y2="63.410521"/>
    <filter id="filter3157" color-interpolation-filters="sRGB" height="1.016034" width="1.047699" x="-.02385" y="-.008017">
      <feGaussianBlur stdDeviation=".40603796"/>
    </filter>
    <linearGradient id="linearGradient3163" gradientUnits="userSpaceOnUse" x1="91.790874" x2="70.725834" xlink:href="#linearGradient9975" y1="63.783821" y2="63.550929"/>
    <radialGradient id="radialGradient3516" cx="65.997253" cy="111.62859" gradientTransform="matrix(1 0 0 .70995394 -.343276 32.629267)" gradientUnits="userSpaceOnUse" r="12.359787">
      <stop offset="0" stop-color="#fff"/>
      <stop offset="1" stop-color="#ff4431"/>
    </radialGradient>
    <radialGradient id="radialGradient3809" cx="65.540886" cy="102.19621" gradientTransform="matrix(2.2010406 .00238342 -.00296166 2.7350782 -12.900624 -77.862137)" gradientUnits="userSpaceOnUse" r="20.420834">
      <stop offset="0" stop-color="#ff311c" stop-opacity="0"/>
      <stop offset=".75260073" stop-color="#ff311c" stop-opacity=".058824"/>
      <stop offset="1" stop-color="#ff1801" stop-opacity=".498326"/>
    </radialGradient>
    <radialGradient id="radialGradient4104" cx="66.813194" cy="30.571547" gradientTransform="matrix(.71807755 -.00458307 .00153648 .24073608 18.669143 22.785469)" gradientUnits="userSpaceOnUse" r="5.902411">
      <stop offset="0" stop-color="#fff"/>
      <stop offset="1" stop-color="#ff240e"/>
    </radialGradient>
    <linearGradient id="linearGradient4399" gradientUnits="userSpaceOnUse" x1="91.167888" x2="124.1752" xlink:href="#linearGradient9975" y1="20.431693" y2="25.911797"/>
    <linearGradient id="linearGradient4458" gradientTransform="matrix(-8 0 0 8 369.83598 4.199893)" gradientUnits="userSpaceOnUse" x1="25.085119" x2="29.294365" xlink:href="#linearGradient9975" y1="2.145701" y2="2.713988"/>
    <radialGradient id="radialGradient4751" cx="64.94017" cy="29.679243" gradientTransform="matrix(4.7214626 -.01105788 .00464314 1.9825148 -176.86999 -37.265667)" gradientUnits="userSpaceOnUse" r="11.933614">
      <stop offset="0" stop-color="#fff" stop-opacity="0"/>
      <stop offset=".42801192" stop-color="#fff" stop-opacity=".05098"/>
      <stop offset="1" stop-color="#fff"/>
    </radialGradient>
  </defs>
  <path d="m4.017578-1.1484375c-.943741 0-1.802503.1609528-2.509766.48046875-.353631.15975798-.674162.35889874-.943359.64648437-.269197.28758564-.492187.70415872-.492187 1.17382818v19.1972652c-1.709874 1.218952-2.850296 3.097355-2.853516 5.22461v.002c-.000303 3.607912 2.944838 6.553721 6.552734 6.554687 3.608789.000292 6.554977-2.945902 6.554688-6.554687-.0011-1.929456-.944415-3.67508-2.398438-4.91211.0018-6.449958-.0041-13.2274405.002-19.4726558 0-.92537446-.699107-1.49553348-1.400391-1.83007808-.701284-.33454459-1.560552-.50976562-2.511719-.50976562zm0 1.890625c.705689 0 1.329365.1487131 1.697266.3242187.367901.1755057.324219.3015136.324218.125-.0062 6.3492599.000147 13.2470228-.002 19.7890628v.492187l.404297.283203c1.249723.872369 1.993309 2.296361 1.994141 3.820313.000207 2.587375-2.076683 4.664271-4.664063 4.664062-2.586716-.000693-4.662326-2.077334-4.662109-4.664062.0032-1.681375.90844-3.228656 2.373047-4.054688l.480469-.269531v-19.9941405c.04138-.04051.143679-.1224463.322265-.203125.378524-.1710033 1.019307-.3125 1.732422-.3125z" fill="#622121" fill-opacity=".657702" filter="url(#filter2785-5)" mask="url(#mask3656-5)" opacity=".704584" transform="matrix(8 0 0 8 97.820285 3.940716)"/>
  <path d="m129.96094 2.5748883c-13.25485 0-24.00001 4.852864-24.00001 10.8437517v156.37502c-14.082807 7.94264-22.803647 22.84744-22.828119 39.01558-.002 24.77856 20.080859 44.8684 44.859309 44.87504 24.78467.002 44.87705-20.0904 44.87507-44.87504-.008-14.65294-7.17235-28.37838-19.18754-36.76558.0168-52.3428-.0328-107.528716.0168-158.312524 0-5.9908877-10.47954-11.1562477-23.73439-11.1562477z" fill="url(#linearGradient3150)" opacity=".94"/>
  <g transform="matrix(2 0 0 2 -.000001 -.129575)">
    <path d="m64.980468 27.349609c-2.574525 0-4.87046.544307-6.001953 1.052735v56.558594c.000036 2.164369-1.165813 4.160942-3.050782 5.224609-5.166402 2.913827-8.352895 8.357868-8.363281 14.289063-.000002.001.000002.003 0 .004.0045 9.14327 7.289015 16.42723 16.433594 16.42968 9.148013-.00032 16.436123-7.28781 16.437503-16.43554v-.002c-.004-5.372636-2.62312-10.391112-7.0293-13.466844-1.6074-1.122408-2.56492-2.959431-2.56445-4.919922.008-25.662599-.0147-32.643902.008-57.636718-.0363-.01865.01.0048-.0332-.01563-1.08017-.515293-3.301392-1.082032-5.835931-1.082032z" fill="#a90f00" fill-opacity=".635294" opacity=".94" stroke-width="24"/>
    <path d="m64.121094 29.371094c-1.05802.06691-2.114837.204544-3.142578.46875-.01043 18.531154.02085 37.063071-.01563 55.59375-.131524 2.859726-1.956167 5.488787-4.5 6.757812-4.602035 2.74763-7.367714 8.221994-6.840836 13.557284.380739 5.23767 3.89702 10.0791 8.766617 12.05014 5.167355 2.18605 11.567943 1.07817 15.599864-2.85749 4.107734-3.82714 5.543777-10.15652 3.570187-15.39991-1.048458-2.959984-3.143453-5.474622-5.730598-7.225024-2.110379-1.650434-3.17866-4.38657-2.986382-7.032422-.0033-18.477474-.0012-36.954948.0079-55.432422-1.53762-.415788-3.139925-.550397-4.728515-.480468z" fill="#e01400" fill-opacity=".635294" opacity=".94" stroke-width="24"/>
    <path d="m64.228516 31.369141c-.548453.09985-1.53163-.142686-1.249956.725-.01139 17.868782.03242 35.739505-.03188 53.607068-.206947 3.565699-2.557286 6.797546-5.721 8.371234-4.248109 2.678941-6.4901 8.105347-5.402599 13.006357.944874 4.68263 4.816848 8.62744 9.518713 9.55792 4.492916.96544 9.489385-.67274 12.354225-4.31181 3.291722-4.02714 3.667896-10.16756.786802-14.519959-1.058962-1.726441-2.63071-3.039937-4.247813-4.216854-2.493454-2.127677-3.651886-5.521738-3.393156-8.745909.0026-17.786589.0052-35.573178.0078-53.359766-.868658-.115918-1.74566-.149841-2.621093-.113281z" fill="#ff1d07" fill-opacity=".635294" opacity=".94" stroke-width="24"/>
    <ellipse cx="64.186729" cy="110.68214" fill="url(#radialGradient3516)" opacity=".704584" rx="10.279025" ry="6.219779"/>
    <ellipse cx="64.917648" cy="29.394571" fill="url(#radialGradient4104)" opacity=".704584" rx="5.528677" ry="1.420952" stroke="#c70000" stroke-linejoin="round" stroke-width=".936681"/>
  </g>
  <path d="m63.851562 3.2480469c-2.767568.1856636-5.694465.6158591-8.013707 2.2479247-.597878.3952328-1.015614 1.0515899-.857386 1.7895753v78.6910151c-3.22468 1.713604-6.110614 4.132453-8.088003 7.225701-3.805288 5.722099-4.388813 13.403347-1.4777 19.629787 2.869999 6.4113 9.260133 11.07534 16.251988 11.80716 6.4019.78512 13.079121-1.71434 17.402847-6.49826 4.533716-4.87724 6.395579-12.04869 4.80808-18.51482-1.176668-5.083523-4.420859-9.59949-8.774335-12.454432-.538351-.307139-.146448-1.091424-.263522-1.614667-.007397-26.268948.006946-52.538395.001973-78.807031-.392302-1.2035223-1.713074-1.7635587-2.776149-2.268332-2.590451-1.0487355-5.43903-1.3442456-8.214086-1.2336211z" fill="url(#linearGradient3154)" filter="url(#filter3157)" opacity=".94" transform="matrix(2 0 0 2 -.000001 -.129575)"/>
  <path d="m63.851562 3.2480469c-2.767568.1856636-5.694465.6158591-8.013707 2.2479247-.597878.3952328-1.015614 1.0515899-.857386 1.7895753v78.6910151c-3.22468 1.713604-6.110614 4.132453-8.088003 7.225701-3.805288 5.722099-4.388813 13.403347-1.4777 19.629787 2.869999 6.4113 9.260133 11.07534 16.251988 11.80716 6.4019.78512 13.079121-1.71434 17.402847-6.49826 4.533716-4.87724 6.395579-12.04869 4.80808-18.51482-1.176668-5.083523-4.420859-9.59949-8.774335-12.454432-.538351-.307139-.146448-1.091424-.263522-1.614667-.007397-26.268948.006946-52.538395.001973-78.807031-.392302-1.2035223-1.713074-1.7635587-2.776149-2.268332-2.590451-1.0487355-5.43903-1.3442456-8.214086-1.2336211z" fill="url(#linearGradient3163)" filter="url(#filter3157)" opacity=".94" transform="matrix(2 0 0 2 -.000001 -.129575)"/>
  <circle cx="128" cy="208.60822" fill="url(#radialGradient3809)" opacity=".704584" r="40.841667"/>
  <path d="m129.96094 2.5735503c-13.25484 0-24 4.852868-24 10.8437497v138.51563h47.72265c.002-46.22249-.0316-93.870092.0118-138.20313 0-5.9908817-10.47954-11.1562497-23.73437-11.1562497z" fill="url(#linearGradient4399)" opacity=".94"/>
  <path d="m129.69531 2.5735503c13.25484 0 24 4.852868 24 10.8437497v138.51563h-47.72265c-.002-46.22249.0316-93.870092-.0118-138.20313 0-5.9908817 10.47954-11.1562497 23.73437-11.1562497z" fill="url(#linearGradient4458)" opacity=".94"/>
  <path d="m129.69531 2.5735503c-13.25482 0-23.73437 5.165374-23.73437 11.1562497.002 1.983582-.002 4.187166 0 6.183593 3.98839-.085 8.09811-.140624 12.38281-.140624h17.125c6.43751 0 12.51994.118394 18.22656.304688v-6.660157c0-5.9908757-10.74517-10.8437497-24-10.8437497z" fill="url(#radialGradient4751)" opacity=".94"/>
</svg>
