<svg height="256" viewBox="0 0 256 256" width="256" xmlns="http://www.w3.org/2000/svg" xmlns:xlink="http://www.w3.org/1999/xlink">
  <defs>
    <linearGradient id="linearGradient1098">
      <stop offset="0" stop-opacity=".25"/>
      <stop offset="1" stop-opacity="0"/>
    </linearGradient>
    <linearGradient id="linearGradient914">
      <stop offset="0" stop-color="#f1f3f4"/>
      <stop offset="1" stop-color="#3d556d"/>
    </linearGradient>
    <linearGradient id="linearGradient989">
      <stop offset="0" stop-color="#464d57"/>
      <stop offset="1" stop-color="#6886b3"/>
    </linearGradient>
    <linearGradient id="linearGradient866">
      <stop offset="0" stop-color="#464d57"/>
      <stop offset="1" stop-color="#5171a0"/>
    </linearGradient>
    <linearGradient id="linearGradient878" gradientUnits="userSpaceOnUse" x1="58.00687498271" x2="12.78426331185" xlink:href="#linearGradient866" y1="137.04490912397" y2="70.00882770023"/>
    <linearGradient id="linearGradient887" gradientUnits="userSpaceOnUse" x1="74.82079024518" x2="16.42597606596" y1="133.63032316877" y2="60.26233350404">
      <stop offset="0" stop-color="#bfd3f4"/>
      <stop offset="1" stop-color="#ecf4fd" stop-opacity=".992157"/>
    </linearGradient>
    <filter id="filter961" color-interpolation-filters="sRGB" height="1.173108" width="1.28715" x="-.143575" y="-.086554">
      <feGaussianBlur stdDeviation="11.77372"/>
    </filter>
    <filter id="filter967" color-interpolation-filters="sRGB" height="1.074552" width="1.036561" x="-.01828" y="-.037276">
      <feGaussianBlur stdDeviation=".1394325"/>
    </filter>
    <filter id="filter973" color-interpolation-filters="sRGB" height="1.040223" width="1.082132" x="-.041066" y="-.020111">
      <feGaussianBlur stdDeviation=".2352339"/>
    </filter>
    <linearGradient id="linearGradient983" gradientUnits="userSpaceOnUse" x1="102.64504969718" x2="94.57989178156" xlink:href="#linearGradient989" y1="173.07417696595" y2="92.9859414422"/>
    <filter id="filter1009" color-interpolation-filters="sRGB" height="1.062319" width="1.103374" x="-.051687" y="-.031159">
      <feGaussianBlur stdDeviation="4.2385392"/>
    </filter>
    <linearGradient id="linearGradient1023" gradientUnits="userSpaceOnUse" x1="301.73047" x2="313.50558" y1="371.28226" y2="377.78586">
      <stop offset="0" stop-opacity=".004023"/>
      <stop offset=".5" stop-opacity=".3"/>
      <stop offset="1" stop-opacity="0"/>
    </linearGradient>
    <filter id="filter1027" color-interpolation-filters="sRGB" height="1.456544" width="2.015612" x="-.507806" y="-.228272">
      <feGaussianBlur stdDeviation="2.4241764"/>
    </filter>
    <linearGradient id="linearGradient1037" gradientUnits="userSpaceOnUse" x1="143.88504554433" x2="186.41343624797" y1="74.58519507611" y2="73.29096873195">
      <stop offset="0" stop-color="#acb8c8"/>
      <stop offset="1" stop-color="#eef0f3" stop-opacity=".992157"/>
    </linearGradient>
    <linearGradient id="linearGradient1045" gradientUnits="userSpaceOnUse" x1="130.49212210434" x2="104.03029986401" y1="71.41194501916" y2="51.21898518426">
      <stop offset="0" stop-color="#ced7e5"/>
      <stop offset="1" stop-color="#eff4fa" stop-opacity=".992157"/>
    </linearGradient>
    <linearGradient id="linearGradient1053" gradientUnits="userSpaceOnUse" x1="135.06026839797" x2="117.27929955741" xlink:href="#linearGradient866" y1="66.91993252402" y2="57.22003322974"/>
    <linearGradient id="linearGradient1061" gradientUnits="userSpaceOnUse" x1="141.55778650438" x2="185.66943049664" xlink:href="#linearGradient989" y1="79.5423849047" y2="78.18915968973"/>
    <linearGradient id="linearGradient1065" gradientUnits="userSpaceOnUse" x1="380.535" x2="388.04007" y1="208.97651" y2="209.52323">
      <stop offset="0" stop-opacity=".004023"/>
      <stop offset=".35313925" stop-opacity=".3"/>
      <stop offset="1" stop-opacity="0"/>
    </linearGradient>
    <radialGradient id="radialGradient916" cx="409.96918" cy="421.89905" gradientTransform="matrix(.58264541 .18519964 -.36156267 1.1374904 68.036575 -386.84429)" gradientUnits="userSpaceOnUse" r="20.559221" xlink:href="#linearGradient914"/>
    <radialGradient id="radialGradient926" cx="143.68019" cy="346.64624" gradientTransform="matrix(.39912617 .36736397 -.6933093 .75325263 221.11141 -179.35185)" gradientUnits="userSpaceOnUse" r="25.976887" xlink:href="#linearGradient914"/>
    <linearGradient id="linearGradient934" gradientUnits="userSpaceOnUse" x1="38.49646228054" x2="48.27356521016" y1="125.59184540542" y2="118.96282067505">
      <stop offset="0" stop-color="#bfc7ce"/>
      <stop offset="1" stop-color="#394a58"/>
    </linearGradient>
    <linearGradient id="linearGradient942" gradientUnits="userSpaceOnUse" x1="48.06314058117" x2="42.20238585236" y1="116.73708213559" y2="125.1580835676">
      <stop offset="0" stop-color="#788aa8"/>
      <stop offset="1" stop-color="#b5bec7"/>
    </linearGradient>
    <linearGradient id="linearGradient950" gradientUnits="userSpaceOnUse" x1="160.76501363775" x2="156.24170841514" y1="154.97228776639" y2="162.02732240209">
      <stop offset="0" stop-color="#465969"/>
      <stop offset="1" stop-color="#c3cbd2"/>
    </linearGradient>
    <linearGradient id="linearGradient958" gradientUnits="userSpaceOnUse" x1="154.86163643398" x2="158.86426434493" y1="161.94048585064" y2="152.06219126382">
      <stop offset="0" stop-color="#c8cfd5"/>
      <stop offset="1" stop-color="#3a4957"/>
    </linearGradient>
    <filter id="filter1002" color-interpolation-filters="sRGB" height="1.076482" width="1.128892" x="-.064446" y="-.038241">
      <feGaussianBlur stdDeviation="5.3659819"/>
    </filter>
    <linearGradient id="linearGradient1012" gradientUnits="userSpaceOnUse" x1="88.72862089324" x2="108.42121716264" y1="120.06939149963" y2="136.02238625973">
      <stop offset="0" stop-color="#e0edf6"/>
      <stop offset="1" stop-color="#adc7ec"/>
    </linearGradient>
    <filter id="filter1016" color-interpolation-filters="sRGB" height="1.10985" width="1.085251" x="-.042626" y="-.054925">
      <feGaussianBlur stdDeviation="2.2748977"/>
    </filter>
    <linearGradient id="linearGradient1026" gradientUnits="userSpaceOnUse" x1="305.3634" x2="394.3428" xlink:href="#linearGradient1098" y1="368.6553" y2="367.9978"/>
    <filter id="filter1054" color-interpolation-filters="sRGB" height="1.274925" width="1.366124" x="-.183062" y="-.137462">
      <feGaussianBlur stdDeviation=".90054158"/>
    </filter>
    <filter id="filter1076" color-interpolation-filters="sRGB" height="1.185246" width="1.126022" x="-.063011" y="-.092623">
      <feGaussianBlur stdDeviation="1.7620489"/>
    </filter>
    <filter id="filter1090" color-interpolation-filters="sRGB" height="1.144537" width="1.071867" x="-.035933" y="-.072269">
      <feGaussianBlur stdDeviation=".7005904"/>
    </filter>
    <linearGradient id="linearGradient1100" gradientUnits="userSpaceOnUse" x1="379.94577" x2="425.76212" xlink:href="#linearGradient1098" y1="209.36549" y2="209.66646"/>
    <linearGradient id="linearGradient1075" gradientUnits="userSpaceOnUse" x1="117.47783842218" x2="252.81827530138" y1="143.70815986396" y2="131.55374794566">
      <stop offset="0" stop-color="#91b4e3"/>
      <stop offset="1" stop-color="#e5eefc"/>
    </linearGradient>
    <linearGradient id="linearGradient1077" gradientUnits="userSpaceOnUse" x1="125.54854721253" x2="170.20045442279" xlink:href="#linearGradient866" y1="124.44488385567" y2="160.64512828556"/>
    <filter id="filter1107" color-interpolation-filters="sRGB" height="1.080176" width="1.073518" x="-.036759" y="-.040088">
      <feGaussianBlur stdDeviation="2.9589537"/>
    </filter>
    <filter id="filter1122" color-interpolation-filters="sRGB" height="1.081071" width="1.117668" x="-.058834" y="-.040536">
      <feGaussianBlur stdDeviation=".61941442"/>
    </filter>
    <linearGradient id="linearGradient1132" gradientUnits="userSpaceOnUse" x1="89.73967" x2="81.133797" y1="193.54105" y2="168.58691">
      <stop offset="0" stop-opacity=".3"/>
      <stop offset="1" stop-opacity="0"/>
    </linearGradient>
    <filter id="filter1154" color-interpolation-filters="sRGB" height="1.204264" width="1.221271" x="-.110635" y="-.102132">
      <feGaussianBlur stdDeviation="8.1340545"/>
    </filter>
    <linearGradient id="linearGradient1176" gradientUnits="userSpaceOnUse" x1="452.19128" x2="455.29837" y1="330.29776" y2="363.16089">
      <stop offset="0" stop-opacity=".2"/>
      <stop offset="1" stop-opacity="0"/>
    </linearGradient>
    <filter id="filter1182" color-interpolation-filters="sRGB" height="1.273355" width="1.043124" x="-.021562" y="-.136677">
      <feGaussianBlur stdDeviation="2.7082147"/>
    </filter>
    <linearGradient id="linearGradient1192" gradientUnits="userSpaceOnUse" x1="459.37073" x2="456.10611" y1="382.30588" y2="355.34009">
      <stop offset="0" stop-color="#acbdd3" stop-opacity=".2"/>
      <stop offset="1" stop-color="#f8fafc"/>
    </linearGradient>
    <filter id="filter1194" color-interpolation-filters="sRGB" height="1.415741" width="1.149049" x="-.074321" y="-.206851">
      <feGaussianBlur stdDeviation="10.605902"/>
    </filter>
    <linearGradient id="linearGradient1206" gradientUnits="userSpaceOnUse" x1="609.72687" x2="630.02173" y1="342.3963" y2="292.24319">
      <stop offset="0" stop-color="#fff"/>
      <stop offset="1" stop-color="#fff" stop-opacity="0"/>
    </linearGradient>
    <filter id="filter1208" color-interpolation-filters="sRGB" height="1.063528" width="1.196376" x="-.098188" y="-.031764">
      <feGaussianBlur stdDeviation=".5956203"/>
    </filter>
    <linearGradient id="linearGradient1218" gradientUnits="userSpaceOnUse" x1="138.52764027808" x2="149.08532071746" y1="69.36556637922" y2="29.93092457874">
      <stop offset="0" stop-color="#63778e"/>
      <stop offset="1" stop-color="#8fa0b7"/>
    </linearGradient>
    <linearGradient id="linearGradient1226" gradientUnits="userSpaceOnUse" x1="133.05720938077" x2="144.99624209786" y1="72.33152239531" y2="29.59000177855">
      <stop offset="0" stop-color="#384a65"/>
      <stop offset="1" stop-color="#6880a6"/>
    </linearGradient>
    <linearGradient id="linearGradient1301" gradientUnits="userSpaceOnUse" x1="172.56041" x2="149.62112" y1="266.33188" y2="291.49164">
      <stop offset="0" stop-color="#eef2f7"/>
      <stop offset="1" stop-color="#acbdd3" stop-opacity=".2"/>
    </linearGradient>
  </defs>
  <path d="m143.60087 69.20225-1.84143 10.249571 41.71017-4.424208 4.02373-4.201713z" fill="url(#linearGradient1037)" stroke="url(#linearGradient1061)" stroke-width=".438458"/>
  <path d="m159.6942 176.33207c3.76433-5.7479 4.70596-12.34149 2.8315-19.46761-2.45512-2.49334-5.8207-2.75699-7.84663-2.17674-3.25038 2.22239-8.60175 9.10281-8.80551 17.0455z" fill="url(#radialGradient916)" stroke="#000" stroke-width=".438458"/>
  <path d="m401.48412 401.43077c4.85427-4.41908 12.47644-6.88325 18.30594-8.25665-2.9422-.74812-6.23356-.91947-9.89025-.48729-4.01555 3.31191-5.9256 5.39598-8.41569 8.74394z" fill-opacity=".5" filter="url(#filter967)" transform="matrix(.43845769 0 0 .43845769 -24.872804 -17.56697)"/>
  <ellipse cx="198.98323" cy="118.21991" rx="7.192178" ry="4.555234" stroke="#7f7f7f" stroke-linecap="round" stroke-linejoin="round" stroke-width=".497148" transform="matrix(.95113862 .30876418 -.30876418 .95113862 0 0)"/>
  <path d="m30.122126 134.722c3.251157-7.7347 10.143585-11.88732 17.438283-15.64419l4.83837 5.6626c-1.150081 9.42741-5.554868 14.02786-10.860525 17.29224z" fill="url(#radialGradient926)" stroke="#000" stroke-width=".438458"/>
  <path d="m40.148143 126.98544 6.547647-10.90063 2.505904 2.74965-8.249298 8.47226z" fill="url(#linearGradient934)" stroke="url(#linearGradient942)" stroke-width=".438458"/>
  <path d="m163.73733 316.72633c6.44318 5.57919 7.91234 11.37347 9.82699 20.44459 2.19125-9.0159 3.04159-14.84733 3.92065-21.28853l-7.34952-6.78319z" fill-opacity=".5" filter="url(#filter973)" transform="matrix(.43845769 0 0 .43845769 -24.872804 -17.56697)"/>
  <path d="m19.400287 54.634677-8.286165 3.943552c-.908.432183-3.0247176 7.554854-3.3012741 9.199897-.2765554 1.645054.3077153 3.150375.9497065 4.166212 23.0594026 29.492142 65.9875496 73.343332 59.4975126 82.822252l24.865341-36.06056-73.769649-53.577487c-.776038-.655702-1.147843-1.428136-1.043908-2.575934.302214-3.337469 1.088436-7.917932 1.088436-7.917932z" fill="url(#linearGradient887)" stroke="url(#linearGradient878)" stroke-width=".438458"/>
  <path d="m155.46969 161.92129 1.72564.67974 4.68081-13.15015-2.47238.33769z" fill="url(#linearGradient958)" stroke="url(#linearGradient950)" stroke-width=".438458"/>
  <path d="m248.44733 115.28142s-2.69936 8.12505-3.38949 9.07231c-.6901.94726-1.22714 2.13029-2.88165 2.26422l-122.22265 2.59736-23.533703 42.01914c9.527983-8.35053 14.339503-10.93936 42.690533-16.19381 28.35102-5.25446 103.05383-18.01103 103.05383-18.01103 1.6244-.26533 3.17824-1.87993 3.70035-2.81401.52209-.93406 3.61898-11.31853 3.61898-11.31853z" fill="url(#linearGradient1075)" stroke="url(#linearGradient1077)" stroke-width=".438458"/>
  <path d="m102.27396 53.431273 25.12737 22.318701 9.29193-8.378581-33.58424-17.901878z" fill="url(#linearGradient1045)" stroke="url(#linearGradient1053)" stroke-width=".438458"/>
  <path d="m246.93157 342.60646-157.220267-145.57566-14.049261 2.64361c-1.639281-2.37477.542632-10.03264 5.975309-25.22577l18.579509-8.99043-2.390475 18.0296c-.29208 2.20294.366684 3.69406 2.023702 4.898l168.469093 122.40496z" fill-opacity=".2" filter="url(#filter1107)" transform="matrix(.43845769 0 0 .43845769 -24.872804 -17.56697)"/>
  <path d="m48.399061 219.76834c7.559296 2.57606 33.611222-23.57159 41.33873-37.21916l46.499049-82.12218c3.41069-6.023644 9.95986-34.628062 6.47101-36.449937-3.48886-1.821864-23.9752 19.666904-26.46989 23.081502l-59.704657 81.720415c-9.926832 13.5873-15.693548 48.41329-8.134242 50.98936z" fill="url(#linearGradient1012)" stroke="url(#linearGradient983)" stroke-width=".438458"/>
  <path d="m53.116534 200.68253-1.777733 3.32652c-1.616222-.87343-2.660814-2.33133-3.804282-4.13186l1.654621-3.0675c.869524 1.61286 1.891841 3.05071 3.927394 3.87284z"/>
  <path d="m54.976633 201.42279-.770649 3.15419c1.477579.74943 4.306485.59694 7.133572.0684l.859482-3.15301c-2.006709.3044-3.617926.70622-7.222405-.0696z"/>
  <path d="m133.87099 75.443174 8.06295-9.966235 9.02749-37.09962-3.48867 1.976707z" fill="url(#linearGradient1218)" stroke="url(#linearGradient1226)" stroke-width=".438458"/>
  <ellipse cx="105.80388" cy="95.750778" rx="6.780243" ry="4.107012" stroke="#808080" stroke-linecap="round" stroke-linejoin="round" stroke-width=".497148" transform="matrix(.83634996 .5481959 -.5481959 .83634996 0 0)"/>
  <path d="m65.161086 200.78274c-.341596.13239-.7547.2115-1.085405.28956l-.272611 3.10599c.963903-.26222 1.982384-.76455 2.624056-1.22651z"/>
  <path d="m66.523026 200.22813.959285 2.02409c.769446-.40064 1.243819-.77784 1.748348-1.37633l-1.572476-1.32491c-.296252.2423-.600429.38972-1.135157.67715z"/>
  <path d="m46.623047 198.02711 1.538232-2.29817-.218086-.52291-1.418162 1.24107c-.16646.54854-.07054 1.06826.09799 1.58001z"/>
  <path d="m47.772478 194.33618-1.131289.51456c.03163-.69941.08376-.89899.1958-1.449l.887621-.0329c.01499.28235-.0045.65636.04784.96726z"/>
  <path d="m169.6188 531.95723c.98565-20.59298 16.27655-74.82617 29.50077-94.46008s125.0386-179.29431 132.89588-191.02222 20.81525-28.83631 34.41319-40.98431c-2.91423 15.64699-13.67883 32.7143-21.01552 44.54456-7.3367 11.83026-125.4865 183.11275-133.26077 194.80414s-30.96564 65.46626-42.53355 87.11791z" fill="#fff" fill-opacity=".5" filter="url(#filter961)" transform="matrix(.43845769 0 0 .43845769 -24.872804 -17.56697)"/>
  <path d="m169.6188 531.95723c.98565-20.59298 12.13915-76.31026 25.36337-95.94417s128.10219-183.47773 135.95947-195.20564 21.88906-23.1688 35.487-35.3168c-2.91423 15.64699-13.67883 32.7143-21.01552 44.54456-7.3367 11.83026-125.4865 183.11275-133.26077 194.80414s-30.96564 65.46626-42.53355 87.11791z" fill="#fff" fill-opacity=".5" filter="url(#filter1009)" transform="matrix(.43845769 0 0 .43845769 -24.872804 -17.56697)"/>
  <path d="m333.635 334.75833-52.1862 92.17288-4.90286 2.91224-.96297-4.12323 52.19336-92.97203 2.6884 2.24797z" fill="url(#linearGradient1023)" filter="url(#filter1027)" transform="matrix(.43845769 0 0 .43845769 -24.872804 -17.56697)"/>
  <path d="m390.33671 198.55099-2.48982 22.2236-6.68992 1.37775-2.27744-1.6352 4.53148-23.85203 1.60636 1.39832z" fill="url(#linearGradient1065)" filter="url(#filter1027)" transform="matrix(.43845769 0 0 .43845769 -24.872804 -17.56697)"/>
  <path d="m184.06222 528.21657c26.6953-15.12042 59.70837-40.68099 77.33266-71.80732l106.05138-187.29782c7.77885-13.73826 18.14164-62.25275 16.21311-77.66121-22.12582 23.12422-41.73367 60.59033-46.78166 68.80857l-105.05457 171.03124c-11.36016 18.49459-38.25626 73.5414-47.76092 96.92654z" fill-opacity=".2" filter="url(#filter1002)" transform="matrix(.43845769 0 0 .43845769 -24.872804 -17.56697)"/>
  <path d="m330.81547 334.78321 72.32299-1.73387c-15.33258 17.3425-18.74377 37.32815-17.32653 58.38434-62.48162 11.70759-86.00755 16.05157-110.75981 41.01909z" fill="url(#linearGradient1026)" filter="url(#filter1016)" transform="matrix(.43845769 0 0 .43845769 -24.872804 -17.56697)"/>
  <path d="m362.52473 211.97585 17.83982-22.18425" fill="none" filter="url(#filter1054)" stroke="#000" stroke-opacity=".4" stroke-width="2.83465" transform="matrix(.43845769 0 0 .43845769 -24.872804 -17.56697)"/>
  <path d="m292.33479 157.62718 67.11391 40.58386-5.12825 5.07336z" fill="#fff" fill-opacity=".5" filter="url(#filter1076)" transform="matrix(.43845769 0 0 .43845769 -24.872804 -17.56697)"/>
  <path d="m384.59913 197.73239 43.82087 1.80058-13.71452 18.45187-33.07829 3.01378z" fill="url(#linearGradient1100)" filter="url(#filter1090)" transform="matrix(.43845769 0 0 .43845769 -24.872804 -17.56697)"/>
  <path d="m79.948024 192.9739 2.720793-3.02485c-.03891-2.58928-.395712-4.52761-.902819-6.64131l-2.550267 2.99291c.556452 2.0863.827609 4.5183.732293 6.67325z"/>
  <path d="m99.851011 157.18073-1.357211 2.11875c.550523 1.67495.855405 3.84752.779256 5.31724l1.285644-2.14483c.0609-1.38836-.066-3.54803-.707689-5.29116z"/>
  <path d="m83.673049 184.4815.164994-.0574c.10702-.0372.40638.16755.419816.52736l.02127.57066c.01223.32865-.115938.67888-.354756.75625l-.161798.0525c-.0928.0301-.418229-.0943-.430342-.42197l-.0248-.67003c.000728-.42641.124259-.6933.365513-.75725z"/>
  <path d="m85.711709 182.02221.164995-.0574c.10702-.0372.406381.16755.419816.52735l.02127.57067c.01223.32865-.115937.67888-.354756.75625l-.161798.0525c-.0928.0301-.41823-.0944-.430331-.42197l-.0248-.67003c.000738-.42641.124259-.6933.365524-.75725z"/>
  <path d="m87.726816 179.35134.164996-.0574c.10702-.0372.40638.16756.419816.52736l.02127.57067c.01223.32864-.115938.67887-.354745.75624l-.161809.0525c-.0928.0301-.41823-.0945-.430331-.42197l-.0248-.67003c.000738-.42642.124258-.6933.365523-.75726z"/>
  <path d="m89.515031 176.93829.164995-.0574c.107021-.0372.406381.16755.419817.52736l.02127.57066c.01223.32864-.115937.67888-.354755.75625l-.161799.0525c-.0928.0301-.418229-.0944-.430331-.42196l-.0248-.67004c.000739-.4264.124259-.6933.365524-.75724z"/>
  <path d="m91.227881 174.5617.164994-.0574c.10702-.0372.40638.16753.419816.52735l.02127.57066c.01223.32864-.115938.67887-.354744.75624l-.16181.0525c-.0928.0301-.41823-.0944-.430331-.42196l-.0248-.67004c.000738-.4264.124259-.69329.365524-.75724z"/>
  <path d="m97.286142 163.94803.317095-.37875c.295612.005.4547.29615.455515.65621l.0022.7089c.000738.30251-.10206.41548-.222341.54872l-.271751.30093c-.273558.002-.434541-.27341-.433097-.60119l.0033-.68565c.0011-.20223.05213-.43256.149763-.54917z"/>
  <path d="m139.79793 85.586242-.44192 1.316431c.38386 1.417258.31672 2.627176.21863 3.799631l.607-2.16249c-.023-.822284-.1364-1.623396-.38371-2.953572z"/>
  <path d="m95.854578 166.72938.317094-.37874c.295602.005.4547.29615.455505.65621l.0022.7089c.000738.30251-.10206.41548-.222341.54872l-.271751.30092c-.273558.002-.434541-.2734-.433097-.60118l.0033-.68564c.0011-.20223.05213-.43257.149774-.54919z"/>
  <path d="m94.284957 169.50199.317105-.37874c.295601.005.4547.29615.455504.65621l.0022.7089c.000727.3025-.10206.41548-.222351.54871l-.27174.30094c-.273559.002-.434542-.27341-.433109-.6012l.0033-.68564c.0011-.20223.05213-.43256.149763-.54918z"/>
  <path d="m92.667038 172.30146.317094-.37873c.295613.005.454711.29613.455515.65619l.0022.7089c.000738.30251-.10206.4155-.222342.54872l-.27175.30093c-.273558.002-.434542-.27341-.433097-.60119l.0033-.68564c.0011-.20223.05213-.43257.149763-.54918z"/>
  <path d="m102.65605 154.82585.3171-.37875c.2956.005.45471.29615.4555.65621l.002.70891c.00073.30249-.10204.41548-.22235.5487l-.27174.30093c-.27356.002-.43455-.2734-.43311-.60119l.003-.68565c.001-.20221.0521-.43256.14976-.54916z"/>
  <path d="m104.27721 152.08982.31711-.37874c.2956.005.4547.29613.45551.65619l.002.70891c.00072.30251-.10204.41549-.22235.54872l-.27176.30092c-.27355.002-.43454-.27341-.43309-.60118l.003-.68565c.001-.20222.0522-.43256.14977-.54917z"/>
  <path d="m105.91235 149.22342.3171-.37874c.29561.005.45471.29615.45551.6562l.002.70892c.00073.30249-.10204.41548-.22236.54871l-.27174.30093c-.27356.002-.43455-.27342-.4331-.6012l.003-.68565c.001-.20222.0521-.43255.14977-.54917z"/>
  <path d="m107.52349 146.49458.31711-.37874c.2956.005.45469.29614.4555.6562l.002.70891c.00073.30251-.10204.41549-.22235.54872l-.27175.30093c-.27356.002-.43454-.27342-.4331-.60119l.003-.68565c.001-.20223.0521-.43256.14976-.54918z"/>
  <path d="m109.13404 143.60149.31712-.37874c.2956.005.45469.29614.4555.65619l.002.70892c.00072.30249-.10204.41549-.22235.54872l-.27174.30093c-.27356.002-.43454-.27343-.43311-.6012l.003-.68565c.001-.20222.0521-.43255.14976-.54917z"/>
  <path d="m110.79218 140.80526.3171-.37874c.2956.005.45469.29614.4555.6562l.002.7089c.00074.3025-.10204.41549-.22234.54872l-.27175.30094c-.27356.002-.43454-.27342-.4331-.6012l.003-.68564c.001-.20223.0521-.43256.14977-.54918z"/>
  <path d="m112.46853 137.91641.31709-.37874c.29561.005.45472.29614.45551.65619l.002.70892c.00075.3025-.10203.41549-.22234.54872l-.27175.30092c-.27356.002-.43454-.27342-.4331-.60119l.003-.68565c.001-.20222.0521-.43255.14977-.54917z"/>
  <path d="m114.17981 135.14647.3171-.37873c.29561.005.45471.29614.45552.6562l.002.7089c.00074.30251-.10204.41549-.22235.54871l-.27174.30093c-.27355.002-.43454-.2734-.4331-.60118l.003-.68564c.001-.20222.0521-.43257.14977-.54919z"/>
  <path d="m115.68645 132.20733.3171-.37874c.29561.005.4547.29614.45551.65619l.002.7089c.00074.30251-.10204.4155-.22234.54872l-.27175.30093c-.27356.002-.43454-.27341-.4331-.60119l.003-.68564c.001-.20222.0521-.43257.14977-.54917z"/>
  <path d="m117.35265 129.44134.31709-.37874c.29561.005.45471.29614.4555.6562l.002.7089c.00075.3025-.10203.41549-.22235.54872l-.27174.30093c-.27356.002-.43454-.27341-.43311-.60119l.003-.68564c.001-.20223.0521-.43256.14975-.54918z"/>
  <path d="m118.93391 126.85206.31709-.37874c.29561.005.4547.29614.45551.65619l.002.70892c.00074.30249-.10204.41548-.22235.54871l-.27174.30092c-.27356.002-.43454-.27341-.4331-.60119l.003-.68564c.001-.20222.0521-.43256.14977-.54917z"/>
  <path d="m120.40309 124.15526.3171-.37875c.29561.005.45469.29615.4555.6562l.002.70891c.00074.3025-.10204.41549-.22235.54872l-.27174.30093c-.27356.002-.43454-.27342-.4331-.6012l.003-.68563c.001-.20223.0521-.43257.14976-.54918z"/>
  <path d="m121.94907 121.38118.31709-.37874c.29561.005.45472.29614.45552.65619l.002.70891c.00073.3025-.10203.41549-.22235.54872l-.27176.30092c-.27355.002-.43453-.27341-.43309-.60119l.003-.68564c.001-.20222.0521-.43256.14976-.54917z"/>
  <path d="m123.5132 118.67593.31709-.37874c.29562.005.45472.29615.45553.6562l.002.70892c.00074.30249-.10204.41548-.22233.54872l-.27176.30092c-.27355.002-.43454-.27342-.43309-.6012l.003-.68563c.001-.20224.0521-.43256.14977-.54919z"/>
  <path d="m124.90798 115.99966.31711-.37874c.2956.005.4547.29614.45551.65619l.002.70892c.00072.3025-.10204.41549-.22235.54872l-.27175.30092c-.27355.002-.43455-.27342-.4331-.60119l.003-.68565c.001-.20222.0521-.43255.14977-.54917z"/>
  <path d="m126.47763 113.47145.3171-.37874c.29561.005.45469.29615.45551.65621l.002.7089c.00074.3025-.10204.41548-.22234.54871l-.27175.30093c-.27356.002-.43454-.2734-.4331-.60119l.003-.68563c.001-.20224.0521-.43257.14976-.54919z"/>
  <path d="m128.08007 110.77352.31709-.37874c.29562.005.45471.29614.45551.6562l.002.70891c.00073.3025-.10204.41549-.22235.54872l-.27174.30093c-.27357.002-.43455-.27342-.4331-.60119l.003-.68565c.001-.20223.0521-.43256.14976-.54918z"/>
  <path d="m138.38326 90.014903c.11754-.174893.41675.277769.4339.637417 0 0 .023.289816.029.606293.005.316477.003.492615.003.492615.00011.166604-.19189.496065-.3214.699447-.12953.203384-.52057-.375928-.51601-.703691 0 0 .005-.268676.006-.493132.001-.224457.0167-.483126.0167-.483126.005-.283367.23021-.58092.34776-.755823z"/>
  <path d="m129.52871 108.19806.31711-.37874c.2956.005.45469.29614.4555.6562l.002.70891c.00073.30249-.10204.41549-.22235.54871l-.27175.30094c-.27356.002-.43454-.27342-.4331-.60121l.003-.68564c.001-.20222.0521-.43255.14976-.54917z"/>
  <path d="m131.0616 105.47825.31709-.37874c.29562.005.4547.29615.45551.65622l.002.7089c.00074.30251-.10204.41548-.22236.54872l-.27173.30092c-.27357.002-.43455-.2734-.43311-.60118l.003-.68565c.001-.20224.0521-.43256.14976-.54919z"/>
  <path d="m132.58733 102.86937.31711-.37873c.2956.005.4547.29614.4555.6562l.002.70891c.00073.30251-.10203.41549-.22235.54872l-.27175.30092c-.27356.002-.43454-.27341-.4331-.60118l.003-.68565c.001-.20224.0521-.43256.14975-.54919z"/>
  <path d="m134.02529 100.23301.31709-.378739c.29561.0053.4547.296149.45551.656199l.002.70891c.00074.30249-.10204.41548-.22234.54871l-.27175.30094c-.27356.002-.43455-.27342-.4331-.60121l.003-.68563c.001-.20223.0521-.43256.14976-.54918z"/>
  <path d="m137.14901 93.370271c.11757-.174903.41675.277769.43392.637418 0 0 .023.289815.029.606291.005.316478.003.492604.003.492604.00011.166615-.19188.496065-.32141.699448-.12952.203384-.52057-.375927-.51601-.70368 0 0 .005-.268687.006-.493144.001-.224456.0167-.483114.0167-.483114.005-.283367.23021-.58092.34776-.755823z"/>
  <path d="m135.81066 96.724051c.11756-.174892.41675.277769.43392.637422 0 0 .023.289816.029.606293.005.316476.003.492601.003.492601.00011.166613-.19189.496074-.32141.699461-.12951.203387-.52058-.375929-.51599-.703693 0 0 .005-.268674.006-.493131.001-.224456.0166-.483124.0166-.483124.005-.283368.23022-.580925.34776-.755829z"/>
  <path d="m76.258971 202.18516 23.969599-13.33466c-1.346978-1.19106-2.465982-2.53706-2.495552-4.6235l2.586052-18.71569-18.574961 8.73177c-3.218126 8.19446-9.275774 22.24355-5.485138 27.94208z" fill="url(#linearGradient1132)" filter="url(#filter1122)" transform="matrix(.43845769 0 0 .43845769 -24.872804 -17.56697)"/>
  <path d="m74.605085 202.88455 106.275905 127.92312s28.44869 35.54045 31.57676 53.5025l38.59854-53.65308-158.097159-137.4893z" fill="url(#linearGradient1301)" filter="url(#filter1154)" transform="matrix(.43845769 0 0 .43845769 -24.872804 -17.56697)"/>
  <path d="m308.21776 376.43792 301.44293-36.24974-1.70351-11.30542-277.25014 6.16796z" fill="url(#linearGradient1176)" filter="url(#filter1182)" transform="matrix(.43845769 0 0 .43845769 -24.872804 -17.56697)"/>
  <path d="m608.31042 329.55829c4.25907-.1085 6.98724-3.25989 8.69786-8.43382l6.18055-16.32924 2.20617 15.42714-7.78389 24.78384c-2.38431 5.03113-5.34191 5.99677-8.27508 7.13564l-190.68217 32.68256c-75.63235 13.76742-116.34166 17.11617-140.72117 43.88191l117.88213-70.21177 210.59572-18.38094z" fill="url(#linearGradient1192)" filter="url(#filter1194)" stroke="#000" transform="matrix(.43845769 0 0 .43845769 -24.872804 -17.56697)"/>
  <path d="m610.35602 329.33576 2.21573 20.85719c5.42673-1.91107 8.23434-18.18179 12.34296-29.63121l-1.70739-15.37213-6.16435 17.34056c-1.74905 4.65165-4.70999 6.16144-6.68695 6.80559z" fill="url(#linearGradient1206)" filter="url(#filter1208)" transform="matrix(.43845769 0 0 .43845769 -24.872804 -17.56697)"/>
</svg>
