<svg height="256" viewBox="0 0 256 256" width="256" xmlns="http://www.w3.org/2000/svg" xmlns:xlink="http://www.w3.org/1999/xlink">
  <defs>
    <linearGradient id="linearGradient8838">
      <stop offset="0"/>
      <stop offset="1" stop-opacity="0"/>
    </linearGradient>
    <linearGradient id="linearGradient3996">
      <stop offset="0" stop-color="#fff"/>
      <stop offset="1" stop-color="#fff" stop-opacity="0"/>
    </linearGradient>
    <linearGradient id="linearGradient3912" gradientUnits="userSpaceOnUse" x1="79.82045" x2="79.82045" xlink:href="#linearGradient8838" y1="-32.079426" y2="203.27065"/>
    <filter id="filter3884" height="1.03445" width="1.03445" x="-.017225" y="-.017225">
      <feGaussianBlur stdDeviation="1.3492823"/>
    </filter>
    <linearGradient id="linearGradient3914" gradientUnits="userSpaceOnUse" x1="129.347075125" x2="129.347075125" y1="-242.5999849235" y2="-4.35420124056">
      <stop offset="0" stop-color="#e9e9e9"/>
      <stop offset=".31598574" stop-color="#fff"/>
      <stop offset="1" stop-color="#fff"/>
    </linearGradient>
    <linearGradient id="linearGradient3916" gradientUnits="userSpaceOnUse" x1="128.5926722" x2="128.5926722" y1="241.5129954" y2="14.6845658">
      <stop offset="0" stop-color="#f6f6f6"/>
      <stop offset=".3583397" stop-color="#bcb9b8"/>
      <stop offset=".43154052" stop-color="#312e2d"/>
      <stop offset=".47642162" stop-color="#9b9493"/>
      <stop offset=".56865364" stop-color="#fff"/>
      <stop offset=".71001911" stop-color="#d3d3d3"/>
      <stop offset=".8135038" stop-color="#ada7a3"/>
      <stop offset="1" stop-color="#fff"/>
    </linearGradient>
    <radialGradient id="radialGradient3918" cx="66" cy="63" fx="69.022705" fy="109.85191" gradientTransform="matrix(1.026526 -.00000003 .00000003 1.026526 -1.750717 -1.671135)" gradientUnits="userSpaceOnUse" r="94">
      <stop offset="0" stop-color="#393939" stop-opacity="0"/>
      <stop offset=".64334816" stop-color="#393939" stop-opacity=".092683"/>
      <stop offset=".92916411" stop-color="#393939" stop-opacity=".572549"/>
      <stop offset="1"/>
    </radialGradient>
    <clipPath id="clipPath3809">
      <circle cx="66" cy="63" filter="url(#filter3801)" r="94" transform="matrix(1.0192088 0 0 1.0192088 -1.267779 -1.210152)"/>
    </clipPath>
    <filter id="filter3801" height="1.183732" width="1.183732" x="-.091866" y="-.091866">
      <feGaussianBlur stdDeviation="7.1961722"/>
    </filter>
    <linearGradient id="linearGradient3930" gradientUnits="userSpaceOnUse" x1="88.15545898795" x2="119.50221585868" xlink:href="#linearGradient3996" y1="39.70054156198" y2="188.64148485751"/>
    <radialGradient id="radialGradient3927" cx="125.5041" cy="167.16315" gradientTransform="matrix(.8923782 0 0 .62782401 18.099648 35.858345)" gradientUnits="userSpaceOnUse" r="92.861908" xlink:href="#linearGradient3996"/>
    <radialGradient id="radialGradient4040" cx="128.59267608" cy="128.09880444" fx="128.62877472503" fy="127.12413944302" gradientUnits="userSpaceOnUse" r="1.56452472" xlink:href="#linearGradient3939"/>
    <linearGradient id="linearGradient3939">
      <stop offset="0" stop-color="#515151"/>
      <stop offset="1"/>
    </linearGradient>
    <filter id="filter4056" height="1.218182" width="1.218182" x="-.109091" y="-.109091">
      <feGaussianBlur stdDeviation="8.5454545"/>
    </filter>
    <radialGradient id="radialGradient4110" cx="128.59186824" cy="215.09966332" fx="128.70016417509" fy="212.17566832907" gradientUnits="userSpaceOnUse" r="4.69357416" xlink:href="#linearGradient3939"/>
    <radialGradient id="radialGradient4114" cx="66" cy="63" fx="68.168884" fy="4.440037" gradientTransform="matrix(0 .04993164 -.04993164 0 44.612492 124.6775)" gradientUnits="userSpaceOnUse" r="94" xlink:href="#linearGradient3939"/>
    <radialGradient id="radialGradient4118" cx="66" cy="63" fx="68.168884" fy="4.440037" gradientTransform="matrix(0 .04993164 -.04993164 0 218.8625 124.6775)" gradientUnits="userSpaceOnUse" r="94" xlink:href="#linearGradient3939"/>
    <radialGradient id="radialGradient1102" cx="66" cy="63" fx="68.168884" fy="4.440037" gradientUnits="userSpaceOnUse" r="94" xlink:href="#linearGradient3939"/>
    <filter id="filter3919" color-interpolation-filters="sRGB" height="1.593063" width="1.067576" x="-.033788" y="-.296531">
      <feGaussianBlur stdDeviation="1.3867177"/>
    </filter>
    <linearGradient id="linearGradient4012-3" gradientTransform="matrix(.51399964 -.4245572 .4245572 .51399964 51.324274 162.01058)" gradientUnits="userSpaceOnUse" x1="211.94576" x2="134.93153" y1="115.60049" y2="134.33568">
      <stop offset="0" stop-color="#edeff6"/>
      <stop offset="1" stop-color="#b1b5cc"/>
    </linearGradient>
    <filter id="filter3923" color-interpolation-filters="sRGB" height="1.455612" width="1.067532" x="-.033766" y="-.227806">
      <feGaussianBlur stdDeviation="1.0650131"/>
    </filter>
    <linearGradient id="linearGradient4038-6" gradientUnits="userSpaceOnUse" x1="140.14581825288" x2="179.26802111516" y1="159.95639303211" y2="159.95639303211">
      <stop offset="0" stop-color="#e9edf9"/>
      <stop offset="1" stop-color="#b8bed6"/>
    </linearGradient>
    <filter id="filter4076-7" height="1.031542" width="1.875586" x="-.437793" y="-.015771">
      <feGaussianBlur stdDeviation=".58543213"/>
    </filter>
    <radialGradient id="radialGradient1523" cx="128.25975" cy="111.02195" gradientTransform="matrix(2.9085923 .01516706 -.01590125 3.0493804 -243.03018 -212.42485)" gradientUnits="userSpaceOnUse" r="29.681728">
      <stop offset="0" stop-color="#f00"/>
      <stop offset=".66359377" stop-color="#f00" stop-opacity=".498039"/>
      <stop offset="1" stop-color="#f00" stop-opacity="0"/>
    </radialGradient>
    <linearGradient id="linearGradient3208" gradientUnits="userSpaceOnUse" x1="74.19725843788" x2="74.19725843788" y1="74.94768389712" y2="-16.73631350014">
      <stop offset="0" stop-color="#810000"/>
      <stop offset="1" stop-color="#c50000"/>
    </linearGradient>
    <clipPath id="clipPath3559">
      <path d="m-64.510272 10.75c-1.042316.0084-2.040208.423209-2.78125 1.15625l-16.96875 16.96875c-1.561474 1.562119-1.561474 4.094131 0 5.65625l25.4375 25.46875-25.4375 25.46875c-1.561474 1.562119-1.561474 4.094131 0 5.65625l16.96875 16.96875c1.562119 1.56147 4.094131 1.56147 5.65625 0l25.46875-25.4375 25.46875 25.4375c1.5621191 1.56147 4.0941311 1.56147 5.6562501 0l16.9687499-16.96875c1.56147-1.562119 1.56147-4.094131 0-5.65625l-25.4375-25.46875 25.4375-25.46875c1.56147-1.562119 1.56147-4.094131 0-5.65625l-16.9687499-16.96875c-1.562119-1.561474-4.094131-1.561474-5.6562501 0l-25.46875 25.4375-25.46875-25.4375c-.764077-.756011-1.800247-1.172731-2.875-1.15625zm31.1875 63.40625c-.751409-.759464-1.775386-1.18681-2.84375-1.18681s-2.092341.427346-2.84375 1.18681z"/>
    </clipPath>
    <filter id="filter3549" height="1.318829" width="1.245312" x="-.122653" y="-.162916">
      <feGaussianBlur stdDeviation="2.5695681"/>
    </filter>
    <linearGradient id="linearGradient4331" gradientTransform="scale(1.0975951 .9110828)" gradientUnits="userSpaceOnUse" x1="26.091133" x2="31.500689" xlink:href="#linearGradient3996" y1="14.856744" y2="14.856744"/>
    <filter id="filter3477" height="1.28034" width="1.232702" x="-.116351" y="-.14017">
      <feGaussianBlur stdDeviation=".28784801"/>
    </filter>
    <linearGradient id="linearGradient5179" gradientUnits="userSpaceOnUse" x1="304.88663" x2="345.62039" y1="385.86127" y2="384.62384">
      <stop offset="0" stop-color="#765c44"/>
      <stop offset="1" stop-color="#765c44" stop-opacity="0"/>
    </linearGradient>
    <linearGradient id="linearGradient3200" gradientUnits="userSpaceOnUse" x1="70.55652070017" x2="70.55652070017" y1="84.73929467169" y2="34.26416045881">
      <stop offset="0" stop-color="#f00"/>
      <stop offset="1" stop-color="#7f0000"/>
    </linearGradient>
    <linearGradient id="linearGradient5130" gradientUnits="userSpaceOnUse" spreadMethod="reflect" x1="88.60625" x2="91.575107" xlink:href="#linearGradient3366" y1="13.510336" y2="13.510336"/>
    <linearGradient id="linearGradient3366">
      <stop offset="0" stop-color="#ff8787"/>
      <stop offset="1" stop-color="#ff8787" stop-opacity="0"/>
    </linearGradient>
    <radialGradient id="radialGradient5265" cx="-36.592777" cy="90.072952" gradientTransform="matrix(.4576062 0 0 .782313 -19.847694 18.82067)" gradientUnits="userSpaceOnUse" r="25.986174" xlink:href="#linearGradient8838"/>
    <linearGradient id="linearGradient5120" gradientUnits="userSpaceOnUse" spreadMethod="reflect" x1="31.60625" x2="34.575107" xlink:href="#linearGradient3207" y1="13.510336" y2="13.510336"/>
    <linearGradient id="linearGradient3207">
      <stop offset="0" stop-color="#fff"/>
      <stop offset="1" stop-color="#790000" stop-opacity="0"/>
    </linearGradient>
    <linearGradient id="linearGradient5126" gradientUnits="userSpaceOnUse" spreadMethod="reflect" x1="88.60625" x2="91.575107" xlink:href="#linearGradient3207" y1="13.510336" y2="13.510336"/>
    <linearGradient id="linearGradient5100" gradientUnits="userSpaceOnUse" x1="59.999996" x2="57.434441" y1="92.973083" y2="55.07938">
      <stop offset="0" stop-color="#fff5e4"/>
      <stop offset=".25" stop-color="#ffecd0"/>
      <stop offset=".5" stop-color="#ffd390"/>
      <stop offset="1" stop-color="#ffc46a"/>
    </linearGradient>
    <filter id="filter3354" height="1.044866" width="1.044866" x="-.022433" y="-.022433">
      <feGaussianBlur stdDeviation=".45754832"/>
    </filter>
    <linearGradient id="linearGradient3194" gradientTransform="matrix(1.381268 0 0 .6872743 16.961757 -1.45049)" gradientUnits="userSpaceOnUse" x1="68.313011" x2="51.544849" y1="109.97649" y2="32.750854">
      <stop offset="0" stop-color="#f4f5f8"/>
      <stop offset="1" stop-color="#fdfdfe"/>
    </linearGradient>
    <linearGradient id="linearGradient3191" gradientUnits="userSpaceOnUse" x1="63.0124148119" x2="63.0124148119" xlink:href="#linearGradient3366" y1="19.72984298575" y2="67.10039129706"/>
    <linearGradient id="linearGradient3188" gradientUnits="userSpaceOnUse" x1="73.14786298666" x2="72.2873591659" y1="69.74821445221" y2="19.60717450463">
      <stop offset="0" stop-color="#fff" stop-opacity="0"/>
      <stop offset="1" stop-color="#fff"/>
    </linearGradient>
  </defs>
  <circle cx="66" cy="63" fill="url(#linearGradient3912)" filter="url(#filter3884)" r="94" transform="matrix(1.2180852 0 0 -1.2180852 48.199054 204.83815)"/>
  <circle cx="128.59268" cy="-128.09879" fill="url(#linearGradient3914)" r="114.50001" transform="scale(1 -1)"/>
  <circle cx="128.59267" cy="128.09879" fill="url(#linearGradient3916)" r="113.41422"/>
  <circle cx="128.59268" cy="128.09879" fill="#f5f5f5" r="100.33076"/>
  <circle clip-path="url(#clipPath3809)" cx="66" cy="63" fill="url(#radialGradient3918)" filter="url(#filter3801)" opacity=".785366" r="102.98344" transform="matrix(1.0331959 0 0 1.0331959 60.401743 63.007439)"/>
  <path d="m128.62122 34.50656c-51.578536 0-93.386349 41.807813-93.386349 93.38635 0 7.9978 1.010735 15.7718 2.901936 23.18051.993948.005 1.974691.0349 2.971861.0349 75.284842 0 141.498242-14.81387 179.850012-37.27062-6.77575-44.9137-45.53382-79.331248-92.33746-79.331248z" fill="url(#linearGradient3930)"/>
  <path d="m128.62122 34.50656c-51.578536 0-93.386349 41.807813-93.386349 93.38635 0 7.9978 1.010735 15.7718 2.901936 23.18051.993948.005 1.974691.0349 2.971861.0349 75.284842 0 141.498242-14.81387 179.850012-37.27062-6.77575-44.9137-45.53382-79.331248-92.33746-79.331248z" fill="url(#radialGradient3927)"/>
  <circle cx="66" cy="63" fill="url(#radialGradient1102)" filter="url(#filter4056)" r="94" transform="matrix(.01664388 0 0 .01664388 127.49418 127.05023)"/>
  <path d="m129.05634 128.79372v-93.989108c-17.98597-.129747-43.196335 6.1181-59.363456 21.133448z" fill="url(#radialGradient1523)"/>
  <g fill="#282828" stroke-width="1.5">
    <path d="m117.58262 46.983754v13.814738h3.95514v-20.029958h-2.62735c-.62152 2.373084-2.68384 3.587877-6.13046 3.587877v2.627343z"/>
    <path d="m141.03094 57.267118h-8.50355c.53677-1.073538 1.15829-1.666809 4.09639-3.785634 3.47488-2.54259 4.49191-4.039893 4.49191-6.78024 0-3.870387-2.68384-6.356475-6.86499-6.356475-4.1529 0-6.58248 2.457837-6.58248 6.695487v.706275h3.81388v-.649773c0-2.231829 1.04529-3.531375 2.85335-3.531375 1.75156 0 2.8251 1.214793 2.8251 3.220614 0 2.231829-.67802 3.051108-5.14168 6.21522-3.39012 2.316582-4.43541 4.068144-4.60491 7.797275h13.61698z"/>
  </g>
  <path d="m128.46705 210.30778c-1.9842.024-3.84093 1.41501-4.4328 3.30243-.61824 1.82196.001 3.97413 1.49778 5.17839 1.4796 1.269 3.76773 1.46436 5.44563.46944 1.66803-.93123 2.65134-2.92416 2.36139-4.81944-.252-2.05041-1.97244-3.79488-4.0185-4.07619-.2811-.0456-.56826-.0618-.8535-.0546z" fill="url(#radialGradient4110)" opacity=".62439"/>
  <path d="m46.258676 127.84817c-.0228-1.9842-1.415016-3.84093-3.302421-4.4328-1.821969-.61824-3.974145.002-5.178381 1.49778-1.269015 1.4796-1.464375 3.76773-.469446 5.44563.931215 1.66803 2.924139 2.65134 4.819437 2.36139 2.050398-.252 3.794883-1.97244 4.076199-4.0185.04545-.2811.06186-.56826.0546-.8535z" fill="url(#radialGradient4114)" opacity=".62439"/>
  <path d="m220.50869 127.84817c-.024-1.9842-1.41501-3.84093-3.30243-4.4328-1.82196-.61824-3.97413.002-5.17839 1.49778-1.269 1.4796-1.46436 3.76773-.46944 5.44563.93123 1.66803 2.92416 2.65134 4.81944 2.36139 2.05041-.252 3.79488-1.97244 4.07619-4.0185.0456-.2811.0618-.56826.0546-.8535z" fill="url(#radialGradient4118)" opacity=".62439"/>
  <g transform="matrix(1.3594617 -.63392739 .63392739 1.3594617 -213.59734 5.828195)">
    <path d="m165.30288 175.95051 50.62897-41.81888-2.05194 4.64504-41.10758 35.68252z"/>
    <path d="m120.04656 119.48198-9.66051 5.813 10.063 5.41051 88.437-5.41051z" filter="url(#filter3919)" opacity=".6" transform="matrix(.51399964 -.4245572 .4245572 .51399964 55.436271 158.61413)"/>
    <path d="m165.30288 175.95051 50.62897-41.81888-5.06571 1.36479-43.06571 33.36478z" fill="url(#linearGradient4012-3)"/>
  </g>
  <g transform="matrix(-1.2287281 .86036468 -.86036468 -1.2287281 486.85868 188.81645)">
    <path d="m120.34013 119.15664-10.07792 5.3923 9.6423 5.82792 66.05634-5.73793z" filter="url(#filter3923)" opacity=".6" transform="matrix(-.5173151 -.42051104 .42051104 -.5173151 183.86747 287.02658)"/>
    <path d="m179.26802 175.89573-39.1222-31.87867 3.54369.65748 33.04111 24.15162z" fill="url(#linearGradient4038-6)"/>
    <path d="m179.26802 175.82906-39.1222-31.81201 1.18079 3.2771 30.46044 27.15322z" fill="#090909"/>
  </g>
  <g transform="matrix(1.5 0 0 1.5 -135.93628 -127.32952)">
    <rect fill-opacity=".485549" filter="url(#filter4076-7)" height="89.08992" transform="matrix(-.58606652 .31775852 .31775852 .58606652 92.902267 87.534873)" width="3.209366" x="-52.093559" y="159.75017"/>
    <rect fill="#b70000" height="59.206131" transform="matrix(-.87909978 .47663778 .47663778 .87909978 0 0)" width="1.921629" x="-74.828583" y="227.8102"/>
  </g>
  <circle cx="128.59268" cy="128.0988" fill="url(#radialGradient4040)" r="1.564525"/>
  <g transform="matrix(1.1459314 0 0 1.1459314 110.56767 131.13702)">
    <path d="m47.805249 9.0235122c-1.015554.0081-1.987832.412338-2.709842 1.1265628l-16.533086 16.533086c-1.521389 1.522005-1.521384 3.989015-.000004 5.511025l24.784409 24.81486-24.784404 24.81485c-1.521385 1.522-1.521385 3.98901 0 5.51102l16.533086 16.533084c1.522004 1.52139 3.989016 1.52139 5.511029.00001l24.814849-24.784404 24.814854 24.784404c1.52201 1.52138 3.98902 1.52138 5.51103-.00001l16.53308-16.533084c1.52138-1.52201 1.52138-3.98901 0-5.51103l-24.784404-24.81484 24.784414-24.81486c1.52137-1.52201 1.52137-3.98902-.00001-5.511029l-16.53308-16.533085c-1.52201-1.5213808-3.98902-1.5213848-5.51103.000004l-24.814854 24.7844-24.814855-24.784405c-.744461-.7366008-1.754021-1.1426168-2.801182-1.1265588zm30.386777 61.7783238c-.73212-.73997-1.7298-1.15634-2.77074-1.15634-1.04093 0-2.03862.41637-2.77074 1.15634z" fill="url(#linearGradient3208)"/>
    <path clip-path="url(#clipPath3559)" d="m-62.57895 106.7868 26.162951-26.870061 25.809397 26.516501-25.809397-40.305083z" fill-rule="evenodd" filter="url(#filter3549)" stroke="#000" stroke-width=".493731" transform="matrix(.9743255 0 0 .9743255 110.71143 -1.450494)"/>
    <path d="m31.7 16 2.875-3.375c-1.051205-1.695758-3.935136-2.288018-5.9375-.3125l2.8125 3.375z" fill="url(#linearGradient4331)" fill-rule="evenodd" filter="url(#filter3477)" opacity=".498127" transform="matrix(0 1.8163775 -1.8163775 0 141.97323 27.18898)"/>
    <path d="m31.7 16 2.875-3.375c-1.051205-1.695758-3.935136-2.288018-5.9375-.3125l2.8125 3.375z" fill="url(#linearGradient4331)" fill-rule="evenodd" filter="url(#filter3477)" opacity=".790262" transform="matrix(1.7938181 0 0 -1.7938181 -8.855479 123.95308)"/>
    <path d="m31.7 16 2.875-3.375c-1.051205-1.695758-3.935136-2.288018-5.9375-.3125l2.8125 3.375z" fill="url(#linearGradient5179)" fill-rule="evenodd" filter="url(#filter3477)" opacity=".498127" transform="matrix(0 1.6448195 1.6448195 0 10.696926 32.593726)"/>
    <path d="m102.97937 16.446305-27.558084 27.558081-27.558083-27.558077-13.004648 13.004647 27.558082 27.55808-27.558089 27.55809 13.004655 13.00464 27.558083-27.55808 27.558084 27.55808 13.00464-13.00465-27.558084-27.55808 27.558084-27.55808z" fill="url(#linearGradient3200)" opacity=".921348"/>
    <path d="m88.7 16 2.875-3.375c-1.051205-1.695758-3.935136-2.288018-5.9375-.3125l2.8125 3.375z" fill="url(#linearGradient5130)" fill-rule="evenodd" filter="url(#filter3477)" opacity=".790262" transform="matrix(1.6448195 0 0 -1.6448195 -42.379597 122.54563)"/>
    <path clip-path="url(#clipPath3559)" d="m-62.57895 106.7868 26.162951-26.870061 25.809397 26.516501-25.809397-40.305083z" fill="url(#radialGradient5265)" fill-rule="evenodd" filter="url(#filter3549)" transform="matrix(.9743255 0 0 -.9743255 110.71143 115.00908)"/>
    <path d="m31.7 16 2.875-3.375c-1.051205-1.695758-3.935136-2.288018-5.9375-.3125l2.8125 3.375z" fill="url(#linearGradient5120)" fill-rule="evenodd" filter="url(#filter3477)" opacity=".790262" transform="matrix(1.4958209 0 0 1.4958209 .532611 -6.376579)"/>
    <path d="m88.7 16 2.875-3.375c-1.051205-1.695758-3.935136-2.288018-5.9375-.3125l2.8125 3.375z" fill="url(#linearGradient5126)" fill-rule="evenodd" filter="url(#filter3477)" opacity=".790262" transform="matrix(1.5356935 0 0 1.5356935 -32.72151 -6.753219)"/>
    <path d="m88.284271 18.368396-28.284271 28.28427-28.284271-28.28427-13.347333 13.347333 28.28427 28.284271-28.28427 28.284271 13.347333 13.347339 28.284271-28.284276 28.284271 28.284276 13.347339-13.347339-28.284276-28.284271 28.284276-28.284271z" style="opacity:.921348;fill:none;stroke-width:1.53953;stroke-linecap:round;stroke-linejoin:round;stroke-dashoffset:1.0878;stroke:url(#linearGradient5100);filter:url(#filter3354)" transform="matrix(.9743255 0 0 .9743255 16.961757 -1.45049)"/>
    <path d="m47.848432 16.383627-.730744.730744-12.272136 12.272135 12.759296-11.784976 27.817758 26.405746 27.292534-26.405745 10.93244 10.932445c-.0956.49451-.22471.97414-.36538 1.46148l-11.845 13.79366c-10.682814 5.3258-25.578564 10.57913-41.593247 10.59579l.274024.27402c.459478.005.908174.0305 1.370152.0305 16.062747 0 27.107877-3.30785 37.817727-8.64714l15.742314-15.74231c.0648-.22456.12493-.44636.18269-.66985.0676-.26153.13113-.52498.18269-.79164l-12.45483-12.454819-.73074.730745-26.805374 26.892904z" fill="url(#linearGradient3194)"/>
    <path d="m47.86614 16.451014-13.002879 13.002882 25.272433 25.27243c.459468.005.908166.0304 1.370144.0304 16.062748 0 27.107878-3.30786 37.817728-8.64714l15.742324-15.7423c.14067-.48735.26975-.96698.36537-1.4615l-12.45483-12.454772-27.555144 27.555142z" fill="url(#linearGradient3191)"/>
    <path d="m47.848432 16.383627-.730744.730744-12.272136 12.272135 12.759296-11.784976 27.824158 28.243906-.006-1.83816.01 1.82401 27.282844-28.229755 10.93245 10.932445c-.0956.49451-.22471.97414-.36538 1.46148l-11.845 13.79366c-10.682824 5.3258-25.578564 10.57913-41.593248 10.59579l.274024.27402c.459478.005.908174.0305 1.370152.0305 16.062748 0 27.107878-3.30785 37.817728-8.64714l15.742294-15.74231c.0648-.22456.12493-.44636.18269-.66985.0676-.26153.13113-.52498.18269-.79164l-12.45483-12.454819-.73074.730745-26.805374 26.892904z" fill="url(#linearGradient3188)"/>
  </g>
</svg>
