<svg height="256" viewBox="0 0 256 256" width="256" xmlns="http://www.w3.org/2000/svg" xmlns:xlink="http://www.w3.org/1999/xlink">
  <defs>
    <linearGradient id="linearGradient1380">
      <stop offset="0" stop-color="#fff7e0"/>
      <stop offset="1" stop-color="#fff" stop-opacity="0"/>
    </linearGradient>
    <radialGradient id="radialGradient855" cx="41.766365" cy="261.84293" gradientTransform="matrix(1.3816668 .00148551 -.00282745 2.6297668 -28.089283 -431.355)" gradientUnits="userSpaceOnUse" r="3.96875">
      <stop offset="0" stop-color="#b4b7b0"/>
      <stop offset=".25803107" stop-color="#92958f"/>
      <stop offset="1" stop-color="#61635e"/>
    </radialGradient>
    <radialGradient id="radialGradient925" cx="37.65918" cy="268.77011" gradientTransform="matrix(2.098394 -.54883047 1.2752001 5.0941435 -386.09309 -1073.8039)" gradientUnits="userSpaceOnUse" r="9.554885">
      <stop offset="0" stop-color="#b6b9b2"/>
      <stop offset=".47425804" stop-color="#7a7d78"/>
      <stop offset="1" stop-color="#555753"/>
    </radialGradient>
    <linearGradient id="linearGradient939" gradientTransform="matrix(.94761162 0 0 1.0006439 -16.075143 -3.989173)" gradientUnits="userSpaceOnUse" x1="45.69997" x2="46.641647" y1="271.94348" y2="255.50639">
      <stop offset="0" stop-color="#cbcdc7"/>
      <stop offset="1" stop-color="#454643"/>
    </linearGradient>
    <radialGradient id="radialGradient947" cx="56.236195" cy="284.62109" gradientTransform="matrix(.92495146 -.39481579 .56923529 1.4870125 -186.16533 -141.19347)" gradientUnits="userSpaceOnUse" r="5.209069">
      <stop offset="0" stop-color="#838580"/>
      <stop offset=".67039979" stop-color="#92948f"/>
      <stop offset="1" stop-color="#6c6e69"/>
    </radialGradient>
    <radialGradient id="radialGradient886" cx="97.346443" cy="270.32809" gradientTransform="matrix(.82427407 -.40066361 1.1635412 2.6796178 -354.97525 -407.85813)" gradientUnits="userSpaceOnUse" r="13.206985">
      <stop offset="0" stop-color="#8c8e89"/>
      <stop offset="1" stop-color="#4c4e4a"/>
    </radialGradient>
    <linearGradient id="linearGradient898" gradientUnits="userSpaceOnUse" x1="29.184218" x2="26.247222" y1="266.257124" y2="253.053384">
      <stop offset="0" stop-color="#636461"/>
      <stop offset="1" stop-color="#91958f" stop-opacity=".016393"/>
    </linearGradient>
    <linearGradient id="linearGradient920" gradientUnits="userSpaceOnUse" x1="38.768259" x2="30.732362" y1="283.210454" y2="231.890264">
      <stop offset="0" stop-color="#777c76"/>
      <stop offset="1" stop-color="#3a3c39"/>
    </linearGradient>
    <radialGradient id="radialGradient944" cx="68.821388" cy="272.32874" gradientTransform="matrix(.93991484 0 0 1.102179 -41.196293 -27.93992)" gradientUnits="userSpaceOnUse" r="16.504675">
      <stop offset="0" stop-color="#858683"/>
      <stop offset="1" stop-color="#dbdcda"/>
    </radialGradient>
    <linearGradient id="linearGradient952" gradientTransform="matrix(.93991484 0 0 1.0002652 -48.455201 -2.062495)" gradientUnits="userSpaceOnUse" x1="77.284111" x2="80.039696" y1="279.31198" y2="244.80788">
      <stop offset="0" stop-color="#4d4e4b" stop-opacity=".745098"/>
      <stop offset="1" stop-color="#cfd0ce" stop-opacity=".988235"/>
    </linearGradient>
    <linearGradient id="linearGradient1360" gradientUnits="userSpaceOnUse" x1="11.457668" x2="11.457668" y1="272.232106" y2="247.745936">
      <stop offset="0" stop-color="#979996"/>
      <stop offset=".09712145" stop-color="#6d6f6b"/>
      <stop offset=".16186969" stop-color="#6e6f6c"/>
      <stop offset=".75179803" stop-color="#eaeae8"/>
      <stop offset="1" stop-color="#c0c3bc" stop-opacity=".988"/>
    </linearGradient>
    <linearGradient id="linearGradient1362" gradientTransform="matrix(.89369441 0 0 .92703516 -10.980212 16.882178)" gradientUnits="userSpaceOnUse" x1="43.800011" x2="61.331646" y1="288.15594" y2="235.09186">
      <stop offset="0" stop-color="#babdb6"/>
      <stop offset="1" stop-color="#d2d4cf"/>
    </linearGradient>
    <radialGradient id="radialGradient1364" cx="107.96588" cy="263.11728" gradientTransform="matrix(1.0984477 .00130451 -.00286548 2.4128568 -82.900206 -375.12656)" gradientUnits="userSpaceOnUse" r="12.689453">
      <stop offset="0" stop-color="#f8f8f8"/>
      <stop offset=".81313163" stop-color="#fefefe"/>
      <stop offset="1"/>
    </radialGradient>
    <radialGradient id="radialGradient1372" cx="11.963202" cy="260.22537" gradientTransform="matrix(1 0 0 1.9435272 .534186 -245.35866)" gradientUnits="userSpaceOnUse" r="6.39813">
      <stop offset="0" stop-color="#fefefe"/>
      <stop offset="1" stop-color="#656565"/>
    </radialGradient>
    <radialGradient id="radialGradient1384" cx="11.873556" cy="258.1568" gradientTransform="matrix(.62640095 .00244305 -.0032426 .83140724 5.273048 43.494355)" gradientUnits="userSpaceOnUse" r="7.31062" xlink:href="#linearGradient1380"/>
    <radialGradient id="radialGradient1384-3" cx="10.48081" cy="258.01108" gradientTransform="matrix(.74556052 .01206357 -.01703761 1.0529696 22.872667 -21.485378)" gradientUnits="userSpaceOnUse" r="7.31062" xlink:href="#linearGradient1380"/>
    <linearGradient id="linearGradient1328" gradientTransform="matrix(-3.7795276 0 0 3.7795276 252.18349 -866.50989)" gradientUnits="userSpaceOnUse" x1="61.707989" x2="64.707985" xlink:href="#linearGradient1312" y1="263.13074" y2="263.13074"/>
    <linearGradient id="linearGradient1312">
      <stop offset="0" stop-color="#c7598f" stop-opacity="0"/>
      <stop offset=".52633202" stop-color="#ee92d1"/>
      <stop offset="1" stop-color="#d921a8"/>
    </linearGradient>
    <linearGradient id="linearGradient1320" gradientTransform="matrix(-3.7795276 0 0 3.7795276 252.18349 -866.50989)" gradientUnits="userSpaceOnUse" x1="54.808384" x2="57.808384" xlink:href="#linearGradient1312" y1="262.83212" y2="262.83212"/>
    <linearGradient id="linearGradient1240" gradientTransform="matrix(-3.7795276 0 0 3.7795276 252.18349 -866.50989)" gradientUnits="userSpaceOnUse" x1="47.809406" x2="50.809406" xlink:href="#linearGradient1312" y1="263.26205" y2="263.26205"/>
  </defs>
  <g transform="matrix(-3.77 0 0 3.77 265.5844 -848.83632)">
    <ellipse cx="7.746666" cy="259.78021" fill="#2e3436" rx="3.038752" ry="7.04638"/>
    <path d="m15.414173 248.56315h5.191788v22.91968h-5.191788c-3.953801-1.61897-4.598504-6.66433-4.526295-11.57941.104074-7.08409 3.391617-10.9937 4.526295-11.34027z" fill="#494a46"/>
    <path d="m11.457668 247.74594 6.500727-.0661c.804452.00061 1.738206.77116 1.738206.77116-3.999363.0466-5.016493.7976-6.248711 3.6717-.919686 2.14513-1.226211 4.65634-1.285585 8.17458-.04664 2.76355.641736 6.66089 1.751318 8.68931 1.053534 1.92596 1.623464 2.61485 5.543749 2.54402 0 0-.515615.68516-1.181082.6859l-6.818622.0156c-3.1708484-2.14448-4.3539334-7.9033-4.2207304-12.33624.1136-3.78054.471931-10.19207 4.2207304-12.14994z" fill="url(#linearGradient1360)" stroke="url(#radialGradient1372)" stroke-width=".3175"/>
    <ellipse cx="31.91964" cy="260.00464" fill="url(#radialGradient944)" rx="15.512989" ry="18.191105" stroke="url(#linearGradient952)" stroke-width=".307855"/>
    <ellipse cx="35.17009" cy="260.41916" fill="url(#radialGradient886)" rx="11.80006" ry="26.711208"/>
    <ellipse cx="34.563461" cy="260.1662" fill="url(#radialGradient925)" rx="9.857472" ry="25.436573" stroke="url(#linearGradient920)" stroke-width=".275971"/>
    <ellipse cx="27.866806" cy="259.83868" fill="url(#radialGradient947)" rx="4.685452" ry="8.090109" stroke="url(#linearGradient939)" stroke-width=".386464"/>
    <ellipse cx="28.02713" cy="259.65524" fill="url(#radialGradient855)" rx="3.96875" ry="6.378348" stroke="url(#linearGradient898)" stroke-width=".396875"/>
    <path d="m34.940704 232.36691c-1.87084 0-3.62911.85673-5.15625 2.30274-1.52715 1.446-2.856083 3.48419-3.9668 5.9707-2.221433 4.97301-3.566406 11.75317-3.566406 19.23828s1.344973 14.26527 3.566406 19.23828c1.110717 2.48651 2.43965 4.5247 3.9668 5.9707 1.52714 1.44601 3.28541 2.30274 5.15625 2.30274 1.87083 0 3.62715-.85673 5.1543-2.30274 1.52714-1.446 2.85608-3.48419 3.96679-5.9707 2.22144-4.97301 3.56836-11.75317 3.56836-19.23828s-1.34692-14.26527-3.56836-19.23828c-1.11071-2.48651-2.43965-4.5247-3.96679-5.9707-1.52715-1.44601-3.28347-2.30274-5.1543-2.30274zm.61656 2.23608c1.43378 0 2.29537.46674 3.63167 1.73204 1.33631 1.26531 2.49765 2.53361 3.55255 4.89516 2.1098 4.72312 3.44336 11.33775 3.44336 18.64844s-1.33356 13.92532-3.44336 18.64844c-1.0549 2.36155-2.48048 3.80601-3.81679 5.07132-1.3363 1.2653-2.46213 1.20356-3.89591 1.20356-1.43379 0-2.29733-.55482-3.63363-1.82012-1.33631-1.26531-2.32149-2.88593-3.37639-5.24748-2.109802-4.72312-2.914881-10.10463-2.914881-17.41532s1.245477-13.83724 3.355281-18.56036c1.0549-2.36155 1.86392-3.71793 3.20023-4.98324 1.3363-1.2653 2.46408-2.17244 3.89787-2.17244z" fill="url(#linearGradient1362)" stroke="url(#radialGradient1364)" stroke-width=".529167"/>
    <ellipse cx="11.873557" cy="258.1568" fill="url(#radialGradient1384)" rx="7.31062" ry="8.279497"/>
    <ellipse cx="27.162804" cy="250.44342" fill="url(#radialGradient1384-3)" rx="7.31062" ry="8.279497"/>
  </g>
  <path d="m65.817226 70.825801v115.340909" fill="none" stroke="url(#linearGradient1240)" stroke-width="11.3386"/>
  <path d="m39.364406 31.801461v190.139719" fill="none" stroke="url(#linearGradient1320)" stroke-width="11.3386"/>
  <path d="m13.287166-4.2921214v264.5842514" fill="none" stroke="url(#linearGradient1328)" stroke-width="11.3386"/>
</svg>
