<svg enable-background="new" height="256" width="256" xmlns="http://www.w3.org/2000/svg" xmlns:xlink="http://www.w3.org/1999/xlink">
  <defs>
    <linearGradient id="linearGradient1574" gradientUnits="userSpaceOnUse" x1="147.867671" x2="105.063194" y1="158.265389" y2="84.726257">
      <stop offset="0" stop-color="#fcdd29"/>
      <stop offset=".25" stop-color="#f0b700"/>
      <stop offset=".5" stop-color="#ebb400"/>
      <stop offset="1" stop-color="#fbe348"/>
    </linearGradient>
    <linearGradient id="linearGradient1582" gradientUnits="userSpaceOnUse" x1="80.259147" x2="179.602941" y1="91.906562" y2="168.865149">
      <stop offset="0" stop-color="#fbec7d"/>
      <stop offset="1" stop-color="#edc32e"/>
    </linearGradient>
    <linearGradient id="linearGradient1329" gradientUnits="userSpaceOnUse" x1="92.769612" x2="181.895516" y1="46.102244" y2="208.825952">
      <stop offset="0" stop-color="#262626"/>
      <stop offset=".52639353" stop-color="#393939"/>
      <stop offset=".62553692" stop-color="#3e3e3e"/>
      <stop offset="1" stop-color="#1b1b1b"/>
    </linearGradient>
    <radialGradient id="radialGradient1341" cx="123.42654" cy="36.308285" gradientTransform="matrix(1.1369986 -.0054794 .00339847 .70519558 -15.920824 38.465865)" gradientUnits="userSpaceOnUse" r="105.53831">
      <stop offset="0" stop-color="#fff"/>
      <stop offset="1" stop-color="#fff" stop-opacity=".6"/>
    </radialGradient>
    <filter id="filter1485" color-interpolation-filters="sRGB" height="1.92481" width="1.082332" x="-.041166" y="-.462405">
      <feGaussianBlur stdDeviation="3.5311722"/>
    </filter>
    <linearGradient id="linearGradient3996">
      <stop offset="0" stop-color="#fff"/>
      <stop offset="1" stop-color="#fff" stop-opacity="0"/>
    </linearGradient>
    <linearGradient id="linearGradient8838">
      <stop offset="0"/>
      <stop offset="1" stop-opacity="0"/>
    </linearGradient>
    <linearGradient id="linearGradient2411">
      <stop offset="0" stop-color="#f5cb11"/>
      <stop offset=".25796592" stop-color="#fefe98"/>
      <stop offset=".50796592" stop-color="#efc200"/>
      <stop offset=".74009573" stop-color="#cf9c00"/>
      <stop offset="1" stop-color="#ffe00d"/>
    </linearGradient>
    <radialGradient id="radialGradient26274" cx="70.487465" cy="102.11657" gradientTransform="matrix(4.1219686 .03563022 -.01380672 1.5972662 -9.94292 -8.658812)" gradientUnits="userSpaceOnUse" r="21.531792">
      <stop offset="0" stop-color="#fefe97" stop-opacity=".50684"/>
      <stop offset="1" stop-color="#f4b900" stop-opacity=".254289"/>
    </radialGradient>
    <radialGradient id="radialGradient26268" cx="66.480537" cy="104.7655" gradientTransform="matrix(4.5030676 -.01809302 .00622428 1.5491193 -30.20607 -2.876917)" gradientUnits="userSpaceOnUse" r="21.531792">
      <stop offset="0" stop-color="#fefc93" stop-opacity=".723597"/>
      <stop offset="1" stop-color="#ffc205" stop-opacity=".338887"/>
    </radialGradient>
    <radialGradient id="radialGradient2020" cx="236.399" cy="-.345505" gradientUnits="userSpaceOnUse" r="12.49915" xlink:href="#linearGradient3996"/>
    <linearGradient id="linearGradient1816" gradientUnits="userSpaceOnUse" x1="136.38321" x2="150.0293" xlink:href="#linearGradient3996" y1="22.070805" y2="13.712175"/>
    <filter id="filter1802" color-interpolation-filters="sRGB" height="1.154667" width="1.276134" x="-.156378" y="-.087634">
      <feGaussianBlur stdDeviation="1.0168145"/>
    </filter>
    <linearGradient id="linearGradient1812" gradientUnits="userSpaceOnUse" x1="49.51309" x2="63.15918" xlink:href="#linearGradient3996" y1="22.070805" y2="13.712175"/>
    <linearGradient id="linearGradient1665" gradientUnits="userSpaceOnUse" x1="135.92735" x2="149.97227" xlink:href="#linearGradient8838" y1="35.426853" y2="18.994919"/>
    <filter id="filter1477" color-interpolation-filters="sRGB" height="1.141288" width="1.250151" x="-.136584" y="-.07717">
      <feGaussianBlur stdDeviation="1.0233253"/>
    </filter>
    <linearGradient id="linearGradient1487" gradientUnits="userSpaceOnUse" x1="49.05723" x2="63.10215" xlink:href="#linearGradient8838" y1="35.426853" y2="18.994919"/>
    <linearGradient id="linearGradient1071" gradientUnits="userSpaceOnUse" x1="257.6385" x2="313.229222" y1="-16.884615" y2="61.688673">
      <stop offset="0" stop-color="#f1f1f1"/>
      <stop offset="1" stop-color="#c3c3c3"/>
    </linearGradient>
    <linearGradient id="linearGradient12232" gradientUnits="userSpaceOnUse" x1="302.37458" x2="232.2661" y1="84.446379" y2="-4.295891">
      <stop offset="0" stop-color="#878787"/>
      <stop offset="1" stop-color="#d3d3d3"/>
    </linearGradient>
    <linearGradient id="linearGradient1667" gradientUnits="userSpaceOnUse" x1="257.32002" x2="284.80092" y1="63.343329" y2="94.330275">
      <stop offset="0" stop-color="#dba600"/>
      <stop offset="1" stop-color="#a87f00"/>
    </linearGradient>
    <filter id="filter12394" color-interpolation-filters="sRGB" height="3.542962" width="1.170809" x="-.085405" y="-1.271481">
      <feGaussianBlur stdDeviation="1.4869846"/>
    </filter>
    <linearGradient id="linearGradient1867" gradientUnits="userSpaceOnUse" x1="274.72804" x2="276.06768" y1="88.233931" y2="108.732611">
      <stop offset="0" stop-color="#fef4b8" stop-opacity=".844658"/>
      <stop offset="1" stop-color="#fef6c9"/>
    </linearGradient>
    <linearGradient id="linearGradient1659" gradientUnits="userSpaceOnUse" x1="201.98542" x2="335.95052" xlink:href="#linearGradient2411" y1="137.014639" y2="137.014639"/>
    <linearGradient id="linearGradient1675" gradientUnits="userSpaceOnUse" x1="273.11408" x2="272.54734" y1="87.013869" y2="70.610097">
      <stop offset="0" stop-color="#fbd600"/>
      <stop offset="1" stop-color="#fff56d"/>
    </linearGradient>
    <linearGradient id="linearGradient1857" gradientUnits="userSpaceOnUse" x1="211.7531" x2="324.0312" xlink:href="#linearGradient2411" y1="93.156813" y2="93.046217"/>
    <filter id="filter965" color-interpolation-filters="sRGB" height="1.564308" width="1.135944" x="-.067972" y="-.282154">
      <feGaussianBlur stdDeviation="1.9633793"/>
    </filter>
  </defs>
  <ellipse cx="128" cy="202.71964" filter="url(#filter1485)" opacity=".5" rx="102.93508" ry="9.163844"/>
  <path d="m25.961692 51.073988h182.038308c3.23591 0 6.72441.133778 10.03831 4l12 14c2.95079 3.442592 6 5.346109 6 8.926012v120.92601c0 3.324-2.676 6-6 6h-204.076618c-3.324 0-6-2.676-6-6v-141.852022c0-3.324 2.676-6 6-6z" fill="url(#linearGradient1329)"/>
  <path d="m29.961692 55.073988h176.038308c3.23591 0 6.77842.08813 10.03831 4l10 12c2.9027 3.483239 6 5.346109 6 8.926012v114.92601c0 3.324-2.676 6-6 6h-196.076618c-3.324 0-6-2.676-6-6v-133.852022c0-3.324 2.676-6 6-6z" fill="url(#linearGradient1329)" stroke="url(#radialGradient1341)" stroke-linecap="round" stroke-linejoin="round" stroke-width="3"/>
  <path d="m71.975644 164 .111999-14h32.000007v26h-18.109345s-14 0-14-12zm0-71.999999c0-12.000003 14-12.000003 14-12.000003l18.000006.0468v26.000002h-32.000006zm.10934 49.999999v-28h32.000006v28zm39.945406 34v-96.000002h57.94526c14 0 14 12.000003 14 12.000003l-.056 13.999999h-39.9454v70zm40 0v-26h32l-.056 14c0 12-14 12-14 12zm0-34v-28h32v28z" fill="url(#linearGradient1574)" stroke="url(#linearGradient1582)" stroke-width="3"/>
  <g transform="matrix(.75 0 0 .75 -8.730772 100.64261)">
    <ellipse cx="150.87012" cy="103.63491" filter="url(#filter965)" opacity=".615454" rx="34.662132" ry="8.35025" transform="matrix(1.9981237 0 0 1.6503763 -32.49073 9.215437)"/>
    <path d="m202.98618 83.742735h131.96432c.2809 17.701465-23.33052 18.756845-65.98254 19.103075s-66.37408-1.57923-65.98178-19.103075z" fill="url(#linearGradient1857)"/>
    <path d="m202.98618 89.314255c44.25062 3.07718 88.3495 4.24957 131.96432 0v-21.48671c-43.9881-1.94617-87.97622-2.24942-131.96432 0z" fill="url(#linearGradient1675)"/>
    <path d="m202.98542 182.88006v-97.565805c23.86816 13.34247 44.73764 16.745805 65.98254 16.745805s42.11438-3.403335 65.98254-16.745805v97.565805c-19.76972 3.72373-39.26828 6.5396-65.98232 6.5396s-46.21304-2.81587-65.98276-6.5396z" fill="url(#linearGradient1659)"/>
    <path d="m202.98618 89.314255c44.78394 3.56008 88.80236 3.7328 131.96432 0-16.37378 8.33629-35.56764 16.760525-65.98254 16.745795-30.4149-.0148-49.22444-8.113425-65.98178-16.745795z" style="fill:#fff;fill-opacity:.399135;stroke-width:4;stroke-linecap:round;stroke-linejoin:round;stroke:url(#linearGradient1867)"/>
    <path d="m44.61927 54.57667c0 1.100843-2.30445 1.993252-5.14712 1.993252s-5.14712-.892409-5.14712-1.993252 2.30445-1.993252 5.14712-1.993252 5.14712.892409 5.14712 1.993252zm38.76146 0c0 1.100843 2.30445 1.993252 5.14712 1.993252s5.14712-.892409 5.14712-1.993252-2.30445-1.993252-5.14712-1.993252-5.14712.892409-5.14712 1.993252z" filter="url(#filter12394)" opacity=".599995" stroke="#000" stroke-linejoin="round" stroke-width="3" transform="matrix(2 0 0 2 140.96642 -29.974451)"/>
    <path d="m202.9839 182.881c19.7697 3.72372 39.27036 6.53908 65.98436 6.53908 26.71402 0 46.21078-2.81536 65.98048-6.53908l.0001-115.054665c-21.99404-.97309-43.98644-1.53241-65.98048-1.57032-21.99402-.0379-43.98644.4456-65.98046 1.57032z" fill="none" stroke="url(#linearGradient1667)" stroke-width="4"/>
    <path d="m268.96836-13.103357c-24.299-.188504-59.35156 15.947212-59.35156 58.335938v33.148434c0 2.20169 4.61154 3.98438 10.29688 3.98438s10.29296-1.78269 10.29296-3.98438v-33.148434c0-30.645592 24.8683-38.677652 38.76172-38.59375 13.89344-.0839 38.76172 7.948158 38.76172 38.59375v33.148434c0 2.20169 4.60764 3.98438 10.29298 3.98438 5.68532 0 10.29296-1.78269 10.29296-3.98438v-33.148434c0-42.388726-35.04864-58.524442-59.34766-58.335938z" fill="url(#linearGradient1071)" stroke="url(#linearGradient12232)" stroke-width="4"/>
    <path d="m42.83194 54.323436v-18.295044c0-11.045515 8.49841-20.058072 21.6422-20.009294" fill="none" filter="url(#filter1477)" stroke="url(#linearGradient1487)" transform="matrix(2 0 0 2 140.96642 -29.974451)"/>
    <path d="m129.70206 54.323436v-18.295044c0-11.045515 8.49841-25.573623 21.6422-25.524845" fill="none" filter="url(#filter1477)" stroke="url(#linearGradient1665)" transform="matrix(-2 0 0 2 583.35366 -29.974451)"/>
    <path d="m36.1198 52.546579v-16.54316c0-16.854464 17.51884-25.895859 26.4015-25.86217" fill="none" filter="url(#filter1802)" stroke="url(#linearGradient1812)" stroke-width="2" transform="matrix(2 0 0 2 140.96642 -29.974451)"/>
    <path d="m122.98992 52.546579v-16.54316c0-12.567284 11.51884-19.895859 20.4015-19.86217" fill="none" filter="url(#filter1802)" stroke="url(#linearGradient1816)" stroke-width="1.5" transform="matrix(-2 0 0 2 557.99644 -29.974451)"/>
    <circle cx="236.399" cy="-.345507" fill="url(#radialGradient2020)" opacity=".615454" r="12.49915"/>
    <path d="m238.40754 127.2678c-6.76918-1.11704-11.07086 1.02288-11.05982 6.0531.01 4.20084 2.3 6.93362 9.14818 9.70514 1.43872.584 2.88018 1.15346 4.32516 1.70795 3.22522 1.23202 4.51064 2.47879 4.50954 4.48573-.002 2.69278-2.74192 4.18651-6.7914 3.53017-2.49654-.40465-4.58964-1.5049-5.74644-2.92234-.71584-.95235-1.04516-1.83243-1.31972-3.87932-1.61326-.31683-3.22104-.65081-4.82476-1.00073.2145 6.52012 3.90882 10.72854 11.49426 11.97479 7.32576 1.20358 12.04584-2.04662 12.04844-7.47381.002-4.23405-2.46608-6.62759-8.25974-8.78325-1.48354-.5475-2.96346-1.11106-4.44064-1.69025-3.764-1.46913-5.36182-2.97682-5.36566-4.87775-.006-2.53708 2.3561-3.58018 6.12714-2.95786 3.71848.61365 5.729 2.3228 5.8445 5.18842 1.63638.21943 3.27554.41796 4.91856.59473-.0616-5.34602-3.88426-8.54524-10.6076-9.65472zm29.86748 2.50918c-.60244-.005-1.1884.0166-1.75686.0637-7.25162.67755-11.78242 5.53322-11.78192 14.03216.00052 8.5088 4.39024 14.6869 11.77326 15.45997.53158.061 1.07926.0942 1.6427.0987.29744.002.59114-.003.88096-.0168 6.34434-.36967 10.69374-4.4763 11.83306-10.41175-1.58584.11994-3.17264.21919-4.76126.29722-1.22428 3.5324-3.63906 5.61059-7.0695 5.87436-.2323.0152-.46904.0219-.7102.0202-.62678-.004-1.23246-.069-1.81308-.1911-2.2045-.44208-4.05272-1.71969-5.30262-3.65326-1.12638-1.66521-1.52254-3.30438-1.57844-6.06394 2.2927.10902 4.58692.17294 6.88534.19062.8391.0152 1.68018.024 2.52338.0265 4.16022-.0361 8.30522-.22214 12.45084-.54963.004-4.23966-.33062-6.68531-1.17834-8.62917-1.8326-4.08414-6.04634-6.34248-11.268-6.52683-.25432-.012-.51082-.019-.76932-.021zm30.54236-2.72854c-7.96498 1.35491-13.12996 7.33913-13.13818 16.52334-.008 8.93221 5.08544 14.49469 13.0424 13.15386 6.99388-1.17855 11.35042-6.40704 11.90744-13.36203-1.54846.34126-3.1003.66877-4.65666.98142-.78158 4.6508-3.16506 7.46201-7.13752 8.13194-5.15138.86875-8.25414-2.91326-8.24736-9.46795.008-6.91299 3.0607-11.19221 8.16028-12.05431 3.9194-.66259 6.35648.90791 6.90396 4.59544 1.55718-.31143 3.10984-.6379 4.65914-.97829-.21468-2.60454-.81816-4.16472-1.92188-5.40988-1.98478-2.0753-5.48426-2.80882-9.57162-2.11354zm-30.59702 6.61263c.27922.002.55374.015.82316.0379 4.3876.32223 7.35564 3.36103 7.35248 8.00538-2.45024.12412-4.90076.1975-7.35484.2186-.84332-.003-1.6845-.0116-2.52372-.0268-2.26006-.0176-4.5161-.08-6.77064-.18598.34548-4.43902 2.93794-7.28256 6.77156-7.92731.54272-.0854 1.11106-.12664 1.702-.12184z" fill="url(#radialGradient26274)" stroke="url(#radialGradient26268)" stroke-width="2"/>
  </g>
</svg>
