<svg enable-background="new" height="256" width="256" xmlns="http://www.w3.org/2000/svg" xmlns:xlink="http://www.w3.org/1999/xlink">
  <defs>
    <linearGradient id="linearGradient1574" gradientUnits="userSpaceOnUse" x1="147.867671" x2="105.063194" y1="158.265389" y2="84.726257">
      <stop offset="0" stop-color="#fcdd29"/>
      <stop offset=".25" stop-color="#f0b700"/>
      <stop offset=".5" stop-color="#ebb400"/>
      <stop offset="1" stop-color="#fbe348"/>
    </linearGradient>
    <linearGradient id="linearGradient1582" gradientUnits="userSpaceOnUse" x1="80.259147" x2="179.602941" y1="91.906562" y2="168.865149">
      <stop offset="0" stop-color="#fbec7d"/>
      <stop offset="1" stop-color="#edc32e"/>
    </linearGradient>
    <linearGradient id="linearGradient1329" gradientUnits="userSpaceOnUse" x1="92.769612" x2="181.895516" y1="46.102244" y2="208.825952">
      <stop offset="0" stop-color="#262626"/>
      <stop offset=".52639353" stop-color="#393939"/>
      <stop offset=".62553692" stop-color="#3e3e3e"/>
      <stop offset="1" stop-color="#1b1b1b"/>
    </linearGradient>
    <radialGradient id="radialGradient1341" cx="123.42654" cy="36.308285" gradientTransform="matrix(1.1369986 -.0054794 .00339847 .70519558 -15.920824 38.465865)" gradientUnits="userSpaceOnUse" r="105.53831">
      <stop offset="0" stop-color="#fff"/>
      <stop offset="1" stop-color="#fff" stop-opacity=".6"/>
    </radialGradient>
    <filter id="filter1485" color-interpolation-filters="sRGB" height="1.92481" width="1.082332" x="-.041166" y="-.462405">
      <feGaussianBlur stdDeviation="3.5311722"/>
    </filter>
    <linearGradient id="linearGradient3208" gradientUnits="userSpaceOnUse" x1="74.19725843788" x2="74.19725843788" y1="74.94768389712" y2="-16.73631350014">
      <stop offset="0" stop-color="#810000"/>
      <stop offset="1" stop-color="#c50000"/>
    </linearGradient>
    <clipPath id="clipPath3559">
      <path d="m-64.510272 10.75c-1.042316.0084-2.040208.423209-2.78125 1.15625l-16.96875 16.96875c-1.561474 1.562119-1.561474 4.094131 0 5.65625l25.4375 25.46875-25.4375 25.46875c-1.561474 1.562119-1.561474 4.094131 0 5.65625l16.96875 16.96875c1.562119 1.56147 4.094131 1.56147 5.65625 0l25.46875-25.4375 25.46875 25.4375c1.5621191 1.56147 4.0941311 1.56147 5.6562501 0l16.9687499-16.96875c1.56147-1.562119 1.56147-4.094131 0-5.65625l-25.4375-25.46875 25.4375-25.46875c1.56147-1.562119 1.56147-4.094131 0-5.65625l-16.9687499-16.96875c-1.562119-1.561474-4.094131-1.561474-5.6562501 0l-25.46875 25.4375-25.46875-25.4375c-.764077-.756011-1.800247-1.172731-2.875-1.15625zm31.1875 63.40625c-.751409-.759464-1.775386-1.18681-2.84375-1.18681s-2.092341.427346-2.84375 1.18681z"/>
    </clipPath>
    <filter id="filter3549" height="1.318829" width="1.245312" x="-.122653" y="-.162916">
      <feGaussianBlur stdDeviation="2.5695681"/>
    </filter>
    <linearGradient id="linearGradient2132" gradientTransform="scale(1.0975951 .9110828)" gradientUnits="userSpaceOnUse" x1="26.091133" x2="31.500689" y1="14.856744" y2="14.856744">
      <stop offset="0" stop-color="#fff"/>
      <stop offset="1" stop-color="#fff" stop-opacity="0"/>
    </linearGradient>
    <filter id="filter3477" height="1.28034" width="1.232702" x="-.116351" y="-.14017">
      <feGaussianBlur stdDeviation=".28784801"/>
    </filter>
    <linearGradient id="linearGradient5179" gradientUnits="userSpaceOnUse" x1="304.88663" x2="345.62039" y1="385.86127" y2="384.62384">
      <stop offset="0" stop-color="#765c44"/>
      <stop offset="1" stop-color="#765c44" stop-opacity="0"/>
    </linearGradient>
    <linearGradient id="linearGradient3200" gradientUnits="userSpaceOnUse" x1="70.55652070017" x2="70.55652070017" y1="84.73929467169" y2="34.26416045881">
      <stop offset="0" stop-color="#f00"/>
      <stop offset="1" stop-color="#7f0000"/>
    </linearGradient>
    <linearGradient id="linearGradient5130" gradientUnits="userSpaceOnUse" spreadMethod="reflect" x1="88.60625" x2="91.575107" xlink:href="#linearGradient3366" y1="13.510336" y2="13.510336"/>
    <linearGradient id="linearGradient3366">
      <stop offset="0" stop-color="#ff8787"/>
      <stop offset="1" stop-color="#ff8787" stop-opacity="0"/>
    </linearGradient>
    <radialGradient id="radialGradient5265" cx="-36.592777" cy="90.072952" gradientTransform="matrix(.4576062 0 0 .782313 -19.847694 18.82067)" gradientUnits="userSpaceOnUse" r="25.986174">
      <stop offset="0"/>
      <stop offset="1" stop-opacity="0"/>
    </radialGradient>
    <linearGradient id="linearGradient5120" gradientUnits="userSpaceOnUse" spreadMethod="reflect" x1="31.60625" x2="34.575107" xlink:href="#linearGradient3207" y1="13.510336" y2="13.510336"/>
    <linearGradient id="linearGradient3207">
      <stop offset="0" stop-color="#fff"/>
      <stop offset="1" stop-color="#790000" stop-opacity="0"/>
    </linearGradient>
    <linearGradient id="linearGradient5126" gradientUnits="userSpaceOnUse" spreadMethod="reflect" x1="88.60625" x2="91.575107" xlink:href="#linearGradient3207" y1="13.510336" y2="13.510336"/>
    <linearGradient id="linearGradient5100" gradientUnits="userSpaceOnUse" x1="59.999996" x2="57.434441" y1="92.973083" y2="55.07938">
      <stop offset="0" stop-color="#fff5e4"/>
      <stop offset=".25" stop-color="#ffecd0"/>
      <stop offset=".5" stop-color="#ffd390"/>
      <stop offset="1" stop-color="#ffc46a"/>
    </linearGradient>
    <filter id="filter3354" height="1.044866" width="1.044866" x="-.022433" y="-.022433">
      <feGaussianBlur stdDeviation=".45754832"/>
    </filter>
    <linearGradient id="linearGradient3194" gradientTransform="matrix(1.381268 0 0 .6872743 16.961757 -1.45049)" gradientUnits="userSpaceOnUse" x1="68.313011" x2="51.544849" y1="109.97649" y2="32.750854">
      <stop offset="0" stop-color="#f4f5f8"/>
      <stop offset="1" stop-color="#fdfdfe"/>
    </linearGradient>
    <linearGradient id="linearGradient3191" gradientUnits="userSpaceOnUse" x1="63.0124148119" x2="63.0124148119" xlink:href="#linearGradient3366" y1="19.72984298575" y2="67.10039129706"/>
    <linearGradient id="linearGradient3188" gradientUnits="userSpaceOnUse" x1="73.14786298666" x2="72.2873591659" y1="69.74821445221" y2="19.60717450463">
      <stop offset="0" stop-color="#fff" stop-opacity="0"/>
      <stop offset="1" stop-color="#fff"/>
    </linearGradient>
  </defs>
  <ellipse cx="128" cy="202.71964" filter="url(#filter1485)" opacity=".5" rx="102.93508" ry="9.163844"/>
  <path d="m25.961692 51.073988h182.038308c3.23591 0 6.72441.133778 10.03831 4l12 14c2.95079 3.442592 6 5.346109 6 8.926012v120.92601c0 3.324-2.676 6-6 6h-204.076618c-3.324 0-6-2.676-6-6v-141.852022c0-3.324 2.676-6 6-6z" fill="url(#linearGradient1329)"/>
  <path d="m29.961692 55.073988h176.038308c3.23591 0 6.77842.08813 10.03831 4l10 12c2.9027 3.483239 6 5.346109 6 8.926012v114.92601c0 3.324-2.676 6-6 6h-196.076618c-3.324 0-6-2.676-6-6v-133.852022c0-3.324 2.676-6 6-6z" fill="url(#linearGradient1329)" stroke="url(#radialGradient1341)" stroke-linecap="round" stroke-linejoin="round" stroke-width="3"/>
  <path d="m71.975644 164 .111999-14h32.000007v26h-18.109345s-14 0-14-12zm0-71.999999c0-12.000003 14-12.000003 14-12.000003l18.000006.0468v26.000002h-32.000006zm.10934 49.999999v-28h32.000006v28zm39.945406 34v-96.000002h57.94526c14 0 14 12.000003 14 12.000003l-.056 13.999999h-39.9454v70zm40 0v-26h32l-.056 14c0 12-14 12-14 12zm0-34v-28h32v28z" fill="url(#linearGradient1574)" stroke="url(#linearGradient1582)" stroke-width="3"/>
  <g transform="matrix(1.1459314 0 0 1.1459314 110.56767 131.13702)">
    <path d="m47.805249 9.0235122c-1.015554.0081-1.987832.412338-2.709842 1.1265628l-16.533086 16.533086c-1.521389 1.522005-1.521384 3.989015-.000004 5.511025l24.784409 24.81486-24.784404 24.81485c-1.521385 1.522-1.521385 3.98901 0 5.51102l16.533086 16.533084c1.522004 1.52139 3.989016 1.52139 5.511029.00001l24.814849-24.784404 24.814854 24.784404c1.52201 1.52138 3.98902 1.52138 5.51103-.00001l16.53308-16.533084c1.52138-1.52201 1.52138-3.98901 0-5.51103l-24.784404-24.81484 24.784414-24.81486c1.52137-1.52201 1.52137-3.98902-.00001-5.511029l-16.53308-16.533085c-1.52201-1.5213808-3.98902-1.5213848-5.51103.000004l-24.814854 24.7844-24.814855-24.784405c-.744461-.7366008-1.754021-1.1426168-2.801182-1.1265588zm30.386777 61.7783238c-.73212-.73997-1.7298-1.15634-2.77074-1.15634-1.04093 0-2.03862.41637-2.77074 1.15634z" fill="url(#linearGradient3208)"/>
    <path clip-path="url(#clipPath3559)" d="m-62.57895 106.7868 26.162951-26.870061 25.809397 26.516501-25.809397-40.305083z" fill-rule="evenodd" filter="url(#filter3549)" stroke="#000" stroke-width=".493731" transform="matrix(.9743255 0 0 .9743255 110.71143 -1.450494)"/>
    <path d="m31.7 16 2.875-3.375c-1.051205-1.695758-3.935136-2.288018-5.9375-.3125l2.8125 3.375z" fill="url(#linearGradient2132)" fill-rule="evenodd" filter="url(#filter3477)" opacity=".498127" transform="matrix(0 1.8163775 -1.8163775 0 141.97323 27.18898)"/>
    <path d="m31.7 16 2.875-3.375c-1.051205-1.695758-3.935136-2.288018-5.9375-.3125l2.8125 3.375z" fill="url(#linearGradient2132)" fill-rule="evenodd" filter="url(#filter3477)" opacity=".790262" transform="matrix(1.7938181 0 0 -1.7938181 -8.855479 123.95308)"/>
    <path d="m31.7 16 2.875-3.375c-1.051205-1.695758-3.935136-2.288018-5.9375-.3125l2.8125 3.375z" fill="url(#linearGradient5179)" fill-rule="evenodd" filter="url(#filter3477)" opacity=".498127" transform="matrix(0 1.6448195 1.6448195 0 10.696926 32.593726)"/>
    <path d="m102.97937 16.446305-27.558084 27.558081-27.558083-27.558077-13.004648 13.004647 27.558082 27.55808-27.558089 27.55809 13.004655 13.00464 27.558083-27.55808 27.558084 27.55808 13.00464-13.00465-27.558084-27.55808 27.558084-27.55808z" fill="url(#linearGradient3200)" opacity=".921348"/>
    <path d="m88.7 16 2.875-3.375c-1.051205-1.695758-3.935136-2.288018-5.9375-.3125l2.8125 3.375z" fill="url(#linearGradient5130)" fill-rule="evenodd" filter="url(#filter3477)" opacity=".790262" transform="matrix(1.6448195 0 0 -1.6448195 -42.379597 122.54563)"/>
    <path clip-path="url(#clipPath3559)" d="m-62.57895 106.7868 26.162951-26.870061 25.809397 26.516501-25.809397-40.305083z" fill="url(#radialGradient5265)" fill-rule="evenodd" filter="url(#filter3549)" transform="matrix(.9743255 0 0 -.9743255 110.71143 115.00908)"/>
    <path d="m31.7 16 2.875-3.375c-1.051205-1.695758-3.935136-2.288018-5.9375-.3125l2.8125 3.375z" fill="url(#linearGradient5120)" fill-rule="evenodd" filter="url(#filter3477)" opacity=".790262" transform="matrix(1.4958209 0 0 1.4958209 .532611 -6.376579)"/>
    <path d="m88.7 16 2.875-3.375c-1.051205-1.695758-3.935136-2.288018-5.9375-.3125l2.8125 3.375z" fill="url(#linearGradient5126)" fill-rule="evenodd" filter="url(#filter3477)" opacity=".790262" transform="matrix(1.5356935 0 0 1.5356935 -32.72151 -6.753219)"/>
    <path d="m88.284271 18.368396-28.284271 28.28427-28.284271-28.28427-13.347333 13.347333 28.28427 28.284271-28.28427 28.284271 13.347333 13.347339 28.284271-28.284276 28.284271 28.284276 13.347339-13.347339-28.284276-28.284271 28.284276-28.284271z" style="opacity:.921348;fill:none;stroke-width:1.53953;stroke-linecap:round;stroke-linejoin:round;stroke-dashoffset:1.0878;stroke:url(#linearGradient5100);filter:url(#filter3354)" transform="matrix(.9743255 0 0 .9743255 16.961757 -1.45049)"/>
    <path d="m47.848432 16.383627-.730744.730744-12.272136 12.272135 12.759296-11.784976 27.817758 26.405746 27.292534-26.405745 10.93244 10.932445c-.0956.49451-.22471.97414-.36538 1.46148l-11.845 13.79366c-10.682814 5.3258-25.578564 10.57913-41.593247 10.59579l.274024.27402c.459478.005.908174.0305 1.370152.0305 16.062747 0 27.107877-3.30785 37.817727-8.64714l15.742314-15.74231c.0648-.22456.12493-.44636.18269-.66985.0676-.26153.13113-.52498.18269-.79164l-12.45483-12.454819-.73074.730745-26.805374 26.892904z" fill="url(#linearGradient3194)"/>
    <path d="m47.86614 16.451014-13.002879 13.002882 25.272433 25.27243c.459468.005.908166.0304 1.370144.0304 16.062748 0 27.107878-3.30786 37.817728-8.64714l15.742324-15.7423c.14067-.48735.26975-.96698.36537-1.4615l-12.45483-12.454772-27.555144 27.555142z" fill="url(#linearGradient3191)"/>
    <path d="m47.848432 16.383627-.730744.730744-12.272136 12.272135 12.759296-11.784976 27.824158 28.243906-.006-1.83816.01 1.82401 27.282844-28.229755 10.93245 10.932445c-.0956.49451-.22471.97414-.36538 1.46148l-11.845 13.79366c-10.682824 5.3258-25.578564 10.57913-41.593248 10.59579l.274024.27402c.459478.005.908174.0305 1.370152.0305 16.062748 0 27.107878-3.30785 37.817728-8.64714l15.742294-15.74231c.0648-.22456.12493-.44636.18269-.66985.0676-.26153.13113-.52498.18269-.79164l-12.45483-12.454819-.73074.730745-26.805374 26.892904z" fill="url(#linearGradient3188)"/>
  </g>
</svg>
