<svg height="256" width="256" xmlns="http://www.w3.org/2000/svg" xmlns:xlink="http://www.w3.org/1999/xlink">
  <defs>
    <linearGradient id="linearGradient1065">
      <stop offset="0" stop-color="#fff"/>
      <stop offset="1" stop-color="#fff" stop-opacity="0"/>
    </linearGradient>
    <radialGradient id="radialGradient861" cx="64.423149" cy="111.74529" gradientTransform="matrix(-.38251337 -.67434804 .26151173 -.14833842 54.402161 128.62427)" gradientUnits="userSpaceOnUse" r="59.427807">
      <stop offset="0" stop-color="#fff" stop-opacity=".502092"/>
      <stop offset=".91400582" stop-color="#fff" stop-opacity=".395681"/>
      <stop offset="1" stop-color="#fff" stop-opacity="0"/>
    </radialGradient>
    <radialGradient id="radialGradient871" cx="64.407494" cy="120.09771" gradientTransform="matrix(-.41313168 -.71019804 .34007171 -.19782425 46.962912 136.84476)" gradientUnits="userSpaceOnUse" r="59.427807">
      <stop offset="0" stop-color="#fff"/>
      <stop offset=".86757553" stop-color="#fff" stop-opacity=".6"/>
      <stop offset="1" stop-color="#fff" stop-opacity="0"/>
    </radialGradient>
    <linearGradient id="linearGradient1067" gradientUnits="userSpaceOnUse" x1="19.193677" x2="19.054952" xlink:href="#linearGradient1065" y1="77.425434" y2="85.785493"/>
    <filter id="filter1073" color-interpolation-filters="sRGB" height="1.480634" width="1.211769" x="-.105884" y="-.240317">
      <feGaussianBlur stdDeviation=".71207928"/>
    </filter>
    <radialGradient id="radialGradient1141" cx="25.788654" cy="92.842964" gradientTransform="matrix(-.75538157 -.73326881 .24969585 -.25722578 88.82816 137.33157)" gradientUnits="userSpaceOnUse" r="16.893913">
      <stop offset="0" stop-color="#061b73"/>
      <stop offset="1" stop-color="#062b73" stop-opacity=".301961"/>
    </radialGradient>
    <radialGradient id="radialGradient1159" cx="49.770634" cy="70.574539" gradientTransform="matrix(-.53149688 -.94111161 .40135399 -.22666642 63.104034 145.36676)" gradientUnits="userSpaceOnUse" r="55.716496">
      <stop offset="0" stop-color="#001bee"/>
      <stop offset="1" stop-color="#0c32a9"/>
    </radialGradient>
    <linearGradient id="linearGradient1161" gradientTransform="matrix(-.5 -.8660254 .8660254 -.5 23.714507 163.355745)" gradientUnits="userSpaceOnUse" x1="22.525749" x2="126.38821" y1="61.538055" y2="80.720581">
      <stop offset="0" stop-color="#0a3292"/>
      <stop offset="1" stop-color="#0e84c8"/>
    </linearGradient>
    <radialGradient id="radialGradient1163" cx="101.9543" cy="91.230247" gradientTransform="matrix(-.2073489 -.91613753 .3958131 -.08958416 38.432482 129.44425)" gradientUnits="userSpaceOnUse" r="17.24473">
      <stop offset="0" stop-color="#0e1fc8"/>
      <stop offset="1" stop-color="#0e59c8"/>
    </radialGradient>
    <filter id="filter1179" color-interpolation-filters="sRGB" height="1.364571" width="1.153461" x="-.076731" y="-.182285">
      <feGaussianBlur stdDeviation="3.5304713"/>
    </filter>
    <linearGradient id="linearGradient3449">
      <stop offset="0"/>
      <stop offset="1" stop-opacity="0"/>
    </linearGradient>
    <linearGradient id="linearGradient3500-3" gradientUnits="userSpaceOnUse" x1="64" x2="65.323578" y1=".835772" y2="90.539841">
      <stop offset="0" stop-color="#65c530"/>
      <stop offset="1" stop-color="#00481b"/>
    </linearGradient>
    <radialGradient id="radialGradient3515-5" cx="63.999996" cy="83.235466" fx="63.999992" fy="73.057167" gradientTransform="matrix(1.2693596 0 0 1.2352941 -17.239013 -10.823529)" gradientUnits="userSpaceOnUse" r="34" xlink:href="#linearGradient3449"/>
    <radialGradient id="radialGradient4032-3" cx="64.1875" cy="83.96875" gradientTransform="matrix(2.0053076 0 0 26.804309 -64.528179 -2166.7555)" gradientUnits="userSpaceOnUse" r="1.65625">
      <stop offset="0" stop-color="#37a42c"/>
      <stop offset="1" stop-color="#37a42c" stop-opacity="0"/>
    </radialGradient>
    <filter id="filter4094-2" height="1.177364" width="1.431698" x="-.215849" y="-.088682">
      <feGaussianBlur stdDeviation=".29791667"/>
    </filter>
    <radialGradient id="radialGradient3881-1" cx="42.890472" cy="70.185112" fy="70.185097" gradientTransform="matrix(1.0493741 .7142043 -.04285031 .06295959 -5.750698 14.511114)" gradientUnits="userSpaceOnUse" r="34" xlink:href="#linearGradient1065"/>
    <filter id="filter3999-2" height="1.411886" width="1.293645" x="-.146822" y="-.205943">
      <feGaussianBlur stdDeviation=".36737188"/>
    </filter>
    <radialGradient id="radialGradient3511-9" cx="64" cy="49.46299" fx="63.999996" fy="39.284687" gradientTransform="matrix(1.2693596 0 0 1.2352941 -17.239013 -10.823529)" gradientUnits="userSpaceOnUse" r="34" xlink:href="#linearGradient3449"/>
    <radialGradient id="radialGradient3796-3" cx="48.765625" cy="44.78125" gradientTransform="matrix(2.3734742 2.8285964 -.7980414 .6696362 -31.241037 -123.14417)" gradientUnits="userSpaceOnUse" r="6.359375">
      <stop offset="0" stop-color="#3bd22c"/>
      <stop offset="1" stop-color="#0f0" stop-opacity="0"/>
    </radialGradient>
    <filter id="filter3790-6" height="1.347183" width="1.361685" x="-.180842" y="-.173592">
      <feGaussianBlur stdDeviation=".95837054"/>
    </filter>
    <radialGradient id="radialGradient3490-1" cx="64" cy="69.332474" gradientTransform="matrix(1.2655345 0 0 1.6030104 -16.994207 -35.586207)" gradientUnits="userSpaceOnUse" r="30">
      <stop offset="0" stop-color="#8ecf3b"/>
      <stop offset="1" stop-color="#104800"/>
    </radialGradient>
    <linearGradient id="linearGradient3544-9" gradientUnits="userSpaceOnUse" x1="68.275612" x2="68.275612" y1="88.698792" y2="26.631338">
      <stop offset="0" stop-color="#e3e8c2"/>
      <stop offset="1" stop-color="#e3e8c2" stop-opacity="0"/>
    </linearGradient>
    <filter id="filter3527-2" height="1.035263" width="1.044665" x="-.022332" y="-.017632">
      <feGaussianBlur stdDeviation=".35"/>
    </filter>
    <linearGradient id="linearGradient3559-7" gradientUnits="userSpaceOnUse" x1="65.427643" x2="65.427643" y1="6.87876" y2="65.011742">
      <stop offset="0" stop-color="#dde8c2"/>
      <stop offset="1" stop-color="#dde8c2" stop-opacity="0"/>
    </linearGradient>
    <linearGradient id="linearGradient3592-2" gradientUnits="userSpaceOnUse" x1="75.122101" x2="59.655514" y1="63.073883" y2="36.433231">
      <stop offset="0" stop-color="#fafcf5"/>
      <stop offset="1" stop-color="#fafcf5" stop-opacity="0"/>
    </linearGradient>
    <radialGradient id="radialGradient3570-9" cx="50.53125" cy="6.265625" gradientTransform="matrix(5.0224753 5.9855536 -1.0410751 .8735657 -196.73772 -301.66531)" gradientUnits="userSpaceOnUse" r="2.53125" xlink:href="#linearGradient1065"/>
    <filter id="filter3696-7" height="1.459744" width="1.411499" x="-.20575" y="-.229872">
      <feGaussianBlur stdDeviation=".43400298"/>
    </filter>
    <filter id="filter3866-1" height="1.677517" width="1.60642" x="-.30321" y="-.338759">
      <feGaussianBlur stdDeviation=".63958333"/>
    </filter>
  </defs>
  <g transform="matrix(2 0 0 2 -34.165169 2.000006)">
    <path d="m120.98261 83.172588c-1.00885 6.653072-4.41281 8.196892-8.36603 7.076692l-22.547304-6.389097c-3.18775-1.08747-3.570577-7.662808-1.251243-9.881996 2.482951-2.37574 2.382276-7.778317-.271666-9.00131-14.179029-6.533997-31.736637-9.534017-46.310506 1.378655-2.796544 2.094006-.615945 5.557328 1.314176 7.673771 1.93012 2.116442 1.757156 8.659078-1.307937 9.570867l-25.374006 7.54814c-3.241017.96412-5.196805-5.58813-5.829185-9.397368-1.6536524-9.961028 5.057942-20.338256 12.55592-25.415375 7.497972-5.077119 19.844297-11.475593 41.602412-11.573481 21.758115-.09789 38.555219 8.000981 46.728289 14.376166 8.17308 6.375185 10.01457 17.719917 9.05708 24.034336z" filter="url(#filter1179)" opacity=".5" transform="matrix(-.5 -.8660254 .8660254 -.5 38.107742 165.158461)"/>
    <path d="m47.18191 12.530206c6.266155-2.452846 9.305122-.27684 10.311611 3.706849l5.740531 22.721086c.652099 3.304408-4.850898 6.923614-7.932438 6.024606-3.298927-.962428-7.927358 1.826047-7.65953 4.735925 1.430907 15.546398 7.611618 32.251742 24.349203 39.416747 3.211735 1.374875 5.12076-2.24524 5.988593-4.974995.867832-2.729754 6.620403-5.851281 8.942582-3.652727l19.223878 18.200461c2.45547 2.324752-2.24106 7.294632-5.22376 9.746912-7.799678 6.41262-20.142418 5.78882-28.288321 1.83394-8.1459-3.95487-19.860304-11.447872-30.824135-30.242006-10.963832-18.794136-12.348556-37.39029-10.914019-47.655969 1.434532-10.265687 10.338613-17.53283 16.285805-19.860829z" fill="url(#radialGradient1159)" stroke="url(#linearGradient1161)"/>
    <path d="m83.846932 108.89152c-33.014988-8.64094-55.373572-51.366-46.01809-82.351246 0 0-1.781524-6.244422-3.568879-2.558887-1.787358 3.685526-4.73412 13.652013-2.463305 27.818537 2.976992 18.571999 14.97945 40.030034 31.264966 53.094396 12.481575 10.01281 13.450044 7.72305 20.225484 8.3901z" fill="url(#radialGradient871)" stroke="url(#radialGradient861)"/>
    <ellipse cx="21.543089" cy="81.786919" fill="url(#linearGradient1067)" filter="url(#filter1073)" rx="8.070085" ry="3.5557" transform="matrix(1.1587214 .00000002 0 1.2282165 52.068752 -2.740146)"/>
    <ellipse cx="21.543089" cy="81.786919" fill="url(#linearGradient1067)" filter="url(#filter1073)" rx="8.070085" ry="3.5557" transform="matrix(.77468718 .00000002 0 1.1822328 24.634887 -69.755321)"/>
    <path d="m105.92708 98.453108-18.69066-17.755723c-2.301479-2.186355-6.51082.221306-8.859288 2.080894 1.694099 5.944502 20.22582 24.026591 25.467258 22.949751 1.83917-2.10469 4.15244-5.30871 2.08269-7.274922z" fill="url(#radialGradient1141)" stroke="#0f5cdd" stroke-linejoin="bevel"/>
    <path d="m63.125823 38.900707-5.992547-23.680895c-.944097-3.730804-3.715188-4.271914-8.704553-3.296616-1.208113 4.203975 1.347318 18.122068 4.72281 26.559446 1.394504 3.485701 2.92897 6.035991 4.395854 6.57949 2.674176-.813055 6.278778-3.393867 5.578436-6.161425z" fill="url(#radialGradient1163)" stroke="#3d66f1" stroke-linejoin="bevel"/>
  </g>
  <g transform="matrix(0 1.296943 1.296943 0 116.87237 26.836878)">
    <path d="m52 8v40h-18l30 36 30-36h-18v-40z" fill="none" stroke="url(#linearGradient3500-3)" stroke-linecap="round" stroke-linejoin="round" stroke-width="8"/>
    <path d="m52 8v40h-18l30 36 30-36h-18v-40z" style="opacity:.757143;fill:none;stroke-width:8;stroke-linecap:round;stroke-linejoin:round;stroke:url(#radialGradient3515-5)"/>
    <path d="m63.90625 79.9375-1.375 7.75c.465364.185236.956077.3125 1.46875.3125.651546.000001 1.279358-.174573 1.84375-.46875z" fill="url(#radialGradient4032-3)" fill-rule="evenodd" filter="url(#filter4094-2)" opacity=".657143"/>
    <path d="m31.59375 45.28125c-.395314.353984-.735928.782345-.96875 1.28125-.282237.604794-.408062 1.265278-.375 1.90625l6 1.09375z" fill="url(#radialGradient3881-1)" fill-rule="evenodd" filter="url(#filter3999-2)" opacity=".786667"/>
    <path d="m31.59375 45.28125c-.395314.353984-.735928.782345-.96875 1.28125-.282237.604794-.408062 1.265278-.375 1.90625l6 1.09375z" fill="url(#radialGradient3881-1)" fill-rule="evenodd" filter="url(#filter3999-2)" opacity=".786667" transform="matrix(-1 0 0 1 128.24484 0)"/>
    <path d="m52 8v40h-18l30 36 30-36h-18v-40z" fill="none" stroke="url(#radialGradient3511-9)" stroke-linecap="round" stroke-linejoin="round" stroke-width="8"/>
    <path d="m48 38.15625v5.84375h-5.59375l11.65625 7.40625c.415889-.250795.763316-.557632 1.0625-.9375z" fill="url(#radialGradient3796-3)" fill-rule="evenodd" filter="url(#filter3790-6)" opacity=".328571" transform="matrix(-1 0 0 1 127.53125 0)"/>
    <path d="m48 38.15625v5.84375h-5.59375l11.65625 7.40625c.415889-.250795.763316-.557632 1.0625-.9375z" fill="url(#radialGradient3796-3)" fill-rule="evenodd" filter="url(#filter3790-6)" opacity=".47619"/>
    <path d="m52 8v40h-18l30 36 30-36h-18v-40z" fill="url(#radialGradient3490-1)" fill-rule="evenodd"/>
    <path d="m52 8v40h-18l30 36 30-36h-18v-40z" fill="none" filter="url(#filter3527-2)" stroke="url(#linearGradient3544-9)" stroke-linecap="round" stroke-linejoin="round"/>
    <path d="m52 8v40h-18l6.65625 8c1.929741.09184 3.900298.125 5.875.125 15.933938 0 30.510316-3.063408 41.78125-8.125h-12.3125v-40z" fill="url(#linearGradient3559-7)" fill-rule="evenodd" opacity=".909524"/>
    <path d="m52 8v.75h24v-.75zm-18 40 .625.75h17.375v-.75zm42 0v.75h17.375l.625-.75z" fill="#d8e8c2" fill-rule="evenodd"/>
    <path d="m75.0625 8v39.46875h.9375v-39.46875zm11.1875 40c-11.180682 4.683621-25.386369 7.5-40.875 7.5-1.756881 0-3.493813-.02538-5.21875-.09375l.5.59375c1.929741.09184 3.900298.125 5.875.125 15.933938 0 30.510316-3.063408 41.78125-8.125z" fill="url(#linearGradient3592-2)" fill-rule="evenodd" opacity=".909524"/>
    <path d="m52 4c-2.209048.0002209-3.999779 1.7909525-4 4v.09375l5.0625.4375-.8125-4.53125z" fill="url(#radialGradient3570-9)" fill-rule="evenodd" filter="url(#filter3696-7)" opacity=".880952"/>
    <path d="m52 4c-2.209048.0002209-3.999779 1.7909525-4 4v.09375l5.0625.4375-.8125-4.53125z" fill="url(#radialGradient3570-9)" fill-rule="evenodd" filter="url(#filter3866-1)" opacity=".747619" transform="matrix(-1 0 0 1 127.8125 0)"/>
  </g>
</svg>
