<svg height="256" width="256" xmlns="http://www.w3.org/2000/svg" xmlns:xlink="http://www.w3.org/1999/xlink">
  <defs>
    <linearGradient id="linearGradient3437">
      <stop offset="0"/>
      <stop offset="1" stop-opacity="0"/>
    </linearGradient>
    <linearGradient id="linearGradient2411">
      <stop offset="0" stop-color="#f5cb11"/>
      <stop offset=".25796592" stop-color="#fefe98"/>
      <stop offset=".50796592" stop-color="#efc200"/>
      <stop offset=".74009573" stop-color="#cf9c00"/>
      <stop offset="1" stop-color="#ffe00d"/>
    </linearGradient>
    <linearGradient id="linearGradient12071">
      <stop offset="0" stop-color="#fff"/>
      <stop offset="1" stop-color="#fff" stop-opacity="0"/>
    </linearGradient>
    <radialGradient id="radialGradient26274" cx="70.487465" cy="102.11657" gradientTransform="matrix(4.1219686 .03563022 -.01380672 1.5972662 -150.90934 26.998493)" gradientUnits="userSpaceOnUse" r="21.531792">
      <stop offset="0" stop-color="#fefe97" stop-opacity=".50684"/>
      <stop offset="1" stop-color="#f4b900" stop-opacity=".254289"/>
    </radialGradient>
    <radialGradient id="radialGradient26268" cx="66.480537" cy="104.7655" gradientTransform="matrix(4.5030676 -.01809302 .00622428 1.5491193 -171.17249 32.780388)" gradientUnits="userSpaceOnUse" r="21.531792">
      <stop offset="0" stop-color="#fefc93" stop-opacity=".723597"/>
      <stop offset="1" stop-color="#ffc205" stop-opacity=".338887"/>
    </radialGradient>
    <radialGradient id="radialGradient2020" cx="95.43258" cy="35.3118" gradientUnits="userSpaceOnUse" r="12.49915" xlink:href="#linearGradient12071"/>
    <linearGradient id="linearGradient1816" gradientUnits="userSpaceOnUse" x1="136.38321" x2="150.0293" xlink:href="#linearGradient12071" y1="22.070805" y2="13.712175"/>
    <filter id="filter1802" color-interpolation-filters="sRGB" height="1.364928" width="1.276134" x="-.156378" y="-.203064">
      <feGaussianBlur stdDeviation="1.0168145"/>
    </filter>
    <linearGradient id="linearGradient1812" gradientUnits="userSpaceOnUse" x1="49.51309" x2="63.15918" xlink:href="#linearGradient12071" y1="22.070805" y2="13.712175"/>
    <linearGradient id="linearGradient1665" gradientUnits="userSpaceOnUse" x1="135.92735" x2="149.97227" xlink:href="#linearGradient3437" y1="35.426853" y2="18.994919"/>
    <filter id="filter1477" color-interpolation-filters="sRGB" height="1.369803" width="1.250151" x="-.136584" y="-.196941">
      <feGaussianBlur stdDeviation="1.0233253"/>
    </filter>
    <linearGradient id="linearGradient1487" gradientUnits="userSpaceOnUse" x1="49.05723" x2="63.10215" xlink:href="#linearGradient3437" y1="35.426853" y2="18.994919"/>
    <linearGradient id="linearGradient1071" gradientUnits="userSpaceOnUse" x1="116.67208" x2="172.262802" y1="18.77269" y2="97.345978">
      <stop offset="0" stop-color="#f1f1f1"/>
      <stop offset="1" stop-color="#c3c3c3"/>
    </linearGradient>
    <linearGradient id="linearGradient12232" gradientUnits="userSpaceOnUse" x1="161.40816" x2="91.29968" y1="120.103684" y2="31.361414">
      <stop offset="0" stop-color="#878787"/>
      <stop offset="1" stop-color="#d3d3d3"/>
    </linearGradient>
    <linearGradient id="linearGradient1667" gradientUnits="userSpaceOnUse" x1="116.3536" x2="143.8345" y1="99.000634" y2="129.98758">
      <stop offset="0" stop-color="#dba600"/>
      <stop offset="1" stop-color="#a87f00"/>
    </linearGradient>
    <filter id="filter12394" color-interpolation-filters="sRGB" height="2.507943" width="1.58396" x="-.29198" y="-.753972">
      <feGaussianBlur stdDeviation=".62737943"/>
    </filter>
    <linearGradient id="linearGradient1867" gradientUnits="userSpaceOnUse" x1="133.76162" x2="135.10126" y1="123.891236" y2="144.389916">
      <stop offset="0" stop-color="#fef4b8" stop-opacity=".844658"/>
      <stop offset="1" stop-color="#fef6c9"/>
    </linearGradient>
    <linearGradient id="linearGradient1659" gradientUnits="userSpaceOnUse" x1="61.019" x2="194.9841" xlink:href="#linearGradient2411" y1="172.671944" y2="172.671944"/>
    <linearGradient id="linearGradient1675" gradientUnits="userSpaceOnUse" x1="132.14766" x2="131.58092" y1="122.671174" y2="106.267402">
      <stop offset="0" stop-color="#fbd600"/>
      <stop offset="1" stop-color="#fff56d"/>
    </linearGradient>
    <linearGradient id="linearGradient1857" gradientUnits="userSpaceOnUse" x1="70.78668" x2="183.06478" xlink:href="#linearGradient2411" y1="128.814118" y2="128.703522"/>
    <filter id="filter965" color-interpolation-filters="sRGB" height="1.564308" width="1.135944" x="-.067972" y="-.282154">
      <feGaussianBlur stdDeviation="1.9633793"/>
    </filter>
    <linearGradient id="linearGradient4928" gradientUnits="userSpaceOnUse" x1="69.088874" x2="89.646942" y1="122.027314" y2="122.156304">
      <stop offset="0" stop-color="#c90"/>
      <stop offset=".59639019" stop-color="#fede0b"/>
      <stop offset="1" stop-color="#dba600"/>
    </linearGradient>
    <linearGradient id="linearGradient4948" gradientUnits="userSpaceOnUse" x1="72.128754" x2="86.858452" y1="110.342118" y2="119.256256">
      <stop offset="0" stop-color="#a87f00"/>
      <stop offset="1" stop-color="#dba600"/>
    </linearGradient>
  </defs>
  <ellipse cx="150.87012" cy="103.63491" filter="url(#filter965)" opacity=".615454" rx="34.662132" ry="8.35025" transform="matrix(1.9981237 0 0 1.6503763 -173.45715 44.872742)"/>
  <path d="m62.01976 119.40004h131.96432c.2809 17.70146-23.33052 18.75685-65.98254 19.10308s-66.37408-1.57923-65.98178-19.10308z" fill="url(#linearGradient1857)"/>
  <path d="m62.01976 124.97156c44.25062 3.07718 88.3495 4.24957 131.96432 0v-21.48671c-43.9881-1.94617-87.97622-2.24942-131.96432 0z" fill="url(#linearGradient1675)"/>
  <path d="m62.019 218.53737v-97.56581c23.86816 13.34247 44.73764 16.7458 65.98254 16.7458s42.11438-3.40333 65.98254-16.7458v97.56581c-19.76972 3.72372-39.26828 6.5396-65.98232 6.5396s-46.21304-2.81588-65.98276-6.5396z" fill="url(#linearGradient1659)"/>
  <path d="m62.01976 124.97156c44.78394 3.56008 88.80236 3.7328 131.96432 0-16.37378 8.33629-35.56764 16.76053-65.98254 16.7458-30.4149-.0148-49.22444-8.11343-65.98178-16.7458z" style="fill:#fff;fill-opacity:.399135;stroke-width:4;stroke-linecap:round;stroke-linejoin:round;stroke:url(#linearGradient1867)"/>
  <path d="m83.38073 54.57667c0 1.100843 2.30445 1.993252 5.14712 1.993252s5.14712-.892409 5.14712-1.993252-2.30445-1.993252-5.14712-1.993252-5.14712.892409-5.14712 1.993252z" filter="url(#filter12394)" opacity=".599995" stroke="#000" stroke-linejoin="round" stroke-width="3" transform="matrix(2 0 0 2 0 5.682854)"/>
  <path d="m62.01748 218.53831c19.7697 3.72372 39.27036 6.53908 65.98436 6.53908 26.71402 0 46.21078-2.81536 65.98048-6.53908l.0001-115.05467c-21.99404-.97309-43.98644-1.53241-65.98048-1.57032-21.99402-.0379-43.98644.4456-65.98046 1.57032z" fill="none" stroke="url(#linearGradient1667)" stroke-width="4"/>
  <path d="m128.00195 22.554687c-24.02517.34147-44.51674 11.232956-56.01172 35.777344-.93379 1.993854 2.14237 5.705668 7.13477 8.425781 4.9924 2.720115 9.99679 3.412679 10.94531 1.425782 8.54036-17.889819 20.91055-25.624427 37.93164-25.886719 13.89202-.214074 38.76172 7.94822 38.76172 38.59375v33.148435c0 2.20169 4.60765 3.98438 10.29297 3.98438 5.6853 0 10.29297-1.78269 10.29297-3.98438v-33.148435c0-42.388642-35.0504-58.681275-59.34766-58.335938z" fill="url(#linearGradient1071)" stroke="url(#linearGradient12232)" stroke-width="4"/>
  <path d="m42.83194 31.028392c1.916874-6.644144 8.49841-15.058072 21.6422-15.009294" fill="none" filter="url(#filter1477)" stroke="url(#linearGradient1487)" transform="matrix(2 0 0 2 0 5.682854)"/>
  <path d="m129.70206 54.323436v-18.295044c0-11.045515 8.49841-25.573623 21.6422-25.524845" fill="none" filter="url(#filter1477)" stroke="url(#linearGradient1665)" transform="matrix(-2 0 0 2 442.38724 5.682854)"/>
  <path d="m37.738754 27.083414c2.651596-8.370529 15.899886-16.975854 24.782546-16.942165" fill="none" filter="url(#filter1802)" stroke="url(#linearGradient1812)" stroke-width="2" transform="matrix(2 0 0 2 0 5.682854)"/>
  <path d="m122.98992 52.546579v-16.54316c0-12.567284 11.51884-19.895859 20.4015-19.86217" fill="none" filter="url(#filter1802)" stroke="url(#linearGradient1816)" stroke-width="1.5" transform="matrix(-2 0 0 2 417.03002 5.682854)"/>
  <circle cx="95.432587" cy="35.311798" fill="url(#radialGradient2020)" opacity=".615454" r="12.49915"/>
  <path d="m97.44112 162.92511c-6.76918-1.11704-11.07086 1.02288-11.05982 6.0531.01 4.20084 2.3 6.93362 9.14818 9.70514 1.43872.584 2.88018 1.15346 4.32516 1.70795 3.22522 1.23202 4.51064 2.47879 4.50954 4.48573-.002 2.69278-2.74192 4.18651-6.7914 3.53017-2.49654-.40465-4.58964-1.5049-5.74644-2.92234-.71584-.95235-1.04516-1.83243-1.31972-3.87932-1.61326-.31683-3.22104-.65081-4.82476-1.00073.2145 6.52012 3.90882 10.72854 11.49426 11.97479 7.32576 1.20358 12.04584-2.04662 12.04844-7.47381.002-4.23405-2.46608-6.62759-8.25974-8.78325-1.48354-.5475-2.96346-1.11106-4.44064-1.69025-3.764-1.46913-5.36182-2.97682-5.36566-4.87775-.006-2.53708 2.3561-3.58018 6.12714-2.95786 3.71848.61365 5.729 2.3228 5.8445 5.18842 1.63638.21943 3.27554.41796 4.91856.59473-.0616-5.34602-3.88426-8.54524-10.6076-9.65472zm29.86748 2.50918c-.60244-.005-1.1884.0166-1.75686.0637-7.25162.67755-11.78242 5.53322-11.78192 14.03216.00052 8.5088 4.39024 14.6869 11.77326 15.45997.53158.061 1.07926.0942 1.6427.0987.29744.002.59114-.003.88096-.0168 6.34434-.36967 10.69374-4.4763 11.83306-10.41175-1.58584.11994-3.17264.21919-4.76126.29722-1.22428 3.5324-3.63906 5.61059-7.0695 5.87436-.2323.0152-.46904.0219-.7102.0202-.62678-.004-1.23246-.069-1.81308-.1911-2.2045-.44208-4.05272-1.71969-5.30262-3.65326-1.12638-1.66521-1.52254-3.30438-1.57844-6.06394 2.2927.10902 4.58692.17294 6.88534.19062.8391.0152 1.68018.024 2.52338.0265 4.16022-.0361 8.30522-.22214 12.45084-.54963.004-4.23966-.33062-6.68531-1.17834-8.62917-1.8326-4.08414-6.04634-6.34248-11.268-6.52683-.25432-.012-.51082-.019-.76932-.021zm30.54236-2.72854c-7.96498 1.35491-13.12996 7.33913-13.13818 16.52334-.008 8.93221 5.08544 14.49469 13.0424 13.15386 6.99388-1.17855 11.35042-6.40704 11.90744-13.36203-1.54846.34126-3.1003.66877-4.65666.98142-.78158 4.6508-3.16506 7.46201-7.13752 8.13194-5.15138.86875-8.25414-2.91326-8.24736-9.46795.008-6.91299 3.0607-11.19221 8.16028-12.05431 3.9194-.66259 6.35648.90791 6.90396 4.59544 1.55718-.31143 3.10984-.6379 4.65914-.97829-.21468-2.60454-.81816-4.16472-1.92188-5.40988-1.98478-2.0753-5.48426-2.80882-9.57162-2.11354zm-30.59702 6.61263c.27922.002.55374.015.82316.0379 4.3876.32223 7.35564 3.36103 7.35248 8.00538-2.45024.12412-4.90076.1975-7.35484.2186-.84332-.003-1.6845-.0116-2.52372-.0268-2.26006-.0176-4.5161-.08-6.77064-.18598.34548-4.43902 2.93794-7.28256 6.77156-7.92731.54272-.0854 1.11106-.12664 1.702-.12184z" fill="url(#radialGradient26274)" stroke="url(#radialGradient26268)" stroke-width="2"/>
  <path d="m89.23854 114.83619c0 2.20169-4.6089 3.98651-10.29424 3.98651s-10.29424-1.78482-10.29424-3.98651c0-2.20168 4.6089-3.9865 10.29424-3.9865s10.29424 1.78482 10.29424 3.9865z" fill="url(#linearGradient4928)" stroke="url(#linearGradient4948)" stroke-linejoin="round" stroke-width="2"/>
</svg>
