<svg enable-background="new 0 0 121 120" height="256" viewBox="0 0 256 256" width="256" xmlns="http://www.w3.org/2000/svg" xmlns:xlink="http://www.w3.org/1999/xlink">
  <defs>
    <linearGradient id="linearGradient4013">
      <stop offset="0" stop-color="#fff"/>
      <stop offset="1" stop-color="#fff" stop-opacity="0"/>
    </linearGradient>
    <filter id="filter5956" height="1.089982" width="1.04574" x="-.02287" y="-.044991">
      <feGaussianBlur stdDeviation=".55418773"/>
    </filter>
    <filter id="filter6074" height="1.149692" width="1.149692" x="-.074846" y="-.074846">
      <feGaussianBlur stdDeviation="1.9142018"/>
    </filter>
    <clipPath id="clipPath6080">
      <path d="m-135.842 93.331604a30.69023 30.69023 0 1 1 -61.38046 0 30.69023 30.69023 0 1 1 61.38046 0z" filter="url(#filter6074)"/>
    </clipPath>
    <radialGradient id="radialGradient6084" cx="-166.53223" cy="65.938202" gradientTransform="matrix(1 0 0 .6578174 0 22.562908)" gradientUnits="userSpaceOnUse" r="31.190229" xlink:href="#linearGradient4013"/>
    <radialGradient id="radialGradient3960" cx="-166.53223" cy="65.938202" gradientTransform="matrix(.5375647 0 0 .6578174 -77.010381 22.562908)" gradientUnits="userSpaceOnUse" r="31.190229">
      <stop offset="0" stop-color="#00c4cc"/>
      <stop offset="1" stop-color="#fff" stop-opacity="0"/>
    </radialGradient>
    <radialGradient id="radialGradient3962" cx="-166.53223" cy="84.275475" gradientTransform="matrix(-3.4416184 0 0 3.4416184 -445.14038 -193.21176)" gradientUnits="userSpaceOnUse" r="31.190229">
      <stop offset="0" stop-color="#0081ec"/>
      <stop offset="1" stop-color="#003871"/>
    </radialGradient>
    <radialGradient id="radialGradient3966" cx="-166.53223" cy="116.62209" gradientTransform="matrix(-3.1931944 0 0 3.1931944 -403.76978 -170.47443)" gradientUnits="userSpaceOnUse" r="31.190229">
      <stop offset="0" stop-color="#0081ec"/>
      <stop offset="1" stop-color="#004c98"/>
    </radialGradient>
    <linearGradient id="linearGradient3977" gradientUnits="userSpaceOnUse" x1="118.72481378132" x2="121.01140909016" xlink:href="#linearGradient4013" y1="29.63578595392" y2="108.63884538852"/>
    <linearGradient id="linearGradient3980" gradientUnits="userSpaceOnUse" x1="178.29184620684" x2="101.13237467438" xlink:href="#linearGradient4013" y1="159.27782465717" y2="83.64280055658"/>
    <linearGradient id="linearGradient3983" gradientUnits="userSpaceOnUse" x1="118.72481378132" x2="118.72481378132" xlink:href="#linearGradient4013" y1="-194.26905987498" y2="153.34796707971"/>
    <linearGradient id="linearGradient3987" gradientUnits="userSpaceOnUse" x1="196.59927771636" x2="196.59927771636" y1="29.58460688366" y2="206.93217763914">
      <stop offset="0" stop-color="#a4c0e4"/>
      <stop offset="1" stop-color="#a4c0e4" stop-opacity="0"/>
    </linearGradient>
    <filter id="filter4737" height="1.048" width="1.048" x="-.024" y="-.024">
      <feGaussianBlur stdDeviation=".61380459"/>
    </filter>
    <linearGradient id="linearGradient4747" gradientUnits="userSpaceOnUse" x1="-175.8602" x2="-174.98068" y1="125.05635" y2="67.385735">
      <stop offset="0" stop-color="#00316e"/>
      <stop offset="1" stop-color="#00316e" stop-opacity="0"/>
    </linearGradient>
    <filter id="filter1590" color-interpolation-filters="sRGB" height="1.119518" width="1.158847" x="-.08005" y="-.059759">
      <feGaussianBlur stdDeviation="1.4825898"/>
    </filter>
  </defs>
  <path d="m-135.842 93.331604a30.69023 30.69023 0 1 1 -61.38046 0 30.69023 30.69023 0 1 1 61.38046 0z" fill="url(#linearGradient4747)" filter="url(#filter4737)" transform="matrix(-3.4664538 0 0 3.4664538 -449.27628 -195.52969)"/>
  <path d="m-135.842 93.331604a30.69023 30.69023 0 1 1 -61.38046 0 30.69023 30.69023 0 1 1 61.38046 0z" fill="url(#radialGradient6084)" filter="url(#filter6074)" transform="matrix(-3.4664538 0 0 3.4664538 -449.27628 -195.52969)"/>
  <path clip-path="url(#clipPath6080)" d="m-135.842 93.331604a30.69023 30.69023 0 1 1 -61.38046 0 30.69023 30.69023 0 1 1 61.38046 0z" fill="url(#radialGradient3960)" filter="url(#filter6074)" transform="matrix(-3.4416184 0 0 -3.4416184 -445.14038 449.21177)"/>
  <path d="m22.375939 128a105.62406 105.62406 0 1 0 211.248121 0 105.62406 105.62406 0 1 0 -211.248121 0z" fill="url(#radialGradient3962)"/>
  <path clip-path="url(#clipPath6080)" d="m-135.842 93.331604a30.69023 30.69023 0 1 1 -61.38046 0 30.69023 30.69023 0 1 1 61.38046 0z" fill="url(#radialGradient6084)" filter="url(#filter6074)" transform="matrix(-3.4416184 0 0 3.4416184 -445.14038 -193.21177)"/>
  <path d="m30.000127 127.55152a97.999876 97.999876 0 1 0 195.999753 0 97.999876 97.999876 0 1 0 -195.999753 0z" fill="url(#radialGradient3966)"/>
  <path d="m127.99029 29.586711c-54.095949 0-97.958653 43.86273-97.958653 97.958659 0 5.03612.319486 10.01958 1.053322 14.8518.0052.0339-.0052.0714 0 .10534 20.597134 3.29445 42.531336 4.95061 65.305742 4.95061 48.655459 0 93.567129-8.13045 129.558239-21.80371-1.01192-53.221723-44.49638-96.062683-97.95865-96.062691z" fill="url(#linearGradient3987)" opacity=".892193"/>
  <path d="m-134.09375 98.625c-.003.166656-.0312.332675-.0312.5 0 16.04925 13.0445 29.0625 29.09375 29.0625 16.049249 0 29.062503-13.01325 29.0625-29.0625 0-.167107.0028-.33356 0-.5-.267346 15.81875-13.180358 28.5625-29.0625 28.5625-15.88193 0-28.79481-12.74404-29.0625-28.5625z" fill="#007fea" filter="url(#filter5956)" transform="matrix(-3.3706206 0 0 3.3706206 -226.0834 -205.53675)"/>
  <path d="m127.93146 29.656331c-54.095915 0-97.958651 43.862736-97.958651 97.958679 0 .49612-.0064.97962 0 1.47463 1.010992-53.220761 44.496382-96.062697 97.958651-96.062663 52.32533 0 95.10926 41.048682 97.85334 92.692053.0304-.0116.0748.0116.1054 0-1.01198-53.221725-44.49648-96.062663-97.95874-96.062699z" fill="url(#linearGradient3983)"/>
  <path d="m86.077596 45.180253q0 3.200277-1.132405 5.858969-1.083171 2.658691-3.200277 5.021972-2.067871 2.314047-9.551596 7.7299-6.548258 4.726562-6.794433 9.945475h-13.145753q.295411-5.071208 2.904867-9.059245 2.609456-4.037272 7.385254-7.336019 5.563558-3.791097 7.582194-6.203613 2.018636-2.461752 2.018636-5.366618 0-3.791097-3.003336-6.055909-3.003337-2.314046-7.877605-2.314046-4.972737 0-8.369954 2.904867-3.347982 2.904866-3.938802 7.680664l-14.031983-.59082q1.329346-9.994711 8.222249-15.558269 6.892904-5.563558 17.92155-5.563558 11.422527 0 18.21696 5.120443 6.794434 5.120443 6.794434 13.785807zm-34.218344 48.545737v-13.293457h14.228923v13.293457z" fill="none" filter="url(#filter1590)" opacity=".7" stroke="#00366b" stroke-width=".945312" transform="matrix(2 0 0 2 6.999993 8.000015)"/>
  <path d="m127.93146 29.656331c-54.095915 0-97.958651 43.862736-97.958651 97.958679 0 .49612-.0064.97962 0 1.47463 1.010992-53.220761 44.496382-97.410947 97.958651-97.410911 52.32533 0 95.10926 42.39693 97.85334 94.040301.0304-.0116.0748.0116.1054 0-1.01198-53.221725-44.49648-96.062663-97.95874-96.062699z" fill="url(#linearGradient3977)" opacity=".8"/>
  <path d="m164.63932 36.675291c32.49905 15.491742 59.22184 49.891824 59.94852 88.111699-35.99111 13.67329-86.89257 21.20836-135.548029 21.2084-18.94802.40162-37.293516-.2549-58.066662-3.56688.005.0339-.0052.0714 0 .10534 20.59709 3.29441 42.531364 4.95057 65.305768 4.95057 48.655463 0 93.567133-8.13038 129.558243-21.80367-.76604-40.288091-25.85136-74.694681-61.19784-89.005459z" fill="url(#linearGradient3980)" opacity=".6"/>
  <path d="m179.15519 98.360521q0 6.400549-2.26481 11.717939-2.16635 5.31738-6.40056 10.04394-4.13574 4.6281-19.10319 15.4598-13.09652 9.45313-13.58887 19.89095h-26.2915q.59082-10.14241 5.80973-18.11849 5.21891-8.07454 14.77051-14.67204 11.12712-7.58219 15.16439-12.40722 4.03727-4.92351 4.03727-10.733237 0-7.582194-6.00667-12.111818-6.00668-4.628092-15.75521-4.628092-9.94548 0-16.73991 5.809734-6.69596 5.809732-7.8776 15.361323l-28.063971-1.18164q2.658692-19.989417 16.444498-31.116533 13.785813-11.127116 35.843103-11.127116 22.84505 0 36.43392 10.240886 13.58887 10.240886 13.58887 27.571614zm-68.43669 97.091469v-26.58691h28.45784v26.58691z" fill="#f4f4f4" opacity=".908" stroke-width="1.89062"/>
</svg>
