<svg height="256" width="256" xmlns="http://www.w3.org/2000/svg" xmlns:xlink="http://www.w3.org/1999/xlink">
  <defs>
    <linearGradient id="linearGradient15999">
      <stop offset="0" stop-color="#fff"/>
      <stop offset="1"/>
    </linearGradient>
    <linearGradient id="linearGradient15983">
      <stop offset="0"/>
      <stop offset="1" stop-color="#fff"/>
    </linearGradient>
    <linearGradient id="linearGradient5590">
      <stop offset="0" stop-color="#fff"/>
      <stop offset="1" stop-color="#fff" stop-opacity="0"/>
    </linearGradient>
    <linearGradient id="linearGradient3171">
      <stop offset="0"/>
      <stop offset="1" stop-color="#2c231d" stop-opacity=".67451"/>
    </linearGradient>
    <filter id="filter3094" height="1.182496" width="1.109378" x="-.054689" y="-.091248">
      <feGaussianBlur stdDeviation="2.1754545"/>
    </filter>
    <clipPath id="clipPath3104">
      <path d="m-43.781248 455.0625v10.625c1.33768.19677 2.37501 1.32674 2.375 2.71875-.39324 3.61124-2.9799 1.67284-2.875 5.1875.08363 2.80209 2.69745 2.22072 2.875 5.15625-.39324 3.61125-3.0502 1.67713-2.875 5.1875.1907 3.82118 2.64892 1.52842 2.875 5.0625-.39324 3.61125-2.9799 1.6416-2.875 5.15625.08363 2.80209 2.9715 2.25854 2.875 5.1875 0 .67277.48667 1.03489 3.46875 4.25h.5c1.54533 1.06065 14.393 1.90625 29.9999999 1.90625 15.607 0 28.8296701-.22059 30.3750001-1.28125h-.03125c2.88436-2.70414 6.40625-2.10991 6.40625-4.65625 0-3.50046-2.45051-1.545-2.84375-5.15625.22611-3.53407 2.65305-1.27257 2.84375-5.09375.1752-3.51036-2.45051-1.545-2.84375-5.15625.17758-2.93555 2.76012-2.38541 2.84375-5.1875.1049-3.51465-2.45051-1.54501-2.84375-5.15625.00002-1.39203 1.00607-2.55323 2.34375-2.75v-15.78125c0 1.39546-16.24996 2.53125-36.2500001 2.53125-20.0000399-.00001-36.2187499-1.13579-36.2187499-2.53125 0-.0776.05789-.14288.15625-.21875zm18 60.09375 6.65625 6.6875c.44346.31604 5.50896.5625 11.6874999.5625 5.97359 0 10.90346-.26096 11.625-.5625h.03125c.04004-.0205.0625-.0415.0625-.0625l6.5937501-6.5625h-.0625c-1.1338001.4738-8.8631501.84375-18.2500001.84375-9.7088799-.00005-17.6468999-.40959-18.3437499-.90625z"/>
    </clipPath>
    <radialGradient id="radialGradient3177" cx="387.91309" cy="496.80545" gradientTransform="matrix(1.283138 -.08158663 .04517832 .7105333 -93.337669 176.45718)" gradientUnits="userSpaceOnUse" r="9.337467" xlink:href="#linearGradient3171"/>
    <radialGradient id="radialGradient3179" cx="388.77682" cy="486.11304" gradientTransform="matrix(1.8087568 -.07954544 .04204897 .9561373 -295.92633 53.247652)" gradientUnits="userSpaceOnUse" r="10.062871" xlink:href="#linearGradient3171"/>
    <radialGradient id="radialGradient3181" cx="388.82428" cy="476.19278" gradientTransform="matrix(1.2650339 -.05426056 .03083985 .7190022 -78.797249 155.90696)" gradientUnits="userSpaceOnUse" r="9.591627" xlink:href="#linearGradient3171"/>
    <radialGradient id="radialGradient3183" cx="391.21719" cy="464.11581" gradientTransform="matrix(1.6288118 .00000116 -.00000041 .5798903 -207.0617 195.97909)" gradientUnits="userSpaceOnUse" r="14.826497" xlink:href="#linearGradient3171"/>
    <filter id="filter3425" height="1.608121" width="1.335501" x="-.16775" y="-.30406">
      <feGaussianBlur stdDeviation="1.2625533"/>
    </filter>
    <filter id="filter3429" height="1.57233" width="1.297665" x="-.148832" y="-.286165">
      <feGaussianBlur stdDeviation="1.2625533"/>
    </filter>
    <filter id="filter3433" height="1.623087" width="1.301201" x="-.150601" y="-.311543">
      <feGaussianBlur stdDeviation="1.2625533"/>
    </filter>
    <filter id="filter3437" height="1.476985" width="1.211505" x="-.105753" y="-.238492">
      <feGaussianBlur stdDeviation="1.2625533"/>
    </filter>
    <filter id="filter4214" height="1.091509" width="1.118834" x="-.059417" y="-.045755">
      <feGaussianBlur stdDeviation=".60886891"/>
    </filter>
    <filter id="filter4242" height="1.09371" width="1.101105" x="-.050553" y="-.046855">
      <feGaussianBlur stdDeviation=".60886891"/>
    </filter>
    <filter id="filter4501" height="1.09553" width="1.178435" x="-.089217" y="-.047765">
      <feGaussianBlur stdDeviation=".63079545"/>
    </filter>
    <linearGradient id="linearGradient4516" gradientUnits="userSpaceOnUse" x1="395.1709" x2="424.07715" y1="486.375" y2="486.375">
      <stop offset="0" stop-color="#141412"/>
      <stop offset="1" stop-color="#403d38"/>
    </linearGradient>
    <linearGradient id="linearGradient4524" gradientUnits="userSpaceOnUse" x1="433.361463" x2="457.955213" y1="487.6875" y2="487.6875">
      <stop offset="0" stop-color="#545148"/>
      <stop offset="1" stop-color="#1e1d19" stop-opacity=".381818"/>
    </linearGradient>
    <linearGradient id="linearGradient4526" gradientUnits="userSpaceOnUse" x1="438.384359" x2="453.366739" xlink:href="#linearGradient5590" y1="478.23749" y2="478.23749"/>
    <filter id="filter4579" height="1.536966" width="1.056417" x="-.028209" y="-.268483">
      <feGaussianBlur stdDeviation=".70975765"/>
    </filter>
    <linearGradient id="linearGradient4720" gradientUnits="userSpaceOnUse" x1="-149.31557" x2="-149.31557" xlink:href="#linearGradient5590" y1="230.11546" y2="436.96805"/>
    <mask id="mask4716" maskUnits="userSpaceOnUse">
      <path d="m-149.32752 230.11546c-45.80533 0-82.96901 37.16367-82.96901 82.96901 0 15.38032 4.19554 29.78816 11.49758 42.14185.17342.29339.32507.59337.50197.88443 10.07509 18.55646 28.08348 41.46039 31.00283 63.51157 1.86278 9.45942 1.75126 13.58465 10.70876 14.91578 7.58267 1.12683 18.16799 1.89331 26.58068 2.15131v.11952c.8487 0 1.78779-.0316 2.725-.0478.93721.0162 1.8763.0478 2.725.0478v-.11952c8.41268-.258 18.99801-1.02448 26.58068-2.15131 8.9575-1.33113 8.82208-5.45636 10.68486-14.91578 3.03927-22.957 22.475934-46.84529 32.245806-65.7824 6.804608-12.03879 10.708763-25.94908 10.708763-40.75545 0-45.80533-37.187579-82.96902-82.992919-82.96901z" fill="url(#linearGradient4720)" opacity=".958802"/>
    </mask>
    <linearGradient id="linearGradient4842" gradientTransform="matrix(1.5132856 0 0 .9242608 349.24574 -247.3784)" gradientUnits="userSpaceOnUse" x1="-136.18359" x2="-136.18359" xlink:href="#linearGradient5590" y1="280.51526" y2="341.04971"/>
    <filter id="filter4991" height="1.144145" width="1.245011" x="-.122506" y="-.072074">
      <feGaussianBlur stdDeviation="1.2306846"/>
    </filter>
    <clipPath id="clipPath4995">
      <path d="m-393.35733 109.35431c0-11.543335 36.64949-11.884649 36.64949 0v51.6994h-36.64949z"/>
    </clipPath>
    <filter id="filter5113" height="1.457082" width="1.773439" x="-.386719" y="-.228542">
      <feGaussianBlur stdDeviation="5.4855704"/>
    </filter>
    <filter id="filter5159" height="1.204157" width="1.152436" x="-.076218" y="-.102079">
      <feGaussianBlur stdDeviation="2.0416065"/>
    </filter>
    <clipPath id="clipPath5163">
      <path d="m-197.28125 61.34375c-7.42883-.05891-12.2411 3.287727-9.65625 12.40625 5.52372 19.485894 11.03125 10.953561 11.03125 34.75l19.625.78125v.0625l.78125-.0312.78125.0312v-.0625l19.625-.78125c0-23.796439 5.50753-15.264106 11.03125-34.75 4.78674-16.886095-15.72408-13.962463-31.4375-6.3125-7.22814-3.518968-15.45303-6.043563-21.78125-6.09375z"/>
    </clipPath>
    <filter id="filter15979" height="5.73714" width="1.335794" x="-.167897" y="-2.398838">
      <feGaussianBlur stdDeviation="1.938956"/>
    </filter>
    <filter id="filter17962" height="1.269057" width="1.6704" x="-.3352" y="-.134528">
      <feGaussianBlur stdDeviation="1.2724908"/>
    </filter>
    <filter id="filter17966" height="1.269057" width="1.6704" x="-.3352" y="-.134528">
      <feGaussianBlur stdDeviation="1.6181482"/>
    </filter>
    <radialGradient id="radialGradient3656" cx="91.625" cy="38.9375" gradientTransform="matrix(-4.8753432 .256643 .1746503 3.317759 476.90389 -117.65173)" gradientUnits="userSpaceOnUse" r="6.5" xlink:href="#linearGradient5590"/>
    <radialGradient id="radialGradient3659" cx="91.625" cy="38.9375" gradientTransform="matrix(1.8482474 .00000009 -.00000023 4.2248313 -76.659996 -126.27398)" gradientUnits="userSpaceOnUse" r="6.5" xlink:href="#linearGradient5590"/>
    <linearGradient id="linearGradient3664" gradientUnits="userSpaceOnUse" x1="130.987004" x2="146.519032" xlink:href="#linearGradient15983" y1="85.585856" y2="85.585856"/>
    <linearGradient id="linearGradient3667" gradientUnits="userSpaceOnUse" x1="142.174032" x2="169.647848" xlink:href="#linearGradient15983" y1="99.600498" y2="99.600498"/>
    <linearGradient id="linearGradient3670" gradientUnits="userSpaceOnUse" x1="112.205532" x2="125.939672" xlink:href="#linearGradient15999" y1="86.185152" y2="86.185152"/>
    <linearGradient id="linearGradient3673" gradientUnits="userSpaceOnUse" x1="87.57848" x2="114.75266" xlink:href="#linearGradient15999" y1="99.450678" y2="99.450678"/>
    <linearGradient id="linearGradient3694" gradientUnits="userSpaceOnUse" x1="111.827511572" x2="132.50862893802" y1="218.82743084322" y2="218.82743084322">
      <stop offset="0" stop-color="#918e89"/>
      <stop offset="1" stop-color="#fff"/>
    </linearGradient>
    <radialGradient id="radialGradient3697" cx="-6.999998" cy="455.30811" gradientTransform="matrix(.915519 0 0 1.3775636 134.52901 -401.86744)" gradientUnits="userSpaceOnUse" r="30.96875">
      <stop offset="0"/>
      <stop offset=".53500003" stop-color="#434343"/>
      <stop offset="1"/>
    </radialGradient>
    <radialGradient id="radialGradient3701" cx="-149.31557" cy="323.59668" fx="-145.7198" fy="369.03467" gradientTransform="matrix(1 0 0 1.0287648 0 -17.421506)" gradientUnits="userSpaceOnUse" r="82.980965">
      <stop offset="0" stop-color="#fff" stop-opacity=".101818"/>
      <stop offset="1" stop-color="#ab7616" stop-opacity=".207843"/>
    </radialGradient>
    <filter id="filter3284" height="1.175204" width="1.217908" x="-.108943" y="-.087602">
      <feGaussianBlur stdDeviation="2.0865072"/>
    </filter>
    <clipPath id="clipPath3288">
      <path d="m64.356339 2.9176219c-20.967825 0-37.979852 17.0120231-37.979852 37.9798521 0 7.040488 1.920548 13.635814 5.263126 19.290833.07938.134302.148804.27162.229782.404856 4.611968 8.494396 12.855479 18.978887 14.19184 29.073024.852705 4.33014.801655 6.218503 4.902036 6.82784 3.471039.515818 8.31657.866681 12.167559.984783v.05471c.3885 0 .818378-.01445 1.247395-.02188.429016.0074.858894.02188 1.247394.02188v-.05471c3.850984-.118102 8.69652-.468965 12.167559-.984783 4.100381-.609337 4.038391-2.4977 4.891097-6.82784 1.391254-10.508784 10.288575-21.443876 14.760825-30.112518 3.11487-5.510871 4.90204-11.878438 4.90204-18.656195 0-20.967824-17.022971-37.9798566-37.990801-37.9798521z"/>
    </clipPath>
  </defs>
  <path d="m162.37169 187.76568a34.459473 5.3936564 0 1 1 -68.918946 0 34.459473 5.3936564 0 1 1 68.918946 0z" fill="#545454"/>
  <path d="m127.87184 5.3541416c-41.935648 0-75.959466 34.0238084-75.959466 75.9594684-.000008 14.080984 3.843313 27.28481 10.528469 38.59485.15878.26859.295804.53461.45776.80108 9.223936 16.98878 25.708367 37.97579 28.381089 58.16406 1.158662 5.88387 1.516318 9.48233 4.177054 11.58704-.267258.0884-.482048.1945-.600808.2861h-.25749l66.460962.20027c0 .0399-.0285.075-.0572.11444.0287-.0394.0286-.0745.0286-.11444 0-.0399.00006-.075-.0286-.11444-.0833-.1146-.31533-.23358-.62942-.34332 2.682-2.10112 2.9854-5.7096 4.14844-11.61565 2.7825-21.01758 20.58098-42.8867 29.52549-60.22398 6.22974-11.02174 9.81322-23.780498 9.81322-37.33601 0-41.935642-34.05242-75.9594774-75.98808-75.9594684zm33.13035 185.4784284c.0287.0394.0572.0745.0572.11444v-.11444z" fill="#ffe839" fill-opacity=".688679"/>
  <path d="m99.767888 231.9203 11.129272 11.10846h.0286c.63798.45468 7.74355 1.6758 16.63221 1.6758 8.59384 0 15.83205-1.19936 16.87008-1.63318h.0572v-.0212c.0576-.0296.0858-.055.0858-.0854l11.90175-10.78698c-1.87045-.81162-13.96781-1.58538-28.75303-1.58538-14.78524-.00002-25.43415-.0264-27.951938 1.32788z" fill="url(#radialGradient3697)"/>
  <path d="m94.446438 188.0002v9.72737c1.224672.18016 2.17436 1.21466 2.17436 2.48907-.360026 3.30616-2.728152 1.53152-2.632122 4.74926.07656 2.56536 2.469568 2.0331 2.632122 4.72064-.360026 3.30618-2.792514 1.53544-2.632122 4.74926.17458 3.49836 2.425132 1.3993 2.632122 4.6348-.360026 3.30618-2.728152 1.50294-2.632122 4.72066.07656 2.56536 2.720458 2.06774 2.632122 4.74924 0 .61594.445548.94748 3.175702 3.89096h.45776c1.41477.97104 13.17707 1.74522 27.46556 1.74522 14.28852 0 26.39413-.20196 27.8089-1.173h-.0286c2.64069-2.4757 5.86505-1.93168 5.86505-4.2629 0-3.20474-2.24349-1.41448-2.60351-4.72064.20701-3.23552 2.42892-1.16506 2.60351-4.66342.1604-3.2138-2.24349-1.41448-2.60351-4.72066.16258-2.68756 2.52695-2.18388 2.60351-4.74924.096-3.21774-2.24349-1.4145-2.60351-4.72066.00002-1.27444.92107-2.33752 2.14574-2.51766v-14.44803c0 1.27757-14.87714 2.3174-33.18756 2.3174-18.31042-.00002-33.158958-1.03983-33.158958-2.3174 0-.0711.053-.1308.14306-.20027zm16.479332 55.01696 6.09393 6.12254c.40599.28934 5.04355.51496 10.70012.51496 5.46894 0 9.98233-.2389 10.64292-.51496h.0286c.0366-.018.0572-.038.0572-.0572l6.03671-6.0081h-.0572c-1.03803.43378-8.11438.77246-16.70824.77246-8.88866-.00004-16.15607-.37498-16.79405-.82968z" fill="url(#linearGradient3694)"/>
  <path clip-path="url(#clipPath3104)" d="m-50.203145 451.5-6.71875 36.78125 10.4375 17.3125 11.125-3.375 3.90625-1.75-4.59375-1.59375 5.46875-2.65625-6.90625-1.21875 9.5625-3.375-9.03125-3.1875 5.5-1.40625-7.09375-2.125 10.96875-3.71875-9-3.1875 3.53125-1.9375-5.5-2.8125 5.3125-4.4375-3.34375-3.875.15625-10.96875zm80.78125-.125-9.71875 2.65625-.1875 10.90625 3.375 4.59375-6.71875 4.0625 3.34375 3.53125-4.59375 2.3125 9.03125.53125-8.5 3.34375 5.125 3.71875-6.875 3.1875h8.84375l-8.3125 4.9375 3.875 2.125-4.25 2.65625 7.625 1.0625-4.25 2.46875 20.15625 5.125z" fill="#0b0b09" fill-rule="evenodd" filter="url(#filter3094)" transform="matrix(.915519 0 0 .915519 134.52901 -228.61818)"/>
  <path d="m441.51742 459.66655c-5.48668 2.79709-3.68351 6.10277 2.96636 9.7466-7.96047 1.02552-15.48315 3.51188-22.03581 2.84753-5.47316-3.53138-9.86942-9.06276-3.39012-12.59414 7.75981 1.2298 15.26466 1.31225 22.45957.00001z" fill="url(#radialGradient3183)" fill-rule="evenodd" filter="url(#filter3437)" transform="matrix(.915519 0 0 .915519 -262.70524 -228.61818)"/>
  <path d="m437.75494 472.48857c-8.10927 1.82154-10.97218 5.34342-1.3227 6.88307-4.57544.52242-10.96428 3.53901-16.63281 2.69507-3.75327-1.90796-2.14406-5.58979 1.16536-7.78025 4.07943.74869 11.3126-1.5939 16.79015-1.79789z" fill="url(#radialGradient3181)" fill-rule="evenodd" filter="url(#filter3433)" transform="matrix(.915519 0 0 .915519 -262.70524 -228.61818)"/>
  <path d="m422.0242 484.66871c-3.72002 1.24331-7.87636 4.53409-1.90694 7.99213 5.40709.89915 12.01319-2.67501 17.16251-2.80693-7.50574-2.2752-5.82662-5.6435.19371-7.63691z" fill="url(#radialGradient3179)" fill-rule="evenodd" filter="url(#filter3429)" transform="matrix(.915519 0 0 .915519 -262.70524 -228.61818)"/>
  <path d="m434.49206 492.75973-14.05698 2.71501c-4.69219 2.37013-4.2769 5.99154-.63564 7.25054l15.25556-2.29506c-3.43304-1.45087-8.65109-5.67099-.56294-7.67049z" fill="url(#radialGradient3177)" fill-rule="evenodd" filter="url(#filter3425)" transform="matrix(.915519 0 0 .915519 -262.70524 -228.61818)"/>
  <path d="m395.1709 470.78125.59375 1.78125 28.3125-1.5zm0 4 .59375 1.78125 28.3125-1.5zm0 6 .59375 1.78125 28.3125-1.5zm0 5 .59375 1.78125 28.3125-1.5zm0 5 .59375 1.78125 28.3125-1.5zm0 5 .59375 1.78125 28.3125-1.5zm0 5 .59375 1.1875 28.3125-1z" fill="url(#linearGradient4516)" fill-rule="evenodd" filter="url(#filter4242)" transform="matrix(.915519 0 0 .915519 -262.70524 -228.61818)"/>
  <path d="m457.64271 471.71875-24.28125 1.9375 24.59375-.28125zm0 2-24.28125 1.9375 24.59375-.28125zm0 4-24.28125 1.9375 24.59375-.28125zm0 2-24.28125 1.9375 24.59375-.28125zm0 4-24.28125 1.9375 24.59375-.28125zm0 4-24.28125 1.9375 24.59375-.28125zm0 5-24.28125 1.9375 24.59375-.28125zm0 2-24.28125 1.9375 24.59375-.28125zm0 4-24.28125 1.9375 24.59375-.28125zm0 3-24.28125 1.9375 24.59375-.28125z" fill="url(#linearGradient4524)" fill-rule="evenodd" filter="url(#filter4214)" transform="matrix(.915519 0 0 .915519 -262.70524 -228.61818)"/>
  <path d="m455.3584 468.4375-14.96875.15625 1.5 1.65625zm0 3-14.96875.15625 1.5 1.65625zm-2 5-14.96875.3125 1.5 3.28125zm0 10-14.96875.3125 1.5 3.28125zm0 11-14.96875.3125.45123 2.38231z" fill="url(#linearGradient4526)" fill-rule="evenodd" filter="url(#filter4501)" transform="matrix(.915519 0 0 .915519 -262.70524 -228.61818)"/>
  <path d="m458.97467 500.83122-4.66141 5.29707c-18.64569 1.93637-37.0795.95722-55.72519-1.05941 7.06265-.27235 14.27483.51916 21.48483-.1961 5.44833-.54049 8.88253-2.26628 14.26291-2.63277 1.70652-.11624-1.99291 1.84954-.3146 1.69899 6.00823-.53896 19.51877-1.93629 24.95346-3.10778z" fill="#2e2e2e" fill-rule="evenodd" filter="url(#filter4579)" transform="matrix(.915519 0 0 .915519 -262.70524 -228.61818)"/>
  <path d="m-149.32752 230.11546c-45.80533 0-82.96901 37.16367-82.96901 82.96901 0 15.38032 4.19554 29.78816 11.49758 42.14185.17342.29339.32507.59337.50197.88443 10.07509 18.55646 28.08348 41.46039 31.00283 63.51157 1.86278 9.45942 1.75126 13.58465 10.70876 14.91578 7.58267 1.12683 18.16799 1.89331 26.58068 2.15131v.11952c.8487 0 1.78779-.0316 2.725-.0478.93721.0162 1.8763.0478 2.725.0478v-.11952c8.41268-.258 18.99801-1.02448 26.58068-2.15131 8.9575-1.33113 8.82208-5.45636 10.68486-14.91578 3.03927-22.957 22.475934-46.84529 32.245806-65.7824 6.804608-12.03879 10.708763-25.94908 10.708763-40.75545 0-45.80533-37.187579-82.96902-82.992919-82.96901z" fill="url(#radialGradient3701)" mask="url(#mask4716)" opacity=".958802" transform="matrix(.915519 0 0 .915519 264.76728 -205.34026)"/>
  <path d="m-393.35733 109.35431c1.19859-10.94404 37.24879-11.884649 36.64949 0l1 56.6994h-38.64949z" style="fill:none;stroke:#293e60;stroke-width:3.5;stroke-linecap:round;stroke-dashoffset:1.0878;clip-path:url(#clipPath4995);filter:url(#filter4991)" transform="matrix(.701376 0 0 .701376 391.46038 76.647602)"/>
  <path d="m-393.35733 109.35431c1.19859-10.94404 37.24879-11.884649 36.64949 0l1 56.6994h-38.64949z" style="fill:none;stroke:#2d585b;stroke-width:3.5;stroke-linecap:round;stroke-dashoffset:1.0878;clip-path:url(#clipPath4995);filter:url(#filter5113)" transform="matrix(.2330338 0 0 .701376 215.7594 76.647602)"/>
  <path clip-path="url(#clipPath5163)" d="m-197.15625 61.34375c-7.42883-.05891-12.2411 3.287727-9.65625 12.40625 5.52372 19.485894 11.03125 10.953561 11.03125 34.75l19.625.78125v.0625l.78125-.0312.78125.0312v-.0625l19.625-.78125c0-23.796439 5.50753-15.264106 11.03125-34.75 4.78674-16.886095-15.72408-13.962463-31.4375-6.3125-7.22814-3.518968-15.45303-6.043563-21.78125-6.09375zm1.9375 3.84375c5.76954.04576 13.25373 2.3542 19.84375 5.5625 14.32619-6.974601 33.02039-9.645333 28.65625 5.75-5.03606 17.765619-10.0625 9.991877-10.0625 31.6875l-17.875.71875v.0625l-.71875-.0312-.71875.0312v-.0625l-17.875-.71875c0-21.695621-5.02645-13.921877-10.0625-31.6875-2.35666-8.31351 2.03951-11.366216 8.8125-11.3125z" fill="#334d74" fill-rule="evenodd" filter="url(#filter5159)" transform="matrix(.5267562 0 0 .5267562 221.03002 93.754606)"/>
  <path d="m-393.35733 109.35431c1.19859-10.94404 37.24879-11.884649 36.64949 0l1 56.6994h-38.64949z" style="fill:none;stroke:#2d585b;stroke-width:3.5;stroke-linecap:round;stroke-dashoffset:1.0878;clip-path:url(#clipPath4995);filter:url(#filter5113)" transform="matrix(.2330338 0 0 .6003668 215.7594 34.090348)"/>
  <path d="m114.62766 128.35633-26.924178-57.81131" fill="none" stroke="url(#linearGradient3673)" stroke-width=".24"/>
  <path d="m125.81467 98.470704-13.48414-24.5711" fill="none" stroke="url(#linearGradient3670)" stroke-width=".24"/>
  <path d="m142.29902 128.35633 27.22382-57.511662" fill="none" stroke="url(#linearGradient3667)" stroke-width=".24"/>
  <path d="m131.11201 98.470704 15.28202-25.76969" fill="none" stroke="url(#linearGradient3664)" stroke-width=".24"/>
  <path d="m44.972573 36.657322c4.514112 3.987214 8.34329 2.278223 12.285549 1.498238 2.791732 1.359855 13.45588 2.168906 15.678439-.433757.893472 1.342321 10.569428 1.105943 11.6644-1.139393" fill="none" filter="url(#filter15979)" stroke="#fff" stroke-linecap="round" stroke-width="4" transform="matrix(2 0 0 2 -.636592 -.513982)"/>
  <path d="m89.308554 72.800662c9.028224 7.974428 16.686576 4.556446 24.571096 2.996476 5.58347 2.71971 26.91176 4.337812 31.35688-.867514 1.78694 2.684642 21.13885 2.211886 23.3288-2.278786" fill="none" stroke="#fff" stroke-linecap="round" stroke-width="1.8"/>
  <path d="m100.54302 41.492859c-.26115 6.168273-.27198 12.041227-3.135872 17.108048-4.472251 8.668642-13.371494 19.603211-14.762744 30.111992-.852705 4.330139-.791924 6.214144-4.892305 6.823477-3.471039.515817-8.308257.868938-12.159237.987044v.05722c-.3885 0-.829821-.02117-1.258838-.02861-.429017.0074-.856033.02861-1.244534.02861v-.05722c-3.850988-.118102-8.688193-.471222-12.159237-.987044-4.10038-.609337-4.053909-2.493333-4.906609-6.823477-1.33636-10.094137-9.578577-20.573333-14.190545-29.067729-.080977-.133235-.14949-.280542-.228879-.414844-3.07091-5.195406-4.288653-9.60065-4.572922-15.998718.348306-24.21284 16.821338-38.0598181 37.288421-38.0598181 20.433624-.0000045 35.386347 16.0922151 36.223301 36.3210691z" style="fill:none;stroke:#fa0;stroke-width:6;stroke-linecap:round;stroke-dashoffset:1.0878;clip-path:url(#clipPath3288);filter:url(#filter3284)" transform="matrix(2 0 0 2 -.636592 -.513982)"/>
  <path d="m127.71982 247.3777c-6.03301 0-10.929.70296-10.929 1.61938 0 .91636 4.89597 1.68164 10.929 1.68166 6.03304 0 10.92903-.7653 10.92903-1.68166 0-.9164-4.89601-1.61938-10.92903-1.61938z" fill="#6a6a6a"/>
  <path d="m172.25289 39.85629a44.889488 27.416896 0 1 1 -89.778964 0 44.889488 27.416896 0 1 1 89.778964 0z" fill="url(#linearGradient4842)"/>
  <path d="m91.430534 23.796434-4.537767 4.417081c5.363098 6.114235 6.827459 14.254082 3.910203 21.868172l5.961852 2.582665c1.093939-3.071723 1.713731-6.379569 1.713731-9.823781 0-7.270492-2.662231-13.91758-7.048019-19.044137z" fill="url(#radialGradient3659)" filter="url(#filter17966)" opacity=".958802" transform="matrix(2 0 0 2 -.636592 -.513982)"/>
  <path d="m37.988017 23.697733 3.568441 3.473536c-4.217471 4.808155-5.369025 11.209225-3.074933 17.196847l-4.688323 2.030975c-.86026-2.415564-1.347656-5.016811-1.347656-7.725295 0-5.717421 2.093544-10.944605 5.542471-14.976063z" fill="url(#radialGradient3656)" filter="url(#filter17962)" opacity=".771536" transform="matrix(2 0 0 2 -.636592 -.513982)"/>
</svg>
