<svg height="256" width="256" xmlns="http://www.w3.org/2000/svg" xmlns:xlink="http://www.w3.org/1999/xlink">
  <defs>
    <linearGradient id="linearGradient4029">
      <stop offset="0" stop-color="#a6abbc"/>
      <stop offset=".1185369" stop-color="#908e9d"/>
      <stop offset=".35540977" stop-color="#fdfafd"/>
      <stop offset=".58570284" stop-color="#e4e3e7"/>
      <stop offset=".63834125" stop-color="#1f2e35"/>
      <stop offset=".90153337" stop-color="#c8c8c9"/>
      <stop offset="1" stop-color="#e1e2e2"/>
    </linearGradient>
    <filter id="filter5431" height="1.199579" width="1.033161" x="-.01658" y="-.099789">
      <feGaussianBlur stdDeviation=".28065758"/>
    </filter>
    <filter id="filter5459" height="1.359109" width="1.050579" x="-.025289" y="-.179554">
      <feGaussianBlur stdDeviation=".21956031"/>
    </filter>
    <filter id="filter5473" height="1.483792" width="1.104201" x="-.052101" y="-.241896">
      <feGaussianBlur stdDeviation=".6735782"/>
    </filter>
    <mask id="mask5477" maskUnits="userSpaceOnUse">
      <path d="m39.3125 100.91875v6c0 1.57938 9.098961 2.75 20.3125 2.75 11.213538 0 20.3125-1.17062 20.3125-2.75v-6z" fill="#fff" filter="url(#filter5473)" stroke="#fff"/>
    </mask>
    <linearGradient id="linearGradient5481" gradientUnits="userSpaceOnUse" x1="39.3125" x2="79.9375" xlink:href="#linearGradient4029" y1="108.59375" y2="108.59375"/>
    <linearGradient id="linearGradient5483" gradientTransform="matrix(1.2471483 0 0 1.2897234 -11.696119 -15.422403)" gradientUnits="userSpaceOnUse" x1="39.3125" x2="79.9375" xlink:href="#linearGradient4029" y1="104.59375" y2="104.59375"/>
    <linearGradient id="linearGradient5491" gradientTransform="matrix(.67974446 0 0 .74475607 23.388772 40.256302)" gradientUnits="userSpaceOnUse" x1="47.977589" x2="64.090324" xlink:href="#linearGradient4029" y1="60.163242" y2="60.163242"/>
    <linearGradient id="linearGradient5499" gradientTransform="matrix(1.0567451 0 0 1.0928203 5.567844 5.34118)" gradientUnits="userSpaceOnUse" x1="54.277924" x2="54.277924" y1="105.83116" y2="93.730415">
      <stop offset="0" stop-color="#f0eef2"/>
      <stop offset="1" stop-color="#ababb8"/>
    </linearGradient>
    <filter id="filter5526" height="1.458934" width="1.06285" x="-.031425" y="-.229467">
      <feGaussianBlur stdDeviation=".16240479"/>
    </filter>
    <clipPath id="clipPath5542">
      <path d="m77.992261 100.45626c0 1.86395-10.728263 3.25694-23.962245 3.25694s-23.962244-1.39299-23.962244-3.25694c0-1.863935 12.410814-3.492977 23.962244-3.492977 11.551432 0 23.962245 1.629042 23.962245 3.492977z"/>
    </clipPath>
    <filter id="filter5548" height="1.016408" width="1.035211" x="-.017606" y="-.008204">
      <feGaussianBlur stdDeviation=".092554194"/>
    </filter>
    <filter id="filter5571" height="1.486364" width="1.405303" x="-.202652" y="-.243182">
      <feGaussianBlur stdDeviation=".22390053"/>
    </filter>
    <radialGradient id="radialGradient5815" cx="52.197342" cy="61.875" gradientTransform="matrix(1.7937448 0 0 1.9999994 -41.441211 -63.749964)" gradientUnits="userSpaceOnUse" r="3.75" xlink:href="#linearGradient4029"/>
    <filter id="filter5819" height="1.098045" width="1.040052" x="-.020026" y="-.049023">
      <feGaussianBlur stdDeviation=".17332075"/>
    </filter>
    <mask id="mask5823" maskUnits="userSpaceOnUse">
      <rect fill="#fff" filter="url(#filter5819)" height="8.485281" transform="matrix(.625 0 0 .625 17.1875 22.5)" width="20.771261" x="52.679455" y="51.190525"/>
    </mask>
    <clipPath id="clipPath5847">
      <path d="m56 53.59375c0-3.313709 2.686291-6 6-6s6 2.686291 6 6h-6z"/>
    </clipPath>
    <filter id="filter5853" height="1.255924" width="1.127962" x="-.063981" y="-.127962">
      <feGaussianBlur stdDeviation=".31990521"/>
    </filter>
    <radialGradient id="radialGradient3806" cx="145.125" cy="83.49929" fx="145.41389" fy="84.533798" gradientTransform="matrix(7.898504 .0000003 -.0000005 15.828734 -1083.766 -1235.5889)" gradientUnits="userSpaceOnUse" r="2.875">
      <stop offset="0" stop-color="#c3fbfd"/>
      <stop offset="1" stop-color="#c3fbfd" stop-opacity="0"/>
    </radialGradient>
    <linearGradient id="linearGradient2996" gradientTransform="matrix(.91270751 0 0 1 4.889661 2.6)" gradientUnits="userSpaceOnUse" x1="56" x2="56.75" y1="83.5" y2="83.5">
      <stop offset="0" stop-color="#475259"/>
      <stop offset="1" stop-color="#475259" stop-opacity="0"/>
    </linearGradient>
    <linearGradient id="linearGradient3770" gradientUnits="userSpaceOnUse" x1="48.065352" x2="59.928814" xlink:href="#linearGradient4029" y1="70.463242" y2="70.463242"/>
    <filter id="filter4011" height="1.195327" width="1.195362" x="-.097681" y="-.097663">
      <feGaussianBlur stdDeviation="1.7494816"/>
    </filter>
    <linearGradient id="lg2">
      <stop offset="0" stop-color="#fff"/>
      <stop offset="1" stop-color="#fff" stop-opacity="0"/>
    </linearGradient>
    <linearGradient id="linearGradient696" gradientUnits="userSpaceOnUse" x1="65.223007" x2="65.223007" xlink:href="#lg2" y1="42.432697" y2="54.852886"/>
    <linearGradient id="lg1" xlink:href="#lg2"/>
    <filter id="filter965" color-interpolation-filters="sRGB" height="1.564308" width="1.135944" x="-.067972" y="-.282154">
      <feGaussianBlur stdDeviation="1.9633793"/>
    </filter>
    <linearGradient id="linearGradient1857" gradientUnits="userSpaceOnUse" x1="70.786682" x2="183.06477" xlink:href="#linearGradient2411" y1="128.81412" y2="128.70352"/>
    <linearGradient id="linearGradient2411">
      <stop offset="0" stop-color="#f5cb11"/>
      <stop offset=".25796592" stop-color="#fefe98"/>
      <stop offset=".50796592" stop-color="#efc200"/>
      <stop offset=".74009573" stop-color="#cf9c00"/>
      <stop offset="1" stop-color="#ffe00d"/>
    </linearGradient>
    <linearGradient id="linearGradient1675" gradientUnits="userSpaceOnUse" x1="132.14766" x2="131.58092" y1="122.67117" y2="106.2674">
      <stop offset="0" stop-color="#fbd600"/>
      <stop offset="1" stop-color="#fff56d"/>
    </linearGradient>
    <linearGradient id="linearGradient1659" gradientUnits="userSpaceOnUse" x1="61.019001" x2="194.9841" xlink:href="#linearGradient2411" y1="172.67195" y2="172.67195"/>
    <linearGradient id="linearGradient1867" gradientUnits="userSpaceOnUse" x1="133.76163" x2="135.10126" y1="123.89124" y2="144.38992">
      <stop offset="0" stop-color="#fef4b8" stop-opacity=".844658"/>
      <stop offset="1" stop-color="#fef6c9"/>
    </linearGradient>
    <filter id="filter12394" color-interpolation-filters="sRGB" height="3.542962" width="1.170809" x="-.085405" y="-1.271481">
      <feGaussianBlur stdDeviation="1.4869846"/>
    </filter>
    <linearGradient id="linearGradient1667" gradientUnits="userSpaceOnUse" x1="116.3536" x2="143.8345" y1="99.000633" y2="129.98758">
      <stop offset="0" stop-color="#dba600"/>
      <stop offset="1" stop-color="#a87f00"/>
    </linearGradient>
    <linearGradient id="linearGradient1071" gradientUnits="userSpaceOnUse" x1="116.67207" x2="172.2628" y1="18.77269" y2="97.345978">
      <stop offset="0" stop-color="#f1f1f1"/>
      <stop offset="1" stop-color="#c3c3c3"/>
    </linearGradient>
    <linearGradient id="linearGradient12232" gradientUnits="userSpaceOnUse" x1="161.40816" x2="91.299683" y1="120.10368" y2="31.361414">
      <stop offset="0" stop-color="#878787"/>
      <stop offset="1" stop-color="#d3d3d3"/>
    </linearGradient>
    <linearGradient id="linearGradient1487" gradientUnits="userSpaceOnUse" x1="49.057232" x2="63.10215" xlink:href="#linearGradient6566-0" y1="35.426853" y2="18.994919"/>
    <linearGradient id="linearGradient6566-0">
      <stop offset="0"/>
      <stop offset="1" stop-opacity="0"/>
    </linearGradient>
    <filter id="filter1477" color-interpolation-filters="sRGB" height="1.141288" width="1.250151" x="-.136584" y="-.07717">
      <feGaussianBlur stdDeviation="1.0233253"/>
    </filter>
    <linearGradient id="linearGradient1665" gradientUnits="userSpaceOnUse" x1="135.92735" x2="149.97227" xlink:href="#linearGradient6566-0" y1="35.426853" y2="18.994919"/>
    <linearGradient id="linearGradient1812" gradientUnits="userSpaceOnUse" x1="49.513088" x2="63.15918" xlink:href="#lg1" y1="22.070805" y2="13.712175"/>
    <filter id="filter1802" color-interpolation-filters="sRGB" height="1.154667" width="1.276134" x="-.156378" y="-.087634">
      <feGaussianBlur stdDeviation="1.0168145"/>
    </filter>
    <linearGradient id="linearGradient1816" gradientUnits="userSpaceOnUse" x1="136.38321" x2="150.0293" xlink:href="#lg1" y1="22.070805" y2="13.712175"/>
    <radialGradient id="radialGradient2020" cx="95.432579" cy="35.311798" gradientUnits="userSpaceOnUse" r="12.49915" xlink:href="#lg1"/>
    <radialGradient id="radialGradient26274" cx="70.487465" cy="102.11657" gradientTransform="matrix(4.1219686 .03563022 -.01380672 1.5972662 -150.90934 26.998493)" gradientUnits="userSpaceOnUse" r="21.531792">
      <stop offset="0" stop-color="#fefe97" stop-opacity=".50684"/>
      <stop offset="1" stop-color="#f4b900" stop-opacity=".254289"/>
    </radialGradient>
    <radialGradient id="radialGradient26268" cx="66.480537" cy="104.7655" gradientTransform="matrix(4.5030676 -.01809302 .00622428 1.5491193 -171.17249 32.780388)" gradientUnits="userSpaceOnUse" r="21.531792">
      <stop offset="0" stop-color="#fefc93" stop-opacity=".723597"/>
      <stop offset="1" stop-color="#ffc205" stop-opacity=".338887"/>
    </radialGradient>
  </defs>
  <g transform="matrix(2 0 0 2 2.672399 3.637139)">
    <path d="m79.927862 105.21877c0 1.57938-9.090369 2.7597-20.303907 2.7597-11.213539 0-20.303908-1.18032-20.303908-2.7597 0-1.57937 10.516044-2.95971 20.303908-2.95971s20.303907 1.38034 20.303907 2.95971z" filter="url(#filter5459)" stroke="#000" transform="matrix(1.2163428 0 0 1.2919712 -9.859365 -15.658687)"/>
    <path d="m37.332404 115.12179v5.15889c0 2.03697 11.347755 3.54675 25.332702 3.54675 13.984946 0 25.332702-1.50978 25.332702-3.54675v-5.15889z" fill="url(#linearGradient5483)"/>
    <path d="m87.985789 115.12182c0 2.03696-11.33704 3.55925-25.321987 3.55925-13.984946 0-25.321985-1.52229-25.321985-3.55925 0-2.03695 13.115067-3.8172 25.321985-3.8172 12.20692 0 25.321987 1.78025 25.321987 3.8172z" fill="url(#linearGradient5499)"/>
    <path d="m39.3125 105.21875v4c0 1.57938 9.098961 2.75 20.3125 2.75 11.213538 0 20.3125-1.17062 20.3125-2.75v-4c0 1.57938-9.098962 2.75-20.3125 2.75-11.213539 0-20.3125-1.17062-20.3125-2.75z" fill="url(#linearGradient5481)" filter="url(#filter5431)" mask="url(#mask5477)" opacity=".565217" transform="matrix(1.2471483 0 0 1.2897234 -11.696119 -15.422403)"/>
    <path d="m37.996711 114.35c-.417959.25441-.660466.51884-.660466.78546 0 .0122-.000817.022 0 .0342 16.741903.59569 33.668149.42882 50.657722 0 .000817-.0122 0-.0219 0-.0342 0-.26662-.242507-.53105-.660466-.78546-5.769399.18447-11.538798.33223-17.308196.4138-10.676198.15096-21.352396.0753-32.028594-.4138z" fill="#d3feff" opacity=".570048"/>
    <path d="m60.403217 99.979128c0 .469062-3.042915 1.208412-6.373201 1.208412s-6.030016-.65054-6.030016-1.1196c0-.469052 3.123139-.578995 6.030016-.578995 2.906879 0 6.373201.02113 6.373201.490183z" filter="url(#filter5526)" transform="matrix(.95489695 0 0 1.0928203 10.490284 5.34118)"/>
    <path d="m62.143076 56.390042c-3.024446 0-6.141795 2.89625-6.141795 6.209958v52c0 .46864 2.486213 1 5.476245 1 2.990034 0 6.691607-.51888 6.691607-.9996 0-12 0-36.0004 0-52.0004 0-3.313708-3.001611-6.209958-6.026057-6.209958z" fill="url(#linearGradient5491)"/>
    <path clip-path="url(#clipPath5542)" d="m48 119.5c0 20-.277275-20.152086-.277275-19.520872 0 .468642 3.001272 1.020872 6.277275 1.020872 3.276004 0 6.33977-.54015 6.33977-1.020872 0-12-.33977 35.520872-.33977 19.520872z" fill="url(#linearGradient3770)" filter="url(#filter5548)" opacity=".772947" transform="matrix(.96449919 0 0 1.0928203 9.971474 5.34118)"/>
    <path d="m62.077756 56.386889c-3.024446 0-6.076475 2.899403-6.076475 6.213111v52c0 .46864 2.486213 1 5.476245 1 2.990034 0 6.691607-.51888 6.691607-.9996 0-12 0-36.0004 0-52.0004 0-3.313708-3.066931-6.213111-6.091377-6.213111z" fill="url(#linearGradient2996)"/>
    <path d="m52.1875 60a3.75 3.75 0 0 1 7.5 0h-3.75z" fill="url(#radialGradient5815)" mask="url(#mask5823)" transform="matrix(1.6225501 0 0 1.7774931 -28.676835 -43.594247)"/>
    <path d="m65.76093 44.428818a1.3258255 1.1048545 0 1 1 -2.651651 0 1.3258255 1.1048545 0 1 1 2.651651 0z" fill="#cafdff" filter="url(#filter5571)" opacity=".570048" transform="matrix(.78420886 0 0 .94856956 13.18136 17.076823)"/>
    <path d="m65.76093 44.428818a1.3258255 1.1048545 0 1 1 -2.651651 0 1.3258255 1.1048545 0 1 1 2.651651 0z" fill="#e2feff" filter="url(#filter5571)" transform="matrix(.44222282 0 0 .43149185 35.217265 39.554069)"/>
    <path clip-path="url(#clipPath5847)" d="m62 47.19375c-3.313709 0-6 2.686291-6 6h.03125c.250453-3.083385 2.82083-5.3 5.96875-5.3s5.718297 2.216615 5.96875 5.3h.03125c0-3.313709-2.686291-6-6-6z" fill="#39464d" filter="url(#filter5853)" transform="matrix(1.0140943 0 0 1.1110835 -.789275 3.506254)"/>
    <path d="m61.705703 56.6c2.411656.160101 3.116897 4.124442 3.116897 7.335v50.6654c0 .46525-2.558621.96781-4.942311.9996.07962.0009.147721 0 .228176 0 2.74086 0 5.626842-.51888 5.626842-.9996 0-12 0-34.6654 0-50.6654 0-3.313708-1.029014-7.335-3.801427-7.335-.07678 0-.15224-.0041-.228177 0z" fill="url(#radialGradient3806)" opacity=".661836"/>
  </g>
  <g transform="matrix(2 0 0 2 -5.746119 -9.192505)">
    <path d="m65.773438 46.507812c-11.339918.577628-20.390626 10.009392-20.390626 21.492188 0 11.85329 9.638898 21.492188 21.492188 21.492188 11.853289 0 21.492188-9.638898 21.492188-21.492188s-9.638898-21.492187-21.492188-21.492188c-.394491 0-.75987-.0174-1.101562 0zm1.101562 4.734376c10.435124 0 18.882812 8.415462 18.882812 18.851562s-8.446712 18.882812-18.882812 18.882812c-10.436101 0-18.882812-8.446712-18.882812-18.882812s8.447687-18.851562 18.882812-18.851562z" fill="#c9a700" filter="url(#filter4011)" transform="matrix(1.5858173 0 0 1.5858173 -39.178469 -39.233192)"/>
    <path d="m66.90625 40.746094c-15.042249 0-27.253906 12.211659-27.253906 27.253906 0 6.37695 2.286167 12.167617 5.960937 16.8125-2.770903-4.093893-4.390625-9.029087-4.390625-14.34375 0-14.172442 11.511149-25.683594 25.683594-25.683594 14.172434 0 25.652344 11.512648 25.652344 25.683594 0 6.484182-2.483909 12.335991-6.449219 16.851562 4.967985-4.937927 8.050781-11.769251 8.050781-19.320312 0-15.042247-12.211661-27.253906-27.253906-27.253906zm-21.292969 44.066406c.66193.836674 1.281366 1.709787 2.035157 2.462891-.702202-.801836-1.435972-1.577621-2.035157-2.462891z" fill="#feff4e" transform="matrix(1.2220426 0 0 1.2220426 -14.849068 -14.250266)"/>
    <path d="m62 40.765625c-10.607508 0-19.234375 8.626868-19.234375 19.234375 0 10.607508 8.626867 19.234375 19.234375 19.234375 10.607507 0 19.234375-8.626867 19.234375-19.234375 0-10.607507-8.626868-19.234375-19.234375-19.234375zm0 2.90625c9.577585 0 17.328125 7.75054 17.328125 17.328125s-7.75054 17.328125-17.328125 17.328125c-9.577586 0-17.328125-7.75054-17.328125-17.328125s7.750539-17.328125 17.328125-17.328125z" fill="url(#linearGradient696)" transform="matrix(1.7511977 0 0 1.7511977 -41.670759 -35.985525)"/>
  </g>
  <g transform="matrix(.8 0 0 .8 84.660312 60.026278)">
    <ellipse cx="150.87012" cy="103.63491" filter="url(#filter965)" opacity=".615454" rx="34.662132" ry="8.35025" transform="matrix(1.9981237 0 0 1.6503763 -173.45715 44.872742)"/>
    <path d="m62.019757 119.40004h131.964323c.2809 17.70146-23.33052 18.75685-65.98254 19.10308-42.652023.34623-66.374083-1.57923-65.981783-19.10308z" fill="url(#linearGradient1857)"/>
    <path d="m62.019757 124.97156c44.250623 3.07718 88.349503 4.24957 131.964323 0v-21.48671c-43.9881-1.94617-87.97622-2.24942-131.964323 0z" fill="url(#linearGradient1675)"/>
    <path d="m62.018997 218.53737v-97.56581c23.86816 13.34247 44.737643 16.7458 65.982543 16.7458s42.11438-3.40333 65.98254-16.7458v97.56581c-19.76972 3.72372-39.26828 6.5396-65.98232 6.5396s-46.213043-2.81588-65.982763-6.5396z" fill="url(#linearGradient1659)"/>
    <path d="m62.019757 124.97156c44.783943 3.56008 88.802363 3.7328 131.964323 0-16.37378 8.33629-35.56764 16.76053-65.98254 16.7458-30.414903-.0148-49.224443-8.11343-65.981783-16.7458z" style="fill:#fff;fill-opacity:.399135;stroke-width:4;stroke-linecap:round;stroke-linejoin:round;stroke:url(#linearGradient1867)"/>
    <path d="m44.61927 54.57667c0 1.100843-2.30445 1.993252-5.14712 1.993252s-5.14712-.892409-5.14712-1.993252 2.30445-1.993252 5.14712-1.993252 5.14712.892409 5.14712 1.993252zm38.76146 0c0 1.100843 2.30445 1.993252 5.14712 1.993252s5.14712-.892409 5.14712-1.993252-2.30445-1.993252-5.14712-1.993252-5.14712.892409-5.14712 1.993252z" filter="url(#filter12394)" opacity=".599995" stroke="#000" stroke-linejoin="round" stroke-width="3" transform="matrix(2 0 0 2 -.000003 5.682854)"/>
    <path d="m62.017477 218.53831c19.7697 3.72372 39.270363 6.53908 65.984363 6.53908 26.71402 0 46.21078-2.81536 65.98048-6.53908l.0001-115.05467c-21.99404-.97309-43.98644-1.53241-65.98048-1.57032-21.99402-.0379-43.986443.4456-65.980463 1.57032z" fill="none" stroke="url(#linearGradient1667)" stroke-width="4"/>
    <path d="m128.00194 22.553948c-24.299-.188504-59.351563 15.947212-59.351563 58.335938v33.148434c0 2.20169 4.61154 3.98438 10.29688 3.98438s10.29296-1.78269 10.29296-3.98438v-33.148434c0-30.645592 24.868303-38.677652 38.761723-38.59375 13.89344-.0839 38.76172 7.948158 38.76172 38.59375v33.148434c0 2.20169 4.60764 3.98438 10.29298 3.98438 5.68532 0 10.29296-1.78269 10.29296-3.98438v-33.148434c0-42.388726-35.04864-58.524442-59.34766-58.335938z" fill="url(#linearGradient1071)" stroke="url(#linearGradient12232)" stroke-width="4"/>
    <path d="m42.83194 54.323436v-18.295044c0-11.045515 8.49841-20.058072 21.6422-20.009294" fill="none" filter="url(#filter1477)" stroke="url(#linearGradient1487)" transform="matrix(2 0 0 2 -.000003 5.682854)"/>
    <path d="m129.70206 54.323436v-18.295044c0-11.045515 8.49841-25.573623 21.6422-25.524845" fill="none" filter="url(#filter1477)" stroke="url(#linearGradient1665)" transform="matrix(-2 0 0 2 442.38724 5.682854)"/>
    <path d="m36.1198 52.546579v-16.54316c0-16.854464 17.51884-25.895859 26.4015-25.86217" fill="none" filter="url(#filter1802)" stroke="url(#linearGradient1812)" stroke-width="2" transform="matrix(2 0 0 2 -.000003 5.682854)"/>
    <path d="m122.98992 52.546579v-16.54316c0-12.567284 11.51884-19.895859 20.4015-19.86217" fill="none" filter="url(#filter1802)" stroke="url(#linearGradient1816)" stroke-width="1.5" transform="matrix(-2 0 0 2 417.03002 5.682854)"/>
    <circle cx="95.432579" cy="35.311798" fill="url(#radialGradient2020)" opacity=".615454" r="12.49915"/>
    <path d="m97.441117 162.92511c-6.76918-1.11704-11.07086 1.02288-11.05982 6.0531.01 4.20084 2.3 6.93362 9.14818 9.70514 1.43872.584 2.88018 1.15346 4.32516 1.70795 3.225223 1.23202 4.510643 2.47879 4.509543 4.48573-.002 2.69278-2.74192 4.18651-6.791403 3.53017-2.49654-.40465-4.58964-1.5049-5.74644-2.92234-.71584-.95235-1.04516-1.83243-1.31972-3.87932-1.61326-.31683-3.22104-.65081-4.82476-1.00073.2145 6.52012 3.90882 10.72854 11.49426 11.97479 7.325763 1.20358 12.045843-2.04662 12.048443-7.47381.002-4.23405-2.46608-6.62759-8.25974-8.78325-1.483543-.5475-2.963463-1.11106-4.440643-1.69025-3.764-1.46913-5.36182-2.97682-5.36566-4.87775-.006-2.53708 2.3561-3.58018 6.12714-2.95786 3.718483.61365 5.729003 2.3228 5.844503 5.18842 1.63638.21943 3.27554.41796 4.91856.59473-.0616-5.34602-3.88426-8.54524-10.607603-9.65472zm29.867483 2.50918c-.60244-.005-1.1884.0166-1.75686.0637-7.25162.67755-11.78242 5.53322-11.78192 14.03216.00052 8.5088 4.39024 14.6869 11.77326 15.45997.53158.061 1.07926.0942 1.6427.0987.29744.002.59114-.003.88096-.0168 6.34434-.36967 10.69374-4.4763 11.83306-10.41175-1.58584.11994-3.17264.21919-4.76126.29722-1.22428 3.5324-3.63906 5.61059-7.0695 5.87436-.2323.0152-.46904.0219-.7102.0202-.62678-.004-1.23246-.069-1.81308-.1911-2.2045-.44208-4.05272-1.71969-5.30262-3.65326-1.12638-1.66521-1.52254-3.30438-1.57844-6.06394 2.2927.10902 4.58692.17294 6.88534.19062.8391.0152 1.68018.024 2.52338.0265 4.16022-.0361 8.30522-.22214 12.45084-.54963.004-4.23966-.33062-6.68531-1.17834-8.62917-1.8326-4.08414-6.04634-6.34248-11.268-6.52683-.25432-.012-.51082-.019-.76932-.021zm30.54236-2.72854c-7.96498 1.35491-13.12996 7.33913-13.13818 16.52334-.008 8.93221 5.08544 14.49469 13.0424 13.15386 6.99388-1.17855 11.35042-6.40704 11.90744-13.36203-1.54846.34126-3.1003.66877-4.65666.98142-.78158 4.6508-3.16506 7.46201-7.13752 8.13194-5.15138.86875-8.25414-2.91326-8.24736-9.46795.008-6.91299 3.0607-11.19221 8.16028-12.05431 3.9194-.66259 6.35648.90791 6.90396 4.59544 1.55718-.31143 3.10984-.6379 4.65914-.97829-.21468-2.60454-.81816-4.16472-1.92188-5.40988-1.98478-2.0753-5.48426-2.80882-9.57162-2.11354zm-30.59702 6.61263c.27922.002.55374.015.82316.0379 4.3876.32223 7.35564 3.36103 7.35248 8.00538-2.45024.12412-4.90076.1975-7.35484.2186-.84332-.003-1.6845-.0116-2.52372-.0268-2.26006-.0176-4.5161-.08-6.77064-.18598.34548-4.43902 2.93794-7.28256 6.77156-7.92731.54272-.0854 1.11106-.12664 1.702-.12184z" fill="url(#radialGradient26274)" stroke="url(#radialGradient26268)" stroke-width="2"/>
  </g>
</svg>
