<svg height="256" width="256" xmlns="http://www.w3.org/2000/svg" xmlns:xlink="http://www.w3.org/1999/xlink">
  <defs>
    <linearGradient id="linearGradient4029">
      <stop offset="0" stop-color="#a6abbc"/>
      <stop offset=".1185369" stop-color="#908e9d"/>
      <stop offset=".35540977" stop-color="#fdfafd"/>
      <stop offset=".58570284" stop-color="#e4e3e7"/>
      <stop offset=".63834125" stop-color="#1f2e35"/>
      <stop offset=".90153337" stop-color="#c8c8c9"/>
      <stop offset="1" stop-color="#e1e2e2"/>
    </linearGradient>
    <linearGradient id="linearGradient5481" gradientUnits="userSpaceOnUse" x1="39.3125" x2="79.9375" xlink:href="#linearGradient4029" y1="108.59375" y2="108.59375"/>
    <linearGradient id="linearGradient5552" gradientUnits="userSpaceOnUse" x1="48.065352" x2="59.928814" xlink:href="#linearGradient4029" y1="70.463242" y2="70.463242"/>
    <linearGradient id="linearGradient4005" gradientUnits="userSpaceOnUse" x1="106.90625" x2="106.90625" y1="38.611053" y2="69.909103">
      <stop offset="0" stop-color="#e5fbff"/>
      <stop offset="1" stop-color="#49ddff" stop-opacity="0"/>
    </linearGradient>
    <filter id="filter4011" height="1.191087" width="1.191124" x="-.095562" y="-.095544">
      <feGaussianBlur stdDeviation="1.7494816"/>
    </filter>
    <linearGradient id="linearGradient4053" gradientUnits="userSpaceOnUse" x1="65.223007" x2="65.223007" y1="40.360008" y2="50.357944">
      <stop offset="0" stop-color="#fff"/>
      <stop offset="1" stop-color="#fff" stop-opacity="0"/>
    </linearGradient>
    <filter id="filter5459" height="1.359109" width="1.050579" x="-.025289" y="-.179554">
      <feGaussianBlur stdDeviation=".21956031"/>
    </filter>
    <linearGradient id="linearGradient5483" gradientTransform="matrix(1.2471483 0 0 1.2897234 -11.696119 -15.422403)" gradientUnits="userSpaceOnUse" x1="39.3125" x2="79.9375" xlink:href="#linearGradient4029" y1="104.59375" y2="104.59375"/>
    <linearGradient id="linearGradient5499" gradientTransform="matrix(1.0567451 0 0 1.0928203 5.567844 5.34118)" gradientUnits="userSpaceOnUse" x1="54.277924" x2="54.277924" y1="105.83116" y2="93.730415">
      <stop offset="0" stop-color="#f0eef2"/>
      <stop offset="1" stop-color="#ababb8"/>
    </linearGradient>
    <mask id="mask5477-2" maskUnits="userSpaceOnUse">
      <path d="m39.3125 100.91875v6c0 1.57938 9.098961 2.75 20.3125 2.75 11.213538 0 20.3125-1.17062 20.3125-2.75v-6z" fill="#fff" filter="url(#filter5473-1)" stroke="#fff"/>
    </mask>
    <filter id="filter5473-1" height="1.483792" width="1.104201" x="-.052101" y="-.241896">
      <feGaussianBlur stdDeviation=".6735782"/>
    </filter>
    <filter id="filter5431" height="1.199579" width="1.033161" x="-.01658" y="-.099789">
      <feGaussianBlur stdDeviation=".28065758"/>
    </filter>
    <filter id="filter5526" height="1.458934" width="1.06285" x="-.031425" y="-.229467">
      <feGaussianBlur stdDeviation=".16240479"/>
    </filter>
    <linearGradient id="linearGradient5491" gradientTransform="matrix(.67974446 0 0 .74475607 23.388772 40.256302)" gradientUnits="userSpaceOnUse" x1="47.977589" x2="64.090324" xlink:href="#linearGradient4029" y1="60.163242" y2="60.163242"/>
    <clipPath id="clipPath5542-2">
      <path d="m77.992261 100.45626c0 1.86395-10.728263 3.25694-23.962245 3.25694s-23.962244-1.39299-23.962244-3.25694c0-1.863935 12.410814-3.492977 23.962244-3.492977 11.551432 0 23.962245 1.629042 23.962245 3.492977z"/>
    </clipPath>
    <filter id="filter5548" height="1.016408" width="1.035211" x="-.017606" y="-.008204">
      <feGaussianBlur stdDeviation=".092554194"/>
    </filter>
    <linearGradient id="linearGradient2996" gradientTransform="matrix(.91270751 0 0 1 4.889661 2.6)" gradientUnits="userSpaceOnUse" x1="56" x2="56.75" y1="83.5" y2="83.5">
      <stop offset="0" stop-color="#475259"/>
      <stop offset="1" stop-color="#475259" stop-opacity="0"/>
    </linearGradient>
    <radialGradient id="radialGradient5815-7" cx="52.197342" cy="61.875" gradientTransform="matrix(1.7937448 0 0 1.9999994 -41.441211 -63.749964)" gradientUnits="userSpaceOnUse" r="3.75" xlink:href="#linearGradient4029"/>
    <mask id="mask5823-9" maskUnits="userSpaceOnUse">
      <rect fill="#fff" filter="url(#filter5819-0)" height="8.485281" transform="matrix(.625 0 0 .625 17.1875 22.5)" width="20.771261" x="52.679455" y="51.190525"/>
    </mask>
    <filter id="filter5819-0" height="1.098045" width="1.040052" x="-.020026" y="-.049023">
      <feGaussianBlur stdDeviation=".17332075"/>
    </filter>
    <filter id="filter5571" height="1.486364" width="1.405303" x="-.202652" y="-.243182">
      <feGaussianBlur stdDeviation=".22390053"/>
    </filter>
    <clipPath id="clipPath5847-3">
      <path d="m56 53.59375c0-3.313709 2.686291-6 6-6s6 2.686291 6 6h-6z"/>
    </clipPath>
    <filter id="filter5853" height="1.255924" width="1.127962" x="-.063981" y="-.127962">
      <feGaussianBlur stdDeviation=".31990521"/>
    </filter>
    <radialGradient id="radialGradient3806" cx="145.125" cy="83.49929" fx="145.41389" fy="84.533798" gradientTransform="matrix(7.898504 .0000003 -.0000005 15.828734 -1083.766 -1235.5889)" gradientUnits="userSpaceOnUse" r="2.875">
      <stop offset="0" stop-color="#c3fbfd"/>
      <stop offset="1" stop-color="#c3fbfd" stop-opacity="0"/>
    </radialGradient>
    <radialGradient id="radialGradient3334" cx="64" cy="27.5" gradientTransform="matrix(1.1369885 0 0 1.6353946 -8.767265 -33.473349)" gradientUnits="userSpaceOnUse" r="36.5" xlink:href="#linearGradient3336"/>
    <linearGradient id="linearGradient3336">
      <stop offset="0" stop-color="#06f"/>
      <stop offset="1" stop-color="#06f" stop-opacity="0"/>
    </linearGradient>
    <filter id="filter3348" height="1.055731" width="1.0805" x="-.04025" y="-.027865">
      <feGaussianBlur stdDeviation=".895"/>
    </filter>
    <radialGradient id="radialGradient3330" cx="64" cy="17.436096" fx="73.001312" fy="33.273273" gradientTransform="matrix(7.0118332 0 0 4.4076124 -255.67296 171.42056)" gradientUnits="userSpaceOnUse" r="35.84375" xlink:href="#linearGradient5919"/>
    <linearGradient id="linearGradient5919">
      <stop offset="0" stop-color="#fff"/>
      <stop offset=".5" stop-color="#78c9ff" stop-opacity=".498039"/>
      <stop offset="1" stop-color="#fff" stop-opacity="0"/>
    </linearGradient>
    <radialGradient id="radialGradient3319" cx="64" cy="27.5" gradientTransform="matrix(2.3483691 0 0 3.3777914 -86.295621 -81.389262)" gradientUnits="userSpaceOnUse" r="36.5" xlink:href="#linearGradient5919"/>
    <filter id="filter3309" height="1.034962" width="1.0505" x="-.02525" y="-.017481">
      <feGaussianBlur stdDeviation=".445"/>
    </filter>
    <radialGradient id="radialGradient3303" cx="64" cy="-.735085" fy="10.298304" gradientTransform="matrix(7.0118332 0 0 4.4076124 -255.67296 171.42056)" gradientUnits="userSpaceOnUse" r="35.84375" xlink:href="#linearGradient5919"/>
    <filter id="filter3284" height="1.080903" width="1.146924" x="-.073462" y="-.040452">
      <feGaussianBlur stdDeviation="1.3468071"/>
    </filter>
    <radialGradient id="radialGradient3208" cx="64" cy="82.564697" fy="89.949318" gradientTransform="matrix(1.6936868 .00000002 0 1.154912 -44.395952 -6.937901)" gradientUnits="userSpaceOnUse" r="36" xlink:href="#linearGradient3336"/>
    <filter id="filter3202" height="1.107915" width="1.155878" x="-.077939" y="-.053958">
      <feGaussianBlur stdDeviation="2.1290203"/>
    </filter>
    <radialGradient id="radialGradient3184" cx="64" cy="82.564697" fy="89.949318" gradientTransform="matrix(.9105521 0 0 1.3152418 5.724668 -20.175479)" gradientUnits="userSpaceOnUse" r="36" xlink:href="#linearGradient3336"/>
    <radialGradient id="radialGradient3153" cx="64" cy="64" fy="54.987789" gradientTransform="matrix(3.5174022 0 0 5.080692 -32.029388 -4.0462)" gradientUnits="userSpaceOnUse" r="36" xlink:href="#linearGradient3336"/>
    <radialGradient id="radialGradient3360" cx="48.704403" cy="14.174014" fy="15.586639" gradientTransform="matrix(2.5953486 0 0 2.0009208 66.67946 180.63892)" gradientUnits="userSpaceOnUse" r="20.327044">
      <stop offset="0" stop-color="#dceaff"/>
      <stop offset="1" stop-color="#dceaff" stop-opacity="0"/>
    </radialGradient>
    <radialGradient id="radialGradient3364" cx="48.704403" cy="14.174014" fy="15.586639" gradientTransform="matrix(4.9584354 0 0 -2.1978698 -48.413273 463.33705)" gradientUnits="userSpaceOnUse" r="20.327044" xlink:href="#linearGradient3336"/>
    <radialGradient id="radialGradient3141" cx="48.704403" cy="42.525261" fy="52.241333" gradientTransform="matrix(5.0984797 -.00000023 .00000032 7.1378715 -55.234053 44.54683)" gradientUnits="userSpaceOnUse" r="20.327044">
      <stop offset="0" stop-color="#0081ec"/>
      <stop offset="1" stop-color="#003871"/>
    </radialGradient>
    <filter id="filter3446" height="1.359499" width="1.134812" x="-.067406" y="-.17975">
      <feGaussianBlur stdDeviation="2.24687"/>
    </filter>
  </defs>
  <g transform="matrix(2 0 0 2 -7.131256 -7.981231)">
    <path d="m66.78125 29c-22.650408 0-41.03125 18.380842-41.03125 41.03125s18.380842 41 41.03125 41 41-18.349592 41-41-18.349592-41.03125-41-41.03125zm0 6.15625c20.941864 0 37.90625 16.651886 37.90625 37.59375s-16.964386 37.90625-37.90625 37.90625-37.9375-16.964386-37.9375-37.90625 16.995636-37.59375 37.9375-37.59375z" fill="#0092b4" filter="url(#filter4011)" transform="matrix(.94056095 0 0 .94056095 4.768486 1.474163)"/>
    <path d="m67.3 30.25c-20.634026 0-37.36121 16.727184-37.36121 37.36121 0 18.790108 13.883399 34.3221 31.94442 36.95129-17.118449-2.61564-30.246183-17.403448-30.246183-35.253054 0-19.696115 15.966857-35.662972 35.662973-35.662972s35.66297 15.966857 35.66297 35.662972c0 17.849606-13.127731 32.637414-30.24618 35.253054 18.061021-2.62919 31.94442-18.161182 31.94442-36.95129 0-20.634026-16.727184-37.36121-37.36121-37.36121z" fill="#d9ffff"/>
    <path d="m66.5 29.71875c-22.308966 0-40.40625 18.097284-40.40625 40.40625 0 20.3156 15.016305 37.11949 34.548828 39.96289a.53038309.53038309 0 0 0 .15625-1.04883c-18.015229-2.75266-31.830078-18.310998-31.830078-37.10156 0-20.734726 16.796524-37.53125 37.53125-37.53125s37.53125 16.796524 37.53125 37.53125c0 18.790562-13.814849 34.3489-31.830078 37.10156a.53038309.53038309 0 0 0 .15625 1.04883c19.532523-2.8434 34.548828-19.64729 34.548828-39.96289 0-22.308966-18.097284-40.40625-40.40625-40.40625z" fill="url(#linearGradient4005)" transform="matrix(.93157563 0 0 .93157563 5.350221 2.033487)"/>
    <path d="m66.78125 29.708984c-22.267356 0-40.322266 18.05491-40.322266 40.322266 0 9.946388 3.618657 19.029637 9.589844 26.054688-4.942848-6.486718-7.914062-14.556052-7.914062-23.335938 0-21.324945 17.329287-38.302734 38.646484-38.302734s38.61523 16.978494 38.61523 38.302734c0 8.789208-2.97155 16.865138-7.917964 23.355469 5.973634-7.027503 9.593754-16.118855 9.593754-26.074219 0-22.268007-18.023664-40.322266-40.29102-40.322266z" fill="#0092b4" filter="url(#filter4011)" transform="matrix(1.405015 0 0 1.405015 -26.241076 -31.044875)"/>
    <path d="m66.375 11.902344c-30.841991 0-55.847656 25.005665-55.847656 55.847656 0 28.085872 20.751621 51.29271 47.748047 55.22266a.03564482.03564482 0 0 0 .01172-.0703c-25.554935-3.90472-45.158205-25.974309-45.158205-52.62111 0-29.403384 23.842709-53.246094 53.246094-53.246094s53.24609 23.84271 53.24609 53.246094c0 26.646801-19.60327 48.71639-45.158199 52.62109a.03564482.03564482 0 0 0 .01172.0703c26.996429-3.92993 47.748049-27.136768 47.748049-55.22264 0-30.841991-25.005669-55.847656-55.84766-55.847656z" fill="#d9ffff" transform="translate(.8)"/>
    <path d="m66.5 30.041016c-22.134872 0-40.083984 17.949112-40.083984 40.083984 0 20.156826 14.910266 36.82965 34.287109 39.65039.111397.0164.227759-.0702.244141-.18164.01638-.1114-.07025-.22775-.181641-.24414a.32194704.32194704 0 0 1 -.002 0c-18.169814-2.7763-32.117141-18.46361-32.117141-37.41211 0-20.908574 16.944942-37.853516 37.853516-37.853516s37.85352 16.944942 37.85352 37.853516c0 18.9485-13.947331 34.63581-32.117192 37.41211a.32194704.32194704 0 0 1 -.002 0c-.111395.0164-.198022.13274-.181641.24414.01638.1114.132744.19801.244141.18164 19.37689-2.82074 34.287152-19.493564 34.287152-39.65039 0-22.134872-17.949108-40.083984-40.08398-40.083984z" fill="url(#linearGradient4005)" transform="matrix(1.3915926 0 0 1.3915926 -25.372077 -30.209353)"/>
    <path d="m65.75625 46.03125c-11.590544.590394-20.84375 10.235258-20.84375 21.96875 0 12.111993 9.856757 21.96875 21.96875 21.96875 12.111992 0 21.96875-9.856757 21.96875-21.96875s-9.856757-21.96875-21.96875-21.96875c-.3785 0-.751111-.01904-1.125 0zm1.125 6.84375c10.179169 0 18.40625 8.195831 18.40625 18.375s-8.227081 18.40625-18.40625 18.40625c-10.17917 0-18.40625-8.227081-18.40625-18.40625s8.22708-18.375 18.40625-18.375z" fill="#0092b4" filter="url(#filter4011)"/>
    <path d="m66.894194 46.466399c-11.878405 0-21.533601 9.655197-21.533601 21.5336 0 11.878405 9.655196 21.533601 21.533601 21.533601 11.878403 0 21.5336-9.655196 21.5336-21.533601 0-11.878403-9.655197-21.5336-21.5336-21.5336zm0 4.874208c10.412158 0 18.8419 8.429742 18.8419 18.8419 0 10.412159-8.429742 18.841901-18.8419 18.841901-10.412161 0-18.841901-8.429741-18.841901-18.841901 0-10.412159 8.42974-18.8419 18.841901-18.8419z" fill="#d9ffff"/>
    <path d="m62 40.513672c-10.744396 0-19.486328 8.741933-19.486328 19.486328 0 10.744396 8.741932 19.486328 19.486328 19.486328 10.744395 0 19.486328-8.741932 19.486328-19.486328 0-10.744395-8.741933-19.486328-19.486328-19.486328zm0 3.410156c9.441049 0 17.076172 7.635123 17.076172 17.076172s-7.635123 17.076172-17.076172 17.076172c-9.44105 0-17.076172-7.635123-17.076172-17.076172s7.635122-17.076172 17.076172-17.076172z" fill="url(#linearGradient4053)" transform="matrix(1.1042872 0 0 1.1042872 -1.571613 1.742768)"/>
  </g>
  <g transform="matrix(2 0 0 2 2.6724 2.914474)">
    <path d="m79.927862 105.21877c0 1.57938-9.090369 2.7597-20.303907 2.7597-11.213539 0-20.303908-1.18032-20.303908-2.7597 0-1.57937 10.516044-2.95971 20.303908-2.95971s20.303907 1.38034 20.303907 2.95971z" filter="url(#filter5459)" stroke="#000" transform="matrix(1.2163428 0 0 1.2919712 -9.859365 -15.658687)"/>
    <path d="m37.332404 115.12179v5.15889c0 2.03697 11.347755 3.54675 25.332702 3.54675 13.984946 0 25.332702-1.50978 25.332702-3.54675v-5.15889z" fill="url(#linearGradient5483)"/>
    <path d="m87.985789 115.12182c0 2.03696-11.33704 3.55925-25.321987 3.55925-13.984946 0-25.321985-1.52229-25.321985-3.55925 0-2.03695 13.115067-3.8172 25.321985-3.8172 12.20692 0 25.321987 1.78025 25.321987 3.8172z" fill="url(#linearGradient5499)"/>
    <path d="m39.3125 105.21875v4c0 1.57938 9.098961 2.75 20.3125 2.75 11.213538 0 20.3125-1.17062 20.3125-2.75v-4c0 1.57938-9.098962 2.75-20.3125 2.75-11.213539 0-20.3125-1.17062-20.3125-2.75z" fill="url(#linearGradient5481)" filter="url(#filter5431)" mask="url(#mask5477-2)" opacity=".565217" transform="matrix(1.2471483 0 0 1.2897234 -11.696119 -15.422403)"/>
    <path d="m37.996711 114.35c-.417959.25441-.660466.51884-.660466.78546 0 .0122-.000817.022 0 .0342 16.741903.59569 33.668149.42882 50.657722 0 .000817-.0122 0-.0219 0-.0342 0-.26662-.242507-.53105-.660466-.78546-5.769399.18447-11.538798.33223-17.308196.4138-10.676198.15096-21.352396.0753-32.028594-.4138z" fill="#d3feff" opacity=".570048"/>
    <path d="m60.403217 99.979128c0 .469062-3.042915 1.208412-6.373201 1.208412s-6.030016-.65054-6.030016-1.1196c0-.469052 3.123139-.578995 6.030016-.578995 2.906879 0 6.373201.02113 6.373201.490183z" filter="url(#filter5526)" transform="matrix(.95489695 0 0 1.0928203 10.490284 5.34118)"/>
    <path d="m62.143076 56.390042c-3.024446 0-6.141795 2.89625-6.141795 6.209958v52c0 .46864 2.486213 1 5.476245 1 2.990034 0 6.691607-.51888 6.691607-.9996 0-12 0-36.0004 0-52.0004 0-3.313708-3.001611-6.209958-6.026057-6.209958z" fill="url(#linearGradient5491)"/>
    <path clip-path="url(#clipPath5542-2)" d="m48 119.5c0 20-.277275-20.152086-.277275-19.520872 0 .468642 3.001272 1.020872 6.277275 1.020872 3.276004 0 6.33977-.54015 6.33977-1.020872 0-12-.33977 35.520872-.33977 19.520872z" fill="url(#linearGradient5552)" filter="url(#filter5548)" opacity=".772947" transform="matrix(.96449919 0 0 1.0928203 9.971474 5.34118)"/>
    <path d="m62.077756 56.386889c-3.024446 0-6.076475 2.899403-6.076475 6.213111v52c0 .46864 2.486213 1 5.476245 1 2.990034 0 6.691607-.51888 6.691607-.9996 0-12 0-36.0004 0-52.0004 0-3.313708-3.066931-6.213111-6.091377-6.213111z" fill="url(#linearGradient2996)"/>
    <path d="m52.1875 60a3.75 3.75 0 0 1 7.5 0h-3.75z" fill="url(#radialGradient5815-7)" mask="url(#mask5823-9)" transform="matrix(1.6225501 0 0 1.7774931 -28.676835 -43.594247)"/>
    <path d="m65.76093 44.428818a1.3258255 1.1048545 0 1 1 -2.651651 0 1.3258255 1.1048545 0 1 1 2.651651 0z" fill="#cafdff" filter="url(#filter5571)" opacity=".570048" transform="matrix(.78420886 0 0 .94856956 13.18136 17.076823)"/>
    <path d="m65.76093 44.428818a1.3258255 1.1048545 0 1 1 -2.651651 0 1.3258255 1.1048545 0 1 1 2.651651 0z" fill="#e2feff" filter="url(#filter5571)" transform="matrix(.44222282 0 0 .43149185 35.217265 39.554069)"/>
    <path clip-path="url(#clipPath5847-3)" d="m62 47.19375c-3.313709 0-6 2.686291-6 6h.03125c.250453-3.083385 2.82083-5.3 5.96875-5.3s5.718297 2.216615 5.96875 5.3h.03125c0-3.313709-2.686291-6-6-6z" fill="#39464d" filter="url(#filter5853)" transform="matrix(1.0140943 0 0 1.1110835 -.789275 3.506254)"/>
    <path d="m61.705703 56.6c2.411656.160101 3.116897 4.124442 3.116897 7.335v50.6654c0 .46525-2.558621.96781-4.942311.9996.07962.0009.147721 0 .228176 0 2.74086 0 5.626842-.51888 5.626842-.9996 0-12 0-34.6654 0-50.6654 0-3.313708-1.029014-7.335-3.801427-7.335-.07678 0-.15224-.0041-.228177 0z" fill="url(#radialGradient3806)" opacity=".661836"/>
  </g>
  <g transform="matrix(.66666666 0 0 .66666666 67.887522 -43.618263)">
    <path d="m106 113a40 15 0 1 1 -80 0 40 15 0 1 1 80 0z" fill="#002447" filter="url(#filter3446)" transform="matrix(1.0610089 0 0 .84880746 123.05776 327.20286)"/>
    <path d="m273.08436 321.11809c0 96-35.84 112.00001-80 112.00001s-80.00001-16.00001-80.00001-112.00001 35.84001-112 80.00001-112 80 16 80 112z" fill="url(#radialGradient3141)"/>
    <path d="m272.41746 321.11808c0-95.19972-35.54123-111.06632-79.3331-111.06632s-79.3331 15.8666-79.3331 111.06632c0 95.19971 35.54123 111.06633 79.3331 111.06633s79.3331-15.86662 79.3331-111.06633z" fill="url(#radialGradient3364)" opacity=".801932"/>
    <path d="m273.16872 321.11809c0 96.10124-35.8778 112.11808-80.08436 112.11808-44.20657 0-80.08436-16.01684-80.08436-112.11808 0-96.10122 35.87779-112.11809 80.08436-112.11809 44.20656 0 80.08436 16.01687 80.08436 112.11809z" fill="url(#radialGradient3360)"/>
    <path d="m265.08436 321.11809c0 89.14286-32.256 104-72 104s-72.00001-14.85714-72.00001-104 32.25601-104 72.00001-104 72 14.85714 72 104z" fill="url(#radialGradient3153)"/>
    <path d="m96.779874 64.000002c0 40.584608-14.685382 47.348708-32.779872 47.348708-18.094492 0-32.779876-6.7641-32.779876-47.348708s14.685384-47.348709 32.779876-47.348709c18.09449 0 32.779872 6.764101 32.779872 47.348709z" fill="url(#radialGradient3184)" filter="url(#filter3202)" opacity=".990338" transform="matrix(1.6316194 0 0 1.3860322 88.660718 258.57555)"/>
    <path d="m96.779874 64.000002c0 40.584608-14.685382 47.348708-32.779872 47.348708-18.094492 0-32.779876-6.7641-32.779876-47.348708s14.685384-47.348709 32.779876-47.348709c18.09449 0 32.779872 6.764101 32.779872 47.348709z" fill="url(#radialGradient3208)" filter="url(#filter3202)" opacity=".990338" transform="matrix(1.6316194 0 0 -1.3860322 88.660718 381.98767)"/>
    <path d="m60 24v13.3125 18.59375l-5 4-15-12v8l10 8-10 8v8l15-12 5 4v32l24-19.96875-24-20 24-19.96875zm4 10.28125 12 9.625-12 9.625zm0 40 12 9.625-12 9.625z" fill="#fff" fill-rule="evenodd" filter="url(#filter3284)" transform="matrix(2 0 0 2 65.084354 193.11809)"/>
    <path d="m185.08436 241.11809v26.625 37.1875l-10 8-30.00001-24v16l20 16-20 16v16l30.00001-24 10 8v64l48-39.9375-48-40 48-39.9375zm8 20.5625 24 19.25-24 19.25zm0 80 24 19.25-24 19.25z" fill="#fff" fill-rule="evenodd"/>
    <path d="m193.08436 217.11809c-37.58041 0-68.43616 13.31611-71.68751 90.125 20.23869-3.28972 43.89548-5.125 71.68751-5.125 27.79202 0 51.44881 1.83528 71.6875 5.125-3.25134-76.8089-34.1071-90.125-71.6875-90.125z" fill="url(#radialGradient3303)" opacity=".652174"/>
    <path d="m100 64.000002c0 44.571428-16.127998 51.999998-35.999998 51.999998-19.872001 0-36.000002-7.42857-36.000002-51.999998 0-44.57143 16.128001-52.000002 36.000002-52.000002 19.872 0 35.999998 7.428572 35.999998 52.000002z" style="fill:none;stroke-width:1.5;stroke-linecap:round;stroke-linejoin:round;stroke:url(#radialGradient3319);filter:url(#filter3309)" transform="matrix(2 0 0 2 65.084354 193.11809)"/>
    <path d="m193.08436 217.11809c-37.58041 0-68.43616 13.31611-71.68751 90.125 20.23869-3.28972 43.89548-5.125 71.68751-5.125 27.79202 0 51.44881 1.83528 71.6875 5.125-3.25134-76.8089-34.1071-90.125-71.6875-90.125zm0 4.0625c36.52535 0 67.63435 13.26567 70.79442 85.5169-19.67051-3.09451-43.78264-4.91313-70.79442-4.91313-27.01179 0-50.01701 1.11422-69.68751 4.20873 3.16007-72.25123 33.16215-84.8125 69.68751-84.8125z" fill="url(#radialGradient3330)" opacity=".652174"/>
    <path d="m100 64.000002c0 44.571428-16.127998 51.999998-35.999998 51.999998-19.872001 0-36.000002-7.42857-36.000002-51.999998 0-44.57143 16.128001-52.000002 36.000002-52.000002 19.872 0 35.999998 7.428572 35.999998 52.000002z" style="fill:none;stroke-width:1.5;stroke-linecap:round;stroke-linejoin:round;stroke:url(#radialGradient3334);filter:url(#filter3348)" transform="matrix(2 0 0 -2 65.084354 449.11809)"/>
  </g>
</svg>
