<svg height="256" width="256" xmlns="http://www.w3.org/2000/svg" xmlns:xlink="http://www.w3.org/1999/xlink">
  <defs>
    <linearGradient id="lg1">
      <stop offset="0" stop-color="#fff"/>
      <stop offset="1" stop-color="#fff" stop-opacity="0"/>
    </linearGradient>
    <linearGradient id="linearGradient4029">
      <stop offset="0" stop-color="#a6abbc"/>
      <stop offset=".1185369" stop-color="#908e9d"/>
      <stop offset=".35540977" stop-color="#fdfafd"/>
      <stop offset=".58570284" stop-color="#e4e3e7"/>
      <stop offset=".63834125" stop-color="#1f2e35"/>
      <stop offset=".90153337" stop-color="#c8c8c9"/>
      <stop offset="1" stop-color="#e1e2e2"/>
    </linearGradient>
    <filter id="filter5431" height="1.199579" width="1.033161" x="-.01658" y="-.099789">
      <feGaussianBlur stdDeviation=".28065758"/>
    </filter>
    <filter id="filter5459" height="1.359109" width="1.050579" x="-.025289" y="-.179554">
      <feGaussianBlur stdDeviation=".21956031"/>
    </filter>
    <filter id="filter5473" height="1.483792" width="1.104201" x="-.052101" y="-.241896">
      <feGaussianBlur stdDeviation=".6735782"/>
    </filter>
    <mask id="mask5477" maskUnits="userSpaceOnUse">
      <path d="m39.3125 100.91875v6c0 1.57938 9.098961 2.75 20.3125 2.75 11.213538 0 20.3125-1.17062 20.3125-2.75v-6z" fill="#fff" filter="url(#filter5473)" stroke="#fff"/>
    </mask>
    <linearGradient id="linearGradient5481" gradientUnits="userSpaceOnUse" x1="39.3125" x2="79.9375" xlink:href="#linearGradient4029" y1="108.59375" y2="108.59375"/>
    <linearGradient id="linearGradient5483" gradientTransform="matrix(1.2471483 0 0 1.2897234 -11.696119 -15.422403)" gradientUnits="userSpaceOnUse" x1="39.3125" x2="79.9375" xlink:href="#linearGradient4029" y1="104.59375" y2="104.59375"/>
    <linearGradient id="linearGradient5491" gradientTransform="matrix(.67974446 0 0 .74475607 23.388772 40.256302)" gradientUnits="userSpaceOnUse" x1="47.977589" x2="64.090324" xlink:href="#linearGradient4029" y1="60.163242" y2="60.163242"/>
    <linearGradient id="linearGradient5499" gradientTransform="matrix(1.0567451 0 0 1.0928203 5.567844 5.34118)" gradientUnits="userSpaceOnUse" x1="54.277924" x2="54.277924" y1="105.83116" y2="93.730415">
      <stop offset="0" stop-color="#f0eef2"/>
      <stop offset="1" stop-color="#ababb8"/>
    </linearGradient>
    <filter id="filter5526" height="1.458934" width="1.06285" x="-.031425" y="-.229467">
      <feGaussianBlur stdDeviation=".16240479"/>
    </filter>
    <clipPath id="clipPath5542">
      <path d="m77.992261 100.45626c0 1.86395-10.728263 3.25694-23.962245 3.25694s-23.962244-1.39299-23.962244-3.25694c0-1.863935 12.410814-3.492977 23.962244-3.492977 11.551432 0 23.962245 1.629042 23.962245 3.492977z"/>
    </clipPath>
    <filter id="filter5548" height="1.016408" width="1.035211" x="-.017606" y="-.008204">
      <feGaussianBlur stdDeviation=".092554194"/>
    </filter>
    <filter id="filter5571" height="1.486364" width="1.405303" x="-.202652" y="-.243182">
      <feGaussianBlur stdDeviation=".22390053"/>
    </filter>
    <radialGradient id="radialGradient5815" cx="52.197342" cy="61.875" gradientTransform="matrix(1.7937448 0 0 1.9999994 -41.441211 -63.749964)" gradientUnits="userSpaceOnUse" r="3.75" xlink:href="#linearGradient4029"/>
    <filter id="filter5819" height="1.098045" width="1.040052" x="-.020026" y="-.049023">
      <feGaussianBlur stdDeviation=".17332075"/>
    </filter>
    <mask id="mask5823" maskUnits="userSpaceOnUse">
      <rect fill="#fff" filter="url(#filter5819)" height="8.485281" transform="matrix(.625 0 0 .625 17.1875 22.5)" width="20.771261" x="52.679455" y="51.190525"/>
    </mask>
    <clipPath id="clipPath5847">
      <path d="m56 53.59375c0-3.313709 2.686291-6 6-6s6 2.686291 6 6h-6z"/>
    </clipPath>
    <filter id="filter5853" height="1.255924" width="1.127962" x="-.063981" y="-.127962">
      <feGaussianBlur stdDeviation=".31990521"/>
    </filter>
    <radialGradient id="radialGradient3806" cx="145.125" cy="83.49929" fx="145.41389" fy="84.533798" gradientTransform="matrix(7.898504 .0000003 -.0000005 15.828734 -1083.766 -1235.5889)" gradientUnits="userSpaceOnUse" r="2.875">
      <stop offset="0" stop-color="#c3fbfd"/>
      <stop offset="1" stop-color="#c3fbfd" stop-opacity="0"/>
    </radialGradient>
    <linearGradient id="linearGradient2996" gradientTransform="matrix(.91270751 0 0 1 4.889661 2.6)" gradientUnits="userSpaceOnUse" x1="56" x2="56.75" y1="83.5" y2="83.5">
      <stop offset="0" stop-color="#475259"/>
      <stop offset="1" stop-color="#475259" stop-opacity="0"/>
    </linearGradient>
    <linearGradient id="linearGradient3770" gradientUnits="userSpaceOnUse" x1="48.065352" x2="59.928814" xlink:href="#linearGradient4029" y1="70.463242" y2="70.463242"/>
    <linearGradient id="linearGradient3434" gradientUnits="userSpaceOnUse" x1="85.382858" x2="90.101303" xlink:href="#linearGradient3671" y1="326.13168" y2="160.76662"/>
    <linearGradient id="linearGradient3671">
      <stop offset="0" stop-color="#1a0000"/>
      <stop offset="1" stop-color="#a20000" stop-opacity="0"/>
    </linearGradient>
    <filter id="filter4068" height="1.024003" width="1.023997" x="-.011998" y="-.012002">
      <feGaussianBlur stdDeviation=".57539064"/>
    </filter>
    <linearGradient id="linearGradient3488" gradientUnits="userSpaceOnUse" x1="122.85225" x2="119.86441" y1="19.475834" y2="135.82658">
      <stop offset="0" stop-color="#bf0000"/>
      <stop offset="1" stop-color="#8c0000"/>
    </linearGradient>
    <linearGradient id="linearGradient3485" gradientUnits="userSpaceOnUse" x1="131.45216" x2="139.08775" xlink:href="#linearGradient3671" y1="149.4864" y2="-11.38382"/>
    <clipPath id="clipPath4258">
      <path d="m-826.90422 227.34375c-31.72515 0-57.53125 25.8061-57.53125 57.53125s25.8061 57.53125 57.53125 57.53125 57.5625-25.8061 57.5625-57.53125-25.83735-57.53125-57.5625-57.53125zm0 18.3125c7.04403 0 13.60447 1.91307 19.3125 5.15625l-53.375 53.375c-3.24318-5.70802-5.15625-12.26847-5.15625-19.3125 0-21.68803 17.53072-39.21875 39.21875-39.21875zm35.5625 22.78125c2.32832 5.00216 3.65625 10.55427 3.65625 16.4375 0 21.68803-17.53073 39.21875-39.21875 39.21875-5.88323.00001-11.43535-1.32793-16.4375-3.65625z"/>
    </clipPath>
    <radialGradient id="radialGradient3440" cx="-824.58069" cy="232.61047" gradientTransform="matrix(1 .00000072 -.00000077 1.0766255 .00018 -17.823295)" gradientUnits="userSpaceOnUse" r="23.9375" xlink:href="#lg1"/>
    <filter id="filter4134" height="1.131008" width="1.028818" x="-.014409" y="-.065504">
      <feGaussianBlur stdDeviation=".28743233"/>
    </filter>
    <radialGradient id="radialGradient3442" cx="-825.97125" cy="315.76404" gradientTransform="matrix(1 0 0 .3160957 0 222.83692)" gradientUnits="userSpaceOnUse" r="17.75" xlink:href="#lg1"/>
    <filter id="filter4202" height="1.255717" width="1.080831" x="-.040416" y="-.127859">
      <feGaussianBlur stdDeviation=".59781314"/>
    </filter>
    <radialGradient id="radialGradient3444" cx="-825.2254" cy="337.20309" gradientTransform="matrix(1 -.00000006 .00000015 2.4613106 -.000049 -487.55424)" gradientUnits="userSpaceOnUse" r="14.765625" xlink:href="#linearGradient3598"/>
    <linearGradient id="linearGradient3598">
      <stop offset="0" stop-color="#ffbfbf"/>
      <stop offset="1" stop-color="#ffbfbf" stop-opacity="0"/>
    </linearGradient>
    <filter id="filter4248" height="1.516112" width="1.108663" x="-.054331" y="-.258056">
      <feGaussianBlur stdDeviation=".66853052"/>
    </filter>
    <radialGradient id="radialGradient3446" cx="-830.375" cy="275.74124" gradientTransform="matrix(.383106 .3947293 -1.3121017 1.2734652 -149.51024 248.31073)" gradientUnits="userSpaceOnUse" r="18.125" xlink:href="#lg1"/>
    <filter id="filter4176" height="1.207484" width="1.1735" x="-.08675" y="-.103742">
      <feGaussianBlur stdDeviation="1.3102854"/>
    </filter>
    <radialGradient id="radialGradient3477" cx="-79.25" cy="81.75" gradientTransform="matrix(1.2632322 0 0 1.5245906 219.96344 -27.540841)" gradientUnits="userSpaceOnUse" r="43.5">
      <stop offset="0" stop-color="#f00"/>
      <stop offset="1" stop-color="#7f0000"/>
    </radialGradient>
    <linearGradient id="linearGradient3474" gradientUnits="userSpaceOnUse" x1="109.22887" x2="125.35371" xlink:href="#linearGradient3598" y1="-9.865048" y2="96.36927"/>
    <linearGradient id="linearGradient3471" gradientUnits="userSpaceOnUse" x1="108.9425" x2="125.06735" xlink:href="#lg1" y1="-10.080207" y2="96.154106"/>
    <linearGradient id="linearGradient3467" gradientUnits="userSpaceOnUse" x1="186.48245" x2="114.07419" xlink:href="#lg1" y1="105.06126" y2="39.021755"/>
    <filter id="filter4076" height="1.025969" width="1.025969" x="-.012985" y="-.012985">
      <feGaussianBlur stdDeviation=".27544051"/>
    </filter>
    <filter id="filter4055" height="1.015354" width="1.015354" x="-.007677" y="-.007677">
      <feGaussianBlur stdDeviation=".16412598"/>
    </filter>
    <linearGradient id="linearGradient934" gradientUnits="userSpaceOnUse" x1="80.021835" x2="83.016479" y1="344.78296" y2="238.20705">
      <stop offset="0" stop-color="#efa040"/>
      <stop offset="1" stop-color="#c0a331" stop-opacity="0"/>
    </linearGradient>
  </defs>
  <g transform="matrix(2 0 0 2 2.672399 3.637139)">
    <path d="m79.927862 105.21877c0 1.57938-9.090369 2.7597-20.303907 2.7597-11.213539 0-20.303908-1.18032-20.303908-2.7597 0-1.57937 10.516044-2.95971 20.303908-2.95971s20.303907 1.38034 20.303907 2.95971z" filter="url(#filter5459)" stroke="#000" transform="matrix(1.2163428 0 0 1.2919712 -9.859365 -15.658687)"/>
    <path d="m37.332404 115.12179v5.15889c0 2.03697 11.347755 3.54675 25.332702 3.54675 13.984946 0 25.332702-1.50978 25.332702-3.54675v-5.15889z" fill="url(#linearGradient5483)"/>
    <path d="m87.985789 115.12182c0 2.03696-11.33704 3.55925-25.321987 3.55925-13.984946 0-25.321985-1.52229-25.321985-3.55925 0-2.03695 13.115067-3.8172 25.321985-3.8172 12.20692 0 25.321987 1.78025 25.321987 3.8172z" fill="url(#linearGradient5499)"/>
    <path d="m39.3125 105.21875v4c0 1.57938 9.098961 2.75 20.3125 2.75 11.213538 0 20.3125-1.17062 20.3125-2.75v-4c0 1.57938-9.098962 2.75-20.3125 2.75-11.213539 0-20.3125-1.17062-20.3125-2.75z" fill="url(#linearGradient5481)" filter="url(#filter5431)" mask="url(#mask5477)" opacity=".565217" transform="matrix(1.2471483 0 0 1.2897234 -11.696119 -15.422403)"/>
    <path d="m37.996711 114.35c-.417959.25441-.660466.51884-.660466.78546 0 .0122-.000817.022 0 .0342 16.741903.59569 33.668149.42882 50.657722 0 .000817-.0122 0-.0219 0-.0342 0-.26662-.242507-.53105-.660466-.78546-5.769399.18447-11.538798.33223-17.308196.4138-10.676198.15096-21.352396.0753-32.028594-.4138z" fill="#d3feff" opacity=".570048"/>
    <path d="m60.403217 99.979128c0 .469062-3.042915 1.208412-6.373201 1.208412s-6.030016-.65054-6.030016-1.1196c0-.469052 3.123139-.578995 6.030016-.578995 2.906879 0 6.373201.02113 6.373201.490183z" filter="url(#filter5526)" transform="matrix(.95489695 0 0 1.0928203 10.490284 5.34118)"/>
    <path d="m62.143076 56.390042c-3.024446 0-6.141795 2.89625-6.141795 6.209958v52c0 .46864 2.486213 1 5.476245 1 2.990034 0 6.691607-.51888 6.691607-.9996 0-12 0-36.0004 0-52.0004 0-3.313708-3.001611-6.209958-6.026057-6.209958z" fill="url(#linearGradient5491)"/>
    <path clip-path="url(#clipPath5542)" d="m48 119.5c0 20-.277275-20.152086-.277275-19.520872 0 .468642 3.001272 1.020872 6.277275 1.020872 3.276004 0 6.33977-.54015 6.33977-1.020872 0-12-.33977 35.520872-.33977 19.520872z" fill="url(#linearGradient3770)" filter="url(#filter5548)" opacity=".772947" transform="matrix(.96449919 0 0 1.0928203 9.971474 5.34118)"/>
    <path d="m62.077756 56.386889c-3.024446 0-6.076475 2.899403-6.076475 6.213111v52c0 .46864 2.486213 1 5.476245 1 2.990034 0 6.691607-.51888 6.691607-.9996 0-12 0-36.0004 0-52.0004 0-3.313708-3.066931-6.213111-6.091377-6.213111z" fill="url(#linearGradient2996)"/>
    <path d="m52.1875 60a3.75 3.75 0 0 1 7.5 0h-3.75z" fill="url(#radialGradient5815)" mask="url(#mask5823)" transform="matrix(1.6225501 0 0 1.7774931 -28.676835 -43.594247)"/>
    <path d="m65.76093 44.428818a1.3258255 1.1048545 0 1 1 -2.651651 0 1.3258255 1.1048545 0 1 1 2.651651 0z" fill="#cafdff" filter="url(#filter5571)" opacity=".570048" transform="matrix(.78420886 0 0 .94856956 13.18136 17.076823)"/>
    <path d="m65.76093 44.428818a1.3258255 1.1048545 0 1 1 -2.651651 0 1.3258255 1.1048545 0 1 1 2.651651 0z" fill="#e2feff" filter="url(#filter5571)" transform="matrix(.44222282 0 0 .43149185 35.217265 39.554069)"/>
    <path clip-path="url(#clipPath5847)" d="m62 47.19375c-3.313709 0-6 2.686291-6 6h.03125c.250453-3.083385 2.82083-5.3 5.96875-5.3s5.718297 2.216615 5.96875 5.3h.03125c0-3.313709-2.686291-6-6-6z" fill="#39464d" filter="url(#filter5853)" transform="matrix(1.0140943 0 0 1.1110835 -.789275 3.506254)"/>
    <path d="m61.705703 56.6c2.411656.160101 3.116897 4.124442 3.116897 7.335v50.6654c0 .46525-2.558621.96781-4.942311.9996.07962.0009.147721 0 .228176 0 2.74086 0 5.626842-.51888 5.626842-.9996 0-12 0-34.6654 0-50.6654 0-3.313708-1.029014-7.335-3.801427-7.335-.07678 0-.15224-.0041-.228177 0z" fill="url(#radialGradient3806)" opacity=".661836"/>
  </g>
  <g transform="translate(70.515061 122.0563)">
    <path d="m76.035426 233.0006c-31.725152 0-57.53125 25.8061-57.53125 57.53125.000001 31.72515 25.806098 57.53125 57.53125 57.53125 31.725154 0 57.562504-25.8061 57.562504-57.53125s-25.83735-57.53125-57.562504-57.53125zm0 18.3125c7.044031 0 13.604476 1.91307 19.3125 5.15625l-53.375 53.375c-3.24318-5.70802-5.15625-12.26847-5.15625-19.3125 0-21.68803 17.530722-39.21875 39.21875-39.21875zm35.562504 22.78125c2.32832 5.00216 3.65625 10.55427 3.65625 16.4375-.00001 21.68803-17.530727 39.21875-39.218754 39.21875-5.883228.00001-11.435346-1.32793-16.4375-3.65625z" fill="url(#linearGradient3434)" filter="url(#filter4068)" transform="matrix(1.0117554 0 0 1.0117554 42.919345 -225.60819)"/>
    <path d="m119.8486 9.8314298c-32.098096 0-58.207555 26.1094612-58.207555 58.2075532.000001 32.098087 26.109459 58.207547 58.207555 58.207547 32.09809 0 58.23917-26.10946 58.23917-58.207547 0-32.098093-26.14108-58.2075532-58.23917-58.2075532zm0 18.5277702c7.12683 0 13.7644 1.93556 19.53952 5.216864l-54.00244 54.002444c-3.281305-5.77512-5.216864-12.41269-5.216864-19.539525 0-21.942982 17.736802-39.679783 39.679784-39.679783zm35.98055 23.049053c2.35569 5.060963 3.69923 10.67834 3.69923 16.63073-.00001 21.942982-17.7368 39.679777-39.67978 39.679777-5.95239.00001-11.56977-1.34354-16.63073-3.69923z" fill="url(#linearGradient3488)"/>
    <path d="m119.8486 9.8314298c-32.098096 0-58.207555 26.1094612-58.207555 58.2075532.000001 32.098087 26.109459 58.207547 58.207555 58.207547 32.09809 0 58.23917-26.10946 58.23917-58.207547 0-32.098093-26.14108-58.2075532-58.23917-58.2075532zm0 18.5277702c7.12683 0 13.7644 1.93556 19.53952 5.216864l-54.00244 54.002444c-3.281305-5.77512-5.216864-12.41269-5.216864-19.539525 0-21.942982 17.736802-39.679783 39.679784-39.679783zm35.98055 23.049053c2.35569 5.060963 3.69923 10.67834 3.69923 16.63073-.00001 21.942982-17.7368 39.679777-39.67978 39.679777-5.95239.00001-11.56977-1.34354-16.63073-3.69923z" fill="url(#linearGradient3485)"/>
    <g clip-path="url(#clipPath4258)" transform="matrix(1.0117554 0 0 1.0117554 956.26406 -220.18484)">
      <path d="m-825.54942 227.34485c-8.16294 0-15.92831 1.73432-22.96875 4.8125 5.96271 3.49921 14.81106 5.71875 24.71875 5.71875 9.06819 0 17.25916-1.84557 23.15625-4.84375-7.54096-3.63248-15.9936-5.6875-24.90625-5.6875z" fill="url(#radialGradient3440)" filter="url(#filter4134)"/>
      <path d="m-809.84989 320.21985c-5.14454 2.47589-10.90024 3.875-17 3.875-3.67701 0-7.22884-.51127-10.59375-1.46875l-4.15625 6.25c10.11424 2.62546 21.40166 3.68667 35.5 1l-3.71875-9.65625z" fill="url(#radialGradient3442)" filter="url(#filter4202)"/>
      <path d="m-813.3501 336.18981c-7.60948 2.10607-15.21895 3.25517-22.82843.68629l-3.8125 4.25c3.88712.83152 7.93065 1.28125 12.0625 1.28125 6.0881 0 11.95529-.95862 17.46875-2.71875z" fill="url(#radialGradient3444)" filter="url(#filter4248)" opacity=".436"/>
      <path d="m-816.83807 260.0636-25.0625 25.0625 2.75 5.25 33.5-28z" fill="url(#radialGradient3446)" filter="url(#filter4176)"/>
    </g>
    <path d="m119.85229 13.405304c-30.158403 0-54.634789 24.476386-54.634789 54.634791s24.476386 54.634785 54.634789 54.634785c30.15841 0 54.6348-24.47638 54.6348-54.634785s-24.47639-54.634791-54.6348-54.634791zm0 11.369095c9.4208 0 18.15765 3.013564 25.26465 8.132055l-60.398293 60.398286c-5.11849-7.106995-8.132056-15.843846-8.132056-25.264645 0-23.882668 19.383033-43.265696 43.265699-43.265696zm36.87059 20.68542c4.03919 6.577999 6.39511 14.300464 6.39511 22.580276 0 23.882668-19.38303 43.265705-43.2657 43.265705-8.27981 0-16.00228-2.35593-22.580273-6.39512z" fill="url(#radialGradient3477)"/>
    <path d="m119.85229 13.405304c-30.158404 0-54.634791 24.476386-54.634791 54.634791 0 .423602.02202.843399.03162 1.264694 3.700191.744157 7.507811 1.361197 11.445482 1.897042-.07495-1.040955-.09485-2.102125-.09485-3.161736 0-23.882668 19.369875-43.252543 43.252539-43.252543 9.4208 0 18.15528 3.007169 25.26228 8.12566l-40.18567 40.18566c.0848.000101.16805 0 .25294 0 8.79542 0 17.30013-.514842 25.38873-1.486016l26.14756-26.147553c3.47118 5.652971 5.70225 12.157728 6.26024 19.1285 3.90129-1.296241 7.54439-2.730657 10.9396-4.268343-3.75344-26.507779-26.527-46.920156-54.06568-46.920156z" fill="url(#linearGradient3474)"/>
    <path d="m119.56594 13.190144c-30.158407 0-54.634799 24.476386-54.634799 54.634791 0 .158755-.0044.316305 0 .47426.289655-29.910413 24.656319-54.097296 54.634799-54.097296 27.20768 0 49.74958 19.929254 53.90759 45.971636.0511-.02306.10708-.04014.15809-.06323-3.75344-26.507794-26.52701-46.920161-54.06568-46.920161zm-14.92339 59.693569c.0848.00009.16805 0 .25293 0 .25489 0 .50443.00086.75882 0l38.97155-39.477432zm-28.329161-4.458048c-.0013.138185 0 .272536 0 .411026 0 .720653.03377 1.43473.06324 2.14998.01046.0014.02117-.0014.03162 0-.06071-.843258-.0877-1.702794-.09485-2.561006z" fill="url(#linearGradient3471)"/>
    <path d="m146.78946 20.500076c13.50693 8.343229 23.09818 22.39466 25.42036 38.794496-2.99313 1.355571-5.89105 3.229979-9.27653 4.401137.0524.463434.0195.316356.0569.784111 3.90129-1.296251 7.34204-2.730667 10.73725-4.268343-2.40729-17.00089-12.64404-31.502026-26.93799-39.7114zm-26.72299 3.66129c-23.88267 0-44.466652 18.965173-44.466652 42.847842 0 1.059612-.688327 2.12078-.613376 3.161736-3.401289-.462868-6.706057-.998876-9.92785-1.612486.0067.210425-.0048.421821 0 .632347 3.700192.744156 7.507812 1.361186 11.445483 1.897041-.07495-1.040954-.09485-2.102124-.09485-3.161734 0-23.88267 19.369875-43.252545 43.252545-43.252545 7.61371 0 14.77357 1.95115 20.99392 5.406568-6.56176-4.004578-12.34602-5.918769-20.58922-5.918769zm8.79595 46.420603c-7.40479.88906-15.16949 1.375086-23.17553 1.454398l-.94852.948521c.0848.000091.16806 0 .25294 0 8.79542 0 17.30014-.514852 25.38874-1.486016l25.51521-25.515207z" fill="url(#linearGradient3467)"/>
    <path d="m76.039077 236.53295c-29.808 0-53.999999 24.192-53.999999 54s24.191999 54 53.999999 54c29.808003 0 54.000003-24.192 54.000003-54s-24.192-54-54.000003-54zm0 11.237c9.311341 0 17.946678 2.97855 24.971103 8.03757l-59.696536 59.69653c-5.05902-7.02442-8.037572-15.65976-8.037572-24.9711 0-23.60518 19.157826-42.763 42.763005-42.763zm36.442193 20.44508c3.99226 6.50157 6.32081 14.13431 6.32081 22.31792 0 23.60518-19.157824 42.76301-42.763003 42.76301-8.183608 0-15.816351-2.32855-22.317919-6.32081z" style="fill:none;stroke-width:1.48257;stroke-linecap:square;stroke-dashoffset:4.15;stroke-opacity:.440909;filter:url(#filter4076);stroke:url(#linearGradient934)" transform="matrix(1.0117554 0 0 1.0117554 42.919345 -225.90819)"/>
    <path d="m76.039077 236.53295c-29.808 0-53.999999 24.192-53.999999 54s24.191999 54 53.999999 54c29.808003 0 54.000003-24.192 54.000003-54s-24.192-54-54.000003-54zm0 11.237c9.311341 0 17.946678 2.97855 24.971103 8.03757l-59.696536 59.69653c-5.05902-7.02442-8.037572-15.65976-8.037572-24.9711 0-23.60518 19.157826-42.763 42.763005-42.763zm36.442193 20.44508c3.99226 6.50157 6.32081 14.13431 6.32081 22.31792 0 23.60518-19.157824 42.76301-42.763003 42.76301-8.183608 0-15.816351-2.32855-22.317919-6.32081z" style="fill:none;stroke-width:.870481;stroke-linecap:square;stroke-dashoffset:4.15;stroke-opacity:.440909;stroke:url(#linearGradient934);filter:url(#filter4055)" transform="matrix(1.0117554 0 0 1.0117554 42.919345 -225.90819)"/>
  </g>
</svg>
