<svg height="256" width="256" xmlns="http://www.w3.org/2000/svg" xmlns:xlink="http://www.w3.org/1999/xlink">
  <defs>
    <linearGradient id="lg1">
      <stop offset="0" stop-color="#fff"/>
      <stop offset="1" stop-color="#fff" stop-opacity="0"/>
    </linearGradient>
    <linearGradient id="linearGradient5751" xlink:href="#lg1"/>
    <linearGradient id="linearGradient4029">
      <stop offset="0" stop-color="#a6abbc"/>
      <stop offset=".1185369" stop-color="#908e9d"/>
      <stop offset=".35540977" stop-color="#fdfafd"/>
      <stop offset=".58570284" stop-color="#e4e3e7"/>
      <stop offset=".63834125" stop-color="#1f2e35"/>
      <stop offset=".90153337" stop-color="#c8c8c9"/>
      <stop offset="1" stop-color="#e1e2e2"/>
    </linearGradient>
    <filter id="filter5431" height="1.199579" width="1.033161" x="-.01658" y="-.099789">
      <feGaussianBlur stdDeviation=".28065758"/>
    </filter>
    <filter id="filter5459" height="1.359109" width="1.050579" x="-.025289" y="-.179554">
      <feGaussianBlur stdDeviation=".21956031"/>
    </filter>
    <filter id="filter5473" height="1.483792" width="1.104201" x="-.052101" y="-.241896">
      <feGaussianBlur stdDeviation=".6735782"/>
    </filter>
    <mask id="mask5477" maskUnits="userSpaceOnUse">
      <path d="m39.3125 100.91875v6c0 1.57938 9.098961 2.75 20.3125 2.75 11.213538 0 20.3125-1.17062 20.3125-2.75v-6z" fill="#fff" filter="url(#filter5473)" stroke="#fff"/>
    </mask>
    <linearGradient id="linearGradient5481" gradientUnits="userSpaceOnUse" x1="39.3125" x2="79.9375" xlink:href="#linearGradient4029" y1="108.59375" y2="108.59375"/>
    <linearGradient id="linearGradient5483" gradientTransform="matrix(1.2471483 0 0 1.2897234 -11.696119 -15.422403)" gradientUnits="userSpaceOnUse" x1="39.3125" x2="79.9375" xlink:href="#linearGradient4029" y1="104.59375" y2="104.59375"/>
    <linearGradient id="linearGradient5491" gradientTransform="matrix(.67974446 0 0 .74475607 23.388772 40.256302)" gradientUnits="userSpaceOnUse" x1="47.977589" x2="64.090324" xlink:href="#linearGradient4029" y1="60.163242" y2="60.163242"/>
    <linearGradient id="linearGradient5499" gradientTransform="matrix(1.0567451 0 0 1.0928203 5.567844 5.34118)" gradientUnits="userSpaceOnUse" x1="54.277924" x2="54.277924" y1="105.83116" y2="93.730415">
      <stop offset="0" stop-color="#f0eef2"/>
      <stop offset="1" stop-color="#ababb8"/>
    </linearGradient>
    <filter id="filter5526" height="1.458934" width="1.06285" x="-.031425" y="-.229467">
      <feGaussianBlur stdDeviation=".16240479"/>
    </filter>
    <clipPath id="clipPath5542">
      <path d="m77.992261 100.45626c0 1.86395-10.728263 3.25694-23.962245 3.25694s-23.962244-1.39299-23.962244-3.25694c0-1.863935 12.410814-3.492977 23.962244-3.492977 11.551432 0 23.962245 1.629042 23.962245 3.492977z"/>
    </clipPath>
    <linearGradient gradientUnits="userSpaceOnUse" x1="51.997799" x2="51.997799" xlink:href="#linearGradient5751" y1="99.062103" y2="105.50121"/>
    <filter id="filter5548" height="1.016408" width="1.035211" x="-.017606" y="-.008204">
      <feGaussianBlur stdDeviation=".092554194"/>
    </filter>
    <filter id="filter5571" height="1.486364" width="1.405303" x="-.202652" y="-.243182">
      <feGaussianBlur stdDeviation=".22390053"/>
    </filter>
    <radialGradient id="radialGradient5815" cx="52.197342" cy="61.875" gradientTransform="matrix(1.7937448 0 0 1.9999994 -41.441211 -63.749964)" gradientUnits="userSpaceOnUse" r="3.75" xlink:href="#linearGradient4029"/>
    <filter id="filter5819" height="1.098045" width="1.040052" x="-.020026" y="-.049023">
      <feGaussianBlur stdDeviation=".17332075"/>
    </filter>
    <mask id="mask5823" maskUnits="userSpaceOnUse">
      <rect fill="#fff" filter="url(#filter5819)" height="8.485281" transform="matrix(.625 0 0 .625 17.1875 22.5)" width="20.771261" x="52.679455" y="51.190525"/>
    </mask>
    <clipPath id="clipPath5847">
      <path d="m56 53.59375c0-3.313709 2.686291-6 6-6s6 2.686291 6 6h-6z"/>
    </clipPath>
    <radialGradient cx="52.197342" cy="61.875" gradientTransform="matrix(3.2 0 0 3.199999 -111.03149 -144.40619)" gradientUnits="userSpaceOnUse" r="3.75" xlink:href="#linearGradient4029"/>
    <filter id="filter5853" height="1.255924" width="1.127962" x="-.063981" y="-.127962">
      <feGaussianBlur stdDeviation=".31990521"/>
    </filter>
    <radialGradient id="radialGradient3806" cx="145.125" cy="83.49929" fx="145.41389" fy="84.533798" gradientTransform="matrix(7.898504 .0000003 -.0000005 15.828734 -1083.766 -1235.5889)" gradientUnits="userSpaceOnUse" r="2.875">
      <stop offset="0" stop-color="#c3fbfd"/>
      <stop offset="1" stop-color="#c3fbfd" stop-opacity="0"/>
    </radialGradient>
    <linearGradient id="linearGradient2996" gradientTransform="matrix(.91270751 0 0 1 4.889661 2.6)" gradientUnits="userSpaceOnUse" x1="56" x2="56.75" y1="83.5" y2="83.5">
      <stop offset="0" stop-color="#475259"/>
      <stop offset="1" stop-color="#475259" stop-opacity="0"/>
    </linearGradient>
    <linearGradient id="linearGradient3770" gradientUnits="userSpaceOnUse" x1="48.06535240344" x2="59.9288138882" xlink:href="#linearGradient4029" y1="70.46324167038" y2="70.46324167038"/>
    <linearGradient id="linearGradient3788" gradientUnits="userSpaceOnUse" x1="65.223007" x2="65.223007" xlink:href="#linearGradient5751" y1="40.360008" y2="50.357944"/>
    <filter id="filter4011" height="1.191087" width="1.191124" x="-.095562" y="-.095544">
      <feGaussianBlur stdDeviation="1.7494816"/>
    </filter>
    <linearGradient id="linearGradient4005" gradientUnits="userSpaceOnUse" x1="106.90625" x2="106.90625" y1="38.611053" y2="69.909103">
      <stop offset="0" stop-color="#e5fbff"/>
      <stop offset="1" stop-color="#49ddff" stop-opacity="0"/>
    </linearGradient>
    <linearGradient id="linearGradient3581" gradientUnits="userSpaceOnUse" x1="55.531013" x2="55.531013" y1="118.80805" y2="17.668362">
      <stop offset="0" stop-color="#344f69"/>
      <stop offset="1" stop-color="#344f69" stop-opacity="0"/>
    </linearGradient>
    <filter id="filter3571" height="1.05127" width="1.052721" x="-.026361" y="-.025635">
      <feGaussianBlur stdDeviation="1.1715214"/>
    </filter>
    <filter id="filter6134" height="1.1224" width="1.1224" x="-.0612" y="-.0612">
      <feGaussianBlur stdDeviation="1.4061355"/>
    </filter>
    <radialGradient id="radialGradient3844" cx="178.67446297152" cy="-20.36559300324" gradientUnits="userSpaceOnUse" r="60.97750590447">
      <stop offset="0" stop-color="#0081ec"/>
      <stop offset="1" stop-color="#003871"/>
    </radialGradient>
    <radialGradient id="radialGradient3846" cx="-166.53223" cy="65.938202" gradientTransform="matrix(1 0 0 .6578174 0 22.562908)" gradientUnits="userSpaceOnUse" r="31.190229" xlink:href="#lg1"/>
    <clipPath id="clipPath6080-3">
      <circle cx="-166.53223" cy="93.331604" filter="url(#filter6074-6)" r="30.690229"/>
    </clipPath>
    <filter id="filter6074-6" height="1.149692" width="1.149692" x="-.074846" y="-.074846">
      <feGaussianBlur stdDeviation="1.9142018"/>
    </filter>
    <radialGradient id="radialGradient3874" cx="178.67561" cy="33.344582" gradientUnits="userSpaceOnUse" r="48.538506">
      <stop offset="0" stop-color="#0081ec"/>
      <stop offset="1" stop-color="#004c98"/>
    </radialGradient>
    <linearGradient id="linearGradient3869" gradientUnits="userSpaceOnUse" x1="186.12886" x2="192.96213" xlink:href="#linearGradient5919-7" y1="-74.484558" y2="6.798794"/>
    <linearGradient id="linearGradient5919-7">
      <stop offset="0" stop-color="#fff"/>
      <stop offset=".5" stop-color="#78c9ff" stop-opacity=".498039"/>
      <stop offset="1" stop-color="#fff" stop-opacity="0"/>
    </linearGradient>
    <filter id="filter5956" height="1.089982" width="1.04574" x="-.02287" y="-.044991">
      <feGaussianBlur stdDeviation=".55418773"/>
    </filter>
    <linearGradient id="linearGradient3865" gradientUnits="userSpaceOnUse" x1="174.19484" x2="174.19484" xlink:href="#linearGradient5919-7" y1="-159.74007" y2="9.671667"/>
    <linearGradient id="linearGradient3862" gradientUnits="userSpaceOnUse" x1="231.27029" x2="141.22015" xlink:href="#linearGradient5919-7" y1="38.749645" y2="-25.269569"/>
    <linearGradient id="linearGradient3859" gradientUnits="userSpaceOnUse" x1="174.19484" x2="174.19484" xlink:href="#linearGradient5919-7" y1="-66.391182" y2="-23.07552"/>
    <filter id="filter6166" height="1.097534" width="1.050783" x="-.025391" y="-.048767">
      <feGaussianBlur stdDeviation=".14350697"/>
    </filter>
  </defs>
  <g transform="matrix(2 0 0 2 -146.01941 106.93811)">
    <path d="m66.78125 29c-22.650408 0-41.03125 18.380842-41.03125 41.03125s18.380842 41 41.03125 41 41-18.349592 41-41-18.349592-41.03125-41-41.03125zm0 6.15625c20.941864 0 37.90625 16.651886 37.90625 37.59375s-16.964386 37.90625-37.90625 37.90625-37.9375-16.964386-37.9375-37.90625 16.995636-37.59375 37.9375-37.59375z" fill="#0092b4" filter="url(#filter4011)" transform="matrix(.94056095 0 0 .94056095 74.21256 -56.346839)"/>
    <path d="m136.74408-27.571002c-20.63403 0-37.361215 16.727184-37.361215 37.3612101 0 18.7901079 13.883395 34.3220979 31.944425 36.9512879-17.11845-2.61564-30.24619-17.403446-30.24619-35.253052 0-19.6961149 15.96686-35.662972 35.66298-35.662972 19.69611 0 35.66296 15.9668571 35.66296 35.662972 0 17.849606-13.12773 32.637412-30.24617 35.253052 18.06102-2.62919 31.94441-18.16118 31.94441-36.9512879 0-20.6340261-16.72718-37.3612101-37.3612-37.3612101z" fill="#d9ffff"/>
    <path d="m66.5 29.71875c-22.308966 0-40.40625 18.097284-40.40625 40.40625 0 20.3156 15.016305 37.11949 34.548828 39.96289a.53038309.53038309 0 0 0 .15625-1.04883c-18.015229-2.75266-31.830078-18.310998-31.830078-37.10156 0-20.734726 16.796524-37.53125 37.53125-37.53125s37.53125 16.796524 37.53125 37.53125c0 18.790562-13.814849 34.3489-31.830078 37.10156a.53038309.53038309 0 0 0 .15625 1.04883c19.532523-2.8434 34.548828-19.64729 34.548828-39.96289 0-22.308966-18.097284-40.40625-40.40625-40.40625z" fill="url(#linearGradient4005)" transform="matrix(.93157563 0 0 .93157563 74.794296 -55.787514)"/>
    <path d="m66.78125 29.708984c-22.267356 0-40.322266 18.05491-40.322266 40.322266 0 9.946388 3.618657 19.029637 9.589844 26.054688-4.942848-6.486718-7.914062-14.556052-7.914062-23.335938 0-21.324945 17.329287-38.302734 38.646484-38.302734s38.61523 16.978494 38.61523 38.302734c0 8.789208-2.97155 16.865138-7.917964 23.355469 5.973634-7.027503 9.593754-16.118855 9.593754-26.074219 0-22.268007-18.023664-40.322266-40.29102-40.322266z" fill="#0092b4" filter="url(#filter4011)" transform="matrix(1.405015 0 0 1.405015 43.202999 -88.865877)"/>
    <path d="m66.375 11.902344c-30.841991 0-55.847656 25.005665-55.847656 55.847656 0 28.085872 20.751621 51.29271 47.748047 55.22266a.03564482.03564482 0 0 0 .01172-.0703c-25.554935-3.90472-45.158205-25.974309-45.158205-52.62111 0-29.403384 23.842709-53.246094 53.246094-53.246094s53.24609 23.84271 53.24609 53.246094c0 26.646801-19.60327 48.71639-45.158199 52.62109a.03564482.03564482 0 0 0 .01172.0703c26.996429-3.92993 47.748049-27.136768 47.748049-55.22264 0-30.841991-25.005669-55.847656-55.84766-55.847656z" fill="#d9ffff" transform="translate(70.244075 -57.821001)"/>
    <path d="m66.5 30.041016c-22.134872 0-40.083984 17.949112-40.083984 40.083984 0 20.156826 14.910266 36.82965 34.287109 39.65039.111397.0164.227759-.0702.244141-.18164.01638-.1114-.07025-.22775-.181641-.24414a.32194704.32194704 0 0 1 -.002 0c-18.169814-2.7763-32.117141-18.46361-32.117141-37.41211 0-20.908574 16.944942-37.853516 37.853516-37.853516s37.85352 16.944942 37.85352 37.853516c0 18.9485-13.947331 34.63581-32.117192 37.41211a.32194704.32194704 0 0 1 -.002 0c-.111395.0164-.198022.13274-.181641.24414.01638.1114.132744.19801.244141.18164 19.37689-2.82074 34.287152-19.493564 34.287152-39.65039 0-22.134872-17.949108-40.083984-40.08398-40.083984z" fill="url(#linearGradient4005)" transform="matrix(1.3915926 0 0 1.3915926 44.071998 -88.030355)"/>
    <path d="m135.20033-11.789751c-11.59055.590394-20.84375 10.235258-20.84375 21.96875 0 12.111993 9.85675 21.96875 21.96875 21.96875 12.11199 0 21.96875-9.856757 21.96875-21.96875 0-12.111993-9.85676-21.96875-21.96875-21.96875-.37851 0-.75112-.01904-1.125 0zm1.125 6.84375c10.17916 0 18.40625 8.195831 18.40625 18.375s-8.22709 18.40625-18.40625 18.40625c-10.17917 0-18.40625-8.227081-18.40625-18.40625s8.22708-18.375 18.40625-18.375z" fill="#0092b4" filter="url(#filter4011)"/>
    <path d="m136.33827-11.354602c-11.87841 0-21.5336 9.6551967-21.5336 21.5336 0 11.878404 9.65519 21.5336 21.5336 21.5336 11.8784 0 21.5336-9.655196 21.5336-21.5336 0-11.8784033-9.6552-21.5336-21.5336-21.5336zm0 4.8742074c10.41216 0 18.8419 8.4297419 18.8419 18.8419006 0 10.412158-8.42974 18.8419-18.8419 18.8419s-18.8419-8.429741-18.8419-18.8419c0-10.4121598 8.42974-18.8419006 18.8419-18.8419006z" fill="#d9ffff"/>
    <path d="m62 40.513672c-10.744396 0-19.486328 8.741933-19.486328 19.486328 0 10.744396 8.741932 19.486328 19.486328 19.486328 10.744395 0 19.486328-8.741932 19.486328-19.486328 0-10.744395-8.741933-19.486328-19.486328-19.486328zm0 3.410156c9.441049 0 17.076172 7.635123 17.076172 17.076172s-7.635123 17.076172-17.076172 17.076172c-9.44105 0-17.076172-7.635123-17.076172-17.076172s7.635122-17.076172 17.076172-17.076172z" fill="url(#linearGradient3788)" transform="matrix(1.1042872 0 0 1.1042872 67.872462 -56.078234)"/>
  </g>
  <g transform="matrix(2 0 0 2 2.672399 3.637139)">
    <path d="m79.927862 105.21877c0 1.57938-9.090369 2.7597-20.303907 2.7597-11.213539 0-20.303908-1.18032-20.303908-2.7597 0-1.57937 10.516044-2.95971 20.303908-2.95971s20.303907 1.38034 20.303907 2.95971z" filter="url(#filter5459)" stroke="#000" transform="matrix(1.2163428 0 0 1.2919712 -9.859365 -15.658687)"/>
    <path d="m37.332404 115.12179v5.15889c0 2.03697 11.347755 3.54675 25.332702 3.54675 13.984946 0 25.332702-1.50978 25.332702-3.54675v-5.15889z" fill="url(#linearGradient5483)"/>
    <path d="m87.985789 115.12182c0 2.03696-11.33704 3.55925-25.321987 3.55925-13.984946 0-25.321985-1.52229-25.321985-3.55925 0-2.03695 13.115067-3.8172 25.321985-3.8172 12.20692 0 25.321987 1.78025 25.321987 3.8172z" fill="url(#linearGradient5499)"/>
    <path d="m39.3125 105.21875v4c0 1.57938 9.098961 2.75 20.3125 2.75 11.213538 0 20.3125-1.17062 20.3125-2.75v-4c0 1.57938-9.098962 2.75-20.3125 2.75-11.213539 0-20.3125-1.17062-20.3125-2.75z" fill="url(#linearGradient5481)" filter="url(#filter5431)" mask="url(#mask5477)" opacity=".565217" transform="matrix(1.2471483 0 0 1.2897234 -11.696119 -15.422403)"/>
    <path d="m37.996711 114.35c-.417959.25441-.660466.51884-.660466.78546 0 .0122-.000817.022 0 .0342 16.741903.59569 33.668149.42882 50.657722 0 .000817-.0122 0-.0219 0-.0342 0-.26662-.242507-.53105-.660466-.78546-5.769399.18447-11.538798.33223-17.308196.4138-10.676198.15096-21.352396.0753-32.028594-.4138z" fill="#d3feff" opacity=".570048"/>
    <path d="m60.403217 99.979128c0 .469062-3.042915 1.208412-6.373201 1.208412s-6.030016-.65054-6.030016-1.1196c0-.469052 3.123139-.578995 6.030016-.578995 2.906879 0 6.373201.02113 6.373201.490183z" filter="url(#filter5526)" transform="matrix(.95489695 0 0 1.0928203 10.490284 5.34118)"/>
    <path d="m62.143076 56.390042c-3.024446 0-6.141795 2.89625-6.141795 6.209958v52c0 .46864 2.486213 1 5.476245 1 2.990034 0 6.691607-.51888 6.691607-.9996 0-12 0-36.0004 0-52.0004 0-3.313708-3.001611-6.209958-6.026057-6.209958z" fill="url(#linearGradient5491)"/>
    <path clip-path="url(#clipPath5542)" d="m48 119.5c0 20-.277275-20.152086-.277275-19.520872 0 .468642 3.001272 1.020872 6.277275 1.020872 3.276004 0 6.33977-.54015 6.33977-1.020872 0-12-.33977 35.520872-.33977 19.520872z" fill="url(#linearGradient3770)" filter="url(#filter5548)" opacity=".772947" transform="matrix(.96449919 0 0 1.0928203 9.971474 5.34118)"/>
    <path d="m62.077756 56.386889c-3.024446 0-6.076475 2.899403-6.076475 6.213111v52c0 .46864 2.486213 1 5.476245 1 2.990034 0 6.691607-.51888 6.691607-.9996 0-12 0-36.0004 0-52.0004 0-3.313708-3.066931-6.213111-6.091377-6.213111z" fill="url(#linearGradient2996)"/>
    <path d="m52.1875 60a3.75 3.75 0 0 1 7.5 0h-3.75z" fill="url(#radialGradient5815)" mask="url(#mask5823)" transform="matrix(1.6225501 0 0 1.7774931 -28.676835 -43.594247)"/>
    <path d="m65.76093 44.428818a1.3258255 1.1048545 0 1 1 -2.651651 0 1.3258255 1.1048545 0 1 1 2.651651 0z" fill="#cafdff" filter="url(#filter5571)" opacity=".570048" transform="matrix(.78420886 0 0 .94856956 13.18136 17.076823)"/>
    <path d="m65.76093 44.428818a1.3258255 1.1048545 0 1 1 -2.651651 0 1.3258255 1.1048545 0 1 1 2.651651 0z" fill="#e2feff" filter="url(#filter5571)" transform="matrix(.44222282 0 0 .43149185 35.217265 39.554069)"/>
    <path clip-path="url(#clipPath5847)" d="m62 47.19375c-3.313709 0-6 2.686291-6 6h.03125c.250453-3.083385 2.82083-5.3 5.96875-5.3s5.718297 2.216615 5.96875 5.3h.03125c0-3.313709-2.686291-6-6-6z" fill="#39464d" filter="url(#filter5853)" transform="matrix(1.0140943 0 0 1.1110835 -.789275 3.506254)"/>
    <path d="m61.705703 56.6c2.411656.160101 3.116897 4.124442 3.116897 7.335v50.6654c0 .46525-2.558621.96781-4.942311.9996.07962.0009.147721 0 .228176 0 2.74086 0 5.626842-.51888 5.626842-.9996 0-12 0-34.6654 0-50.6654 0-3.313708-1.029014-7.335-3.801427-7.335-.07678 0-.15224-.0041-.228177 0z" fill="url(#radialGradient3806)" opacity=".661836"/>
  </g>
  <g transform="matrix(1.7598473 0 0 1.7598473 -49.848195 119.09715)">
    <g transform="matrix(.60501391 0 0 .60501391 25.291242 39.091227)">
      <ellipse cx="60.122658" cy="61.886696" fill="url(#linearGradient3581)" filter="url(#filter3571)" rx="53.330559" ry="54.839916" transform="matrix(1.0578512 0 0 1.0578512 114.67446 -66.131753)"/>
      <circle cx="-164.53831" cy="95.063271" fill="#003972" filter="url(#filter6134)" r="27.571283" transform="matrix(2.1561308 0 0 2.1561308 533.4934 -207.72498)"/>
      <circle cx="178.67447" cy="-2.660688" fill="url(#radialGradient3844)" r="59.999996"/>
      <circle clip-path="url(#clipPath6080-3)" cx="-166.53223" cy="93.331604" fill="url(#radialGradient3846)" filter="url(#filter6074-6)" r="30.690229" transform="matrix(1.9550195 0 0 1.9550195 504.24822 -185.12579)"/>
      <circle cx="178.67563" cy="-2.900274" fill="url(#radialGradient3874)" r="47.760403"/>
      <path d="m178.7104-50.643599c-26.36375 0-47.74031 21.376575-47.74031 47.7403194 0 2.454357.1557 4.883055.51334 7.238048.002.01654-.002.03479 0 .05134 10.03804 1.605554 20.72771 2.412686 31.82686 2.412686 23.71232 0 45.60009-3.962388 63.14043-10.626075-.49318-25.9377004-21.6854-46.8163144-47.74032-46.8163184z" fill="url(#linearGradient3869)" opacity=".892193"/>
      <path d="m-134.09375 98.625c-.003.166656-.0312.332675-.0312.5 0 16.04925 13.0445 29.0625 29.09375 29.0625 16.049249 0 29.062503-13.01325 29.0625-29.0625 0-.167107.0028-.33356 0-.5-.267346 15.81875-13.180358 28.5625-29.0625 28.5625-15.88193 0-28.79481-12.74404-29.0625-28.5625z" fill="#007fea" filter="url(#filter5956)" transform="matrix(1.6426776 0 0 1.6426776 351.23876 -165.23141)"/>
      <path d="m178.68173-50.60967c-26.36374 0-47.74031 21.376578-47.74031 47.7403274 0 .241785-.003.477418 0 .718664.49271-25.9372284 21.68538-46.8163184 47.74031-46.8163004 25.50084 0 46.35165 20.005143 47.68899 45.1736264.0148-.0056.0365.0056.0513 0-.49316-25.9376964-21.68539-46.8162994-47.74031-46.8163174z" fill="url(#linearGradient3865)"/>
      <path d="m196.57137-47.188968c15.83846 7.549927 28.86186 24.314865 29.21599 42.9413824-17.54032 6.663703-41.43725 9.880943-65.14956 9.88096-10.16291 0-19.96984-.706604-29.2602-2.053339.0336.253104.0131.518512.0513.770007.002.01654-.002.03479 0 .05134 10.03803 1.605536 20.72773 2.412668 31.82688 2.412668 23.71232 0 45.60009-3.962355 63.14041-10.626057-.37329-19.6344694-12.59866-36.4025804-29.82482-43.3769614z" fill="url(#linearGradient3862)"/>
      <path d="m178.68173-50.60967c-26.36374 0-47.74031 21.376578-47.74031 47.7403274 0 .241785-.003.477418 0 .718664.49271-25.9372284 21.68538-47.4733884 47.74031-47.4733704 25.50084 0 46.35165 20.662213 47.68899 45.8306964.0148-.0056.0365.0056.0513 0-.49316-25.9376964-21.68539-46.8162994-47.74031-46.8163174z" fill="url(#linearGradient3859)"/>
    </g>
    <g transform="matrix(.60501391 0 0 .60501391 23.624538 20.815124)">
      <g id="g1882" transform="translate(-1 26.341481)">
        <path d="m150.50858-9.305524c-5.69053 0-10.26673 4.906304-10.26673 10.985408v.308002c0 6.0791 4.5762 10.9854 10.26673 10.985405h1.69402c5.69053 0 10.31806-4.906302 10.31806-10.985405v-.308002c0-6.079102-4.62753-10.985405-10.31806-10.985408z" style="fill:#fff;stroke:#000;stroke-width:.164268;stroke-linecap:round;stroke-linejoin:round;stroke-dashoffset:1.0878"/>
        <path d="m-261.34375 76.8125c-3.46417 0-6.25 2.986771-6.25 6.6875v.1875c0 .06295-.002.124974 0 .1875.10756-3.598634 2.85458-6.468748 6.25-6.46875h1.03125c3.39544.000002 6.17249 2.87012 6.28125 6.46875.002-.06253 0-.124549 0-.1875v-.1875c-.00001-3.700727-2.81706-6.687498-6.28125-6.6875z" fill="#120b0b" fill-opacity=".234568" filter="url(#filter6166)" transform="matrix(1.6426776 0 0 1.6426776 579.78795 -135.4837)"/>
        <path d="m140.27757 1.166547c-.007.170375 0 .340989 0 .513337v.308002c.00001 6.0791 4.5762 10.9854 10.26673 10.985405h1.694c5.69058 0 10.31808-4.906302 10.31808-10.985405v-.308002c0-.172348.007-.342962 0-.513337-.25217 5.839225-4.78885 10.472074-10.31808 10.47207h-1.694c-5.5292-.000009-10.0173-4.63284-10.26673-10.47207z" fill="#fff"/>
      </g>
      <use transform="translate(31.125)" xlink:href="#g1882"/>
      <use transform="translate(62.25)" xlink:href="#g1882"/>
    </g>
  </g>
</svg>
