<svg height="256" width="256" xmlns="http://www.w3.org/2000/svg" xmlns:xlink="http://www.w3.org/1999/xlink">
  <defs>
    <linearGradient id="linearGradient4382">
      <stop offset="0" stop-color="#fff"/>
      <stop offset="1" stop-color="#fff" stop-opacity="0"/>
    </linearGradient>
    <filter id="filter10932" height="2.434456" width="1.021885" x="-.010942" y="-.717228">
      <feGaussianBlur stdDeviation=".52204369"/>
    </filter>
    <filter id="filter10940" height="6.062723" width="1.075522" x="-.037761" y="-2.531362">
      <feGaussianBlur stdDeviation="1.8644418"/>
    </filter>
    <linearGradient id="linearGradient6390" gradientUnits="userSpaceOnUse" x1="65.595146" x2="65.595146" y1="107.73524" y2="104.58904">
      <stop offset="0"/>
      <stop offset="1" stop-opacity="0"/>
    </linearGradient>
    <linearGradient id="linearGradient4224" gradientTransform="matrix(-3.2025836 0 0 3.2025836 306.44682 -39.975637)" gradientUnits="userSpaceOnUse" x1="12.0625" x2="90.789825" xlink:href="#linearGradient4382" y1="65.265625" y2="65.265625"/>
    <linearGradient id="linearGradient5004" gradientUnits="userSpaceOnUse" spreadMethod="reflect" x1="8.499999" x2="128.499999" y1="103.850045" y2="103.850045">
      <stop offset="0" stop-color="#b3b3b3"/>
      <stop offset=".05" stop-color="#f7f6f5"/>
      <stop offset="1" stop-color="#f7f7f5"/>
    </linearGradient>
    <linearGradient id="linearGradient5084" gradientUnits="userSpaceOnUse" x1="64.25" x2="64.25" y1="105.92502" y2="73.92502">
      <stop offset="0" stop-color="#ebeae9"/>
      <stop offset="1" stop-color="#ebeae9" stop-opacity="0"/>
    </linearGradient>
    <filter id="filter5098" height="1.033621" width="1.006473" x="-.003237" y="-.01681">
      <feGaussianBlur stdDeviation=".15365625"/>
    </filter>
    <linearGradient id="linearGradient5143" gradientUnits="userSpaceOnUse" x1="160.729231" x2="225.267079" y1="53.07932" y2="164.8621">
      <stop offset="0" stop-color="#222"/>
      <stop offset="1" stop-color="#101010"/>
    </linearGradient>
    <radialGradient id="radialGradient5177" cx="17.962499" cy="45.187543" gradientUnits="userSpaceOnUse" r="1.1875">
      <stop offset="0" stop-color="#b6eaff"/>
      <stop offset="1" stop-color="#24bfff"/>
    </radialGradient>
    <linearGradient id="XMLID_4_" gradientTransform="translate(-80)" gradientUnits="userSpaceOnUse" x1="40.527802" x2="52.981899" y1="55.75" y2="64.646004">
      <stop offset="0" stop-color="#fff" stop-opacity="0"/>
      <stop offset=".8935" stop-color="#fff"/>
    </linearGradient>
    <linearGradient id="linearGradient7108" gradientTransform="matrix(1.2631579 0 0 1.2631579 53.355264 14.932284)" gradientUnits="userSpaceOnUse" x1="71.716301" x2="71.716301" xlink:href="#XMLID_4_" y1="26.351336" y2="32.00581"/>
    <linearGradient id="linearGradient7112" gradientTransform="matrix(.77894736 0 0 .77894736 87.43158 -69.494145)" gradientUnits="userSpaceOnUse" x1="71.716301" x2="71.716301" xlink:href="#XMLID_4_" y1="26.351336" y2="32.00581"/>
    <clipPath id="clipPath7399">
      <rect height="73" rx="0" width="96" x="165.90663" y="29.000002"/>
    </clipPath>
    <filter id="filter7403" height="1.060764" width="1.046875" x="-.023438" y="-.030382">
      <feGaussianBlur stdDeviation="1.0253906"/>
    </filter>
    <linearGradient id="linearGradient3188" gradientUnits="userSpaceOnUse" x1="128.5" x2="128.5" y1="199.8501" y2="53.85006">
      <stop offset="0" stop-color="#0a2b8f"/>
      <stop offset="1" stop-color="#074ed9"/>
    </linearGradient>
    <filter id="filter3467" height="1.029683" width="1.045411" x="-.022705" y="-.014847">
      <feGaussianBlur stdDeviation=".4349886"/>
    </filter>
    <linearGradient id="linearGradient3310" gradientUnits="userSpaceOnUse" x1="91.626404" x2="66.225941" y1="123.73875" y2="28.942928">
      <stop offset="0" stop-color="#ffe644"/>
      <stop offset="1" stop-color="#978100"/>
    </linearGradient>
    <linearGradient id="linearGradient3296" gradientUnits="userSpaceOnUse" x1="120.373123" x2="120.373123" y1="120.42788" y2="46.089832">
      <stop offset="0" stop-color="#917900"/>
      <stop offset="1" stop-color="#ffdf2c" stop-opacity="0"/>
    </linearGradient>
    <radialGradient id="radialGradient3312" cx="40.37532" cy="78.100922" fx="40.671131" fy="84.917496" gradientTransform="matrix(1.4429896 .00000008 -.00000008 1.3852701 -6.365246 -31.441692)" gradientUnits="userSpaceOnUse" r="50">
      <stop offset="0" stop-color="#ffdb26"/>
      <stop offset="1" stop-color="#8c6b00"/>
    </radialGradient>
    <linearGradient id="linearGradient3314" gradientUnits="userSpaceOnUse" x1="115.785248" x2="115.992706" y1="112.5" y2="44.287056">
      <stop offset="0" stop-color="#fffbe0"/>
      <stop offset="1" stop-color="#fdffbf" stop-opacity="0"/>
    </linearGradient>
    <filter id="filter3435" height="1.030587" width="1.042437" x="-.02247" y="-.015293">
      <feGaussianBlur stdDeviation=".395"/>
    </filter>
    <radialGradient id="radialGradient4088" cx="71.775223" cy="16.0865" gradientTransform="matrix(.9650814 .2619502 -.9201984 3.3902106 9.309062 -57.693239)" gradientUnits="userSpaceOnUse" r="3.15625" xlink:href="#linearGradient4382"/>
    <filter id="filter3681" height="1.157943" width="1.244782" x="-.122391" y="-.078971">
      <feGaussianBlur stdDeviation=".321914"/>
    </filter>
    <radialGradient id="radialGradient4035" cx="71.775223" cy="16.0865" gradientTransform="matrix(.9650814 .2619502 -.9201984 3.3902106 17.309062 -57.693239)" gradientUnits="userSpaceOnUse" r="3.15625">
      <stop offset="0" stop-color="#fff980"/>
      <stop offset="1" stop-color="#fff980" stop-opacity="0"/>
    </radialGradient>
    <radialGradient id="radialGradient4037" cx="11.578125" cy="64.53125" gradientTransform="matrix(6.5079869 0 0 1.510917 -63.772161 -32.970115)" gradientUnits="userSpaceOnUse" r="3.578125" xlink:href="#linearGradient4382"/>
    <filter id="filter3722" height="1.598266" width="1.90393" x="-.451965" y="-.299133">
      <feGaussianBlur stdDeviation="1.3476562"/>
    </filter>
    <linearGradient id="linearGradient3316" gradientUnits="userSpaceOnUse" x1="43.629562" x2="54.758774" y1="11.479795" y2="70.827744">
      <stop offset="0" stop-color="#fff6bf"/>
      <stop offset="1" stop-color="#fff6bf" stop-opacity="0"/>
    </linearGradient>
    <linearGradient id="linearGradient3344" gradientUnits="userSpaceOnUse" x1="84" x2="62.345421" xlink:href="#linearGradient4382" y1="67.238144" y2="40.171875"/>
    <linearGradient id="linearGradient3356" gradientUnits="userSpaceOnUse" x1="70.548481" x2="74.758774" xlink:href="#linearGradient4382" y1="13.921767" y2="70.827744"/>
  </defs>
  <rect fill-rule="evenodd" filter="url(#filter10932)" height="1.746872" rx="1" ry=".873436" transform="matrix(2 0 0 2 0 4.000005)" width="114.50002" x="7.25" y="105.43273"/>
  <rect fill="url(#linearGradient6390)" fill-rule="evenodd" filter="url(#filter10940)" height="1.767689" opacity=".595455" rx="1" ry=".883845" transform="matrix(2 0 0 2 0 4.000005)" width="118.5" x="4.75" y="105.83263"/>
  <rect fill="url(#linearGradient5004)" fill-rule="evenodd" height="182" rx="7" width="240" x="8.5" y="35.85009"/>
  <path d="m9.7499996 82.95621c-1.3905306 0-2.46875 1.0782-2.46875 2.4688v17c0 1.3905 1.0782194 2.4687 2.46875 2.4687h109.0000004c1.39053 0 2.46875-1.0782 2.46875-2.4687v-17c0-1.3906-1.07822-2.4688-2.46875-2.4688z" fill="url(#linearGradient5084)" fill-rule="evenodd" filter="url(#filter5098)" transform="matrix(2 0 0 2 0 4.000005)"/>
  <path d="m25.6875 41.850045c-2.843448 0-5.1875 2.34406-5.1875 5.1875v159.624875c0 2.8436 2.344054 5.1876 5.1875 5.1876h205.625c2.84344 0 5.1875-2.344 5.1875-5.1876v-159.624875c0-2.84344-2.34406-5.1875-5.1875-5.1875z" fill="#fff" fill-rule="evenodd"/>
  <rect fill="url(#linearGradient5143)" fill-rule="evenodd" height="166.00006" rx="3.181981" width="211.99998" x="22.5" y="43.850086"/>
  <rect fill="url(#linearGradient3188)" height="146" width="192" x="32.5" y="53.850086"/>
  <path clip-path="url(#clipPath7399)" d="m160.90664 25 1 81h104v-81zm4.99961 4h96v73h-96z" fill-rule="evenodd" filter="url(#filter7403)" transform="matrix(2 0 0 2 -299.31328 -4.149956)"/>
  <path d="m20.375 38.822705c-1.635917 0-2.902345 1.26642-2.902345 2.90234v166.249975c0 1.6358 1.266426 2.9024 2.902345 2.9024h2.046876l135.441404-172.054715z" fill="url(#linearGradient4224)" fill-rule="evenodd" opacity=".622727"/>
  <g fill="#fff" transform="matrix(1.9600679 0 0 2.0407456 0 4.000005)">
    <path d="m62.650201 20.403024c-.939896 0-1.578485.692555-1.578485 1.717896 0 1.029838.634092 1.717896 1.582982 1.717896.400243 0 .751018-.121422 1.016347-.346278.355272-.301306.566636-.80948.566636-1.344636 0-1.056821-.625098-1.744878-1.58748-1.744878zm0 .368763c.710544 0 1.169249.535156 1.169249 1.367121 0 .791491-.472197 1.331145-1.164752 1.331145-.701549 0-1.164751-.539654-1.164751-1.349133 0-.80948.463202-1.349133 1.160254-1.349133z"/>
    <path d="m65.955576 22.053463 1.106289-1.596474h-.499179l-.845457 1.286173-.840959-1.286173h-.508174l1.088301 1.596474-1.160254 1.681919h.508173l.899422-1.367121.894925 1.367121h.517168z"/>
    <path d="m68.995624 22.449209 1.232208-1.99222h-.499179l-.935399 1.596474-.962382-1.596474h-.517167l1.263688 1.99222v1.286173h.418231z"/>
  </g>
  <path d="m15.499999 35.850045c-3.878 0-6.9999999 3.122-6.9999999 7v1 1c0-3.878 3.1219999-7 6.9999999-7h226.000001c3.878 0 7 3.122 7 7v-1-1c0-3.878-3.122-7-7-7z" fill-opacity=".097143" fill-rule="evenodd"/>
  <path d="m7.1777344 982.55273v.64454h.6445312v-.64454zm111.9999956 0v.64454h.64454v-.64454zm-110.9999956 1v.64454h.6445312v-.64454zm111.9999956 0v.64454h.64454v-.64454zm-112.9999956 1v.64454h.6445312v-.64454zm111.9999956 0v.64454h.64454v-.64454zm-110.9999956 1v.64454h.6445312v-.64454zm111.9999956 0v.64454h.64454v-.64454zm-112.9999956 1v.64454h.6445312v-.64454zm111.9999956 0v.64454h.64454v-.64454zm-110.9999956 1v.64454h.6445312v-.64454zm111.9999956 0v.64454h.64454v-.64454zm-112.9999956 1v.64454h.6445312v-.64454zm111.9999956 0v.64454h.64454v-.64454zm-110.9999956 1v.64454h.6445312v-.64454zm111.9999956 0v.64454h.64454v-.64454zm-112.9999956 1v.64454h.6445312v-.64454zm111.9999956 0v.64454h.64454v-.64454zm-110.9999956 1v.64454h.6445312v-.64454zm111.9999956 0v.64454h.64454v-.64454zm-112.9999956 1v.64454h.6445312v-.64454zm111.9999956 0v.64454h.64454v-.64454zm-110.9999956 1v.64454h.6445312v-.64454zm111.9999956 0v.64454h.64454v-.64454zm-112.9999956 1v.64454h.6445312v-.64454zm111.9999956 0v.64454h.64454v-.64454zm-110.9999956 1v.64454h.6445312v-.64454zm111.9999956 0v.64454h.64454v-.64454zm-112.9999956 1v.64454h.6445312v-.64454zm111.9999956 0v.64454h.64454v-.64454z" fill-opacity=".56" fill-rule="evenodd" opacity=".563636" transform="matrix(2 0 0 2 .499999 -1852.8743)"/>
  <path d="m8.4999991 209.85002v1c0 3.878 3.1219999 7 6.9999999 7h226.000001c3.878 0 7-3.122 7-7v-1c0 3.878-3.122 7-7 7h-226.000001c-3.878 0-6.9999999-3.122-6.9999999-7z" fill="#fff" fill-rule="evenodd"/>
  <path d="m25.6875 43.850045c-1.762818 0-3.1875 1.42468-3.1875 3.1875v159.624875c0 1.7628 1.424682 3.1876 3.1875 3.1876h205.625c1.76282 0 3.1875-1.4248 3.1875-3.1876v-159.624875c0-1.76282-1.42468-3.1875-3.1875-3.1875zm0 2h205.625c1.23958 0 1.1875-.052 1.1875 1.1875v159.624875c0 1.24.052 1.1876-1.1875 1.1876h-205.625c-1.2396 0-1.1875.052-1.1875-1.1876v-159.624875c0-1.23958-.05208-1.1875 1.1875-1.1875z" fill-rule="evenodd"/>
  <path d="m14.499999 113.85004v1h2v-1zm224.000001 0v1h2v-1zm-222.000001 2v1h2v-1zm224.000001 0v1h2v-1zm-226.000001 2v1h2v-1zm224.000001 0v1h2v-1zm-222.000001 2v1h2v-1zm224.000001 0v1h2v-1zm-226.000001 2v1h2v-1zm224.000001 0v1h2v-1zm-222.000001 2v1h2v-1zm224.000001 0v1h2v-1zm-226.000001 2v1h2v-1zm224.000001 0v1h2v-1zm-222.000001 2v1h2v-1zm224.000001 0v1h2v-1zm-226.000001 2v1h2v-1zm224.000001 0v1h2v-1zm-222.000001 2v1h2v-1zm224.000001 0v1h2v-1zm-226.000001 2v1h2v-1zm224.000001 0v1h2v-1zm-222.000001 2v1h2v-1zm224.000001 0v1h2v-1zm-226.000001 2v1h2v-1zm224.000001 0v1h2v-1zm-222.000001 2v1h2v-1zm224.000001 0v1h2v-1zm-226.000001 2v1h2v-1zm224.000001 0v1h2v-1z" fill="#fff" fill-rule="evenodd"/>
  <circle cx="17.962502" cy="45.187611" fill="url(#radialGradient5177)" fill-rule="evenodd" r="1.1875"/>
  <circle cx="142.25" cy="49.037586" fill-rule="evenodd" opacity=".5" r="2.375"/>
  <circle cx="142.25" cy="49.037586" fill="url(#linearGradient7108)" fill-rule="evenodd" opacity=".5" r="1.5"/>
  <circle cx="142.25" cy="-48.462635" fill="url(#linearGradient7112)" fill-rule="evenodd" opacity=".5" r=".925" transform="scale(1 -1)"/>
  <path d="m8.4999991 208.85002v1c0 3.878 3.1219999 7 6.9999999 7h226.000001c3.878 0 7-3.122 7-7v-1c0 3.878-3.122 7-7 7h-226.000001c-3.878 0-6.9999999-3.122-6.9999999-7z" fill="#fff" fill-rule="evenodd"/>
  <g transform="matrix(.00000013 1.4999998 -1.4999998 .00000013 224.49282 74.117833)">
    <path d="m63.875 12c-.865503.02693-1.698899.33398-2.375.875l-60 48c-.949856.75913-1.5 1.90906-1.5 3.125s.550144 2.36587 1.5 3.125l60 48c1.200963.96113 2.832437 1.13525 4.21875.46875 1.386317-.6665 2.281892-2.05554 2.28125-3.59375v-17.28125-61.4375-17.28125c.000417-1.08285-.441373-2.12118-1.21875-2.875s-1.823927-1.15873-2.90625-1.125z" style="opacity:.536946;fill:#4d4300;fill-rule:evenodd;stroke:#004d00;stroke-linejoin:round;filter:url(#filter3467)"/>
    <path d="m63.875 12c-.865503.02693-1.698899.33398-2.375.875l-60 48c-.949856.75913-1.5 1.90906-1.5 3.125s.550144 2.36587 1.5 3.125l60 48c1.200963.96113 2.832437 1.13525 4.21875.46875 1.386317-.6665 2.281892-2.05554 2.28125-3.59375 0-32 0-64 0-96 .000417-1.08285-.441373-2.12118-1.21875-2.875s-1.823927-1.15873-2.90625-1.125z" fill="url(#linearGradient3310)" fill-rule="evenodd"/>
    <path d="m63.875 12c-.865503.02693-1.698899.33398-2.375.875l-60 48c-.949856.75913-1.5 1.90906-1.5 3.125s.550144 2.36587 1.5 3.125l60 48c1.200963.96113 2.832437 1.13525 4.21875.46875 1.386317-.6665 2.281892-2.05554 2.28125-3.59375 0-32 0-64 0-96 .000417-1.08285-.441373-2.12118-1.21875-2.875s-1.823927-1.15873-2.90625-1.125z" fill="url(#linearGradient3296)" fill-rule="evenodd" opacity=".536946"/>
    <path d="m64 16-60 48 60 48v-25.59375-44.8125z" fill="url(#radialGradient3312)" fill-rule="evenodd"/>
    <path d="m64 16-60 48 60 48v-25.59375-44.8125z" fill="none" filter="url(#filter3435)" stroke="url(#linearGradient3314)" stroke-width=".5"/>
    <path d="m63.875 12c-.799041.02487-1.572946.283948-2.21875.75l.96875 9.03125 5.34375-6.15625c-.08779-.946211-.499493-1.832841-1.1875-2.5-.777377-.75382-1.823927-1.158727-2.90625-1.125z" fill="url(#radialGradient4088)" fill-rule="evenodd" filter="url(#filter3681)" opacity=".85"/>
    <path d="m71.875 12c-.799041.02487-1.572946.283948-2.21875.75l.96875 9.03125 5.34375-6.15625c-.08779-.946211-.499493-1.832841-1.1875-2.5-.777377-.75382-1.823927-1.158727-2.90625-1.125z" fill="url(#radialGradient4035)" fill-rule="evenodd" filter="url(#filter3681)" opacity=".35" transform="matrix(1 0 0 -1 -8 127.7793)"/>
    <path d="m11.6875 59.125-2.1875 1.75c-.9498559.759129-1.5 1.909063-1.5 3.125.0000001 1.215937.5501441 2.365871 1.5 3.125l3.53125 2.8125 2.125-5.625z" fill="url(#radialGradient4037)" fill-rule="evenodd" filter="url(#filter3722)" opacity=".5" transform="matrix(1 0 0 -1 -8 128.5625)"/>
    <path d="m64 16-59.8125 47.84375c8.051341.325047 16.325945.5 24.71875.5 12.055796 0 23.792287-.368324 35.09375-1.03125v-21.71875z" fill="url(#linearGradient3316)" fill-rule="evenodd"/>
    <path d="m84 16-.34375.28125v25.09375 21.53125c-11.238981.657345-22.885856 1.031249-34.875 1.03125-8.173257 0-16.244047-.159182-24.09375-.46875l-.5.375c8.051341.325047 16.325945.5 24.71875.5 12.055796 0 23.792287-.368324 35.09375-1.03125v-21.71875z" fill="url(#linearGradient3344)" fill-rule="evenodd" transform="translate(-20)"/>
    <path d="m84 16-59.8125 47.84375 59.5625-46.9375v25.125 21.28125c.08232-.0048.167722.0048.25 0v-21.71875z" fill="url(#linearGradient3356)" fill-rule="evenodd" transform="translate(-20)"/>
  </g>
</svg>
