<svg height="256" width="256" xmlns="http://www.w3.org/2000/svg" xmlns:xlink="http://www.w3.org/1999/xlink">
  <defs>
    <linearGradient id="linearGradient11287">
      <stop offset="0" stop-color="#b1b1b1"/>
      <stop offset="1" stop-color="#fff" stop-opacity="0"/>
    </linearGradient>
    <linearGradient id="linearGradient1772">
      <stop offset="0"/>
      <stop offset="1" stop-opacity="0"/>
    </linearGradient>
    <linearGradient id="linearGradient3260">
      <stop offset="0" stop-color="#fff"/>
      <stop offset="1" stop-color="#fff" stop-opacity="0"/>
    </linearGradient>
    <linearGradient id="linearGradient3676" gradientUnits="userSpaceOnUse" spreadMethod="reflect" x1="114.405646" x2="119.646806" xlink:href="#linearGradient3260" y1="18.22635" y2="20.10135"/>
    <linearGradient id="linearGradient2411">
      <stop offset="0" stop-color="#f5cb11"/>
      <stop offset=".25796592" stop-color="#fefe98"/>
      <stop offset=".50796592" stop-color="#efc200"/>
      <stop offset=".74009573" stop-color="#cf9c00"/>
      <stop offset="1" stop-color="#ffe00d"/>
    </linearGradient>
    <mask id="mask908" maskUnits="userSpaceOnUse">
      <path d="m17.650128 21.947352h41.615422v43.782395h-41.615422z" fill="url(#linearGradient913)" stroke-linecap="round" stroke-linejoin="round" stroke-width=".529"/>
    </mask>
    <linearGradient id="linearGradient913" gradientUnits="userSpaceOnUse" x1="44.802631" x2="39.995157" y1="46.248254" y2="49.855225">
      <stop offset="0"/>
      <stop offset="1" stop-color="#fff"/>
    </linearGradient>
    <linearGradient id="linearGradient9205" gradientTransform="matrix(-.26458333 0 0 -.26458333 53.925988 56.309678)" gradientUnits="userSpaceOnUse" x1="64.088867" x2="64.088867" y1="9.679421" y2="123.90625">
      <stop offset="0" stop-color="#c9c9c9"/>
      <stop offset=".5" stop-color="#868686"/>
      <stop offset="1" stop-color="#323232"/>
    </linearGradient>
    <filter id="filter3738-4" height="1.397879" width="1.301924" x="-.150962" y="-.198939">
      <feGaussianBlur stdDeviation=".39257441"/>
    </filter>
    <linearGradient id="linearGradient9217" gradientTransform="matrix(-.26458333 0 0 -.26458333 53.925988 56.309678)" gradientUnits="userSpaceOnUse" x1="75.09375" x2="75.09375" y1="4.531704" y2="80.172485">
      <stop offset="0" stop-color="#e6e6e6"/>
      <stop offset="1" stop-color="#dfdfdf" stop-opacity="0"/>
    </linearGradient>
    <linearGradient id="linearGradient9219" gradientUnits="userSpaceOnUse" x1="71.40321" x2="76.69478" xlink:href="#linearGradient11287" y1="85.216988" y2="1.296342"/>
    <filter id="filter3378-1" height="1.059504" width="1.033006" x="-.016503" y="-.029751">
      <feGaussianBlur stdDeviation=".565"/>
    </filter>
    <linearGradient id="linearGradient9221" gradientUnits="userSpaceOnUse" spreadMethod="reflect" x1="120.0625" x2="125.30366" xlink:href="#linearGradient11287" y1="12.569496" y2="14.444496"/>
    <filter id="filter3630-3" height="1.067941" width="1.035957" x="-.017978" y="-.033971">
      <feGaussianBlur stdDeviation=".89883985"/>
    </filter>
    <linearGradient id="linearGradient9225" gradientTransform="matrix(-.26458333 0 0 -.26458333 53.924872 56.309157)" gradientUnits="userSpaceOnUse" x1="75.09375" x2="75.09375" xlink:href="#linearGradient3260" y1="4.531704" y2="80.172485"/>
    <radialGradient id="radialGradient892-7" cx="64.444115" cy="-13.566779" gradientTransform="matrix(-.17860036 0 0 -.09481674 48.759369 45.460532)" gradientUnits="userSpaceOnUse" r="59.995121">
      <stop offset="0" stop-color="#232323"/>
      <stop offset="1" stop-color="#8e8e8e"/>
    </radialGradient>
    <radialGradient id="radialGradient894-1" cx="-10.165252" cy="66.906013" gradientTransform="matrix(-.12125571 0 -.00000001 -.26460484 48.5158 56.311053)" gradientUnits="userSpaceOnUse" r="59.995121" xlink:href="#linearGradient1772"/>
    <radialGradient id="radialGradient896-3" cx="46.25367" cy="86.72467" fx="46.253662" gradientTransform="matrix(.00000006 -.29350319 .28135066 .00000004 12.569097 56.946296)" gradientUnits="userSpaceOnUse" r="59.995121" xlink:href="#linearGradient1772"/>
    <radialGradient id="radialGradient906-8" cx="99.726295" cy="27.418272" fx="64.689766" fy="68.231934" gradientTransform="matrix(-.18355072 -.01552343 .00958924 -.1133842 44.946191 49.19744)" gradientUnits="userSpaceOnUse" r="56">
      <stop offset="0" stop-color="#c9c9c9"/>
      <stop offset=".5" stop-color="#868686"/>
      <stop offset="1"/>
    </radialGradient>
    <radialGradient id="radialGradient898-6" cx="64.088867" cy="7.410843" gradientTransform="matrix(.3093869 0 0 .4779247 44.260611 1.864422)" gradientUnits="userSpaceOnUse" r="59.995121" xlink:href="#linearGradient3260"/>
    <filter id="filter965" color-interpolation-filters="sRGB" height="1.564308" width="1.135944" x="-.067972" y="-.282154">
      <feGaussianBlur stdDeviation="1.9633793"/>
    </filter>
    <linearGradient id="linearGradient1857" gradientUnits="userSpaceOnUse" x1="70.78668" x2="183.06478" xlink:href="#linearGradient2411" y1="128.814118" y2="128.703522"/>
    <linearGradient id="linearGradient1675" gradientUnits="userSpaceOnUse" x1="132.14766" x2="131.58092" y1="122.671174" y2="106.267402">
      <stop offset="0" stop-color="#fbd600"/>
      <stop offset="1" stop-color="#fff56d"/>
    </linearGradient>
    <linearGradient id="linearGradient1659" gradientUnits="userSpaceOnUse" x1="61.019" x2="194.9841" xlink:href="#linearGradient2411" y1="172.671944" y2="172.671944"/>
    <linearGradient id="linearGradient1867" gradientUnits="userSpaceOnUse" x1="133.76162" x2="135.10126" y1="123.891236" y2="144.389916">
      <stop offset="0" stop-color="#fef4b8" stop-opacity=".844658"/>
      <stop offset="1" stop-color="#fef6c9"/>
    </linearGradient>
    <filter id="filter12394" color-interpolation-filters="sRGB" height="3.542962" width="1.170809" x="-.085405" y="-1.271481">
      <feGaussianBlur stdDeviation="1.4869846"/>
    </filter>
    <linearGradient id="linearGradient1667" gradientUnits="userSpaceOnUse" x1="116.3536" x2="143.8345" y1="99.000634" y2="129.98758">
      <stop offset="0" stop-color="#dba600"/>
      <stop offset="1" stop-color="#a87f00"/>
    </linearGradient>
    <linearGradient id="linearGradient1071" gradientUnits="userSpaceOnUse" x1="116.672077" x2="172.262799" y1="18.77269" y2="97.345978">
      <stop offset="0" stop-color="#f1f1f1"/>
      <stop offset="1" stop-color="#c3c3c3"/>
    </linearGradient>
    <linearGradient id="linearGradient12232" gradientUnits="userSpaceOnUse" x1="161.40816" x2="91.29968" y1="120.103684" y2="31.361414">
      <stop offset="0" stop-color="#878787"/>
      <stop offset="1" stop-color="#d3d3d3"/>
    </linearGradient>
    <linearGradient id="linearGradient1487" gradientUnits="userSpaceOnUse" x1="49.05723" x2="63.10215" xlink:href="#linearGradient1772" y1="35.426853" y2="18.994919"/>
    <filter id="filter1477" color-interpolation-filters="sRGB" height="1.141288" width="1.250151" x="-.136584" y="-.07717">
      <feGaussianBlur stdDeviation="1.0233253"/>
    </filter>
    <linearGradient id="linearGradient1665" gradientUnits="userSpaceOnUse" x1="135.92735" x2="149.97227" xlink:href="#linearGradient1772" y1="35.426853" y2="18.994919"/>
    <linearGradient id="linearGradient1812" gradientUnits="userSpaceOnUse" x1="49.51309" x2="63.15918" xlink:href="#linearGradient3260" y1="22.070805" y2="13.712175"/>
    <filter id="filter1802" color-interpolation-filters="sRGB" height="1.154667" width="1.276134" x="-.156378" y="-.087634">
      <feGaussianBlur stdDeviation="1.0168145"/>
    </filter>
    <linearGradient id="linearGradient1816" gradientUnits="userSpaceOnUse" x1="136.38321" x2="150.0293" xlink:href="#linearGradient3260" y1="22.070805" y2="13.712175"/>
    <radialGradient id="radialGradient2020" cx="95.43258" cy="35.3118" gradientUnits="userSpaceOnUse" r="12.49915" xlink:href="#linearGradient3260"/>
    <radialGradient id="radialGradient26274" cx="70.487465" cy="102.11657" gradientTransform="matrix(4.1219686 .03563022 -.01380672 1.5972662 -150.90934 26.998493)" gradientUnits="userSpaceOnUse" r="21.531792">
      <stop offset="0" stop-color="#fefe97" stop-opacity=".50684"/>
      <stop offset="1" stop-color="#f4b900" stop-opacity=".254289"/>
    </radialGradient>
    <radialGradient id="radialGradient26268" cx="66.480537" cy="104.7655" gradientTransform="matrix(4.5030676 -.01809302 .00622428 1.5491193 -171.17249 32.780388)" gradientUnits="userSpaceOnUse" r="21.531792">
      <stop offset="0" stop-color="#fefc93" stop-opacity=".723597"/>
      <stop offset="1" stop-color="#ffc205" stop-opacity=".338887"/>
    </radialGradient>
  </defs>
  <use transform="matrix(-1 0 -0 -1 256 256)" xlink:href="#g848"/>
  <g id="g848" mask="url(#mask908)" transform="matrix(7.5590552 0 0 7.5590552 -151.45178 -173.54988)">
    <path d="m36.96785 55.276149c8.764374 0 15.875-7.110625 15.875-15.874999-5.564778-5.005279-9.395127-.894152-9.367904 0 0 3.590828-2.916269 6.507096-6.507096 6.507096-1.795414 0-3.418759-.731585-4.597135-1.909961l1.23569-1.23569c.543949-.543949.593652-.874654.444396-1.221192-.134558-.312415-.409997-.564385-1.113823-.66835l-10.132604-1.496708c-1.006637-.148693-1.708941.702305-1.708941 1.65368l1.514938 10.1656c0 .656366.238789 1.016854.57718 1.150835.347747.137686.802537.03246 1.351251-.516255l1.200793-1.2008c2.873202 2.873203 6.846067 4.646744 11.228255 4.646744z" fill="url(#linearGradient9205)"/>
    <path d="m36.96785 55.276149c8.764374 0 15.875-7.110625 15.875-15.874999-3.22077-5.135772-9.395127-.894152-9.367904 0 0 3.590828-2.916269 6.507096-6.507096 6.507096-1.795414 0-3.418759-.731585-4.597135-1.909961l1.23569-1.23569c.543949-.543949.593652-.874654.444396-1.221192-.134558-.312415-.409997-.564385-1.113823-.668349l-10.132604-1.496709c-1.006637-.148693-1.708941.702304-1.708941 1.65368l1.514938 10.1656c0 .656366.238789 1.016854.57718 1.150835.347747.137685.802537.03246 1.351251-.516255l1.200793-1.2008c2.873202 2.873203 6.846067 4.646744 11.228255 4.646744z" fill="url(#radialGradient892-7)" opacity=".797753"/>
    <path d="m36.967851 55.276149c8.764372 0 15.874999-7.110626 15.874999-15.874999-2.44085-3.830535-9.395127-.894152-9.367903 0 0 3.590827-2.91627 6.507096-6.507096 6.507096-1.795415 0-3.41876-.731586-4.597138-1.909961l2.732402-2.7324s.593652-.874654.444395-1.221192c-.134559-.312412-1.113822-.668348-1.113822-.668348h-11.629312c-1.017558 0-1.708941.702305-1.708941 1.65368.195519 4.663657.01823 11.662309.01823 11.662309s.238789 1.016854.577181 1.150835c.347747.137686.802536.03246 1.351251-.516255l2.697501-2.697509c2.873202 2.873203 6.846066 4.646744 11.228253 4.646744z" fill="url(#radialGradient894-1)"/>
    <path d="m36.96785 55.276149c8.764374 0 15.875-7.110625 15.875-15.874999-4.647981-4.675853-9.395127-.894151-9.367904 0 0 3.590828-2.916269 6.507096-6.507096 6.507096-1.795414 0-3.418759-.731585-4.597135-1.909961l1.23569-1.23569c.543949-.543949.593652-.874654.444396-1.221192-.134558-.312415-.409997-.564385-1.113823-.668349l-10.132604-1.496709c-1.006637-.148693-1.708941.702304-1.708941 1.65368l1.514938 10.1656c0 .656366.238789 1.016854.57718 1.150835.347747.137686.802537.03246 1.351251-.516255l1.200793-1.2008c2.873202 2.873203 6.846067 4.646744 11.228255 4.646744z" fill="url(#radialGradient896-3)" opacity=".797753"/>
    <path d="m112.03066 16.406856.9375 4.375 1.25.875 4-2.625c.24688-1.723751-.35117-3.347429-1.9375-4.000001-1.58634-.652571-3.16128.126704-4.25 1.375001z" fill="url(#linearGradient3676)" fill-rule="evenodd" filter="url(#filter3738-4)" opacity=".820225" transform="matrix(-.26458333 0 0 -.26458333 53.925988 56.309678)"/>
    <path d="m36.96785 54.217816c8.191949 0 14.816667-6.624716 14.816667-14.816666-1.839299-2.775316-7.312334-1.995794-7.251237 0-.000001 4.16384-3.40159 7.565429-7.56543 7.565429-2.08291 0-3.98239-.848731-5.349544-2.215885-.200942-.198811-.314192-.469738-.314193-.752409 0-.282671.113251-.553599.314193-.752409l1.314489-1.314489-10.128421-1.496709c-.524894-.07756-.65319.156677-.65319.595313l1.521513 10.169762 1.314489-1.322757c.198811-.200942.469739-.314193.752409-.314193s.553598.113251.752409.314193c2.682257 2.682257 6.379208 4.34082 10.475846 4.34082z" fill="url(#radialGradient906-8)"/>
    <path d="m36.96785 54.217816c8.191949 0 14.816667-6.624716 14.816667-14.816666 0-.15025-.0038-.297321-.0083-.446485-1.584714-.179295-3.212364-.304305-4.869987-.37207.07162 2.767288-.971447 5.549613-3.125391 7.615039-4.058527 3.891739-10.511516 3.760872-14.403255-.297656-.731269-.762608-1.258518-1.505047-1.736328-2.447396l4.301426-1.630788c-3.18659-.702034-7.152148-.624265-9.579565.483369l1.309548 8.89459 1.314489-1.322757c.198811-.200942.469739-.314193.752409-.314193s.553598.113251.752409.314193c2.682257 2.682257 6.379208 4.34082 10.475846 4.34082z" fill="url(#linearGradient9217)" opacity=".833333"/>
    <path d="m63.59375 7.90625c-30.9617 0-56 25.038299-56 56 3.809673 9.4294 27.637168 7.543157 27.40625 0 0-15.737351 12.8564-28.59375 28.59375-28.59375 7.87242-.000001 15.05155 3.207804 20.21875 8.375.75946.751409 1.1875 1.775386 1.1875 2.84375s-.42804 2.092341-1.1875 2.84375l-4.968146 4.968146 38.280646 5.656854c1.98385.293159 2.93134-.592164 2.93134-2.25l-6.21319-38.436896-4.96815 4.999396c-.75141.759464-1.77539 1.1875-2.84375 1.1875s-2.09234-.428036-2.84375-1.1875c-10.13766-10.137667-24.11039-16.40625-39.59375-16.40625z" style="fill:none;stroke-linecap:round;stroke-linejoin:round;stroke-dashoffset:1.0878;stroke:url(#linearGradient9219);filter:url(#filter3378-1)" transform="matrix(-.26458333 0 0 -.26458333 53.925988 56.309678)"/>
    <path d="m117.6875 10.75 2.1875 3.125.5-.125 3.5-.375c.24688-1.723751-.35117-3.347429-1.9375-4.0000001-1.58634-.6525714-3.16128.1267033-4.25 1.3750001z" fill="url(#linearGradient9221)" fill-rule="evenodd" filter="url(#filter3738-4)" opacity=".820225" transform="matrix(0 -.26458333 -.26458333 0 36.458081 73.777586)"/>
    <path d="m64.09375 2.2062498c-33.125192 0-60.0000001 26.5748052-60 59.7000002 3.8471864 6.52201 35.509142 3.37947 35.40625 0 .000001-13.571634 11.022119-24.59375 24.59375-24.59375 6.785818-.000001 12.921294 2.765044 17.375 7.21875l-4.327179 6.327179c-1.641282 2.399874-2.243725 3.30578-1.679608 4.615529.508568 1.180779 1.535543 2.244203 4.209725 2.526042l37.953312 4c3.82471.403096 6.45899-2.654379 6.45899-6.250131l-6.0689-36.078018c0-2.480755-.90251-3.843229-2.18147-4.349615-1.31432-.520385-2.50846.591386-5.10709 1.9512l-4.19528 2.195314c-10.859348-10.859351-25.874901-17.2625002-42.4375-17.2625002z" fill="url(#radialGradient898-6)" filter="url(#filter3630-3)" opacity=".745318" transform="matrix(-.26458333 0 0 -.26458333 53.925988 55.78051)"/>
    <path d="m36.966232 54.217151c8.191947 0 14.816666-6.624717 14.816666-14.816667-.000002-.04728.000659-.09374 0-.140559-.067 8.134218-6.666436 14.692642-14.816666 14.692642-4.096642 0-7.793588-1.658562-10.475845-4.34082-.198813-.200941-.469738-.314192-.752409-.314192-.282672-.000001-.553598.113251-.752408.314192l-1.182198 1.190465-1.418302-8.438394c4.43633-1.531669 9.556026-.54269 9.556026-.54269s-6.010638-1.335629-9.582484.514578l1.312455 8.598798v.264583l.132291-.132291 1.182198-1.190465c.198808-.200942.469739-.314193.752409-.314193.282668 0 .553598.113251.752409.314193l.0083.0083c.01386.01384.02743.02756.04134.04134.151818.150249.304501.29505.463021.438216.02156.01961.04446.03839.06615.05788 2.623646 2.357485 6.087979 3.795117 9.897095 3.795117zm.173633-5.084961c2.444265-.06628 4.869243-1.00348 6.771679-2.827734 2.019321-1.936336 2.944164-4.596585 2.993099-7.201628-.06347 2.593414-1.106069 5.157805-3.12539 7.094141-3.523226 3.378438-8.851194 3.730111-12.741341 1.107942 1.820084 1.271343 3.965432 1.885217 6.101953 1.827279z" fill="url(#linearGradient9225)"/>
  </g>
  <g transform="matrix(.8 0 0 .8 84.660312 60.026278)">
    <ellipse cx="150.87012" cy="103.63491" filter="url(#filter965)" opacity=".615454" rx="34.662132" ry="8.35025" transform="matrix(1.9981237 0 0 1.6503763 -173.45715 44.872742)"/>
    <path d="m62.019757 119.40004h131.964323c.2809 17.70146-23.33052 18.75685-65.98254 19.10308-42.652023.34623-66.374083-1.57923-65.981783-19.10308z" fill="url(#linearGradient1857)"/>
    <path d="m62.019757 124.97156c44.250623 3.07718 88.349503 4.24957 131.964323 0v-21.48671c-43.9881-1.94617-87.97622-2.24942-131.964323 0z" fill="url(#linearGradient1675)"/>
    <path d="m62.018997 218.53737v-97.56581c23.86816 13.34247 44.737643 16.7458 65.982543 16.7458s42.11438-3.40333 65.98254-16.7458v97.56581c-19.76972 3.72372-39.26828 6.5396-65.98232 6.5396s-46.213043-2.81588-65.982763-6.5396z" fill="url(#linearGradient1659)"/>
    <path d="m62.019757 124.97156c44.783943 3.56008 88.802363 3.7328 131.964323 0-16.37378 8.33629-35.56764 16.76053-65.98254 16.7458-30.414903-.0148-49.224443-8.11343-65.981783-16.7458z" style="fill:#fff;fill-opacity:.399135;stroke-width:4;stroke-linecap:round;stroke-linejoin:round;stroke:url(#linearGradient1867)"/>
    <path d="m44.61927 54.57667c0 1.100843-2.30445 1.993252-5.14712 1.993252s-5.14712-.892409-5.14712-1.993252 2.30445-1.993252 5.14712-1.993252 5.14712.892409 5.14712 1.993252zm38.76146 0c0 1.100843 2.30445 1.993252 5.14712 1.993252s5.14712-.892409 5.14712-1.993252-2.30445-1.993252-5.14712-1.993252-5.14712.892409-5.14712 1.993252z" filter="url(#filter12394)" opacity=".599995" stroke="#000" stroke-linejoin="round" stroke-width="3" transform="matrix(2 0 0 2 -.000003 5.682854)"/>
    <path d="m62.017477 218.53831c19.7697 3.72372 39.270363 6.53908 65.984363 6.53908 26.71402 0 46.21078-2.81536 65.98048-6.53908l.0001-115.05467c-21.99404-.97309-43.98644-1.53241-65.98048-1.57032-21.99402-.0379-43.986443.4456-65.980463 1.57032z" fill="none" stroke="url(#linearGradient1667)" stroke-width="4"/>
    <path d="m128.00194 22.553948c-24.299-.188504-59.351563 15.947212-59.351563 58.335938v33.148434c0 2.20169 4.61154 3.98438 10.29688 3.98438s10.29296-1.78269 10.29296-3.98438v-33.148434c0-30.645592 24.868303-38.677652 38.761723-38.59375 13.89344-.0839 38.76172 7.948158 38.76172 38.59375v33.148434c0 2.20169 4.60764 3.98438 10.29298 3.98438 5.68532 0 10.29296-1.78269 10.29296-3.98438v-33.148434c0-42.388726-35.04864-58.524442-59.34766-58.335938z" fill="url(#linearGradient1071)" stroke="url(#linearGradient12232)" stroke-width="4"/>
    <path d="m42.83194 54.323436v-18.295044c0-11.045515 8.49841-20.058072 21.6422-20.009294" fill="none" filter="url(#filter1477)" stroke="url(#linearGradient1487)" transform="matrix(2 0 0 2 -.000003 5.682854)"/>
    <path d="m129.70206 54.323436v-18.295044c0-11.045515 8.49841-25.573623 21.6422-25.524845" fill="none" filter="url(#filter1477)" stroke="url(#linearGradient1665)" transform="matrix(-2 0 0 2 442.38724 5.682854)"/>
    <path d="m36.1198 52.546579v-16.54316c0-16.854464 17.51884-25.895859 26.4015-25.86217" fill="none" filter="url(#filter1802)" stroke="url(#linearGradient1812)" stroke-width="2" transform="matrix(2 0 0 2 -.000003 5.682854)"/>
    <path d="m122.98992 52.546579v-16.54316c0-12.567284 11.51884-19.895859 20.4015-19.86217" fill="none" filter="url(#filter1802)" stroke="url(#linearGradient1816)" stroke-width="1.5" transform="matrix(-2 0 0 2 417.03002 5.682854)"/>
    <circle cx="95.432579" cy="35.311798" fill="url(#radialGradient2020)" opacity=".615454" r="12.49915"/>
    <path d="m97.441117 162.92511c-6.76918-1.11704-11.07086 1.02288-11.05982 6.0531.01 4.20084 2.3 6.93362 9.14818 9.70514 1.43872.584 2.88018 1.15346 4.32516 1.70795 3.225223 1.23202 4.510643 2.47879 4.509543 4.48573-.002 2.69278-2.74192 4.18651-6.791403 3.53017-2.49654-.40465-4.58964-1.5049-5.74644-2.92234-.71584-.95235-1.04516-1.83243-1.31972-3.87932-1.61326-.31683-3.22104-.65081-4.82476-1.00073.2145 6.52012 3.90882 10.72854 11.49426 11.97479 7.325763 1.20358 12.045843-2.04662 12.048443-7.47381.002-4.23405-2.46608-6.62759-8.25974-8.78325-1.483543-.5475-2.963463-1.11106-4.440643-1.69025-3.764-1.46913-5.36182-2.97682-5.36566-4.87775-.006-2.53708 2.3561-3.58018 6.12714-2.95786 3.718483.61365 5.729003 2.3228 5.844503 5.18842 1.63638.21943 3.27554.41796 4.91856.59473-.0616-5.34602-3.88426-8.54524-10.607603-9.65472zm29.867483 2.50918c-.60244-.005-1.1884.0166-1.75686.0637-7.25162.67755-11.78242 5.53322-11.78192 14.03216.00052 8.5088 4.39024 14.6869 11.77326 15.45997.53158.061 1.07926.0942 1.6427.0987.29744.002.59114-.003.88096-.0168 6.34434-.36967 10.69374-4.4763 11.83306-10.41175-1.58584.11994-3.17264.21919-4.76126.29722-1.22428 3.5324-3.63906 5.61059-7.0695 5.87436-.2323.0152-.46904.0219-.7102.0202-.62678-.004-1.23246-.069-1.81308-.1911-2.2045-.44208-4.05272-1.71969-5.30262-3.65326-1.12638-1.66521-1.52254-3.30438-1.57844-6.06394 2.2927.10902 4.58692.17294 6.88534.19062.8391.0152 1.68018.024 2.52338.0265 4.16022-.0361 8.30522-.22214 12.45084-.54963.004-4.23966-.33062-6.68531-1.17834-8.62917-1.8326-4.08414-6.04634-6.34248-11.268-6.52683-.25432-.012-.51082-.019-.76932-.021zm30.54236-2.72854c-7.96498 1.35491-13.12996 7.33913-13.13818 16.52334-.008 8.93221 5.08544 14.49469 13.0424 13.15386 6.99388-1.17855 11.35042-6.40704 11.90744-13.36203-1.54846.34126-3.1003.66877-4.65666.98142-.78158 4.6508-3.16506 7.46201-7.13752 8.13194-5.15138.86875-8.25414-2.91326-8.24736-9.46795.008-6.91299 3.0607-11.19221 8.16028-12.05431 3.9194-.66259 6.35648.90791 6.90396 4.59544 1.55718-.31143 3.10984-.6379 4.65914-.97829-.21468-2.60454-.81816-4.16472-1.92188-5.40988-1.98478-2.0753-5.48426-2.80882-9.57162-2.11354zm-30.59702 6.61263c.27922.002.55374.015.82316.0379 4.3876.32223 7.35564 3.36103 7.35248 8.00538-2.45024.12412-4.90076.1975-7.35484.2186-.84332-.003-1.6845-.0116-2.52372-.0268-2.26006-.0176-4.5161-.08-6.77064-.18598.34548-4.43902 2.93794-7.28256 6.77156-7.92731.54272-.0854 1.11106-.12664 1.702-.12184z" fill="url(#radialGradient26274)" stroke="url(#radialGradient26268)" stroke-width="2"/>
  </g>
</svg>
