<svg height="256" width="256" xmlns="http://www.w3.org/2000/svg" xmlns:xlink="http://www.w3.org/1999/xlink">
  <defs>
    <linearGradient id="linearGradient2946">
      <stop offset="0" stop-color="#fff"/>
      <stop offset="1" stop-color="#fff" stop-opacity="0"/>
    </linearGradient>
    <radialGradient id="radialGradient2454" cx="49.011971" cy="2.674308" gradientTransform="matrix(.853446 0 0 .1578 -62.04115 15.05256)" gradientUnits="userSpaceOnUse" r="1.724619">
      <stop offset="0" stop-color="#fff" stop-opacity=".55036"/>
      <stop offset="1" stop-opacity="0"/>
    </radialGradient>
    <linearGradient id="linearGradient2452" gradientUnits="userSpaceOnUse" x1="99.923686" x2="99.923686" xlink:href="#linearGradient3251" y1="22.452679" y2="21.748539"/>
    <radialGradient id="radialGradient2450" cx="49.011971" cy="2.674308" gradientTransform="matrix(.860164 0 0 .1578 -29.37149 15.05256)" gradientUnits="userSpaceOnUse" r="1.724619">
      <stop offset="0" stop-color="#fff" stop-opacity=".55036"/>
      <stop offset="1" stop-color="#fff" stop-opacity="0"/>
    </radialGradient>
    <linearGradient id="linearGradient2448" gradientTransform="matrix(1.28993 0 0 1.29707 -46.7271 12.03998)" gradientUnits="userSpaceOnUse" x1="46.051746" x2="46.051746" xlink:href="#linearGradient3251" y1="3.099999" y2="2.395859"/>
    <linearGradient id="linearGradient2446" gradientTransform="matrix(1.297068 -.00188004 .00188004 1.297068 -47.04731 12.10823)" gradientUnits="userSpaceOnUse" x1="48.498562" x2="48.732723" xlink:href="#linearGradient2946" y1=".811505" y2="2.365727"/>
    <radialGradient id="radialGradient2444" cx="49.011971" cy="2.674308" gradientTransform="matrix(1.29707 0 0 .1578 -47.06473 15.05256)" gradientUnits="userSpaceOnUse" r="1.724619">
      <stop offset="0" stop-color="#fff"/>
      <stop offset="1" stop-color="#252525" stop-opacity="0"/>
    </radialGradient>
    <linearGradient id="linearGradient2442" gradientUnits="userSpaceOnUse" x1="16.38103009639" x2="16.37885750414" y1="15.89474622421" y2="15.3537992895">
      <stop offset="0" stop-color="#252525"/>
      <stop offset="1" stop-color="#252525" stop-opacity="0"/>
    </linearGradient>
    <radialGradient id="radialGradient2440" cx="49.009884" cy="8.495312" fx="47.370888" fy="6.77017" gradientTransform="matrix(1.297068 -.00188004 .00070858 .48867 -47.03734 18.97582)" gradientUnits="userSpaceOnUse" r="3.97504">
      <stop offset="0" stop-color="#fff"/>
      <stop offset="1" stop-color="#aeaeae"/>
    </radialGradient>
    <radialGradient id="radialGradient2438" cx="34.677639" cy="7.462277" gradientTransform="matrix(-1.5103 .00264127 -.00011671 -.00911022 87.0522 7.438666)" gradientUnits="userSpaceOnUse" r="47.595196" xlink:href="#linearGradient2946"/>
    <radialGradient id="radialGradient2436" cx="34.677639" cy="7.462277" gradientTransform="matrix(.999914 -.00784165 .00056661 .02048306 -.001242 7.581357)" gradientUnits="userSpaceOnUse" r="47.595196">
      <stop offset="0" stop-color="#fff" stop-opacity=".683453"/>
      <stop offset="1" stop-color="#fff" stop-opacity="0"/>
    </radialGradient>
    <radialGradient id="radialGradient2434" cx="89.454559" cy="100.74671" gradientTransform="matrix(.06228741 -.0003825 .00490218 .798611 15.0605 -17.07621)" gradientUnits="userSpaceOnUse" r="47.746403" xlink:href="#linearGradient3311"/>
    <radialGradient id="radialGradient2432" cx="15.727077" cy="58.089687" gradientTransform="matrix(1.821648 .0147055 -.0179124 26.40693 -11.88158 -1465.702)" gradientUnits="userSpaceOnUse" r="2.614397">
      <stop offset="0" stop-color="#252525"/>
      <stop offset=".5" stop-color="#252525"/>
      <stop offset=".75" stop-color="#252525"/>
      <stop offset="1"/>
    </radialGradient>
    <radialGradient id="radialGradient2430" cx="42.617531" cy="120.64188" gradientTransform="matrix(1.520175 .08839467 -.843351 13.788 55.27677 -1567.892)" gradientUnits="userSpaceOnUse" r="3.406888">
      <stop offset="0" stop-color="#5f4721"/>
      <stop offset="1" stop-color="#dab475"/>
    </radialGradient>
    <linearGradient id="linearGradient2466">
      <stop offset="0"/>
      <stop offset="1" stop-opacity="0"/>
    </linearGradient>
    <linearGradient id="linearGradient3311">
      <stop offset="0" stop-color="#2d2d2d"/>
      <stop offset=".5"/>
      <stop offset="1"/>
    </linearGradient>
    <linearGradient id="linearGradient3251">
      <stop offset="0"/>
      <stop offset="1" stop-color="#131313" stop-opacity="0"/>
    </linearGradient>
    <linearGradient id="linearGradient3075">
      <stop offset="0" stop-color="#fff"/>
      <stop offset=".42597079" stop-color="#fff"/>
      <stop offset=".5892781" stop-color="#f1f1f1"/>
      <stop offset=".80219781" stop-color="#eaeaea"/>
      <stop offset="1" stop-color="#dfdfdf"/>
    </linearGradient>
    <linearGradient id="linearGradient3149">
      <stop offset="0" stop-color="#8e8e8e"/>
      <stop offset="1" stop-color="#f8f8f8"/>
    </linearGradient>
    <linearGradient id="linearGradient2048" gradientTransform="matrix(1.06392 .185885 -.183509 1.042023 -18.15573 -12.37015)" gradientUnits="userSpaceOnUse" x1="37.767033" x2="142.00456" xlink:href="#linearGradient2466" y1="124.01817" y2="104.74023"/>
    <linearGradient id="linearGradient2051" gradientTransform="matrix(1.079478 0 0 1.058566 5.836155 -13.10827)" gradientUnits="userSpaceOnUse" x1="78.929916" x2="79.067871" y1="21.154623" y2="35.000507">
      <stop offset="0" stop-color="#fff" stop-opacity="0"/>
      <stop offset=".13036872" stop-color="#fff" stop-opacity="0"/>
      <stop offset=".27147371" stop-color="#fff"/>
      <stop offset=".31674936" stop-color="#fff" stop-opacity="0"/>
      <stop offset="1" stop-color="#fff" stop-opacity="0"/>
    </linearGradient>
    <linearGradient id="linearGradient2057" gradientTransform="matrix(1.06392 .185885 -.188863 1.072417 6.305435 -14.14646)" gradientUnits="userSpaceOnUse" x1="60.351803" x2="60.868912" xlink:href="#linearGradient2946" y1="10.976136" y2="13.976136"/>
    <linearGradient id="linearGradient2077" gradientTransform="matrix(1.329001 0 0 1.377152 -15.14977 2.686475)" gradientUnits="userSpaceOnUse" spreadMethod="reflect" x1="58.073513" x2="58.073513" xlink:href="#linearGradient3149" y1="5.507332" y2="12.044647"/>
    <linearGradient id="linearGradient2080" gradientTransform="matrix(1.086527 .168189 -.187408 1.068088 13.25089 -15.07105)" gradientUnits="userSpaceOnUse" x1="43.195759" x2="77.395889" xlink:href="#linearGradient2466" y1="27.142563" y2="18.935856"/>
    <linearGradient id="linearGradient2083" gradientTransform="matrix(1.053896 .184133 -.187697 1.065797 7.105338 -13.17864)" gradientUnits="userSpaceOnUse" x1="45.903614" x2="46.531303" xlink:href="#linearGradient2946" y1="15.090067" y2="19.185896"/>
    <linearGradient id="linearGradient2090" gradientTransform="matrix(1.328991 -.00476898 -.00130983 1.060963 113.3644 13.99248)" gradientUnits="userSpaceOnUse" x1="-34.077816" x2="-34.001816" xlink:href="#linearGradient3149" y1="-2.366065" y2="-9.902297"/>
    <linearGradient id="linearGradient2094" gradientTransform="matrix(1.053896 .184133 -.187697 1.065797 7.105338 -13.17864)" gradientUnits="userSpaceOnUse" x1="-45.961941" x2="68.235802" xlink:href="#linearGradient2946" y1="-55.847759" y2="117.03985"/>
    <radialGradient id="radialGradient2101" cx="99.574844" cy="8.36253" gradientTransform="matrix(1.988273 1.878795 -.698458 .718312 -80.80334 -177.3465)" gradientUnits="userSpaceOnUse" r="52.050152" xlink:href="#linearGradient2946"/>
    <radialGradient id="radialGradient2104" cx="99.574844" cy="8.36253" gradientTransform="matrix(.106084 .148844 -.192713 .133065 102.3863 -.192802)" gradientUnits="userSpaceOnUse" r="52.050152" xlink:href="#linearGradient2946"/>
    <radialGradient id="radialGradient2107" cx="12.914048" cy="75.710419" gradientTransform="matrix(2.35996 .08676642 -.129047 3.980977 13.9867 -115.3328)" gradientUnits="userSpaceOnUse" r="53.944607" spreadMethod="reflect" xlink:href="#linearGradient3311"/>
    <radialGradient id="radialGradient2115" cx="9.691052" cy="82.518127" fx="54.622295" fy="83.512177" gradientTransform="matrix(1 0 0 .221569 0 64.2347)" gradientUnits="userSpaceOnUse" r="56.164051" xlink:href="#linearGradient2466"/>
    <radialGradient id="radialGradient2117" cx="-172.62331" cy="-10.760036" gradientTransform="matrix(3.530012 .945865 -.47532 1.773919 431.6246 171.6057)" gradientUnits="userSpaceOnUse" r="16.943186" xlink:href="#linearGradient3075"/>
    <radialGradient id="radialGradient2125" cx="-30.639042" cy="100.34819" gradientTransform="matrix(2.444572 -.502712 .538102 2.605799 99.22722 -192.4655)" gradientUnits="userSpaceOnUse" r="45" xlink:href="#linearGradient3075"/>
    <linearGradient id="linearGradient3857" gradientTransform="matrix(1.1017226 0 0 1.1168606 -6.482396 -3.901192)" gradientUnits="userSpaceOnUse" x1="74.685875" x2="74.685875" y1="46.671852" y2="108.00891">
      <stop offset="0" stop-color="#f3a300"/>
      <stop offset="1" stop-color="#ed8000"/>
    </linearGradient>
    <radialGradient id="radialGradient4167" cx="45.25354" cy="50.847446" gradientTransform="matrix(1.1160076 .3964185 -.8321665 2.0507235 33.459823 -68.807937)" gradientUnits="userSpaceOnUse" r="48" xlink:href="#linearGradient2946"/>
    <linearGradient id="linearGradient3946" gradientTransform="matrix(1.1017226 0 0 1.1168606 -6.482396 -3.901192)" gradientUnits="userSpaceOnUse" x1="79.921997" x2="80.325142" y1="104.7278" y2="27.257406">
      <stop offset="0" stop-color="#4d2600"/>
      <stop offset="1" stop-color="#4d2600" stop-opacity="0"/>
    </linearGradient>
    <radialGradient id="radialGradient4062" cx="22.004967" cy="102" gradientTransform="matrix(9.1281454 -4.894077 .6018385 .9680314 -248.05891 118.97338)" gradientUnits="userSpaceOnUse" r="5.995033" xlink:href="#linearGradient4056"/>
    <linearGradient id="linearGradient4056">
      <stop offset="0" stop-color="#ffd500"/>
      <stop offset="1" stop-color="#ff9" stop-opacity="0"/>
    </linearGradient>
    <radialGradient id="radialGradient4066" cx="22.004967" cy="102" gradientTransform="matrix(-9.1281454 -4.894077 -.6018385 .9680314 376.36897 118.97338)" gradientUnits="userSpaceOnUse" r="5.995033" xlink:href="#linearGradient4056"/>
    <radialGradient id="radialGradient3849" cx="64.161339" cy="71.835777" fy="84.521217" gradientTransform="matrix(1.1578781 -.00000006 .00000006 1.3134238 -10.125019 -17.154521)" gradientUnits="userSpaceOnUse" r="48.004356">
      <stop offset="0" stop-color="#ffd500"/>
      <stop offset="1" stop-color="#f38200"/>
    </radialGradient>
    <radialGradient id="radialGradient3869" cx="64" cy="85.107361" gradientTransform="matrix(1.2869508 0 0 1.1214233 -18.364853 -13.046791)" gradientUnits="userSpaceOnUse" r="44.376011" xlink:href="#linearGradient3863"/>
    <linearGradient id="linearGradient3863">
      <stop offset="0" stop-color="#ff0"/>
      <stop offset="1" stop-color="#ff0" stop-opacity="0"/>
    </linearGradient>
    <filter id="filter3891" height="1.154287" width="1.134999" x="-.067499" y="-.077144">
      <feGaussianBlur stdDeviation="2.496129"/>
    </filter>
    <radialGradient id="radialGradient4187" cx="64" cy="64.5" gradientTransform="matrix(7.4243342 0 0 4.3571426 -411.52205 -217.18617)" gradientUnits="userSpaceOnUse" r="7" xlink:href="#linearGradient3993"/>
    <linearGradient id="linearGradient3993">
      <stop offset="0" stop-color="#ffffbf"/>
      <stop offset="1" stop-color="#ffffbf" stop-opacity="0"/>
    </linearGradient>
    <filter id="filter4001" height="1.865561" width="2.044643" x="-.522322" y="-.432781">
      <feGaussianBlur stdDeviation=".74999995"/>
    </filter>
    <radialGradient id="radialGradient4191" cx="64" cy="70.146568" gradientTransform="matrix(7.4243342 0 0 4.3571426 -411.15739 -216.53569)" gradientUnits="userSpaceOnUse" r="7" xlink:href="#linearGradient3993"/>
    <radialGradient id="radialGradient4076" cx="64" cy="21.994045" gradientTransform="matrix(-1 0 0 -12.343127 128 293.46933)" gradientUnits="userSpaceOnUse" r="4.21875" xlink:href="#linearGradient2946"/>
    <filter id="filter4102" height="1.143004" width="1.203585" x="-.101793" y="-.071502">
      <feGaussianBlur stdDeviation=".35786462"/>
    </filter>
    <linearGradient id="linearGradient4179" gradientTransform="matrix(.9882991 0 0 1.0543368 .351769 .488178)" gradientUnits="userSpaceOnUse" x1="83.718605" x2="83.718605" y1="19.993938" y2="88.047287">
      <stop offset="0" stop-color="#fff6c8"/>
      <stop offset="1" stop-color="#fff6c8" stop-opacity="0"/>
    </linearGradient>
    <linearGradient id="linearGradient3960" gradientUnits="userSpaceOnUse" x1="72.742889" x2="72.742889" xlink:href="#linearGradient3863" y1="102.71508" y2="42.471062"/>
    <filter id="filter5001" height="1.0621" width="1.054318" x="-.027159" y="-.03105">
      <feGaussianBlur stdDeviation=".45446348"/>
    </filter>
    <linearGradient id="linearGradient3977" gradientTransform="matrix(.9808901 0 0 1.0543368 .823273 .488178)" gradientUnits="userSpaceOnUse" x1="65.980019" x2="67.189468" xlink:href="#linearGradient2946" y1="15.087444" y2="82.910049"/>
    <linearGradient id="linearGradient4603" gradientTransform="matrix(1.3606406 0 0 .9099113 -23.089652 5.603775)" gradientUnits="userSpaceOnUse" x1="62.48819" x2="62.48819" xlink:href="#linearGradient4597" y1="82.645668" y2="41.925564"/>
    <linearGradient id="linearGradient4597">
      <stop offset="0"/>
      <stop offset="1" stop-color="#323232"/>
    </linearGradient>
    <linearGradient id="linearGradient4613" gradientUnits="userSpaceOnUse" x1="64.730019" x2="64.730019" xlink:href="#linearGradient4597" y1="91.716537" y2="85.771095"/>
    <linearGradient id="linearGradient4131" gradientUnits="userSpaceOnUse" x1="57.555244" x2="78.746033" xlink:href="#linearGradient2946" y1="41.456264" y2="81.571495"/>
    <filter id="filter4121" height="1.044319" width="1.18" x="-.09" y="-.02216">
      <feGaussianBlur stdDeviation=".30000033"/>
    </filter>
    <linearGradient id="linearGradient3930" gradientTransform="matrix(.9734816 0 0 1.0543368 1.294777 .488178)" gradientUnits="userSpaceOnUse" x1="88.959549" x2="78.860336" xlink:href="#linearGradient2946" y1="69.507797" y2="31.817015"/>
  </defs>
  <g transform="matrix(2 0 0 2 -8.778015 -.307151)">
    <path d="m50.892799 3.2812959v-2.79470843z" fill="#fff" fill-opacity=".756881"/>
    <path d="m103.35479 10.54353c-.6886-.09045-1.40274-.140391-2.11747-.136901l-65.627167 1.085623c-8.31701.0406-14.936385 6.664207-14.847332 14.818597l-1.106181 91.497901c.03498 3.20344 2.691268 5.75145 5.95859 5.7355 28.236572.34906 58.186626-.26914 87.79542-.69467 3.2673-.0159 5.88405-2.59986 5.84908-5.80328l-2.861-91.971655c-.0814-7.453618-5.71974-13.569052-13.04394-14.531115z" style="opacity:.12;fill:none;stroke:#000;stroke-width:8.48948;stroke-linecap:round;stroke-linejoin:round;stroke-dashoffset:4"/>
    <path d="m103.35479 10.54353c-.6886-.09045-1.40274-.140391-2.11747-.136901l-65.627167 1.085623c-8.31701.0406-14.936385 6.664207-14.847332 14.818597l-1.106181 91.497901c.03498 3.20344 2.691268 5.75145 5.95859 5.7355l87.79542-.69467c3.2673-.0159 5.88405-2.59986 5.84908-5.80328l-2.861-91.971655c-.0814-7.453618-5.71974-13.569052-13.04394-14.531115z" style="fill:none;stroke:#000;stroke-width:6.36711;stroke-linecap:round;stroke-linejoin:round;stroke-dashoffset:4;stroke-opacity:.078431"/>
    <path d="m103.35479 10.54353c-.6886-.09045-1.40274-.140391-2.11747-.136901l-65.627167 1.085623c-8.31701.0406-14.936385 6.664207-14.847332 14.818597l-1.106181 91.497901c.03498 3.20344 2.691268 5.75145 5.95859 5.7355l87.79542-.69467c3.2673-.0159 5.88405-2.59986 5.84908-5.80328l-2.861-91.971655c-.0814-7.453618-5.71974-13.569052-13.04394-14.531115z" style="opacity:.2;fill:none;stroke:#000;stroke-width:4.24474;stroke-linecap:round;stroke-linejoin:round;stroke-dashoffset:4"/>
    <path d="m50.764527 3.7874085 2.203958 6.3836975-9.012243.03233-.01644 13.315074-.000591.477486 47.843734-.171657.0012-.999931.000122-.0935-.679279-12.475052-9.17546-.08502 2.032204-6.3988975-13.262347-.056056-5.232908.018775z" style="opacity:.486885;fill:none;stroke:#000;stroke-width:6.60111;stroke-linecap:round;stroke-linejoin:round;stroke-dashoffset:4;stroke-opacity:.142276"/>
    <path d="m50.783413 3.67978 2.185072 6.491326-9.012243.03233-.01703 13.79256 47.843734-.171655-.784313-13.58495-9.038233.378426 2.126627-6.9370366-13.368732-.0725238-5.232906.0187734z" style="opacity:.486885;fill:none;stroke:#000;stroke-width:5.18658;stroke-linecap:round;stroke-linejoin:round;stroke-dashoffset:4;stroke-opacity:.142276"/>
    <path d="m103.35479 10.54353c-.6886-.09045-1.40274-.140391-2.11747-.136901l-65.627167 1.085623c-8.31701.0406-14.936385 6.664207-14.847332 14.818597l-1.106181 91.497901c.03498 3.20344 2.691268 5.75145 5.95859 5.7355l87.79542-.69467c3.2673-.0159 5.88405-2.59986 5.84908-5.80328l-2.861-91.971655c-.0814-7.453618-5.71974-13.569052-13.04394-14.531115z" style="opacity:.3;fill:none;stroke:#000;stroke-width:2.12237;stroke-linecap:round;stroke-linejoin:round;stroke-dashoffset:4"/>
    <path d="m102.75741 10.229548c-.6886-.09045-1.40273-.140391-2.11748-.136903l-65.627151 1.08562c-8.317019.040599-14.936383 6.664204-14.847339 14.818585l-1.106175 91.49787c.03498 3.20344 2.691268 5.75145 5.95859 5.73548l88.083925-.42484c3.26733-.0159 5.88407-2.59985 5.8491-5.80329l-3.14953-92.241411c-.0814-7.453616-5.71974-13.569048-13.04394-14.531111z" fill="url(#radialGradient2107)"/>
    <path d="m104.69487 9.9902565c-.9387-.1783784-1.91254-.2424252-2.90542-.2375787.00001.0000011-67.704477.5450002-67.919138.5555592-6.852274.337099-12.253621 5.920115-13.233105 12.675555 1.315805-6.23415 6.431163-11.274361 12.870779-11.591161.211939-.01042 66.914234.0105 66.914234.0105 7.47414-.150312 13.94602 4.494664 14.10602 13.059088l3.60833 84.924571c-8.34608.55813-16.61333.10062-24.770746-.81724 8.624106 1.01624 17.352276 1.55362 26.184416.96297l-3.19764-85.758432c-.0763-6.98646-5.08675-12.535182-11.65773-13.7838315zm-70.674803 90.5397635c-.982898-.0258-1.95911-.041-2.940029-.0411.982829-.003 1.955241.0181 2.940029.0411zm-2.940029-.0411c-1.974549-.00019-3.92616.0693-5.892942.1856 1.95806-.12011 3.927288-.18019 5.892942-.1856zm-6.098192.1835c-.898918.0552-1.811305.11974-2.708652.20188l-.0058.0328c.909029-.0854 1.803806-.17677 2.714421-.23464z" fill="url(#radialGradient2104)" opacity=".69"/>
    <path d="m104.69487 9.9902565c-.9387-.1783784-1.91254-.2424252-2.90542-.2375787.00001.0000011-67.704477.5450002-67.919138.5555592-6.852274.337099-12.253621 5.920115-13.233105 12.675555 1.315805-6.23415 6.431163-11.274361 12.870779-11.591161.211939-.01042 67.234724-.983739 67.234724-.983739 8.31426-.242223 14.62927 5.568793 14.78924 14.133222l2.60462 84.844676c-8.34608.55813-16.61333.10062-24.770746-.81724 8.624106 1.01624 17.352276 1.55362 26.184416.96297l-3.19764-85.758432c-.0763-6.98646-5.08675-12.535182-11.65773-13.7838315zm-70.674803 90.5397635c-.982898-.0258-1.95911-.041-2.940029-.0411.982829-.003 1.955241.0181 2.940029.0411zm-2.940029-.0411c-1.974549-.00019-3.92616.0693-5.892942.1856 1.95806-.12011 3.927288-.18019 5.892942-.1856zm-6.098192.1835c-.898918.0552-1.811305.11974-2.708652.20188l-.0058.0328c.909029-.0854 1.803806-.17677 2.714421-.23464z" fill="url(#radialGradient2101)" opacity=".65"/>
    <path d="m50.296946 3.2719834 2.109537 6.9218356-9.012244.03233-.01703 13.792563 47.843733-.171659.01702-13.792561-8.430781.03026 2.126626-6.9370392-14.701976.05275-5.232908.018773z" style="opacity:.486885;fill:none;stroke-width:3.0648;stroke-linecap:round;stroke-linejoin:round;stroke-dashoffset:4;stroke-opacity:.166667;stroke:url(#linearGradient2080)"/>
    <path d="m94.50859 10.983871-58.971839.991539c-8.239484.04493-14.797418 6.628859-14.713736 14.732075l-1.128739 88.719995c17.638671-37.946954 37.099298-75.109055 74.814314-104.443609z" fill="url(#linearGradient2094)" fill-rule="evenodd" opacity=".39"/>
    <path d="m50.216099 3.1573716 2.109535 6.9218344-9.012242.03233-.01703 13.792563 47.843745-.171657.01702-13.7925595-8.430793.030249 2.126639-6.9370357-14.701987.052749-5.232907.018773z" style="opacity:.9;fill:none;stroke:#000;stroke-width:.943015;stroke-linecap:round;stroke-linejoin:round;stroke-dashoffset:4;stroke-opacity:.166667"/>
    <path d="m50.209526 3.1452813 4.053752 13.1811597 6.561905-.02354 13.372988-.04798 6.561896-.02354 4.086319-13.2103642-14.701964.052749-5.232918.018772z" fill="url(#linearGradient2090)"/>
    <g opacity=".9" transform="matrix(1.182457 .206595 -.203954 1.158119 13.87027 -19.37001)">
      <path d="m19.620659 29.086936 14.023992 82.374534 63.711456-11.780672-16.563121-82.480686z" style="fill:#818181;stroke:#000;stroke-width:1.71516;stroke-linecap:round;stroke-linejoin:round;stroke-dashoffset:4;stroke-opacity:.195122"/>
      <path d="m19.042663 28.826498 14.113981 82.374522 63.711455-11.780667-16.56312-82.480682z" fill="#fff"/>
      <path d="m19.879049 29.36284 13.54853 79.82687 37.471916-6.99342 24.382605-5.319495-15.929157-79.083799z" fill="url(#radialGradient2125)"/>
    </g>
    <path d="m89.289716 11.039284-53.752965.936126c-8.239484.04493-14.797418 6.628859-14.713736 14.732075l-1.128739 88.719995c17.638671-37.946954 45.780635-79.257525 69.59544-104.388196z" fill="url(#linearGradient2083)" fill-rule="evenodd" opacity=".39"/>
    <path d="m50.296946 3.2719834 2.109537 6.9218356-9.012244.03233-.01703 13.792563 47.843733-.171659.01702-13.792561-8.430781.03026 2.126626-6.9370392-14.701976.05275-5.232908.018773z" style="opacity:.486885;fill:none;stroke-width:2.03218;stroke-linecap:round;stroke-linejoin:round;stroke-dashoffset:4;stroke-opacity:.166667;stroke:url(#linearGradient2080)"/>
    <rect fill="url(#linearGradient2077)" height="13.771544" transform="matrix(.999994 -.00358775 -.0012354 .999999 0 0)" width="47.843891" x="43.326172" y="10.274444"/>
    <g opacity=".9" transform="matrix(1.12591 .165303 -.194199 1.108431 60.95169 -21.13679)">
      <g transform="matrix(.326528 -.06047198 .06047198 .326528 94.99126 74.26059)">
        <rect fill="url(#radialGradient2117)" height="30.459736" opacity="1" stroke="#d5d5d5" stroke-dashoffset="4" stroke-width="3.28252" width="30.459736" x="-176.74179" y="-14.878519"/>
        <path d="m-177.73496-5.5181095 14.8655 19.0176415 39.64427-40.200814-38.4361 26.01602068-8.25824-13.14395368z" fill="#729ed4" fill-rule="evenodd"/>
      </g>
      <g transform="matrix(.326528 -.06047198 .06047198 .326528 90.25385 53.87968)">
        <rect fill="url(#radialGradient2117)" height="30.459736" opacity="1" stroke="#d5d5d5" stroke-dashoffset="4" stroke-width="3.28252" width="30.459736" x="-176.74179" y="-14.878519"/>
        <path d="m-177.73496-5.5181095 14.8655 19.0176415 39.64427-40.200814-38.4361 26.01602068-8.25824-13.14395368z" fill="#729ed4" fill-rule="evenodd"/>
      </g>
      <g transform="matrix(.326528 -.06047198 .06047198 .326528 85.51644 33.49876)">
        <rect fill="url(#radialGradient2117)" height="30.459736" opacity="1" stroke="#d5d5d5" stroke-dashoffset="4" stroke-width="3.28252" width="30.459736" x="-176.74179" y="-14.878519"/>
        <path d="m-177.73496-5.5181095 14.8655 19.0176415 39.64427-40.200814-38.4361 26.01602068-8.25824-13.14395368z" fill="#729ed4" fill-rule="evenodd"/>
      </g>
      <g transform="matrix(.326528 -.06047198 .06047198 .326528 99.72866 94.64151)">
        <rect fill="url(#radialGradient2117)" height="30.459736" opacity="1" stroke="#d5d5d5" stroke-dashoffset="4" stroke-width="3.28252" width="30.459736" x="-176.74179" y="-14.878519"/>
        <path d="m-177.73496-5.5181095 14.8655 19.0176415 39.64427-40.200814-38.4361 26.01602068-8.25824-13.14395368z" fill="#729ed4" fill-rule="evenodd"/>
      </g>
    </g>
    <rect fill="#7ea6d5" height=".558591" opacity=".270492" transform="matrix(.99946 -.03284658 .00085889 1 0 0)" width="47.949032" x="43.30191" y="24.411118"/>
    <rect fill="#7ea6d5" height="1.149101" opacity=".270492" transform="matrix(.99946 -.03284658 .00085889 1 0 0)" width="47.869999" x="43.30191" y="24.411118"/>
    <rect fill="#1e3e64" fill-opacity=".363265" height="5.799588" opacity=".364754" rx="2.626551" ry="2.628576" transform="matrix(.999937 -.01118797 -.01157786 .999933 0 0)" width="49.834774" x="30.241085" y="32.647537"/>
    <rect fill="#1e3e64" fill-opacity=".363265" height="5.799583" opacity=".364754" rx="2.626549" ry="2.628574" transform="matrix(.999937 -.01118797 -.01157786 .999933 0 0)" width="49.834736" x="31.326681" y="55.850254"/>
    <path d="m102.75741 10.229548c-.6886-.09045-1.40273-.140391-2.11748-.136903l-65.627151 1.08562c-8.317019.040599-14.936383 6.664204-14.847339 14.818585l-1.106175 91.49787c.03498 3.20344 2.691268 5.75145 5.95859 5.73548l88.083925-.42484c3.26733-.0159 5.88407-2.59985 5.8491-5.80329l-3.14953-92.241411c-.0814-7.453616-5.71974-13.569048-13.04394-14.531111z" fill="url(#linearGradient2057)"/>
    <rect fill="#1e3e64" fill-opacity=".363265" height="5.799582" opacity=".364754" rx="2.626548" ry="2.628573" transform="matrix(.999937 -.01118797 -.01157786 .999933 0 0)" width="49.834724" x="32.412254" y="79.052956"/>
    <rect fill="#1e3e64" fill-opacity=".363265" height="5.799582" opacity=".364754" rx="2.626548" ry="2.628573" transform="matrix(.999937 -.01118797 -.01157786 .999933 0 0)" width="49.834724" x="33.497822" y="102.25567"/>
    <ellipse cx="9.691052" cy="82.518127" fill="url(#radialGradient2115)" opacity=".196721" rx="56.164051" ry="12.444192" transform="matrix(.755056 .288093 -.225772 .575961 53.08618 47.52237)"/>
    <rect fill="url(#linearGradient2051)" height="13.771544" transform="matrix(.999994 -.00358775 -.0012354 .999999 0 0)" width="47.843891" x="43.326172" y="10.274444"/>
    <path d="m113.77846 121.97224-88.719204.54341-.0665-.0116-.0057.0326c-3.03367-.20052-5.192135-2.12011-5.849037-4.34487.480924 2.34639 1.847253 4.98186 5.8616 5.05194l-.0057.0326 88.785711-.53181zm-94.716115-4.12936c.0045.0265.01702.0443.02178.0709-.0046-.0194-.01745-.0515-.02178-.0709zm.01604.1035c.01006.0556.02675.11836.03782.17444-.01633-.0577-.02349-.11639-.03782-.17444z" fill="url(#linearGradient2048)" opacity=".45082"/>
    <g transform="matrix(-.929496 .704058 .705821 .927943 13.58441 -15.62455)">
      <path d="m11.325636 15.395973c-.000778-.5303 1.855513-1.948291 5.185446-1.953121 3.36258-.0049 5.190135 1.273844 5.19108 1.938089.000636.432349.0013.864702.0019 1.29705-3.458858.005-6.917699.01004-10.376549.01505-.000629-.432354-.0013-.864708-.0019-1.29707" fill-rule="evenodd"/>
      <path d="m16.749739 123.04067 5.152184-24.90548-.000251-.17288-10.376813-.16862.000295.23428z" fill-rule="evenodd"/>
      <path d="m16.808941 121.34465 4.810311-23.21933-.000251-.17287-9.81147-.1489.000293.23429z" fill="url(#radialGradient2430)" fill-rule="evenodd"/>
      <path d="m16.714808 98.87535c1.279861-.0019 1.760349-.89432 2.217841-.89499.07393-.00011.147036.02564.215664.06201l-.198855-82.138624-5.029938.0073.199071 82.294389c.113951-.12444.230241-.21843.37494-.21864.41817-.0006.93547.89042 2.221277.88856z" fill="url(#radialGradient2432)"/>
      <path d="m18.765822 15.904022.198764 82.076298c.435719.03558.745287.809 1.517864.80787.832606-.0012.881146-.76928 1.419287-.77319l-.198819-82.115234z" fill="url(#radialGradient2434)"/>
      <path d="m18.960145 94.91593.0047 3.21296c.433514.03557.741728.95757 1.510372.95645.828367-.0012.876448-.91782 1.411846-.92174l-.0047-3.25192z" opacity=".353488"/>
      <path d="m14.491973 96.42554.0024 1.64818-.000618.06166c.352201.01095.697617.9194 1.894294 1.026l.06387-.0001.455089-.00066.06388-.00009c1.208526-.11006 1.540204-1.03097 1.99768-1.03164l-.0071-1.75044z" fill="#252525" opacity=".386047"/>
      <path d="m11.569084 96.41237-.04326 1.61931c.016-.00006.01681.13677.0329.13675.328324-.00048.696726.88599 1.34769.998l.05588-.00009.247506-.00035.03193-.00006c.672599-.10928.909483-.97202 1.252006-1.03055l-.0025-1.72724z" fill="#131313" opacity=".353488"/>
      <path d="m13.086284 98.85741c.797227-.01046.980656-.87 1.407247-.87062l-.19875-82.076299-2.968397.0043.198811 82.115246c.01625-.00007.03231-.00005.04866-.00006.33352-.00049.70916.83787 1.512426.82742z" fill="#131313"/>
      <ellipse cx="34.677639" cy="7.462277" fill="url(#radialGradient2436)" rx="47.495197" ry=".971422" transform="matrix(-.0008266 -.707221 -1.34533 .00415392 22.85596 73.62345)"/>
      <path d="m106.56087 7.4622769a71.883232.4230493 0 0 1 -71.318597.4230363 71.883232.4230493 0 0 1 -72.438996-.4163905 71.883232.4230493 0 0 1 70.180601-.4295776 71.883232.4230493 0 0 1 73.541512.4096419" fill="url(#radialGradient2438)" transform="matrix(-.00170737 -.586705 -.976293 .00103839 21.53914 77.74483)"/>
      <path d="m11.3385 21.137905c-.32951 1.224507-.277699 2.776543.0056 3.884973l8.306745-.04986-.0056-3.884966zm7.430017-.04857.0056 3.884966 2.922379-.0042c.303734-1.048662.330371-2.597951-.0056-3.884965z" fill="url(#radialGradient2440)"/>
      <path d="m18.985175 112.35269c-1.11176.84784-3.41873.12334-4.42014.17662l2.182363 10.50723z" fill-rule="evenodd"/>
      <rect fill="url(#linearGradient2442)" height=".629294" transform="matrix(.99999895 -.00144978 .00144978 .99999895 0 0)" width="4.473904" x="14.270273" y="15.431628"/>
      <rect fill="url(#radialGradient2444)" height=".979319" transform="matrix(.99999895 -.00144978 .00144978 .99999895 0 0)" width="4.473904" x="14.270273" y="15.081595"/>
      <path d="m15.607667 13.590948c2.012663-.155646 3.998778.342402 4.154675.421586.15589.07919-2.271575-.293019-3.836477-.05552-1.552943.235679-2.93017 1.445948-3.101199 1.45841-.171028.01246-1.49783-.09237-.856147-.621866.671172-.553825 2.085169-1.081724 3.639148-1.202612z" fill="url(#linearGradient2446)" fill-rule="evenodd"/>
      <rect fill="url(#linearGradient2448)" height=".629294" transform="matrix(.99999895 -.00144978 .00144978 .99999895 0 0)" width="2.966932" x="11.303423" y="15.431628"/>
      <rect fill="url(#radialGradient2450)" height=".979319" transform="matrix(.99999895 -.00144978 .00144978 .99999895 0 0)" width="2.966932" x="11.303423" y="15.081595"/>
      <rect fill="url(#linearGradient2452)" height=".629294" transform="matrix(-.999999 .00144978 .00144978 .999999 0 0)" width="2.943761" x="-21.680071" y="15.431628"/>
      <rect fill="url(#radialGradient2454)" height=".979319" transform="matrix(-.999999 .00144978 .00144978 .999999 0 0)" width="2.943761" x="-21.680071" y="15.081595"/>
      <path d="m20.056065 90.07032c.000235.25238.0498.44806.148674.58705.0989.13901.237974.20842.417251.20825.178519-.00017.317091-.06985.415724-.20902.09861-.1392.147816-.33496.14758-.58733-.000237-.25382-.0498-.45021-.148686-.58922-.09889-.139-.237593-.2084-.416111-.20824-.179285.00017-.318227.06985-.416851.20903-.09863.13918-.147819.33567-.147581.58948m-.317922.00029c-.000475-.51621.07738-.92065.233599-1.21332.156209-.29266.372207-.43912.647955-.43938.275001-.00025.490872.1458.647638.43817.156763.29238.235384.69667.235869 1.21289.000476.51477-.07738.91921-.233595 1.21332-.156215.29266-.371819.43912-.646822.43938-.275746.00026-.492011-.1458-.648763-.43817-.156766-.29381-.235388-.6981-.235881-1.21289m.860063-3.91112.867242-1.11498.000813.86252-.580439.75119.58184.74367.000812.8668-.869335-1.11333-.831954 1.07192-.000813-.86466.547432-.70385-.548745-.70068-.000815-.86896zm-.834049-1.1607-.000846-.90552.605513-.73187-.606889-.73074-.000847-.90767.985657 1.22293.716738-.00068.000779.82811-.716744.00066zm1.568663-6.51867c.05336.20644.09344.42077.120237.643.0268.22224.04031.45166.04053.68825.0005.53486-.07811.95865-.235821 1.2714-.158464.31275-.373311.46924-.644506.4695-.274245.00026-.490134-.15871-.64767-.47689-.157559-.31819-.236579-.75403-.237104-1.30752-.000196-.21366.01024-.41801.03133-.61304.02108-.19647.05245-.38146.09405-.55502l.352115-.00032c-.05377.17929-.09387.35785-.120292.53568-.02643.17639-.03955.35351-.03938.53131.000307.3298.04955.58427.147705.76342.09741.17772.236895.2665.418443.26632.180043-.00016.318979-.08634.416818-.2585.09783-.17216.146598-.41668.146299-.73359-.000076-.08602-.0028-.1656-.0082-.23874-.0061-.07455-.01532-.14123-.02753-.2l-.330452.0003.000475.50547-.293979.00027-.0012-1.29053.818152-.00077m-1.575452-.72552-.0021-2.234775.331577-.000316.0013 1.406684.31678-.000297-.0012-1.322798.331587-.000313.0012 1.322798.389711-.000364-.0014-1.453999.331589-.000313.0021 2.282103-1.70125.0016m-.0028-3.011252-.00087-.924883 1.165736-1.16903-1.16683.0011-.000734-.785071 1.70125-.0016.000869.924886-1.165745 1.169024 1.166841-.0011.000733.785071-1.70125.0016m-.0049-5.213756-.000862-.924876 1.165727-1.169035-1.166823.0011-.000741-.785078 1.70125-.0016.000871.924883-1.165747 1.169025 1.166842-.0011.000734.785071-1.701251.0016m-.03501-4.52114c-.000277-.305422.04165-.546363.125801-.722819.08416-.177882.198401-.266892.34274-.26703.144331-.000132.258363.08795.342089.264237.08373.176301.125741.417875.126027.724733.000292.306864-.04126.549237-.124666.72712-.08339.176451-.197263.264747-.341594.264879-.144338.000139-.258744-.08795-.343236-.26424-.08449-.177726-.126865-.420018-.127161-.72688m1.079927.885154-.0017-1.77018.22789-.000215.0017 1.770187-.227895.000208m-.886138-.885333c.000123.120453.02414.213635.07205.279548.04792.06449.11594.09668.204061.0966.08812-.000081.1557-.03241.202739-.09698.04704-.066.0705-.15923.07038-.279682-.000102-.119014-.02374-.210761-.0709-.275249-.04716-.06591-.114804-.09883-.202923-.09875-.08812.000085-.156078.03313-.203878.09913-.04779.06458-.07163.156368-.07153.275381m.616502-4.818577c.02943-.216543.08093-.380777.154508-.492694.07282-.113347.16583-.170075.279021-.170182.168639-.000158.297134.121604.385482.365288.08759.243688.131602.599262.132041 1.066718.000154.164903-.0069.330529-.02118.49688-.01351.164914-.03425.3284-.0622.490458l-.33844.000317c.04088-.154899.07188-.308361.09301-.460376.02037-.153449.03048-.304023.03035-.451715-.000208-.219388-.02049-.387143-.06086-.503254-.04038-.117541-.09817-.176278-.173375-.17621-.07748.000075-.135923.06035-.175311.180838-.04015.119058-.06011.295447-.05989.529177l.00031.331236-.28259.000265-.000327-.348444c-.000194-.207917-.01743-.362763-.05172-.464543-.03504-.101774-.08788-.152629-.158522-.152565-.06534.000064-.115804.04958-.151421.148555-.03561.09898-.05333.238797-.05317.419472.000134.133357.0082.268139.02431.404343.01609.136213.03976.271694.07103.406453l-.321329.0003c-.02446-.163443-.04284-.325456-.05515-.486049-.0123-.160585-.01852-.318312-.01867-.473178-.000382-.417267.03578-.729183.108512-.935739.07198-.207985.180887-.312046.326738-.312187.09952-.000088.181235.04931.245138.148185.06313.09888.107711.245102.133722.438651" fill="#999"/>
    </g>
  </g>
  <g transform="translate(124.67299 129.28026)">
    <path d="m63.545839 13.968577c-2.979035.164627-5.673741 1.845694-7.161197 4.467442l-48.4757882 84.881391c-1.5747599 2.76615-1.5734933 6.174.00332 8.93894 1.5768151 2.76494 4.4894182 4.46656 7.6398772 4.46339h96.951589c3.15046.003 6.06305-1.69845 7.63987-4.46339 1.5768-2.76494 1.57807-6.17279.003-8.93894l-48.475468-84.881391c-1.659244-2.924746-4.802026-4.652728-8.125203-4.467442z" fill="url(#linearGradient3857)" fill-rule="evenodd"/>
    <path d="m63.545839 13.968577c-2.979035.164627-5.673741 1.845694-7.161197 4.467442l-48.4757882 84.881391c-1.5747599 2.76615-1.5734933 6.174.00332 8.93894 1.5768151 2.76494 4.4894182 4.46656 7.6398772 4.46339h96.951589c3.15046.003 6.06305-1.69845 7.63987-4.46339 1.5768-2.76494 1.57807-6.17279.003-8.93894l-48.475468-84.881391c-1.659244-2.924746-4.802026-4.652728-8.125203-4.467442z" fill="url(#radialGradient4167)" fill-rule="evenodd" opacity=".380488"/>
    <path d="m63.545839 13.968577c-2.979035.164627-5.673741 1.845694-7.161197 4.467442l-48.4757882 84.881391c-1.5747599 2.76615-1.5734933 6.174.00332 8.93894 1.5768151 2.76494 4.4894182 4.46656 7.6398772 4.46339h96.951589c3.15046.003 6.06305-1.69845 7.63987-4.46339 1.5768-2.76494 1.57807-6.17279.003-8.93894l-48.475468-84.881391c-1.659244-2.924746-4.802026-4.652728-8.125203-4.467442z" fill="url(#linearGradient3946)" fill-rule="evenodd" opacity=".195122"/>
    <path d="m21.403264 103.31741-14.1314898 2.19882c-.5829086 2.24575-.2836418 4.67252.9020102 6.73607 1.5886331 2.76495 4.5305956 4.47061 7.7046676 4.46744h3.119452z" fill="url(#radialGradient4062)" fill-rule="evenodd" opacity=".5"/>
    <path d="m106.90679 103.31741 14.1315 2.19882c.58291 2.24575.28364 4.67252-.90201 6.73607-1.58864 2.76495-4.5306 4.47061-7.70467 4.46744h-3.11946z" fill="url(#radialGradient4066)" fill-rule="evenodd" opacity=".5"/>
    <path d="m63.767866 21.879886c-1.306055.07793-2.487456.873683-3.13958 2.114724l-42.505079 80.35951c-.690398 1.3094-.689843 2.92255.0015 4.23135.691297 1.30884 1.968227 2.11433 3.349438 2.11282h85.010165c1.38121.002 2.65816-.80398 3.34943-2.11282.6913-1.3088.69186-2.92195.001-4.23135l-42.504659-80.35951c-.727437-1.384469-2.105283-2.202433-3.562215-2.114724z" fill="url(#radialGradient3849)" fill-rule="evenodd"/>
    <path d="m63.797784 24.58531c-1.249801.06813-2.380317.763833-3.004353 1.848833l-40.674318 70.255639c-.660662 1.144758-.660131 2.555087.0014 3.699338.661525 1.14426 1.883456 1.84846 3.205175 1.84716h81.348642c1.32172.001 2.54365-.7029 3.20517-1.84716.66153-1.144251.66206-2.55458.001-3.699338l-40.673931-70.255639c-.696106-1.210394-2.014605-1.925512-3.408785-1.848833z" fill="url(#radialGradient3869)" fill-rule="evenodd" filter="url(#filter3891)" transform="matrix(.9509453 0 0 1.0495475 2.766387 .791854)"/>
    <rect height="40" rx="3.779723" ry="4.543031" style="opacity:.75;fill:#ffffbf;stroke-width:3.77241;stroke-linecap:round;stroke-linejoin:round;stroke:url(#radialGradient4187);filter:url(#filter4001)" transform="matrix(1.0582784 0 0 1.0623869 -3.73847 3.417188)" width="8" x="59.635338" y="35.349518"/>
    <path d="m66.922835 88.18898a2.922835 3.5275595 0 1 1 -5.84567 0 2.922835 3.5275595 0 1 1 5.84567 0z" style="opacity:.75;fill:#ffffbf;stroke-width:2.50664;stroke-linecap:round;stroke-linejoin:round;stroke:url(#radialGradient4191);filter:url(#filter4001)" transform="matrix(1.8103633 0 0 1.4066011 -52.25781 -28.933263)"/>
    <path d="m63.59375 16c-1.389197.08205-2.704285.602887-3.8125 1.4375l4.21875 10.5625 4.21875-10.5625c-1.32888-1.00366-2.94755-1.537464-4.625-1.4375z" fill="url(#radialGradient4076)" fill-rule="evenodd" filter="url(#filter4102)" opacity=".921951" transform="matrix(1.20268 0 0 1.1168606 -14.474518 -3.901192)"/>
    <path d="m63.386725 21.574911c-1.33617.0777-2.544814.871185-3.211973 2.108673l-25.294283 46.62145c7.757791 1.221541 16.089769 1.878038 24.76925 1.878038 11.431968 0 22.262711-1.135538 31.9653-3.195957l-24.583942-45.303531c-.74421-1.380506-2.153827-2.196129-3.644352-2.108673z" fill="url(#linearGradient4179)" fill-rule="evenodd"/>
    <path d="m63.78125 20c-1.351989.0737-2.574941.826287-3.25 2l-44 76c-.714681 1.238357-.714106 2.764.0015 4.00181.715621 1.23782 2.037462 1.9996 3.46725 1.99819h88c1.42979.001 2.75163-.76037 3.46724-1.99819.71562-1.23781.71619-2.763453.002-4.00181l-44-76c-.753022-1.30936-2.179327-2.082949-3.6875-2z" style="fill:none;stroke-width:3.03535;stroke-linecap:round;stroke-linejoin:round;stroke:url(#linearGradient3960);filter:url(#filter5001)" transform="matrix(1.006808 0 0 .9702406 -.830278 8.252098)"/>
    <path d="m63.385683 21.574911c-1.326152.0777-2.525734.871185-3.187893 2.108673l-25.104661 46.62145h.03065l25.074011-45.402373c.662159-1.206311 1.861741-1.967029 3.187893-2.042777 1.479352-.08525 2.878402.697051 3.617032 2.042777l24.368996 44.084454c.0098-.0021.02087.0021.03065 0l-24.399646-45.303531c-.73863-1.380506-2.13768-2.196129-3.617032-2.108673z" fill="url(#linearGradient3977)" fill-rule="evenodd"/>
    <rect fill="url(#linearGradient4603)" height="40.036098" rx="4" width="10.885125" x="58.54879" y="42.000229"/>
    <path d="m66.922835 88.18898a2.922835 3.5275595 0 1 1 -5.84567 0 2.922835 3.5275595 0 1 1 5.84567 0z" fill="url(#linearGradient4613)" transform="matrix(2.067905 0 0 1.6942337 -68.354569 -56.072663)"/>
    <path d="m64 39.90169c-2.216 0-4 1.784-4 4v28.491551c.0734.000099.145301 0 .21875 0 2.623811 0 5.231353-.06405 7.78125-.1875v-28.304051c0-2.216-1.784-4-4-4z" fill="url(#linearGradient4131)" filter="url(#filter4121)" opacity=".419512" transform="matrix(1.1916048 0 0 .9181159 -12.443951 5.331205)"/>
    <path d="m64.875285 21.805548c.393431.32735.746653.740351 1.003901 1.219075l24.276195 44.908153c-9.589011 2.042814-20.552948 3.723126-31.851096 3.72313-7.975212 0-15.644977-.594998-22.846395-1.647403l-.152105.296531c7.641476 1.221541 15.848531 1.878038 24.397878 1.878038 11.260568 0 21.928924-1.135538 31.486043-3.195957l-24.215353-45.303531c-.474501-.893592-1.231477-1.549524-2.099068-1.878036z" fill="url(#linearGradient3930)" fill-rule="evenodd"/>
  </g>
</svg>
