<svg height="256" viewBox="0 0 256 256" width="256" xmlns="http://www.w3.org/2000/svg" xmlns:xlink="http://www.w3.org/1999/xlink">
  <defs>
    <linearGradient id="lg1">
      <stop offset="0" stop-color="#fff"/>
      <stop offset="1" stop-color="#fff" stop-opacity="0"/>
    </linearGradient>
    <linearGradient id="linearGradient1476" gradientTransform="matrix(2.5526639 0 0 6.8892264 -8.4042 -1864.7649)" gradientUnits="userSpaceOnUse" x1="14.566191" x2="53.988441" xlink:href="#lg1" y1="252.09871" y2="252.09871"/>
    <radialGradient id="radialGradient1484" cx="128.00000218989" cy="128.00017921152" gradientUnits="userSpaceOnUse" r="110.08756730516">
      <stop offset="0" stop-color="#009cff"/>
      <stop offset=".67562854" stop-color="#009cff"/>
      <stop offset="1"/>
    </radialGradient>
    <linearGradient id="linearGradient3581" gradientUnits="userSpaceOnUse" x1="55.531013" x2="55.531013" y1="118.80805" y2="17.668362">
      <stop offset="0" stop-color="#344f69"/>
      <stop offset="1" stop-color="#344f69" stop-opacity="0"/>
    </linearGradient>
    <filter id="filter3571" height="1.05127" width="1.052721" x="-.026361" y="-.025635">
      <feGaussianBlur stdDeviation="1.1715214"/>
    </filter>
    <filter id="filter6134" height="1.1224" width="1.1224" x="-.0612" y="-.0612">
      <feGaussianBlur stdDeviation="1.4061355"/>
    </filter>
    <radialGradient id="radialGradient3844" cx="178.67446297152" cy="-20.36559300324" gradientUnits="userSpaceOnUse" r="60.97750590447">
      <stop offset="0" stop-color="#0081ec"/>
      <stop offset="1" stop-color="#003871"/>
    </radialGradient>
    <radialGradient id="radialGradient3846" cx="-166.53223" cy="65.938202" gradientTransform="matrix(1 0 0 .6578174 0 22.562908)" gradientUnits="userSpaceOnUse" r="31.190229" xlink:href="#lg1"/>
    <clipPath id="clipPath6080-3">
      <circle cx="-166.53223" cy="93.331604" filter="url(#filter6074-6)" r="30.690229"/>
    </clipPath>
    <filter id="filter6074-6" height="1.149692" width="1.149692" x="-.074846" y="-.074846">
      <feGaussianBlur stdDeviation="1.9142018"/>
    </filter>
    <radialGradient id="radialGradient3874" cx="178.67561" cy="33.344582" gradientUnits="userSpaceOnUse" r="48.538506">
      <stop offset="0" stop-color="#0081ec"/>
      <stop offset="1" stop-color="#004c98"/>
    </radialGradient>
    <linearGradient id="linearGradient3869" gradientUnits="userSpaceOnUse" x1="186.12886" x2="192.96213" xlink:href="#linearGradient5919-7" y1="-74.484558" y2="6.798794"/>
    <linearGradient id="linearGradient5919-7">
      <stop offset="0" stop-color="#fff"/>
      <stop offset=".5" stop-color="#78c9ff" stop-opacity=".498039"/>
      <stop offset="1" stop-color="#fff" stop-opacity="0"/>
    </linearGradient>
    <filter id="filter5956" height="1.089982" width="1.04574" x="-.02287" y="-.044991">
      <feGaussianBlur stdDeviation=".55418773"/>
    </filter>
    <linearGradient id="linearGradient3865" gradientUnits="userSpaceOnUse" x1="174.19484" x2="174.19484" xlink:href="#linearGradient5919-7" y1="-159.74007" y2="9.671667"/>
    <linearGradient id="linearGradient3862" gradientUnits="userSpaceOnUse" x1="231.27029" x2="141.22015" xlink:href="#linearGradient5919-7" y1="38.749645" y2="-25.269569"/>
    <linearGradient id="linearGradient3859" gradientUnits="userSpaceOnUse" x1="174.19484" x2="174.19484" xlink:href="#linearGradient5919-7" y1="-66.391182" y2="-23.07552"/>
    <filter id="filter6166" height="1.097534" width="1.050783" x="-.025391" y="-.048767">
      <feGaussianBlur stdDeviation=".14350697"/>
    </filter>
  </defs>
  <circle cx="128" cy="128.00002" fill="url(#radialGradient1484)" r="110.08756" stroke="#000" stroke-width="4.54089"/>
  <ellipse cx="79.094299" cy="-128" fill="url(#linearGradient1476)" rx="50.315884" ry="77.333771" transform="rotate(90)"/>
  <path d="m89.645961 156.9918 13.361919 15.9551 23.87949-47.82521h-49.148087l48.491157-105.50993 46.19321-.2081-43.72374 79.25874h48.85705l-57.39018 82.5659 22.11998 2.30012-58.845503 50.5373c1.283986-25.59634 4.01554-51.54423 6.204704-77.07377z" fill="#ffe207" stroke="#ffa002" stroke-width="3.9899"/>
  <g transform="matrix(1.7598473 0 0 1.7598473 -49.848195 119.09715)">
    <g transform="matrix(.60501391 0 0 .60501391 25.291242 39.091227)">
      <ellipse cx="60.122658" cy="61.886696" fill="url(#linearGradient3581)" filter="url(#filter3571)" rx="53.330559" ry="54.839916" transform="matrix(1.0578512 0 0 1.0578512 114.67446 -66.131753)"/>
      <circle cx="-164.53831" cy="95.063271" fill="#003972" filter="url(#filter6134)" r="27.571283" transform="matrix(2.1561308 0 0 2.1561308 533.4934 -207.72498)"/>
      <circle cx="178.67447" cy="-2.660688" fill="url(#radialGradient3844)" r="59.999996"/>
      <circle clip-path="url(#clipPath6080-3)" cx="-166.53223" cy="93.331604" fill="url(#radialGradient3846)" filter="url(#filter6074-6)" r="30.690229" transform="matrix(1.9550195 0 0 1.9550195 504.24822 -185.12579)"/>
      <circle cx="178.67563" cy="-2.900274" fill="url(#radialGradient3874)" r="47.760403"/>
      <path d="m178.7104-50.643599c-26.36375 0-47.74031 21.376575-47.74031 47.7403194 0 2.454357.1557 4.883055.51334 7.238048.002.01654-.002.03479 0 .05134 10.03804 1.605554 20.72771 2.412686 31.82686 2.412686 23.71232 0 45.60009-3.962388 63.14043-10.626075-.49318-25.9377004-21.6854-46.8163144-47.74032-46.8163184z" fill="url(#linearGradient3869)" opacity=".892193"/>
      <path d="m-134.09375 98.625c-.003.166656-.0312.332675-.0312.5 0 16.04925 13.0445 29.0625 29.09375 29.0625 16.049249 0 29.062503-13.01325 29.0625-29.0625 0-.167107.0028-.33356 0-.5-.267346 15.81875-13.180358 28.5625-29.0625 28.5625-15.88193 0-28.79481-12.74404-29.0625-28.5625z" fill="#007fea" filter="url(#filter5956)" transform="matrix(1.6426776 0 0 1.6426776 351.23876 -165.23141)"/>
      <path d="m178.68173-50.60967c-26.36374 0-47.74031 21.376578-47.74031 47.7403274 0 .241785-.003.477418 0 .718664.49271-25.9372284 21.68538-46.8163184 47.74031-46.8163004 25.50084 0 46.35165 20.005143 47.68899 45.1736264.0148-.0056.0365.0056.0513 0-.49316-25.9376964-21.68539-46.8162994-47.74031-46.8163174z" fill="url(#linearGradient3865)"/>
      <path d="m196.57137-47.188968c15.83846 7.549927 28.86186 24.314865 29.21599 42.9413824-17.54032 6.663703-41.43725 9.880943-65.14956 9.88096-10.16291 0-19.96984-.706604-29.2602-2.053339.0336.253104.0131.518512.0513.770007.002.01654-.002.03479 0 .05134 10.03803 1.605536 20.72773 2.412668 31.82688 2.412668 23.71232 0 45.60009-3.962355 63.14041-10.626057-.37329-19.6344694-12.59866-36.4025804-29.82482-43.3769614z" fill="url(#linearGradient3862)"/>
      <path d="m178.68173-50.60967c-26.36374 0-47.74031 21.376578-47.74031 47.7403274 0 .241785-.003.477418 0 .718664.49271-25.9372284 21.68538-47.4733884 47.74031-47.4733704 25.50084 0 46.35165 20.662213 47.68899 45.8306964.0148-.0056.0365.0056.0513 0-.49316-25.9376964-21.68539-46.8162994-47.74031-46.8163174z" fill="url(#linearGradient3859)"/>
    </g>
    <g transform="matrix(.60501391 0 0 .60501391 23.624538 20.815124)">
      <g id="g1882" transform="translate(-1 26.341481)">
        <path d="m150.50858-9.305524c-5.69053 0-10.26673 4.906304-10.26673 10.985408v.308002c0 6.0791 4.5762 10.9854 10.26673 10.985405h1.69402c5.69053 0 10.31806-4.906302 10.31806-10.985405v-.308002c0-6.079102-4.62753-10.985405-10.31806-10.985408z" style="fill:#fff;stroke:#000;stroke-width:.164268;stroke-linecap:round;stroke-linejoin:round;stroke-dashoffset:1.0878"/>
        <path d="m-261.34375 76.8125c-3.46417 0-6.25 2.986771-6.25 6.6875v.1875c0 .06295-.002.124974 0 .1875.10756-3.598634 2.85458-6.468748 6.25-6.46875h1.03125c3.39544.000002 6.17249 2.87012 6.28125 6.46875.002-.06253 0-.124549 0-.1875v-.1875c-.00001-3.700727-2.81706-6.687498-6.28125-6.6875z" fill="#120b0b" fill-opacity=".234568" filter="url(#filter6166)" transform="matrix(1.6426776 0 0 1.6426776 579.78795 -135.4837)"/>
        <path d="m140.27757 1.166547c-.007.170375 0 .340989 0 .513337v.308002c.00001 6.0791 4.5762 10.9854 10.26673 10.985405h1.694c5.69058 0 10.31808-4.906302 10.31808-10.985405v-.308002c0-.172348.007-.342962 0-.513337-.25217 5.839225-4.78885 10.472074-10.31808 10.47207h-1.694c-5.5292-.000009-10.0173-4.63284-10.26673-10.47207z" fill="#fff"/>
      </g>
      <use transform="translate(31.125)" xlink:href="#g1882"/>
      <use transform="translate(62.25)" xlink:href="#g1882"/>
    </g>
  </g>
</svg>
