<svg height="256" width="256" xmlns="http://www.w3.org/2000/svg" xmlns:xlink="http://www.w3.org/1999/xlink">
  <defs>
    <clipPath id="clipPath4676">
      <path d="m-24.34375 863.23718c-3.765618.0129-7.605084.33656-11.5.96875-31.159331 5.0575-53.288279 28.75619-49.4375 52.9375 2.068601 12.98996 12.075692 21.90469 24.0625 29.59375 4.324976 2.7743.03545 17.7964-9.09375 21.75 18.630389-.58483 28.25302-8.1707 33.40625-15.84375 4.863182.22384 9.890802-.0457 15-.875 31.15933-5.0575 53.28828-28.7562 49.4375-52.9375-3.36943-21.15864-25.515677-35.68392-51.875-35.59375z"/>
    </clipPath>
    <radialGradient cx="65.125" cy="60.99979" fy="74.771309" gradientTransform="matrix(1.2906724 0 0 1.1949353 -112.93004 842.97117)" gradientUnits="userSpaceOnUse" r="56.841492">
      <stop offset="0" stop-color="#7cd4ff"/>
      <stop offset=".5" stop-color="#3e8fb4"/>
      <stop offset="1" stop-color="#004b69"/>
    </radialGradient>
    <filter id="filter4686" height="1.129912" width="1.121644" x="-.060822" y="-.064956">
      <feGaussianBlur stdDeviation="3.3496307"/>
    </filter>
    <filter id="filter4820" height="1.157411" width="1.145735" x="-.072868" y="-.078706">
      <feGaussianBlur stdDeviation="3.4515838"/>
    </filter>
    <linearGradient id="linearGradient5326" gradientUnits="userSpaceOnUse" x1="79.752075" x2="79.752075" y1="115.83942" y2="62.532864">
      <stop offset="0" stop-color="#000b1c"/>
      <stop offset="1" stop-color="#000a1c" stop-opacity="0"/>
    </linearGradient>
    <radialGradient id="radialGradient5328" cx="65.125" cy="60.99979" fx="87.516037" fy="67.562584" gradientTransform="matrix(-2.5841424 .31837956 .29476338 2.3924608 280.52456 -33.309031)" gradientUnits="userSpaceOnUse" r="56.841492">
      <stop offset="0" stop-color="#7cbbff"/>
      <stop offset=".60811019" stop-color="#0f5ce3"/>
      <stop offset="1" stop-color="#001869"/>
    </radialGradient>
    <linearGradient id="linearGradient5330" gradientTransform="matrix(-1.5125011 .05264724 .23077394 1.8730873 137.55764 39.258164)" gradientUnits="userSpaceOnUse" x1="7.494134" x2="10.346652" y1="-7.320284" y2="61.587627">
      <stop offset="0" stop-color="#9fbfff"/>
      <stop offset="1" stop-color="#9fc1ff" stop-opacity="0"/>
    </linearGradient>
    <radialGradient id="radialGradient5336" cx="65.032387" cy="963.30902" fx="64.325279" fy="921.39209" gradientTransform="matrix(-1.8969565 .23371472 .13404806 1.0880074 118.74628 -977.2057)" gradientUnits="userSpaceOnUse" r="51.628277">
      <stop offset="0" stop-color="#9fc2ff"/>
      <stop offset="1" stop-color="#9fb9ff" stop-opacity="0"/>
    </radialGradient>
    <filter id="filter3395" height="1.177195" width="1.113849" x="-.056924" y="-.088597">
      <feGaussianBlur stdDeviation="2.3106204"/>
    </filter>
    <filter id="filter3223" height="1.220072" width="1.142245" x="-.071123" y="-.110036">
      <feGaussianBlur stdDeviation="3.4970547"/>
    </filter>
    <radialGradient id="radialGradient6529" cx="-9.625694" cy="-67.683014" fx="-35.087757" fy="-78.957077" gradientTransform="matrix(.42532218 0 0 .35491455 62.281793 92.287501)" gradientUnits="userSpaceOnUse" r="115.80503">
      <stop offset="0" stop-color="#fff"/>
      <stop offset=".5" stop-color="#ededed"/>
      <stop offset=".75" stop-color="#e3e3e3"/>
      <stop offset="1" stop-color="#8c8c8c"/>
    </radialGradient>
    <radialGradient id="radialGradient6488" cx="-318.59558" cy="-88.287811" gradientTransform="matrix(.3540592 -.0510836 .10886374 1.0203179 171.02422 132.11066)" gradientUnits="userSpaceOnUse" r="65.186401">
      <stop offset="0" stop-color="#646464"/>
      <stop offset="1" stop-color="#e3e3e3"/>
    </radialGradient>
    <filter id="filter3068" height="1.083466" width="1.090071" x="-.045035" y="-.041733">
      <feGaussianBlur stdDeviation="2.0377368"/>
    </filter>
    <filter id="filter3098" height="1.07891" width="1.079741" x="-.03987" y="-.039455">
      <feGaussianBlur stdDeviation="1.8302414"/>
    </filter>
    <radialGradient id="radialGradient6490" cx="-675.3678" cy="-51.796902" gradientTransform="matrix(1 0 0 1.0237352 0 1.229408)" gradientUnits="userSpaceOnUse" r="55.901997">
      <stop offset="0" stop-color="#7a7a7a"/>
      <stop offset="1" stop-color="#649191" stop-opacity="0"/>
    </radialGradient>
    <radialGradient id="radialGradient1017" cx="-673.01239" cy="-56.807011" gradientTransform="matrix(1.5841831 .2374271 -.28448622 1.7867905 377.00167 204.32421)" gradientUnits="userSpaceOnUse" r="56.163616" xlink:href="#linearGradient6556"/>
    <linearGradient id="linearGradient6556">
      <stop offset="0" stop-color="#fff"/>
      <stop offset="1" stop-color="#fff" stop-opacity="0"/>
    </linearGradient>
    <linearGradient id="linearGradient6492" gradientTransform="matrix(.22404843 -.11275225 .11345377 .13178786 128.93614 23.571374)" gradientUnits="userSpaceOnUse" x1="-267.98022" x2="-329.33154" xlink:href="#linearGradient6556" y1="-226.54375" y2="78.231689"/>
    <radialGradient id="radialGradient6494" cx="-313.77863" cy="-75.845619" fx="-343.31003" fy="-124.01205" gradientTransform="matrix(.35220715 -.0656517 .06027778 .40810225 166.14461 73.418152)" gradientUnits="userSpaceOnUse" r="65.186401">
      <stop offset="0" stop-color="#fff" stop-opacity="0"/>
      <stop offset=".38366336" stop-opacity="0"/>
      <stop offset=".81882757" stop-opacity=".08"/>
      <stop offset="1"/>
    </radialGradient>
    <radialGradient id="radialGradient6496" cx="-313.77863" cy="-75.845619" gradientTransform="matrix(.13599289 -.02506821 .01364588 .15582829 92.625047 65.900709)" gradientUnits="userSpaceOnUse" r="65.186401">
      <stop offset="0"/>
      <stop offset="1" stop-opacity="0"/>
    </radialGradient>
    <filter id="filter6459" height="1.069996" width="1.036523" x="-.018261" y="-.034998">
      <feGaussianBlur stdDeviation=".83079885"/>
    </filter>
    <radialGradient id="radialGradient6498" cx="-313.77863" cy="-75.845619" fx="-327.88126" fy="-122.29082" gradientTransform="matrix(.1341621 -.02473073 .01346218 .15373047 92.036651 65.847492)" gradientUnits="userSpaceOnUse" r="65.186401">
      <stop offset="0" stop-color="#fff" stop-opacity=".872727"/>
      <stop offset="1" stop-color="#fff" stop-opacity="0"/>
    </radialGradient>
    <filter id="filter3357" height="1.1693" width="1.094505" x="-.047253" y="-.08465">
      <feGaussianBlur stdDeviation="2.4020058"/>
    </filter>
    <radialGradient id="radialGradient6515" cx="52.792747" cy="85.201317" gradientTransform="matrix(1 0 0 3.2171551 -6.702731 -211.62942)" gradientUnits="userSpaceOnUse" r="56.78125">
      <stop offset="0" stop-color="#bababa"/>
      <stop offset="1" stop-color="#969696"/>
    </radialGradient>
    <filter id="filter3272" height="1.055294" width="1.035611" x="-.017805" y="-.027647">
      <feGaussianBlur stdDeviation=".86270686"/>
    </filter>
    <filter id="filter3323" height="1.084684" width="1.037504" x="-.018752" y="-.042342">
      <feGaussianBlur stdDeviation=".76083033"/>
    </filter>
    <clipPath id="clipPath6441">
      <path d="m22.439952 87.515684s17.743324-23.206517 39.132853-19.021923c21.389529 4.184602 47.457915 38.141109 47.457915 38.141109-7.61683 11.67867-26.706068 15.82616-41.655108 16.98935 15.587282-.0492 36.482638 4.10681 53.521638-15.55 0 0-28.44074-46.664692-57.029307-51.472685-28.588558-4.808001-52.161621 31.447106-52.161621 31.447106 8.785892 20.233149 27.807104 28.995419 49.712587 34.525209-18.509454-8.99599-31.999795-17.03048-38.978957-35.058166z"/>
    </clipPath>
    <filter id="filter6401" height="1.108914" width="1.049692" x="-.024846" y="-.054457">
      <feGaussianBlur stdDeviation=".89646"/>
    </filter>
    <clipPath id="clipPath6451">
      <path d="m10.817467 61.753265c39.998456-53.3312759 82.663475-17.777091 108.440253 22.221364-32.846914-64.013106-71.997216-86.2188946-108.440253-22.221364z"/>
    </clipPath>
    <filter id="filter3898" height="1.070939" width="1.033488" x="-.016744" y="-.03547">
      <feGaussianBlur stdDeviation=".75652406"/>
    </filter>
  </defs>
  <path d="m69.65625 8.375c-3.765618.012882-7.605084.3365625-11.5.96875-31.159331 5.0575-53.2882786 28.756195-49.4375 52.9375 2.068601 12.989963 12.075692 21.904692 24.0625 29.59375 4.324976 2.7743.03545 17.7964-9.09375 21.75 18.630389-.58483 28.25302-8.1707 33.40625-15.84375 4.863182.223844 9.890802-.04572 15-.875 31.15933-5.0575 53.28828-28.756195 49.4375-52.9375-3.36943-21.158642-25.515677-35.6839225-51.875-35.59375z" fill="url(#linearGradient5326)" filter="url(#filter4820)" opacity=".582888" transform="matrix(-2.0216586 .24907866 .22265328 1.8071757 250.07872 21.541406)"/>
  <path d="m108.15912 29.119144c7.54258-.90308 15.30968-1.20216 23.2639-.8972 63.63377 2.43966 113.78558 44.42972 112.04064 93.794636-.93736 26.51836-18.77416 46.8356-40.87705 65.18741-7.97497 6.6214 4.31899 35.63999 23.57245 41.30379-37.44542 3.425-58.58282-9.3896-70.79323-23.4812-9.68167 1.6478-19.81439 2.3476-30.24835 1.9482-63.633782-2.4396-113.78557-44.4296-112.040643-93.7946 1.526808-43.194316 42.284259-77.739336 95.082283-84.061036z" fill="url(#radialGradient5328)"/>
  <path clip-path="url(#clipPath4676)" d="m-23.382812 853.99609c-4.274503.0146-8.57874.38395-12.927735 1.08985-17.487927 2.83848-32.659743 10.88129-43.152344 22.11718-10.506172 11.25043-16.385711 26.13647-13.953125 41.41211 2.484767 15.60331 13.632812 25.90957 25.328125 33.83594-.0714.49014-.07256.88959-.320312 1.57031-.484203 1.33041-1.328794 2.76437-2.234375 3.89258-.905581 1.12822-1.950549 1.93609-2.328125 2.09961l.0098-.004c-3.92927 1.67555-6.324069 6.33769-5.398437 10.50781.925632 4.17011 5.068715 7.38056 9.337891 7.23633 18.131727-.57068 30.2654-7.68514 37.517578-15.9043 3.942396-.0401 7.947803-.26735 12.064453-.93555 17.4878919-2.83838 32.659708-10.88119 43.152309-22.11708 10.506172-11.25043 16.385712-26.13648 13.953125-41.41211-4.250859-26.69365-31.2618906-43.49057-61.048828-43.38868zm.04687 11.38282c25.5728772-.0875 46.598362 13.92197 49.763672 33.79882 1.808758 11.35825-2.454257 22.65639-11.042968 31.85352-8.5887116 9.19713-21.4937162 16.1912-36.632813 18.64844-4.963136.80559-9.843152 1.06674-14.560547.84961a2.1299053 2.1299053 0 0 0 -1.865234.93945c-4.148305 6.17674-11.265682 12.28657-24.625 14.25781 2.03145-2.34678 3.587327-5.0887 4.580078-7.8164.912393-2.50691 1.392626-4.98478 1.316406-7.22071s-.714909-4.48086-2.666015-5.73242c-11.810536-7.57599-21.184733-16.0488-23.109375-28.13476-1.808758-11.35826 2.454257-22.65639 11.042968-31.85352s21.493716-16.1912 36.632813-18.64844c3.789907-.61514 7.51747-.9289 11.166015-.9414z" fill="#09162a" filter="url(#filter4686)" opacity=".572193" transform="matrix(-2.0021676 .24667728 .24667728 2.0021676 -153.5484 -1693.2173)"/>
  <path d="m26.925692 96.070184c-2.823466 31.101356 48.344758 46.838836 101.805968 44.977956 61.40494-2.13738 105.28908-15.49526 95.12978-51.652396-9.02218-32.11014-49.40012-61.217-102.86132-59.35612-53.461208 1.86088-91.058888 32.81358-94.074428 66.03056z" fill="url(#linearGradient5330)" opacity=".903743"/>
  <path d="m26.925692 96.070184c-2.823466 31.101356 48.344758 46.838836 101.805968 44.977956 61.40494-2.13738 105.28908-15.49526 95.12978-51.652396-9.02218-32.11014-49.40012-61.217-102.86132-59.35612-53.461208 1.86088-91.058888 32.81358-94.074428 66.03056z" fill="url(#radialGradient5336)" opacity=".903743"/>
  <g transform="matrix(1.1779229 0 0 1.1779229 106.33997 128.13209)">
    <path d="m340.05181 154.59069s19.96201-26.10834 44.02616-21.40049c24.06415 4.70786 53.39222 42.91041 53.39222 42.91041-8.56927 13.13901-30.05846 17.80511-46.87679 19.11375l-6.68857-1.18171c-20.82394-10.12088-36.00116-19.16003-43.85302-39.44196z" fill-rule="evenodd" filter="url(#filter3395)" opacity=".568773" transform="matrix(.91693614 0 0 .91693614 -299.42448 -83.580492)"/>
    <path d="m20.438369 84.983841s19.175821-26.108334 42.292212-21.400483c23.116393 4.70786 51.289399 42.910402 51.289399 42.910402-8.23178 13.13901-28.862168 17.80511-45.018109 19.11375 16.845708-.0554 39.428039 4.62034 57.842669-17.49442 0 0-30.736886-52.499807-61.633524-57.909011-30.896631-5.409204-56.3728469 35.379362-56.3728469 35.379362 9.4952189 22.763169 30.0520849 32.621109 53.7260879 38.842359-20.003794-10.12088-34.583264-19.16003-42.125888-39.441959z" fill-rule="evenodd" filter="url(#filter3223)" opacity=".360595" transform="matrix(.95452979 0 0 .91693614 -7.127724 -19.755459)"/>
    <path d="m12.381313 58.169299s18.303888-23.93968 40.369177-19.622883c22.065288 4.316807 48.95725 39.346101 48.95725 39.346101-7.857461 12.047634-27.561682 16.326154-42.983017 17.526094l-6.132991-1.08355c-19.094223-9.2802-33.010765-17.568527-40.210419-36.165762z" fill="url(#radialGradient6529)" fill-rule="evenodd"/>
    <path d="m74.016846 58.785887a26.948727 23.288326 88.043614 1 1 -45.918235 8.559196 26.948727 23.288326 88.043614 1 1 45.918235-8.559196z" fill="url(#radialGradient6488)"/>
    <g transform="matrix(.35191113 .0435957 -.05462966 .36007323 267.14875 109.73241)">
      <path d="m-618.74997-55.593742c9.375-9.375 45.31249-35.937498 45.31249-35.937498l-42.18749 42.187497h47.65624l-49.21874 3.90625 45.31249 39.0624987-48.43749-32.8124987 17.96875 46.0937478-7.8125-57.8124978-45.3125 42.1874987 35.9375-56.2499977-3.90625 17.968749h-53.125l49.21875-13.281249-.78125 17.187499-29.6875-57.812497 37.5 54.687497-10.15625-64.062497 17.96875 60.156247 15.625-51.562497-30.46875 48.437498 54.68749-6.25-51.56249 8.593749 44.53125 17.1875-42.1875-13.28125-14.0625 41.4062487 22.65625-42.1874987-48.4375 8.59375 57.8125 2.34375z" fill="#060606" fill-rule="evenodd" filter="url(#filter3068)" opacity=".576208"/>
      <path d="m-675.78122-64.187492c9.375-9.375 45.31249-35.937498 45.31249-35.937498l-42.18749 42.187497h47.65624l-49.21874 3.90625 45.31249 39.062499-48.43749-32.812499 17.96875 46.0937481-7.8125-57.8124981-45.3125 42.187499 35.9375-56.249998-3.90625 17.968749-55.4296-18.613271 51.52335 5.332022-.78125 17.187499-29.6875-57.812497 37.5 54.687497-10.15625-64.062497 17.96875 60.156247 15.625-51.562497-30.46875 48.437498 54.68749-6.25-51.56249 8.593749 44.53125 17.1875-42.1875-13.28125-14.0625 41.406249 22.65625-42.187499-67.5863 10.635141 76.9613.302359z" fill="#d5d5d5" fill-opacity=".722543" fill-rule="evenodd" filter="url(#filter3098)" opacity=".933085" transform="matrix(-.99989801 .01428189 -.01428189 -.99989801 -1302.354197 -102.260938)"/>
      <path d="m-675.78122-64.187492c9.375-9.375 52.85724-13.590169 52.85724-13.590169l-49.73224 19.840168 51.6994 4.64305-53.2619-.7368 32.78062 49.9611671-35.90562-43.7111671 46.11396 32.554808-35.95771-44.273558-29.89574 58.88871202 20.52074-72.95121102-3.90625 17.968749-50.65989-5.16432 46.75364-8.116929-.78125 17.187499-44.62257-40.607769 52.43507 37.482769 1.78505-52.650327 6.02745 48.744077 29.13389-30.169284-43.97764 27.044285 58.73065-1.60695-55.60565 3.950699 51.49455 33.423812-49.1508-29.517562 1.45559 59.4627574 7.13816-60.2440074-39.86844 49.0534819 49.24344-38.1159819z" fill="url(#radialGradient6490)" fill-rule="evenodd" filter="url(#filter3098)" opacity=".933085" transform="matrix(-.99989801 .01428189 -.01428189 -.99989801 -1302.354197 -102.260938)"/>
      <path d="m-676.09577-56.549223c9.375-9.375 53.68975-34.927045 53.68975-34.927045l-50.2502 33.538775 57.69232-6.804075-59.25482 10.710325 50.09461 43.738004-47.74822-37.687194 20.0201 55.0933915-15.33524-66.6129515-66.7243 27.636738 55.78712-23.480132-2.34407-.250356-38.98683-53.772697 47.64518 50.830678-13.34585 6.848269 72.21757-.776839-64.40507-2.348161-10.15625-64.062497 16.50054 60.888914 5.91442-61.539954-10.63049 60.600101 39.54521-50.278761-45.07968 49.704697 67.83395 23.318163-65.4902-19.411913-28.16874 50.7464279 36.76249-51.5276779-71.01097-13.715156 79.83169 18.736597z" fill="url(#radialGradient1017)" fill-rule="evenodd" opacity=".933085" transform="matrix(-.99989801 .01428189 -.01428189 -.99989801 -1302.354197 -102.260938)"/>
      <path d="m-676.09577-56.549223c9.375-9.375 5.25822-67.244397 5.25822-67.244397l-1.81867 65.856127-61.45279-40.274008 59.89029 44.180258 36.04927 54.46965382-33.70288-48.41884382-13.57161 53.2425418 18.25647-64.7621018-66.7243 27.636738 55.78712-23.480132-2.34407-.250356-38.98683-53.772697 47.64518 50.830678-13.34585 6.848269 64.07657 16.386909-56.26407-19.511909-10.15625-64.062497 16.50054 60.888914 56.82326 4.191415-61.53933-5.131268 50.33451-36.762698-55.86898 36.188634 57.05207 37.504274-54.70832-33.598024-28.16874 50.7464279 36.76249-51.5276779-71.01097-13.715156 79.83169 18.736597z" fill="url(#radialGradient1017)" fill-rule="evenodd" opacity=".933085" transform="matrix(-.99989801 .01428189 -.01428189 -.99989801 -1302.354197 -102.260938)"/>
    </g>
    <path d="m58.320334 60.214582a9.3847497 10.967201 11.189389 1 1 -18.803857 3.466204 9.3847497 10.967201 11.189389 1 1 18.803857-3.466204z" fill="#393939"/>
    <path d="m63.178137 42.338074a11.842344 15.640249 87.887539 1 1 -26.297153 13.234028 11.842344 15.640249 87.887539 1 1 26.297153-13.234028z" fill="url(#linearGradient6492)"/>
    <path d="m74.016846 58.785887a26.948727 23.288326 88.043614 1 1 -45.918235 8.559196 26.948727 23.288326 88.043614 1 1 45.918235-8.559196z" fill="url(#radialGradient6494)" opacity=".357488"/>
    <path d="m57.783292 60.313578a8.84869 10.340751 11.189394 1 1 -17.729775 3.268213 8.84869 10.340751 11.189394 1 1 17.729775-3.268213z" fill="url(#radialGradient6496)"/>
    <path d="m55.717237 67.256091c-18.65241.459046-33.21875 19.53125-33.21875 19.53125.08683.22429.19241.43504.28125.65625 1.43813-1.82379 18.4071-22.691787 38.875-18.6875 20.519524 4.014396 45.076933 35.107429 47.062503 37.656249.12203-.17541.2583-.35232.375-.53125 0 0-26.047974-33.940397-47.437503-38.124999-2.005269-.392306-4.007941-.547488-5.9375-.5zm-43.65625 20.65625c-.04972.07477-.28125.40625-.28125.40625 8.78589 20.233139 27.81326 29.001459 49.71875 34.531249-1.498641-.72837-2.974207-1.46592-4.40625-2.1875-19.8169-5.53761-36.73628-14.29957-45.03125-32.749999zm108.531253 19.843749c-14.35911 16.2234-31.349112 15.76992-45.625003 15.28125-2.570576.36397-5.111421.65546-7.53125.84375 15.587282-.0492 36.492253 4.12556 53.531253-15.53125 0 0-.30038-.47338-.375-.59375z" fill-rule="evenodd" filter="url(#filter6459)" transform="matrix(1.031593 0 0 1.031593 -10.767585 -32.111268)"/>
    <path d="m57.66395 60.335576a8.7295656 10.20154 11.189387 1 1 -17.49109 3.224215 8.7295656 10.20154 11.189387 1 1 17.49109-3.224215z" fill="url(#radialGradient6498)" opacity=".603865"/>
    <path d="m326.97601 126.60685c45-60.000003 93-20 122 25-36.95421-72.017526-81-97.000003-122-25z" fill="#101010" fill-rule="evenodd" filter="url(#filter3357)" opacity=".502415" transform="matrix(.91693614 0 0 .91693614 -299.42448 -83.580492)"/>
    <path d="m48.766019-7.928089c-16.156308-.363388-32.51487 11.679314-48.3750001 39.53125 41.2621271-55.016171 85.2838561-18.355876 111.8750011 22.90625-19.589562-38.176757-41.359875-61.939523-63.500001-62.4375zm.875 33.75c-26.972092.02211-48.3437501 32.90625-48.3437501 32.90625 9.0634651 20.87237 28.6837071 29.88926 51.2812501 35.59375-19.094223-9.2802-32.987845-17.559015-40.1875-36.15625 0 0 18.309712-23.941798 40.375-19.625 22.065288 4.316806 48.937501 39.34375 48.937501 39.34375-7.857471 12.04763-27.547426 16.33131-42.968751 17.53125 16.079731-.0507 37.64144 4.24658 55.218751-16.03125 0 0-29.351985-48.133858-58.843751-53.09375-1.843235-.309994-3.670611-.470224-5.46875-.46875z" fill="url(#radialGradient6515)" fill-rule="evenodd"/>
    <path d="m59.781315 50.846503c-27.838843.023762-49.906727 35.344184-49.906727 35.344184.16578.397424.350811.78044.523389 1.169929 2.673794-4.110378 26.338992-39.071966 55.017471-34.051104 28.468719 4.984138 56.486672 50.000328 60.035852 55.879528.23482-.27172.47464-.52009.70812-.80048 0 0-30.304489-51.720287-60.743972-57.049455-1.902466-.333073-3.778211-.494186-5.634133-.492602zm-40.461132 34.952299c-.204341.26338-.492602.64654-.492602.64654 6.332929 17.029098 17.707469 26.026908 33.127476 34.482128 2.736559.86973 5.532327 1.6854 8.374232 2.43222-19.268098-9.74865-33.4422-18.50222-41.009106-37.560888zm94.977407 21.835578c-8.53315 12.1356-28.152598 16.5111-43.626052 17.76446 3.842127-.0126 7.988191.23699 12.315046.33866 12.871534-2.43061 25.907426-7.42442 32.019126-17.17949 0 0-.43881-.5679-.70812-.92363z" fill="#b3b3b3" fill-rule="evenodd" filter="url(#filter3272)" transform="matrix(.95452979 0 0 .91693614 -7.127724 -19.755459)"/>
    <path d="m380.01351 82.723181c-.68571-.01987-1.37608.0071-2.0625.02953-13.81089.451187-27.74012 9.556006-41.375 29.237599 1.31332-1.28804 2.62216-2.52057 3.9375-3.66208 29.93366-38.598786 61.1039-27.309277 89.03125 12.75822 1.49936 1.54223 2.9593 3.13848 4.40625 4.7548-17.00302-26.545018-35.32913-42.578961-53.9375-43.118069z" fill="#c3c3c3" fill-rule="evenodd" filter="url(#filter3323)" transform="matrix(.91693614 0 0 .91693614 -299.42448 -83.580492)"/>
    <path clip-path="url(#clipPath6441)" d="m55.403054 66.761395c-18.65241.459046-33.21875 19.53125-33.21875 19.53125l2.15625 1.78125s16.87394-22.073956 37.21875-18.09375c20.344803 3.980214 45.124996 36.281245 45.124996 36.281245l2.09375-.875s-26.047967-33.940393-47.437496-38.124995c-2.005269-.392306-4.007941-.547488-5.9375-.5z" fill="#1f1f1f" fill-rule="evenodd" filter="url(#filter6401)" transform="matrix(1.031593 0 0 1.031593 -10.767585 -32.111268)"/>
    <path clip-path="url(#clipPath6451)" d="m54.306528 32.98125c-12.557446.111728-25.56471 6.190533-38.375 20.9375-1.63308 2.5123-3.25186 5.180866-4.875 8.03125 39.998453-53.3312759 82.660722-17.779705 108.437502 22.21875-1.71674-3.34563-3.46887-6.545361-5.21875-9.65625-16.057329-22.503312-37.281783-41.733105-59.968752-41.53125z" fill="#424242" fill-rule="evenodd" filter="url(#filter3898)" transform="matrix(1.031593 0 0 1.031593 -10.767585 -32.111268)"/>
  </g>
</svg>
