<svg height="256" width="256" xmlns="http://www.w3.org/2000/svg" xmlns:xlink="http://www.w3.org/1999/xlink">
  <defs>
    <linearGradient id="linearGradient2155">
      <stop offset="0" stop-color="#cfcfcf"/>
      <stop offset="1" stop-color="#cfcfcf" stop-opacity="0"/>
    </linearGradient>
    <clipPath id="clipPath4676">
      <path d="m-24.34375 863.23718c-3.765618.0129-7.605084.33656-11.5.96875-31.159331 5.0575-53.288279 28.75619-49.4375 52.9375 2.068601 12.98996 12.075692 21.90469 24.0625 29.59375 4.324976 2.7743.03545 17.7964-9.09375 21.75 18.630389-.58483 28.25302-8.1707 33.40625-15.84375 4.863182.22384 9.890802-.0457 15-.875 31.15933-5.0575 53.28828-28.7562 49.4375-52.9375-3.36943-21.15864-25.515677-35.68392-51.875-35.59375z"/>
    </clipPath>
    <radialGradient cx="65.125" cy="60.99979" fy="74.771309" gradientTransform="matrix(1.2906724 0 0 1.1949353 -112.93004 842.97117)" gradientUnits="userSpaceOnUse" r="56.841492">
      <stop offset="0" stop-color="#7cd4ff"/>
      <stop offset=".5" stop-color="#3e8fb4"/>
      <stop offset="1" stop-color="#004b69"/>
    </radialGradient>
    <filter id="filter4686" height="1.129912" width="1.121644" x="-.060822" y="-.064956">
      <feGaussianBlur stdDeviation="3.3496307"/>
    </filter>
    <filter id="filter4820" height="1.157411" width="1.145735" x="-.072868" y="-.078706">
      <feGaussianBlur stdDeviation="3.4515838"/>
    </filter>
    <linearGradient id="linearGradient5326" gradientUnits="userSpaceOnUse" x1="79.752075" x2="79.752075" y1="115.83942" y2="62.532864">
      <stop offset="0" stop-color="#0e0e0e"/>
      <stop offset="1" stop-color="#0e0e0e" stop-opacity="0"/>
    </linearGradient>
    <radialGradient id="radialGradient5328" cx="65.125" cy="60.99979" fx="87.516037" fy="67.562584" gradientTransform="matrix(-2.5841424 .31837956 .29476338 2.3924608 280.52456 -33.309031)" gradientUnits="userSpaceOnUse" r="56.841492">
      <stop offset="0" stop-color="#bdbdbd"/>
      <stop offset=".60811019" stop-color="#797979"/>
      <stop offset="1" stop-color="#353535"/>
    </radialGradient>
    <linearGradient id="linearGradient5330" gradientTransform="matrix(-1.5125011 .05264724 .23077394 1.8730873 137.55764 39.258164)" gradientUnits="userSpaceOnUse" x1="7.494134" x2="10.346652" xlink:href="#linearGradient2155" y1="-7.320284" y2="61.587627"/>
    <radialGradient id="radialGradient5336" cx="65.032387" cy="963.30902" fx="64.325279" fy="921.39209" gradientTransform="matrix(-1.8969565 .23371472 .13404806 1.0880074 118.74628 -977.2057)" gradientUnits="userSpaceOnUse" r="51.628277" xlink:href="#linearGradient2155"/>
    <linearGradient id="linearGradient3208" gradientUnits="userSpaceOnUse" x1="88.55311264083" x2="88.55311264083" y1="85.94657578693" y2="30.20666076741">
      <stop offset="0" stop-color="#810000"/>
      <stop offset="1" stop-color="#c50000"/>
    </linearGradient>
    <clipPath id="clipPath3559">
      <path d="m-64.510272 10.75c-1.042316.0084-2.040208.423209-2.78125 1.15625l-16.96875 16.96875c-1.561474 1.562119-1.561474 4.094131 0 5.65625l25.4375 25.46875-25.4375 25.46875c-1.561474 1.562119-1.561474 4.094131 0 5.65625l16.96875 16.96875c1.562119 1.56147 4.094131 1.56147 5.65625 0l25.46875-25.4375 25.46875 25.4375c1.5621191 1.56147 4.0941311 1.56147 5.6562501 0l16.9687499-16.96875c1.56147-1.562119 1.56147-4.094131 0-5.65625l-25.4375-25.46875 25.4375-25.46875c1.56147-1.562119 1.56147-4.094131 0-5.65625l-16.9687499-16.96875c-1.562119-1.561474-4.094131-1.561474-5.6562501 0l-25.46875 25.4375-25.46875-25.4375c-.764077-.756011-1.800247-1.172731-2.875-1.15625zm31.1875 63.40625c-.751409-.759464-1.775386-1.18681-2.84375-1.18681s-2.092341.427346-2.84375 1.18681z"/>
    </clipPath>
    <filter id="filter3549" height="1.318829" width="1.245312" x="-.122653" y="-.162916">
      <feGaussianBlur stdDeviation="2.5695681"/>
    </filter>
    <linearGradient id="linearGradient1754" gradientTransform="scale(1.0975951 .9110828)" gradientUnits="userSpaceOnUse" x1="26.091133" x2="31.500689" y1="14.856744" y2="14.856744">
      <stop offset="0" stop-color="#fff"/>
      <stop offset="1" stop-color="#fff" stop-opacity="0"/>
    </linearGradient>
    <filter id="filter3477" height="1.28034" width="1.232702" x="-.116351" y="-.14017">
      <feGaussianBlur stdDeviation=".28784801"/>
    </filter>
    <linearGradient id="linearGradient5179" gradientUnits="userSpaceOnUse" x1="304.88663" x2="345.62039" y1="385.86127" y2="384.62384">
      <stop offset="0" stop-color="#765c44"/>
      <stop offset="1" stop-color="#765c44" stop-opacity="0"/>
    </linearGradient>
    <linearGradient id="linearGradient3200" gradientUnits="userSpaceOnUse" x1="86.3397011637" x2="86.3397011637" y1="91.89945271172" y2="61.21274869036">
      <stop offset="0" stop-color="#f00"/>
      <stop offset="1" stop-color="#7f0000"/>
    </linearGradient>
    <linearGradient id="linearGradient5130" gradientUnits="userSpaceOnUse" spreadMethod="reflect" x1="88.60625" x2="91.575107" xlink:href="#linearGradient3366" y1="13.510336" y2="13.510336"/>
    <linearGradient id="linearGradient3366">
      <stop offset="0" stop-color="#ff8787"/>
      <stop offset="1" stop-color="#ff8787" stop-opacity="0"/>
    </linearGradient>
    <radialGradient id="radialGradient5265" cx="-36.592777" cy="90.072952" gradientTransform="matrix(.4576062 0 0 .782313 -19.847694 18.82067)" gradientUnits="userSpaceOnUse" r="25.986174">
      <stop offset="0"/>
      <stop offset="1" stop-opacity="0"/>
    </radialGradient>
    <linearGradient id="linearGradient5120" gradientUnits="userSpaceOnUse" spreadMethod="reflect" x1="31.60625" x2="34.575107" xlink:href="#linearGradient3207" y1="13.510336" y2="13.510336"/>
    <linearGradient id="linearGradient3207">
      <stop offset="0" stop-color="#fff"/>
      <stop offset="1" stop-color="#790000" stop-opacity="0"/>
    </linearGradient>
    <linearGradient id="linearGradient5126" gradientUnits="userSpaceOnUse" spreadMethod="reflect" x1="88.60625" x2="91.575107" xlink:href="#linearGradient3207" y1="13.510336" y2="13.510336"/>
    <linearGradient id="linearGradient5100" gradientUnits="userSpaceOnUse" x1="59.999996" x2="57.434441" y1="92.973083" y2="55.07938">
      <stop offset="0" stop-color="#fff5e4"/>
      <stop offset=".25" stop-color="#ffecd0"/>
      <stop offset=".5" stop-color="#ffd390"/>
      <stop offset="1" stop-color="#ffc46a"/>
    </linearGradient>
    <filter id="filter3354" height="1.044866" width="1.044866" x="-.022433" y="-.022433">
      <feGaussianBlur stdDeviation=".45754832"/>
    </filter>
    <linearGradient id="linearGradient3194" gradientTransform="matrix(.83975136 0 0 .41783313 53.756397 39.499782)" gradientUnits="userSpaceOnUse" x1="68.313011" x2="51.544849" y1="109.97649" y2="32.750854">
      <stop offset="0" stop-color="#f4f5f8"/>
      <stop offset="1" stop-color="#fdfdfe"/>
    </linearGradient>
    <linearGradient id="linearGradient3191" gradientUnits="userSpaceOnUse" x1="81.75321024873" x2="81.75321024873" xlink:href="#linearGradient3366" y1="52.37651070104" y2="81.17576043117"/>
    <linearGradient id="linearGradient3188" gradientUnits="userSpaceOnUse" x1="87.91512538847" x2="87.39197618899" y1="82.78552198048" y2="52.30193285905">
      <stop offset="0" stop-color="#fff" stop-opacity="0"/>
      <stop offset="1" stop-color="#fff"/>
    </linearGradient>
  </defs>
  <path d="m69.65625 8.375c-3.765618.012882-7.605084.3365625-11.5.96875-31.159331 5.0575-53.2882786 28.756195-49.4375 52.9375 2.068601 12.989963 12.075692 21.904692 24.0625 29.59375 4.324976 2.7743.03545 17.7964-9.09375 21.75 18.630389-.58483 28.25302-8.1707 33.40625-15.84375 4.863182.223844 9.890802-.04572 15-.875 31.15933-5.0575 53.28828-28.756195 49.4375-52.9375-3.36943-21.158642-25.515677-35.6839225-51.875-35.59375z" fill="url(#linearGradient5326)" filter="url(#filter4820)" opacity=".582888" transform="matrix(-2.0216586 .24907866 .22265328 1.8071757 250.07872 21.541406)"/>
  <path d="m108.15912 29.119144c7.54258-.90308 15.30968-1.20216 23.2639-.8972 63.63377 2.43966 113.78558 44.42972 112.04064 93.794636-.93736 26.51836-18.77416 46.8356-40.87705 65.18741-7.97497 6.6214 4.31899 35.63999 23.57245 41.30379-37.44542 3.425-58.58282-9.3896-70.79323-23.4812-9.68167 1.6478-19.81439 2.3476-30.24835 1.9482-63.633782-2.4396-113.78557-44.4296-112.040643-93.7946 1.526808-43.194316 42.284259-77.739336 95.082283-84.061036z" fill="url(#radialGradient5328)"/>
  <path clip-path="url(#clipPath4676)" d="m-23.382812 853.99609c-4.274503.0146-8.57874.38395-12.927735 1.08985-17.487927 2.83848-32.659743 10.88129-43.152344 22.11718-10.506172 11.25043-16.385711 26.13647-13.953125 41.41211 2.484767 15.60331 13.632812 25.90957 25.328125 33.83594-.0714.49014-.07256.88959-.320312 1.57031-.484203 1.33041-1.328794 2.76437-2.234375 3.89258-.905581 1.12822-1.950549 1.93609-2.328125 2.09961l.0098-.004c-3.92927 1.67555-6.324069 6.33769-5.398437 10.50781.925632 4.17011 5.068715 7.38056 9.337891 7.23633 18.131727-.57068 30.2654-7.68514 37.517578-15.9043 3.942396-.0401 7.947803-.26735 12.064453-.93555 17.4878919-2.83838 32.659708-10.88119 43.152309-22.11708 10.506172-11.25043 16.385712-26.13648 13.953125-41.41211-4.250859-26.69365-31.2618906-43.49057-61.048828-43.38868zm.04687 11.38282c25.5728772-.0875 46.598362 13.92197 49.763672 33.79882 1.808758 11.35825-2.454257 22.65639-11.042968 31.85352-8.5887116 9.19713-21.4937162 16.1912-36.632813 18.64844-4.963136.80559-9.843152 1.06674-14.560547.84961a2.1299053 2.1299053 0 0 0 -1.865234.93945c-4.148305 6.17674-11.265682 12.28657-24.625 14.25781 2.03145-2.34678 3.587327-5.0887 4.580078-7.8164.912393-2.50691 1.392626-4.98478 1.316406-7.22071s-.714909-4.48086-2.666015-5.73242c-11.810536-7.57599-21.184733-16.0488-23.109375-28.13476-1.808758-11.35826 2.454257-22.65639 11.042968-31.85352s21.493716-16.1912 36.632813-18.64844c3.789907-.61514 7.51747-.9289 11.166015-.9414z" fill="#1a1a1a" filter="url(#filter4686)" opacity=".572193" transform="matrix(-2.0021676 .24667728 .24667728 2.0021676 -153.5484 -1693.2173)"/>
  <path d="m26.925692 96.070184c-2.823466 31.101356 48.344758 46.838836 101.805968 44.977956 61.40494-2.13738 105.28908-15.49526 95.12978-51.652396-9.02218-32.11014-49.40012-61.217-102.86132-59.35612-53.461208 1.86088-91.058888 32.81358-94.074428 66.03056z" fill="url(#linearGradient5330)" opacity=".903743"/>
  <path d="m26.925692 96.070184c-2.823466 31.101356 48.344758 46.838836 101.805968 44.977956 61.40494-2.13738 105.28908-15.49526 95.12978-51.652396-9.02218-32.11014-49.40012-61.217-102.86132-59.35612-53.461208 1.86088-91.058888 32.81358-94.074428 66.03056z" fill="url(#radialGradient5336)" opacity=".903743"/>
  <g transform="matrix(2 0 0 2 13.041605 40.99265)">
    <path d="m72.507909 45.867523c-.617413.0049-1.208516.250684-1.647467.684902l-10.051403 10.051403c-.924939.925313-.924936 2.425149-.000002 3.350465l15.067851 15.086365-15.067848 15.086358c-.924937.92531-.924937 2.425146 0 3.350462l10.051403 10.051402c.925312.92494 2.425149.92494 3.350468.00001l15.086357-15.067852 15.086362 15.067852c.92532.92493 2.42515.92493 3.35047-.00001l10.0514-10.051402c.92493-.925316.92493-2.425146 0-3.350468l-15.06785-15.086352 15.06785-15.086365c.92493-.925316.92493-2.425152 0-3.350468l-10.0514-10.051402c-.92532-.924934-2.42515-.924936-3.35047.000002l-15.086362 15.067846-15.086361-15.067849c-.4526-.447821-1.066369-.694661-1.702998-.684899zm18.47385 37.558556c-.445098-.44987-1.051644-.703005-1.684491-.703005-.63284 0-1.239393.253135-1.68449.703005z" fill="url(#linearGradient3208)"/>
    <path clip-path="url(#clipPath3559)" d="m-62.57895 106.7868 26.162951-26.870061 25.809397 26.516501-25.809397-40.305083z" fill-rule="evenodd" filter="url(#filter3549)" stroke="#000" stroke-width=".493731" transform="matrix(.59234787 0 0 .59234787 110.75215 39.499779)"/>
    <path d="m31.7 16 2.875-3.375c-1.051205-1.695758-3.935136-2.288018-5.9375-.3125l2.8125 3.375z" fill="url(#linearGradient1754)" fill-rule="evenodd" filter="url(#filter3477)" opacity=".498127" transform="matrix(0 1.1042792 -1.1042792 0 129.75798 56.911344)"/>
    <path d="m31.7 16 2.875-3.375c-1.051205-1.695758-3.935136-2.288018-5.9375-.3125l2.8125 3.375z" fill="url(#linearGradient1754)" fill-rule="evenodd" filter="url(#filter3477)" opacity=".790262" transform="matrix(1.090564 0 0 -1.090564 38.060631 115.73974)"/>
    <path d="m31.7 16 2.875-3.375c-1.051205-1.695758-3.935136-2.288018-5.9375-.3125l2.8125 3.375z" fill="url(#linearGradient5179)" fill-rule="evenodd" filter="url(#filter3477)" opacity=".498127" transform="matrix(0 .9999793 .9999793 0 49.94765 60.197196)"/>
    <path d="m106.05139 50.380261-16.754122 16.754124-16.754125-16.754122-7.906265 7.906265 16.754125 16.754124-16.75413 16.754129 7.90627 7.90626 16.754125-16.754123 16.754122 16.754123 7.90626-7.906266-16.754122-16.754123 16.754122-16.754124z" fill="url(#linearGradient3200)" opacity=".921348"/>
    <path d="m88.7 16 2.875-3.375c-1.051205-1.695758-3.935136-2.288018-5.9375-.3125l2.8125 3.375z" fill="url(#linearGradient5130)" fill-rule="evenodd" filter="url(#filter3477)" opacity=".790262" transform="matrix(.9999793 0 0 -.9999793 17.679413 114.88407)"/>
    <path clip-path="url(#clipPath3559)" d="m-62.57895 106.7868 26.162951-26.870061 25.809397 26.516501-25.809397-40.305083z" fill="url(#radialGradient5265)" fill-rule="evenodd" filter="url(#filter3549)" transform="matrix(.59234787 0 0 -.59234787 110.75215 110.30218)"/>
    <path d="m31.7 16 2.875-3.375c-1.051205-1.695758-3.935136-2.288018-5.9375-.3125l2.8125 3.375z" fill="url(#linearGradient5120)" fill-rule="evenodd" filter="url(#filter3477)" opacity=".790262" transform="matrix(.90939458 0 0 .90939458 43.768185 36.504932)"/>
    <path d="m88.7 16 2.875-3.375c-1.051205-1.695758-3.935136-2.288018-5.9375-.3125l2.8125 3.375z" fill="url(#linearGradient5126)" fill-rule="evenodd" filter="url(#filter3477)" opacity=".790262" transform="matrix(.9336354 0 0 .9336354 23.551114 36.275951)"/>
    <path d="m88.284271 18.368396-28.284271 28.28427-28.284271-28.28427-13.347333 13.347333 28.28427 28.284271-28.28427 28.284271 13.347333 13.347339 28.284271-28.284276 28.284271 28.284276 13.347339-13.347339-28.284276-28.284271 28.284276-28.284271z" style="opacity:.921348;fill:none;stroke-width:1.53953;stroke-linecap:round;stroke-linejoin:round;stroke-dashoffset:1.0878;stroke:url(#linearGradient5100);filter:url(#filter3354)" transform="matrix(.59234787 0 0 .59234787 53.756397 39.499782)"/>
    <path d="m72.534162 50.342155-.44426.444261-7.46093 7.460929 7.757102-7.164757 16.911997 16.053554 16.592679-16.053553 6.64646 6.646454c-.0581.300641-.13662.592236-.22214.888517l-7.20125 8.38595c-6.494688 3.237857-15.550662 6.431655-25.286898 6.441784l.166595.166592c.279342.003.55213.01854.832993.01854 9.765457 0 16.48042-2.01103 22.99155-5.257088l9.57064-9.570646c.0394-.136523.076-.271367.11107-.40724.0411-.158999.0797-.319165.11107-.481283l-7.572-7.571992-.44426.444261-16.296509 16.349726z" fill="url(#linearGradient3194)"/>
    <path d="m72.544928 50.383124-7.905189 7.905191 15.364549 15.364547c.279336.003.552125.01848.832988.01848 9.765458 0 16.480421-2.011036 22.991544-5.257088l9.57066-9.570639c.0855-.296288.16399-.587882.22213-.888529l-7.572-7.571964-16.752342 16.752337z" fill="url(#linearGradient3191)"/>
    <path d="m72.534162 50.342155-.44426.444261-7.46093 7.460929 7.757102-7.164757 16.915888 17.171076-.0036-1.117522.0061 1.10892 16.586798-17.162473 6.64645 6.646454c-.0581.300641-.13661.592236-.22213.888517l-7.20125 8.38595c-6.494698 3.237857-15.550665 6.431655-25.286902 6.441784l.166595.166592c.279342.003.55213.01854.832993.01854 9.765458 0 16.48042-2.01103 22.991544-5.257088l9.57064-9.570646c.0394-.136523.076-.271367.11107-.40724.0411-.158999.0797-.319165.11107-.481283l-7.572-7.571992-.44426.444261-16.296515 16.349726z" fill="url(#linearGradient3188)"/>
  </g>
</svg>
