<svg height="256" width="256" xmlns="http://www.w3.org/2000/svg" xmlns:xlink="http://www.w3.org/1999/xlink">
  <defs>
    <linearGradient id="linearGradient5244">
      <stop offset="0" stop-color="#fff"/>
      <stop offset="1" stop-color="#fff" stop-opacity="0"/>
    </linearGradient>
    <linearGradient id="linearGradient5127">
      <stop offset="0" stop-color="#141518"/>
      <stop offset=".41744292" stop-color="#141518" stop-opacity=".74902"/>
      <stop offset=".46940547" stop-color="#141518" stop-opacity=".498039"/>
      <stop offset=".56372547" stop-color="#141518" stop-opacity=".247059"/>
      <stop offset=".67094404" stop-color="#141518" stop-opacity=".121569"/>
      <stop offset="1" stop-color="#141518" stop-opacity="0"/>
    </linearGradient>
    <linearGradient id="linearGradient4904">
      <stop offset="0" stop-color="#80868c"/>
      <stop offset="1" stop-color="#80868c" stop-opacity="0"/>
    </linearGradient>
    <linearGradient id="linearGradient4981" gradientTransform="matrix(.79591837 0 0 1 13.112245 0)" gradientUnits="userSpaceOnUse" x1="66.89119" x2="66.89119" y1="72" y2="103.07543">
      <stop offset="0" stop-color="#cacaca"/>
      <stop offset=".61419845" stop-color="#ebebeb"/>
      <stop offset="1" stop-color="#cbcbcb"/>
    </linearGradient>
    <linearGradient id="linearGradient4983" gradientTransform="matrix(.79591837 0 0 1 13.112245 0)" gradientUnits="userSpaceOnUse" x1="67" x2="67" xlink:href="#linearGradient4904" y1="89" y2="112"/>
    <linearGradient id="linearGradient5029" gradientUnits="userSpaceOnUse" x1="92" x2="92" xlink:href="#linearGradient5244" y1="92" y2="117.0636"/>
    <linearGradient id="linearGradient4877" gradientUnits="userSpaceOnUse" x1="63.078807" x2="63.078807" y1="92" y2="91">
      <stop offset="0" stop-color="#5f656d"/>
      <stop offset="1" stop-color="#afb1b7"/>
    </linearGradient>
    <linearGradient id="linearGradient4879" gradientTransform="matrix(.79591837 0 0 1 13.112245 0)" gradientUnits="userSpaceOnUse" spreadMethod="reflect" x1="52.646282" x2="52.646282" y1="76.900963" y2="89.869804">
      <stop offset="0" stop-color="#cacaca"/>
      <stop offset=".61419845" stop-color="#aaadb3"/>
      <stop offset="1" stop-color="#cbcbcb"/>
    </linearGradient>
    <linearGradient id="linearGradient4881" gradientUnits="userSpaceOnUse" x1="54.86359" x2="67.444374" xlink:href="#linearGradient5244" y1="99.162399" y2="102.53341"/>
    <linearGradient id="linearGradient4883" gradientTransform="matrix(.79591837 0 0 1 13.112245 0)" gradientUnits="userSpaceOnUse" x1="66.555794" x2="66.555794" xlink:href="#linearGradient4904" y1="94.48008" y2="112.18031"/>
    <linearGradient id="linearGradient4885" gradientUnits="userSpaceOnUse" x1="67.444374" x2="67.444374" xlink:href="#linearGradient5244" y1="95.443077" y2="102.53341"/>
    <linearGradient id="linearGradient4887" gradientTransform="matrix(.79591837 0 0 1 13.112245 0)" gradientUnits="userSpaceOnUse" x1="68.332626" x2="68.332626" xlink:href="#linearGradient4904" y1="105.93135" y2="95.804237"/>
    <linearGradient id="linearGradient4890" gradientTransform="matrix(.79591837 0 0 1 13.112245 0)" gradientUnits="userSpaceOnUse" x1="52.945469" x2="68.332626" xlink:href="#linearGradient4904" y1="102.875" y2="95.804237"/>
    <linearGradient id="linearGradient4892" gradientTransform="matrix(.79591837 0 0 1 13.112245 0)" gradientUnits="userSpaceOnUse" x1="68.332626" x2="68.332626" xlink:href="#linearGradient5244" y1="103.21993" y2="101.56419"/>
    <linearGradient id="linearGradient4894" gradientUnits="userSpaceOnUse" x1="74.78125" x2="74.78125" xlink:href="#linearGradient5127" y1="84.432274" y2="92.5"/>
    <linearGradient id="linearGradient4898" gradientTransform="matrix(1 0 0 -1 0 106.24806)" gradientUnits="userSpaceOnUse" x1="110.2377" x2="12.362701" y1="82.125" y2="-9.046475">
      <stop offset="0" stop-color="#1d1e23"/>
      <stop offset=".5" stop-color="#101113"/>
      <stop offset="1" stop-color="#26292e"/>
    </linearGradient>
    <linearGradient id="linearGradient5033" gradientTransform="matrix(1.9065995 0 0 2.5585829 -58.870448 -156.78957)" gradientUnits="userSpaceOnUse" spreadMethod="reflect" x1="57.036041" x2="66.102737" y1="104.63879" y2="104.68102">
      <stop offset="0" stop-color="#bdc1c6"/>
      <stop offset=".24639483" stop-color="#f4f5f5"/>
      <stop offset=".38530767" stop-color="#9da5ac"/>
      <stop offset="1" stop-color="#8b96a1"/>
    </linearGradient>
    <linearGradient id="linearGradient5037" gradientTransform="matrix(1.8976532 0 0 2.5284087 -58.279262 -154.68669)" gradientUnits="userSpaceOnUse" x1="63.951206" x2="63.951206" y1="103.02646" y2="106.44762">
      <stop offset="0" stop-color="#b1b4b9"/>
      <stop offset="1" stop-color="#737980"/>
    </linearGradient>
    <linearGradient id="linearGradient5080" gradientUnits="userSpaceOnUse" x1="74.78125" x2="74.78125" xlink:href="#linearGradient5127" y1="86" y2="92.5"/>
    <filter id="filter4815-9" height="1.155942" width="1.028254" x="-.014127" y="-.077971">
      <feGaussianBlur stdDeviation=".10541021"/>
    </filter>
    <filter id="filter4828-8" height="1.282926" width="1.056692" x="-.028346" y="-.141463">
      <feGaussianBlur stdDeviation=".20777372"/>
    </filter>
    <clipPath id="clipPath4836-6">
      <path d="m78.208799 125.29709c0 2.06963-6.251186 3.7474-13.962415 3.7474-7.71123 0-13.962416-1.67777-13.962416-3.7474 0-.0188.000561-1.03917.0017-1.0587.11686-2.04255 6.322538-2.68869 13.960738-2.68869 7.653669 0 13.869011.65281 13.961373 2.7011.000695.0147-.01444 1.04629.001 1.04629z"/>
    </clipPath>
    <filter id="filter4854-2" height="1.037075" width="1.006262" x="-.003131" y="-.018537">
      <feGaussianBlur stdDeviation=".036447204"/>
    </filter>
    <radialGradient id="radialGradient21210" cx="63.071262" cy="-8.361158" gradientTransform="matrix(1 0 0 .69782716 48.612988 -4.745992)" gradientUnits="userSpaceOnUse" r="61.843754">
      <stop offset="0" stop-color="#f6f6f6"/>
      <stop offset="1" stop-color="#ccc"/>
    </radialGradient>
    <filter id="filter6186-4" height="1.002717" width="1.001892" x="-.000946" y="-.001359">
      <feGaussianBlur stdDeviation=".0441875"/>
    </filter>
    <linearGradient id="linearGradient4900-3" gradientTransform="matrix(1.0546038 0 0 1.0683762 45.223804 -25.952009)" gradientUnits="userSpaceOnUse" x1="84.361366" x2="42.887676" xlink:href="#linearGradient5244" y1="29.365416" y2="18.252573"/>
    <linearGradient id="linearGradient5006-0" gradientTransform="matrix(1.111764 0 0 1.12708 41.427409 -28.78145)" gradientUnits="userSpaceOnUse" x1="82.44709" x2="82.44709" y1="87.650002" y2="21.826469">
      <stop offset="0" stop-color="#1949ed"/>
      <stop offset="1" stop-color="#3879f8"/>
    </linearGradient>
    <filter id="filter7497-6" height="1.1339" width="1.032921" x="-.01646" y="-.06695">
      <feGaussianBlur stdDeviation=".036652415"/>
    </filter>
    <clipPath id="clipPath7399-4">
      <rect height="73" rx="0" width="96" x="165.90663" y="29.000002"/>
    </clipPath>
    <filter id="filter5885-2" height="1.028152" width="1.021409" x="-.010705" y="-.014076">
      <feGaussianBlur stdDeviation=".46554058"/>
    </filter>
    <linearGradient id="linearGradient4957-6" gradientTransform="matrix(1.1596692 0 0 1.1552571 38.343051 -29.344993)" gradientUnits="userSpaceOnUse" x1="80.264381" x2="38.917843" xlink:href="#linearGradient5244" y1="26.93886" y2="17.18886"/>
    <radialGradient id="radialGradient4950-8" cx="54.5" cy="94.107132" gradientTransform="matrix(3.4481511 0 0 .77520873 -84.855182 7.625985)" gradientUnits="userSpaceOnUse" r="4.865625" xlink:href="#linearGradient5244"/>
    <filter id="filter5224-9" height="2.996841" width="1.012574" x="-.006287" y="-.99842">
      <feGaussianBlur stdDeviation=".038984155"/>
    </filter>
    <radialGradient id="radialGradient4952-6" cx="54.5" cy="94.107132" gradientTransform="matrix(3.4481511 0 0 .77520873 -133.29299 22.21823)" gradientUnits="userSpaceOnUse" r="4.865625" xlink:href="#linearGradient5244"/>
    <mask id="mask5025-6" maskUnits="userSpaceOnUse">
      <path d="m31.90625 101c-.353347 0-2.094915.0395-2.8125 1.125-.04108.0622-.09117.11824-.125.1875l-7.0625 10.84375c-.738473 1.27897 1.576936 1.34375 2.03125 1.34375h80.125c.67483 0 2.76948-1.4632 2.03125-2.84375l-7.15625-9.5625c-.726436-1.06428-2.461513-1.09375-2.8125-1.09375zm32.34375 1.90625c7.675047 0 13.90625 1.64227 13.90625 3.6875s-6.231203 3.71875-13.90625 3.71875-13.875-1.67352-13.875-3.71875 6.199953-3.6875 13.875-3.6875z" fill="url(#linearGradient5029)" filter="url(#filter5021-0)" transform="matrix(1 0 0 -1 0 209.575)"/>
    </mask>
    <filter id="filter5021-0" height="1.039876" width="1.006372" x="-.003186" y="-.019938">
      <feGaussianBlur stdDeviation=".11215092"/>
    </filter>
    <filter id="filter5003-8" height="1.053123" width="1.090912" x="-.045456" y="-.026561">
      <feGaussianBlur stdDeviation=".32371765"/>
    </filter>
    <clipPath id="clipPath5084-7">
      <path d="m73.526631 104.29872a8.9538164 1.7907633 0 1 1 -17.907632 0 8.9538164 1.7907633 0 1 1 17.907632 0z" transform="matrix(1.8976532 0 0 -2.5284087 -58.279262 363.83448)"/>
    </clipPath>
    <filter id="filter5102-2" height="1.054102" width="1.079192" x="-.039596" y="-.027051">
      <feGaussianBlur stdDeviation=".29023551"/>
    </filter>
    <filter id="filter5112-1" height="3.690625" width="1.077151" x="-.038575" y="-1.345313">
      <feGaussianBlur stdDeviation=".28027344"/>
    </filter>
    <linearGradient id="linearGradient1186" gradientUnits="userSpaceOnUse" x1="95.564726" x2="52.978271" y1="30.104315" y2="7.697205">
      <stop offset="0" stop-color="#fff" stop-opacity=".2"/>
      <stop offset="1" stop-color="#fff" stop-opacity=".1"/>
    </linearGradient>
    <linearGradient id="linearGradient1196" gradientUnits="userSpaceOnUse" x1="82.927038" x2="165.570794" y1="54.113176" y2="53.370234">
      <stop offset="0" stop-color="#fff" stop-opacity=".2"/>
      <stop offset="1" stop-color="#fff" stop-opacity="0"/>
    </linearGradient>
    <linearGradient id="linearGradient1206" gradientUnits="userSpaceOnUse" x1="165.661844" x2="81.513273" y1="9.133104" y2="53.943812">
      <stop offset="0" stop-color="#fff" stop-opacity=".15"/>
      <stop offset="1" stop-color="#fff" stop-opacity="0"/>
    </linearGradient>
    <linearGradient id="linearGradient9794" gradientUnits="userSpaceOnUse" spreadMethod="reflect" x1="65.280459" x2="65.280459" y1="82.788557" y2="83.575882">
      <stop offset="0" stop-color="#a5acb2"/>
      <stop offset=".64333254" stop-color="#bdc1c7"/>
      <stop offset=".88042605" stop-color="#33373c"/>
      <stop offset="1"/>
    </linearGradient>
    <mask id="mask782" maskUnits="userSpaceOnUse">
      <g transform="matrix(1 0 0 -1 .000001 209.9)">
        <path d="m78.154328 107.09675a13.896901 3.7032106 0 1 1 -27.793802 0 13.896901 3.7032106 0 1 1 27.793802 0z" fill="url(#linearGradient788)" fill-rule="evenodd"/>
      </g>
    </mask>
    <linearGradient id="linearGradient788" gradientTransform="matrix(1.5520646 0 0 2.0679509 -35.963753 -108.58788)" gradientUnits="userSpaceOnUse" x1="68.272774" x2="67.628471" xlink:href="#linearGradient5244" y1="102.02212" y2="108.07214"/>
    <filter id="filter8004" color-interpolation-filters="sRGB" height="1.091674" width="1.122635" x="-.061318" y="-.045837">
      <feGaussianBlur stdDeviation="2.1377235"/>
    </filter>
    <linearGradient id="linearGradient6111" gradientUnits="userSpaceOnUse" x1="179.29327" x2="184.62646" xlink:href="#XMLID_9_-6" y1="-50.328094" y2="-50.328094"/>
    <linearGradient id="XMLID_9_-6" gradientUnits="userSpaceOnUse" x1="94.343803" x2="86.535599" y1="102.3447" y2="94.536598">
      <stop offset="0" stop-color="#5c5c5c"/>
      <stop offset=".31394675" stop-color="#eff0ef"/>
      <stop offset=".72916669" stop-color="#aaaba9"/>
      <stop offset="1" stop-color="#535551"/>
    </linearGradient>
    <linearGradient id="linearGradient6113" gradientTransform="matrix(1.9999981 0 0 6.9999995 -122.03227 -631.66929)" gradientUnits="userSpaceOnUse" x1="149.32961" x2="154.66281" xlink:href="#XMLID_9_-6" y1="85.334404" y2="85.334404"/>
    <radialGradient id="radialGradient6115" cx="146.66299" cy="120.00019" gradientTransform="matrix(2.0000008 0 0 2.000001 -146.66311 -117.3337)" gradientUnits="userSpaceOnUse" r="5.3332" xlink:href="#XMLID_9_-6"/>
    <linearGradient id="linearGradient6117" gradientUnits="userSpaceOnUse" x1="177.07967" x2="188.72249" xlink:href="#linearGradient5244" y1="-52.541744" y2="-9.09009"/>
    <radialGradient id="radialGradient6119" cx="87.5" cy="35.875004" fx="89.841835" fy="49.577999" gradientTransform="matrix(1.5834776 -.20833001 .20832006 1.5834018 -67.697307 -7.915132)" gradientUnits="userSpaceOnUse" r="19.872202">
      <stop offset="0" stop-color="#dbfdff" stop-opacity=".841479"/>
      <stop offset=".55311084" stop-color="#baf5fc" stop-opacity=".916588"/>
      <stop offset=".75562102" stop-color="#83b5eb" stop-opacity=".916895"/>
      <stop offset="1" stop-color="#5987d1" stop-opacity=".964706"/>
    </radialGradient>
    <radialGradient id="radialGradient6121" cx="177.12991" cy="42.65752" gradientTransform="matrix(1.7311303 .19371147 -.19380456 1.7319623 -121.23783 -65.55117)" gradientUnits="userSpaceOnUse" r="32.512764">
      <stop offset="0"/>
      <stop offset="1" stop-opacity="0"/>
    </radialGradient>
    <filter id="filter7286" color-interpolation-filters="sRGB" height="1.050911" width="1.050937" x="-.025468" y="-.025456">
      <feGaussianBlur stdDeviation=".66771187"/>
    </filter>
    <radialGradient id="radialGradient6123" cx="199.99719" cy="96.868515" gradientTransform="matrix(1 0 0 1.0004806 0 -.035878)" gradientUnits="userSpaceOnUse" r="32.512764" xlink:href="#linearGradient5244"/>
    <filter id="filter7416" color-interpolation-filters="sRGB" height="1.154012" width="1.154086" x="-.077043" y="-.077006">
      <feGaussianBlur stdDeviation="2.0893418"/>
    </filter>
    <linearGradient id="linearGradient6125" gradientUnits="userSpaceOnUse" x1="165.64815" x2="198.18205" y1="33.308235" y2="89.6586">
      <stop offset="0" stop-color="#fff"/>
      <stop offset="1" stop-color="#555753"/>
    </linearGradient>
    <radialGradient id="radialGradient6127" cx="177.12991" cy="42.65752" gradientTransform="matrix(1 0 0 1.0004806 0 -.035878)" gradientUnits="userSpaceOnUse" r="32.512764" xlink:href="#linearGradient5244"/>
    <linearGradient id="linearGradient6129" gradientUnits="userSpaceOnUse" spreadMethod="reflect" x1="183.60056" x2="205.3282" y1="77.033615" y2="114.667">
      <stop offset="0" stop-color="#fff"/>
      <stop offset=".19999996" stop-color="#fff" stop-opacity="0"/>
      <stop offset="1" stop-color="#fff" stop-opacity="0"/>
    </linearGradient>
    <filter id="filter7274" color-interpolation-filters="sRGB" height="1.014558" width="1.014565" x="-.007283" y="-.007279">
      <feGaussianBlur stdDeviation=".19214062"/>
    </filter>
    <filter id="filter7424" color-interpolation-filters="sRGB" height="1.012003" width="1.01201" x="-.006005" y="-.006002">
      <feGaussianBlur stdDeviation=".15467289"/>
    </filter>
    <linearGradient id="linearGradient6133" gradientTransform="matrix(1.0260038 .00517786 -.00530278 1.0507565 -23.530791 -12.329575)" gradientUnits="userSpaceOnUse" x1="101.5314" x2="101.5314" xlink:href="#linearGradient5244" y1="18.620571" y2="58.619572"/>
    <radialGradient id="radialGradient6135" cx="94.831596" cy="37.335598" gradientUnits="userSpaceOnUse" r="7.9998" xlink:href="#linearGradient5244"/>
    <radialGradient id="radialGradient6137" cx="48.247009" cy="55.47147" gradientUnits="userSpaceOnUse" r="5.3332" xlink:href="#linearGradient5244"/>
  </defs>
  <g transform="matrix(2 0 0 2 -97.229174 37.025075)">
    <path d="m73.526631 104.29872a8.9538164 1.6218115 0 1 1 -17.907632 0 8.9538164 1.6218115 0 1 1 17.907632 0z" fill-rule="evenodd" filter="url(#filter4815-9)" opacity=".818182" transform="matrix(1.8977042 0 0 2.6964142 -9.681474 -189.16461)"/>
    <g transform="matrix(2 0 0 2 -15.636215 -125.77024)">
      <path d="m71 99.875 1.795918 3.525h-8.545918-9.045918l1.795918-3.525z" fill="#7d8389" fill-rule="evenodd" filter="url(#filter4828-8)" mask="url(#mask782)" opacity=".298636" transform="matrix(1 0 0 -1 0 209.9)"/>
      <path d="m81.315386 111.29001c0 2.53047-7.643099 4.58182-17.07134 4.58182-9.428242 0-17.071341-2.05135-17.071341-4.58182 0-.023.000686-2.27055.0021-2.29443.14288-2.49735 7.730338-3.28736 17.069289-3.28736 9.357864 0 16.957138.79816 17.070066 3.30253.00085.018-.01765 2.27926.0012 2.27926z" fill="url(#linearGradient5033)" fill-rule="evenodd"/>
      <path d="m73.526631 104.29872a8.9538164 1.7907633 0 1 1 -17.907632 0 8.9538164 1.7907633 0 1 1 17.907632 0z" fill="#fff" fill-rule="evenodd" transform="matrix(1.9065995 0 0 2.5585829 -58.870448 -157.78957)"/>
      <path d="m81.24878 109.0231a16.991238 4.5277815 0 1 1 -33.982471 0 16.991238 4.5277815 0 1 1 33.982471 0z" fill="url(#linearGradient5037)" fill-rule="evenodd"/>
      <path d="m64.227999 104.50322c-8.932854 0-16.22129 1.80784-16.964473 4.12649.874058-2.28317 8.127158-4.05007 16.964473-4.05007 8.837316 0 16.128796 1.7669 17.002854 4.05007-.743181-2.31865-8.069999-4.12649-17.002854-4.12649z" fill-opacity=".485714" fill-rule="evenodd" opacity=".290909"/>
      <path clip-path="url(#clipPath4836-6)" d="m50.28125 125.0619c-.001.12268 0 .98231 0 1 0 2.06963 6.25752 3.71875 13.96875 3.71875 7.711229 0 13.96875-1.64912 13.96875-3.71875-.01453 0-.000948-.88024 0-1 0 2.06963-6.257521 3.71875-13.96875 3.71875-7.71123 0-13.96875-1.64912-13.96875-3.71875z" fill-rule="evenodd" filter="url(#filter4854-2)" opacity=".181818" transform="matrix(1.2226638 0 0 1.2226638 -14.294174 -41.906767)"/>
    </g>
    <g transform="translate(48.614584 -15.592245)">
      <path d="m58.463938 80v14.757537l-.583273 4.392463h6.369335 6.369335l-.583273-4.392463v-14.757537h-5.786062zm3.636317 1.026559h2.149745 1.823583v9.0247h-3.973328z" fill="url(#linearGradient4877)" fill-rule="evenodd"/>
      <path d="m56 76.75v19.625l-.78125 6.125h8.53125 9.03125l-.78125-6.125v-19.625h-8.25zm5 1.375h2.75 3.25v13.875h-6z" fill="url(#linearGradient4879)" fill-rule="evenodd"/>
      <path d="m72 96.475.795918 6.025h-8.545918-9.045918l.795918-6.025z" fill="url(#linearGradient4881)" fill-rule="evenodd" opacity=".45"/>
      <path d="m72 96.375.795918 6.125h-8.545918-9.045918l.795918-6.125z" fill="url(#linearGradient4883)" fill-rule="evenodd" opacity=".45"/>
      <path d="m71.960937 96.334375.834981 6.165625h-8.545918-9.045918l.795918-6.126563z" fill="url(#linearGradient4885)" fill-rule="evenodd" opacity=".45"/>
      <path d="m72 96.375.795918 6.125h-8.545918-9.045918l.795918-6.125z" fill="url(#linearGradient4887)" fill-rule="evenodd" opacity=".45"/>
      <path d="m72 96.375.795918 6.125h-8.545918-9.045918l.795918-6.125z" fill="url(#linearGradient4890)" fill-rule="evenodd" opacity=".45"/>
      <path d="m72 97.789214.795918 4.710786h-8.545918-9.045918l.795918-4.710786z" fill="url(#linearGradient4892)" fill-rule="evenodd" opacity=".304545"/>
      <path d="m56 76.75v19.625l-.78125 6.125h.03125l.78125-6.125v-19.625zm15.96875 0v19.625l.78125 6.125h.0313l-.7813-6.125v-19.625h-.0313z" fill-opacity=".622857" fill-rule="evenodd" opacity=".359091"/>
      <path d="m56 76.75v16.195621h16v-16.195621h-8.25zm5 1.375h2.75 3.25v13.875h-6z" fill="url(#linearGradient4894)" fill-rule="evenodd" opacity=".890909"/>
    </g>
    <path d="m55.770834-14.248495c-2.489405 0-4.5 2.010595-4.5 4.5000003v1.6249997 73.0625 1.65625c0 2.489405 2.010595 4.46875 4.5 4.46875h113.687506c2.4894 0 4.5-1.979345 4.5-4.46875v-76.3437497c0-2.4894053-2.0106-4.5000003-4.5-4.5000003z" fill-rule="evenodd" stroke="url(#radialGradient21210)" stroke-width="1.5"/>
    <path d="m9.25 11.9375c-.4270534 0-.7568164.142635-.96875.34375s-.34375.467228-.34375.96875v2.84375 69.75 2.84375c0 .757756.5547428 1.3125 1.3125 1.3125h109.5c.27365 0 .62452-.155611.90625-.46875s.40625-.776819.40625-.84375v-2.84375-69.75-2.84375c0-.75775-.55476-1.3125-1.3125-1.3125z" fill="url(#linearGradient4898)" fill-rule="evenodd" filter="url(#filter6186-4)" transform="matrix(1.0546038 0 0 1.0366737 45.118344 -24.460601)"/>
    <path d="m54.510909-12.085309c-.574629 0-1.021574.426671-1.021648 1.101466v78.171676l1.384168 2.040951h26.266226l46.237785-81.314093z" fill="url(#linearGradient4900-3)" fill-rule="evenodd" opacity=".5"/>
    <rect fill="url(#linearGradient5006-0)" fill-rule="evenodd" height="69.315407" opacity=".840909" rx="0" width="106.72935" x="59.215633" y="-6.239853"/>
    <g transform="matrix(1.2134851 0 0 1.1928539 35.512823 -31.778717)">
      <g style="opacity:.427273;stroke:#000;stroke-width:0;stroke-linecap:round;stroke-linejoin:round;filter:url(#filter7497-6)" transform="matrix(1.8247035 0 0 1.8247035 -52.398467 -69.035703)">
        <path d="m61.363611 82.433983c-.25688 0-.40962.182246-.40962.487726 0 .307215.15274.487726.411356.487726.25688 0 .411356-.182246.411356-.480783 0-.315894-.149268-.494669-.413092-.494669zm.0017.133647c.163154 0 .260352.133648.260352.359286 0 .215224-.10067.348872-.260352.348872-.161418 0-.260352-.133648-.260352-.354079s.09893-.354079.260352-.354079z"/>
        <path d="m62.316498 82.899145.30548-.439127h-.163154l-.218696.329779-.218695-.329779h-.16489l.303744.44607-.321101.463426h.16489l.230845-.348871.227374.348871h.168361z"/>
        <path d="m63.37179 82.460018-.251673.708158-.232582-.708158h-.154475l.307215.912968-.05554.144061c-.0243.06422-.05554.08852-.116291.08852-.0243 0-.04513-.0035-.07637-.01041v.130176c.02951.01562.05901.02256.0972.02256.04686 0 .0972-.01562.135383-.04339.04513-.03298.07116-.07116.09893-.144062l.404413-1.100421z"/>
        <path d="m64.232687 82.460018v.131912c-.0729-.109348-.15274-.157947-.267295-.157947-.220431 0-.373171.20481-.373171.496404 0 .15274.03645.263824.114555.355815.06769.07984.154475.123233.248202.123233.109348 0 .187453-.0486.263823-.163154v.04686c0 .242995-.06769.33325-.248202.33325-.123233 0-.187453-.0486-.201339-.15274h-.147533c.01389.168361.147533.274238.345401.274238.133647 0 .244731-.04339.303744-.116291.06943-.08505.09546-.197867.09546-.411356v-.760228zm-.25341.107612c.15274 0 .239524.128441.239524.359286 0 .220431-.08852.348872-.239524.348872-.149268 0-.236052-.130176-.236052-.354079 0-.222167.08678-.354079.236052-.354079z"/>
        <path d="m65.378236 82.963365c0-.138854-.01041-.222167-.03645-.289858-.05901-.149269-.197867-.239524-.367964-.239524-.253409 0-.416563.19266-.416563.492933s.156211.482519.413092.482519c.208281 0 .352343-.118026.388792-.315894h-.145797c-.03992.119762-.121498.182247-.237788.182247-.09199 0-.170097-.04166-.218696-.118026-.03471-.05207-.04686-.104141-.0486-.194397zm-.666501-.118026c.01215-.168361.114555-.277709.260352-.277709.147533 0 .249938.114555.249938.277709z"/>
        <path d="m65.574368 82.460018v.909496h.145797v-.501611c0-.185718.0972-.307215.246467-.307215.114555 0 .187453.06943.187453.178775v.630051h.144062v-.687329c0-.151004-.11282-.248202-.288123-.248202-.135383 0-.222167.05207-.302009.178775v-.15274z"/>
      </g>
      <g filter="url(#filter7497-6)" stroke="#000" stroke-linecap="round" stroke-linejoin="round" stroke-width="0" transform="matrix(1.8247035 0 0 1.8247035 -52.398467 -69.035703)">
        <path d="m61.363611 82.433983c-.25688 0-.40962.182246-.40962.487726 0 .307215.15274.487726.411356.487726.25688 0 .411356-.182246.411356-.480783 0-.315894-.149268-.494669-.413092-.494669zm.0017.133647c.163154 0 .260352.133648.260352.359286 0 .215224-.10067.348872-.260352.348872-.161418 0-.260352-.133648-.260352-.354079s.09893-.354079.260352-.354079z"/>
        <path d="m62.316498 82.899145.30548-.439127h-.163154l-.218696.329779-.218695-.329779h-.16489l.303744.44607-.321101.463426h.16489l.230845-.348871.227374.348871h.168361z"/>
        <path d="m63.37179 82.460018-.251673.708158-.232582-.708158h-.154475l.307215.912968-.05554.144061c-.0243.06422-.05554.08852-.116291.08852-.0243 0-.04513-.0035-.07637-.01041v.130176c.02951.01562.05901.02256.0972.02256.04686 0 .0972-.01562.135383-.04339.04513-.03298.07116-.07116.09893-.144062l.404413-1.100421z"/>
        <path d="m64.232687 82.460018v.131912c-.0729-.109348-.15274-.157947-.267295-.157947-.220431 0-.373171.20481-.373171.496404 0 .15274.03645.263824.114555.355815.06769.07984.154475.123233.248202.123233.109348 0 .187453-.0486.263823-.163154v.04686c0 .242995-.06769.33325-.248202.33325-.123233 0-.187453-.0486-.201339-.15274h-.147533c.01389.168361.147533.274238.345401.274238.133647 0 .244731-.04339.303744-.116291.06943-.08505.09546-.197867.09546-.411356v-.760228zm-.25341.107612c.15274 0 .239524.128441.239524.359286 0 .220431-.08852.348872-.239524.348872-.149268 0-.236052-.130176-.236052-.354079 0-.222167.08678-.354079.236052-.354079z"/>
        <path d="m65.378236 82.963365c0-.138854-.01041-.222167-.03645-.289858-.05901-.149269-.197867-.239524-.367964-.239524-.253409 0-.416563.19266-.416563.492933s.156211.482519.413092.482519c.208281 0 .352343-.118026.388792-.315894h-.145797c-.03992.119762-.121498.182247-.237788.182247-.09199 0-.170097-.04166-.218696-.118026-.03471-.05207-.04686-.104141-.0486-.194397zm-.666501-.118026c.01215-.168361.114555-.277709.260352-.277709.147533 0 .249938.114555.249938.277709z"/>
        <path d="m65.574368 82.460018v.909496h.145797v-.501611c0-.185718.0972-.307215.246467-.307215.114555 0 .187453.06943.187453.178775v.630051h.144062v-.687329c0-.151004-.11282-.248202-.288123-.248202-.135383 0-.222167.05207-.302009.178775v-.15274z"/>
      </g>
      <g fill="url(#linearGradient9794)" stroke-width="1.8247">
        <path d="m59.571927 81.256426c-.468731 0-.747435.332546-.747435.889956 0 .560576.278704.889955.750602.889955.468731 0 .750603-.332546.750603-.877287 0-.576412-.272371-.902624-.75377-.902624zm.0032.243867c.297708 0 .475065.243867.475065.65559 0 .39272-.183692.636587-.475065.636587-.29454 0-.475065-.243867-.475065-.646088 0-.402222.180525-.646089.475065-.646089z"/>
        <path d="m61.310663 82.105209.557409-.801276h-.297707l-.399055.601749-.399054-.601749h-.300875l.554243.813945-.585914.845615h.300875l.421224-.636587.41489.636587h.307209z"/>
        <path d="m63.236257 81.303933-.45923 1.292177-.424391-1.292177h-.281872l.560577 1.665895-.101348.262869c-.04434.117183-.101347.161522-.212195.161522-.04434 0-.08235-.0063-.139353-.019v.237533c.05384.0285.107682.04117.177358.04117.08551 0 .177358-.0285.247034-.07918.08234-.06018.129851-.129851.180524-.26287l.737935-2.007941z"/>
        <path d="m64.807137 81.303933v.2407c-.133018-.199528-.278705-.288207-.487733-.288207-.402222 0-.680927.373718-.680927.905791 0 .278705.06651.481399.209029.649256.123517.145686.281872.224864.452895.224864.199528 0 .342047-.08868.481399-.297708v.08551c0 .443394-.123516.608083-.452895.608083-.224864 0-.342047-.08868-.367383-.278705h-.269204c.02534.307209.269204.500402.630253.500402.243867 0 .446561-.07918.554242-.212196.126684-.155187.174191-.361049.174191-.750602v-1.38719zm-.462396.19636c.278704 0 .437059.234366.437059.65559 0 .402222-.161522.636587-.437059.636587-.272371 0-.430726-.237533-.430726-.646088 0-.405389.158355-.646089.430726-.646089z"/>
        <path d="m66.897425 82.222392c0-.253368-.019-.405389-.06651-.528906-.107682-.27237-.36105-.43706-.671425-.43706-.462397 0-.760104.351549-.760104.899457s.285039.880454.753769.880454c.380052 0 .642922-.215363.709431-.576413h-.266036c-.07284.21853-.221697.332546-.433892.332546-.167857 0-.310376-.07601-.399055-.215363-.06334-.09501-.08551-.190026-.08868-.354715zm-1.216166-.215363c.02217-.307209.209028-.506736.475065-.506736.269203 0 .456062.209029.456062.506736z"/>
        <path d="m67.255306 81.303933v1.65956h.266037v-.915292c0-.338879.177357-.560576.449728-.560576.209029 0 .342047.126684.342047.326211v1.149657h.262869v-1.254171c0-.275538-.205861-.452896-.525739-.452896-.247033 0-.405388.09501-.551075.326212v-.278705z"/>
      </g>
      <g fill="#c4c7ce" stroke-width="1.8247">
        <path d="m59.571927 81.256426c-.468731 0-.747435.332546-.747435.889956 0 .560576.278704.889955.750602.889955.468731 0 .750603-.332546.750603-.877287 0-.576412-.272371-.902624-.75377-.902624zm.0032.243867c.297708 0 .475065.243867.475065.65559 0 .39272-.183692.636587-.475065.636587-.29454 0-.475065-.243867-.475065-.646088 0-.402222.180525-.646089.475065-.646089z"/>
        <path d="m61.310663 82.105209.557409-.801276h-.297707l-.399055.601749-.399054-.601749h-.300875l.554243.813945-.585914.845615h.300875l.421224-.636587.41489.636587h.307209z"/>
        <path d="m63.236257 81.303933-.45923 1.292177-.424391-1.292177h-.281872l.560577 1.665895-.101348.262869c-.04434.117183-.101347.161522-.212195.161522-.04434 0-.08235-.0063-.139353-.019v.237533c.05384.0285.107682.04117.177358.04117.08551 0 .177358-.0285.247034-.07918.08234-.06018.129851-.129851.180524-.26287l.737935-2.007941z"/>
        <path d="m64.807137 81.303933v.2407c-.133018-.199528-.278705-.288207-.487733-.288207-.402222 0-.680927.373718-.680927.905791 0 .278705.06651.481399.209029.649256.123517.145686.281872.224864.452895.224864.199528 0 .342047-.08868.481399-.297708v.08551c0 .443394-.123516.608083-.452895.608083-.224864 0-.342047-.08868-.367383-.278705h-.269204c.02534.307209.269204.500402.630253.500402.243867 0 .446561-.07918.554242-.212196.126684-.155187.174191-.361049.174191-.750602v-1.38719zm-.462396.19636c.278704 0 .437059.234366.437059.65559 0 .402222-.161522.636587-.437059.636587-.272371 0-.430726-.237533-.430726-.646088 0-.405389.158355-.646089.430726-.646089z"/>
        <path d="m66.897425 82.222392c0-.253368-.019-.405389-.06651-.528906-.107682-.27237-.36105-.43706-.671425-.43706-.462397 0-.760104.351549-.760104.899457s.285039.880454.753769.880454c.380052 0 .642922-.215363.709431-.576413h-.266036c-.07284.21853-.221697.332546-.433892.332546-.167857 0-.310376-.07601-.399055-.215363-.06334-.09501-.08551-.190026-.08868-.354715zm-1.216166-.215363c.02217-.307209.209028-.506736.475065-.506736.269203 0 .456062.209029.456062.506736z"/>
        <path d="m67.255306 81.303933v1.65956h.266037v-.915292c0-.338879.177357-.560576.449728-.560576.209029 0 .342047.126684.342047.326211v1.149657h.262869v-1.254171c0-.275538-.205861-.452896-.525739-.452896-.247033 0-.405388.09501-.551075.326212v-.278705z"/>
      </g>
    </g>
    <path clip-path="url(#clipPath7399-4)" d="m161.71875 25.8125v79.375h104.375v-79.375zm4.1875 3.1875h96v73h-96z" fill="#002540" fill-rule="evenodd" filter="url(#filter5885-2)" transform="matrix(1.1117639 0 0 .94950123 -125.23335 -33.775392)"/>
    <rect fill="#1c1e22" fill-rule="evenodd" height=".144288" opacity=".431818" width="40.013416" x="87.804924" y="-6.38414"/>
    <path d="m59.217101-6.239854v69.315413l26.187192-.20996 39.132377-69.124409z" fill="url(#linearGradient4957-6)" fill-rule="evenodd" opacity=".090909"/>
    <path d="m119.95437 80.783985-15.28766-.0369-.0937.0937.0898.00001 15.28051-.0571z" fill="url(#radialGradient4950-8)" filter="url(#filter5224-9)"/>
    <path d="m71.516559 95.376225-14.787653-.03689-.09375.09375.08984.00001 14.78051-.05714z" fill="url(#radialGradient4952-6)" filter="url(#filter5224-9)" transform="matrix(-1 0 0 1 177.28537 -14.592245)"/>
    <g transform="translate(22.614584 -19.592245)">
      <g filter="url(#filter5003-8)" mask="url(#mask5025-6)" opacity=".459091" transform="matrix(1 0 0 -1 26 212.975)">
        <path d="m57.5 76.75v20.625l-1.78125 6.625h8.53125 8.53125l-1.78125-6.625v-20.625h-6.75zm4.0625 1.375h2.6875 2.6875v12.875h-5.375z" fill="url(#linearGradient4981)" fill-rule="evenodd"/>
        <path d="m70 98.375 2.795918 7.625h-8.545918-8.545918l2.795918-7.625z" fill="url(#linearGradient4983)" fill-rule="evenodd" opacity=".45"/>
      </g>
      <g clip-path="url(#clipPath5084-7)" filter="url(#filter5102-2)" opacity=".854546" transform="matrix(1 0 0 -1 26 209.14779)">
        <path d="m58.463938 80v14.757537l-.583273 4.392463h6.369335 6.369335l-.583273-4.392463v-14.757537h-5.786062zm3.636317 1.026559h2.149745 1.823583v9.0247h-3.973328z" fill="url(#linearGradient4877)" fill-rule="evenodd"/>
        <path d="m56 76.75v19.625l-.78125 6.125h8.53125 9.03125l-.78125-6.125v-19.625h-8.25zm5 1.375h2.75 3.25v13.875h-6z" fill="url(#linearGradient4879)" fill-rule="evenodd"/>
        <path d="m72 96.475.795918 6.025h-8.545918-9.045918l.795918-6.025z" fill="url(#linearGradient4881)" fill-rule="evenodd" opacity=".45"/>
        <path d="m72 96.375.795918 6.125h-8.545918-9.045918l.795918-6.125z" fill="url(#linearGradient4883)" fill-rule="evenodd" opacity=".45"/>
        <path d="m71.960937 96.334375.834981 6.165625h-8.545918-9.045918l.795918-6.126563z" fill="url(#linearGradient4885)" fill-rule="evenodd" opacity=".45"/>
        <path d="m72 96.375.795918 6.125h-8.545918-9.045918l.795918-6.125z" fill="url(#linearGradient4887)" fill-rule="evenodd" opacity=".45"/>
        <path d="m72 96.375.795918 6.125h-8.545918-9.045918l.795918-6.125z" fill="url(#linearGradient4890)" fill-rule="evenodd" opacity=".45"/>
        <path d="m72 97.789214.795918 4.710786h-8.545918-9.045918l.795918-4.710786z" fill="url(#linearGradient4892)" fill-rule="evenodd" opacity=".304545"/>
        <path d="m56 76.75v19.625l-.78125 6.125h.03125l.78125-6.125v-19.625zm15.96875 0v19.625l.78125 6.125h.0313l-.7813-6.125v-19.625h-.0313z" fill-opacity=".622857" fill-rule="evenodd" opacity=".359091"/>
        <path d="m56 76.75v16.195621h16v-16.195621h-8.25zm5 1.375h2.75 3.25v13.875h-6z" fill="url(#linearGradient5080)" fill-rule="evenodd" opacity=".890909"/>
      </g>
      <rect fill-rule="evenodd" filter="url(#filter5112-1)" height=".5" opacity=".559091" width="17.4375" x="81.3125" y="106.7625"/>
    </g>
    <path d="m59.586093-5.828293v67.05586c21.333769-18.688896 33.486551-41.40086 39.007221-67.018991z" fill="url(#linearGradient1186)"/>
    <path d="m165.5708 43.963754v18.81296h-92.8866c28.85615-11.300393 59.81974-17.568056 92.8866-18.81296z" fill="url(#linearGradient1196)"/>
    <path d="m165.6338-.71791v15.745153c-26.14489 17.193769-49.46412 34.800634-102.797656 48.019575 23.273247-25.408988 64.459986-44.04853 102.797656-63.764728z" fill="url(#linearGradient1206)"/>
  </g>
  <g transform="matrix(1.4872421 -.27290566 .27290566 1.4872421 33.194539 76.25293)">
    <path d="m71.2263 9.781248c-16.1521.02035-30.61855 12.72033-33.1125 29.18125-2.75195 18.16377 9.74248 35.12305 27.90625 37.875 6.72745 1.01926 13.99491-1.37287 19.73125-4.05l3.96875 6.84375-3.09375 1.78125 21.4375 36.750002c1.98093 3.39823 6.3663 4.55657 9.78125 2.59375 3.35945-1.93092 4.53597-6.1588 2.6875-9.53125l-21.53125-36.906252-3.09375 1.75-4.0625-6.96875c6.63833-5.05108 11.0019-12.17083 12.35-21.06875 2.75195-18.16377-9.74248-35.12305-27.90625-37.875-1.70285-.257995-3.39159-.377105-5.0625-.375zm0 1.53125c1.59421-.002 3.21906.0976 4.84375.34375 17.33 2.625627 29.25063 18.82625 26.625 36.15625s-19.095 30.15063-36.425 27.525-29.25063-18.82625-26.625-36.15625c2.37947-15.70531 16.17058-27.849332 31.58125-27.86875z" filter="url(#filter8004)" opacity=".642458"/>
    <g transform="matrix(.34426204 -1.287016 1.2953764 .34459705 -84.946972 253.50492)">
      <rect fill="url(#linearGradient6111)" height="6.583196" opacity=".971015" transform="matrix(.70710678 .70710678 -.70710678 .70710678 0 0)" width="5.3332" x="179.29326" y="-54.244732"/>
      <rect fill="url(#linearGradient6113)" height="31.999203" transform="matrix(.70710678 .70710678 -.70710678 .70710678 0 0)" width="10.666389" x="176.62666" y="-47.66153"/>
      <path d="m157.3294 122.6668a5.3332 5.3332 0 0 1 -2.6666 4.61869 5.3332 5.3332 0 0 1 -5.3332 0 5.3332 5.3332 0 0 1 -2.6666-4.61869h5.3332z" fill="url(#radialGradient6115)" transform="matrix(.70710678 .70710678 -.70710678 .70710678 119.100971 -76.725958)"/>
      <rect fill="url(#linearGradient6117)" height="31.999199" opacity=".971015" transform="matrix(.70710678 .70710678 -.70710678 .70710678 0 0)" width="2.66658" x="179.29326" y="-47.66153"/>
    </g>
    <circle cx="78.33046" cy="30.660536" fill="url(#radialGradient6119)" r="31.736837" transform="matrix(.9887166 .14979813 -.14979813 .9887166 0 0)"/>
    <g transform="matrix(1.0659043 .16149268 -.16149268 1.0659043 -108.40285 -66.830742)">
      <path d="m181.34375 43.179688c-17.38944 0-31.47656 14.087118-31.47656 31.476562s14.08712 31.47656 31.47656 31.47656 31.44531-14.086498 31.44531-31.47656-14.05587-31.476563-31.44531-31.476562zm0 1.640624c16.48273 0 29.83594 13.353213 29.83594 29.835938s-13.35254 29.86719-29.83594 29.86719-29.86719-13.383791-29.86719-29.86719 13.38446-29.835938 29.86719-29.835938z" fill="url(#radialGradient6121)" filter="url(#filter7286)" transform="matrix(.91617705 0 0 .91617705 15.199521 6.258093)"/>
      <path d="m181.34375 42.097656c-17.97497 0-32.55859 14.583628-32.55859 32.558594s14.58362 32.55859 32.55859 32.55859 32.52734-14.584283 32.52734-32.55859-14.55237-32.558594-32.52734-32.558594zm0 3.804688c15.89813 0 28.75391 12.855774 28.75391 28.753906s-12.8565 28.78516-28.75391 28.78516-28.78516-12.887747-28.78516-28.78516 12.88703-28.753906 28.78516-28.753906z" fill="url(#radialGradient6123)" filter="url(#filter7416)" opacity=".540984" transform="matrix(.81712719 0 0 .81712719 33.160106 13.652997)"/>
      <path d="m181.34375 42.09375c-17.9772 0-32.5625 14.5853-32.5625 32.5625s14.5853 32.5625 32.5625 32.5625 32.53125-14.585964 32.53125-32.5625-14.55405-32.5625-32.53125-32.5625zm0 3.8125c15.8959 0 28.75 12.854098 28.75 28.75s-12.85482 28.78125-28.75 28.78125-28.78125-12.886072-28.78125-28.78125 12.88535-28.75 28.78125-28.75z" fill="url(#linearGradient6125)"/>
      <path d="m181.34375 43.376953c-17.28301 0-31.2793 13.99629-31.2793 31.279297s13.99629 31.2793 31.2793 31.2793 31.24805-13.995443 31.24805-31.2793-13.96504-31.279297-31.24805-31.279297zm0 1.246094c16.589 0 30.0332 13.444209 30.0332 30.033203s-13.44328 30.06445-30.0332 30.06445-30.06445-13.474529-30.06445-30.06445 13.47545-30.033203 30.06445-30.033203z" fill="url(#radialGradient6127)" opacity=".519126" transform="matrix(1.0317053 0 0 1.0317053 -5.749097 -2.367074)"/>
      <path d="m181.34375 42.980469c-17.49707 0-31.67578 14.178707-31.67578 31.675781s14.17871 31.67578 31.67578 31.67578 31.64453-14.178323 31.64453-31.67578-14.14746-31.675781-31.64453-31.675781zm0 2.039062c16.37527 0 29.63672 13.261453 29.63672 29.636719s-13.26103 29.66797-29.63672 29.66797-29.66797-13.292286-29.66797-29.66797 13.2927-29.636719 29.66797-29.636719z" fill="url(#linearGradient6129)" filter="url(#filter7274)"/>
      <path d="m181.34375 43.730469c-17.09248 0-30.92578 13.833298-30.92578 30.925781s13.8333 30.92578 30.92578 30.92578 30.89453-13.832031 30.89453-30.92578-13.80205-30.925781-30.89453-30.925781zm0 .539062c16.77922 0 30.38672 13.607504 30.38672 30.386719s-13.60612 30.41797-30.38672 30.41797-30.41797-13.637374-30.41797-30.41797 13.63875-30.386719 30.41797-30.386719z" fill="url(#radialGradient6123)" filter="url(#filter7424)" transform="matrix(.95352862 0 0 .95352862 8.426593 3.469478)"/>
    </g>
    <path d="m73.239375 12.543528c-13.075834-.06598-27.050524 10.525156-27.095053 19.348723-.03239 6.417447 14.439877 9.44439 25.814159 9.501794 9.960657.05026 28.590799-1.823763 28.620869-7.782253.0485-9.606335-14.787352-21.004916-27.339975-21.068264z" fill="url(#linearGradient6133)"/>
    <circle cx="94.831596" cy="37.335598" fill="url(#radialGradient6135)" opacity=".52459" r="7.9998"/>
    <circle cx="48.247009" cy="55.47147" fill="url(#radialGradient6137)" opacity=".52459" r="5.3332"/>
  </g>
</svg>
