<svg height="256" width="256" xmlns="http://www.w3.org/2000/svg" xmlns:xlink="http://www.w3.org/1999/xlink">
  <defs>
    <linearGradient id="linearGradient3420">
      <stop offset="0" stop-color="#fff"/>
      <stop offset="1" stop-color="#fff" stop-opacity="0"/>
    </linearGradient>
    <radialGradient id="radialGradient3196" cx="69.999995" cy="70" fy="32.5" gradientUnits="userSpaceOnUse" r="54">
      <stop offset="0" stop-color="#fff290"/>
      <stop offset=".5999999" stop-color="#fed611"/>
      <stop offset=".83999991" stop-color="#f9c820"/>
      <stop offset=".91999996" stop-color="#f4a222"/>
      <stop offset="1" stop-color="#d98b15"/>
    </radialGradient>
    <filter id="filter3255" height="1.048889" width="1.048889" x="-.024444" y="-.024444">
      <feGaussianBlur stdDeviation="1.1"/>
    </filter>
    <filter id="filter3282" height="1.096" width="1.096" x="-.048" y="-.048">
      <feGaussianBlur stdDeviation="2.16"/>
    </filter>
    <clipPath id="clipPath3327">
      <path d="m124 70a54 54 0 1 1 -108 0 54 54 0 1 1 108 0z" transform="matrix(1.8518517 0 0 1.8518517 -1.629614 -5.629625)"/>
    </clipPath>
    <filter id="filter3338" height="1.128" width="1.0768" x="-.0384" y="-.064">
      <feGaussianBlur stdDeviation="3.1999998"/>
    </filter>
    <radialGradient id="radialGradient3356" cx="128" cy="-2.666665" gradientTransform="matrix(1.6885793 0 0 1.0131476 -88.138148 34.701725)" gradientUnits="userSpaceOnUse" r="99.999999" xlink:href="#linearGradient3420"/>
    <clipPath id="clipPath3371">
      <path d="m124 70a54 54 0 1 1 -108 0 54 54 0 1 1 108 0z" transform="matrix(1.851852 0 0 1.851852 -1.629632 -5.629643)"/>
    </clipPath>
    <filter id="filter3414" height="1.144" width="1.143998" x="-.071999" y="-.072">
      <feGaussianBlur stdDeviation="6.0000002"/>
    </filter>
    <radialGradient id="radialGradient3426" cx="70" cy="70" gradientTransform="matrix(1.4447581 .1160208 -.2610466 1.4447582 -12.859807 -39.254529)" gradientUnits="userSpaceOnUse" r="54" xlink:href="#linearGradient3420"/>
    <filter id="filter3448" height="1.696292" width="1.696292" x="-.348146" y="-.348146">
      <feGaussianBlur stdDeviation="15.666565"/>
    </filter>
    <linearGradient gradientTransform="matrix(.9818182 0 0 1 2.327272 0)" gradientUnits="userSpaceOnUse" spreadMethod="reflect" x1="71.857597" x2="128.10901" y1="164" y2="164">
      <stop offset="0" stop-color="#eee"/>
      <stop offset="1" stop-color="#fff"/>
    </linearGradient>
    <clipPath id="clipPath6612">
      <path d="m128 120c-24.59133 0-48.357128.62629-70.903125 1.80469-.726096 4.17553-1.096875 8.4752-1.096875 12.86198 0 40.48 32.255999 73.33333 72 73.33333 39.744 0 72.00001-32.85333 72-73.33333 0-4.38678-.37078-8.68645-1.09687-12.86198-22.546-1.1784-46.3118-1.80469-70.90313-1.80469z"/>
    </clipPath>
    <filter id="filter3773" height="1.280309" width="1.15761" x="-.078805" y="-.140154">
      <feGaussianBlur stdDeviation="1.0388816"/>
    </filter>
    <radialGradient id="radialGradient3201" cx="107" cy="381.53125" gradientTransform="matrix(1.9774429 0 0 1.1118594 -107.58639 -330.31424)" gradientUnits="userSpaceOnUse" r="8.00001">
      <stop offset="0" stop-color="#170c03"/>
      <stop offset="1" stop-color="#4e330c"/>
    </radialGradient>
    <radialGradient id="radialGradient3203" cx="107" cy="373.49469" gradientTransform="matrix(1.6361647 0 0 .8629962 -71.069626 -236.32516)" gradientUnits="userSpaceOnUse" r="8.00001" xlink:href="#linearGradient3420"/>
    <radialGradient id="radialGradient3205" cx="105.89919" cy="96.836876" fy="89.717529" gradientTransform="matrix(1.9024825 0 0 1.1757985 -95.572162 -14.860661)" gradientUnits="userSpaceOnUse" r="8.899187">
      <stop offset="0" stop-color="#382509"/>
      <stop offset="1" stop-color="#382509" stop-opacity="0"/>
    </radialGradient>
    <linearGradient id="linearGradient2526" gradientTransform="matrix(.9818182 0 0 1 -205.67273 20.75)" gradientUnits="userSpaceOnUse" spreadMethod="reflect" x1="128" x2="42.519455" y1="164" y2="164">
      <stop offset="0" stop-color="#fffeee"/>
      <stop offset=".31999999" stop-color="#fffeee" stop-opacity=".790698"/>
      <stop offset="1" stop-color="#fffeee" stop-opacity="0"/>
    </linearGradient>
    <linearGradient id="linearGradient2536" gradientTransform="matrix(.9818182 0 0 1 -205.67273 20.75)" gradientUnits="userSpaceOnUse" spreadMethod="reflect" x1="71.857597" x2="128.10901" y1="164" y2="164">
      <stop offset="0" stop-color="#e0e0e0"/>
      <stop offset="1" stop-color="#fff"/>
    </linearGradient>
    <radialGradient id="radialGradient2542" cx="128" cy="206.54546" gradientTransform="matrix(1 0 0 .6111111 -208 84.527778)" gradientUnits="userSpaceOnUse" r="72">
      <stop offset="0"/>
      <stop offset="1" stop-color="#512608"/>
    </radialGradient>
    <radialGradient id="radialGradient2545" cx="128" cy="181.06129" gradientTransform="matrix(1.0589958 .00000004 -.00000002 .7185273 -215.55146 64.152517)" gradientUnits="userSpaceOnUse" r="76.545453">
      <stop offset="0" stop-color="#fffcca"/>
      <stop offset=".29983425" stop-color="#ffd81b"/>
      <stop offset=".74958563" stop-color="#f9d93b"/>
      <stop offset="1" stop-color="#f49b23"/>
    </radialGradient>
    <filter id="filter3415" height="1.086659" width="1.050379" x="-.02519" y="-.043329">
      <feGaussianBlur stdDeviation="1.6067981"/>
    </filter>
    <filter id="filter3439" height="1.057773" width="1.033586" x="-.016793" y="-.028886">
      <feGaussianBlur stdDeviation="1.0711987"/>
    </filter>
    <linearGradient id="linearGradient3455" gradientUnits="userSpaceOnUse" x1="167" x2="167" y1="106.93966" y2="255.54324">
      <stop offset="0"/>
      <stop offset="1" stop-opacity="0"/>
    </linearGradient>
    <radialGradient id="radialGradient3459" cx="128" cy="166.44806" fy="230.95265" gradientTransform="matrix(1.5831925 -.00000002 0 .5813539 -282.64864 86.984777)" gradientUnits="userSpaceOnUse" r="76.545456">
      <stop offset="0" stop-color="#fff" stop-opacity="0"/>
      <stop offset=".49999997" stop-color="#fff" stop-opacity="0"/>
      <stop offset="1"/>
    </radialGradient>
    <linearGradient id="linearGradient3471" gradientUnits="userSpaceOnUse" x1="150" x2="150" y1="147.40625" y2="80.339119">
      <stop offset="0" stop-color="#fff"/>
      <stop offset="1"/>
    </linearGradient>
    <filter id="filter3565" height="1.13208" width="1.080715" x="-.040358" y="-.06604">
      <feGaussianBlur stdDeviation="1.7964602"/>
    </filter>
    <filter id="filter3589" height="1.153982" width="1.0941" x="-.04705" y="-.076991">
      <feGaussianBlur stdDeviation="2.8550885"/>
    </filter>
  </defs>
  <g>
    <circle cx="70" cy="70" filter="url(#filter3255)" r="54" transform="matrix(1.9673186 0 0 1.9673186 -9.712301 -10.072502)"/>
    <circle cx="70" cy="70" fill="#ffbf00" filter="url(#filter3282)" r="54" transform="matrix(1.9999999 0 0 1.9999999 -11.999986 -15.999997)"/>
    <circle cx="70" cy="70" fill="url(#radialGradient3196)" r="54" transform="matrix(1.9999999 0 0 1.9999999 -11.999993 -15.999998)"/>
    <path clip-path="url(#clipPath3327)" d="m128 24c-55.199995 0-99.999999 44.800003-100 100 0 .46768.02484.94009.03125 1.40625 27.889067 11.68229 62.486963 18.59375 99.96875 18.59375 37.48179 0 72.07968-6.91146 99.96875-18.59375.00641-.46616.03125-.93857.03125-1.40625 0-55.199995-44.8-100.000001-100-100z" fill="url(#radialGradient3356)" filter="url(#filter3338)"/>
    <path clip-path="url(#clipPath3371)" d="m128 24c-55.200004 0-100 44.799993-100 100 0 .35326-.0037.7101 0 1.0625.586039-47.040071 45.16436-85.0625 100-85.0625 54.83563 0 99.41396 38.022429 100 85.0625.004-.3524 0-.70924 0-1.0625 0-55.200004-44.8-99.999999-100-100zm-98.84375 115.09375c7.286864 48.04335 48.776415 84.90625 98.84375 84.90625 50.06733 0 91.55689-36.8629 98.84375-84.90625-7.3385 41.26608-48.81875 72.90625-98.84375 72.90625-50.02501 0-91.505249-31.64017-98.84375-72.90625z" fill="#fff" filter="url(#filter3414)"/>
    <circle cx="70" cy="70" fill="url(#radialGradient3426)" filter="url(#filter3448)" r="54" transform="matrix(.2012495 .08597065 -.1289559 .3018741 51.93946 54.85086)"/>
    <circle cx="70" cy="70" fill="url(#radialGradient3426)" filter="url(#filter3448)" r="54" transform="matrix(-.2012495 .08597065 .1289559 .3018741 204.06055 54.85086)"/>
  </g>
  <g id="g3744" transform="translate(-.99999 -7.91504)">
    <path d="m104 87.5c-8.732388 0-15.819543 7.153297-15.819543 15.98064 0 .60422-.0029 1.22225.06179 1.80913.86762-6.391273 7.613714-11.35731 15.757753-11.35731 8.14405-.000016 14.89013 4.966052 15.75774 11.35731.0647-.58688.0618-1.20491.0618-1.80913 0-8.827326-7.08716-15.980656-15.81954-15.98064z" fill="#fff" filter="url(#filter3773)" transform="matrix(.966592 0 0 .8875759 3.474439 10.337114)"/>
    <path d="m104 85c-8.732388 0-15.819543 7.153297-15.819543 15.98064 0 .60422-.0029 1.22225.06179 1.80913.86762-6.391273 7.613714-11.35731 15.757753-11.35731 8.14405-.000016 14.89013 4.966052 15.75774 11.35731.0647-.58688.0618-1.20491.0618-1.80913 0-8.827326-7.08716-15.980656-15.81954-15.98064z" fill="url(#radialGradient3201)"/>
    <path d="m104 86c-2.81807.000001-5.30531.906191-6.84375 2.25.611664.281597 1.273692.514039 1.96875.71875 1.38228-.492833 3.05965-.78125 4.875-.78125 1.87337-.000001 3.59373.321838 5 .84375.696-.194127 1.35276-.41689 1.96875-.6875-1.52727-1.401489-4.07993-2.343753-6.96875-2.34375z" fill="url(#radialGradient3203)"/>
    <ellipse cx="105.89919" cy="102.5" fill="url(#radialGradient3205)" opacity=".04955" rx="8.899187" ry="5.5" transform="translate(-1.999999 -3.999999)"/>
  </g>
  <use height="336" transform="translate(50)" width="256" xlink:href="#g3744"/>
  <g transform="translate(208 -28.83496)">
    <path d="m-80 144.75c-24.87078 0-48.90664.63341-71.70884 1.8252-.73435 4.22298-1.10934 8.57151-1.10934 13.00814 0 40.94 32.62254 74.16666 72.81818 74.16666s72.81819-33.22666 72.81818-74.16666c0-4.43663-.375-8.78516-1.10933-13.00814-22.80221-1.19179-46.83807-1.8252-71.70885-1.8252z" fill="#fff" filter="url(#filter3589)" opacity=".995495" transform="matrix(.9862672 0 0 1 -1.098627 0)"/>
    <path d="m-80 139.25c-26.14382 0-51.40998.63342-75.37933 1.8252-.77194 4.22299-1.16613 8.57152-1.16613 13.00813 0 40.94 34.29237 74.16667 76.54546 74.16667s76.54547-33.22667 76.54545-74.16667c0-4.43661-.39418-8.78514-1.16612-13.00813-23.96935-1.19178-49.23551-1.8252-75.37933-1.8252z" fill="url(#radialGradient2545)" filter="url(#filter3439)"/>
    <path d="m-80 140.75c-24.59133 0-48.35713.62629-70.90312 1.80469-.7261 4.17553-1.09688 8.4752-1.09688 12.86198 0 40.48 32.256 73.33333 72 73.33333s72.00001-32.85333 72-73.33333c0-4.38678-.37078-8.68645-1.09687-12.86198-22.546-1.1784-46.3118-1.80469-70.90313-1.80469z" fill="url(#radialGradient2542)"/>
    <path d="m128 117.90625c-7.34505 0-14.62934.028-21.84375.0937-3.60737.0332-7.20925.0757-10.78125.125-3.559158.0488-7.13407.12298-10.65625.1875-3.534748.0652-7.06685.13804-10.5625.21875-3.482812.0801-6.96411.15472-10.40625.25-2.479074.0688-4.888103.1733-7.34375.25-.247288 2.48269-.40625 5.01384-.40625 7.56255 0 4.01411.327287 7.94173.9375 11.78125h142.125c.61021-3.83952.9375-7.76714.9375-11.78125 0-2.54871-.15896-5.07986-.40625-7.5625-2.45565-.0767-4.86468-.18115-7.34375-.25-3.44215-.0953-6.92344-.16994-10.40625-.25-.0123-.00029-.0189.00028-.0312 0-6.97862-.16035-14.05668-.30845-21.1875-.40625-.0123-.00018-.0189.00017-.0312 0-10.71545-.14679-21.57627-.21875-32.59385-.21875zm-56.15625 54.53125c3.205807 4.06562 6.839831 7.77427 10.8125 11.0625.487378.21726.977844.44405 1.46875.65625.425471.18385.85108.35261 1.28125.53125.969667.40268 1.94471.81182 2.9375 1.1875.303763.11496.63164.20012.9375.3125.739583.27173 1.49838.55599 2.25.8125.75343.25686 1.51611.50868 2.28125.75.679707.21434 1.34258.42313 2.03125.625.423467.12427.85444.25552 1.28125.375 1.074301.30081 2.15541.54253 3.25.8125.1914.0472.3705.14126.5625.1875.49765.11991.99838.23029 1.5.34375 1.18532.26803 2.35588.51867 3.5625.75.38392.0736.77025.11769 1.15625.1875.82028.14849 1.63936.30629 2.46875.4375.34696.0549.71399.10438 1.0625.15625 1.39953.20825 2.79543.40435 4.21875.5625 1.1909.13235 2.4186.24734 3.625.34375.0495.004.0754-.004.125 0 .54703.043 1.1062.0582 1.65625.0937.22385.0145.43191.0493.65625.0625.86436.0508 1.72238.0929 2.59375.125 1.46549.054 2.95363.0937 4.4375.0937s2.97201-.0397 4.4375-.0937c.87137-.0321 1.72939-.0742 2.59375-.125.22616-.0133.43059-.0479.65625-.0625.54614-.0352 1.1131-.0512 1.65625-.0937.0489-.004.0761.004.125 0 1.20641-.0964 2.4341-.21141 3.625-.34375 1.42332-.15814 2.81922-.35425 4.21875-.5625 1.17509-.17486 2.3741-.38441 3.53125-.59375.39088-.0708.76751-.11287 1.15625-.1875 1.20662-.23133 2.37719-.48197 3.5625-.75.69402-.15697 1.37612-.36196 2.0625-.53125 1.0946-.26997 2.17568-.5117 3.25-.8125.42361-.1185.86089-.25178 1.28125-.375.69058-.20267 1.34969-.40978 2.03125-.625.76515-.24132 1.52782-.49314 2.28125-.75.75162-.25651 1.51045-.54077 2.25-.8125.30873-.11338.63092-.19652.9375-.3125.99277-.37568 1.96786-.78481 2.9375-1.1875.43046-.1788.85548-.34722 1.28125-.53125.49337-.2132.98193-.4392 1.46875-.65625 3.97267-3.28823 7.60669-6.99688 10.8125-11.0625z" fill="url(#linearGradient3471)" transform="translate(-208 28.83496)"/>
    <path d="m-133.25 204.75c13.17269 14.74259 32.15181 24 53.25 24s40.07731-9.25741 53.25-24z" fill="url(#linearGradient2536)"/>
    <path d="m-80 140.75c-24.59133 0-48.36025.6341-70.90625 1.8125-.72609 4.17553-1.09375 8.45697-1.09375 12.84375 0 3.16317.2429 6.28575.625 9.34375h142.75c.3821-3.058.625-6.18058.625-9.34375 0-4.38678-.36766-8.66822-1.09375-12.84375-22.54601-1.1784-46.31492-1.8125-70.90625-1.8125z" fill="url(#linearGradient2536)"/>
    <path d="m-80 139.25c-26.14382 0-51.40998.63342-75.37933 1.8252-.77194 4.22299-1.16613 8.57152-1.16613 13.00813 0 40.94 34.29237 74.16667 76.54546 74.16667s76.54547-33.22667 76.54545-74.16667c0-4.43661-.39418-8.78514-1.16612-13.00813-23.96935-1.19178-49.23551-1.8252-75.37933-1.8252z" fill="url(#radialGradient3459)" filter="url(#filter3415)" opacity=".211712"/>
    <path d="m-80 140.75c-6.14783 0-12.24277.0479-18.28125.125-3.01939.0389-6.04147.0671-9.03125.125-2.97904.0573-5.95818.14305-8.90625.21875-2.9586.0765-5.91789.15531-8.84375.25-2.91512.094-5.83766.20069-8.71875.3125-5.78311.22516-11.4885.48665-17.125.78125-.36305 2.08777-.62904 4.19854-.8125 6.34375-.0913 1.07032-.17294 2.13523-.21875 3.21875-.047 1.0955-.0625 2.17406-.0625 3.28125 0 1.11873.045 2.23721.0937 3.34375.0147.33366.0122.66751.0312 1 .0176.27231.042.54099.0625.8125.10631 1.40893.26448 2.80282.4375 4.1875h142.75c.17302-1.38468.33119-2.77857.4375-4.1875.01854-.27164.04687-.54006.0625-.8125.02147-.33249.01434-.66637.03125-1 .04885-1.10654.09385-2.22502.09385-3.34375 0-2.19339-.09779-4.35479-.28125-6.5-.18268-2.14065-.44946-4.25599-.8125-6.34375-5.6365-.2946-11.34189-.55609-17.125-.78125-2.88109-.11181-5.80363-.21854-8.71875-.3125-.01033-.00033-.02092.00033-.03125 0-5.84113-.18814-11.75023-.354-17.71875-.46875-.01034-.0002-.02091.0002-.03125 0-8.96878-.17223-18.0595-.25-27.28125-.25z" fill="url(#linearGradient2526)"/>
    <path d="m-133.25 204.75c.80483.90075 1.62134 1.76606 2.46875 2.625.0929.0942.18782.18755.28125.28125.7988.80112 1.63416 1.58102 2.46875 2.34375.86406.78931 1.75533 1.56588 2.65625 2.3125.2108.17472.41223.35892.625.53125.72788.58954 1.46838 1.15771 2.21875 1.71875.25036.18719.4972.37854.75.5625.70774.515 1.42979 1.01079 2.15625 1.5.39384.26522.7883.52376 1.1875.78125.56493.36438 1.14333.71384 1.71875 1.0625.35613.21573.70244.44664 1.0625.65625.81159.47248 1.63779.93419 2.46875 1.375.25425.13488.52523.24314.78125.375.61901.31883 1.2459.63652 1.875.9375.63062.30138 1.26582.59187 1.90625.875.56892.25151 1.14234.51314 1.71875.75.35445.14581.70528.2973 1.0625.4375.89921.35292 1.80257.65199 2.71875.96875.1602.0554.30805.13324.46875.1875.41654.14069.83013.27315 1.25.40625.99211.31451 1.99005.60358 3 .875.32134.0864.64567.16807.96875.25.68658.17422 1.3683.34604 2.0625.5.29041.0644.5833.12665.875.1875 1.17141.24435 2.33993.47068 3.53125.65625.99679.15527 2.02149.29312 3.03125.40625.04146.005.08352-.005.125 0 .45787.0505.91461.0833 1.375.125.18736.0169.37473.047.5625.0625.72347.0597 1.42691.11855 2.15625.15625 1.22662.0634 2.47675.0937 3.71875.0937s2.49213-.0303 3.71875-.0937c.72934-.0377 1.43278-.0966 2.15625-.15625.1893-.0156.37362-.0454.5625-.0625.45712-.0413.92038-.075 1.375-.125.04095-.005.08407.005.125 0 1.00976-.11313 2.03446-.25098 3.03125-.40625 1.19132-.18557 2.35984-.4119 3.53125-.65625.98356-.20516 1.96896-.4419 2.9375-.6875.32717-.083.64337-.16243.96875-.25 1.00995-.27142 2.00789-.56049 3-.875.5809-.18415 1.14425-.39511 1.71875-.59375.91618-.31676 1.81954-.61583 2.71875-.96875.35457-.13905.71066-.29292 1.0625-.4375.57802-.23778 1.14828-.49748 1.71875-.75.64043-.28313 1.27563-.57362 1.90625-.875.6291-.30098 1.25599-.61867 1.875-.9375.25841-.13302.52464-.23891.78125-.375.83096-.44081 1.65716-.90252 2.46875-1.375.3603-.20981.70613-.44032 1.0625-.65625.57831-.35031 1.15102-.6963 1.71875-1.0625.39683-.25596.79596-.51766 1.1875-.78125.72646-.48921 1.44851-.985 2.15625-1.5.25388-.18472.49859-.37452.75-.5625.75037-.56104 1.49087-1.12921 2.21875-1.71875.21211-.17179.41485-.35709.625-.53125.90409-.74934 1.78926-1.52016 2.65625-2.3125.83459-.76273 1.66995-1.54263 2.46875-2.34375.0935-.0937.18825-.18698.28125-.28125.84597-.85768 1.66516-1.72564 2.46875-2.625z" fill="url(#linearGradient2526)"/>
    <path d="m128 120c-24.59133 0-48.357128.62629-70.903125 1.80469-.726096 4.17553-1.096875 8.4752-1.096875 12.86198 0 40.48 32.255999 73.33333 72 73.33333 39.744 0 72.00001-32.85333 72-73.33333 0-4.38678-.37078-8.68645-1.09687-12.86198-22.546-1.1784-46.3118-1.80469-70.90313-1.80469z" style="fill:none;stroke-width:3;stroke-linecap:round;stroke-linejoin:round;clip-path:url(#clipPath6612);stroke:url(#linearGradient3455);filter:url(#filter3565)" transform="translate(-208 20.75)"/>
  </g>
</svg>
