<svg height="256" width="256" xmlns="http://www.w3.org/2000/svg" xmlns:xlink="http://www.w3.org/1999/xlink">
  <defs>
    <linearGradient id="linearGradient5060">
      <stop offset="0"/>
      <stop offset="1" stop-opacity="0"/>
    </linearGradient>
    <linearGradient id="linearGradient3426">
      <stop offset="0" stop-color="#555"/>
      <stop offset="1" stop-color="#555" stop-opacity="0"/>
    </linearGradient>
    <linearGradient id="linearGradient7555">
      <stop offset="0" stop-color="#fff"/>
      <stop offset="1" stop-color="#fff" stop-opacity="0"/>
    </linearGradient>
    <linearGradient id="linearGradient1389" gradientTransform="matrix(.52681221 0 0 -.51292609 -136.28258 -4.973025)" gradientUnits="userSpaceOnUse" x1="314.05814" x2="314.05814" xlink:href="#linearGradient5060" y1="11.862287" y2="-113.61256"/>
    <clipPath id="clipPath8264">
      <path d="m-235.75 74.121094c-1.20747 0-2.12891.921436-2.12891 2.128906v163.5c0 1.20748.92142 2.12891 2.12891 2.12891h167.75c1.292893 0 3.005249-.76522 4.324219-1.64453 1.318969-.87932 2.175781-1.73438 2.175781-1.73438l40-40s.855062-.85681 1.734375-2.17578 1.644531-3.03133 1.644531-4.32422v-115.75c0-1.207475-.921431-2.128906-2.128906-2.128906z" transform="matrix(.46 0 0 .4571429 -106.62 74.442849)"/>
    </clipPath>
    <linearGradient id="linearGradient2872" gradientTransform="matrix(2.62654 0 0 2.66667 -134.017 85.83301)" gradientUnits="userSpaceOnUse" x1="-11.986486" x2="-11.986486" y1="11.500009" y2="28.976542">
      <stop offset="0" stop-color="#555753"/>
      <stop offset="1" stop-color="#fcaf3e"/>
    </linearGradient>
    <clipPath id="clipPath4719-3">
      <rect height="56" width="92" x="84" y="428"/>
    </clipPath>
    <filter id="filter4709-1" height="1.60531" width="1.60531" x="-.302655" y="-.302655">
      <feGaussianBlur stdDeviation="3.5333828"/>
    </filter>
    <filter id="filter4608-6" height="1.144" width="1.144" x="-.072" y="-.072">
      <feGaussianBlur stdDeviation=".84057318"/>
    </filter>
    <filter id="filter4616-8" height="1.405442" width="1.222293" x="-.111146" y="-.202721">
      <feGaussianBlur stdDeviation=".83939158"/>
    </filter>
    <linearGradient id="linearGradient2874" gradientTransform="matrix(2.70588 0 0 3.49999 -230.4411 58.00001)" gradientUnits="userSpaceOnUse" x1="25.355263" x2="25.355263" y1="33.357342" y2="31.76339">
      <stop offset="0" stop-color="#2e3436"/>
      <stop offset="1" stop-color="#2e3436" stop-opacity="0"/>
    </linearGradient>
    <linearGradient id="linearGradient2876" gradientUnits="userSpaceOnUse" x1="-150.5" x2="-145.75" xlink:href="#linearGradient5060" y1="177.62501" y2="189.37501"/>
    <clipPath id="clipPath4396-4">
      <path d="m79.40625 432.78125c4.95211 3.15625 10.09773 2.36004 13.8125 6.28125.20853.22012.41543.41335.625.625-.91227.0132-3.36173-.64471-5.8125-.21875-2.03999.35455-4.02605-.55433-6.4375 1.03125 2.8086-1.17696 5.05872-.41657 7.3125-.71875 1.75702-.23558 4.85952.60574 6.84375 1.75 3.19912 2.92004 6.06811 5.00342 6.65625 7.03125.75156 2.59125.93062 10.17703.96875 13.3125-.33977-.27402-.66062-.5645-.96875-.875-.68906-.71321-1.34766-1.47779-2.15625-2.0625-.77698-.56343-1.58267-1.08104-2.21875-1.8125-.66486-.8969-1.44709-1.69706-2.1875-2.53125-.70592-.72238-1.45646-1.39671-2.125-2.15625-.61554-.75741-1.33614-1.42319-2.1875-1.90625-.77581-.47272-1.5828-1.00327-2.53125-.96875-.47451-.0791-.95887-.19127-1.3125-.53125-.59769-.44175-1.32432-.71337-2.0625-.78125l.125.0625c.9109.24481 1.68179.8215 2.40625 1.40625.82464.41098 1.87022.34115 2.53125 1.0625.70456.74408 1.76065 1.14357 2.28125 2.0625.20942.35023.44974.66458.71875.96875-.70331.27896-1.37908 1.26201-1.875 1.59375-1.29807.86836-4.60919-2.74752-7.5-2.40625 2.08544-.0469 5.75517 2.50843 6.46875 2.71875.55836.16459-1.66639 2.10357-3.375 3.03125 1.51744-.43138 3.97727-2.51723 4.4375-2.625.57771-.13527 1.16213-1.94726 2.4375-1.6875.26687.28232.53984.57255.78125.875.69303.78032 1.38577 1.54029 1.96875 2.40625.85162 1.06177 1.95474 1.87787 2.875 2.875.7471.7803 1.39506 1.64575 2.09375 2.46875.93323 1.12487 1.87928 2.25013 2.8125 3.375.42144.87267 1.03174 1.61036 1.65625 2.34375.66563.75999 1.30957 1.55781 1.8125 2.4375.59909.89138 1.1135 1.84141 1.5 2.84375.30827.94828.48395 1.92145.625 2.90625.19051 1.03702.34872 2.0991.25 3.15625-.14578 1.5715-.30651 3.14619-.4375 4.71875-.0217.7843-.12135 1.62135.25 2.34375.88575.56065 1.94401.69175 2.96875.75.86591-.0236 1.72648-.22461 2.46875-.6875.31904-.16231.63392-.49478.46875-.875-.18667-1.01745-.40295-2.03142-.5-3.0625-.1344-1.15271-.25974-2.31102-.34375-3.46875-.099-1.09509-.14847-2.18257-.1875-3.28125.0322-1.00198.0767-2.03591.375-3 .32471-.94223.65194-2.18347 1.25-2.96875.85084-1.04281 2.1162-1.51624 3.09375-2.4375.82415-.71738 1.68863-1.38982 2.46875-2.15625.75889-.71303 1.63356-2.17099 2.3125-2.96875.7624-.80646 1.48992-.89854 2.21875-1.625.18969-.12973.38766-.25786.59375-.375.52915-.26792 1.04107-.57592 1.71875-.625.70029.0397 1.39399-.19008 2.09375-.0937.70007.0559 1.02933.72896 1.78125.65625.66535-.12321 1.35216-.12021 2.03125-.0625-.21541-.0835-.44604-.15445-.6875-.1875-.48981-.0904-.98368.0758-1.46875.0313-.63207-.054-.8309-.55639-1.375-.71875-.66242-.11588-1.35944.10128-2.03125.0625-.5382-.0737-1.05528.0455-1.59375.0313.76409-1.1233 1.44323-2.44724 2.25-3.375 1.3398-1.24472 2.98696-2.48222 4.03125-2.96875 1.39189-.64849 2.38459.15819 4.21875-.75-2.03978.86066-3.28052-.27726-5.6875 1.125-1.32634.76242-2.21246 1.18656-2.96875 1.71875-1.58811-1.34506-.70451-6.06166-2.09375-8.78125.0827-.0958.125-.20732.125-.34375 1.54418-.65828 3.85538-.62579 5.34375-.34375 1.80941.34285 1.14282.69721 2.0625.75.8083.0464 2.21338.8335 3.34375 1.28125 1.22261.48428 1.53834-.0211 3.84375 1.21875-1.65524-1.12051-3.34913-1.13223-3.59375-1.40625.7457-2.42944 3.79609-2.88736 5.0625-5.1875-1.76435 2.59269-4.05299 2.33985-5.28125 5.09375-1.22654-.34407-2.44261-.89298-3.0625-1.28125 1.49793-1.8748-1.68651-7.18964-1.78125-9-.11059 2.41309 2.83075 5.84705 1.25 8.8125-3.16781-1.25867-5.75024-.78886-7.4375-.40625-.0628-.0425-.14103-.0804-.21875-.0937-1.38487-2.04113-.95284-3.54566-2.5-5.78125.85981 2.03517 1.03075 4.21454 1.875 5.96875.0201.0419.0431.0827.0625.125-.0386.0749-.0625.16002-.0625.25 0 .22641.14749.41694.34375.5.92516 2.72077.58242 6.13236.8125 8.65625-2.33949-3.83923-5.15618-3.90227-6.78125-10.25 1.34906 7.76942 7.42824 8.46368 5.875 13.34375-1.18921 1.23925-3.11722 3.33597-4.03125 4.25-.76285.67868-1.59581 1.26835-2.4375 1.84375-.87643.65389-.79689 1.13319-1.71875 1.71875-.68733.46263-2.24808.96188-2.84375 1.4375-.77914.62211-1.21036 1.46972-1.875 2.3125-.35417.47917-1.23958.61458-1.5625 1.25-.32894-1.33239-1.28622-3.80883-3.09375-4.84375-.89341-.51154-1.89485-1.4387-2.625-2.21875-.16244-.16986-.32136-.31728-.5-.46875-1.2415-3.00067-1.37508-6.70906-1.65625-10.0625.097-.0922.17429-.19076.28125-.28125.53668-.40499 1.03141-.85932 1.9375-1.125 1.00361-.19673 1.64252.33535 2.6875.1875 1.01534-.18272 1.85205-1.06453 2.84375-1.375.83379-.32538 2.07498-.13823 3.0625-.3125-1.14808.056-2.26509-.14799-3.375.1875-.91936.16193-1.46612 1.11655-2.34375 1.15625-1.0076.1187-1.63048-.40688-2.59375-.21875-.80343.11401-1.45915.39725-2.21875.5625-.096-.0611-.4129.0496-.40625-.0625-.0616-.56577-.12813-1.12745-.21875-1.65625-.06-3.89672 4.27346-2.57015 5.15625-3.25.58133-.44768 3.85453-3.04945 6.75-3.65625-3.43517.61964-6.89928 3.23605-6.5625 2.40625.43039-1.06043.76035-7.91801 2.84375-10.375-3.23258 3.13778-1.93744 10.59758-4.28125 11.3125-1.14933.35058-3.94816-.0106-4.4375 1.375-.10489-.29885-.21204-.57258-.34375-.84375-.84843-1.74675-3.20807-3.66898-5.71875-5.84375-.24719-1.22331 1.70858-1.61353 1.90625-2.125.15296-.39577 2.42162-2.38883 3-3.6875-1.08179 1.42622-3.17911 3.22298-3.28125 2.71875-.13053-.6444-2.23183-4.07697-1.96875-5.90625-.63373 2.51321 2.51245 5.71105 1.53125 6.78125-.40432.441-1.56827 1.00067-1.8125 1.65625-1.21315-1.06576-2.41928-2.18039-3.53125-3.40625-3.25105-3.58405-5.7455-2.03174-14.3125-5.65625z"/>
    </clipPath>
    <filter id="filter4412-3" height="1.051699" width="1.044102" x="-.022051" y="-.025849">
      <feGaussianBlur stdDeviation=".5940625"/>
    </filter>
    <radialGradient id="radialGradient2878" cx="130" cy="536.62244" gradientTransform="matrix(3.20934 0 0 .190247 -582.714 79.53401)" gradientUnits="userSpaceOnUse" r="46" xlink:href="#linearGradient5060"/>
    <clipPath id="clipPath16814-5">
      <path d="m12 28v80h104v-80z"/>
    </clipPath>
    <radialGradient id="radialGradient21667-4" cx="96.675285" cy="93.389153" gradientTransform="matrix(1.9592408 0 0 .7057335 -92.63189 3.684153)" gradientUnits="userSpaceOnUse" r="63.998783">
      <stop offset="0" stop-color="#ff7e00"/>
      <stop offset="1" stop-color="#ff007b"/>
    </radialGradient>
    <filter id="filter3336-2" height="1.546667" width="1.546667" x="-.273333" y="-.273333">
      <feGaussianBlur stdDeviation="3.5813918"/>
    </filter>
    <radialGradient id="radialGradient21675-2" cx="50.269897" cy="47.169552" gradientUnits="userSpaceOnUse" r="15.723184">
      <stop offset="0" stop-color="#fff8de"/>
      <stop offset="1" stop-color="#ff0"/>
    </radialGradient>
    <filter id="filter3410-1" height="1.48" width="1.48" x="-.24" y="-.24">
      <feGaussianBlur stdDeviation="3.1446367"/>
    </filter>
    <filter id="filter7623-6" height="1.604646" width="1.604646" x="-.302323" y="-.302323">
      <feGaussianBlur stdDeviation="3.9612318"/>
    </filter>
    <filter id="filter7585-1" height="1.983171" width="1.071516" x="-.035758" y="-.491585">
      <feGaussianBlur stdDeviation="3.8156296"/>
    </filter>
    <filter id="filter1902" color-interpolation-filters="sRGB" height="2.223251" width="1.04996" x="-.02498" y="-.611626">
      <feGaussianBlur stdDeviation=".46229847"/>
    </filter>
    <linearGradient id="linearGradient2447-6" gradientTransform="matrix(.50664076 0 0 .35125016 -58.340184 -47.42914)" gradientUnits="userSpaceOnUse" x1="73.10424" x2="54.405266" y1="112.78188" y2="10.968399">
      <stop offset="0" stop-color="#fff"/>
      <stop offset="1" stop-color="#e0e0e0"/>
    </linearGradient>
    <linearGradient id="linearGradient1643" gradientUnits="userSpaceOnUse" x1="-39.21196981472" x2="-30.22921934062" xlink:href="#linearGradient1641" y1="-42.51279725442" y2="-6.22916382905"/>
    <linearGradient id="linearGradient1641">
      <stop offset="0" stop-color="#999"/>
      <stop offset="1" stop-color="#c1c1c1"/>
    </linearGradient>
    <linearGradient id="linearGradient2807" gradientTransform="matrix(.4103611 0 0 .4330773 11.197909 27.054412)" gradientUnits="userSpaceOnUse" x1="190.0625" x2="193" y1="187.73239" y2="122.8568">
      <stop offset="0" stop-color="#323232"/>
      <stop offset="1" stop-color="#101010"/>
    </linearGradient>
    <linearGradient id="linearGradient2809" gradientTransform="matrix(.2763587 0 0 .09333054 27.98082 75.411416)" gradientUnits="userSpaceOnUse" x1="82.802177" x2="83.742836" xlink:href="#linearGradient3426" y1="154.27817" y2="167.16171"/>
    <linearGradient id="linearGradient2811" gradientTransform="matrix(.2763587 0 0 .09333054 26.78551 85.855903)" gradientUnits="userSpaceOnUse" x1="82.802177" x2="83.742836" xlink:href="#linearGradient3426" y1="154.27817" y2="167.16171"/>
    <linearGradient id="linearGradient2813" gradientTransform="matrix(.2763587 0 0 .09333054 36.60848 73.09434)" gradientUnits="userSpaceOnUse" x1="82.802177" x2="83.742836" xlink:href="#linearGradient3426" y1="154.27817" y2="167.16171"/>
    <linearGradient id="linearGradient2815" gradientTransform="matrix(.2763587 0 0 .09333054 -1.99325 88.072721)" gradientUnits="userSpaceOnUse" x1="82.802177" x2="83.742836" xlink:href="#linearGradient3426" y1="154.27817" y2="167.16171"/>
    <linearGradient id="linearGradient2817" gradientTransform="matrix(.2763587 0 0 .09333054 47.83175 86.843073)" gradientUnits="userSpaceOnUse" x1="82.802177" x2="83.742836" xlink:href="#linearGradient3426" y1="154.27817" y2="167.16171"/>
    <linearGradient id="linearGradient2819" gradientTransform="matrix(.2763587 0 0 .09333054 57.65472 74.081509)" gradientUnits="userSpaceOnUse" x1="82.802177" x2="83.742836" xlink:href="#linearGradient3426" y1="154.27817" y2="167.16171"/>
    <linearGradient id="linearGradient2821" gradientTransform="matrix(.2763587 0 0 .09333054 48.99633 73.751418)" gradientUnits="userSpaceOnUse" x1="82.802177" x2="83.742836" xlink:href="#linearGradient3426" y1="154.27817" y2="167.16171"/>
    <linearGradient id="linearGradient2823" gradientTransform="matrix(.2763587 0 0 .09333054 37.77434 80.971102)" gradientUnits="userSpaceOnUse" x1="82.802177" x2="83.742836" xlink:href="#linearGradient3426" y1="154.27817" y2="167.16171"/>
    <linearGradient id="linearGradient2825" gradientTransform="matrix(.2763587 0 0 .09333054 36.15406 73.094106)" gradientUnits="userSpaceOnUse" x1="82.802177" x2="83.742836" xlink:href="#linearGradient3426" y1="154.27817" y2="167.16171"/>
    <linearGradient id="linearGradient2827" gradientTransform="matrix(.2763587 0 0 .09333054 75.64961 74.00068)" gradientUnits="userSpaceOnUse" x1="82.802177" x2="83.742836" xlink:href="#linearGradient3426" y1="154.27817" y2="167.16171"/>
    <linearGradient id="linearGradient2829" gradientTransform="matrix(.2763587 0 0 .09333054 70.848586 84.534846)" gradientUnits="userSpaceOnUse" x1="82.802177" x2="83.742836" xlink:href="#linearGradient3426" y1="154.27817" y2="167.16171"/>
    <linearGradient id="linearGradient2831" gradientTransform="matrix(.2763587 0 0 .09333054 65.91592 80.588816)" gradientUnits="userSpaceOnUse" x1="82.802177" x2="83.742836" xlink:href="#linearGradient3426" y1="154.27817" y2="167.16171"/>
    <linearGradient id="linearGradient2833" gradientTransform="matrix(.2763587 0 0 .09333054 85.24867 75.726787)" gradientUnits="userSpaceOnUse" x1="82.802177" x2="83.742836" xlink:href="#linearGradient3426" y1="154.27817" y2="167.16171"/>
    <linearGradient id="linearGradient2835" gradientTransform="matrix(.2763587 0 0 .09333054 76.59028 82.063366)" gradientUnits="userSpaceOnUse" x1="82.802177" x2="83.742836" xlink:href="#linearGradient3426" y1="154.27817" y2="167.16171"/>
    <linearGradient id="linearGradient2837" gradientTransform="matrix(.2763587 0 0 .09333054 72.5902 67.336322)" gradientUnits="userSpaceOnUse" x1="82.802177" x2="83.742836" xlink:href="#linearGradient3426" y1="154.27817" y2="167.16171"/>
    <linearGradient id="linearGradient2839" gradientTransform="matrix(.2763587 0 0 .09333054 60.376438 66.281208)" gradientUnits="userSpaceOnUse" x1="82.802177" x2="83.742836" xlink:href="#linearGradient3426" y1="154.27817" y2="167.16171"/>
    <linearGradient id="linearGradient2841" gradientTransform="matrix(.2763587 0 0 .09333054 48.051227 68.246694)" gradientUnits="userSpaceOnUse" x1="82.802177" x2="83.742836" xlink:href="#linearGradient3426" y1="154.27817" y2="167.16171"/>
    <linearGradient id="linearGradient2843" gradientTransform="matrix(.2763587 0 0 .09333054 41.169166 64.717098)" gradientUnits="userSpaceOnUse" x1="82.802177" x2="83.742836" xlink:href="#linearGradient3426" y1="154.27817" y2="167.16171"/>
    <linearGradient id="linearGradient2845" gradientTransform="matrix(.2763587 0 0 .09333054 24.510621 64.460362)" gradientUnits="userSpaceOnUse" x1="82.802177" x2="83.742836" xlink:href="#linearGradient3426" y1="154.27817" y2="167.16171"/>
    <linearGradient id="linearGradient2847" gradientTransform="matrix(.2763587 0 0 .09333054 9.575134 64.53888)" gradientUnits="userSpaceOnUse" x1="82.802177" x2="83.742836" xlink:href="#linearGradient3426" y1="154.27817" y2="167.16171"/>
    <linearGradient id="linearGradient2849" gradientTransform="matrix(.2763587 0 0 .09333054 .916743 64.208793)" gradientUnits="userSpaceOnUse" x1="82.802177" x2="83.742836" xlink:href="#linearGradient3426" y1="154.27817" y2="167.16171"/>
    <linearGradient id="linearGradient2851" gradientTransform="matrix(.2763587 0 0 .09333054 13.575211 63.071818)" gradientUnits="userSpaceOnUse" x1="82.802177" x2="83.742836" xlink:href="#linearGradient3426" y1="154.27817" y2="167.16171"/>
    <linearGradient id="linearGradient2853" gradientTransform="matrix(.2763587 0 0 .09333054 -.916668 73.926191)" gradientUnits="userSpaceOnUse" x1="82.802177" x2="83.742836" xlink:href="#linearGradient3426" y1="154.27817" y2="167.16171"/>
    <linearGradient id="linearGradient2855" gradientTransform="matrix(.2763587 0 0 .09333054 33.739332 68.818796)" gradientUnits="userSpaceOnUse" x1="82.802177" x2="83.742836" xlink:href="#linearGradient3426" y1="154.27817" y2="167.16171"/>
    <linearGradient id="linearGradient2857" gradientTransform="matrix(.2763587 0 0 .09333054 51.080944 81.822041)" gradientUnits="userSpaceOnUse" x1="82.802177" x2="83.742836" xlink:href="#linearGradient3426" y1="154.27817" y2="167.16171"/>
    <linearGradient id="linearGradient2859" gradientTransform="matrix(.2763587 0 0 .09333054 37.739409 85.12951)" gradientUnits="userSpaceOnUse" x1="82.802177" x2="83.742836" xlink:href="#linearGradient3426" y1="154.27817" y2="167.16171"/>
    <linearGradient id="linearGradient2861" gradientTransform="matrix(.2763587 0 0 .09333054 60.08087 69.317219)" gradientUnits="userSpaceOnUse" x1="82.802177" x2="83.742836" xlink:href="#linearGradient3426" y1="154.27817" y2="167.16171"/>
    <linearGradient id="linearGradient2863" gradientTransform="matrix(.2763587 0 0 .09333054 86.5355 64.058986)" gradientUnits="userSpaceOnUse" x1="82.802177" x2="83.742836" xlink:href="#linearGradient3426" y1="154.27817" y2="167.16171"/>
    <linearGradient id="linearGradient2865" gradientTransform="matrix(.2763587 0 0 .09333054 69.876953 63.802249)" gradientUnits="userSpaceOnUse" x1="82.802177" x2="83.742836" xlink:href="#linearGradient3426" y1="154.27817" y2="167.16171"/>
    <linearGradient id="linearGradient2867" gradientTransform="matrix(.2763587 0 0 .09333054 79.230835 70.797971)" gradientUnits="userSpaceOnUse" x1="82.802177" x2="83.742836" xlink:href="#linearGradient3426" y1="154.27817" y2="167.16171"/>
    <linearGradient id="linearGradient2869" gradientTransform="matrix(.2763587 0 0 .09333054 11.32227 75.154679)" gradientUnits="userSpaceOnUse" x1="82.802177" x2="83.742836" xlink:href="#linearGradient3426" y1="154.27817" y2="167.16171"/>
    <linearGradient id="linearGradient2873" gradientTransform="matrix(.2763587 0 0 .09333054 52.575217 78.627372)" gradientUnits="userSpaceOnUse" x1="82.802177" x2="83.742836" xlink:href="#linearGradient3426" y1="154.27817" y2="167.16171"/>
    <linearGradient id="linearGradient2875" gradientTransform="matrix(.2763587 0 0 .09333054 1.580862 78.206107)" gradientUnits="userSpaceOnUse" x1="82.802177" x2="83.742836" xlink:href="#linearGradient3426" y1="154.27817" y2="167.16171"/>
    <linearGradient id="linearGradient2877" gradientTransform="matrix(.4103611 0 0 .4330773 11.197909 27.054412)" gradientUnits="userSpaceOnUse" x1="252.7813" x2="3.973908" y1="158.64418" y2="145.26782">
      <stop offset="0" stop-color="#181818" stop-opacity=".000065"/>
      <stop offset=".74053472" stop-color="#d6c220" stop-opacity=".637661"/>
      <stop offset="1" stop-color="#1f1f1f" stop-opacity=".000041"/>
    </linearGradient>
    <linearGradient id="linearGradient2879" gradientTransform="matrix(.4103611 0 0 .2638169 11.197909 46.514122)" gradientUnits="userSpaceOnUse" x1="121.88446" x2="121.88446" y1="114.96759" y2="124.25063">
      <stop offset="0" stop-color="#ff7e00"/>
      <stop offset="1" stop-color="#ff7e00" stop-opacity="0"/>
    </linearGradient>
    <linearGradient id="linearGradient2881" gradientTransform="matrix(.4103611 0 0 .3192147 11.197909 29.066876)" gradientUnits="userSpaceOnUse" x1="150.04311" x2="150.04311" xlink:href="#linearGradient7555" y1=".059548" y2="51.622837"/>
    <linearGradient id="linearGradient2883" gradientTransform="matrix(.6298032 0 0 .6007775 -44.212917 -48.145246)" gradientUnits="userSpaceOnUse" x1="126.03124" x2="126.03124" y1="40.936672" y2="-5.271013">
      <stop offset="0" stop-color="#3383e6" stop-opacity="0"/>
      <stop offset="1" stop-color="#23fff0"/>
    </linearGradient>
    <linearGradient id="linearGradient2885" gradientTransform="matrix(1.2462121 0 0 1.2230467 -46.531215 -73.217086)" gradientUnits="userSpaceOnUse" x1="48" x2="74.222046" xlink:href="#linearGradient7555" y1="38.75" y2="70.519157"/>
    <linearGradient id="linearGradient2887" gradientTransform="matrix(1.2727273 0 0 -1.2057416 -354.92894 -63.963001)" gradientUnits="userSpaceOnUse" x1="314.05814" x2="314.05814" xlink:href="#linearGradient5060" y1="11.862287" y2="-113.61256"/>
    <linearGradient id="linearGradient3161" gradientTransform="matrix(2.5332038 0 0 1.7562508 -474.69644 -83.028577)" gradientUnits="userSpaceOnUse" x1="73.10424" x2="54.405266" xlink:href="#linearGradient2447-6" y1="112.78188" y2="10.968399"/>
    <linearGradient id="linearGradient3163" gradientUnits="userSpaceOnUse" x1="-379.05536407362" x2="-334.14161170309" xlink:href="#linearGradient1641" y1="-58.4468662721" y2="122.97130085475"/>
    <linearGradient id="linearGradient3339" gradientTransform="matrix(.50664076 0 0 .35125016 -58.340184 -47.42914)" gradientUnits="userSpaceOnUse" x1="73.10424" x2="54.405266" xlink:href="#linearGradient2447-6" y1="112.78188" y2="10.968399"/>
  </defs>
  <g transform="matrix(4.6984631 -1.7101007 1.7101007 4.6984631 152.62087 95.629655)">
    <g transform="matrix(.15 0 0 .15 -53.772428 6.327509)">
      <rect fill="#000305" filter="url(#filter1902)" height="1.814045" opacity=".6" stroke-linejoin="round" stroke-width="14" transform="matrix(5.0489585 0 0 5.0489585 181.6722 -152.49791)" width="44.415802" x="1.7921" y="41.244648"/>
      <rect fill="url(#linearGradient3161)" height="179.61008" stroke="url(#linearGradient3163)" stroke-linecap="round" stroke-opacity=".96863" stroke-width="5" transform="matrix(-.9999985 .0017332 -.00096053 -.99999954 0 0)" width="224.83034" x="-415.29135" y="-60.113548"/>
    </g>
    <g transform="matrix(.75000001 0 0 .75000001 -26.246594 -16.402776)">
      <path d="m3.9999852 39.578268v-30.6290141h39.7366908v30.6290141zm.4139238-.403013h38.908844v-29.8229881h-38.908844z" fill="url(#linearGradient1389)"/>
      <path d="m3.9999852 39.578268v-30.6290141h39.7366908v30.6290141zm.4139238-.403013h38.908844v-29.8229881h-38.908844z" fill="url(#linearGradient1389)"/>
    </g>
    <g clip-path="url(#clipPath8264)" enable-background="new" transform="matrix(.31735837 0 0 .33085867 44.177465 -46.732469)">
      <path d="m-211.5 112.84286h92v67.65714h-92z" fill="url(#linearGradient2872)"/>
      <g clip-path="url(#clipPath4719-3)" transform="translate(-295.5 -310.49999)">
        <circle cx="110.79479" cy="483.02795" fill="#fef39e" filter="url(#filter4709-1)" r="14.009553" transform="matrix(1.71312 0 0 1.37852 -77.8045 -183.178)"/>
        <circle cx="112.00021" cy="483.00107" fill="#fef39e" r="16.000031"/>
        <circle cx="110.79479" cy="483.02795" fill="#fffbd7" filter="url(#filter4608-6)" r="14.009553" transform="matrix(.994857 0 0 .994857 1.775 2.45615)"/>
      </g>
      <path d="m-183.5 163.43751c-5.0025 0-9.0625 4.06-9.0625 9.0625 0 .29184.004.5902.0313.875h18.0625c.027-.2848.0313-.58316.0313-.875 0-5.0025-4.06-9.06251-9.0625-9.0625z" fill="#fff" filter="url(#filter4616-8)"/>
      <path d="m-211.5 173.62501c22.49807-3.41152 40.875-.16667 60.875-.125l31.125-1.75v8.74999h-92z" fill="url(#linearGradient2874)"/>
      <path d="m-186.09375 121.28126c4.95211 3.15625 10.09773 2.36004 13.8125 6.28125.20853.22012.41543.41335.625.625-.91227.0132-3.36173-.64471-5.8125-.21875-2.03999.35455-4.02605-.55433-6.4375 1.03125 2.8086-1.17696 5.05872-.41657 7.3125-.71875 1.75702-.23558 4.85952.60574 6.84375 1.75 3.19912 2.92004 6.06811 5.00342 6.65625 7.03125.75156 2.59125.93062 10.17703.96875 13.3125-.33977-.27402-.66062-.5645-.96875-.875-.68906-.71321-1.34766-1.47779-2.15625-2.0625-.77698-.56343-1.58267-1.08104-2.21875-1.8125-.66486-.8969-1.44709-1.69706-2.1875-2.53125-.70592-.72238-1.45646-1.39671-2.125-2.15625-.61554-.75741-1.33614-1.42319-2.1875-1.90625-.77581-.47272-1.5828-1.00327-2.53125-.96875-.47451-.0791-.95887-.19127-1.3125-.53125-.59769-.44175-1.32432-.71337-2.0625-.78125l.125.0625c.9109.24481 1.68179.8215 2.40625 1.40625.82464.41098 1.87022.34115 2.53125 1.0625.70456.74408 1.76065 1.14357 2.28125 2.0625.20942.35023.44974.66458.71875.96875-.70331.27896-1.37908 1.26201-1.875 1.59375-1.29807.86836-4.60919-2.74752-7.5-2.40625 2.08544-.0469 5.75517 2.50843 6.46875 2.71875.55836.16459-1.66639 2.10357-3.375 3.03125 1.51744-.43138 3.97727-2.51723 4.4375-2.625.57771-.13527 1.16213-1.94726 2.4375-1.6875.26687.28232.53984.57255.78125.875.69303.78032 1.38577 1.54029 1.96875 2.40625.85162 1.06177 1.95474 1.87787 2.875 2.875.7471.7803 1.39506 1.64575 2.09375 2.46875.93323 1.12487 1.87928 2.25013 2.8125 3.375.42144.87267 1.03174 1.61036 1.65625 2.34375.66563.75999 1.30957 1.55781 1.8125 2.4375.59909.89138 1.1135 1.84141 1.5 2.84375.30827.94828.48395 1.92145.625 2.90625.19051 1.03702.34872 2.0991.25 3.15625-.14578 1.5715-.30651 3.14619-.4375 4.71875-.0217.7843-.12135 1.62135.25 2.34375.88575.56065 1.94401.69175 2.96875.75.86591-.0236 1.72648-.22461 2.46875-.6875.31904-.16231.63392-.49478.46875-.875-.18667-1.01745-.40295-2.03142-.5-3.0625-.1344-1.15271-.25974-2.31102-.34375-3.46875-.099-1.09509-.14847-2.18257-.1875-3.28125.0322-1.00198.0767-2.03591.375-3 .32471-.94223.65194-2.18347 1.25-2.96875.85084-1.04281 2.1162-1.51624 3.09375-2.4375.82415-.71738 1.68863-1.38982 2.46875-2.15625.75889-.71303 1.63356-2.17099 2.3125-2.96875.7624-.80646 1.48992-.89854 2.21875-1.625.18969-.12973.38766-.25786.59375-.375.52915-.26792 1.04107-.57592 1.71875-.625.70029.0397 1.39399-.19008 2.09375-.0937.70007.0559 1.02933.72896 1.78125.65625.66535-.12321 1.35216-.12021 2.03125-.0625-.21541-.0835-.44604-.15445-.6875-.1875-.48981-.0904-.98368.0758-1.46875.0313-.63207-.054-.8309-.55639-1.375-.71875-.66242-.11588-1.35944.10128-2.03125.0625-.5382-.0737-1.05528.0455-1.59375.0313.76409-1.1233 1.44323-2.44724 2.25-3.375 1.3398-1.24472 2.98696-2.48222 4.03125-2.96875 1.39189-.64849 2.38459.15819 4.21875-.75-2.03978.86066-3.28052-.27726-5.6875 1.125-1.32634.76242-2.21246 1.18656-2.96875 1.71875-1.58811-1.34506-.70451-6.06166-2.09375-8.78125.0827-.0958.125-.20732.125-.34375 1.54418-.65828 3.85538-.62579 5.34375-.34375 1.80941.34285 1.14282.69721 2.0625.75.8083.0464 2.21338.8335 3.34375 1.28125 1.22261.48428 1.53834-.0211 3.84375 1.21875-1.65524-1.12051-3.34913-1.13223-3.59375-1.40625.7457-2.42944 3.79609-2.88736 5.0625-5.1875-1.76435 2.59269-4.05299 2.33985-5.28125 5.09375-1.22654-.34407-2.44261-.89298-3.0625-1.28125 1.49793-1.8748-1.68651-7.18964-1.78125-9-.11059 2.41309 2.83075 5.84705 1.25 8.8125-3.16781-1.25867-5.75024-.78886-7.4375-.40625-.0628-.0425-.14103-.0804-.21875-.0937-1.38487-2.04113-.95284-3.54566-2.5-5.78125.85981 2.03517 1.03075 4.21454 1.875 5.96875.0201.0419.0431.0827.0625.125-.0385.0749-.0625.16002-.0625.25 0 .22641.14749.41694.34375.5.92516 2.72077.58242 6.13236.8125 8.65625-2.33949-3.83923-5.15618-3.90227-6.78125-10.25 1.34906 7.76942 7.42824 8.46368 5.875 13.34375-1.18921 1.23925-3.11722 3.33597-4.03125 4.25-.76285.67868-1.59581 1.26835-2.4375 1.84375-.87643.65389-.79689 1.13319-1.71875 1.71875-.68733.46263-2.24808.96188-2.84375 1.4375-.77914.62211-1.21036 1.46972-1.875 2.3125-.35417.47917-1.23958.61458-1.5625 1.25-.32894-1.33239-1.28622-3.80883-3.09375-4.84375-.89341-.51154-1.89485-1.4387-2.625-2.21875-.16244-.16986-.32136-.31728-.5-.46875-1.2415-3.00067-1.37508-6.70906-1.65625-10.0625.097-.0922.17429-.19076.28125-.28125.53668-.40499 1.03141-.85932 1.9375-1.125 1.00361-.19673 1.64252.33535 2.6875.1875 1.01534-.18272 1.85205-1.06453 2.84375-1.375.83379-.32538 2.07498-.13823 3.0625-.3125-1.14808.056-2.26509-.14799-3.375.1875-.91936.16193-1.46612 1.11655-2.34375 1.15625-1.0076.1187-1.63048-.40688-2.59375-.21875-.80343.11401-1.45915.39725-2.21875.5625-.096-.0611-.4129.0496-.40625-.0625-.0616-.56577-.12813-1.12745-.21875-1.65625-.06-3.89672 4.27346-2.57015 5.15625-3.25.58133-.44768 3.85453-3.04945 6.75-3.65625-3.43517.61964-6.89928 3.23605-6.5625 2.40625.43039-1.06043.76035-7.91801 2.84375-10.375-3.23258 3.13778-1.93744 10.59758-4.28125 11.3125-1.14933.35058-3.94816-.0106-4.4375 1.375-.10489-.29885-.21204-.57258-.34375-.84375-.84843-1.74675-3.20807-3.66898-5.71875-5.84375-.24719-1.22331 1.70858-1.61353 1.90625-2.125.15296-.39577 2.42162-2.38883 3-3.6875-1.08179 1.42622-3.17911 3.22298-3.28125 2.71875-.13053-.6444-2.23183-4.07697-1.96875-5.90625-.63373 2.51321 2.51245 5.71105 1.53125 6.78125-.40432.441-1.56827 1.00067-1.8125 1.65625-1.21315-1.06576-2.41928-2.18039-3.53125-3.40625-3.25105-3.58405-5.7455-2.03174-14.3125-5.65625z" fill-rule="evenodd"/>
      <path d="m-152.59375 174.37501c-.99296.048-1.98253.16292-2.5625.625.0227.59538.58177 1.29111 1.03125 1.9375.90796 1.19023 1.82677 2.3727 2.75 3.5625h4.96875c-.42722-.7657-.82207-1.55011-1.21875-2.3125-.46532-.84979-.81924-1.69268-1.1875-2.53125-.0422-.31337-.52993-.58499-.9375-.71875-.99474-.3815-1.96498-.54306-2.84375-.5625z" fill="url(#linearGradient2876)" fill-rule="evenodd" opacity=".797297"/>
      <path clip-path="url(#clipPath4396-4)" d="m80.40625 432.78125c4.95211 3.15625 10.09773 2.36004 13.8125 6.28125.16682.1761.33306.33512.5.5.47081.0642.86634.12875 1.125.125-.20957-.21165-.41647-.40488-.625-.625-3.01825-3.18598-6.9951-3.26716-11.03125-4.875-.03474-.0138-.059-.0484-.09375-.0625-1.10179-.36006-2.29362-.75403-3.6875-1.34375zm18.125.625c-.63373 2.51321 2.51245 5.71105 1.53125 6.78125-.28982.31612-.95433.69532-1.40625 1.125.12002.10757.25465.20603.375.3125.45504-.64981 1.60175-.96015 1.75-1.34375.0395-.1023.21224-.3176.46875-.59375.007-.15893-.013-.33834-.0625-.53125-.36749.24581-.65336.32478-.6875.15625-.13053-.6444-2.23183-4.07697-1.96875-5.90625zm15.125 3c-3.23258 3.13778-1.93744 10.59758-4.28125 11.3125-.87305.26631-2.67739.13373-3.71875.65625.10564.23081.1924.46561.28125.71875.48934-1.38565 3.28817-1.02442 4.4375-1.375.40212-.12266.70836-.4424.9375-.90625-.37324.16279-.58924.18863-.5-.0313.43039-1.06043.76035-7.91801 2.84375-10.375zm-9.875.1875c-.65633.8653-1.67467 1.86478-2.40625 2.40625.035.0884.11425.25945.125.3125.006.0315.01.0483.0313.0625.76016-.80336 1.86771-1.92287 2.25-2.78125zm31.15625 1.28125c-.10681 2.33068 2.61199 5.60659 1.375 8.5.1879.0583.37002.14826.5625.21875 1.03088-2.07763-1.84715-6.99222-1.9375-8.71875zm-44.09375 1.4375c-.58853-.002-1.19981.0498-1.8125.15625-.24454.0425-.47494.0811-.71875.0937.57324.0163 1.14758.006 1.71875-.0937.3802-.0661.75059-.10454 1.125-.125-.10937-.003-.20125-.031-.3125-.0313zm-4.90625.21875c-1.05294.0153-2.13802.17596-3.34375.96875.73581-.30835 1.4245-.46615 2.09375-.5625.66231-.25997 1.29099-.37458 1.90625-.40625-.21749-.006-.43522-.003-.65625 0zm5.6875.21875c-.16769-.002-.31622.0195-.46875.0313 1.75151.14017 4.01985.84237 5.59375 1.75 3.19912 2.92004 6.06811 5.00342 6.65625 7.03125.69343 2.39084.87982 8.89902.9375 12.375.0202.021.0422.0415.0625.0625.30813.3105.62898.60098.96875.875-.0381-3.13547-.21719-10.72125-.96875-13.3125-.58814-2.02783-3.45713-4.11121-6.65625-7.03125-1.7362-1.00123-4.32697-1.76239-6.125-1.78125zm-4.5.0625c.65921.0186 1.30134.0547 1.9375.0313-.6308-.0149-1.27239-.0416-1.9375-.0313zm38.90625.59375c.85981 2.03517 1.03075 4.21454 1.875 5.96875.0201.0419.0431.0827.0625.125-.0386.0749-.0625.16002-.0625.25 0 .22641.14749.41694.34375.5.75795 2.22902.68188 4.89913.75 7.1875.35884.43277.71896.90498 1.0625 1.46875-.081-.88874-.10567-1.89754-.125-2.9375-.22118-1.90879-.22993-4.24515-1.0625-5.875.0353-.0409.0733-.0777.0937-.125-.004-.008.004-.0227 0-.0313-.0255-.0612-.0625-.11723-.0625-.1875 0-.09.024-.17511.0625-.25-.0194-.0423-.0424-.0831-.0625-.125-.0198-.0411-.0434-.0834-.0625-.125-.0287.006-.0655.0249-.0937.0313-.0628-.0425-.14103-.0804-.21875-.0937-1.38487-2.04113-.95284-3.54566-2.5-5.78125zm19.03125 2.65625c-1.69758 2.49457-3.86818 2.37373-5.125 4.8125.0526.0186.10315.0444.15625.0625.89869-2.16469 3.75785-2.67569 4.96875-4.875zm-27.6875 1.3125c-2.19466.39587-4.28042 1.54971-5.5 2.15625-.0203.0759-.0419.19937-.0625.25-.0928.22874.15792.18098.5625 0 1.35368-.92023 3.20812-2.03073 5-2.40625zm4.90625 1.28125c1.34906 7.76942 7.42824 8.46368 5.875 13.34375-1.18921 1.23925-3.11722 3.33597-4.03125 4.25-.76285.67868-1.59581 1.26835-2.4375 1.84375-.87643.65389-.79689 1.13319-1.71875 1.71875-.68733.46263-2.24808.96188-2.84375 1.4375-.77914.62211-1.21036 1.46972-1.875 2.3125-.17709.23959-.47526.38932-.78125.5625.0747.23312.17111.49452.21875.6875.32292-.63542 1.20833-.77083 1.5625-1.25.66464-.84278 1.09586-1.69039 1.875-2.3125.59567-.47562 2.15642-.97487 2.84375-1.4375.92186-.58556.84232-1.06486 1.71875-1.71875.84169-.5754 1.67465-1.16507 2.4375-1.84375.91403-.91403 2.84204-3.01075 4.03125-4.25.39409-1.23817.2929-2.21057-.0937-3.09375-.005-.008.005-.0235 0-.0313-2.33668-3.81627-5.15947-3.88386-6.78125-10.21875zm9.625.21875c-.92497.006-1.69874.11176-2.40625.25.0135.0204.0173.042.0313.0625.0777.0133.1559.0513.21875.0937.73442-.16654 1.63943-.32515 2.6875-.375-.17873-.007-.35939-.0323-.53125-.0313zm.78125.34375c-.0732.003-.1456.0269-.21875.0313.67709.016 1.33761.0544 1.875.15625 1.80941.34285 1.14282.69721 2.0625.75.8083.0464 2.21338.8335 3.34375 1.28125 1.22261.48428 1.53834-.0211 3.84375 1.21875-1.65524-1.12051-3.34913-1.13223-3.59375-1.40625.0129-.0419.017-.0842.0313-.125-.0649-.0291-.12217-.0641-.1875-.0937-.0207.0437-.0423.0797-.0625.125-1.00669-.2824-1.9875-.7062-2.65625-1.0625-.18654-.0477-.28433-.1223-.40625-.21875-.0974-.077-.24506-.15717-.5-.25-.0108.0211-.02.0415-.0313.0625-.24588-.0977-.48007-.17228-.71875-.25-.0468-.01-.0744-.0217-.125-.0313-.74419-.14102-1.69938-.22641-2.65625-.1875zm-46.0625 2.03125.125.0625c.9109.24481 1.68179.8215 2.40625 1.40625.82464.41098 1.87022.34115 2.53125 1.0625.70456.74408 1.76065 1.14357 2.28125 2.0625.20942.35023.44974.66458.71875.96875-.70331.27896-1.37908 1.26201-1.875 1.59375-.0184.0123-.0433.0207-.0625.0313.26674.0829.5096.12431.71875.0937.35283-.4495.78212-.98745 1.375-1.09375.27247-.26266.5507-.50877.84375-.625-.26901-.30417-.50933-.61852-.71875-.96875-.5206-.91893-1.57669-1.31842-2.28125-2.0625-.66103-.72135-1.70661-.65152-2.53125-1.0625-.06827-.0551-.14958-.10156-.21875-.15625-.45456-.0788-.91165-.20596-1.25-.53125-.59769-.44175-1.32432-.71337-2.0625-.78125zm28.3125 3.0625c-.5615-.002-1.13254.0198-1.6875.1875-.8619.15181-1.40092.98682-2.1875 1.125.15712.0284.29573.0585.46875.0625.008-.004.0232.004.0313 0 .66399-.34171 1.29896-.84303 2-1.0625.29196-.11393.63652-.16173 1-.1875.45253-.0986.91776-.12668 1.375-.125-.33672-.005-.66726.001-1 0zm-6.28125 1.09375c-.11119.004-.22334.008-.34375.0313-.58666.0833-1.09791.25436-1.625.40625.003.0315-.003.0623 0 .0937-.007.11209.31024.001.40625.0625.72887-.15857 1.36514-.40917 2.125-.53125-.18386-.0329-.36151-.0695-.5625-.0625zm.75.375c-.11556.005-.24955.007-.375.0313.5303.0941 1.02742.28089 1.6875.1875.0423-.008.0833-.0213.125-.0313-.48738-.0785-.91748-.20805-1.4375-.1875zm-23.5625.1875c-.18337-.008-.35057.01-.53125.0313 2.08544-.0469 5.75517 2.50843 6.46875 2.71875.55836.16459-1.66639 2.10357-3.375 3.03125 1.32776-.37746 3.38761-2.02266 4.1875-2.5.01714-.0102.01528-.0221.03125-.0313.21446-.26888.31472-.45329.15625-.5-.0892-.0263-.23354-.0976-.40625-.1875-1.40032.064-4.06601-2.46133-6.53125-2.5625zm53.78125.0625c-.88641.37401-1.6291.38336-2.375.375.46305-.0347.90399-.0303 1.34375-.0313.31369-.0695.65846-.15916 1.03125-.34375zm-2.375.375c-.97055-.0109-1.9515-.0429-3.3125.75-.98526.56636-1.68584.93652-2.3125 1.3125.1001.15403.21261.29518.34375.40625.43285-.30459.95516-.58877 1.53125-.90625.0447-.0331.0806-.0614.125-.0937.66035-.48117 1.29197-.8658 1.78125-1.09375.34797-.16212.68254-.22024 1-.25.018-.004.0446.004.0625 0 .27556-.0643.52793-.10604.78125-.125zm-41.40625 1.03125c-.15346.0275-.30526.0776-.4375.15625.22223.23657.45596.46782.65625.71875.69303.78032 1.38577 1.54029 1.96875 2.40625.85162 1.06177 1.95474 1.87787 2.875 2.875.7471.7803 1.39506 1.64575 2.09375 2.46875.93323 1.12487 1.87928 2.25013 2.8125 3.375.42144.87267 1.03174 1.61036 1.65625 2.34375.66563.75999 1.30957 1.55781 1.8125 2.4375.59909.89138 1.1135 1.84141 1.5 2.84375.30827.94828.48395 1.92145.625 2.90625.19051 1.03702.34872 2.0991.25 3.15625-.14578 1.5715-.30651 3.14619-.4375 4.71875-.0217.7843-.12135 1.62135.25 2.34375.88575.56065 1.94401.69175 2.96875.75.15421-.004.31552-.0153.46875-.0313-.85535-.0774-1.70207-.25325-2.4375-.71875-.37135-.7224-.27171-1.55945-.25-2.34375.13099-1.57256.29172-3.14725.4375-4.71875.0987-1.05715-.0595-2.11923-.25-3.15625-.14105-.9848-.31673-1.95797-.625-2.90625-.3865-1.00234-.90091-1.95237-1.5-2.84375-.50293-.87969-1.14687-1.67751-1.8125-2.4375-.62451-.73339-1.23481-1.47108-1.65625-2.34375-.93322-1.12487-1.87927-2.25013-2.8125-3.375-.69869-.823-1.34665-1.68845-2.09375-2.46875-.92026-.99713-2.02338-1.81323-2.875-2.875-.58298-.86596-1.27572-1.62593-1.96875-2.40625-.24141-.30245-.51438-.59268-.78125-.875-.15942-.0325-.29833-.0249-.4375 0zm36.40625 5.5625c-.27801.006-.56326.0349-.84375.0625.10242.002.20882.017.3125.0313.3359.0194.69022-.0275 1.03125-.0625-.1656-.029-.331-.0347-.5-.0313zm-2.09375.0625c-.0128.019-.0184.0436-.0313.0625.19686.005.40053-.0167.59375-.0313-.19023-.0261-.37567-.039-.5625-.0313zm2.78125.21875c-.14219.006-.2642.0468-.40625.0625.65402.0921.99171.6953 1.71875.625.16682-.0309.33094-.0464.5-.0625-.11167-.0407-.21151-.0958-.3125-.15625-.10595.005-.20725.01-.3125 0-.40936-.035-.64885-.24056-.90625-.4375-.0927-.004-.18865-.0352-.28125-.0313zm2.28125.40625c-.072.001-.14679.0254-.21875.0313.0432.009.0772.0272.125.0313.15833.0145.30899-.0171.46875-.0313-.12245-.0226-.25224-.0334-.375-.0313zm.96875.1875c-.0641.002-.12357.0276-.1875.0313.0927.006.18873-.008.28125 0-.0298-.0116-.0634-.0202-.0937-.0313z" fill="#fce94f" fill-rule="evenodd" filter="url(#filter4412-3)" opacity=".491532" transform="translate(-265.5 -311.49999)"/>
      <path d="m-211.5 173.62501c22.49807-3.41152 40.875-.16667 60.875-.125l31.125-1.75v8.74999h-92z" fill="url(#radialGradient2878)"/>
    </g>
  </g>
  <g transform="matrix(3.75 0 0 3.75 65.900827 63.608985)">
    <rect fill="#000305" filter="url(#filter1902)" height="1.814045" opacity=".6" stroke-linejoin="round" stroke-width="14" transform="matrix(1.0097917 0 0 1.0097917 -.235002 .387261)" width="44.415802" x="1.7921" y="41.244648"/>
    <rect fill="url(#linearGradient3339)" height="35.922016" stroke="url(#linearGradient1643)" stroke-linecap="round" stroke-opacity=".96863" transform="matrix(-.9999985 .0017332 -.00096053 -.99999954 0 0)" width="44.966068" x="-46.459167" y="-42.846134"/>
  </g>
  <g transform="matrix(1.5522145 0 0 1.5952612 106.26266 149.17208)">
    <g clip-path="url(#clipPath16814-5)" transform="matrix(.9230769 0 0 .9 -27.096775 -56.435732)">
      <rect fill="url(#radialGradient21667-4)" height="40.601517" width="105.02679" x="11.223557" y="27.0802"/>
      <rect fill="url(#linearGradient2807)" height="40.601517" width="105.02679" x="11.223557" y="67.755539"/>
      <circle cx="50.269897" cy="47.169552" fill="#ff7e00" filter="url(#filter3336-2)" opacity=".627778" r="15.723184" transform="matrix(2.7604692 0 0 .9533723 -78.809706 15.60179)"/>
      <circle cx="50.269897" cy="47.169552" fill="url(#radialGradient21675-2)" filter="url(#filter3410-1)" r="15.723184" transform="matrix(.709197 0 0 .7484557 5.809368 21.718126)"/>
      <circle cx="50.269897" cy="47.169552" fill="#ff7e00" filter="url(#filter7623-6)" opacity=".627778" r="15.723184" transform="matrix(3.060609 0 0 .2647755 -90.409629 32.491805)"/>
      <path d="m11.179582 64.099911 8.432228-2.154496 4.260493-.09367 2.574046-1.873476 4.970576 2.248171 4.793056-1.686128 2.574046 2.810212 11.006277 3.372256 1.775205-.936737 11.538832 1.217758 1.331404-.655716 1.331409 1.030411 26.273041-6.088794 2.041485.562043 11.1838-.281022 2.84032 1.592454 5.41438-1.49878 2.75157.281021v12.833303h-105.092168z" fill="#3b2611"/>
      <path d="m11.715254 72.275512 6.984155-3.290561 7.889509 2.60503 19.529768-.137108 5.173448-4.113201 2.716061 3.016347 19.012419-6.169799 9.95889 1.782383 4.268096-1.919492 2.328052 2.193706 11.510918 1.371068 4.26809 1.371066 10.34691.137108v6.444013h-104.503661z" fill="#131617"/>
      <path d="m11.512042 74.085325 4.869068-3.619621 2.356001 1.316226 6.125601.987169 5.968535-2.138865 16.177871 1.151696 12.565334 2.467921h14.450135l5.968534-1.645282 3.769602.16453 6.439735 1.645278 15.706672-1.809808 6.5968-2.303392 2.04187-1.645282 1.41359.987169v7.239234h-104.763481z"/>
      <path d="m42.55749 91.012714c3.65907-.476381 7.85922-.724343 10.499-1.631008 3.6819.898016 8.20709 1.084057 12.38881 1.560092-4.1996-.177285-8.3992-.91838-12.59879-.531854-3.2097-.09622-6.82754.358887-10.28902.60277z" fill="url(#linearGradient2809)" opacity=".533333"/>
      <path d="m41.36219 101.4572c3.65907-.47637 7.85921-.72434 10.49899-1.631007 3.6819.898017 8.2071 1.084057 12.38881 1.560097-4.19959-.17728-8.39919-.91838-12.59879-.53185-3.2097-.0962-6.82754.35888-10.28901.60276z" fill="url(#linearGradient2811)" opacity=".533333"/>
      <path d="m51.18516 88.695638c3.65907-.476376 7.85921-.724343 10.49899-1.631008 3.68191.89802 8.2071 1.084057 12.38881 1.560092-4.19959-.177281-8.39919-.918375-12.59879-.531845-3.20969-.09623-6.82754.358882-10.28901.602761z" fill="url(#linearGradient2813)" opacity=".533333"/>
      <path d="m12.583429 103.67401c3.65907-.47637 7.85922-.72434 10.49899-1.631 3.68191.89802 8.2071 1.08406 12.38882 1.56009-4.1996-.17728-8.3992-.91838-12.5988-.53185-3.20969-.0962-6.82754.35888-10.28901.60276z" fill="url(#linearGradient2815)" opacity=".533333"/>
      <path d="m62.40842 102.44437c3.65907-.47638 7.85922-.72434 10.499-1.63101 3.6819.89802 8.2071 1.08406 12.38881 1.56009-4.1996-.17728-8.39919-.91837-12.59879-.53184-3.2097-.0962-6.82755.35888-10.28902.60276z" fill="url(#linearGradient2817)" opacity=".533333"/>
      <path d="m72.23139 89.682807c3.65908-.476376 7.85922-.724343 10.499-1.631008 3.68191.898021 8.2071 1.084058 12.38881 1.560092-4.1996-.17728-8.39919-.918375-12.59879-.531845-3.2097-.09623-6.82754.358883-10.28902.602761z" fill="url(#linearGradient2819)" opacity=".533333"/>
      <path d="m63.573 89.352716c3.65907-.476377 7.85922-.724344 10.499-1.631008 3.6819.89802 8.20709 1.084062 12.38881 1.560096-4.1996-.177285-8.39919-.91838-12.59879-.531849-3.2097-.09623-6.82755.358882-10.28902.602761z" fill="url(#linearGradient2821)" opacity=".533333"/>
      <path d="m52.35102 96.5724c3.65907-.476376 7.85922-.724344 10.49899-1.631008 3.68191.89802 8.20711 1.084057 12.38882 1.560092-4.1996-.177281-8.3992-.918376-12.59879-.53185-3.2097-.09623-6.82755.358887-10.28902.602766z" fill="url(#linearGradient2823)" opacity=".533333"/>
      <path d="m50.73074 88.6954c3.65906-.476377 7.85921-.724339 10.49899-1.631004 3.68191.89802 8.2071 1.084057 12.38882 1.560092-4.1996-.17728-8.3992-.91838-12.5988-.53185-3.2097-.09623-6.82754.358883-10.28901.602762z" fill="url(#linearGradient2825)" opacity=".533333"/>
      <path d="m90.22629 89.601973c3.65908-.476376 7.85922-.724339 10.499-1.631008 3.6819.898025 8.2071 1.084062 12.38881 1.560096-4.19959-.17728-8.39919-.918379-12.59879-.531849-3.2097-.09623-6.82754.358883-10.28902.602761z" fill="url(#linearGradient2827)" opacity=".533333"/>
      <path d="m85.425266 100.13614c3.65907-.476377 7.85921-.72434 10.49899-1.631009 3.681907.898025 8.207094 1.084062 12.388814 1.560099-4.1996-.177283-8.399197-.918382-12.598794-.531852-3.2097-.09623-6.82754.358883-10.28901.602762z" fill="url(#linearGradient2829)" opacity=".533333"/>
      <path d="m80.4926 96.190114c3.65906-.476376 7.85921-.724344 10.49899-1.631008 3.68191.89802 8.2071 1.084057 12.38881 1.560092-4.19959-.177281-8.39919-.918376-12.59879-.53185-3.2097-.09623-6.82755.358887-10.28901.602766z" fill="url(#linearGradient2831)" opacity=".533333"/>
      <path d="m99.82535 91.328085c3.65908-.476376 7.85922-.724343 10.499-1.631008 3.6819.898021 8.20709 1.084058 12.38881 1.560092-4.1996-.17728-8.39919-.918375-12.59879-.531845-3.2097-.09623-6.82754.358883-10.28902.602761z" fill="url(#linearGradient2833)" opacity=".533333"/>
      <path d="m91.16695 97.66466c3.65908-.476377 7.85923-.724344 10.49901-1.631008 3.6819.89802 8.20709 1.084062 12.38881 1.560096-4.1996-.177285-8.3992-.91838-12.5988-.531849-3.2097-.09624-6.82754.358882-10.28902.602761z" fill="url(#linearGradient2835)" opacity=".533333"/>
      <path d="m87.16688 82.937611c3.65907-.476376 7.85922-.724343 10.499-1.631008 3.6819.898021 8.2071 1.084058 12.38881 1.560096-4.1996-.177284-8.39919-.918379-12.59879-.531849-3.2097-.09623-6.82755.358883-10.28902.602761z" fill="url(#linearGradient2837)" opacity=".533333"/>
      <path d="m74.953121 81.882503c3.659067-.47638 7.859215-.724343 10.498994-1.631008 3.681904.898016 8.207095 1.084058 12.388808 1.560092-4.199597-.177285-8.399191-.918379-12.59879-.531854-3.209696-.09623-6.827538.358887-10.289012.60277z" fill="url(#linearGradient2839)" opacity=".533333"/>
      <path d="m62.627903 83.847984c3.659067-.476376 7.85922-.724343 10.498999-1.631008 3.681903.89802 8.207099 1.084057 12.38881 1.560096-4.199595-.177285-8.399193-.918379-12.598792-.531849-3.209701-.09623-6.827543.358882-10.289017.602761z" fill="url(#linearGradient2841)" opacity=".533333"/>
      <path d="m55.745848 80.318394c3.659067-.47638 7.859216-.724343 10.498995-1.631008 3.681903.898016 8.207094 1.084058 12.388809 1.560092-4.199598-.177285-8.399193-.91838-12.598791-.531854-3.209697-.09623-6.827539.358887-10.289013.60277z" fill="url(#linearGradient2843)" opacity=".533333"/>
      <path d="m39.087298 80.061653c3.659066-.476376 7.859219-.724343 10.498998-1.631008 3.681903.89802 8.207098 1.084057 12.388809 1.560096-4.199594-.177285-8.399193-.918379-12.598791-.531849-3.209701-.09623-6.827542.358882-10.289016.602761z" fill="url(#linearGradient2845)" opacity=".533333"/>
      <path d="m24.151813 80.140179c3.659074-.476377 7.859218-.724344 10.498997-1.631008 3.681904.89802 8.207095 1.084057 12.38881 1.560091-4.199598-.17728-8.399193-.918375-12.598791-.531845-3.209697-.09623-6.827539.358883-10.289016.602762z" fill="url(#linearGradient2847)" opacity=".533333"/>
      <path d="m15.493415 79.810087c3.659075-.476376 7.859224-.724343 10.499002-1.631008 3.681903.89802 8.207095 1.084062 12.38881 1.560096-4.199595-.177285-8.399193-.918379-12.598792-.531849-3.2097-.09623-6.827546.358882-10.28902.602761z" fill="url(#linearGradient2849)" opacity=".533333"/>
      <path d="m28.151893 78.673112c3.659067-.476381 7.859215-.724344 10.498994-1.631008 3.681904.898016 8.207095 1.084057 12.38881 1.560092-4.199598-.177285-8.399193-.91838-12.598792-.531854-3.209696-.09622-6.827538.358887-10.289012.60277z" fill="url(#linearGradient2851)" opacity=".533333"/>
      <path d="m13.66001 89.527481c3.659066-.476377 7.859219-.724344 10.498998-1.631008 3.681902.89802 8.207098 1.084057 12.388809 1.560096-4.199595-.177285-8.399193-.91838-12.598791-.53185-3.209701-.09623-6.827543.358883-10.289016.602762z" fill="url(#linearGradient2853)" opacity=".533333"/>
      <path d="m48.316011 84.420097c3.659074-.476377 7.859219-.724344 10.498998-1.631009 3.681903.898021 8.207094 1.084058 12.38881 1.560092-4.199599-.17728-8.399194-.918375-12.598792-.531845-3.209697-.09623-6.827539.358883-10.289016.602762z" fill="url(#linearGradient2855)" opacity=".533333"/>
      <path d="m65.657617 97.423337c3.659075-.476376 7.859223-.724343 10.499002-1.631008 3.681904.89802 8.207095 1.084062 12.38881 1.560096-4.199594-.177285-8.399193-.918379-12.598792-.531849-3.2097-.09623-6.827546.358882-10.28902.602761z" fill="url(#linearGradient2857)" opacity=".533333"/>
      <path d="m52.316091 100.73081c3.659067-.47638 7.859215-.72435 10.498995-1.631012 3.681903.898016 8.207094 1.084062 12.388809 1.560092-4.199598-.17728-8.399193-.91838-12.598791-.53185-3.209697-.0962-6.827539.35888-10.289013.60277z" fill="url(#linearGradient2859)" opacity=".533333"/>
      <path d="m74.657547 84.918511c3.659066-.476377 7.859219-.724344 10.498998-1.631008 3.681902.89802 8.207098 1.084057 12.388809 1.560096-4.199594-.177285-8.399193-.91838-12.598791-.53185-3.209701-.09623-6.827543.358883-10.289016.602762z" fill="url(#linearGradient2861)" opacity=".533333"/>
      <path d="m101.11218 79.660281c3.65907-.47638 7.85922-.724343 10.499-1.631008 3.6819.898016 8.20709 1.084058 12.38881 1.560092-4.1996-.177285-8.3992-.918379-12.59879-.531854-3.2097-.09623-6.82754.358887-10.28902.60277z" fill="url(#linearGradient2863)" opacity=".533333"/>
      <path d="m84.453632 79.40354c3.659066-.476376 7.859219-.724343 10.498998-1.631008 3.681903.89802 8.2071 1.084057 12.38881 1.560096-4.19959-.177285-8.399193-.918379-12.598792-.531849-3.209701-.09623-6.827543.358882-10.289016.602761z" fill="url(#linearGradient2865)" opacity=".533333"/>
      <path d="m93.807513 86.399263c3.659067-.476377 7.859217-.724344 10.498997-1.631009 3.68191.898021 8.2071 1.084058 12.38881 1.560096-4.19959-.177284-8.39919-.918379-12.59879-.531849-3.2097-.09623-6.827543.358883-10.289017.602762z" fill="url(#linearGradient2867)" opacity=".533333"/>
      <path d="m25.89895 90.755973c3.65907-.476376 7.85921-.724344 10.49899-1.631008 3.6819.89802 8.2071 1.084057 12.38881 1.560096-4.19959-.177285-8.39919-.91838-12.59879-.531849-3.2097-.09623-6.82754.358882-10.28901.602761z" fill="url(#linearGradient2869)" opacity=".533333"/>
      <path d="m24.151813 80.140179c3.659074-.476377 7.859218-.724344 10.498997-1.631008 3.681904.89802 8.207095 1.084057 12.38881 1.560091-4.199598-.17728-8.399193-.918375-12.598791-.531845-3.209697-.09623-6.827539.358883-10.289016.602762z" fill="url(#linearGradient2847)" opacity=".533333"/>
      <path d="m67.151899 94.228666c3.659067-.476381 7.859215-.724344 10.498994-1.631008 3.681904.898016 8.207098 1.084057 12.388812 1.560092-4.199604-.177285-8.399195-.91838-12.598794-.531854-3.209696-.09622-6.827538.358887-10.289012.60277z" fill="url(#linearGradient2873)" opacity=".533333"/>
      <path d="m16.157538 93.807399c3.659066-.476377 7.859219-.724344 10.498998-1.631008 3.681902.89802 8.207098 1.084057 12.388809 1.560096-4.199594-.177285-8.399193-.91838-12.598791-.53185-3.209701-.09623-6.827543.358883-10.289016.602762z" fill="url(#linearGradient2875)" opacity=".533333"/>
      <path d="m25.89895 90.755973c3.65907-.476376 7.85921-.724344 10.49899-1.631008 3.6819.89802 8.2071 1.084057 12.38881 1.560096-4.19959-.177285-8.39919-.91838-12.59879-.531849-3.2097-.09623-6.82754.358882-10.28901.602761z" fill="#ffeb55" opacity=".294444"/>
      <path d="m24.151813 80.140179c3.659074-.476377 7.859218-.724344 10.498997-1.631008 3.681904.89802 8.207095 1.084057 12.38881 1.560091-4.199598-.17728-8.399193-.918375-12.598791-.531845-3.209697-.09623-6.827539.358883-10.289016.602762z" fill="#ffeb55" opacity=".294444"/>
      <path d="m25.985226 85.339778c3.659067-.476381 7.859215-.724344 10.498994-1.631008 3.681904.898016 8.207095 1.084057 12.38881 1.560092-4.199598-.177285-8.399193-.91838-12.598792-.531854-3.209696-.09622-6.827538.358887-10.289012.60277z" fill="#ffeb55" opacity=".294444"/>
      <path d="m35.657541 80.474067c3.659066-.476377 7.859219-.724344 10.498998-1.631008 3.681902.89802 8.207098 1.084057 12.388809 1.560096-4.199594-.177285-8.399193-.91838-12.598791-.53185-3.209701-.09623-6.827543.358883-10.289016.602762z" fill="#ffeb55" opacity=".294444"/>
      <path d="m23.732283 99.644861c3.65907-.476376 7.85921-.724344 10.49899-1.631008 3.6819.89802 8.2071 1.084057 12.38881 1.560096-4.19959-.177285-8.39919-.91838-12.59879-.531849-3.2097-.09623-6.82754.358882-10.28901.602761z" fill="#ffeb55" opacity=".294444"/>
      <path d="m24.151813 80.140179c3.659074-.476377 7.859218-.724344 10.498997-1.631008 3.681904.89802 8.207095 1.084057 12.38881 1.560091-4.199598-.17728-8.399193-.918375-12.598791-.531845-3.209697-.09623-6.827539.358883-10.289016.602762z" fill="#ffeb55" opacity=".294444"/>
      <path d="m28.151893 87.562c3.659067-.476381 7.859215-.724344 10.498994-1.631008 3.681904.898016 8.207095 1.084057 12.38881 1.560092-4.199598-.177285-8.399193-.91838-12.598792-.531854-3.209696-.09622-6.827538.358887-10.289012.60277z" fill="#ffeb55" opacity=".294444"/>
      <path d="m35.657541 82.696289c3.659066-.476377 7.859219-.724344 10.498998-1.631008 3.681902.89802 8.207098 1.084057 12.388809 1.560096-4.199594-.177285-8.399193-.91838-12.598791-.53185-3.209701-.09623-6.827543.358883-10.289016.602762z" fill="#ffeb55" opacity=".294444"/>
      <path d="m32.70396 95.200417c3.65907-.476376 7.85922-.724344 10.499-1.631008 3.6819.89802 8.2071 1.084057 12.38881 1.560096-4.1996-.177285-8.39919-.91838-12.59879-.531849-3.2097-.09623-6.82754.358882-10.28902.602761z" fill="#e3ad00" opacity=".294444"/>
      <rect fill="url(#linearGradient2877)" height="30.212458" width="101.97912" x="13.233362" y="76.823875"/>
      <path d="m32.70396 86.311529c3.65907-.476376 7.85922-.724344 10.499-1.631008 3.6819.89802 8.2071 1.084057 12.38881 1.560096-4.1996-.177285-8.39919-.91838-12.59879-.531849-3.2097-.09623-6.82754.358882-10.28902.602761z" fill="#e3ad00" opacity=".294444"/>
      <path d="m20.323991 84.584623c3.659074-.476377 7.859219-.724344 10.498998-1.631008 3.681903.89802 8.207094 1.084057 12.38881 1.560091-4.199599-.17728-8.399194-.918375-12.598792-.531845-3.209697-.09623-6.827539.358883-10.289016.602762z" fill="#e3ad00" opacity=".294444"/>
      <path d="m25.329718 96.029621c3.659067-.476377 7.859219-.724344 10.498999-1.631008 3.6819.89802 8.207099 1.084057 12.38881 1.560096-4.199594-.177285-8.399197-.91838-12.598792-.53185-3.209702-.09623-6.827543.358883-10.289017.602762z" fill="#e3ad00" opacity=".294444"/>
      <rect fill="url(#linearGradient2879)" height="2.448633" opacity=".427778" width="105.02679" x="11.223557" y="76.844902"/>
      <rect fill="url(#linearGradient2881)" height="29.926754" opacity=".522222" width="105.02679" x="11.223557" y="29.085884"/>
      <path d="m-.04466021 80.174298 20.54831121-2.711748 10.382302-.117902 6.272637-2.358042 12.112688 2.82965 11.680094-2.122236 6.272637 3.53706 26.820955 4.244475 4.325959-1.179019 28.118727 1.532725 3.24447-.825313 3.24448 1.296921 64.0242-7.663634 4.97485.707413 27.25356-.353707 6.92152 2.004336 13.19417-1.886433 6.70524.353706v16.152584h-256.09680021z" fill="#ff7e00" filter="url(#filter7585-1)" opacity=".488889" transform="matrix(.4037181 0 0 .4330773 12.048239 26.156697)"/>
    </g>
    <rect fill="url(#linearGradient2883)" height="71.75" opacity=".771863" ry="0" transform="scale(1 -1)" width="96" x="-16.019852" y="-40.764259"/>
    <path d="m-15.019852 12.04674c31.197145 8.203863 65.387552 2.15464 94-11.5315831 0-15.8353609 0-30.1567139 0-30.7508889-1.30357 0-92.696425 0-94 0z" fill="url(#linearGradient2885)" opacity=".5"/>
    <path d="m-16.019852 40.764264v-71.999996h96v71.999996zm1-.947368h94v-70.10526h-94z" fill="url(#linearGradient2887)"/>
  </g>
</svg>
