<svg height="256" viewBox="0 0 256 256" width="256" xmlns="http://www.w3.org/2000/svg" xmlns:xlink="http://www.w3.org/1999/xlink">
  <defs>
    <radialGradient id="radialGradient4506" cx="39.890652" cy="94.426834" gradientTransform="matrix(1 0 0 .2670157 0 81.512404)" gradientUnits="userSpaceOnUse" r="33.764351" xlink:href="#XMLID_13_-6"/>
    <linearGradient id="XMLID_13_-6" gradientUnits="userSpaceOnUse" x1="62.246101" x2="52.913101" y1="8.6162" y2="19.949699">
      <stop offset="0"/>
      <stop offset="1" stop-opacity="0"/>
    </linearGradient>
    <filter id="filter4422" height="1.481119" width="1.128466" x="-.064233" y="-.240559">
      <feGaussianBlur stdDeviation="1.8073251"/>
    </filter>
    <linearGradient id="XMLID_9_-5" gradientUnits="userSpaceOnUse" x1="40.117199" x2="48.117199" y1="49" y2="49">
      <stop offset="0" stop-color="#008e00"/>
      <stop offset=".2294" stop-color="#008700"/>
      <stop offset=".5127" stop-color="#007800"/>
      <stop offset=".8231" stop-color="#005f00"/>
      <stop offset="1" stop-color="#004d00"/>
    </linearGradient>
    <filter id="filter5551-5" color-interpolation-filters="sRGB" height="1.024527" width="2.117884" x="-.558942" y="-.012263">
      <feGaussianBlur stdDeviation=".465785"/>
    </filter>
    <filter id="filter6116-7" color-interpolation-filters="sRGB" height="1.355011" width="1.245126" x="-.122563" y="-.177506">
      <feGaussianBlur stdDeviation="2.0368781"/>
    </filter>
    <radialGradient id="radialGradient4518" cx="22.501722" cy="91.356857" fx="19.835222" fy="86.023857" gradientTransform="matrix(.6862309 -.2788753 .2607269 .6833644 -.067421 33.863485)" gradientUnits="userSpaceOnUse" r="14">
      <stop offset="0" stop-color="#fff"/>
      <stop offset=".5" stop-color="#fff" stop-opacity=".708861"/>
      <stop offset="1" stop-color="#fff" stop-opacity="0"/>
    </radialGradient>
    <filter id="filter5558-3" color-interpolation-filters="sRGB" height="1.155996" width="1.097502" x="-.048751" y="-.077998">
      <feGaussianBlur stdDeviation=".61029092"/>
    </filter>
    <radialGradient id="radialGradient4520" cx="27.127048" cy="113.89391" gradientTransform="matrix(1 -.02648657 .0139617 .5271235 18.16764 52.58348)" gradientUnits="userSpaceOnUse" r="11.990002">
      <stop offset="0" stop-color="#c3ff6a"/>
      <stop offset="1" stop-color="#a6ff88" stop-opacity="0"/>
    </radialGradient>
    <filter id="filter2844-0" color-interpolation-filters="sRGB" height="1.278057" width="1.146622" x="-.073311" y="-.139028">
      <feGaussianBlur stdDeviation=".73249726"/>
    </filter>
    <filter id="filter3619-6" color-interpolation-filters="sRGB" height="1.150008" width="1.069948" x="-.034974" y="-.075004">
      <feGaussianBlur stdDeviation=".69944247"/>
    </filter>
    <radialGradient id="radialGradient4527" cx="78.87962846605" cy="28.1747024438" gradientUnits="userSpaceOnUse" r="16.49284942955">
      <stop offset=".33140001" stop-color="#f0ff80"/>
      <stop offset=".67438829" stop-color="#0f0" stop-opacity="0"/>
    </radialGradient>
    <filter id="filter6448" color-interpolation-filters="sRGB" height="1.075176" width="1.132781" x="-.066391" y="-.037588">
      <feGaussianBlur stdDeviation=".37043075"/>
    </filter>
    <linearGradient id="linearGradient9532" gradientTransform="matrix(.28722759 0 0 .37405726 75.714349 55.935944)" gradientUnits="userSpaceOnUse" x1="40.117199" x2="48.117199" xlink:href="#XMLID_9_-5" y1="49" y2="49"/>
    <linearGradient id="linearGradient9534" gradientUnits="userSpaceOnUse" x1="44.142799" x2="44.142799" y1="3.493313" y2="94.157005">
      <stop offset="0" stop-color="#00a208"/>
      <stop offset=".5" stop-color="#dfffa8"/>
      <stop offset="1" stop-color="#8aff47" stop-opacity=".632911"/>
    </linearGradient>
    <linearGradient id="linearGradient9536" gradientTransform="matrix(.2600716 0 0 .31161234 77.122405 61.475303)" gradientUnits="userSpaceOnUse" x1="44.117001" x2="44.117001" xlink:href="#XMLID_13_-6" y1="88.249001" y2="83.652809"/>
    <linearGradient id="linearGradient9538" gradientTransform="matrix(.6433337 0 0 .5432152 37.044465 32.23032)" gradientUnits="userSpaceOnUse" x1=".117412" x2="43.927124" y1="101.0003" y2="92.500053">
      <stop offset="0" stop-color="#287f00"/>
      <stop offset=".5" stop-color="#3cf000"/>
      <stop offset="1" stop-color="#003a00"/>
    </linearGradient>
    <linearGradient id="linearGradient9540" gradientUnits="userSpaceOnUse" x1="3.988547" x2="43.87418" y1="100.01298" y2="100.01298">
      <stop offset="0" stop-color="#080"/>
      <stop offset="1" stop-color="#0aa800" stop-opacity=".607595"/>
    </linearGradient>
    <linearGradient id="linearGradient9542" gradientTransform="matrix(1 0 0 -1 39.75779 128)" gradientUnits="userSpaceOnUse" x1="22.025112" x2="21.785669" y1="29.212114" y2="7.972616">
      <stop offset="0" stop-opacity="0"/>
      <stop offset="1" stop-color="#07631a"/>
    </linearGradient>
    <linearGradient id="linearGradient9544" gradientTransform="matrix(.39906145 0 0 .40760503 74.439286 53.017492)" gradientUnits="userSpaceOnUse" x1="54.103237" x2="32.584381" xlink:href="#XMLID_9_-5" y1="32.580181" y2="31.295557"/>
  </defs>
  <g id="g4492" transform="matrix(4.0858351 0 0 4.0858351 -253.30812 -213.6514)">
    <ellipse cx="45.43161" cy="111.20621" fill="url(#radialGradient4506)" fill-rule="evenodd" filter="url(#filter4422)" rx="33.764351" ry="9.015612" transform="matrix(.18908046 -.02528321 0 -.26319708 72.97342 127.49583)"/>
    <path d="m87.237058 55.935944h2.369628v37.914041l-2.369628-2.004543z" fill="url(#linearGradient9532)"/>
    <path d="m43.117 3v90.657c.813.204 1.005.252 2 .5 0-6.867 0-85.747 0-91.157-.937 0-1.062 0-2 0z" fill="url(#linearGradient9534)" filter="url(#filter5551-5)" opacity=".7" transform="matrix(.59240689 0 0 -.39021018 61.69425 93.091421)"/>
    <path d="m89.636274 87.36714c-.445763-.629769-.975009-.578322-1.583057-1.065995-.163325-.130877-.329771-.25116-.497517-.364898v5.453839l2.080574 1.724994z" fill="url(#linearGradient9536)" opacity=".3"/>
    <g transform="matrix(.54300578 -.06535683 .06400935 .51630543 47.19869 52.040275)">
      <path d="m37.422745 90.448873c1.672024 5.389239 9.805048 8.256329 18.16517 6.40451 8.360764-1.852368 13.780851-7.722891 12.10947-13.112134-1.672025-5.388695-9.804406-8.256329-18.164527-6.403965s-13.782137 7.722892-12.110113 13.111589z" fill="url(#linearGradient9538)"/>
      <path d="m43.576 95.141c-1.891-7.217-12.218-10.761-23.068-7.915-10.849 2.846-18.111 11.005-16.22 18.224 1.104 4.218 5.1 7.166 10.387 8.333-3.231-1.651-5.652-4.326-6.545-7.736-1.904-7.269 3.803-15.064 12.748-17.412 8.945-2.347 17.741 1.644 19.645 8.912.894 3.41.095 6.931-1.911 9.956 4.034-3.612 6.069-8.145 4.964-12.362z" fill="url(#linearGradient9540)" filter="url(#filter6116-7)" opacity=".9" transform="matrix(.686105 0 0 .5432152 36.321363 32.23032)"/>
      <path d="m34.447549 87.550082c-7.626375 4.164496-12.096252 10.313936-9.566387 13.160718 1.100762 1.23833 3.231368 1.53678 4.823819 1.56891 4.124595.0834 9.446953-1.428 14.234531-4.042258 7.625626-4.163549 12.09604-10.314544 9.565214-13.160989-1.100763-1.238336-3.231366-1.536781-4.823822-1.568919-4.125344-.0825-9.445778 1.428283-14.233355 4.042538z" fill="url(#radialGradient4518)" filter="url(#filter5558-3)" opacity=".8" transform="matrix(.7077814 0 0 .6148065 20.645198 26.252134)"/>
      <path d="m46.87479 109c-7.172 1.882-12.588.601-11.925 3.134.273 1.045 1.302 1.832 2.116 2.308 2.241 1.311 6.431 2.239 11.471.917 7.171-1.882 10.926-6.96 10.263-9.492-.273-1.046-1.302-1.832-2.116-2.309-2.241-1.31-4.77 4.12-9.809 5.442z" fill="url(#radialGradient4520)" filter="url(#filter2844-0)" opacity=".6" transform="matrix(.7114081 .1240747 -.1849201 .7638422 40.01216 .650991)"/>
      <path d="m87.84375 97.625c-.647929 8.38965-8.33824 16.48063-19.25 19.34375-12.995 3.409-25.651001-1.86025-28.25-11.78125-.232934-.88908-.377065-1.79014-.4375-2.6875-.107691 1.56171.03141 3.1375.4375 4.6875 2.598999 9.921 15.255 15.19025 28.25 11.78125 11.777624-3.09031 19.782779-12.26827 19.25-21.34375z" fill="url(#linearGradient9542)" filter="url(#filter3619-6)" opacity=".8" transform="matrix(.6181529 0 0 .5432152 13.113494 32.23032)"/>
    </g>
    <path d="m93.442191 62.75273c-2.025633-2.419543-3.082876-5.36612-3.835505-6.816786v9.708696c13.705364 5.768834 4.852716 21.096462 4.852716 21.096462 10.124588-10.428574.847206-21.761625-1.017211-23.988372z" fill="url(#linearGradient9544)"/>
    <path d="m73.283992 31.834433c-3.124227-3.830364-3.782911-6.407664-4.516521-7.486534 0 11.959973 3.892177 11.817622.318418 11.130841 6.34086 3.26096 11.213882 7.754378 13.072556 12.52126-2.084692-7.847405-6.240964-12.937074-8.874453-16.165567z" fill="url(#radialGradient4527)" filter="url(#filter6448)" transform="matrix(.59240689 0 0 .59240689 49.323017 44.087806)"/>
  </g>
  <use transform="translate(65.614443 39.906052)" xlink:href="#g4492"/>
</svg>
