<svg height="256" width="256" xmlns="http://www.w3.org/2000/svg" xmlns:xlink="http://www.w3.org/1999/xlink">
  <defs>
    <filter id="filter5998-5-1" color-interpolation-filters="sRGB" height="1.313268" width="1.243931" x="-.121966" y="-.156634">
      <feGaussianBlur stdDeviation="10.332143"/>
    </filter>
    <filter id="filter5777-8-6" color-interpolation-filters="sRGB" height="1.078317" width="1.060983" x="-.030491" y="-.039159">
      <feGaussianBlur stdDeviation="2.5830357"/>
    </filter>
    <linearGradient id="linearGradient5988-1-8-6" gradientUnits="userSpaceOnUse" x1="53.37601997881" x2="91.40912546366" xlink:href="#linearGradient5641-8-4-3" y1="186.25655401439" y2="183.79412799165"/>
    <linearGradient id="linearGradient5641-8-4-3">
      <stop offset="0" stop-color="#b5b5b5"/>
      <stop offset=".5" stop-color="#868686"/>
      <stop offset="1" stop-color="#c7c7c7"/>
    </linearGradient>
    <linearGradient id="linearGradient5974-3-8-1" gradientUnits="userSpaceOnUse" x1="34.05978434199" x2="55.49126331938" y1="150.67943751245" y2="150.74339676683">
      <stop offset="0" stop-color="#e3e3e3"/>
      <stop offset=".5" stop-color="#b2b2b2"/>
      <stop offset="1" stop-color="#d6d6d6"/>
    </linearGradient>
    <linearGradient id="linearGradient5733-5-9-8" gradientUnits="userSpaceOnUse" x1="78.41363810381" x2="107.4859076218" xlink:href="#linearGradient5641-8-4-3" y1="202.86044813939" y2="203.29711474164"/>
    <linearGradient id="linearGradient5723-0-1-1" gradientUnits="userSpaceOnUse" x1="203.37641125" x2="233.685106875" xlink:href="#linearGradient5641-8-4-3" y1="117.389525875" y2="116.0717565"/>
    <linearGradient id="linearGradient11113-6-5" gradientUnits="userSpaceOnUse" x1="195.469795" x2="231.049568125" xlink:href="#linearGradient5641-8-4-3" y1="151.124421875" y2="150.070206375"/>
    <linearGradient id="linearGradient5635-2-7-0" gradientUnits="userSpaceOnUse" x1="187.036071" x2="220.24385925" xlink:href="#linearGradient5615-4-4-4" y1="171.945178" y2="176.425593875"/>
    <linearGradient id="linearGradient5615-4-4-4">
      <stop offset="0" stop-color="#717171"/>
      <stop offset="1" stop-color="#ccc"/>
    </linearGradient>
    <linearGradient id="linearGradient5729-2-2-8" gradientUnits="userSpaceOnUse" x1="116.228632727" x2="146.621665592" xlink:href="#linearGradient5641-8-4-3" y1="202.34376658069" y2="202.34376658069"/>
    <linearGradient id="linearGradient5585-5-1-8" gradientUnits="userSpaceOnUse" x1="134.68768257813" x2="174.02309842188" y1="44.91221025" y2="193.55659575">
      <stop offset="0" stop-color="#e5e5e5"/>
      <stop offset="1" stop-color="#b5b5b5"/>
    </linearGradient>
    <linearGradient id="linearGradient5639-5-0-6" gradientUnits="userSpaceOnUse" x1="154.618944375" x2="187.299624875" xlink:href="#linearGradient5641-8-4-3" y1="210.687597625" y2="209.633382125"/>
    <radialGradient id="radialGradient5603-1-1-5" cx="-88.308083" cy="73.568199" gradientTransform="matrix(.72422138 .2385191 -.12499043 .37951147 106.27052 90.766167)" gradientUnits="userSpaceOnUse" r="101.65625" xlink:href="#linearGradient5597-2-9-5"/>
    <linearGradient id="linearGradient5597-2-9-5">
      <stop offset="0" stop-color="#717171"/>
      <stop offset="1" stop-color="#717171" stop-opacity="0"/>
    </linearGradient>
    <radialGradient id="radialGradient5607-4-9-0" cx="147.50781" cy="165.91266" gradientTransform="matrix(.75533254 .31111186 -.15217274 .36945235 117.73344 27.332274)" gradientUnits="userSpaceOnUse" r="101.65625" xlink:href="#linearGradient5597-2-9-5"/>
    <linearGradient id="linearGradient5621-0-9-5" gradientUnits="userSpaceOnUse" x1="174.83422236973" x2="153.564728875" xlink:href="#linearGradient5615-4-4-4" y1="210.50124395107" y2="210.50124395107"/>
    <linearGradient id="linearGradient5627-7-0-2" gradientUnits="userSpaceOnUse" x1="204.9577345" x2="145.9216665" xlink:href="#linearGradient5615-4-4-4" y1="196.1921345" y2="220.96619875"/>
    <linearGradient id="linearGradient5631-4-9-9" gradientUnits="userSpaceOnUse" x1="233.94866075" x2="141.7048045" xlink:href="#linearGradient5615-4-4-4" y1="154.55062225" y2="210.42404375"/>
    <linearGradient id="linearGradient5699-3-3-1" gradientTransform="matrix(1.0436733 0 0 1.0542155 -4.936571 -3.054595)" gradientUnits="userSpaceOnUse" x1="65" x2="190" y1="95" y2="95">
      <stop offset="0" stop-color="#c9c9c9"/>
      <stop offset=".32142857" stop-color="#939393"/>
      <stop offset=".75" stop-color="#d1d1d1"/>
      <stop offset="1" stop-color="#b2b2b2"/>
    </linearGradient>
    <radialGradient id="radialGradient5713-3-3-5" cx="69.515442" cy="48.968105" gradientTransform="matrix(1.48438 -1.4843801 .77146531 .77146531 21.824594 132.46089)" gradientUnits="userSpaceOnUse" r="101.65625">
      <stop offset="0" stop-color="#e8e8e8"/>
      <stop offset="1" stop-color="#717171" stop-opacity="0"/>
    </radialGradient>
    <linearGradient id="linearGradient6024-8-4" gradientUnits="userSpaceOnUse" x1="166.34375" x2="198.65625" xlink:href="#linearGradient6018-5-2" y1="102.26562" y2="130.26562"/>
    <linearGradient id="linearGradient6018-5-2">
      <stop offset="0" stop-color="#fff"/>
      <stop offset="1" stop-color="#fff" stop-opacity="0"/>
    </linearGradient>
    <filter id="filter5827-8-0" color-interpolation-filters="sRGB" height="1.079322" width="1.060387" x="-.030194" y="-.039661">
      <feGaussianBlur stdDeviation="2.5578125"/>
    </filter>
    <radialGradient id="radialGradient5855-3-1" cx="158.57225271" cy="69.6862741" gradientUnits="userSpaceOnUse" r="7.90661624" xlink:href="#linearGradient6018-5-2"/>
    <linearGradient id="linearGradient5893-4-3-7" gradientUnits="userSpaceOnUse" x1="148.293651375" x2="149.874974625" xlink:href="#linearGradient6018-5-2" y1="202.1220971875" y2="226.6326075625"/>
    <linearGradient id="linearGradient5903-5-2-0" gradientUnits="userSpaceOnUse" x1="114.2952015" x2="124.31024875" y1="213.850244125" y2="214.113798">
      <stop offset="0" stop-color="#cecece"/>
      <stop offset="1" stop-color="#a0a0a0"/>
    </linearGradient>
    <linearGradient id="linearGradient5984-3-4-0" gradientUnits="userSpaceOnUse" x1="59.70075740725" x2="81.44728236151" xlink:href="#linearGradient5978-8-6-5" y1="187.50195149532" y2="200.5407734375"/>
    <linearGradient id="linearGradient5978-8-6-5">
      <stop offset="0" stop-color="#f5f5f5"/>
      <stop offset="1" stop-color="#c7c7c7"/>
    </linearGradient>
    <linearGradient id="linearGradient5976-3-4-8" gradientUnits="userSpaceOnUse" x1="37.33747" x2="52.00228335714" xlink:href="#linearGradient5978-8-6-5" y1="178.9293556875" y2="178.9293556875"/>
    <linearGradient id="linearGradient14972" gradientUnits="userSpaceOnUse" x1="156.82620807812" x2="245.18264467188" xlink:href="#linearGradient6018-5-2" y1="129.52947097111" y2="174.86073747111"/>
  </defs>
  <path d="m136.21875 61.34375c-3.17107 5.598289-4.18012 14.454703-12.125 14.745984-7.95893.291797-9.99809-8.482418-13.84375-13.821318-4.64005.634316-9.16053 1.522436-13.5625 2.627997-.195393 6.120234 3.275946 14.609732-3.9375 17.252315-7.214944 2.643133-13.412496-4.854411-19.59375-8.638324-3.935623 1.958721-7.675616 4.148506-11.21875 6.496993 2.841563 5.704557 10.165834 12.501592 4.8125 17.081982-5.360236 4.586291-14.746829-.456749-22.3125-2.116998-2.669228 2.963715-5.111966 6.054169-7.25 9.295319 5.415489 4.44038 15.609913 8.5348 12.90625 14.38099-2.698074 5.8341-13.881847 3.9761-21.6875 4.69633-.991582 3.50326-1.687244 7.09586-2.0625 10.75532 7.189591 2.4692 18.563422 3.25492 18.9375 9.44132.374739 6.19735-10.893528 7.78517-17.75 10.77966.81462 3.61305 1.955186 7.13299 3.375 10.56065 7.859898.15215 18.762518-2.55087 22.15625 3.066 3.394438 5.61803-6.234268 10.44386-11.09375 15.25699 2.515483 3.06453 5.327711 5.97674 8.34375 8.73565 7.326065-2.21262 16.055144-7.91578 21.9375-3.74733 5.88994 4.17384-.586579 11.48286-2.71875 17.37398 3.806145 2.07844 7.775059 3.98052 11.9375 5.64533 5.70254-4.21685 10.960792-12.15491 18.46875-10.04965 7.49244 2.10089 5.1063 10.80932 6.03125 16.88731 4.49905.77211 9.11284 1.3138 13.8125 1.606 3.17107-5.59829 4.18012-14.45471 12.125-14.74598 7.95893-.2918 9.99809 8.48242 13.84375 13.82131 4.64005-.63431 9.16053-1.52244 13.5625-2.62799.19539-6.12024-3.27595-14.60974 3.9375-17.25232 7.21494-2.64313 13.4125 4.85442 19.59375 8.63833 3.93562-1.95872 7.67562-4.14851 11.21875-6.497-2.84156-5.70455-10.16583-12.50159-4.8125-17.08198 5.36024-4.58629 14.74683.45675 22.3125 2.117 2.66923-2.96372 5.11197-6.05417 7.25-9.29532-5.41549-4.44038-15.60992-8.5348-12.90625-14.38099 2.69807-5.83411 13.88185-3.9761 21.6875-4.69633.99158-3.50325 1.68724-7.09586 2.0625-10.75532-7.18959-2.4692-18.56343-3.25492-18.9375-9.44132-.37474-6.19735 10.89353-7.78517 17.75-10.77966-.81462-3.61304-1.95519-7.13299-3.375-10.56065-7.8599-.15215-18.76252 2.55086-22.15625-3.066-3.39444-5.61803 6.23427-10.44385 11.09375-15.256985-2.51548-3.064535-5.32771-5.97674-8.34375-8.735658-7.32606 2.212629-16.05514 7.915787-21.9375 3.74733-5.88994-4.173833.58658-11.482852 2.71875-17.373982-3.80615-2.078437-7.77506-3.980513-11.9375-5.645327-5.70254 4.216856-10.96079 12.154906-18.46875 10.049656-7.49244-2.100898-5.1063-10.80932-6.03125-16.887316-4.49905-.772111-9.11284-1.313799-13.8125-1.605998zm-8.21875 30.878967c34.224 0 62 21.628223 62 48.277283s-27.776 48.27728-62 48.27728c-34.224001 0-62-21.62822-62-48.27728-.000001-26.64906 27.776-48.277283 62-48.277283z" display="block" filter="url(#filter5998-5-1)" opacity=".537143" transform="matrix(1.0542155 0 0 1.0542155 -6.939581 -3.054595)"/>
  <path d="m136.21875 59.34375c-3.17107 5.598289-4.18012 14.454703-12.125 14.745984-7.95893.291797-9.99809-8.482418-13.84375-13.821318-4.64005.634316-9.16053 1.522436-13.5625 2.627997-.195393 6.120234 3.275946 14.609732-3.9375 17.252315-7.214944 2.643133-13.412496-4.854411-19.59375-8.638324-3.935623 1.958721-7.675616 4.148506-11.21875 6.496993 2.841563 5.704557 10.165834 12.501592 4.8125 17.081982-5.360236 4.586291-14.746829-.456749-22.3125-2.116998-2.669228 2.963715-5.111966 6.054169-7.25 9.295319 5.415489 4.44038 15.609913 8.5348 12.90625 14.38099-2.698074 5.8341-13.881847 3.9761-21.6875 4.69633-.991582 3.50326-1.687244 7.09586-2.0625 10.75532 7.189591 2.4692 18.563422 3.25492 18.9375 9.44132.374739 6.19735-10.893528 7.78517-17.75 10.77966.81462 3.61305 1.955186 7.13299 3.375 10.56065 7.859898.15215 18.762518-2.55087 22.15625 3.066 3.394438 5.61803-6.234268 10.44386-11.09375 15.25699 2.515483 3.06453 5.327711 5.97674 8.34375 8.73565 7.326065-2.21262 16.055144-7.91578 21.9375-3.74733 5.88994 4.17384-.586579 11.48286-2.71875 17.37398 3.806145 2.07844 7.775059 3.98052 11.9375 5.64533 5.70254-4.21685 10.960792-12.15491 18.46875-10.04965 7.49244 2.10089 5.1063 10.80932 6.03125 16.88731 4.49905.77211 9.11284 1.3138 13.8125 1.606 3.17107-5.59829 4.18012-14.45471 12.125-14.74598 7.95893-.2918 9.99809 8.48242 13.84375 13.82131 4.64005-.63431 9.16053-1.52244 13.5625-2.62799.19539-6.12024-3.27595-14.60974 3.9375-17.25232 7.21494-2.64313 13.4125 4.85442 19.59375 8.63833 3.93562-1.95872 7.67562-4.14851 11.21875-6.497-2.84156-5.70455-10.16583-12.50159-4.8125-17.08198 5.36024-4.58629 14.74683.45675 22.3125 2.117 2.66923-2.96372 5.11197-6.05417 7.25-9.29532-5.41549-4.44038-15.60992-8.5348-12.90625-14.38099 2.69807-5.83411 13.88185-3.9761 21.6875-4.69633.99158-3.50325 1.68724-7.09586 2.0625-10.75532-7.18959-2.4692-18.56343-3.25492-18.9375-9.44132-.37474-6.19735 10.89353-7.78517 17.75-10.77966-.81462-3.61304-1.95519-7.13299-3.375-10.56065-7.8599-.15215-18.76252 2.55086-22.15625-3.066-3.39444-5.61803 6.23427-10.44385 11.09375-15.256985-2.51548-3.064535-5.32771-5.97674-8.34375-8.735658-7.32606 2.212629-16.05514 7.915787-21.9375 3.74733-5.88994-4.173833.58658-11.482852 2.71875-17.373982-3.80615-2.078437-7.77506-3.980513-11.9375-5.645327-5.70254 4.216856-10.96079 12.154906-18.46875 10.049656-7.49244-2.100898-5.1063-10.80932-6.03125-16.887316-4.49905-.772111-9.11284-1.313799-13.8125-1.605998zm-8.21875 30.878967c34.224 0 62 21.628223 62 48.277283s-27.776 48.27728-62 48.27728c-34.224001 0-62-21.62822-62-48.27728-.000001-26.64906 27.776-48.277283 62-48.277283z" display="block" filter="url(#filter5777-8-6)" opacity=".84" transform="matrix(1.0542155 0 0 1.0542155 -6.939581 -3.054595)"/>
  <path d="m136.66434 59.506506c-3.34299 5.901803-4.40675 15.238372-12.78237 15.545445-8.39042.307617-10.54014-8.942297-14.59429-14.570648-4.89161.668706-9.657175 1.604976-14.2978 2.770475-.205986 6.452046 3.453553 15.401806-4.150973 18.187658-7.606106 2.786432-14.139661-5.117595-20.656035-9.106655-4.148995 2.064914-8.091753 4.37342-11.82698 6.849231 2.995619 6.013832 10.71698 13.179372 5.073412 18.00809-5.650844 4.834938-15.546336-.481512-23.522184-2.231772-2.813941 3.124394-5.389113 6.3824-7.643062 9.79927 5.709093 4.68112 16.456212 8.99752 13.605969 15.16066-2.844352 6.1504-14.634458 4.19167-22.863299 4.95095-1.045341 3.69319-1.778719 7.48056-2.174319 11.33842 7.579378 2.60307 19.569847 3.43139 19.964206 9.95319.395055 6.53334-11.484126 8.20724-18.712325 11.36408.858785 3.80893 2.061187 7.51971 3.557977 11.1332 8.286026.1604 19.779737-2.68916 23.357462 3.23223 3.578469 5.92261-6.572262 11.01008-11.695203 16.08415 2.651861 3.23068 5.616555 6.30077 8.796111 9.20926 7.723251-2.33258 16.925581-8.34494 23.126852-3.95049 6.209266 4.40012-.618381 12.10541-2.866148 18.31592 4.012497 2.19112 8.196587 4.19632 12.584697 5.95139 6.011706-4.44547 11.555037-12.81389 19.470043-10.5945 7.898649 2.21479 5.383139 11.39536 6.358239 17.80287 4.74297.81397 9.6069 1.38503 14.56135 1.69307 3.34299-5.90181 4.40675-15.23838 12.78236-15.54544 8.39043-.30762 10.54014 8.9423 14.5943 14.57064 4.89161-.6687 9.65717-1.60498 14.2978-2.77047.20598-6.45205-3.45356-15.40182 4.15097-18.18766 7.6061-2.78643 14.13966 5.1176 20.65603 9.10666 4.149-2.06492 8.09176-4.37343 11.82698-6.84924-2.99561-6.01383-10.71697-13.17937-5.07341-18.00809 5.65085-4.83494 15.54634.48151 23.52219 2.23177 2.81394-3.1244 5.38911-6.3824 7.64306-9.79927-5.7091-4.68111-16.45622-8.99751-13.60597-15.16066 2.84435-6.15041 14.63446-4.19166 22.8633-4.95094 1.04534-3.69318 1.77871-7.48057 2.17432-11.33843-7.57938-2.60307-19.56986-3.43138-19.96421-9.95318-.39506-6.53335 11.48413-8.20725 18.71233-11.36409-.85879-3.80892-2.06119-7.51971-3.55798-11.1332-8.28603-.1604-19.77974 2.68916-23.35746-3.23222-3.57847-5.92262 6.57226-11.01007 11.6952-16.084154-2.65186-3.23068-5.61655-6.300772-8.79611-9.209266-7.72325 2.332588-16.92558 8.344946-23.12685 3.950494-6.20927-4.40012.61838-12.105401 2.86615-18.315922-4.01251-2.19112-8.19659-4.196318-12.5847-5.951391-6.01171 4.445475-11.55504 12.813891-19.47004 10.594503-7.89865-2.214799-5.38314-11.395352-6.35824-17.80287-4.74297-.813971-9.6069-1.385027-14.56135-1.693068zm-8.66434 32.553086c36.07947 0 65.36136 22.800808 65.36136 50.894658s-29.28189 50.89466-65.36136 50.89466c-36.079469 0-65.361358-22.80081-65.361358-50.89466-.000001-28.09385 29.28189-50.894658 65.361358-50.894658z" display="block" fill="#717171"/>
  <path d="m46.034748 169.04609.263554 28.20026 11.332817-4.48042s9.224385-2.63553 13.704801.52711c2.991252 2.11147 3.953308-31.89002 3.953308-31.89002l-18.975879.26356z" fill="url(#linearGradient5988-1-8-6)" fill-rule="evenodd"/>
  <path d="m25.114466 140.472.745442 28.32683 25.904142-1.49089 3.727215-28.51319z" fill="url(#linearGradient5974-3-8-1)" fill-rule="evenodd"/>
  <path d="m104.63591 224.4661 1.55872-27.82233 1.29128-21.13596-17.145189-3.35449-11.927086 18.26335.372721 27.20867c2.767316-1.58133 11.980531-12.53261 20.872402-10.15004 5.644352 1.5124 4.977152 16.9908 4.977152 16.9908z" fill="url(#linearGradient5733-5-9-8)" fill-rule="evenodd"/>
  <path d="m233.68511 101.04919-.52711 25.03761-29.78159-2.63554 2.10843-12.65058z" fill="url(#linearGradient5723-0-1-1)" fill-rule="evenodd"/>
  <path d="m232.89445 133.46631v27.40961l-27.14605 1.84487-2.63554-27.93671z" fill="url(#linearGradient11113-6-5)" fill-rule="evenodd"/>
  <path d="m216.027 191.18461s-16.86745-6.32529-21.61142-4.21686-4.21686-24.51051-4.21686-24.51051c9.72943-6.54432 17.35514-.46633 25.82828.52711z" fill="url(#linearGradient5635-2-7-0)" fill-rule="evenodd"/>
  <path d="m217.08121 98.150093 1.05422-27.673157-28.99093 1.844877.26356-25.037618-12.12348-6.061739-13.1777 21.611418-9.48794-6.061739-3.16264-22.40208-14.49547-1.844877-4.48041 21.347864-28.20027 2.635539-8.960827-20.557203v23.719849s-11.859925 1.054216-12.91414.790662c-1.054216-.263554-23.192741-8.697278-23.192741-8.697278l.790661 24.246956-21.611417-2.635538-5.798186 3.953308 2.371985 21.874971 10.805709 4.216862-24.774064 5.27108-.263554 27.67315 31.36443-6.63494 5.006005-37.642106 18.975879-13.704802 30.57225-17.658109 56.92764 5.798185 38.47886 32.153573z" fill="url(#linearGradient11113-6-5)" fill-rule="evenodd"/>
  <path d="m146.35811 225.23415.26356-28.48122-9.69076-18.63607-13.41797 1.11817-4.09994 20.12696-.21834 27.73577s5.37249-16.44496 13.26359-16.18141c8.94033.2986 11.4187 11.68226 13.89986 14.3178z" fill="url(#linearGradient5729-2-2-8)" fill-rule="evenodd"/>
  <path d="m136.66434 32.096903c-3.34299 5.901803-4.40675 15.238372-12.78237 15.545445-8.39042.307617-10.54014-8.942297-14.59429-14.570648-4.89161.668706-9.657175 1.604976-14.2978 2.770475-.205986 6.452046 3.453553 15.401806-4.150973 18.187658-7.606106 2.786432-14.139661-5.117595-20.656035-9.106655-4.148995 2.064914-8.091753 4.37342-11.82698 6.849231 2.995619 6.013832 10.71698 13.179372 5.073412 18.00809-5.650844 4.834944-15.546336-.481512-23.522184-2.231772-2.813941 3.124394-5.389113 6.382403-7.643062 9.799269 5.709093 4.681118 16.456212 8.997519 13.605969 15.160663-2.844352 6.150399-14.634458 4.191666-22.863299 4.950944-1.045341 3.693187-1.778719 7.480567-2.174319 11.338427 7.579378 2.60307 19.569847 3.43139 19.964206 9.95318.395055 6.53335-11.484126 8.20725-18.712325 11.36409.858785 3.80893 2.061187 7.51971 3.557977 11.1332 8.286026.1604 19.779737-2.68917 23.357462 3.23222 3.578469 5.92262-6.572262 11.01008-11.695203 16.08416 2.651861 3.23067 5.616555 6.30077 8.796111 9.20926 7.723251-2.33258 16.925581-8.34494 23.126852-3.9505 6.209266 4.40013-.618381 12.10541-2.866148 18.31592 4.012497 2.19113 8.196587 4.19633 12.584697 5.9514 6.011706-4.44547 11.555037-12.8139 19.470043-10.5945 7.898649 2.21479 5.383139 11.39535 6.358239 17.80286 4.74297.81397 9.6069 1.38503 14.56135 1.69307 3.34299-5.9018 4.40675-15.23837 12.78236-15.54544 8.39043-.30762 10.54014 8.9423 14.5943 14.57064 4.89161-.6687 9.65717-1.60498 14.2978-2.77046.20598-6.45206-3.45356-15.40182 4.15097-18.18767 7.6061-2.78643 14.13966 5.11761 20.65603 9.10666 4.149-2.06491 8.09176-4.37342 11.82698-6.84923-2.99561-6.01383-10.71697-13.17937-5.07341-18.00809 5.65085-4.83494 15.54634.48151 23.52219 2.23177 2.81394-3.1244 5.38911-6.3824 7.64306-9.79927-5.7091-4.68112-16.45622-8.99752-13.60597-15.16066 2.84435-6.15041 14.63446-4.19167 22.8633-4.95095 1.04534-3.69318 1.77871-7.48056 2.17432-11.33842-7.57938-2.60307-19.56986-3.43139-19.96421-9.95319-.39506-6.53334 11.48413-8.20724 18.71233-11.36408-.85879-3.808924-2.06119-7.51971-3.55798-11.133202-8.28603-.160399-19.77974 2.689156-23.35746-3.232225-3.57847-5.922614 6.57226-11.010068 11.6952-16.08415-2.65186-3.23068-5.61655-6.300772-8.79611-9.209266-7.72325 2.332588-16.92558 8.344946-23.12685 3.950494-6.20927-4.40012.61838-12.105401 2.86615-18.315922-4.01251-2.19112-8.19659-4.196318-12.5847-5.951391-6.01171 4.445475-11.55504 12.813891-19.47004 10.594503-7.89865-2.214799-5.38314-11.395352-6.35824-17.80287-4.74297-.813971-9.6069-1.385027-14.56135-1.693068zm-8.66434 32.553086c36.07947 0 65.36136 22.800808 65.36136 50.894661 0 28.09385-29.28189 50.89466-65.36136 50.89466-36.079469 0-65.361358-22.80081-65.361358-50.89466-.000001-28.093853 29.28189-50.894661 65.361358-50.894661z" display="block" fill="url(#linearGradient5585-5-1-8)"/>
  <path d="m185.45475 214.1138v-28.99093s-14.23191-12.12348-20.0301-9.22438c-5.79818 2.89909-6.8524 11.06926-6.8524 11.06926l2.10843 35.84333s-2.89909-16.86745 5.27108-18.44878c8.17017-1.58132 19.50299 9.7515 19.50299 9.7515z" fill="url(#linearGradient5639-5-0-6)" fill-rule="evenodd"/>
  <path d="m136.66434 32.096903c-3.34299 5.901803-4.40675 15.238372-12.78237 15.545445-8.39042.307617-10.54014-8.942297-14.59429-14.570648-4.89161.668706-9.657175 1.604976-14.2978 2.770475-.205983 6.452046 3.453558 15.401806-4.150973 18.187658-7.606102 2.786432-14.139666-5.117595-20.656035-9.106655-4.148992 2.064914-8.091758 4.37342-11.82698 6.849231 2.995616 6.013832 10.716975 13.179372 5.073412 18.00809-5.650848 4.834944-15.546337-.481512-23.522184-2.231772-2.813943 3.124394-5.389118 6.382403-7.643062 9.799269 5.709094 4.681118 16.456209 8.997519 13.605969 15.160663-2.844347 6.150399-14.634462 4.191666-22.863299 4.950944-1.045339 3.693187-1.778714 7.480567-2.174319 11.338427 7.579377 2.60307 19.569845 3.43139 19.964206 9.95318.395057 6.53335-11.484128 8.20725-18.712325 11.36409.858785 3.80893 2.061191 7.51971 3.557977 11.1332 8.286028.1604 19.779739-2.68917 23.357462 3.23222 3.578471 5.92262-6.572264 11.01008-11.695203 16.08416 2.651858 3.23067 5.616554 6.30077 8.796111 9.20926 7.723246-2.33258 16.925577-8.34494 23.126852-3.9505 6.209266 4.40013-.618382 12.10541-2.866148 18.31592 4.012491 2.19113 8.196588 4.19633 12.584697 5.9514 6.011706-4.44547 11.555035-12.8139 19.470043-10.5945 7.898649 2.21479 5.383139 11.39535 6.358239 17.80286 4.74297.81397 9.6069 1.38503 14.56135 1.69307 3.34299-5.9018 4.40675-15.23837 12.78236-15.54544 8.39043-.30762 10.54014 8.9423 14.5943 14.57064 4.89161-.6687 9.65717-1.60498 14.2978-2.77046.20598-6.45206-3.45356-15.40182 4.15097-18.18767 7.6061-2.78643 14.13966 5.11761 20.65603 9.10666 4.149-2.06491 8.09176-4.37342 11.82698-6.84923-2.99561-6.01383-10.71697-13.17937-5.07341-18.00809 5.65085-4.83494 15.54634.48151 23.52219 2.23177 2.81394-3.1244 5.38911-6.3824 7.64306-9.79927-5.7091-4.68112-16.45622-8.99752-13.60597-15.16066 2.84435-6.15041 14.63446-4.19167 22.8633-4.95095 1.04534-3.69318 1.77871-7.48056 2.17432-11.33842-7.57938-2.60307-19.56986-3.43139-19.96421-9.95319-.39506-6.53334 11.48413-8.20724 18.71233-11.36408-.85879-3.808924-2.06119-7.51971-3.55798-11.133202-8.28603-.160399-19.77974 2.689156-23.35746-3.232225-3.57847-5.922614 6.57226-11.010068 11.6952-16.08415-2.65186-3.23068-5.61655-6.300772-8.79611-9.209266-7.72325 2.332588-16.92558 8.344946-23.12685 3.950494-6.20927-4.40012.61838-12.105401 2.86615-18.315922-4.01251-2.19112-8.19659-4.196318-12.5847-5.951391-6.01171 4.445475-11.55504 12.813891-19.47004 10.594503-7.89865-2.214799-5.38314-11.395352-6.35824-17.80287-4.74297-.813971-9.6069-1.385027-14.56135-1.693068zm-8.66434 32.553086c36.07947 0 65.36136 22.800808 65.36136 50.894661 0 28.09385-29.28189 50.89466-65.36136 50.89466-36.079468 0-65.361358-22.80081-65.361358-50.89466 0-28.093853 29.28189-50.894661 65.361358-50.894661z" display="block" fill="url(#radialGradient5603-1-1-5)"/>
  <path d="m136.66434 32.096903c-3.34299 5.901803-4.40675 15.238372-12.78237 15.545445-8.39042.307617-10.54014-8.942297-14.59429-14.570648-4.89161.668706-9.657175 1.604976-14.2978 2.770475-.205983 6.452046 3.453558 15.401806-4.150973 18.187658-7.606102 2.786432-14.139666-5.117595-20.656035-9.106655-4.148992 2.064914-8.091758 4.37342-11.82698 6.849231 2.995616 6.013832 10.716975 13.179372 5.073412 18.00809-5.650848 4.834944-15.546337-.481512-23.522184-2.231772-2.813943 3.124394-5.389118 6.382403-7.643062 9.799269 5.709094 4.681118 16.456209 8.997519 13.605969 15.160663-2.844347 6.150399-14.634462 4.191666-22.863299 4.950944-1.045339 3.693187-1.778714 7.480567-2.174319 11.338427 7.579377 2.60307 19.569845 3.43139 19.964206 9.95318.395057 6.53335-11.484128 8.20725-18.712325 11.36409.858785 3.80893 2.061191 7.51971 3.557977 11.1332 8.286028.1604 19.779739-2.68917 23.357462 3.23222 3.578471 5.92262-6.572264 11.01008-11.695203 16.08416 2.651858 3.23067 5.616554 6.30077 8.796111 9.20926 7.723246-2.33258 16.925577-8.34494 23.126852-3.9505 6.209266 4.40013-.618382 12.10541-2.866148 18.31592 4.012491 2.19113 8.196588 4.19633 12.584697 5.9514 6.011706-4.44547 11.555035-12.8139 19.470043-10.5945 7.898649 2.21479 5.383139 11.39535 6.358239 17.80286 4.74297.81397 9.6069 1.38503 14.56135 1.69307 3.34299-5.9018 4.40675-15.23837 12.78236-15.54544 8.39043-.30762 10.54014 8.9423 14.5943 14.57064 4.89161-.6687 9.65717-1.60498 14.2978-2.77046.20598-6.45206-3.45356-15.40182 4.15097-18.18767 7.6061-2.78643 14.13966 5.11761 20.65603 9.10666 4.149-2.06491 8.09176-4.37342 11.82698-6.84923-2.99561-6.01383-10.71697-13.17937-5.07341-18.00809 5.65085-4.83494 15.54634.48151 23.52219 2.23177 2.81394-3.1244 5.38911-6.3824 7.64306-9.79927-5.7091-4.68112-16.45622-8.99752-13.60597-15.16066 2.84435-6.15041 14.63446-4.19167 22.8633-4.95095 1.04534-3.69318 1.77871-7.48056 2.17432-11.33842-7.57938-2.60307-19.56986-3.43139-19.96421-9.95319-.39506-6.53334 11.48413-8.20724 18.71233-11.36408-.85879-3.808924-2.06119-7.51971-3.55798-11.133202-8.28603-.160399-19.77974 2.689156-23.35746-3.232225-3.57847-5.922614 6.57226-11.010068 11.6952-16.08415-2.65186-3.23068-5.61655-6.300772-8.79611-9.209266-7.72325 2.332588-16.92558 8.344946-23.12685 3.950494-6.20927-4.40012.61838-12.105401 2.86615-18.315922-4.01251-2.19112-8.19659-4.196318-12.5847-5.951391-6.01171 4.445475-11.55504 12.813891-19.47004 10.594503-7.89865-2.214799-5.38314-11.395352-6.35824-17.80287-4.74297-.813971-9.6069-1.385027-14.56135-1.693068zm-8.66434 32.553086c36.07947 0 65.36136 22.800808 65.36136 50.894661 0 28.09385-29.28189 50.89466-65.36136 50.89466-36.079468 0-65.361358-22.80081-65.361358-50.89466 0-28.093853 29.28189-50.894661 65.361358-50.894661z" display="block" fill="url(#radialGradient5607-4-9-0)"/>
  <path d="m146.44877 198.03701-.26355 27.93671 14.75902-3.16264-.13566-27.78233z" fill="url(#linearGradient5621-0-9-5)" fill-rule="evenodd"/>
  <path d="m185.45475 185.12287.26355 29.25448 12.38703-8.17017-1.05421-26.35539z" fill="url(#linearGradient5627-7-0-2)" fill-rule="evenodd"/>
  <path d="m216.027 163.51145v28.46382l7.64306-11.06926.26355-26.35539z" fill="url(#linearGradient5631-4-9-9)" fill-rule="evenodd"/>
  <path d="m128.13178 64.415197c-36.006731 0-65.493136 22.615031-65.493138 51.129453 0 4.74532 1.096584 9.86606 2.611819 14.23191 7.589749-21.86834 32.866763-37.95176 62.881319-37.95176 30.01455 0 55.29157 16.08342 62.88132 37.95176 1.51523-4.36585 2.34826-9.48659 2.34826-14.23191 0-28.514422-29.22285-51.129453-65.22958-51.129453z" fill="url(#linearGradient5699-3-3-1)" fill-rule="evenodd"/>
  <path d="m136.66434 32.096903c-3.34299 5.901803-4.40675 15.238372-12.78237 15.545445-8.39042.307617-10.54014-8.942297-14.59429-14.570648-4.89161.668706-9.657175 1.604976-14.2978 2.770475-.205983 6.452046 3.453558 15.401806-4.150973 18.187658-7.606102 2.786432-14.139666-5.117595-20.656035-9.106655-4.148992 2.064914-8.091758 4.37342-11.82698 6.849231 2.995616 6.013832 10.716975 13.179372 5.073412 18.00809-5.650848 4.834944-15.546337-.481512-23.522184-2.231772-2.813943 3.124394-5.389118 6.382403-7.643062 9.799269 5.709094 4.681118 16.456209 8.997519 13.605969 15.160663-2.844347 6.150399-14.634462 4.191666-22.863299 4.950944-1.045339 3.693187-1.778714 7.480567-2.174319 11.338427 7.579377 2.60307 19.569845 3.43139 19.964206 9.95318.395057 6.53335-11.484128 8.20725-18.712325 11.36409.858785 3.80893 2.061191 7.51971 3.557977 11.1332 8.286028.1604 19.779739-2.68917 23.357462 3.23222 3.578471 5.92262-6.572264 11.01008-11.695203 16.08416 2.651858 3.23067 5.616554 6.30077 8.796111 9.20926 7.723246-2.33258 16.925577-8.34494 23.126852-3.9505 6.209266 4.40013-.618382 12.10541-2.866148 18.31592 4.012491 2.19113 8.196588 4.19633 12.584697 5.9514 6.011706-4.44547 11.555035-12.8139 19.470043-10.5945 7.898649 2.21479 5.383139 11.39535 6.358239 17.80286 4.74297.81397 9.6069 1.38503 14.56135 1.69307 3.34299-5.9018 4.40675-15.23837 12.78236-15.54544 8.39043-.30762 10.54014 8.9423 14.5943 14.57064 4.89161-.6687 9.65717-1.60498 14.2978-2.77046.20598-6.45206-3.45356-15.40182 4.15097-18.18767 7.6061-2.78643 14.13966 5.11761 20.65603 9.10666 4.149-2.06491 8.09176-4.37342 11.82698-6.84923-2.99561-6.01383-10.71697-13.17937-5.07341-18.00809 5.65085-4.83494 15.54634.48151 23.52219 2.23177 2.81394-3.1244 5.38911-6.3824 7.64306-9.79927-5.7091-4.68112-16.45622-8.99752-13.60597-15.16066 2.84435-6.15041 14.63446-4.19167 22.8633-4.95095 1.04534-3.69318 1.77871-7.48056 2.17432-11.33842-7.57938-2.60307-19.56986-3.43139-19.96421-9.95319-.39506-6.53334 11.48413-8.20724 18.71233-11.36408-.85879-3.808924-2.06119-7.51971-3.55798-11.133202-8.28603-.160399-19.77974 2.689156-23.35746-3.232225-3.57847-5.922614 6.57226-11.010068 11.6952-16.08415-2.65186-3.23068-5.61655-6.300772-8.79611-9.209266-7.72325 2.332588-16.92558 8.344946-23.12685 3.950494-6.20927-4.40012.61838-12.105401 2.86615-18.315922-4.01251-2.19112-8.19659-4.196318-12.5847-5.951391-6.01171 4.445475-11.55504 12.813891-19.47004 10.594503-7.89865-2.214799-5.38314-11.395352-6.35824-17.80287-4.74297-.813971-9.6069-1.385027-14.56135-1.693068zm-8.66434 32.553086c36.07947 0 65.36136 22.800808 65.36136 50.894661 0 28.09385-29.28189 50.89466-65.36136 50.89466-36.079468 0-65.361358-22.80081-65.361358-50.89466 0-28.093853 29.28189-50.894661 65.361358-50.894661z" display="block" fill="url(#radialGradient5713-3-3-5)"/>
  <path d="m235.26643 122.6606v27.14605l-2.37198 11.33282v-27.4096z" fill="#6f6f6f" fill-rule="evenodd"/>
  <path d="m96.8125 36.875c-.04159.0104-.08343.02081-.125.03125-.07815 2.447951.417022 5.257216.59375 7.9375.215949-2.488706-.230939-5.306676-.46875-7.96875zm88.59375 10c-1.96258 4.049426-4.80144 8.443565-3.875 11.90625.73453-3.619709 3.63468-7.744096 4.9375-11.34375-.35119-.191775-.70852-.373776-1.0625-.5625zm-122.21875 4.3125c-.419321.269929-.836051.538123-1.25.8125 1.848763 3.711469 5.582215 7.899989 6.5 11.625 1.138949-3.703203-2.6327-8.238912-5.25-12.4375zm64.8125 10.03125c-34.224 0-62.000001 21.63219-62 48.28125 0 .50607.04261.99767.0625 1.5 1.027353-25.950049 28.363414-46.78125 61.9375-46.78125 33.57409 0 60.91015 20.831201 61.9375 46.78125.0199-.50233.0625-.99393.0625-1.5 0-26.64906-27.776-48.28125-62-48.28125zm84.59375 6.875c-4.77471 4.127097-11.85316 8.324393-10.09375 13.0625 1.37158-4.025927 7.82936-7.70841 11.53125-11.375-.46949-.571969-.94794-1.12615-1.4375-1.6875zm-174.03125 6.21875c-.464447.653569-.935612 1.302661-1.375 1.96875 4.293444 3.52037 11.57024 6.806702 13.0625 10.9375 1.877104-5.167161-6.251739-8.962464-11.6875-12.90625zm189.25 21.625c-6.89372 2.826065-17.45711 4.52213-17.09375 10.53125.0264.43697.11917.83317.25 1.21875 1.67206-4.75709 11.35383-6.31573 17.5-9-.20804-.922695-.40648-1.839434-.65625-2.75zm-201.09375 7.28125c-.143587.95792-.275769 1.90731-.375 2.875 6.681765 2.29479 16.966102 3.14552 18.6875 8.21875.193237-.54977.288821-1.13923.25-1.78125-.367804-6.08264-11.35969-6.93828-18.5625-9.3125zm202.5625 15.5625c-.39941 2.66461-.95813 5.29813-1.6875 7.875-7.80565.72023-18.98943-1.14661-21.6875 4.6875-.56018 1.21128-.54624 2.35796-.15625 3.4375.0503-.13857.0912-.29693.15625-.4375 2.69807-5.83411 13.88185-3.96727 21.6875-4.6875.99158-3.50325 1.68724-7.09054 2.0625-10.75-.12058-.0414-.25214-.0845-.375-.125zm-201.09375 7.28125c-.215942.0885-.447998.15905-.65625.25.81462 3.61305 1.955186 7.13484 3.375 10.5625 7.859898.15215 18.762518-2.55437 22.15625 3.0625.181083.2997.327841.61094.4375.90625.428893-1.25891.371095-2.56797-.4375-3.90625-3.393732-5.61687-14.296352-2.91035-22.15625-3.0625-1.057223-2.55231-1.990471-5.15752-2.71875-7.8125zm189.25 21.625c-1.79552 2.52665-3.75432 4.98911-5.875 7.34375-7.56567-1.66025-16.95226-6.71128-22.3125-2.125-1.87037 1.60032-2.18036 3.46839-1.6875 5.46875.26764-.87023.7962-1.70614 1.6875-2.46875 5.36024-4.58628 14.74683.46475 22.3125 2.125 2.66923-2.96372 5.11197-6.07135 7.25-9.3125-.42983-.35243-.8938-.68213-1.375-1.03125zm-174.03125 6.21875c-.506183.43753-.996559.87576-1.4375 1.3125 2.515483 3.06453 5.327711 5.95984 8.34375 8.71875 7.326065-2.21262 16.055144-7.91845 21.9375-3.75 1.242409.88042 1.919982 1.91457 2.21875 3.03125.467591-2.30424.07226-4.40775-2.21875-6.03125-5.882356-4.16845-14.611435 1.53738-21.9375 3.75-2.453121-2.24398-4.772798-4.58496-6.90625-7.03125zm122.5 13.40625c-.87203.0405-1.75438.20086-2.65625.53125-4.32824 1.58561-4.79637 5.29168-4.53125 9.3125.24065-2.77333 1.31621-5.1347 4.53125-6.3125 7.21494-2.64313 13.4125 4.87234 19.59375 8.65625 3.93562-1.95871 7.67562-4.15151 11.21875-6.5-.3552-.71307-.78824-1.44675-1.25-2.1875-3.16979 2.04049-6.49293 3.95763-9.96875 5.6875-5.40859-3.31092-10.83329-9.47138-16.9375-9.1875zm-68.6875 2.5c-6.114172.16669-10.760278 6.71651-15.75 10.40625-3.778378-1.5112-7.39254-3.2371-10.875-5.09375-.404984.83561-.774714 1.64236-1.0625 2.4375 3.806145 2.07844 7.775059 3.99144 11.9375 5.65625 5.70254-4.21685 10.960792-12.16776 18.46875-10.0625 7.49244 2.1009 5.1063 10.82826 6.03125 16.90625 4.49905.77211 9.11284 1.30155 13.8125 1.59375 3.17107-5.59829 4.18012-14.45873 12.125-14.75 7.95893-.29179 9.99809 8.47361 13.84375 13.8125 4.64005-.63431 9.16053-1.51945 13.5625-2.625.0302-.9446-.0332-1.94149-.125-2.96875-4.36261 1.09104-8.84127 1.96543-13.4375 2.59375-3.84566-5.33889-5.88482-14.10429-13.84375-13.8125-7.94488.29127-8.95393 9.15171-12.125 14.75-4.69966-.2922-9.31345-.82164-13.8125-1.59375-.92495-6.07799 1.46119-14.80535-6.03125-16.90625-.938495-.26316-1.845297-.36756-2.71875-.34375z" display="block" fill="url(#linearGradient6024-8-4)" filter="url(#filter5827-8-0)" transform="matrix(1.0542155 0 0 1.0542155 -6.939581 -3.054595)"/>
  <circle cx="158.57225" cy="69.686272" fill="url(#radialGradient5855-3-1)" fill-rule="evenodd" opacity=".657143" r="7.906616"/>
  <circle cx="158.57225" cy="69.686272" fill="#fff" fill-rule="evenodd" opacity=".657143" r="2.964981"/>
  <path d="m145.78989 196.19213.79066.92244.79066-.39533-.46932 27.54382-.71667.65645z" fill="url(#linearGradient5893-4-3-7)" fill-rule="evenodd" opacity=".365714"/>
  <path d="m104.67549 197.37813c4.78576.66314 9.63782 1.45725 14.75901 1.44954l-.13177 27.67316c-4.62897-.4121-9.64752-.95024-14.62724-1.7131z" fill="url(#linearGradient5903-5-2-0)" fill-rule="evenodd"/>
  <path d="m78.715429 189.60329v27.67315l-12.91414-6.06173.790661-27.40961z" fill="url(#linearGradient5984-3-4-0)" fill-rule="evenodd"/>
  <path d="m46.034748 169.57319.263554 27.40961c-2.899093-1.57359-6.061739-4.58683-8.960832-8.96084v-27.4096c2.899093 3.58491 5.798185 6.77524 8.697278 8.96083z" fill="url(#linearGradient5976-3-4-8)" fill-rule="evenodd"/>
  <path d="m25.7411 168.78253-.395331-28.33204c-1.054216-2.53147-2.240208-6.08504-3.294424-10.01505v27.27783c.715636 4.8812 2.279093 8.27314 3.689755 11.06926z" fill="#fff" fill-rule="evenodd"/>
  <path d="m95.121657 35.819602c-.04385.01096-.08795.02194-.131777.03294-.08239 2.580668.439631 5.542238.625941 8.367835.227657-2.623632-.24346-5.59438-.494164-8.400779zm93.396903 10.542155c-2.06898 4.268967-5.06175 8.901337-4.08508 12.551753.77435-3.815953 3.83173-8.163946 5.20519-11.958757-.37023-.202172-.74694-.394041-1.12011-.592996zm-128.844899 4.546304c-.442055.284563-.881378.567298-1.317769.85655 1.948994 3.912688 5.884857 8.328291 6.8524 12.255255 1.200698-3.903974-2.775433-8.685589-5.534631-13.111805zm68.326339 10.575099c-36.079468 0-65.361359 22.80499-65.361358 50.89884 0 .53351.04492 1.05176.06589 1.58133 1.08305-27.356948 29.901149-49.317523 65.295468-49.317523 35.39433 0 64.21243 21.960575 65.29548 49.317523.021-.52957.0659-1.04782.0659-1.58133 0-28.09385-29.28189-50.89884-65.36136-50.89884zm89.18005 7.247732c-5.03358 4.350849-12.49579 8.775704-10.64099 13.77069 1.44594-4.244195 8.25383-8.126326 12.15642-11.991702-.49494-.602978-.99933-1.187204-1.51543-1.778988zm-183.466446 6.555902c-.489627.689003-.986336 1.373286-1.449546 2.075487 4.526215 3.711229 12.197526 7.175731 13.77069 11.530482 1.978872-5.447301-6.59068-9.448368-12.321144-13.605969zm199.510286 22.797411c-7.26747 2.979285-18.40356 4.767295-18.0205 11.102205.0278.46066.12563.87834.26356 1.28483 1.76271-5.015 11.96938-6.65814 18.44877-9.48794-.21932-.97272-.42852-1.939163-.69183-2.899095zm-211.99615 7.676005c-.151372 1.00986-.29072 2.01072-.395331 3.03087 7.04402 2.4192 17.885927 3.31606 19.700652 8.66433.203713-.57957.30448-1.20099.263554-1.87782-.387745-6.41241-11.975561-7.31444-19.568875-9.81738zm213.54453 16.40623c-.42107 2.80907-1.01008 5.58537-1.77899 8.30195-8.22884.75927-20.01895-1.20878-22.8633 4.94163-.59055 1.27695-.57586 2.4858-.16472 3.62387.053-.14608.0961-.31303.16472-.46122 2.84435-6.15041 14.63446-4.18236 22.8633-4.94164 1.04534-3.69318 1.77871-7.47495 2.17432-11.33281-.12712-.0436-.26581-.0891-.39533-.13178zm-211.996151 7.67601c-.22765.0933-.472287.16767-.691829.26355.858785 3.80893 2.061187 7.52166 3.557977 11.13515 8.286026.1604 19.779737-2.69285 23.357462 3.22854.190901.31594.345615.64406.461219.95538.452146-1.32716.391215-2.70719-.461219-4.11803-3.577725-5.92139-15.071436-3.06814-23.357462-3.22853-1.114541-2.69069-2.098385-5.43714-2.866148-8.23606zm199.510281 22.79741c-1.89286 2.66363-3.95786 5.25959-6.19351 7.74189-7.97585-1.75026-17.87134-7.07513-23.52219-2.24021-1.97177 1.68709-2.29857 3.65643-1.77899 5.76524.28215-.91741.83937-1.79863 1.77899-2.60259 5.65085-4.83493 15.54634.48995 23.52219 2.24021 2.81394-3.1244 5.38911-6.40051 7.64306-9.81738-.45314-.37154-.94226-.71912-1.44955-1.08716zm-183.466439 6.5559c-.533626.46125-1.050588.92324-1.515435 1.38366 2.651861 3.23067 5.616555 6.28295 8.796111 9.19144 7.723251-2.33258 16.925581-8.34775 23.126852-3.95331 1.309767.92815 2.024075 2.01837 2.339041 3.19559.492941-2.42916.07618-4.64672-2.339041-6.35824-6.201271-4.39444-15.403601 1.62073-23.126852 3.95331-2.586119-2.36564-5.031558-4.83353-7.280676-7.41245zm129.141399 14.13308c-.91931.0427-1.8495.21175-2.80026.56005-4.5629 1.67157-5.05641 5.57857-4.77691 9.81738.25369-2.92369 1.38756-5.41308 4.77691-6.65474 7.6061-2.78642 14.13966 5.1365 20.65603 9.12556 4.149-2.06491 8.09176-4.37659 11.82698-6.8524-.37445-.75173-.83097-1.52519-1.31776-2.3061-3.34165 2.15112-6.84495 4.17219-10.50922 5.99585-5.70181-3.49042-11.42062-9.98487-17.85577-9.6856zm-72.411428 2.63553c-6.445655.17573-11.343652 7.08065-16.603894 10.97043-3.983224-1.59313-7.79333-3.4126-11.464593-5.36991-.426941.88092-.816716 1.73141-1.120104 2.56965 4.012497 2.19113 8.196587 4.20784 12.584697 5.96291 6.011706-4.44547 11.555037-12.82744 19.470043-10.60804 7.898649 2.2148 5.383139 11.41532 6.358239 17.82283 4.74297.81397 9.6069 1.37211 14.56135 1.68015 3.34299-5.9018 4.40675-15.24261 12.78236-15.54967 8.39043-.30761 10.54014 8.93301 14.5943 14.56135 4.89161-.6687 9.65717-1.60183 14.2978-2.76732.0318-.99581-.035-2.04675-.13178-3.1297-4.59913 1.15019-9.3206 2.07199-14.16602 2.73437-4.05416-5.62834-6.20387-14.86896-14.5943-14.56135-8.37561.30706-9.43937 9.64787-12.78236 15.54968-4.95445-.30804-9.81838-.86619-14.56135-1.68016-.9751-6.40751 1.54041-15.60803-6.358239-17.82283-.989376-.27743-1.945341-.38749-2.866149-.36239z" display="block" fill="url(#linearGradient14972)" opacity=".845714"/>
</svg>
