<svg height="256" width="256" xmlns="http://www.w3.org/2000/svg" xmlns:xlink="http://www.w3.org/1999/xlink">
  <defs>
    <linearGradient id="linearGradient5218">
      <stop offset="0" stop-color="#fff"/>
      <stop offset="1" stop-color="#fff" stop-opacity="0"/>
    </linearGradient>
    <filter id="filter5756" height="1.467486" width="1.082784" x="-.041392" y="-.233743">
      <feGaussianBlur stdDeviation=".20695971"/>
    </filter>
    <filter id="filter5305" height="1.096703" width="1.055259" x="-.02763" y="-.048352">
      <feGaussianBlur stdDeviation=".24175824"/>
    </filter>
    <filter id="filter5227" height="1.15715" width="1.038261" x="-.01913" y="-.078575">
      <feGaussianBlur stdDeviation=".48597756"/>
    </filter>
    <clipPath id="clipPath5191">
      <rect height="15" rx="1.238895" ry="1.400925" width="61" x="-61" y="12.5"/>
    </clipPath>
    <linearGradient id="linearGradient6039">
      <stop offset="0" stop-color="#d4d4d4"/>
      <stop offset="1" stop-color="#ebebeb"/>
    </linearGradient>
    <linearGradient id="linearGradient5727">
      <stop offset="0" stop-color="#1f1f1f"/>
      <stop offset=".81531531" stop-color="#3d3d3d"/>
      <stop offset="1" stop-color="#6b6b6b"/>
    </linearGradient>
    <filter id="filter4499" height="1.179937" width="1.259733" x="-.129867" y="-.089968">
      <feGaussianBlur stdDeviation="1.1363322"/>
    </filter>
    <clipPath id="clipPath4875">
      <rect height="68" rx="2.845482" width="52" x="246.93251" y="52"/>
    </clipPath>
    <linearGradient gradientUnits="userSpaceOnUse" x1="278.036894" x2="278.036894" xlink:href="#linearGradient6039" y1="120.07389" y2="54.822113"/>
    <filter id="filter4913" height="1.043281" width="1.056598" x="-.028299" y="-.021641">
      <feGaussianBlur stdDeviation=".58252427"/>
    </filter>
    <filter id="filter6142" height="1.028999" width="1.037423" x="-.018712" y="-.0145">
      <feGaussianBlur stdDeviation=".30028629"/>
    </filter>
    <linearGradient id="linearGradient3678" gradientTransform="matrix(3.26923 0 0 3.3823528 -558.53827 -164.39549)" gradientUnits="userSpaceOnUse" x1="215.10439" x2="215.10439" xlink:href="#linearGradient6039" y1="120.07389" y2="41.959984"/>
    <radialGradient id="radialGradient3680" cx="116.26598" cy="83.206123" gradientTransform="matrix(6.254687 0 0 6.7596866 -596.11017 -417.80258)" gradientUnits="userSpaceOnUse" r="26" xlink:href="#linearGradient5218"/>
    <linearGradient id="linearGradient3682" gradientTransform="matrix(1.3794672 0 0 .33614122 45.660911 21.792567)" gradientUnits="userSpaceOnUse" x1="59.698204" x2="59.698204" y1="16.749821" y2="137.3455">
      <stop offset="0" stop-color="#4e7bc0"/>
      <stop offset=".5" stop-color="#92b2e2"/>
      <stop offset="1" stop-color="#c9d9f0"/>
    </linearGradient>
    <radialGradient id="radialGradient3684" cx="65.21875" cy="-7.328125" gradientTransform="matrix(9.6422984 0 0 .72003406 -500.85867 40.778045)" gradientUnits="userSpaceOnUse" r="28.78125" xlink:href="#linearGradient5218"/>
    <linearGradient id="linearGradient3758" gradientUnits="userSpaceOnUse" x1="-227.57732" x2="-227.57732" y1="38.335606" y2="19.411484">
      <stop offset="0"/>
      <stop offset="1" stop-opacity="0"/>
    </linearGradient>
    <linearGradient id="linearGradient3760" gradientTransform="matrix(1.2843411 0 0 1.5112841 476.69852 168.47199)" gradientUnits="userSpaceOnUse" x1="-223.68062" x2="-223.68062" xlink:href="#linearGradient5727" y1="39.504864" y2="9.184459"/>
    <linearGradient id="linearGradient3764" gradientUnits="userSpaceOnUse" x1="298.9325" x2="298.9325" y1="121.26746" y2="63.986359">
      <stop offset="0" stop-color="#1b1b1b"/>
      <stop offset="1" stop-color="#1b1b1b" stop-opacity="0"/>
    </linearGradient>
    <filter id="filter3934" height="1.085521" width="1.110363" x="-.055181" y="-.04276">
      <feGaussianBlur stdDeviation="1.0904668"/>
    </filter>
    <linearGradient id="linearGradient4208" gradientTransform="matrix(1.3356221 0 0 1.5112841 370.87464 47.95287)" gradientUnits="userSpaceOnUse" x1="-223.68062" x2="-223.68062" xlink:href="#linearGradient5727" y1="39.504864" y2="27.499809"/>
    <linearGradient id="linearGradient4212" gradientTransform="matrix(1.3337888 0 0 1.5112841 406.44106 47.95287)" gradientUnits="userSpaceOnUse" x1="-223.68062" x2="-223.68062" xlink:href="#linearGradient5727" y1="39.504864" y2="27.499809"/>
    <linearGradient id="linearGradient4216" gradientTransform="matrix(1.3306021 0 0 1.5112841 441.68741 47.95287)" gradientUnits="userSpaceOnUse" x1="-223.68062" x2="-223.68062" xlink:href="#linearGradient5727" y1="39.504864" y2="27.499809"/>
    <linearGradient id="linearGradient4220" gradientTransform="matrix(1.3356273 0 0 1.5112841 488.82772 47.95287)" gradientUnits="userSpaceOnUse" x1="-223.68062" x2="-223.68062" xlink:href="#linearGradient5727" y1="39.504864" y2="27.499809"/>
    <linearGradient id="linearGradient4224" gradientTransform="matrix(1.3356221 0 0 1.5112841 370.87464 83.958752)" gradientUnits="userSpaceOnUse" x1="-223.68062" x2="-223.68062" xlink:href="#linearGradient5727" y1="39.504864" y2="27.499809"/>
    <linearGradient id="linearGradient4228" gradientTransform="matrix(1.3308305 0 0 1.4993752 405.80355 84.286248)" gradientUnits="userSpaceOnUse" x1="-223.68062" x2="-223.68062" xlink:href="#linearGradient5727" y1="39.504864" y2="27.499809"/>
    <linearGradient id="linearGradient4232" gradientTransform="matrix(1.3323977 0 0 1.4999999 442.13175 84.236856)" gradientUnits="userSpaceOnUse" x1="-223.68062" x2="-223.68062" xlink:href="#linearGradient5727" y1="39.504864" y2="27.499809"/>
    <linearGradient id="linearGradient4240" gradientTransform="matrix(1.3356258 0 0 1.4973156 488.82738 84.342884)" gradientUnits="userSpaceOnUse" x1="-223.68062" x2="-223.68062" xlink:href="#linearGradient5727" y1="39.504864" y2="27.499809"/>
    <linearGradient id="linearGradient4258" gradientTransform="matrix(1.3356218 0 0 1.4862943 370.82652 112.75038)" gradientUnits="userSpaceOnUse" x1="-223.68062" x2="-223.68062" xlink:href="#linearGradient5727" y1="39.504864" y2="27.499809"/>
    <linearGradient id="linearGradient4262" gradientTransform="matrix(1.3246503 0 0 1.4623021 404.46216 113.27355)" gradientUnits="userSpaceOnUse" x1="-223.68062" x2="-223.68062" xlink:href="#linearGradient5727" y1="39.504864" y2="27.499809"/>
    <linearGradient id="linearGradient4266" gradientTransform="matrix(1.3321502 0 0 1.503411 442.07839 112.14305)" gradientUnits="userSpaceOnUse" x1="-223.68062" x2="-223.68062" xlink:href="#linearGradient5727" y1="39.504864" y2="27.499809"/>
    <linearGradient id="linearGradient4270" gradientTransform="matrix(1.3333331 0 0 1.4999998 488.3333 112.23686)" gradientUnits="userSpaceOnUse" x1="-223.68062" x2="-223.68062" xlink:href="#linearGradient5727" y1="39.504864" y2="27.499809"/>
    <linearGradient id="linearGradient4274" gradientTransform="matrix(1.3333337 0 0 1.4623021 370.33344 141.27355)" gradientUnits="userSpaceOnUse" x1="-223.68062" x2="-223.68062" xlink:href="#linearGradient5727" y1="39.504864" y2="27.499809"/>
    <linearGradient id="linearGradient4278" gradientTransform="matrix(1.3302648 0 0 1.4999998 405.67208 140.23686)" gradientUnits="userSpaceOnUse" x1="-223.68062" x2="-223.68062" xlink:href="#linearGradient5727" y1="39.504864" y2="27.499809"/>
    <linearGradient id="linearGradient4282" gradientTransform="matrix(1.3290522 0 0 1.5 441.41078 140.23686)" gradientUnits="userSpaceOnUse" x1="-223.68062" x2="-223.68062" xlink:href="#linearGradient5727" y1="39.504864" y2="27.499809"/>
    <linearGradient id="linearGradient4286" gradientTransform="matrix(1.3333336 0 0 1.503411 370.3334 168.14305)" gradientUnits="userSpaceOnUse" x1="-223.68062" x2="-223.68062" xlink:href="#linearGradient5727" y1="39.504864" y2="27.499809"/>
    <linearGradient id="linearGradient4290" gradientTransform="matrix(1.3333337 0 0 1.5 406.33344 168.23686)" gradientUnits="userSpaceOnUse" x1="-223.68062" x2="-223.68062" xlink:href="#linearGradient5727" y1="39.504864" y2="27.499809"/>
    <linearGradient id="linearGradient4294" gradientTransform="matrix(1.3333337 0 0 1.4999998 442.33344 168.23687)" gradientUnits="userSpaceOnUse" x1="-223.68062" x2="-223.68062" xlink:href="#linearGradient5727" y1="39.504864" y2="27.499809"/>
    <filter id="filter4328" height="1.02486" width="1.032509" x="-.016255" y="-.01243">
      <feGaussianBlur stdDeviation=".30072377"/>
    </filter>
  </defs>
  <rect filter="url(#filter6142)" height="67.105255" opacity=".608911" rx="2.845482" stroke="#000" stroke-linecap="square" stroke-width=".504632" transform="matrix(3.26923 0 0 3.3823528 -267.26477 -142.83362)" width="51.999996" x="94.904549" y="46.519924"/>
  <rect filter="url(#filter3934)" height="67.105255" opacity=".604651" rx="2.845482" stroke="#000" stroke-linecap="square" stroke-width=".504632" transform="matrix(3.26923 0 0 3.3823528 -267.26477 -142.83362)" width="51.999996" x="94.904549" y="46.519924"/>
  <rect fill="url(#linearGradient3678)" height="229.99998" rx="9.302533" ry="9.624423" width="169.99995" x="43.000004" y="11.486854"/>
  <rect fill="url(#radialGradient3680)" height="223.30569" rx="9.302533" ry="9.624423" width="169.99995" x="43.000004" y="18.18115"/>
  <rect fill="#080808" height="46.932495" rx="6.58994" ry="7.096546" width="146" x="55.000011" y="27.776236"/>
  <rect fill="#525252" height="48.077194" rx="6.578951" ry="6.911916" width="146" x="55.000011" y="25.486853"/>
  <rect fill="#2c2c2c" height="34" rx="2.721507" ry="3.17543" width="134" x="61.000011" y="33.486855"/>
  <rect fill="url(#linearGradient3682)" height="28" rx=".624495" ry=".638169" width="126" x="65.000008" y="35.486855"/>
  <path d="m67.606255 35.501555c-1.417672 0-2.599042 1.13732-2.599042 2.58606v19.849802c34.17249-2.245194 66.122057-11.304716 97.396057-22.435862zm123.386535 3.285-32.83008 13.07011c13.7315-1.042924 23.39153-.698978 32.83008-.279588v-12.790536z" fill="url(#radialGradient3684)" opacity=".395604"/>
  <path d="m171.6075 37.486855 1.55717 1.467258h7.67601l1.55718-1.467258z" opacity=".600733"/>
  <path d="m183.00001 38.054827-1.55718 1.467258v7.232754l1.55718 1.467258z" opacity=".600733"/>
  <path d="m171.00001 38.045359 1.55718 1.46726v7.232754l-1.55718 1.467258z" fill-opacity=".217742" opacity=".600733"/>
  <path d="m171.6075 59.486853 1.55717-1.467258h7.67601l1.55718 1.467258z" opacity=".600733"/>
  <path d="m183.00001 58.918883-1.55718-1.467258v-7.232756l1.55718-1.467258z" opacity=".600733"/>
  <path d="m171.00001 58.928349 1.55718-1.467258v-7.232754l-1.55718-1.46726z" fill-opacity=".217742" opacity=".600733"/>
  <path d="m171.6075 48.553413 1.55717-1.467258h7.67601l1.55718 1.467258z" opacity=".600733"/>
  <path d="m155.60539 37.486857 1.55177 1.467258h7.64935l1.55177-1.467258z" opacity=".600733"/>
  <path d="m166.95834 38.054829-1.55177 1.467258v7.232754l1.55177 1.467258z" opacity=".600733"/>
  <path d="m155.00001 38.045361 1.55177 1.46726v7.232754l-1.55177 1.467258z" opacity=".600733"/>
  <path d="m155.60539 59.486855 1.55177-1.467258h7.64935l1.55177 1.467258z" opacity=".600733"/>
  <path d="m166.95834 58.918885-1.55177-1.467258v-7.232756l1.55177-1.467258z" opacity=".600733"/>
  <path d="m155.00001 58.928351 1.55177-1.467258v-7.232754l-1.55177-1.46726z" opacity=".600733"/>
  <path d="m155.60539 48.553415 1.55177-1.467258h7.64935l1.55177 1.467258z" fill-opacity=".217742" opacity=".600733"/>
  <path d="m139.6075 37.486855 1.55718 1.467258h7.676l1.55718-1.467258z" fill-opacity=".217742" opacity=".600733"/>
  <path d="m151.00001 38.054827-1.55718 1.467258v7.232754l1.55718 1.467258z" opacity=".600733"/>
  <path d="m139.00001 38.045359 1.55718 1.46726v7.232754l-1.55718 1.467258z" opacity=".600733"/>
  <path d="m139.6075 59.486855 1.55718-1.467258h7.676l1.55718 1.467258z" fill-opacity=".217742" opacity=".600733"/>
  <path d="m151.00001 58.918885-1.55718-1.467258v-7.232756l1.55718-1.467258z" opacity=".600733"/>
  <path d="m139.00001 58.928351 1.55718-1.467258v-7.232754l-1.55718-1.46726z" fill-opacity=".217742" opacity=".600733"/>
  <path d="m139.6075 48.553415 1.55718-1.46726h7.676l1.55718 1.46726z" opacity=".600733"/>
  <path d="m123.6075 37.486855 1.55718 1.467258h7.676l1.55718-1.467258z" fill-opacity=".217742" opacity=".600733"/>
  <path d="m135.00001 38.054827-1.55717 1.467258v7.232754l1.55717 1.467258z" fill-opacity=".217742" opacity=".600733"/>
  <path d="m123.00001 38.045359 1.55718 1.46726v7.232754l-1.55718 1.467258z" fill-opacity=".217742" opacity=".600733"/>
  <path d="m123.6075 59.486855 1.55718-1.467258h7.676l1.55718 1.467258z" fill-opacity=".217742" opacity=".600733"/>
  <path d="m135.00001 58.918885-1.55717-1.467258v-7.232756l1.55717-1.467258z" fill-opacity=".217742" opacity=".600733"/>
  <path d="m123.00001 58.928351 1.55718-1.467258v-7.232754l-1.55718-1.46726z" fill-opacity=".217742" opacity=".600733"/>
  <path d="m123.6075 48.553415 1.55718-1.46726h7.676l1.55718 1.46726z" fill-opacity=".217742" opacity=".600733"/>
  <path d="m107.6075 37.486855 1.55718 1.467258h7.676l1.55718-1.467258z" fill-opacity=".217742" opacity=".600733"/>
  <path d="m119.00001 38.054827-1.55717 1.467258v7.232754l1.55717 1.467258z" fill-opacity=".217742" opacity=".600733"/>
  <path d="m107.00001 38.045359 1.55718 1.46726v7.232754l-1.55718 1.467258z" fill-opacity=".217742" opacity=".600733"/>
  <path d="m107.6075 59.486855 1.55718-1.467258h7.676l1.55718 1.467258z" fill-opacity=".217742" opacity=".600733"/>
  <path d="m119.00001 58.918885-1.55717-1.467258v-7.232756l1.55717-1.467258z" fill-opacity=".217742" opacity=".600733"/>
  <path d="m107.00001 58.928351 1.55718-1.467258v-7.232754l-1.55718-1.46726z" fill-opacity=".217742" opacity=".600733"/>
  <path d="m107.6075 48.553415 1.55718-1.46726h7.676l1.55718 1.46726z" fill-opacity=".217742" opacity=".600733"/>
  <path d="m91.607503 37.486855 1.557178 1.467258h7.675999l1.55718-1.467258z" fill-opacity=".217742" opacity=".600733"/>
  <path d="m103.00001 38.054827-1.55717 1.467258v7.232754l1.55717 1.467258z" fill-opacity=".217742" opacity=".600733"/>
  <path d="m91.000013 38.045359 1.557176 1.46726v7.232754l-1.557176 1.467258z" fill-opacity=".217742" opacity=".600733"/>
  <path d="m91.607503 59.486853 1.557178-1.467258h7.675999l1.55718 1.467258z" fill-opacity=".217742" opacity=".600733"/>
  <path d="m103.00001 58.918883-1.55717-1.467258v-7.232756l1.55717-1.467258z" fill-opacity=".217742" opacity=".600733"/>
  <path d="m91.000013 58.928349 1.557176-1.467258v-7.232754l-1.557176-1.46726z" fill-opacity=".217742" opacity=".600733"/>
  <path d="m91.607503 48.553413 1.557178-1.467258h7.675999l1.55718 1.467258z" fill-opacity=".217742" opacity=".600733"/>
  <path d="m75.607503 37.486855 1.557178 1.467258h7.67601l1.557176-1.467258z" fill-opacity=".217742" opacity=".600733"/>
  <path d="m87.000013 38.054827-1.557176 1.467258v7.232754l1.557176 1.467258z" fill-opacity=".217742" opacity=".600733"/>
  <path d="m75.000013 38.045359 1.557178 1.46726v7.232754l-1.557178 1.467258z" fill-opacity=".217742" opacity=".600733"/>
  <path d="m75.607503 59.486855 1.557178-1.467258h7.67601l1.557176 1.467258z" fill-opacity=".217742" opacity=".600733"/>
  <path d="m87.000013 58.918885-1.557176-1.467258v-7.232756l1.557176-1.467258z" fill-opacity=".217742" opacity=".600733"/>
  <path d="m75.000013 58.928351 1.557178-1.467258v-7.232754l-1.557178-1.46726z" fill-opacity=".217742" opacity=".600733"/>
  <path d="m75.607503 48.553415 1.557178-1.46726h7.67601l1.557176 1.46726z" fill-opacity=".217742" opacity=".600733"/>
  <path clip-path="url(#clipPath5191)" d="m-.65625 12.65625-1.34375 1.34375 1.90625-.6875c-.11480907-.291677-.31237995-.511104-.5625-.65625zm-1.8125 11.84375.96875 3h.25c.60997062 0 1.11406778-.501641 1.21875-1.15625-1.2147135-.935748-2.4375-1.84375-2.4375-1.84375zm-54.96875.5-3.5625.96875v.125c0 .776113.563652 1.40625 1.25 1.40625h.1875z" fill="#fff" fill-rule="evenodd" filter="url(#filter5227)" transform="matrix(2.1967214 0 0 2.2666666 195.00001 5.153523)"/>
  <rect fill="url(#linearGradient3758)" filter="url(#filter5305)" height="12" opacity=".461538" rx="2.827777" transform="matrix(1.3356221 0 0 1.5502449 370.20683 46.106328)" width="21" x="-236" y="28"/>
  <rect fill="url(#linearGradient4208)" height="18.135408" rx="3.764468" ry="4.259573" width="28.048063" x="55.000015" y="89.513184"/>
  <path d="m-108 47.1875v.28125c0 1.014809.73274 1.843751 1.625 1.84375h8.75c.892261 0 1.625-.828942 1.625-1.84375v-.28125c0 1.014807-.732739 1.8125-1.625 1.8125h-8.75c-.89226 0-1.625-.797691-1.625-1.8125z" fill="#919191" filter="url(#filter5756)" transform="matrix(2.3373373 0 0 2.3253677 307.43244 -8.152259)"/>
  <rect fill="url(#linearGradient3758)" filter="url(#filter5305)" height="12" opacity=".461538" rx="2.827777" transform="matrix(1.3337888 0 0 1.5502449 405.77417 46.106328)" width="21" x="-236" y="28"/>
  <rect fill="url(#linearGradient4212)" height="18.135408" rx="3.7593" ry="4.259573" width="28.009565" x="91.000015" y="89.513184"/>
  <path d="m-108 47.1875v.28125c0 1.014809.73274 1.843751 1.625 1.84375h8.75c.892261 0 1.625-.828942 1.625-1.84375v-.28125c0 1.014807-.732739 1.8125-1.625 1.8125h-8.75c-.89226 0-1.625-.797691-1.625-1.8125z" fill="#919191" filter="url(#filter5756)" transform="matrix(2.3341291 0 0 2.3253677 343.08595 -8.152259)"/>
  <rect fill="url(#linearGradient3758)" filter="url(#filter5305)" height="12" opacity=".461538" rx="2.827777" transform="matrix(1.3306021 0 0 1.5502449 441.02211 46.106328)" width="21" x="-236" y="28"/>
  <rect fill="url(#linearGradient4216)" height="18.135408" rx="3.750319" ry="4.259573" width="27.942644" x="127.00002" y="89.513184"/>
  <path d="m-108 47.1875v.28125c0 1.014809.73274 1.843751 1.625 1.84375h8.75c.892261 0 1.625-.828942 1.625-1.84375v-.28125c0 1.014807-.732739 1.8125-1.625 1.8125h-8.75c-.89226 0-1.625-.797691-1.625-1.8125z" fill="#919191" filter="url(#filter5756)" transform="matrix(2.3285523 0 0 2.3253677 378.48366 -8.152259)"/>
  <rect fill="url(#linearGradient3758)" filter="url(#filter5305)" height="12" opacity=".461538" rx="2.827777" transform="matrix(1.3356273 0 0 1.5502449 488.15991 46.106328)" width="21" x="-236" y="28"/>
  <rect fill="url(#linearGradient4220)" height="18.135408" rx="3.764482" ry="4.259573" width="28.048174" x="172.95187" y="89.513184"/>
  <path d="m-108 47.1875v.28125c0 1.014809.73274 1.843751 1.625 1.84375h8.75c.892261 0 1.625-.828942 1.625-1.84375v-.28125c0 1.014807-.732739 1.8125-1.625 1.8125h-8.75c-.89226 0-1.625-.797691-1.625-1.8125z" fill="#919191" filter="url(#filter5756)" transform="matrix(2.3373464 0 0 2.3253677 425.38528 -8.152259)"/>
  <rect fill="url(#linearGradient3758)" filter="url(#filter5305)" height="12" opacity=".461538" rx="2.827777" transform="matrix(1.3356221 0 0 1.5502449 370.20683 82.11221)" width="21" x="-236" y="28"/>
  <rect fill="url(#linearGradient4224)" height="18.135408" rx="3.764468" ry="4.259573" width="28.048063" x="55.000015" y="125.51907"/>
  <path d="m-108 47.1875v.28125c0 1.014809.73274 1.843751 1.625 1.84375h8.75c.892261 0 1.625-.828942 1.625-1.84375v-.28125c0 1.014807-.732739 1.8125-1.625 1.8125h-8.75c-.89226 0-1.625-.797691-1.625-1.8125z" fill="#919191" filter="url(#filter5756)" transform="matrix(2.3373373 0 0 2.3253677 307.43244 27.853623)"/>
  <rect fill="url(#linearGradient3758)" filter="url(#filter5305)" height="12" opacity=".461538" rx="2.827777" transform="matrix(1.3308305 0 0 1.5380289 405.13813 82.454257)" width="21" x="-236" y="28"/>
  <rect fill="url(#linearGradient4228)" height="17.992502" rx="3.750962" ry="4.226008" width="27.947441" x="91.062134" y="125.51907"/>
  <path d="m-108 47.1875v.28125c0 1.014809.73274 1.843751 1.625 1.84375h8.75c.892261 0 1.625-.828942 1.625-1.84375v-.28125c0 1.014807-.732739 1.8125-1.625 1.8125h-8.75c-.89226 0-1.625-.797691-1.625-1.8125z" fill="#919191" filter="url(#filter5756)" transform="matrix(2.328952 0 0 2.3070438 342.58895 28.623227)"/>
  <rect fill="url(#linearGradient3758)" filter="url(#filter5305)" height="12" opacity=".461538" rx="2.827777" transform="matrix(1.3323977 0 0 1.5386697 441.46555 82.404102)" width="21" x="-236" y="28"/>
  <rect fill="url(#linearGradient4232)" height="17.999998" rx="3.755379" ry="4.227768" width="27.980352" x="127.01969" y="125.48685"/>
  <path d="m-108 47.1875v.28125c0 1.014809.73274 1.843751 1.625 1.84375h8.75c.892261 0 1.625-.828942 1.625-1.84375v-.28125c0 1.014807-.732739 1.8125-1.625 1.8125h-8.75c-.89226 0-1.625-.797691-1.625-1.8125z" fill="#919191" filter="url(#filter5756)" transform="matrix(2.3316946 0 0 2.308005 378.84271 28.550644)"/>
  <rect fill="url(#linearGradient3758)" filter="url(#filter5305)" height="12" opacity=".461538" rx="2.827777" transform="matrix(1.3356258 0 0 1.5359162 488.15957 82.513409)" width="21" x="-236" y="28"/>
  <rect fill="url(#linearGradient4240)" height="17.967787" rx="3.764478" ry="4.220202" width="28.048141" x="172.95187" y="125.51907"/>
  <path d="m-108 47.1875v.28125c0 1.014809.73274 1.843751 1.625 1.84375h8.75c.892261 0 1.625-.828942 1.625-1.84375v-.28125c0 1.014807-.732739 1.8125-1.625 1.8125h-8.75c-.89226 0-1.625-.797691-1.625-1.8125z" fill="#919191" filter="url(#filter5756)" transform="matrix(2.3373438 0 0 2.3038747 425.38501 28.756324)"/>
  <rect fill="url(#linearGradient3758)" filter="url(#filter5305)" height="12" opacity=".461538" rx="2.827777" transform="matrix(1.3356218 0 0 1.5246108 370.15871 110.93438)" width="21" x="-236" y="28"/>
  <rect fill="url(#linearGradient4258)" height="17.835531" rx="3.764467" ry="4.189139" width="28.048058" x="54.951965" y="153.62347"/>
  <path d="m-108 47.1875v.28125c0 1.014809.73274 1.843751 1.625 1.84375h8.75c.892261 0 1.625-.828942 1.625-1.84375v-.28125c0 1.014807-.732739 1.8125-1.625 1.8125h-8.75c-.89226 0-1.625-.797691-1.625-1.8125z" fill="#919191" filter="url(#filter5756)" transform="matrix(2.3373368 0 0 2.2869166 307.38434 57.572981)"/>
  <rect fill="url(#linearGradient3758)" filter="url(#filter5305)" height="12" opacity=".461538" rx="2.827777" transform="matrix(1.3246503 0 0 1.5000001 403.79983 111.48685)" width="21" x="-236" y="28"/>
  <rect fill="url(#linearGradient4262)" height="17.547625" rx="3.733543" ry="4.121517" width="27.817656" x="91.182358" y="153.48686"/>
  <path d="m-108 47.1875v.28125c0 1.014809.73274 1.843751 1.625 1.84375h8.75c.892261 0 1.625-.828942 1.625-1.84375v-.28125c0 1.014807-.732739 1.8125-1.625 1.8125h-8.75c-.89226 0-1.625-.797691-1.625-1.8125z" fill="#919191" filter="url(#filter5756)" transform="matrix(2.3181367 0 0 2.2500005 341.54112 58.986834)"/>
  <rect fill="url(#linearGradient3758)" filter="url(#filter5305)" height="12" opacity=".461538" rx="2.827777" transform="matrix(1.3321502 0 0 1.5421688 441.41231 110.30613)" width="21" x="-236" y="28"/>
  <rect fill="url(#linearGradient4266)" height="18.040932" rx="3.754682" ry="4.237382" width="27.975155" x="127.02486" y="153.48686"/>
  <path d="m-108 47.1875v.28125c0 1.014809.73274 1.843751 1.625 1.84375h8.75c.892261 0 1.625-.828942 1.625-1.84375v-.28125c0 1.014807-.732739 1.8125-1.625 1.8125h-8.75c-.89226 0-1.625-.797691-1.625-1.8125z" fill="#919191" filter="url(#filter5756)" transform="matrix(2.3312615 0 0 2.3132536 378.8011 56.330206)"/>
  <rect fill="url(#linearGradient3758)" filter="url(#filter5305)" height="12" opacity=".461538" rx="2.827777" transform="matrix(1.3333331 0 0 1.5386696 487.66663 110.4041)" width="21" x="-236" y="28"/>
  <rect fill="url(#linearGradient4270)" height="17.999998" rx="3.758016" ry="4.227768" width="27.999994" x="173.00002" y="153.48685"/>
  <path d="m-108 47.1875v.28125c0 1.014809.73274 1.843751 1.625 1.84375h8.75c.892261 0 1.625-.828942 1.625-1.84375v-.28125c0 1.014807-.732739 1.8125-1.625 1.8125h-8.75c-.89226 0-1.625-.797691-1.625-1.8125z" fill="#919191" filter="url(#filter5756)" transform="matrix(2.3333316 0 0 2.3080048 424.99983 56.550648)"/>
  <rect fill="url(#linearGradient3758)" filter="url(#filter5305)" height="12" opacity=".461538" rx="2.827777" transform="matrix(1.3333337 0 0 1.5000001 369.66677 139.48685)" width="21" x="-236" y="28"/>
  <rect fill="url(#linearGradient4274)" height="17.547625" rx="3.758018" ry="4.121517" width="28.000008" x="55.000015" y="181.48686"/>
  <path d="m-108 47.1875v.28125c0 1.014809.73274 1.843751 1.625 1.84375h8.75c.892261 0 1.625-.828942 1.625-1.84375v-.28125c0 1.014807-.732739 1.8125-1.625 1.8125h-8.75c-.89226 0-1.625-.797691-1.625-1.8125z" fill="#919191" filter="url(#filter5756)" transform="matrix(2.3333326 0 0 2.2500005 306.99994 86.986834)"/>
  <rect fill="url(#linearGradient3758)" filter="url(#filter5305)" height="12" opacity=".461538" rx="2.827777" transform="matrix(1.3302648 0 0 1.5386696 405.00695 138.4041)" width="21" x="-236" y="28"/>
  <rect fill="url(#linearGradient4278)" height="17.999998" rx="3.749368" ry="4.227768" width="27.93556" x="91.064461" y="181.48685"/>
  <path d="m-108 47.1875v.28125c0 1.014809.73274 1.843751 1.625 1.84375h8.75c.892261 0 1.625-.828942 1.625-1.84375v-.28125c0 1.014807-.732739 1.8125-1.625 1.8125h-8.75c-.89226 0-1.625-.797691-1.625-1.8125z" fill="#919191" filter="url(#filter5756)" transform="matrix(2.3279621 0 0 2.3080048 342.48436 84.550648)"/>
  <rect fill="url(#linearGradient3758)" filter="url(#filter5305)" height="12" opacity=".461538" rx="2.827777" transform="matrix(1.3290522 0 0 1.5386699 440.74625 138.4041)" width="21" x="-236" y="28"/>
  <rect fill="url(#linearGradient4282)" height="18" rx="3.74595" ry="4.227769" width="27.910097" x="127.08993" y="181.48686"/>
  <path d="m-108 47.1875v.28125c0 1.014809.73274 1.843751 1.625 1.84375h8.75c.892261 0 1.625-.828942 1.625-1.84375v-.28125c0 1.014807-.732739 1.8125-1.625 1.8125h-8.75c-.89226 0-1.625-.797691-1.625-1.8125z" fill="#919191" filter="url(#filter5756)" transform="matrix(2.32584 0 0 2.3080052 378.28065 84.550641)"/>
  <rect fill="url(#linearGradient3758)" filter="url(#filter5305)" height="12" opacity=".461538" rx="2.827777" transform="matrix(1.3333336 0 0 1.5421688 369.66673 166.30613)" width="21" x="-236" y="28"/>
  <rect fill="url(#linearGradient4286)" height="18.040932" rx="3.758017" ry="4.237382" width="28.000006" x="55" y="209.48686"/>
  <path d="m-108 47.1875v.28125c0 1.014809.73274 1.843751 1.625 1.84375h8.75c.892261 0 1.625-.828942 1.625-1.84375v-.28125c0 1.014807-.732739 1.8125-1.625 1.8125h-8.75c-.89226 0-1.625-.797691-1.625-1.8125z" fill="#919191" filter="url(#filter5756)" transform="matrix(2.3333325 0 0 2.3132536 306.9999 112.33021)"/>
  <rect fill="url(#linearGradient3758)" filter="url(#filter5305)" height="12" opacity=".461538" rx="2.827777" transform="matrix(1.3333337 0 0 1.5386699 405.66677 166.4041)" width="21" x="-236" y="28"/>
  <rect fill="url(#linearGradient4290)" height="18" rx="3.758018" ry="4.227769" width="28.000008" x="91.000015" y="209.48686"/>
  <path d="m-108 47.1875v.28125c0 1.014809.73274 1.843751 1.625 1.84375h8.75c.892261 0 1.625-.828942 1.625-1.84375v-.28125c0 1.014807-.732739 1.8125-1.625 1.8125h-8.75c-.89226 0-1.625-.797691-1.625-1.8125z" fill="#919191" filter="url(#filter5756)" transform="matrix(2.3333326 0 0 2.3080052 342.99994 112.55064)"/>
  <rect fill="url(#linearGradient3758)" filter="url(#filter5305)" height="12" opacity=".461538" rx="2.827777" transform="matrix(1.3333337 0 0 1.5386696 441.66677 166.40411)" width="21" x="-236" y="28"/>
  <rect fill="url(#linearGradient4294)" height="17.999998" rx="3.758018" ry="4.227768" width="28.000008" x="127.00002" y="209.48686"/>
  <path d="m-108 47.1875v.28125c0 1.014809.73274 1.843751 1.625 1.84375h8.75c.892261 0 1.625-.828942 1.625-1.84375v-.28125c0 1.014807-.732739 1.8125-1.625 1.8125h-8.75c-.89226 0-1.625-.797691-1.625-1.8125z" fill="#919191" filter="url(#filter5756)" transform="matrix(2.3333326 0 0 2.3080048 378.99994 112.55066)"/>
  <rect fill="url(#linearGradient3758)" filter="url(#filter5305)" height="29.852545" opacity=".461538" rx="2.827777" transform="matrix(1.2843411 0 0 1.5502449 476.05635 166.62545)" width="21" x="-236" y="10.147465"/>
  <rect filter="url(#filter4499)" height="30.312811" opacity=".594059" rx="2.818512" transform="matrix(1.2843411 0 0 1.5112841 476.05635 167.71635)" width="21" x="-236" y="9.687229"/>
  <rect fill="url(#linearGradient3760)" height="46" rx="3.619932" ry="4.259573" width="28.000004" x="173" y="181.48686"/>
  <path d="m-108 47.1875v.28125c0 1.014809.73274 1.843751 1.625 1.84375h9.016952c.892261 0 1.625-.828942 1.625-1.84375v-.28125c0 1.014807-.732739 1.8125-1.625 1.8125h-9.016952c-.89226 0-1.625-.797691-1.625-1.8125z" fill="#fff" filter="url(#filter5756)" transform="matrix(2.2475956 0 0 2.3253677 415.69218 112.36686)"/>
  <path d="m71.787549 131.63389-3.259154 10.09618c-.04074.12068-.06111.20112-.06111.28157 0 .28156.224067.5028.509243.5028.285175 0 .407394-.12067.529612-.48269l3.320262-10.25708v-1.40783h-7.821968v1.60896c0 .44246.183327.66369.529613.66369.346285 0 .529612-.22123.529612-.66369v-.58325h5.723889z" fill="#d6d6d6" stroke-width="2"/>
  <path d="m106.87506 136.01823c1.27867-.64952 1.90786-1.5549 1.90786-2.69648 0-1.7911-1.68461-3.28697-3.69396-3.28697s-3.69396 1.49587-3.69396 3.28697c0 1.14158.64949 2.04696 1.92816 2.69648-1.35986.62984-2.13113 1.69269-2.13113 2.93268 0 1.92887 1.7455 3.50347 3.91723 3.50347 2.15143 0 3.89693-1.5746 3.89693-3.50347 0-1.23999-.79157-2.32252-2.13113-2.93268zm-1.82669-4.97965c1.50194 0 2.67913 1.02349 2.67913 2.32253 0 1.22031-1.15689 2.16506-2.63854 2.16506s-2.63854-.94475-2.63854-2.16506c0-1.27936 1.17719-2.32253 2.59795-2.32253zm0 5.47172c1.66431 0 2.9024 1.04316 2.9024 2.44061s-1.25839 2.49967-2.84151 2.49967c-1.60342 0-2.86181-1.10222-2.86181-2.49967 0-1.35808 1.23809-2.44061 2.80092-2.44061z" fill="#d6d6d6" stroke-width="2"/>
  <path d="m144.31867 135.4042c.02.19555.02.37155.02.44976 0 1.19287-.32007 2.36618-.90022 3.18749-.96023 1.40797-2.5006 2.28795-4.00097 2.28795-.36008 0-.66016-.0586-.86021-.15644-.20005-.0978-.28006-.11733-.40009-.11733-.28007 0-.48012.2151-.48012.48888 0 .44977.72017.7822 1.72042.7822 1.30031 0 2.62064-.48887 3.7009-1.38841 1.50036-1.23197 2.22053-2.89416 2.22053-5.16255 0-3.40259-1.70041-5.78832-4.141-5.78832-2.00049 0-3.56087 1.66219-3.56087 3.79369 0 2.01418 1.56038 3.67637 3.46085 3.67637 1.32031 0 2.4806-.74309 3.22078-2.05329zm-.14004-1.42752c-.46011.7822-.68016 1.11464-.98024 1.42752-.62015.66487-1.38033 1.05597-2.1005 1.05597-1.32033 0-2.4206-1.21241-2.4206-2.67905 0-1.58396 1.08027-2.79637 2.50061-2.79637 1.50036 0 2.44059.93865 3.00073 2.99193z" fill="#d6d6d6" stroke-width="2"/>
  <path d="m69.029841 157.95597-4.684622 7.62005h4.684622zm-.328222-1.77705h2.327388v9.3971h1.979278v1.58388h-1.979278v3.43819h-1.999166v-3.43819h-6.29589v-1.84464z" fill="#d6d6d6"/>
  <path d="m101.23512 155.6042h7.25139v1.57069h-5.4865v3.39084c.27496-.0985.54992-.16936.82489-.2125.28135-.0493.56271-.0739.84408-.0739 1.48352.00001 2.66011.42194 3.52978 1.26579.86965.84387 1.30447 1.98647 1.30448 3.42781-.00001 1.45365-.45722 2.59934-1.37162 3.43702-.90803.8377-2.15177 1.25653-3.73121 1.25653-.76095 0-1.45796-.0492-2.09101-.14788-.62666-.0987-1.18938-.24626-1.68815-.44351v-1.89407c.58829.30799 1.17979.53897 1.77448.69297.59468.14786 1.20216.22166 1.82244.22166 1.06787 0 1.88957-.27115 2.46509-.81308.58189-.54203.87284-1.31197.87285-2.30982-.00001-.98553-.30054-1.75239-.90163-2.3006-.5947-.5482-1.42598-.8223-2.49386-.82231-.51797.00001-1.02313.0585-1.51551.17554-.49238.11086-.96237.28026-1.40999.50817v-6.92952" fill="#d6d6d6"/>
  <path d="m138.69766 164.97917c-.0203-.19735-.0203-.37497-.0203-.47365 0-1.18413.32506-2.36826.91425-3.19715.9752-1.42095 2.53959-2.30904 4.06335-2.30904.3657 0 .67045.0394.87362.13814.20317.0987.28444.11842.40633.11842.28444 0 .48761-.2171.48761-.47366 0-.45391-.75172-.78942-1.74725-.78942-1.32058 0-2.66149.49339-3.75859 1.40123-1.52376 1.24333-2.25516 2.92084-2.25516 5.2299 0 3.41423 1.72692 5.82196 4.20557 5.82196 2.03167 0 3.61638-1.67751 3.61638-3.82868 0-2.03276-1.58471-3.71027-3.5148-3.71027-1.34091 0-2.53959.74994-3.271 2.07222zm.14222 1.44069c.46728-.78942.69077-1.12492.9752-1.44069.65014-.69074 1.42217-1.06572 2.15358-1.06572 1.3409 0 2.45832 1.2236 2.45832 2.70377 0 1.59856-1.0971 2.82217-2.53959 2.82217-1.52375 0-2.49896-.9473-3.04751-3.01953z" fill="#d6d6d6" stroke-width="2"/>
  <path d="m65.896469 195.48686h3.117728v-10.84171l-3.35603.72216v-1.74839l3.336172-.70313h2.005672v12.57107h2v1.61532h-7.103542z" fill="#d6d6d6"/>
  <path d="m101.73889 196.07365c1.09555-.91824 2.35341-2.05606 4.03731-3.653 2.55629-2.3954 2.96205-2.97429 2.96205-4.15204 0-1.85644-1.80563-3.47334-3.85472-3.47334-1.25786 0-2.43456.55893-3.2055 1.5171-.40576.49903-.66951 1.09789-.66951 1.47716 0 .23954.22317.45913.50721.45913.26374 0 .42604-.13974.50719-.45913.3449-1.15777 1.54189-1.97621 2.86061-1.97621 1.50131 0 2.79974 1.13782 2.79974 2.43534 0 .85835-.36518 1.35739-2.25196 3.15395-1.68391 1.57697-3.2258 2.9743-4.64596 4.19196l-.18259.1597v1.33743h8.21664v-1.6169c0-.4192-.18259-.63878-.52749-.63878-.34489 0-.52749.21958-.52749.63878v.59885z" fill="#d6d6d6" stroke-width="2"/>
  <path d="m142.69404 190.46332c.95017.24841 1.67734.69068 2.18152 1.32726.50416.63021.75625 1.41953.75626 2.36798-.00001 1.31133-.44924 2.34254-1.34769 3.09368-.89201.7448-2.12981 1.1172-3.71343 1.1172-.66577 0-1.34446-.0604-2.03608-.1814s-1.37032-.29588-2.03608-.5252v-1.91922c.6593.3374 1.30891.58884 1.94882.75434.63991.1656 1.27659.2481 1.91004.2481 1.07297 0 1.8971-.2388 2.47238-.7161.57527-.47742.8629-1.16491.86291-2.06245-.00001-.82752-.28765-1.48317-.86291-1.96698-.57528-.49015-1.35416-.73522-2.33664-.73522h-1.49313v-1.58503h1.49313c.89845 0 1.59977-.19404 2.10395-.58246.50416-.38832.75625-.92938.75626-1.62324-.00001-.732-.23595-1.2922-.70778-1.68052-.4654-.39465-1.13116-.59197-1.9973-.592-.57528.00003-1.16994.0637-1.784.19104-.61406.12736-1.2572.3183-1.92942.5729v-1.77601c.7821-.20365 1.47696-.35645 2.08455-.45831.61405-.10184 1.15701-.1529 1.62887-.1529 1.40909 0 2.53378.35012 3.37408 1.05031.84674.69386 1.27011 1.61688 1.27012 2.76904-.00001.78298-.22301 1.43548-.66899 1.95741-.43955.52198-1.08269.8912-1.92944 1.10762" fill="#d6d6d6"/>
  <path d="m69.069851 211.60835c-1.34817 0-2.57378.56301-3.329573 1.4826-.939634 1.20109-1.409451 3.00275-1.409451 5.51754 0 4.57917 1.634146 7.00013 4.739024 7.00013 3.064025 0 4.739026-2.42096 4.739026-6.88753 0-2.62739-.449391-4.39151-1.409452-5.63014-.755792-.93836-1.960976-1.4826-3.329574-1.4826zm0 1.46383c1.940549 0 2.900611 1.82041 2.900611 5.49877 0 3.86603-.939634 5.66768-2.941464 5.66768-1.899696 0-2.859756-1.87672-2.859756-5.61138s.96006-5.55507 2.900609-5.55507z" fill="#d6d6d6" stroke-width="2"/>
  <path d="m103.00001 221.48685h2v2h-2z" fill="#d6d6d6"/>
  <path d="m135.00001 221.48686h12v2h-12zm0-6h12v2h-12z" fill="#d6d6d6"/>
  <path d="m189.00001 197.48686v6h6v2h-6v6h-2v-6h-6v-2h6v-6z" fill="#d6d6d6"/>
  <path d="m183.00001 161.48686h10v1.99999h-10z" fill="#d6d6d6"/>
  <path d="m187.61288 135.66971 2.79862-2.96897h.0708c.38968 0 .58453-.17934.58453-.51808s-.17713-.49814-.58453-.49814h-1.9484c-.38968 0-.56681.1594-.56681.49814s.19484.51808.56681.51808h.61994l-2.19638 2.27155-2.12554-2.27155h.56681c.38969 0 .58453-.17934.58453-.51808s-.17713-.49814-.58453-.49814h-1.9484c-.40739 0-.58452.1594-.58452.49814s.19484.51808.58452.51808h.0709l2.79862 2.96897-3.15288 3.34755h-.1417c-.37197 0-.56681.17933-.56681.49815 0 .33875.21255.51808.56681.51808h2.3558c.37197 0 .58452-.17933.58452-.51808 0-.31882-.19484-.49815-.58452-.49815h-.95649l2.53293-2.65014 2.51522 2.65014h-.92108c-.37196 0-.56681.17933-.56681.49815 0 .33875.21257.51808.56681.51808h2.33809c.37197 0 .58452-.17933.58452-.51808 0-.31882-.19483-.49815-.58452-.49815h-.12399z" fill="#d6d6d6" stroke-width="2"/>
  <path d="m61.369451 91.937839h2.366942l2.26174 5.679174 2.279278-5.679174h2.37571v11.156591h-1.639328v-9.856359l-2.331872 5.880932h-1.341266l-2.340644-5.880932v9.856359h-1.63056z" fill="#d6d6d6"/>
  <path d="m76.975753 94.344015v3.317834h3.36793v1.27034h-3.36793v3.317831h-1.271488v-3.317831h-3.360362v-1.27034h3.360362v-3.317834z" fill="#d6d6d6"/>
  <path d="m102.46856 100.65626 2.66756-5.832764v7.777014h-1.17988c-.3591 0-.54719.15217-.54719.42268 0 .28741.20519.43956.54719.43956h2.56497c.35909 0 .54719-.15215.54719-.43956 0-.27051-.1881-.42268-.54719-.42268h-.4959v-7.793921h.342c.35909 0 .54719-.152159.54719-.439571s-.1881-.422664-.54719-.422664h-1.77838l-2.58207 5.646796-2.616265-5.646796h-1.761276c-.359096 0-.547193.152159-.547193.422664 0 .287412.188097.439571.547193.439571h.341995v7.793921h-.495893c-.359096 0-.547193.15217-.547193.42268 0 .28741.205197.43956.547193.43956h2.564969c.35909 0 .56429-.15215.56429-.43956 0-.27051-.1881-.42268-.56429-.42268h-1.179888v-7.760108l2.701758 5.815858z" fill="#d6d6d6" stroke-width="2"/>
  <path d="m115.65249 99.202297c.37619 0 .5643-.152159.5643-.439571 0-.270505-.18811-.422664-.5643-.422664h-6.87411c-.3591 0-.54719.152159-.54719.422664 0 .287412.18809.439571.54719.439571z" fill="#d6d6d6" stroke-width="2"/>
  <path d="m131.39618 91.486855h2.3544l2.24975 6.108506 2.2672-6.108506h2.36312v12.000005h-1.63064v-10.601477l-2.31952 6.325518h-1.33415l-2.32824-6.325518v10.601477h-1.62192z" fill="#d6d6d6"/>
  <path d="m148.34614 102.83038c-.33599.19348-.68333.33748-1.04201.43198-.35415.099-.71738.1485-1.08968.1485-1.18049 0-2.10445-.35099-2.77188-1.05295-.66289-.70197-.99434-1.67392-.99433-2.915871-.00001-1.241938.33144-2.213892.99433-2.915866.66743-.70196 1.59139-1.052944 2.77188-1.052952.36776.000008.72645.04724 1.07606.14174.3496.0945.70148.240746 1.05563.43873v1.302688c-.33145-.292478-.66516-.50397-1.00114-.634468-.33145-.1305-.7083-.19574-1.13055-.19574-.78548.000006-1.38935.251994-1.8116.755964-.42225.503984-.63338 1.22395-.63338 2.159902 0 .931463.21113 1.651423.63338 2.159903.42679.50398 1.03066.75597 1.8116.75597.43587 0 .82634-.0652 1.17141-.19574.34506-.135.66515-.34199.96028-.62098v1.2892" fill="#d6d6d6"/>
  <path d="m193.00001 97.486855v2h-10v-2z" fill="#d6d6d6"/>
  <ellipse cx="187.99631" cy="94.470444" fill="#d6d6d6" opacity=".841584" rx="1.556998" ry="1.445751"/>
  <ellipse cx="187.99629" cy="102.58099" fill="#d6d6d6" opacity=".79703" rx="1.556998" ry="1.445751"/>
  <rect height="68" rx="2.845482" style="fill:none;stroke:#1b1b1b;stroke-width:.147;stroke-linecap:square;clip-path:url(#clipPath4875);filter:url(#filter4913)" transform="matrix(3.26923 0 0 3.3823528 -764.27913 -164.39549)" width="52" x="246.93251" y="52"/>
  <rect height="68" rx="2.845482" style="fill:none;stroke-width:.247;stroke-linecap:square;clip-path:url(#clipPath4875);filter:url(#filter4328);stroke:url(#linearGradient3764)" transform="matrix(3.26923 0 0 3.3823528 -764.27913 -164.39549)" width="52" x="246.93251" y="52"/>
  <path d="m53.198091 12.515998c-5.030954 0-9.175356 4.184629-9.175356 9.389673v3.301862c0-5.205044 4.144402-11.58967 9.175356-11.58967l149.703499-.131008c5.03094 0 9.07564 6.515634 9.07564 11.720678v-3.301862c0-5.205044-4.0447-9.389673-9.07564-9.389673z" fill="#fff"/>
  <rect clip-path="url(#clipPath4875)" fill="none" height="68" rx="2.845482" stroke="url(#linearGradient3764)" stroke-linecap="square" stroke-width=".247" transform="matrix(3.26923 0 0 3.3823528 -764.27913 -164.39549)" width="52" x="246.93251" y="52"/>
</svg>
