<svg height="256" width="256" xmlns="http://www.w3.org/2000/svg" xmlns:xlink="http://www.w3.org/1999/xlink">
  <defs>
    <linearGradient id="linearGradient114">
      <stop offset="0" stop-color="#494949"/>
      <stop offset="1" stop-color="#494949" stop-opacity="0"/>
    </linearGradient>
    <linearGradient id="linearGradient111">
      <stop offset="0" stop-color="#494949"/>
      <stop offset=".13829787" stop-color="#494949" stop-opacity="0"/>
      <stop offset="1" stop-opacity="0"/>
    </linearGradient>
    <linearGradient id="linearGradient3577" gradientUnits="userSpaceOnUse" x1="130.06503" x2="130.06503" xlink:href="#linearGradient114" y1="45.529353" y2="46.313098"/>
    <linearGradient id="linearGradient3423" gradientUnits="userSpaceOnUse" x1="59.96824" x2="59.96824" y1="66.834848" y2="103.02677">
      <stop offset="0" stop-color="#d1dce3"/>
      <stop offset="1" stop-color="#b9c0c3"/>
    </linearGradient>
    <linearGradient id="linearGradient2981" gradientTransform="matrix(.9868082 0 0 1 9.606068 26.35256)" gradientUnits="userSpaceOnUse" x1="135.75" x2="135.75" y1="69.875" y2="68">
      <stop offset="0" stop-color="#2f5062"/>
      <stop offset="1" stop-color="#ecedee" stop-opacity=".897338"/>
    </linearGradient>
    <linearGradient id="linearGradient2983" gradientUnits="userSpaceOnUse" x1="181.98386" x2="37.96824" y1="262.35256" y2="90.35256">
      <stop offset="0" stop-color="#959fa5"/>
      <stop offset="1" stop-color="#dbdbdb"/>
    </linearGradient>
    <radialGradient id="radialGradient3050" cx="136.13138" cy="96" gradientTransform="matrix(1.7673405 0 0 .02407044 -63.863474 93.68923)" gradientUnits="userSpaceOnUse" r="105.22703">
      <stop offset="0" stop-color="#ecedee"/>
      <stop offset="1" stop-color="#9eaab8"/>
    </radialGradient>
    <mask id="mask6971" maskUnits="userSpaceOnUse">
      <path d="m33.40625 86-2.9375 8.65625c-.08353.184824-.134071.370268-.1875.5625-.05826.188106-.116418.366855-.15625.5625-.0017.0097.0016.02155 0 .03125-.075722.381945-.125.782668-.125 1.1875v9h200.03125v-9c0-.831-.16594-1.625438-.46875-2.34375l-2.90625-8.65625z" fill="url(#linearGradient6975)" fill-rule="evenodd"/>
    </mask>
    <linearGradient id="linearGradient6975" gradientUnits="userSpaceOnUse" x1="90.25" x2="90.25" y1="106" y2="86">
      <stop offset="0" stop-color="#fff" stop-opacity="0"/>
      <stop offset=".63481778" stop-color="#fff"/>
      <stop offset=".73670214" stop-color="#fff"/>
      <stop offset="1" stop-color="#fff" stop-opacity="0"/>
    </linearGradient>
    <linearGradient id="linearGradient2987" gradientUnits="userSpaceOnUse" x1="37.949037" x2="43.490842" xlink:href="#linearGradient7516" y1="218.35256" y2="218.35256"/>
    <linearGradient id="linearGradient7516">
      <stop offset="0" stop-color="#fff"/>
      <stop offset="1" stop-color="#fff" stop-opacity="0"/>
    </linearGradient>
    <linearGradient id="linearGradient2989" gradientTransform="matrix(1 0 0 -.9656652 12.96824 280.02209)" gradientUnits="userSpaceOnUse" x1="48.982006" x2="145.58084" xlink:href="#linearGradient7043" y1="175.04001" y2="174.00444"/>
    <linearGradient id="linearGradient7043">
      <stop offset="0"/>
      <stop offset="1" stop-opacity="0"/>
    </linearGradient>
    <filter id="filter7408" height="1.305179" width="1.161511" x="-.080755" y="-.152589">
      <feGaussianBlur stdDeviation="3.1292748"/>
    </filter>
    <linearGradient id="linearGradient2991" gradientUnits="userSpaceOnUse" x1="58.28074" x2="58.28074" y1="96.351583" y2="98.35256">
      <stop offset="0" stop-color="#ecedee"/>
      <stop offset="1" stop-color="#ecedee" stop-opacity="0"/>
    </linearGradient>
    <linearGradient id="linearGradient2993" gradientUnits="userSpaceOnUse" x1="104.96824" x2="104.96824" y1="262.41689" y2="248.53303">
      <stop offset="0" stop-color="#ababab"/>
      <stop offset="1" stop-color="#a3acb3" stop-opacity="0"/>
    </linearGradient>
    <linearGradient id="linearGradient2995" gradientUnits="userSpaceOnUse" x1="133.71824" x2="133.71824" xlink:href="#linearGradient7043" y1="261.85256" y2="259.73189"/>
    <linearGradient id="linearGradient2997" gradientUnits="userSpaceOnUse" x1="238.46824" x2="230.96824" xlink:href="#linearGradient7516" y1="198.85256" y2="198.85256"/>
    <linearGradient id="linearGradient2999" gradientUnits="userSpaceOnUse" x1="225.03125" x2="170.74124" xlink:href="#linearGradient7043" y1="70.515625" y2="82.393333"/>
    <filter id="filter7510" height="1.232468" width="1.119645" x="-.059822" y="-.116234">
      <feGaussianBlur stdDeviation="2.4684546"/>
    </filter>
    <linearGradient id="linearGradient3001" gradientUnits="userSpaceOnUse" x1="-68.03176" x2="250.96824" y1="-18.647171" y2="105.352829">
      <stop offset="0" stop-color="#686868"/>
      <stop offset="1" stop-color="#a0abb6"/>
    </linearGradient>
    <radialGradient id="radialGradient3003" cx="93.23716" cy="132.00948" gradientTransform="matrix(1.2782686 -2.2140264 1.8248197 1.0535601 -233.44091 178.8159)" gradientUnits="userSpaceOnUse" r="48.719242">
      <stop offset="0" stop-color="#ededed"/>
      <stop offset="1" stop-color="#a4acb2"/>
    </radialGradient>
    <linearGradient id="linearGradient3005" gradientUnits="userSpaceOnUse" x1="254.96824" x2="164.96824" y1="31.456082" y2="76.637464">
      <stop offset="0" stop-color="#4f6579"/>
      <stop offset="1" stop-color="#aeb0b3"/>
    </linearGradient>
    <linearGradient id="linearGradient3007" gradientUnits="userSpaceOnUse" x1="45.823072" x2="49.34324" y1="101.28433" y2="102.22756">
      <stop offset="0" stop-color="#fff"/>
      <stop offset="1" stop-color="#98a2ac" stop-opacity="0"/>
    </linearGradient>
    <radialGradient id="radialGradient3009" cx="123.90625" cy="80.943352" gradientTransform="matrix(-.07160372 -2.606072 2.2205862 -.06101223 -38.995057 429.23095)" gradientUnits="userSpaceOnUse" r="48.71875" xlink:href="#linearGradient7516"/>
    <radialGradient id="radialGradient3011" cx="147.97377" cy="36.678501" gradientTransform="matrix(2.2401147 0 0 3.9445129 -176.45356 -96.54501)" gradientUnits="userSpaceOnUse" r="43.71875" xlink:href="#linearGradient7516"/>
    <linearGradient id="linearGradient3052" gradientUnits="userSpaceOnUse" x1="139" x2="140" y1="300" y2="100.99606">
      <stop offset="0" stop-color="#404952"/>
      <stop offset="1" stop-color="#404b4c" stop-opacity="0"/>
    </linearGradient>
    <mask id="mask7322" maskUnits="userSpaceOnUse">
      <path d="m36 91c-3.324 0-6 2.676-6 6v127 4c0 3.324 2.676 5.99999 6 6h188.03125c3.324 0 6-2.67601 6-6v-131c0-3.324-2.676-6-6-6z" fill="url(#pattern7326)" fill-rule="evenodd"/>
    </mask>
    <pattern id="pattern7326" patternTransform="translate(-110 111)" xlink:href="#pattern7312"/>
    <pattern id="pattern7312" height="15" patternTransform="translate(-110 111)" patternUnits="userSpaceOnUse" width="15">
      <rect fill="url(#pattern7315)" height="15" width="15"/>
    </pattern>
    <pattern id="pattern7315" patternTransform="scale(.5)" xlink:href="#pattern7310"/>
    <pattern id="pattern7310" patternTransform="matrix(.5 0 0 .5 -110 111)" xlink:href="#pattern7285"/>
    <pattern id="pattern7285" height="30" patternTransform="translate(-110 96)" patternUnits="userSpaceOnUse" width="30">
      <rect fill="url(#linearGradient7288)" fill-rule="evenodd" height="30" width="30"/>
    </pattern>
    <linearGradient id="linearGradient7288" gradientUnits="userSpaceOnUse" x1="0" x2="30" y1="15" y2="15">
      <stop offset="0" stop-color="#fff"/>
      <stop offset=".125" stop-color="#fff" stop-opacity="0"/>
      <stop offset=".25" stop-color="#fff"/>
      <stop offset=".375" stop-color="#fff" stop-opacity="0"/>
      <stop offset=".5" stop-color="#fff"/>
      <stop offset=".625" stop-color="#fff" stop-opacity="0"/>
      <stop offset=".75" stop-color="#fff"/>
      <stop offset=".875" stop-color="#fff" stop-opacity="0"/>
      <stop offset="1" stop-color="#fff"/>
    </linearGradient>
    <radialGradient id="radialGradient10754" cx="116.43587" cy="114.13341" gradientTransform="matrix(-1.3448685 .2768848 -.04251256 -.2064895 276.56335 99.28247)" gradientUnits="userSpaceOnUse" r="43.339317">
      <stop offset="0" stop-color="#e9e9e9"/>
      <stop offset="1" stop-color="#b7b7b7" stop-opacity="0"/>
    </radialGradient>
    <radialGradient id="radialGradient10762" cx="226.71352" cy="134.74751" gradientTransform="matrix(-1.2963894 -.7527054 .2603687 -.4484347 485.53848 349.82298)" gradientUnits="userSpaceOnUse" r="39.191959">
      <stop offset="0" stop-color="#575757"/>
      <stop offset="1" stop-color="#575757" stop-opacity="0"/>
    </radialGradient>
    <linearGradient id="linearGradient3048" gradientUnits="userSpaceOnUse" x1="197.5" x2="79.5" xlink:href="#linearGradient7043" y1="242.5" y2="72.5"/>
    <clipPath id="clipPath3395">
      <path d="m177.125 33.5 2.46875 40.9375h-20.03125l1.0625-17.9375-80.75 17.84375-16.6875 49.53125 1.09375-.21875c-.05438.1788-.118472.3457-.15625.53125-.0017.01.0016.0216 0 .0312-.07572.38194-.125.78267-.125 1.1875v129 4c0 3.324 2.676 5.99999 6 6h188.03125c3.324 0 6-2.67601 6-6v-133c0-.6925-.1298-1.35084-.34375-1.96875l.875.4375-16.6875-49.53125z"/>
    </clipPath>
    <filter id="filter3403" height="1.05687" width="1.067519" x="-.033208" y="-.030247">
      <feGaussianBlur stdDeviation="2.1614063"/>
    </filter>
    <radialGradient id="radialGradient3046" cx="123.92844" cy="96.000328" gradientTransform="matrix(.5664145 0 0 .02407044 84.965404 93.68923)" gradientUnits="userSpaceOnUse" r="105.22703">
      <stop offset="0" stop-color="#ecedee"/>
      <stop offset="1" stop-color="#fff" stop-opacity="0"/>
    </radialGradient>
    <linearGradient id="linearGradient3521" gradientUnits="userSpaceOnUse" x1="26.94003" x2="28.94003" xlink:href="#linearGradient114" y1="163.171333" y2="163.171333"/>
    <linearGradient id="linearGradient3543" gradientUnits="userSpaceOnUse" x1="34.940028" x2="47.190028" xlink:href="#linearGradient111" y1="69.279355" y2="73.279353"/>
    <linearGradient id="linearGradient3566" gradientUnits="userSpaceOnUse" x1="-226.87752" x2="-224.87752" xlink:href="#linearGradient114" y1="163.171333" y2="163.171333"/>
    <linearGradient id="linearGradient3563" gradientTransform="matrix(-1 0 0 1 264.84576 -26.916957)" gradientUnits="userSpaceOnUse" x1="45.968239" x2="58.218239" xlink:href="#linearGradient111" y1="96.196312" y2="100.19631"/>
    <linearGradient id="linearGradient3595" gradientUnits="userSpaceOnUse" x1="132.19003" x2="132.19003" y1="45.466853" y2="46.314311">
      <stop offset="0" stop-color="#8f5902"/>
      <stop offset="1" stop-color="#8f5902" stop-opacity="0"/>
    </linearGradient>
    <radialGradient id="radialGradient3607" cx="150.25972" cy="66.984177" gradientTransform="matrix(2.074847 0 0 .05985957 -177.83359 42.333126)" gradientUnits="userSpaceOnUse" r="10.203125" xlink:href="#linearGradient7516"/>
    <filter id="filter33471" color-interpolation-filters="sRGB" height="1.711024" width="1.051475" x="-.025737" y="-.355512">
      <feGaussianBlur stdDeviation="2.0950762"/>
    </filter>
    <linearGradient id="linearGradient6461" gradientTransform="matrix(.570505 .250844 -.110099 .546328 .110185 3.033726)" gradientUnits="userSpaceOnUse" x1="69.38903" x2="73.262238" y1="40.715862" y2="50.786686">
      <stop offset=".14228575" stop-color="#eeeeec"/>
      <stop offset="1" stop-color="#888a85"/>
    </linearGradient>
    <linearGradient id="lg1">
      <stop offset=".0506" stop-color="#eeeeec"/>
      <stop offset="1" stop-color="#888a85"/>
    </linearGradient>
    <linearGradient id="linearGradient6448" gradientTransform="matrix(.560463 .274746 -.13357 .539914 1.395543 3.119901)" gradientUnits="userSpaceOnUse" x1="95.441078" x2="99.059341" xlink:href="#lg1" y1="5.963595" y2="29.523973"/>
    <linearGradient id="linearGradient6436" gradientTransform="matrix(-.51451332 -.05057044 .14599313 .67382892 56.591096 16.005981)" gradientUnits="userSpaceOnUse" x1="72.396629" x2="74.464485" xlink:href="#lg1" y1="48.59428" y2="62.207611"/>
    <linearGradient id="linearGradient6420" gradientTransform="matrix(-.156792 .523774 .559484 .295063 9.795377 -13.2334)" gradientUnits="userSpaceOnUse" x1="76.5718" x2="89.783051" y1="19.349098" y2="25.934769">
      <stop offset=".12090596" stop-color="#eeeeec"/>
      <stop offset="1" stop-color="#888a85"/>
    </linearGradient>
    <linearGradient id="linearGradient6377" gradientTransform="matrix(.570505 .250844 -.110099 .546328 .110185 3.033726)" gradientUnits="userSpaceOnUse" x1="67.754547" x2="74.460861" xlink:href="#lg1" y1="35.02647" y2="54.730289"/>
    <linearGradient id="linearGradient6365" gradientTransform="matrix(.560463 .274746 -.13357 .539914 1.395543 3.119901)" gradientUnits="userSpaceOnUse" x1="96.339615" x2="98.246338" xlink:href="#lg1" y1=".185332" y2="23.648603"/>
    <linearGradient id="linearGradient6353" gradientTransform="matrix(.51786687 .35789815 -.11149267 .57813568 1.413056 -6.021786)" gradientUnits="userSpaceOnUse" x1="63.207859" x2="62.433239" xlink:href="#lg1" y1="46.493965" y2="63.098106"/>
    <linearGradient id="linearGradient6338" gradientTransform="matrix(.570505 .250844 -.110099 .546328 .110185 3.033726)" gradientUnits="userSpaceOnUse" x1="27.954912" x2="25.918264" xlink:href="#lg1" y1="42.969303" y2="89.180267"/>
    <linearGradient id="linearGradient6284" gradientTransform="matrix(.580929 .249663 -.00056793 .583821 -8.408264 15.05131)" gradientUnits="userSpaceOnUse" x1="67.507668" x2="67.70491" xlink:href="#lg1" y1="83.804214" y2="99.824646"/>
    <linearGradient id="linearGradient6267" gradientTransform="matrix(.580929 .249663 -.00056793 .583821 -8.408264 15.05131)" gradientUnits="userSpaceOnUse" x1="67.357697" x2="69.544731" y1="89.646561" y2="98.448601">
      <stop offset=".17636304" stop-color="#eeeeec"/>
      <stop offset="1" stop-color="#888a85"/>
    </linearGradient>
    <linearGradient id="linearGradient5103" gradientUnits="userSpaceOnUse" x1="61.8757120519" x2="71.32480531225" y1="13.19703130722" y2="37.67032810663">
      <stop offset=".0506" stop-color="#515151"/>
      <stop offset="1" stop-color="#343633"/>
    </linearGradient>
    <linearGradient id="linearGradient5105" gradientUnits="userSpaceOnUse" x1="61.82560606948" x2="71.97020678139" y1="13.10196284978" y2="23.08235161424">
      <stop offset="0" stop-color="#fff"/>
      <stop offset="1" stop-color="#373836"/>
    </linearGradient>
    <linearGradient id="linearGradient5107" gradientUnits="userSpaceOnUse" x1="63.28642516706" x2="70.73958326376" y1="13.04057649109" y2="22.27089821256">
      <stop offset="0" stop-color="#fff"/>
      <stop offset=".1332" stop-color="#fafafa"/>
      <stop offset=".2876" stop-color="#ecedec"/>
      <stop offset=".4525" stop-color="#d5d6d5"/>
      <stop offset=".6249" stop-color="#b5b6b4"/>
      <stop offset=".8032" stop-color="#8c8d8a"/>
      <stop offset=".9838" stop-color="#5a5c58"/>
      <stop offset="1" stop-color="#555753"/>
    </linearGradient>
    <linearGradient id="linearGradient5109" gradientUnits="userSpaceOnUse" x1="64.06323537547" x2="66.03584843994" y1="17.93776327601" y2="21.39476491729">
      <stop offset="0" stop-color="#a9ada4"/>
      <stop offset="1" stop-color="#3f403d"/>
    </linearGradient>
    <linearGradient id="linearGradient5111" gradientUnits="userSpaceOnUse" x1="61.14493450609" x2="70.97301783209" y1="21.27959183773" y2="37.52173029575">
      <stop offset=".03168736" stop-color="#fff"/>
      <stop offset=".1352" stop-color="#f0f0f0"/>
      <stop offset=".384" stop-color="#cacac9"/>
      <stop offset=".7233" stop-color="#8c8d8b"/>
      <stop offset="1" stop-color="#555753"/>
    </linearGradient>
    <linearGradient id="linearGradient5113" gradientUnits="userSpaceOnUse" x1="61.91044589997" x2="70.26385761429" y1="19.1803055948" y2="37.46163384728">
      <stop offset="0" stop-color="#eeeeec"/>
      <stop offset="1" stop-color="#babdb6"/>
    </linearGradient>
    <linearGradient id="linearGradient5115" gradientUnits="userSpaceOnUse" x1="63.98979807474" x2="68.26803308023" y1="18.69369445522" y2="19.3222525702">
      <stop offset=".0506" stop-color="#fff"/>
      <stop offset=".9326" stop-color="#d3d7cf"/>
      <stop offset="1" stop-color="#888a85"/>
    </linearGradient>
    <linearGradient id="linearGradient5117" gradientUnits="userSpaceOnUse" x1="65.39402322576" x2="67.48797312779" y1="14.14169271543" y2="22.63634230025">
      <stop offset=".0506" stop-color="#fff"/>
      <stop offset="1" stop-color="#d3d7cf"/>
    </linearGradient>
  </defs>
  <g>
    <path d="m34.992592 220.13875h191.449038l1.95754 14.1435h-195.364121z" filter="url(#filter33471)" opacity=".601" stroke-width="4" transform="matrix(1.0216889 0 0 1.0216889 -6.395293 -2.437866)"/>
    <rect fill="url(#linearGradient3577)" height="1.6875" opacity=".774775" rx="0" width="25.3125" x="119.62753" y="45.466854"/>
    <g enable-background="new" transform="translate(-11.028211 -26.916957)">
      <path d="m58.96824 72.38381c-3.324 0-5.028791 3.113595-6 6l-14.53125 42.625c-.334106.7393-.38968 1.54824-.46875 2.34375h200.03125l-.46875-2.34375-14.53125-43.34375c-.96949-2.887139-2.676-5.28125-6-5.28125z" fill="url(#linearGradient3423)" fill-rule="evenodd"/>
      <path d="m48.646671 94.35256-.678431 2h180l-.64759-2z" fill="url(#linearGradient2981)" fill-rule="evenodd"/>
      <path d="m43.96824 117.35256c-3.324 0-6 2.676-6 6v129 4c0 3.324 2.676 5.99999 6 6h188.03125c3.324 0 6-2.67601 6-6v-133c0-3.324-2.676-6-6-6z" fill="url(#linearGradient2983)" fill-rule="evenodd"/>
      <rect fill="url(#radialGradient3050)" fill-rule="evenodd" height="40" mask="url(#mask6971)" transform="translate(7.96824 26.35256)" width="210.45406" x="25" y="76"/>
      <path d="m43.96824 117.35256c-3.324 0-6 2.676-6 6v129 4c0 3.324 2.676 5.99999 6 6h18.03125c3.324 0 6-2.67601 6-6v-133c0-3.324-2.676-6-6-6z" fill="url(#linearGradient2987)" fill-rule="evenodd" opacity=".332075"/>
      <path d="m63.96824 76.13381c-3.324-.000002-5.028791 2.993949-6 5.78125l-12.53125 34.1875c-.334106.71391-.38968 1.48181-.46875 2.25l93 4v-49.21875z" fill="url(#linearGradient2989)" fill-rule="evenodd" filter="url(#filter7408)" opacity=".74717"/>
      <rect fill="url(#linearGradient2991)" fill-rule="evenodd" height="2" opacity=".524528" width="173" x="51.968239" y="96.352562"/>
      <path d="m43.96824 217.35256c-3.324 0-6 2.676-6 6v29 4c0 3.324 2.676 5.99999 6 6h188.03125c3.324 0 6-2.67601 6-6v-33c0-3.324-2.676-6-6-6z" fill="url(#linearGradient2993)" fill-rule="evenodd" opacity=".286792"/>
      <path d="m43.96824 237.35256c-3.324 0-6 2.676-6 6v9 4c0 3.324 2.676 5.99999 6 6h188.03125c3.324 0 6-2.67601 6-6v-13c0-3.324-2.676-6-6-6z" fill="url(#linearGradient2995)" fill-rule="evenodd" opacity=".207547"/>
      <path d="m223.96824 121.35256c-3.324 0-6 2.676-6 6v125 4c0 3.324 2.676 5.99999 6 6h8.03125c3.324 0 6-2.67601 6-6v-129c0-3.324-2.676-6-6-6z" fill="url(#linearGradient2997)" fill-rule="evenodd" opacity=".1"/>
      <path d="m149 45.03125c-3.324 0-5.02879 3.113595-6 6l-14.53125 42.625c-.33411.739297-.38968 1.548244-.46875 2.34375h99.03125l-.46875-2.34375-15.53125-36.094861c-.96949-2.887139-2.676-5.28125-6-5.28125z" fill="url(#linearGradient2999)" fill-rule="evenodd" filter="url(#filter7510)" opacity=".656604" transform="matrix(1 0 0 .9656652 7.96824 29.648697)"/>
      <path d="m153.99091 82.352829 78.21133 39.281571c1.53417.88575 6.3409.18471 6.3409.18471l-16.69184-46.535398-70.74665-40.827361z" fill="url(#linearGradient3001)" fill-rule="evenodd"/>
      <g transform="translate(7.96824 26.35256)">
        <path d="m123.74846 79s-76.631238 15.376004-82.052182 16.828542c-5.479999 1.468361-12.531877-.0119-12.531877-.0119l16.72367-46.885759 80.746649-17.827361z" fill="#a4b1b2" fill-rule="evenodd"/>
        <path d="m123.74846 78s-85.308959 17.563293-85.308959 17.563293c-2.886862.773532-8.803091.0284-8.803091.0284l16.251661-47.66081 80.746649-17.827361z" fill-rule="evenodd" opacity=".166038"/>
        <path d="m123.74846 76-94.552228 19.466285 16.691839-49.535402 80.746649-17.827361z" fill="url(#radialGradient3003)" fill-rule="evenodd"/>
      </g>
      <path d="m153.99091 81.352829 79.48505 39.921291c1.02969.59449 4.19218.41999 4.19218.41999l-15.81684-47.410398-70.74665-40.827361z" fill-rule="evenodd" opacity=".15"/>
      <path d="m153.99091 79.35256 84.55223 42.46628-16.69184-49.535397-70.74665-40.827361z" fill="url(#linearGradient3005)" fill-rule="evenodd"/>
      <path d="m71.71824 68.35256-17.875 3.9375-16.6875 49.53125 34.5625-7.125z" fill="url(#linearGradient3007)" fill-rule="evenodd" opacity=".45283"/>
      <path d="m134.59324 54.44631-3.875 46.90625-93.5625 20.46875 94.5625-19.46875z" fill="url(#radialGradient3009)" fill-rule="evenodd" opacity=".271698"/>
      <path d="m151.09324 31.44631 2.90625 47.90625 84.53125 42.46875-83.53125-43.46875z" fill="url(#radialGradient3011)" fill-rule="evenodd" opacity=".550943"/>
      <rect fill="url(#linearGradient3052)" fill-rule="evenodd" height="149.5" mask="url(#mask7322)" opacity=".15" transform="translate(7.96824 28.35256)" width="210.5" x="25" y="91"/>
      <path d="m131.08463 104.2786s-2.01842-1.01777-3.6757-.66421c-1.65728.35355-.99436 1.65728-2.91681 2.12132s-2.38649-.99437-4.24265-.61872c-1.85615.37565-1.25953 1.70147-3.09359 2.12132-1.83406.41984-2.58536-1.10486-4.68458-.70711s-1.78986 1.96664-3.88909 2.2981c-2.09922.33145-2.51906-1.06066-4.77296-.53033-2.25391.53033-1.45841 1.92245-3.97748 2.47487-2.519067.55243-2.784232-.81759-5.126523-.35355-2.342292.46404-2.143418 1.72357-4.419418 2.12132s-3.292466-.48614-5.480078-.0884c-2.187611.39775-1.347921 1.54679-3.535533 1.85615s-2.96101-.59662-5.038136-.17677c-2.077126.41984-1.126952 1.63518-2.828428 1.94454s-2.386485-.83969-4.154252-.44194-.928077 1.5468-3.093592 1.94454c-2.165514.39775-2.695845-.7513-4.861359-.35355-2.165515.39775-1.635185 1.70148-3.889088 2.20971s-3.204077-.59662-5.391688-.17678c-2.187612.41985-1.546796 1.25953-3.181981 1.85616-1.635184.59662-3.800699-.17678-3.800699-.17678" fill="none" stroke="url(#radialGradient10754)" stroke-width=".5"/>
      <path d="m233.53048 121.07169s-.94261-2.00808-2.46304-2.75633c-1.52042-.74824-1.80684.68603-3.60392-.13959-1.79707-.82562-1.25872-2.25826-2.94901-3.11227-1.69029-.85399-2.04246.55659-3.74276-.24902-1.70031-.80562-1.34651-2.46814-3.24138-3.45526-1.89488-.98711-2.62312.43655-4.47695-.60263-1.85384-1.03918-1.32179-2.39239-3.42023-3.37114-2.09842-.97873-2.33544.60703-4.65579-.51851-2.32036-1.12553-1.68052-2.36564-3.80733-3.45116s-2.75031.0268-4.78401-1.06976c-2.03372-1.09655-2.28486-2.41994-4.24914-3.461771-1.96431-1.04183-2.01613.38039-3.92571-.730857-1.90958-1.111252-1.95614-2.301531-3.84737-3.257615-1.89118-.956082-1.89727.586596-3.42508-.22372-1.52777-.810308-1.35445-2.136773-2.98902-2.918707-1.63455-.781932-1.68639.640286-3.63333-.387861-1.94694-1.028154-1.65214-2.25887-3.59907-3.287017-1.94695-1.028154-2.3375.324038-4.42223-.672052-2.08475-.996094-2.14704-2.452001-4.12502-3.476476-1.97797-1.024474-1.99449.03168-3.64805-.511996-1.65352-.543666-2.87548-2.491596-2.87548-2.491596" fill="none" opacity=".601942" stroke="#d7d7d7" stroke-width=".5"/>
      <path d="m233.90548 121.32169s-.94261-2.00808-2.46304-2.75633c-1.52042-.74824-1.80684.68603-3.60392-.13959-1.79707-.82562-1.25872-2.25826-2.94901-3.11227-1.69029-.85399-2.04246.55659-3.74276-.24902-1.70031-.80562-1.34651-2.46814-3.24138-3.45526-1.89488-.98711-2.62312.43655-4.47695-.60263-1.85384-1.03918-1.32179-2.39239-3.42023-3.37114-2.09842-.97873-2.33544.60703-4.65579-.51851-2.32036-1.12553-1.68052-2.36564-3.80733-3.45116s-2.75031.0268-4.78401-1.06976c-2.03372-1.09655-2.28486-2.41994-4.24914-3.461771-1.96431-1.04183-2.01613.38039-3.92571-.730857-1.90958-1.111252-1.95614-2.301531-3.84737-3.257615-1.89118-.956082-1.89727.586596-3.42508-.22372-1.52777-.810308-1.35445-2.136773-2.98902-2.918707-1.63455-.781932-1.68639.640286-3.63333-.387861-1.94694-1.028154-1.65214-2.25887-3.59907-3.287017-1.94695-1.028154-2.3375.324038-4.42223-.672052-2.08475-.996094-2.14704-2.452001-4.12502-3.476476-1.97797-1.024474-1.99449.03168-3.64805-.511996-1.65352-.543666-2.87548-2.491596-2.87548-2.491596" fill="none" opacity=".601942" stroke="url(#radialGradient10762)" stroke-width=".5"/>
    </g>
    <path d="m176.125 32 3.46875 42.4375h-20.03125l1.8125-18.6875-81.5 18.59375-16.6875 49.53125 1.09375-.21875c-.05438.1788-.118472.3457-.15625.53125-.0017.01.0016.0216 0 .0313-.07572.38194-.125.78267-.125 1.1875v129 4c0 3.324 2.676 5.99999 6 6h188.03125c3.324 0 6-2.67601 6-6v-133c0-.6925-.1298-1.35084-.34375-1.96875l.875.4375-16.6875-49.5313z" style="opacity:.5;fill:none;stroke-width:2;stroke-linecap:round;stroke-dashoffset:.7;clip-path:url(#clipPath3395);stroke:url(#linearGradient3048);filter:url(#filter3403)" transform="translate(-37.05997 -28.970647)"/>
    <rect fill="url(#radialGradient3046)" fill-rule="evenodd" height="40" mask="url(#mask6971)" opacity=".684685" transform="translate(-3.059971 -.564397)" width="210.45406" x="25" y="76"/>
    <rect fill="url(#linearGradient3521)" height="138.1909" opacity=".743243" rx="2.008008" ry="2.058615" width="4.057539" x="26.940029" y="94.782997"/>
    <path d="m47.69003 44.310603-4.875 1.0625-16.6875 49.53125 21.5625-4.4375z" fill="url(#linearGradient3543)" fill-rule="evenodd" opacity=".55"/>
    <rect fill="url(#linearGradient3566)" height="138.1909" opacity=".774775" rx="2.008008" ry="2.058615" transform="scale(-1 1)" width="4.057539" x="-226.87752" y="94.782997"/>
    <path d="m206.12752 44.310603 4.875 1.0625 16.6875 49.53125-21.5625-4.4375z" fill="url(#linearGradient3563)" fill-rule="evenodd" opacity=".774775"/>
    <path d="m122.50252 45.466853-.1875 2.8125h20.40625l-.1875-2.8125z" fill="url(#linearGradient3595)" opacity=".15"/>
    <path d="m122.50252 45.466853-.1875 2.8125h20.40625l-.1875-2.8125z" fill="url(#radialGradient3607)" opacity=".3"/>
  </g>
  <g transform="matrix(2.193102 .10003524 0 2.193102 61.92916 34.47361)">
    <g id="g73">
      <path d="m32.14923 84.920492c-.338883.01135-.474519.218397-.644055.465373-.337393-.259944-.772369-.422698-1.259822-.408006-1.047094.03156-1.898706.814118-1.899752 1.744239l-.0012 1.124675c-.000349.310974.282396.554614.631312.545088l6.356301-.173639c.35347-.0097.639628-.27043.639985-.583393l.0026-2.26373c.000358-.312967-.285225-.557307-.6387-.546662z" fill-opacity=".656805" opacity=".99"/>
      <path d="m32.149233 84.918227-.636572 1.146822c.000705-.623041-.567381-1.110538-1.267305-1.089442-.699742.02109-1.266472.541724-1.267171 1.163445l-.0012 1.125282 6.356322-.179627.0026-2.262535z" fill="url(#linearGradient6267)" opacity=".99"/>
      <path d="m32.541543 85.470719c-.184795.332152-.461246.829909-.461246.829909-.109526.197209-.331388.321459-.568274.328307 1.525198-.04383 2.608978-.07497 3.18256-.09144.000483-.423981.000804-.706655.0012-1.130641-.689637.02046-1.687922.05008-2.154326.06392zm-2.930741.649859-.000635.562946c.34189-.0098.988213-.0284 1.901221-.05464-.04762.0014-.0965-.0023-.14537-.01043-.286159-.05206-.488275-.273352-.487979-.534834.000351-.311076-.284092-.555087-.633319-.54473-.349022.01035-.633569.270987-.633918.581726z" fill="url(#linearGradient6284)" opacity=".99"/>
    </g>
    <use id="use86" transform="matrix(-1.0009828 .05633702 -.03490719 1.0009828 63.648518 -4.169178)" xlink:href="#g73"/>
    <use transform="translate(.005108 -4.711038)" xlink:href="#g73"/>
    <use transform="translate(-.105099 -4.642561)" xlink:href="#use86"/>
    <use transform="translate(.010289 -9.441807)" xlink:href="#g73"/>
    <use transform="translate(-.105099 -9.395015)" xlink:href="#use86"/>
    <use transform="translate(.015903 -14.5762)" xlink:href="#g73"/>
    <use transform="translate(-.070066 -14.534428)" xlink:href="#use86"/>
    <use transform="translate(.021047 -19.297309)" xlink:href="#g73"/>
    <use transform="translate(-.140132 -19.178587)" xlink:href="#use86"/>
    <use transform="translate(.026009 -23.968525)" xlink:href="#g73"/>
    <use transform="translate(-.105099 -23.967672)" xlink:href="#use86"/>
    <use transform="translate(.031975 -28.739825)" xlink:href="#g73"/>
    <use transform="translate(0 -28.636437)" xlink:href="#use86"/>
    <use transform="translate(.03712 -33.461194)" xlink:href="#g73"/>
    <use transform="translate(-.099088 -33.338598)" xlink:href="#use86"/>
    <use transform="translate(.041344 -38.105365)" xlink:href="#g73"/>
    <g transform="matrix(.99496515 .06472944 -.06459504 1.000858 3.090795 -4.050958)">
      <path d="m33.227127 42.257508c-.509974.09392-.998712.361229-1.37689.751345l-.939441.971061c-.105739.109164-.171581.233879-.196464.354031-.03666.177024.01322.346419.152845.451227l4.278678 3.21975c.236514.178952.641065.106139.902705-.162741l1.89763-1.945366c.126142-.12973.202011-.28737.210059-.439646.008-.151708-.05201-.285855-.166426-.370866l-2.153378-1.610759c-.16277-.121725-.412543-.129105-.64587-.01818 0 0-.147207.06984-.194604.09199.000289-.407135-.114928-.789339-.446847-1.037739-.34209-.25803-.811592-.348154-1.321997-.254157z" fill-opacity=".656805" opacity=".99"/>
      <path d="m35.486427 43.376937-1.374419.652073c.521818-.53832.560468-1.261231.08733-1.616112-.473265-.355156-1.279345-.205776-1.800303.332371l-.940299.971714 4.283024 3.216958 1.896786-1.94689z" fill="url(#linearGradient6461)" opacity=".99"/>
      <path d="m33.286423 42.814788c-.170306.03145-.333372.120536-.459313.251198 0 0-.235572.242529-.471292.486128.615688.461777 2.810857 2.108896 3.429424 2.572829.355457-.36484.59242-.607601.947716-.973352-.465251-.348299-1.139024-.853095-1.454285-1.088605-.397574.188353-.994251.471557-.994251.471557-.284324.134661-.586647.09144-.730133-.105454-.142827-.196873-.08964-.494836.129244-.720942.259859-.268167.279402-.630576.04333-.807736-.113854-.0862-.270825-.116465-.440432-.08563z" fill="url(#linearGradient6377)" opacity=".99"/>
    </g>
    <g id="g82" transform="translate(0 -1.783584)">
      <path d="m53.411674 31.212847-1.313678.339155c-.174719.04511-.339404.148473-.458718.288412-.08012.09309-.135179.197532-.161659.301934-.01324.0522-.01882.104231-.01771.154919l.18485 5.759725c.0044.152692.0784.282112.205211.358733.12668.07724.295797.09528.470429.05173l2.63334-.665561c.30478-.07712.555542-.323332.623099-.588526.01302-.05111.01943-.103914.01783-.155366l-.09245-2.888985c-.0069-.218967-.155002-.382898-.381664-.423697 0 0-.12955-.02304-.164799-.0301.202167-.257329.364848-.530063.436061-.809896.03997-.157081.05792-.315494.05326-.470422-.01412-.461792-.233671-.844139-.617907-1.075427-.383997-.231141-.887036-.283624-1.415494-.14663z" fill-opacity=".656805" opacity=".99"/>
      <path d="m54.995956 33.732941-1.33611-.240106c.726429-.186248 1.300459-.85472 1.279498-1.492687-.01967-.637977-.626765-1.002789-1.355182-.814541l-1.314688.339244.185088 5.76342 2.633922-.668167z" fill="url(#linearGradient6448)" opacity=".99"/>
      <path d="m53.602563 31.76255s-.329028.08443-.658035.169412c.02715.830347.121365 3.782553.148513 4.613057.493371-.125651.822566-.208872 1.317241-.334702-.01982-.6246-.04938-1.529478-.06251-1.95203-.386797-.06928-.966308-.174003-.966308-.174003-.276476-.04991-.428363-.28156-.367177-.560019.0015-.006.0032-.01261.0047-.01859.06881-.270884.323381-.513496.621143-.58978.175852-.04501.33886-.147165.459422-.287859.07996-.09382.135597-.197277.162045-.301311.0133-.05232.01906-.105067.01761-.157065-.0047-.154768-.0776-.28173-.205383-.358414-.127116-.07668-.294654-.09446-.47129-.04867z" fill="url(#linearGradient6365)" opacity=".99"/>
    </g>
    <g transform="translate(.630592 -1.672216)">
      <path d="m28.558039 44.968315c-.45295.150032-.805959.455439-1.041627.822192-.02235-.02226-.107568-.107824-.107568-.107824-.153909-.153096-.391635-.202382-.614346-.128344l-2.928727.972766c-.154671.05042-.286387.158-.366185.297279-.07919.139327-.09974.298192-.05807.444537l.639483 2.192799c.08889.301983.421699.462124.745058.355458l5.881308-1.935685c.326126-.107852.518556-.441431.428848-.746187l-.323487-1.103127c-.129539-.441939-.436119-.795534-.861866-.997357-.425682-.200523-.920703-.224506-1.392812-.06651z" fill-opacity=".654902" opacity=".99"/>
      <path d="m26.931642 45.870162.986971.870707c-.213432-.585534.151692-1.227972.815528-1.437576.665151-.209757 1.377972.09467 1.592242.682231l.388518 1.062085-6.007081 1.878919-.768015-2.115019z" fill="url(#linearGradient6436)" opacity=".99"/>
      <path d="m28.982731 45.862167c-.333437.09763-.522698.417241-.422522.711267.08483.248115-.0346.519738-.287497.656708-.253322.136287-.574337.102045-.774988-.08299 0 0-.420002-.387189-.700433-.645221-.441439.129174-1.384667.405392-2.035049.596619.135994.399476.226648.666056.362614 1.066322.866936-.253407 3.956917-1.155256 4.828607-1.41032-.0917-.266958-.183171-.534968-.183171-.534968-.049-.143551-.157631-.259417-.30627-.32676-.148708-.06677-.319558-.07814-.481291-.03065z" fill="url(#linearGradient6353)" opacity=".99"/>
    </g>
    <g id="g94" transform="translate(0 -1.783584)">
      <path d="m8.6133628 34.048028c-.426465.31936-.7339511.747358-.8651831 1.204946-.013908.04816-.025308.09561-.034905.142937-.077926.384289.00552.722305.1786748.997306-.036105.01469-.165915.06842-.165915.06842-.2271662.09364-.4092746.289076-.4721039.505677l-.8221634 2.851748c-.00443.01601-.00826.03198-.011373.04734-.059413.293086.126319.527669.4334625.534083l2.3511735.04625c.1560438.0031.3232196-.05418.4650729-.159024.1412873-.104835.2456015-.24977.289473-.401262l1.6553679-5.727361c.044-.15193.02395-.299142-.05627-.407995-.07949-.10945-.212665-.17134-.36983-.173511l-1.179709-.01553c-.4727358-.0063-.9682753.165771-1.3957746.485972z" fill-opacity=".656805" opacity=".99"/>
      <path d="m7.9571605 36.404308 1.3422274-.554011c-.6510193-.010548-1.0293038-.530488-.8472769-1.162169.181489-.63184.856289-1.136677 1.5086321-1.127424l1.1796059.01554-1.6540472 5.725892-2.3522959-.04398z" fill="url(#linearGradient6420)" opacity=".99"/>
      <path d="m9.3293446 34.295149c-.1418806.106107-.2442935.248524-.28833.401241 0 0-.0084.03266-.011649.04865-.059563.293429.1274815.528255.4353805.533382.2731718.0045.457931.190662.4462698.449657-.0009945.02825-.00499.0567-.010677.08469-.046771.230192-.2365193.451332-.4851669.553803 0 0-.5830798.240636-.9716452.400754-.1210893.418655-.3790865 1.313545-.5571319 1.931306.4412875.008.7351805.01369 1.1764175.02171.2379272-.823797 1.0835846-3.753352 1.3218376-4.578097-.294288-.0041-.5884388-.0081-.5884388-.0081-.1589326-.0032-.3248277.05431-.4668663.161018z" fill="url(#linearGradient6338)" opacity=".99"/>
    </g>
    <g opacity=".99" transform="matrix(.756163 .324971 -.00073922 .759926 -19.53139 11.895438)">
      <path d="m65.893688 12.252346-.0066.0033c-3.989627 1.961344-7.271106 6.637559-7.486602 10.653354-.0025.03736-.0034.0732-.0034.109355-.00011.764394.444647 1.262326 1.180485 1.309911.162874.0102.323275.110977.480381.217083l-.0023 15.687565c-.00018 1.221588 1.119599 1.684485 2.497966 1.03069l6.700876-3.1784c1.392488-.660493 2.527639-2.200335 2.527843-3.430995l.0026-15.836813c.151093-.242292.303903-.484707.458416-.643882.749352-.772175 1.201751-1.713102 1.201881-2.484788.000006-.03576-.000834-.07184-.0025-.106773-.203152-3.570258-3.167051-5.126259-6.880301-3.625704-.0025.0012-.661172.292412-.661172.292412-.0059.0029-.0075.003-.0075.0037zm.843409 13.677243-.000117.741717-1.675248.807918.000115-.740934z" fill="url(#linearGradient5103)"/>
      <path d="m59.228892 22.541519c-.02915.551579.272333.912754.785949.945733 1.012418.06336 1.69265 1.130101 1.692423 2.652468-.000122.815524.747518 1.117429 1.667947.672675l5.025672-2.428413c.928199-.448507 1.682426-1.479626 1.682559-2.299472.000249-1.531179.689578-3.270151 1.716-4.328489.522577-.539207.827558-1.199749.798083-1.72659-.19536-3.453782-3.149458-4.781498-6.710653-3.032439-3.545283 1.741243-6.463081 5.930269-6.65798 9.544527z" fill="url(#linearGradient5105)"/>
      <path d="m60.074173 21.427346c-.01501.275415.136301.456487.393297.472357 1.268743.07907 2.088837 1.290998 2.088566 3.089381-.000061.409092.373655.558815.83443.335737l5.02578-2.433162c.464814-.225033.840785-.739106.840852-1.149931.000291-1.806004.828707-3.827172 2.113999-5.154239.261527-.269512.41345-.600235.399149-.863347-.17498-3.06457-2.75706-4.262619-5.869135-2.734144-3.099915 1.522504-5.65434 5.22574-5.826938 8.437348z" fill="url(#linearGradient5107)"/>
      <path d="m70.469924 17.436907c.147463-.180356.298323-.357924.456796-.521373-.02269-.400172-.0968-.760385-.207144-1.08727l-9.610284 4.688602c-.10828.431195-.18243.861221-.204965 1.280845.156489.0095.30551.04039.451229.07734z" fill="url(#linearGradient5109)"/>
      <path d="m62.556593 21.290216c-.919487.447735-1.666558 1.474346-1.666679 2.289458l-.0024 16.257465c-.000121.815069.74673 1.123264 1.666187.686712l6.700884-3.181533c.928336-.440768 1.684202-1.466654 1.684336-2.286908l.0027-16.360903c.000135-.820299-.755537-1.119378-1.683903-.66732zm1.669522 2.149047 3.350523-1.62524-.000824 5.194792-3.350494 1.614269zm3.348639 10.248444-.000118.742091-3.350452 1.598597.000114-.740524z" fill="url(#linearGradient5111)"/>
      <path d="m69.257697 18.027187-6.701104 3.263029c-.460293.224135-.833718.736453-.833779 1.145333l-.0024 16.266074c-.000061.408859.373254.561727.833534.34276l6.700901-3.187802c.465296-.221354.841657-.732613.841723-1.143638l.0027-16.352272c.000067-.411047-.376197-.560061-.841507-.333484zm-.843263 16.187525c-.000049.307387-.28237.691414-.630042.857136l-3.769255 1.796659c-.345873.164864-.626433.04993-.626386-.256484l.000168-1.110198c.000047-.306415.280684-.689245.626558-.854595l3.769269-1.801948c.347673-.16621.629915-.05168.629866.255706zm.0012-7.610531c-.000066.410602-.375636.923248-.839956 1.14674l-3.35049 1.612702c-.461258.222019-.835365.07127-.835302-.338035l.0009-5.921248c.000062-.409311.374274-.922009.835538-1.146185l3.350532-1.628375c.464325-.225664.839794-.07626.839728.334345z" fill="url(#linearGradient5113)"/>
      <path d="m67.576638 21.814023c-.000065.410391-.375241.923904-.839075 1.148679l-1.675258.811836c-.461749.223765-.836253.07425-.83619-.335275l.0011-7.405609c.000063-.409535.374674-.924184.83643-1.150541l1.675284-.821239c.46384-.227379.838917-.07953.838852.330867z" fill="url(#linearGradient5115)"/>
      <path d="m65.063567 15.624072 1.675282-.820455-.0012 7.417357-1.675261.812619z" fill="url(#linearGradient5117)"/>
    </g>
    <use transform="matrix(.99765731 -.12772889 .12746369 .98602916 -8.946186 8.90942)" xlink:href="#g82"/>
    <use transform="matrix(.97924004 -.25243948 .25191534 .95625852 -17.476245 18.862008)" xlink:href="#g82"/>
    <use transform="matrix(.91773933 -.44165522 .44073822 .87753203 -24.858331 34.379814)" xlink:href="#g82"/>
    <use transform="matrix(.97729064 .17217929 -.1718218 .99296545 10.885163 -.605815)" xlink:href="#g94"/>
    <use transform="matrix(.92233314 .34700771 -.34628723 .95392394 21.804145 .469063)" xlink:href="#g94"/>
    <use transform="matrix(.86928476 .45676053 -.45581217 .91086722 30.066735 3.059376)" xlink:href="#g94"/>
    <use transform="matrix(.72021565 .66239656 -.66102124 .78051874 42.274608 8.577926)" xlink:href="#g94"/>
  </g>
</svg>
