<svg clip-rule="evenodd" fill-rule="evenodd" height="256" stroke-linejoin="round" stroke-miterlimit="2" viewBox="0 0 256 256" width="256" xmlns="http://www.w3.org/2000/svg" xmlns:xlink="http://www.w3.org/1999/xlink">
  <defs>
    <radialGradient id="radialGradient1778" cx="1058.5305" cy="1348.9325" gradientTransform="matrix(.11858786 0 0 .0507365 1.505957 100.58419)" gradientUnits="userSpaceOnUse" r="566.6665">
      <stop offset="0" stop-color="#ff0404"/>
      <stop offset="1" stop-color="#cf0000" stop-opacity=".505882"/>
    </radialGradient>
    <radialGradient id="radialGradient1786" cx="1036.1246" cy="1293.1525" gradientTransform="matrix(.14487757 -.00009666 .00008297 .12435244 -25.84077 2.657398)" gradientUnits="userSpaceOnUse" r="566.6665">
      <stop offset="0" stop-color="#ff8211"/>
      <stop offset="1" stop-color="#f67400" stop-opacity=".509804"/>
    </radialGradient>
    <radialGradient id="radialGradient1794" cx="1068.7084" cy="1230.949" gradientTransform="matrix(1 0 0 1.0940931 0 -115.82387)" gradientUnits="userSpaceOnUse" r="621.16937">
      <stop offset="0" stop-color="#fff129"/>
      <stop offset=".89540935" stop-color="#f9eb20" stop-opacity=".85098"/>
      <stop offset="1" stop-color="#f3e517" stop-opacity=".00026"/>
    </radialGradient>
    <filter id="filter1856" color-interpolation-filters="sRGB" height="1.022968" width="1.025129" x="-.012565" y="-.011484">
      <feGaussianBlur stdDeviation="6.5039325"/>
    </filter>
    <radialGradient id="radialGradient1868" cx="1075.7482" cy="695.21185" gradientTransform="matrix(.07941055 .00003872 -.00003067 .06291313 42.807555 45.520184)" gradientUnits="userSpaceOnUse" r="1076.1154">
      <stop offset="0" stop-color="#00c" stop-opacity="0"/>
      <stop offset=".82797772" stop-color="#002080" stop-opacity="0"/>
      <stop offset="1" stop-color="#03c" stop-opacity=".6"/>
    </radialGradient>
    <linearGradient id="linearGradient1889" gradientUnits="userSpaceOnUse" x1="1.99362241763" x2="252.93349486208" y1="21.79991272877" y2="226.4890683764">
      <stop offset="0" stop-color="#336cff"/>
      <stop offset="1" stop-color="#0049e5"/>
    </linearGradient>
    <radialGradient id="radialGradient1909" cx="1055.3004" cy="1391.2266" gradientTransform="matrix(.11858674 -.00051053 .00029879 .06940276 1.119751 68.660132)" gradientUnits="userSpaceOnUse" r="1066.6665">
      <stop offset="0" stop-color="#00c" stop-opacity="0"/>
      <stop offset=".82740849" stop-color="#002080" stop-opacity="0"/>
      <stop offset="1" stop-color="#03c" stop-opacity=".6"/>
    </radialGradient>
    <linearGradient id="linearGradient1953" gradientUnits="userSpaceOnUse" x1="55.84609379253" x2="201.53637789463" y1="164.57710976754" y2="164.57710976754">
      <stop offset="0" stop-color="#005aff" stop-opacity="0"/>
      <stop offset=".06848272" stop-color="#005aff" stop-opacity=".6"/>
      <stop offset=".93029904" stop-color="#337bff" stop-opacity=".8"/>
      <stop offset="1" stop-color="#337bff" stop-opacity=".3"/>
    </linearGradient>
    <linearGradient id="linearGradient2209" gradientUnits="userSpaceOnUse" x1="182.74978398372" x2="92.67381223706" y1="220.21534366611" y2="11.69691190166">
      <stop offset="0" stop-color="#7cbdff"/>
      <stop offset="1" stop-color="#7cadff" stop-opacity=".6"/>
    </linearGradient>
    <radialGradient id="radialGradient2211" cx="133.0643" cy="168.8109" gradientTransform="matrix(1.0222396 .0025536 -.00291399 1.1665103 -2.329866 -35.475814)" gradientUnits="userSpaceOnUse" r="118.79581">
      <stop offset="0" stop-color="#021bff" stop-opacity=".101961"/>
      <stop offset=".87989956" stop-color="#1a31ff" stop-opacity=".2"/>
      <stop offset="1" stop-color="#fff" stop-opacity=".502408"/>
    </radialGradient>
    <linearGradient id="linearGradient2221" gradientUnits="userSpaceOnUse" x1="115.9312178995" x2="151.60768584563" y1="137.30786627024" y2="196.49128785648">
      <stop offset="0" stop-color="#ffc3c3"/>
      <stop offset="1" stop-color="#ff3939"/>
    </linearGradient>
    <linearGradient id="linearGradient2229" gradientUnits="userSpaceOnUse" x1="94.76886644826" x2="157.97939948548" y1="101.96616873448" y2="220.75703520429">
      <stop offset="0" stop-color="#feed7f" stop-opacity=".937255"/>
      <stop offset="1" stop-color="#fd9813" stop-opacity=".964706"/>
    </linearGradient>
    <linearGradient id="linearGradient2240" gradientUnits="userSpaceOnUse" x1="182.74978398372" x2="120.35540996037" y1="220.21534366611" y2="85.75793646717">
      <stop offset="0" stop-color="#fff" stop-opacity=".3"/>
      <stop offset="1" stop-color="#fff" stop-opacity=".2"/>
    </linearGradient>
    <linearGradient id="linearGradient2244" gradientUnits="userSpaceOnUse" x1="58.09833852192" x2="199.20162391301" y1="164.358077014" y2="164.01395942024">
      <stop offset="0" stop-color="#fff" stop-opacity=".15"/>
      <stop offset=".0339954" stop-color="#fff" stop-opacity=".301961"/>
      <stop offset=".95713049" stop-color="#fff" stop-opacity=".301961"/>
      <stop offset="1" stop-color="#fff" stop-opacity=".3"/>
    </linearGradient>
    <linearGradient id="linearGradient2285" gradientUnits="userSpaceOnUse" x1="125.36552736798" x2="126.2713878252" y1="158.66103611018" y2="176.21931355882">
      <stop offset="0" stop-color="#fff" stop-opacity="0"/>
      <stop offset="1" stop-color="#fff" stop-opacity=".502687"/>
    </linearGradient>
    <linearGradient id="linearGradient2299" gradientUnits="userSpaceOnUse" x1="133.89040875187" x2="137.10216273791" y1="140.23112289326" y2="175.47904621277">
      <stop offset="0" stop-color="#ff8585" stop-opacity="0"/>
      <stop offset="1" stop-color="#fff" stop-opacity=".581196"/>
    </linearGradient>
    <filter id="filter942" color-interpolation-filters="sRGB" height="1.265501" width="2.306722" x="-.653361" y="-.132751">
      <feGaussianBlur stdDeviation="3.5326985"/>
    </filter>
    <filter id="filter2229" color-interpolation-filters="sRGB" height="1.050031" width="1.876473" x="-.438237" y="-.025015">
      <feGaussianBlur stdDeviation="1.0409319"/>
    </filter>
  </defs>
  <path d="m1019.27 602.716c-38.241 95.705-75.074 254.082-119.557 71.882-33.36-129.412-104.645 81.097-156.485 117.182-104.554 79.479-162.418 191.476-208.854 311.462-122.963-104.557-76.841 63.249-84.375 145.315 6.703 123.016-13.342 257.537 9.896 373.441 97.579 85.027 168.164 219.228 313.367 217.499 99.325 34.523 86.885-115.669 176.945 8.962 82.882 113.602 134.067 47.181 188.169-8.704 79.054 121.011 103.267-144.79 169.956-25.567 103.07 40.104 195.486 59.195 212.396-76.84 21.166-107.44 205.884-109.617 162.604-238.789-6.036-134.018 11.99-277.602-8.854-405.733-69.958-54.602-123.934-180.69-203.646-191.669-98.625 47.862-60.624-163.163-101.21-225.277-13.27-163.1-48.205-89.353-86.185 22.497-21.015 161.021-109.357 84.262-154.481-21.124-40.142-33.748-85.884-212.061-109.686-74.537z" fill="url(#radialGradient1794)" filter="url(#filter1856)" transform="matrix(.11858785 0 0 .11858785 1.505957 9.59594)"/>
  <path d="m60.799881 183.35441 3.952889 3.95288 5.929391 19.76492 1.976504-23.7178 5.929392 29.64733v-37.55335l3.952889 9.88253 5.929393 27.67082v-37.55335l3.953008 3.95301 5.929392 33.60034 5.929391-45.45925 13.07562 51.22997.75956-31.46517 3.95301-11.8589 3.95289 49.41224 11.85877-49.41224 3.95289 41.50622 9.88241-43.48271 9.88227 47.43572 1.97651-35.5767 5.92939-11.85902 1.97638 45.45923 9.88241-43.48274 5.92938 19.76492 1.9764-17.78841 5.92938 11.85891v-37.55322l-5.92938 15.8119-1.9764-33.60031-3.953 25.69431-3.95289-7.9059-1.9765-27.67081-9.88229 37.55321-1.97649-7.90589-5.92939-59.294641-5.92941 51.388621-3.95288 15.81191-7.9059-53.36513-7.90578 45.45924-3.953 11.8589-1.97639-81.63813-11.85878 91.52052-11.85879-83.012435-5.929391 71.153535-3.953008-7.90589-3.952888-47.43574-1.976504 47.43574-5.929393 13.83541-3.952889-47.43574-3.952888 37.55322-5.929393-9.8824v27.67081l-7.905895-29.64732z" fill="url(#radialGradient1786)" stroke="url(#linearGradient2229)" stroke-miterlimit="2" stroke-width="1.02224"/>
  <path d="m100.01037 143.69626 2.29526-3.8254 3.9529 23.71781 3.953-15.81192 2.76701 5.53415 3.16239 22.13666 3.17685-24.51767c1.73234 4.50266 4.72891 12.08742 4.72891 10.68228 0-1.22324 3.02827-12.28832 5.33634-20.54405l.59307 24.49706 3.95301-11.85892 1.70197-9.78634 4.22743 13.73936 7.17171-14.34367 2.71055 18.29656 3.95289-15.81193.25342-2.19601 3.69958 16.03142 7.20233-12.96437.70346 7.03498 1.9765 7.90591 2.9066-11.04504 3.02281 9.06852 6.58825-6.58826 3.29402 6.58826 1.31763-8.56476 3.87058 3.8707.74118 12.60007 3.23425-8.62464 2.69513 2.69515v15.81191l-4.3122 3.23425-1.61718-3.23425-.53898 4.85142-1.43742 1.07808-3.95299-1.31774-1.97639-6.58828-1.25275 5.51197-4.67665-1.55896-5.79763-2.89889-.13176-3.03062-1.18587 2.37187-.79063-.39537-.24701 2.47066-3.70588 7.41187-1.9765-9.88253-6.44809 14.50829-3.43419-16.48479-2.84753 12.52892-7.03487-10.55242-2.76702 12.45185-1.18587-12.45185-3.13915 13.07977-4.76674-7.15025-6.15187 15.99512-1.75391-21.92464-3.95301 11.8589-.21286 8.81809-3.74002-18.70047-6.52697 3.26353-3.35532-13.14595-2.04837 15.70412-7.834038-11.7511-1.791152 8.95587-.185233-1.04998-3.953009-3.95301v13.34138l-5.929393-7.41186-1.054125 1.31764-2.898763-7.24716v10.87072l-3.952888 4.94119-.564716-.84707-1.411789-7.05882-.365961 4.39214-1.610542-2.41563-6.776464 1.12931-3.105816-3.10582v-26.4356l2.925206 1.82827 4.980689 18.67783v-15.56479l5.929393 3.70589 5.929392-17.78843.182981.21964 1.793403 21.52178 5.481962-12.79123 2.423936 2.90871 3.760064-6.26688.192825 2.31399 3.953008 7.90591z" fill="url(#radialGradient1778)" stroke="url(#linearGradient2221)" stroke-miterlimit="2" stroke-opacity=".998949" stroke-width="1.02224"/>
  <path d="m100.01037 143.69626 2.29526-3.8254 3.9529 23.71781 3.953-15.81192 2.76701 5.53415 3.29083 21.74591 3.04841-24.12692 4.72891 10.68228 5.33634-20.54405.59307 24.49706 3.95301-11.85892 1.70197-9.78634 4.22743 13.73936 7.17171-14.34367 2.71055 18.29656 3.95289-15.81193.25342-2.19601 3.69958 16.03142 7.20233-12.96437.70346 7.03498 1.9765 7.90591 2.9066-11.04504 3.02281 9.06852 6.58825-6.58826 3.29402 6.58826 1.31763-8.56476 3.87058 3.8707.74118 12.60007 3.23425-8.62464 2.69513 2.69515-.66592 10.21038-6.12514.69611-4.50145-4.57532-5.1464 2.25264-8.09139-2.05954-6.47174 2.39423-7.53529-2.56206-9.92165 3.37876-7.84926-3.50855-5.89047 7.86373-9.16965-6.11137-7.09944 8.54204-5.36562-8.4925-6.70457-4.2095-4.790734 5.21586-6.662655-3.14737-3.496356 4.83287-6.010972 2.37196-8.009962-1.99342-6.532228 8.70269-6.271011-2.05371.115494-23.58187 5.533196 21.28886.169594-15.2078 5.929393 3.70589 5.929392-17.78843.182981.21964 1.793403 21.52178 5.481962-12.79123 2.423936 2.90871 3.760064-6.26688.192825 2.31399 3.953008 7.90591z" fill="url(#linearGradient2285)" stroke="url(#linearGradient2299)" stroke-miterlimit="2" stroke-opacity=".502687" stroke-width="1.02224"/>
  <path d="m201.06083 102.31787c-3.95291 0-7.9059 1.97652-9.88229 3.95302v114.63626c1.97639 3.95302 5.92938 5.92953 9.88229 5.92953v-124.51845zm-146.12236 0v124.51843c3.953007 0 7.905897-1.9765 9.882399-5.9295v-114.63626c-1.976502-1.97651-5.929392-3.95301-9.882399-3.95301zm73.0616-89.392906c-26.21397 0-50.120574 8.184221-67.755654 21.926655-17.635199 13.74243-35.224597 39.538826-35.224597 61.413298v7.906013c-17.3365514 11.27104-23.5135067 32.14254-23.5135067 59.41809 0 34.91274 21.9068827 63.24766 47.5031217 63.24766v-130.572354c0-16.381254 6.434308-29.413192 20.993694-40.758731 14.559505-11.345654 35.118492-18.591372 57.996942-18.591372 22.87832 0 43.43741 7.245718 57.99681 18.591372 14.5595 11.345539 20.99369 24.377477 20.99369 40.758731v130.572354c25.59636 0 47.50312-28.33492 47.50312-63.24766 0-27.27555-6.00436-48.19453-23.51351-59.41809v-7.906013c0-21.874472-17.58928-47.670868-35.22447-61.413298-17.6352-13.742434-41.54169-21.926655-67.75564-21.926655z" fill="#000eb7" fill-rule="nonzero" stroke="url(#linearGradient1889)" stroke-miterlimit="2" stroke-width="1.27498"/>
  <path d="m128.00007 12.924964c-23.98212-.128624-50.922555 7.918343-67.755654 21.926655-16.833098 14.008312-35.224597 39.538826-35.224597 61.413298v7.906013c3.89007.15862 23.830196.003 23.830196.003s-.04301-3.10942.159419-7.909577c0-16.381245 6.434308-29.413193 20.993694-40.758731 14.559505-11.345651 35.118492-18.591368 57.996942-18.591368 22.87832 0 43.43741 7.245717 57.99681 18.591368 14.5595 11.345538 20.99369 24.377486 20.99369 40.758731.10058 5.222027.17864 7.973787.17864 7.973787s20.36464.0714 23.81097-.0671v-7.906005c0-21.874482-13.76347-45.201062-33.17999-59.368818-19.41652-14.167827-45.818-23.842699-69.80012-23.971321z" fill="url(#radialGradient1868)" fill-rule="nonzero" opacity=".7"/>
  <path d="m49.088531 104.17093h-24.068713c-17.5091403 8.87133-23.5135057 32.14253-23.5135057 59.41809 0 34.91274 21.9068827 63.24765 47.5031207 63.24765m157.981127-122.66574v122.66574c25.59636 0 47.50312-28.33491 47.50312-63.24765 0-27.27556-6.00435-50.54676-23.51351-59.41809" fill="url(#radialGradient1909)" fill-rule="nonzero" opacity=".7"/>
  <path d="m201.06083 102.31787c-3.95291 0-7.9059 1.97652-9.88229 3.95302v114.63626c1.97639 3.95302 5.92938 5.92953 9.88229 5.92953v-124.51845zm-146.12236 0v124.51843c3.953007 0 7.905897-1.9765 9.882399-5.9295v-114.63626c-1.976502-1.97651-5.929392-3.95301-9.882399-3.95301z" fill="url(#linearGradient1953)" fill-rule="nonzero" opacity=".5"/>
  <path d="m128.00005 20.274972c-28.405176.163561-51.045518 9.648425-68.78735 24.540347-17.741832 14.891911-26.379323 36.460704-26.379323 53.844315v10.552056c-17.803138 9.05089-24.1726808 32.89605-24.1726808 54.57188 0 27.74509 14.5181808 50.75258 33.6070538 54.14767v-119.272082c0-18.21057 7.526733-33.348609 20.668191-45.589396 13.141461-12.240778 33.458801-23.50756 65.064109-23.312849 31.60531.194707 51.01902 10.709685 65.064 23.075677 14.04499 12.365987 20.66819 26.042988 20.66819 45.826568v119.272082c18.17155-2.58632 33.13271-26.40258 33.13271-54.14767 0-21.67583-7.45946-47.14112-23.93551-54.57188v-10.552056c0-22.419163-10.61556-39.065162-24.95616-52.89562-14.34062-13.830456-41.56805-25.652604-69.97323-25.489042z" style="fill-rule:nonzero;stroke-width:1.50787;stroke-miterlimit:2;stroke-opacity:.515725;fill:url(#radialGradient2211);stroke:url(#linearGradient2209)"/>
  <path d="m198.44905 106.07884c-2.60671.006-3.9852 1.19782-4.77014 3.14144v109.36374c.91682 2.10605 2.76117 3.76348 4.77014 3.76348v-116.26837zm-140.661483 0v116.26837c2.06597-.49647 3.610463-1.45242 4.295889-3.76346v-109.36374c-.631526-1.63042-2.206636-3.14145-4.295889-3.14145z" style="opacity:.8;fill-rule:nonzero;stroke-width:1.50787;stroke-miterlimit:2;stroke-opacity:.515725;fill:url(#linearGradient2244);stroke:url(#linearGradient2240)"/>
  <ellipse cx="27.835613" cy="164.13246" fill="#fff" filter="url(#filter942)" opacity=".5" rx="8.488353" ry="31.933872" transform="matrix(1.0222428 0 0 1.0222428 -2.847078 -2.783732)"/>
  <ellipse cx="217.83562" cy="164.13246" fill="#fff" filter="url(#filter942)" opacity=".5" rx="6.488353" ry="31.933872" transform="matrix(1.0222428 0 0 1.0222428 -2.847078 -2.783732)"/>
  <ellipse cx="211.40251" cy="163.89125" fill="#fff" filter="url(#filter2229)" opacity=".5" rx="2.850329" ry="49.933872" transform="matrix(1.0222428 0 0 1.0222428 -2.847078 -2.783732)"/>
</svg>
