<svg enable-background="new 100.873 -104.477 263.043 263.042" height="256" viewBox="100.873 -104.477 256 256" width="256" xmlns="http://www.w3.org/2000/svg" xmlns:xlink="http://www.w3.org/1999/xlink">
  <defs>
    <linearGradient id="linearGradient4199">
      <stop offset="0" stop-color="#ea0000"/>
      <stop offset="1" stop-color="#ea0000" stop-opacity="0"/>
    </linearGradient>
    <linearGradient id="linearGradient4138">
      <stop offset="0" stop-color="#400000"/>
      <stop offset="1" stop-color="#400000" stop-opacity="0"/>
    </linearGradient>
    <linearGradient id="linearGradient4757">
      <stop offset="0" stop-color="#780000"/>
      <stop offset=".58318001" stop-color="#db0000"/>
      <stop offset="1" stop-color="#7b0000"/>
    </linearGradient>
    <linearGradient id="linearGradient5022">
      <stop offset="0"/>
      <stop offset="1" stop-color="#e50000" stop-opacity="0"/>
    </linearGradient>
    <linearGradient id="linearGradient4104">
      <stop offset="0" stop-color="#760000"/>
      <stop offset=".15497573" stop-color="#a90000"/>
      <stop offset=".24605703" stop-color="#6d0000"/>
      <stop offset=".4387573" stop-color="#3e0000"/>
      <stop offset=".84059465" stop-color="#ed0000"/>
      <stop offset="1" stop-color="#960000"/>
    </linearGradient>
    <linearGradient id="linearGradient3882">
      <stop offset="0" stop-color="#760000"/>
      <stop offset=".15497573" stop-color="#a90000"/>
      <stop offset=".24605703" stop-color="#6d0000"/>
      <stop offset=".50322878" stop-color="#3e0000"/>
      <stop offset=".84059465" stop-color="#ed0000"/>
      <stop offset="1" stop-color="#960000"/>
    </linearGradient>
    <linearGradient id="linearGradient4125">
      <stop offset="0" stop-color="#760000"/>
      <stop offset=".15497573" stop-color="#a90000"/>
      <stop offset=".30995145" stop-color="#6d0000"/>
      <stop offset=".47884503" stop-color="#3e0000"/>
      <stop offset=".70961833" stop-color="#ed0000"/>
      <stop offset="1" stop-color="#960000"/>
    </linearGradient>
    <linearGradient id="linearGradient3910">
      <stop offset="0" stop-color="#760000"/>
      <stop offset=".15497573" stop-color="#890000"/>
      <stop offset=".30995145" stop-color="#6d0000"/>
      <stop offset=".47884503" stop-color="#3e0000"/>
      <stop offset=".84059465" stop-color="#ff1b1b"/>
      <stop offset="1" stop-color="#960000"/>
    </linearGradient>
    <linearGradient id="linearGradient3898">
      <stop offset="0" stop-color="#780000"/>
      <stop offset=".5" stop-color="#b20000"/>
      <stop offset="1" stop-color="#7b0000"/>
    </linearGradient>
    <linearGradient id="linearGradient4069" gradientUnits="userSpaceOnUse" x1="166.77354409805" x2="171.2353572168" xlink:href="#linearGradient3882" y1="-25.82664975918" y2="-74.48544328398"/>
    <linearGradient id="linearGradient4077" gradientUnits="userSpaceOnUse" x1="204.13349676603" x2="165.00774658533" xlink:href="#linearGradient3910" y1="-44.81005253845" y2="-44.81005253845"/>
    <radialGradient id="radialGradient4123" cx="254.28185" cy="93.911324" gradientTransform="matrix(1.9294327 0 0 3.4889546 -319.33977 -298.94304)" gradientUnits="userSpaceOnUse" r="21.875595" xlink:href="#linearGradient4125"/>
    <filter id="filter4183" height="1.02321" width="1.050862" x="-.025431" y="-.011605">
      <feGaussianBlur stdDeviation=".49697921"/>
    </filter>
    <linearGradient id="linearGradient4219" gradientUnits="userSpaceOnUse" x1="135.74989707646" x2="162.53233528338" xlink:href="#linearGradient3910" y1="-14.34728045566" y2="-28.13330817441"/>
    <radialGradient id="radialGradient4955" cx="96.778145" cy="120.42741" fx="96.903145" fy="125.24107" gradientTransform="matrix(1 0 0 .25967754 0 89.155114)" gradientUnits="userSpaceOnUse" r="12.823403">
      <stop offset="0" stop-color="#2b0000"/>
      <stop offset="1" stop-color="#2b0000" stop-opacity="0"/>
    </radialGradient>
    <filter id="filter4965" height="1.734704" width="1.190786" x="-.095393" y="-.367352">
      <feGaussianBlur stdDeviation="1.0193864"/>
    </filter>
    <linearGradient id="linearGradient4992" gradientUnits="userSpaceOnUse" x1="206.17732553082" x2="164.40676688794" xlink:href="#linearGradient5022" y1="-10.12940080102" y2="58.23345984025"/>
    <linearGradient id="linearGradient5036" gradientUnits="userSpaceOnUse" x1="313.76379" x2="313.76379" y1="129.65686" y2="113.75079">
      <stop offset="0" stop-color="#460000"/>
      <stop offset="1" stop-color="#460000" stop-opacity="0"/>
    </linearGradient>
    <clipPath id="clipPath5052">
      <path d="m82.424541 91.951713c-13.102805 37.072327 17.168486 24.860207 15.944495 20.932907-5.318285 1.66499-7.990493-4.49476-7.998474-7.8223-.0091-3.78326 4.842222-11.822625 10.492208-16.533763 2.63364-2.19601-8.800251-1.917074-7.509176-6.549579-2.191357 2.368413-8.141085-13.008371-4.747586-19.678432-6.252362 10.554162.686951 18.696336-6.181467 29.651167z"/>
    </clipPath>
    <linearGradient gradientUnits="userSpaceOnUse" x1="82.4245375287" x2="90.74913806537" xlink:href="#linearGradient3898" y1="77.12613903479" y2="77.12613903479"/>
    <filter id="filter5062" height="1.125525" width="1.157753" x="-.078876" y="-.062763">
      <feGaussianBlur stdDeviation=".70934857"/>
    </filter>
    <radialGradient id="radialGradient5080" cx="161.33016317622" cy="56.8778456" fx="164.81312333412" fy="81.79310013585" gradientUnits="userSpaceOnUse" r="36.07192807631" xlink:href="#linearGradient4199"/>
    <linearGradient id="linearGradient4217" gradientUnits="userSpaceOnUse" x1="233.251406" x2="210.911626" xlink:href="#linearGradient2797-3" y1="102.865944" y2="-34.461645"/>
    <linearGradient id="linearGradient4231" gradientUnits="userSpaceOnUse" x1="-128.876813" x2="-124.303643" y1="57.326735" y2="52.411704">
      <stop offset="0" stop-color="#00e0e0"/>
      <stop offset=".5" stop-color="#e0d800"/>
      <stop offset=".75" stop-color="#00dcd1"/>
      <stop offset="1" stop-color="#e000b4"/>
    </linearGradient>
    <filter id="filter4227" height="1.011649" width="1.011652" x="-.005826" y="-.005824">
      <feGaussianBlur stdDeviation=".56324537"/>
    </filter>
    <filter id="filter4215" height="1.058244" width="1.058261" x="-.02913" y="-.029122">
      <feGaussianBlur stdDeviation="2.8162269"/>
    </filter>
    <clipPath id="clipPath4100">
      <path d="m664.33473-117.70671v281.08867h282.30884v-281.08867zm140.7691 29.476739c64.07917 0 115.98038 51.96642 115.98038 116.044602 0 64.078195-51.90121 116.044599-115.98038 116.044599-64.07916 0-116.0446-51.965443-116.0446-116.044599 0-64.079149 51.96544-116.044602 116.0446-116.044602zm-.3211 100.824585c-8.54055 0-15.47689 6.93509-15.47689 15.476895 0 8.542786 6.93634 15.476895 15.47689 15.476895 8.54056 0 15.4769-6.934109 15.4769-15.476895 0-8.541805-6.93634-15.476895-15.4769-15.476895z"/>
    </clipPath>
    <linearGradient id="linearGradient5956" gradientUnits="userSpaceOnUse" x1="224.15019269547" x2="251.61462650931" y1="54.99639156669" y2="27.53195676494">
      <stop offset="0" stop-color="#473a56"/>
      <stop offset=".5" stop-color="#c4c4c4"/>
      <stop offset="1" stop-color="#282131"/>
    </linearGradient>
    <linearGradient id="linearGradient5952" gradientUnits="userSpaceOnUse" x1="-125.400363" x2="-121.865853" y1="53.982417" y2="48.888819">
      <stop offset="0" stop-color="#e0d"/>
      <stop offset=".5" stop-color="#ae0"/>
      <stop offset="1" stop-color="#8d0083"/>
    </linearGradient>
    <linearGradient id="linearGradient5946" gradientUnits="userSpaceOnUse" x1="360.404211" x2="236.018351" xlink:href="#linearGradient2797-3" y1="29.008653" y2="-63.186659"/>
    <linearGradient id="linearGradient5942" gradientUnits="userSpaceOnUse" x1="563.56807065413" x2="559.41502402325" y1="184.5972717379" y2="-179.9671684434">
      <stop offset="0" stop-color="#ffee93"/>
      <stop offset=".3773585" stop-color="#c57c00"/>
      <stop offset=".49483803" stop-color="#ffff7d"/>
      <stop offset="1" stop-color="#ffe171"/>
    </linearGradient>
    <filter id="filter5734" height="1.153567" width="1.114092" x="-.057046" y="-.076784">
      <feGaussianBlur stdDeviation="1.5207276"/>
    </filter>
    <filter id="filter5730" height="1.209389" width="1.181092" x="-.090546" y="-.104694">
      <feGaussianBlur stdDeviation="2.6277645"/>
    </filter>
    <linearGradient id="linearGradient2797-3">
      <stop offset="0" stop-color="#fff"/>
      <stop offset="1" stop-color="#fff" stop-opacity="0"/>
    </linearGradient>
    <filter id="filter4199-8" height="1.097598" width="1.094454" x="-.047227" y="-.048799">
      <feGaussianBlur stdDeviation="2.4476426"/>
    </filter>
    <filter id="filter3732" height="1.249702" width="1.16598" x="-.08299" y="-.124851">
      <feGaussianBlur stdDeviation="2.3427203"/>
    </filter>
    <filter id="filter3748" height="1.138049" width="1.101375" x="-.050688" y="-.069024">
      <feGaussianBlur stdDeviation="1.4159298"/>
    </filter>
    <radialGradient id="radialGradient3857-8" cx="-115.06501" cy="27.910955" fx="-79.102097" fy="89.561661" gradientUnits="userSpaceOnUse" r="102.91172">
      <stop offset="0" stop-color="#fff"/>
      <stop offset="1" stop-color="#fff" stop-opacity=".660714"/>
    </radialGradient>
    <mask id="mask3853-3" maskUnits="userSpaceOnUse">
      <path d="m-115.09711-75.000759c-56.83215 0-102.87962 46.11169-102.87962 102.943829 0 56.832134 46.04747 102.8796 102.87962 102.8796 56.832149 0 102.943828-46.047466 102.943828-102.8796 0-56.832139-46.111679-102.943829-102.943828-102.943829zm0 68.5864066c18.952909 0 34.357429 15.404511 34.357429 34.3574224 0 18.952911-15.40452 34.293204-34.357429 34.293204-18.95291 0-34.29321-15.340293-34.29321-34.293204 0-18.9529114 15.3403-34.3574224 34.29321-34.3574224z" fill="url(#radialGradient3857-8)"/>
    </mask>
    <filter id="filter4155" height="1.099045" width="1.06261" x="-.031305" y="-.049523">
      <feGaussianBlur stdDeviation=".92807762"/>
    </filter>
    <filter id="filter4171" height="1.063889" width="1.085475" x="-.042738" y="-.031945">
      <feGaussianBlur stdDeviation=".84344359"/>
    </filter>
    <filter id="filter4236" height="1.061197" width="1.036349" x="-.018174" y="-.030598">
      <feGaussianBlur stdDeviation=".47892905"/>
    </filter>
    <filter id="filter4330" height="1.562623" width="1.39964" x="-.19982" y="-.281312">
      <feGaussianBlur stdDeviation="3.4803895"/>
    </filter>
    <linearGradient gradientUnits="userSpaceOnUse" x1="137.81563" x2="314.59543" y1="-67.534854" y2="109.244936">
      <stop offset="0" stop-color="#c2c2d0"/>
      <stop offset=".5" stop-color="#fff"/>
      <stop offset="1" stop-color="#b3b2be"/>
    </linearGradient>
    <clipPath id="clipPath3750">
      <path d="m232.3945-96.257404c-68.09732 0-123.30141 55.204093-123.30141 123.301404 0 68.09731 55.20409 123.30141 123.30141 123.30141 68.09731 0 123.3014-55.205127 123.3014-123.30141s-55.20409-123.301404-123.3014-123.301404zm0 164.401872c-22.69877 0-41.10047-18.401707-41.10047-41.100468 0-22.698762 18.4017-41.100468 41.10047-41.100468 22.69978 0 41.10046 18.401706 41.10046 41.100468 0 22.698761-18.40068 41.100468-41.10046 41.100468z"/>
    </clipPath>
    <filter id="filter3740" height="1.086207" width="1.033839" x="-.016919" y="-.043103">
      <feGaussianBlur stdDeviation=".94917551"/>
    </filter>
    <linearGradient id="linearGradient5340" gradientUnits="userSpaceOnUse" x1="156.06876206354" x2="156.06876206354" xlink:href="#linearGradient4138" y1="92.77304496468" y2="62.20868932638"/>
    <linearGradient id="linearGradient5342" gradientUnits="userSpaceOnUse" x1="133.65961679564" x2="197.92907791563" xlink:href="#linearGradient4104" y1="-22.87107336032" y2="14.23491194024"/>
    <linearGradient id="linearGradient5344" gradientUnits="userSpaceOnUse" x1="122.78975249933" x2="207.86557914332" xlink:href="#linearGradient4757" y1="49.92341249567" y2="-4.88375564789"/>
    <linearGradient id="linearGradient5352" gradientUnits="userSpaceOnUse" x1="135.74989707646" x2="155.85699554588" xlink:href="#linearGradient3898" y1="-14.34728045566" y2="-14.34728045566"/>
    <linearGradient id="linearGradient5455" gradientUnits="userSpaceOnUse" x1="347.49745553082" x2="305.72689688794" xlink:href="#linearGradient5022" y1="46.37388919898" y2="114.73674984025"/>
    <linearGradient id="linearGradient5459" gradientUnits="userSpaceOnUse" x1="277.07002707646" x2="303.85246528338" xlink:href="#linearGradient3910" y1="42.15600954434" y2="28.36998182559"/>
    <linearGradient id="linearGradient5461" gradientUnits="userSpaceOnUse" x1="277.07002707646" x2="297.17712554588" xlink:href="#linearGradient3898" y1="42.15600954434" y2="42.15600954434"/>
    <linearGradient id="linearGradient5465" gradientUnits="userSpaceOnUse" x1="308.09367409805" x2="312.5554872168" xlink:href="#linearGradient3882" y1="30.67664024082" y2="-17.98215328398"/>
    <linearGradient id="linearGradient5467" gradientUnits="userSpaceOnUse" x1="264.10988249933" x2="349.18570914332" xlink:href="#linearGradient4757" y1="106.42670249567" y2="51.61953435211"/>
    <radialGradient id="radialGradient5469" cx="254.28185" cy="93.911324" gradientTransform="matrix(1.9294327 0 0 3.4889546 -178.01964 -242.43975)" gradientUnits="userSpaceOnUse" r="21.875595" xlink:href="#linearGradient4125"/>
    <linearGradient id="linearGradient5471" gradientUnits="userSpaceOnUse" x1="345.45362676603" x2="306.32787658533" xlink:href="#linearGradient3910" y1="11.69323746155" y2="11.69323746155"/>
    <linearGradient id="linearGradient5473" gradientUnits="userSpaceOnUse" x1="274.97974679564" x2="339.24920791563" xlink:href="#linearGradient4104" y1="33.63221663968" y2="70.73820194024"/>
    <linearGradient id="linearGradient5475" gradientUnits="userSpaceOnUse" x1="297.38889206354" x2="297.38889206354" xlink:href="#linearGradient4138" y1="149.27633496468" y2="118.71197932638"/>
    <radialGradient id="radialGradient5483" cx="302.65029617622" cy="113.3811366" fx="306.13325633412" fy="138.29639113585" gradientUnits="userSpaceOnUse" r="36.07192807631" xlink:href="#linearGradient4199"/>
    <filter id="filter5493" height="1.112698" width="1.231062" x="-.132387" y="-.044919">
      <feGaussianBlur stdDeviation="2.8635391"/>
    </filter>
    <clipPath id="clipPath5497">
      <path d="m240.74303-84.441025c-68.42803 0-123.87938 55.451346-123.87938 123.87938 0 68.428035 55.45135 123.943595 123.87938 123.943595s123.87938-55.51556 123.87938-123.943595c0-68.428034-55.45135-123.87938-123.87938-123.87938zm0 73.980843c27.56751 0 49.89854 22.331027 49.89854 49.898537s-22.33103 49.962756-49.89854 49.962756-49.89854-22.395246-49.89854-49.962756 22.33103-49.898537 49.89854-49.898537z"/>
    </clipPath>
    <clipPath id="XMLID_17_-1">
      <path d="m232.5-92.699c-66.274 0-120 53.726-120 120s53.726 120 120 120 120-53.727 120-120-53.726-120-120-120zm0 163.44c-23.991 0-43.44-19.449-43.44-43.44 0-23.99 19.449-43.439 43.44-43.439 23.992 0 43.439 19.449 43.439 43.439 0 23.991-19.447 43.44-43.439 43.44z" height="263.04199" width="263.043"/>
    </clipPath>
  </defs>
  <g transform="matrix(.96 0 0 .96 5.582536 -2.117716)">
    <path clip-path="url(#clipPath4100)" d="m805.10383-84.119925c-64.07916 0-116.0446 51.965451-116.0446 116.044603 0 64.079158 51.96544 116.044602 116.0446 116.044602 64.07917 0 115.98038-51.966406 115.98038-116.044602 0-64.078184-51.90121-116.044603-115.98038-116.044603zm-.3211 100.824586c8.54056 0 15.4769 6.935089 15.4769 15.476895 0 8.542785-6.93634 15.476895-15.4769 15.476895-8.54055 0-15.47689-6.93411-15.47689-15.476895 0-8.541806 6.93634-15.476895 15.47689-15.476895z" filter="url(#filter4215)" opacity=".440594" transform="matrix(1.0583213 0 0 1.0583213 -619.43031 -4.994151)"/>
    <path clip-path="url(#clipPath4100)" d="m805.10383-86.174948c-64.07916 0-116.0446 51.965451-116.0446 116.044603 0 64.079158 51.96544 116.044605 116.0446 116.044605 64.07917 0 115.98038-51.966409 115.98038-116.044605 0-64.078184-51.90121-116.044603-115.98038-116.044603zm-.3211 100.824586c8.54056 0 15.4769 6.935089 15.4769 15.476895 0 8.542785-6.93634 15.476895-15.4769 15.476895-8.54055 0-15.47689-6.93411-15.47689-15.476895 0-8.541806 6.93634-15.476895 15.47689-15.476895z" filter="url(#filter4227)" opacity=".232673" transform="matrix(1.0583213 0 0 1.0583213 -619.43031 -4.994151)"/>
    <g transform="matrix(.68787189 0 0 .68787189 -152.41466 19.323442)">
      <path d="m559.73405-171.05208c-98.58863 0-178.51094 79.922314-178.51094 178.5109278 0 98.5886222 79.92231 178.5109522 178.51094 178.5109522s178.51094-79.92381 178.51094-178.5109522c0-98.5871238-79.92231-178.5109278-178.51094-178.5109278zm0 238.014583c-32.8624 0-59.50366-26.641274-59.50366-59.5036552 0-32.8623628 26.64126-59.5036408 59.50366-59.5036408 32.86385 0 59.50364 26.641278 59.50364 59.5036408 0 32.8623812-26.63979 59.5036552-59.50364 59.5036552z" fill="url(#linearGradient5942)"/>
      <path d="m559.29312-51.644899c-32.84781 0-59.47729 26.636393-59.47729 59.4927628 0 32.8563702 26.62948 59.4927742 59.47729 59.4927742 32.84934 0 59.47733-26.636404 59.47733-59.4927742 0-32.8563698-26.62799-59.4927628-59.47733-59.4927628zm0 83.289872c-13.14002 0-23.79091-10.653657-23.79091-23.7971092 0-13.141945 10.65089-23.7971088 23.79091-23.7971088 13.14004 0 23.79095 10.6551638 23.79095 23.7971088 0 13.1434522-10.65091 23.7971092-23.79095 23.7971092z" fill="#fff" opacity=".5"/>
      <path d="m232.40625-75.429688c-56.96308 0-103.14844 46.185366-103.14844 103.148438 0 56.963069 46.18536 103.14844 103.14844 103.14844 56.96307 0 103.14844-46.186225 103.14844-103.14844 0-56.962218-46.18537-103.148438-103.14844-103.148438zm0 2.140626c55.78816 0 101.00781 45.219657 101.00781 101.007812 0 55.787268-45.21965 101.00781-101.00781 101.00781s-101.00781-45.220539-101.00781-101.00781c0-55.788156 45.21965-101.007812 101.00781-101.007812z" fill="#3d2b2b" fill-opacity=".301587" transform="matrix(1.731846 0 0 1.731846 157.24218 -40.470553)"/>
      <path d="m559.29312-51.644899c-32.84781 0-59.47729 26.636393-59.47729 59.4927628 0 32.8563702 26.62948 59.4927742 59.47729 59.4927742 32.84934 0 59.47733-26.636404 59.47733-59.4927742 0-32.8563698-26.62799-59.4927628-59.47733-59.4927628zm0 95.188435c-19.67805 0-35.68639-16.013967-35.68639-35.6956722 0-19.6816878 16.00834-35.6956538 35.68639-35.6956538 19.6766 0 35.68639 16.012477 35.68639 35.6956538 0 19.6831952-16.00979 35.6956722-35.68639 35.6956722z" fill="none" opacity=".5"/>
      <g clip-path="url(#XMLID_17_-1)" opacity=".6" transform="matrix(1.4869328 0 0 1.4873192 213.93765 -33.113821)">
        <path d="m356.38585-18.607418-124.38585 45.607418 41.59529-120.378925z" fill="url(#linearGradient5946)" filter="url(#filter4199-8)" opacity=".8"/>
        <path d="m356.38585-18.607418-124.38585 45.607418 41.59529-120.378925z" fill="url(#linearGradient5946)" filter="url(#filter4199-8)" opacity=".8"/>
        <path d="m103.75828 72.663866 124.38585-45.607418-41.59529 120.378932z" fill="url(#linearGradient4217)" filter="url(#filter4199-8)" opacity=".8"/>
      </g>
      <path d="m559.29312-27.84779c-19.67805 0-35.68639 16.012477-35.68639 35.6956538 0 19.6831952 16.00834 35.6956722 35.68639 35.6956722 19.6766 0 35.68639-16.013967 35.68639-35.6956722 0-19.6816878-16.00979-35.6956538-35.68639-35.6956538z" fill="none" stroke="#d0d0d0" stroke-width="1.78511"/>
      <path d="m559.29312-27.84779c-19.67805 0-35.68639 16.012477-35.68639 35.6956538 0 19.6831952 16.00834 35.6956722 35.68639 35.6956722 19.6766 0 35.68639-16.013967 35.68639-35.6956722 0-19.6816878-16.00979-35.6956538-35.68639-35.6956538zm0 59.492763c-13.14002 0-23.79091-10.653657-23.79091-23.7971092 0-13.141945 10.65089-23.7971088 23.79091-23.7971088 13.14004 0 23.79095 10.6551638 23.79095 23.7971088 0 13.1434522-10.65091 23.7971092-23.79095 23.7971092z" fill="#fff" opacity=".2"/>
      <path d="m559.29312-27.84779c-19.67805 0-35.68639 16.012477-35.68639 35.6956538 0 19.6831952 16.00834 35.6956722 35.68639 35.6956722 19.6766 0 35.68639-16.013967 35.68639-35.6956722 0-19.6816878-16.00979-35.6956538-35.68639-35.6956538zm0 59.492763c-13.14002 0-23.79091-10.653657-23.79091-23.7971092 0-13.141945 10.65089-23.7971088 23.79091-23.7971088 13.14004 0 23.79095 10.6551638 23.79095 23.7971088 0 13.1434522-10.65091 23.7971092-23.79095 23.7971092z" fill="none" opacity=".5"/>
      <path d="m559.29312-63.543466c-39.35464 0-71.37279 32.026465-71.37279 71.3913298 0 39.3648832 32.01815 71.3913292 71.37279 71.3913292 39.35467 0 71.3728-32.026446 71.3728-71.3913292 0-39.3648648-32.01813-71.3913298-71.3728-71.3913298zm0 130.884104c-32.84781 0-59.47729-26.636404-59.47729-59.4927742 0-32.8563698 26.62948-59.4927628 59.47729-59.4927628 32.84934 0 59.47733 26.636393 59.47733 59.4927628 0 32.8563702-26.62799 59.4927742-59.47733 59.4927742z" fill="#323232" opacity=".1"/>
      <g mask="url(#mask3853-3)" opacity=".529703" transform="matrix(1.7342138 0 0 1.7342138 759.08652 -40.707643)">
        <g>
          <path d="m-100.8953 67.674953-66.02442-44.977191-5.12652 3.71231z" fill="#ff11f7" fill-opacity=".497326" filter="url(#filter4155)" opacity=".70297" transform="matrix(2.0550234 0 0 2.0550234 100.873 -104.4775)"/>
          <path d="m-101.07208 67.719147-37.39637-68.8080508-9.9685 6.0923376z" fill="#096eff" fill-opacity=".058201" filter="url(#filter4171)" transform="matrix(2.0550234 0 0 2.0550234 100.873 -104.4775)"/>
          <path d="m-100.9395 68.028506-65.9377-45.033862-11.84404 16.263455z" fill="#ff7e7e" fill-opacity=".31746" filter="url(#filter3732)" transform="matrix(2.0550234 0 0 2.0550234 100.873 -104.4775)"/>
          <path d="m-101.07208 67.586564-65.62834-46.182911-2.12132 3.18198z" fill="#ff7e7e" fill-opacity=".454545" filter="url(#filter3732)" transform="matrix(2.0550234 0 0 2.0550234 100.873 -104.4775)"/>
          <path d="m-100.71853 67.984312-64.21412-49.232309-2.82843 3.535533z" fill="#ff1" fill-opacity=".497326" filter="url(#filter3748)" opacity=".613861" transform="matrix(2.0550234 0 0 2.0550234 100.873 -104.4775)"/>
          <path d="m-100.85111 68.0727-69.65134-45.279454 16.05622-14.9590176z" fill="#f4ff0f" fill-opacity=".338624" filter="url(#filter5730)" transform="matrix(2.0550234 0 0 2.0550234 100.873 -104.4775)"/>
          <path d="m-101.07208 67.719147-45.55646-63.3679876-5.88846 4.0523139z" fill="#096eff" fill-opacity=".301587" filter="url(#filter4171)" transform="matrix(2.0550234 0 0 2.0550234 100.873 -104.4775)"/>
        </g>
        <g transform="matrix(-1 0 -0 -1 -229.83094 49.030172)">
          <path d="m-99.834642 64.979108-59.441158-37.565047-3.80348 14.606323z" fill="url(#linearGradient5952)" filter="url(#filter4236)" opacity=".118812" transform="matrix(2.0550234 0 0 2.0550234 100.873 -104.4775)"/>
          <path d="m-100.01142 64.89072-52.43407-29.692819-7.49314 10.968534z" fill="url(#linearGradient4231)" filter="url(#filter4330)" opacity=".074257" transform="matrix(2.0550234 0 0 2.0550234 100.873 -104.4775)"/>
          <path d="m-99.833485 65.071176-52.558355-47.532878-11.4209 11.214611z" fill="#f4ff0f" fill-opacity=".306878" filter="url(#filter5734)" transform="matrix(2.0550234 0 0 2.0550234 100.873 -104.4775)"/>
          <path d="m-100.01142 64.89072-34.30919-51.886544-7.49314 10.968534z" fill="url(#linearGradient4231)" filter="url(#filter4330)" opacity=".074257" transform="matrix(2.0550234 0 0 2.0550234 100.873 -104.4775)"/>
        </g>
      </g>
      <path d="m234.40625 25.78125c-7.60347 0-13.75 6.115184-13.75 13.71875s6.14628 13.8125 13.75 13.8125c7.60375 0 13.78125-6.208848 13.78125-13.8125s-6.17775-13.71875-13.78125-13.71875zm0 .59375c7.26625 0 13.1875 5.858945 13.1875 13.125 0 7.266057-5.92152 13.21875-13.1875 13.21875-7.26596 0-13.15625-5.952603-13.15625-13.21875 0-7.266145 5.89002-13.125 13.15625-13.125z" fill="url(#linearGradient5956)" transform="matrix(1.732116 0 0 1.732116 153.24429 -60.640916)"/>
    </g>
    <g clip-path="url(#clipPath3750)" transform="matrix(.98808033 0 0 .98808033 3.387226 -1.745472)">
      <path d="m238.54702 22.905514 128.94274-52.850202 5.69789 4.177962z" fill="#fff" filter="url(#filter3740)"/>
      <path d="m226.56916 27.006292-128.94274 52.85021-5.69789-4.17797z" fill="#fff" filter="url(#filter3740)" transform="matrix(1.033133 0 0 1.033133 -5.276388 -1.770341)"/>
    </g>
  </g>
  <g transform="matrix(.96 0 0 .96 145.92937 49.296342)">
    <g clip-path="url(#clipPath5497)" filter="url(#filter5493)" opacity=".31198" transform="translate(-151.59525 -70.888452)">
      <path d="m346.29152 42.574947c8.21029 15.248229-29.55275 71.621933-68.78415 97.411833l25.14292 9.46627c35.11962-25.4756 23.79211-59.820841 42.51144-75.479976.46498-25.964748 1.48593-18.650272 1.12979-31.398127z" fill="url(#linearGradient5455)"/>
      <ellipse cx="96.778145" cy="120.42741" fill="url(#radialGradient4955)" filter="url(#filter4965)" rx="12.823403" ry="3.32995" transform="matrix(2.8488869 0 0 2.8488869 26.747343 -196.5512)"/>
      <path d="m272.90226 81.929732c10.3247-2.56466 17.27991-5.761985 19.11579-12.956897 15.29807-25.690404-7.87153-47.24827-.0175-62.6262932-10.64628 18.1979522-2.50855 49.1230762-19.0984 75.5831902z" fill="url(#linearGradient5459)"/>
      <path d="m277.07004 77.965466c-31.64829 89.543874 41.46847 60.046914 38.51207 50.560974-12.8457 4.02159-19.39745-6.33866-19.27245-17.69641.13545-12.308231 12.63014-29.980035 25.29578-41.132796 6.21609-5.473595-21.25599-4.630468-18.13755-15.819742-5.29296 5.720624-19.66383-31.420197-11.46723-47.5309502-15.10185 25.4923442 1.65924 45.1588122-14.93062 71.6189242z" fill="url(#linearGradient5461)"/>
      <path d="m326.54536 27.22924c-9.7411 10.932781-12.3193 22.019684-11.28756 26.930363 2.92582 13.925775-1.16885 22.364105-8.78905 29.309147-8.04566 6.5669-16.13817 13.299892-16.46875 23.78125-.0226.71734-.0004 1.42331.0313 2.125.006.13624.0231.27057.0313.40625.0398.66343.10022 1.32276.1875 1.96875.004.0307-.004.0631 0 .0937.097.69901.19254 1.38743.34375 2.0625.0236.10658.0688.20651.0937.3125.2426 1.02024.54338 2.01513.90625 2.96875.43928 1.17399.95509 2.31837 1.5625 3.375.0379.0659.0865.12208.125.1875.0119.0202.0193.0423.0313.0625.0239.0402.0384.085.0625.125.16099.26724.32843.52304.5.78125.21096.31798.42955.60257.65625.90625.1733.23244.3489.46387.53125.6875.009.0113.022.02.0313.0313.042.0512.0826.10555.125.15625.18716.22385.36625.4419.5625.65625.0295.0323.064.0617.0937.0937.0864.093.16193.19012.25.28125.13546.14052.26677.27025.40625.40625.64203.6254 1.33808 1.19584 2.0625 1.71875.0185.0134.0439.0179.0625.0313.0767.055.14116.13366.21875.1875.0188.013.0437.0183.0625.0313.26956.18547.53241.3607.8125.53125.22112.13441.45994.25018.6875.375.0245.0134.0379.0492.0625.0625.0896.0486.19071.0779.28125.125.1234.0642.24979.12619.375.1875.0334.0163.0602.0464.0937.0625.30638.14759.62061.276.9375.40625.38186.15695.7595.30666 1.15625.4375.13189.0435.27275.0845.40625.125.48589.14702.99318.26827 1.5.375.0317.007.062.0247.0937.0313.0422.009.0826.0228.125.0313.12348.0244.25033.0405.375.0625.33938.0601.68316.11462 1.03125.15625.0411.005.0838-.005.125 0 .0528.006.1032.0257.15625.0313.15586.0163.31121.0187.46875.0313.29098.0231.57837.0524.875.0625.0748.002.14355-.002.21875 0 .38478.009.76231.0135 1.15625 0 .66317-.0228 1.30149-.0667 1.9375-.125.44718-.0406.87859-.0986 1.3125-.15625.17728-.0237.35617-.036.53125-.0625.46443-.0702.926-.16035 1.375-.25.12572-.0251.25048-.0359.375-.0625.13775-.0294.26997-.0625.40625-.0937.43366-.0994.86237-.22622 1.28125-.34375.35864-.10064.71459-.19888 1.0625-.3125.15127-.0493.28825-.10454.4375-.15625.0412-.0143.0839-.0168.125-.0313.0761-.0268.14319-.0663.21875-.0937.41359-.15012.82085-.30018 1.21875-.46875.0931-.0395.18897-.0845.28125-.125.18869-.0827.37737-.16315.5625-.25.15981-.0748.31158-.14089.46875-.21875.0848-.042.16593-.0821.25-.125.0758-.0387.14358-.0856.21875-.125.87135-.45645 1.7112-.95236 2.5-1.5.11764-.0816.22792-.16649.34375-.25.72569-.52317 1.40693-1.05991 2.0625-1.65625.4021-.36577.81132-.76455 1.1875-1.15625.0465-.0485.0789-.10737.125-.15625.0816-.0864.1696-.1624.25-.25.51927-.56578 1.00016-1.16746 1.46875-1.78125.0266-.0349.0673-.0587.0937-.0937.26236-.34723.50345-.70095.75-1.0625.20801-.30504.39688-.62268.59375-.9375.0596-.0953.12895-.18512.1875-.28125.0383-.063.0871-.12412.125-.1875.0234-.0392.0392-.0856.0625-.125.18929-.31975.3841-.63988.5625-.96875.0734-.13541.14715-.26934.21875-.40625.12278-.23473.22633-.47971.34375-.71875.0311-.0634.063-.12382.0937-.1875.0852-.17661.16763-.35239.25-.53125.1247-.27058.25685-.53691.375-.8125.0492-.11481.10822-.2281.15625-.34375.0428-.10295.0831-.20889.125-.3125.0997-.24669.18655-.49964.28125-.75.0546-.14445.1033-.29186.15625-.4375.0417-.11464.0843-.22839.125-.34375.0751-.21303.14717-.44081.21875-.65625.10327-.31125.21645-.62141.3125-.9375.0542-.17797.10431-.35179.15625-.53125.0996-.34499.18997-.71225.28125-1.0625.0403-.15476.0863-.313.125-.46875.0647-.26021.12731-.51837.1875-.78125.0312-.13636.0637-.26919.0937-.40625.0247-.11277.0386-.23052.0625-.34375.0941-.44632.19964-.89059.28125-1.34375.013-.0719.0186-.14669.0313-.21875.0871-.49694.17763-.99563.25-1.5.004-.0304-.004-.0633 0-.0937.20597-1.45213.35031-2.93529.4375-4.4375.009-.154502.0235-.313814.0313-.46875.005-.102856-.005-.20946 0-.3125.009-.199627-.007-.393459 0-.59375.0434-1.262497.0664-2.529146.0313-3.8125-.009-.344001-.0193-.688699-.0313-1.03125-.0267-.613546-.0499-1.227653-.0937-1.84375-.0644-.544668-.13548-1.103664-.21875-1.65625-.0156-.10335-.0463-.208906-.0625-.3125-.0708-.452386-.13627-.91848-.21875-1.375-.0263-.14561-.0663-.291526-.0937-.4375-.0116-.06195-.0194-.125485-.0313-.1875-.17501-.915399-.37748-1.824765-.59375-2.75-.23037-.985555-.47911-1.98001-.75-2.96875-.0426-.155682-.0814-.313107-.125-.46875-.009-.03171-.0223-.06204-.0313-.09375-.0761-.270828-.1707-.541937-.25-.8125-.024-.08253-.0382-.167504-.0625-.25-.0737-.25039-.14295-.500028-.21875-.75-.0478-.15764-.10766-.311319-.15625-.46875-.10752-.344779-.20155-.687732-.3125-1.03125-.13117-.409177-.27032-.811916-.40625-1.21875-.20619-.617503-.40918-1.23336-.625-1.84375-.0364-.102909-.0571-.209828-.0937-.3125-.2078-.58216-.44139-1.145293-.65625-1.71875-.19521-.521012-.39385-1.050112-.59375-1.5625-.70421-1.805855-1.42409-3.527072-2.15625-5.1875-.14173-.321418-.26453-.654122-.40625-.96875-.13152-.291938-.27502-.558022-.40625-.84375-.004-.0087.004-.0226 0-.03125-.30969-.674573-.60076-1.300739-.90625-1.9375-.1048-.218531-.20847-.411271-.3125-.625-.10819-.222278-.20531-.439369-.3125-.65625-.22637-.458501-.43542-.848174-.65625-1.28125-.41298-.809894-.80161-1.570057-1.1875-2.28125-.33556-.619117-.62931-1.182827-.9375-1.71875-.0546-.09509-.10261-.157657-.15625-.25-.36567-.62976-.71731-1.19368-1.03125-1.6875-.29382-.462664-.54221-.824436-.78125-1.15625-.0505-.07007-.10847-.186084-.15625-.25-.0947-.146323-.18372-.289328-.28125-.4375-.7105-3.763016-1.24744-7.46391-1.3125-10.96875z" fill="url(#linearGradient5036)" filter="url(#filter4183)" transform="matrix(1.9294327 0 0 1.9294327 -295.42562 -100.74649)"/>
      <path d="m296.6208 84.575903c6.14518-22.533681 23.78411-39.422344 23.38637-63.339756-.20172-12.1284166-3.80489-49.070616 14.61452-69.204121-15.65951 22.985888-4.95324 59.44536 4.91691 73.600091l-42.91788 58.943786z" fill="url(#linearGradient5465)"/>
      <path d="m346.29152 42.574947c8.21029 15.248229-29.55275 71.621933-68.78415 97.411833l25.14292 9.46627c35.11962-25.4756 52.11008-76.204645 49.30904-87.764661-.82343-2.929412-2.6852-11.004452-5.66781-19.113442z" fill="url(#linearGradient5467)"/>
      <path d="m354.80528 82.164104c0 28.105086-29.91034 50.888766-66.80663 50.888766-6.09686 0-11.99414-.6434-17.60607-1.80883 6.48865 11.28731 17.79546 18.7062 32.25771 18.20901 37.50479-1.28928 52.37001-32.41597 52.15499-67.288946z" fill="url(#radialGradient5469)"/>
      <path d="m308.95551 54.781994c16.18567-13.567167 13.3552-17.801186 7.95519-37.903382-2.62897-9.7867444-1.69362-43.985607 17.71099-64.846586-9.65479 12.663052-13.95549 38.9072144-9.91619 44.9537661.91685 1.3724508 1.77572 2.71034152 2.56673 3.99458428l5.64407 24.72465762z" fill="url(#linearGradient5471)"/>
      <path d="m325.31862-26.559379c-5.32002 19.9578345-.5623 24.9204275.44077 27.7445728 17.84612 50.2458132-60.02685 59.0420142-61.45657 104.3732662-.53409 16.93323 6.87143 31.83453 19.7164 39.13131-8.69854-5.28262-13.72093-27.97339-.12062-43.95488 13.60031-15.981489 67.83729-40.666328 55.35061-76.514064-7.00119-15.8532969-19.25919-30.7056154-13.9306-50.780205z" fill="url(#linearGradient5473)"/>
      <path d="m354.80528 82.164104c0 28.105086-29.91034 50.888766-66.80663 50.888766-6.09686 0-11.99414-.6434-17.60607-1.80883 6.48865 11.28731 17.79546 18.7062 32.25771 18.20901 37.50479-1.28928 52.37001-32.41597 52.15499-67.288946z" fill="url(#linearGradient5475)"/>
      <path d="m346.29152 42.574947c8.21029 15.248229-29.55275 71.621933-68.78415 97.411833l25.14292 9.46627c35.11962-25.4756 52.11008-76.204645 49.30904-87.764661-.82343-2.929412-2.6852-11.004452-5.66781-19.113442z" fill="url(#linearGradient5467)"/>
      <path clip-path="url(#clipPath5052)" d="m81.5625 114.8125c-3.000663-14.860107 22.81382-23.449065 19.52883-26.497409l-.96633-.627591-20.327738 13.56083z" filter="url(#filter5062)" opacity=".70297" transform="matrix(2.415383 0 0 2.415383 77.983208 -144.13315)"/>
      <path d="m325.31862-26.559379c-5.32002 19.9578345-2.59047 28.5497865-1.5874 31.3739319 17.84612 50.2458131-57.99868 55.4126551-59.4284 100.7439071-.53409 16.93323 6.87143 31.83453 19.7164 39.13131-8.69854-5.28262-13.72093-27.97339-.12062-43.95488 13.60031-15.981489 67.83729-40.666328 55.35061-76.514064-7.00119-15.8532969-19.25919-30.7056154-13.9306-50.780205z" fill="url(#linearGradient5473)"/>
      <path d="m354.80528 82.164104c0 28.105086-29.91034 50.888766-66.80663 50.888766-6.09686 0-11.99414-.6434-17.60607-1.80883 6.48865 11.28731 17.79546 18.7062 32.25771 18.20901 37.50479-1.28928 52.37001-32.41597 52.15499-67.288946z" fill="url(#linearGradient5475)"/>
      <path d="m302.61383 77.327291c-19.92197 0-36.0043 16.157804-36.0043 36.079769 0 19.92199 16.08233 36.07979 36.0043 36.07979 1.54617-.0531 3.0591-.22464 4.52885-.37741 17.17258-2.14834 30.56877-16.28615 31.47545-33.81535-3.58377 3.17282-5.83356 5.04928-10.33493 7.46957 4.49869-6.56223 7.94316-12.30016 11.02521-17.96258-1.8384-6.807933-5.2887-11.798856-10.3814-16.379773-7.69033 12.248643-19.24354 23.640803-29.79858 34.347273-1.68051-3.21217-2.90015-7.8236-2.85498-11.92786.10284-9.34821 7.34723-21.819249 16.37932-32.154775-3.16931-.910513-6.57683-1.358654-10.03894-1.358654z" fill="url(#radialGradient5483)"/>
    </g>
    <path d="m204.97139-13.928344c8.21029 15.248229-29.55275 71.621933-68.78415 97.411833l25.14292 9.46627c35.11962-25.4756 23.79211-59.820841 42.51144-75.479976.46498-25.964748 1.48593-18.650272 1.12979-31.398127z" fill="url(#linearGradient4992)"/>
    <ellipse cx="96.778145" cy="120.42741" fill="url(#radialGradient4955)" filter="url(#filter4965)" rx="12.823403" ry="3.32995" transform="matrix(2.8488869 0 0 2.8488869 -114.57279 -253.05449)"/>
    <path d="m131.58213 25.426441c10.3247-2.56466 17.27991-5.761985 19.11579-12.956897 15.29807-25.690404-7.87153-47.24827-.0175-62.626293-10.64628 18.197952-2.50855 49.123076-19.0984 75.58319z" fill="url(#linearGradient4219)"/>
    <path d="m135.74991 21.462175c-31.64829 89.543875 41.46847 60.046914 38.51207 50.560974-12.8457 4.02159-19.39745-6.33866-19.27245-17.69641.13545-12.308231 12.63014-29.980035 25.29578-41.132796 6.21609-5.473595-21.25599-4.630468-18.13755-15.819742-5.29296 5.720624-19.66383-31.420197-11.46723-47.53095-15.10185 25.492344 1.65924 45.158812-14.93062 71.618924z" fill="url(#linearGradient5352)"/>
    <path d="m326.54536 27.22924c-9.7411 10.932781-12.3193 22.019684-11.28756 26.930363 2.92582 13.925775-1.16885 22.364105-8.78905 29.309147-8.04566 6.5669-16.13817 13.299892-16.46875 23.78125-.0226.71734-.0004 1.42331.0313 2.125.006.13624.0231.27057.0313.40625.0398.66343.10022 1.32276.1875 1.96875.004.0307-.004.0631 0 .0937.097.69901.19254 1.38743.34375 2.0625.0236.10658.0688.20651.0937.3125.2426 1.02024.54338 2.01513.90625 2.96875.43928 1.17399.95509 2.31837 1.5625 3.375.0379.0659.0865.12208.125.1875.0119.0202.0193.0423.0313.0625.0239.0402.0384.085.0625.125.16099.26724.32843.52304.5.78125.21096.31798.42955.60257.65625.90625.1733.23244.3489.46387.53125.6875.009.0113.022.02.0313.0313.042.0512.0826.10555.125.15625.18716.22385.36625.4419.5625.65625.0295.0323.064.0617.0937.0937.0864.093.16193.19012.25.28125.13546.14052.26677.27025.40625.40625.64203.6254 1.33808 1.19584 2.0625 1.71875.0185.0134.0439.0179.0625.0313.0767.055.14116.13366.21875.1875.0188.013.0437.0183.0625.0313.26956.18547.53241.3607.8125.53125.22112.13441.45994.25018.6875.375.0245.0134.0379.0492.0625.0625.0896.0486.19071.0779.28125.125.1234.0642.24979.12619.375.1875.0334.0163.0602.0464.0937.0625.30638.14759.62061.276.9375.40625.38186.15695.7595.30666 1.15625.4375.13189.0435.27275.0845.40625.125.48589.14702.99318.26827 1.5.375.0317.007.062.0247.0937.0313.0422.009.0826.0228.125.0313.12348.0244.25033.0405.375.0625.33938.0601.68316.11462 1.03125.15625.0411.005.0838-.005.125 0 .0528.006.1032.0257.15625.0313.15586.0163.31121.0187.46875.0313.29098.0231.57837.0524.875.0625.0748.002.14355-.002.21875 0 .38478.009.76231.0135 1.15625 0 .66317-.0228 1.30149-.0667 1.9375-.125.44718-.0406.87859-.0986 1.3125-.15625.17728-.0237.35617-.036.53125-.0625.46443-.0702.926-.16035 1.375-.25.12572-.0251.25048-.0359.375-.0625.13775-.0294.26997-.0625.40625-.0937.43366-.0994.86237-.22622 1.28125-.34375.35864-.10064.71459-.19888 1.0625-.3125.15127-.0493.28825-.10454.4375-.15625.0412-.0143.0839-.0168.125-.0313.0761-.0268.14319-.0663.21875-.0937.41359-.15012.82085-.30018 1.21875-.46875.0931-.0395.18897-.0845.28125-.125.18869-.0827.37737-.16315.5625-.25.15981-.0748.31158-.14089.46875-.21875.0848-.042.16593-.0821.25-.125.0758-.0387.14358-.0856.21875-.125.87135-.45645 1.7112-.95236 2.5-1.5.11764-.0816.22792-.16649.34375-.25.72569-.52317 1.40693-1.05991 2.0625-1.65625.4021-.36577.81132-.76455 1.1875-1.15625.0465-.0485.0789-.10737.125-.15625.0816-.0864.1696-.1624.25-.25.51927-.56578 1.00016-1.16746 1.46875-1.78125.0266-.0349.0673-.0587.0937-.0937.26236-.34723.50345-.70095.75-1.0625.20801-.30504.39688-.62268.59375-.9375.0596-.0953.12895-.18512.1875-.28125.0383-.063.0871-.12412.125-.1875.0234-.0392.0392-.0856.0625-.125.18929-.31975.3841-.63988.5625-.96875.0734-.13541.14715-.26934.21875-.40625.12278-.23473.22633-.47971.34375-.71875.0311-.0634.063-.12382.0937-.1875.0852-.17661.16763-.35239.25-.53125.1247-.27058.25685-.53691.375-.8125.0492-.11481.10822-.2281.15625-.34375.0428-.10295.0831-.20889.125-.3125.0997-.24669.18655-.49964.28125-.75.0546-.14445.1033-.29186.15625-.4375.0417-.11464.0843-.22839.125-.34375.0751-.21303.14717-.44081.21875-.65625.10327-.31125.21645-.62141.3125-.9375.0542-.17797.10431-.35179.15625-.53125.0996-.34499.18997-.71225.28125-1.0625.0403-.15476.0863-.313.125-.46875.0647-.26021.12731-.51837.1875-.78125.0312-.13636.0637-.26919.0937-.40625.0247-.11277.0386-.23052.0625-.34375.0941-.44632.19964-.89059.28125-1.34375.013-.0719.0186-.14669.0313-.21875.0871-.49694.17763-.99563.25-1.5.004-.0304-.004-.0633 0-.0937.20597-1.45213.35031-2.93529.4375-4.4375.009-.154502.0235-.313814.0313-.46875.005-.102856-.005-.20946 0-.3125.009-.199627-.007-.393459 0-.59375.0434-1.262497.0664-2.529146.0313-3.8125-.009-.344001-.0193-.688699-.0313-1.03125-.0267-.613546-.0499-1.227653-.0937-1.84375-.0644-.544668-.13548-1.103664-.21875-1.65625-.0156-.10335-.0463-.208906-.0625-.3125-.0708-.452386-.13627-.91848-.21875-1.375-.0263-.14561-.0663-.291526-.0937-.4375-.0116-.06195-.0194-.125485-.0313-.1875-.17501-.915399-.37748-1.824765-.59375-2.75-.23037-.985555-.47911-1.98001-.75-2.96875-.0426-.155682-.0814-.313107-.125-.46875-.009-.03171-.0223-.06204-.0313-.09375-.0761-.270828-.1707-.541937-.25-.8125-.024-.08253-.0382-.167504-.0625-.25-.0737-.25039-.14295-.500028-.21875-.75-.0478-.15764-.10766-.311319-.15625-.46875-.10752-.344779-.20155-.687732-.3125-1.03125-.13117-.409177-.27032-.811916-.40625-1.21875-.20619-.617503-.40918-1.23336-.625-1.84375-.0364-.102909-.0571-.209828-.0937-.3125-.2078-.58216-.44139-1.145293-.65625-1.71875-.19521-.521012-.39385-1.050112-.59375-1.5625-.70421-1.805855-1.42409-3.527072-2.15625-5.1875-.14173-.321418-.26453-.654122-.40625-.96875-.13152-.291938-.27502-.558022-.40625-.84375-.004-.0087.004-.0226 0-.03125-.30969-.674573-.60076-1.300739-.90625-1.9375-.1048-.218531-.20847-.411271-.3125-.625-.10819-.222278-.20531-.439369-.3125-.65625-.22637-.458501-.43542-.848174-.65625-1.28125-.41298-.809894-.80161-1.570057-1.1875-2.28125-.33556-.619117-.62931-1.182827-.9375-1.71875-.0546-.09509-.10261-.157657-.15625-.25-.36567-.62976-.71731-1.19368-1.03125-1.6875-.29382-.462664-.54221-.824436-.78125-1.15625-.0505-.07007-.10847-.186084-.15625-.25-.0947-.146323-.18372-.289328-.28125-.4375-.7105-3.763016-1.24744-7.46391-1.3125-10.96875z" fill="url(#linearGradient5036)" filter="url(#filter4183)" transform="matrix(1.9294327 0 0 1.9294327 -436.74575 -157.24978)"/>
    <path d="m155.30067 28.072612c6.14518-22.533681 23.78411-39.422344 23.38637-63.339756-.20172-12.128417-3.80489-49.070616 14.61452-69.204126-15.65951 22.985893-4.95324 59.445365 4.91691 73.600096l-42.91788 58.943786z" fill="url(#linearGradient4069)"/>
    <path d="m204.97139-13.928344c8.21029 15.248229-29.55275 71.621933-68.78415 97.411833l25.14292 9.46627c35.11962-25.4756 52.11008-76.204645 49.30904-87.764661-.82343-2.929412-2.6852-11.004452-5.66781-19.113442z" fill="url(#linearGradient5344)"/>
    <path d="m213.48515 25.660813c0 28.105086-29.91034 50.888766-66.80663 50.888766-6.09686 0-11.99414-.6434-17.60607-1.80883 6.48865 11.28731 17.79546 18.7062 32.25771 18.20901 37.50479-1.28928 52.37001-32.41597 52.15499-67.288946z" fill="url(#radialGradient4123)"/>
    <path d="m167.63538-1.721297c16.18567-13.567167 13.3552-17.801186 7.95519-37.903382-2.62897-9.786744-1.69362-43.985607 17.71099-64.846591-9.65479 12.663057-13.95549 38.907219-9.91619 44.953771.91685 1.372451 1.77572 2.710342 2.56673 3.994584l5.64407 24.724658-23.96079 29.07696" fill="url(#linearGradient4077)"/>
    <path d="m183.99849-83.06267c-5.32002 19.957835-.5623 24.920428.44077 27.744573 17.84612 50.245813-60.02685 59.042014-61.45657 104.373266-.53409 16.93323 6.87143 31.83453 19.7164 39.13131-8.69854-5.28262-13.72093-27.97339-.12062-43.95488 13.60031-15.981489 67.83729-40.666328 55.35061-76.514064-7.00119-15.853297-19.25919-30.705615-13.9306-50.780205z" fill="url(#linearGradient5342)"/>
    <path d="m213.48515 25.660813c0 28.105086-29.91034 50.888766-66.80663 50.888766-6.09686 0-11.99414-.6434-17.60607-1.80883 6.48865 11.28731 17.79546 18.7062 32.25771 18.20901 37.50479-1.28928 52.37001-32.41597 52.15499-67.288946z" fill="url(#linearGradient5340)"/>
    <path d="m204.97139-13.928344c8.21029 15.248229-29.55275 71.621933-68.78415 97.411833l25.14292 9.46627c35.11962-25.4756 52.11008-76.204645 49.30904-87.764661-.82343-2.929412-2.6852-11.004452-5.66781-19.113442z" fill="url(#linearGradient5344)"/>
    <path clip-path="url(#clipPath5052)" d="m81.5625 114.8125c-3.000663-14.860107 22.81382-23.449065 19.52883-26.497409l-.96633-.627591-20.327738 13.56083z" filter="url(#filter5062)" opacity=".70297" transform="matrix(2.415383 0 0 2.415383 -63.336922 -200.63644)"/>
    <path d="m183.99849-83.06267c-5.32002 19.957835-2.59047 28.549787-1.5874 31.373932 17.84612 50.245813-57.99868 55.412655-59.4284 100.743907-.53409 16.93323 6.87143 31.83453 19.7164 39.13131-8.69854-5.28262-13.72093-27.97339-.12062-43.95488 13.60031-15.981489 67.83729-40.666328 55.35061-76.514064-7.00119-15.853297-19.25919-30.705615-13.9306-50.780205z" fill="url(#linearGradient5342)"/>
    <path d="m213.48515 25.660813c0 28.105086-29.91034 50.888766-66.80663 50.888766-6.09686 0-11.99414-.6434-17.60607-1.80883 6.48865 11.28731 17.79546 18.7062 32.25771 18.20901 37.50479-1.28928 52.37001-32.41597 52.15499-67.288946z" fill="url(#linearGradient5340)"/>
    <path d="m161.2937 20.824c-19.92197 0-36.0043 16.157804-36.0043 36.079769 0 19.92199 16.08233 36.07979 36.0043 36.07979 1.54617-.0531 3.0591-.22464 4.52885-.37741 17.17258-2.14834 30.56877-16.28615 31.47545-33.81535-3.58377 3.17282-5.83356 5.04928-10.33493 7.46957 4.49869-6.56223 7.94316-12.30016 11.02521-17.96258-1.8384-6.807933-5.2887-11.798856-10.3814-16.379773-7.69033 12.248643-19.24354 23.640803-29.79858 34.347273-1.68051-3.21217-2.90015-7.8236-2.85498-11.92786.10284-9.34821 7.34723-21.819249 16.37932-32.154775-3.16931-.910513-6.57683-1.358654-10.03894-1.358654z" fill="url(#radialGradient5080)"/>
  </g>
</svg>
