<svg height="256" width="256" xmlns="http://www.w3.org/2000/svg" xmlns:xlink="http://www.w3.org/1999/xlink">
  <defs>
    <linearGradient id="linearGradient4222">
      <stop offset="0" stop-color="#fff"/>
      <stop offset="1" stop-color="#fff" stop-opacity="0"/>
    </linearGradient>
    <linearGradient id="linearGradient5060-3">
      <stop offset="0"/>
      <stop offset="1" stop-opacity="0"/>
    </linearGradient>
    <linearGradient id="linearGradient4307" gradientTransform="matrix(.9756098 0 0 .9101061 .097558 -0)" gradientUnits="userSpaceOnUse" x1="21.478369" x2="21.478369" y1="1.684506" y2="6.574707">
      <stop offset="0" stop-color="#eeeeec"/>
      <stop offset="1" stop-color="#fff"/>
    </linearGradient>
    <linearGradient id="linearGradient2411">
      <stop offset="0" stop-color="#f5cb11"/>
      <stop offset=".25796592" stop-color="#fefe98"/>
      <stop offset=".50796592" stop-color="#efc200"/>
      <stop offset=".74009573" stop-color="#cf9c00"/>
      <stop offset="1" stop-color="#ffe00d"/>
    </linearGradient>
    <radialGradient id="radialGradient26274" cx="70.487465" cy="102.11657" gradientTransform="matrix(2.0609843 .01781511 -.00690336 .79863311 -324.71642 162.27512)" gradientUnits="userSpaceOnUse" r="21.531792">
      <stop offset="0" stop-color="#fefe97" stop-opacity=".50684"/>
      <stop offset="1" stop-color="#f4b900" stop-opacity=".254289"/>
    </radialGradient>
    <radialGradient id="radialGradient26268" cx="66.480537" cy="104.7655" gradientTransform="matrix(2.2515338 -.00904651 .00311214 .77455966 -334.84799 165.16607)" gradientUnits="userSpaceOnUse" r="21.531792">
      <stop offset="0" stop-color="#fefc93" stop-opacity=".723597"/>
      <stop offset="1" stop-color="#ffc205" stop-opacity=".338887"/>
    </radialGradient>
    <radialGradient id="radialGradient2020" cx="-201.54546" cy="166.431773" gradientUnits="userSpaceOnUse" r="6.249575" xlink:href="#linearGradient4222"/>
    <linearGradient id="linearGradient1816" gradientUnits="userSpaceOnUse" x1="136.38321" x2="150.0293" xlink:href="#linearGradient4222" y1="22.070805" y2="13.712175"/>
    <filter id="filter1802" color-interpolation-filters="sRGB" height="1.154667" width="1.276134" x="-.156378" y="-.087634">
      <feGaussianBlur stdDeviation="1.0168145"/>
    </filter>
    <linearGradient id="linearGradient1812" gradientUnits="userSpaceOnUse" x1="-199.74866" x2="-186.10257" xlink:href="#linearGradient4222" y1="173.688105" y2="165.329475"/>
    <linearGradient id="linearGradient1665" gradientUnits="userSpaceOnUse" x1="135.92735" x2="149.97227" xlink:href="#linearGradient5060-3" y1="35.426853" y2="18.994919"/>
    <filter id="filter1477" color-interpolation-filters="sRGB" height="1.141288" width="1.250151" x="-.136584" y="-.07717">
      <feGaussianBlur stdDeviation="1.0233253"/>
    </filter>
    <linearGradient id="linearGradient1487" gradientUnits="userSpaceOnUse" x1="-200.20452" x2="-186.1596" xlink:href="#linearGradient5060-3" y1="187.044153" y2="170.612219"/>
    <linearGradient id="linearGradient1071" gradientUnits="userSpaceOnUse" x1="-190.92571" x2="-163.130349" y1="158.162218" y2="197.448862">
      <stop offset="0" stop-color="#f1f1f1"/>
      <stop offset="1" stop-color="#c3c3c3"/>
    </linearGradient>
    <linearGradient id="linearGradient12232" gradientUnits="userSpaceOnUse" x1="-168.55767" x2="-203.61191" y1="208.827715" y2="164.45658">
      <stop offset="0" stop-color="#878787"/>
      <stop offset="1" stop-color="#d3d3d3"/>
    </linearGradient>
    <linearGradient id="linearGradient1667" gradientUnits="userSpaceOnUse" x1="-191.08495" x2="-177.3445" y1="198.27619" y2="213.769663">
      <stop offset="0" stop-color="#dba600"/>
      <stop offset="1" stop-color="#a87f00"/>
    </linearGradient>
    <filter id="filter12394" color-interpolation-filters="sRGB" height="3.542964" width="1.170809" x="-.085405" y="-1.271482">
      <feGaussianBlur stdDeviation="1.4869846"/>
    </filter>
    <linearGradient id="linearGradient1867" gradientUnits="userSpaceOnUse" x1="-182.38094" x2="-181.71112" y1="210.721491" y2="220.970831">
      <stop offset="0" stop-color="#fef4b8" stop-opacity=".844658"/>
      <stop offset="1" stop-color="#fef6c9"/>
    </linearGradient>
    <linearGradient id="linearGradient1659" gradientUnits="userSpaceOnUse" x1="-218.75225" x2="-151.7697" xlink:href="#linearGradient2411" y1="235.111845" y2="235.111845"/>
    <linearGradient id="linearGradient1675" gradientUnits="userSpaceOnUse" x1="-183.18792" x2="-183.47129" y1="210.11146" y2="201.909574">
      <stop offset="0" stop-color="#fbd600"/>
      <stop offset="1" stop-color="#fff56d"/>
    </linearGradient>
    <linearGradient id="linearGradient1857" gradientUnits="userSpaceOnUse" x1="-213.86841" x2="-157.72936" xlink:href="#linearGradient2411" y1="213.182932" y2="213.127634"/>
    <filter id="filter965" color-interpolation-filters="sRGB" height="1.564308" width="1.135944" x="-.067972" y="-.282154">
      <feGaussianBlur stdDeviation="1.9633793"/>
    </filter>
  </defs>
  <g transform="matrix(2 0 0 2 498.5235 -297.55174)">
    <ellipse cx="150.87012" cy="103.63491" filter="url(#filter965)" opacity=".615454" rx="34.662132" ry="8.35025" transform="matrix(.99906185 0 0 .82518815 -335.99033 171.21224)"/>
    <path d="m-218.25187 208.47589h65.98216c.14045 8.85073-11.66526 9.37843-32.99127 9.55154-21.32601.17312-33.18704-.78961-32.99089-9.55154z" fill="url(#linearGradient1857)"/>
    <path d="m-218.25187 211.26165c22.12531 1.53859 44.17475 2.12479 65.98216 0v-10.74335c-21.99405-.97309-43.98811-1.12471-65.98216 0z" fill="url(#linearGradient1675)"/>
    <path d="m-218.25225 258.04456v-48.78291c11.93408 6.67124 22.36882 8.3729 32.99127 8.3729s21.05719-1.70166 32.99127-8.3729v48.78291c-9.88486 1.86186-19.63414 3.2698-32.99116 3.2698s-23.10652-1.40794-32.99138-3.2698z" fill="url(#linearGradient1659)"/>
    <path d="m-218.25187 211.26165c22.39197 1.78004 44.40118 1.8664 65.98216 0-8.18689 4.16815-17.78382 8.38027-32.99127 8.3729-15.20745-.007-24.61222-4.05671-32.99089-8.3729z" style="fill:#fff;fill-opacity:.399135;stroke-width:2;stroke-linecap:round;stroke-linejoin:round;stroke:url(#linearGradient1867)"/>
    <path d="m-204.64248 206.19397c0 1.10084-2.30445 1.99325-5.14712 1.99325s-5.14712-.89241-5.14712-1.99325 2.30445-1.99325 5.14712-1.99325 5.14712.89241 5.14712 1.99325zm38.76146 0c0 1.10084 2.30445 1.99325 5.14712 1.99325s5.14712-.89241 5.14712-1.99325-2.30445-1.99325-5.14712-1.99325-5.14712.89241-5.14712 1.99325z" filter="url(#filter12394)" opacity=".599995" stroke="#000" stroke-linejoin="round" stroke-width="3"/>
    <path d="m-218.25301 258.04503c9.88485 1.86186 19.63518 3.26954 32.99218 3.26954 13.35701 0 23.10539-1.40768 32.99024-3.26954l.00005-57.52734c-10.99702-.48654-21.99322-.7662-32.99024-.78516-10.99701-.0189-21.99322.2228-32.99023.78516z" fill="none" stroke="url(#linearGradient1667)" stroke-width="2"/>
    <path d="m-185.26078 160.05285c-12.1495-.0943-29.67578 7.9736-29.67578 29.16797v16.57421c0 1.10085 2.30577 1.99219 5.14844 1.99219s5.14648-.89134 5.14648-1.99219v-16.57421c0-15.3228 12.43415-19.33883 19.38086-19.29688 6.94672-.0419 19.38086 3.97408 19.38086 19.29688v16.57421c0 1.10085 2.30382 1.99219 5.14649 1.99219 2.84266 0 5.14648-.89134 5.14648-1.99219v-16.57421c0-21.19437-17.52432-29.26223-29.67383-29.16797z" fill="url(#linearGradient1071)" stroke="url(#linearGradient12232)" stroke-width="2"/>
    <path d="m-206.42981 205.94074v-18.29505c0-11.04551 8.49841-20.05807 21.6422-20.00929" fill="none" filter="url(#filter1477)" stroke="url(#linearGradient1487)"/>
    <path d="m129.70206 54.323436v-18.295044c0-11.045515 8.49841-25.573623 21.6422-25.524845" fill="none" filter="url(#filter1477)" stroke="url(#linearGradient1665)" transform="matrix(-1 0 0 1 -28.06813 151.6173)"/>
    <path d="m-213.14195 204.16388v-16.54316c0-16.85447 17.51884-25.89586 26.4015-25.86217" fill="none" filter="url(#filter1802)" stroke="url(#linearGradient1812)" stroke-width="2"/>
    <path d="m122.98992 52.546579v-16.54316c0-12.567284 11.51884-19.895859 20.4015-19.86217" fill="none" filter="url(#filter1802)" stroke="url(#linearGradient1816)" stroke-width="1.5" transform="matrix(-1 0 0 1 -40.74674 151.6173)"/>
    <circle cx="-201.54546" cy="166.43178" fill="url(#radialGradient2020)" opacity=".615454" r="6.249575"/>
    <path d="m-200.54119 230.23843c-3.38459-.55852-5.53543.51144-5.52991 3.02655.005 2.10042 1.15 3.46681 4.57409 4.85257.71936.292 1.44009.57673 2.16258.85397 1.61261.61601 2.25532 1.2394 2.25477 2.24287-.00073 1.34639-1.37096 2.09325-3.3957 1.76508-1.24827-.20232-2.29482-.75245-2.87322-1.46117-.35792-.47617-.52258-.91621-.65986-1.93966-.80663-.15841-1.61052-.3254-2.41238-.50036.10725 3.26006 1.95441 5.36427 5.74713 5.98739 3.66288.60179 6.02292-1.02331 6.02422-3.7369.001-2.11703-1.23304-3.3138-4.12987-4.39163-.74177-.27375-1.48173-.55553-2.22032-.84512-1.882-.73457-2.68091-1.48841-2.68283-2.43888-.003-1.26854 1.17805-1.79009 3.06357-1.47893 1.85924.30683 2.8645 1.1614 2.92225 2.59421.81819.10972 1.63777.20898 2.45928.29737-.0308-2.67301-1.94213-4.27262-5.3038-4.82736zm14.93374 1.25459c-.30122-.002-.5942.008-.87843.0318-3.62581.33877-5.89121 2.76661-5.89096 7.01608.00026 4.2544 2.19512 7.34345 5.88663 7.72998.26579.0305.53963.0471.82135.0493.14872.001.29557-.002.44048-.008 3.17217-.18483 5.34687-2.23815 5.91653-5.20587-.79292.06-1.58632.10959-2.38063.14861-.61214 1.7662-1.81953 2.80529-3.53475 2.93718-.11615.008-.23452.0109-.3551.0101-.31339-.002-.61623-.0345-.90654-.0956-1.10225-.22104-2.02636-.85985-2.65131-1.82663-.56319-.83261-.76127-1.65219-.78922-3.03197 1.14635.0545 2.29346.0865 3.44267.0953.41955.008.84009.012 1.26169.0133 2.08011-.018 4.15261-.11107 6.22542-.27482.002-2.11983-.16531-3.34265-.58917-4.31458-.9163-2.04207-3.02317-3.17124-5.634-3.26342-.12716-.006-.25541-.01-.38466-.0105zm15.27118-1.36427c-3.98249.67745-6.56498 3.66956-6.56909 8.26167-.004 4.4661 2.54272 7.24734 6.5212 6.57693 3.49694-.58928 5.67521-3.20352 5.95372-6.68102-.77423.17063-1.55015.33439-2.32833.49071-.39079 2.3254-1.58253 3.73101-3.56876 4.06597-2.57569.43438-4.12707-1.45663-4.12368-4.73397.004-3.4565 1.53035-5.59611 4.08014-6.02716 1.9597-.33129 3.17824.45396 3.45198 2.29772.77859-.15571 1.55492-.31895 2.32957-.48914-.10734-1.30227-.40908-2.08236-.96094-2.70494-.99239-1.03765-2.74213-1.40441-4.78581-1.05677zm-15.29851 3.30631c.13961.001.27687.007.41158.019 2.1938.16112 3.67782 1.68052 3.67624 4.00269-1.22512.0621-2.45038.0987-3.67742.1093-.42166-.001-.84225-.006-1.26186-.0134-1.13003-.009-2.25805-.04-3.38532-.093.17274-2.21951 1.46897-3.64128 3.38578-3.96365.27136-.0427.55553-.0633.851-.0609z" fill="url(#radialGradient26274)" stroke="url(#radialGradient26268)"/>
  </g>
  <g transform="matrix(4 0 0 4 8.000002 169.22289)">
    <rect fill="url(#linearGradient4307)" height="9.101061" rx="2.076685" ry="1.937254" stroke="#000" stroke-width=".942289" width="51.024391" x="4.487804" y=".455053"/>
    <path d="m6.957314 1.3935999c-.8473229 0-1.4634147.5747267-1.4634147 1.3651592v4.4936489c0 .7904325.6160918 1.3651591 1.4634147 1.3651591h46.085367c.847323 0 1.463415-.5747265 1.463415-1.3651591v-4.4936489c0-.7904332-.61609-1.3651592-1.463415-1.3651592z" fill="none" stroke="#fff" stroke-width=".942289"/>
    <rect fill="#555753" height="6" width=".999997" x="39" y="2.027258"/>
    <g stroke-width=".25">
      <path d="m8.415516 3.2755826c-.9800005 0-1.7600009.7600004-1.7600009 1.7133342 0 .9733338.7666671 1.7466675 1.7333342 1.7466675.9533338 0 1.7266677-.7733337 1.7266677-1.7333342 0-.9400004-.7733339-1.7266675-1.700001-1.7266675z"/>
      <path d="m12.442185 3.2755826c-.98 0-1.760001.7600004-1.760001 1.7133342 0 .9733338.766667 1.7466675 1.733334 1.7466675.953334 0 1.726668-.7733337 1.726668-1.7333342 0-.9400004-.773334-1.7266675-1.700001-1.7266675z"/>
      <path d="m16.468854 3.2755826c-.98 0-1.760001.7600004-1.760001 1.7133342 0 .9733338.766667 1.7466675 1.733334 1.7466675.953334 0 1.726668-.7733337 1.726668-1.7333342 0-.9400004-.773334-1.7266675-1.700001-1.7266675z"/>
      <path d="m20.495524 3.2755826c-.980001 0-1.760001.7600004-1.760001 1.7133342 0 .9733338.766667 1.7466675 1.733334 1.7466675.953334 0 1.726667-.7733337 1.726667-1.7333342 0-.9400004-.773333-1.7266675-1.7-1.7266675z"/>
      <path d="m24.522192 3.2755826c-.98 0-1.760001.7600004-1.760001 1.7133342 0 .9733338.766667 1.7466675 1.733334 1.7466675.953334 0 1.726668-.7733337 1.726668-1.7333342 0-.9400004-.773334-1.7266675-1.700001-1.7266675z"/>
      <path d="m28.548861 3.2755826c-.980001 0-1.760001.7600004-1.760001 1.7133342 0 .9733338.766667 1.7466675 1.733334 1.7466675.953334 0 1.726667-.7733337 1.726667-1.7333342 0-.9400004-.773333-1.7266675-1.7-1.7266675z"/>
      <path d="m32.575531 3.2755826c-.98 0-1.760001.7600004-1.760001 1.7133342 0 .9733338.766667 1.7466675 1.733334 1.7466675.953334 0 1.726668-.7733337 1.726668-1.7333342 0-.9400004-.773334-1.7266675-1.700001-1.7266675z"/>
      <path d="m36.6022 3.2755826c-.980001 0-1.760001.7600004-1.760001 1.7133342 0 .9733338.766667 1.7466675 1.733334 1.7466675.953334 0 1.726667-.7733337 1.726667-1.7333342 0-.9400004-.773333-1.7266675-1.7-1.7266675z"/>
    </g>
  </g>
</svg>
