<svg enable-background="new" height="256" width="256" xmlns="http://www.w3.org/2000/svg" xmlns:xlink="http://www.w3.org/1999/xlink">
  <defs>
    <linearGradient id="linearGradient9677">
      <stop offset="0" stop-color="#fff"/>
      <stop offset="1" stop-color="#fff" stop-opacity="0"/>
    </linearGradient>
    <filter id="filter1485" color-interpolation-filters="sRGB" height="1.92481" width="1.082332" x="-.041166" y="-.462405">
      <feGaussianBlur stdDeviation="3.5311722"/>
    </filter>
    <linearGradient id="linearGradient1489" gradientUnits="userSpaceOnUse" x1="-76.711154" x2="12.41475" y1="21.840365" y2="184.564073">
      <stop offset="0" stop-color="#262626"/>
      <stop offset=".52639353" stop-color="#393939"/>
      <stop offset=".62553692" stop-color="#3e3e3e"/>
      <stop offset="1" stop-color="#1b1b1b"/>
    </linearGradient>
    <radialGradient id="radialGradient1341" cx="123.42654" cy="36.308285" gradientTransform="matrix(1.1369986 -.0054794 .00339847 .70519558 -185.40159 14.203986)" gradientUnits="userSpaceOnUse" r="105.53831">
      <stop offset="0" stop-color="#fff"/>
      <stop offset="1" stop-color="#fff" stop-opacity=".6"/>
    </radialGradient>
    <filter id="filter10741-2" height="1.341228" width="1.159343" x="-.079672" y="-.170614">
      <feGaussianBlur stdDeviation="7.9388137"/>
    </filter>
    <filter id="filter4483-0" height="1.065022" width="1.030346" x="-.015173" y="-.032511">
      <feGaussianBlur stdDeviation="1.512155"/>
    </filter>
    <linearGradient id="linearGradient15348-3" gradientTransform="matrix(.05069732 .05069731 -.05069732 .05069731 505.34964 -52.290784)" gradientUnits="userSpaceOnUse" x1="-2219.6113" x2="1116.0051" y1="5545.751" y2="4595.5303">
      <stop offset="0" stop-color="#babdb6"/>
      <stop offset=".17445399" stop-color="#f2f2f1"/>
      <stop offset=".23801444" stop-color="#edeeec"/>
      <stop offset=".27069226" stop-color="#dcdeda"/>
      <stop offset="1" stop-color="#fff"/>
    </linearGradient>
    <radialGradient id="radialGradient15345-6" cx="208.77328" cy="205.79987" gradientTransform="matrix(.79463799 -.60708357 1.4385965 1.8830413 -255.18886 -54.124898)" gradientUnits="userSpaceOnUse" r="30.228815">
      <stop offset="0" stop-color="#fefefe"/>
      <stop offset="1" stop-color="#fefefe" stop-opacity="0"/>
    </radialGradient>
    <radialGradient id="radialGradient15342-2" cx="193.12854" cy="187.57002" gradientTransform="matrix(1.3067096 1.3801918 -.73313368 .6941012 76.27953 -209.17699)" gradientUnits="userSpaceOnUse" r="27.66555">
      <stop offset="0" stop-color="#858585"/>
      <stop offset="1" stop-color="#858585" stop-opacity="0"/>
    </radialGradient>
    <linearGradient id="linearGradient15337-6" gradientUnits="userSpaceOnUse" x1="213.13724" x2="211.67818" xlink:href="#linearGradient9677" y1="188.98424" y2="190.4433"/>
    <linearGradient id="linearGradient15334-1" gradientUnits="userSpaceOnUse" x1="222.68317" x2="220.5545" xlink:href="#linearGradient9677" y1="198.44179" y2="200.57045"/>
    <linearGradient id="linearGradient15331-8" gradientUnits="userSpaceOnUse" x1="192.63113" x2="190.86339" xlink:href="#linearGradient9677" y1="168.56653" y2="170.51106"/>
    <linearGradient id="linearGradient17431-7" gradientUnits="userSpaceOnUse" x1="168.75" x2="155.5" xlink:href="#linearGradient9677" y1="127.625" y2="127.125"/>
    <filter id="filter12480-2-4-0-2" color-interpolation-filters="sRGB" height="1.043293" width="1.047422" x="-.021105" y="-.021184">
      <feGaussianBlur stdDeviation=".56367413"/>
    </filter>
    <filter id="filter14881-7-9" color-interpolation-filters="sRGB" height="1.218573" width="1.218573" x="-.109286" y="-.109286">
      <feGaussianBlur stdDeviation=".60614225"/>
    </filter>
    <filter id="filter15394" height="1.14699" width="1.164319" x="-.08216" y="-.073495">
      <feGaussianBlur stdDeviation="1.3220716"/>
    </filter>
    <radialGradient id="radialGradient17441-8" cx="145.9375" cy="167.18562" gradientTransform="matrix(-.27628108 -.00000003 .00000006 -.50696268 193.46113 186.32132)" gradientUnits="userSpaceOnUse" r="23.582542" xlink:href="#linearGradient9677"/>
    <radialGradient id="radialGradient17445-9" cx="149.22049" cy="170.76392" gradientTransform="matrix(-.40433876 -.01060106 .01281791 -.48889231 219.91316 188.1315)" gradientUnits="userSpaceOnUse" r="23.582542" xlink:href="#linearGradient9677"/>
    <radialGradient id="radialGradient3579-7" cx="145.9375" cy="167.18562" gradientTransform="matrix(.23926642 .13814056 -.25348139 .43904253 138.49617 67.984793)" gradientUnits="userSpaceOnUse" r="23.582542" xlink:href="#linearGradient9677"/>
    <radialGradient id="radialGradient3581-3" cx="149.22049" cy="170.76392" gradientTransform="matrix(.3448671 .21135017 -.25554679 .41698421 116.49305 53.191068)" gradientUnits="userSpaceOnUse" r="23.582542" xlink:href="#linearGradient9677"/>
    <linearGradient id="linearGradient15348" gradientTransform="matrix(.05069732 .05069731 -.05069732 .05069731 505.34964 -52.290784)" gradientUnits="userSpaceOnUse" x1="-2219.6113" x2="1116.0051" y1="5545.751" y2="4595.5303">
      <stop offset="0" stop-color="#f5cb11"/>
      <stop offset=".25796592" stop-color="#fefe98"/>
      <stop offset=".50796592" stop-color="#efc200"/>
      <stop offset=".74009573" stop-color="#cf9c00"/>
      <stop offset="1" stop-color="#ffe00d"/>
    </linearGradient>
    <radialGradient id="radialGradient15342" cx="193.12854" cy="187.57002" gradientTransform="matrix(1.3067096 1.3801918 -.73313368 .6941012 76.27953 -209.17699)" gradientUnits="userSpaceOnUse" r="27.66555">
      <stop offset="0" stop-color="#a87f00"/>
      <stop offset="1" stop-color="#dba600" stop-opacity=".403747"/>
    </radialGradient>
    <radialGradient id="radialGradient15189" cx="152.45" cy="113.6" gradientUnits="userSpaceOnUse" r="25.799999" xlink:href="#linearGradient9677"/>
    <linearGradient id="linearGradient3206" gradientUnits="userSpaceOnUse" x1="-19.567272" x2="23.103989" y1="146.57585" y2="188.40904">
      <stop offset="0"/>
      <stop offset="1" stop-opacity="0"/>
    </linearGradient>
    <clipPath id="clipPath293">
      <g transform="matrix(.74494288 0 0 .74494288 -163.89996 16.676443)">
        <path d="m149.8125 99.71875c-19.0905 0-34.5625 15.50325-34.5625 34.59374 0 19.09052 15.472 34.56251 34.5625 34.56251 5.20622 0 10.1345-1.18862 14.5625-3.25l50.875 50.90625h6.0625l-.6875-1.68751h3.03125l1 1.68751 7.84375-2.125-.875-.875-1.59375-9.75001-7.375-7.40624-7.0625.34376v-8.06251l-5.03125-5.03125-5.71875 1-.3125-7.71876-21.59375-20.34374 2.125-2.125.65625-2.68751-3.90625-4.43749c1.63233-4.01558 2.5625-8.39824 2.5625-13.00001 0-19.09049-15.472-34.59374-34.5625-34.59374z" fill="none" stroke="#000" stroke-width="2.00001"/>
      </g>
    </clipPath>
    <clipPath id="clipPath304">
      <g transform="matrix(-1.1254698 0 0 -1.1254698 297.33626 262.86013)">
        <path d="m171.38693 151.33516v-56.526248h-65.15276v56.526248zm-32.51963-19.46636c-4.95234 0-8.96702-4.01468-8.96702-8.96702 0-4.95235 4.01468-8.96702 8.96702-8.96702 4.95235 0 8.96701 4.01467 8.96701 8.96702 0 4.95234-4.01466 8.96702-8.96701 8.96702z" fill="none" stroke="#000" stroke-width="1.72415"/>
      </g>
    </clipPath>
    <clipPath id="clipPath315">
      <g transform="matrix(.74494288 0 0 .74494288 -163.89995 16.676442)">
        <path d="m149.8125 99.71875c-19.0905 0-34.5625 15.50325-34.5625 34.59374 0 19.09052 15.472 34.56251 34.5625 34.56251 5.20622 0 10.1345-1.18862 14.5625-3.25l50.875 50.90625h6.0625l-.6875-1.68751h3.03125l1 1.68751 7.84375-2.125-.875-.875-1.59375-9.75001-7.375-7.40624-7.0625.34376v-8.06251l-5.03125-5.03125-5.71875 1-.3125-7.71876-21.59375-20.34374 2.125-2.125.65625-2.68751-3.90625-4.43749c1.63233-4.01558 2.5625-8.39824 2.5625-13.00001 0-19.09049-15.472-34.59374-34.5625-34.59374z" fill="none" stroke="#000" stroke-width="2.00001"/>
      </g>
    </clipPath>
  </defs>
  <g transform="translate(169.48077 16.545742)">
    <ellipse cx="-41.48077" cy="178.45775" filter="url(#filter1485)" opacity=".5" rx="102.93508" ry="9.163844"/>
    <path d="m-143.51908 26.812109h182.03831c3.23591 0 6.72441.133778 10.03831 4l12 14c2.95079 3.442592 6 5.346109 6 8.926012v120.926009c0 3.324-2.676 6-6 6h-204.07662c-3.324 0-6-2.676-6-6v-141.852021c0-3.324 2.676-6 6-6z" fill="url(#linearGradient1489)"/>
    <path d="m-139.51908 30.812109h176.03831c3.23591 0 6.77842.08813 10.03831 4l10 12c2.9027 3.483239 6 5.346109 6 8.926012v114.926009c0 3.324-2.676 6-6 6h-196.07662c-3.324 0-6-2.676-6-6v-133.852021c0-3.324 2.676-6 6-6z" fill="url(#linearGradient1489)" stroke="url(#radialGradient1341)" stroke-linecap="round" stroke-linejoin="round" stroke-width="3"/>
  </g>
  <g enable-background="new" transform="matrix(.75 0 0 .75 55.092835 23.319277)">
    <g enable-background="new" transform="matrix(.80528528 .80528528 .80528528 -.80528528 -202.20397 131.7332)">
      <path d="m212.96875 100.375c-.82645.0122-1.64063.0625-2.46875.125-26.5 2-40.5 14.5-45.5 23s-7 13.5-7 13.5h-117l-14.5 20.5 11 11h17.5l9-9 8 8.5 11.5 1 6-8.5 7.5 9 50-1.5.5 10 9.5-1.5s17 37 49 35.5 62-24.5 59.5-57c-2.42187-31.48437-26.91141-55.004837-52.53125-54.625zm22.45982 41.05357c8.00813 0 14.5 6.49187 14.5 14.5s-6.49187 14.5-14.5 14.5-14.5-6.49187-14.5-14.5 6.49187-14.5 14.5-14.5z" filter="url(#filter10741-2)" opacity=".289474" transform="matrix(-.43794261 -.43794261 .43794261 -.43794261 177.338 290.69614)"/>
      <path d="m212.96875 100.375c-.82645.0122-1.64063.0625-2.46875.125-26.5 2-40.5 14.5-45.5 23s-7 13.5-7 13.5h-117l-14.5 20.5 11 11h17.5l9-9 8 8.5 11.5 1 6-8.5 7.5 9 50-1.5.5 10 9.5-1.5s16.96486 35.5 49 35.5c39.00321 0 62-24.5 59.5-57-2.42187-31.48437-26.91141-55.004837-52.53125-54.625zm22.45982 41.05357c8.00813 0 14.5 6.49187 14.5 14.5s-6.49187 14.5-14.5 14.5-14.5-6.49187-14.5-14.5 6.49187-14.5 14.5-14.5z" filter="url(#filter4483-0)" opacity=".267544" transform="matrix(-.43794261 -.43794261 .43794261 -.43794261 174.71036 293.32378)"/>
      <path d="m180.77685 155.01904 23.49174 22.14935.33559 7.71871 5.70514-1.00679 5.03394 5.03395v8.05431l7.04752-.3356 7.38312 7.38312 1.67798 10.06788-53.69539-53.69539z" fill="#555753"/>
      <path d="m149.56641 99.981263c-19.0905 0-34.56641 15.475907-34.56641 34.566407s15.47591 34.56641 34.56641 34.56641c5.20622 0 10.12849-1.16873 14.55648-3.23011l50.88478 50.88477h6.04073l-.6712-1.67798h3.02037l1.00679 1.67798 7.84456-2.09748-53.48564-53.94708 6.04073-6.04074.67119-2.68477-3.90131-4.44665c1.63233-4.01558 2.55892-8.40259 2.55892-13.00435 0-19.0905-15.4759-34.566407-34.5664-34.566407zm-11.07468 14.095037c5.0043 0 9.0611 4.0568 9.0611 9.0611s-4.0568 9.0611-9.0611 9.0611-9.0611-4.0568-9.0611-9.0611 4.0568-9.0611 9.0611-9.0611z" fill="url(#linearGradient15348-3)"/>
      <path d="m218.26376 216.20785-60.10407-61.87185v-1.06066l15.9099 12.72792 44.54773 44.54773z" fill="url(#radialGradient15345-6)"/>
      <path d="m163.46299 159.6393 55.3311 55.33111-1.94454.53033z" fill="url(#radialGradient15342-2)"/>
      <path d="m221.09219 216.5614-3.18198-5.65685-45.96194-47.72971 51.97235 51.26524z" fill="#858585"/>
      <path d="m225.68838 215.85429-50.20458-49.14392 50.91169 46.66905 5.65685.70711z" fill="#fff"/>
      <path d="m206.5965 184.74159 9.54594 10.60661-.35355-4.5962-6.36396-6.01041z" fill="url(#linearGradient15337-6)"/>
      <path d="m218.26376 197.11596 13.25825 13.78859-1.41421-4.94975-8.48528-9.01561z" fill="url(#linearGradient15334-1)"/>
      <path d="m204.65196 183.1506-24.21841-23.68807 1.94454-1.59099 22.27387 21.92031z" fill="url(#linearGradient15331-8)"/>
      <path d="m154.75 101.25c-2.66667 22.01687-5.33333 44.31682-8 67 7.9081-.66952 13.07883-2.2515 17-4.25l5 5 4.40734-4.05755 33.22514 31.20145-28.25508-35.77707 6.3726-5.86683v-2.25l-4.75-4c8.25-23.75-4.5-40.75-25-47z" fill="url(#linearGradient17431-7)" opacity=".416667"/>
      <path d="m-52.298199 90.961216c-14.221332 0-25.747088 11.549034-25.747088 25.770364 0 14.22134 11.525756 25.74709 25.747088 25.74709 3.878336 0 7.549624-.88545 10.848231-2.42106l37.8989687 37.92225h4.51621619l-.51214823-1.2571h2.25810814l.7449428 1.2571 5.8431458-1.58301-.6518251-.65182-1.1872527-7.2632-5.4939537-5.51723-5.2611591.25608v-6.00611l-3.7479939-3.74799-4.2601419.74494-.232795-5.75003-16.08611-15.15493 1.583003-1.583.488869-2.00204-2.909933-3.30568c1.215993-2.99138 1.908916-6.25621 1.908916-9.68426 0-14.22133-11.525756-25.770364-25.747088-25.770364z" style="opacity:.394737;fill:none;stroke-width:.981182;clip-path:url(#clipPath315);stroke:url(#linearGradient3206);filter:url(#filter12480-2-4-0-2)" transform="matrix(1.3423848 0 0 1.3423848 220.01681 -22.386204)"/>
      <circle cx="141.375" cy="124.625" r="9.875" style="opacity:.587719;fill:none;stroke:#000;stroke-width:1.40733;clip-path:url(#clipPath304);filter:url(#filter14881-7-9)" transform="matrix(-.88851784 0 0 -.88851784 264.18857 233.55591)"/>
      <path d="m177.64123 124c11.52081 24.61436-13.70705 49.67719-35.73304 41.64377z" fill="#fff" filter="url(#filter15394)" opacity=".311404"/>
      <path d="m147.1875 102c-19.42695-.24806-37.48696 21.64993-27.40625 43.1875l10.24055-14.88342 3.2282-.80408c-1.99189-1.62749-3.25-4.10216-3.25-6.875 0-4.90153 3.97347-8.875 8.875-8.875 2.28151 0 4.36527.86658 5.9375 2.28125l1.18066-4.00149 5.78856-7.24416 3.74953-1.25435c-2.75325-1.00418-5.56847-1.49581-8.34375-1.53125z" fill="#fff" opacity=".179825"/>
      <path d="m159.82887 103.50007-1.25-2.625c-4.46087-1.423026-8.3196-1.340666-12.125-1.125003l.75 2.125003c4.03271-.51206 8.25916.13829 12.625 1.625z" fill="url(#radialGradient17441-8)" opacity=".789474"/>
      <path d="m168.82887 107.25007-1.25-2.625c-1.71087-1.54802-4.9446-2.46566-7.625-3.125l.75 2.125c2.03271.61294 4.88416 1.26329 8.125 3.625z" fill="url(#radialGradient17445-9)" opacity=".723684"/>
      <path d="m126.21199 156.52615-.22997 2.89831c3.15172 3.46281 6.53465 5.32085 9.93805 7.03678l.41299-2.2153c-3.74846-1.5729-7.0835-4.24934-10.12107-7.71979z" fill="url(#radialGradient3579-7)" opacity=".789474"/>
      <path d="m120.29276 148.77856-.22997 2.89831c.70765 2.19606 3.04932 4.60762 5.04095 6.51883l.41297-2.2153c-1.4539-1.54718-3.59816-3.53612-5.22395-7.20184z" fill="url(#radialGradient3581-3)" opacity=".723684"/>
      <path d="m210.25 102c-30.23759 0-54.75 24.51241-54.75 54.75 0 .33604.0252.6654.0312 1 .53648-29.77342 24.8172-53.75 54.71875-53.75s54.18227 23.97658 54.71875 53.75c.006-.3346.0312-.66396.0312-1 .0001-30.23759-24.51231-54.75-54.7499-54.75z" fill="#fff" opacity=".47807" transform="matrix(-.43794261 -.43794261 .43794261 -.43794261 173.39654 294.6376)"/>
      <path d="m220.5625 157.75c-.0215.3315-.0625.66306-.0625 1 0 8.42234 6.82766 15.25 15.25 15.25s15.25-6.82766 15.25-15.25c0-.33694-.041-.6685-.0625-1-.5164 7.95487-7.1021 14.25-15.1875 14.25s-14.6711-6.29513-15.1875-14.25z" fill="#fff" transform="matrix(-.43794261 -.43794261 .43794261 -.43794261 173.39654 294.6376)"/>
    </g>
    <g enable-background="new" transform="matrix(.80528528 .80528528 .80528528 -.80528528 -151.1174 89.052393)">
      <path d="m212.96875 100.375c-.82645.0122-1.64063.0625-2.46875.125-26.5 2-40.5 14.5-45.5 23s-7 13.5-7 13.5h-117l-14.5 20.5 11 11h17.5l9-9 8 8.5 11.5 1 6-8.5 7.5 9 50-1.5.5 10 9.5-1.5s17 37 49 35.5 62-24.5 59.5-57c-2.42187-31.48437-26.91141-55.004837-52.53125-54.625zm22.45982 41.05357c8.00813 0 14.5 6.49187 14.5 14.5s-6.49187 14.5-14.5 14.5-14.5-6.49187-14.5-14.5 6.49187-14.5 14.5-14.5z" filter="url(#filter10741-2)" opacity=".289474" transform="matrix(-.43794261 -.43794261 .43794261 -.43794261 177.338 290.69614)"/>
      <path d="m212.96875 100.375c-.82645.0122-1.64063.0625-2.46875.125-26.5 2-40.5 14.5-45.5 23s-7 13.5-7 13.5h-117l-14.5 20.5 11 11h17.5l9-9 8 8.5 11.5 1 6-8.5 7.5 9 50-1.5.5 10 9.5-1.5s16.96486 35.5 49 35.5c39.00321 0 62-24.5 59.5-57-2.42187-31.48437-26.91141-55.004837-52.53125-54.625zm22.45982 41.05357c8.00813 0 14.5 6.49187 14.5 14.5s-6.49187 14.5-14.5 14.5-14.5-6.49187-14.5-14.5 6.49187-14.5 14.5-14.5z" filter="url(#filter4483-0)" opacity=".267544" transform="matrix(-.43794261 -.43794261 .43794261 -.43794261 174.71036 293.32378)"/>
      <path d="m180.77685 155.01904 23.49174 22.14935.33559 7.71871 5.70514-1.00679 5.03394 5.03395v8.05431l7.04752-.3356 7.38312 7.38312 1.67798 10.06788-53.69539-53.69539z" fill="#775e00"/>
      <path d="m149.56641 99.981263c-19.0905 0-34.56641 15.475907-34.56641 34.566407s15.47591 34.56641 34.56641 34.56641c5.20622 0 10.12849-1.16873 14.55648-3.23011l50.88478 50.88477h6.04073l-.6712-1.67798h3.02037l1.00679 1.67798 7.84456-2.09748-53.48564-53.94708 6.04073-6.04074.67119-2.68477-3.90131-4.44665c1.63233-4.01558 2.55892-8.40259 2.55892-13.00435 0-19.0905-15.4759-34.566407-34.5664-34.566407zm-11.07468 14.095037c5.0043 0 9.0611 4.0568 9.0611 9.0611s-4.0568 9.0611-9.0611 9.0611-9.0611-4.0568-9.0611-9.0611 4.0568-9.0611 9.0611-9.0611z" fill="url(#linearGradient15348)"/>
      <path d="m218.26376 216.20785-60.10407-61.87185v-1.06066l15.9099 12.72792 44.54773 44.54773z" fill="url(#radialGradient15345-6)"/>
      <path d="m163.46299 159.6393 55.3311 55.33111-1.94454.53033z" fill="url(#radialGradient15342)"/>
      <path d="m221.09219 216.5614-3.18198-5.65685-45.96194-47.72971 51.97235 51.26524z" fill="#857200" fill-opacity=".596683"/>
      <path d="m225.68838 215.85429-50.20458-49.14392 50.91169 46.66905 5.65685.70711z" fill="#fff"/>
      <path d="m206.5965 184.74159 9.54594 10.60661-.35355-4.5962-6.36396-6.01041z" fill="url(#linearGradient15337-6)"/>
      <path d="m218.26376 197.11596 13.25825 13.78859-1.41421-4.94975-8.48528-9.01561z" fill="url(#linearGradient15334-1)"/>
      <path d="m204.65196 183.1506-24.21841-23.68807 1.94454-1.59099 22.27387 21.92031z" fill="url(#linearGradient15331-8)"/>
      <path d="m154.75 101.25c-2.66667 22.01687-5.33333 44.31682-8 67 7.9081-.66952 13.07883-2.2515 17-4.25l5 5 4.40734-4.05755 33.22514 31.20145-28.25508-35.77707 6.3726-5.86683v-2.25l-4.75-4c8.25-23.75-4.5-40.75-25-47z" fill="url(#linearGradient17431-7)" opacity=".416667"/>
      <path d="m-52.298199 90.961216c-14.221332 0-25.747088 11.549034-25.747088 25.770364 0 14.22134 11.525756 25.74709 25.747088 25.74709 3.878336 0 7.549624-.88545 10.848231-2.42106l37.8989687 37.92225h4.51621619l-.51214823-1.2571h2.25810814l.7449428 1.2571 5.8431458-1.58301-.6518251-.65182-1.1872527-7.2632-5.4939537-5.51723-5.2611591.25608v-6.00611l-3.7479939-3.74799-4.2601419.74494-.232795-5.75003-16.08611-15.15493 1.583003-1.583.488869-2.00204-2.909933-3.30568c1.215993-2.99138 1.908916-6.25621 1.908916-9.68426 0-14.22133-11.525756-25.770364-25.747088-25.770364z" style="opacity:.394737;fill:none;stroke-width:.981182;clip-path:url(#clipPath293);stroke:url(#linearGradient3206);filter:url(#filter12480-2-4-0-2)" transform="matrix(1.3423848 0 0 1.3423848 220.01681 -22.386204)"/>
      <circle cx="151.25" cy="136" fill="none" r="25" stroke="url(#radialGradient15189)" stroke-width=".51469" transform="matrix(1.2795311 0 0 1.2795311 -44.029091 -40.766242)"/>
      <path d="m147.1875 102c-19.42695-.24806-37.48696 21.64993-27.40625 43.1875l10.24055-14.88342 3.2282-.80408c-1.99189-1.62749-3.25-4.10216-3.25-6.875 0-4.90153 3.97347-8.875 8.875-8.875 2.28151 0 4.36527.86658 5.9375 2.28125l1.18066-4.00149 5.78856-7.24416 3.74953-1.25435c-2.75325-1.00418-5.56847-1.49581-8.34375-1.53125z" fill="#fff" opacity=".179825"/>
      <path d="m159.82887 103.50007-1.25-2.625c-4.46087-1.423026-8.3196-1.340666-12.125-1.125003l.75 2.125003c4.03271-.51206 8.25916.13829 12.625 1.625z" fill="url(#radialGradient17441-8)" opacity=".789474"/>
      <path d="m168.82887 107.25007-1.25-2.625c-1.71087-1.54802-4.9446-2.46566-7.625-3.125l.75 2.125c2.03271.61294 4.88416 1.26329 8.125 3.625z" fill="url(#radialGradient17445-9)" opacity=".723684"/>
      <path d="m126.21199 156.52615-.22997 2.89831c3.15172 3.46281 6.53465 5.32085 9.93805 7.03678l.41299-2.2153c-3.74846-1.5729-7.0835-4.24934-10.12107-7.71979z" fill="url(#radialGradient3579-7)" opacity=".789474"/>
      <path d="m120.29276 148.77856-.22997 2.89831c.70765 2.19606 3.04932 4.60762 5.04095 6.51883l.41297-2.2153c-1.4539-1.54718-3.59816-3.53612-5.22395-7.20184z" fill="url(#radialGradient3581-3)" opacity=".723684"/>
      <path d="m210.25 102c-30.23759 0-54.75 24.51241-54.75 54.75 0 .33604.0252.6654.0312 1 .53648-29.77342 24.8172-53.75 54.71875-53.75s54.18227 23.97658 54.71875 53.75c.006-.3346.0312-.66396.0312-1 .0001-30.23759-24.51231-54.75-54.7499-54.75z" fill="#fff" opacity=".47807" transform="matrix(-.43794261 -.43794261 .43794261 -.43794261 173.39654 294.6376)"/>
      <path d="m220.5625 157.75c-.0215.3315-.0625.66306-.0625 1 0 8.42234 6.82766 15.25 15.25 15.25s15.25-6.82766 15.25-15.25c0-.33694-.041-.6685-.0625-1-.5164 7.95487-7.1021 14.25-15.1875 14.25s-14.6711-6.29513-15.1875-14.25z" fill="#fff" transform="matrix(-.43794261 -.43794261 .43794261 -.43794261 173.39654 294.6376)"/>
    </g>
  </g>
</svg>
