<svg enable-background="new" height="256pt" viewBox="0 0 256 256" width="256pt" xmlns="http://www.w3.org/2000/svg" xmlns:xlink="http://www.w3.org/1999/xlink">
  <defs>
    <linearGradient id="linearGradient4862">
      <stop offset="0" stop-color="#ededed"/>
      <stop offset="1" stop-color="#c8c8c8" stop-opacity=".878752"/>
    </linearGradient>
    <filter id="filter907" color-interpolation-filters="sRGB" height="1" width="1" x="0" y="0">
      <feBlend in2="BackgroundImage" mode="multiply"/>
    </filter>
    <linearGradient id="linearGradient4570" gradientTransform="matrix(3.8729584 -2.9573229 2.9573229 3.8729584 -85.836832 -1163.37)" gradientUnits="userSpaceOnUse" x1="-107.39664" x2="-108.02049" y1="227.49049" y2="236.49913">
      <stop offset="0" stop-color="#fff" stop-opacity="0"/>
      <stop offset=".5" stop-color="#fff" stop-opacity=".763505"/>
      <stop offset="1" stop-color="#fbe5ec" stop-opacity="0"/>
    </linearGradient>
    <linearGradient id="linearGradient4583" gradientUnits="userSpaceOnUse" x1="187.65421902246" x2="115.38358888955" y1="235.01282229293" y2="134.0777187863">
      <stop offset="0" stop-opacity=".470588"/>
      <stop offset=".30000001" stop-opacity=".470588"/>
      <stop offset=".30000001" stop-color="#b99f00"/>
      <stop offset="1" stop-color="#090909" stop-opacity="0"/>
    </linearGradient>
    <linearGradient id="linearGradient4854" gradientUnits="userSpaceOnUse" x1="129.69791020442" x2="74.3463887829" y1="186.99738378408" y2="11.82602708461">
      <stop offset="0" stop-color="#ddc500"/>
      <stop offset="1" stop-color="#ffea00"/>
    </linearGradient>
    <linearGradient id="linearGradient4856" gradientUnits="userSpaceOnUse" x1="106.58052134641" x2="65.35174151716" y1="93.71372539046" y2="16.87273840346">
      <stop offset="0" stop-color="#fff" stop-opacity=".251109"/>
      <stop offset="1" stop-color="#fff" stop-opacity=".202881"/>
    </linearGradient>
    <linearGradient id="linearGradient4864" gradientUnits="userSpaceOnUse" x1="51.0221776391" x2="176.04380562142" xlink:href="#linearGradient4862" y1="14.86157769867" y2="245.09956899982"/>
    <linearGradient id="linearGradient4872" gradientUnits="userSpaceOnUse" x1="49.93281679146" x2="204.94010922031" xlink:href="#linearGradient4862" y1="127.37552281384" y2="127.37552281384"/>
    <filter id="filter951" color-interpolation-filters="sRGB" height="1.173315" width="1.083954" x="-.041977" y="-.086658">
      <feGaussianBlur stdDeviation=".57302533"/>
    </filter>
    <radialGradient id="radialGradient1399" cx="396.31866" cy="1456.3671" gradientTransform="matrix(.65338194 .52367292 -.06389286 .93146305 252.05074 -174.71926)" gradientUnits="userSpaceOnUse" r="195.07191">
      <stop offset="0" stop-color="#3f2600" stop-opacity=".6"/>
      <stop offset="1" stop-color="#3f2600" stop-opacity="0"/>
    </radialGradient>
    <linearGradient id="linearGradient1401" gradientTransform="scale(.575262 1.738339)" gradientUnits="userSpaceOnUse" x1="473.00049" x2="474.91833" xlink:href="#linearGradient153" y1="400.00912" y2="327.57809"/>
    <linearGradient id="linearGradient153">
      <stop offset="0" stop-color="#ffeed7"/>
      <stop offset="1" stop-color="#bdbfc2"/>
    </linearGradient>
    <linearGradient id="linearGradient1403" gradientTransform="scale(1.116071 .896001)" gradientUnits="userSpaceOnUse" x1="260.44318" x2="244.0679" xlink:href="#linearGradient138" y1="316.31104" y2="415.59918"/>
    <linearGradient id="linearGradient138">
      <stop offset="0" stop-color="#fff" stop-opacity=".8"/>
      <stop offset="1" stop-color="#fff" stop-opacity="0"/>
    </linearGradient>
    <linearGradient id="linearGradient1405" gradientTransform="scale(.816497 1.224744)" gradientUnits="userSpaceOnUse" x1="314.52466" x2="323.51727" xlink:href="#linearGradient153" y1="324.27261" y2="282.83051"/>
    <linearGradient id="linearGradient1407" gradientTransform="scale(.816497 1.224744)" gradientUnits="userSpaceOnUse" x1="433.08038" x2="422.61349" xlink:href="#linearGradient153" y1="333.29416" y2="280.00793"/>
    <linearGradient id="linearGradient1409" gradientTransform="scale(.816497 1.224744)" gradientUnits="userSpaceOnUse" x1="508.99402" x2="505.0108" xlink:href="#linearGradient167" y1="413.72275" y2="456.52289"/>
    <linearGradient id="linearGradient167">
      <stop offset="0" stop-color="#fff" stop-opacity=".65"/>
      <stop offset="1" stop-color="#fff" stop-opacity="0"/>
    </linearGradient>
    <linearGradient id="linearGradient1411" gradientTransform="scale(.816497 1.224744)" gradientUnits="userSpaceOnUse" x1="166.52489" x2="151.22609" xlink:href="#linearGradient167" y1="382.95892" y2="459.09909"/>
    <linearGradient id="linearGradient1413" gradientTransform="scale(.812855 1.230232)" gradientUnits="userSpaceOnUse" spreadMethod="reflect" x1="374.27023" x2="381.18936" xlink:href="#linearGradient153" y1="592.40918" y2="442.92404"/>
    <linearGradient id="linearGradient1415" gradientTransform="scale(.649784 1.538974)" gradientUnits="userSpaceOnUse" x1="354.54413" x2="334.13779" xlink:href="#linearGradient153" y1="444.79672" y2="351.66049"/>
    <linearGradient id="linearGradient1417" gradientTransform="scale(1.074798 .930408)" gradientUnits="userSpaceOnUse" x1="276.86813" x2="272.95361" xlink:href="#linearGradient138" y1="574.76862" y2="693.62732"/>
    <linearGradient id="linearGradient1419" gradientTransform="scale(1.077001 .928504)" gradientUnits="userSpaceOnUse" x1="277.55246" x2="273.79782" xlink:href="#linearGradient167" y1="519.0127" y2="575.46265"/>
    <linearGradient id="linearGradient1421" gradientTransform="scale(.571707 1.749147)" gradientUnits="userSpaceOnUse" x1="365.88657" x2="365.25467" xlink:href="#linearGradient167" y1="283.13242" y2="374.93781"/>
    <linearGradient id="linearGradient1423" gradientTransform="scale(.572667 1.746214)" gradientUnits="userSpaceOnUse" x1="721.98254" x2="747.92218" xlink:href="#linearGradient167" y1="306.75726" y2="397.0675"/>
    <linearGradient id="linearGradient1425" gradientTransform="scale(1.011514 .988617)" gradientUnits="userSpaceOnUse" x1="190.68637" x2="183.33878" xlink:href="#linearGradient162" y1="681.15137" y2="777.61237"/>
    <linearGradient id="linearGradient162">
      <stop offset="0" stop-color="#ffa63f"/>
      <stop offset="1" stop-color="#ff0"/>
    </linearGradient>
    <linearGradient id="linearGradient1427" gradientTransform="scale(1.065499 .938527)" gradientUnits="userSpaceOnUse" x1="319.43839" x2="139.39182" xlink:href="#linearGradient153" y1="871.54834" y2="491.89029"/>
    <linearGradient id="linearGradient1429" gradientTransform="scale(1.009851 .990245)" gradientUnits="userSpaceOnUse" x1="321.91309" x2="318.41434" xlink:href="#linearGradient162" y1="670.58087" y2="811.45728"/>
    <linearGradient id="linearGradient1431" gradientTransform="scale(1.007724 .992335)" gradientUnits="userSpaceOnUse" x1="333.65002" x2="389.16611" xlink:href="#linearGradient167" y1="667.85663" y2="790.40027"/>
    <linearGradient id="linearGradient1433" gradientTransform="scale(.999504 1.000496)" gradientUnits="userSpaceOnUse" x1="173.75571" x2="210.77667" xlink:href="#linearGradient167" y1="633.5506" y2="773.25378"/>
    <linearGradient id="linearGradient1435" gradientTransform="scale(1.065499 .938527)" gradientUnits="userSpaceOnUse" x1="169.65353" x2="264.87073" xlink:href="#linearGradient167" y1="952.46661" y2="1047.2152"/>
    <linearGradient id="linearGradient1437" gradientTransform="scale(1.218684 .820557)" gradientUnits="userSpaceOnUse" x1="240.27621" x2="231.78802" xlink:href="#linearGradient162" y1="481.89847" y2="571.625"/>
    <linearGradient id="linearGradient1439" gradientTransform="scale(1.221941 .81837)" gradientUnits="userSpaceOnUse" x1="192.80412" x2="186.86681" xlink:href="#linearGradient167" y1="570.07245" y2="663.63928"/>
  </defs>
  <path d="m18.817207 283.00875 27.594065 9.53955 4.755842-4.85923c.89572-.76326.200839-2.94244-.827102-3.67027l-22.07331-7.34054z" filter="url(#filter951)" opacity=".476" transform="matrix(4.8729422 0 0 4.8729422 -43.519806 -1172.0296)"/>
  <path d="m52.205781 203.27715 124.052549 42.97887 21.16382-20.18704 5.20955-125.35493-151.40271-15.954307z" fill="#fefbfc"/>
  <path d="m177.88631 196.7652 21.48942-15.30304 4.88397-112.656674c-.00585-15.087067-11.15165-33.625981-37.1181-42.653204l-99.795548-18.0706724c-15.698812 2.2111954-15.425713 7.3580454-16.117062 12.2098874l.976791 172.892133c21.727246-11.99353 34.798148-15.79437 69.677809-14.3263 34.87966 1.46807 41.81181 8.60927 56.00272 17.90787z" fill="url(#linearGradient4854)"/>
  <path d="m53.833768 13.799325c-.970427 5.611826-.87119 8.61161 8.465528 11.376127l83.027304 14.651865c24.82343 8.062332 35.38211 16.26325 34.8389 44.606865l-3.90717 161.821838" fill="none" stroke="url(#linearGradient4864)" stroke-width="1.2893"/>
  <path d="m197.42215 226.06898s4.67098-101.37406 6.83754-155.635492c.80124-20.067215-11.78101-36.59643-39.39726-45.583597l-97.841979-16.4426227c-6.532978.6738792-15.660101 4.7011227-16.442656 11.5586677l1.627986 183.311214 124.052549 42.97887z" fill="none" stroke="url(#linearGradient4872)" stroke-width="1.2893"/>
  <path d="m156.71076 42.452396 18.69014-13.081472c20.64342 10.138508 28.81944 22.987318 29.52193 37.460803l-23.89974 13.407068c-1.60988-21.087932-11.47406-31.381802-24.31233-37.786399z" fill="url(#linearGradient4570)"/>
  <path d="m176.25833 246.25602 4.76474-166.017198 23.89975-13.407072-7.50067 159.23723z" fill="url(#linearGradient4583)"/>
  <g transform="matrix(4.8729422 0 0 4.8729422 -55.330248 -1193.0846)">
    <path d="m43.43556 270.27907c-.02682 5.68707-3.94896 9.1784-8.643328 7.84767-4.569848-1.29542-8.186426-6.70476-8.186429-12.12776-.000002-5.43952 3.636755-9.04302 8.23272-8.00892 4.721913 1.06244 8.623942 6.58375 8.597037 12.28901z" fill="#f9f9f9"/>
    <g enable-background="new" filter="url(#filter907)" transform="matrix(.0225766 0 0 .0225766 22.369099 255.85318)">
      <path d="m592.72525 1570.4979c-.29329 257.8009-348.27992-73.4699-348.22433-323.2843.0557-250.14244 348.51803 65.1337 348.22433 323.2843z" fill="url(#radialGradient1399)" transform="matrix(1.4177 0 0 .414745 -38.7944 222.194)"/>
      <path d="m185.13985 681.82618c-18.71742-37.58347-22.23504-144.59392 21.75923-198.98067 21.93346-26.08084 27.56914-46.69487 29.35441-75.81487 1.241-33.41524-19.5256-138.98501 59.89941-128.34064 81.52239 10.99427 76.83524 106.37999 76.21499 157.21864-.51681 42.89327 26.36477 73.91459 44.75917 112.0857 34.16744 70.44522 30.87785 176.01526-7.18286 223.32276-47.82493 58.60344-88.21899 16.6546-114.96251 11.9734-49.75981-10.27512-51.45854 20.96894-109.84184-101.46432z" transform="matrix(1.25 0 0 1.25 185.454 -167.505)"/>
      <path d="m298.82364 553.07531c-10.66103 15.9353-38.7501 82.47203 4.30502 106.97823 15.07625 8.42376-14.20815 65.34876-27.8652 45.69208-24.20933-35.57875-7.83391-107.80527 7.1501-136.11997 10.15881-19.90678 25.45957-30.66158 16.41008-16.55034z" fill="url(#linearGradient1401)" transform="matrix(-1.67739 -.0224516 -.0211236 1.4709 1173.58 -293.017)"/>
      <path d="m309.32227 537.3734c-17.25197 23.06659-48.71785 96.45469-2.51506 125.07869 15.06384 8.64076-13.20741 57.90856-29.28157 41.60589-56.37753-57.16172.98571-157.75054 20.58872-192.08719 17.45986-29.88423 33.00892-3.05326 11.20791 25.40261z" stroke="#000" stroke-width=".977298" transform="matrix(-1.67755 0 0 1.52374 1174.62 -318.082)"/>
      <path d="m338.1648 338.82438c.19956 63.95677-100.6352 39.70426-100.89795-23.73617-.26308-63.52207 100.69812-40.3036 100.89795 23.73617z" fill="url(#linearGradient1403)" transform="matrix(1.26626 -.0713667 -.0459795 1.19574 202.143 -125.761)"/>
      <path d="m273.37079 379.36983c-.47251 37.48382-30.88175 30.58475-30.41529-6.80066.4666-37.3972 30.88794-30.69502 30.41529 6.80066z" fill="url(#linearGradient1405)" transform="matrix(1.30445 -.0755326 .0771251 1.34257 144.757 -177.617)"/>
      <path d="m369.19965 375.95922c.18353 37.27319-30.75126 45.89186-30.94477 8.48334-.19363-37.43105 30.76114-45.77889 30.94477-8.48334z" fill="url(#linearGradient1407)" transform="matrix(-1.81082 .0495107 .0317324 1.55333 1207.46 -284.777)"/>
      <path d="m415.70778 427.71651c-.041 36.9985-31.27276 44.27174-31.23906 7.21301.0337-37.07634 31.28012-44.22907 31.23906-7.21301z" transform="matrix(-.823196 -.00176123 -.0182321 .852662 913.674 -37.9902)"/>
      <path d="m206.25709 422.06346c-.88458 37.69073-31.06143 32.11895-30.1787-5.52597.88277-37.64686 31.06333-32.1667 30.1787 5.52597z" transform="matrix(.59438 -.0722959 .0688176 .705838 367.448 32.4186)"/>
      <path d="m462.96621 523.61818c-.43513 36.4048-32.2655 44.36538-31.83654 7.92698.42914-36.45349 32.27184-44.34683 31.83654-7.92698z" fill="url(#linearGradient1409)" transform="matrix(-.480323 -.036454 -.0467935 .475606 813.496 87.0124)"/>
      <path d="m125.72248 498.77746c-.88409 37.72809-31.01618 31.79585-30.13302-5.90469.883177-37.70127 31.01713-31.82412 30.13302 5.90469z" fill="url(#linearGradient1411)" transform="matrix(.35691 -.0408211 .0413232 .398544 449.334 114.991)"/>
      <path d="m214.88319 550.62468c10.89942-26.88149 34.12247-73.25395 34.69513-113.528.0629-32.14788 80.67933-20.3886 87.10855 13.50869 6.43277 33.91606 22.87068 86.52417 33.37104 112.53995 10.5137 26.04973 41.23541 108.31573 8.0843 164.41852-29.67457 49.23712-118.36695 70.09938-164.94173-51.47049-15.6079-41.88819-12.74229-87.96558 1.68271-125.46867z" fill="url(#linearGradient1413)" transform="matrix(1.25 0 0 1.25 185.454 -168.23)"/>
      <path d="m201.70796 520.55047c-9.60627 17.18634-30.3638 63.86636 8.47391 107.98437 42.15673 47.42124 37.14264 110.82692-13.8769 60.47152-46.2441-45.30968-16.73547-146.98584-1.22449-168.3489 10.28384-15.2198 25.36237-33.00765 6.62748-.10699z" fill="url(#linearGradient1415)" transform="matrix(1.38936 -.111074 .102211 1.30214 108.413 -165.938)"/>
      <path d="m213.11198 503.65441c-14.77354 25.28696-50.05193 84.55194-2.99451 132.20896 63.94337 64.06355 45.65364 106.4324-12.54362 48.43586-81.06606-80.28244-9.67446-180.78637 23.24727-218.10148 37.80598-42.01174 7.22165 11.05789-7.70914 37.45666z" stroke="#000" stroke-width="1.25" transform="matrix(1.25 0 0 1.25 185.454 -167.505)"/>
      <path d="m355.88028 598.63654c-.0884 33.34181-25.43351 69.6149-68.49856 57.25795-44.08478-11.78892-62.72942-59.88587-62.67548-92.86577.054-32.99674 29.24026-52.02743 65.34912-42.41085 36.33189 9.67599 65.9134 44.65963 65.82492 78.01867z" fill="url(#linearGradient1417)" transform="matrix(1.30209 0 0 1.22525 170.042 -153.557)"/>
      <path d="m330.66113 509.51505c-.62071 39.51862-20.0491 43.46618-44.5245 36.64832-24.38343-6.79223-42.01397-17.52129-44.01924-60.97646.0474-26.89049 19.80884-37.09988 44.20764-30.47698 24.49087 6.64791 44.39998 27.73325 44.3361 54.80512z" fill="url(#linearGradient1419)" transform="matrix(1.1868 0 0 1.06708 210.623 -100.078)"/>
      <path d="m194.36248 505.82188c14.97479-23.72444 46.61504-58.09909 5.86605 7.38691-32.80728 53.63055-12.2717 98.71691-1.64458 112.41261 30.75603 41.16269 29.39662 62.96088 5.32342 39.16726-51.62255-50.66887-40.85295-110.26207-9.54489-158.96678z" fill="url(#linearGradient1421)" transform="matrix(1.25 0 0 1.25 185.454 -167.505)"/>
      <path d="m414.02935 572.45417c-13.24688-36.12422-55.37417-129.3655 2.09258-18.73221 52.67659 100.80497 15.24759 151.92308 8.62521 156.19429-6.6138 4.26544-28.91827 10.37468-22.28164-8.86284 6.64506-19.26469 39.6881-50.64752 11.56385-128.59924z" fill="url(#linearGradient1423)" transform="matrix(1.25 0 0 1.25 185.454 -167.505)"/>
      <path d="m182.74151 766.90763c-33.78468-30.83413-82.64291-18.42716-64.90862-72.14928 3.5616-12.37966-5.25812-34.64607.52474-46.12621 6.77548-14.03746 21.2851-6.69206 30.02233-14.96366 8.62903-8.74794 14.12173-26.29563 30.18823-19.16591 16.10771 7.14816 26.81042 33.8622 38.05734 66.05096 8.30679 23.18085 37.93345 60.65395 35.94291 83.62635-2.35731 35.47411-36.45885 32.90494-69.82693 2.72775z" fill="url(#linearGradient1425)" stroke="#e68c3f" stroke-width="6.25" transform="matrix(1.25 0 0 1.25 185.454 -167.505)"/>
      <path d="m351.41365 755.14739c-2.40237 22.55387-33.14731 62.66914-65.66961 58.82607-32.97241-3.57316-64.88907-48.2323-73.18135-84.65518-10.49122-40.85989 20.45984-48.20027 68.22442-35.15926 51.76875 14.69591 72.27999 31.31476 70.62654 60.98837z" fill="url(#linearGradient1427)" transform="matrix(.598206 .268584 -.239623 .617213 700.568 140.464)"/>
      <path d="m337.56913 799.428c-35.73284-19.33351-80.86733 22.02991-68.00338-48.78323 2.65767-15.06666-8.49951-35.79337-4.00996-51.00788 5.1908-18.41181 19.95487-16.64786 27.49375-29.64136 7.36619-13.41237 12.68803-33.16354 28.48112-32.80344 15.75249.35934 26.47801 22.4301 39.94636 51.69837 9.87332 20.9429 39.40053 46.63247 39.74488 72.05919 1.19116 39.01577-30.00132 56.19339-63.65277 38.47835z" fill="url(#linearGradient1429)" stroke="#e68c3f" stroke-width="6.25068" transform="matrix(-1.1685 .423145 .475283 1.16478 728.343 -213.821)"/>
      <path d="m360.11136 768.75824c-75.955-50.30428-45.57158-70.83957-38.20602-83.83642 7.19131-13.42209 12.28019-33.22068 28.02095-32.78582 15.70806.43411 26.63967 22.65172 40.38661 52.118 10.07443 21.09071 39.53901 47.07009 40.43806 72.62325.77609 30.01435-37.95076 13.23086-70.6396-8.11901z" fill="url(#linearGradient1431)" transform="matrix(-.945096 .343745 .424076 .956058 714.328 -64.342)"/>
      <path d="m171.91566 731.38888c-72.562188-75.60303-39.39817-83.69191-28.64312-88.84737 12.9084-6.89719 12.67198-28.0062 28.81303-21.20482 16.17423 6.81553 25.94903 32.60593 37.31125 64.43185 8.38776 22.9087 36.55539 58.44228 34.93281 81.46759-2.19506 26.87666-40.78688-3.18927-72.41397-35.84725z" fill="url(#linearGradient1433)" transform="matrix(1.00431 -.052286 -.0174 1.04575 244.191 -28.4653)"/>
      <path d="m348.36703 811.42914c-2.46672 22.36227-33.49611 61.72344-66.2269 57.38518-33.19518-4.07854-65.23055-48.98156-73.48887-85.31424-10.46057-40.77284 20.73195-47.54963 68.78774-33.80244 52.06025 15.45082 72.6567 32.29065 70.92803 61.7315z" transform="matrix(.515584 .215259 -.206526 .49467 713.3 222.559)"/>
      <path d="m302.89526 944.47734c-2.38828 22.574-32.98676 62.43486-65.38467 58.18586-32.87856-3.98739-64.68797-49.24354-72.92316-85.92216-10.42125-41.14644 20.46814-48.07051 68.05504-34.32724 51.50706 15.43796 71.89534 32.35975 70.25279 62.06354z" fill="url(#linearGradient1435)" transform="matrix(.351231 .149463 -.128856 .343469 724.522 318.291)"/>
      <path d="m258.63304 401.50918c6.10266-5.46337 21.22264-22.64757 49.56531 6.04731 5.28175 5.39753 9.578 6.81165 19.76869 14.49999 20.43797 14.9955 10.58081 36.82815-11.06964 39.60539-9.24604 1.3178-17.66109 12.66625-34.42104 7.38904-14.27817-4.51931-17.99157-16.58892-26.7299-24.90491-15.5027-14.33409-17.76368-29.13415-9.37354-34.66348 8.40356-5.53742 11.69349-7.46604 12.26012-7.97334z" fill="url(#linearGradient1437)" stroke="#e68c3f" stroke-width="3.75" transform="matrix(1.25 0 0 1.25 185.454 -167.505)"/>
      <path d="m328.19795 437.78014c-8.5055-1.46896-27.0255 16.12328-46.4281 11.37268-19.34109-4.73553-30.67632-28.91918-33.64127-29.63991" fill="none" stroke="#e68c3f" stroke-width="2.5" transform="matrix(1.25 0 0 1.25 185.454 -167.505)"/>
      <path d="m204.47411 475.24174c6.11045-5.38646 25.4011-19.54881 50.93716 6.45359 5.38713 5.23718 10.95229 10.8634 19.23416 18.72455 16.41855 16.26192 8.23027 31.57669-11.47984 37.53635-8.93268 2.3255-23.64949 8.72855-34.82538 5.14626-12.40595-4.6293-20.40651-16.92039-28.6055-25.68743-15.02706-16.4433-14.094-26.37606-7.08713-33.05986 5.29881-4.46819 11.259-8.61315 11.82653-9.11346z" fill="url(#linearGradient1439)" transform="matrix(.627885 0 0 .595666 392.366 51.8173)"/>
    </g>
  </g>
  <path d="m53.833768 13.45398c-2.68561 2.794145-3.141571 5.312238-3.255973 6.511956l.32561 105.819104c11.022307-35.672565 52.133105-42.647743 62.189065-44.606861s37.74014-1.997273 66.09624 6.837566c3.88121-25.594934-6.76308-40.258153-33.8621-48.188428l-83.027299-14.651865c-3.616103-1.041786-11.045727-2.970886-8.465543-11.721472z" fill="url(#linearGradient4856)"/>
</svg>
