<svg height="256" width="256" xmlns="http://www.w3.org/2000/svg" xmlns:xlink="http://www.w3.org/1999/xlink">
  <defs>
    <linearGradient id="linearGradient6310-8">
      <stop offset="0" stop-color="#fff"/>
      <stop offset="1" stop-color="#fff" stop-opacity="0"/>
    </linearGradient>
    <filter id="filter11957" height="1.098347" width="1.093763" x="-.046881" y="-.049173">
      <feGaussianBlur stdDeviation="2.339831"/>
    </filter>
    <linearGradient id="linearGradient6125" gradientTransform="matrix(.79159684 -.82822869 .80828348 .76411296 64.733516 -65.11992)" gradientUnits="userSpaceOnUse" spreadMethod="reflect" x1="32.228344" x2="35.935673" y1="47.999996" y2="47.999996">
      <stop offset="0" stop-color="#535557"/>
      <stop offset=".13804179" stop-color="#898a8c"/>
      <stop offset=".20296688" stop-color="#ececec"/>
      <stop offset=".33539036" stop-color="#fafafa"/>
      <stop offset=".39464113" stop-color="#fff"/>
      <stop offset=".5313" stop-color="#fafafa"/>
      <stop offset=".8449" stop-color="#ebecec"/>
      <stop offset="1" stop-color="#e1e2e3"/>
    </linearGradient>
    <linearGradient id="linearGradient6122" gradientTransform="matrix(.64992937 0 0 1.365097 107.75816 -124.76744)" gradientUnits="userSpaceOnUse" x1="36.460194" x2="36.460194" xlink:href="#linearGradient6310-8" y1="89.611626" y2="17.509802"/>
    <linearGradient id="linearGradient6119" gradientTransform="matrix(1.1141646 0 0 1.1122907 -171.9588 -128.89065)" gradientUnits="userSpaceOnUse" x1="36.460194" x2="39.503891" xlink:href="#linearGradient3904" y1="108.28275" y2="69.41713"/>
    <linearGradient id="linearGradient3904">
      <stop offset="0" stop-color="#141515"/>
      <stop offset="1" stop-color="#535557" stop-opacity="0"/>
    </linearGradient>
    <clipPath id="clipPath3850">
      <path d="m5.6835937-4c1.083704 3.86098751 2 8 2 12 0 17.92781 8.0000003 18.507796 8.0000003 0 0-4 .590705-8.44557713 2-12-1.648893-7.286281-7.454874-20.562662-12.0000003 0z"/>
    </clipPath>
    <filter id="filter3834" height="1.151396" width="1.523545" x="-.261772" y="-.075698">
      <feGaussianBlur stdDeviation=".41890191"/>
    </filter>
    <filter id="filter3838" height="1.151396" width="1.641705" x="-.320852" y="-.075698">
      <feGaussianBlur stdDeviation=".41890191"/>
    </filter>
    <linearGradient id="linearGradient6112" gradientTransform="matrix(1.1141646 0 0 1.1122907 92.959522 2.620402)" gradientUnits="userSpaceOnUse" x1="38.827515" x2="36.460194" xlink:href="#linearGradient3904" y1="104.49192" y2="17.509802"/>
    <linearGradient id="linearGradient3943" gradientTransform="matrix(.76981996 -.80544406 .80828348 .76411296 65.806414 -65.864099)" gradientUnits="userSpaceOnUse" x1="34.165016" x2="34.165016" y1="4.863008" y2="-14.006344">
      <stop offset="0" stop-color="#d3d6d6"/>
      <stop offset="1" stop-color="#f7f7f7"/>
    </linearGradient>
    <linearGradient id="linearGradient6517" gradientTransform="matrix(.76981996 -.80544406 .80828348 .76411296 65.806414 -65.864099)" gradientUnits="userSpaceOnUse" x1="38.074299" x2="38.074299" y1="4.269588" y2="-10.42289">
      <stop offset="0" stop-color="#fff"/>
      <stop offset="1" stop-color="#393939"/>
    </linearGradient>
    <linearGradient id="linearGradient4190" gradientTransform="matrix(.89383084 -.93519366 .93849048 .88720451 44.053162 -77.535835)" gradientUnits="userSpaceOnUse" spreadMethod="reflect" x1="36" x2="28" xlink:href="#linearGradient2575-3" y1="100" y2="100"/>
    <linearGradient id="linearGradient2575-3" gradientUnits="userSpaceOnUse" x1="28" x2="28" y1="57.5" y2="0">
      <stop offset="0" stop-color="#ffea00"/>
      <stop offset="1" stop-color="#cd8000"/>
    </linearGradient>
    <clipPath id="clipPath4242">
      <path d="m-4 77.788157v5.593496c1.354228 1.79792 2.255032 4.140436 2.255032 6.764228 0 2.653084-.873796 5.089769-2.255032 6.894311v26.356928c0 6.11707 16 6.15725 16 0v-26.356928c-1.381236-1.804542-2.255028-4.241227-2.255032-6.894311 0-2.623792.900808-4.966308 2.255032-6.764228v-5.593496z"/>
    </clipPath>
    <filter id="filter4238" height="1.224719" width="1.149813" x="-.074906" y="-.11236">
      <feGaussianBlur stdDeviation="1.1235955"/>
    </filter>
    <linearGradient id="linearGradient4346" gradientTransform="matrix(.66648127 -.69732328 .69978154 .66154037 76.176523 -111.9779)" gradientUnits="userSpaceOnUse" x1="5.193461" x2="5.134817" xlink:href="#linearGradient6310-8" y1="103.9544" y2="115.65614"/>
    <linearGradient id="linearGradient4342" gradientUnits="userSpaceOnUse" x1="5.228768" x2="4.874581" xlink:href="#linearGradient6310-8" y1="131.853576" y2="128.862426"/>
    <filter id="filter4404" height="1.291475" width="1.229749" x="-.114874" y="-.145737">
      <feGaussianBlur stdDeviation=".15249406"/>
    </filter>
    <radialGradient id="radialGradient4440" cx="4.749493" cy="132.25244" gradientTransform="matrix(.96460201 0 0 .37939011 132.69546 53.693058)" gradientUnits="userSpaceOnUse" r="5.322266" xlink:href="#linearGradient6310-8"/>
    <linearGradient id="linearGradient4471" gradientUnits="userSpaceOnUse" x1="79.886719" x2="82.300743" y1="73.661766" y2="82.671021">
      <stop offset="0" stop-color="#ffa300"/>
      <stop offset="1" stop-color="#ffa300" stop-opacity="0"/>
    </linearGradient>
    <filter id="filter4501" height="1.148505" width="1.15737" x="-.078685" y="-.074253">
      <feGaussianBlur stdDeviation=".48665741"/>
    </filter>
    <linearGradient id="linearGradient4515" gradientUnits="userSpaceOnUse" x1="75.585938" x2="89.453125" y1="85.083641" y2="79.224266">
      <stop offset="0" stop-color="#ffe900"/>
      <stop offset="1" stop-color="#ffe900" stop-opacity="0"/>
    </linearGradient>
    <linearGradient id="linearGradient4525" gradientTransform="matrix(1.0487229 0 0 1.0469591 64.118688 10.71127)" gradientUnits="userSpaceOnUse" x1="58.557281" x2="63.943447" xlink:href="#linearGradient2575-3" y1="107.76735" y2="107.76735"/>
    <linearGradient id="linearGradient4537" gradientUnits="userSpaceOnUse" x1="9.303149" x2="-5.854071" xlink:href="#linearGradient6310-8" y1="133.25163" y2="130.59308"/>
    <filter id="filter4551" height="1.673438" width="1.064137" x="-.032068" y="-.336719">
      <feGaussianBlur stdDeviation=".15501048"/>
    </filter>
    <clipPath id="clipPath4588">
      <path d="m13.037731 82.09273 5.304392 5.304393c2.989229.420759 6.064915 1.787957 8.553096 4.276138 2.515958 2.515954 3.99807 5.65534 4.399496 8.676459l24.994657 24.99464c5.80091 5.80092 21.01205-9.334 15.17302-15.17303l-24.99465-24.994648c-3.021107-.401428-6.160484-1.883542-8.676449-4.399496-2.488182-2.488179-3.855376-5.563872-4.276137-8.553096l-5.304394-5.304393z"/>
    </clipPath>
    <filter id="filter4584" height="1.11288" width="1.087964" x="-.043982" y="-.05644">
      <feGaussianBlur stdDeviation="1.0829419"/>
    </filter>
    <radialGradient id="radialGradient4602" cx="4.749493" cy="132.25244" gradientTransform="matrix(.96460201 0 0 .37939011 133.22833 28.95617)" gradientUnits="userSpaceOnUse" r="5.322266" xlink:href="#linearGradient6310-8"/>
    <clipPath id="clipPath4632">
      <rect filter="url(#filter4626)" height="3.741567" rx="0" width="13.334369" x="-2.926365" y="130.97287"/>
    </clipPath>
    <filter id="filter4626" height="2.196045" width="1.257944" x="-.128972" y="-.598023">
      <feGaussianBlur stdDeviation=".42488862"/>
    </filter>
    <linearGradient id="linearGradient6930" gradientTransform="matrix(1.1641881 -.0304905 .02837506 1.1578833 76.791119 -110.02961)" gradientUnits="userSpaceOnUse" x1="8.382758" x2="15.021504" y1="8.319981" y2="14.958727">
      <stop offset="0" stop-color="#fff" stop-opacity=".738854"/>
      <stop offset=".24999999" stop-color="#fff" stop-opacity="0"/>
      <stop offset=".5" stop-color="#ccc" stop-opacity="0"/>
      <stop offset="1" stop-color="#9a9a9a"/>
    </linearGradient>
    <linearGradient id="linearGradient7698" gradientTransform="matrix(1.0487229 0 0 1.0469591 75.713992 11.392201)" gradientUnits="userSpaceOnUse" x1="58.557281" x2="63.943447" y1="107.76735" y2="107.76735">
      <stop offset="0" stop-color="#ffd700"/>
      <stop offset=".25242719" stop-color="#ffea00"/>
      <stop offset="1" stop-color="#b06d00"/>
    </linearGradient>
    <linearGradient id="linearGradient4338" gradientTransform="matrix(.96460201 0 0 .96297968 130.22707 2.688869)" gradientUnits="userSpaceOnUse" x1="5.193461" x2="5.193461" xlink:href="#linearGradient6310-8" y1="88.98745" y2="145.64882"/>
    <linearGradient id="XMLID_76_" gradientTransform="matrix(0 1 -1 0 30.335 -71.999)" gradientUnits="userSpaceOnUse" x1="186.91499" x2="181.66499" y1="-76.331497" y2="-76.331497">
      <stop offset="0" stop-color="#bbb"/>
      <stop offset=".2308" stop-color="#8d8d8d"/>
      <stop offset=".46309999" stop-color="#666"/>
      <stop offset=".67659998" stop-color="#494949"/>
      <stop offset=".86250001" stop-color="#383838"/>
      <stop offset="1" stop-color="#323232"/>
    </linearGradient>
    <linearGradient id="lg1">
      <stop offset="0" stop-color="#888"/>
      <stop offset=".27919999" stop-color="#656565"/>
      <stop offset=".565" stop-color="#494949"/>
      <stop offset=".815" stop-color="#383838"/>
      <stop offset="1" stop-color="#323232"/>
    </linearGradient>
    <linearGradient id="XMLID_77_" gradientTransform="matrix(0 -1 1 0 182.9971 295.082)" gradientUnits="userSpaceOnUse" x1="180.916" x2="186.166" xlink:href="#lg1" y1="-76.333" y2="-76.333"/>
    <radialGradient id="XMLID_78_" cx="106.666" cy="111.541" fx="106.7286" fy="110.6661" gradientUnits="userSpaceOnUse" r="1.875">
      <stop offset="0" stop-color="#f0ff80"/>
      <stop offset=".0392" stop-color="#edfe77"/>
      <stop offset=".1031" stop-color="#e3fc5f"/>
      <stop offset=".1838" stop-color="#d4f937"/>
      <stop offset=".2773" stop-color="#bff500"/>
      <stop offset=".27810001" stop-color="#bff500"/>
      <stop offset=".3818" stop-color="#bcf400"/>
      <stop offset=".44369999" stop-color="#b4f200"/>
      <stop offset=".49470001" stop-color="#a6ee00"/>
      <stop offset=".53969997" stop-color="#92e800"/>
      <stop offset=".58069998" stop-color="#77e100"/>
      <stop offset=".6189" stop-color="#57d800"/>
      <stop offset=".65490001" stop-color="#31cd00"/>
      <stop offset=".68830001" stop-color="#06c100"/>
      <stop offset=".69230002" stop-color="#00bf00"/>
      <stop offset="1" stop-color="#008c00"/>
    </radialGradient>
    <linearGradient id="linearGradient3119" gradientUnits="userSpaceOnUse" x1="30.1147" x2="69.125999" y1="9.646" y2="9.646">
      <stop offset="0" stop-color="#fff"/>
      <stop offset=".0582" stop-color="#fdfdfd"/>
      <stop offset=".542" stop-color="#f2f2f0"/>
      <stop offset="1" stop-color="#eeeeec"/>
    </linearGradient>
    <linearGradient id="lg2">
      <stop offset="0" stop-color="#eee"/>
      <stop offset=".16" stop-color="#cecece"/>
      <stop offset=".4675" stop-color="#888"/>
      <stop offset=".6864" stop-color="#555"/>
      <stop offset="1" stop-color="#323232"/>
    </linearGradient>
    <radialGradient id="radialGradient3169" cx="-42.467399" cy="-92.15897" fx="-41.811199" fy="-91.37777" gradientUnits="userSpaceOnUse" r="3.82" xlink:href="#lg2"/>
    <linearGradient id="lg3">
      <stop offset="0" stop-color="#eee"/>
      <stop offset=".29089999" stop-color="#cecece"/>
      <stop offset=".85000002" stop-color="#888"/>
      <stop offset="1" stop-color="#555"/>
    </linearGradient>
    <linearGradient id="linearGradient3172" gradientUnits="userSpaceOnUse" x1="-42.468399" x2="-42.468399" xlink:href="#lg3" y1="-87.66297" y2="-96.65417"/>
    <radialGradient id="radialGradient3175" cx="125.345001" cy="-92.15897" fx="126.688801" fy="-91.37777" gradientUnits="userSpaceOnUse" r="3.82" xlink:href="#lg2"/>
    <linearGradient id="linearGradient3178" gradientUnits="userSpaceOnUse" x1="125.345001" x2="125.345001" xlink:href="#lg3" y1="-87.66297" y2="-96.65417"/>
    <radialGradient id="radialGradient3181" cx="-48.246799" cy="-20.077972" fx="-47.561199" fy="-18.62777" gradientUnits="userSpaceOnUse" r="4.3294" xlink:href="#lg2"/>
    <linearGradient id="lg4">
      <stop offset="0" stop-color="#eee"/>
      <stop offset=".54689997" stop-color="#cecece"/>
      <stop offset=".85000002" stop-color="#bbb"/>
      <stop offset="1" stop-color="#555"/>
    </linearGradient>
    <linearGradient id="linearGradient3184" gradientUnits="userSpaceOnUse" x1="-48.246799" x2="-48.246799" xlink:href="#lg4" y1="-14.94217" y2="-25.213768"/>
    <radialGradient id="radialGradient3187" cx="131.122401" cy="-20.077972" fx="132.188801" fy="-18.87777" gradientUnits="userSpaceOnUse" r="4.33" xlink:href="#lg2"/>
    <linearGradient id="linearGradient3190" gradientUnits="userSpaceOnUse" x1="131.122401" x2="131.122401" xlink:href="#lg4" y1="-14.94217" y2="-25.213768"/>
    <radialGradient id="radialGradient3193" cx="-56.693999" cy="85.298026" fx="-56.561199" fy="86.12223" gradientUnits="userSpaceOnUse" r="5.1268">
      <stop offset=".1302" stop-color="#eee"/>
      <stop offset=".2456" stop-color="#cecece"/>
      <stop offset=".4675" stop-color="#888"/>
      <stop offset="1" stop-color="#555"/>
    </radialGradient>
    <linearGradient id="lg5">
      <stop offset="0" stop-color="#eee"/>
      <stop offset=".66860002" stop-color="#ddd"/>
      <stop offset="1" stop-color="#555"/>
    </linearGradient>
    <linearGradient id="linearGradient3196" gradientUnits="userSpaceOnUse" x1="-56.692999" x2="-56.692999" xlink:href="#lg5" y1="91.44643" y2="79.147636"/>
    <radialGradient id="radialGradient3199" cx="139.569601" cy="85.298026" fx="140.772801" fy="86.12223" gradientUnits="userSpaceOnUse" r="5.1262">
      <stop offset="0" stop-color="#eee"/>
      <stop offset=".16" stop-color="#cecece"/>
      <stop offset=".4675" stop-color="#888"/>
      <stop offset="1" stop-color="#555"/>
    </radialGradient>
    <linearGradient id="linearGradient3202" gradientUnits="userSpaceOnUse" x1="139.569601" x2="139.569601" xlink:href="#lg5" y1="91.44643" y2="79.147636"/>
    <radialGradient id="radialGradient3205" cx="21.438801" cy="-21.87777" gradientUnits="userSpaceOnUse" r="121.655198">
      <stop offset=".4497" stop-color="#fff"/>
      <stop offset=".4628" stop-color="#ededed"/>
      <stop offset=".50029999" stop-color="#bfbfbf"/>
      <stop offset=".53780001" stop-color="#999"/>
      <stop offset=".57489997" stop-color="#7b7b7b"/>
      <stop offset=".61140001" stop-color="#666"/>
      <stop offset=".6469" stop-color="#595959"/>
      <stop offset=".68049997" stop-color="#555"/>
      <stop offset=".96450001" stop-color="#888"/>
    </radialGradient>
    <radialGradient id="radialGradient3208" cx="29.438801" cy="-3.87777" gradientUnits="userSpaceOnUse" r="140.235596">
      <stop offset=".4497" stop-color="#fff"/>
      <stop offset=".46740001" stop-color="#f1f1f1"/>
      <stop offset=".52380002" stop-color="#ccc"/>
      <stop offset=".57990003" stop-color="#aeaeae"/>
      <stop offset=".63499999" stop-color="#999"/>
      <stop offset=".68879998" stop-color="#8c8c8c"/>
      <stop offset=".7396" stop-color="#888"/>
      <stop offset=".8369" stop-color="#6c6c6c"/>
      <stop offset=".92400002" stop-color="#5b5b5b"/>
      <stop offset=".98820001" stop-color="#555"/>
    </radialGradient>
    <radialGradient id="radialGradient3211" cx="40.438801" cy="40.12223" gradientUnits="userSpaceOnUse" r="63">
      <stop offset=".32539999" stop-color="#fff"/>
      <stop offset=".36219999" stop-color="#f4f4f4"/>
      <stop offset=".4267" stop-color="#d7d7d7"/>
      <stop offset=".51059997" stop-color="#a8a8a8"/>
      <stop offset=".56209999" stop-color="#888"/>
      <stop offset=".5934" stop-color="#a4a4a4"/>
      <stop offset=".64480001" stop-color="#cbcbcb"/>
      <stop offset=".69209999" stop-color="#e8e8e8"/>
      <stop offset=".7331" stop-color="#f9f9f9"/>
      <stop offset=".7633" stop-color="#fff"/>
    </radialGradient>
    <radialGradient id="radialGradient3214" cx="64" cy="100.2246" gradientTransform="matrix(2 0 0 1.954 -86.561199 -109.78577)" gradientUnits="userSpaceOnUse" r="90.000099">
      <stop offset=".32539999" stop-color="#fff"/>
      <stop offset=".3714" stop-color="#f4f4f4"/>
      <stop offset=".45199999" stop-color="#d7d7d7"/>
      <stop offset=".55690002" stop-color="#a8a8a8"/>
      <stop offset=".62129998" stop-color="#888"/>
      <stop offset=".67930001" stop-color="#a3a3a3"/>
      <stop offset=".7396" stop-color="#bbb"/>
      <stop offset=".75199997" stop-color="#b3b3b3"/>
      <stop offset=".79140002" stop-color="#a0a0a0"/>
      <stop offset=".83710003" stop-color="#929292"/>
      <stop offset=".89450002" stop-color="#8a8a8a"/>
      <stop offset="1" stop-color="#888"/>
    </radialGradient>
    <linearGradient id="linearGradient3217" gradientUnits="userSpaceOnUse" x1="41.437801" x2="41.437801" y1="93.56563" y2="-96.87677">
      <stop offset="0" stop-color="#ddd"/>
      <stop offset=".51670003" stop-color="#e3e3e3"/>
      <stop offset="1" stop-color="#eee"/>
    </linearGradient>
    <radialGradient id="radialGradient3220" cx="39.438801" cy="138.12223" gradientUnits="userSpaceOnUse" r="324">
      <stop offset="0" stop-color="#888"/>
      <stop offset=".14740001" stop-color="#aaa"/>
      <stop offset=".30239999" stop-color="#c6c6c6"/>
      <stop offset=".43810001" stop-color="#d7d7d7"/>
      <stop offset=".53850001" stop-color="#ddd"/>
      <stop offset=".60960001" stop-color="#d9d9d9"/>
      <stop offset=".68040001" stop-color="#cdcdcd"/>
      <stop offset=".74559999" stop-color="#bbb"/>
      <stop offset=".78420001" stop-color="#bfbfbf"/>
      <stop offset=".82260001" stop-color="#cbcbcb"/>
      <stop offset=".85799998" stop-color="#ddd"/>
    </radialGradient>
    <radialGradient id="radialGradient3223" cx="39.438801" cy="138.12223" gradientUnits="userSpaceOnUse" r="323.99978">
      <stop offset="0" stop-color="#888"/>
      <stop offset=".242" stop-color="#a4a4a4"/>
      <stop offset=".45649999" stop-color="#b5b5b5"/>
      <stop offset=".61540002" stop-color="#bbb"/>
      <stop offset=".65420002" stop-color="#b7b7b7"/>
      <stop offset=".6929" stop-color="#ababab"/>
      <stop offset=".73150003" stop-color="#979797"/>
      <stop offset=".77020001" stop-color="#7b7b7b"/>
      <stop offset=".80860001" stop-color="#575757"/>
      <stop offset=".8107" stop-color="#555"/>
    </radialGradient>
    <linearGradient id="linearGradient3226" gradientUnits="userSpaceOnUse" x1="41.439809" x2="41.439809" y1="99.83123" y2="94.07923">
      <stop offset="0" stop-color="#888"/>
      <stop offset=".1671" stop-color="#a8a8a8"/>
      <stop offset=".53189999" stop-color="#f8f8f8"/>
      <stop offset=".56209999" stop-color="#fff"/>
    </linearGradient>
    <linearGradient id="linearGradient3229" gradientUnits="userSpaceOnUse" x1="-40.561199" x2="19.438801" y1="109.47763" y2="109.47763">
      <stop offset="0" stop-color="#888"/>
      <stop offset=".0022" stop-color="#767676"/>
      <stop offset=".0067" stop-color="#575757"/>
      <stop offset=".0118" stop-color="#3b3b3b"/>
      <stop offset=".0176" stop-color="#252525"/>
      <stop offset=".0243" stop-color="#141414"/>
      <stop offset=".0327" stop-color="#090909"/>
      <stop offset=".0444" stop-color="#020202"/>
      <stop offset=".0769"/>
      <stop offset=".62129998" stop-color="#323232"/>
      <stop offset=".7845" stop-color="#353535"/>
      <stop offset=".8818" stop-color="#3d3d3d"/>
      <stop offset=".96160001" stop-color="#4b4b4b"/>
      <stop offset="1" stop-color="#555"/>
    </linearGradient>
    <linearGradient id="linearGradient3232" gradientUnits="userSpaceOnUse" x1="53.438801" x2="57.438801" y1="110.47763" y2="110.47763">
      <stop offset="0" stop-color="#888"/>
      <stop offset=".0803" stop-color="#858585"/>
      <stop offset=".1286" stop-color="#7d7d7d"/>
      <stop offset=".1684" stop-color="#6f6f6f"/>
      <stop offset=".2036" stop-color="#5b5b5b"/>
      <stop offset=".23549999" stop-color="#414141"/>
      <stop offset=".25" stop-color="#323232"/>
      <stop offset=".4813" stop-color="#353535"/>
      <stop offset=".61940002" stop-color="#3d3d3d"/>
      <stop offset=".73250002" stop-color="#4b4b4b"/>
      <stop offset=".787" stop-color="#555"/>
      <stop offset=".83429998" stop-color="#888"/>
    </linearGradient>
    <linearGradient id="lg6">
      <stop offset="0" stop-color="#888"/>
      <stop offset=".0803" stop-color="#858585"/>
      <stop offset=".1286" stop-color="#7d7d7d"/>
      <stop offset=".1684" stop-color="#6f6f6f"/>
      <stop offset=".2036" stop-color="#5b5b5b"/>
      <stop offset=".23549999" stop-color="#414141"/>
      <stop offset=".25" stop-color="#323232"/>
      <stop offset=".57309997" stop-color="#353535"/>
      <stop offset=".76590002" stop-color="#3d3d3d"/>
      <stop offset=".92400002" stop-color="#4b4b4b"/>
      <stop offset="1" stop-color="#555"/>
    </linearGradient>
    <linearGradient id="linearGradient3235" gradientUnits="userSpaceOnUse" x1="49.438801" x2="53.438801" xlink:href="#lg6" y1="110.47763" y2="110.47763"/>
    <linearGradient id="linearGradient3238" gradientUnits="userSpaceOnUse" x1="45.438801" x2="49.438801" xlink:href="#lg6" y1="110.47763" y2="110.47763"/>
    <linearGradient id="linearGradient3241" gradientUnits="userSpaceOnUse" x1="41.438801" x2="45.438801" xlink:href="#lg6" y1="110.47763" y2="110.47763"/>
    <linearGradient id="linearGradient3244" gradientUnits="userSpaceOnUse" x1="37.438801" x2="41.438801" xlink:href="#lg6" y1="110.47763" y2="110.47763"/>
    <linearGradient id="linearGradient3247" gradientUnits="userSpaceOnUse" x1="33.438801" x2="37.438801" xlink:href="#lg6" y1="110.47763" y2="110.47763"/>
    <linearGradient id="linearGradient3250" gradientUnits="userSpaceOnUse" x1="29.438801" x2="33.438801" xlink:href="#lg6" y1="110.47763" y2="110.47763"/>
    <linearGradient id="linearGradient3253" gradientUnits="userSpaceOnUse" x1="25.438801" x2="29.438801" xlink:href="#lg6" y1="110.47763" y2="110.47763"/>
    <linearGradient id="linearGradient3256" gradientUnits="userSpaceOnUse" x1="21.438801" x2="25.438801" y1="110.47763" y2="110.47763">
      <stop offset="0" stop-color="#888"/>
      <stop offset=".014" stop-color="#656565"/>
      <stop offset=".0282" stop-color="#494949"/>
      <stop offset=".0407" stop-color="#383838"/>
      <stop offset=".05" stop-color="#323232"/>
      <stop offset=".45930001" stop-color="#353535"/>
      <stop offset=".70349997" stop-color="#3d3d3d"/>
      <stop offset=".90369999" stop-color="#4b4b4b"/>
      <stop offset="1" stop-color="#555"/>
    </linearGradient>
    <linearGradient id="lg7">
      <stop offset=".28400001" stop-color="#888"/>
      <stop offset=".66860002" stop-color="#fff"/>
    </linearGradient>
    <linearGradient id="XMLID_43_" gradientUnits="userSpaceOnUse" x1="15.9995" x2="15.9995" xlink:href="#lg7" y1="112" y2="109.8838"/>
    <linearGradient id="XMLID_44_" gradientUnits="userSpaceOnUse" x1="88" x2="88" xlink:href="#lg7" y1="112" y2="109.8848"/>
    <linearGradient id="linearGradient3268" gradientUnits="userSpaceOnUse" x1="41.439809" x2="41.439809" xlink:href="#lg1" y1="120.75903" y2="92.15143"/>
    <linearGradient id="linearGradient3271" gradientUnits="userSpaceOnUse" x1="41.439809" x2="41.439809" y1="123.12223" y2="93.78823">
      <stop offset="0" stop-color="#323232"/>
      <stop offset=".0557" stop-color="#3e3e3e"/>
      <stop offset=".163" stop-color="#4f4f4f"/>
      <stop offset=".24259999" stop-color="#555"/>
      <stop offset=".4165" stop-color="#494949"/>
      <stop offset=".75150001" stop-color="#383838"/>
      <stop offset="1" stop-color="#323232"/>
    </linearGradient>
    <linearGradient id="linearGradient3274" gradientUnits="userSpaceOnUse" x1="41.439809" x2="41.439809" xlink:href="#lg1" y1="123.12223" y2="93.78823"/>
    <filter id="filter3858" height="1.095583" width="1.096421" x="-.048211" y="-.047791">
      <feGaussianBlur stdDeviation="2.29"/>
    </filter>
  </defs>
  <g transform="translate(86.561191 109.05424)">
    <path d="m19.2 5.5c-1.972 0-3.571 1.262-3.72 2.935l-8.467 94.827c-.002.029-.004.06-.004.089 0 .028.001.056.003.084 0 0 .013.155.025.301-.004.036-.037.059-.037.097v12.872c0 2.093 1.763 3.795 3.93 3.795h106.14c2.167 0 3.93-1.702 3.93-3.795v-12.872c0-.038-.033-.061-.037-.098.012-.152.024-.31.024-.31.002-.026.003-.053.003-.079 0-.029-.001-.06-.004-.089l-8.466-94.823c-.146-1.672-1.745-2.934-3.72-2.934z" filter="url(#filter3858)" opacity=".6" transform="matrix(2 0 0 1.9508952 -86.561199 -103.96064)"/>
    <path d="m155.43879 119.53222c0 1.982-1.792 3.59-4 3.59h-219.999989c-2.208 0-4-1.608-4-3.59v-25.744h227.999989z" fill="url(#linearGradient3274)" stroke-width="2"/>
    <path d="m155.43879 119.53222c0 1.982-1.792 3.59-4 3.59h-219.999989c-2.208 0-4-1.608-4-3.59v-25.744h227.999989z" fill="url(#linearGradient3271)" stroke-width="2"/>
    <path d="m151.43079 117.29422c-.088 1.914-1.888 3.464-4.016 3.464h-211.951989c-2.128 0-3.926-1.55-4.018-3.464l-1.178-25.142h222.343989z" fill="url(#linearGradient3268)" stroke-width="2"/>
    <g opacity=".5" transform="matrix(2 0 0 2 -86.561199 -109.87777)">
      <path d="m25 111h-16.134c-.908 0-1.622-.473-1.81-1.116l-.051.556c-.08.861.753 1.56 1.861 1.56h16.134z" fill="url(#XMLID_43_)"/>
      <path d="m120.942 109.885c-.188.644-.901 1.115-1.808 1.115h-64.134v1h64.135c1.106 0 1.94-.699 1.859-1.561z" fill="url(#XMLID_44_)"/>
    </g>
    <rect fill="url(#linearGradient3256)" height="21.292" stroke-width="2" width="4" x="21.438793" y="99.830223"/>
    <rect fill="url(#linearGradient3253)" height="21.292" stroke-width="2" width="4" x="25.438793" y="99.830223"/>
    <rect fill="url(#linearGradient3250)" height="21.292" stroke-width="2" width="4" x="29.438793" y="99.830223"/>
    <rect fill="url(#linearGradient3247)" height="21.292" stroke-width="2" width="4" x="33.438793" y="99.830223"/>
    <rect fill="url(#linearGradient3244)" height="21.292" stroke-width="2" width="4" x="37.438793" y="99.830223"/>
    <rect fill="url(#linearGradient3241)" height="21.292" stroke-width="2" width="4" x="41.438793" y="99.830223"/>
    <rect fill="url(#linearGradient3238)" height="21.292" stroke-width="2" width="4" x="45.438778" y="99.830223"/>
    <rect fill="url(#linearGradient3235)" height="21.292" stroke-width="2" width="4" x="49.438778" y="99.830223"/>
    <rect fill="url(#linearGradient3232)" height="21.292" stroke-width="2" width="4" x="53.438778" y="99.830223"/>
    <path d="m-40.561199 97.83022v23.292h60s-54-2-54-10 0-13.292 0-13.292z" fill="url(#linearGradient3229)" stroke-width="2"/>
    <path d="m-72.561199 94.08022c1.476 2.538 3.78 5.752 5.584 5.752h216.833989c1.804 0 4.11-3.214 5.584-5.752z" fill="url(#linearGradient3226)" stroke-width="2"/>
    <path d="m-51.419199-98.877773c-1.866 0-3.468.994-3.582 2.224l-17.55 189.655993c-.16 1.722 1.506 3.12 3.722 3.12h220.537989c2.212 0 3.88-1.398 3.718-3.122l-17.54798-189.653993c-.114-1.23-1.716-2.224-3.582-2.224z" fill="url(#radialGradient3223)" stroke-width="2"/>
    <path d="m-51.419199-96.877773c-.916 0-1.528.386-1.628.546 0 .27-17.514 189.515993-17.514 189.515993v.048c0 .072.02.19.16.342.24.264.78.548 1.572.548h220.537989c.792 0 1.33-.284 1.572-.548.174-.192.16-.326.154-.384 0-.004-17.54798-189.657993-17.54798-189.657993-.062-.022-.672-.408-1.59-.408h-185.716009z" fill="url(#radialGradient3220)" stroke-width="2"/>
    <path d="m-53.047199-94.331773c.1-.162.71-.546 1.628-.546h185.716009c.918 0 1.528.386 1.59.408 0 0 15.70798 169.744001 17.39798 188.035993.166-.186.156-.318.15-.376 0-.004-17.54798-189.657993-17.54798-189.657993-.062-.022-.672-.408-1.59-.408h-185.716009c-.916 0-1.528.386-1.628.546 0 .268-17.514 189.513993-17.514 189.513993v.048c0 .07.024.184.152.33 1.69-18.275992 17.362-187.637993 17.362-187.893993z" fill="url(#linearGradient3217)" opacity=".8" stroke-width="2"/>
    <path d="m129.22681 14.830228c-1.126-14.162-8.672-27.666-21.21001-38.322-.252-4.096-3.466-56.494-3.466-56.494-.246-4.028-3.992-7.068-8.715999-7.068h-29.646c-4.758 0-8.436 3.08-8.556 7.164-.544 18.452-17.132 28.086-41.876 36.85-8.67 2.058-31.274 11.732-36.462 15.978-15.272 11.154-24.38 26.024-25.642 41.892-1.148 14.432 4.37 28.874 15.538 40.666 16.346 17.26 43.354 27.566 72.248 27.566s55.902-10.306 72.250009-27.566c10.2-10.768 15.686-23.75 15.686-36.914 0-1.25-.052-2.502-.148-3.752zm-87.788009 61.074c-48.124 0-84.974-28.922-82.308-62.448 1.15-14.454 9.592-29.884 23.572-40.052 2.618-2.704 26.262-13.222 34.744-15.07 23.508-8.308 45.006-19.09 45.68-41.812.032-1.088 1.384-1.95 3.062-1.95h29.642c1.716 0 3.164.904 3.232 2.02l3.599999 58.704c12.46001 9.894 20.01001 24.662 21.08201 38.16 2.668 33.526-34.182009 62.448-82.306009 62.448z" fill="url(#radialGradient3214)" stroke-width="2"/>
    <path d="m41.438801-3.871772c-15.964 0-28.202 8.088-28.46 18.816-.002.116-.004.23-.004.344 0 3.882 1.604 7.574 4.652 10.7 5.156 5.284 14.058 8.438 23.814 8.438 9.754 0 18.656-3.154 23.812-8.438 3.138-3.214 4.746-7.034 4.648-11.042-.262-10.728-12.5-18.818-28.462-18.818zm0 32.296c-15 0-22.642-8.016-22.462-15.334.174-7.204 10.23-12.96 22.462-12.96s22.288 5.758 22.462 12.96c.178 7.32-7.462 15.334-22.462 15.334z" fill="url(#radialGradient3211)" stroke-width="2"/>
    <path d="m48.938801-74.031772-.47-1.584c-.618-2.25-1.764-6.436-7.366-6.436h-69.252c-6.306 0-11.608 5.102-12.07 11.616 0 0-1.846 26.108-1.846 26.108-.25 3.522.944 6.932 3.274 9.352 3.34 3.476 7.992 2.488 9.744 2.114 45.162-9.616 73.676-30.246 77.412-36.834 1.06-1.87.896-3.39.574-4.336zm-3.786 1.292c1.096 3.208-27.488 25.84-75.034 35.964-2.18.464-4.476.64-6.028-.976-1.55-1.612-2.336-3.902-2.166-6.296l.04-.56c-.042-.474-.074-.952-.04-1.44l1.846-26.106c.31-4.378 3.926-7.898 8.08-7.898h69.252c3.208 0 2.962 2.128 4.05 5.314.084.246-.028.618-.288 1.076.09.298.18.602.288.922z" fill="url(#radialGradient3208)" stroke-width="2"/>
    <path d="m48.938801-74.031772-.47-1.584c-.574-2.09-1.654-5.814-6.298-6.332 2.098.458 2.034 2.43 2.984 5.21.084.246-.028.618-.288 1.076.088.3.178.602.288.924 1.096 3.208-27.488 25.84-75.034 35.964-2.18.464-4.476.64-6.028-.976-1.55-1.612-2.336-3.902-2.166-6.296l.04-.56c-.042-.474-.074-.952-.04-1.44l1.846-26.106c.31-4.378 3.926-7.898 8.08-7.898-6.306 0-11.608 5.102-12.07 11.616 0 0-1.846 26.108-1.846 26.108-.25 3.522.944 6.932 3.274 9.352 3.34 3.476 7.992 2.488 9.744 2.114 45.16-9.618 73.674-30.248 77.41-36.836 1.06-1.87.896-3.39.574-4.336z" fill="url(#radialGradient3205)" stroke-width="2"/>
    <path d="m131.63881 85.266228c.252 3.404 4.026 6.179992 8.42598 6.179992 4.398 0 7.728-2.775992 7.434-6.179992-.292-3.386-4.064-6.12-8.42-6.12-4.35798.002-7.68798 2.734-7.43998 6.12z" fill="url(#linearGradient3202)" stroke-width="2"/>
    <path d="m134.48481 82.872228c-.402.432-.862 1.124-.862 2.044 0 .066.004.132.008.202.174 2.346 3.12 4.328 6.43198 4.328 1.886 0 3.61-.65 4.61-1.742.43-.466.92-1.238.832-2.266-.202-2.326-3.144-4.292-6.428-4.292-1.87198.002-3.58998.646-4.59198 1.726z" fill="url(#radialGradient3199)" stroke-width="2"/>
    <path d="m-64.621199 85.266228c-.294 3.404 3.034 6.179992 7.434 6.179992s8.174-2.775992 8.424-6.179992c.25-3.386-3.084-6.12-7.44-6.12-4.354.002-8.124 2.734-8.418 6.12z" fill="url(#linearGradient3196)" stroke-width="2"/>
    <path d="m-62.629199 85.438228c-.088 1.028.404 1.798.832 2.266 1 1.092 2.724 1.742 4.612 1.742 3.312 0 6.256-1.98 6.43-4.326.076-1.02-.422-1.784-.85-2.246-1.004-1.082-2.722-1.726-4.594-1.726-3.284 0-6.228 1.964-6.43 4.29z" fill="url(#radialGradient3193)" stroke-width="2"/>
    <path d="m123.87481-20.101772c.21 2.844 3.64 5.16 7.662 5.16 4.018 0 7.078-2.316 6.832-5.16-.244-2.828-3.674-5.112-7.656-5.112-3.984 0-7.046 2.284-6.838 5.112z" fill="url(#linearGradient3190)" stroke-width="2"/>
    <path d="m126.45081-21.699772c-.388.418-.586.866-.586 1.33 0 .04.002.08.004.12.118 1.564 2.472 3.308 5.668 3.308 1.772 0 3.408-.584 4.272-1.526.422-.458.612-.95.568-1.46-.134-1.554-2.494-3.284-5.664-3.284-1.76-.002-3.394.578-4.262 1.512z" fill="url(#radialGradient3187)" stroke-width="2"/>
    <path d="m-55.491199-20.101772c-.246 2.844 2.814 5.16 6.834 5.16 4.018 0 7.452-2.316 7.66-5.16.208-2.828-2.854-5.112-6.836-5.112-3.986 0-7.414 2.284-7.658 5.112z" fill="url(#linearGradient3184)" stroke-width="2"/>
    <path d="m-53.499199-19.929772c-.044.51.148 1.002.568 1.46.864.942 2.5 1.526 4.274 1.526 3.196 0 5.55-1.742 5.666-3.306.038-.508-.158-.996-.58-1.45-.868-.934-2.5-1.514-4.262-1.514-3.172 0-5.532 1.73-5.666 3.284z" fill="url(#radialGradient3181)" stroke-width="2"/>
    <path d="m118.56281-92.177773c.184 2.488 3.382 4.514001 7.142 4.514001 3.758 0 6.632-2.026001 6.418-4.514001-.214-2.476-3.412-4.476-7.138-4.476-3.728 0-6.602 2-6.422 4.476z" fill="url(#linearGradient3178)" stroke-width="2"/>
    <path d="m120.97281-93.293773c-.372.398-.418.718-.418.884 0 .036.002.064.004.084.092 1.232 2.36 2.662 5.148 2.662 2.04 0 3.414-.708 4.024-1.372.444-.484.412-.85.402-.972-.11-1.25-2.332-2.648-5.146-2.648-2.028.002-3.404.704-4.014 1.362z" fill="url(#radialGradient3175)" stroke-width="2"/>
    <path d="m-49.247199-92.177773c-.216 2.488 2.658 4.514001 6.418 4.514001 3.758 0 6.958-2.026001 7.142-4.514001.182-2.476-2.696-4.476-6.422-4.476-3.728 0-6.924 2-7.138 4.476z" fill="url(#linearGradient3172)" stroke-width="2"/>
    <path d="m-47.255199-92.005773c0 .002 0 .002 0 0-.01.122-.042.488.402.972.608.662 1.984 1.37 4.024 1.37 2.79 0 5.058-1.43 5.148-2.662.008-.12.036-.484-.414-.966-.612-.658-1.988-1.362-4.014-1.362-2.814 0-5.036 1.398-5.146 2.648z" fill="url(#radialGradient3169)" stroke-width="2"/>
    <path d="m-25.727199-95.541773c-1.054 0-1.928.666-1.996 1.522l-.606 7.666001c-.036.448.16.888.538 1.216s.906.514 1.458.514h78.022c.534 0 1.044-.174 1.422-.482.376-.308.584-.726.578-1.16l-.09-7.666001c-.012-.89-.902-1.61-2-1.61z" fill="#bbb" stroke-width="2"/>
    <polygon fill="url(#linearGradient3119)" points="30.417 7.289 69.08 7.289 69.126 12.003 30.115 12.003" transform="matrix(2 0 0 2 -86.561199 -109.87777)"/>
    <g transform="matrix(2 0 0 2 -86.561199 -109.87777)">
      <path d="m62.954 10.843v-.34h-1.458l-.002.34h-.394l.004-.813h.393l-.002.38h1.459v-.38h.393l-.001.813z" fill="#888"/>
      <path d="m60.428 10.832c-.242.01-.524.017-.833.017-.56 0-.958-.033-1.221-.1-.273-.066-.428-.162-.427-.293.001-.132.159-.241.438-.316.287-.076.752-.117 1.338-.117.281 0 .51.002.71.01zm-.388-.721c-.098-.005-.241-.005-.393-.005-.832-.001-1.285.126-1.287.345-.007.194.395.313 1.219.313.202 0 .354-.004.456-.011z" fill="#888"/>
      <path d="m57.446 10.832c-.242.01-.524.017-.833.017-.56 0-.958-.033-1.221-.1-.272-.066-.427-.162-.425-.293.002-.132.161-.241.439-.316.288-.076.753-.117 1.338-.117.282 0 .51.002.71.01zm-.384-.721c-.098-.005-.241-.005-.394-.005-.832-.001-1.285.126-1.289.345-.007.194.394.313 1.217.313.202 0 .354-.004.457-.011z" fill="#888"/>
      <path d="m51.76 10.813.001-.07 1.283-.714h.402l-1.271.693v.002h1.423l-.002.088h-1.836z" fill="#888"/>
      <path d="m51.372 10.03-.001.065-.311.081c-.748.19-1.09.292-1.094.41-.002.08.135.153.569.153.265 0 .484-.036.62-.066l.124.074c-.198.045-.49.08-.826.08-.623 0-.884-.116-.88-.229.004-.145.396-.262 1.013-.421l.23-.058v-.002h-1.302l.002-.088h1.856z" fill="#888"/>
      <path d="m48.153 10.017c.568 0 .953.143.954.402-.007.264-.437.408-1.028.408-.609 0-.958-.147-.95-.397.009-.266.385-.413 1.02-.413zm-.02.081c-.399 0-.595.127-.601.327-.006.193.169.32.582.32.358 0 .595-.123.6-.32.015-.204-.214-.327-.576-.327z" fill="#888"/>
      <path d="m45.859 10.017c.568 0 .953.143.953.402-.009.264-.439.408-1.03.408-.609 0-.958-.147-.948-.397.01-.266.387-.413 1.021-.413zm-.02.081c-.398 0-.595.127-.603.327-.007.193.168.32.58.32.358 0 .595-.123.602-.32.016-.204-.213-.327-.575-.327z" fill="#888"/>
      <path d="m44.322 10.831c-.197.01-.484.018-.749.018-.416 0-.688-.021-.875-.067-.146-.035-.234-.091-.231-.155.004-.106.263-.177.577-.206v-.004c-.228-.021-.363-.08-.436-.164-.094-.114-.163-.192-.219-.223h.402c.048.023.113.093.189.194.085.112.249.154.602.158h.367l.013-.352h.389zm-.375-.37h-.398c-.416 0-.682.062-.686.154-.004.105.275.151.687.151.188 0 .319-.005.386-.01z" fill="#888"/>
      <path d="m41.913 10.832c-.188.01-.435.017-.749.017-.385 0-.666-.024-.843-.067-.164-.039-.264-.098-.261-.17.003-.074.087-.131.246-.174.208-.059.544-.089.925-.089.117 0 .224.001.313.008l.014-.326h.389zm-.373-.391c-.085-.006-.197-.009-.322-.009-.474 0-.759.063-.764.172s.275.161.705.161c.17 0 .3-.004.367-.008z" fill="#888"/>
      <path d="m37.01 10.386c.017.114.036.251.031.352h.009c.112-.095.239-.197.396-.309l.552-.394h.295l.473.387c.138.116.25.22.33.316h.009c.014-.102.043-.237.076-.36l.097-.348h.371l-.249.813h-.497l-.496-.394c-.121-.1-.214-.189-.291-.274h-.009c-.084.082-.197.171-.335.274l-.557.394h-.497l-.146-.813h.385z" fill="#888"/>
    </g>
    <g transform="matrix(2 0 0 2 -86.561199 -109.87777)">
      <circle cx="106.666" cy="112.291" fill="url(#XMLID_76_)" r="2.625"/>
      <circle cx="106.664" cy="111.541" fill="url(#XMLID_77_)" r="2.625"/>
      <circle cx="106.666" cy="111.541" fill="url(#XMLID_78_)" r="1.875"/>
    </g>
  </g>
  <g transform="matrix(1.5753052 0 0 1.5753052 -74.7538 227.07947)">
    <path d="m86.910306-105.26551-6.15625 6.468747 4.90625 7.71875c3.95503 2.077368 8.01686 4.506049 11.25 7.5625l49.250004 46.562496-4.0625 4.25 5.25 4.96875c2.8978.32866 5.88134 1.54716 8.34375 3.875 2.48989 2.35383 4.0098 5.32603 4.46875 8.21875l24.71875 23.4062497c5.74081 5.4271103 20.09104-9.50599 14.3125-14.96875l-24.75-23.3749997c-2.92812-.30927-5.97885-1.67742-8.46875-4.03125-2.4624-2.32783-3.86687-5.23216-4.34375-8.09375l-5.25-4.96875-4.0625 4.25-49.25-46.562496c-3.233144-3.056451-6.368184-6.898911-8.156254-10.749997z" filter="url(#filter11957)" opacity=".8"/>
    <path d="m80.741251-100.80766 4.926628 7.723787c3.955029 2.077368 8.005907 4.502016 11.239041 7.558468l84.33302 79.7244447 6.15856-6.4435567-84.33302-79.724441c-3.233134-3.056452-6.371684-6.929155-8.159762-10.780242l-8.005908-4.50202z" fill="url(#linearGradient6125)"/>
    <rect fill="url(#linearGradient6122)" height="95.018715" transform="matrix(.69093913 -.72291294 -.7266836 -.6869723 0 0)" width="1.077116" x="131.45467" y="-100.85835"/>
    <rect fill="url(#linearGradient6119)" height="61.157627" opacity=".385768" transform="matrix(-.69093913 .72291294 -.7266836 -.6869723 0 0)" width="1.545323" x="-131.90137" y="-64.833946"/>
    <g clip-path="url(#clipPath3850)" transform="matrix(.76981996 -.80544406 .80828348 .76411296 84.525668 -85.449604)">
      <path d="m4.296875-4.12891h1.3671875c2.6562464 3.81510552 2.934673 7.9698996 1.953125 12.30469l-2.6367187.9765636z" fill="#535557" fill-rule="evenodd" filter="url(#filter3834)"/>
      <path d="m18.977324-4.12891h-1.367187c-2.656247 3.81510552-2.934673 7.9698996-1.953125 12.30469l2.636719.9765636z" fill="#535557" fill-rule="evenodd" filter="url(#filter3838)"/>
      <path d="m18.977324-4.12891-.745706.069053c-2.11381 2.7319133-2.488332 3.0000694-2.367446 8.990127l2.429559 4.2220732z" fill-rule="evenodd" filter="url(#filter3838)"/>
    </g>
    <rect fill="url(#linearGradient6112)" height="105.01195" transform="matrix(.69093913 -.72291294 .7266836 .6869723 0 0)" width="1.846484" x="133.58215" y="22.101688"/>
    <path d="m80.741251-100.80766 4.926628 7.723787c13.051847 5.985264 13.550085.366259 9.237839-9.665327l-8.005907-4.50202z" style="stroke-width:.411891;stroke-linecap:round;stroke-linejoin:round;stroke-dashoffset:1.0878;fill:url(#linearGradient3943);stroke:url(#linearGradient6517)"/>
    <path d="m142.08387-34.707252 5.24945 4.962574c2.89778.328657 5.90137 1.564523 8.36378 3.892364 2.48989 2.353824 3.99567 5.332839 4.45463 8.22556l24.73572 23.3839687c5.74082 5.4271053 20.07982-9.5003371 14.30128-14.9630963l-24.73572-23.3839764c-2.92812-.309276-5.99595-1.653949-8.48585-4.007773-2.46241-2.327839-3.85567-5.248562-4.33255-8.110146l-5.24944-4.962575z" fill="url(#linearGradient4190)"/>
    <path clip-path="url(#clipPath4242)" d="m-8 120c9.7462188 10.07566 18.00314 6.89342 24 0l-4 16-28-8-4-16z" fill="#ffa700" fill-rule="evenodd" filter="url(#filter4238)" transform="matrix(.89383084 -.93519366 .93849048 .88720451 72.655749 -107.46203)"/>
    <rect fill="#ffa500" height="1.072022" opacity=".486891" transform="matrix(.69093913 -.72291294 .7266836 .6869723 0 0)" width="20.698339" x="122.83072" y="78.759239"/>
    <path d="m150.98516-43.951199 2.75308-2.880476 5.12032 4.84051c-.12684.571546-.20813 1.150919.54166 1.873142l-2.35281 2.869994c-.68826-.429326-1.06441-.9923-.87358-1.798053z" fill="url(#linearGradient4346)" opacity=".838951"/>
    <path d="m4.6713727 129.88196 2.6102628-.382c-.035192.87091-.023162 1.30144.5622421 2.51127h-2.7165477c-.3299416-1.17586-.523736-1.51524-.4559572-2.12927z" fill="url(#linearGradient4342)" filter="url(#filter4404)" opacity=".745318" transform="matrix(.66648127 -.69732328 .69978154 .66154037 74.91062 -111.87835)"/>
    <rect fill="url(#radialGradient4440)" height=".376164" transform="matrix(.69093913 -.72291294 .7266836 .6869723 0 0)" width="10.267736" x="132.14296" y="103.68023"/>
    <path d="m83.597656 68.53125-14.84375 14.453125c16.066268 5.592573 9.578984-8.654613 14.84375-14.453125z" fill="url(#linearGradient4471)" fill-rule="evenodd" filter="url(#filter4501)" transform="matrix(.9660937 -.02530234 .02354685 .9608617 78.869182 -108.13611)"/>
    <path d="m87.597656 72.53125-14.84375 14.453125c16.066268 5.592573 9.578984-8.654613 14.84375-14.453125z" fill="url(#linearGradient4515)" fill-rule="evenodd" filter="url(#filter4501)" transform="matrix(-.9660937 .02530234 -.02354685 -.9608617 246.71828 49.487587)"/>
    <rect fill="url(#linearGradient4525)" height="28.195471" opacity=".838951" rx="2.824297" ry="2.819547" transform="matrix(.69093913 -.72291294 .7266836 .6869723 0 0)" width="5.648595" x="125.52905" y="109.44155"/>
    <rect fill="url(#linearGradient4537)" filter="url(#filter4551)" height="1.104854" opacity=".838951" rx="2.927941" ry=".557703" transform="matrix(.66648127 -.69732328 .69978154 .66154037 74.91062 -111.87835)" width="11.60097" x="-1.192967" y="130.97287"/>
    <path clip-path="url(#clipPath4588)" d="m13.83125 81.09375-1.5 1.5 5.3125 5.3125c2.989229.420757 6.074319 1.793069 8.5625 4.28125 2.515957 2.515951 3.973574 5.635131 4.375 8.65625l25 25c4.210519 4.21053 13.365927-2.61772 15.84375-8.90625-3.366394 5.60616-11.079694 10.67031-14.84375 6.90625l-25-25c-.401426-3.021119-1.859043-6.140299-4.375-8.65625-2.488181-2.488181-5.573271-3.860493-8.5625-4.28125z" fill="#996100" filter="url(#filter4584)" transform="matrix(.9660937 -.02530234 .02354685 .9608617 127.55507 -113.26163)"/>
    <rect fill="url(#radialGradient4602)" height=".376164" opacity=".576779" transform="matrix(.69093913 -.72291294 .7266836 .6869723 0 0)" width="10.267736" x="132.67584" y="78.943359"/>
    <rect clip-path="url(#clipPath4632)" fill="url(#linearGradient4537)" filter="url(#filter4626)" height="4.053051" opacity=".576779" rx="0" transform="matrix(.66648127 -.69732328 .69978154 .66154037 57.842296 -129.03888)" width="12.602244" x="-1.192967" y="129.5918"/>
    <rect clip-path="url(#clipPath4632)" fill="url(#linearGradient4537)" filter="url(#filter4626)" height="1.705174" opacity=".576779" rx="0" transform="matrix(.66648127 -.69732328 .69978154 .66154037 57.743332 -129.13243)" width="7.90661" x="3.157397" y="130.07516"/>
    <path d="m81.861745-100.54919 4.258519 6.676359c11.281863 5.17359 11.712533.316588 7.985079-8.354599l-6.920212-3.89149z" fill="url(#linearGradient6930)"/>
    <rect fill="url(#linearGradient7698)" height="28.195471" opacity=".838951" rx="2.824297" ry="2.819547" transform="matrix(.69093913 -.72291294 .7266836 .6869723 0 0)" width="5.648595" x="137.12436" y="110.1225"/>
    <rect fill="url(#linearGradient4338)" height="36.766068" opacity=".951311" transform="matrix(.69093913 -.72291294 .7266836 .6869723 0 0)" width="2.49187" x="133.67735" y="103.77274"/>
  </g>
</svg>
