<svg height="256" width="256" xmlns="http://www.w3.org/2000/svg" xmlns:xlink="http://www.w3.org/1999/xlink">
  <defs>
    <linearGradient id="linearGradient3812-5">
      <stop offset="0" stop-color="#dedeff"/>
      <stop offset="1" stop-color="#0000c0"/>
    </linearGradient>
    <linearGradient id="linearGradient3922-0">
      <stop offset="0" stop-color="#6492a5" stop-opacity=".615385"/>
      <stop offset="1" stop-color="#69a7c1" stop-opacity=".615385"/>
    </linearGradient>
    <radialGradient id="radialGradient7270" cx="-21.891562" cy="-35.872421" gradientTransform="matrix(9 0 0 11.811104 -3411.208 -4722.1768)" gradientUnits="userSpaceOnUse" r="104.04594" xlink:href="#linearGradient3922-0"/>
    <radialGradient id="radialGradient7272" cx="-21.891562" cy="-35.872421" gradientTransform="matrix(1 0 0 1.3123449 0 11.204569)" gradientUnits="userSpaceOnUse" r="104.04594" xlink:href="#linearGradient3922-0"/>
    <radialGradient id="radialGradient7462" cx="119.79702152" cy="95.88309766682" gradientUnits="userSpaceOnUse" r="69.93641776">
      <stop offset="0" stop-color="#fff" stop-opacity=".638462"/>
      <stop offset="1" stop-color="#fff" stop-opacity="0"/>
    </radialGradient>
    <radialGradient id="radialGradient7464" cx="388.3363" cy="547.93304" gradientTransform="matrix(9 0 0 8.0666545 -3388.9152 -4296.8506)" gradientUnits="userSpaceOnUse" r="10.164065" xlink:href="#linearGradient3812-5"/>
    <radialGradient id="radialGradient7466" cx="390.15549" cy="546.97308" gradientTransform="matrix(9 0 0 8.0666545 -3388.9152 -4296.8506)" gradientUnits="userSpaceOnUse" r="10.164065" xlink:href="#linearGradient3812-5"/>
    <radialGradient id="radialGradient7470" cx="334.43365" cy="522.92694" gradientTransform="matrix(9 0 0 7.3204225 -2881.9029 -3700.0463)" gradientUnits="userSpaceOnUse" r="8.520001">
      <stop offset="0" stop-color="#f00" stop-opacity=".469231"/>
      <stop offset="1" stop-color="#f00"/>
    </radialGradient>
  </defs>
  <path d="m241.86296 128a113.86298 113.86298 0 1 1 -227.72592 0 113.86298 113.86298 0 1 1 227.72592 0z" fill="url(#radialGradient7270)" fill-rule="evenodd" stroke="#000" stroke-linecap="round" stroke-width="2.25"/>
  <g fill="url(#radialGradient7272)" transform="matrix(.70055991 0 0 .70055991 159.06377 156.22481)">
    <path d="m-125.63477-168.15877h3.4961l2.72461 7.5586 2.71484-7.5586h3.50586l-4.30664 10.9375h-3.83789z" fill="url(#radialGradient7272)"/>
    <path d="m-106.30859-162.14314c-.72918 0-1.27931.1237-1.65039.37109-.36459.2474-.54688.61199-.54688 1.09375 0 .44271.14648.79102.43945 1.04492.29948.2474.71289.3711 1.24024.3711.65754 0 1.21093-.23438 1.66015-.70313.44921-.47525.67382-1.0677.67383-1.77734v-.40039zm5.34179-1.31836v6.24023h-3.52539v-1.62109c-.46876.66406-.9961 1.14909-1.58203 1.45508-.58594.29948-1.29883.44922-2.13867.44922-1.13282 0-2.05404-.32878-2.76367-.98633-.70313-.66406-1.05469-1.52344-1.05469-2.57813 0-1.28254.43945-2.2233 1.31836-2.82226.88541-.59895 2.27213-.89843 4.16016-.89844h2.06054v-.27344c-.00001-.55337-.2181-.95702-.65429-1.21093-.43621-.26041-1.11655-.39062-2.04102-.39063-.7487.00001-1.44532.0749-2.08984.22461-.64454.14975-1.2435.37436-1.79688.67383v-2.66602c.7487-.18228 1.50065-.319 2.25586-.41015.7552-.0977 1.51041-.14648 2.26563-.14649 1.97264.00001 3.39517.39064 4.26757 1.17188.8789.77475 1.31835 2.03776 1.31836 3.78906" fill="url(#radialGradient7272)"/>
    <path d="m-97.695312-172.41658h3.496093v15.19531h-3.496093z" fill="url(#radialGradient7272)"/>
    <path d="m-89.74-159.22127c-.619999 0-1.14.5-1.14 1.12s.500001 1.14 1.12 1.14 1.12-.52 1.12-1.14c0-.6-.520001-1.12-1.1-1.12m0-7.26c-.619999 0-1.14.5-1.14 1.12s.500001 1.14 1.12 1.14 1.12-.52 1.12-1.14c0-.6-.500001-1.12-1.1-1.12" fill="url(#radialGradient7272)"/>
    <path d="m-119.9575-128.92127v-.68h-2.06c-.34 0-.46-.12-.46-.46v-14.36c0-.5.08-.58.54-.58h1.98v-.68h-4.26v16.76z" fill="url(#radialGradient7272)"/>
    <path d="m-90.947266-114.77988c.787753.00001 1.350903-.14647 1.689454-.43945.345042-.29296.517568-.77473.517578-1.44531-.00001-.66405-.172536-1.13931-.517578-1.42578-.338551-.28645-.901701-.42968-1.689454-.42969h-1.582031v3.74023zm-1.582031 2.59766v5.51758h-3.759765v-14.58008h5.742187c1.920563.00002 3.326812.32228 4.21875.9668.898425.64454 1.347643 1.66342 1.347656 3.05664-.000013.96355-.234388 1.75456-.703125 2.37304-.462251.6185-1.16212 1.07423-2.099609 1.36719.514312.1172.973296.38412 1.376953.80078.410144.41017.823555 1.03516 1.240234 1.875l2.041016 4.14063h-4.003906l-1.777344-3.62305c-.358082-.72916-.722665-1.22721-1.09375-1.49414-.364591-.26692-.852872-.40038-1.464844-.40039z" fill="url(#radialGradient7272)"/>
    <path d="m-71.994375-114.48464h-10.52v1.1h10.52zm0 3.88h-10.52v1.1h10.52z" fill="url(#radialGradient7272)"/>
    <path d="m-69.417812-117.84464c.659999-.28 1-.38 1.239999-.38.24 0 .480001.14.560001.34.1.28.1.28.12 1.54v6.84c0 1.92-.260002 2.24-1.92 2.32v.52h5.459999v-.52c-1.679998-.12-1.899999-.38-1.899999-2.32v-10.62h-.36c-.74.46-1.520002.88-3.2 1.7z" fill="url(#radialGradient7272)"/>
    <path d="m-60.637813-104.26464c.74-.08 1.100001-.22 1.64-.62.78-.58 1.120001-1.22 1.120001-2.08 0-.98-.680001-1.74-1.54-1.74-.6 0-1.080001.5-1.080001 1.14s.480001 1.16 1.060001 1.16c.179999 0 .3-.02.6-.1.04.84-.820001 1.74-1.800001 1.92z" fill="url(#radialGradient7272)"/>
    <path d="m-84.726562-81.908797c-.690117.358073-1.409518.628255-2.158204.810547-.748708.182291-1.529957.273437-2.34375.273437-2.428392 0-4.352218-.677083-5.771484-2.03125-1.419273-1.360674-2.128907-3.20312-2.128906-5.527344-.000001-2.330719.709633-4.173165 2.128906-5.527343 1.419266-1.360663 3.343092-2.041001 5.771484-2.041016.813793.000015 1.595042.09116 2.34375.273437.748686.182307 1.468087.452489 2.158204.810547v3.017578c-.696628-.475249-1.383476-.823556-2.060547-1.044921-.677094-.221343-1.389984-.33202-2.138672-.332032-1.341154.000012-2.39584.4297-3.164063 1.289063-.768234.859385-1.152348 2.044279-1.152343 3.554687-.000005 1.503912.384109 2.685552 1.152343 3.544922.768223.859378 1.822909 1.289065 3.164063 1.289063.748688.000002 1.461578-.110675 2.138672-.332032.677071-.221351 1.363919-.569658 2.060547-1.044921z" fill="url(#radialGradient7272)"/>
    <path d="m-72.6975-88.928016h-10.52v1.1h10.52zm0 3.88h-10.52v1.1h10.52z" fill="url(#radialGradient7272)"/>
    <path d="m-70.120937-92.288016c.659999-.28 1-.38 1.239999-.38.24 0 .480001.14.560001.34.1.28.1.280001.12 1.54v6.84c0 1.919998-.260002 2.24-1.92 2.32v.52h5.459999v-.52c-1.679998-.12-1.899999-.380002-1.899999-2.32v-10.62h-.36c-.74.459999-1.520002.880001-3.2 1.7z" fill="url(#radialGradient7272)"/>
    <path d="m-61.340938-78.708016c.74-.08 1.100001-.22 1.64-.62.78-.579999 1.120001-1.220001 1.120001-2.08 0-.979999-.680001-1.74-1.54-1.74-.6 0-1.080001.500001-1.080001 1.14s.480001 1.16 1.060001 1.16c.179999 0 .3-.02.6-.1.04.839999-.820001 1.74-1.800001 1.92z" fill="url(#radialGradient7272)"/>
    <path d="m-96.289062-70.131469h3.759765v8.740235c-.000005 1.204431.195307 2.067061.585938 2.58789.397128.514326 1.041659.771487 1.933593.771485.898429.000002 1.542959-.257159 1.933594-.771485.397125-.520829.595693-1.383459.595703-2.58789v-8.740235h3.759766v8.740235c-.000015 2.063805-.517592 3.600262-1.552734 4.609375-1.035169 1.009114-2.613943 1.513671-4.736329 1.513671-2.115891 0-3.69141-.504557-4.726562-1.513671-1.035159-1.009113-1.552736-2.54557-1.552734-4.609375z" fill="url(#radialGradient7272)"/>
    <path d="m-76.835-69.271391c-1.739998 0-3.000001.900002-3.8 2.74-.539999 1.219999-.78 2.580002-.78 4.26 0 4.239996 1.760003 6.98 4.48 6.98s4.48-2.740004 4.48-6.98c0-4.179995-1.760003-7-4.38-7m-.04.72c1.719998 0 2.5 1.940005 2.5 6.22 0 4.319996-.780002 6.22-2.54 6.22-1.799998 0-2.58-1.880004-2.58-6.24 0-4.359995.780002-6.2 2.62-6.2" fill="url(#radialGradient7272)"/>
    <path d="m-61.135-63.371391h-10.52v1.1h10.52zm-0 3.88h-10.52v1.1h10.52z" fill="url(#radialGradient7272)"/>
    <path d="m-58.558437-66.731391c.659999-.279999 1-.38 1.239999-.38.24 0 .480001.140001.560001.34.1.28.1.280002.119999 1.54v6.84c0 1.919998-.260001 2.24-1.919999 2.32v.52h5.459999v-.52c-1.679998-.12-1.9-.380002-1.9-2.32v-10.62h-.359999c-.74.46-1.520002.880001-3.2 1.7z" fill="url(#radialGradient7272)"/>
    <path d="m-125.2775-27.251391h4.26v-16.76h-4.26v.68h1.98c.46 0 .54.100001.54.58v14.28c0 .44-.1.54-.58.54h-1.94z" fill="url(#radialGradient7272)"/>
    <path d="m-116.13781-39.811391c-.64 0-1.14.500001-1.14 1.12 0 .639999.5 1.14 1.12 1.14s1.12-.500001 1.12-1.14c0-.619999-.5-1.12-1.1-1.12m-1.46 11.66c.74-.08 1.1-.22 1.64-.62.78-.579999 1.12-1.220001 1.12-2.08 0-.979999-.68-1.74-1.54-1.74-.6 0-1.08.500001-1.08 1.14s.48 1.16 1.06 1.16c.18 0 .3-.02.6-.1.04.839999-.82 1.74-1.8 1.92z" fill="url(#radialGradient7272)"/>
    <path d="m-116.81641-14.330703v-5.859375h3.51563v15.1953127h-3.51563v-1.5820313c-.48178.6445322-1.01237 1.116537-1.59179 1.4160157-.57944.299479-1.25001.4492184-2.01172.4492187-1.34766-.0000003-2.45443-.5338539-3.32031-1.6015625-.86589-1.0742163-1.29883-2.4544233-1.29883-4.1406253 0-1.68619.43294-3.063142 1.29883-4.130859.86588-1.074208 1.97265-1.611317 3.32031-1.611328.7552.000011 1.42252.153006 2.00195.458984.58593.29949 1.11978.768239 1.60156 1.40625m-2.30468 7.0800783c.74869.0000023 1.31835-.273435 1.70898-.8203125.39713-.5468714.59569-1.3411414.5957-2.3828128-.00001-1.04166-.19857-1.83593-.5957-2.382812-.39063-.546867-.96029-.820304-1.70898-.820313-.7422.000009-1.31186.273446-1.70899.820313-.39063.546882-.58594 1.341152-.58594 2.382812 0 1.0416714.19531 1.8359414.58594 2.3828128.39713.5468775.96679.8203148 1.70899.8203125" fill="url(#radialGradient7272)"/>
    <path d="m-102.48047-6.8502341c-.48178.6380221-1.01238 1.1067716-1.5918 1.40625-.57943.2994794-1.25.4492188-2.01171.4492188-1.33464 0-2.43816-.524088-3.31055-1.5722656-.8724-1.0546849-1.3086-2.3958294-1.3086-4.0234371 0-1.634108.4362-2.971997 1.3086-4.013672.87239-1.048167 1.97591-1.572255 3.31055-1.572266.76171.000011 1.43228.149751 2.01171.449219.57942.299489 1.11002.771494 1.5918 1.416015v-1.621093h3.515626v9.8339841c-.000012 1.7578118-.556652 3.0989563-1.669926 4.0234375-1.10678.9309857-2.71485 1.39648002-4.82421 1.39648434-.6836-.00000432-1.34441-.0520876-1.98243-.15625-.63802-.10417073-1.2793-.26367574-1.92382-.47851564v-2.7246094c.61197.3515612 1.21093.6119776 1.79687.78125.58593.1757794 1.17513.2636699 1.76758.2636719 1.14583-.000002 1.98567-.2506528 2.51953-.7519531.53385-.5013028.80077-1.2858073.80078-2.3535156zm-2.30469-6.8066409c-.72266.000009-1.28581.266936-1.68945.800782-.40365.533861-.60547 1.289069-.60547 2.265625 0 1.0026083.19531 1.7643263.58594 2.2851558.39062.5143257.96028.7714869 1.70898.7714844.72916.0000025 1.29557-.2669243 1.69922-.8007813.40364-.5338503.60546-1.2858026.60547-2.2558589-.00001-.976556-.20183-1.731764-.60547-2.265625-.40365-.533846-.97006-.800773-1.69922-.800782" fill="url(#radialGradient7272)"/>
    <path d="m-95.585937-20.190078h3.496093v15.1953127h-3.496093z" fill="url(#radialGradient7272)"/>
    <path d="m-87.630625-6.9947653c-.619999 0-1.14.5000006-1.14 1.12s.500001 1.14 1.12 1.14 1.12-.5200006 1.12-1.14c0-.5999994-.520001-1.12-1.1-1.12m0-7.2599997c-.619999 0-1.14.5-1.14 1.12 0 .619999.500001 1.14 1.12 1.14s1.12-.520001 1.12-1.14c0-.6-.500001-1.12-1.1-1.12" fill="url(#radialGradient7272)"/>
    <path d="m-71.445312-5.7955466c-.690117.3580734-1.409518.6282554-2.158204.8105469-.748708.1822915-1.529957.2734372-2.34375.2734375-2.428392-.0000003-4.352218-.6770829-5.771484-2.03125-1.419273-1.360674-2.128907-3.20312-2.128906-5.5273438-.000001-2.330719.709633-4.173166 2.128906-5.527344 1.419266-1.360663 3.343092-2.041 5.771484-2.041015.813793.000015 1.595042.09116 2.34375.273437.748686.182306 1.468087.452488 2.158204.810547v3.017578c-.696628-.475249-1.383476-.823556-2.060547-1.044922-.677094-.221342-1.389984-.332019-2.138672-.332031-1.341154.000012-2.39584.429699-3.164063 1.289063-.768234.859385-1.152348 2.044279-1.152343 3.554687-.000005 1.503912.384109 2.6855515 1.152343 3.5449219.768223.8593779 1.822909 1.289065 3.164063 1.2890625.748688.0000025 1.461578-.1106745 2.138672-.3320312.677071-.2213512 1.363919-.5696581 2.060547-1.0449219z" fill="url(#radialGradient7272)"/>
    <path d="m-60.097656-16.879531-3.222656 1.689453 3.222656 1.699219-.742188 1.376953-3.251953-1.796875v3.359375h-1.660156v-3.359375l-3.261719 1.796875-.742187-1.376953 3.261718-1.699219-3.261718-1.689453.742187-1.376953 3.261719 1.777344v-3.359375h1.660156v3.359375l3.251953-1.777344z" fill="url(#radialGradient7272)"/>
    <path d="m-50.566406-14.330703v-5.859375h3.515625v15.1953127h-3.515625v-1.5820313c-.48178.6445322-1.012378 1.116537-1.591797 1.4160157-.579434.299479-1.250006.4492184-2.011719.4492187-1.34766-.0000003-2.45443-.5338539-3.320312-1.6015625-.865887-1.0742163-1.298829-2.4544233-1.298828-4.1406253-.000001-1.68619.432941-3.063142 1.298828-4.130859.865882-1.074208 1.972652-1.611317 3.320312-1.611328.755202.000011 1.422519.153006 2.001953.458984.58593.29949 1.119783.768239 1.601563 1.40625m-2.304688 7.0800783c.748691.0000023 1.318351-.273435 1.708985-.8203125.397126-.5468714.595694-1.3411414.595703-2.3828128-.000009-1.04166-.198577-1.83593-.595703-2.382812-.390634-.546867-.960294-.820304-1.708985-.820313-.742193.000009-1.311854.273446-1.708984.820313-.39063.546882-.585942 1.341152-.585938 2.382812-.000004 1.0416714.195308 1.8359414.585938 2.3828128.39713.5468775.966791.8203148 1.708984.8203125" fill="url(#radialGradient7272)"/>
    <path d="m-43.671875-15.932265h3.496094v10.9374997h-3.496094zm0-4.257813h3.496094v2.851563h-3.496094z" fill="url(#radialGradient7272)"/>
    <path d="m-29.599609-20.190078v2.294922h-1.933594c-.494798.000013-.83985.0879-1.035156.263672-.195319.182304-.292975.494804-.292969.9375v.761719h4.003906v-.761719c-.000009-1.191393.332021-2.070299.996094-2.636719.664051-.572902 1.692696-.85936 3.085937-.859375h2.675782v2.294922h-1.933594c-.494806.000013-.839857.0879-1.035156.263672-.195326.182304-.292982.494804-.292969.9375v.761719h2.988281v2.5h-2.988281v8.4374997h-3.496094v-8.4374997h-4.003906v8.4374997h-3.496094v-8.4374997h-1.738281v-2.5h1.738281v-.761719c-.000002-1.191393.332029-2.070299.996094-2.636719.664059-.572902 1.692703-.85936 3.085937-.859375z" fill="url(#radialGradient7272)"/>
    <path d="m-16.265625-1.8947653c-.679999-.4599996-1-.7600005-1.4-1.28-1.079999-1.4399986-1.7-3.940003-1.7-6.8999997 0-2.699998.520001-5.100002 1.44-6.54.44-.68.820001-1.060001 1.66-1.64l-.26-.34c-.919999.479999-1.320001.76-1.84 1.24-1.799998 1.659998-2.84 4.360003-2.84 7.28 0 2.7399969.900002 5.2600014 2.52 6.9399997.599999.6599993 1.080001 1.0000006 2.16 1.58l.26-.34" fill="url(#radialGradient7272)"/>
    <path d="m-13.75-19.574843h3.7597656v8.740234c-.0000056 1.2044317.1953067 2.067061.5859375 2.5878906.3971289.5143256 1.0416595.7714868 1.9335938.7714843.8984285.0000025 1.5429591-.2571587 1.9335937-.7714843.397125-.5208296.5956925-1.3834589.5957032-2.5878906v-8.740234h3.7597656v8.740234c-.0000144 2.0638058-.517592 3.6002626-1.5527344 4.6093749-1.0351681 1.0091148-2.6139425 1.5136716-4.7363281 1.5136719-2.1158914-.0000003-3.6914109-.5045571-4.7265629-1.5136719-1.035158-1.0091123-1.552736-2.5455691-1.552734-4.6093749z" fill="url(#radialGradient7272)"/>
    <path d="m6.6640625-1.8947653c-.6799993-.4599996-1.0000004-.7600005-1.4-1.28-1.0799989-1.4399986-1.7-3.940003-1.7-6.8999997 0-2.699998.5200009-5.100002 1.44-6.54.4399996-.68.8200008-1.060001 1.66-1.64l-.26-.34c-.9199991.479999-1.3200005.76-1.84 1.24-1.7999982 1.659998-2.84 4.360003-2.84 7.28 0 2.7399969.9000016 5.2600014 2.52 6.9399997.5999994.6599993 1.0800011 1.0000006 2.16 1.58l.26-.34" fill="url(#radialGradient7272)"/>
    <path d="m12.841797-19.037734v3.105469h3.603515v2.5h-3.603515v4.6386716c-.000006.5078158.100906.8528675.302734 1.0351562.201817.1757838.602207.2636744 1.201172.2636719h1.796875v2.5h-2.998047c-1.380213 0-2.360029-.2864581-2.939453-.859375-.5729188-.5794257-.8593769-1.5592424-.8593749-2.9394531v-4.6386716h-1.7382812v-2.5h1.7382812v-3.105469z" fill="url(#radialGradient7272)"/>
    <path d="m17.774062-1.5547653c.92-.4999995 1.320001-.7600005 1.84-1.24 1.779999-1.6599984 2.84-4.3600029 2.84-7.2799997 0-2.739998-.920001-5.260002-2.52-6.96-.599999-.64-1.080001-1.000001-2.16-1.56l-.259999.34c.699999.479999 1 .76 1.399999 1.28 1.079999 1.439998 1.7 3.940003 1.7 6.9 0 2.699997-.52 5.0800011-1.439999 6.5199997-.46.6999993-.840001 1.1000005-1.66 1.66l.259999.34" fill="url(#radialGradient7272)"/>
    <path d="m24.71375-2.5947653c.739999-.08 1.100001-.2200004 1.64-.62.779999-.5799994 1.12-1.2200009 1.12-2.08 0-.979999-.680001-1.74-1.54-1.74-.599999 0-1.08.5000006-1.08 1.14 0 .6399993.480001 1.16 1.06 1.16.18 0 .3-.02.6-.1.04.8399991-.820001 1.7400002-1.8 1.92z" fill="url(#radialGradient7272)"/>
    <path d="m34.091797-19.037734v3.105469h3.603515v2.5h-3.603515v4.6386716c-.000006.5078158.100906.8528675.302734 1.0351562.201817.1757838.602207.2636744 1.201172.2636719h1.796875v2.5h-2.998047c-1.380213 0-2.360029-.2864581-2.939453-.859375-.572919-.5794257-.859377-1.5592424-.859375-2.9394531v-4.6386716h-1.738281v-2.5h1.738281v-3.105469z" fill="url(#radialGradient7272)"/>
    <path d="m39.024062-1.5547653c.92-.4999995 1.320001-.7600005 1.840001-1.24 1.779998-1.6599984 2.839999-4.3600029 2.839999-7.2799997 0-2.739998-.920001-5.260002-2.519999-6.96-.6-.64-1.080002-1.000001-2.160001-1.56l-.259999.34c.699999.479999 1 .76 1.399999 1.28 1.079999 1.439998 1.700001 3.940003 1.700001 6.9 0 2.699997-.520001 5.0800011-1.440001 6.5199997-.459999.6999993-.84 1.1000005-1.659999 1.66l.259999.34" fill="url(#radialGradient7272)"/>
    <path d="m55.58375-12.814765h-10.52v1.1h10.52zm-0 3.8799997h-10.52v1.1h10.52z" fill="url(#radialGradient7272)"/>
    <path d="m-69.228516 13.384126h6.132813v2.841797h-6.132813z" fill="url(#radialGradient7272)"/>
    <path d="m-60.15625 5.9817819h3.759766v8.7402341c-.000006 1.204432.195306 2.067061.585937 2.587891.397129.514326 1.04166.771487 1.933594.771484.898428.000003 1.542959-.257158 1.933594-.771484.397125-.52083.595692-1.383459.595703-2.587891v-8.7402341h3.759765v8.7402341c-.000014 2.063806-.517592 3.600263-1.552734 4.609375-1.035168 1.009115-2.613943 1.513672-4.736328 1.513672-2.115892 0-3.691411-.504557-4.726563-1.513672-1.035158-1.009112-1.552736-2.545569-1.552734-4.609375z" fill="url(#radialGradient7272)"/>
    <path d="m-39.742187 23.66186c-.68-.459999-1.000001-.76-1.4-1.28-1.079999-1.439999-1.700001-3.940003-1.700001-6.9 0-2.699997.520001-5.100001 1.440001-6.5399999.439999-.6799994.82-1.0600006 1.66-1.64l-.26-.34c-.92.4799995-1.320001.7600004-1.840001 1.24-1.799998 1.6599983-2.839999 4.3600029-2.839999 7.2799999 0 2.739997.900001 5.260002 2.519999 6.94.6.659999 1.080002 1.000001 2.160001 1.58z" fill="url(#radialGradient7272)"/>
    <path d="m-33.564453 6.5188913v3.1054688h3.603516v2.4999999h-3.603516v4.638672c-.000006.507816.100906.852867.302734 1.035156.201817.175784.602207.263675 1.201172.263672h1.796875v2.5h-2.998047c-1.380213 0-2.360029-.286458-2.939453-.859375-.572919-.579426-.859377-1.559242-.859375-2.939453v-4.638672h-1.738281v-2.4999999h1.738281v-3.1054688z" fill="url(#radialGradient7272)"/>
    <path d="m-28.632187 24.00186c.919999-.499999 1.32-.76 1.84-1.24 1.779998-1.659998 2.84-4.360003 2.84-7.28 0-2.739997-.920002-5.260002-2.52-6.9599999-.6-.6399994-1.080002-1.0000006-2.16-1.56l-.26.34c.699999.4799995 1 .7600005 1.4 1.28 1.079998 1.4399989 1.7 3.9400029 1.7 6.8999999 0 2.699997-.520001 5.080001-1.44 6.52-.46.699999-.840001 1.100001-1.66 1.66z" fill="url(#radialGradient7272)"/>
    <path d="m-17.7325 7.1018601h-1.12l-3.96 13.4599999h1.12z" fill="url(#radialGradient7272)"/>
    <path d="m-10.087891 12.446626c.7877528.000008 1.3509033-.146476 1.6894535-.439453.3450429-.29296.5175687-.774731.5175781-1.445313-.0000094-.6640518-.1725352-1.1393117-.5175781-1.4257812-.3385502-.2864466-.9017007-.4296756-1.6894535-.4296875h-1.582031v3.7402347zm-1.582031 2.597656v5.517578h-3.759766v-14.5800781h5.742188c1.9205634.0000146 3.326812.3222799 4.21875.9667969.8984248.6445442 1.3476431 1.6634234 1.3476563 3.0566402-.0000132.963552-.234388 1.754567-.703125 2.373047-.4622516.618497-1.1621207 1.074226-2.0996094 1.367188.514312.117194.973296.384121 1.3769531.800781.4101441.410162.8235552 1.035161 1.2402344 1.875l2.0410156 4.140625h-4.0039062l-1.7773438-3.623047c-.3580818-.729162-.7226647-1.227209-1.09375-1.49414-.3645911-.266922-.8528719-.400386-1.464844-.400391z" fill="url(#radialGradient7272)"/>
    <path d="m1.245 11.30186c-.63999936 0-1.14.500001-1.14 1.12 0 .639999.50000062 1.14 1.12 1.14.6199994 0 1.12-.500001 1.12-1.14 0-.619999-.5000006-1.12-1.1-1.12m-1.46 11.66c.73999926-.08 1.10000054-.22 1.64-.62.7799992-.579999 1.12-1.220001 1.12-2.08 0-.979999-.6800009-1.74-1.54-1.74-.5999994 0-1.08.500001-1.08 1.14s.48000058 1.16 1.06 1.16c.1799998 0 .3000003-.02.6-.1.04.839999-.82000098 1.74-1.8 1.92v.32" fill="url(#radialGradient7272)"/>
    <path d="m-119.35547 41.19661c-.72917.000005-1.2793.123703-1.65039.371094-.36459.2474-.54688.611983-.54687 1.09375-.00001.442712.14648.791018.43945 1.044922.29947.247398.71288.371096 1.24023.371094.65755.000002 1.21093-.234373 1.66016-.703125.44921-.475257.67382-1.067705.67383-1.777344v-.400391zm5.3418-1.318359v6.240234h-3.52539v-1.621093c-.46876.664063-.9961 1.149089-1.58203 1.455078-.58595.299479-1.29884.449218-2.13868.449219-1.13281-.000001-2.05403-.328776-2.76367-.986329-.70312-.664061-1.05469-1.523435-1.05469-2.578125 0-1.282547.43946-2.223301 1.31836-2.822265.88542-.598952 2.27214-.898431 4.16016-.898438h2.06055v-.273437c-.00001-.553378-.21811-.957023-.6543-1.210938-.4362-.260408-1.11654-.390616-2.04102-.390625-.7487.000009-1.44531.07488-2.08984.22461-.64453.149748-1.24349.374357-1.79687.673828v-2.666016c.74869-.182281 1.50064-.318999 2.25586-.410156.7552-.09764 1.51041-.146473 2.26562-.146484 1.97265.000011 3.39517.390635 4.26758 1.171875.87889.774748 1.31835 2.037768 1.31836 3.789062" fill="url(#radialGradient7272)"/>
    <path d="m-106.92383 32.075517v3.105468h3.60352v2.5h-3.60352v4.638672c0 .507816.10091.852868.30274 1.035157.20181.175783.6022.263674 1.20117.263671h1.79687v2.5h-2.99804c-1.38022 0-2.36003-.286458-2.93946-.859375-.57292-.579425-.85937-1.559242-.85937-2.939453v-4.638672h-1.73828v-2.5h1.73828v-3.105468z" fill="url(#radialGradient7272)"/>
    <path d="m-102.54883 35.180985h3.496096l2.724609 7.558594 2.714844-7.558594h3.505859l-4.30664 10.9375h-3.837891z" fill="url(#radialGradient7272)"/>
    <path d="m-83.222656 41.19661c-.729173.000005-1.279302.123703-1.650391.371094-.364588.2474-.546879.611983-.546875 1.09375-.000004.442712.14648.791018.439453 1.044922.299474.247398.712885.371096 1.240235.371094.657545.000002 1.21093-.234373 1.660156-.703125.44921-.475257.67382-1.067705.673828-1.777344v-.400391zm5.341797-1.318359v6.240234h-3.525391v-1.621093c-.468758.664063-.996101 1.149089-1.582031 1.455078-.585944.299479-1.298834.449218-2.138672.449219-1.132816-.000001-2.054039-.328776-2.763672-.986329-.703126-.664061-1.054688-1.523435-1.054687-2.578125-.000001-1.282547.439451-2.223301 1.318359-2.822265.885413-.598952 2.272131-.898431 4.160156-.898438h2.060547v-.273437c-.000008-.553378-.218107-.957023-.654297-1.210938-.436205-.260408-1.116543-.390616-2.041015-.390625-.748703.000009-1.445317.07488-2.089844.22461-.644534.149748-1.243492.374357-1.796875.673828v-2.666016c.748695-.182281 1.500647-.318999 2.255859-.410156.755204-.09764 1.510411-.146473 2.265625-.146484 1.972648.000011 3.395173.390635 4.267578 1.171875.878895.774748 1.318348 2.037768 1.31836 3.789062" fill="url(#radialGradient7272)"/>
    <path d="m-74.609375 30.923173h3.496094v15.195312h-3.496094z" fill="url(#radialGradient7272)"/>
    <path d="m-67.851562 41.860673v-6.679688h3.515625v1.09375c-.000006.592458-.0033 1.3379-.0098 2.236329-.0065.891933-.0098 1.487636-.0098 1.787109-.000005.878911.02278 1.513676.06836 1.904297.04557.384118.123692.664066.234375.839844.143223.227867.32877.403648.55664.527343.234369.123701.501296.18555.800782.185547.729159.000003 1.302075-.279945 1.71875-.839844.416657-.559892.62499-1.337886.625-2.333984v-5.400391h3.496093v10.9375h-3.496093v-1.582031c-.527353.638022-1.087248 1.110027-1.679688 1.416016-.585944.299479-1.23373.449218-1.943359.449219-1.263025-.000001-2.226566-.38737-2.890625-1.16211-.657554-.774738-.98633-1.901039-.986328-3.378906" fill="url(#radialGradient7272)"/>
    <path d="m-42.558594 40.620439v.996093h-8.173828c.08463.820316.380855 1.43555.888672 1.845703.507807.410159 1.217441.615237 2.128906.615235.735669.000002 1.487622-.10742 2.25586-.322266.774729-.221351 1.568999-.553382 2.382812-.996094v2.695313c-.826834.3125-1.653656.546875-2.480469.703125-.826831.16276-1.653653.24414-2.480468.244141-1.979172-.000001-3.518884-.501302-4.619141-1.503907-1.093751-1.009112-1.640626-2.421871-1.640625-4.238281-.000001-1.783847.537108-3.18684 1.611328-4.208984 1.080726-1.022125 2.565099-1.533192 4.453125-1.533203 1.718741.000011 3.092438.517588 4.121094 1.552734 1.035144 1.035165 1.552722 2.418627 1.552734 4.150391m-3.59375-1.16211c-.000009-.664055-.195321-1.197909-.585937-1.601562-.384123-.410148-.88868-.615226-1.513672-.615235-.67709.000009-1.227219.192066-1.650391.576172-.423182.377612-.686853.924487-.791015 1.640625z" fill="url(#radialGradient7272)"/>
    <path d="m-35.601562 49.218485c-.68-.459999-1.000001-.76-1.4-1.28-1.079999-1.439998-1.700001-3.940003-1.700001-6.9 0-2.699997.520001-5.100001 1.440001-6.54.439999-.679999.82-1.06 1.66-1.64l-.26-.34c-.92.48-1.320001.760001-1.840001 1.24-1.799998 1.659999-2.839999 4.360003-2.839999 7.28 0 2.739998.900001 5.260002 2.519999 6.94.6.66 1.080002 1.000001 2.160001 1.58z" fill="url(#radialGradient7272)"/>
    <path d="m-33.085937 31.538407h3.759765v8.740235c-.000005 1.204431.195307 2.067061.585938 2.58789.397128.514326 1.041659.771487 1.933593.771485.898429.000002 1.542959-.257159 1.933594-.771485.397125-.520829.595693-1.383459.595703-2.58789v-8.740235h3.759766v8.740235c-.000015 2.063806-.517592 3.600262-1.552734 4.609375-1.035169 1.009114-2.613943 1.513671-4.736329 1.513672-2.115891-.000001-3.69141-.504558-4.726562-1.513672-1.035159-1.009113-1.552736-2.545569-1.552734-4.609375z" fill="url(#radialGradient7272)"/>
    <path d="m-12.671875 49.218485c-.679999-.459999-1-.76-1.4-1.28-1.079999-1.439998-1.7-3.940003-1.7-6.9 0-2.699997.520001-5.100001 1.44-6.54.44-.679999.820001-1.06 1.66-1.64l-.26-.34c-.919999.48-1.320001.760001-1.84 1.24-1.799998 1.659999-2.84 4.360003-2.84 7.28 0 2.739998.900002 5.260002 2.52 6.94.599999.66 1.080001 1.000001 2.16 1.58z" fill="url(#radialGradient7272)"/>
    <path d="m-6.4941406 32.075517v3.105468h3.6035156v2.5h-3.6035156v4.638672c-.0000055.507816.1009058.852868.3027344 1.035157.2018169.175783.6022071.263674 1.2011718.263671h1.796875v2.5h-2.9980468c-1.3802128 0-2.3600295-.286458-2.9394532-.859375-.5729189-.579425-.859377-1.559242-.859375-2.939453v-4.638672h-1.7382816v-2.5h1.7382816v-3.105468z" fill="url(#radialGradient7272)"/>
    <path d="m-1.561875 49.558485c.91999908-.499999 1.32000052-.76 1.84-1.24 1.7799982-1.659998 2.84-4.360003 2.84-7.28 0-2.739997-.9200016-5.260001-2.52-6.96-.5999994-.639999-1.08000108-1-2.16-1.56l-.26.34c.6999993.48 1.0000004.760001 1.4 1.28 1.07999892 1.439999 1.7 3.940003 1.7 6.9 0 2.699998-.52000092 5.080002-1.44 6.52-.45999954.7-.8400008 1.100001-1.66 1.66z" fill="url(#radialGradient7272)"/>
    <path d="m5.3778125 48.518485c.7399993-.08 1.1000005-.22 1.64-.62.7799992-.579999 1.12-1.22 1.12-2.08 0-.979999-.6800009-1.74-1.54-1.74-.5999994 0-1.08.500001-1.08 1.14 0 .64.4800006 1.16 1.06 1.16.1799998 0 .3000003-.02.6-.1.04.84-.820001 1.740001-1.8 1.92z" fill="url(#radialGradient7272)"/>
    <path d="m14.755859 32.075517v3.105468h3.603516v2.5h-3.603516v4.638672c-.000005.507816.100906.852868.302735 1.035157.201817.175783.602207.263674 1.201172.263671h1.796875v2.5h-2.998047c-1.380213 0-2.36003-.286458-2.939453-.859375-.572919-.579425-.859377-1.559242-.859375-2.939453v-4.638672h-1.7382816v-2.5h1.7382816v-3.105468z" fill="url(#radialGradient7272)"/>
    <path d="m29.568125 38.298485h-10.52v1.1h10.52zm0 3.88h-10.52v1.1h10.52z" fill="url(#radialGradient7272)"/>
    <path d="m34.844687 32.398485c-1.739998 0-3 .900002-3.8 2.74-.539999 1.219999-.78 2.580002-.78 4.26 0 4.239996 1.760003 6.98 4.48 6.98 2.719998 0 4.480001-2.740004 4.480001-6.98 0-4.179995-1.760003-7-4.380001-7m-.04.72c1.719999 0 2.5 1.940005 2.5 6.22 0 4.319996-.780001 6.22-2.54 6.22-1.799998 0-2.579999-1.880004-2.579999-6.24 0-4.359995.780001-6.2 2.619999-6.2" fill="url(#radialGradient7272)"/>
    <path d="m40.924687 48.518485c.74-.08 1.100001-.22 1.64-.62.78-.579999 1.120001-1.22 1.120001-2.08 0-.979999-.680001-1.74-1.54-1.74-.6 0-1.080001.500001-1.080001 1.14 0 .64.480001 1.16 1.06 1.16.18 0 .300001-.02.600001-.1.04.84-.820001 1.740001-1.800001 1.92z" fill="url(#radialGradient7272)"/>
    <path d="m46.640625 31.538407h3.759766v8.740235c-.000006 1.204431.195306 2.067061.585937 2.58789.397129.514326 1.04166.771487 1.933594.771485.898428.000002 1.542959-.257159 1.933594-.771485.397125-.520829.595692-1.383459.595703-2.58789v-8.740235h3.759765v8.740235c-.000014 2.063806-.517592 3.600262-1.552734 4.609375-1.035168 1.009114-2.613943 1.513671-4.736328 1.513672-2.115892-.000001-3.691411-.504558-4.726563-1.513672-1.035158-1.009113-1.552736-2.545569-1.552734-4.609375z" fill="url(#radialGradient7272)"/>
    <path d="m66.094688 32.398485c-1.739999 0-3.000001.900002-3.8 2.74-.54 1.219999-.780001 2.580002-.780001 4.26 0 4.239996 1.760003 6.98 4.48 6.98 2.719998 0 4.480001-2.740004 4.480001-6.98 0-4.179995-1.760003-7-4.38-7m-.04.72c1.719999 0 2.5 1.940005 2.5 6.22 0 4.319996-.780001 6.22-2.54 6.22-1.799998 0-2.579999-1.880004-2.579999-6.24 0-4.359995.780001-6.2 2.619999-6.2" fill="url(#radialGradient7272)"/>
    <path d="m71.914687 49.558485c.92-.499999 1.320001-.76 1.840001-1.24 1.779998-1.659998 2.84-4.360003 2.84-7.28 0-2.739997-.920002-5.260001-2.520001-6.96-.599999-.639999-1.080001-1-2.16-1.56l-.26.34c.7.48 1.000001.760001 1.4 1.28 1.079999 1.439999 1.700001 3.940003 1.700001 6.9 0 2.699998-.520001 5.080002-1.44 6.52-.46.7-.840001 1.100001-1.660001 1.66z" fill="url(#radialGradient7272)"/>
    <path d="m80.854375 36.858485c-.639999 0-1.14.500001-1.14 1.12 0 .64.500001 1.14 1.12 1.14s1.12-.5 1.12-1.14c0-.619999-.500001-1.12-1.1-1.12m-1.46 11.66c.739999-.08 1.100001-.22 1.64-.62.779999-.579999 1.12-1.22 1.12-2.08 0-.979999-.680001-1.74-1.54-1.74-.599999 0-1.08.500001-1.08 1.14 0 .64.480001 1.16 1.06 1.16.18 0 .3-.02.6-.1.04.84-.820001 1.740001-1.8 1.92z" fill="url(#radialGradient7272)"/>
    <path d="m-116.81641 62.339173v-5.859375h3.51563v15.195313h-3.51563v-1.582031c-.48178.644532-1.01237 1.116536-1.59179 1.416015-.57944.299479-1.25001.449219-2.01172.449219-1.34766 0-2.45443-.533854-3.32031-1.601563-.86589-1.074216-1.29883-2.454423-1.29883-4.140625 0-1.68619.43294-3.063142 1.29883-4.130859.86588-1.074208 1.97265-1.611317 3.32031-1.611328.7552.000011 1.42252.153006 2.00195.458984.58593.29949 1.11978.768239 1.60156 1.40625m-2.30468 7.080078c.74869.000003 1.31835-.273435 1.70898-.820312.39713-.546871.59569-1.341142.5957-2.382813-.00001-1.04166-.19857-1.83593-.5957-2.382812-.39063-.546867-.96029-.820304-1.70898-.820313-.7422.000009-1.31186.273446-1.70899.820313-.39063.546882-.58594 1.341152-.58594 2.382812 0 1.041671.19531 1.835942.58594 2.382813.39713.546877.96679.820315 1.70899.820312" fill="url(#radialGradient7272)"/>
    <path d="m-99.003906 66.177064v.996094h-8.173824c.0846.820316.38085 1.43555.88867 1.845703.5078.410158 1.21744.615236 2.1289.615234.73567.000002 1.48763-.10742 2.25586-.322265.77473-.221352 1.569-.553383 2.382816-.996094v2.695312c-.826836.312501-1.653656.546875-2.480466.703125-.82683.16276-1.65366.244141-2.48047.244141-1.97917 0-3.51889-.501302-4.61914-1.503906-1.09375-1.009113-1.64063-2.421872-1.64063-4.238282 0-1.783847.53711-3.18684 1.61133-4.208984 1.08073-1.022125 2.5651-1.533192 4.45313-1.533203 1.71874.000011 3.09243.517589 4.12109 1.552734 1.035144 1.035165 1.552721 2.418627 1.552734 4.150391m-3.593754-1.162109c-.00001-.664056-.19532-1.197909-.58593-1.601563-.38413-.410148-.88868-.615225-1.51368-.615234-.67709.000009-1.22721.192066-1.65039.576172-.42318.377612-.68685.924486-.79101 1.640625z" fill="url(#radialGradient7272)"/>
    <path d="m-87.822266 61.079408v2.65625c-.748707-.312492-1.471363-.546867-2.167968-.703125-.696622-.156242-1.354174-.234366-1.972657-.234375-.664068.000009-1.158859.08464-1.484375.253906-.319014.162769-.478519.416675-.478515.761719-.000004.279955.120438.494799.361328.644531.247391.149747.686844.260424 1.318359.332031l.615235.08789c1.790356.227871 2.994782.60222 3.613281 1.123047.618479.520838.927723 1.337895.927734 2.451172-.000011 1.165366-.429698 2.041016-1.289062 2.626953-.859384.585937-2.141935.878906-3.847656.878906-.722662 0-1.471359-.05859-2.246094-.175781-.768232-.110677-1.559247-.279948-2.373047-.507813v-2.65625c.696613.338545 1.409502.592451 2.138672.761719.735673.169273 1.481115.253908 2.236328.253906.683587.000002 1.19791-.0944 1.542969-.283203.345044-.1888.51757-.468747.517578-.839844-.000008-.312496-.12045-.543616-.361328-.693359-.234382-.156246-.706387-.276689-1.416016-.361328l-.615234-.07813c-1.555994-.195308-2.646487-.556636-3.271485-1.083985-.625001-.527337-.937501-1.328118-.9375-2.402343-.000001-1.158846.397134-2.01822 1.191407-2.578125.794267-.559885 2.011714-.839833 3.652343-.839844.644525.000011 1.321608.04884 2.03125.146484.709627.09767 1.481111.250662 2.314453.458985" fill="url(#radialGradient7272)"/>
    <path d="m-79.248047 62.973939c-.774746.000009-1.367193.279956-1.777344.839844-.40365.553392-.605473 1.354173-.605468 2.402343-.000005 1.048182.201818 1.852218.605468 2.41211.410151.553388 1.002598.83008 1.777344.830078.761711.000002 1.344393-.27669 1.748047-.830078.403637-.559892.60546-1.363928.605469-2.41211-.000009-1.04817-.201832-1.848951-.605469-2.402343-.403654-.559888-.986336-.839835-1.748047-.839844m0-2.5c1.881502.000011 3.349599.507823 4.404297 1.523437 1.061186 1.015634 1.591784 2.421883 1.591797 4.21875-.000013 1.796879-.530611 3.203128-1.591797 4.21875-1.054698 1.015626-2.522795 1.523438-4.404297 1.523438-1.888026 0-3.365889-.507812-4.433594-1.523438-1.061199-1.015622-1.591797-2.421871-1.591796-4.21875-.000001-1.796867.530597-3.203116 1.591796-4.21875 1.067705-1.015614 2.545568-1.523426 4.433594-1.523437" fill="url(#radialGradient7272)"/>
    <path d="m-70.703125 56.479798h3.496094v15.195313h-3.496094z" fill="url(#radialGradient7272)"/>
    <path d="m-65.205078 60.737611h3.496094l2.724609 7.558594 2.714844-7.558594h3.505859l-4.30664 10.9375h-3.837891z" fill="url(#radialGradient7272)"/>
    <path d="m-39.863281 66.177064v.996094h-8.173828c.08463.820316.380854 1.43555.888672 1.845703.507806.410158 1.217441.615236 2.128906.615234.735669.000002 1.487621-.10742 2.255859-.322265.774729-.221352 1.568999-.553383 2.382813-.996094v2.695312c-.826835.312501-1.653657.546875-2.480469.703125-.826832.16276-1.653654.244141-2.480469.244141-1.979172 0-3.518884-.501302-4.61914-1.503906-1.093752-1.009113-1.640626-2.421872-1.640625-4.238282-.000001-1.783847.537107-3.18684 1.611328-4.208984 1.080725-1.022125 2.565099-1.533192 4.453125-1.533203 1.718741.000011 3.092438.517589 4.121093 1.552734 1.035145 1.035165 1.552722 2.418627 1.552735 4.150391m-3.59375-1.162109c-.000009-.664056-.195322-1.197909-.585938-1.601563-.384122-.410148-.888679-.615225-1.513672-.615234-.677089.000009-1.227219.192066-1.65039.576172-.423182.377612-.686854.924486-.791016 1.640625z" fill="url(#radialGradient7272)"/>
    <path d="m-32.90625 74.775111c-.679999-.46-1-.760001-1.4-1.28-1.079999-1.439999-1.7-3.940003-1.7-6.9 0-2.699998.520001-5.100002 1.44-6.54.44-.68.820001-1.060001 1.66-1.64l-.26-.34c-.919999.479999-1.320001.76-1.84 1.24-1.799998 1.659998-2.84 4.360003-2.84 7.28 0 2.739997.900002 5.260001 2.52 6.94.599999.659999 1.080001 1 2.16 1.58z" fill="url(#radialGradient7272)"/>
    <path d="m-23.105469 62.339173v-5.859375h3.515625v15.195313h-3.515625v-1.582031c-.481779.644532-1.012378 1.116536-1.591797 1.416015-.579434.299479-1.250006.449219-2.011718.449219-1.347661 0-2.454431-.533854-3.320313-1.601563-.865887-1.074216-1.298829-2.454423-1.298828-4.140625-.000001-1.68619.432941-3.063142 1.298828-4.130859.865882-1.074208 1.972652-1.611317 3.320313-1.611328.755202.000011 1.422519.153006 2.001953.458984.585929.29949 1.119783.768239 1.601562 1.40625m-2.304687 7.080078c.74869.000003 1.318351-.273435 1.708984-.820312.397127-.546871.595694-1.341142.595703-2.382813-.000009-1.04166-.198576-1.83593-.595703-2.382812-.390633-.546867-.960294-.820304-1.708984-.820313-.742194.000009-1.311855.273446-1.708985.820313-.390629.546882-.585942 1.341152-.585937 2.382812-.000005 1.041671.195308 1.835942.585937 2.382813.39713.546877.966791.820315 1.708985.820312" fill="url(#radialGradient7272)"/>
    <path d="m-8.7695313 69.819642c-.4817794.638022-1.0123779 1.106772-1.5917967 1.40625-.579434.299479-1.250006.449219-2.011719.449219-1.334639 0-2.438154-.524088-3.310547-1.572266-.872397-1.054685-1.308594-2.395829-1.308593-4.023437-.000001-1.634108.436196-2.971997 1.308593-4.013672.872393-1.048167 1.975908-1.572255 3.310547-1.572266.761713.000011 1.432285.149751 2.011719.449219.5794188.29949 1.1100173.771494 1.5917967 1.416016v-1.621094h3.5156251v9.833984c-.0000127 1.757812-.5566528 3.098956-1.6699219 4.023438-1.1067807.930985-2.714852 1.39648-4.8242189 1.396484-.683599-.000004-1.344406-.05209-1.982422-.15625-.638024-.104171-1.2793-.263676-1.923828-.478516v-2.724609c.611976.351561 1.210934.611978 1.796875.78125.585933.175779 1.175125.26367 1.767578.263672 1.145827-.000002 1.98567-.250653 2.5195315-.751953.5338453-.501303.8007721-1.285807.8007812-2.353516zm-2.3046877-6.806641c-.722662.000009-1.285813.266936-1.689453.800782-.40365.533861-.605473 1.289069-.605469 2.265625-.000004 1.002608.195308 1.764326.585938 2.285156.390619.514326.96028.771487 1.708984.771484.729159.000003 1.2955651-.266924 1.699219-.800781.4036369-.53385.6054596-1.285803.6054687-2.255859-.0000091-.976556-.2018318-1.731764-.6054687-2.265625-.4036539-.533846-.97006-.800773-1.699219-.800782" fill="url(#radialGradient7272)"/>
    <path d="m-1.875 56.479798h3.4960937v15.195313h-3.4960937z" fill="url(#radialGradient7272)"/>
    <path d="m4.4403125 74.075111c.7399993-.08 1.1000005-.220001 1.64-.62.7799992-.58 1.12-1.220001 1.12-2.08 0-.979999-.6800009-1.74-1.54-1.74-.5999994 0-1.08.5-1.08 1.14 0 .639999.4800006 1.16 1.06 1.16.1799998 0 .3000003-.02.6-.1.04.839999-.820001 1.74-1.8 1.92z" fill="url(#radialGradient7272)"/>
    <path d="m10.15625 57.095033h3.759766v8.740234c-.000006 1.204432.195306 2.067061.585937 2.587891.397129.514325 1.04166.771487 1.933594.771484.898428.000003 1.542959-.257159 1.933594-.771484.397125-.52083.595692-1.383459.595703-2.587891v-8.740234h3.759765v8.740234c-.000014 2.063806-.517592 3.600263-1.552734 4.609375-1.035168 1.009115-2.613943 1.513672-4.736328 1.513672-2.115892 0-3.691411-.504557-4.726563-1.513672-1.035158-1.009112-1.552736-2.545569-1.552734-4.609375z" fill="url(#radialGradient7272)"/>
    <path d="m30.570312 74.775111c-.679999-.46-1-.760001-1.399999-1.28-1.079999-1.439999-1.700001-3.940003-1.700001-6.9 0-2.699998.520001-5.100002 1.44-6.54.44-.68.820001-1.060001 1.66-1.64l-.259999-.34c-.92.479999-1.320001.76-1.840001 1.24-1.799998 1.659998-2.84 4.360003-2.84 7.28 0 2.739997.900002 5.260001 2.52 6.94.6.659999 1.080002 1 2.160001 1.58z" fill="url(#radialGradient7272)"/>
    <path d="m36.748047 57.632142v3.105469h3.603515v2.5h-3.603515v4.638672c-.000006.507815.100906.852867.302734 1.035156.201817.175784.602207.263674 1.201172.263672h1.796875v2.5h-2.998047c-1.380213 0-2.360029-.286458-2.939453-.859375-.572919-.579426-.859377-1.559243-.859375-2.939453v-4.638672h-1.738281v-2.5h1.738281v-3.105469z" fill="url(#radialGradient7272)"/>
    <path d="m41.680312 75.115111c.92-.5 1.320001-.760001 1.840001-1.24 1.779998-1.659999 2.839999-4.360003 2.839999-7.28 0-2.739997-.920001-5.260002-2.519999-6.96-.6-.64-1.080002-1.000001-2.160001-1.56l-.259999.34c.699999.479999 1 .76 1.399999 1.28 1.079999 1.439998 1.700001 3.940003 1.700001 6.9 0 2.699997-.520001 5.080001-1.440001 6.52-.459999.699999-.84 1.1-1.659999 1.66z" fill="url(#radialGradient7272)"/>
    <path d="m48.36 75.115111c.919999-.5 1.320001-.760001 1.84-1.24 1.779998-1.659999 2.84-4.360003 2.84-7.28 0-2.739997-.920002-5.260002-2.52-6.96-.599999-.64-1.080001-1.000001-2.16-1.56l-.26.34c.699999.479999 1 .76 1.4 1.28 1.079999 1.439998 1.7 3.940003 1.7 6.9 0 2.699997-.520001 5.080001-1.44 6.52-.46.699999-.840001 1.1-1.66 1.66z" fill="url(#radialGradient7272)"/>
    <path d="m57.299687 62.415111c-.639999 0-1.14.5-1.14 1.12 0 .639999.500001 1.14 1.120001 1.14.619999 0 1.119999-.500001 1.119999-1.14 0-.62-.5-1.12-1.1-1.12m-1.46 11.66c.74-.08 1.100001-.220001 1.64-.62.78-.58 1.120001-1.220001 1.120001-2.08 0-.979999-.680001-1.74-1.54-1.74-.6 0-1.080001.5-1.080001 1.14 0 .639999.480001 1.16 1.06 1.16.18 0 .300001-.02.6-.1.04.839999-.82 1.74-1.8 1.92z" fill="url(#radialGradient7272)"/>
    <path d="m-119.35547 92.309861c-.72917.000005-1.2793.123703-1.65039.371094-.36459.2474-.54688.611983-.54687 1.09375-.00001.442711.14648.791018.43945 1.044922.29947.247398.71288.371096 1.24023.371094.65755.000002 1.21093-.234373 1.66016-.703125.44921-.475258.67382-1.067705.67383-1.777344v-.400391zm5.3418-1.318359v6.240234h-3.52539v-1.621094c-.46876.664064-.9961 1.149089-1.58203 1.455079-.58595.299479-1.29884.449218-2.13868.449218-1.13281 0-2.05403-.328776-2.76367-.986328-.70312-.664061-1.05469-1.523435-1.05469-2.578125 0-1.282547.43946-2.223302 1.31836-2.822265.88542-.598952 2.27214-.898431 4.16016-.898438h2.06055v-.273437c-.00001-.553378-.21811-.957023-.6543-1.210938-.4362-.260408-1.11654-.390616-2.04102-.390625-.7487.000009-1.44531.07488-2.08984.224609-.64453.149748-1.24349.374358-1.79687.673829v-2.666016c.74869-.182281 1.50064-.319 2.25586-.410156.7552-.09764 1.51041-.146474 2.26562-.146485 1.97265.000011 3.39517.390636 4.26758 1.171875.87889.774749 1.31835 2.037769 1.31836 3.789063" fill="url(#radialGradient7272)"/>
    <path d="m-106.92383 83.188767v3.105469h3.60352v2.5h-3.60352v4.638672c0 .507816.10091.852868.30274 1.035156.20181.175784.6022.263675 1.20117.263672h1.79687v2.5h-2.99804c-1.38022 0-2.36003-.286458-2.93946-.859375-.57292-.579425-.85937-1.559242-.85937-2.939453v-4.638672h-1.73828v-2.5h1.73828v-3.105469z" fill="url(#radialGradient7272)"/>
    <path d="m-96.851562 100.33174c-.68-.460003-1.000001-.760004-1.400001-1.280004-1.079998-1.439998-1.699999-3.940003-1.699999-6.9 0-2.699997.52-5.100001 1.44-6.54.439999-.679999.82-1.06 1.66-1.64l-.260001-.34c-.919999.48-1.32.760001-1.839999 1.24-1.799998 1.659998-2.839998 4.360003-2.839998 7.28 0 2.739997.9 5.260002 2.519997 6.94.6.659999 1.080002 1.000004 2.16 1.580004z" fill="url(#radialGradient7272)"/>
    <path d="m-91.551875 97.231736 8.38-13.46h-1.06c-.5.859999-1.600001 1.4-2.82 1.4-.619999 0-1.000001-.14-1.7-.62-.819999-.559999-1.180001-.7-1.78-.7-2.179998 0-4.38 2.420003-4.38 4.84 0 1.539999.980002 2.56 2.48 2.56 2.159998 0 4.1-2.360002 4.1-4.98 0-.3-.02-.44-.1-.78.38.14.92.22 1.42.22.679999 0 1.260001-.16 2.04-.54l-7.66 12.06zm2.56-11.9c.08.18.1.340001.1.78 0 1.239999-.360001 2.300001-1.12 3.2-.619999.759999-1.420001 1.22-2.12 1.22-.759999 0-1.24-.460001-1.24-1.18 0-1.899998 1.740001-4.82 2.88-4.82.08 0 .14 0 .26.02.36.38.500001.48 1.24.78m5.98 4.7c-2.299998 0-4.52 2.420003-4.52 4.92 0 1.419999 1.040001 2.42 2.5 2.42 1.039999 0 1.900001-.420001 2.66-1.3.999999-1.159999 1.62-2.640001 1.62-3.92 0-1.259999-.900001-2.12-2.26-2.12m.24.72c.779999 0 1.38.640001 1.38 1.5 0 1.139999-.560001 2.500001-1.4 3.42-.539999.6-1.380001.98-2.1.98-.679999 0-1.1-.460001-1.1-1.22 0-2.079998 1.780001-4.68 3.22-4.68" fill="url(#radialGradient7272)"/>
    <path d="m-78.372187 99.631736c.739999-.08 1.1-.22 1.64-.62.779999-.579999 1.119999-1.220001 1.119999-2.08 0-.979999-.68-1.74-1.539999-1.74-.6 0-1.08.500001-1.08 1.14 0 .64.48 1.16 1.059999 1.16.18 0 .300001-.02.600001-.1.04.839999-.820001 1.74-1.8 1.92z" fill="url(#radialGradient7272)"/>
    <path d="m-74.189453 86.294236h3.496094l2.724609 7.558594 2.714844-7.558594h3.505859l-4.30664 10.9375h-3.837891z" fill="url(#radialGradient7272)"/>
    <path d="m-54.863281 92.309861c-.729173.000005-1.279302.123703-1.650391.371094-.364588.2474-.546879.611983-.546875 1.09375-.000004.442711.14648.791018.439453 1.044922.299474.247398.712885.371096 1.240235.371094.657545.000002 1.21093-.234373 1.660156-.703125.44921-.475258.67382-1.067705.673828-1.777344v-.400391zm5.341797-1.318359v6.240234h-3.525391v-1.621094c-.468758.664064-.996101 1.149089-1.582031 1.455079-.585944.299479-1.298834.449218-2.138672.449218-1.132816 0-2.054039-.328776-2.763672-.986328-.703126-.664061-1.054688-1.523435-1.054687-2.578125-.000001-1.282547.439451-2.223302 1.318359-2.822265.885413-.598952 2.272131-.898431 4.160156-.898438h2.060547v-.273437c-.000008-.553378-.218107-.957023-.654297-1.210938-.436205-.260408-1.116543-.390616-2.041015-.390625-.748703.000009-1.445317.07488-2.089844.224609-.644534.149748-1.243492.374358-1.796875.673829v-2.666016c.748695-.182281 1.500647-.319 2.255859-.410156.755204-.09764 1.510411-.146474 2.265625-.146485 1.972648.000011 3.395173.390636 4.267578 1.171875.878895.774749 1.318348 2.037769 1.31836 3.789063" fill="url(#radialGradient7272)"/>
    <path d="m-46.25 82.036424h3.496094v15.195312h-3.496094z" fill="url(#radialGradient7272)"/>
    <path d="m-40.194687 100.67174c.919999-.5 1.32-.760004 1.84-1.240004 1.779998-1.659998 2.84-4.360003 2.84-7.28 0-2.739997-.920002-5.260002-2.52-6.96-.6-.639999-1.080002-1-2.16-1.56l-.26.34c.699999.48 1 .760001 1.4 1.28 1.079998 1.439999 1.7 3.940003 1.7 6.9 0 2.699997-.520001 5.080002-1.440001 6.52-.459999.699999-.84 1.100001-1.659999 1.660004z" fill="url(#radialGradient7272)"/>
    <path d="m-31.255 87.971736c-.639999 0-1.14.500001-1.14 1.12 0 .64.500001 1.14 1.12 1.14s1.12-.5 1.12-1.14c0-.619999-.500001-1.12-1.1-1.12m-1.46 11.66c.739999-.08 1.100001-.22 1.64-.62.779999-.579999 1.12-1.220001 1.12-2.08 0-.979999-.680001-1.74-1.54-1.74-.599999 0-1.08.500001-1.08 1.14 0 .64.480001 1.16 1.06 1.16.18 0 .3-.02.6-.1.04.839999-.820001 1.74-1.8 1.92z" fill="url(#radialGradient7272)"/>
  </g>
  <path d="m186.03704 95.88305c0 36.58338-29.65671 66.24-66.24 66.24-36.58338 0-66.24-29.65662-66.24-66.24 0-36.58329 29.65662-66.23991 66.24-66.23991 36.58329 0 66.24 29.65662 66.24 66.23991z" fill="url(#radialGradient7462)" fill-rule="evenodd"/>
  <path d="m62.98346 46.91c-11.88 3.23991-17.28 8.64-17.28 16.02 0 7.19991 5.22 10.44 10.26 11.16-3.96 3.59991-6.3 9.72-6.3 14.94 0 5.57991 2.7 11.34 7.56 14.58-11.7 8.45991-19.8 21.78-19.8 36.9 0 18.35991 7.74009 31.14 28.98 31.14 4.32 0 14.22-1.62 16.2-1.62 9.36 0 16.2 4.5 16.2 12.24 0 8.99991-7.38 14.58-14.58 14.58-5.04 0-7.2-5.22-10.98-5.22-5.04 0-7.56 3.24-7.56 7.38 0 6.83991 5.94 10.08 12.96 10.08 10.98 0 25.74-11.88009 25.74-29.34 0-15.3-8.28-24.66-27-24.66-2.16 0-7.74.36-10.98.36-12.42 0-20.88-5.58009-20.88-20.7 0-13.14 8.28-22.50009 19.62-27.54 4.68 1.26 9 1.62 12.96 1.62 5.94 0 19.62-1.80009 19.62-9.9 0-4.68-4.68-7.2-11.52-7.2-7.2 0-16.56 3.06-23.04 8.46-4.14-2.88-6.3-6.84009-6.3-11.34 0-5.76 3.78-11.88 12.42-11.88 11.88 0 24.66-5.40009 24.66-11.88 0-3.96-2.52-5.94-8.28-5.94-7.2 0-16.74 3.6-24.84 9.36-4.68-.36-7.02-3.78009-7.02-8.28 0-3.24 1.8-7.38009 10.62-10.44l-1.44-2.88" fill="url(#radialGradient7464)" fill-rule="evenodd" stroke="#000" stroke-width="2.25"/>
  <path d="m218.57663 133.13h-4.14c-2.7 13.67991-7.56 19.62-21.42 19.62h-55.8l42.66-48.96-38.16-46.26h37.44c15.84 0 24.3 3.78 27 22.14h4.5v-28.98h-94.68v2.7l48.06 58.14-48.06 55.62v2.7h97.56z" fill="url(#radialGradient7466)" fill-rule="evenodd" stroke="#000" stroke-width="2.25"/>
  <path d="m213.57704 189.47v-5.58h-4.32c-13.86 0-14.22-1.98-14.22-8.46v-94.86c0-6.48.36-8.46 14.22-8.46h4.32v-5.58h-30.42c-4.68 0-14.4-.1674-15.12 1.99305l-40.03704 102.76695-39.06-100.8c-1.62-3.96-2.16-3.96-6.3-3.96l-37.90296-.3465v5.58h4.32c13.86 0 14.22 1.98 14.22 8.46v90c0 4.86 0 13.32-18.54 13.32v5.58l28.54296-.1926 21.06.54v-5.58c-18.54 0-18.54-8.46-18.54-13.32v-97.02h.18l43.38 111.96c.9 2.34 1.8 3.9609 3.6 3.96 1.97982-.00099 10.94985.5931 11.77704-.7083l45.54-116.6526h.18v103.32c0 6.48-.36 8.46-14.22 8.46h-4.32v5.58c6.66-.54 18.9-.54 25.92-.54s19.08 0 25.74.54" fill="url(#radialGradient7470)" fill-rule="evenodd" stroke="#000" stroke-width="2.25"/>
</svg>
