<svg height="256" width="256" xmlns="http://www.w3.org/2000/svg" xmlns:xlink="http://www.w3.org/1999/xlink">
  <defs>
    <pattern id="pattern6373" patternTransform="matrix(.5646156 0 0 .73196658 -15.999332 -2741.545)"/>
    <linearGradient id="linearGradient9251">
      <stop offset="0" stop-color="#fff"/>
      <stop offset="1" stop-color="#fff" stop-opacity="0"/>
    </linearGradient>
    <linearGradient id="linearGradient4235" gradientTransform="matrix(1.9540051 0 0 1.9478645 3.023998 16.215837)" gradientUnits="userSpaceOnUse" x1="64" x2="64" y1="117" y2="104">
      <stop offset="0" stop-color="#d6d6d6"/>
      <stop offset="1" stop-color="#fff"/>
    </linearGradient>
    <linearGradient id="linearGradient4324" gradientTransform="matrix(2.1858494 0 0 2.1789802 -11.81404 -15.003823)" gradientUnits="userSpaceOnUse" spreadMethod="reflect" x1="29.509214" x2="64" y1="64" y2="64">
      <stop offset="0" stop-color="#b3b3b3"/>
      <stop offset=".10799085" stop-color="#f7f6f5"/>
      <stop offset="1" stop-color="#f7f7f5"/>
    </linearGradient>
    <linearGradient id="linearGradient4388" gradientTransform="matrix(-2.1858496 0 0 2.1789804 263.0703 -11.203683)" gradientUnits="userSpaceOnUse" x1="12.0625" x2="90.789825" xlink:href="#linearGradient9251" y1="65.265625" y2="65.265625"/>
    <linearGradient id="linearGradient4403" gradientTransform="matrix(2.2410222 0 0 2.9052568 -15.999332 -2741.545)" gradientUnits="userSpaceOnUse" x1="64.609207" x2="64.609207" y1="939.04266" y2="936.38202">
      <stop offset="0" stop-color="#696969"/>
      <stop offset="1" stop-color="#696969" stop-opacity="0"/>
    </linearGradient>
    <linearGradient id="linearGradient4430" gradientTransform="matrix(1.6813001 0 0 1.3557011 20.477116 80.551157)" gradientUnits="userSpaceOnUse" x1="64" x2="64" xlink:href="#linearGradient9251" y1="114.63895" y2="107.98861"/>
    <radialGradient id="radialGradient4434" cx="64.125" cy="113.9375" fx="64.1875" fy="115.3125" gradientTransform="matrix(1.9540051 0 0 1.9478645 3.023998 16.215837)" gradientUnits="userSpaceOnUse" r="5" xlink:href="#linearGradient9251"/>
    <linearGradient id="linearGradient9259" gradientTransform="matrix(2.1858494 0 0 2.114892 -11.81404 -8.105223)" gradientUnits="userSpaceOnUse" x1="139" x2="80" xlink:href="#linearGradient9251" y1="143" y2="82.717964"/>
    <filter id="filter10932" height="2.386192" width="1.037009" x="-.018504" y="-.693096">
      <feGaussianBlur stdDeviation=".52204369"/>
    </filter>
    <filter id="filter10940" height="5.864076" width="1.132175" x="-.066087" y="-2.432038">
      <feGaussianBlur stdDeviation="1.8644418"/>
    </filter>
    <linearGradient id="linearGradient4859" gradientUnits="userSpaceOnUse" x1="72" x2="72" y1="120" y2="16">
      <stop offset="0" stop-color="#ececeb"/>
      <stop offset="1" stop-color="#ececeb" stop-opacity="0"/>
    </linearGradient>
    <filter id="filter4868" height="1.214286" width="1.142857" x="-.071429" y="-.107143">
      <feGaussianBlur stdDeviation="2.8571429"/>
    </filter>
    <mask id="mask4872" maskUnits="userSpaceOnUse">
      <path d="m81.9375 72c-1.077277 0-1.9375.86022-1.9375 1.9375v38.06252h-32v-30.0625c0-1.0773-.860223-1.9375-1.9375-1.9375h-20.125c-1.077277 0-1.9375.8602-1.9375 1.9375v30.0625h-6.0625c-1.077277 0-1.9375.8602-1.9375 1.9375v20.125c0 1.0773.860223 1.9375 1.9375 1.9375h92.125c1.07728 0 1.9375-.8602 1.9375-1.9375v-8-12.125-40.00002c0-1.07728-.86022-1.9375-1.9375-1.9375z" fill="#fff" fill-rule="evenodd" filter="url(#filter4868)"/>
    </mask>
    <filter id="filter4914" height="1.011258" width="1.008389" x="-.004195" y="-.005629">
      <feGaussianBlur stdDeviation=".11194364"/>
    </filter>
    <filter id="filter4922" height="1.004053" width="1.006271" x="-.003135" y="-.002026">
      <feGaussianBlur stdDeviation=".0765"/>
    </filter>
    <linearGradient id="linearGradient6390" gradientUnits="userSpaceOnUse" x1="65.345146" x2="65.345146" y1="1045.1724" y2="1042.0262">
      <stop offset="0"/>
      <stop offset="1" stop-opacity="0"/>
    </linearGradient>
    <linearGradient id="linearGradient2235" gradientTransform="matrix(-1 0 -0 -1 133.600702 132.399998)" gradientUnits="userSpaceOnUse" x1="9.5996" x2="129.6001" y1="68.399902" y2="68.399902">
      <stop offset="0" stop-color="#003685"/>
      <stop offset=".0105" stop-color="#083c8f"/>
      <stop offset=".0533" stop-color="#2451b1"/>
      <stop offset=".099" stop-color="#3b63cd"/>
      <stop offset=".1477" stop-color="#4d71e3"/>
      <stop offset=".20100001" stop-color="#597bf3"/>
      <stop offset=".2622" stop-color="#6180fc"/>
      <stop offset=".34909999" stop-color="#6382ff"/>
      <stop offset=".58579999" stop-color="#6382ff"/>
      <stop offset="1" stop-color="#003685"/>
    </linearGradient>
    <radialGradient id="radialGradient2237" cx="64.000092" cy="63.999901" gradientUnits="userSpaceOnUse" r="83.508766">
      <stop offset=".5" stop-color="#6193ff"/>
      <stop offset=".78109998" stop-color="#003685"/>
      <stop offset="1" stop-color="#709dff"/>
    </radialGradient>
    <radialGradient id="radialGradient2239" cx="64.000099" cy="140.99989" gradientUnits="userSpaceOnUse" r="141">
      <stop offset=".3373" stop-color="#2c72c7" stop-opacity="0"/>
      <stop offset=".57990003" stop-color="#2c72c7"/>
      <stop offset="1" stop-color="#2c72c7" stop-opacity="0"/>
    </radialGradient>
    <filter id="AI_Sfocatura_4" height="1.168422" width="1.16842" x="-.08421" y="-.084211">
      <feGaussianBlur stdDeviation="4"/>
    </filter>
    <clipPath id="clipPath4458">
      <path d="m69.626 12.145h-.052c-22.727-.292-46.472 4.077-46.709 4.122-2.424.451-4.946 2.974-5.397 5.397-.044.237-4.414 23.983-4.122 46.71-.292 22.777 4.078 46.523 4.122 46.761.451 2.423 2.974 4.945 5.398 5.398.237.044 23.982 4.413 46.709 4.121 22.779.292 46.524-4.077 46.761-4.121 2.423-.452 4.946-2.976 5.398-5.399.044-.236 4.413-23.981 4.121-46.709.292-22.777-4.077-46.523-4.121-46.761-.453-2.423-2.976-4.946-5.398-5.397-.238-.045-23.984-4.414-46.71-4.122z" height="1" width="1"/>
    </clipPath>
    <filter id="filter4446" height="1.114869" width="1.58443" x="-.292215" y="-.057434">
      <feGaussianBlur stdDeviation="2.4087233"/>
    </filter>
    <radialGradient id="radialGradient2247" cx="110.74259" cy="123.17536" gradientTransform="matrix(.4136693 -.5587442 -.4989925 -.3694316 79.652783 167.07706)" gradientUnits="userSpaceOnUse" r="81.292717">
      <stop offset="0" stop-color="#fff"/>
      <stop offset=".32780001" stop-color="#fdfdfc"/>
      <stop offset=".6773591" stop-color="#f4f5f4"/>
      <stop offset="1" stop-color="#cacfd0"/>
    </radialGradient>
    <linearGradient id="linearGradient2802" gradientUnits="userSpaceOnUse" x1="67.629204" x2="67.629204" y1="-.194174" y2="80.850853">
      <stop offset=".1302" stop-color="#fff"/>
      <stop offset=".5" stop-color="#fff" stop-opacity=".168627"/>
    </linearGradient>
    <filter id="filter2904" height="1.096" width="1.096" x="-.048" y="-.048">
      <feGaussianBlur stdDeviation="2.32"/>
    </filter>
    <linearGradient id="linearGradient4" gradientUnits="userSpaceOnUse" x1="108.00493" x2="115.9771" y1="72.341148" y2="102.0937">
      <stop offset="0" stop-color="#00316e" stop-opacity="0"/>
      <stop offset="1" stop-color="#00316e"/>
    </linearGradient>
  </defs>
  <rect fill-rule="evenodd" filter="url(#filter10932)" height="1.807693" rx="1" ry=".873469" transform="matrix(2.1858496 0 0 2.1789804 -11.81404 -2027.1706)" width="67.708229" x="30.109127" y="1042.7699"/>
  <rect fill="url(#linearGradient6390)" fill-rule="evenodd" filter="url(#filter10940)" height="1.839881" opacity=".595455" rx="1" ry=".883883" transform="matrix(2.1858496 0 0 2.1789804 -11.81404 -2029.1706)" width="67.708237" x="30.109127" y="1043.2368"/>
  <rect fill="url(#linearGradient4324)" fill-rule="evenodd" height="239.99397" rx="4.25048" ry="4.237122" width="149.32961" x="52.68866" y="6.21878"/>
  <rect fill="url(#linearGradient4859)" fill-rule="evenodd" filter="url(#filter4914)" height="47.728748" mask="url(#mask4872)" rx="1.257044" transform="matrix(2.1858496 0 0 2.1789804 -11.81404 -16.311083)" width="64.048325" x="31.939079" y="70.98307"/>
  <path d="m36.828838 19.488579c-1.327031-.001-2.439875 1.120536-2.439875 2.447567v85.706154c0 1.32703 1.112845 2.44757 2.439875 2.44757h53.677252c1.32703 0 2.439875-1.12054 2.439875-2.44757v-85.706154c0-1.327031-1.07922-2.405229-2.40625-2.40625z" fill="#fff" fill-rule="evenodd" filter="url(#filter4922)" transform="matrix(2.1858496 0 0 2.1789804 -11.81404 -15.003683)"/>
  <path d="m74.02146 27.551577h111.9972c2.35724 0 5.3332 2.87138 5.3332 5.3332v186.662043c0 3.0028-3.03578 5.3332-5.3332 5.3332h-117.3304c-2.615062 0-5.3332-2.6736-5.3332-5.3332v-186.662043c0-2.66714 3.041456-5.3332 5.3332-5.3332z" fill="#111" fill-rule="evenodd"/>
  <path d="m137.85035 234.37666c0 5.37888-4.37419 9.73932-9.77003 9.73932-5.39583 0-9.77002-4.36044-9.77002-9.73932 0-5.37886 4.37419-9.73932 9.77002-9.73932 5.39584 0 9.77003 4.36046 9.77003 9.73932z" fill="url(#linearGradient4235)" fill-rule="evenodd"/>
  <path d="m136.87334 234.37666c0 4.841-3.93677 8.7654-8.79302 8.7654s-8.79302-3.9244-8.79302-8.7654c0-4.84098 3.93677-8.76538 8.79302-8.76538s8.79302 3.9244 8.79302 8.76538z" fill="url(#radialGradient4434)" fill-rule="evenodd"/>
  <rect fill-rule="evenodd" height="175.99573" rx="0" width="117.33041" x="68.688255" y="43.551178"/>
  <g transform="matrix(.4 0 0 .4 119.71521 53.894419)">
    <path d="m126 113.8c0 8.8-7.2 16-16 16h-84c-8.8 0-16-7.2-16-16v-83.999998c0-8.8 7.2-16 16-16h84c8.8 0 16 7.2 16 16z" filter="url(#filter2904)" opacity=".8" transform="matrix(2.1034482 0 0 2.0344828 -122.32248 24.124057)"/>
    <g transform="matrix(2 0 0 2 -107.28801 36.200413)">
      <path d="m4.000002 20c0-8.8 7.2-16 16-16h87.999998c8.8 0 16 7.2 16 16v88c0 8.8-7.2 16-16 16h-87.999998c-8.8 0-16-7.2-16-16z" fill="url(#linearGradient2235)"/>
      <path d="m20.77193 8c-7.042246 0-12.77193 5.729684-12.77193 12.77193v86.45614c0 7.04225 5.729684 12.77193 12.77193 12.77193h86.45614c7.04225 0 12.77193-5.72968 12.77193-12.77193v-86.45614c0-7.042246-5.72968-12.77193-12.77193-12.77193z" fill="url(#radialGradient2237)"/>
      <path d="m64.026001 7.014h-.053c-23.021-.296-47.076 4.131-47.316 4.176-2.455.458-5.01 3.012-5.467 5.467-.045.241-4.4720008 24.295-4.1760008 47.316-.296 23.074 4.1310008 47.129 4.1760008 47.369.457 2.454 3.013 5.01 5.468 5.469.24.044 24.294 4.47 47.316 4.174 23.075.296 47.128999-4.13 47.368999-4.174 2.454-.458 5.011-3.015 5.469-5.47.044-.239 4.47-24.293 4.174-47.315.296-23.074-4.13-47.128-4.174-47.369-.459-2.455-3.015-5.01-5.469-5.467-.24-.045-24.294999-4.472-47.316999-4.176z" fill="url(#radialGradient2239)" filter="url(#AI_Sfocatura_4)"/>
      <g clip-path="url(#clipPath4458)" opacity=".6" transform="translate(-5.599986 -4.4)">
        <path d="m119.344 21.665c-.377-1.278-1.675-2.576-3.367-3.591-1.693 1.015-2.989 2.312-3.365 3.591-.07.237-6.965 23.983-6.504 46.71-.461 22.777 6.434 46.523 6.504 46.761.376 1.278 1.674 2.576 3.365 3.591 1.694-1.016 2.991-2.312 3.367-3.592.069-.236 6.963-23.981 6.503-46.709.46-22.778-6.433-46.524-6.503-46.761z" fill="url(#linearGradient4)" filter="url(#filter4446)" opacity=".8"/>
        <path d="m119.344 21.665c-.377-1.278-1.675-2.576-3.367-3.591-1.693 1.015-2.989 2.312-3.365 3.591-.07.237-6.965 23.983-6.504 46.71-.461 22.777 6.434 46.523 6.504 46.761.376 1.278 1.674 2.576 3.365 3.591 1.694-1.016 2.991-2.312 3.367-3.592.069-.236 6.963-23.981 6.503-46.709.46-22.778-6.433-46.524-6.503-46.761z" fill="url(#linearGradient4)" filter="url(#filter4446)" opacity=".8" transform="matrix(-1 0 0 1 139.2 0)"/>
      </g>
      <path d="m70.906252 21.510199-14.625 1.40625v60.25l14.46875-2.1875v-25.6875l19.46875 28.5 15.249998-4.84375-19.937498-27.40625 20.093748-25.84375-15.562498-3.5625-19.3125 25.84375zm-33.15625 14.6875c-.165374.01706-.34425.06275-.46875.1875l-5.75 5.75c-.241499.242246-.270998.613003-.09375.90625l6.71875 11.09375c-1.192994 2.005487-2.161754 4.156762-2.84375 6.4375l-12.34375 2.5625c-.343499.071-.59375.398002-.59375.75v8.125c0 .343498.261249.637747.59375.71875l11.96875 2.90625c.639996 2.640486 1.628759 5.167263 2.9375 7.46875l-6.9375 10.5625c-.193499.295-.155746.688501.09375.9375l5.75 5.750001c.242246.24149.613751.27174.90625.0937l10.875-6.593751c2.13299 1.231493 4.442266 2.218 6.875 2.875l2.53125 12.187501c.071.3445.367003.59375.71875.59375h8.125c.340999 0 .637752-.229.71875-.5625l3-12.250001c2.508985-.676496 4.874511-1.680761 7.0625-2.96875l10.71875 7.031251c.295498.1925.687001.15525.9375-.0937l5.71875-5.750001c.242998-.242496.302996-.613751.125-.90625l-3.90625-6.4375-1.28125.40625c-.185002.057-.390003-.0265-.5-.1875-.000001-.000001-2.467514-3.629779-5.6875-8.34375-3.850977 7.535454-11.704553 12.6875-20.75 12.6875-12.853426-.000002-23.28125-10.427824-23.28125-23.28125 0-9.454695 5.653795-17.575271 13.75-21.21875v-6c-1.473491.515746-2.897006 1.138001-4.25 1.875-.0025-.0015.0025-.02975 0-.03125l-10.96875-7.1875c-.147499-.0965-.303376-.110813-.46875-.09375z" fill="url(#radialGradient2247)"/>
      <path d="m118 45.413803c-1.19623-13.482422-3.07337-22.798818-3.1032-22.95486-.4464-2.409328-3.96206-5.898191-6.34937-6.346689-.23451-.04416-22.609029-4.388805-45.009257-4.098311h-.05143c-22.3992-.290494-44.774743 4.054148-45.009258 4.098311-2.388342.449479-5.902971 3.937361-6.347314 6.346689-.0216.116787-1.092342 5.005122-2.130171 13.643372v17.355012c0 3.607613 2.396571 7.78051 5.328 9.289897-.002057-.102065 4.634744 13.252776 44.009487 13.252776 39.375773 0 53.636913-20.675076 53.632803-20.445429 2.76685-1.857783 5.02971-6.305471 5.02971-9.914066 0-.07557 0-.151135 0-.226702z" fill="url(#linearGradient2802)" opacity=".7"/>
    </g>
  </g>
  <path d="m128.08032 225.61142c-4.64278 0-8.51674 3.0356-8.4065 6.7784.1469 4.9874 16.9503 5.1786 16.813 0-.0992-3.743-3.76372-6.7784-8.4065-6.7784z" fill="url(#linearGradient4430)" fill-rule="evenodd"/>
  <path d="m168.39569 8.5433269-112.844486 207.6159731v-205.709365c0-1.1211701.787916-1.9066081 1.912618-1.9066081z" fill="url(#linearGradient4388)" fill-rule="evenodd" opacity=".622727"/>
  <rect fill="url(#linearGradient9259)" fill-rule="evenodd" height="175.99554" rx="0" width="117.33041" x="68.688255" y="43.551178"/>
  <g fill="#fff" stroke-width="2" transform="scale(.98157746 1.0187683)">
    <path d="m173.50458 28.521208c-1.98271 0-3.32982 1.460946-3.32982 3.623904 0 2.172445 1.33762 3.623904 3.33931 3.623904.84431 0 1.58427-.256139 2.14398-.730472.74945-.635607 1.19532-1.707599 1.19532-2.836512 0-2.229365-1.31864-3.680824-3.34879-3.680824zm0 .777906c1.49889 0 2.46653 1.128913 2.46653 2.883945 0 1.669652-.9961 2.808051-2.45704 2.808051-1.47992 0-2.45705-1.138399-2.45705-2.845998s.97713-2.845998 2.44756-2.845998z"/>
    <path d="m180.47727 32.002812 2.33372-3.367764h-1.05302l-1.78349 2.713185-1.774-2.713185h-1.072l2.29577 3.367764-2.44755 3.548011h1.07199l1.89733-2.883944 1.88785 2.883944h1.09096z"/>
    <path d="m186.89026 32.837638 2.59934-4.20259h-1.05302l-1.97322 3.367764-2.03015-3.367764h-1.09096l2.66575 4.20259v2.713185h.88226z"/>
  </g>
  <rect fill="#fff" fill-rule="evenodd" height="5.799555" opacity=".609091" rx="0" width="2.185849" x="183.83281" y="43.084869"/>
  <rect fill="#fff" fill-rule="evenodd" height="4.000031" opacity=".609091" rx="0" width="2.185849" x="173.16641" y="44.884308"/>
  <path d="m57.260864 6.2187769c-2.35477 0-4.235082 1.8744-4.235082 4.2217601v1.08952c0-2.3473801 1.648688-1.3798 4.003458-1.3798h141.09812c2.35478 0 3.8909-.9675801 3.8909 1.3798v-1.08952c0-2.3473601-1.8803-4.2217601-4.23508-4.2217601z" fill-opacity=".097143" fill-rule="evenodd"/>
  <g fill="#fff" fill-opacity=".651429" stroke-width="2" transform="scale(.98157746 1.0187683)">
    <path d="m78.597969 41.912467c-1.712429 0-2.875897 1.26179-2.875897 3.129894 0 1.876298 1.155275 3.129895 2.884091 3.129895.729216 0 1.368304-.221223 1.851717-.630895.647282-.548961 1.032374-1.474819 1.032374-2.449839 0-1.925458-1.138889-3.179055-2.892285-3.179055zm0 .671862c1.294564 0 2.130295.97502 2.130295 2.490806 0 1.442046-.860312 2.425259-2.122101 2.425259-1.278177 0-2.122101-.983213-2.122101-2.458033 0-1.474819.843924-2.458032 2.113907-2.458032z"/>
    <path d="m84.620146 44.91946 2.015587-2.908671h-.909472l-1.540367 2.343323-1.532173-2.343323h-.925859l1.982812 2.908671-2.113907 3.064347h.925859l1.638688-2.490806 1.630494 2.490806h.942246z"/>
    <path d="m90.158914 45.640483 2.245002-3.629694h-.909471l-1.704236 2.908671-1.753396-2.908671h-.942246l2.302357 3.629694v2.343324h.76199z"/>
    <path d="m95.632128 45.132489c-.03277-.417865-.122901-.688249-.28677-.925858-.294964-.401479-.811151-.639089-1.409272-.639089-1.163468 0-1.909071.917666-1.909071 2.343324 0 1.384692.737409 2.26139 1.900878 2.26139 1.02418 0 1.671462-.614508 1.753396-1.663269h-.688249c-.114708.688249-.467026 1.032374-1.04876 1.032374-.753797 0-1.204436-.614508-1.204436-1.630495 0-1.073341.442446-1.712429 1.188049-1.712429.573541 0 .934052.335931 1.015986.934052z"/>
    <path d="m98.163898 43.567542c-1.21263 0-1.933652.860311-1.933652 2.302357 0 1.450239.721022 2.302357 1.941845 2.302357 1.212629 0 1.941849-.860312 1.941849-2.269583 0-1.491206-.70464-2.335131-1.950042-2.335131zm.0082.630895c.770183 0 1.229016.630895 1.229016 1.696042 0 1.015987-.475219 1.646882-1.229016 1.646882-.76199 0-1.229016-.630895-1.229016-1.671462s.467026-1.671462 1.229016-1.671462z"/>
    <path d="m101.06437 43.690444v4.293363h.68825v-2.695642c0-.622702.45064-1.122502 1.0078-1.122502.50799 0 .79476.311351.79476.860312v2.957832h.68825v-2.695642c0-.622702.45064-1.122502 1.00779-1.122502.4998 0 .79477.319545.79477.860312v2.957832h.68824v-3.220022c0-.770184-.44244-1.196243-1.2454-1.196243-.57354 0-.91766.172062-1.31914.655475-.254-.458832-.59812-.655475-1.15528-.655475-.57354 0-.95863.21303-1.31914.729216v-.606314z"/>
  </g>
  <rect fill="url(#linearGradient4403)" fill-rule="evenodd" height="10.666475" rx="4.100958" ry="5.333234" transform="scale(1 -1)" width="53.312527" x="100.68746" y="-22.218418"/>
  <rect fill="url(#linearGradient4403)" fill-rule="evenodd" height="10.666357" opacity=".359091" rx="4.100915" ry="5.333179" transform="scale(1 -1)" width="53.312519" x="100.68746" y="-22.218418"/>
  <rect fill="url(#pattern6373)" fill-rule="evenodd" height="10.666475" opacity=".095455" rx="4.100958" ry="5.333234" transform="scale(1 -1)" width="53.312527" x="100.68746" y="-22.218418"/>
</svg>
