<svg height="256" viewBox="0 0 256 256" width="256" xmlns="http://www.w3.org/2000/svg" xmlns:xlink="http://www.w3.org/1999/xlink">
  <defs>
    <mask id="mask4040" maskUnits="userSpaceOnUse">
      <path d="m619.46875 435.1875c-.15545 1.16013-.21875 2.32017-.21875 3.5 0 28.57739 46.31398 51.75 103.46875 51.75s103.5-23.17261 103.5-51.75c0-1.18031-.0944-2.33941-.25-3.5-3.58115 26.95408-48.435 48.25-103.25 48.25-54.81609 0-99.67042-21.29516-103.25-48.25z" fill="#fff" filter="url(#filter4036)"/>
    </mask>
    <filter id="filter4036" color-interpolation-filters="sRGB" height="1.170858" width="1.04561" x="-.022805" y="-.085429">
      <feGaussianBlur stdDeviation="1.9666406"/>
    </filter>
    <filter id="filter3818" color-interpolation-filters="sRGB" height="1.036" width="1.018092" x="-.009046" y="-.018">
      <feGaussianBlur stdDeviation=".77615902"/>
    </filter>
    <linearGradient id="linearGradient3604">
      <stop offset="0" stop-color="#fde593"/>
      <stop offset=".10206046" stop-color="#ffe087"/>
      <stop offset=".20412092" stop-color="#ffe689"/>
      <stop offset=".2752448" stop-color="#fbb256"/>
      <stop offset=".41286719" stop-color="#a44b0c"/>
      <stop offset=".4816784" stop-color="#833206"/>
      <stop offset=".5504896" stop-color="#702506"/>
      <stop offset=".57858396" stop-color="#702506"/>
      <stop offset=".60667837" stop-color="#7c2e09"/>
      <stop offset=".66286719" stop-color="#c6681f"/>
      <stop offset=".70293725" stop-color="#fd9831"/>
      <stop offset=".77524483" stop-color="#ffa235"/>
      <stop offset=".85440612" stop-color="#f1882b"/>
      <stop offset=".91225147" stop-color="#944010"/>
      <stop offset="1" stop-color="#6d2405"/>
    </linearGradient>
    <clipPath id="clipPath3719">
      <ellipse cx="323.73126" cy="406.22641" rx="103.48787" ry="51.743935"/>
    </clipPath>
    <filter id="filter3735" color-interpolation-filters="sRGB" height="1.246734" width="1.123384" x="-.061692" y="-.123367">
      <feGaussianBlur stdDeviation="5.7057268"/>
    </filter>
    <clipPath id="clipPath3806">
      <path d="m220.25 510.88864v12c0 28.57739 46.31398 51.75 103.46875 51.75s103.5-23.17261 103.5-51.75v-12z"/>
    </clipPath>
    <filter id="filter3802" color-interpolation-filters="sRGB" height="1.113099" width="1.030465" x="-.015232" y="-.056549">
      <feGaussianBlur stdDeviation="1.3135937"/>
    </filter>
    <linearGradient id="linearGradient3881">
      <stop offset="0" stop-color="#fdfef9"/>
      <stop offset=".53639227" stop-color="#e5af64"/>
      <stop offset=".60087013" stop-color="#fff"/>
      <stop offset=".66534793" stop-color="#efd1a8"/>
      <stop offset=".72982574" stop-color="#f4e2ca"/>
      <stop offset=".79430354" stop-color="#faf3ed"/>
      <stop offset=".8797465" stop-color="#fddbd7"/>
      <stop offset=".95411354" stop-color="#e5d6d0"/>
      <stop offset=".97468317" stop-color="#f9edc8"/>
      <stop offset="1" stop-color="#904c12"/>
    </linearGradient>
    <clipPath id="clipPath3911">
      <ellipse cx="323.73126" cy="340.7148" rx="103.48787" ry="51.743935"/>
    </clipPath>
    <filter id="filter3921" color-interpolation-filters="sRGB" height="1.023814" width="1.006012" x="-.003006" y="-.011907">
      <feGaussianBlur stdDeviation=".25922142"/>
    </filter>
    <filter id="filter3877" color-interpolation-filters="sRGB" height="1.01786" width="1.004509" x="-.002254" y="-.00893">
      <feGaussianBlur stdDeviation=".19441606"/>
    </filter>
    <linearGradient id="linearGradient7383" gradientUnits="userSpaceOnUse" x1="215.00415" x2="435.22571" xlink:href="#linearGradient3881" y1="667.46332" y2="599.62476"/>
    <filter id="filter4408" height="1.018265" width="1.009132" x="-.004566" y="-.009132">
      <feGaussianBlur stdDeviation=".39378744"/>
    </filter>
    <linearGradient id="linearGradient7385" gradientTransform="matrix(.27003745 0 0 .24851657 -27.439126 823.61219)" gradientUnits="userSpaceOnUse" spreadMethod="reflect" x1="323.72299" x2="323.72299" y1="559.99542" y2="895.41962">
      <stop offset="0" stop-color="#fde593"/>
      <stop offset=".10206046" stop-color="#ffe087"/>
      <stop offset=".20412092" stop-color="#ffe689"/>
      <stop offset=".2752448" stop-color="#fbb256"/>
      <stop offset=".41286719" stop-color="#bd610c"/>
      <stop offset=".4816784" stop-color="#833206"/>
      <stop offset="1" stop-color="#6d2405"/>
    </linearGradient>
    <clipPath id="clipPath4368">
      <path d="m-39.026199 906.20593c-15.433929 0-27.9375 5.7418-27.9375 12.84375 0 .83226.171789 1.64927.5 2.4375.02188.0525.03923.10393.0625.15625.0069.0125.02429.0188.03125.0313 3.13326 5.60373 14.187766 9.75 27.34375 9.75s24.21049-4.14627 27.34375-9.75c.03481-.0623.0609-.12488.09375-.1875.328211-.78823.53125-1.60524.53125-2.4375 0-7.10195-12.534821-12.84375-27.96875-12.84375z"/>
    </clipPath>
    <filter id="filter4396" height="1.149829" width="1.068339" x="-.034169" y="-.074914">
      <feGaussianBlur stdDeviation=".59758161"/>
    </filter>
    <linearGradient id="linearGradient307" gradientUnits="userSpaceOnUse" spreadMethod="reflect" x1="618.25" x2="722.04117" xlink:href="#linearGradient3604" y1="463.16911" y2="463.16911"/>
    <linearGradient id="linearGradient308" gradientUnits="userSpaceOnUse" spreadMethod="reflect" x1="220.25" x2="324.04117" y1="510.16911" y2="510.16911">
      <stop offset="0" stop-color="#fde593"/>
      <stop offset=".10206046" stop-color="#ffe087"/>
      <stop offset=".20412092" stop-color="#ffe689"/>
      <stop offset=".2752448" stop-color="#fbb256"/>
      <stop offset=".41286719" stop-color="#a4590c"/>
      <stop offset=".4816784" stop-color="#8f4406"/>
      <stop offset=".5504896" stop-color="#833a07"/>
      <stop offset=".57858396" stop-color="#803a07"/>
      <stop offset=".60667837" stop-color="#8e4508"/>
      <stop offset=".66286719" stop-color="#c6681f"/>
      <stop offset=".70293725" stop-color="#fdad31"/>
      <stop offset=".77524483" stop-color="#ffc435"/>
      <stop offset=".85440612" stop-color="#f1972b"/>
      <stop offset=".91225147" stop-color="#954d10"/>
      <stop offset="1" stop-color="#803906"/>
    </linearGradient>
    <linearGradient id="linearGradient309" gradientUnits="userSpaceOnUse" spreadMethod="reflect" x1="359.55399" x2="359.55399" y1="394.9503" y2="708.81932">
      <stop offset="0" stop-color="#fde593"/>
      <stop offset=".10206046" stop-color="#ffe087"/>
      <stop offset=".20412092" stop-color="#ffe689"/>
      <stop offset=".2752448" stop-color="#fbcb56"/>
      <stop offset=".41286719" stop-color="#bd700c"/>
      <stop offset=".4816784" stop-color="#833206"/>
      <stop offset="1" stop-color="#6d2405"/>
    </linearGradient>
    <linearGradient id="linearGradient310" gradientUnits="userSpaceOnUse" spreadMethod="reflect" x1="479.18924" x2="323.73438" xlink:href="#linearGradient3604" y1="523.48956" y2="347.80933"/>
    <linearGradient id="linearGradient311" gradientUnits="userSpaceOnUse" spreadMethod="reflect" x1="323.65286" x2="422.32932" y1="544.75564" y2="544.75564">
      <stop offset="0" stop-color="#edefbb"/>
      <stop offset=".53639227" stop-color="#e5af64"/>
      <stop offset=".79430354" stop-color="#af652c"/>
      <stop offset=".8797465" stop-color="#671006"/>
      <stop offset=".95411354" stop-color="#ac7966"/>
      <stop offset=".97468317" stop-color="#f9edc8"/>
      <stop offset="1" stop-color="#9b5315"/>
    </linearGradient>
    <linearGradient id="linearGradient312" gradientUnits="userSpaceOnUse" spreadMethod="reflect" x1="291.03232" x2="418.95615" xlink:href="#linearGradient3881" y1="280.318784" y2="314.595864"/>
    <linearGradient id="linearGradient314" gradientUnits="userSpaceOnUse" x1="-66.963699" x2="-11.057449" y1="918.81531" y2="918.81531">
      <stop offset="0" stop-color="#dda646"/>
      <stop offset=".44027776" stop-color="#cc6d1b"/>
      <stop offset=".62569451" stop-color="#b23a03"/>
      <stop offset=".75902784" stop-color="#7e0d04"/>
      <stop offset=".85000008" stop-color="#972203"/>
      <stop offset="1" stop-color="#ca5a08"/>
    </linearGradient>
    <linearGradient id="linearGradient327" gradientUnits="userSpaceOnUse" spreadMethod="reflect" x1="615.24805" x2="719.03925" xlink:href="#linearGradient3604" y1="462.91806" y2="462.91806"/>
    <linearGradient id="linearGradient328" gradientUnits="userSpaceOnUse" spreadMethod="reflect" x1="614.22107" x2="718.01227" xlink:href="#linearGradient3604" y1="463.1691" y2="463.1691"/>
  </defs>
  <g transform="translate(.047827 -.724651)">
    <use transform="matrix(.83641933 0 0 .83641933 65.083971 -259.60477)" xlink:href="#path117"/>
    <use transform="translate(1.999999 64.772809)" xlink:href="#use320"/>
    <use transform="translate(0 18)" xlink:href="#use326"/>
    <use transform="translate(1.999999 49.209545)" xlink:href="#use320"/>
    <use id="use326" transform="matrix(.83091824 0 0 .83091824 65.497441 -257.93389)" xlink:href="#path161"/>
    <use transform="translate(1.999999 32.362988)" xlink:href="#use320"/>
    <path d="m622.94842 431.29411v12c0 28.57739 41.61556 51.75 98.77033 51.75s81.42292-29.14836 81.42292-39.54392v-17.73434z" fill="url(#linearGradient327)" mask="url(#mask4040)" opacity=".524753" transform="matrix(.62019555 0 0 .61807134 -296.79814 -204.62117)"/>
    <use transform="translate(9.90093 16.621146)" xlink:href="#use320"/>
    <path d="m633.86197 433.06281v12c0 28.57739 30.70201 49.9813 87.85678 49.9813s92.07059-28.34929 92.07059-52.52984v-11.22016z" fill="url(#linearGradient328)" mask="url(#mask4040)" opacity=".524753" transform="matrix(.61615497 0 0 .61404461 -301.70765 -218.7406)"/>
    <use id="use320" transform="matrix(.83078821 0 0 .83078821 55.240716 -272.42621)" xlink:href="#g176"/>
  </g>
  <g transform="translate(27.207755 -236.97077)">
    <path id="path117" d="m618.25 431.29411v12c0 28.57739 46.31398 51.75 103.46875 51.75s103.5-23.17261 103.5-51.75v-12z" fill="#2a2007" mask="url(#mask4040)" opacity=".524753" transform="matrix(.69994884 0 0 .69994884 -413.94713 139.53642)"/>
    <use transform="translate(-10.108708 57.727341)" xlink:href="#g176"/>
    <use transform="translate(0 17.899891)" xlink:href="#path161"/>
    <use transform="translate(-10.108708 38.884771)" xlink:href="#g176"/>
    <path id="path161" d="m618.25 431.29411v12c0 28.57739 46.31398 51.75 103.46875 51.75s103.5-23.17261 103.5-51.75v-12z" fill="url(#linearGradient307)" mask="url(#mask4040)" opacity=".524753" transform="matrix(.69994884 0 0 .69755147 -413.83843 104.84055)"/>
    <use transform="translate(-10.108708 21.177171)" xlink:href="#g176"/>
    <path d="m618.25 431.29411v12c0 28.57739 46.31398 51.75 103.46875 51.75s92.07059-18.55038 92.07059-46.01566v-17.73434z" fill="url(#linearGradient307)" mask="url(#mask4040)" opacity=".524753" transform="matrix(.69994884 0 0 .69755147 -405.83843 84.840549)"/>
    <g id="g176" transform="matrix(1.6847847 0 0 1.6790142 .587336 -1261.964)">
      <g transform="matrix(.41545299 0 0 .41545299 -74.514683 777.3969)">
        <ellipse cx="323.73126" cy="662.29254" fill="#3b1d06" filter="url(#filter3818)" opacity=".742574" rx="102.96402" ry="51.743935" transform="matrix(.99652538 0 0 1 1.124844 -170.35443)"/>
        <path d="m220.25 478.29411v12c0 28.57739 46.31398 51.75 103.46875 51.75s103.5-23.17261 103.5-51.75v-12z" fill="url(#linearGradient308)"/>
        <ellipse cx="323.73126" cy="478.53665" fill="url(#linearGradient309)" rx="103.48787" ry="51.743935"/>
        <path clip-path="url(#clipPath3719)" d="m323.71875 350.71875c-61.29985 0-110.96875 24.85007-110.96875 55.5s49.6689 55.5 110.96875 55.5 111-24.85007 111-55.5-49.70015-55.5-111-55.5zm0 3.75c57.15477 0 103.5 23.17261 103.5 51.75s-46.34523 51.75-103.5 51.75-103.46875-23.17261-103.46875-51.75 46.31398-51.75 103.46875-51.75z" fill="url(#linearGradient310)" filter="url(#filter3735)" transform="translate(0 72.31025)"/>
        <path clip-path="url(#clipPath3806)" d="m220.25 520.88864v4c0 28.57739 46.31398 51.75 103.46875 51.75s103.5-23.17261 103.5-51.75v-4c0 28.57739-46.34523 51.75-103.5 51.75s-103.46875-23.17261-103.46875-51.75z" fill="url(#linearGradient311)" filter="url(#filter3802)" transform="translate(0 -32.55588)"/>
        <path clip-path="url(#clipPath3911)" d="m323.71875 288.47087c-57.15477 0-103.46875 23.17261-103.46875 51.75 0 .16606-.003.33431 0 .5.53414-28.34821 46.64609-51.25 103.46875-51.25s102.96586 22.90179 103.5 51.25c.003-.16569 0-.33394 0-.5 0-28.57739-46.34523-51.75-103.5-51.75z" fill="url(#linearGradient312)" filter="url(#filter3921)" transform="translate(0 137.82186)"/>
        <path d="m323.71875 288.47087c-57.15477 0-103.46875 23.17261-103.46875 51.75 0 .16606-.003.33431 0 .5.53414-28.34821 46.64609-51.25 103.46875-51.25s102.96586 22.90179 103.5 51.25c.003-.16569 0-.33394 0-.5 0-28.57739-46.34523-51.75-103.5-51.75z" fill="url(#linearGradient312)" filter="url(#filter3877)" transform="matrix(1 0 0 -1 0 819.46502)"/>
      </g>
      <g opacity=".707921" transform="matrix(1.1802034 0 0 1.1802034 -10.80868 -191.01145)">
        <ellipse cx="323.73126" cy="662.29254" fill="url(#linearGradient7383)" filter="url(#filter4408)" rx="103.48787" ry="51.743935" transform="matrix(.27280796 0 0 .25106628 -28.336026 821.29161)"/>
        <path d="m59.96875 975.35593c-15.433929 0-27.9375 5.7418-27.9375 12.84375 0 .83226.171789 1.64927.5 2.4375.02188.0525.03923.10393.0625.15625.0069.0125.02429.0188.03125.0313 3.13326 5.60373 14.187766 9.74997 27.34375 9.74997s24.21049-4.14624 27.34375-9.74997c.03481-.0623.0609-.12488.09375-.1875.328211-.78823.53125-1.60524.53125-2.4375 0-7.10195-12.534821-12.84375-27.96875-12.84375z" fill="url(#linearGradient7385)"/>
        <path clip-path="url(#clipPath4368)" d="m-39.026199 905.90593c-15.433929 0-28.3375 6.0418-28.3375 13.14375 0 .83226.171789 1.64927.5 2.4375.02188.0525.03923.10393.0625.15625.0069.0125.02429.0188.03125.0313 3.13326 5.60373 14.587766 10.05 27.74375 10.05s24.51049-4.44627 27.64375-10.05c.03481-.0623.0609-.12488.09375-.1875.328211-.78823.53125-1.60524.53125-2.4375 0-7.10195-12.834821-13.14375-28.26875-13.14375z" fill="none" filter="url(#filter4396)" opacity=".579208" stroke="url(#linearGradient314)" transform="translate(99.001627 69.15)"/>
      </g>
    </g>
  </g>
</svg>
