<svg height="256" width="256" xmlns="http://www.w3.org/2000/svg" xmlns:xlink="http://www.w3.org/1999/xlink">
  <defs>
    <radialGradient id="radialGradient2579" cx="-185" cy="11" fx="-185" fy="11" gradientTransform="matrix(-1.230132 .663002 -.663002 -1.230132 -107.74498 260.7485)" gradientUnits="userSpaceOnUse" r="118.3596" xlink:href="#lineargradient335345"/>
    <radialGradient id="lineargradient335345" cx="-185" cy="11" fx="-185" fy="11" gradientTransform="matrix(-1 0 -0 -1 -146 109)" gradientUnits="userSpaceOnUse" r="118.3596">
      <stop offset="0" stop-color="#f2f2f2"/>
      <stop offset="1" stop-color="#c4c4c4"/>
    </radialGradient>
    <linearGradient id="linearGradient2576" gradientTransform="matrix(-1.230132 .663002 -.663002 -1.230132 -107.74498 260.7485)" gradientUnits="userSpaceOnUse" x1="-174" x2="-174" xlink:href="#lineargradient385345" y1="96" y2="6.0004"/>
    <linearGradient id="lineargradient385345" gradientTransform="matrix(-1 0 -0 -1 -146 109)" gradientUnits="userSpaceOnUse" x1="-174" x2="-174" y1="96" y2="6.0004">
      <stop offset="0" stop-color="#e8e8e8"/>
      <stop offset="1" stop-color="#fff"/>
    </linearGradient>
    <linearGradient id="linearGradient2570" gradientTransform="matrix(-1.230132 .663002 -.663002 -1.230132 -107.74498 260.7485)" gradientUnits="userSpaceOnUse" x1="-183.25" x2="-183.25" xlink:href="#lineargradient395310" y1="9.5508" y2="101.1498"/>
    <linearGradient id="lg1">
      <stop offset="0" stop-color="#c4c4c4"/>
      <stop offset="1" stop-color="#757575"/>
    </linearGradient>
    <linearGradient id="lineargradient395310" gradientTransform="matrix(-1 0 -0 -1 -146 109)" gradientUnits="userSpaceOnUse" x1="-183.25" x2="-183.25" xlink:href="#lg1" y1="9.5508" y2="101.1498"/>
    <linearGradient id="linearGradient2567" gradientTransform="matrix(-1.230132 .663002 -.663002 -1.230132 -107.74498 260.7485)" gradientUnits="userSpaceOnUse" x1="-160.75" x2="-160.75" xlink:href="#lg1" y1="4.4854" y2="78.504997"/>
    <linearGradient id="linearGradient3146" gradientTransform="matrix(1.0838552 .00175527 -.00175527 1.0838552 -235.15905 -22.109879)" gradientUnits="userSpaceOnUse" x1="290.9375" x2="233.81979" xlink:href="#XMLID_7_" y1="27.1499" y2="184.0795"/>
    <linearGradient id="XMLID_7_" gradientTransform="matrix(.9659 -.2588 .2588 .9659 -368.9027 -26.63475)" gradientUnits="userSpaceOnUse" x1="290.9375" x2="233.81979" y1="27.1499" y2="184.0795">
      <stop offset="0" stop-color="#eee"/>
      <stop offset=".2012" stop-color="#fff"/>
      <stop offset=".3969" stop-color="#f9f9f9"/>
      <stop offset=".574" stop-color="#eee"/>
      <stop offset=".7988" stop-color="#fff"/>
    </linearGradient>
    <radialGradient id="radialGradient2586" cx="302.082" cy="48.148399" gradientTransform="matrix(1.0838083 -.01139191 .01139191 1.0838083 -235.96329 -19.01686)" gradientUnits="userSpaceOnUse" r="27.934401">
      <stop offset=".0056" stop-color="#eee"/>
      <stop offset=".0174" stop-color="#efefef"/>
      <stop offset=".2428" stop-color="#fbfbfb"/>
      <stop offset=".4663" stop-color="#fff"/>
      <stop offset=".5989" stop-color="#fafafa"/>
      <stop offset=".7515" stop-color="#ecedee"/>
      <stop offset=".8428" stop-color="#f3f4f5"/>
      <stop offset="1" stop-color="#fcfcfc"/>
    </radialGradient>
    <radialGradient id="radialGradient2590" cx="336.8938" cy="-319.7261" gradientTransform="matrix(.20763267 .05599295 .05049216 -.20911609 -314.15139 -79.217026)" gradientUnits="userSpaceOnUse" r="130.5231" xlink:href="#XMLID_11_"/>
    <radialGradient id="XMLID_11_" cx="336.8938" cy="-319.7261" gradientTransform="matrix(.198406 0 -.00525635 -.198406 -452.9859 -58.52922)" gradientUnits="userSpaceOnUse" r="130.5231">
      <stop offset="0" stop-color="#a4c0e4"/>
      <stop offset="1" stop-color="#6193cf"/>
    </radialGradient>
    <radialGradient id="XMLID_12_" cx="336.8938" cy="-319.7261" gradientTransform="matrix(.198406 0 -.00525635 -.198406 -93.84279 22.97293)" gradientUnits="userSpaceOnUse" r="130.5231">
      <stop offset="0" stop-color="#a4c0e4"/>
      <stop offset=".6036" stop-color="#6193cf"/>
      <stop offset="1" stop-color="#a4c0e4"/>
    </radialGradient>
    <linearGradient id="linearGradient3148" gradientUnits="userSpaceOnUse" x1="146.74988096492" x2="78.209607238" y1="293.2870268526" y2="33.32140175533">
      <stop offset="0"/>
      <stop offset="1" stop-opacity="0"/>
    </linearGradient>
    <radialGradient id="radialGradient3142" cx="11.026738" cy="7.9995" gradientTransform="matrix(.740051 -.177588 .177588 .740051 -.87971 35.64337)" gradientUnits="userSpaceOnUse" r="156.98399">
      <stop offset=".0765" stop-color="#ffce05"/>
      <stop offset=".18870001" stop-color="#f9d940"/>
      <stop offset=".3467" stop-color="#fde446"/>
      <stop offset=".4294" stop-color="#ffeb55"/>
      <stop offset=".6882" stop-color="#ffeb55"/>
      <stop offset=".7281" stop-color="#fee951"/>
      <stop offset=".7641" stop-color="#fde446"/>
      <stop offset=".7987" stop-color="#fadb34"/>
      <stop offset=".8322" stop-color="#f7cf1a"/>
      <stop offset=".8588" stop-color="#f3c300"/>
      <stop offset=".9208" stop-color="#fbd400"/>
      <stop offset=".9706" stop-color="#fd0"/>
    </radialGradient>
    <linearGradient id="linearGradient3144" gradientUnits="userSpaceOnUse" x1="-23.34272013936" x2="107.2154302632" y1="7.7088862821" y2="106.21219103962">
      <stop offset="0" stop-color="#fff"/>
      <stop offset=".25" stop-color="#fff" stop-opacity=".449275"/>
      <stop offset=".45480227" stop-color="#fff" stop-opacity=".698039"/>
      <stop offset=".5" stop-color="#fff" stop-opacity=".942029"/>
      <stop offset="1" stop-color="#fff" stop-opacity="0"/>
    </linearGradient>
    <linearGradient id="linearGradient2467" gradientTransform="matrix(1.34442 -.424176 .424176 1.34442 -281.86207 102.83076)" gradientUnits="userSpaceOnUse" x1="290.9375" x2="233.81979" xlink:href="#XMLID_7_" y1="27.1499" y2="184.0795"/>
    <linearGradient id="linearGradient2426" gradientTransform="matrix(.25836 -.08237908 .08628938 .30165 41.59368 60.640184)" gradientUnits="userSpaceOnUse" x1="8.207305" x2="134.41685" xlink:href="#XMLID_12_" y1="219.11998" y2="219.11998"/>
    <linearGradient id="linearGradient2423" gradientTransform="matrix(.266414 -.08494784 .0867472 .30325 56.28728 107.74724)" gradientUnits="userSpaceOnUse" x1="81.624855" x2="73.938446" xlink:href="#XMLID_11_" y1="-4.648431" y2="133.6398"/>
    <linearGradient id="linearGradient2420" gradientTransform="matrix(.266414 -.08494784 .0867472 .30325 56.44468 107.84736)" gradientUnits="userSpaceOnUse" x1="73.783409" x2="59.461929" xlink:href="#XMLID_12_" y1="-17.918573" y2="151.13226"/>
    <radialGradient id="radialGradient2413" cx="62.292" cy="8.7803" gradientTransform="matrix(.53026 -.19580158 .10701168 .289806 143.18748 131.30454)" gradientUnits="userSpaceOnUse" r="40.710899">
      <stop offset="0" stop-color="#79b5e5"/>
      <stop offset=".7303" stop-color="#4a8cd9"/>
      <stop offset=".88876778" stop-color="#4788d5"/>
      <stop offset="1" stop-color="#79b5e5"/>
    </radialGradient>
    <radialGradient id="radialGradient6935" cx="-185" cy="11" fx="-185" fy="11" gradientTransform="matrix(-.8660258 -.50000054 .50000054 -.8660258 -160.24676 20.776927)" gradientUnits="userSpaceOnUse" r="118.3596" xlink:href="#lineargradient335345"/>
    <linearGradient id="linearGradient6937" gradientTransform="matrix(-.8660258 -.50000054 .50000054 -.8660258 -160.24676 20.776927)" gradientUnits="userSpaceOnUse" x1="-174" x2="-174" xlink:href="#lineargradient385345" y1="96" y2="6.0004"/>
    <linearGradient id="linearGradient6939" gradientTransform="matrix(-.422559 0 0 -.422559 -46.511804 57.058931)" gradientUnits="userSpaceOnUse" x1="-179.25" x2="-179.25" xlink:href="#lg1" y1="18.644501" y2="78.785599"/>
    <linearGradient id="linearGradient6941" gradientTransform="matrix(-.8660258 -.50000054 .50000054 -.8660258 -160.24676 20.776927)" gradientUnits="userSpaceOnUse" x1="-183.25" x2="-183.25" xlink:href="#lineargradient395310" y1="9.5508" y2="101.1498"/>
    <linearGradient id="linearGradient6943" gradientTransform="matrix(-.422559 0 0 -.422559 -46.511804 57.058931)" gradientUnits="userSpaceOnUse" x1="-166.75" x2="-166.75" xlink:href="#lg1" y1="16.382799" y2="105.2062"/>
  </defs>
  <path d="m123.03224 99.85492-41.76914-77.498274c-8.40886-15.6017403-27.94154-21.45216026-43.54206-13.0439603-15.60054 8.4082003-21.452842 27.9403203-13.04398 43.5420603 0 0 2.42328 4.49614 2.78594 5.16902-.46364.0705-.9286.1798-1.36406.41452l-4.92052 2.652c-2.03464 1.0966-2.798002 3.64476-1.7014 5.6794l37.12814 68.887354c9.87078 18.3142 32.8004 25.18326 51.1146 15.31248 18.3142-9.87076 25.18326-32.8004 15.31248-51.1146zm-21.9425 38.8133c-6.5197 3.5139-13.92872 3.55752-20.29666.93502 6.36694 1.7547 13.3772 1.20688 19.63366-2.16516 6.25644-3.37202 10.5683-8.92648 12.60194-15.2088-1.30932 6.76028-5.41926 12.92502-11.93894 16.43894zm-35.6266-101.446014c-2.03464 1.0966-2.79798 3.64476-1.70138 5.6794l35.13912 65.196954c3.29048 6.10516 1.00096 13.74774-5.10418 17.03822-6.1039 3.2898-13.7477 1.00098-17.0382-5.10418l-39.78012-73.807874c-4.7524-8.81758-1.4449-19.85832 7.37268-24.61074 8.81758-4.7524 19.85832-1.4449 24.61074 7.37268 0 0 2.43918 4.52566 2.78592 5.16902-.46364.0705-.92858.17982-1.36406.41452z" fill="#323232" opacity=".05" stroke-width="2"/>
  <path d="m121.8021 100.51792-41.76912-77.498274c-8.04288-14.9227203-26.72622-20.5197203-41.64894-12.47684-14.92272 8.04288-20.519722 26.72622-12.47684 41.64894l39.78012 73.807874c6.58096 12.2103 21.86736 16.78862 34.07642 10.20834 12.21028-6.58096 16.78928-21.86612 10.20832-34.07642l-35.13912-65.196954c-.7313-1.35684-2.4282-1.8662-3.78626-1.13426l-4.92054 2.65202c-1.35806.73194-1.86554 2.42942-1.13426 3.78626l35.13912 65.196954c3.65646 6.78418 1.11166 15.27554-5.67128 18.93134-6.78296 3.6558-15.27556 1.11166-18.93134-5.67128l-39.78014-73.807894c-5.11838-9.4966-1.5568-21.38548 7.93982-26.50386 9.4966-5.11838 21.38548-1.5568 26.50386 7.9398l41.76914 77.498274c6.58096 12.21028 2.00196 27.49544-10.20832 34.0764-12.20906 6.5803-27.49544 2.00196-34.0764-10.20832l-37.12814-68.887354c-.73128-1.35684-2.42942-1.86554-3.78626-1.13426l-4.92052 2.65202c-1.35684.73128-1.86556 2.42942-1.13426 3.78626l37.12812 68.887354c9.5048 17.63516 31.58508 24.25082 49.22148 14.74536 17.63516-9.5048 24.25082-31.58508 14.74534-49.22148z" fill="#323232" opacity=".17" stroke-width="2"/>
  <path d="m120.57198 101.18092-41.76914-77.498254c-7.6769-14.2437003-25.51088-19.5872803-39.7558-11.90972-14.24492 7.67756-19.58662 25.51212-11.90972 39.7558l39.78014 73.807874c6.21498 11.53126 20.65202 15.85618 32.18326 9.6412 11.53126-6.21498 15.85618-20.65202 9.6412-32.18326l-35.13912-65.196974c-.36664-.68026-1.21286-.93376-1.89312-.56712l-4.92054 2.652c-.68026.36664-.93376 1.21288-.56712 1.89314l35.13912 65.196954c4.0211 7.46076 1.22232 16.80336-6.23842 20.82448-7.46076 4.0211-16.80336 1.22232-20.82448-6.23842l-39.78012-73.807894c-5.4837-10.1744-1.66748-22.9133 8.50694-28.397 10.1744-5.48368 22.9133-1.66748 28.397 8.50694l41.76914 77.498274c6.94626 12.88808 2.11262 29.02326-10.77546 35.96954s-29.02326 2.11264-35.96954-10.77546l-37.12812-68.887354c-.36664-.68026-1.21288-.93376-1.89314-.56712l-4.92052 2.652c-.68026.36664-.93378 1.21288-.56714 1.89314l37.12814 68.887354c9.13948 16.95736 30.37098 23.31772 47.32834 14.17822 16.95736-9.13948 23.3177-30.37098 14.17822-47.32834z" fill="#323232" opacity=".23" stroke-width="2"/>
  <path d="m105.06774 146.049c16.3054-8.7881 22.3992-29.12982 13.6111-45.4352l-41.76914-77.498274c-7.32352-13.5880203-24.27464-18.6661003-37.86266-11.34258-13.58804 7.32352-18.6661 24.27464-11.34258 37.86266l39.78012 73.807894c5.8583 10.86944 19.4207 14.93234 30.29014 9.07406s14.93302-19.41946 9.07406-30.29014l-35.1391-65.196954-4.92054 2.652 35.13912 65.196974c4.38708 8.13976 1.33424 18.3305-6.80554 22.7176-8.13978 4.38708-18.33052 1.33422-22.71762-6.80556l-39.78012-73.807874c-5.849-10.85222-1.77816-24.44114 9.07406-30.29014s24.44114-1.77814 30.29014 9.07408l41.76914 77.498254c7.3116 13.5659 2.22208 30.55176-11.34258 37.86268-13.5659 7.31158-30.55174 2.22208-37.86268-11.34258l-37.12812-68.887354-4.92052 2.652 37.12812 68.887354c8.7881 16.3054 29.12982 22.3992 45.4352 13.6111z" fill="url(#radialGradient2579)" stroke-width="2"/>
  <path d="m92.66244 128.92304c.2079-.112.39704-.24416.5985-.36226-8.02952 3.9054-17.81158.82436-22.08596-7.1063l-38.55-74.470874c-5.73696-10.64432-3.1437-23.24002 7.24544-29.26488-.2093.10646-.42374.1887-.63164.30074-10.85222 5.84902-14.92306 19.43792-9.07406 30.29014l39.78012 73.807874c4.3871 8.13978 14.57784 11.19264 22.7176 6.80556zm-18.213-104.481514 41.76914 77.498274c8.67738 16.09996 2.839 36.12622-13.00464 45.08772.20742-.107.41824-.2048.62368-.31552 16.30538-8.78808 22.39918-29.1298 13.6111-45.4352l-40.53902-78.161274c-7.32352-13.5880203-25.50476-18.0031003-39.0928-10.67958-.20788.11204-.39448.24596-.59848.36226 13.47786-6.8387003 30.01954-1.73682 37.23102 11.64332zm31.16922 78.448894-35.13912-65.196954-1.23012.663 35.1391 65.196954c5.7469 10.66278 1.93146 23.89498-8.47556 29.92788.20874-.1046.42374-.1886.63164-.30074 10.86944-5.85828 14.933-19.41946 9.07406-30.29014zm-5.66318 39.56406c.20788-.112.39448-.24594.59848-.36226-13.4595 6.82564-30.03148 1.71468-37.23102-11.64332l-37.12812-68.887354-1.23014.663 37.12812 68.887354c7.31094 13.56466 24.29678 18.65418 37.86268 11.34258z" fill="url(#linearGradient2576)" stroke-width="2"/>
  <path d="m71.37412 26.099046 41.76914 77.498254c7.19954 13.358 2.35682 30.01242-10.7441 37.50042.20932-.1064.42374-.1886.63164-.30074 13.56466-7.31092 18.65418-24.29678 11.34258-37.86268l-41.76914-77.498274c-5.849-10.8522-19.43792-14.92306-30.29012-9.07406-.2079.11206-.3945.24596-.5985.36226 10.74452-5.36552 23.92154-1.26952 29.6585 9.37482z" fill="url(#linearGradient2570)" stroke-width="2"/>
  <path d="m104.45268 146.3805c.20544-.1108.403-.23308.60644-.34748-16.19636 8.30706-36.13414 2.17334-44.81152-13.92662l-37.12812-68.887354-1.23012.663 37.12812 68.887354c8.7881 16.3054 29.12982 22.3992 45.4352 13.6111z" fill="url(#linearGradient2567)" stroke-width="2"/>
  <g transform="matrix(2.16927 0 0 2.16927 -.685464 12.977248)">
    <path d="m115.40636 26.98002c-.2658-.000955-5.48815-.0094-112.0385396-.179489-1.4699773-.0024-2.76288105.987112-3.14528102 2.405125l-.11140802.837734c.005691-.03776.0188621-.153202.0314914-.225011-.0313406.445083-.0388182 5.30172-.15229214 76.253721-.00260675.85472.34372019 1.69353.94700789 2.29965.54856419.55095 1.29286259.8673 2.06741809.92575.50003.0316 6.8692342.0417 112.2714434.21086.86737.002 1.68415-.3339 2.29966-.94701.40979-.40813.69718-.90765.84393-1.45184.0737-.27313.11202-.55691.11185-.84771l.12205-76.025009c.003-.864708-.33237-1.681492-.94701-2.299654-.60852-.607532-1.44635-.955839-2.30032-.957117zm-112.4530468 82.31258c.00837.002.018073.004.045646.006-.01598-.003-.030995-.002-.045646-.006z" fill="#323232" opacity=".05" stroke-width="1.08389"/>
    <path d="m115.40374 28.063754c-.00209-.000564-112.0385402-.179488-112.0385402-.179488-1.0019773-.0019-1.8472437.680588-2.0964386 1.604651-.047976.177905-.074059.366206-.07446.559186 0 0-.1226115 76.027097-.1226115 76.027097-.00104.57001.2289861 1.12823.6316874 1.5332.4016548.40468.9597699.63714 1.5321503.6377.00105.00028 112.0406326.18005 112.0406326.18005.5779.00093 1.12207-.22279 1.5332-.63168.41113-.4089.63754-.95293.63799-1.5332l.12232-76.026053c.002-.577613-.22278-1.122069-.63168-1.533197-.4048-.405531-.96396-.638272-1.53425-.638266z" fill="#323232" opacity=".2" stroke-width="1.08389"/>
    <path d="m115.40322 29.148053-112.0395944-.179771c-.5981433-.00077-1.0845383.483252-1.0855905 1.082442l-.1223293 76.026056c-.00108.28709.1129233.56369.3163669.76674.2034437.20304.4789796.31776.7660752.31885l112.0395921.17977c.59814.00077 1.08454-.48325 1.08559-1.08244l.12233-76.026057c.001-.287095-.11292-.563692-.31637-.76674-.20316-.204094-.4787-.318812-.76607-.31885z" fill="#323232" opacity=".25" stroke-width="1.08389"/>
    <rect fill="#323232" height="76.024948" opacity=".3" stroke-width="1.08389" transform="matrix(-.99999869 -.00161932 .00161932 -.99999869 0 0)" width="112.03609" x="-115.45942" y="-106.06863"/>
    <rect fill="#fff" height="76.024948" stroke-width="1.08389" transform="matrix(-.99999869 -.00161932 .00161932 -.99999869 0 0)" width="112.03609" x="-114.69287" y="-104.74112"/>
    <path d="m3.5963074 29.724803c-.0030873 1.922197-.1155192 72.104367-.1186064 74.026567 1.9471962.002 108.092139.17275 110.038779.17681.003-1.92324.11523-72.103321.1186-74.026565-1.94691-.003-108.0908122-.173513-110.0387726-.176812z" fill="url(#linearGradient3146)" stroke-width="1.08389"/>
    <path id="path859" d="m46.162269 87.384484c-.306162.548343-.624715.984451-.958237 1.305385-.334567.320651-.631753.481869-.893368.482043-.209807-.000449-.374813-.0921-.498158-.275789-.122581-.182364-.184311-.428023-.183661-.73432.000617-.618391.18569-1.158975.554452-1.62308.367434-.46334.793706-.695272 1.280343-.693139.291846.00012.608008.09324.951907.279156l.317695-1.573544c-.172063.03443-.314894.05204-.42821.05179-.171686-.000272-.297384-.04203-.377377-.12422-.08027-.08115-.145262-.23563-.19267-.459465.139643.09828.356999.145667.647798.145506.362009.0022.711367-.06524 1.047708-.196816l-.646325 3.212616c-.07313.358599-.109525.664237-.111562.917398-.000661.335482.0964.504229.287291.504066.187466.000037.500174-.218739.936595-.658985.438796-.440728.804055-.900164 1.095294-1.380684l.240377.153509c-.349069.636685-.78341 1.206591-1.30588 1.707828-.521706.502565-.937277.7531-1.248043.752368-.395179.000078-.592296-.318015-.590867-.951904.000108-.262661.02498-.542219.0749-.839721zm.155784-.777494c-.405454-.269873-.741887-.404382-1.012721-.403326-.291564-.0012-.544397.178747-.759263.538414-.214867.359667-.321838.785477-.323007 1.276865-.000203.396226.128409.593688.385274.594478.27683.0017.81086-.613186 1.601243-1.841472.0141-.02314.05083-.0761.108474-.164959zm-1.819512.103187c-.40564.767368-.813466 1.368-1.221667 1.803508-.408482.436554-.769294.654706-1.084528.653891-.229008-.000014-.412734-.08885-.553552-.266029s-.210203-.406941-.210447-.693272c.0016-.160092.03132-.386713.08981-.678535l.584378-2.932953c-.07488.01124-.141784.01789-.198824.01711-.448799-.00091-.672738-.1904-.671535-.569518l-.000293-.06968c.23471.132897.499276.200875.793497.200514.294986.000967.553732-.07183.773864-.217902l-.684413 3.524534c-.06156.315692-.09107.533377-.09197.653255-.000297.329967.119956.495986.362651.495201.234524.000378.470671-.13015.706913-.394244.238336-.263529.628677-.828463 1.171422-1.687957zm-5.787334 2.357219c-.133671.06274-.241003.09442-.321713.09398-.199542-.001-.299135-.08965-.299063-.264758.0006-.08965.03551-.314857.107032-.671644l.147553-.730319c.09136-.434511.135406-.756047.136619-.964525.0016-.114081-.03111-.209337-.09492-.284922.203999-.0696.371876-.105152.50069-.104093.136705.000942.204539.08659.205513.261981-.002.107238-.04975.388477-.148647.846776l-.165839.852243c.368707-.71783.74101-1.274156 1.116427-1.671355.375418-.397199.714041-.595514 1.017963-.594383.10752.00093.201623.0308.279369.09218.07747.06243.117607.138363.116243.226682-.00066.135657-.148349.316984-.446205.543132-.07497-.15493-.179762-.232585-.31542-.233244-.249257.000138-.565163.264078-.949812.791255-.240335.329224-.446136.667762-.623199 1.016294-.177345.349578-.26476.598799-.265385.746815zm-1.593844-2.140674c.0065.04666.0086.08876.009.124793-.000958.565537-.193014 1.057088-.576734 1.476745-.383719.419657-.832966.628554-1.348024.627738-.392804-.000403-.711529-.125646-.957985-.377339s-.370869-.577123-.369255-.978582c.0016-.455359.159477-.849467.481652-1.182442.319035-.333821.696249-.5004 1.130596-.500019.06759-.000858.136822.0088.210642.02649-.04835-.08713-.07299-.162257-.07241-.222719.000118-.09202.03256-.183185.09725-.269022.476478.03981.873208.283753 1.18886.732602.324321.221051.662212.333501 1.011381.333363.228727.0011.475197-.07617.741505-.231118l.14578.250363c-.311379.218012-.629918.325199-.95437.325266-.216369-.0011-.463473-.0464-.737892-.136123zm-.665023-.252308c-.162126-.04821-.312364-.128018-.449185-.236762-.09978-.0213-.182421-.03123-.248115-.03323-.332343.000185-.626424.149891-.884338.448555-.257632.297617-.386708.638883-.387993 1.022469-.00092.278159.07664.506756.231342.686557.156315.17799.355539.267639.598716.269228.332061.000862.617253-.165836.855013-.497999.239089-.332928.359452-.729306.360609-1.191509-.000175-.161703-.02571-.316775-.07605-.467307zm-7.749171 2.521936c.05229-.198071.07893-.459192.07858-.782598.0025-.791888-.05833-1.557073-.18173-2.294226-.12187-.734496-.281251-1.288264-.474804-1.657036.199401-.04838.342879-.07256.432525-.07196.129097.000013.224999.06068.282473.180578.06061.120748.135572.404776.226402.854739.141048.692518.242703 1.639349.305447 2.842868.655255-1.343309 1.189748-2.396995 1.602914-3.158965.0248-.0045.04485-.0081.05616-.0084.08209-.01716.137198-.02587.167429-.02557.163796.00039.242824.07783.242882.231645.000222.04496-.0048.100876-.01569.166406-.07795.634582-.117113 1.104499-.117681 1.406328l-.0096.335317-.0034.200024c-.000866.731708.110166 1.098433.33366 1.098082.254772.000226.515731-.263938.782395-.794867.29672-.592426.445424-1.285388.446114-2.078887.0013-.342043-.08487-.659406-.257679-.955228.140503-.03396.269647-.05077.384292-.05129.179576.000155.307484.05036.38135.151112.07387.100748.110869.27575.110525.522631-.0022.8032-.233621 1.619791-.697819 2.45444-.214232.38229-.454038.697063-.720465.944036-.269084.248502-.501162.37227-.69994.37255-.223211-.000696-.379187-.125831-.47163-.37416-.08902-.248529-.13397-.677138-.133517-1.286593.000825-.244506.01354-.62052.03995-1.126429-.473087.817658-.833362 1.491734-1.082436 2.024039l-.098086.213764c-.138835.285871-.249567.459202-.331148.520275-.0813.06003-.27281.108293-.577473.147375zm58.591366-8.263741c.06668.148205.09931.289472.09893.424083-.0011.299454-.125986.558763-.376703.780785-.250717.222021-.544058.331514-.880868.331616-.197449-.000484-.366336-.05276-.504086-.1539-.138514-.102465-.208064-.223378-.207804-.365879.000707-.152485.09742-.307143.287488-.462448.190066-.155304.511616-.340262.96151-.555721l-.23493-.377685c-.284692-.459584-.427449-.816903-.427423-1.075096-.000008-.370463.216363-.669104.649113-.895921.266565.102196.398306.229777.398081.384636-.000332.217697-.169609.429125-.508797.629534l.33229.616113.26154.47467c.373252-.222656.65467-.412823.843772-.572878.189866-.158726.429683-.402772.720015-.73423l.232935.143645c-.421818.560935-.968429 1.030964-1.645063 1.408676zm-.498904.263985c-.575406.306222-.864291.544893-.865327.71525.000175.161703.115713.241133.348908.242276.170639-.000011.312882-.05707.419686-.17421.107568-.115809.161611-.266258.161566-.449256.00073-.110941-.02116-.221248-.06483-.33406zm-3.780578.739609c-.133671.06274-.240721.09337-.321713.09398-.200871-.000284-.299136-.08965-.30011-.265039.000601-.08965.03628-.313529.108079-.671363l.147553-.730319c.09107-.433464.135406-.756047.136901-.965572.0013-.113034-.03111-.209336-.09625-.284156.205045-.06932.372922-.104871.50069-.104094.13775.0012.205584.08687.204748.260653-.000166.108848-.04927.390852-.146554.84734l-.167167.853007c.36947-.716501.741773-1.272827 1.117191-1.670026.373042-.396717.714041-.595514 1.018245-.595429.107519.00093.200576.03051.279087.09322.07803.06033.117889.137317.116807.224588-.00066.135658-.149395.316703-.446205.543133-.07525-.153884-.180044-.231538-.316749-.23248-.24821.000421-.563834.263314-.950094.792302-.239007.32846-.444807.666997-.622152 1.016576-.177063.348532-.265525.59747-.265103.745768zm-1.593844-2.140673c.0065.04666.0089.08772.009.124793-.0017.564208-.193014 1.057087-.57778 1.476462-.382673.41994-.83192.628837-1.346978.628021-.392804-.000404-.711247-.126693-.957985-.37734-.247502-.251975-.370587-.578169-.369537-.977535.0018-.456406.161088-.851278.480887-1.18377.320364-.334586.697296-.500118 1.131643-.499738.06759-.000857.135775.0085.210642.02649-.04835-.08713-.073-.162256-.07241-.222718.000401-.09307.03256-.183186.09724-.269022.476478.03981.873208.283753 1.18886.732601.324039.222098.661166.333219 1.011381.333363.229009.000014.475479-.07721.741787-.232164l.14578.250363c-.312426.217729-.629636.324152-.95437.325266-.216651-.000049-.463755-.04536-.738174-.135076zm-.665023-.252309c-.16289-.04954-.312364-.128018-.449185-.236762-.09978-.0213-.183467-.03151-.248398-.03218-.33206-.000862-.626141.148845-.883773.446462-.257914.298663-.38699.639929-.388275 1.023515-.000638.277113.07664.506757.231624.685511.156033.179037.354975.269732.598434.270275.332343-.000185.617253-.165836.855295-.499046s.359453-.729306.359563-1.191792c.000307-.159327-.02495-.315445-.07528-.465978zm-1.662324.01984c-.406686.767086-.813748 1.369047-1.221666 1.803508-.40953.436272-.770341.654424-1.085575.653609-.227962.000269-.412734-.08885-.553552-.266029s-.210203-.406941-.210447-.693272c.000589-.160374.03027-.386995.08876-.678817l.585425-2.932671c-.07592.01096-.142831.01761-.199871.01682-.447752-.000627-.672737-.1904-.670488-.569235l-.000293-.06968c.23471.132897.498229.200593.793497.200514.295268-.00008.552685-.07211.773864-.217902l-.68546 3.524252c-.06156.315692-.09108.533377-.09197.653255-.000297.329967.121002.496268.362651.495201.234523.000378.47067-.130151.707959-.393962.237289-.263812.628676-.828463 1.170375-1.68824zm-4.134926.22195c.0055.04637.0079.08744.0077.125557.000371.564773-.192732 1.056041-.575404 1.475981-.384766.419375-.832967.628554-1.348025.627738-.393086.000643-.712575-.125929-.959031-.377622s-.369541-.577887-.368491-.977252c.00051-.455642.15976-.850515.48117-1.184818.319799-.332492.697013-.499071 1.13136-.498691.06654-.0011.136822.0088.210642.02649-.0494-.08741-.07299-.162256-.07345-.223.0014-.09279.03256-.183186.09725-.269022.477524.04009.874254.284035 1.18886.732601.324039.222098.662212.333501 1.012427.333645.229009.000014.476244-.07588.741505-.231118l.144733.250082c-.310332.218293-.627542.324716-.95437.325266-.215321-.000813-.462426-.04612-.736845-.135841zm-.665023-.252309c-.160797-.04897-.311317-.127735-.449184-.236761-.09978-.0213-.182422-.03123-.248398-.03219-.333107-.0011-.626142.148845-.885102.447226-.255539.298182-.386708.638883-.386947 1.022751-.000638.277113.07559.506475.231624.685511.154987.178755.353928.26945.599481.270557.331014.00058.61516-.1664.85292-.498564.240135-.332645.360781-.73007.360891-1.192555-.000739-.15961-.02495-.315446-.07528-.465979zm-1.665016.009c-.473158.792942-.976075 1.417325-1.506658 1.873715-.530301.455343-1.022749.6829-1.475252.683237-.378071-.000921-.684355-.130667-.917806-.388957-.233451-.258289-.350574-.594101-.349559-1.005825.000546-.543196.203585-1.017191.608551-1.419892.404967-.402702.879048-.603779 1.42329-.602951.222448-.000633.402811.04239.544794.127832.141219.08411.211781.192947.213296.324701-.0013.212947-.183071.374977-.549996.482587.01926-.04645.02826-.09229.0288-.135928.0011-.31628-.16686-.476079-.502342-.476741-.290799.000162-.559083.162438-.804086.488158-.245768.324391-.36853.679709-.369133 1.069092.000514.314469.08176.571005.243746.769608.161984.198602.374165.298481.636826.298589.71935.000901 1.562348-.743945 2.53004-2.234256zm-7.998898.05109-.0597.00074c-.290517-.000884-.544513.07095-.763317.216255.04825-.249679.118236-.4093.208354-.477052.09088-.06642.282628-.09891.574474-.09879l.111224-.000317.09749-.48225c.13303-.655653.345288-1.13053.634032-1.418634.356039-.358643.750327-.538579 1.182299-.537717.168264.000472.312682.03942.434299.117119.120007.07951.181115.173451.180385.284393-.000813.11541-.126501.244293-.378193.390837-.06968-.299442-.229145-.449094-.479448-.449238-.444048-.0019-.761897.481574-.955839 1.446357l-.130573.650703 1.021179.0015c.465907-.00009.809209-.02426 1.027047-.07441-.094.207031-.20145.330729-.32054.372706-.121184.04141-.429704.06149-.927935.06072l-.875256-.0014-.506674 2.5116c-.04998.2436-.07542.454524-.0751.636475-.0021.116174.0241.218673.07466.314258-.194698.06425-.344902.09671-.450046.0953-.162749-.000108-.242577-.09124-.241858-.272906.00026-.142501.0322-.377494.09763-.703369zm-1.318329.172109c.0073.04799.0094.09009.0084.126886-.000676.56449-.192732 1.056041-.576169 1.474651-.384001.420704-.832202.629884-1.34726.629067-.393851-.000685-.712293-.126975-.958749-.378668-.246738-.250646-.369823-.57684-.369819-.976488.0016-.45536.160041-.851561.483262-1.184253.317988-.334103.696249-.5004 1.130596-.50002.06598.000954.135494.0096.209031.02831-.04702-.0879-.07271-.163303-.07212-.223765.0004-.09307.03228-.182139.09725-.269022.476478.03981.873207.283753 1.189142.731555.324803.223427.662212.333501 1.012145.334692.229009.000014.475479-.07721.740741-.232447l.146826.250646c-.312143.216683-.629918.325199-.955417.324984-.21665-.000049-.461661-.04479-.737891-.136123zm-.664541-.249934c-.161844-.04926-.312082-.129064-.448138-.236479-.100829-.02158-.184232-.03284-.249445-.03247-.33206-.000861-.626141.148845-.882727.446744-.257913.298664-.38699.63993-.389604 1.02428-.000355.276066.07797.505992.232953.684747.155752.180082.353929.269449.598435.270274.331013.00058.616206-.166118.854248-.499328.238807-.331881.360499-.729024.359281-1.190745.000871-.161421-.02467-.316492-.075-.467025zm-6.737346.605711c-.25273.516725-.562712.958512-.929581 1.319847-.367151.362382-.687571.543154-.960216.542599-.207714.000116-.373484-.09286-.496547-.277599-.124109-.185021-.186603-.432009-.186236-.73726.0013-.612595.1879-1.150521.557992-1.61539.372466-.465351.800831-.696718 1.288033-.696679.296032.0012.614851.09284.960643.275899.05092-.18048.258466-.271572.620757-.270416.02367-.000352.06151.000871.114564.004-.111978.169627-.196971.401539-.255543.697829l-.0511.247787c-.05587.277935-.08603.602093-.08631.973603-.00078.427504.0986.64178.298425.641782.211136-.000316.498586-.175385.867665-.528266.365375-.351635.726765-.800888 1.082277-1.344904l.227937.158013c-.362638.645374-.776919 1.182522-1.242078 1.612773-.466205.429969-.86562.645569-1.199773.644143-.423035-.000698-.632416-.352409-.63128-1.055979.0014-.146687.0077-.344818.02037-.591734zm.137558-.701582c-.411251-.269191-.751388-.402453-1.022986-.402726-.296032-.0012-.55124.179147-.767918.537203-.215913.359385-.32393.784912-.324617 1.278675-.000204.396226.129456.59397.387367.595043.279205.0012.814564-.614433 1.60704-1.842154.01108-.0161.05103-.07268.121114-.166041zm-5.574459 1.263951c-.0013.571052.240288.857362.725115.857884.421707.0015.885523-.199016 1.392412-.596684.506407-.400043.964923-.926384 1.372126-1.578825l.24908.137895c-.384687.714643-.88437 1.30622-1.496675 1.774249-.612305.46803-1.195047.701548-1.743757.700638-.351544.000619-.629455-.113617-.832969-.341381s-.305351-.537002-.304948-.929807c.000476-.567912.187135-1.051937.558449-1.454733.370267-.403078.817257-.603603 1.338875-.60214.253725-.000056.454207.06411.60515.191258.152271.126382.227477.297092.227228.510321-.000909.348887-.211165.658157-.634192.92801-.423026.269854-.909277.403661-1.455894.403315zm.02334-.282216c.408714-.02113.762117-.136873 1.053647-.347888.293142-.212827.440455-.459366.441657-.738571-.000139-.249257-.11115-.374615-.33569-.374547-.266848-.0012-.511896.141485-.738767.424945-.225343.286118-.365531.631123-.420847 1.036061zm-3.96737.474818c-.0017.318373.08603.567666.26042.749407.174389.181741.41773.274306.725638.273145.274455.0022.513401-.08046.714943-.245017.201542-.164558.30262-.356209.303516-.575999-.000104-.236898-.222054-.562811-.664523-.978502l-.32131-.298821c-.411767-.383837-.617161-.737841-.617029-1.058871.000357-.375978.14854-.684026.441694-.926037.293153-.242011.666604-.361332 1.11806-.361951.241367-.000021.4355.03774.584009.111464.148509.07373.221693.168678.222691.285699-.000812.115409-.05243.24855-.158567.400669-.16986-.327582-.445537-.491733-.828076-.492736-.237945-.000179-.438604.07369-.601978.221595-.162046.147144-.244804.329142-.244571.544746.000222.144876.0263.256312.07908.331167.05298.07828.220575.243591.498226.500329l.263447.242804c.478685.447909.718154.850393.717928 1.205076.000231.415428-.165156.758128-.492256 1.030276-.33024.271301-.742142.408318-1.242466.406985-.334153-.0014-.609584-.07907-.826491-.236354-.218237-.156519-.327648-.354416-.327469-.592361-.000175-.161703.132216-.340419.395079-.536713zm-4.952951 1.12396c-.382821.000043-.688012-.146247-.915653-.434403-.226314-.288921-.339591-.676458-.338505-1.163378.0011-.799014.22733-1.492387.680637-2.078509.45359-.587168.989298-.879397 1.605597-.879344.401741.000568.717761.144166.946449.432604.226878.286828.342084.683866.339622 1.188377-.0011.799013-.230952 1.489165-.688845 2.067314-.458176.579196-1.001974.868121-1.629302.867339zm.240253-.324756c.378071.000921.711321-.248239 1.001279-.744821s.43491-1.07156.436104-1.721229c.0018-.955966-.289645-1.431977-.876759-1.432017-.377025-.000639-.707335.245945-.991696.738424-.283314.492761-.426455 1.06935-.426767 1.728237-.000997.952827.284412 1.430566.857839 1.431406zm-4.29103.317947c-.382821.000043-.688294-.145201-.915654-.434403-.227359-.289203-.339873-.675412-.338787-1.162332.0011-.799013.227612-1.493433.68092-2.079555.45359-.587168.988252-.879679 1.605314-.878297.40307-.000197.718808.144448.945685.431275.227924.28711.342084.683866.341715 1.188941-.0024.799778-.231998 1.488883-.689891 2.067032-.457129.579478-.999881.868685-1.629302.867339zm.241299-.324474c.378072.000921.712368-.247956 1.002043-.743492.288912-.496865.435193-1.072607.43534-1.722558.000515-.955202-.290692-1.432259-.875712-1.431735-.378072-.000921-.708664.24671-.992743.738142-.283314.492761-.425409 1.069632-.427814 1.727955-.000997.952827.284131 1.431612.858886 1.431688zm-2.94296-4.235558-.779932 3.999459c.212959-.02789.373862-.04175.488225-.04122.257147-.000256.427045.03995.512634.118037.08531.07914.128154.236629.128258.473528-.10391-.06844-.242895-.102548-.419049-.102903-.193263.000645-.427551.01605-.703429.0483l-.422977.0532c-.131519.0173-.312072.04158-.539646.07787-.07355.01048-.148063.0162-.218791.01621-.215321-.000813-.341041-.184024-.375267-.552488.101864.05104.202892.07604.306226.07584.211136-.000316.424294-.02478.639757-.07445l.650288-3.256452c-.322102.157866-.578073.237022-.764211.236221-.280534-.000438-.42127-.182085-.421642-.547033l-.000329-.08204c.117984.103664.253982.157178.405702.156556.2561-.000538.691119-.165 1.304093-.498136.02496-.01347.09607-.04819.21009-.10051zm-4.049451-.0076-.779933 3.999459c.21163-.02712.373862-.04175.486897-.04046.257146-.000256.428373.03918.513963.117273.08503.08018.127871.237675.127975.474574-.102863-.06815-.243659-.103877-.418002-.10262-.195074-.000967-.428316.01472-.704476.04801l-.423742.05187c-.130472.01758-.309978.04214-.538599.07815-.07383.01152-.147298.01753-.219837.01593-.213511.000798-.339995-.183741-.374503-.551159.102146.05.202893.07604.305462.07452.211136-.000315.424012-.02374.640804-.07417l.650288-3.256453c-.322385.158913-.577028.237305-.764493.237268-.281581-.00072-.420988-.183131-.421643-.547033l.000718-.08176c.117219.102335.252171.155567.405984.15551.2561-.000538.689026-.165565 1.303047-.498419.02468-.01243.09446-.04637.21009-.100509zm41.394525-3.719444c.0664.149251.09903.290518.09998.424365-.0013.3005-.127314.559527-.378031.781549-.250153.219929-.543011.331796-.880586.33057-.197731.000563-.365571-.05143-.504085-.1539-.13775-.101136-.207018-.223096-.206758-.365597-.00034-.152767.09609-.306379.286159-.461683.191394-.156069.51218-.342356.960463-.556004l-.234649-.378732c-.283928-.458255-.42612-.817666-.42533-1.074531-.000773-.371792.215316-.669386.648067-.896203.266564.102195.399351.230059.397798.385682.000715.21798-.169327.428079-.508514.628487l.332289.616114.261822.473623c.373734-.22028.654388-.411776.843208-.570785.191194-.15949.429683-.402772.718969-.734511l.235309.143162c-.421818.560935-.970521 1.0304-1.646109 1.408394zm-.49834.261892c-.575969.308314-.864855.546986-.864844.717625-.00059.160374.115713.241133.348143.240947.173015-.000492.312118-.0584.42045-.172881.106522-.116091.161612-.266258.161849-.450302.000165-.108849-.02249-.220484-.0656-.335389zm-5.113182-.296692c.697211-1.465585 1.320936-2.196593 1.875161-2.195318.431972.000863.647278.430509.645918 1.288938l.0056.354001c-.000168.408585.01984.692388.06164.8496.0418.157211.11817.236182.230723.235102.166935.0012.357636-.131445.572384-.39909.213137-.265835.563734-.799949 1.046075-1.606131l.246339.143891c-.430615.810027-.816864 1.409742-1.158264 1.801521-.340354.39206-.645524.587049-.915029.58734-.248975-.000908-.421859-.121622-.523685-.360133-.09917-.240039-.148269-.657419-.148428-1.247954l-.00062-.251632c.0012-.320749-.01809-.544854-.06039-.675256-.0402-.129838-.111304-.19504-.212262-.195323-.258193-.000026-.675966.512606-1.249697 1.541116-.140552.250608-.232681.413239-.273448.485318-.1505.262519-.226779.449631-.226063.567698.000987.04629.01252.09094.0367.134506-.113658.04681-.209796.07028-.287367.07069-.198777.00028-.297195-.109334-.296299-.329124-.00094-.06312.02526-.343442.07707-.843624l.0635-.635112c.03127-.269975.04617-.479252.04679-.627268-.000115-.207714-.04735-.369759-.140086-.487944.04074-.01371.109025-.03796.204281-.07064.121748-.04351.218368-.0646.290424-.06538.151438.000425.22695.11172.226818.332838-.000048.116739-.01611.317844-.04477.603117-.0059.06352-.01011.12076-.01775.1782zm-1.856127-1.105634c.0062.0477.0086.08876.0087.125839-.000675.564491-.192732 1.056041-.577497 1.475416-.382955.420986-.83192.628837-1.346978.628021-.392805-.000404-.711529-.125646-.957985-.377339-.246456-.251694-.370587-.57817-.369537-.977535.0016-.45536.159759-.850515.482216-1.184535.318752-.332775.695967-.499354 1.130314-.498973.06731.000188.136822.0088.210359.02754-.04807-.08818-.07271-.163303-.07212-.223765.0004-.09307.03228-.182139.09725-.269022.477524.04009.873207.283753 1.18886.732601.324039.222098.662212.333501 1.012427.333646.229009.000014.47548-.07721.740741-.232447l.14578.250363c-.311379.218012-.628872.325481-.954371.325267-.215603.000233-.464037-.04431-.738173-.135077zm-.665306-.251262c-.161561-.05031-.312363-.128018-.448902-.237808-.100065-.02025-.182421-.03123-.248398-.03219-.33206-.000861-.626142.148845-.883773.446462-.257914.298664-.38699.639929-.388558 1.024562-.000355.276066.07664.506757.231906.684464.155752.180083.354975.269732.599482.270557.331013.00058.616205-.166118.853966-.498282.239088-.332927.359734-.730352.360609-1.191509-.000457-.160656-.02599-.315727-.07633-.46626zm-1.664251.01034c-.474205.79266-.976358 1.418372-1.506376 1.872668-.530301.455343-1.02275.682901-1.476299.682955-.377024-.000638-.683591-.129338-.916759-.388674-.234498-.258571-.350856-.593055-.350606-1.006108.000546-.543195.204349-1.015862.608269-1.418845.406014-.402419.880377-.604543 1.424619-.603715.221401-.000915.402529.04344.545076.126785.140372.08725.211498.193994.210921.325184.000798.21351-.183072.374976-.54895.482869.02031-.04616.0293-.09201.02956-.134599.000332-.317609-.167907-.476362-.502342-.476742-.289471-.000602-.557755.161674-.802758.487394-.245767.324391-.368812.680755-.369133 1.069091-.000532.314188.08072.570724.243747.769609.160654.199366.374164.298481.636543.299636.718586-.000429 1.561583-.745275 2.529275-2.235585zm-3.423171-.0071c-.443079.772987-.890155 1.377629-1.34332 1.813359-.452118.436013-.857895.654388-1.216764.653033-.220072.00015-.395955-.07198-.529542-.213528-.133023-.143643-.200574-.330251-.199713-.562399.000318-.0886.01998-.228115.05927-.41959l.06458-.322735c.0964-.465707.143955-.79191.14532-.980141-.000316-.111223-.03204-.201729-.09936-.272645.254513-.0571.414135-.08702.476972-.08691.144595.000824.217132.102336.216001.306346-.000142.150391-.02881.364937-.08476.64734l-.114357.569757c-.0553.275842-.08512.453031-.08347.534306-.000543.24346.100285.364949.305906.364269.244506.000826.570089-.203252.977313-.614325.406943-.410027.800928-.930196 1.183767-1.558896zm-2.607527-1.478904.0407.0031c.130507-.0052.319208-.07221.56421-.198102.245283-.126943.436948-.254873.575559-.385885-.08622.269751-.239479.496724-.456566.677297-.331933.27758-.556651.415681-.67339.415633-.07834-.000918-.116879-.04948-.117242-.143878.000941-.136705.02265-.258828.06673-.368182zm-6.763694 2.805656c.696164-1.465867 1.319607-2.195829 1.874115-2.195601.431972.000863.647277.430509.646199 1.287892l.0056.354001c.000596.409913.01956.693435.06136.850646.04152.158258.118453.235136.230441.236148.168546-.000574.358965-.132209.573431-.398807.213419-.266881.564298-.802042 1.045028-1.606413l.247386.144173c-.431098.807652-.817629 1.408414-1.158265 1.801521-.341118.390732-.64657.586766-.915511.584965-.249256.000138-.422141-.120576-.523967-.359086-.09889-.241086-.148268-.65742-.148427-1.247955l.000425-.25135c.000133-.32103-.01914-.545136-.06143-.675538-.0402-.129838-.111587-.193993-.212545-.194276-.257911-.0011-.675966.512605-1.249697 1.541116-.139505.25089-.231352.412474-.273166.484271-.1505.262519-.226779.449632-.226063.567699.000705.04734.01252.09094.0367.134506-.112894.04814-.209796.07028-.287366.07069-.198496-.000766-.297196-.109333-.2963-.329123.000107-.06284.02526-.343442.07707-.843625l.06455-.634829c.03022-.270257.04512-.479535.04546-.626505.000167-.20876-.0463-.369476-.139804-.48899.04074-.01371.109025-.03795.204281-.07064.121748-.04351.218368-.0646.290424-.06538.152485.000707.226668.112767.226536.333885-.000048.116739-.01478.31708-.04449.60207-.0059.06352-.01011.12076-.01775.1782zm-3.896296-.171723c-.000558.57238.241053.85869.72588.859212.420943.000133.884476-.199298 1.391366-.596966.507453-.399761.964923-.926384 1.373172-1.578542l.248315.136565c-.384968.71569-.883323 1.306503-1.49591 1.775579-.614398.467465-1.195047.701548-1.743757.700637-.351262-.000427-.629455-.113617-.832969-.341381-.204843-.227-.306116-.53833-.304666-.930853.000476-.567912.187135-1.051937.55712-1.453968.370267-.403078.817257-.603604 1.338876-.602141.253725-.000056.454489.06307.606196.19154.151225.1261.226431.296811.226464.508993-.0012.349933-.211448.659203-.633146.928292-.424355.270618-.909277.403661-1.456941.403033zm.02439-.281934c.408432-.02008.761071-.137155 1.052601-.348171.293142-.212826.440455-.459365.441092-.736478.000144-.250303-.109539-.376426-.335125-.376639-.265801-.000955-.511896.141485-.73905.425991-.222685.284589-.365248.630076-.419518 1.035297zm-2.506345-.263896c-.189963.392203-.462869.733973-.821941 1.028932-.361448.29544-.681774.44256-.965448.441275-.213511.000798-.387783-.07314-.521852-.217067-.133787-.144972-.20182-.333955-.200477-.563728.000464-.538727.207136-1.038685.616795-1.496251.410705-.457285.858753-.686712 1.342533-.686473.250303.000144.519537.07163.807701.214448.04053-.187771.09819-.305814.170866-.354694.0761-.04908.261934-.08877.56615-.117873-.153134.30559-.30258 1.038766-.442458 2.194379l-.03812.299559c.838551-.503561 1.488271-1.018754 1.94413-1.543567l.24561.154921c-.430754.56077-1.167948 1.17137-2.211098 1.834176-.0059.07588-.0098.132071-.01178.168581-.03007.490329-.08171.852479-.156716 1.084838-.07529.233406-.208988.454429-.401089.66307-.380333.407099-.84262.610235-1.384769.609971-.289471-.000603-.526663-.07018-.707108-.20865-.181773-.137705-.27183-.315789-.272263-.534814.001-.2119.07939-.398448.23721-.55908.156013-.162242.450918-.356631.883187-.585823.287238-.149307.691285-.373761 1.213954-.671752zm.152879-.762561c-.252405-.271259-.531516-.406026-.836484-.40744-.288424-.00032-.559977.182404-.817233.545234-.255927.362065-.384498.747249-.384949 1.15688-.000885.290517.106093.434995.318275.434962.207432.000931.483006-.171729.826157-.515885.342388-.345485.639834-.749116.894234-1.213751zm-.288611 2.306592c-.113787.0681-.343091.198233-.687147.391716-.67406.380652-1.01125.71519-1.011652 1.008082-.000013.129097.05429.235794.162899.320092.109659.08458.247715.1263.417026.127054.745113.0011 1.116675-.614912 1.118874-1.846944zm-4.480943.193749c-.08211-.523948-.230551-1.043334-.444857-1.555783-.211648-.513978-.441864-.904986-.689801-1.176163.145289-.122475.292847-.182595.44666-.182652.130143.000295.238685.05988.325627.178744.08618.117539.195611.356978.326009.714332.204463.561435.356778 1.070639.457227 1.526564.662378-1.045019 1.020739-1.957605 1.076693-2.739568.342184.05074.512293.165094.51242.343624-.000037.187465-.154653.573484-.463848 1.158055-.309196.584571-.641637 1.117969-.997407 1.604661-.410788.561665-.819354 1.002687-1.224167 1.325725-.403766.323319-.752196.483067-1.042995.483229-.261615.000174-.393403-.110581-.39279-.329324-.000163-.09098.02387-.196755.07106-.31762.106849.06586.239273.09933.397272.100398.572945-.0015 1.121247-.377932 1.642897-1.134222zm-3.893431-.969125c-.402369.547095-.650032 1.074168-.747538 1.585603-.235028-.144209-.351424-.291226-.351364-.437149.000568-.301829.309879-.778598.923468-1.43039-.139748-.235265-.269371-.520563-.391926-.861208-.122074-.33827-.183804-.583929-.183943-.733274.000871-.16142.195146-.274053.587575-.338862-.01366.04234-.02068.08086-.0203.116891-.000509.35573.149607.827294.451395 1.414975.507973-.584851.762373-1.049486.763764-1.395997l-.0032-.03792c.0229-.0017.07661-.0052.162714-.01225l.0347.000376c.211136-.000315.317867.05765.317901.169926-.0018.281298-.376385.792096-1.12756 1.533638.289807.453105.600076.680471.929761.681814.588161.000323 1.217187-.604646 1.88841-1.815671l.245092.140187c-.437364.776775-.837688 1.341261-1.203063 1.692896-.365858.349259-.734582.525986-1.107903.524101-.441473.0011-.830947-.265621-1.167941-.797684zm-4.454282-2.864879c.30248-.405642.702694-.607555 1.197504-.606586.424082.00098.771979.155419 1.047114.463119.273805.308463.410953.69907.410395 1.171538-.000947.736177-.298585 1.406938-.892148 2.013612-.593281.605628-1.249032.905898-1.967053.904233-.518762.000431-.944665-.1728-1.28226-.515305-.337031-.344597-.505197-.77837-.503651-1.304457.001-.570005.194143-1.061274.579026-1.472759.386976-.410921.856636-.628907 1.411073-.653395zm-.224108.319006c-.349122.08322-.624179.270616-.827463.558192-.200426.289469-.30294.644633-.304884 1.063965.000771.471704.136108.8607.408667 1.16546.273324.306088.622267.46081 1.045585.460461.508215.0012.955945-.239523 1.345485-.718232.38773-.480319.583314-1.034907.585225-1.666421.000192-.367042-.0948-.676679-.287639-.927384-.191026-.249094-.429041-.373901-.711386-.37595-.286614.0013-.535636.117122-.745539.35015-.21095.232745-.316732.508446-.316865.829477-.000496.226633.05191.4361.159875.62687-.215145-.03893-.357905-.09652-.429325-.17303-.07037-.07623-.107071-.210737-.106387-.404764-.000139-.249257.06071-.512376.184651-.788794z" fill="#737373" stroke-width="1.08389"/>
    <path d="m82.699172 32.853602 2.798903-3.997217 5.211039.0088-2.799949 3.996935zm-37.837918-.06109 2.798902-3.997218 5.211039.0088-2.797856 3.9975zm-37.8368719-.060812 2.799949-3.996936 5.2089459.0082-2.797856 3.997499zm107.5885279 10.607427-3.99722-2.798903.008-5.209992 3.99589 2.799667zm-.0605 37.436177-3.9975-2.797856.009-5.211039 3.99722 2.798903zm-112.0543758 9.536926 3.9982639 2.799185-.00875 5.211038-3.9972173-2.798902zm.059283-36.769682 3.9972174 2.798902-.00742 5.210275-3.9974996-2.797856zm99.2334728 51.309822 2.7989-3.99721 5.21.008-2.79862 3.99618zm-37.837917-.0611 2.799949-3.99693 5.210274.007-2.799185 3.99826zm-29.827977-4.04956-2.798903 3.99722-5.211321-.008 2.800231-3.99799z" fill="#ff8080" stroke-width="1.08389"/>
    <path d="m101.61723 32.883343 2.79862-3.996171 5.21104.0088-2.79863 3.996171zm-37.835829-.06053 2.797574-3.996453 5.210274.0074-2.797856 3.9975zm-37.837919-.06109 2.798621-3.996171 5.211321.0077-2.798903 3.997217zm88.641018 28.295749-3.99826-2.799184.008-5.209993 3.99722 2.798903zm-.0608 37.437224-3.99617-2.79862.007-5.210275 3.9975 2.797856zm-111.9952599-26.565978 3.9974996 2.797856-.0084686 5.209992-3.9974996-2.797856zm.058519-36.771011 3.9982639 2.799185-.00952 5.20971-3.9972174-2.798903zm80.2839669 69.663313 2.798621-3.99617 5.209992.008-2.797574 3.99645zm-37.835825-.0605 2.799667-3.99588 5.208946.008-2.798621 3.99617zm-29.827213-4.04823-2.800713 3.99561-5.2089457-.008 2.7989025-3.99721z" fill="#6193cf" stroke-width="1.08389"/>
    <g>
      <path d="m104.08143 37.274939c-.0765.000693-.15233.01954-.22239.05453 0 0-.31107.158596-.45252.229346-.1949-.109815-.38953-.220676-.38953-.220676-.1452-.08182-.29395-.07141-.44441.0036 0 0-.31715.160324-.45489.229827-.19596-.110096-.39163-.22124-.39163-.22124-.14492-.08286-.30591-.06453-.45323.01137 0 0-.30044.152481-.43714.222266-.19253-.110296-.38639-.219829-.38639-.219829-.13607-.07823-.0731-.111777-.21575-.0492 0 0-.508824.217527-.675266.289394-.200623-.113601-.402574-.226438-.402574-.226438-.144158-.08153-.304862-.06425-.453514.01241 0 0-.294363.150753-.432668.222349-.193861-.109532-.386394-.219829-.386394-.219829-.13635-.07718-.07495-.113388-.217555-.05081 0 0-.502748.215799-.672895.288912-.197483-.112755-.398387-.225309-.398387-.225309-.135305-.0769-.07314-.111777-.215463-.05025 0 0-.502466.214752-.669473.288712-.199576-.113319-.398387-.225309-.398387-.225309-.14597-.08315-.305909-.06453-.455325.0108 0 0-.299396.152764-.438183.221985-.195954-.110097-.391908-.220194-.391908-.220194-.144923-.08286-.304863-.06425-.453232.01137 0 0-.300443.152482-.438465.223032-.195954-.110097-.391626-.22124-.391626-.22124-.147298-.08238-.309331-.06433-.459311.01309 0 0-.242626.125414-.398968.205617-.157928-.07627-.422952-.20499-.422952-.20499-.140983-.06833-.317302-.05975-.456653.01157 0 0-.298068.152-.437136.222267-.194908-.109814-.389534-.220675-.389534-.220675-.13635-.07718-.07314-.111777-.217555-.05081 0 0-.496669.214071-.667098.28823-.196718-.111425-.394484-.223133-.394484-.223133-.135304-.0769-.07418-.112059-.216791-.04948 0 0-.416064.177432-.62305.26643-.08942-.05555-.212569-.135907-.212569-.135907-.416366-.262712-.869597-.251346-1.188408.02753-.0016.0018-.333313.694819-.333313.694819l.097.414582c.000765.0013.238822.508957.238822.508957.0043.009.01911.03322.02751.04783-.07467.185302-.236281.551472-.236281.551472-.02655.05683-.0374.11789-.03723.179681-.000353.07624.01793.154142.04894.226493l.258717.585046c-.02823-.06599-.04145-.133541-.04202-.202176-.0004-.0068.0083-.0101.0093-.01771.0011.06654.03683.113211.05753.173803-.0996.211135-.2776.596459-.2776.596459-.02816.05864-.03978.118373-.03932.179117-.000072.0752.01878.151003.05055.224682 0 0 .258635.589515.260445.591126-.107251.227032-.25447.53983-.25447.53983-.03006.0615-.04357.124087-.04311.184832.000576.06863.01588.136751.04669.20568 0 0 .233096.534356.251192.579649-.05581.132013-.238586.57667-.238586.57667-.02418.05635-.03559.119502-.03494.183668-.000354.07624.01584.153578.04636.223553 0 0 .227827.520586.244959.56113-.06447.159985-.240796.568215-.240796.568215-.03381.07957-.05965.08383-.05995.114057.000235.01578.0069.03668.02303.07694 0 0 .306889.810211.308418.812869-.105923.226267-.253989.542205-.253989.542205-.02901.06178-.04224.123323-.04206.185114-.000753.0694.01532.138844.04717.208055l.26656.601756c-.105923.226268-.256164.546109-.256164.546109-.02796.06206-.04224.123323-.04102.185396-.000753.0694.01741.139409.04822.208338 0 0 .262056.589315.266078.59938-.105359.224175-.256365.542688-.256365.542688-.03618.08005-.06174.08326-.06119.110353.000517.01473.0069.03668.02295.0814 0 0 .272955.711251.297283.775065-.05685.13173-.241725.575823-.241725.575823-.03485.07929-.05965.08383-.05918.115386-.000811.0155.0059.03639.02122.07532 0 0 .267887.700903.293943.770796-.06934.15306-.277413.629065-.27719.773942-.000754.0694.02288.1566.04958.219931 0 0 .224771.515272.243231.555051-.05987.138773-.238985.569827-.238985.569827-.03276.07985-.05861.08411-.05842.116714.000235.01578.0069.03668.01989.07609l.301822.799864c.0015.0027.0056.0083.0058.01168-.105923.226268-.254189.538784-.254189.538784-.02796.06206-.04224.123322-.04178.184067-.000471.06835.01617.135705.04565.205398 0 0 .24162.556861.251391.583071-.05798.135916-.238221.571155-.238221.571155-.02426.06082-.03862.126545-.03719.19204-.000588.06046.01042.11956.03092.17673l.277494.73605c.0226.05773.05422.111165.0957.157153l.121593.136071c.341311.411986.629475.554807 1.13435.551755.000282-.001.45375-.196457.667862-.286901.199094.110943.397623.223979.397623.223979.146252.0821.295279.07065.445741-.0044 0 0 .307369-.157349.449095-.229145.192815.10925.385348.219546.385348.219546.136633.07614.07523.112342.21993.05033 0 0 .502749-.215799.672895-.288912.198812.11199.397341.225026.397341.225026.13768.07642.07314.111777.217838.04976 0 0 .499327-.215599.668144-.287947.199094.110943.39867.224262.39867.224262.145969.08315.29709.07226.446023-.0055 0 0 .255632-.13201.414631-.213742.151449.07115.423516.202897.423516.202897.139455.06567.337433.0517.476219-.01752 0 0 .287438-.145885.418816-.212613.193862.109532.386677.218782.386677.218782.146251.0821.296043.07198.445741-.0044 0 0 .312684-.160406.45147-.229627.188147.105746.376776.213867.376776.213867.147298.08238.335857.06587.486884-.01127 0 0 .284016-.145685.420709-.21547.186819.10651.377058.21282.377058.21282.146252.0821.341937.06415.490871-.01356 0 0 .277373-.141864.414066-.211649.193861.109532.389533.220675.389533.220675.145205.08182.306955.06482.456653-.01157 0 0 .30149-.152199.43951-.222749.197.110379.39609.221322.39609.221322.14416.08154.31255.06071.46016-.01623 0 0 .29142-.148177.42574-.217481.19386.109532.38744.220111.38744.220111.13635.07718.0721.111495.21575.0492 0 0 .50037-.215317.67052-.28843.19881.11199.39734.225026.39734.225026.1473.08238.29632.07093.44574-.0044 0 0 .25241-.128388.41169-.211167.0594.04185.0886.07105.17566.127076.40143.259808.88631.243503 1.20568-.03746.00028-.001.33944-.713373.33944-.713373l-.0972-.418004c-.002-.0016-.21526-.446472-.21526-.446472-.007-.013-.0395-.06567-.064-.108191.0988-.212464.23795-.499381.23795-.499381.0319-.06435.0457-.127991.0467-.193968-.00057-.06864-.0156-.137798-.0467-.20568 0 0-.23559-.541764-.25224-.579932.0579-.131448.24032-.570591.24032-.570591.0328-.07985.0576-.08439.0584-.116714-.00023-.01578-.007-.03668-.0202-.07504 0 0-.2867-.764353-.29446-.78553.0683-.1657.24023-.566122.24023-.566122.0338-.07957.0597-.08383.0589-.114339.00081-.0155-.006-.03639-.0209-.07637 0 0-.26837-.703279-.29499-.771078.0688-.150967.27769-.630112.27832-.778128-.001-.06996-.0234-.158976-.0532-.223154 0 0-.22666-.512414-.24532-.555615.0675-.167029.24441-.564993.24441-.564993.0362-.08005.0618-.08326.0607-.112729-.00052-.01473-.007-.03563-.0228-.07798 0 0-.28043-.733475-.29949-.783519.0681-.169122.24535-.572602.24535-.572602.0277-.06101.0401-.123887.0389-.18596.00075-.0694-.0156-.137798-.0449-.204069 0 0-.24046-.548689-.2551-.581825.0697-.170933.24346-.569744.24346-.569744.0266-.05683.0384-.117608.0372-.179681.00063-.07729-.0179-.154143-.0492-.225447 0 0-.25997-.58875-.25997-.58875.10621-.227315.25589-.545063.25589-.545063.0258-.05816.0401-.119419.0393-.179117-.00098-.07548-.0198-.151285-.0506-.224682 0 0-.23446-.54595-.24278-.565034.0574-.133823.23701-.562501.23701-.562501.0325-.07881.0586-.08411.0595-.116432-.00024-.01578-.008-.03696-.022-.07665 0 0-.27452-.726266-.29482-.780015.0577-.134869.23991-.577434.23991-.577434.0237-.05872.0348-.12083.0345-.186042.00035-.07624-.0148-.153296-.0459-.221178 0 0-.22305-.509193-.24476-.557708.0585-.133541.23955-.57192.23955-.57192.0338-.07957.0599-.08487.0602-.115103-.00023-.01578-.008-.03696-.0223-.07561 0 0-.27488-.720751-.29671-.777157.0579-.131448.242-.57687.242-.57687.0234-.05767.0348-.12083.0342-.184996.00036-.07624-.0166-.154907-.0453-.223271 0 0-.25815-.58714-.25968-.589797.10516-.227597.2556-.544017.2556-.544017.0277-.06101.0419-.122276.0412-.181974-.00045-.06074-.0133-.121454-.0365-.184985l-.27701-.733674c-.0216-.05745-.0553-.111448-.0957-.157154l-.12055-.135788c-.3455-.413115-.63471-.556218-1.13749-.552602zm-15.944051.481512c.001.000283.005.0025.0047.0035zm17.206441 2.238853s.0318-.06777.0405-.08339c-.004.01465-.006.03091-.0121.045-.0124.01686-.0286.03944-.0283.03839zm-18.520269.584951s-.03118.06568-.03884.08158c.0042-.0157.0061-.03091.01109-.04528.01212-.01582.02803-.03735.02775-.0363zm.0235 1.478079c.0068-.01276.02726-.0095.03616-.02168-.01941.0262-.03806.05372-.05414.08419.0088-.02008.0047-.04251.01798-.06251zm-.0067.06219s-.02325.04874-.02655.05683c.0028-.01046.0049-.02226.0087-.03244.0064-.0072.0178-.02439.0178-.02439zm.02588 1.477597c.0068-.01276.02593-.0087.03455-.01987-.01913.02515-.03673.05296-.05196.08029.0098-.0198.0058-.04223.01741-.06042zm.01627 1.542363c.0065-.01171.02565-.0077.03322-.01911-.0178.02439-.03512.05115-.05035.07847.0088-.02008.0058-.04222.01713-.05937zm18.535869 1.022343c-.009.02008-.005.04355-.0169.06279-.008.01248-.028.0082-.0369.02035.0184-.02648.0373-.05505.0539-.08314zm-18.53158.585267s-.03477.07482-.04488.09567c.0038-.01807.0072-.0351.01439-.05337.0143-.01972.03077-.04334.03049-.0423zm18.53739.954273c-.001-.000282.0304-.06701.0388-.08158-.004.01465-.007.03063-.0118.04395-.0124.01686-.027.03763-.027.03763zm-18.520837.587044s-.03308.06854-.03969.08472c.0032-.01598.005-.03119.01032-.04661.01241-.01686.02964-.03916.02936-.03811zm-.130346 1.56569c.000646-.0066.0083-.0101.01003-.01638.0028.06473.03377.107896.05504.166395-.0069.01723-.01342.02894-.02296.04769-.02747-.06466-.04201-.131449-.0421-.197708zm.148227-.02514s-.03686.07426-.04565.09434c.0027-.01835.0069-.03405.01278-.05156.01458-.02076.03182-.04306.03287-.04278zm18.650066.761258c.009.0496.0331.172827.0346.175484 0 0-.0275-.07702-.0503-.138174.004-.01018.008-.02141.0157-.03731zm-18.782822.792556s.02674.07569.04801.134189c-.0022.0039-.01181.02713-.01511.03522-.01052-.05672-.03242-.16703-.0329-.169405zm18.797562.747149c.0107.04779.0321.168077.0346.175485 0 0-.0278-.07597-.0495-.136846.005-.0089.009-.02218.0149-.03864zm-18.782502.803868s.02549.07199.04684.126017c-.0035.0047-.0095.01875-.01446.02866-.01081-.05568-.03162-.153343-.03238-.154672zm.171448 1.453988c.0068-.01276.0283-.0092.03616-.02168-.01837.02648-.0373.05505-.05337.08552.0091-.02113.005-.04355.01721-.06384zm18.539294 1.022143c-.009.02113-.006.04327-.0159.06307-.009.01324-.028.0082-.0369.02035.0181-.02543.036-.05429.0528-.08343zm-18.528362.581646s-.02731.0555-.03223.0654c.0031-.01151.0052-.02331.0085-.03586.0097-.01087.02368-.02954.02368-.02954zm18.546532.957859c-.009.02113-.006.04432-.0172.06384-.008.01352-.0283.0092-.0385.02216.0186-.02753.0379-.05715.0558-.086zm-18.525652.521752c.0084-.01457.02754-.01054.03644-.02273-.01837.02648-.03758.0561-.0547.08628.0088-.02008.0063-.04432.01826-.06355zm17.201582 2.302654c-.0183-.0072-.007-.02983-.0211-.03825.0155.01317.0433.03077.0602.04318-.0131-.0013-.031-.0016-.0391-.0049z" fill="#888" opacity=".1" stroke-width="1.08389"/>
      <path d="m104.09878 37.760095c.003-.000199.00028-.001 0 0zm-.0132.01553-.55921.283645c-.0791.06848-.0928.06928-.0938.069-.0687-.06568-.63371-.339286-.63371-.339286l-.55761.281835c-.0823.0721-.0957.07185-.0957.07185-.0671-.06749-.63476-.339568-.63476-.339568-.00028.001-.55313.281917-.55313.281917-.0828.06973-.0954.07081-.0957.07186-.071-.06967-.63-.340532-.63-.340532-.003-.000847-.562355.282798-.562355.282798-.08175.07001-.0941.07005-.0941.07005-.06816-.06778-.633709-.339286-.633709-.339286-.000282.001-.555792.283445-.555792.283445-.07804.06876-.09249.06823-.09249.06823-.06768-.0654-.630288-.339486-.630288-.339486-.0034.0002-.561589.284127-.561589.284127-.08279.06973-.09354.06795-.09354.06795-.06664-.06512-.63371-.339285-.63371-.339285-.0024.000482-.55712.284209-.55712.284209-.07937.06953-.09249.06823-.09249.06823-.06997-.06939-.63371-.339286-.63371-.339286-.000282.001-.556838.283163-.556838.283163-.08013.0682-.09382.069-.09382.069-.001-.000282-.001-.000282-.001-.000282-.06893-.06911-.632663-.339004-.632663-.339004-.000282.001-.558167.283927-.558167.283927-.07909.06848-.09278.06928-.09382.069-.06768-.0654-.634756-.339568-.634756-.339568-.000282.001-.555874.287914-.555874.287914-.09088.06642-.163514-.0014-.163232-.0025l-.562124-.271709c-.000282.001-.559496.284691-.559496.284691-.07776.06772-.09145.06852-.09249.06823-.06844-.06673-.632381-.34005-.632381-.34005-.0034.0002-.558167.283927-.558167.283927-.08174.07001-.09382.069-.09382.069-.06845-.06673-.629242-.339203-.629242-.339203-.0024.000482-.562917.284891-.562917.284891-.07728.07009-.256441-.05232-.25958-.05316-.0039-.0022-.279898-.177639-.279898-.177639-.186853-.118868-.4216-.164211-.589924-.01876-.106392.0948-.161987.201045-.161271.319112.000658.06417.01597.132284.04963.203105l.238058.507629c.000764.0013.139712.222907.139712.222907-.000282.001-.08642.166417-.08642.166417-.0045.0044-.252084.610076-.252084.610076.0021.000565.266559.601756.266559.601756-.0021-.000565.08821.164114.08821.164114.000764.0013-.08642.166417-.08642.166417-.0032.0036-.252084.610076-.252084.610076.000846-.0031.261891.598252.261891.598252.0029.0019.09364.168947.09364.168947.000282-.001-.08585.164324-.08585.164324-.0032.0036-.253613.607418-.253613.607418l.262855.603002c.0018.0016.0926.168665.0926.168665-.0021-.000564-.08718.165088-.08718.165088s-.251803.60903-.251803.60903c.0021.000564.262938.598533.262938.598533.000765.0013.09288.167619.09288.167619-.0021-.000565-.08851.165853-.08851.165853-.000564.0021-.25172.604561-.25172.604561.000118.0079.262092.601673.262092.601673.0033.0043.09344.165525.09344.165525.0002.0034-.08593.168793-.08593.168793-.0027.0015-.251802.609029-.251802.609029l.264466.601191.08877.162021c.000765.0013-.08726.169557-.08726.169557-.000282.001-.250474.608265-.250474.608265l.269417.603649c-.0033-.0043.08515.158799.08515.158799-.000083.0045-.08517.170121-.08517.170121-.0013.000765-.253048.605326-.253048.605326.000199.0034.267805.605459.267805.605459-.0039-.0022.08793.165161.08793.165161l-.08585.164324s-.253331.606372-.253331.606372c-.000083.0045.267805.60546.267805.60546-.000564.0021.08716.163832.08716.163832-.000283.001-.08509.165653-.08509.165653-.0046.0044-.253131.609793-.253131.609793.0031.000847.261127.596923.261127.596923.0039.0022.09469.169229.09469.169229-.000764-.0013-.08851.165853-.08851.165853.0029-.0026-.250673.604843-.250673.604843.0002.0034.259516.598734.259516.598734.0062.0062.09574.169511.09574.169511l-.08613.165371c-.0056.0041-.253049.605325-.253049.605325l.257705.597123c.0062.0062.09803.173498.09803.173498.000283-.001-.08774.167181-.08774.167181.001.000283-.25152.607983-.25152.607983l.277776.735003.121593.136071c.281601.341998.434308.38767.757996.386274.0045.000082.558649-.281552.558649-.281552.08203-.07106.09543-.07081.09543-.07081.06768.0654.63371.339286.63371.339286l.557884-.282881c.0807-.07029.0941-.07005.0941-.07005.06559.06484.630006.340533.630006.340533.0089.000164.562917-.284892.562917-.284892.08042-.06925.09354-.06795.09354-.06795.0674.06645.632663.339003.632663.339003.0031.000847.557885-.28288.557885-.28288.0807-.07029.09277-.06928.09277-.06928.07082.06625.633709.339286.633709.339286l.560061-.286784c.08984-.0667.162467.0012.162467.0012-.0029-.0019.567921.271027.567921.271027.000365-.0055.550477-.280388.550477-.280388.08307-.07077.09571-.07186.09571-.07186.06873.06568.633427.340333.633427.340333l.558167-.283927c.08146-.06896.09382-.069.09382-.069.06788.06882.636367.337757.636367.337757.000082-.0045.553981-.285056.553981-.285056.07852-.06639.09116-.06747.09221-.06719.0713.06862.63846.338321.63846.338321.000364-.0055.552934-.285338.552934-.285338.07957-.06611.09221-.06719.09221-.06719.06559.06484.63371.339286.63371.339286-.000765-.0013.558449-.284974.558449-.284974.0809-.06687.0925-.06823.0925-.06823.0677.0654.63818.339368.63818.339368-.00048-.0024.54971-.281716.54971-.281716.0797-.07057.0944-.07109.0954-.07081.0728.07128.63028.339485.63028.339485.002.000565.56055-.284409.56055-.284409.0815-.06896.0925-.06823.0925-.06823.0695.06701.63266.339004.63266.339004l.55978-.285738c.078-.06876.26216.0561.2593.05421 0 0 .26657.172923.26657.172923.18838.121526.43517.155522.6033.0067.16889-.147545.2192-.33829.12195-.539644l-.2145-.445144-.17764-.290389c-.007-.01433.0737-.119325.0737-.119325.002-.0018.2706-.616307.2706-.616307l-.26133-.600345c-.003-.0029-.0941-.171322-.0941-.171322-.00028.001.0885-.165853.0885-.165853l.25067-.604843c-.0002-.0034-.25666-.596841-.25666-.596841-.009-.0091-.0994-.172733-.0994-.172733.002.000564.0885-.165853.0885-.165853.00028-.001.25124-.606936.25124-.606936-.0002-.0034-.26572-.604895-.26572-.604895l-.0892-.164397.087-.16851c.003-.0015.24999-.61064.25027-.611687-.003.0002-.26531-.598051-.26531-.598051.001.000282-.0885-.163068-.0885-.163068l.087-.16851c.004-.0047.25249-.603233.25249-.603233-.00012-.0079-.26753-.606506-.26753-.606506.002.000565-.0885-.163067-.0885-.163067.00028-.001.0867-.167464.0867-.167464.003-.0015.2518-.609029.2518-.609029l-.26322-.597488c-.00076-.0013-.0918-.167336-.0918-.167336l.0875-.166135c.004-.0047.25076-.609311.25076-.609311-.002-.000565-.26552-.601474-.26552-.601474l-.0893-.164396c.00028-.001.0861-.165371.0861-.165371.003-.0015.25208-.610076.25208-.610076-.001-.000282-.25465-.591808-.25465-.591808-.008-.01015-.10116-.174344-.10116-.174344.002-.000482.0885-.165853.0885-.165853l.25221-.602185c-.00012-.0079-.26306-.606424-.26306-.606424-.003-.0019-.0921-.16629-.0921-.16629l.0867-.167464c-.002.0018.25076-.609311.25076-.609311.0002.0034-.26189-.598251-.26189-.598251-.001-.000283-.0924-.165244-.0924-.165244l.0891-.167945c-.001-.000283.25068-.604844.25068-.604844-.0004-.0068-.26628-.602802-.26628-.602802s-.0895-.16335-.0895-.16335c.00008-.0045.0849-.169074.0849-.169074s.25313-.609794.25313-.609794c-.002-.000564-.26141-.595876-.26141-.595876-.003-.0029-.0926-.168665-.0926-.168665.00028-.001.0867-.167464.0867-.167464.002-.0029.2518-.609029.2518-.609029l-.27806-.733957c.005.0035-.12131-.137117-.12131-.137117-.28567-.335237-.43914-.382238-.75969-.379995z" fill="#888" opacity=".3" stroke-width="1.08389"/>
      <path d="m103.89694 38.396068c-.088.0975-.20933.230935-.44575.233414-.23642.0025-.36047-.128641-.4502-.224686-.0797-.08324-.11355-.11594-.19559-.115611-.0813.0017-.11739.0357-.19492.119194-.088.0975-.20934.230935-.44575.233414-.23642.0025-.35942-.12836-.44943-.223357-.0797-.08324-.11432-.117269-.19636-.116941-.0802.0019-.1153.03626-.19283.119759-.0891.09722-.20934.230935-.44575.233414-.23642.0025-.36047-.128642-.45153-.223922-.0787-.08296-.11355-.11594-.19426-.116375-.0823.0014-.1174.0357-.1952.12024-.08804.0975-.208295.231217-.445476.232367-.235652.0038-.359703-.127312-.450477-.223639-.07838-.084-.113269-.116986-.194544-.115329-.08099.000611-.116068.03493-.192546.118712-.08908.09722-.209339.230935-.446038.23446-.236416.0025-.361514-.128923-.451242-.224968-.07762-.08267-.112222-.116704-.194543-.115329-.08204.000329-.117397.0357-.193876.119476-.08908.09722-.208574.232264-.446037.234461-.23537.0028-.360185-.129688-.450196-.224686-.07866-.08296-.113268-.116987-.195589-.115612-.08023.0019-.115022.03522-.191783.120041-.08804.0975-.209339.230935-.445755.233414-.237463.0022-.361514-.128924-.450196-.224686-.07866-.08296-.114597-.116222-.196636-.115893-.07995.000892-.115022.03521-.191782.12004-.09013.09694-.209339.230935-.445756.233414-.237463.0022-.360185-.129688-.450195-.224686-.07971-.08324-.114598-.116222-.196637-.115893-.07995.000893-.115022.03522-.1915.118994-.08804.0975-.211431.23037-.446801.233131-.236417.0025-.360468-.128641-.450478-.223639-.07734-.08372-.112987-.118033-.195308-.116658-.08128.0017-.116068.03493-.191782.120041-.08908.09722-.210668.231699-.446802.233132-.23537.0028-.360467-.128642-.450196-.224686-.07866-.08296-.113268-.116987-.194543-.115329-.08099.00061-.117397.0357-.192829.119758-.08804.0975-.210385.230653-.446802.233132-.236416.0025-.360467-.128642-.450195-.224686-.07866-.08296-.114315-.117269-.195308-.116658-.08023.0019-.116351.03598-.192064.121087-.08985.09589-.210103.229606-.44652.232085-.23537.0028-.36075-.127595-.449431-.223357-.08076-.08352-.114597-.116222-.194261-.116376-.08232.0014-.118444.03542-.194922.119195-.08804.0975-.209339.230935-.445755.233413-.203811.0023-.366547-.126913-.497653-.23187-.04821-.0377-.112999-.08885-.149544-.103194-.01128.01268-.0199.02382-.02071.03932.001.02947.03016.07549.123263.188161.111892.134577.251829.302537.253825.536578.0021.258757-.121492.400564-.213316.503779-.07845.0911-.126781.145428-.12623.272432.0019.126239.05165.178953.134139.268553.09174.101077.219329.239888.221114.499692.0031.259039-.121211.399517-.21227.504061-.07922.08978-.127545.144099-.125665.270339.000833.125957.05032.179717.130999.267707.09383.101641.220375.240169.224535.499491.0018.259804-.122539.400282-.213316.503779-.0795.09082-.126499.144382-.125665.270339-.000213.125675.05032.179717.130716.268754.09412.100594.220376.240169.224254.500538-.000026.258193-.122539.400281-.212269.504061-.08159.09026-.128593.143817-.126713.270056-.000212.125675.05033.179718.130717.268754.09383.101641.221422.240452.224536.499491.001.258476-.123586.4-.213316.50378-.07922.08977-.127828.145145-.126994.271103.0022.125192.05061.17867.132045.267989.09174.101077.222751.239687.222443.498927.0042.259322-.121493.400564-.211223.504344-.07922.08978-.127828.145145-.126712.270056.0011.12491.05061.178671.132045.267989.09174.101077.221422.240452.222443.498927.0021.258758-.122539.400282-.211223.504344-.08026.08949-.128592.143817-.126712.270056.000833.125957.05032.179718.133092.268272.09174.101077.220093.241216.220349.498362.0039.260369-.121775.401611-.210176.504626-.08026.08949-.127546.1441-.127759.269774.0019.12624.05137.18.134139.268554.09069.100795.219047.240934.221114.499692.0042.259322-.121493.400564-.21227.504061-.0795.09082-.126499.144381-.126712.270056.0029.126522.05165.178953.133092.268272.09307.100312.219329.239887.22216.499973.0021.258758-.121492.400564-.211987.503015-.0795.09082-.127828.145146-.125947.271385-.000213.125675.05032.179718.130998.267707.09412.100595.220376.24017.224536.499492.001.258475-.122539.400282-.213316.503779-.08026.08949-.127263.143053-.125665.270339.0011.12491.05061.178671.130999.267707.0925.102405.220657.239123.223206.500256.0013.257429-.122539.400281-.211987.503015-.0795.09082-.127546.144099-.126712.270056-.000213.125675.05165.178953.131763.269036.09307.100312.219612.23884.223772.498163.001.258475-.122539.400281-.21227.504061-.08026.08949-.128592.143817-.126712.270056.0028.247728.01052.256547.146601.405505l.125215.139293.07488.08867c.109035.132684.109035.132684.307048.131075.08128-.0017.115304-.03626.192829-.119758.08832-.09855.209621-.231982.446802-.233132.23537-.0028.361514.128924.450478.223639.07733.08372.113268.116987.196636.115894.08128-.0017.116351-.03598.192829-.119758.0888-.09617.209339-.230935.444991-.234743.237463-.0022.362278.130252.451242.224968.07838.084.113268.116986.195307.116658.08232-.0014.117398-.0357.194158-.120523.08804-.0975.210668-.231699.446802-.233131.236134-.0014.359421.128359.449149.224403.07866.08296.114315.117269.196636.115894.07995-.000893.115022-.03522.191783-.120041.08937-.09826.210667-.231699.447084-.234178.236416-.0025.360467.128641.451242.224968.07866.08296.113268.116986.194543.115329.08128-.0017.116068-.03493.191782-.120041.0888-.09617.211432-.23037.446802-.233131.236417-.0025.361514.128924.451242.224968.07838.084.114315.117268.194544.115329.08099-.000611.116068-.03493.193593-.11843.08804-.0975.208292-.231217.445755-.233413.23537-.0028.360467.128641.449431.223357.07943.08428.112987.118032.195308.116657.08127-.0017.116068-.03493.192546-.118712.08832-.09855.209621-.231981.445756-.233413.237745-.0032.360749.127595.450478.223639.07866.08296.114315.117269.194825.114283.08204-.000329.117115-.03465.193875-.119477.08908-.09722.209339-.230935.445756-.233413.236416-.0025.361796.127877.451242.224968.0779.08163.113268.116986.194825.114282.08071.000436.117115-.03465.193876-.119476.08775-.09645.208292-.231217.444426-.23265.236699-.0035.361514.128924.451525.223922.07733.08372.113268.116986.194543.115329.08099-.000611.116068-.03493.193876-.119476.088-.0975.20801-.230171.44547-.232367.23566-.0038.36075.127595.45076.222592.0784.084.11404.118315.19531.116658.0802-.0019.11502-.03522.19283-.119758.088-.0975.20829-.231217.44471-.233696.23746-.0022.36047.128641.45124.224968.0789.08191.11355.11594.19559.115611.0813-.0017.1153-.03626.19178-.120041.0891-.09722.21067-.231699.4468-.233131.23433-.003.36047.128641.4502.224686.0776.08267.11355.11594.19454.115329.081-.000611.11607-.03493.19283-.119759.088-.0975.20934-.230935.44576-.233413.20514-.0031.36654.126913.4987.232152.0472.03742.11118.08724.14668.101301.0164-.01915.0328-.03831.0326-.05409-.00055-.02709-.0276-.06019-.0932-.137387-.089-.107073-.21566-.253492-.27829-.479185-.0176-.05528-.0243-.105356-.0258-.154025-.00056-.197731.1139-.330765.20439-.433216.0937-.106073.14725-.171344.14532-.280757.00049-.126721-.0503-.179717-.13205-.267989-.0925-.102406-.22037-.240169-.22292-.501302-.002-.257711.12254-.400282.21331-.503779.0792-.08978.1265-.144382.12567-.270339-.001-.124911-.0506-.178671-.131-.267707-.0931-.100313-.22275-.239687-.22482-.498445-.002-.259804.12387-.401046.21332-.503779.0792-.08978.12678-.145428.12699-.271103-.002-.126239-.0516-.178953-.13413-.268554-.0897-.100512-.21933-.239887-.2214-.498645-.003-.260086.12149-.400564.21227-.504061.0792-.08978.12754-.144099.12566-.270339-.00083-.125957-.05-.180764-.13281-.269318-.0907-.100794-.21932-.239887-.22139-.498645-.003-.260086.12282-.401328.21122-.504343.0795-.09082.12755-.1441.12776-.269774-.003-.126522-.0514-.18-.13281-.269318-.0928-.10136-.22038-.24017-.2214-.498645-.004-.259322.1215-.400564.21227-.504062.0782-.09006.1265-.144381.12567-.270338-.003-.126522-.0514-.18-.13281-.269318-.092-.100031-.21961-.238841-.22244-.498927-.002-.258758.12254-.400282.21331-.50378.0785-.0911.1265-.144381.12567-.270338-.00084-.125957-.0503-.179718-.13281-.269318-.0931-.100313-.21961-.238841-.22244-.498927-.002-.258758.12253-.400282.21198-.503015.0806-.09054.12783-.145146.12567-.270339.00021-.125675-.0503-.179717-.12967-.268471-.0938-.101641-.22142-.240452-.22454-.499492-.001-.258475.12282-.401328.21332-.503779.0792-.08977.1265-.144381.12595-.271385-.001-.12491-.0506-.178671-.13233-.266943-.0928-.101359-.22038-.240169-.22244-.498927-.002-.258757.12254-.400282.21122-.504343.0806-.09054.12783-.145146.12699-.271103-.001-.124911-.0506-.178671-.13128-.266661-.0928-.101359-.22142-.240452-.22349-.499209-.002-.258758.12254-.400282.21227-.504062.0803-.08949.12755-.144099.12671-.270056-.002-.125193-.0516-.178953-.13232-.266943-.0928-.101359-.22247-.240734-.22245-.498927-.004-.259322.1215-.400564.21123-.504343.0803-.08949.12754-.1441.12671-.270057s-.0516-.178953-.13233-.266943c-.0917-.101076-.22037-.240169-.22244-.498927-.004-.259322.12121-.399517.21122-.504343.0803-.08949.12859-.143817.12671-.270057-.003-.246681-.0105-.256547-.14793-.40474l-.12493-.140339-.0731-.08706c-.11112-.133248-.11112-.133248-.30809-.131357-.0831.000046-.11712.03465-.19388.119476z" fill="url(#radialGradient2586)" stroke-width="1.08389"/>
      <path d="m89.144401 40.166589c.02741 2.650014.154355 14.692803.181763 17.342817 2.498011-.02574 11.376126-.119253 13.873096-.145274-.0274-2.650014-.15331-14.69252-.18072-17.342534-2.49696.02602-11.376127.119252-13.874139.144991z" fill="url(#radialGradient2590)" stroke-width="1.08389"/>
      <path d="m92.10137 57.479836 1.387221-.01545c-.05104-4.87691 3.874993-8.886745 8.751899-8.93779.29241-.002.58116.0097.86623.0349l-.0143-1.391407c-.2862-.02105-.57571-.03401-.86764-.02966-5.64034.05958-10.183457 4.696695-10.12339 10.339413zm3.468676-.03677 1.386939-.0144c-.03134-2.964283 2.355715-5.400999 5.318955-5.432624.29583-.0022.5865.01896.86887.06255l-.0142-1.400343c-.28595-.03446-.57433-.0516-.8694-.0481-3.729525.03827-6.730806 3.104157-6.691204 6.83292zm3.467066-.03496 1.388548-.01621c-.0116-1.051657.83463-1.916863 1.88705-1.927177.31294-.0032.60842.0709.86869.200585l-.0146-1.477915c-.27788-.07269-.56899-.113028-.86824-.110656-1.81747.02067-3.278723 1.513712-3.261478 3.331376zm-9.75559-4.195737.04464 4.297039.692423-.0075c-.0697-6.789254 5.3958-12.369834 12.184575-12.441908.2906-.0036.58039.0083.86667.02491l-.0143-1.391407c-.28685-.01449-.5772-.02431-.86647-.02149-6.053481.0638-11.158332 4.065584-12.90752 9.540338zm1.695559-13.064586c-.631365.417986-1.238108.869553-1.819382 1.351564l.01937 1.830587c1.368502-1.28231 2.92455-2.369228 4.623603-3.212143zm11.176999.05718c-5.192992.05337-9.83259 2.421488-12.943702 6.111112l.02185 2.266828c2.806218-4.165882 7.544686-6.933929 12.935972-6.989954.2906-.0036.57999.0015.86607.01465l-.0136-1.390079c-.28741-.0124-.57708-.01642-.86663-.01255z" fill="#fff" opacity=".1" stroke-width="1.08389"/>
      <path d="m99.831754 56.347111-.01984-1.862147-2.824357.02866-.0068-.599072 2.666835-4.406661.887018-.0089.045 4.26234.8489-.0091.01.716657-.85308.0079.0206 1.863476zm-.02768-2.57824-.02449-2.294483c-.000738-.359434.0035-.716411.01767-1.07294l-.02681-.000494c-.182237.401022-.331785.697476-.492174 1.025807l-1.464544 2.341974.000917.02158z" fill="#fff" stroke-width="1.08389"/>
    </g>
    <rect fill="url(#linearGradient3148)" height="76.682281" opacity=".45082" width="112.61341" x="2.184643" y="28.720472"/>
  </g>
  <g transform="matrix(1.605422 .0849011 -.0849011 1.605422 15.118718 19.185844)">
    <path d="m7.958868 37.501944c-1.6325525.391759-2.6416111 2.038003-2.249852 3.670556l19.889856 82.88571c.391759 1.63255 2.038003 2.64161 3.670556 2.24985l82.885712-19.88985c1.63255-.39176 2.64161-2.03801 2.24985-3.67056l-19.889854-82.88571c-.391759-1.632553-2.038003-2.641611-3.670556-2.249852z" fill="#323232" opacity=".15"/>
    <path d="m8.136456 38.241995c-1.2240444.293731-1.9811196 1.528873-1.687389 2.752917l19.889856 82.885708c.293731 1.22405 1.528873 1.98112 2.752917 1.68739l82.88571-19.88985c1.22405-.29373 1.98112-1.52888 1.68739-2.75292l-19.889855-82.885712c-.293731-1.224044-1.528873-1.98112-2.752917-1.687389z" fill="#323232" opacity=".2"/>
    <path d="m8.314044 38.982046c-.8162763.19588-1.3208056 1.019002-1.124926 1.835278l19.889856 82.885716c.19588.81627 1.019002 1.3208 1.835278 1.12492l82.885708-19.88985c.81628-.19588 1.32081-1.01901 1.12493-1.83528l-19.889856-82.885714c-.19588-.816276-1.019002-1.320806-1.835278-1.124926z" fill="#323232" opacity=".25"/>
    <path d="m8.491632 39.722097c-.4085082.09803-.6604916.509131-.562463.917639l19.889856 82.885714c.09821.40925.509131.66049.917639.56246l82.885716-19.88986c.40924-.0982.66067-.50839.56246-.91763l-19.889857-82.885716c-.09803-.408508-.508391-.660669-.917639-.562463z" fill="#323232" opacity=".3"/>
    <path d="m107.43214 82.571529 2.92976 18.732121-19.147441 7.72542-64.508025 15.47982-20.5253921-85.571861 85.7711031-20.874266z" fill="url(#radialGradient3142)"/>
    <rect fill="url(#linearGradient3144)" height="13.895027" opacity=".868852" transform="matrix(.97239452 -.23334289 .23334289 .97239452 0 0)" width="88.185265" x="-3.256848" y="39.282223"/>
  </g>
  <path d="m172.26052 31.061326c-.53314.16826-7.80718 2.46292-18.1194 5.71666l1.74584 5.5681c4.20432.05314 8.0613 2.77092 9.37684 7.00138 1.63488 5.2572-1.28934 10.84756-6.54658 12.48244-5.25724 1.63486-10.8478-1.29108-12.48266-6.5483-1.1623-3.73758-.006-7.65606 2.6455-10.19028l-1.91548-6.04894c-11.19168 3.53124-24.59966 7.76226-38.63918 12.1921l1.78148 5.68006c4.20432.05314 8.06108 2.76922 9.37666 6.99964 1.63486 5.25724-1.29108 10.847794-6.54832 12.482674-5.25722 1.63486-10.84606-1.29132-12.48094-6.548514-1.1623-3.73758-.008-7.65582 2.64378-10.19006l-1.95066-6.15748c-13.83188 4.36432-27.41492 8.64884-38.63942 12.19038l1.81692 5.79034c4.20432.05312 8.06108 2.769194 9.37662 6.999614 1.63488 5.25724-1.28934 10.84758-6.54658 12.48246-5.25722 1.63488-10.84782-1.29106-12.48266-6.5483-1.1623-3.73758-.0056-7.65604 2.6455-10.19028l-1.98464-6.269654c-11.11376 3.50662-19.00718 5.996214-19.56382 6.171794.7523 2.38428 33.88394 105.58094 34.63624 107.96522 2.41482-.7635 134.07622-42.30512 136.4912-43.06584-.75236-2.38568-33.8839-105.579514-34.63624-107.965214z" style="fill:none;stroke:#353535;stroke-width:4.9004;stroke-linecap:round;stroke-linejoin:round;stroke-opacity:.179592"/>
  <path d="m172.26052 31.061326c-.53314.16826-7.80718 2.46292-18.1194 5.71666l1.74584 5.5681c4.20432.05314 8.0613 2.77092 9.37684 7.00138 1.63488 5.2572-1.28934 10.84756-6.54658 12.48244-5.25724 1.63486-10.8478-1.29108-12.48266-6.5483-1.1623-3.73758-.006-7.65606 2.6455-10.19028l-1.91548-6.04894c-11.19168 3.53124-24.59966 7.76226-38.63918 12.1921l1.78148 5.68006c4.20432.05314 8.06108 2.76922 9.37666 6.99964 1.63486 5.25724-1.29108 10.847794-6.54832 12.482674-5.25722 1.63486-10.84606-1.29132-12.48094-6.548514-1.1623-3.73758-.008-7.65582 2.64378-10.19006l-1.95066-6.15748c-13.83188 4.36432-27.41492 8.64884-38.63942 12.19038l1.81692 5.79034c4.20432.05312 8.06108 2.769194 9.37662 6.999614 1.63488 5.25724-1.28934 10.84758-6.54658 12.48246-5.25722 1.63488-10.84782-1.29106-12.48266-6.5483-1.1623-3.73758-.0056-7.65604 2.6455-10.19028l-1.98464-6.269654c-11.11376 3.50662-19.00718 5.996214-19.56382 6.171794.7523 2.38428 33.88394 105.58094 34.63624 107.96522 2.41482-.7635 134.07622-42.30512 136.4912-43.06584-.75236-2.38568-33.8839-105.579514-34.63624-107.965214z" style="fill:none;stroke:#353535;stroke-width:7.53908;stroke-linecap:round;stroke-linejoin:round;stroke-opacity:.179592"/>
  <path d="m171.64082 30.585986c-.53316.16826-7.80722 2.46292-18.11942 5.71668l1.74584 5.5681c4.2043.05312 8.06128 2.77092 9.37686 7.00136 1.63484 5.2572-1.28936 10.84756-6.5466 12.48244-5.25724 1.63486-10.8478-1.29106-12.48266-6.5483-1.1623-3.73756-.006-7.65604 2.6455-10.19026l-1.91548-6.04894c-11.19168 3.53124-24.59966 7.76226-38.63916 12.19208l1.78146 5.68008c4.20432.05312 8.06108 2.76922 9.37666 6.99964 1.63486 5.25722-1.29108 10.847774-6.54832 12.482674-5.25722 1.63484-10.84606-1.29132-12.48094-6.548534-1.1623-3.73756-.008-7.6558 2.64378-10.19004l-1.95066-6.15748c-13.83188 4.3643-27.41492 8.64884-38.63942 12.19038l1.81692 5.79032c4.20432.05312 8.06108 2.769214 9.37662 6.999634 1.63488 5.25724-1.28934 10.84758-6.54658 12.48246-5.25722 1.63486-10.84782-1.29108-12.48264-6.54832-1.1623-3.73756-.0056-7.65604 2.64548-10.19026l-1.98464-6.269654c-11.11376 3.5066-19.00718 5.996194-19.56382 6.171774.7523 2.38428 33.88394 105.58094 34.63624 107.96522 2.41482-.76348 134.07624-42.30512 136.4912-43.06582-.75238-2.38568-33.88388-105.579534-34.63622-107.965234z" style="fill:none;stroke:#292929;stroke-width:3.76954;stroke-linecap:round;stroke-linejoin:round;stroke-opacity:.269388"/>
  <path d="m171.0211 30.110686c-.53316.16824-7.80722 2.46288-18.11942 5.71666l1.74584 5.56808c4.20432.05314 8.06128 2.77094 9.37686 7.00138 1.63486 5.2572-1.28936 10.84756-6.5466 12.48242-5.25724 1.63488-10.8478-1.29106-12.48266-6.5483-1.1623-3.73756-.006-7.65602 2.6455-10.19026l-1.91548-6.04894c-11.19168 3.53124-24.59966 7.76228-38.63916 12.1921l1.78146 5.68006c4.20432.05314 8.06108 2.76922 9.37666 6.99964 1.63486 5.25724-1.29108 10.847794-6.54832 12.482674-5.25722 1.63486-10.84606-1.2913-12.48094-6.548534-1.1623-3.73756-.008-7.6558 2.64378-10.19004l-1.95066-6.15748c-13.83188 4.36432-27.41492 8.64884-38.63942 12.1904l1.81692 5.7903c4.20432.05314 8.0611 2.769214 9.37662 6.999634 1.63488 5.25724-1.28932 10.84758-6.54658 12.48248-5.25722 1.63486-10.84782-1.29108-12.48264-6.54832-1.1623-3.73756-.0056-7.65604 2.64548-10.19028l-1.98462-6.269654c-11.11378 3.5066-19.0072 5.996214-19.56384 6.171794.7523 2.38428 33.88394 105.58094 34.63624 107.96522 2.41482-.76352 134.07624-42.30512 136.4912-43.06584-.75236-2.38568-33.8839-105.579534-34.63622-107.965194z" fill="url(#linearGradient2467)" stroke="#fff" stroke-width="1.88477"/>
  <rect height="73.331474" style="opacity:.467213;fill:#8fcb89;fill-opacity:.231707;stroke:#37a42c;stroke-width:1.34444;stroke-dashoffset:4" transform="matrix(.9516682 -.30712806 .30712806 .9516682 0 0)" width="127.001" x="18.879608" y="114.84084"/>
  <use fill="none" transform="matrix(1.178154 -.3760424 .37659204 1.1764345 42.510337 36.032368)" xlink:href="#path859"/>
  <rect fill="#fff" height="44.133949" stroke="#8eca88" stroke-dashoffset="4" stroke-linecap="round" stroke-width="1.136" transform="matrix(.9516682 -.30712806 .30712806 .9516682 0 0)" width="36.797016" x="18.99173" y="115.242"/>
  <path d="m73.319 102.83218c-2.08198.82532-3.87334 2.4854-4.41928 4.80292-.1227.52098-.07462.83476-.03458 1.31634s.1258 1.05232.25076 1.66046c.2432 1.18388.60912 2.52184 1.08352 3.9185.94958 2.79564 2.1467 5.4807 3.366 6.93262 1.21794 1.45028 1.90106 3.9337 1.71118 4.93668-.23546 1.24386-1.20328 2.5728-3.12904 3.9564-2.14846 1.5436-3.81026 2.90788-4.77316 4.7417-.85242 1.62352-1.22252 3.30432-.69766 5.13912l.7756 2.7114.365 1.27594 1.09602-.34948 30.41512-9.69804 1.09604-.34946-.365-1.27596-.77562-2.71138c-.52482-1.83482-1.7143-3.01834-3.27544-3.87226-1.7438-.95386-3.85736-1.16928-6.47266-1.19942-2.34648-.027-3.8314-.53964-4.66884-1.4265-.68398-.72434-1.4171-3.19182-1.16316-5.11142.25426-1.92178-.1566-4.85756-.83142-7.74078-.33718-1.44042-.7339-2.76858-1.15204-3.89666-.21478-.5795-.44262-1.10494-.66174-1.5294-.21914-.4245-.3436-.71392-.71896-1.0761-1.66144-1.60306-4.07476-2.09452-6.26712-1.39548l-.68502.21842-.0342.01z" fill="url(#linearGradient2426)"/>
  <path d="m73.14862 102.888c-2.06114.8318-3.82254 2.484-4.36418 4.78342-.12274.52098-.08146.83458-.04142 1.31616.04006.48156.1334 1.05712.25834 1.66526.24322 1.18388.60918 2.51836 1.08358 3.915.94958 2.79564 2.14434 5.4795 3.36366 6.93144 1.21794 1.45026 1.90138 3.93204 1.7115 4.93502-.23546 1.24386-1.20356 2.57176-3.12932 3.95534-2.14848 1.5436-3.811 2.91474-4.77388 4.74858-.5348 1.0185-.88304 2.05484-.93628 3.14232 11.51968-.1488 28.0574-9.94226 32.41408-9.49778-.62574-1.23198-1.62126-2.10348-2.84664-2.77374-1.74378-.95388-3.85266-1.17526-6.46798-1.20542-2.34646-.027-3.83164-.54054-4.66908-1.42742-.68398-.72434-1.41598-3.19064-1.16202-5.11022.25424-1.92178-.1578-4.85522-.83274-7.73844-.33718-1.4404-.73202-2.76566-1.15018-3.89376-.21478-.5795-.44714-1.11072-.66628-1.5352-.21912-.42448-.34086-.71242-.7162-1.07458-1.66142-1.60306-4.07502-2.09254-6.2674-1.39348l-.68268.21768-.0416.014-.0334.01c-.016.006-.0338.01-.05.016z" fill="url(#linearGradient2423)" fill-rule="evenodd" opacity=".172131"/>
  <path d="m73.25614 103.0041c-2.04034.83802-3.77684 2.48604-4.31424 4.7675-.12272.52098-.08146.83458-.0414 1.31616s.13338 1.05712.25834 1.66528c.2432 1.18386.60916 2.51832 1.08356 3.915.20348.59912.4188 1.19238.64264 1.77022 1.0162-4.60432 2.99948-9.1207 6.78282-13.82742-1.14908-.29354-2.38298-.25362-3.55422.1198l-.68268.21766-.0416.014-.0334.01c-.002.00082-.006.002-.008.002-.008.002-.025.008-.0332.01-.002.00074-.006.002-.008.002-.016.006-.0338.01-.05.016zm8.24018 3.04982c-6.5163 10.23928-5.2792 18.88296-3.13256 29.92268 8.87142-2.9131 17.54926-7.3976 20.5284-7.09366-.62574-1.23198-1.62126-2.10348-2.84662-2.77376-1.7438-.95384-3.85268-1.17524-6.468-1.2054-2.34646-.027-3.83164-.54054-4.66908-1.4274-.68398-.72436-1.41598-3.19066-1.16202-5.11022.25426-1.9218-.1578-4.85524-.83274-7.73844-.33714-1.44044-.73204-2.76568-1.15018-3.89378-.0872-.2354-.1762-.46446-.2672-.68002zm-11.55668 26.16632c-1.07454.92716-1.93202 1.88824-2.52528 3.01816-.53476 1.01852-.88298 2.05484-.93624 3.14232 1.14614-.014 2.34344-.1254 3.572-.31168-.0172-2.00996-.0681-3.95514-.11048-5.8488z" fill="url(#linearGradient2420)" fill-rule="evenodd" opacity=".245902"/>
  <path d="m225.323 40.065-1.532 4.233-4.644 1.244 1.534-4.233zm-12.98138 3.635309-1.532 4.233-4.644 1.244 1.534-4.233zm25.9627-7.270475-1.532 4.233-4.644 1.244 1.534-4.233zm12.98147-3.635305-1.532 4.233-4.644 1.244 1.534-4.233zm6.80532 1.841689 1.534-4.233 4.642-1.244-1.532 4.233z" fill="#37a42c" opacity=".557377" transform="matrix(1.376742 -.06038788 .06038788 1.376742 -193.92679 45.133584)"/>
  <path d="m180.96016 119.06104c-1.32484.24304-2.77834.64066-4.28328 1.12756-3.73024 1.20688-6.74148 2.85358-8.02556 4.22392-.002.00028-.021.002-.023.002-.004.004-.016.0212-.02.026-.002.00024-.0204.002-.023.004-.008.004-.0358.024-.043.0292-.004.006-.018.0236-.02.026-.002.004-.014.02-.02.026-.004.004-.018.0214-.02.026-.002.004-.016.022-.02.026-.006.00076-.022.004-.023.004-.49592.40116-.83684.9628-.964 1.58098-.002.00038-.021.002-.023.002.00062.006.002.0222.002.023-.002.002-.018.023-.02.026.0005.002.002.021.002.023.001.008.004.0382.006.046-.004.004-.016.0216-.02.026.00046.002.002.021.004.023.00006.002.002.0212.002.023.00032.002.002.021.002.023-.004.004-.016.0216-.02.026.00046.002.002.021.002.023.00008.002.002.0212.002.023.00032.002.004.021.004.023-.004.004-.016.0216-.02.026.00046.002.002.021.004.023.00006.002.002.018.002.023.0006.006.002.0218.002.023.00048.002.002.02.002.023-.004.004-.016.0214-.02.026.00022.002.002.0202.002.023.002.01.006.0378.006.0462.00038.001.002.0212.002.023.00038.002.002.0212.002.023.001.008.004.0382.006.046-.004.004-.016.0212-.02.026.00036.002.002.021.002.023.0007.004.002.0202.002.023.00064.004.002.0202.002.023.002.012.006.0346.006.046.00052.002.002.018.002.023.00058.004.002.02.002.023.00058.006.002.018.004.023.002.0228.006.0462.01.0692.002.012.001.012.004.023.004.023.006.0462.01.0692.00012.001.002.0212.002.023.0004.004.002.02.004.023.00048.004.002.0202.002.023.00018.002.002.0212.002.023.00022.002.002.0204.002.023.002-.00034.0204-.002.023-.004.00024.002.002.021.002.023.00022.002.002.021.002.023.00016.002.002.0212.002.023.0002.002.002.021.004.023.00048.002.002.0202.002.023.00054.008.004.0374.006.046-.00002.001.002.0212.004.023.001.00068.0246.02.026.02.00022.002.002.021.002.023.0002.002.004.0212.004.023.2026.62616.8534 1.88622 1.37024 2.21116.0718.0452.1542.0848.22568.111.0228.008.0716.0258.0982.034.026.004.0724.008.0952.01.0326.004.0856.006.1182.008.23484.002.48122-.0694.7254-.1894.24354-.1198.49856-.2917.76112-.4521.0472-.0288.083-.0574.1292-.0874.0314-.0204.0782-.0404.1092-.0612.016-.01.028-.018.043-.0292.0378-.0262.0922-.0602.1292-.0874.008-.004.0356-.024.043-.0292.0204-.02.0626-.063.083-.0812.00098-.00004.018-.002.023-.004.0226-.018.041-.037.063-.0552.004-.004.016-.0214.02-.026.002-.004.016-.022.02-.026.008-.004.0356-.0242.043-.0292.006-.00076.022-.004.023-.004.0216-.018.042-.0362.063-.0552.008-.004.0358-.0244.043-.0292.004-.004.016-.0214.02-.026-.00032-.002-.002-.0204-.002-.023.006-.00074.0218-.004.023-.004.004-.004.016-.0216.02-.026.004-.004.016-.0216.02-.026.002-.00038.021-.002.023-.004.004-.004.016-.0218.02-.026.0432-.0432.0824-.0888.123-.1334.016-.02.0448-.059.06-.0782.0784-.0906.153-.1912.22012-.28696.006-.00076.0218-.004.023-.002.0328-.0474.0698-.1022.097-.1536.1644 1.39724.4683 3.30418 1.03814 5.56134.0007.004.002.0208.004.023.00038.002.002.0206.002.023.00024.002.002.021.002.023.006.008.024.0354.0292.043.23258.91184.49908 1.87912.82696 2.8925.004.018.016.061.0382.1122.0002.002.004.0208.004.023.006.008.0234.0338.0292.043.004.008.024.0358.0292.043.00076.008.006.038.006.046.001-.00038.018-.002.023-.002.0002.002.002.021.002.023.006.008.0238.0356.0292.043.00024.002.002.0204.002.023.001-.00038.018-.002.023-.002.014.016.0382.0438.0552.063.0206.0228.0582.0616.0812.083.004.002.0222.018.026.02.006.004.0226.018.0262.02.008.002.0408.014.0492.016.00042.002.002.021.002.023.008.002.0406.014.0492.016.002-.00054.021-.002.023-.002.004.004.0218.016.0262.02.002-.00052.021-.002.023-.002.056.016.1238.02.1904.0218.008.004.0404.014.0492.016.0636-.002.134-.01.20744-.0274.002-.00022.021-.002.023-.002-.00032-.002-.002-.0204-.002-.023.002-.00024.021-.002.023-.004.008-.00084.0382-.006.0462-.006.002-.0002.021-.002.023-.002.002-.0001.021-.002.023-.004.1876-.0608.77758-.24892 1.23728-.39764 1.82286-.5934 4.81088-1.57234 4.81088-1.57234s1.47566-.48038 2.67594-.86872c.39178-.126.76404-.23888 1.14814-.36244.40898-.1324.55644-.1716.90068-.2829.61036-.1964 1.09678-.35854 1.32644-.43286.002-.00022.0204-.002.023-.002-.00034-.002-.002-.0204-.004-.023.002-.00022.021-.002.023-.004.1306-.0466.22604-.093.30748-.1578.018-.014.0452-.0364.063-.0552.012-.014.0296-.0392.04-.0522.004-.006.016-.0206.02-.026.008-.01.033-.043.04-.0522.002-.002.018-.0238.02-.026.002-.008.014-.041.016-.0492.02-.0394.043-.0848.054-.1244.002-.008.014-.0408.016-.0492-.00064-.006-.002-.022-.002-.023-.0005-.002-.002-.021-.004-.023.001-.00094.018-.0252.02-.026-.0003-.002-.002-.0206-.004-.023-.0003-.002-.002-.021-.002-.023-.00042-.002-.002-.021-.002-.023.002-.008.014-.0404.016-.0492-.00028-.002-.002-.0206-.002-.023-.00026-.002-.002-.0206-.004-.023-.002-.012-.004-.0364-.006-.0462-.0006-.006-.002-.018-.002-.023-.00078-.008-.004-.0382-.006-.046-.006-.016-.0256-.0516-.0322-.0662-.00028-.002-.002-.0208-.004-.023-.00024-.002-.002-.021-.002-.023-.00024-.002-.002-.021-.002-.023-.00026-.002-.002-.0208-.002-.023-.32134-.99314-.68344-1.9122-1.02224-2.77294-.00024-.002-.002-.021-.002-.023-.012-.0604-.0324-.109-.0412-.1352-.00036-.002-.002-.0208-.002-.023-.853-2.14472-1.72118-3.85748-2.4046-5.07632.58846.24086 1.29538.30664 2.00294.25178.85376-.0664 1.62048-.0996 1.90926-.81454.22806-.56594.0266-1.9535-.176-2.57968-.37248-1.15126-1.44406-1.89878-2.5936-1.88572-.002.00004-.0212.002-.023.004-.008.001-.038.004-.0462.006-.002.0002-.0212.002-.023.002-.96822-.20168-2.37216-.1896-4.04822.0648-.0934.014-.1816.0208-.2766.0364-.089.014-.186.0204-.27658.0364-.0424.008-.0956.01-.1384.018zm-.23836 2.28258c.0222-.006.0476-.002.0692-.01-.004.004.008.02.004.023-.0768.0614-.1514.1322-.23228.1948-.0478.0376-.1004.076-.1492.1134-.014.01-.029.018-.043.0292-.01.008-.01.02-.02.026-.0296.0222-.0794.0394-.1092.0612-.02.014-.021.0382-.04.0522-.0382.028-.071.034-.1092.0614-.037.0264-.0924.0618-.1292.0874-.0258.018-.0374.0378-.063.0552-.0246.016-.0386.039-.063.0552-.004.002-.018.00004-.023.002-.018.012-.048.0202-.0662.0322-.0358.0234-.0742.0394-.1092.0612-.66216.1458-1.38526.3453-2.12708.5853-.7276.23542-1.4001.48954-2.01058.75756-.46008.0334-1.03074.0344-1.52248.014.69148-.2469 1.70184-.52352 3.4444-1.0873 1.66126-.5375 2.61264-.91042 3.30004-1.11518zm1.35988-.1794c.29372.0224.61986.0834 1.03366.192.002-.004.016-.0222.02-.026-.014.1348-.0226.28446-.014.42398-.1442.004-.3638.018-.65144.039l-.1226-.21832zm-9.20206 2.94862.0512.74364c-.2501.1508-.44336.27296-.5628.3556-.075-.1158-.164-.2173-.25302-.31838.2879-.3494.51858-.58588.76466-.78086z" fill="url(#radialGradient2413)" stroke-width="2"/>
  <path d="m177.85704 129.956c.33482.1208.43112.46994.20728.78188-.22734.31658-.6923.46702-1.03018.3333-.33234-.132-.40872-.48754-.1784-.79118.22636-.29962.67182-.44394 1.00138-.324zm2.88644-4.96622c.32148.083.43998.3526.25898.60554-.1838.25592-.60264.3914-.92688.29988-.32074-.0904-.4227-.36558-.23604-.61296.185-.24388.58684-.37388.90394-.29246zm-3.70028 1.1972c.2967.091.37484.37366.1682.63488-.21002.26438-.62792.39958-.9272.3-.2948-.0988-.3566-.38698-.1448-.64248.2093-.25174.61112-.38174.90376-.2924zm-.61122 1.71566c.0672.27918-.1878.61042-.57084.73436-.38324.124-.73782-.01-.79068-.29386-.052-.27814.20584-.5963.57484-.71568.3689-.1192.7206.002.78668.27518zm6.26994-2.02858c.1234.26098-.0856.57738-.46868.70132-.38326.124-.78388.004-.8925-.26092-.107-.26038.1072-.5644.47606-.68374.3689-.1192.76446-.012.88512.24334zm-5.95552 3.48748c.0706.2929-.1972.64084-.5993.77096-.40216.1302-.77444-.01-.83018-.30846-.0548-.29226.21622-.62648.60366-.75184.38718-.125.75636.002.82582.28934zm6.62322-2.14288c.1296.27376-.0898.60612-.49216.73628-.40232.1302-.82298.006-.937-.2739-.1126-.27356.1126-.59294.49952-.71814.38754-.125.80276-.012.92964.25576zm-2.69092 2.92268c.1114.31478-.1324.68482-.5465.81878-.41404.134-.82818-.0228-.92286-.3434-.0926-.3135.157-.66668.55446-.79528.39782-.1286.80638.012.9149.3199zm-1.64576-4.74368c.0828.23474-.1378.5216-.49434.63692-.35628.1152-.70336.012-.77374-.22664-.0686-.23338.1554-.50988.49942-.6212.34408-.1114.68744-.018.76866.21092z" fill="#fff" opacity=".713115" stroke-width="2"/>
  <path d="m40.39384 67.870386 30.79608 58.995914c5.8365 8.40502 19.74862 8.74342 27.81536 3.91752 7.8307-4.68468 10.6194-16.81956 6.82884-25.49574l-26.17626-47.192134" style="fill:none;stroke:#000;stroke-width:10.5826;stroke-linecap:round;stroke-linejoin:round;stroke-opacity:.166667"/>
  <g transform="matrix(2.911144 -1.56902 1.56902 2.911144 -61.86874 21.663784)">
    <path d="m32.319807 12.804603c-1.211524-.621415-2.578111-.955972-4.03079-.955972-4.893235 0-8.87709 3.98275-8.877091 8.875561l-.02375 25.353636c.000001 3.961069 3.224307 7.179573 7.185376 7.179573 3.961068-.000001 7.206636-3.208682 7.206637-7.169751l-.012589-22.415694c-.000054-.0073.01597-.01987.01563-.02706-.000737-.0071-.01038-.03569-.01144-.04269-.0014-.0069-.0097-.03594-.01144-.04269-.0021-.0066-.0091-.03622-.01144-.04269-.01602-.03792-.05118-.08533-.077-.116626-.02272-.025-.06453-.07059-.09263-.08956-.0058-.0035-.02108-.01238-.02706-.01563-.03082-.01479-.08947-.02841-.123879-.03544-.01402-.0021-.05533-.0035-.06975-.0042l-1.693851-.0037c-.05842.000002-.120189.02439-.170753.04575-.0062.0029-.0367.0082-.04269.01144-.02323.0141-.05394.04739-.07394.06556-.0096.0096-.0497.02807-.05831.0385-.0081.01084-.0242.04251-.03125.05413-.0032.006-.01266.0209-.01563.02706-.0053.01264-.000077.05651-.0042.06975-.0034.01353-.02916.0401-.03125.05413-.0014.01424-.0042.05515-.0042.06975l.0012 22.373006c.000001 2.562823-2.070476 4.6501-4.633297 4.6501-2.562819-.000002-4.6501-2.070476-4.6501-4.633297l-.0033-25.369261c0-3.494986 2.835827-6.340285 6.330814-6.340285s6.324659 2.862891 6.324659 6.357878l-.008 8.763886 2.55569.573418.01445-9.337523c0-3.440259-1.975371-6.449347-4.844771-7.921119z" fill="#323232" opacity=".23"/>
    <path d="m31.963798 12.671229c-1.108401-.534068-2.362022-.822598-3.674781-.822598-4.667588 0-8.444898 3.771895-8.444899 8.439484l-.02375 25.353636c-.000001 3.733733 3.04263 6.763006 6.776363 6.763006 3.733731.000001 6.747381-3.015144 6.747381-6.749299l.01447-22.400069-1.693851-.0037-.01447 22.400069c.000001 2.796075-2.25379 5.059116-5.049864 5.059115-2.796072-.000001-5.086178-2.269415-5.086178-5.065489l.02375-25.353636c0-3.727816 3.019565-6.749299 6.747381-6.749299 3.727817.000001 6.749299 3.019565 6.749299 6.747381l.0012 9.310461 1.69998.368049-.0073-9.674843c0-3.354829-1.932124-6.25746-4.764702-7.622301z" fill="url(#radialGradient6935)"/>
    <path d="m31.804483 12.759671c-1.206373-.591065-2.563911-.909097-3.949601-.909097 4.469047.222109 8.032412 3.938106 8.032412 8.462467l.01987 9.465588.662079.165746.159259-9.650845c0-3.281898-2.066819-6.13397-4.924017-7.533859zm-4.371777.759634c-.02912.000001-.05634.02251-.08538.02288.0376-.0029.07458-.005.11244-.0073-.0089-.000246-.01814-.01562-.02706-.01563zm-.155129.01869c-3.647637.09274-6.607877 3.088103-6.607878 6.757672l.0033 25.369261c0 2.785152 2.250984 5.016565 5.032051 5.034239-2.579321-.235187-4.5979-2.397076-4.5979-5.036182l.430819-25.371204c0-3.535 2.304506-6.462541 5.739608-6.753786zm5.646874 9.719337-.434135.0019.02822 22.38863c0 3.576896-2.796974 6.507332-6.313247 6.747357 3.717639-.01884 6.720317-3.042439 6.720318-6.764924z" fill="url(#linearGradient6937)"/>
    <path d="m31.872891 45.649838v-22.395627h-.422559v22.395627c0 2.72466-2.161812 4.947743-4.859429 5.060144.07057.0025.139867.01056.211279.01056 2.796073 0 5.070709-2.274635 5.070709-5.070708z" fill="url(#linearGradient6939)" stroke-width=".422559"/>
    <path d="m31.356365 14.160833c-.842846-.394162-1.789103-.616117-2.776383-.628667 3.495137.257021 6.245413 3.185856 6.245412 6.745137l.0042 9.492652.414324.09487-.000057-9.562404c0-2.708491-1.582107-5.063443-3.887539-6.14159zm-2.915886-.637041c-.01761.000861-.02518.01023-.04269.01144.024.0012.04581.0028.06975.0042-.0088.000269-.01826-.01605-.02706-.01563z" fill="url(#linearGradient6941)"/>
    <path d="m26.379623 52.410782c.07141 0 .140713-.0085.21128-.01056-3.635275-.112823-6.549665-3.087639-6.549665-6.75038v-25.35354c0-4.596174 3.671193-8.32737 8.239901-8.440616-.07099-.0017-.139867-.01056-.21128-.01056-4.667586 0-8.45118 3.783593-8.45118 8.45118v25.35354c0 3.733731 3.027213 6.760944 6.760944 6.760944z" fill="url(#linearGradient6943)" stroke-width=".422559"/>
  </g>
</svg>
