<svg enable-background="new 0 0 128 128" height="256" viewBox="0 0 256 256" width="256" xmlns="http://www.w3.org/2000/svg" xmlns:xlink="http://www.w3.org/1999/xlink">
  <defs>
    <filter id="filter10101" height="1.094983" width="1.097028" x="-.048514" y="-.047491">
      <feGaussianBlur stdDeviation="3.4968943"/>
    </filter>
    <radialGradient id="radialGradient10147" cx="66.265602" cy="57.4487" gradientTransform="matrix(1.9321345 -.32187352 .29739448 1.9508729 -14.311541 33.3684)" gradientUnits="userSpaceOnUse" r="62.1035">
      <stop offset=".3669" stop-color="#bfebff"/>
      <stop offset=".73034632" stop-color="#5ac6ff"/>
      <stop offset="1" stop-color="#0072cf"/>
    </radialGradient>
    <linearGradient id="linearGradient10149" gradientTransform="matrix(.9875 -.1574 .1574 .9875 10.5626 9.6975)" gradientUnits="userSpaceOnUse" x1="63.1133" x2="63.1133" y1="84.261703" y2="56.7295">
      <stop offset="0" stop-color="#fff"/>
      <stop offset="1" stop-color="#b0eaff"/>
    </linearGradient>
    <filter id="filter8048" height="1.608376" width="1.280535" x="-.140268" y="-.304188">
      <feGaussianBlur stdDeviation="3.7002965"/>
    </filter>
    <mask id="mask5127" maskUnits="userSpaceOnUse">
      <path d="m83.182 24.126c-7.533 10.338-10.396 22.637-8.658 34.162 1.187 7.868 4.52 15.375 9.978 21.649 6.897 7.929 16.825 13.728 27.953 16.332 2.796.654 4.913 2.455 5.964 5.072.289.718.487 1.485.608 2.288.478 3.168-.253 6.889-1.402 10.379 2.561-1.667 5.042-3.412 7.39-5.27 4.42-3.502 7.778-6.864 10.268-10.276.62-.852 1.536-1.43 2.557-1.612 6.254-1.115 12.245-3.108 17.807-5.923 16.851-8.526 33.385-28.3 29.875-51.569-3.924-26.008-23.804-34.622-35.305-37.442-24.998-6.131-53.19 3.21-67.035 22.21z" fill="url(#linearGradient5131)"/>
    </mask>
    <linearGradient id="linearGradient5131" gradientTransform="matrix(.9875 -.1574 .1574 .9875 -9.4374 9.6975)" gradientUnits="userSpaceOnUse" x1="81.905296" x2="184.3334" y1="67.636703" y2="67.636703">
      <stop offset="0"/>
      <stop offset=".1243" stop-color="#fff"/>
      <stop offset=".8876" stop-color="#fff"/>
      <stop offset="1"/>
    </linearGradient>
    <filter id="filter10144" height="1.876326" width="1.444299" x="-.222149" y="-.438163">
      <feGaussianBlur stdDeviation="1.0554"/>
    </filter>
    <filter id="filter6102" height="1.20608" width="1.224522" x="-.112203" y="-.10304">
      <feGaussianBlur stdDeviation="1.513246"/>
    </filter>
    <filter id="filter14039" height="1.090718" width="1.101935" x="-.050967" y="-.045359">
      <feGaussianBlur stdDeviation="1.9067374"/>
    </filter>
    <linearGradient id="linearGradient10151" gradientUnits="userSpaceOnUse" x1="108.75069" x2="80.037865" y1="50.613628" y2="-36.633152">
      <stop offset="0" stop-color="#204a87"/>
      <stop offset="1" stop-color="#16325d"/>
    </linearGradient>
    <linearGradient id="linearGradient10153" gradientTransform="matrix(-1.9860532 .56127112 -.57253977 -1.9660022 250.18038 93.706304)" gradientUnits="userSpaceOnUse" x1="58.5298" x2="58.5298" y1="54.625" y2="7.1538">
      <stop offset="0" stop-color="#fff"/>
      <stop offset=".81660002" stop-color="#fff" stop-opacity="0"/>
    </linearGradient>
  </defs>
  <path d="m178.23779 31.142703c-10.30025-69.178875-114.228371-78.414383-156.294373-27.6671785-21.71199598 26.1939855-21.83453398 63.1185295 2.411804 87.8742935 12.311298 12.566582 28.970472 20.427982 46.196198 23.534662 11.90621 2.15223 1.29888 24.23264-4.26715 33.10531 9.84904-5.14524 19.19496-11.15751 27.639874-17.93769 5.855797-4.70373 11.382897-9.88249 15.765367-15.83209 9.18014-1.93366 18.0388-5.09133 26.20982-9.41474 27.02863-14.293322 46.91988-42.898914 42.33846-73.662567z" filter="url(#filter10101)" transform="matrix(1.3873493 0 0 1.3580996 3.808752 55.316096)"/>
  <path d="m251.05637 88.321386c-14.76638-97.0835217-163.757142-110.04442-224.062711-38.827354-31.1262043 36.759841-31.3018683 88.578658 3.457538 123.320098 17.649413 17.63557 41.53191 28.66798 66.226607 33.0278 17.068676 3.02036 1.862073 34.00741-6.117351 46.45908 14.119517-7.22071 27.517777-15.6581 39.624347-25.17332 8.39486-6.60097 16.31846-13.86875 22.60115-22.21814 13.1606-2.71371 25.86032-7.14515 37.57425-13.21247 38.74809-20.0587 67.26406-60.203 60.69617-103.375694z" fill="url(#radialGradient10147)" stroke-width="1.4184"/>
  <path d="m52.408 74.725c1.278 7.73 17.095 11.288 34.751 8.066 17.048-3.111 29.534-11.436 28.409-18.703-1.129-7.284-15.558-11.118-32.755-8.463-17.813 2.75-31.687 11.35-30.405 19.1z" fill="url(#linearGradient10149)" filter="url(#filter8048)" transform="matrix(-2.166234 0 0 -2.2748012 312.8649 286.22483)"/>
  <g mask="url(#mask5127)" opacity=".6" stroke="#c9ffff" stroke-width="8.1333" transform="matrix(2.0666751 0 0 2.04494 -136.53408 4.30095)">
    <path d="m86.103 81.665325c7.491 7.611 18.086 12.942 29.708 15.062" fill="none" filter="url(#filter10144)" stroke="#c9ffff" stroke-linecap="round" stroke-width="8.1333"/>
    <path d="m117.818 116.323c2.627-1.734 8.427-8.422 10.793-10.289 4.43-3.498 7.77-6.793 10.229-10.081.61-.817 1.513-1.389 2.515-1.594 6.096-1.248 11.868-3.279 17.163-6.028 15.701-8.146 30.621-26.01 27.493-46.721" fill="none" filter="url(#filter6102)" stroke="#c9ffff" stroke-linecap="round" stroke-width="8.1333" transform="matrix(.9484332 0 0 1.0026871 5.974028 -.212194)"/>
  </g>
  <g transform="matrix(1.2440017 0 0 1.2177743 -5.11736 87.482669)">
    <path d="m68.71527 7.3415546-1.913368-10.2352851 10.235282-1.913367 1.913369 10.2352858zm7.998807 42.7884824-1.913369-10.235284 10.235283-1.913367 1.913368 10.235285c1.435457 7.310356-.441637 12.65631-5.631304 16.037878l-3.215087-3.377799c1.802057-1.232547 2.974007-2.795127 3.515887-4.687748.581352-1.865566.643984-4.202558.187889-7.010981zm18.410882-26.177823-1.689361-9.037007 27.610292-5.1614244 1.68936 9.0370084zm51.517091 35.37667c4.07931-8.031265 6.95756-16.406383 8.63474-25.125383 1.71041-8.725208 1.74739-17.464851.11095-26.2189554-.93337-4.9927843-2.27563-9.6852441-4.02678-14.0773947-1.7179-4.3982789-3.79585-8.4192559-6.23384-12.0629459-2.43804-3.64357-4.9605-6.909702-7.5674-9.798405-2.60693-2.888563-5.55915-5.781548-8.85666-8.678951l-6.44073 1.20402c3.07044 3.525483 5.45897 6.351592 7.1656 8.478343 1.70664 2.126885 3.56073 4.67397 5.56228 7.641262 2.02862 2.927901 3.6309 5.694302 4.80684 8.299212 1.20923 2.5987875 2.3662 5.6551261 3.47093 9.169023 1.138 3.5077575 2.10212 7.3752401 2.89238 11.6024616 2.98669 15.9770444 1.00034 32.9009384-5.95905 50.7717344z" fill="#15315a" filter="url(#filter14039)" opacity=".5"/>
    <path d="m65.771036 7.3415544-1.913368-10.2352849 10.235282-1.913367 1.913369 10.2352858zm7.998807 42.7884826-1.913369-10.235284 10.235283-1.913367 1.913368 10.235285c1.435457 7.310356-.441637 12.65631-5.631304 16.037878l-3.215087-3.377799c1.802057-1.232547 2.974007-2.795127 3.515887-4.687748.581352-1.865566.643984-4.202558.187889-7.010981zm18.410882-26.177823-1.689361-9.037007 27.610296-5.1614246 1.68936 9.0370086zm51.517095 35.37667c4.07931-8.031265 6.95756-16.406383 8.63474-25.125383 1.71041-8.725208 1.74739-17.464851.11095-26.2189552-.93337-4.9927845-2.27563-9.6852443-4.02678-14.0773949-1.7179-4.3982789-3.79585-8.4192559-6.23384-12.0629459-2.43804-3.64357-4.9605-6.909702-7.5674-9.798405-2.60693-2.888563-5.55915-5.781548-8.85666-8.678951l-6.44073 1.20402c3.07044 3.525483 5.45897 6.351592 7.1656 8.478343 1.70664 2.126885 3.56073 4.67397 5.56228 7.641262 2.02862 2.927901 3.6309 5.694302 4.80684 8.299212 1.20923 2.5987875 2.3662 5.6551261 3.47093 9.169023 1.138 3.5077575 2.10212 7.3752401 2.89238 11.6024618 2.98669 15.9770442 1.00034 32.9009382-5.95905 50.7717342z" fill="url(#linearGradient10151)"/>
  </g>
  <path d="m198.09642 45.59875c-7.04824-24.798674-47.49702-37.171108-92.06794-27.157094-46.622333 10.47704-79.517496 41.155079-71.514221 67.971837 7.965534 26.697747 52.970642 37.673647 98.613331 25.148137 43.65554-11.981314 71.9898-41.266055 64.96883-65.96288z" fill="url(#linearGradient10153)" stroke-width="1.4184"/>
</svg>
