<svg enable-background="new 0 0 128 128" height="256" viewBox="0 0 256 256" width="256" xmlns="http://www.w3.org/2000/svg" xmlns:xlink="http://www.w3.org/1999/xlink">
  <defs>
    <linearGradient id="linearGradient3235">
      <stop offset="0" stop-color="#fff"/>
      <stop offset="1" stop-color="#fff" stop-opacity="0"/>
    </linearGradient>
    <linearGradient id="linearGradient3251">
      <stop offset="0"/>
      <stop offset="1" stop-color="#131313" stop-opacity="0"/>
    </linearGradient>
    <radialGradient id="radialGradient6613" cx="42.617531" cy="120.64188" gradientTransform="matrix(1.2938348 1.3566616 -12.297532 11.743056 1450.8349 -1392.2067)" gradientUnits="userSpaceOnUse" r="3.406888">
      <stop offset="0" stop-color="#b4942a"/>
      <stop offset="1" stop-color="#e4dcc9"/>
    </radialGradient>
    <radialGradient id="radialGradient6615" cx="15.727077" cy="58.089687" gradientTransform="matrix(1.6267594 1.5433311 -22.115181 23.832033 1304.8884 -1356.3309)" gradientUnits="userSpaceOnUse" r="2.614397">
      <stop offset="0" stop-color="#252525"/>
      <stop offset=".5" stop-color="#252525"/>
      <stop offset=".75" stop-color="#252525"/>
      <stop offset="1"/>
    </radialGradient>
    <radialGradient id="radialGradient6617" cx="89.454559" cy="100.74671" gradientTransform="matrix(.05636451 .05197144 -.66391964 .72531219 116.82428 -25.503603)" gradientUnits="userSpaceOnUse" r="47.746403">
      <stop offset="0" stop-color="#2d2d2d"/>
      <stop offset=".5"/>
      <stop offset="1"/>
    </radialGradient>
    <radialGradient id="radialGradient6619" cx="34.677639" cy="7.462277" gradientTransform="matrix(.87066317 -.01298522 .00049337 .03391849 -13.549459 -65.378095)" gradientUnits="userSpaceOnUse" r="47.595196">
      <stop offset="0" stop-color="#fff" stop-opacity=".683453"/>
      <stop offset="1" stop-color="#fff" stop-opacity="0"/>
    </radialGradient>
    <radialGradient id="radialGradient6621" cx="34.677639" cy="7.462277" gradientTransform="matrix(-1.0909872 .003174 -.00008431 -.01094771 44.420124 -67.334793)" gradientUnits="userSpaceOnUse" r="47.595196" xlink:href="#linearGradient3235"/>
    <radialGradient id="radialGradient6623" cx="49.009884" cy="8.495312" fx="47.370888" fy="6.77017" gradientTransform="matrix(1.1686374 1.0877445 -.40831379 .44189414 30.779728 -45.104053)" gradientUnits="userSpaceOnUse" r="3.975041">
      <stop offset="0" stop-color="#fff"/>
      <stop offset="1" stop-color="#aeaeae"/>
    </radialGradient>
    <linearGradient id="linearGradient6625" gradientTransform="matrix(1.5965287 0 0 1.5969669 -8.003258 -62.442237)" gradientUnits="userSpaceOnUse" x1="48.914677" x2="48.913002" y1="2.971903" y2="2.55485">
      <stop offset="0" stop-color="#252525"/>
      <stop offset="1" stop-color="#252525" stop-opacity="0"/>
    </linearGradient>
    <radialGradient id="radialGradient6627" cx="49.011971" cy="2.674308" gradientTransform="matrix(1.5965287 0 0 .1942851 -8.003258 -58.733115)" gradientUnits="userSpaceOnUse" r="1.724619">
      <stop offset="0" stop-color="#fff"/>
      <stop offset="1" stop-color="#252525" stop-opacity="0"/>
    </radialGradient>
    <linearGradient id="linearGradient6629" gradientTransform="matrix(1.1686374 1.0877445 -1.0837806 1.172911 36.518011 -51.314283)" gradientUnits="userSpaceOnUse" x1="48.498562" x2="48.732723" xlink:href="#linearGradient3235" y1=".811505" y2="2.365727"/>
    <linearGradient id="linearGradient6631" gradientTransform="matrix(1.5877403 0 0 1.5969669 -7.587678 -62.442237)" gradientUnits="userSpaceOnUse" x1="46.051746" x2="46.051746" xlink:href="#linearGradient3251" y1="3.099999" y2="2.395859"/>
    <radialGradient id="radialGradient6633" cx="49.011971" cy="2.674308" gradientTransform="matrix(1.0587528 0 0 .1942851 13.774878 -58.733115)" gradientUnits="userSpaceOnUse" r="1.724619">
      <stop offset="0" stop-color="#fff" stop-opacity=".55036"/>
      <stop offset="1" stop-color="#fff" stop-opacity="0"/>
    </radialGradient>
    <linearGradient id="linearGradient6635" gradientTransform="matrix(1.2308732 0 0 1.2312111 16.382071 -53.438758)" gradientUnits="userSpaceOnUse" x1="46.051746" x2="46.051746" xlink:href="#linearGradient3251" y1="3.099999" y2="2.395859"/>
    <radialGradient id="radialGradient6637" cx="49.011971" cy="2.674308" gradientTransform="matrix(1.0504839 0 0 .19428512 -126.29225 -58.733114)" gradientUnits="userSpaceOnUse" r="1.724619">
      <stop offset="0" stop-color="#fff" stop-opacity=".55036"/>
      <stop offset="1" stop-opacity="0"/>
    </radialGradient>
    <radialGradient id="radialGradient6639" cx="9.691052" cy="82.518127" fx="54.622295" fy="83.512177" gradientTransform="matrix(1 0 0 .221569 0 64.2347)" gradientUnits="userSpaceOnUse" r="56.164051">
      <stop offset="0"/>
      <stop offset="1" stop-opacity="0"/>
    </radialGradient>
    <radialGradient id="radialGradient6036" cx="102.86758" cy="110.30446" gradientTransform="matrix(.95635282 .00014855 -.00163927 .96002941 -5.486852 3.453325)" gradientUnits="userSpaceOnUse" r="137.8933">
      <stop offset=".1006" stop-color="#f0f0f0"/>
      <stop offset=".4005" stop-color="#fafafa"/>
      <stop offset=".4793" stop-color="#fff"/>
      <stop offset=".5997" stop-color="#fafafa"/>
      <stop offset=".7219" stop-color="#eee"/>
      <stop offset=".8876" stop-color="#ddd"/>
    </radialGradient>
    <linearGradient id="linearGradient6038" gradientTransform="matrix(1.0799065 0 0 1.0840597 -15.149427 -2.426147)" gradientUnits="userSpaceOnUse" x1="17.9321" x2="172.0304" y1="99.125" y2="99.125">
      <stop offset=".1006" stop-color="#2c72c7"/>
      <stop offset=".2695" stop-color="#417fca"/>
      <stop offset=".4963" stop-color="#598ece"/>
      <stop offset=".6391" stop-color="#6193cf"/>
      <stop offset=".7899" stop-color="#84abda"/>
      <stop offset=".9191" stop-color="#9bbae1"/>
      <stop offset="1" stop-color="#a4c0e4"/>
    </linearGradient>
    <linearGradient id="linearGradient6213" gradientTransform="matrix(1.0799062 .0001675 -.00185081 1.0840578 -15.145251 -2.428554)" gradientUnits="userSpaceOnUse" x1="75.279297" x2="177.33839" y1="79.860397" y2="181.91949">
      <stop offset="0" stop-color="#888"/>
      <stop offset="1" stop-color="#bbb"/>
    </linearGradient>
    <radialGradient id="radialGradient6215" cx="55.37299" cy="74.239113" fx="49.388954" fy="67.642883" gradientTransform="matrix(1.9423492 1.5722101 -2.2312856 2.754136 112.30241 -218.31227)" gradientUnits="userSpaceOnUse" r="49.337746">
      <stop offset="0" stop-opacity="0"/>
      <stop offset=".40677965" stop-opacity="0"/>
      <stop offset=".46844774"/>
      <stop offset=".53672314" stop-opacity="0"/>
      <stop offset="1" stop-opacity="0"/>
    </radialGradient>
  </defs>
  <g transform="matrix(1.9055 -.383136 .383136 1.9055 -2.630984 26.503512)">
    <path d="m11.529086 119.61954c3.689608.00057 57.589637.009 59.186745.009l28.751916-.42126.09664-29.359161c.0026-1.544686.132905-77.810361.13934-81.5784754-3.739336-.0003626-84.244138-.0129063-87.984432-.0134895-.006467 3.7863549-.183743 107.5770259-.190209 111.3633859z" fill="#131313" opacity=".3" stroke-width="1.04059"/>
    <path d="m99.920735 6.2000222c-.06573-.0034-.131559-.00469-.19738-.00386-3.739336-.0005826-84.252649.00881-87.992939.00823-1.691524.00107-3.0682664 1.3704059-3.0849756 3.0683732-.00647 3.7863596-.1840213 106.5460246-.1904875 110.3323946-.00232.82238.3215975 1.61133.9001989 2.19263.5786022.58128 1.3642852.90707 2.1835162.9054 3.689618.00058 57.565944.0219 59.163036.0222.02122.004.04249.008.06379.012l28.856238-.52278c1.671248-.0358 3.011518-1.40235 3.021188-3.08033l.017-28.27566c.003-1.544917.10885-77.802226.11529-81.570345.004-1.6228054-1.24227-2.9707643-2.854445-3.0881874z" opacity=".1"/>
    <path d="m100.05342 7.2526803c-.117727-.0216733-.237133-.0329736-.356854-.0337718-3.739337-.0005825-84.220753.0147932-87.961044.0142095-.547642-.0035416-1.074376.2125194-1.463268.6002191-.3888911.3876997-.6077607.9149561-.60802 1.4647205-.0064675 3.7863594-.1840203 106.5460224-.1904875 110.3323824.0085 1.13509.9290255 2.04856 2.0598155 2.04401 3.689616.00057 57.565939.0219 59.163036.0222.0212.004.04247.008.06379.012l28.856237-.52278c1.120605-.0277 2.013785-.95171 2.007495-2.0769l.011-28.243626c.003-1.54484.10885-77.802227.11528-81.5703449.007-1.0057995-.7103-1.8686424-1.69695-2.0422588z" opacity=".15"/>
    <path d="m99.765462 8.2596032c-.0235.00586-.04677.012553-.0698.020064-3.739338-.0005827-84.246638-.023216-87.98693-.023799-.565381.00515-1.02108.4678956-1.019697 1.0354607-.0065 3.7863571-.184022 106.5460311-.190487 110.3323911.0043.56754.464512 1.02427 1.029908 1.022 3.689612.00057 57.597827.0279 59.194931.0282l28.856238-.52278c.565385-.005 1.021085-.46789 1.019695-1.03546l-.0209-28.249607c.003-1.544763.14075-77.796247.14718-81.5643637.008-.5489358-.4144-1.0070057-.960109-1.0420654z" opacity=".2"/>
    <path d="m11.529086 119.61954c3.689608.00057 57.589637.009 59.186745.009l26.795902-2.55923 2.052655-27.221191c.0026-1.544686.132905-77.810361.13934-81.5784754-3.739337-.0003626-84.244139-.0129063-87.984433-.0134895-.006467 3.7863549-.183743 107.5770259-.190209 111.3633859z" fill="#fff" stroke-width="1.04059"/>
    <path d="m12.674008 9.2163329c-.003196 1.8710951-.183735 107.5731771-.186928 109.4433171 1.838107.00029 57.040689.009 57.825855.009l26.507655-2.26261 1.788117-26.947621c.001302-.762264.133842-78.362379.137029-80.2286752-1.851498-.0002887-84.221186-.0131231-86.071728-.0134109z" fill="url(#radialGradient6036)" stroke-width="1.04059"/>
    <path d="m95.580798 26.690045-76.166975.000167-.000396.577819 76.166975-.000167zm-.000221 13.008826-76.166976.000167-.000395.577819 76.166975-.000167zm-.000222 13.008826-76.166975.000167-.000396.57782 76.166976-.000167zm-.000221 13.008826-76.166975.000167-.000003.575849 76.166975-.000167zm.0015 26.018049-76.168946-.000229-.000003.575849 76.168947.000229zm.04905 13.008478-76.218214.00012.0013.74415 76.218214-.00012z" fill="url(#linearGradient6038)" opacity=".5" stroke-width="1.04059" transform="matrix(.99999999 .00015483 -.00170703 .99999854 0 0)"/>
    <path d="m85.697045 104.05794.266826-.052c.178244-.0347.307863-.052.388857-.052.214901.00003.322699.11279.322315.33719-.000153.0889-.01329.1973-.03727.32305l-.04795.25149-.168514.0292c-.240896.0444-.383482.0671-.429918.0671-.174945-.00003-.261182-.0911-.260869-.27431.000059-.0499.0056-.0976.01537-.14527l.01959-.0954c.0098-.0423.01527-.0867.0153-.13335-.002-.1019-.02885-.18646-.0838-.25585zm-7.097511-.41846c.891964-1.8742 1.679738-2.81179 2.361158-2.81168.298054.00005.447793.21579.447053.64833-.00031.18429-.0669.60164-.19976 1.24989l-.228692 1.12088c.431354-.90837.880764-1.63896 1.349305-2.19067.468542-.55172.871819-.82809 1.21091-.82803.373647.00006.560094.22015.559347.65811-.000268.15827-.05596.52034-.165998 1.0862l-.113266.5767c-.06866.34797-.10364.60706-.103909.77401-.000507.29595.103991.44448.312413.44451.473002.00007 1.199121-.88007 2.182679-2.63826l.309636.1735c-1.070514 2.08881-2.005338 3.1337-2.802308 3.13357-.509717-.00007-.762925-.334-.761787-1.0007.000382-.22223.04958-.57888.146542-1.07102l.101276-.51167c.06752-.34581.102494-.56152.102615-.64608.000184-.10624-.05372-.15828-.161717-.1583-.265657-.00005-.742798.5289-1.429272 1.59009-.623676.9658-.935631 1.51754-.935867 1.65521.000004.0152.0053.0412.01498.0781-.03349.007-.09507.0228-.180425.0466-.03673.0108-.0929.0173-.165256.0173-.23002-.00003-.343222-.11062-.342849-.3296.00011-.0672.03717-.26776.113343-.60381.02722-.12032.05554-.24931.08274-.38807l.159011-.78484c.115465-.56477.173214-.903.173447-1.01682.000284-.16477-.06005-.24826-.181001-.24827-.265657-.00005-.656318.47688-1.175226 1.43294-.516733.94738-.774718 1.51322-.775029 1.69534-.000043.052.01927.10191.05806.15178-.136172.0607-.260411.0899-.373801.0899-.255938-.00005-.384211-.13774-.383737-.41525.000071-.0336.03631-.39351.110911-1.07754l.08558-.78918c.02855-.27643.0441-.53118.0445-.76642.000505-.29487-.05852-.51386-.177071-.65155.285272-.10403.486222-.15494.605011-.15493.215983.00004.324834.12798.324397.38381-.000158.0911-.0299.42928-.08921 1.01575zm-.207631-1.72803c-.557822.97773-1.120683 1.74408-1.689655 2.29577-.568975.55279-1.079164.82914-1.531644.82907-.275377-.00004-.497685-.09-.664758-.27112-.16816-.17998-.251987-.4174-.251485-.71118.000187-.11166.02425-.28835.07434-.53009l.08281-.40759c.120891-.58862.183161-1.00164.183538-1.23905.000236-.14093-.04168-.25584-.12576-.34475.320858-.0737.521784-.11049.603856-.11048.182507.00002.27408.12796.273639.38488-.000324.18972-.03642.46289-.110472.81845l-.147018.72305c-.0729.34689-.110015.57345-.110224.67752-.000524.30678.127723.45966.38582.4597.307774.00004.717503-.26007 1.230266-.78033.512765-.52027 1.009566-1.17822 1.490407-1.97601zm-3.277567-1.86726.05183.003c.164157-.008.400799-.08991.711005-.249222.308041-.158224.551299-.320795.725445-.485545-.108571.340377-.301281.625455-.57705.855237-.4196.349-.702837.52457-.850782.52455-.09827-.00001-.147844-.0607-.147637-.18215.000294-.17345.02864-.32846.08719-.46613zm-5.969329 3.56237c.880048-1.85252 1.668883-2.77926 2.367581-2.77915.545353.00009.817646.54215.815792 1.6273l.0068.44771c-.000878.51818.02442.87593.077 1.07432s.149601.29705.289989.29707c.211663.00003.452768-.16795.723319-.50505.269473-.33602.709072-1.01349 1.319873-2.02916l.309626.18001c-.543863 1.02434-1.03004 1.7842-1.46069 2.28063-.428488.49534-.814439.74353-1.15353.74348-.313171-.00005-.532135-.15185-.659045-.45541-.125833-.30247-.188649-.82825-.187373-1.57516l.000539-.31763c.000687-.40436-.02474-.68947-.0763-.85317-.05155-.16261-.142127-.2461-.270636-.24612-.326132-.00006-.853157.6503-1.579992 1.94889-.178728.31869-.293548.52247-.345539.61352-.191708.33061-.287146.56909-.287401.71761-.000101.0596.01708.11491.0483.1702-.141568.0596-.261489.0889-.360839.0888-.2473-.00004-.371253-.13774-.37078-.41526.000136-.078.03314-.43361.09901-1.06561l.08453-.80328c.0373-.34038.05719-.60598.05751-.79243.000444-.26126-.05967-.46832-.179289-.61794.05187-.0184.138311-.0477.259333-.091.153445-.0564.275519-.0834.366231-.0834.193304.00003.289174.14097.288696.42174-.000256.14852-.02013.40219-.05853.76209-.0077.0781-.01539.15502-.02306.22548zm-4.89486-.2089c-.0012.72415.302679 1.08627.912825 1.08637.529155.00009 1.111654-.25241 1.749667-.75965.638009-.50616 1.213658-1.17276 1.726949-2.00091l.312876.1735c-.483186.9062-1.110809 1.6541-1.883957 2.24805-.772066.59286-1.503668.88869-2.194809.88858-.44276-.00007-.792394-.14436-1.048934-.42945-.256528-.28731-.384368-.67976-.38352-1.17626.0012-.71656.235528-1.3301.701841-1.83845.468472-.51052 1.030457-.7641 1.688119-.764.317494.00005.571134.0803.762001.24186.18979.16047.285535.37513.285072.64506-.000757.44229-.266001.83468-.796816 1.17499-.531899.3414-1.142334.51042-1.831314.51031zm.03085-.35556c.51516-.0259.957094-.17439 1.325804-.44426.368708-.26879.5539-.57989.554506-.93329.000534-.31546-.139577-.47484-.420352-.47488-.335851-.00006-.645012.17985-.928564.5408-.283553.36095-.462485.79888-.531394 1.31163zm-3.862502.43952c.06674.12034.09896.22658.09881.31656-.000418.24175-.203892.5084-.611511.79885-.40762.29047-.778281.43677-1.111971.43671-.29482-.00002-.535406-.13235-.720702-.39579-.185292-.26454-.277581-.60604-.276869-1.02232.000788-.46397.121789-1.12414.364052-1.9816l.168453-.62222-.618785-.0001c-.258099-.00004-.464424.0368-.617897.11156.141905-.25798.258815-.42057.351799-.4856.09299-.0672.249628-.0997.47209-.0997l.55291.00008.07388-.25799c.114044-.383739.251642-.64606.410633-.78913.15899-.143072.396692-.214583.714185-.214534.03672-.00001.09611.0022.178172.0076-.192647.248219-.393145.666635-.60149 1.254164l1.950311.00031c.342331.00004.604822-.0444.784241-.13431-.06198.2515-.144339.41626-.24706.49321-.102723.0769-.292851.11487-.570387.11482l-2.077741-.00032c-.02392.0813-.04344.142-.05647.18211-.301955 1.02005-.453378 1.78971-.454263 2.31006-.000982.57455.203711.86185.616234.86192.211665.00001.442916-.091.694842-.27091.248689-.18208.427224-.38694.534522-.61349zm-5.346281-.82905c-.340298.70567-.721406 1.28016-1.140081 1.72022-.419757.44007-.794859.66007-1.127469.66001-.268898-.00003-.485817-.0953-.652855-.28629-.167061-.18973-.249796-.43582-.249271-.74154.00066-.38917.132556-1.1068.394631-2.14853.07068-.28184.107698-.45962.107774-.53335.000127-.0737-.02241-.15502-.0687-.24175l.514042-.003c.221381.00004.332466.0846.332175.25481-.000184.10624-.07201.41084-.218617.91383-.04453.15068-.07279.25366-.08585.31002l-.05655.22657c-.11092.45095-.1655.79458-.165908 1.032-.000622.36532.124333.54747.375954.5475.411448.00003.93283-.51045 1.567398-1.53045.518697-.83247.777804-1.42324.778407-1.77665.000067-.0488-.01495-.0986-.04402-.14852.202041-.0563.372713-.0845.513102-.0845.215982.00003.32493.0673.324712.19952-.000086.0314-.0099.0791-.0294.14092-.01082.0369-.03372.12683-.07065.26992-.0054.0271-.02939.12683-.07502.29811-.03155.12032-.05544.2168-.06961.28835l-.03811.17778c-.08165.40651-.123372.78809-.123977 1.14149-.000926.54204.12928.81307.389537.81311.575591.00009 1.308076-.81284 2.196375-2.43771l.309617.18542c-1.011961 1.9479-1.934781 2.92124-2.771712 2.92111-.562634-.00006-.843646-.49121-.841972-1.4712-.0051-.18538.005-.41736.02604-.69704zm-12.793172.98125c.891965-1.8742 1.679738-2.81179 2.361159-2.81168.298054.00005.447793.21579.447054.64834-.00031.18428-.0669.60163-.199761 1.24988l-.228691 1.12088c.431352-.90837.880763-1.63896 1.349304-2.19067.468543-.55171.87182-.82809 1.210911-.82803.373647.00005.560094.22015.559347.65811-.000269.15827-.05596.52034-.165999 1.0862l-.113266.57671c-.06866.34796-.10364.60705-.103909.774-.000507.29594.103991.44448.312414.44451.472991.00012 1.199121-.88007 2.182678-2.63826l.309637.1735c-1.070516 2.08882-2.00534 3.1337-2.80231 3.13357-.509709-.00011-.762924-.334-.761786-1.0007.000382-.22223.04958-.57888.146542-1.07102l.101277-.51167c.06752-.34581.102493-.56152.102613-.64608.000185-.10624-.05373-.15829-.161716-.15829-.265652-.00007-.742797.52889-1.429271 1.59009-.623676.96579-.935632 1.51753-.935868 1.65521.000006.0152.0053.0412.01499.078-.0335.007-.09508.0228-.180421.0466-.03674.0108-.09289.0173-.165251.0173-.230014-.00006-.34322-.11063-.342847-.32961.000116-.0672.03718-.26775.113341-.6038.02722-.12032.05554-.24931.08274-.38808l.159011-.78483c.115465-.56477.173214-.903.173438-1.01683.000283-.16477-.06005-.24825-.181002-.24827-.265653-.00006-.656317.47688-1.175227 1.43294-.516732.94739-.774718 1.51323-.775027 1.69535-.000051.0521.01928.10186.05806.15178-.136177.0607-.260409.0899-.373799.0899-.255937-.00005-.384213-.13773-.383737-.41526.000073-.0336.03631-.3935.110911-1.07754l.08558-.78917c.02855-.27644.04411-.53119.0445-.76643.000505-.29486-.05852-.51385-.177071-.65155.285272-.10402.486221-.15494.605011-.15493.215972.00009.324833.12797.324396.38382-.000165.0911-.02989.42928-.08921 1.01574zm-4.04153-.96003c-.316451.65472-.706167 1.21079-1.170231 1.66927-.462984.45849-.866179.68716-1.208509.68711-.261347 0-.470644-.11606-.625749-.35025-.157267-.23418-.234488-.54532-.233826-.93232.0013-.77402.235747-1.45478.703272-2.04335.467523-.58857 1.010139-.88226 1.623524-.88217.372567.00006.775178.1161 1.207819.34926.06519-.2309.325641-.34468.782441-.34461.02913.00016.07667.001.143621.003-.140754.21462-.248169.50947-.322242.88346l-.06425.31545c-.07075.35123-.108211.76207-.109017 1.23256-.000924.54203.123881.81306.375498.8131.264571.00008.628887-.22321 1.090772-.66978.46296-.44548.916414-1.01562 1.362513-1.70501l.287991.20168c-.456036.81623-.976634 1.49693-1.562873 2.04212-.58624.54519-1.088866.8183-1.50895.81824-.530223-.00014-.795128-.4446-.793607-1.33569-.0018-.18755.0061-.43796.0218-.75234zm.174284-.88673c-.517778-.33831-.948371-.50857-1.291782-.50862-.372566-.00007-.695846.22646-.968755.67954-.27183.4531-.408817.99077-.409882 1.61303-.000848.49758.160712.74694.487924.74698.352053.00004 1.029394-.77493 2.029876-2.32498.01297-.0173.06386-.0877.152619-.20595zm-2.324144.1178c-.557821.97773-1.120683 1.74407-1.689658 2.29578-.568974.55277-1.079163.82914-1.531641.82906-.27537-.00009-.497665-.0902-.664761-.27111-.168157-.17999-.251986-.4174-.251482-.71119.000187-.11166.02425-.28836.07433-.53008l.08281-.40759c.120891-.58863.183163-1.00165.183538-1.23906.000238-.14093-.04168-.25585-.125761-.34475.32086-.0737.521784-.11049.603859-.11049.182497.00007.274071.128.273639.38489-.000325.18972-.03643.46289-.110473.81845l-.147016.72304c-.0729.3469-.110015.57345-.110228.67753-.000521.30678.127725.45966.385822.45971.307781 0 .717504-.26007 1.230267-.78034.512764-.52027 1.009567-1.17822 1.490407-1.97601zm-3.277567-1.86726.05181.003c.164149-.008.400798-.08991.711003-.249215.308045-.158233.551302-.320798.725447-.485545-.108571.340375-.301283.62545-.577051.85523-.419599.349-.702835.52457-.850783.52455-.09828.00003-.147846-.0607-.147637-.18214.000294-.17345.02972-.32847.08719-.46614zm-3.932284 2.72906c-.384553.69481-.788299 1.24545-1.207997 1.65191-.419698.40645-.79477.60911-1.124142.60906-.26349-.00008-.472805-.11498-.627915-.34699-.154031-.23093-.231257-.5399-.230592-.928.0013-.7816.233606-1.4656.697885-2.05309.464282-.5864 1.002578-.8801 1.615964-.88001.366096.00002.766527.11724 1.199174.35359l.400812-1.995688c-.217129.04437-.397521.06716-.541146.06713-.218136-.000064-.377879-.05103-.478145-.153965-.100248-.103038-.182003-.293806-.244157-.574588.177989.118149.450014.177865.819336.177956.456805.000054.897546-.08442 1.323318-.253466l-.814708 4.062921c-.09261.45419-.138587.84013-.13913 1.15992-.000726.42496.11878.63744.359599.63748.236507 0 .628979-.27742 1.179604-.83454.55062-.55495 1.009496-1.13703 1.37554-1.74404l.302044.19301c-.438738.80539-.987479 1.5262-1.645149 2.16135-.657669.63516-1.180888.95272-1.571811.95265-.49675-.00011-.744454-.40013-.743085-1.20125.000573-.33172.0314-.68512.09468-1.06126zm.197145-.98105c-.512379-.33831-.937572-.50857-1.277742-.50862-.370404-.00009-.690447.22646-.961201.68171-.270753.45419-.40666.99079-.407718 1.61086-.00085.49758.16071.74694.486843.74699.348809.00006 1.022916-.77494 2.022316-2.32499.01841-.026.06388-.0954.137502-.20595zm56.02975-11.308842c.06674.12034.09896.226584.09881.316561-.000408.241746-.20389.508391-.611513.798855-.40762.290464-.778277.436754-1.111968.436703-.294814-.000048-.535409-.132335-.720703-.395795-.185293-.264538-.277579-.60603-.276868-1.02231.000788-.463976.12179-1.124148.364053-1.981605l.168452-.622221-.618785-.000098c-.258099-.000037-.464424.03679-.617898.111564.141905-.257985.258816-.420577.3518-.485605.09299-.06719.249628-.09969.472087-.09966l.552914.000085.07388-.257994c.114044-.383739.251642-.646059.410632-.78913.158992-.143071.396692-.21458.714185-.214532.03672-.00001.09611.0022.178173.0076-.192647.248219-.393145.666634-.601491 1.254161l1.950311.000304c.342331.000058.604822-.04435.784241-.1343-.06198.251491-.144339.416255-.24706.493207-.102723.07695-.292853.114865-.570387.114821l-2.077741-.000323c-.02392.0813-.04344.142005-.05647.182112-.301957 1.020052-.453379 1.78971-.454265 2.310059-.000981.57455.20371.861858.616235.861922.211662.000028.442917-.09099.694843-.270907.249768-.182083.428304-.386941.534522-.613493zm-6.463095-.08556c-.0012.724152.302677 1.086274.913905 1.086369.528073.000084 1.110574-.252411 1.748586-.759651.638009-.506157 1.213658-1.172762 1.726947-2.000903l.312878.173498c-.483186.906197-1.111888 1.654099-1.883958 2.248043-.772065.59286-1.503668.888695-2.194808.888586-.44276-.000072-.792412-.144262-1.048935-.429451-.256529-.287316-.384366-.679765-.383517-1.176263.0012-.716562.235529-1.330104.701839-1.838453.468472-.510518 1.029377-.764101 1.68812-.763999.317493.000047.571132.08031.762001.241861.190868.161554.285534.375129.285073.645058-.000757.442296-.266003.834684-.796818 1.174995-.532976.341396-1.142332.510413-1.831312.510306zm.02976-.355567c.51516-.02594.957095-.174383 1.325804-.444257.368708-.268789.553902-.579884.554506-.933287.000534-.315463-.139577-.47484-.421432-.474884-.334772-.000051-.643933.179855-.927484.540801-.283552.360948-.461405.798879-.531394 1.311627zm-3.335164-.388611c-.340297.705667-.721404 1.28016-1.140081 1.720222-.419755.440063-.794858.660069-1.12747.660016-.268894-.000046-.485796-.09546-.652852-.286294-.167063-.189735-.249794-.435829-.249273-.741534.00067-.389174.132557-1.106804.394631-2.148535.07068-.281844.107699-.459624.107774-.533348.000125-.07371-.02241-.155025-.0687-.241757l.514042-.0032c.221379.000036.332465.08461.332176.254805-.000184.106237-.07201.410842-.218628.913828-.04453.150677-.07279.253657-.08585.310025l-.05655.22656c-.11092.45095-.165501.794588-.165908 1.031996-.000623.36533.124334.54747.375951.547509.411445.000066.932832-.510445 1.567398-1.530446.518697-.832476.777805-1.423247.778409-1.776649.000067-.04879-.01495-.09865-.04402-.148524.20204-.05634.372713-.0845.5131-.08448.215981.000032.324929.0673.324711.199517-.000085.03143-.0099.07913-.0294.140924-.01083.03686-.03373.126824-.07065.269921-.0054.0271-.02939.126827-.07502.298104-.03155.12032-.05545.216805-.06961.288349l-.03811.177778c-.08165.406516-.123372.788093-.123976 1.141494-.000926.542031.129278.813064.389535.813106.575592.000088 1.308077-.81284 2.196375-2.437704l.309616.185421c-1.011959 1.947895-1.934782 2.921234-2.771709 2.921105-.562633-.000083-.843649-.491211-.841974-1.471199-.0051-.185375.005-.417363.02602-.697045zm-5.024986.105454c-.852475 1.515381-1.632383 2.274101-2.341881 2.27399-.260259-.000039-.468481-.116071-.622507-.350248-.156188-.23418-.23233-.545316-.231661-.936662.0013-.772935.234667-1.453685.700026-2.041173.465361-.586402 1.004736-.880099 1.617042-.880004.365009.000057.763295.116118 1.19594.349252.07058-.226557.348312-.340338.832111-.340262l.106909.00002c-.142959.239554-.248198.526813-.315729.863945l-.875725 4.381626c-.06208.308948-.09278.57779-.09317.80761-.00025.146347.03084.277523.09544.395696-.248519.08235-.438651.12243-.569318.12241-.201944-.00003-.302177-.116041-.301782-.34803.00031-.179954.04185-.474811.123543-.884573zm.193883-.970201c-.514539-.338307-.940812-.507485-1.278822-.507538-.370408-.000062-.690447.22646-.961203.681723-.270751.454177-.406657.990764-.407716 1.610847-.000849.497582.159629.746939.482521.74699.35313.000057 1.028314-.77494 2.026639-2.326073.01411-.02059.05955-.08997.138577-.20595zm-2.300406.118889c-.557823.977732-1.120684 1.744074-1.689656 2.29577-.568975.552782-1.079163.829136-1.531644.829067-.275376-.000041-.497683-.09005-.665839-.271119-.167079-.17998-.250906-.417401-.250405-.711182.000197-.111656.02425-.288354.07435-.53009l.08281-.407587c.121958-.588623.183161-1.001636.183538-1.23905.000237-.140928-.04168-.255846-.12468-.344749.320858-.07367.520703-.110495.602776-.110483.182503.000034.274079.127958.273639.384886-.000323.189709-.03643.462884-.110472.818446l-.147025.723039c-.0729.346897-.110016.573457-.110225.67752-.000524.30679.127723.45966.385822.4597.307771.000048.717501-.260061 1.230265-.780328.512765-.520268 1.009566-1.178215 1.490406-1.976006zm-3.277568-1.867261.05184.0032c.164158-.0076.401879-.08991.709924-.249223.309124-.158225.55238-.320795.726527-.485544-.108571.340377-.301282.625454-.577053.855231-.419599.349001-.702834.524574-.850781.524551-.09827-.000012-.147843-.06073-.147636-.182143.000294-.17345.02864-.328467.08719-.466133zm-.07125 1.884083c-.511372.970153-1.023467 1.729997-1.539522 2.280619-.514977.551704-.970088.826984-1.367494.826923-.288335-.000042-.519242-.112827-.697047-.335083-.176722-.224428-.264774-.517137-.26416-.877044.000345-.202719.03755-.488905.112696-.859643l.739589-3.710614c-.09614.01516-.179304.02274-.249496.02272-.564793-.000085-.846237-.239708-.845419-.718863l.000145-.08564c.294525.169157.628072.253767.99956.253821.372567.000064.696698-.09312.974555-.279536l-.862911 4.465101c-.07737.400005-.115621.676436-.115884.828205-.000708.417363.152278.626608.45681.626656.293734.000047.592074-.166854.890699-.50178.299709-.336011.790125-1.049246 1.473412-2.14187zm-6.907282.750176c-.316453.654722-.706168 1.210783-1.170232 1.669268-.462983.458484-.866178.687158-1.208509.687105-.261338-.00004-.47064-.116072-.625747-.35025-.157267-.23418-.234489-.545318-.233827-.932326.0013-.774018.235747-1.454769.703269-2.04334.467525-.588571 1.010139-.882265 1.623527-.88217.372569.000053.775173.116118 1.207819.349254.06519-.230895.32564-.34468.782441-.344608.02917-.000046.07667.0011.143622.0033-.140754.214622-.24817.50947-.322243.883458l-.06425.315451c-.07075.35123-.108212.762075-.109016 1.232557-.000926.542029.12388.813062.375499.813103.264576.000042.628887-.223219 1.090768-.669779.462962-.445477.916416-1.015621 1.362516-1.705012l.287989.201681c-.456034.816223-.976632 1.496933-1.562872 2.042122-.586241.545189-1.088864.818295-1.508947.818229-.530233-.000086-.795132-.444589-.79361-1.335685-.00076-.187542.0061-.437958.0218-.752332zm.174283-.886736c-.517777-.338307-.94837-.50857-1.29178-.508625-.372568-.000053-.695846.226462-.968757.679554-.271828.453093-.408815.990765-.409879 1.613015-.000849.497583.16071.746942.487922.746991.352048.000056 1.029395-.774941 2.029875-2.324987.01297-.01734.06386-.0878.152619-.205948zm-4.871654.123911c-.597824 1.003745-1.229839 1.793925-1.898208 2.371624-.667289.577699-1.286569.865962-1.857839.865873-.475161-.00007-.860407-.162743-1.154664-.490174-.294255-.326347-.441479-.750238-.440584-1.273837.0012-.687293.255973-1.286739.766563-1.797249.510589-.510513 1.108214-.766258 1.795033-.76615.278616.000045.506385.05428.684384.161633.178002.107351.2674.245039.267116.4109-.000463.273183-.229755.47695-.687869.61347.02386-.05961.03691-.11599.037-.170193.000688-.4011-.210633-.601683-.636116-.601752-.367167-.000058-.706609.204777-1.017248.617755-.309554.41081-.465832.861754-.466666 1.350663-.000684.398935.102433.724169.306111.973533.205832.251534.472355.377326.802805.377378.907122.000141 1.9692-.942824 3.189478-2.829979zm-9.013271 1.480503c-.0012.724151.302677 1.086274.912824 1.08637.529156.000085 1.111657-.252414 1.749669-.759653.638007-.506156 1.213658-1.172761 1.726947-2.000903l.312877.173498c-.483186.906198-1.110809 1.6541-1.883958 2.248042-.772065.592862-1.503666.888695-2.194807.888588-.442762-.000073-.792413-.144262-1.048936-.42945-.256527-.287316-.384365-.679767-.383517-1.176264.0012-.716563.235529-1.330104.701839-1.838454.468472-.510518 1.030456-.7641 1.688119-.763998.317493.000047.571132.08031.762001.241861.18979.16047.285535.375128.285074.645059-.000757.442296-.266003.834684-.796819 1.174994-.532977.341396-1.143412.510415-1.831312.510307zm.02976-.355567c.51516-.02594.957097-.174384 1.325805-.444257.368707-.268789.553903-.579886.554505-.933287.000545-.315462-.139575-.474841-.420351-.474883-.335853-.000052-.645012.179851-.928564.5408-.283552.360946-.461404.798879-.531395 1.311627zm-5.655347.56283c.880047-1.852519 1.667802-2.779266 2.367581-2.779157.545354.000089.817645.542155.81579 1.627299l.0068.447717c-.000889.518179.02442.875923.077 1.074313.05258.198391.149602.297056.289989.297078.211662.000028.452767-.167958.72332-.505058.269471-.336016.709071-1.013484 1.319872-2.029152l.309626.180002c-.543863 1.02435-1.030039 1.784199-1.46069 2.28063-.428489.49535-.814439.743538-1.15353.743484-.313174-.000043-.532134-.151847-.657965-.455405-.126913-.302473-.189729-.828251-.188453-1.575166l.000539-.317631c.000696-.404352-.02474-.689465-.0763-.853165-.05156-.162616-.142129-.246103-.270637-.246123-.326132-.000054-.853156.6503-1.579993 1.948891-.178728.318683-.293545.52247-.345538.613523-.191708.330606-.287146.569085-.2874.717601-.000103.05963.016.114913.04938.170203-.143731.05961-.263648.08885-.36084.08884-.24838-.000039-.372333-.137738-.371858-.415252.000136-.07805.03314-.433618.100095-1.065614l.08344-.803275c.0373-.340388.05719-.605979.05751-.792438.000444-.261257-.05967-.468321-.17929-.61794.05187-.01842.13831-.04768.259334-.09102.153444-.05635.275518-.08343.36623-.08342.193304.000033.289175.140974.288695.421745-.000255.148516-.02012.402184-.05853.762085-.0077.07806-.01538.155018-.02306.225479zm-2.333463-1.391211c.0064.05962.01061.112745.01053.158275-.0012.713311-.244223 1.334429-.726722 1.86555-.482547.531114-1.047789.795536-1.694653.795437-.493518-.000075-.896055-.158395-1.207605-.475007-.309392-.316592-.465274-.728559-.464412-1.233731.000985-.575633.203769-1.073186.6073-1.494822.402449-.42272.877967-.632953 1.424398-.632867.08315.000009.172768.01086.265602.03256-.06137-.111671-.09144-.205985-.09131-.282952.000205-.119246.04034-.234154.12154-.342543.600341.04996 1.097651.358995 1.495166.927102.408807.279751.834051.419662 1.277892.419729.289415.000043.600595-.09747.935701-.293633l.184125.31549c-.392473.273121-.794431.40965-1.205876.409585-.274297.001-.585212-.05646-.931676-.168152zm-.836391-.314507c-.202915-.0629-.391731-.160505-.563203-.29712-.124141-.02498-.228866-.0391-.312025-.04015-.416847.001-.787577.189586-1.108951.565704s-.484095.806462-.486 1.288868c.000481.350151.09826.638527.291182.862957.192919.22443.444343.338295.751037.338343.414685-.001.771415-.211271 1.071266-.630756.298769-.419483.449731-.920295.451805-1.501349-.000736-.201635-.03172-.397854-.09511-.586491zm-9.927866-.465524c-.05917-.127927-.08811-.260187-.08787-.396778.00076-.443379.339446-.841178 1.016073-1.194475.6777-.351128 1.443653-.526626 2.300019-.526494.900642.000142 1.608719.200799 2.126389.601984.516591.400097.775912.948672.77472 1.646805-.0016.925786-.4047 1.743105-1.210443 2.450868-.427201.373933-.959037.679555-1.597669.916864-.638628.23731-1.250057.355376-1.832127.355286-.561551-.000092-.840886-.211523-.840161-.635389.000255-.152853.04832-.470475.145244-.949614l.481458-2.422795c.04138-.207049.0632-.357735.0634-.448789.000147-.08673-.02887-.165866-.08814-.238507.329584-.123531.557549-.185288.686056-.185266.153349.000019.229867.08893.229566.266713-.000111.04227-.04037.258005-.118853.650411l-.408426 2.029294c-.10239.518165-.15369.842292-.153939.975628-.000255.148515.04925.248256.149593.30139.09926.05314.28712.07918.562496.08031.894164-.000944 1.643007-.275095 2.246528-.821367.603522-.546269.907053-1.223759.909513-2.032467-.000012-.625503-.218377-1.126371-.655097-1.501523-.436721-.376236-1.019548-.564953-1.747404-.565065-.593951.000991-1.14711.145084-1.660555.431196-.515602.285026-.945015.689313-1.290398 1.211775zm62.902396-23.389594.266826-.052c.178243-.03466.307862-.05199.388856-.05197.214901.000031.322699.112792.322316.337191-.000154.0889-.01329.197299-.03727.323046l-.04794.251493-.168514.02924c-.240895.04441-.383481.06715-.429918.06714-.174944-.000027-.261181-.0911-.260868-.274306.000059-.04987.0056-.09757.01537-.145262l.01959-.0954c.0098-.04227.01527-.08672.0153-.133346-.002-.101902-.02883-.186461-.0838-.255849zm-.73228-.572498c.06674.120339.09896.226584.09881.316561-.000417.241743-.203891.508391-.611512.798854-.40762.290464-.778279.436755-1.11197.436703-.294814-.000048-.535407-.132335-.720702-.395792-.185292-.26454-.277581-.606033-.276871-1.022313.000789-.463977.12179-1.124148.364054-1.981605l.168452-.622222-.618786-.000098c-.258099-.000037-.464422.03679-.617897.111564.141905-.257985.258815-.420576.351798-.485603.09299-.0672.249629-.0997.472091-.09966l.552912.000085.07388-.257994c.114043-.383739.251641-.64606.410632-.78913.158992-.143071.396692-.214582.714186-.214533.03672-.00001.09611.0022.178172.0076-.192648.24822-.393146.666634-.601491 1.254163l1.950311.000304c.342328.000057.604823-.04435.784241-.1343-.06198.25149-.144339.416254-.247061.493205-.102723.07695-.292851.114866-.570386.114821l-2.077741-.000322c-.02391.08129-.04344.142003-.05647.182113-.301954 1.020051-.453377 1.789709-.454263 2.310056-.000982.574552.203709.861859.616233.861924.211662.000027.442918-.09099.694844-.270907.248689-.182083.428303-.386942.53452-.613493zm-1.769439-1.573245c-.557822.977733-1.120682 1.744076-1.689655 2.295772-.568976.55278-1.079161.829137-1.531644.829066-.275376-.000042-.497685-.09005-.664758-.271118-.168159-.17998-.251986-.417401-.251484-.711182.000187-.111659.02425-.288354.07434-.530093l.0828-.407585c.120891-.588624.183161-1.001637.183538-1.239052.000237-.140926-.04168-.255844-.125759-.344749.320857-.07367.521784-.110493.603856-.110481.182502.000034.274077.127958.273638.384885-.000323.189708-.03643.462885-.110471.818445l-.147018.723045c-.0729.346896-.110015.573455-.110225.67752-.000523.30679.127723.45966.385822.4597.307773.000049.717502-.260062 1.230266-.78033.512765-.520267 1.009566-1.178213 1.490407-1.976006zm-3.278646-1.867259.05183.0032c.16416-.0076.400798-.08991.711005-.249222.308043-.158224.551301-.320796.725445-.485545-.108571.340377-.30128.625454-.577049.855232-.4196.349001-.702835.524576-.850784.524552-.09827-.000012-.147843-.06073-.147637-.182147.000295-.17345.02973-.328463.08719-.46613zm-.07125 1.884082c-.511373.970153-1.023466 1.729997-1.539521 2.280618-.516057.550621-.97009.826987-1.367496.826925-.288333-.000042-.519241-.112828-.697048-.335084-.17672-.224427-.264772-.517136-.264157-.877044.000345-.202719.03755-.488904.112696-.85964l.739599-3.710616c-.09614.01517-.179304.02274-.2495.02273-.563711-.000083-.846237-.239707-.845418-.718862l.000145-.08564c.294526.169158.628072.253767.999561.253821.371486.000063.696699-.09312.974552-.279535l-.863989 4.465102c-.07631.399998-.114543.676435-.114806.828202-.000717.417361.151196.626609.456809.626656.294815.000048.592075-.166851.890701-.501779.299707-.336011.790123-1.049245 1.473411-2.141869zm-7.764879 1.469857c-.0012.724151.302677 1.086275.912824 1.086368.529156.000086 1.111656-.252411 1.749668-.759652.638009-.506156 1.213658-1.172761 1.726948-2.000902l.312876.173499c-.483185.906197-1.11081 1.654099-1.883957 2.248043-.772066.592861-1.503668.888694-2.194807.888586-.442762-.000072-.792413-.144261-1.048936-.429451-.256528-.287316-.384367-.679764-.383516-1.176263.0012-.716562.235528-1.330103.701837-1.838453.468472-.51052 1.030457-.764101 1.68812-.763998.317493.000046.571132.08031.762.24186.189791.160469.285536.375128.285076.645059-.000757.442294-.266005.834683-.79682 1.174994-.532976.341396-1.143412.510414-1.831312.510306zm.02977-.355566c.51516-.02594.957095-.174383 1.325804-.444257.368707-.268788.553903-.579884.554505-.933286.000544-.315461-.139576-.474841-.420351-.474884-.335853-.000053-.645012.179854-.928564.540801s-.462484.798879-.531394 1.311626zm-5.70891-.329358c-.2395.492125-.58581.925694-1.040006 1.297454-.454196.371761-.86056.558157-1.220167.558101-.267816-.000045-.486883-.09114-.656115-.27437-.170314-.182147-.254142-.41957-.253647-.710098.0012-.681872.260344-1.311669.779682-1.890475.518264-.577723 1.081391-.868162 1.692618-.868067.31425.000054.653188.09116 1.017885.273342.05013-.238476.12053-.388074.214591-.450934.09406-.06178.330644-.112691.71192-.152742-.190724.386979-.37481 1.311653-.550093 2.771849l-.04816.379414c1.053999-.637262 1.866118-1.287569 2.438521-1.94984l.308516.196263c-.541162.707806-1.464717 1.478427-2.772834 2.315116-.0077.09648-.01324.168027-.01548.214642-.03778.620076-.104434 1.077538-.198885 1.372387-.09446.293764-.263395.572342-.507906.836815-.479282.51702-1.061792.774935-1.746453.774829-.368248-.00006-.665072-.08683-.894796-.261397-.228643-.174568-.342729-.398987-.342255-.676505.000462-.268846.100264-.505148.298182-.70676.199051-.203772.570961-.450879 1.118971-.742406.362093-.189653.873375-.474681 1.533842-.851831zm.190632-.962615c-.320151-.339359-.671909-.510695-1.056355-.510755-.365009-.000057-.708808.228626-1.032482.686048-.323673.457423-.485412.944139-.486292 1.460149-.000624.365329.132973.547472.401869.547512.261338.000039.60836-.217799 1.042147-.653523.433788-.435724.809384-.945173 1.131113-1.529431zm-.360252 2.906305c-.142695.0867-.430233.251434-.864773.496363-.847468.48119-1.272598.906075-1.273226 1.27357-.000278.162608.06753.297043.204492.404387.136965.106264.311821.158324.524565.158353.937358.0012 1.406285-.777049 1.408942-2.332673zm-7.723858-1.052741c.880047-1.852518 1.668883-2.779265 2.367581-2.779157.545353.000089.817644.542157.81579 1.627299l.0068.447719c-.000889.518178.02442.87592.077 1.074312.05258.198391.149599.297055.289987.297077.211663.000028.452767-.167958.723321-.505059.26947-.336016.709069-1.013484 1.319871-2.029151l.309626.180003c-.543863 1.024349-1.030039 1.784198-1.46069 2.280629-.42849.495349-.814439.743538-1.153529.743484-.313175-.000043-.532136-.151847-.659046-.455408-.125832-.30247-.188649-.828249-.187373-1.575164l.000539-.31763c.000686-.404354-.02474-.689464-.0763-.853164-.05156-.162617-.142128-.246104-.270636-.246125-.326132-.000054-.853156.650302-1.579994 1.94889-.178728.318687-.293545.522471-.345537.613525-.191707.330607-.287147.569085-.2874.717601-.000103.05963.01708.114913.0483.170204-.14157.0596-.261489.08885-.360841.08884-.2473-.000038-.371252-.137737-.370778-.415251.000136-.07805.03314-.433618.09901-1.065615l.08453-.803274c.0373-.340388.05719-.605979.05751-.792437.000444-.261259-.05967-.468323-.17929-.617941.05187-.01842.138311-.04768.259333-.09102.153443-.05634.27552-.08343.366231-.08341.193303.000033.289174.140974.288695.421745-.000255.148515-.02012.402183-.05853.762083-.0077.07806-.01538.155019-.02306.225481zm-.201212-1.696587c-.557821.977734-1.120682 1.744076-1.689655 2.295772-.568976.552782-1.079164.829136-1.531644.829067-.275376-.000041-.497684-.09005-.66476-.271118-.168157-.179981-.251984-.417402-.251482-.711182.000187-.111659.02425-.288356.07434-.530095l.08281-.407585c.12089-.588622.183161-1.001636.183538-1.239049.000236-.140929-.04168-.255845-.12576-.344751.320858-.07367.521783-.110493.603857-.110481.182502.000033.274078.127958.273638.384884-.000324.189712-.03643.462885-.110472.818448l-.147018.723044c-.0729.346896-.110015.573456-.110224.677519-.000524.30679.127724.459661.385823.4597.307772.000048.7175-.260061 1.230265-.78033.512764-.520267 1.009566-1.178213 1.490407-1.976004zm-3.277566-1.867259.05183.0032c.16416-.0076.4008-.08991.711005-.249223.308044-.158225.551301-.320795.725447-.485544-.108571.340377-.301284.625453-.577051.855232-.419599.349001-.702836.524573-.850784.52455-.09827-.000012-.147842-.06073-.147637-.182143.000295-.17345.02864-.328467.08719-.466133zm-.07231 1.873242c-.597823 1.003745-1.229839 1.793925-1.898207 2.371623-.667288.577699-1.286569.865962-1.857839.865875-.475158-.00008-.860408-.162743-1.154662-.490176-.294259-.326348-.441482-.750237-.440587-1.273836.0012-.687294.255973-1.286738.766565-1.79725.510585-.510512 1.108212-.766257 1.795033-.766151.278615.000044.506384.05428.684384.161633.178001.107351.267399.245039.267115.4109-.000463.273184-.229756.476951-.687867.61347.02386-.05962.03691-.115988.037-.170191.000679-.401104-.210634-.601686-.636118-.601754-.367167-.000058-.706608.20478-1.017245.617756-.309556.410809-.465833.861753-.466668 1.350665-.000683.398932.102434.724166.306109.973531.205835.251533.472356.377326.802807.377377.907122.000142 1.969201-.942823 3.189479-2.82998zm-6.39275 1.722655c.08283.18864.124641.367516.124349.537714-.000644.378336-.158874.706781-.473604.987504-.314732.28072-.6843.420507-1.105463.420442-.2473-.000039-.459929-.06511-.633576-.193056-.173645-.129026-.260854-.282982-.260545-.464018.000332-.192962.119451-.38699.359527-.584253.240076-.198343.64112-.431355 1.202059-.70445l-.294002-.478115c-.358618-.580028-.537108-1.034276-.536547-1.36166.000804-.470482.273585-.847692.818347-1.134882.334552.129051.50166.290606.501329.485736-.000474.277519-.212591.543079-.636348.796684l.417673.779503.326183.601703c.471322-.281782.827021-.522387 1.064947-.725068.240082-.201598.542988-.512676.908713-.93215l.294504.182168c-.531447.71106-1.223608 1.308267-2.077551 1.786203zm-.627998.334877c-.719884.39015-1.078933.694714-1.079297.908274-.000348.203803.145267.304641.435762.304688.215981.000032.391051-.07366.525208-.219984.135243-.148493.203602-.338191.203992-.569098.000235-.139845-.02868-.280776-.08567-.423881zm-.54507-2.065215c-.557821.977733-1.120682 1.744075-1.689654 2.295772-.568976.55278-1.079164.829137-1.531645.829066-.275376-.000041-.497684-.09005-.664758-.271119-.168158-.179981-.251986-.417402-.251485-.711181.000187-.111658.02425-.288357.07434-.530095l.08281-.407585c.12089-.588621.183161-1.001637.183538-1.239049.000236-.140929-.04168-.255845-.12576-.344751.320858-.07367.521785-.110493.603856-.110479.182506.000023.274078.127958.273638.384882-.000323.18971-.03642.462889-.110461.818449l-.147029.723042c-.0729.346896-.110015.573456-.110224.67752-.000523.306788.127723.45966.385821.459701.307773.000049.717501-.260062 1.230266-.780331.512764-.520268 1.009566-1.178215 1.490407-1.976006zm-3.277567-1.867261.05184.0033c.16416-.0076.4008-.08991.711005-.249222.308043-.158224.551299-.320795.725446-.485545-.108571.340377-.301283.625454-.577051.855233-.4196.349-.702835.524573-.850783.524552-.09827-.000012-.147844-.06073-.147636-.182147.000295-.173449.02864-.328464.08719-.466132zm-5.016582 4.669343-.274472 1.369122c-.06315.307867-.09386.576705-.09425.806527-.000248.145265.03192.277522.09652.394612-.24744.08235-.437573.12243-.567162.12241-.203024-.000031-.305416-.116043-.30502-.346947.000313-.181036.04185-.47481.123543-.884572l1.093504-5.433129c-.21498.0455-.39536.06715-.542228.06713-.214902-.000031-.374638-.0521-.475973-.156179-.102415-.102999-.184159-.294892-.246311-.57784.180138.121437.454327.183278.822576.183338.457879.000074.897546-.08442 1.321159-.253465l-.289694 1.428744c.418614-.404288.850925-.608024 1.299087-.607955.389843.000068.715723.149708.975472.446785.259748.298157.389784.668925.389024 1.113389-.0012.695966-.243031 1.294327-.72337 1.799423-.48142.504013-1.052041.755425-1.711864.755322-.356373.0021-.654296-.07382-.890536-.226702zm.117621-.573446c.247879.292733.554323.438046.916092.438101.433044.000064.802684-.18308 1.107843-.549443.30516-.366364.458187-.811889.459082-1.335488.000647-.379423-.08522-.686223-.256525-.921491-.171302-.235267-.395723-.352381-.671099-.352423-.344492-.00005-.718473.196103-1.123025.5863zm.20358-2.229879c-.557822.977734-1.120682 1.744075-1.689657 2.295772-.568973.552782-1.079161.829137-1.531642.829067-.275377-.000042-.497685-.09005-.66476-.271118-.168159-.17998-.251984-.417402-.251483-.711182.000187-.111658.02425-.288355.07434-.530095l.08281-.407584c.12089-.588623.183161-1.001637.183538-1.239052.000236-.140927-.04168-.255845-.125761-.344751.320859-.07366.521784-.110491.603857-.110479.182505.000023.274079.127958.27364.384885-.000324.18971-.03643.462885-.110472.818445l-.147018.723045c-.0729.346895-.110015.573457-.110224.67752-.000524.306789.127724.459662.385821.459701.307773.000049.717503-.260063 1.230267-.78033.512765-.520268 1.009565-1.178215 1.490406-1.976008zm-3.277567-1.867259.05184.0033c.164159-.0076.400799-.08991.711005-.249224.308044-.158225.5513-.320795.725446-.485546-.108571.340378-.301281.625457-.577052.855234-.419599.349001-.702834.524575-.85078.524552-.09827-.000012-.147844-.06073-.147637-.182146.000294-.17345.02971-.328465.08719-.466132zm-3.932283 2.729045c-.384552.694823-.788297 1.245461-1.207996 1.651919-.419698.406455-.794771.609116-1.124144.609065-.263497-.000042-.472802-.114982-.627913-.346998-.154032-.230928-.231257-.539895-.230594-.927989.0013-.781606.233607-1.465609.697887-2.053098.46428-.586402 1.002576-.880098 1.615963-.880002.366088.000057.766534.117192 1.199171.35359l.400812-1.995691c-.217137.04442-.397521.06715-.541148.06713-.218141-.000033-.37788-.05101-.478137-.154006-.100253-.103007-.182002-.293809-.244156-.57459.177981.11819.450016.177855.819344.177915.4568.000074.897547-.08442 1.323318-.253463l-.814707 4.062923c-.09261.454197-.138586.840124-.139131 1.159922-.000725.424949.118782.637444.3596.637481.236498.000039.62898-.27742 1.179604-.834539.55062-.554953 1.009494-1.137022 1.375541-1.744037l.302044.193009c-.438738.805387-.987483 1.5262-1.645151 2.161356-.657667.635156-1.180884.952704-1.57181.952642-.496758-.000077-.744452-.400132-.743085-1.201252.000563-.331723.0314-.68512.09469-1.061279zm.197142-.98104c-.512379-.338307-.937569-.50857-1.27774-.508621-.370409-.000062-.690448.226459-.961201.681721-.270755.454179-.406658.990766-.407717 1.610847-.000849.497583.160709.746941.486841.746991.348811.000054 1.022916-.774941 2.022317-2.324988.0184-.02601.06388-.09539.1375-.20595zm-6.133225.885803c-.316451.654721-.706167 1.210782-1.17023 1.669268-.462983.458484-.866178.687158-1.20851.687103-.261336-.00004-.470641-.116062-.625746-.350246-.157268-.234183-.234489-.54532-.233828-.932327.0013-.774017.235747-1.454771.703268-2.043341.467528-.58857 1.01014-.882266 1.623528-.88217.372566.000063.775173.116118 1.207819.349255.06519-.230894.325639-.344681.782441-.344608.02917-.000046.07667.0011.143621.0033-.140754.21462-.248167.509467-.322241.883456l-.06425.315452c-.07075.35123-.108211.762076-.109017 1.232557-.000925.542028.123882.813064.3755.813101.264576.000042.628886-.223218 1.09077-.669777.462961-.445476.916415-1.01562 1.362515-1.705012l.28799.201679c-.456035.816225-.976632 1.496933-1.562873 2.042124-.586242.54519-1.088865.818292-1.508946.818228-.530235-.000086-.795133-.444589-.793612-1.335684-.0018-.187542.0061-.437958.0218-.752333zm.174284-.886735c-.517777-.338307-.948369-.508571-1.291779-.508623-.372567-.000064-.695847.226457-.968757.679553-.271831.453093-.408818.990765-.409881 1.613014-.000849.497584.160711.74694.487923.746992.352049.000056 1.029394-.774941 2.029875-2.324989.01297-.01734.06387-.0878.152619-.205947zm46.432353-9.876122c-.16752.07803-.302576.118116-.403007.118101-.251619-.000042-.377776-.111717-.377397-.333949.000192-.113826.04496-.396758.134278-.849882l.187325-.923587c.114327-.548516.172302-.95502.172714-1.219539.000244-.144179-.04059-.263432-.121415-.359925.261489-.08885.473227-.133266.637372-.13324.174945.000027.261148.110616.260773.330678-.000234.135508-.06456.493237-.189733 1.071019l-.216746 1.078605c.466989-.907284.935791-1.611848 1.408571-2.114778.472778-.502929.90085-.754364 1.284216-.754304.136069.000024.251543.03911.350772.116051.09814.07807.147653.172388.147462.284047-.000292.172366-.187511.402156-.561649.689373-.09362-.196228-.226279-.293815-.397985-.29384-.313171-.000053-.713311.334862-1.199327 1.001482-.300922.415147-.564073.844394-.786207 1.28557-.223216.442262-.334984.756621-.335303.944162zm-4.567571-1.519477c-.0012.72415.302678 1.086274.913905 1.086369.528074.000084 1.110575-.252414 1.748587-.759653.638009-.506155 1.213658-1.172761 1.72695-2.000901l.312876.173497c-.483188.906198-1.111889 1.654099-1.883957 2.248045-.772066.592859-1.50367.888691-2.194809.888585-.442761-.000073-.792413-.144262-1.048935-.429451-.256528-.287316-.384367-.679765-.383519-1.176263.0012-.716563.235529-1.330105.701841-1.838454.468471-.510518 1.029376-.7641 1.688119-.763998.317493.000047.571133.08031.762001.241861.190867.161554.285535.37513.285073.645059-.000757.442295-.266001.834683-.796817 1.174995-.532978.341395-1.143415.510413-1.831314.510306zm.02977-.355566c.51516-.02594.957094-.174385 1.325804-.444257.368706-.268789.553901-.579885.554507-.933287.000533-.315462-.139579-.47484-.421434-.474884-.33477-.000052-.643932.179854-.927483.540801-.283552.360946-.461404.798878-.531394 1.311627zm-3.336252-.388613c-.340296.70567-.721404 1.280161-1.140081 1.720223-.419755.440063-.794858.660069-1.12747.660016-.268896-.000046-.485797-.09546-.652854-.286294-.167061-.189735-.249795-.435828-.249272-.741534.00067-.389175.132556-1.106804.394631-2.148537.07068-.281842.107698-.459622.107773-.533347.000126-.07371-.02241-.155023-.0687-.241756l.514041-.0032c.221381.000037.332466.08461.332175.254805-.000184.106238-.07201.410842-.218617.91383-.04453.150676-.07279.253656-.08585.310025l-.05655.226559c-.110921.450951-.165501.794589-.165908 1.031996-.000623.365328.124333.547469.375953.54751.411443.000066.932831-.510447 1.567398-1.530446.518697-.832478.777804-1.423249.778408-1.776652.000065-.04878-.01495-.09865-.04402-.148523.202038-.05634.372711-.0845.5131-.08448.215981.000031.324928.0673.324711.199517-.000085.03143-.0099.07913-.0294.140924-.01082.03686-.03373.126823-.07065.269921-.0054.0271-.02939.126825-.07502.298105-.03155.12032-.05544.216802-.06961.288347l-.03811.177778c-.08165.406516-.123373.788092-.123978 1.141495-.000925.542029.12928.813065.389539.813104.575589.00009 1.308074-.812838 2.196374-2.437702l.309616.18542c-1.01196 1.947895-1.934781 2.921236-2.77171 2.921106-.562629-.000093-.843647-.49121-.841974-1.471199-.004-.185374.0061-.41736.02603-.697046zm-3.8772.827616c.06674.120341.09896.226585.09881.316561-.000418.241744-.20389.508392-.611512.798856-.407621.290463-.778279.436754-1.11197.436702-.294814-.000048-.535408-.132336-.720702-.395792-.185291-.26454-.277581-.606034-.27687-1.022311.000789-.463979.12179-1.124151.364053-1.981607l.168453-.622222-.618785-.000097c-.258099-.000037-.464424.03679-.617898.111562.141906-.257984.258816-.420573.351799-.485602.09299-.0672.249629-.09969.472091-.09966l.552912.000084.07388-.257994c.114044-.38374.251642-.64606.410634-.78913.15899-.143072.396691-.214583.714184-.214533.03672-.00001.09611.0022.178172.0076-.192648.24822-.393145.666634-.601491 1.254162l1.950324.000312c.342331.000047.604825-.04435.784241-.134302-.06198.251493-.144339.416256-.24706.493207-.102723.07695-.292852.114865-.570387.114824l-2.077741-.000325c-.02391.08129-.04344.142004-.05647.182112-.301956 1.020052-.453379 1.789711-.454264 2.310057-.000983.574551.203709.861859.616233.861924.211663.000027.442918-.09099.694842-.270907.249771-.182083.428305-.386942.534522-.613494zm-6.462015-.08556c-.0012.724151.302679 1.086273.912826 1.086369.529153.000085 1.111654-.252412 1.749667-.759651.638007-.506158 1.213658-1.172763 1.726948-2.000905l.312876.173499c-.483187.906197-1.110809 1.654099-1.883956 2.248043-.772065.592862-1.50367.888694-2.194809.888585-.442761-.000072-.792413-.144261-1.048935-.42945-.256528-.287316-.384366-.679764-.383519-1.176262.0012-.716563.235529-1.330103.70184-1.838454.468471-.510518 1.030458-.7641 1.68812-.763998.317493.000047.571132.08031.762001.241861.189791.160469.285534.375127.285074.645057-.000757.442296-.266004.834684-.796819 1.174995-.532977.341397-1.142333.510413-1.831313.510307zm.02977-.355565c.515159-.02594.957095-.174384 1.325804-.444259.368705-.268788.553902-.579884.554506-.933287.000534-.315462-.139577-.474838-.420352-.474883-.335851-.000052-.645012.179854-.928564.5408-.283553.360949-.461404.79888-.531394 1.311629zm-1.311763.439921c.06674.12034.09896.226585.09881.31656-.000408.241748-.203892.508393-.611512.798858-.407621.290463-.778279.436753-1.111969.436701-.294816-.000048-.535408-.132336-.720702-.395795-.185292-.264537-.277583-.60603-.27687-1.02231.000788-.463975.121789-1.124148.364053-1.981604l.168442-.622224-.618785-.000096c-.2581-.000037-.464423.03679-.6179.111561.141906-.257984.258818-.420574.3518-.485604.09299-.06719.24963-.09969.47209-.09966l.552912.000085.07495-.257995c.114044-.38374.250563-.646061.409553-.789131.158991-.143071.396692-.214582.714186-.214533.03672-.00001.09718.0022.178173.0076-.19265.248219-.393147.666634-.601492 1.254162l1.95031.000302c.34233.000058.603744-.04435.784242-.1343-.06306.251492-.144339.416256-.247062.493208-.102722.07695-.29285.114865-.571465.114821l-2.076661-.000323c-.02392.0813-.04344.142005-.05647.182111-.301957 1.020054-.453378 1.78971-.454265 2.31006-.000981.574551.20371.861859.616235.86192.211664.000028.442917-.09099.694843-.270904.249769-.182084.428303-.386944.534521-.613496zm-1.766212-1.566742c-.597822 1.003745-1.229837 1.793925-1.898205 2.371624-.667291.577699-1.286568.865962-1.857839.865875-.475157-.00008-.860407-.162743-1.154663-.490176-.294257-.326348-.44148-.750237-.440587-1.273838.0012-.687293.255973-1.286737.766565-1.797249.510588-.510511 1.108212-.766255 1.795034-.76615.278615.000044.506382.05428.684384.161633.178002.107351.267398.245039.267116.410901-.000463.273182-.229757.47695-.68787.613468.02386-.05962.03691-.115988.037-.17019.000689-.401103-.210634-.601686-.636117-.601753-.367169-.000059-.706609.204777-1.017247.617754-.309557.410811-.465831.861755-.466668 1.350664-.000683.398933.102435.724167.306112.973533.205831.251534.472352.377326.802804.377377.907121.00014 1.969201-.942824 3.189479-2.82998zm-9.014349 1.480502c-.0012.724152.30268 1.086275.912826 1.086369.529153.000085 1.111655-.252411 1.749665-.75965.638011-.506156 1.21366-1.172763 1.72695-2.000904l.312876.173499c-.483185.906196-1.11081 1.6541-1.883957 2.248042-.772065.592861-1.503668.888694-2.194808.888587-.442761-.000072-.792413-.144262-1.048936-.429452-.256527-.287313-.384365-.679763-.383518-1.176263.0012-.716563.235529-1.330103.70184-1.838452.468472-.510519 1.030455-.7641 1.688121-.763999.317492.000046.571131.08031.762001.24186.189789.16047.285534.375128.285072.64506-.000757.442295-.266002.834682-.796818 1.174993-.532977.341397-1.142333.510415-1.831313.510306zm.02977-.355564c.51516-.02594.957095-.174384 1.325804-.444256.368708-.26879.553903-.579885.554507-.933289.000544-.315459-.139577-.47484-.420353-.474883-.33585-.000052-.64501.179854-.928562.5408-.283554.360947-.461406.798879-.531396 1.311628zm-1.831466.59703c.08283.18864.124642.367516.12435.537711-.000644.378338-.158875.706782-.473605.987504-.314733.280722-.684301.420507-1.105463.420443-.247298-.000038-.459929-.06511-.633576-.193056-.173646-.129026-.260856-.282981-.260546-.464019.000331-.192962.11945-.386989.359528-.584249.240077-.198347.64112-.431357 1.202059-.704452l-.293998-.478114c-.358619-.580029-.537106-1.034277-.536547-1.361662.000804-.470479.273584-.84769.818347-1.134881.334552.129051.50166.290606.501327.485736-.000473.27752-.212589.543081-.636346.796684l.417674.779502.326182.601703c.47132-.281781.82702-.522387 1.064947-.725069.240085-.201598.542988-.512675.908714-.932148l.294503.182167c-.531449.71106-1.22361 1.308268-2.077551 1.786205zm-.627998.334876c-.719884.390148-1.078934.694714-1.079298.908273-.000347.203802.145267.304642.435761.304688.215982.000032.391053-.07365.525211-.219982.135242-.148495.2036-.338195.203992-.5691.000244-.139842-.02868-.280775-.08567-.423879zm-6.441012-.369582c.880048-1.852519 1.668883-2.779266 2.367584-2.779157.545351.000088.817642.542156.815788 1.627297l.0068.447717c-.000888.518179.02442.875924.077 1.074315.05258.19839.149601.297054.289988.297077.211662.000028.452768-.167959.72332-.505059.269471-.336015.70907-1.013484 1.319872-2.029151l.309625.180001c-.543862 1.024352-1.030038 1.784201-1.46069 2.280633-.428488.495346-.814438.743536-1.153528.743484-.313174-.000054-.532136-.151848-.659046-.455408-.125832-.302472-.188648-.82825-.187373-1.575166l.000539-.317629c.000697-.404353-.02474-.689465-.07629-.853167-.05156-.162615-.142129-.246103-.270637-.246122-.326132-.000055-.853157.650302-1.579993 1.948889-.178727.318686-.293546.522471-.345539.613524-.191707.330609-.287146.569085-.287399.717602-.000103.05963.01708.114912.0483.170204-.141569.0596-.261489.08885-.360841.08884-.247299-.000038-.371252-.137737-.370778-.415252.000136-.07805.03314-.433619.09901-1.065615l.08453-.803272c.0373-.340389.05719-.60598.05751-.792439.000444-.261257-.05967-.468323-.179289-.61794.05187-.01842.138311-.04768.259333-.09102.153445-.05635.275519-.08343.366231-.08342.193303.000032.289174.140974.288695.421742-.000255.148517-.02012.402184-.05853.762086-.0077.07806-.01538.155019-.02306.225482zm-2.334541-1.391211c.0085.05962.01169.112744.01161.158274-.0012.71331-.244222 1.334428-.726722 1.86555-.482546.531113-1.047789.795536-1.694653.795434-.494598-.000075-.897137-.158385-1.206524-.475005-.311554-.316592-.466356-.72856-.465494-1.233731.000985-.575635.20377-1.073187.607302-1.494821.403527-.422719.877965-.632952 1.424398-.632867.08424.000011.172767.01086.265601.03256-.06137-.111671-.09144-.205986-.09131-.282954.000205-.119246.04034-.234154.12154-.342542.600341.04996 1.097651.358994 1.495166.927103.407727.27975.834051.41966 1.277893.419729.288336.000042.600594-.09747.935701-.293634l.184126.31549c-.392473.273121-.794432.409651-1.205876.409587-.274299.001-.585214-.05646-.932758-.168142zm-.83423-.314508c-.202915-.06291-.391733-.160506-.563205-.29712-.124142-.02498-.228866-.0391-.312026-.04015-.416846.001-.787576.189585-1.108951.565705-.321373.376118-.484095.806463-.485998 1.28887.000481.35015.09718.638523.29118.862955.194.22443.444345.338296.751037.338343.414686-.001.771415-.211271 1.071265-.630756.298772-.419484.449734-.920293.451805-1.501349-.000735-.201636-.0328-.397855-.09511-.586491zm-2.097206.01485c-.597824 1.003747-1.229838 1.793925-1.898207 2.371626-.667288.577698-1.286568.865961-1.857838.865872-.475159-.000069-.860407-.162743-1.154663-.490174-.294257-.326347-.44148-.750237-.440586-1.273838.0012-.687292.255973-1.286737.766562-1.797248.510591-.510513 1.108215-.766257 1.795035-.76615.278615.000045.506383.05428.684384.161633.178002.107351.267399.245038.267116.410899-.000462.273183-.229754.476951-.687868.613471.02386-.05962.03691-.115989.037-.170193.000688-.401101-.210635-.601686-.636117-.601752-.367168-.000059-.70661.204778-1.017247.617753-.309555.410812-.465832.861756-.466668 1.350666-.000684.398932.102435.724167.306113.973533.205831.251532.472353.377324.802803.377376.907121.000141 1.9692-.942825 3.189479-2.829978zm54.533713-9.195157c.08097.01731.148983.02497.20298.02497.174946.000027.324099-.07475.447465-.22433.122289-.150665.185228-.33061.185591-.539833.00053-.310039-.152376-.569152-.457626-.781676.258402-.177745.490732-.266602.698075-.266569.341248.000056.512614.199546.511935.597395-.000652.381587-.137327.739306-.410041 1.075323-.27163.336014-.562413.503998-.869105.50395-.171706-.000024-.275154-.130133-.309269-.389225zm-.256434-2.238619c.06674.120339.09896.226583.09881.316559-.000407.241746-.203891.508392-.611511.798856-.407622.290465-.778279.436755-1.11197.436704-.294815-.000048-.535408-.132336-.720701-.395797-.185293-.264538-.277583-.606031-.276872-1.022309.000789-.463977.12179-1.12415.364053-1.981605l.168453-.622222-.618786-.000097c-.2581-.000037-.464423.03679-.617898.111561.141905-.257983.258815-.420574.351799-.485602.09299-.0672.249629-.0997.47209-.09966l.552912.000084.07495-.257994c.114044-.383739.250562-.646059.409553-.789131.158992-.143071.396692-.214582.714185-.214531.03672-.00001.09718.0022.178172.0076-.192648.248218-.393146.666634-.60149 1.254161l1.950309.000304c.34233.000058.603744-.04435.784243-.134301-.06306.251493-.144339.416255-.247062.493208-.102722.07695-.29285.114865-.571466.11482l-2.07666-.000323c-.02392.0813-.04344.142005-.05647.182114-.301956 1.020051-.453377 1.789707-.454264 2.310057-.000981.574551.20371.861858.616236.861921.211661.000038.442917-.09099.694841-.270905.248691-.182083.427225-.386943.534523-.613493zm-6.463095-.08557c-.0012.724152.302678 1.086274.913905 1.086371.528074.000083 1.110576-.252414 1.748587-.759653.638009-.506156 1.213658-1.172762 1.72695-2.000903l.312876.173498c-.483187.906197-1.111891 1.654099-1.883957 2.248042-.772066.592861-1.50367.888694-2.19481.888588-.442761-.000072-.792411-.144261-1.048936-.429452-.256525-.287314-.384364-.679764-.383516-1.176262.0012-.716563.235529-1.330104.70184-1.838454.468471-.510519 1.029375-.764101 1.688118-.763998.317493.000047.571133.08031.762003.241861.190866.161554.285534.375128.285073.64506-.000757.442294-.266003.834682-.796819 1.174993-.532977.341397-1.142333.510414-1.831314.510306zm.02977-.355565c.515159-.02594.957095-.174384 1.325804-.444256.368708-.26879.553903-.579885.554507-.933288.000544-.315461-.139576-.474841-.421432-.474884-.33477-.000052-.643931.179853-.927485.540801-.283552.360947-.461403.798879-.531394 1.311627zm-7.676996.593952c.891963-1.874199 1.679738-2.811786 2.361158-2.811681.298054.000051.447794.215798.447054.648337-.000311.184291-.0669.601642-.199761 1.249888l-.228692 1.120882c.431356-.908374.880764-1.638959 1.349307-2.190672.468542-.551713.871818-.828085 1.210909-.828032.373649.000054.560094.220152.559348.658111-.000268.158272-.05596.52034-.165998 1.086201l-.113267.576707c-.06866.347965-.10364.607053-.103919.774001-.000507.295947.103993.44448.312416.444511.472998.000078 1.199119-.880067 2.182677-2.638257l.309637.173498c-1.070516 2.088813-2.00534 3.1337-2.80231 3.133575-.509716-.000078-.762924-.334008-.761785-1.000704.000381-.222232.04958-.57888.146542-1.071026l.101275-.511665c.06752-.345809.102494-.561521.102615-.646082.000185-.10624-.05372-.15828-.161716-.158299-.265656-.000043-.742798.528904-1.429272 1.590092-.623675.965797-.935632 1.517534-.935867 1.655209.000005.01518.0053.0412.01498.07805-.03349.0065-.09507.02275-.180425.04659-.03673.01084-.0929.01733-.165254.01732-.230022-.000033-.343222-.110625-.342849-.329607.00012-.06721.03717-.267757.113342-.603801.02722-.120323.05554-.249317.08274-.38808l.159001-.784835c.115465-.564771.173214-.903.173437-1.016821.000284-.164775-.06005-.248258-.180999-.248276-.265657-.000044-.656317.476883-1.175226 1.432942-.516734.947387-.774718 1.513224-.775029 1.695345-.000043.05204.01927.101908.05806.151778-.136171.06068-.26041.08994-.373801.08992-.255939-.000035-.384212-.137738-.383737-.415255.000071-.03361.03631-.393506.110911-1.077535l.08558-.789182c.02855-.276429.0441-.531183.0445-.766422.000505-.294864-.05852-.513852-.177072-.651547.285273-.104025.486221-.154945.605012-.154927.215982.000032.324834.127971.324398.383809-.000158.09106-.0299.42928-.08921 1.015748zm-4.040451-.960022c-.31645.654723-.706166 1.210784-1.17023 1.669266-.462982.458487-.866179.687159-1.20851.687106-.261338-.000039-.470641-.116072-.625747-.350247-.157266-.234182-.234489-.545319-.233827-.932327.0013-.774019.235747-1.454769.70327-2.043341.467524-.588571 1.010139-.882266 1.623525-.882171.372568.000064.775175.116118 1.207819.349256.06519-.230895.325643-.344681.782442-.344609.02917-.000046.07667.0011.143623.0033-.140755.214623-.24817.509468-.322243.883457l-.06425.315451c-.07075.351232-.108211.762077-.109015 1.232558-.000926.542029.12388.813062.375497.813102.265657.000043.628887-.223217 1.090771-.669779.461881-.445474.916415-1.01562 1.362514-1.705011l.28799.201679c-.456035.816225-.976633 1.496933-1.562873 2.042123-.586239.54519-1.088863.818295-1.508947.818228-.530233-.000086-.795133-.444586-.79361-1.335683-.0018-.187542.0061-.437958.0218-.752333zm.174283-.886735c-.517778-.338307-.948369-.508573-1.291781-.508625-.373647-.000054-.695846.226459-.968757.679554-.271829.453094-.408816.990765-.409879 1.613014-.000849.497583.161789.746941.487922.746992.353129.000056 1.029394-.774941 2.029877-2.324989.01297-.01734.06386-.0878.152618-.205946zm-6.426155 1.690133c.06674.120339.09896.226584.09881.316561-.000407.241744-.20389.508391-.611511.798855-.407622.290463-.778279.436754-1.111969.436702-.294815-.000048-.535408-.132335-.720702-.395795-.185293-.264537-.27758-.60603-.276871-1.022309.000789-.463977.12179-1.124149.364054-1.981605l.168452-.622223-.618786-.000097c-.258099-.000037-.464423.03679-.617899.111563.141906-.257985.258818-.420576.351801-.485605.09299-.0672.249628-.09969.472088-.09966l.552912.000085.07388-.257995c.114043-.38374.251642-.646059.410632-.78913.158992-.143071.396692-.214583.714185-.214532.03672-.00001.09611.0022.178172.0076-.192648.24822-.393146.666634-.601491 1.254163l1.95031.000303c.34233.000058.604824-.04435.784243-.1343-.06198.251491-.144339.416255-.247062.493206-.102722.07695-.292851.114864-.570386.114821l-2.077741-.000322c-.02391.08129-.04344.142003-.05647.182112-.301956 1.020052-.453377 1.789708-.454264 2.310057-.000981.574551.20371.861859.616235.861924.211663.000028.442917-.09099.694844-.270908.248689-.182082.427222-.386941.534521-.613492zm-1.770519-1.573244c-.557823.977733-1.120683 1.744073-1.689656 2.295772-.568975.55278-1.079164.829137-1.531643.829064-.275377-.000041-.497685-.09005-.664761-.271117-.168156-.17998-.251984-.417402-.251483-.711181.000186-.111658.02425-.288357.07434-.530095l.08281-.407585c.120891-.588623.183162-1.001637.183539-1.239051.000236-.140928-.04168-.255845-.125761-.34475.320858-.07367.521783-.110494.603856-.110479.182506.000023.274079.127958.27364.384882-.000324.18971-.03643.462887-.110472.818447l-.147028.723044c-.0729.346894-.110015.573455-.110225.677519-.000523.306788.127722.459661.38582.4597.307774.000049.717503-.260062 1.230268-.78033.512763-.520268 1.009564-1.178215 1.490406-1.976007zm-3.277568-1.86726.05184.0033c.164158-.0076.400799-.08992.711003-.249222.308045-.158225.551302-.320797.725449-.485546-.108571.340377-.301283.625455-.577053.855232-.4196.349002-.702835.524576-.850782.524551-.09827-.000012-.147843-.06073-.147637-.182144.000295-.17345.02864-.328465.08719-.466131zm-2.144358 3.596572c.08283.188638.124641.367515.124352.537712-.000644.378336-.158874.706781-.473608.987503-.314731.28072-.684298.420507-1.105461.420443-.247299-.000038-.459931-.06511-.633576-.193066-.173645-.129026-.260853-.282979-.260544-.464016.000331-.192964.11945-.386992.359527-.584254.240077-.198344.641121-.431354 1.202059-.704449l-.293998-.478116c-.358618-.580027-.537106-1.034276-.536548-1.361661.000805-.470481.273585-.847691.818349-1.134882.334549.129061.50166.290607.501326.485738-.000473.277518-.212589.543079-.636345.796683l.417671.779503.326185.601702c.471321-.281781.827021-.522385 1.064947-.725068.240083-.201597.542988-.512675.908713-.932148l.294505.182167c-.53253.71106-1.223611 1.308268-2.077553 1.786205zm-.627999.334875c-.719883.39015-1.078933.694714-1.079296.908272-.000348.203805.145266.304644.435761.304689.215982.000032.391053-.07366.525211-.219982.135242-.148496.203599-.338194.203992-.569099.000235-.139845-.02976-.280776-.08567-.42388zm-7.310414.940908c-.16752.07803-.302576.118116-.403007.118101-.251619-.000042-.377777-.111717-.377397-.333949.000192-.113829.04496-.39676.134278-.849882l.187325-.923587c.114328-.548518.172302-.955022.172714-1.219539.000244-.144181-.04059-.263432-.121416-.359926.261489-.08885.473226-.133267.637371-.133241.174945.000027.261149.110617.260774.330678-.000234.135509-.06456.493237-.189733 1.071021l-.216746 1.078604c.46699-.907284.935792-1.611849 1.408571-2.114777.472779-.502931.900852-.754365 1.284218-.754304.136068.000024.251542.03911.35077.116051.09814.07807.147654.172388.147464.284046-.000292.172366-.187512.402157-.56165.689374-.09362-.196228-.226279-.293815-.397983-.29384-.313173-.000053-.71331.334861-1.199328 1.001483-.300922.415145-.564074.844393-.786209 1.285569-.223216.442261-.334982.756621-.335302.944162zm-2.007252-2.701785c.0064.05962.01061.112745.01053.158272-.0012.713313-.244223 1.33443-.726724 1.865553-.482545.531113-1.047788.795536-1.694652.795433-.493519-.000075-.896055-.158394-1.207605-.475005-.309391-.316593-.465276-.728559-.464413-1.23373.000985-.575635.203769-1.073188.607303-1.494822.402445-.42272.877965-.632953 1.424397-.632868.08315.000009.172767.01086.265601.03256-.06137-.111671-.09144-.205985-.09131-.282953.000205-.119247.04034-.234154.12154-.342542.600343.04995 1.097651.358993 1.495167.927103.408806.279748.834052.419659 1.277892.419728.289415.000043.600596-.09747.9357-.293634l.184127.315489c-.392474.273122-.794432.40965-1.205876.409588-.274298.001-.585213-.05646-.931678-.168152zm-.836389-.314509c-.202917-.0629-.391735-.160495-.563205-.297119-.124141-.02498-.228865-.0391-.312024-.04016-.416845.001-.787574.189589-1.108948.565708-.321375.376118-.484097.806463-.486001 1.288868.000481.350151.09826.638526.291181.862958.19292.224427.444344.338292.751036.338342.414686-.001.771415-.211273 1.071266-.630755.298771-.419485.449733-.920296.451805-1.501351-.000735-.201635-.03172-.397854-.09511-.586491zm-2.097223.02569c-.511372.970152-1.023466 1.729998-1.539523 2.280618-.516055.550622-.970089.826987-1.367494.826925-.288335-.000042-.519242-.112827-.697047-.335082-.176721-.224429-.264775-.517139-.26416-.877046.000345-.202719.03755-.488904.112696-.859641l.739599-3.710615c-.09614.01517-.179305.02274-.249498.02273-.563713-.000084-.846238-.239708-.84542-.718863l.000145-.08564c.294527.169159.628074.253768.999562.253822.371486.000063.696699-.09312.974552-.279535l-.863989 4.465102c-.07631.4-.114543.676435-.114806.828202-.000717.417362.151196.62661.456809.626658.294815.000048.592075-.166854.890701-.501781.299708-.336011.790123-1.049244 1.473412-2.141869zm-5.205641.287549c.0064.05962.01061.112744.01053.158274-.0012.713311-.244223 1.33443-.726724 1.865551-.482545.531113-1.047787.795535-1.694651.795435-.493519-.000074-.896055-.158394-1.207605-.475006-.309392-.316593-.465276-.728558-.464412-1.23373.000984-.575635.203769-1.073187.6073-1.494821.402448-.422721.877964-.632953 1.424398-.632869.08315.000009.172768.01086.265602.03256-.06137-.111671-.09144-.205985-.09131-.282953.000205-.119247.04034-.234155.12153-.342546.600342.04996 1.097653.358995 1.495168.927102.408806.279752.834049.419662 1.277892.41973.289415.000043.600594-.09747.935701-.293633l.184125.315489c-.392474.273121-.794431.40965-1.205876.409586-.274297.001-.585214-.05646-.931676-.168151zm-.836392-.314508c-.202915-.0629-.39173-.160505-.563203-.297121-.12414-.02498-.228865-.0391-.312025-.04015-.416846.001-.787576.189589-1.108951.565706-.321374.376117-.484094.806463-.486 1.28887.000481.350151.09826.638526.291181.862954.192921.224431.444344.338296.751038.338344.414686-.001.771415-.211271 1.071264-.630754.298771-.419484.449733-.920295.451805-1.501351-.000736-.201636-.03172-.397855-.09511-.586491zm-5.958251.870654c-.384555.694822-.7883 1.245462-1.207998 1.651918s-.794771.609117-1.124143.609066c-.263497-.000042-.472803-.114982-.627913-.346997-.154032-.230929-.231257-.539897-.230595-.92799.0013-.781605.233608-1.46561.697887-2.053098.464281-.586402 1.002577-.880099 1.615964-.880003.366087.000057.766535.117192 1.199172.35359l.400812-1.995688c-.217136.04441-.397519.06715-.541147.06713-.218142-.000034-.377881-.05101-.478135-.154016-.100256-.102998-.182003-.293809-.244157-.57459.177982.11819.450017.177855.819343.177915.456801.000074.897548-.08442 1.323319-.253463l-.814707 4.062923c-.09261.454199-.138586.840124-.13913 1.159921-.000726.424951.118779.637446.359599.637482.236501.000039.628979-.277421 1.179604-.83454.550619-.554952 1.009495-1.137021 1.37554-1.744037l.302044.193009c-.438737.805388-.98748 1.526201-1.645151 2.161357-.657668.635157-1.180884.952704-1.571809.952642-.496759-.000077-.744453-.400133-.743086-1.201251.000573-.331722.0314-.685121.09469-1.06128zm.197142-.98104c-.512378-.338305-.937569-.508569-1.277741-.508622-.370408-.000062-.690447.22646-.961201.681723-.270752.454176-.406657.990766-.407717 1.610847-.000849.497581.160712.746941.486843.746992.34881.000053 1.022915-.774943 2.022317-2.32499.0184-.02601.06388-.09539.1375-.20595zm43.925895-11.155699c.891965-1.874198 1.679738-2.811787 2.361159-2.811679.298053.00005.447793.215797.447054.648336-.00031.18429-.0669.601642-.199761 1.249888l-.228692 1.120881c.431353-.908374.880762-1.638959 1.349306-2.190672.46854-.551714.871819-.828085 1.21091-.828033.373645.000064.560094.220151.559345.658111-.000268.158274-.05596.52034-.165998 1.086201l-.113267.576707c-.06866.347965-.10364.607055-.103908.774002-.000508.295948.103991.444481.312413.444513.472997.000078 1.199118-.880069 2.182677-2.638258l.309638.173498c-1.070516 2.088813-2.005339 3.133699-2.80231 3.133575-.509716-.000079-.762924-.334008-.761785-1.000703.000381-.222232.04958-.578881.146532-1.071029l.101276-.511665c.06752-.345809.102493-.561522.102615-.646082.000183-.106237-.05372-.158281-.161716-.158298-.265655-.000043-.742799.528905-1.429273 1.59009-.623675.965798-.93563 1.517537-.935865 1.655212.000005.01518.0053.0412.01498.07805-.03349.0065-.09507.02275-.180425.04659-.03673.01084-.0929.01733-.165255.01732-.230021-.000033-.343222-.110625-.342848-.329608.00011-.06721.03717-.267756.113343-.603803.02722-.120322.05554-.249316.08274-.388078l.159011-.784833c.115466-.564772.173215-.903.173447-1.016818.000284-.164777-.06005-.248259-.181001-.248279-.265656-.000043-.656316.476883-1.175226 1.432942-.516733.947387-.774716 1.513225-.775029 1.695348-.000043.05204.01927.101908.05806.151776-.136171.06068-.260409.08994-.3738.08992-.255939-.000046-.384211-.137739-.38374-.415256.00007-.0336.03631-.393507.110911-1.077535l.08558-.789183c.02855-.276429.0441-.531181.0445-.766423.000505-.294862-.05852-.513852-.177071-.651546.285272-.104024.486221-.154944.605011-.154925.215982.000031.324832.12797.324396.383807-.000158.09106-.02989.429283-.08921 1.015748zm-3.784472-.983832c-.340297.705671-.721404 1.280163-1.14008 1.720223-.419755.440062-.794859.660068-1.127471.660017-.268894-.000046-.485796-.09546-.652853-.286294-.167061-.189735-.249794-.435829-.249272-.741534.00066-.389178.131479-1.106803.394632-2.148536.07067-.281845.107698-.459622.107773-.533347.000127-.07372-.02241-.155024-.0687-.241757l.514042-.0032c.22138.000036.332465.08461.332176.254806-.000184.106237-.07306.410844-.21754.913827-.04562.150677-.07386.253658-.08692.310027l-.05655.226558c-.110921.450951-.165501.794589-.165909 1.031997-.000623.365329.124334.54747.375951.54751.411446.000066.932833-.510447 1.567398-1.530447.518698-.832477.777805-1.423248.77841-1.776651.000067-.04879-.01495-.09865-.04402-.148522.202038-.05634.372712-.0845.513099-.08448.215982.000032.324929.0673.324711.199518-.000085.03143-.0099.07913-.0294.140923-.01083.03686-.03373.126825-.07066.269919-.0054.0271-.02939.126827-.07502.298105-.03155.120321-.05652.216804-.07069.288349l-.03705.177774c-.08165.406515-.123372.788092-.123977 1.141494-.000925.54203.129279.813065.389536.813104.575592.00009 1.308077-.81284 2.196375-2.437705l.309616.185423c-1.011959 1.947896-1.934782 2.921236-2.77171 2.921106-.562633-.000083-.843648-.491212-.841974-1.471199-.0051-.185375.005-.417361.02602-.697047zm-4.397982.984726c.08283.188637.124642.367514.124351.537712-.000644.378335-.158875.70678-.473607.987502-.314731.280723-.684299.420508-1.105462.420443-.247299-.000038-.459929-.06511-.633577-.193056-.173644-.129025-.260853-.28298-.260544-.464018.000331-.192962.119451-.386991.359526-.58425.240079-.198347.641123-.431357 1.202062-.704452l-.294-.478115c-.358617-.580027-.537107-1.034276-.536546-1.361661.000804-.470481.273583-.847691.818347-1.134882.334549.129051.50166.290605.501326.485737-.000473.277518-.212589.54308-.636345.796683l.417672.779503.326184.601704c.471322-.281782.827021-.522388 1.064946-.72507.240084-.201598.54299-.512674.908714-.932149l.294504.182168c-.531449.71106-1.22361 1.308269-2.077552 1.786206zm-.627997.334876c-.719885.390147-1.078934.694711-1.079299.908271-.000348.203804.145266.304644.435762.304689.215982.000031.391052-.07365.52521-.219982.135242-.148495.203599-.338195.203992-.569099.000234-.139845-.02868-.280777-.08567-.42388zm-5.487186.737388-.274472 1.369123c-.06315.307865-.09386.576704-.09425.806525-.000247.145264.03192.277523.09652.394612-.247439.08235-.437571.122431-.567159.12241-.203023-.000031-.305416-.116044-.305022-.346945.000313-.181038.04185-.474811.123543-.884572l1.093504-5.43313c-.214982.0455-.395362.06715-.542228.06713-.214901-.00003-.374639-.05209-.475972-.156178-.102416-.102999-.184161-.294893-.246312-.577842.180136.121448.454327.183278.822575.183338.45788.000075.897547-.08441 1.321159-.253462l-.289693 1.428743c.418614-.404288.850926-.608024 1.299085-.607954.389849.000058.715724.149708.975474.446783.259748.298156.389783.668925.389025 1.113388-.0012.695966-.243031 1.294328-.723372 1.799426-.481419.504011-1.052038.755425-1.711863.755321-.357452.0021-.654295-.07382-.890535-.226702zm.117621-.573447c.247878.292734.554324.438046.916092.438103.433043.000064.802684-.18308 1.107842-.549445.305159-.366366.458189-.811888.459084-1.335489.000646-.379419-.08522-.686221-.256525-.921489-.171303-.235268-.395724-.352381-.671101-.352424-.34449-.000049-.718472.196102-1.123023.586301zm.20358-2.229878c-.557822.977733-1.120682 1.744076-1.689655 2.295772-.568976.552782-1.079164.829137-1.531645.829066-.275375-.000041-.497683-.09005-.664759-.271118-.168158-.179981-.251986-.417402-.251484-.711182.000197-.111656.02425-.288355.07435-.530092l.08281-.407585c.12089-.588623.183161-1.001638.183538-1.239051.000236-.140928-.04168-.255844-.125759-.344749.320858-.07367.521782-.110493.603854-.110482.182505.000034.27408.127959.27364.384885-.000323.189709-.03642.462887-.110472.818447l-.147018.723044c-.0729.346896-.110015.573456-.110224.67752-.000524.306788.127722.459658.38582.459699.307774.000049.717502-.260062 1.230267-.780329.512764-.520269 1.009565-1.178214 1.490405-1.976006zm-3.277568-1.86726.05184.0033c.164159-.0076.400799-.08991.711004-.249222.308043-.158224.5513-.320795.725447-.485544-.108572.340377-.301282.625453-.577052.855231-.419599.349-.702835.524573-.850782.524551-.09827-.000012-.147843-.06073-.147637-.182144.000295-.173449.02864-.328466.08719-.466132zm-10.541705 3.593096c.891964-1.874198 1.679738-2.811786 2.361158-2.81168.298053.00005.447793.215798.447053.648337-.00031.184289-.0669.601642-.19976 1.249887l-.228692 1.120882c.431354-.908375.880765-1.638958 1.349304-2.190672.468545-.551713.87182-.828085 1.210912-.828033.373649.000054.560094.220153.559347.658112-.000269.158273-.05596.52034-.165998 1.0862l-.113267.576707c-.06866.347967-.10364.607056-.103909.774004-.000507.295946.103992.44448.312414.444511.473.000078 1.199121-.880068 2.182679-2.638257l.309636.173498c-1.070514 2.088813-2.005338 3.133699-2.802311 3.133575-.509715-.000078-.762922-.334008-.761785-1.000704.000382-.222232.04958-.578881.146543-1.071027l.101275-.511664c.06752-.345809.102494-.561523.102615-.646083.000184-.106238-.05372-.15828-.161715-.158298-.265657-.000043-.742798.528905-1.429272 1.590092-.623675.965796-.935631 1.517535-.935867 1.65521.000004.01518.0053.0412.01498.07805-.03349.0065-.09507.02275-.180421.04658-.03674.01084-.0929.01733-.165257.01732-.230021-.000033-.343221-.110625-.342847-.329608.00011-.06721.03717-.267756.113341-.603802.02722-.120324.05554-.249317.08274-.38808l.159011-.784832c.115465-.564772.173215-.903001.173437-1.016821.000284-.164776-.06005-.248258-.180999-.248277-.265657-.000043-.656318.476883-1.175227 1.432942-.516732.947386-.774718 1.513224-.775028 1.695345-.000043.05204.01927.101908.05806.151778-.136171.06068-.26041.08994-.3738.08992-.25594-.000036-.384212-.137739-.383738-.415255.00007-.0336.03631-.393507.110911-1.077535l.08558-.789183c.02855-.276428.0441-.531181.0445-.766421.000504-.294864-.05852-.513852-.177075-.651547.285275-.104024.486225-.154945.605014-.154927.215983.000032.324834.127971.324397.383809-.000158.09106-.02989.429282-.08921 1.015749zm-4.898047-.240339c-.0012.72415.302679 1.086272.913905 1.086367.528075.000084 1.110576-.252413 1.748587-.759653.638009-.506154 1.213658-1.17276 1.726949-2.000901l.312877.173497c-.483187.906199-1.11189 1.6541-1.883958 2.248045-.772066.592858-1.503668.888692-2.194807.888584-.442762-.000072-.792414-.144261-1.048936-.429449-.256528-.287317-.384368-.679765-.383519-1.176264.0012-.716562.235529-1.330103.701841-1.838453.468472-.510518 1.029376-.764101 1.688118-.763997.317493.000047.571133.08031.762001.241861.190868.161556.285535.375128.285074.645058-.000757.442296-.266002.834683-.796818 1.174997-.532977.341393-1.142333.510413-1.831313.510306zm.02977-.355565c.51516-.02594.957095-.174387 1.325804-.44426.368708-.268789.553903-.579885.554507-.933288.000534-.31546-.139578-.474839-.421433-.474882-.334771-.000052-.643932.179853-.927484.540799-.28355.360948-.461403.798881-.531394 1.311631zm-3.974023 1.873715c-.167518.07803-.302575.118115-.403006.1181-.251618-.000042-.377776-.111716-.377396-.333949.000192-.113827.04496-.396759.134278-.849882l.187325-.923587c.114328-.548516.172302-.95502.172704-1.21954.000244-.144181-.04059-.263432-.121415-.359926.261489-.08885.473228-.133266.637373-.133241.174945.000027.261149.110617.260774.330679-.000234.135508-.06456.493236-.189733 1.071021l-.216746 1.078603c.466989-.907284.935791-1.611848 1.40857-2.114777.472778-.50293.900851-.754366 1.284217-.754304.136069.000024.251542.03911.350771.116051.09814.07807.147653.172388.147463.284046-.000292.172365-.187512.402156-.56165.689373-.09362-.196228-.226278-.293814-.397984-.29384-.31317-.000053-.713309.334862-1.199327 1.001482-.300922.415146-.564073.844394-.786208 1.285571-.223215.44226-.334983.75662-.335302.944162zm-2.00833-2.701786c.0064.05962.01061.112743.01053.158273-.0012.713311-.244222 1.334431-.726725 1.865552-.482544.531114-1.047787.795535-1.694652.795435-.493517-.000075-.896054-.158395-1.207604-.475006-.309391-.316592-.465275-.72856-.464413-1.233731.000983-.575635.203769-1.073187.607302-1.494821.402447-.422721.877965-.632953 1.424397-.632868.08315.000009.172768.01086.265602.03256-.06137-.111671-.09144-.205985-.09131-.282953.000205-.119246.04034-.234154.12153-.342544.600343.04996 1.097652.358994 1.495169.927103.408805.27975.83405.41966 1.277892.41973.289415.000043.600594-.09747.9357-.293634l.184126.315489c-.392473.273121-.794431.40965-1.205877.409587-.273217.001-.584132-.05646-.931675-.168152zm-.835312-.314508c-.202915-.0629-.39173-.160505-.563203-.297118-.124141-.02498-.228865-.0391-.312024-.04016-.416846.001-.787574.189587-1.108949.565706-.321376.376119-.484097.806463-.486 1.288869.000481.350151.09826.638525.29118.862957.19292.224428.444344.338293.751038.338343.414686-.001.771413-.211273 1.071264-.630756.29877-.419485.449734-.920296.451806-1.501351-.000736-.201634-.03172-.397854-.09511-.58649zm-3.803994 2.227148c-.08141.2439-.177823.421672-.289247.533312-.111418.111641-.391279.206992-.840664.291479-.449383.08232-.922452.12344-1.422449.123362-.786171-.000124-1.177719-.269029-1.176798-.807807.000263-.151767.04286-.435783.126729-.856387l.728668-3.637986c.04252-.210293.06434-.360979.06449-.452042.000143-.08456-.02996-.16153-.09139-.234171.330661-.123531.559705-.185286.688216-.185267.154424.00003.230948.08785.230649.263462-.000098.04444-.04151.261247-.123143.652585l-.653499 3.252072c-.09473.467218-.142853.792418-.143127.974546-.000529.308957.339379.464032 1.021878.464137.607989.000095 1.234551-.126642 1.87969-.381295z" fill="url(#linearGradient6213)" stroke-width="1.04059"/>
    <path d="m49.610833 63.984718c-.0032 1.871095-.183726 52.804832-.186919 54.674962 1.838108.0003 20.103855.009 20.889021.009l26.507655-2.26263 1.788117-26.947621c.0013-.762264.133832-23.594024.13702-25.460321-1.851499-.000289-47.284351-.01309-49.134894-.01338z" fill="url(#radialGradient6215)" opacity=".1" stroke-width="1.04059"/>
  </g>
  <g transform="matrix(1.895216 -.326198 .326198 1.895216 46.544592 29.973072)">
    <path d="m86.288893.68375672c.44309-.47954688 3.299996-.20093106 6.300208 2.59160738 3.029659 2.8198962 3.603901 5.5096929 3.048868 6.1103405-.361248.390972-.722472.7819714-1.083753 1.1729114-3.116358-2.900672-6.232742-5.8012941-9.349108-8.7019508.361256-.3909705.722471-.7819762 1.08376-1.1729296" fill-rule="evenodd"/>
    <path d="m7.3636334 92.055262 4.2874216 2.915983 14.912425-10.68559.144452-.156337-9.195643-8.868036-.195795.211817z" fill-rule="evenodd"/>
    <path d="m3.2140009 100.02999 23.1034001-15.990672.144443-.156329-8.703466-8.375379-.195806.211824z" fill="url(#radialGradient6613)" fill-rule="evenodd"/>
    <path d="m21.27685 80.597265c1.153172 1.073273 2.332337.670939 2.744535 1.054593.06661.06199.110842.146655.142155.237141l68.560104-74.3432392-4.531896-4.2181877-68.69027 74.4840869c.20667-.01666.389961-.0039.520333.117476.37676.35069.09655 1.589831 1.255035 2.668135z" fill="url(#radialGradient6615)"/>
    <path d="m92.558187 7.3917682-68.508032 74.2868788c.362272.398103-.0065 1.356563.689651 2.004447.750159.698247 1.436614.04543 1.92409.493859l68.540567-74.3220827z" fill="url(#radialGradient6617)"/>
    <path d="m26.610643 78.907585-2.684588 2.905447c.360296.396242-.133972 1.48774.558569 2.132333.746344.694682 1.556694-.09269 2.04171.353464l2.717193-2.940633z" opacity=".353488"/>
    <path d="m21.326971 76.517917-1.377147 1.490424-.05215.05516c.307737.305712-.141719 1.416222.845806 2.51761l.05755.05356.410029.381645.05755.05357c1.179502.915682 2.248615.36263 2.660799.746271l1.458495-1.586719z" fill="#252525" opacity=".386047"/>
    <path d="m18.708062 74.051011-1.39407 1.426001c.01445.01338-.09933.137631-.08484.151127.295818.275335-.114561 1.385303.37742 2.033216l.05035.04686.222992.207571.02878.02677c.696638.466247 1.631777-.113895 1.988951.120943l1.443219-1.561903z" fill="#131313" opacity=".353488"/>
    <path d="m18.027023 77.533369c.726075.660166 1.610439.03802 1.994792.395762l68.508043-74.2868683-2.674479-2.4893532-68.540578 74.3220905c.01468.01359.02912.02709.04383.04081.300502.279689-.06311 1.35229.668397 2.017537z" fill="#131313"/>
    <ellipse cx="16.646761" cy="-65.575279" fill="url(#radialGradient6619)" rx="41.355873" ry="1.608605" transform="matrix(.67885578 -.73427164 -.73310227 -.68011842 0 0)"/>
    <path d="m58.512496-67.306419a51.9259.50837636 0 0 1 -51.5180287.50836 51.9259.50837636 0 0 1 -52.3273633-.500374 51.9259.50837636 0 0 1 50.6959789-.516222 51.9259.50837636 0 0 1 53.1237841.492265" fill="url(#radialGradient6621)" transform="matrix(.67757653 -.73545227 -.73172383 -.68160123 0 0)"/>
    <path d="m81.495233 5.8798783c-1.321227.8290407-2.573454 2.2741418-3.246159 3.5130728l7.515891 6.9320309 3.246159-3.513065zm6.725962 6.1968087-3.246159 3.513067 2.632987 2.450791c1.150887-.691891 2.471401-2.068621 3.246159-3.513064z" fill="url(#radialGradient6623)"/>
    <path d="m7.9162455 91.125012c.9456277.792997 2.4151435 3.394356 4.1249985 3.562499l-9.1562495 6.468759c-.1733386-.25105-.3890163-.47441-.6250002-.65626z" fill-rule="evenodd"/>
    <rect fill="url(#linearGradient6625)" height=".774793" transform="matrix(.73198706 .68131853 -.67864948 .73446231 0 0)" width="5.506809" x="67.492355" y="-58.266403"/>
    <rect fill="url(#radialGradient6627)" height="1.205748" transform="matrix(.73198706 .68131853 -.67864948 .73446231 0 0)" width="5.506809" x="67.492355" y="-58.697365"/>
    <path d="m91.652302 2.6503013c1.941189 1.5499318 3.311436 3.667891 3.385444 3.8703412.07403.2024496-1.79868-2.172571-3.40549-3.2724981-1.594524-1.091526-3.846548-1.1553488-4.010861-1.2877466-.164313-.132399-1.270399-1.34148349-.249918-1.28068407 1.067379.0635974 2.781432.77452637 4.280825 1.97058577z" fill="url(#linearGradient6629)" fill-rule="evenodd"/>
    <rect fill="url(#linearGradient6631)" height=".774793" transform="matrix(.73198706 .68131853 -.67864948 .73446231 0 0)" width="3.651917" x="63.840542" y="-58.266403"/>
    <rect fill="url(#radialGradient6633)" height="1.205748" transform="matrix(.73198706 .68131853 -.67864948 .73446231 0 0)" width="3.651917" x="63.840542" y="-58.697365"/>
    <rect fill="url(#linearGradient6635)" height=".774793" transform="matrix(-.73198706 -.68131853 -.67864948 .73446231 0 0)" width="3.623396" x="-76.612877" y="-58.266403"/>
    <rect fill="url(#radialGradient6637)" height="1.205748" transform="matrix(-.73198706 -.68131853 -.67864948 .73446231 0 0)" width="3.623396" x="-76.612877" y="-58.697365"/>
    <path d="m31.651847 75.452194c-.210996.228113-.330157.446454-.357509.655018-.02734.208603.0397.388097.201152.538523.160769.149789.343765.203254.548979.16042.205218-.04288.413316-.178336.624304-.406439.2122-.229414.331957-.448396.359315-.656987.02735-.208586-.03938-.387759-.200135-.537556-.161458-.150434-.344787-.204209-.550001-.161358-.205219.04284-.413914.178974-.626105.408379m-.286299-.266769c.431571-.466568.840084-.76641 1.225571-.899496.38547-.133086.702386-.08393.950714.147447.247647.230755.319657.543963.216036.939664-.103633.395706-.371228.82684-.802798 1.293426-.430366.465269-.838881.76511-1.225569.8995-.385475.13308-.702036.08425-.949693-.146496-.248327-.231372-.320683-.54492-.217049-.940608.104826-.397001.37242-.828136.802788-1.293437m4.046943-2.809591 1.713408-.278476-.721082.779591-1.150908.190845-.09883 1.160283-.724664.783455.149505-1.735583-1.645621.269229.722873-.781524 1.081591-.175817.09263-1.093662.726469-.785409-.145373 1.667068m.220897-1.748724.757038-.818451 1.1573-.152336.06547-1.169646.758835-.820393-.136563 1.93226.645469.601394-.692316.748489-.645457-.601417-1.909777.2801m6.866691-4.569196c-.124751.231246-.268054.458463-.429919.681658-.161871.223207-.341709.441734-.539506.655575-.447155.48343-.872542.800113-1.276176.950079-.404311.149334-.728585.110199-.972816-.11735-.246975-.230111-.30819-.555002-.183662-.974657.124516-.419683.418155-.879644.88088-1.37992.178629-.193113.359032-.368888.541222-.527298.183387-.159719.366424-.300428.549101-.422222l.317091.295461c-.198423.116748-.383934.244318-.556528.382716-.171395.137092-.331426.286022-.480068.446729-.275723.298088-.444372.569251-.50598.813477-.06108.242309-.0099.43964.153629.591965.162131.151078.359263.189948.591371.116655.232099-.0733.480609-.253156.745552-.539597.07192-.07775.136065-.151898.192415-.222484.0569-.07245.104406-.140407.142603-.203735l-.297583-.277285-.422583.45687-.26474-.246678 1.078921-1.166435.736794.686492m-.810383-1.978453 1.868319-2.019903.298607.278215-1.176036 1.271414.285278.265804 1.105925-1.195576.298614.278226-1.105925 1.195576.350955.327 1.215543-1.314226.298616.278228-1.907925 2.062643-1.532075-1.427481m2.517496-2.721697.77322-.835957 2.027217-.07657-1.0508-.979059.656339-.709584 1.532074 1.427481-.773223.835959-2.027221.07656 1.05081.979068-.656339.709583-1.532074-1.427481m4.358806-4.712457.773222-.835944 2.027213-.07659-1.050794-.979053.656338-.709596 1.532074 1.427481-.773219.835957-2.027222.07656 1.05081.979069-.656338.709584-1.532076-1.427482m3.752088-4.112273c.255349-.276047.494708-.458416.718095-.547086.224588-.08995.401869-.07438.531856.04673.129975.121109.158865.29643.08667.525952-.0722.229538-.236566.48298-.493108.760332-.256542.277362-.496763.46134-.720673.551924-.222698.0893-.39905.07339-.529025-.04771-.129987-.121109-.159208-.296751-.0877-.526919.07271-.231463.237349-.485859.493885-.763223m.230932 1.706408 1.479874-1.600009.205228.191217-1.479879 1.600015-.205228-.191227m-.05641-1.543801c-.100692.108879-.157063.213201-.169116.312966-.01085.09849.02341.184689.102767.258632.07935.07394.167217.101508.263578.0827.09756-.02009.196688-.08458.297383-.193456.09951-.107562.155018-.21027.166553-.308118.01272-.09913-.02059-.185676-.09994-.259617-.07936-.07394-.16816-.101175-.266402-.08173-.09705.01818-.19531.08105-.294818.188606m4.587214-3.833653c.207698-.170833.391478-.27589.551341-.315158.160377-.04119.291539-.0143.393475.08067.151868.141501.165586.359386.04114.653654-.125123.293634-.38309.651706-.773893 1.074216-.137863.149047-.282816.292693-.434879.430923-.150167.137581-.305644.267798-.466413.390671l-.304784-.283979c.166412-.105547.322732-.218094.468961-.337626.146744-.121465.281851-.248951.405332-.382434.183411-.198296.305551-.366825.366396-.505588.06204-.140063.05919-.241645-.0085-.304751-.06978-.06501-.172805-.05967-.309078.01606-.135761.07379-.301334.216318-.496737.427576l-.276921.299386-.254488-.237116.291306-.31494c.173825-.187925.287901-.342238.342225-.462952.05365-.12134.04865-.211646-.01496-.270923-.05884-.05482-.145689-.05249-.260564.007-.114874.05947-.247826.170856-.398883.334151-.111482.120542-.217019.249033-.316508.385565-.09952.136523-.191596.278751-.276236.426712l-.289373-.269613c.114772-.168143.233817-.329889.357136-.485254.123321-.155349.24972-.303011.379188-.44299.348853-.377139.642422-.628445.880724-.753888.238821-.127365.423897-.129865.555248-.0075.08962.08351.121804.196755.09656.339719-.02595.142319-.108202.311811-.246773.508445" fill="#999"/>
    <ellipse cx="9.691052" cy="82.518127" fill="url(#radialGradient6639)" opacity=".196721" rx="56.164051" ry="12.444192" transform="matrix(-.734772 .145402 .113382 .57296 39.18363 44.07111)"/>
  </g>
</svg>
