<svg height="256" width="256" xmlns="http://www.w3.org/2000/svg" xmlns:xlink="http://www.w3.org/1999/xlink">
  <defs>
    <linearGradient id="linearGradient4534">
      <stop offset="0" stop-color="#fff"/>
      <stop offset="1" stop-color="#fff" stop-opacity="0"/>
    </linearGradient>
    <linearGradient id="linearGradient4162">
      <stop offset="0" stop-opacity=".28"/>
      <stop offset="1" stop-opacity="0"/>
    </linearGradient>
    <linearGradient id="linearGradient3794">
      <stop offset="0"/>
      <stop offset="1" stop-opacity="0"/>
    </linearGradient>
    <linearGradient id="linearGradient3137">
      <stop offset="0" stop-color="#fefefe"/>
      <stop offset="1" stop-color="#a2a2a2"/>
    </linearGradient>
    <linearGradient id="linearGradient3091">
      <stop offset="0" stop-color="#fefefe"/>
      <stop offset="1" stop-color="#fefefe" stop-opacity="0"/>
    </linearGradient>
    <linearGradient id="linearGradient2886">
      <stop offset="0" stop-color="#fff"/>
      <stop offset=".69" stop-color="#c0c0c0"/>
      <stop offset="1" stop-color="#d8d8d8"/>
    </linearGradient>
    <clipPath id="clipPath2936">
      <path d="m-2267.1314 169.8125c-105.1198-.10643-198.8702 24.50147-281.5 62.03125-25.425 11.54786-47.4158 30.53273-52.8437 54.0625-9.2126 39.93605-8.8832 82.67109 7.1875 134.5625 12.0312 38.84835 31.2606 62.62651 55.2812 79.28125 120.1169 83.28332 415.3055 103.19353 564.625-19.21875 41.3-33.85778 44.606-93.18742 46.8438-150.15625.9113-23.20056-6.4775-50.94062-15.625-61.28125-33.0048-37.30936-69.4682-65.49363-205.4063-88.90625-41.0076-7.06274-80.5404-10.3365-118.5625-10.375zm0 12.625c36.1833.0366 73.7568 3.15382 112.7813 9.875 129.364 22.28036 161.0913 49.0887 192.5 84.59375 8.7051 9.84055 15.7422 33.23396 14.875 55.3125-2.1295 54.21375-5.2911 107.68587-44.5938 139.90625-142.0982 116.49228-417.0046 97.53689-531.3125 18.28125-22.8589-15.8493-41.1443-38.46791-52.5937-75.4375-15.2936-49.38188-15.6108-87.05781-6.8438-125.0625 5.1654-22.39184 26.0858-37.44811 50.2813-48.4375 78.6337-35.7148 164.8701-59.13254 264.9062-59.03125z"/>
    </clipPath>
    <filter id="filter2944" height="1.040081" width="1.023416" x="-.011704" y="-.020041">
      <feGaussianBlur stdDeviation="2.6939445"/>
    </filter>
    <filter id="filter2960" height="1.023815" width="1.01391" x="-.00695" y="-.011907">
      <feGaussianBlur stdDeviation="1.3469723"/>
    </filter>
    <filter id="filter2974" height="1.049842" width="1.02912" x="-.014556" y="-.024921">
      <feGaussianBlur stdDeviation="3.5021279"/>
    </filter>
    <filter id="filter3022" height="1.069009" width="1.036798" x="-.018399" y="-.034504">
      <feGaussianBlur stdDeviation="1.7066981"/>
    </filter>
    <filter id="filter3030" height="1.08327" width="1.033718" x="-.016859" y="-.041635">
      <feGaussianBlur stdDeviation="1.694685"/>
    </filter>
    <clipPath id="clipPath3087">
      <path d="m-1953.8977 1026.4197c1.9878 1.2863 1.2854 4.7488.9206 7.0945-3.1999 20.576-12.771 39.7751-26.6949 56.6439-1.374 1.6646-3.6003 4.608-5.4602 3.5359-101.1694-58.3187-201.265-117.09845-317.1502-168.18579-81.9683-36.13524-163.1406-59.55617-248.6747-73.28092-235.2218-37.74356-503.6309-38.94642-753.9166-61.22361-9.724 0-17.3351-7.01063-17.3351-14.45998 0-10.3204 1.0555-18.89875 1.0555-28.68609 0-5.33863 6.9195-12.39222 14.5617-12.15901 250.5313 7.6452 515.1514 33.50667 761.6412 54.0597 113.7596 9.48561 191.8738 34.5294 271.4998 67.27429 112.4549 46.2452 220.9684 105.59406 319.5529 169.38711z"/>
    </clipPath>
    <filter id="filter3131" height="1.143609" width="1.032019" x="-.01601" y="-.071805">
      <feGaussianBlur stdDeviation="9.1365611"/>
    </filter>
    <filter id="filter3790" height="1.172384" width="1.103627" x="-.051813" y="-.086192">
      <feGaussianBlur stdDeviation="1.860933"/>
    </filter>
    <clipPath id="clipPath3804">
      <path d="m-2318.8543 305.64517c10.6678-4.33384 53.7173-14.57613 79.692-15.25421-6.2348 15.29219-4.0893 27.79094-.8495 39.92491l-67.1078 2.5484c-3.9642 2.25002-7.9283 3.33133-11.8925 9.34413-8.3229-8.35753-8.6597-32.98108.1578-36.56323z" filter="url(#filter3790)"/>
    </clipPath>
    <linearGradient id="linearGradient3808" gradientUnits="userSpaceOnUse" x1="-2282.2617" x2="-2305.0696" xlink:href="#linearGradient3794" y1="275.5253" y2="344.25839"/>
    <filter id="filter3848" height="1.286344" width="1.167449" x="-.073205" y="-.124527">
      <feGaussianBlur stdDeviation="1.1292232"/>
    </filter>
    <filter id="filter3876" height="1.110556" width="1.063857" x="-.026084" y="-.04492">
      <feGaussianBlur stdDeviation=".10351212"/>
    </filter>
    <filter id="filter3902" height="1.287366" width="1.027794" x="-.01401" y="-.143697">
      <feGaussianBlur stdDeviation="1.430948"/>
    </filter>
    <filter id="filter3952" height="1.389461" width="1.046678" x="-.023146" y="-.194818">
      <feGaussianBlur stdDeviation="2.6127722"/>
    </filter>
    <clipPath id="clipPath3958">
      <path d="m-2127.6998 482.33267c11.385 16.00223 30.2107 14.50896 38.023 14.04444 93.2473-11.3528 181.809-7.68439 253.3257-6.40608 28.5779.51081 51.8154-4.65464 66.5606-4.25192l1.7593-25.45128c-15.241-.34657-38.8745-6.24493-67.2886-6.33919-71.7731-.2381-171.4672 15.99403-249.5827 4.37749h-42.6471z" filter="url(#filter3952)"/>
    </clipPath>
    <filter id="filter4014" height="1.210449" width="1.114565" x="-.057283" y="-.105225">
      <feGaussianBlur stdDeviation="1.1587495"/>
    </filter>
    <filter id="filter4520" height="1.178354" width="1.036858" x="-.018429" y="-.089177">
      <feGaussianBlur stdDeviation="13.268534"/>
    </filter>
    <filter id="filter5919" height="1.05659" width="1.06637" x="-.033185" y="-.028295">
      <feGaussianBlur stdDeviation="1.4498712"/>
    </filter>
    <linearGradient id="linearGradient6099" gradientTransform="matrix(1.0833333 0 0 1.2956349 1053.8042 -153.14233)" gradientUnits="userSpaceOnUse" x1="-2180.8767" x2="-1234.0055" xlink:href="#linearGradient4162" y1="-260.6424" y2="686.2287"/>
    <radialGradient id="radialGradient6103" cx="-1732.9094" cy="331.94702" gradientTransform="matrix(1 .00000054 -.0000002 .3719492 .000067 208.48054)" gradientUnits="userSpaceOnUse" r="143.2121" xlink:href="#linearGradient2886"/>
    <linearGradient id="linearGradient6105" gradientUnits="userSpaceOnUse" x1="-1893.7939" x2="-1876.7727" xlink:href="#linearGradient3137" y1="331.26584" y2="350.78738"/>
    <radialGradient id="radialGradient6109" cx="-1629.0024" cy="98.046616" gradientTransform="matrix(1 0 0 .5862344 0 152.49099)" gradientUnits="userSpaceOnUse" r="341.55664" spreadMethod="reflect" xlink:href="#linearGradient2886"/>
    <radialGradient id="radialGradient6119" cx="-1915.2924" cy="316.29968" gradientTransform="matrix(1 .00000027 -.00000222 8.3666767 .000703 -2330.077)" gradientUnits="userSpaceOnUse" r="43.099361" xlink:href="#linearGradient2886"/>
    <radialGradient id="radialGradient6129" cx="-1629.0024" cy="98.046616" gradientTransform="matrix(-1 0 0 .5862344 -2188.8406 152.49099)" gradientUnits="userSpaceOnUse" r="341.55664" spreadMethod="reflect" xlink:href="#linearGradient2886"/>
    <radialGradient id="radialGradient6139" cx="-1915.2924" cy="316.29968" gradientTransform="matrix(-1 .00000027 .00000222 8.3666767 -2188.8413 -2330.077)" gradientUnits="userSpaceOnUse" r="43.099361" xlink:href="#linearGradient2886"/>
    <radialGradient id="radialGradient6145" cx="-1092.8789" cy="276.49725" gradientTransform="matrix(1 .00000038 -.00000032 .8539977 .000089 37.369658)" gradientUnits="userSpaceOnUse" r="127.73754" xlink:href="#linearGradient3137"/>
    <radialGradient id="radialGradient6147" cx="-1093.5826" cy="217.83733" gradientTransform="matrix(.7746364 .4472365 -.4660621 .8072432 -144.92805 587.20425)" gradientUnits="userSpaceOnUse" r="123.63598">
      <stop offset="0" stop-color="#e2e2e2"/>
      <stop offset="1" stop-color="#212121"/>
    </radialGradient>
    <linearGradient id="linearGradient6149" gradientTransform="matrix(1 0 0 .7247709 2807.0235 194.64859)" gradientUnits="userSpaceOnUse" x1="-3887.8772" x2="-3887.8772" xlink:href="#linearGradient4162" y1="877.09351" y2="63.463501"/>
    <linearGradient id="linearGradient6151" gradientTransform="matrix(1 0 0 .7247709 2807.0235 194.64859)" gradientUnits="userSpaceOnUse" x1="-3887.8772" x2="-3887.8772" xlink:href="#linearGradient4162" y1="746.12317" y2="587.34491"/>
    <linearGradient id="linearGradient6153" gradientUnits="userSpaceOnUse" x1="-2180.8767" x2="-1234.0055" xlink:href="#linearGradient4534" y1="-260.6424" y2="686.2287"/>
    <linearGradient id="linearGradient6155" gradientUnits="userSpaceOnUse" x1="-2160.2458" x2="-1234.0055" xlink:href="#linearGradient4534" y1="-240.01169" y2="686.2287"/>
    <linearGradient id="linearGradient6157" gradientTransform="matrix(1.0833333 0 0 1.2956349 149.4705 -161.14233)" gradientUnits="userSpaceOnUse" x1="-2180.8767" x2="-1234.0055" xlink:href="#linearGradient4162" y1="-260.6424" y2="686.2287"/>
    <linearGradient id="linearGradient7256" gradientUnits="userSpaceOnUse" x1="-3230.7649" x2="-2050.8284" xlink:href="#linearGradient3091" y1="515.37079" y2="1340.8041"/>
    <linearGradient id="linearGradient7258" gradientUnits="userSpaceOnUse" x1="-1898.5033" x2="-4511.1455" xlink:href="#linearGradient3091" y1="890.18469" y2="924.16333"/>
    <linearGradient id="linearGradient7260" gradientUnits="userSpaceOnUse" x1="-2255.8958" x2="-2255.8958" xlink:href="#linearGradient3794" y1="169.81215" y2="323.11444"/>
    <linearGradient id="linearGradient7262" gradientUnits="userSpaceOnUse" x1="-2255.8958" x2="-2255.8958" xlink:href="#linearGradient3794" y1="169.81215" y2="428.47058"/>
    <linearGradient id="linearGradient7264" gradientUnits="userSpaceOnUse" x1="-2266.7681" x2="-2266.7681" xlink:href="#linearGradient3794" y1="568.77667" y2="-39.337055"/>
    <linearGradient id="linearGradient7270" gradientUnits="userSpaceOnUse" x1="-2325.3611" x2="-2309.3169" xlink:href="#linearGradient3794" y1="122.62138" y2="723.96979"/>
    <radialGradient id="radialGradient7289" cx="102.86758" cy="110.30446" gradientTransform="matrix(1.8209596 -.364343 .3644126 1.8210316 -12.465745 35.378799)" gradientUnits="userSpaceOnUse" r="137.8933">
      <stop offset="0" stop-color="#18689a"/>
      <stop offset="1" stop-color="#3ba1e1"/>
    </radialGradient>
    <radialGradient id="radialGradient81" cx="102.86758" cy="110.30446" gradientTransform="matrix(1.8209596 -.364343 .3644126 1.8210316 -12.465751 35.378799)" gradientUnits="userSpaceOnUse" r="137.8933">
      <stop offset=".1006" stop-color="#f0f0f0"/>
      <stop offset=".4005" stop-color="#fafafa"/>
      <stop offset=".47929999" stop-color="#fff"/>
      <stop offset=".59969997" stop-color="#fafafa"/>
      <stop offset=".72189999" stop-color="#eee"/>
      <stop offset=".8876" stop-color="#ddd"/>
    </radialGradient>
  </defs>
  <path d="m24.940365 125.00411c3.515384-.70626 54.870248-11.02377 56.391941-11.32949l27.312694-5.9093-5.53221-27.990459c-.29339-1.472206-14.779348-74.1592786-15.495066-77.7505824-3.562766.7157824-80.2661213 16.1259744-83.8297987 16.8419394.7191828 3.608689 20.4332567 102.529212 21.1524397 106.137892z" fill="#131313" filter="url(#filter5919)" opacity=".539326" transform="matrix(1.9984334 0 0 1.9902376 14.563669 .377539)"/>
  <path d="m64.405329 249.1654c7.02526-1.40562 109.654521-21.93992 112.695541-22.54838l50.03983-15.06916-6.51296-52.3994c-.58632-2.93004-29.53557-147.59458-30.96589-154.7421201-7.11994 1.42458-160.406501 32.0945191-167.528261 33.5194591 1.43724 7.18214 40.8345 204.057481 42.27174 211.239601z" fill="#fff" stroke-width="2"/>
  <path d="m24.318949 39.382479c.71024 3.5492 40.83304 204.050181 41.54292 207.597541 3.49988-.70024 108.609301-21.7308 110.104321-22.02992.82658-1.28282 41.89881-64.94772 42.69263-66.17662-.28932-1.4459-29.74511-148.64168-30.45351-152.1817601-3.52538.70536-160.362801 32.0857591-163.886361 32.7907591z" fill="url(#radialGradient81)" stroke-width="2"/>
  <path d="m24.318949 39.382479c.71024 3.5492 40.83304 204.050181 41.54292 207.597541 3.49988-.70024 108.609301-21.7308 110.104321-22.02992l49.60457-14.39684-6.91194-51.77978c-.28932-1.4459-29.74511-148.64168-30.45351-152.1817601-3.52538.70536-160.362801 32.0857591-163.886361 32.7907591z" fill="url(#radialGradient81)" stroke-width="2"/>
  <path d="m132.13617 17.848377c-12.47564 2.496156-14.40818 2.868004-28.1875 5.625-9.422335 13.114954-16.551615 28.6864-21.374995 46.6875-7.44778 27.795412-6.2574 49.837323 3.6875 66.187503 9.94482 16.35021 27.130315 24.5 51.499995 24.5 25.61521-.00001 47.82481-8.00837 66.62501-24.125 2.87582-2.46537 5.63542-5.11996 8.25-7.875-1.76004-8.79523-3.0165-15.08982-5.625-28.125-5.60992 12.01076-12.23136 22.14537-19.9375 30.375-13.6336 14.55948-29.21669 21.8125-46.81251 21.8125-16.73958 0-27.97608-7.34731-33.6875-22.0625-5.61282-14.79301-4.96788-35.041399 1.9375-60.812503 5.66238-21.132392 13.51768-38.54843 23.625-52.1875z" fill="url(#radialGradient7289)" stroke-width="2"/>
  <path d="m41.737629 34.048939.23512 1.80504 89.850981-18.037199-.50824-1.73926c-29.18062 5.449759-59.376861 11.708699-89.577861 17.971419z" fill="#fff" fill-rule="evenodd" opacity=".363296" stroke-width="2"/>
  <g transform="matrix(.13559626 -.0363329 .0363329 .13559626 256.53216 90.892207)">
    <path d="m-409.21195 237.84375c25.2518 25.8035 39.75 55.83917 39.75 87.875.0001 96.21855-130.5956 174.28125-291.5 174.28125-149.9697-.00001-273.6072-67.81254-289.7188-154.9375-.5127 4.34523-.7813 8.73343-.7812 13.15625 0 101.83258 138.2071 184.46875 308.5 184.46875 170.2927 0 308.5-82.63617 308.5-184.46875 0-45.97845-28.1675-88.06035-74.75-120.375z" fill="url(#linearGradient6099)" opacity=".82397"/>
    <path d="m-1954.2626 594.89081c-1.9878 1.28631-1.2854 4.74881-.9206 7.09444 3.1999 20.57609 12.771 39.7751 26.6949 56.64393 1.374 1.66463 3.6003 4.60805 5.4602 3.53592 101.1694-58.31867 201.265-117.09842 317.1502-168.18574 81.9683-36.13524 163.1406-59.55617 248.6747-73.28092 235.2218-37.74356 503.6309-38.94642 753.9166-61.22361 9.724 0 17.3351-7.01063 17.3351-14.45998 0-10.3204-1.0555-18.89875-1.0555-28.68609 0-5.33863-6.9195-12.39222-14.5617-12.15901-250.5313 7.6452-515.1514 33.50667-761.6412 54.0597-113.7596 9.48561-191.8738 34.5294-271.4998 67.27429-112.4549 46.2452-220.9684 105.5941-319.5529 169.38707z" fill="#282828" fill-rule="evenodd"/>
    <path clip-path="url(#clipPath3087)" d="m-3306.5938 737.5c-7.6421-.23321-14.5624 6.81764-14.5624 12.15625 0 9.78734-1.0626 18.36711-1.0626 28.6875 0 .99768.1465 2.0026.4063 2.96875.3009-5.52391.6563-20.89639.6563-26.65625 0-5.33861 6.9203-12.38946 14.5624-12.15625 250.5313 7.64521 515.1665 33.50947 761.6563 54.0625 113.7596 9.48562 191.874 44.53636 271.5 77.28125 112.253 46.16214 220.557 105.3688 319 169.03125.5853-2.4959 1.0738-5.0229 1.4687-7.5625.3649-2.3456 1.0504-5.8074-.9374-7.0937-98.5845-63.79305-207.0763-123.12984-319.5313-169.37505-79.626-32.74489-157.7404-57.79563-271.5-67.28125-246.4898-20.55303-511.125-46.41729-761.6563-54.0625z" fill="url(#linearGradient7256)" fill-rule="evenodd" filter="url(#filter3131)" transform="matrix(-1 0 0 1 -3910.956 -429.13099)"/>
    <path d="m-1952.9068 341.17678c11.385 16.00223 30.2107 14.50896 38.023 14.04444 93.2473-11.3528 181.809-7.68439 253.3257-6.40608 28.5779.51081 51.8154-4.65464 66.5606-4.25192l1.7593-25.45128c-15.241-.34657-38.8745-6.24493-67.2886-6.33919-71.7731-.2381-171.4672 15.99403-249.5827 4.37749h-42.6471z" fill="#858585" fill-rule="evenodd" stroke="#000"/>
    <path clip-path="url(#clipPath3958)" d="m-2127.6998 482.33267c11.385 16.00223 30.2107 14.50896 38.023 14.04444 93.2473-11.3528 181.809-7.68439 253.3257-6.40608 28.5779.51081 51.8154-4.65464 66.5606-4.25192l1.7593-25.45128c-15.241-.34657-38.8745-6.24493-67.2886-6.33919-71.7731-.2381-171.4672 15.99403-249.5827 4.37749h-42.6471z" fill="none" filter="url(#filter3952)" stroke="#000" stroke-width="4.1" transform="translate(174.99005 -141.0114)"/>
    <path d="m-1875.6215 342.20839s144.4092 3.8226 215.7644 3.39787 69.6563-5.0968 69.6563-5.0968l-3.3979-16.98932s8.9194-6.371-61.1616-5.0968-219.1623 10.19359-219.1623 10.19359z" fill="url(#radialGradient6103)" fill-rule="evenodd" filter="url(#filter3902)" stroke="#fff"/>
    <path d="m-1878.875 318.05124-3.6039 26.42918c-16.4149-.47318-28.0011-.26993-35.2943-2.09118-22.4229-5.59937-4.2676-17.64243 38.8982-24.338z" fill="url(#linearGradient6105)" fill-rule="evenodd" filter="url(#filter4014)"/>
    <path d="m-234.578 594.89081c1.9878 1.28631 1.2854 4.74881.9206 7.09444-3.1999 20.57609-12.77099 39.7751-26.69489 56.64393-1.374 1.66463-3.6003 4.60805-5.4602 3.53592-101.1694-58.31867-201.265-117.09842-317.1502-168.18574-81.9683-36.13524-163.1406-59.55617-248.6747-73.28092-235.22181-37.74356-503.63091-38.94642-753.91661-61.22361-9.724 0-17.3351-7.01063-17.3351-14.45998 0-10.3204 1.0555-18.89875 1.0555-28.68609 0-5.33863 6.9195-12.39222 14.5617-12.15901 250.5313 7.6452 515.1514 33.50667 761.64121 54.0597 113.7596 9.48561 191.8738 34.5294 271.4998 67.27429 112.4549 46.2452 220.9684 105.5941 319.55289 169.38707z" fill="#282828" fill-rule="evenodd"/>
    <path clip-path="url(#clipPath3087)" d="m-3306.5938 737.5c-7.6421-.23321-14.5624 6.81764-14.5624 12.15625 0 9.78734-1.0626 18.36711-1.0626 28.6875 0 .99768.1465 2.0026.4063 2.96875.3009-5.52391.6563-20.89639.6563-26.65625 0-5.33861 6.9203-12.38946 14.5624-12.15625 250.5313 7.64521 515.1665 33.50947 761.6563 54.0625 113.7596 9.48562 191.874 44.53636 271.5 77.28125 112.253 46.16214 220.557 105.3688 319 169.03125.5853-2.4959 1.0738-5.0229 1.4687-7.5625.3649-2.3456 1.0504-5.8074-.9374-7.0937-98.5845-63.79305-207.0763-123.12984-319.5313-169.37505-79.626-32.74489-157.7404-57.79563-271.5-67.28125-246.4898-20.55303-511.125-46.41729-761.6563-54.0625z" fill="url(#linearGradient7258)" fill-rule="evenodd" filter="url(#filter3131)" transform="translate(1722.1154 -429.13099)"/>
    <path d="m-1543.3215 169.8125c-105.1198-.10643-198.8702 24.50147-281.5 62.03125-25.425 11.54786-47.4158 30.53273-52.8437 54.0625-9.2126 39.93605-8.8832 82.67109 7.1875 134.5625 12.0312 38.84835 31.2606 62.62651 55.2812 79.28125 120.1169 83.28332 415.3055 103.19353 564.625-19.21875 41.3-33.85778 44.606-93.18742 46.8438-150.15625.9113-23.20056-6.4775-50.94062-15.625-61.28125-33.0048-37.30936-69.4682-65.49363-205.4063-88.90625-41.0076-7.06274-80.5404-10.3365-118.5625-10.375zm0 12.625c36.1833.0366 73.7568 3.15382 112.7813 9.875 129.364 22.28036 161.0913 49.0887 192.5 84.59375 8.7051 9.84055 15.7422 33.23396 14.875 55.3125-2.1295 54.21375-5.2911 107.68587-44.5938 139.90625-142.0982 116.49228-417.0046 97.53689-531.3125 18.28125-22.8589-15.8493-41.1443-38.46791-52.5937-75.4375-15.2936-49.38188-15.6108-87.05781-6.8438-125.0625 5.1654-22.39184 26.0858-37.44811 50.2813-48.4375 78.6337-35.7148 164.8701-59.13254 264.9062-59.03125z" fill="url(#radialGradient6109)" fill-rule="evenodd"/>
    <path clip-path="url(#clipPath2936)" d="m-2267.1314 169.8125c-105.1198-.10643-198.8702 24.50147-281.5 62.03125-25.425 11.54786-47.4158 30.53273-52.8437 54.0625-9.2126 39.93605-8.8832 82.67109 7.1875 134.5625 12.0312 38.84835 31.2606 62.62651 55.2812 79.28125 120.1169 83.28332 415.3055 103.19353 564.625-19.21875 41.3-33.85778 44.606-93.18742 46.8438-150.15625.9113-23.20056-6.4775-50.94062-15.625-61.28125-33.0048-37.30936-69.4682-65.49363-205.4063-88.90625-41.0076-7.06274-80.5404-10.3365-118.5625-10.375z" fill="none" filter="url(#filter2960)" stroke="url(#linearGradient7260)" stroke-width="3" transform="translate(723.80468 -.114943)"/>
    <path clip-path="url(#clipPath2936)" d="m-2267.1314 169.8125c-105.1198-.10643-198.8702 24.50147-281.5 62.03125-25.425 11.54786-47.4158 30.53273-52.8437 54.0625-9.2126 39.93605-8.8832 82.67109 7.1875 134.5625 12.0312 38.84835 31.2606 62.62651 55.2812 79.28125 120.1169 83.28332 415.3055 103.19353 564.625-19.21875 41.3-33.85778 44.606-93.18742 46.8438-150.15625.9113-23.20056-6.4775-50.94062-15.625-61.28125-33.0048-37.30936-69.4682-65.49363-205.4063-88.90625-41.0076-7.06274-80.5404-10.3365-118.5625-10.375z" fill="none" filter="url(#filter2974)" stroke="url(#linearGradient7262)" stroke-width="3" transform="translate(723.80468 .161176)"/>
    <path clip-path="url(#clipPath2936)" d="m-2267.1314 169.8125c-105.1198-.10643-198.8702 24.50147-281.5 62.03125-25.425 11.54786-47.4158 30.53273-52.8437 54.0625-9.2126 39.93605-8.8832 82.67109 7.1875 134.5625 12.0312 38.84835 31.2606 62.62651 55.2812 79.28125 120.1169 83.28332 415.3055 103.19353 564.625-19.21875 41.3-33.85778 44.606-93.18742 46.8438-150.15625.9113-23.20056-6.4775-50.94062-15.625-61.28125-33.0048-37.30936-69.4682-65.49363-205.4063-88.90625-41.0076-7.06274-80.5404-10.3365-118.5625-10.375zm0 12.625c36.1833.0366 73.7568 3.15382 112.7813 9.875 129.364 22.28036 161.0913 49.0887 192.5 84.59375 8.7051 9.84055 15.7422 33.23396 14.875 55.3125-2.1295 54.21375-5.2911 107.68587-44.5938 139.90625-142.0982 116.49228-417.0046 97.53689-531.3125 18.28125-22.8589-15.8493-41.1443-38.46791-52.5937-75.4375-15.2936-49.38188-15.6108-87.05781-6.8438-125.0625 5.1654-22.39184 26.0858-37.44811 50.2813-48.4375 78.6337-35.7148 164.8701-59.13254 264.9062-59.03125z" fill="none" filter="url(#filter2944)" stroke="url(#linearGradient7264)" stroke-width="3" transform="translate(723.83411)"/>
    <path d="m-1457.6841 178.26141c88.6124 15.53981 180.9673 23.30691 241.2484 97.68861-84.687-74.97299-162.4066-81.87651-241.2484-97.68861z" fill="#fff" fill-rule="evenodd" filter="url(#filter3030)"/>
    <path d="m-1459.4861 552.85583c94.619-11.93583 212.2018-49.13544 222.6278-118.71183-29.4259 65.36238-117.9575 98.09442-222.6278 118.71183z" fill="#fff" fill-rule="evenodd" filter="url(#filter3022)"/>
    <path clip-path="url(#clipPath2936)" d="m-2267.1314 169.8125c-105.1198-.10643-198.8702 24.50147-281.5 62.03125-25.425 11.54786-47.4158 30.53273-52.8437 54.0625-9.2126 39.93605-8.8832 82.67109 7.1875 134.5625 12.0312 38.84835 31.2606 62.62651 55.2812 79.28125 120.1169 83.28332 415.3055 103.19353 564.625-19.21875 41.3-33.85778 44.606-93.18742 46.8438-150.15625.9113-23.20056-6.4775-50.94062-15.625-61.28125-33.0048-37.30936-69.4682-65.49363-205.4063-88.90625-41.0076-7.06274-80.5404-10.3365-118.5625-10.375zm0 12.625c36.1833.0366 73.7568 3.15382 112.7813 9.875 129.364 22.28036 161.0913 49.0887 192.5 84.59375 8.7051 9.84055 15.7422 33.23396 14.875 55.3125-2.1295 54.21375-5.2911 107.68587-44.5938 139.90625-142.0982 116.49228-417.0046 97.53689-531.3125 18.28125-22.8589-15.8493-41.1443-38.46791-52.5937-75.4375-15.2936-49.38188-15.6108-87.05781-6.8438-125.0625 5.1654-22.39184 26.0858-37.44811 50.2813-48.4375 78.6337-35.7148 164.8701-59.13254 264.9062-59.03125z" fill="none" stroke="url(#linearGradient7264)" stroke-width="3" transform="translate(723.83411)"/>
    <path d="m-1951.8849 305.64517c10.6678-4.33384 53.7173-14.57613 79.692-15.25421-6.2348 15.29219-4.0893 27.79094-.8495 39.92491l-67.1078 2.5484c-3.9642 2.25002-7.9283 3.33133-11.8925 9.34413-8.3229-8.35753-8.6597-32.98108.1578-36.56323z" fill="url(#radialGradient6119)" fill-rule="evenodd"/>
    <path clip-path="url(#clipPath3804)" d="m-2318.8543 305.64517c10.6678-4.33384 53.7173-14.57613 79.692-15.25421-6.2348 15.29219-4.0893 27.79094-.8495 39.92491l-67.1078 2.5484c-3.9642 2.25002-7.9283 3.33133-11.8925 9.34413-8.3229-8.35753-8.6597-32.98108.1578-36.56323z" fill="none" filter="url(#filter3848)" stroke="url(#linearGradient3808)" stroke-width="7.2" transform="translate(366.95772)"/>
    <path clip-path="url(#clipPath3804)" d="m-2318.8543 305.64517c10.6678-4.33384 53.7173-14.57613 79.692-15.25421-6.2348 15.29219-4.0893 27.79094-.8495 39.92491l-67.1078 2.5484c-3.9642 2.25002-7.9283 3.33133-11.8925 9.34413-8.3229-8.35753-8.6597-32.98108.1578-36.56323z" fill="none" filter="url(#filter3876)" stroke="url(#linearGradient7270)" stroke-width="4" transform="translate(366.95772)"/>
    <path d="m-235.9338 341.17678c-11.385 16.00223-30.2107 14.50896-38.023 14.04444-93.2473-11.3528-181.809-7.68439-253.3257-6.40608-28.5779.51081-51.8154-4.65464-66.5606-4.25192l-1.7593-25.45128c15.241-.34657 38.8745-6.24493 67.2886-6.33919 71.7731-.2381 171.4672 15.99403 249.5827 4.37749h42.6471z" fill="#858585" fill-rule="evenodd" stroke="#000"/>
    <path clip-path="url(#clipPath3958)" d="m-2127.6998 482.33267c11.385 16.00223 30.2107 14.50896 38.023 14.04444 93.2473-11.3528 181.809-7.68439 253.3257-6.40608 28.5779.51081 51.8154-4.65464 66.5606-4.25192l1.7593-25.45128c-15.241-.34657-38.8745-6.24493-67.2886-6.33919-71.7731-.2381-171.4672 15.99403-249.5827 4.37749h-42.6471z" fill="none" filter="url(#filter3952)" stroke="#000" stroke-width="4.1" transform="matrix(-1 0 0 1 -2363.8306 -141.0114)"/>
    <path d="m-1875.6215 342.20839s144.4092 3.8226 215.7644 3.39787 69.6563-5.0968 69.6563-5.0968l-3.3979-16.98932s8.9194-6.371-61.1616-5.0968-219.1623 10.19359-219.1623 10.19359z" fill="url(#radialGradient6103)" fill-rule="evenodd" filter="url(#filter3902)" stroke="#fff" transform="matrix(-1 0 0 1 -2188.8406 0)"/>
    <path d="m-1878.875 318.05124-3.6039 26.42918c-16.4149-.47318-28.0011-.26993-35.2943-2.09118-22.4229-5.59937-4.2676-17.64243 38.8982-24.338z" fill="url(#linearGradient6105)" fill-rule="evenodd" filter="url(#filter4014)" transform="matrix(-1 0 0 1 -2188.8406 0)"/>
    <path d="m-645.5191 169.8125c105.1198-.10643 198.8702 24.50147 281.5 62.03125 25.425 11.54786 47.4158 30.53273 52.8437 54.0625 9.2126 39.93605 8.8832 82.67109-7.1875 134.5625-12.0312 38.84835-31.2606 62.62651-55.2812 79.28125-120.1169 83.28332-415.3055 103.19353-564.625-19.21875-41.3-33.85778-44.606-93.18742-46.8438-150.15625-.9113-23.20056 6.4775-50.94062 15.625-61.28125 33.0048-37.30936 69.4682-65.49363 205.4063-88.90625 41.0076-7.06274 80.5404-10.3365 118.5625-10.375zm0 12.625c-36.1833.0366-73.7568 3.15382-112.7813 9.875-129.364 22.28036-161.0913 49.0887-192.5 84.59375-8.7051 9.84055-15.7422 33.23396-14.875 55.3125 2.1295 54.21375 5.2911 107.68587 44.5938 139.90625 142.0982 116.49228 417.0046 97.53689 531.3125 18.28125 22.8589-15.8493 41.1443-38.46791 52.5937-75.4375 15.2936-49.38188 15.6108-87.05781 6.8438-125.0625-5.1654-22.39184-26.0858-37.44811-50.2813-48.4375-78.6337-35.7148-164.8701-59.13254-264.9062-59.03125z" fill="url(#radialGradient6129)" fill-rule="evenodd"/>
    <path clip-path="url(#clipPath2936)" d="m-2267.1314 169.8125c-105.1198-.10643-198.8702 24.50147-281.5 62.03125-25.425 11.54786-47.4158 30.53273-52.8437 54.0625-9.2126 39.93605-8.8832 82.67109 7.1875 134.5625 12.0312 38.84835 31.2606 62.62651 55.2812 79.28125 120.1169 83.28332 415.3055 103.19353 564.625-19.21875 41.3-33.85778 44.606-93.18742 46.8438-150.15625.9113-23.20056-6.4775-50.94062-15.625-61.28125-33.0048-37.30936-69.4682-65.49363-205.4063-88.90625-41.0076-7.06274-80.5404-10.3365-118.5625-10.375z" fill="none" filter="url(#filter2960)" stroke="url(#linearGradient7260)" stroke-width="3" transform="matrix(-1 0 0 1 -2912.6453 -.114943)"/>
    <path clip-path="url(#clipPath2936)" d="m-2267.1314 169.8125c-105.1198-.10643-198.8702 24.50147-281.5 62.03125-25.425 11.54786-47.4158 30.53273-52.8437 54.0625-9.2126 39.93605-8.8832 82.67109 7.1875 134.5625 12.0312 38.84835 31.2606 62.62651 55.2812 79.28125 120.1169 83.28332 415.3055 103.19353 564.625-19.21875 41.3-33.85778 44.606-93.18742 46.8438-150.15625.9113-23.20056-6.4775-50.94062-15.625-61.28125-33.0048-37.30936-69.4682-65.49363-205.4063-88.90625-41.0076-7.06274-80.5404-10.3365-118.5625-10.375z" fill="none" filter="url(#filter2974)" stroke="url(#linearGradient7262)" stroke-width="3" transform="matrix(-1 0 0 1 -2912.6453 .161176)"/>
    <path clip-path="url(#clipPath2936)" d="m-2267.1314 169.8125c-105.1198-.10643-198.8702 24.50147-281.5 62.03125-25.425 11.54786-47.4158 30.53273-52.8437 54.0625-9.2126 39.93605-8.8832 82.67109 7.1875 134.5625 12.0312 38.84835 31.2606 62.62651 55.2812 79.28125 120.1169 83.28332 415.3055 103.19353 564.625-19.21875 41.3-33.85778 44.606-93.18742 46.8438-150.15625.9113-23.20056-6.4775-50.94062-15.625-61.28125-33.0048-37.30936-69.4682-65.49363-205.4063-88.90625-41.0076-7.06274-80.5404-10.3365-118.5625-10.375zm0 12.625c36.1833.0366 73.7568 3.15382 112.7813 9.875 129.364 22.28036 161.0913 49.0887 192.5 84.59375 8.7051 9.84055 15.7422 33.23396 14.875 55.3125-2.1295 54.21375-5.2911 107.68587-44.5938 139.90625-142.0982 116.49228-417.0046 97.53689-531.3125 18.28125-22.8589-15.8493-41.1443-38.46791-52.5937-75.4375-15.2936-49.38188-15.6108-87.05781-6.8438-125.0625 5.1654-22.39184 26.0858-37.44811 50.2813-48.4375 78.6337-35.7148 164.8701-59.13254 264.9062-59.03125z" fill="none" filter="url(#filter2944)" stroke="url(#linearGradient7264)" stroke-width="3" transform="matrix(-1 0 0 1 -2912.6747 .000001)"/>
    <path d="m-1457.6841 178.26141c88.6124 15.53981 180.9673 23.30691 241.2484 97.68861-84.687-74.97299-162.4066-81.87651-241.2484-97.68861z" fill="#fff" fill-rule="evenodd" filter="url(#filter3030)" transform="matrix(-1 0 0 1 -2188.8406 0)"/>
    <path d="m-1459.4861 552.85583c94.619-11.93583 212.2018-49.13544 222.6278-118.71183-29.4259 65.36238-117.9575 98.09442-222.6278 118.71183z" fill="#fff" fill-rule="evenodd" filter="url(#filter3022)" transform="matrix(-1 0 0 1 -2188.8406 0)"/>
    <path clip-path="url(#clipPath2936)" d="m-2267.1314 169.8125c-105.1198-.10643-198.8702 24.50147-281.5 62.03125-25.425 11.54786-47.4158 30.53273-52.8437 54.0625-9.2126 39.93605-8.8832 82.67109 7.1875 134.5625 12.0312 38.84835 31.2606 62.62651 55.2812 79.28125 120.1169 83.28332 415.3055 103.19353 564.625-19.21875 41.3-33.85778 44.606-93.18742 46.8438-150.15625.9113-23.20056-6.4775-50.94062-15.625-61.28125-33.0048-37.30936-69.4682-65.49363-205.4063-88.90625-41.0076-7.06274-80.5404-10.3365-118.5625-10.375zm0 12.625c36.1833.0366 73.7568 3.15382 112.7813 9.875 129.364 22.28036 161.0913 49.0887 192.5 84.59375 8.7051 9.84055 15.7422 33.23396 14.875 55.3125-2.1295 54.21375-5.2911 107.68587-44.5938 139.90625-142.0982 116.49228-417.0046 97.53689-531.3125 18.28125-22.8589-15.8493-41.1443-38.46791-52.5937-75.4375-15.2936-49.38188-15.6108-87.05781-6.8438-125.0625 5.1654-22.39184 26.0858-37.44811 50.2813-48.4375 78.6337-35.7148 164.8701-59.13254 264.9062-59.03125z" fill="none" stroke="url(#linearGradient7264)" stroke-width="3" transform="matrix(-1 0 0 1 -2912.6747 .000001)"/>
    <path d="m-236.9557 305.64517c-10.6678-4.33384-53.7173-14.57613-79.692-15.25421 6.2348 15.29219 4.0893 27.79094.8495 39.92491l67.1078 2.5484c3.9642 2.25002 7.9283 3.33133 11.8925 9.34413 8.3229-8.35753 8.6597-32.98108-.1578-36.56323z" fill="url(#radialGradient6139)" fill-rule="evenodd"/>
    <path clip-path="url(#clipPath3804)" d="m-2318.8543 305.64517c10.6678-4.33384 53.7173-14.57613 79.692-15.25421-6.2348 15.29219-4.0893 27.79094-.8495 39.92491l-67.1078 2.5484c-3.9642 2.25002-7.9283 3.33133-11.8925 9.34413-8.3229-8.35753-8.6597-32.98108.1578-36.56323z" fill="none" filter="url(#filter3848)" stroke="url(#linearGradient3808)" stroke-width="7.2" transform="matrix(-1 0 0 1 -2555.7983 0)"/>
    <path clip-path="url(#clipPath3804)" d="m-2318.8543 305.64517c10.6678-4.33384 53.7173-14.57613 79.692-15.25421-6.2348 15.29219-4.0893 27.79094-.8495 39.92491l-67.1078 2.5484c-3.9642 2.25002-7.9283 3.33133-11.8925 9.34413-8.3229-8.35753-8.6597-32.98108.1578-36.56323z" fill="none" filter="url(#filter3876)" stroke="url(#linearGradient7270)" stroke-width="4" transform="matrix(-1 0 0 1 -2555.7983 0)"/>
    <path d="m-1216.7186 297.33167c64.1461-48.45971 225.20277-36.79153 246.27197-1.20132l4.8053-19.22123c-82.46877-38.14606-167.62057-35.02148-254.47507 1.7718z" fill="url(#radialGradient6145)" fill-rule="evenodd" stroke="#000"/>
    <path d="m-1216.7186 297.33167c64.1461-48.45971 225.20277-36.79153 246.27197-1.20132l-7.0872 4.98856c-.6359-.93106-3.9242-3.29904-9.108-6.99688-36.47777-26.02127-169.69057-24.08497-211.36017 3.16745-5.3043 3.46907-10.5607 10.37235-11.4961 11.97223z" fill="url(#radialGradient6147)" fill-rule="evenodd" stroke="#000"/>
    <path d="m-316.67745 273.27856c-145.6266-97.10725-299.4748-111.99814-457.8615-81.50413-89.7445 26.11925-203.7418 27.98562-196.5688 151.02236 1.0305 65.94344 17.3318 127.18819 100.6816 167.80263 152.2984 68.905 311.9624 60.47048 477.0389-4.79436 112.1456-87.45935 72.3184-139.36449 76.7098-232.5265z" fill="none" stroke="#000"/>
    <path d="m-1529.7577 317.63316c-105.12-.0771-198.8703 17.75795-281.5 44.95844-25.4252 8.36955-47.4159 22.12924-52.8438 39.18293-.3807 1.19596-.7461 2.39799-1.0938 3.6012-1.2817.069-2.5754.13397-3.9062.22649-5.5171.38423-11.4202.95553-17.375 1.65339-3.9771.4661-8.0064.98884-11.9375 1.54013-3.9206.55005-7.7863 1.15281-11.4687 1.74399-1.846.29635-3.6564.58483-5.4063.88332-3.4885.59523-6.7877 1.19562-9.75 1.76662-1.4855.28634-2.9017.56598-4.2187.83802-1.3054.26979-2.5407.54241-3.6563.79272-2.2488.50455-4.1041.96631-5.4375 1.35894-.8162.24363-1.5591.62579-2.2188 1.10981-1.3333.97837-2.3573 2.4053-3.0624 4.09949-.3526.84708-.6142 1.75869-.8126 2.71789-.3967 1.9184-.4896 4.01575-.2812 6.11525.1389 1.39966.4103 2.79666.8125 4.14479.3016 1.01108.6775 1.99161 1.125 2.92173.1492.31003.3035.60823.4687.90596.9135 1.64611 2.0715 3.08457 3.4688 4.19008.035.0276.059.0634.094.0906 1.6596 1.59629 3.4469 2.94925 5.3437 4.07684.069.0417.1495.0722.2187.11324.8749.51101 1.7488 1.00225 2.6563 1.42689 10.6935 5.09071 23.3525 4.38302 29.4063 4.12214 10.4945-.92604 20.923-1.70992 31.2812-2.37816 0 .061.026.12015.031.1812.01.099.023.19535.031.29443v.0906c1.2431 15.22067 5.323 31.42978 12.875 49.10323 12.0311 28.15617 31.2607 45.38987 55.2813 57.46075 3.2399 1.62815 6.6053 3.21876 10.0937 4.77896-51.5909 20.12682-101.5256 41.73589-149.1563 64.07428-1.0239.48025-1.3336 1.36442-1.3437 2.3555-.4807.22509-.9572.45423-1.4375.67948-1.9878.93227-1.3024 3.44131-.9375 5.14134.3949 1.84063.8834 3.67212 1.4687 5.48108 1.1046-.51769 2.2056-1.04592 3.3126-1.56279 4.3446 12.28446 12.9881 23.78674 24.7187 34.08688 1.3739 1.2065 3.5776 3.3364 5.4375 2.55935 68.7813-28.73619 137.0685-57.63272 210.1562-84.82085 141.6229 28.91579 346.1249 22.33256 462.3126-46.70243 16.8195-9.99361 27.3205-23.04649 34.0312-37.80133.4998-1.09526.9787-2.19327 1.4375-3.30676.015-.0366.016-.0766.031-.11325.4575-1.11439.8938-2.24325 1.3124-3.37472.4447-1.20596.8784-2.42249 1.2813-3.6465.3795-1.14886.749-2.30167 1.0937-3.46531.011-.0376.02-.0757.031-.11324.3416-1.1574.6594-2.33975.9687-3.51062.012-.045.02-.0909.031-.13589.1541-.58573.2911-1.17774.4375-1.76663 38.0257-2.82294 76.5807-5.21764 115.5-7.33831 38.9041 2.11991 77.4575 4.5167 115.46879 7.33831 5.6086 22.65659 16.787 43.0334 40.6874 57.23425 116.1713 69.02526 320.6294 75.62679 462.25 46.72508 73.0923 27.18942 141.4025 56.06046 210.1876 84.7982 1.8599.77705 4.0946-1.35285 5.4687-2.55935 11.7306-10.30014 20.3428-21.80242 24.6875-34.08688 1.1144.5203 2.2319 1.04166 3.3438 1.56279.5853-1.80896 1.0738-3.64045 1.4687-5.48108.3649-1.70003 1.0503-4.20907-.9375-5.14134-.4791-.22472-.9579-.45492-1.4375-.67948-.0101-.99108-.3198-1.87525-1.3437-2.3555-47.6347-22.34027-97.5921-43.94601-149.1876-64.07428 3.4885-1.5602 6.8851-3.15081 10.125-4.77896 24.0206-12.07088 43.2502-29.30458 55.2813-57.46075 7.552-17.67345 11.6006-33.88256 12.8437-49.10323.003-.0304-.002-.0602 0-.0906.008-.0991.0234-.19542.0313-.29443.005-.0611.0265-.12017.0313-.1812 10.3581.66824 20.7867 1.45212 31.2812 2.37816 5.9012.25432 18.0781.92179 28.5938-3.75976.3712-.16223.7268-.32258 1.0937-.49827.0617-.03.1259-.0602.1875-.0906.3682-.17912.7308-.37288 1.0938-.56622.06-.0325.1275-.0577.1874-.0906.3583-.19375.7102-.40328 1.0626-.61152.0617-.0371.1259-.0757.1874-.11325 1.9084-1.14608 3.7105-2.52028 5.375-4.14479.6164-.49426 1.1969-1.03843 1.7188-1.65338 1.0649-1.2547 1.9286-2.74521 2.5938-4.34862.133-.32069.2581-.64423.375-.97392 1.0514-2.96713 1.4462-6.25855 1.1562-9.28613-.0322-.33639-.0759-.66767-.125-.99655-.1966-1.31557-.5299-2.56235-1-3.6918-.5876-1.41183-1.3833-2.6432-2.4062-3.57856-.2046-.18707-.4028-.35787-.625-.52093-.006-.004-.0258.004-.0313 0-.4383-.3216-.899-.61935-1.4063-.83801-.008-.003-.023.003-.0312 0-.2577-.11011-.5057-.19066-.7812-.2718-3.3296-.98034-9.8342-2.3993-17.9688-3.87299-.01-.002-.0218.002-.0312 0-4.8808-.88389-10.3514-1.7851-16.0938-2.64994-.01-.001-.0214.001-.0312 0-5.7439-.86475-11.763-1.70244-17.7188-2.40081-.0102-.001-.021.001-.0312 0-3.9667-.46486-7.8984-.86381-11.7188-1.20041-.0105-.00091-.0208.00093-.0312 0-3.2985-.2903-6.4754-.51509-9.5313-.67947-.3476-1.20321-.6818-2.40524-1.0625-3.6012-5.4279-17.05369-27.4188-30.81338-52.8438-39.18293-82.6298-27.20049-176.3802-45.03558-281.5-44.95844-38.0221.0279-77.5549 2.40062-118.5624 7.51949-135.9382 16.96879-172.4014 37.39593-205.4063 64.43667-1.1557.94689-2.2886 2.10261-3.375 3.42001-78.43629-24.59612-159.27429-22.36588-241.65629 1.94782-.2217-.31121-.4616-.60895-.6874-.90596-.016-.0209-.015-.0471-.031-.0679-1.3185-1.72613-2.6957-3.2229-4.125-4.39393-33.0049-27.04074-69.4681-47.46788-205.4063-64.43667-41.0077-5.11887-80.5403-7.49159-118.5624-7.51949zm461 76.82572c40.2174.13298 78.58849 4.52259 95.68739 13.36296 1.944 1.00503 3.5042 1.82949 4.875 2.55934-.3837 1.19031-.7364 2.39797-1.0624 3.62386-.0487.18193-.109.36099-.1563.54358-.008.0307-.0233.0599-.0313.0906-1.373 5.32707-2.1872 10.89821-2.2187 16.26204-.0007.11408 0 .22588 0 .33973-36.47419 2.06101-72.88979 4.23243-109.18749 6.43235-36.3051-2.20039-72.737-4.37091-109.2188-6.43235.0006-2.21851-.1549-4.46223-.4062-6.72677 0-.0373 0-.076 0-.11324 0-.0299 0-.0608 0-.0906-.024-.21116-.068-.42295-.094-.63418-.2446-1.97687-.5552-3.9552-.9687-5.91141-.05-.23601-.1044-.46679-.1563-.70212-.018-.0837-.044-.16557-.062-.24914-.1192-.53171-.2444-1.05794-.375-1.58544 2.1433-1.78065 4.8922-3.7937 7.6874-5.11869 22.137-10.49313 70.1078-15.80125 115.6876-15.65052z" fill="url(#linearGradient6149)" fill-rule="evenodd" filter="url(#filter4520)"/>
    <path d="m-1529.7577 317.63316c-105.12-.0771-198.8703 17.75795-281.5 44.95844-25.4252 8.36955-47.4159 22.12924-52.8438 39.18293-.3807 1.19596-.7461 2.39799-1.0938 3.6012-1.2817.069-2.5754.13397-3.9062.22649-5.5171.38423-11.4202.95553-17.375 1.65339-3.9771.4661-8.0064.98884-11.9375 1.54013-3.9206.55005-7.7863 1.15281-11.4687 1.74399-1.846.29635-3.6564.58483-5.4063.88332-3.4885.59523-6.7877 1.19562-9.75 1.76662-1.4855.28634-2.9017.56598-4.2187.83802-1.3054.26979-2.5407.54241-3.6563.79272-2.2488.50455-4.1041.96631-5.4375 1.35894-.8162.24363-1.5591.62579-2.2188 1.10981-1.3333.97837-2.3573 2.4053-3.0624 4.09949-.3526.84708-.6142 1.75869-.8126 2.71789-.3967 1.9184-.4896 4.01575-.2812 6.11525.1389 1.39966.4103 2.79666.8125 4.14479.3016 1.01108.6775 1.99161 1.125 2.92173.1492.31003.3035.60823.4687.90596.9135 1.64611 2.0715 3.08457 3.4688 4.19008.035.0276.059.0634.094.0906 1.6596 1.59629 3.4469 2.94925 5.3437 4.07684.069.0417.1495.0722.2187.11324.8749.51101 1.7488 1.00225 2.6563 1.42689 10.6935 5.09071 23.3525 4.38302 29.4063 4.12214 10.4945-.92604 20.923-1.70992 31.2812-2.37816 0 .061.026.12015.031.1812.01.099.023.19535.031.29443v.0906c1.2431 15.22067 5.323 31.42978 12.875 49.10323 12.0311 28.15617 31.2607 45.38987 55.2813 57.46075 3.2399 1.62815 6.6053 3.21876 10.0937 4.77896-51.5909 20.12682-101.5256 41.73589-149.1563 64.07428-1.0239.48025-1.3336 1.36442-1.3437 2.3555-.4807.22509-.9572.45423-1.4375.67948-1.9878.93227-1.3024 3.44131-.9375 5.14134.3949 1.84063.8834 3.67212 1.4687 5.48108 1.1046-.51769 2.2056-1.04592 3.3126-1.56279 4.3446 12.28446 12.9881 23.78674 24.7187 34.08688 1.3739 1.2065 3.5776 3.3364 5.4375 2.55935 68.7813-28.73619 137.0685-57.63272 210.1562-84.82085 141.6229 28.91579 346.1249 22.33256 462.3126-46.70243 16.8195-9.99361 27.3205-23.04649 34.0312-37.80133.4998-1.09526.9787-2.19327 1.4375-3.30676.015-.0366.016-.0766.031-.11325.4575-1.11439.8938-2.24325 1.3124-3.37472.4447-1.20596.8784-2.42249 1.2813-3.6465.3795-1.14886.749-2.30167 1.0937-3.46531.011-.0376.02-.0757.031-.11324.3416-1.1574.6594-2.33975.9687-3.51062.012-.045.02-.0909.031-.13589.1541-.58573.2911-1.17774.4375-1.76663 38.0257-2.82294 76.5807-5.21764 115.5-7.33831 38.9041 2.11991 77.4575 4.5167 115.46879 7.33831 5.6086 22.65659 16.787 43.0334 40.6874 57.23425 116.1713 69.02526 320.6294 75.62679 462.25 46.72508 73.0923 27.18942 141.4025 56.06046 210.1876 84.7982 1.8599.77705 4.0946-1.35285 5.4687-2.55935 11.7306-10.30014 20.3428-21.80242 24.6875-34.08688 1.1144.5203 2.2319 1.04166 3.3438 1.56279.5853-1.80896 1.0738-3.64045 1.4687-5.48108.3649-1.70003 1.0503-4.20907-.9375-5.14134-.4791-.22472-.9579-.45492-1.4375-.67948-.0101-.99108-.3198-1.87525-1.3437-2.3555-47.6347-22.34027-97.5921-43.94601-149.1876-64.07428 3.4885-1.5602 6.8851-3.15081 10.125-4.77896 24.0206-12.07088 43.2502-29.30458 55.2813-57.46075 7.552-17.67345 11.6006-33.88256 12.8437-49.10323.003-.0304-.002-.0602 0-.0906.008-.0991.0234-.19542.0313-.29443.005-.0611.0265-.12017.0313-.1812 10.3581.66824 20.7867 1.45212 31.2812 2.37816 5.9012.25432 18.0781.92179 28.5938-3.75976.3712-.16223.7268-.32258 1.0937-.49827.0617-.03.1259-.0602.1875-.0906.3682-.17912.7308-.37288 1.0938-.56622.06-.0325.1275-.0577.1874-.0906.3583-.19375.7102-.40328 1.0626-.61152.0617-.0371.1259-.0757.1874-.11325 1.9084-1.14608 3.7105-2.52028 5.375-4.14479.6164-.49426 1.1969-1.03843 1.7188-1.65338 1.0649-1.2547 1.9286-2.74521 2.5938-4.34862.133-.32069.2581-.64423.375-.97392 1.0514-2.96713 1.4462-6.25855 1.1562-9.28613-.0322-.33639-.0759-.66767-.125-.99655-.1966-1.31557-.5299-2.56235-1-3.6918-.5876-1.41183-1.3833-2.6432-2.4062-3.57856-.2046-.18707-.4028-.35787-.625-.52093-.006-.004-.0258.004-.0313 0-.4383-.3216-.899-.61935-1.4063-.83801-.008-.003-.023.003-.0312 0-.2577-.11011-.5057-.19066-.7812-.2718-3.3296-.98034-9.8342-2.3993-17.9688-3.87299-.01-.002-.0218.002-.0312 0-4.8808-.88389-10.3514-1.7851-16.0938-2.64994-.01-.001-.0214.001-.0312 0-5.7439-.86475-11.763-1.70244-17.7188-2.40081-.0102-.001-.021.001-.0312 0-3.9667-.46486-7.8984-.86381-11.7188-1.20041-.0105-.00091-.0208.00093-.0312 0-3.2985-.2903-6.4754-.51509-9.5313-.67947-.3476-1.20321-.6818-2.40524-1.0625-3.6012-5.4279-17.05369-27.4188-30.81338-52.8438-39.18293-82.6298-27.20049-176.3802-45.03558-281.5-44.95844-38.0221.0279-77.5549 2.40062-118.5624 7.51949-135.9382 16.96879-172.4014 37.39593-205.4063 64.43667-1.1557.94689-2.2886 2.10261-3.375 3.42001-78.43629-24.59612-159.27429-22.36588-241.65629 1.94782-.2217-.31121-.4616-.60895-.6874-.90596-.016-.0209-.015-.0471-.031-.0679-1.3185-1.72613-2.6957-3.2229-4.125-4.39393-33.0049-27.04074-69.4681-47.46788-205.4063-64.43667-41.0077-5.11887-80.5403-7.49159-118.5624-7.51949zm461 76.82572c40.2174.13298 78.58849 4.52259 95.68739 13.36296 1.944 1.00503 3.5042 1.82949 4.875 2.55934-.3837 1.19031-.7364 2.39797-1.0624 3.62386-.0487.18193-.109.36099-.1563.54358-.008.0307-.0233.0599-.0313.0906-1.373 5.32707-2.1872 10.89821-2.2187 16.26204-.0007.11408 0 .22588 0 .33973-36.47419 2.06101-72.88979 4.23243-109.18749 6.43235-36.3051-2.20039-72.737-4.37091-109.2188-6.43235.0006-2.21851-.1549-4.46223-.4062-6.72677 0-.0373 0-.076 0-.11324 0-.0299 0-.0608 0-.0906-.024-.21116-.068-.42295-.094-.63418-.2446-1.97687-.5552-3.9552-.9687-5.91141-.05-.23601-.1044-.46679-.1563-.70212-.018-.0837-.044-.16557-.062-.24914-.1192-.53171-.2444-1.05794-.375-1.58544 2.1433-1.78065 4.8922-3.7937 7.6874-5.11869 22.137-10.49313 70.1078-15.80125 115.6876-15.65052z" fill="url(#linearGradient6151)" fill-rule="evenodd"/>
    <path d="m-1281.4673 394.67795a284.77051 142.38525 0 1 1 -569.541 0 284.77051 142.38525 0 1 1 569.541 0z" fill="url(#linearGradient6153)" opacity=".82397" transform="translate(0 -47.46175)"/>
    <path d="m-1281.4673 394.67795a284.77051 142.38525 0 1 1 -569.541 0 284.77051 142.38525 0 1 1 569.541 0z" fill="url(#linearGradient6155)" opacity=".82397" transform="translate(908.5535 -47.46175)"/>
    <path d="m-1313.5457 229.84375c25.2518 25.8035 39.75 55.83917 39.75 87.875.0001 96.21855-130.5956 174.28125-291.5 174.28125-149.9697-.00001-273.6072-67.81254-289.7188-154.9375-.5127 4.34523-.7813 8.73343-.7812 13.15625 0 101.83258 138.2071 184.46875 308.5 184.46875 170.2927 0 308.5-82.63617 308.5-184.46875 0-45.97845-28.1675-88.06035-74.75-120.375z" fill="url(#linearGradient6157)" opacity=".82397"/>
  </g>
</svg>
