<svg height="256" width="256" xmlns="http://www.w3.org/2000/svg" xmlns:xlink="http://www.w3.org/1999/xlink">
  <defs>
    <linearGradient id="linearGradient4888">
      <stop offset="0" stop-color="#fff"/>
      <stop offset="1" stop-color="#fff" stop-opacity="0"/>
    </linearGradient>
    <linearGradient id="linearGradient4622">
      <stop offset="0" stop-color="#6c6c6c"/>
      <stop offset="1" stop-color="#080808"/>
    </linearGradient>
    <linearGradient id="linearGradient4594">
      <stop offset="0"/>
      <stop offset="1" stop-opacity="0"/>
    </linearGradient>
    <linearGradient id="linearGradient3677">
      <stop offset="0" stop-color="#fff"/>
      <stop offset=".08333334" stop-color="#8e8e8e"/>
      <stop offset=".47916669" stop-color="#fff"/>
      <stop offset=".875" stop-color="#767676"/>
      <stop offset=".9375" stop-color="#fff"/>
      <stop offset=".9675926" stop-color="#515151"/>
      <stop offset="1" stop-color="#fff"/>
    </linearGradient>
    <linearGradient id="linearGradient3393">
      <stop offset="0" stop-color="#323232"/>
      <stop offset="1" stop-color="#888"/>
    </linearGradient>
    <linearGradient id="linearGradient4010">
      <stop offset="0" stop-color="#313131"/>
      <stop offset="1" stop-color="#828282"/>
    </linearGradient>
    <filter id="filter3478" height="1.170017" width="1.18725" x="-.093625" y="-.085008">
      <feGaussianBlur stdDeviation="1.8761603"/>
    </filter>
    <filter id="filter3587" height="1.194926" width="1.526404" x="-.263202" y="-.097463">
      <feGaussianBlur stdDeviation="1.5545848"/>
    </filter>
    <filter id="filter3628" height="1.109776" width="1.083807" x="-.041903" y="-.054888">
      <feGaussianBlur stdDeviation=".76333439"/>
    </filter>
    <filter id="filter3739" height="1.114782" width="1.123135" x="-.061567" y="-.057391">
      <feGaussianBlur stdDeviation="1.6903667"/>
    </filter>
    <filter id="filter3852" height="1.36919" width="1.248466" x="-.124233" y="-.184595">
      <feGaussianBlur stdDeviation=".85086634"/>
    </filter>
    <clipPath id="clipPath3878">
      <path d="m53.78125 23.4375c-3.931935-.000001-6.509032.13023-14.5625 1.625-7.883452 2.876012-9.055483 9.433231-10.78125 13.71875-2.603643 6.465511-2.189785 7.072467-6.96875 11.34375-1.786275 3.567429-1.217233 6.6996.96875 6.6875 3.515566.140443 2.573704 4.358701 7.6875 1.40625 4.134013-3.659838 8.590457-6.772359 12.625-7.3125 2.651914-.355035 4.318758-1.05121 6-4.78125 2.973734-1.658744 5.201901 10.49201 1.59375 14-7.315949 10.556317-8.78125 14.783284-8.78125 25.25 0 .122588.02347.254861.03125.375-.08877.293894-.125.572603-.125.875 0 2.052166 2.10033 3.909761 5.5625 5.34375.363558.150581.732214.328223 1.125.46875 3.630018 1.422439 8.403091 2.19374 13.34375 2.3125.114371.0027.229202-.0021.34375 0 .707738.02426 1.431052.03125 2.15625.03125 12.443805 0 22.531254-3.654032 22.53125-8.15625 0-.140694-.01176-.267298-.03125-.40625.196768-.528959.311013-1.079363.34375-1.65625 1.081434-18.754801-8.115496-57.831071-33.0625-61.125z"/>
    </clipPath>
    <filter id="filter3954" height="1.23262" width="1.249615" x="-.124837" y="-.11631">
      <feGaussianBlur stdDeviation="2.5593507"/>
    </filter>
    <filter id="filter3280" height="1.248319" width="1.214725" x="-.107362" y="-.124159">
      <feGaussianBlur stdDeviation="1.7851291"/>
    </filter>
    <filter id="filter3338" height="1.299618" width="1.497346" x="-.237765" y="-.159567">
      <feGaussianBlur stdDeviation=".98198011"/>
    </filter>
    <filter id="filter3389" height="5.009865" width="1.401565" x="-.200783" y="-2.002038">
      <feGaussianBlur stdDeviation=".9731751"/>
    </filter>
    <filter id="filter3462" height="1.208027" width="1.092708" x="-.046354" y="-.104014">
      <feGaussianBlur stdDeviation="1.8166399"/>
    </filter>
    <clipPath id="clipPath3478">
      <ellipse cx="65.226837" cy="85.162941" rx="47.028755" ry="20.958466"/>
    </clipPath>
    <linearGradient gradientUnits="userSpaceOnUse" spreadMethod="reflect" x1="18.198082" x2="65.392311" xlink:href="#linearGradient4010" y1="85.162941" y2="85.162941"/>
    <filter id="filter3556" height="1.373861" width="1.166612" x="-.083306" y="-.18693">
      <feGaussianBlur stdDeviation="2.7798199"/>
    </filter>
    <filter id="filter3673" height="1.209919" width="1.391373" x="-.195686" y="-.10496">
      <feGaussianBlur stdDeviation=".98296501"/>
    </filter>
    <filter id="filter3727" height="1.20921" width="1.093235" x="-.046617" y="-.104605">
      <feGaussianBlur stdDeviation="1.8269644"/>
    </filter>
    <clipPath id="clipPath3738">
      <ellipse cx="65.226837" cy="85.162941" rx="47.028755" ry="20.958466"/>
    </clipPath>
    <linearGradient gradientUnits="userSpaceOnUse" spreadMethod="reflect" x1="18.198082" x2="65.296089" xlink:href="#linearGradient4010" y1="85.162941" y2="85.162941"/>
    <filter id="filter3768" height="1.273382" width="1.121833" x="-.060917" y="-.136691">
      <feGaussianBlur stdDeviation="1.7443486"/>
    </filter>
    <filter id="filter3814" height="1.159368" width="1.071023" x="-.035511" y="-.079684">
      <feGaussianBlur stdDeviation="1.3917104"/>
    </filter>
    <clipPath id="clipPath3957">
      <path d="m46.75 16.6875c.01727.11372.04533.171411.0625.28125.177512 1.135761.335085 2.134319.46875 2.9375.0058.03563.02562.08985.03125.125.06354.387506.115058.757412.15625 1.09375.04061.331573.08181.638463.09375.9375.0016.03952-.001.08588 0 .125.000381.02005-.000231.04254 0 .0625.0055.311977-.02629.607138-.0625.90625-.0025.02039.0027.04212 0 .0625-.01356.10319-.04325.209056-.0625.3125-.03973.212646-.09112.406554-.15625.625-.09475.317705-.186293.650261-.34375 1-.165091.369686-.380913.75993-.625 1.1875.273189.125452.541064.228732.8125.3125.19544.06251.400328.08194.59375.125.180848.03775.353093.07225.53125.09375.03161.0043.06224.02746.09375.03125.305399.03207.612552.04204.90625.03125.01046-.000384.02081.000441.03125 0 1.567963-.06616 2.942305-.762141 3.75-1.875-1.137134-3.333642-2.920564-5.449743-6-8.125-.0625-.0543-.123908-.101463-.1875-.15625-.03451-.02973-.05892-.06387-.09375-.09375z"/>
    </clipPath>
    <filter id="filter4065" height="1.619849" width="1.819122" x="-.428567" y="-.373518">
      <feGaussianBlur stdDeviation=".6932014"/>
    </filter>
    <filter id="filter4215" height="1.737165" width="1.236946" x="-.118473" y="-.368583">
      <feGaussianBlur stdDeviation=".34554629"/>
    </filter>
    <filter id="filter4410" height="1.592789" width="1.549449" x="-.274725" y="-.296395">
      <feGaussianBlur stdDeviation=".60909628"/>
    </filter>
    <filter id="filter4510" height="1.620506" width="1.641139" x="-.320569" y="-.310253">
      <feGaussianBlur stdDeviation=".71234071"/>
    </filter>
    <clipPath id="clipPath4590">
      <ellipse cx="65.226837" cy="85.162941" rx="47.028755" ry="20.958466"/>
    </clipPath>
    <filter id="filter4618" height="1.959009" width="1.427384" x="-.213692" y="-.479505">
      <feGaussianBlur stdDeviation="5.5869825"/>
    </filter>
    <filter id="filter4726" height="1.370493" width="1.343406" x="-.171703" y="-.185247">
      <feGaussianBlur stdDeviation=".38068518"/>
    </filter>
    <filter id="filter4842" height="1.439604" width="1.439604" x="-.219802" y="-.219802">
      <feGaussianBlur stdDeviation=".16853826"/>
    </filter>
    <filter id="filter4882" height="1.22211" width="1.229496" x="-.114748" y="-.111055">
      <feGaussianBlur stdDeviation=".25498255"/>
    </filter>
    <filter id="filter4980" height="1.346016" width="1.581439" x="-.301117" y="-.180485">
      <feGaussianBlur stdDeviation="1.1473534"/>
    </filter>
    <linearGradient id="linearGradient5035" gradientUnits="userSpaceOnUse" x1="49.676533" x2="50.806156" xlink:href="#linearGradient3393" y1="26.950584" y2="18.792673"/>
    <linearGradient id="linearGradient5037" gradientUnits="userSpaceOnUse" x1="49.6744" x2="43.969467" xlink:href="#linearGradient3393" y1="19.515352" y2="23.399055"/>
    <radialGradient id="radialGradient5039" cx="49.671875" cy="25.173965" gradientTransform="matrix(1.7233705 0 0 2.6302144 -35.931169 -39.271246)" gradientUnits="userSpaceOnUse" r="3.359375" xlink:href="#linearGradient4594"/>
    <linearGradient id="linearGradient5045" gradientTransform="matrix(1.5818874 0 0 1.866372 38.561483 37.825856)" gradientUnits="userSpaceOnUse" spreadMethod="reflect" x1="18.198082" x2="65.392311" xlink:href="#linearGradient4010" y1="85.162941" y2="85.162941"/>
    <radialGradient id="radialGradient5047" cx="65.226837" cy="99.584976" gradientTransform="matrix(-.58247396 .15607341 -.07205462 -.26891154 186.91149 211.6892)" gradientUnits="userSpaceOnUse" r="47.028755" spreadMethod="reflect" xlink:href="#linearGradient3677"/>
    <linearGradient id="linearGradient5049" gradientTransform="matrix(1.2859726 0 0 1.3060876 57.863063 70.493206)" gradientUnits="userSpaceOnUse" spreadMethod="reflect" x1="18.198082" x2="65.296089" xlink:href="#linearGradient4010" y1="85.162941" y2="85.162941"/>
    <radialGradient id="radialGradient5051" cx="84.815948" cy="117.37907" fx="91.34565" fy="134.56099" gradientTransform="matrix(.5001092 -.13400382 .0509259 .19005797 115.86249 177.99139)" gradientUnits="userSpaceOnUse" r="47.028755" spreadMethod="reflect" xlink:href="#linearGradient3677"/>
    <radialGradient id="radialGradient5059" cx="60.829292" cy="28.975164" gradientTransform="matrix(1.2495127 0 0 1.895987 -14.42885 -28.17091)" gradientUnits="userSpaceOnUse" r="24.046875" xlink:href="#linearGradient4888"/>
    <radialGradient id="radialGradient5061" cx="51.231464" cy="70.109375" fx="47.637939" fy="70.173271" gradientTransform="matrix(1.8777113 0 0 3.1999891 -44.33429 -153.13361)" gradientUnits="userSpaceOnUse" r="5.981466" xlink:href="#linearGradient4888"/>
    <linearGradient id="linearGradient5063" gradientUnits="userSpaceOnUse" x1="29.005547" x2="43.980087" xlink:href="#linearGradient4888" y1="29.76827" y2="44.742813"/>
    <linearGradient id="linearGradient5065" gradientTransform="matrix(1.1118924 0 0 .902693 69.217769 96.427716)" gradientUnits="userSpaceOnUse" x1="86.875008" x2="52.906643" xlink:href="#linearGradient4594" y1="57.841034" y2="130.31097"/>
    <linearGradient id="linearGradient5069" gradientUnits="userSpaceOnUse" x1="33.65905" x2="40.018074" xlink:href="#linearGradient4888" y1="28.940231" y2="51.146214"/>
    <linearGradient id="linearGradient5071" gradientUnits="userSpaceOnUse" x1="33.315994" x2="53.658157" xlink:href="#linearGradient4888" y1="44.576778" y2="44.576778"/>
    <linearGradient id="linearGradient5073" gradientUnits="userSpaceOnUse" x1="70.299744" x2="30.848763" y1="77.102982" y2="6.646932">
      <stop offset="0" stop-color="#1f1f1f"/>
      <stop offset="1" stop-color="#1f1f1f" stop-opacity="0"/>
    </linearGradient>
    <linearGradient id="linearGradient5079" gradientTransform="matrix(1.1118924 0 0 .902693 69.217769 96.427716)" gradientUnits="userSpaceOnUse" x1="74.253548" x2="68.581123" xlink:href="#linearGradient4594" y1="99.699013" y2="73.623146"/>
    <radialGradient id="radialGradient5081" cx="63.875" cy="75.40625" fx="54.309761" fy="61.084599" gradientTransform="matrix(.8904915 0 0 .7700206 6.994853 17.341886)" gradientUnits="userSpaceOnUse" r="22.40625" xlink:href="#linearGradient4888"/>
    <linearGradient id="linearGradient5083" gradientUnits="userSpaceOnUse" x1="56.956867" x2="56.01646" xlink:href="#linearGradient4594" y1="52.549522" y2="36.91853"/>
    <radialGradient id="radialGradient5085" cx="48.328594" cy="30.129541" fx="44.687454" fy="27.091513" gradientTransform="matrix(.8330289 .00000024 -.00000016 .5324811 8.271696 12.064)" gradientUnits="userSpaceOnUse" r="12.110585" xlink:href="#linearGradient4888"/>
    <linearGradient id="linearGradient5087" gradientUnits="userSpaceOnUse" x1="65.226837" x2="65.226837" xlink:href="#linearGradient4594" y1="91.697159" y2="82.64978"/>
    <radialGradient id="radialGradient5089" cx="47.380135" cy="41.5005" gradientTransform="matrix(2.3775392 0 0 4.4326753 -65.267992 -149.30164)" gradientUnits="userSpaceOnUse" r="6.027795">
      <stop offset="0" stop-color="#151515"/>
      <stop offset="1" stop-color="#151515" stop-opacity="0"/>
    </radialGradient>
    <linearGradient id="linearGradient5091" gradientUnits="userSpaceOnUse" x1="65.226837" x2="65.226837" xlink:href="#linearGradient4594" y1="105.63309" y2="76.184807"/>
    <linearGradient id="linearGradient5101" gradientUnits="userSpaceOnUse" x1="46.64702310661" x2="46.64702310661" xlink:href="#linearGradient4622" y1="98.04247010397" y2="90.92805697027"/>
    <linearGradient id="linearGradient5103" gradientUnits="userSpaceOnUse" x1="69.227135" x2="69.227135" xlink:href="#linearGradient4594" y1="106.27036" y2="88.815453"/>
    <linearGradient id="linearGradient5105" gradientUnits="userSpaceOnUse" x1="35.695892" x2="38.513222" xlink:href="#linearGradient4888" y1="29.725121" y2="40.239544"/>
    <linearGradient id="linearGradient5112" gradientUnits="userSpaceOnUse" x1="60.08473928944" x2="56.43639275796" xlink:href="#linearGradient4622" y1="102.56027433112" y2="98.24859565148"/>
    <radialGradient id="radialGradient5131" cx="67.923401" cy="51.933399" gradientTransform="matrix(2.77035 .742313 -1.801664 6.7239008 61.134969 -330.45363)" gradientUnits="userSpaceOnUse" r="14.837876" xlink:href="#linearGradient4888"/>
    <radialGradient id="radialGradient5137" cx="48.940968" cy="70.109375" gradientTransform="matrix(3.727268 0 0 6.3519972 -80.103523 -307.78866)" gradientUnits="userSpaceOnUse" r="5.981466" xlink:href="#linearGradient4888"/>
    <linearGradient id="linearGradient5144" gradientUnits="userSpaceOnUse" x1="78.92805648673" x2="76.18749026075" xlink:href="#linearGradient4622" y1="57.65506154135" y2="49.21218023991"/>
    <radialGradient id="radialGradient5147" cx="64" cy="96.046875" gradientTransform="matrix(1.3458928 0 0 2.5611264 55.605851 -50.843855)" gradientUnits="userSpaceOnUse" r="32.0625" xlink:href="#linearGradient4888"/>
    <radialGradient id="radialGradient5151" cx="55.968952" cy="65.037224" fx="65.374695" fy="79.148933" gradientTransform="matrix(2.9123984 .0664812 -.07130162 3.1235704 -34.409203 -80.326785)" gradientUnits="userSpaceOnUse" r="33.259628">
      <stop offset="0"/>
      <stop offset="1" stop-color="#393939" stop-opacity=".508571"/>
    </radialGradient>
  </defs>
  <g transform="matrix(2.3195946 0 0 2.3195946 -18.309037 -27.645476)">
    <g opacity=".8">
      <path d="m46.322584 26.329772c1.926407-3.374505 1.216487-4.470218.433295-9.628663 3.261445 2.797885 5.101866 4.92566 6.274604 8.36368-1.292312 1.780575-4.000105 2.508436-6.707899 1.264983z" fill="url(#linearGradient5035)" fill-rule="evenodd"/>
      <path d="m46.84375 16.78125c-.01631.07273-.0155.116345-.03125.1875.761549 4.87256 1.38394 6.074886-.5 9.375 1.004153.46112 2.005534.627977 2.9375.59375.01046-.000384.02081.000441.03125 0 .131766-.0658.251086-.13946.375-.21875.15886-3.526723-.725933-6.153442-2.625-9.78125-.0625-.0543-.123908-.101463-.1875-.15625z" fill="url(#linearGradient5037)" fill-rule="evenodd"/>
    </g>
    <path d="m46.75 16.6875c.01727.11372.04533.171411.0625.28125.177512 1.135761.335085 2.134319.46875 2.9375.0058.03563.02562.08985.03125.125.06354.387506.115058.757412.15625 1.09375.04061.331573.08181.638463.09375.9375.0016.03952-.001.08588 0 .125.000381.02005-.000231.04254 0 .0625.0055.311977-.02629.607138-.0625.90625-.0025.02039.0027.04212 0 .0625-.01356.10319-.04325.209056-.0625.3125-.03973.212646-.09112.406554-.15625.625-.09475.317705-.186293.650261-.34375 1-.165091.369686-.380913.75993-.625 1.1875.273189.125452.541064.228732.8125.3125.19544.06251.400328.08194.59375.125.180848.03775.353093.07225.53125.09375.03161.0043.06224.02746.09375.03125.305399.03207.612552.04204.90625.03125.01046-.000384.02081.000441.03125 0 1.567963-.06616 2.942305-.762141 3.75-1.875-1.137134-3.333642-2.920564-5.449743-6-8.125-.0625-.0543-.123908-.101463-.1875-.15625-.03451-.02973-.05892-.06387-.09375-.09375z" style="opacity:.8;fill:none;stroke-width:1.72444;clip-path:url(#clipPath3957);stroke:url(#radialGradient5039);filter:url(#filter4065)"/>
    <ellipse cx="50" cy="25.875" filter="url(#filter4215)" opacity=".579208" rx="3.5" ry="1.125" transform="matrix(1.1464436 -.1287397 .107523 1.3726629 -10.457888 -3.117279)"/>
  </g>
  <ellipse cx="65.226837" cy="85.162941" filter="url(#filter3462)" rx="47.028755" ry="20.958466" transform="matrix(1.5900242 0 0 1.6347842 38.030749 64.324094)"/>
  <ellipse cx="141.743" cy="196.77159" fill="url(#linearGradient5045)" rx="74.394196" ry="39.116295"/>
  <ellipse cx="141.743" cy="185.23981" fill="url(#radialGradient5047)" rx="67.106087" ry="32.119938"/>
  <ellipse cx="65.226837" cy="85.162941" fill="#fff" filter="url(#filter3727)" opacity=".564356" rx="47.028755" ry="20.958466" transform="matrix(1.426916 0 0 1.532552 48.669779 54.723172)"/>
  <ellipse cx="141.743" cy="181.72346" fill="url(#linearGradient5049)" rx="60.477692" ry="27.373592"/>
  <ellipse cx="141.743" cy="174.8631" fill="url(#radialGradient5051)" rx="54.051567" ry="20.541384"/>
  <ellipse cx="65.226837" cy="85.162941" fill="#fff" filter="url(#filter3814)" opacity=".747525" rx="47.028755" ry="20.958466" transform="matrix(1.1493302 0 0 .9800996 66.775821 91.394932)"/>
  <path d="m32.982265 38.489407c.849158-1.521413.07678-2.450421 1.328322-3.908726 1.450444-.980842 3.027601-.427116 3.992754-.86838-.70312 1.785138-.42627 2.734631-1.636495 4.087419-1.413666 1.269527-2.406056.747417-3.684581.689687z" fill-rule="evenodd" filter="url(#filter4410)" transform="matrix(2.3195946 0 0 2.3195946 -6.711063 -27.645476)"/>
  <path d="m118.03963 26.720022c-9.12049-.000002-15.09831.302082-33.779093 3.769342-18.286412 6.671182-21.005048 21.881272-25.008128 31.821938-6.039398 14.997364-5.079414 16.405256-16.164676 26.312902-4.143434 8.274988-2.823486 15.540356 2.247108 15.512286 8.154688.32577 5.96995 10.11042 17.831884 3.26193 9.589234-8.489338 19.926376-15.709126 29.28488-16.962034 6.151366-.823536 10.017765-2.43838 13.917565-11.090562 6.89786-3.847612 12.0663 24.337206 3.69686 32.474326-16.970039 24.48638-20.368943 34.29123-20.368943 58.56976 0 .28435.05444.59117.07248.86984-.205918.68172-.28995 1.32821-.28995 2.02965 0 4.76019 4.871914 9.06906 12.902743 12.39533.84331.34929 1.69844.76135 2.60955 1.08731 8.42017 3.29949 19.49176 5.08859 30.95209 5.36407.26529.006.53165-.005.79736 0 1.64166.0563 3.31946.0725 5.00162.0725 28.86459 0 52.26338-8.47588 52.26337-18.9192 0-.32635-.0273-.62002-.0725-.94233.45642-1.22697.72143-2.50369.79736-3.84183 2.50849-43.50353-18.82466-134.144636-76.6916-141.785216z" fill="url(#radialGradient5151)" fill-rule="evenodd"/>
  <path d="m33.077842 39.584984c.849158-1.521413.07678-2.450421 1.328322-3.908726 1.450444-.980842 3.027601-.427116 3.992754-.86838-.70312 1.785138-.42627 2.734631-1.636495 4.087419-1.413666 1.269527-2.406056.747417-3.684581.689687z" fill="#fff" fill-rule="evenodd" filter="url(#filter4726)" transform="matrix(2.3195946 0 0 2.3195946 -6.711063 -27.645476)"/>
  <path d="m141.74299 154.37021c-24.76095 0-46.028589 6.73151-55.380319 16.38213-11.78493 6.92174-18.991682 16.00874-18.991682 26.02296 0 21.5922 33.306411 39.14316 74.372001 39.14316 41.0656 0 74.37201-17.55096 74.37201-39.14316 0-10.01423-7.20676-19.10122-18.99168-26.02296-9.35174-9.65062-30.61938-16.38213-55.38033-16.38213z" fill="url(#radialGradient5147)" opacity=".722772"/>
  <path d="m70.016121 63.015842c1.969702-3.529062.1781-5.683984 3.081168-9.06666 3.364442-2.275156 7.022806-.990736 9.26157-2.01429-1.630952 4.140798-.988772 6.343236-3.796004 9.481156-3.279132 2.944788-5.581074 1.733704-8.546734 1.599794z" fill="url(#linearGradient5144)" fill-rule="evenodd"/>
  <path d="m53.78125 24.78125c-3.784159 0-6.249206.123908-14 1.5625-.82496.300959-1.568826.654028-2.25 1.03125 3.498478-.430843 5.856891-.53125 8.78125-.53125 22.065994 2.913529 34.384785 28.001258 39.3125 50.90625-.865351-19.273011-10.200399-50.111026-31.84375-52.96875z" fill="url(#radialGradient5059)" fill-rule="evenodd" filter="url(#filter3478)" opacity=".688119" transform="matrix(2.3195946 0 0 2.3195946 -6.711063 -27.645476)"/>
  <path d="m55.038394 52.075002c.221974 2.950574-.239421 6.126839-1.8125 7.65625-7.315949 10.556317-9.556254 16.19132-9.556254 26.658036 0 1.626066 3.242316 2.833165 4.962504 3.966964.0458-8.957387.611847-14.411414 7.34375-24.125 3.341009-3.248264 1.686938-13.914936-.9375-14.15625z" fill="url(#radialGradient5061)" fill-rule="evenodd" filter="url(#filter3587)" opacity=".608911" transform="matrix(2.3195946 0 0 2.3195946 -6.711063 -27.645476)"/>
  <path d="m53.162271 24.53021c-3.690306-.000001-6.109033.122227-13.667592 1.525139-7.39899 2.699273-8.498997 8.853531-10.11871 12.875693-2.443642 6.068186-2.055216 6.637843-6.5405 10.646643-1.515125 3.025906-1.204177 5.708782.381285 6.188545-.673619-1.101149-.545972-3.164096.586592-5.425976 4.485283-4.0088 4.096859-4.578459 6.5405-10.646643 1.619713-4.022161 2.719721-10.176419 10.11871-12.875693 7.558559-1.402912 9.977288-1.495809 13.667592-1.495809 4.303203.568182 8.102109 2.270766 11.438542 4.780724-3.562654-2.925301-7.682444-4.948883-12.406419-5.572623zm-27.012558 32.467863c.35711.348799.702533.687222 1.114525.909217-.329317-.325419-.659408-.658285-1.114525-.909217z" fill="url(#linearGradient5063)" fill-rule="evenodd" filter="url(#filter3628)" opacity=".658416" transform="matrix(2.3195946 0 0 2.3195946 -6.711063 -27.645476)"/>
  <ellipse cx="141.743" cy="173.30371" fill="url(#linearGradient5065)" opacity=".613861" rx="52.290916" ry="18.91906"/>
  <path d="m117.16978 99.56979c.44062 5.85691-.50179 12.11396-3.62436 15.14985-5.19373 7.49412-9.08659 13.76334-11.96041 19.64407 2.49278 2.43742 5.73355 4.55036 9.49584 6.37888 1.98591-4.00424 4.5604-8.29982 7.90112-13.1202 6.63192-6.44782 3.39734-27.57359-1.81219-28.0526zm-18.556751 41.7527c-2.909496 7.99117-4.05929 15.95248-4.05929 26.3129 0 3.22775 6.443691 5.65052 9.858271 7.90112.0538-10.53141.5173-18.61869 3.62437-27.4727-3.76649-1.91173-6.99678-4.21136-9.423351-6.74132z" fill="url(#radialGradient5137)" fill-rule="evenodd" opacity=".608911"/>
  <path d="m54.0625 24.0625c-3.898127-.000001-6.453276.111832-14.4375 1.59375-7.815669 2.851284-8.976571 9.345078-10.6875 13.59375-2.581258 6.409921-2.168375 7.015441-6.90625 11.25-1.728597 3.452239-1.227705 6.492781.8125 6.625-.711892-1.135264-.585606-3.300918.59375-5.65625 4.635046-4.142654 4.224765-4.729197 6.75-11 1.673796-4.15646 2.822711-10.523099 10.46875-13.3125 7.810937-1.449755 10.311476-1.562501 14.125-1.5625 21.927375 2.895225 31.308092 34.287154 32.09375 53.6875-.703317-19.800615-10.265954-52.241771-32.8125-55.21875zm-2.90625 23.625c1.631601 2.95691 2.138131 10.185102-.5 12.75-7.253045 10.465553-8.71875 14.654527-8.71875 25.03125.000001.121531.02354.224644.03125.34375-.08801.291366-.09375.575203-.09375.875-.000001 2.03452 2.067598 3.890841 5.5 5.3125.360433.149283.735591.329431 1.125.46875 3.598806 1.410211 8.320571 2.163511 13.21875 2.28125.113386.0027.230187-.002.34375 0-4.71463-.132233-9.282353-.891184-12.75-2.25-.380958-.136295-.741141-.291457-1.09375-.4375-3.357906-1.390804-5.375001-3.197137-5.375-5.1875 0-.29329.0389-.558703.125-.84375-.0075-.116521-.03125-.256105-.03125-.375 0-10.15151 1.404372-14.261586 8.5-24.5 2.968669-2.886261 1.882975-11.811645-.28125-13.46875zm-25.90625 10.40625c.653491.587992 1.167384 1.266084 2.03125 1.4375-.557049-.523502-1.093906-1.154863-2.03125-1.4375z" fill="url(#linearGradient5069)" fill-rule="evenodd" filter="url(#filter3739)" opacity=".5" transform="matrix(2.3195946 0 0 2.3195946 -6.711063 -27.645476)"/>
  <path d="m42.034744 39.045527c-4.796933 0-8.718748 3.025321-8.71875 6.75 0 1.629546.759981 3.145969 2 4.3125-.614804-.925339-.96875-1.981418-.96875-3.09375.000001-3.724679 3.890567-6.71875 8.6875-6.71875 2.698274 0 5.12444.937674 6.71875 2.4375-1.438784-2.185079-4.343087-3.6875-7.71875-3.6875z" fill="url(#linearGradient5071)" filter="url(#filter3852)" opacity=".242574" transform="matrix(2.0088278 -1.159797 1.159797 2.0088278 -50.116993 34.794706)"/>
  <path clip-path="url(#clipPath3878)" d="m53.78125 23.4375c-3.931935-.000001-6.509032.13023-14.5625 1.625-7.883452 2.876012-9.055483 9.433231-10.78125 13.71875-2.603643 6.465511-2.189785 7.072467-6.96875 11.34375-1.786275 3.567429-1.217233 6.6996.96875 6.6875 3.515566.140443 2.573704 4.358701 7.6875 1.40625 4.134013-3.659838 8.590457-6.772359 12.625-7.3125 2.651914-.355035 4.318758-1.05121 6-4.78125 2.973734-1.658744 5.201901 10.49201 1.59375 14-7.315949 10.556317-8.78125 14.783284-8.78125 25.25 0 .122588.02347.254861.03125.375-.08877.293894-.125.572603-.125.875 0 2.052166 2.10033 3.909761 5.5625 5.34375.363558.150581.732214.328223 1.125.46875 3.630018 1.422439 8.403091 2.19374 13.34375 2.3125.114371.0027.229202-.0021.34375 0 .707738.02426 1.431052.03125 2.15625.03125 12.443805 0 22.531254-3.654032 22.53125-8.15625 0-.140694-.01176-.267298-.03125-.40625.196768-.528959.311013-1.079363.34375-1.65625 1.081434-18.754801-8.115496-57.831071-33.0625-61.125z" fill="none" filter="url(#filter3954)" stroke="url(#linearGradient5073)" stroke-width="4.3111" transform="matrix(2.3195946 0 0 2.3195946 -6.711063 -27.645476)"/>
  <path d="m123.69364 30.344388c13.63932 7.87466 25.24133 24.02954 32.03941 40.955344 6.61193.77023 12.56284 2.341616 17.25198 4.639188-11.08664-22.224078-27.22554-40.32935-49.29139-45.594532zm36.0987 53.133214c3.17984 8.743508-5.93086 20.313408 4.71167 26.457878 13.70144 7.85826 23.85899 21.14487 27.4727 36.96854-1.42661-17.8634-5.72055-38.99351-13.41015-58.424792-5.01933-2.545452-11.49682-4.274192-18.77422-5.001626z" fill="url(#radialGradient5131)" fill-rule="evenodd" opacity=".585859"/>
  <path clip-path="url(#clipPath3878)" d="m53.78125 23.4375c-3.931935-.000001-6.509032.13023-14.5625 1.625-7.883452 2.876012-9.055483 9.433231-10.78125 13.71875-2.603643 6.465511-2.189785 7.072467-6.96875 11.34375-1.786275 3.567429-1.217233 6.6996.96875 6.6875 3.515566.140443 2.573704 4.358701 7.6875 1.40625 4.134013-3.659838 8.590457-6.772359 12.625-7.3125 2.651914-.355035 4.318758-1.05121 6-4.78125 2.973734-1.658744 5.201901 10.49201 1.59375 14-7.315949 10.556317-8.78125 14.783284-8.78125 25.25 0 .122588.02347.254861.03125.375-.08877.293894-.125.572603-.125.875 0 2.052166 2.10033 3.909761 5.5625 5.34375.363558.150581.732214.328223 1.125.46875 3.630018 1.422439 8.403091 2.19374 13.34375 2.3125.114371.0027.229202-.0021.34375 0 .707738.02426 1.431052.03125 2.15625.03125 12.443805 0 22.531254-3.654032 22.53125-8.15625 0-.140694-.01176-.267298-.03125-.40625.196768-.528959.311013-1.079363.34375-1.65625 1.081434-18.754801-8.115496-57.831071-33.0625-61.125z" fill="none" filter="url(#filter3954)" stroke="url(#linearGradient5073)" stroke-width="4.3111" transform="matrix(2.3195946 0 0 2.3195946 -6.711063 -27.645476)"/>
  <ellipse cx="141.743" cy="173.30371" fill="url(#linearGradient5079)" rx="52.290916" ry="18.91906"/>
  <path d="m61.78791 58.152977c-3.168702 0-6.181365.658407-8.904915 1.864466-.260296.704619-.597174 1.333477-1.057459 1.780983-6.51479 9.400311-7.819628 13.164389-7.819628 22.484911 0 .109164.0209.226952.02783.333935-.07905.26171-.111312.509898-.111312.77918 0 1.827436 1.870326 3.481609 4.953359 4.758564.323746.134091.652031.29228 1.001803.417418 3.232501 1.26667 7.482882 1.953507 11.882497 2.059262.101846.0024.204102-.0018.306106 0 .630235.02161 1.27434.02783 1.920122.02783 8.124675 0 15.100004-1.744025 18.255077-4.257662 1.021948-2.539058 1.586188-5.305866 1.586188-8.209219 0-12.161577-9.878089-22.039666-22.039666-22.039665z" fill="url(#radialGradient5081)" filter="url(#filter3280)" opacity=".559406" transform="matrix(2.3195946 0 0 2.3195946 -6.711063 -27.645476)"/>
  <path d="m48.460064 37.41853c7.41733 3.788673 11.450473 9.985094 10.632588 17.175719" fill="none" filter="url(#filter3338)" opacity=".565657" stroke="url(#linearGradient5083)" stroke-width=".86222" transform="matrix(2.3195946 0 0 2.3195946 -6.711063 -27.645476)"/>
  <path d="m38.420221 29.118483c6.201159-2.696156 12.941549-2.696156 20.22117 0" style="fill:none;stroke-width:3.44888;stroke-linecap:round;stroke-linejoin:round;stroke:url(#radialGradient5085);filter:url(#filter3389)" transform="matrix(2.3141308 -.15911534 .15911534 2.3141308 -10.918224 -19.769906)"/>
  <ellipse cx="65.226837" cy="85.162941" rx="47.028755" ry="20.958466" style="fill:none;stroke-width:2.32795;stroke-linecap:round;stroke-linejoin:round;clip-path:url(#clipPath3478);stroke:url(#linearGradient5087);filter:url(#filter3556)" transform="matrix(1.5818874 0 0 1.866372 38.561483 37.825856)"/>
  <path d="m56.03125 38.1875c-1.023004.04601-2.087819.309871-3.0625.84375-2.647242.992569-4.801431 2.465009-4.25 6.65625l.03125.4375c2.19688-1.225416 3.981987 5.079427 3.3125 9.875 2.290463-5.584417 4.656449-11.014481 8.1875-14.53125 1.514755-1.664581-1.149738-3.419274-4.21875-3.28125zm-5.625 21.875c-.02102.02144-.04107.04167-.0625.0625-.07859.113403-.141502.200543-.21875.3125l.03125.21875c.08307-.196814.16744-.396083.25-.59375z" fill="url(#radialGradient5089)" fill-rule="evenodd" filter="url(#filter3673)" transform="matrix(2.3195946 0 0 2.3195946 -6.711063 -27.645476)"/>
  <ellipse cx="65.226837" cy="85.162941" rx="47.028755" ry="20.958466" style="fill:none;stroke-width:3.08644;stroke-linecap:round;stroke-linejoin:round;clip-path:url(#clipPath3738);stroke:url(#linearGradient5091);filter:url(#filter3768)" transform="matrix(1.2859726 0 0 1.3060876 57.863063 70.493206)"/>
  <g transform="matrix(2.3195946 0 0 2.3195946 -6.711063 -27.645476)">
    <g opacity=".8">
      <path d="m46.322584 26.329772c1.926407-3.374505 1.216487-4.470218.433295-9.628663 3.261445 2.797885 5.101866 4.92566 6.274604 8.36368-1.292312 1.780575-4.000105 2.508436-6.707899 1.264983z" fill="url(#linearGradient5035)" fill-rule="evenodd"/>
      <path d="m46.84375 16.78125c-.01631.07273-.0155.116345-.03125.1875.761549 4.87256 1.38394 6.074886-.5 9.375 1.004153.46112 2.005534.627977 2.9375.59375.01046-.000384.02081.000441.03125 0 .131766-.0658.251086-.13946.375-.21875.15886-3.526723-.725933-6.153442-2.625-9.78125-.0625-.0543-.123908-.101463-.1875-.15625z" fill="url(#linearGradient5037)" fill-rule="evenodd"/>
    </g>
    <path d="m46.75 16.6875c.01727.11372.04533.171411.0625.28125.177512 1.135761.335085 2.134319.46875 2.9375.0058.03563.02562.08985.03125.125.06354.387506.115058.757412.15625 1.09375.04061.331573.08181.638463.09375.9375.0016.03952-.001.08588 0 .125.000381.02005-.000231.04254 0 .0625.0055.311977-.02629.607138-.0625.90625-.0025.02039.0027.04212 0 .0625-.01356.10319-.04325.209056-.0625.3125-.03973.212646-.09112.406554-.15625.625-.09475.317705-.186293.650261-.34375 1-.165091.369686-.380913.75993-.625 1.1875.273189.125452.541064.228732.8125.3125.19544.06251.400328.08194.59375.125.180848.03775.353093.07225.53125.09375.03161.0043.06224.02746.09375.03125.305399.03207.612552.04204.90625.03125.01046-.000384.02081.000441.03125 0 1.567963-.06616 2.942305-.762141 3.75-1.875-1.137134-3.333642-2.920564-5.449743-6-8.125-.0625-.0543-.123908-.101463-.1875-.15625-.03451-.02973-.05892-.06387-.09375-.09375z" style="opacity:.8;fill:none;stroke-width:1.72444;clip-path:url(#clipPath3957);filter:url(#filter4065);stroke:url(#radialGradient5039)"/>
    <ellipse cx="50" cy="25.875" filter="url(#filter4215)" opacity=".579208" rx="3.5" ry="1.125" transform="matrix(1.1464436 -.1287397 .107523 1.3726629 -10.457888 -3.117279)"/>
  </g>
  <path d="m23.463259 56.445687s3.288339-1.317492 4.259585-2.953275 1.073482.511182 1.073482.511182c-.903454 3.118211-4.777722 3.238019-2.981629 4.384585z" fill-rule="evenodd" filter="url(#filter4510)" opacity=".544554" transform="matrix(2.1021218 0 0 2.1021218 -.448644 -16.145995)"/>
  <path d="m23.968788 57.147899s3.288339-1.317492 4.259585-2.953275 1.073482.511182 1.073482.511182c-.903454 3.118211-4.777722 3.238019-2.981629 4.384585z" fill="#fff" fill-rule="evenodd" filter="url(#filter4882)" opacity=".806931" transform="matrix(2.1436924 0 0 2.1436924 -2.4949 -17.251346)"/>
  <path d="m47.714185 104.44543s7.627614-3.05605 9.880512-6.850398c2.252896-3.794354 2.490042 1.185734 2.490042 1.185734-2.095646 7.232984-11.082378 7.510894-6.91617 10.170464z" fill="url(#linearGradient5112)" fill-rule="evenodd"/>
  <circle cx="18.709265" cy="45.495209" fill="#fff" filter="url(#filter4842)" r=".920128" transform="matrix(3.865991 0 0 3.6111084 -25.682827 -68.877595)"/>
  <circle cx="46.647022" cy="94.48526" fill="url(#linearGradient5101)" r="3.557206"/>
  <ellipse cx="65.226837" cy="85.162941" rx="47.028755" ry="20.958466" style="opacity:.752475;fill:none;stroke-width:13.3812;stroke-linecap:round;stroke-linejoin:round;clip-path:url(#clipPath4590);stroke:url(#linearGradient5103);filter:url(#filter4618)" transform="matrix(1.1240176 0 0 1.271962 68.426885 57.410772)"/>
  <path d="m27.703002 45.093207c3.023718-9.982829 6.749985-15.493759 10.515007-17.390205" fill="none" filter="url(#filter4980)" stroke="url(#linearGradient5105)" stroke-width=".86222" transform="matrix(2.3195946 0 0 2.3195946 -6.711063 -27.645476)"/>
</svg>
