<svg height="256" width="256" xmlns="http://www.w3.org/2000/svg" xmlns:xlink="http://www.w3.org/1999/xlink">
  <defs>
    <linearGradient id="linearGradient36-1" gradientTransform="matrix(-1.9787261 0 0 1.9787261 186.02975 1.370991)" gradientUnits="userSpaceOnUse" x1="71.626404" x2="46.225941" y1="123.73875" y2="28.942928">
      <stop offset="0" stop-color="#fcca1e"/>
      <stop offset=".34981078" stop-color="#f0a547" stop-opacity=".744593"/>
      <stop offset="1" stop-color="#935602" stop-opacity="0"/>
    </linearGradient>
    <linearGradient id="linearGradient36-3" gradientTransform="matrix(-1.9787261 0 0 1.9787261 186.02975 1.370991)" gradientUnits="userSpaceOnUse" x1="71.626404" x2="46.225941" y1="123.73875" y2="28.942928">
      <stop offset="0" stop-color="#e14899"/>
      <stop offset=".34981078" stop-color="#c32d71" stop-opacity=".886097"/>
      <stop offset="1" stop-color="#5d2253" stop-opacity="0"/>
    </linearGradient>
    <linearGradient id="linearGradient3327">
      <stop offset="0" stop-color="#fff"/>
      <stop offset="1" stop-color="#fff" stop-opacity="0"/>
    </linearGradient>
    <filter id="filter3467-3" height="1.027541" width="1.030774" x="-.015387" y="-.013775">
      <feGaussianBlur stdDeviation=".4349886"/>
    </filter>
    <radialGradient id="radialGradient3312-9" cx="65.641258" cy="93.269798" fx="65.937073" fy="100.08636" gradientTransform="matrix(-3.040107 .15883489 .11845863 2.2673026 256.92686 -28.857949)" gradientUnits="userSpaceOnUse" r="50">
      <stop offset="0" stop-color="#0d0"/>
      <stop offset="1" stop-color="#000e00"/>
    </radialGradient>
    <linearGradient id="linearGradient3314-7" gradientUnits="userSpaceOnUse" x1="115.785248" x2="115.992706" y1="104.41399" y2="36.201046">
      <stop offset="0" stop-color="#e0ffe0"/>
      <stop offset="1" stop-color="#f7aa57" stop-opacity="0"/>
    </linearGradient>
    <filter id="filter3435-3" height="1.026437" width="1.028753" x="-.01578" y="-.013219">
      <feGaussianBlur stdDeviation=".395"/>
    </filter>
    <radialGradient id="radialGradient4088-0" cx="71.775223" cy="16.0865" gradientTransform="matrix(.9650814 .2619502 -.9201984 3.3902106 41.653102 -69.822254)" gradientUnits="userSpaceOnUse" r="3.15625" xlink:href="#linearGradient3327"/>
    <filter id="filter3681-6" height="1.157943" width="1.244782" x="-.122391" y="-.078971">
      <feGaussianBlur stdDeviation=".321914"/>
    </filter>
    <radialGradient id="radialGradient4035-6" cx="71.775223" cy="16.0865" gradientTransform="matrix(.9650814 .2619502 -.9201984 3.3902106 17.309062 -57.693239)" gradientUnits="userSpaceOnUse" r="3.15625">
      <stop offset="0" stop-color="#f0ff80"/>
      <stop offset="1" stop-color="#f0ff80" stop-opacity="0"/>
    </radialGradient>
    <radialGradient id="radialGradient4037-7" cx="11.578125" cy="64.53125" gradientTransform="matrix(6.5079869 0 0 1.510917 -63.772161 -32.970115)" gradientUnits="userSpaceOnUse" r="3.578125" xlink:href="#linearGradient3327"/>
    <filter id="filter3722-9" height="1.598266" width="1.90393" x="-.451965" y="-.299133">
      <feGaussianBlur stdDeviation="1.3476562"/>
    </filter>
    <linearGradient id="linearGradient3316-0" gradientTransform="matrix(-1.9787261 0 0 1.9787261 209.77446 1.370991)" gradientUnits="userSpaceOnUse" x1="41.745525" x2="46.758774" y1="14.302548" y2="70.827744">
      <stop offset="0" stop-color="#abb6ff" stop-opacity=".748701"/>
      <stop offset=".31005141" stop-color="#afb8f4" stop-opacity=".25247"/>
      <stop offset="1" stop-color="#ffe743" stop-opacity="0"/>
    </linearGradient>
    <linearGradient id="linearGradient3344-7" gradientTransform="matrix(-1.9787261 0 0 1.9787261 209.77446 1.370991)" gradientUnits="userSpaceOnUse" x1="56" x2="34.345421" xlink:href="#linearGradient3327" y1="67.238144" y2="40.171875"/>
    <linearGradient id="linearGradient3356-5" gradientTransform="matrix(-1.9787261 0 0 1.9787261 209.77446 1.370991)" gradientUnits="userSpaceOnUse" x1="42.548481" x2="46.758774" xlink:href="#linearGradient3327" y1="13.921767" y2="70.827744"/>
    <radialGradient id="radialGradient6964" cx="97.045456" cy="103.81818" gradientTransform="matrix(2.4444446 .00000007 -.00000004 2.2222219 -137.22224 -140.70705)" gradientUnits="userSpaceOnUse" r="67.5">
      <stop offset="0" stop-color="#69ff70"/>
      <stop offset=".35530001" stop-color="#1cec1d"/>
      <stop offset=".61940002" stop-color="#1bc511"/>
      <stop offset=".75739998" stop-color="#12a50e"/>
      <stop offset="1" stop-color="#105e0b"/>
    </radialGradient>
    <linearGradient id="linearGradient27056" gradientUnits="userSpaceOnUse" x1="170" x2="95" y1="230" y2="30">
      <stop offset="0" stop-color="#10204b"/>
      <stop offset="1" stop-color="#000716"/>
    </linearGradient>
    <linearGradient id="linearGradient34665" gradientUnits="userSpaceOnUse" x1="125" x2="155" xlink:href="#linearGradient34663" y1="15" y2="130"/>
    <linearGradient id="linearGradient34663">
      <stop offset="0" stop-color="#709cee"/>
      <stop offset="1" stop-color="#2065e4"/>
    </linearGradient>
    <linearGradient id="linearGradient37778" gradientUnits="userSpaceOnUse" x1="166.76225" x2="59.098328" xlink:href="#linearGradient37772" y1="135.19159" y2="106.73605"/>
    <linearGradient id="linearGradient37772">
      <stop offset="0" stop-color="#fff" stop-opacity=".63707"/>
      <stop offset="1" stop-color="#fff" stop-opacity=".314509"/>
    </linearGradient>
    <linearGradient id="linearGradient37793" gradientUnits="userSpaceOnUse" x1="125.72814" x2="155.72813" xlink:href="#linearGradient34663" y1="16.69899" y2="131.69899"/>
    <linearGradient id="linearGradient37795" gradientUnits="userSpaceOnUse" x1="167.40518" x2="59.741264" xlink:href="#linearGradient37772" y1="35.46373" y2="7.00818"/>
    <linearGradient id="linearGradient37797" gradientUnits="userSpaceOnUse" x1="167.40518" x2="59.741264" xlink:href="#linearGradient37772" y1="136.47743" y2="108.02189"/>
    <radialGradient id="radialGradient38102" cx="125.09215" cy="68.573227" gradientTransform="matrix(2.7428569 -.00000041 .00000004 1.5428571 -223.10986 -55.798641)" gradientUnits="userSpaceOnUse" r="87.5">
      <stop offset="0" stop-color="#fff" stop-opacity=".297053"/>
      <stop offset=".5358004" stop-color="#fff" stop-opacity=".195329"/>
      <stop offset=".61120349" stop-color="#fff" stop-opacity=".151031"/>
      <stop offset=".63634479" stop-color="#fff" stop-opacity=".400496"/>
      <stop offset=".64936221" stop-color="#fff" stop-opacity="0"/>
      <stop offset="1" stop-color="#fff" stop-opacity="0"/>
    </radialGradient>
    <radialGradient id="radialGradient24" cx="123.90038" cy="206.28091" gradientTransform="matrix(1.2437242 -.02479577 .02027217 1.016826 -34.434498 8.206337)" gradientUnits="userSpaceOnUse" r="99.276688">
      <stop offset="0" stop-color="#0f0"/>
      <stop offset="1" stop-color="#004d00"/>
    </radialGradient>
    <radialGradient id="radialGradient35" cx="190.59453" cy="124.9015" gradientTransform="matrix(1.3752233 -.00786174 .00702797 1.2293739 -57.84329 -21.568746)" gradientUnits="userSpaceOnUse" r="99.276688" xlink:href="#linearGradient36-1"/>
    <radialGradient id="radialGradient44" cx="61.165039" cy="82.619499" gradientTransform="matrix(1.2001572 .01159626 -.01695222 1.7544748 -44.355856 -68.551753)" gradientUnits="userSpaceOnUse" r="99.276688">
      <stop offset="0" stop-color="#446dd5"/>
      <stop offset=".34981078" stop-color="#274bac"/>
      <stop offset="1" stop-color="#121c45" stop-opacity="0"/>
    </radialGradient>
    <radialGradient id="radialGradient47" cx="155.11081" cy="70.281593" gradientTransform="matrix(1.2000686 .01863262 -.01695222 1.0918395 -44.35065 -6.238617)" gradientUnits="userSpaceOnUse" r="99.276688" xlink:href="#linearGradient36-3"/>
    <radialGradient id="radialGradient52" cx="9.365166" cy="55.510857" gradientTransform="matrix(.79845453 .00266148 -.0025965 .77896113 2.031641 12.199929)" gradientUnits="userSpaceOnUse" r="51.715996">
      <stop offset="0" stop-color="#adadad"/>
      <stop offset="1"/>
    </radialGradient>
    <radialGradient id="radialGradient53" cx="19.194483" cy="68.607269" fx="19.490295" fy="75.423843" gradientTransform="matrix(-2.7709529 1.2748834 .67092626 1.4582547 190.55031 2.696235)" gradientUnits="userSpaceOnUse" r="50" xlink:href="#linearGradient36-1"/>
    <radialGradient id="radialGradient54" cx="41.626728" cy="53.44162" fx="41.922539" fy="60.258179" gradientTransform="matrix(-1.8532294 -.00403735 -.00373743 1.7155665 200.61695 -5.55122)" gradientUnits="userSpaceOnUse" r="50" xlink:href="#linearGradient36-3"/>
    <radialGradient id="radialGradient55" cx="65.658699" cy="43.541328" fx="65.954506" fy="50.357895" gradientTransform="matrix(-1.5914731 .00098359 .00140217 2.26875 152.45264 -47.628837)" gradientUnits="userSpaceOnUse" r="50">
      <stop offset="0" stop-color="#1552e0"/>
      <stop offset=".34981078" stop-color="#133ca2"/>
      <stop offset="1" stop-color="#121c45" stop-opacity="0"/>
    </radialGradient>
  </defs>
  <g>
    <path d="m96.219042-.1290156c-.865503.02693-1.698899.33398-2.375.875l-92.344042 52.0430056c-.949856.75913-1.5 1.90906-1.5 3.125s.550144 2.36587 1.5 3.125l92.344042 52.043c1.200963.96113 2.832437 1.13525 4.21875.46875 1.386317-.6665 2.281888-2.05554 2.281248-3.59375v-21.32425-61.4375-21.3242554c.00042-1.08285-.441371-2.1211802-1.218748-2.8750002s-1.823927-1.15873-2.90625-1.125z" filter="url(#filter3467-3)" opacity=".536946" stroke="url(#radialGradient52)" stroke-linejoin="round" transform="matrix(-1.9787261 0 0 1.9787261 225.60427 17.370991)"/>
    <g>
      <path d="m35.21314 17.115704c1.71259.05329 3.36166.660855 4.69947 1.731386l182.72357 102.97885c1.87951 1.50211 2.96809 3.77751 2.96809 6.18352s-1.08858 4.68141-2.96809 6.18352l-182.72357 102.97884c-2.37637 1.90182-5.60461 2.24635-8.34775.92753s-4.51523-4.06735-4.51396-7.11105v-205.957691c-.00083-2.142663.87335-4.197234 2.41157-5.688838 1.53821-1.491603 3.60905-2.292809 5.75067-2.226067z" fill="url(#radialGradient24)" fill-rule="evenodd"/>
      <path d="m35.21314 17.115704c1.71259.05329 3.36166.660855 4.69947 1.731386l182.72357 102.97885c1.87951 1.50211 2.96809 3.77751 2.96809 6.18352s-1.08858 4.68141-2.96809 6.18352l-182.72357 102.97884c-2.37637 1.90182-5.60461 2.24635-8.34775.92753s-4.51523-4.06735-4.51396-7.11105v-205.957691c-.00083-2.142663.87335-4.197234 2.41157-5.688838 1.53821-1.491603 3.60905-2.292809 5.75067-2.226067z" fill="url(#radialGradient44)" fill-rule="evenodd"/>
      <path d="m35.21314 17.115704c1.71259.05329 3.36166.660855 4.69947 1.731386l182.72357 102.97885c1.87951 1.50211 2.96809 3.77751 2.96809 6.18352s-1.08858 4.68141-2.96809 6.18352l-182.72357 102.97884c-2.37637 1.90182-5.60461 2.24635-8.34775.92753s-4.51523-4.06735-4.51396-7.11105v-205.957691c-.00083-2.142663.87335-4.197234 2.41157-5.688838 1.53821-1.491603 3.60905-2.292809 5.75067-2.226067z" fill="url(#radialGradient47)" fill-rule="evenodd"/>
      <path d="m35.21314 17.115704c1.71259.05329 3.36166.660855 4.69947 1.731386l182.72357 102.97885c1.87951 1.50211 2.96809 3.77751 2.96809 6.18352s-1.08858 4.68141-2.96809 6.18352l-182.72357 102.97884c-2.37637 1.90182-5.60461 2.24635-8.34775.92753s-4.51523-4.06735-4.51396-7.11105v-205.957691c-.00083-2.142663.87335-4.197234 2.41157-5.688838 1.53821-1.491603 3.60905-2.292809 5.75067-2.226067z" fill="url(#radialGradient35)" fill-rule="evenodd"/>
    </g>
    <g>
      <path d="m34.9658 25.030609 182.72357 102.978851-182.72357 102.97884z" fill="url(#radialGradient3312-9)" fill-rule="evenodd"/>
      <path d="m34.9658 25.030609 182.72357 102.978851-182.72357 102.97884z" fill="url(#radialGradient54)" fill-rule="evenodd"/>
      <path d="m34.9658 25.030609 182.72357 102.978851-182.72357 102.97884z" fill="url(#radialGradient53)" fill-rule="evenodd"/>
      <path d="m34.9658 25.030609 182.72357 102.978851-182.72357 102.97884z" fill="url(#radialGradient55)" fill-rule="evenodd"/>
    </g>
    <path d="m96.344042 3.8709846-92.344042 52.0430054 92.344042 52.043v-29.63675-44.8125z" fill="none" filter="url(#filter3435-3)" stroke="url(#linearGradient3314-7)" stroke-width=".5" transform="matrix(-1.9787261 0 0 1.9787261 225.60427 17.370991)"/>
    <path d="m96.21904-.1290156c-.799041.02487-1.572946.283948-2.21875.75l.96875 9.0312504 5.34375-6.1562502c-.0878-.946211-.499493-1.8328412-1.1875-2.5000002-.777377-.75382-1.823927-1.158727-2.90625-1.125z" fill="url(#radialGradient4088-0)" fill-rule="evenodd" filter="url(#filter3681-6)" opacity=".85" transform="matrix(-1.9787261 0 0 1.9787261 225.60427 17.370991)"/>
    <path d="m71.875 12c-.799041.02487-1.572946.283948-2.21875.75l.96875 9.03125 5.34375-6.15625c-.08779-.946211-.499493-1.832841-1.1875-2.5-.777377-.75382-1.823927-1.158727-2.90625-1.125z" fill="url(#radialGradient4035-6)" fill-rule="evenodd" filter="url(#filter3681-6)" opacity=".35" transform="matrix(-1.9787261 0 0 -1.9787261 177.43408 262.21122)"/>
    <path d="m11.6875 59.125-2.1875 1.75c-.9498559.759129-1.5 1.909063-1.5 3.125.0000001 1.215937.5501441 2.365871 1.5 3.125l3.53125 2.8125 2.125-5.625z" fill="url(#radialGradient4037-7)" fill-rule="evenodd" filter="url(#filter3722-9)" opacity=".5" transform="matrix(-1.9787261 0 0 -1.9787261 241.43408 255.76097)"/>
    <path d="m34.9658 25.030609 182.35255 102.669681c-15.93139.64318-32.30457.98936-48.91163.98936-23.85512 0-111.07842-.72881-133.44092-2.04056z" fill="url(#linearGradient3316-0)" fill-rule="evenodd"/>
    <path d="m34.9658 25.030609.68019.556517v57.653658 42.604446c22.23886 1.30071 109.28484 2.04056 133.00807 2.04056 16.17264 0 32.14252-.31498 47.67493-.92753l.98936.74203c-15.93139.64318-32.30457.98936-48.91163.98936-23.85512 0-111.07842-.72881-133.44092-2.04056v-42.975459z" fill="url(#linearGradient3344-7)" fill-rule="evenodd"/>
    <path d="m34.9658 25.030609 182.35255 102.669681-181.85787-100.87646v57.715493 42.109767c-.16284-.01-.33187.01-.49468 0v-42.975459z" fill="url(#linearGradient3356-5)" fill-rule="evenodd"/>
  </g>
  <g transform="matrix(.5 0 0 .5 18.506148 122.50024)">
    <path d="m60 20v220h135l-.00042-219.999608z" fill="url(#radialGradient6964)" opacity=".5" stroke-linejoin="round" stroke-opacity=".854902" stroke-width="14"/>
    <path d="m38.987705 16.999517v226.000003h178.000005v-226.000003zm21.011719 4h134.999996v104.000003h-134.999996zm-15 4h10v10.000001h-10zm154.999996 0h10v10.000001h-10zm-154.999996 20.000001h10v10h-10zm154.999996 0h10v10h-10zm-154.999996 19.999999h10v10h-10zm154.999996 0h10v10h-10zm-154.999996 20h10v10h-10zm154.999996 0h10v10h-10zm-154.999996 20.000003h10v10h-10zm154.999996 0h10v10h-10zm-154.999996 20h10v10h-10zm154.999996 0h10v10h-10zm-139.999996 10h134.999996v104h-134.999996zm-15 10h10v10h-10zm154.999996 0h10v10h-10zm-154.999996 20h10v10h-10zm154.999996 0h10v10h-10zm-154.999996 20h10v10h-10zm154.999996 0h10v8.57226 1.42774h-1.66601-8.33399zm-154.999996 20h10v10h-10zm154.999996 0h10v10h-10zm-154.999996 20h10v10h-10zm154.999996 0h10v10h-10z" fill="url(#linearGradient27056)"/>
    <g>
      <path d="m60 20v105h135v-104.999608z" fill="none" opacity=".952365" stroke="url(#linearGradient34665)" stroke-linejoin="round" stroke-width="2"/>
      <path d="m60.72814 123.35567h133.54372" fill="none" stroke="url(#linearGradient37778)" stroke-width="2"/>
    </g>
    <g transform="translate(-.72814 113.30101)">
      <rect fill="none" height="105" opacity=".952365" stroke="url(#linearGradient37793)" stroke-linejoin="round" stroke-width="2" width="135" x="60.728142" y="21.69899"/>
      <path d="m61.371076 23.627801h133.543704" fill="none" stroke="url(#linearGradient37795)" stroke-width="2"/>
      <path d="m61.371076 124.64151h133.543704" fill="none" stroke="url(#linearGradient37797)" stroke-width="2"/>
    </g>
    <path d="m39.999424 19.999517v220.000003h20 134.999996 20v-220.000003h-154.999996zm5 5h10v10.000001h-10zm154.999996 0h10v10.000001h-10zm-154.999996 20.000001h10v10h-10zm154.999996 0h10v10h-10zm-154.999996 19.999999h10v10h-10zm154.999996 0h10v10h-10zm-154.999996 20h10v10h-10zm154.999996 0h10v10h-10zm-154.999996 20.000003h10v10h-10zm154.999996 0h10v10h-10zm-154.999996 20h10v10h-10zm154.999996 0h10v10h-10zm-154.999996 20h10v10h-10zm154.999996 0h10v10h-10zm-154.999996 20h10v10h-10zm154.999996 0h10v10h-10zm-154.999996 20h10v10h-10zm154.999996 0h10v10h-10zm-154.999996 20h10v10h-10zm154.999996 0h10v10h-10zm-154.999996 20h10v10h-10zm154.999996 0h10v10h-10z" fill="url(#radialGradient38102)"/>
  </g>
</svg>
