<svg height="256" width="256" xmlns="http://www.w3.org/2000/svg" xmlns:xlink="http://www.w3.org/1999/xlink">
  <defs>
    <filter id="filter35003" height="1.101459" width="1.091796" x="-.045898" y="-.050729">
      <feGaussianBlur stdDeviation="3.2128514"/>
    </filter>
    <filter id="filter34993" height="1.025263" width="1.022857" x="-.011429" y="-.012632">
      <feGaussianBlur stdDeviation=".8"/>
    </filter>
    <radialGradient id="radialGradient4081" cx="184.72023" cy="-8.301034" gradientTransform="matrix(5.7462968 0 0 1.6760032 -933.4573 105.91256)" gradientUnits="userSpaceOnUse" r="72">
      <stop offset="0" stop-color="#fff"/>
      <stop offset="1" stop-color="#8be0c9"/>
    </radialGradient>
    <linearGradient id="linearGradient4085" gradientUnits="userSpaceOnUse" x1="80" x2="80" y1="220" y2="68">
      <stop offset="0" stop-color="#2c6f5d"/>
      <stop offset="1" stop-color="#99decc"/>
    </linearGradient>
    <clipPath id="clipPath3868">
      <path d="m72 68c-24.00356 0-24 24.000005-24 24.000005v71.999995c0 24 24 24 24 24h12l-15.85359 32 39.09505-32h84.75854c24 0 24-24 24-24v-71.999995c0-24.000005-24-24.000005-24-24.000005z"/>
    </clipPath>
    <filter id="filter3890" color-interpolation-filters="sRGB" height="1.031098" width="1.028809" x="-.014405" y="-.015921">
      <feGaussianBlur stdDeviation=".8"/>
    </filter>
    <linearGradient id="linearGradient4087" gradientUnits="userSpaceOnUse" x1="140" x2="140" xlink:href="#linearGradient3933" y1="200" y2="172"/>
    <linearGradient id="linearGradient3933">
      <stop offset="0" stop-color="#fff"/>
      <stop offset="1" stop-color="#fff" stop-opacity="0"/>
    </linearGradient>
    <filter id="filter3949" color-interpolation-filters="sRGB" height="1.207" width="1.043579" x="-.021789" y="-.1035">
      <feGaussianBlur stdDeviation="1.38"/>
    </filter>
    <radialGradient id="radialGradient4089" cx="130.09184" cy="64.28936" gradientTransform="matrix(-.909859 0 0 -.35781367 250.36524 95.003611)" gradientUnits="userSpaceOnUse" r="61.548" xlink:href="#linearGradient3933"/>
    <filter id="filter4007" color-interpolation-filters="sRGB" height="2.548" width="1.0258" x="-.0129" y="-.774">
      <feGaussianBlur stdDeviation=".645"/>
    </filter>
    <filter id="filter35029" height="1.324667" width="1.293746" x="-.146873" y="-.162334">
      <feGaussianBlur stdDeviation="10.281124"/>
    </filter>
    <filter id="filter35037" height="1.040583" width="1.036718" x="-.018359" y="-.020292">
      <feGaussianBlur stdDeviation="1.2851406"/>
    </filter>
    <filter id="filter3860" color-interpolation-filters="sRGB" height="1.037895" width="1.034286" x="-.017143" y="-.018947">
      <feGaussianBlur stdDeviation="1.2"/>
    </filter>
    <radialGradient id="radialGradient4152" cx="184.72023" cy="-8.301034" gradientTransform="matrix(5.746297 0 0 1.6760032 -948.62197 85.91256)" gradientUnits="userSpaceOnUse" r="72">
      <stop offset="0" stop-color="#fff"/>
      <stop offset="1" stop-color="#c3e08b"/>
    </radialGradient>
    <radialGradient id="radialGradient4183" cx="128" cy="118.24681" gradientTransform="matrix(-3.7627069 .00000013 -.00000005 -1.5493499 597.8552 254.20566)" gradientUnits="userSpaceOnUse" r="36.144192">
      <stop offset="0" stop-color="#61a025"/>
      <stop offset="1" stop-color="#aada7c"/>
    </radialGradient>
    <linearGradient id="linearGradient4109" gradientUnits="userSpaceOnUse" x1="80" x2="80" y1="220" y2="68">
      <stop offset="0" stop-color="#285100"/>
      <stop offset="1" stop-color="#e8ffca"/>
    </linearGradient>
    <linearGradient id="linearGradient4142" gradientUnits="userSpaceOnUse" x1="124.83531" x2="124.83531" xlink:href="#linearGradient3933" y1="180" y2="152"/>
    <radialGradient id="radialGradient4137" cx="130.09184" cy="64.28936" gradientTransform="matrix(-.909859 0 0 -.35781367 235.20055 75.003611)" gradientUnits="userSpaceOnUse" r="61.548" xlink:href="#linearGradient3933"/>
    <radialGradient id="radialGradient34897" cx="50.292969" cy="128.79176" gradientTransform="matrix(18.420117 .76923075 -.87573675 29.289411 -778.34002 -3702.1302)" gradientUnits="userSpaceOnUse" r="1.149049" xlink:href="#linearGradient3933"/>
    <radialGradient id="radialGradient34905" cx="50.292969" cy="128.79176" gradientTransform="matrix(10.047337 .76923075 -.4776746 29.289411 -277.81082 -3940.065)" gradientUnits="userSpaceOnUse" r="1.149049" xlink:href="#linearGradient3933"/>
    <radialGradient id="radialGradient34915" cx="440.25" cy="444" gradientTransform="matrix(.8364354 0 0 .7151203 -179.13396 -120.01343)" gradientUnits="userSpaceOnUse" r="32.75" xlink:href="#linearGradient3933"/>
  </defs>
  <g enable-background="new" transform="matrix(-1 0 0 1 277.12813 -4)">
    <path d="m72 69c-24.00356 0-24 24.000005-24 24.000005v71.999995c0 24 24 24 24 24h12l-15.85359 32 39.09505-32h84.75854c24 0 24-24 24-24v-71.999995c0-24.000005-24-24.000005-24-24.000005z" filter="url(#filter35003)" opacity=".191837"/>
    <path d="m72 68c-24.00356 0-24 24.000005-24 24.000005v71.999995c0 24 24 24 24 24h12l-15.85359 32 39.09505-32h84.75854c24 0 24-24 24-24v-71.999995c0-24.000005-24-24.000005-24-24.000005z" filter="url(#filter34993)" opacity=".771429"/>
    <path d="m72 68c-24.00356 0-24 24.000005-24 24.000005v71.999995c0 24 24 24 24 24h12l-15.85359 32 39.09505-32h84.75854c24 0 24-24 24-24v-71.999995c0-24.000005-24-24.000005-24-24.000005z" fill="url(#radialGradient4081)"/>
    <path clip-path="url(#clipPath3868)" d="m72 68c-24.00356 0-24 24.000005-24 24.000005v71.999995c0 24 24 24 24 24h12l-15.85359 32 39.09505-32h84.75854c24 0 24-24 24-24v-71.999995c0-24.000005-24-24.000005-24-24.000005z" fill="none" filter="url(#filter3890)" stroke="url(#linearGradient4085)" stroke-width=".5"/>
    <path d="m76 208 12-24h-20l-12-8h152l-12 8h-88z" fill="url(#linearGradient4087)" filter="url(#filter3949)"/>
    <path d="m71 69v2h120v-2z" fill="url(#radialGradient4089)" filter="url(#filter4007)"/>
  </g>
  <path d="m59.83572 52c-24.00356 0-24 24.000005-24 24.000005v71.999995c0 24 24 24 24 24h12l-15.85359 32 39.09505-32h84.75854c24 0 24-24 24-24v-71.999995c0-24.000005-24-24.000005-24-24.000005z" filter="url(#filter35029)" opacity=".208163"/>
  <path d="m59.83572 52c-24.00356 0-24 24.000005-24 24.000005v71.999995c0 24 24 24 24 24h12l-15.85359 32 39.09505-32h84.75854c24 0 24-24 24-24v-71.999995c0-24.000005-24-24.000005-24-24.000005z" filter="url(#filter35037)" opacity=".061225"/>
  <path d="m56.83531 48c-24.00356 0-24 24.000005-24 24.000005v71.999995c0 24 24 24 24 24h12l-15.85359 32 39.09505-32h84.75854c24 0 24-24 24-24v-71.999995c0-24.000005-24-24.000005-24-24.000005z" filter="url(#filter3860)" opacity=".5"/>
  <path d="m56.83531 48c-24.00356 0-24 24.000005-24 24.000005v71.999995c0 24 24 24 24 24h12l-15.85359 32 39.09505-32h84.75854c24 0 24-24 24-24v-71.999995c0-24.000005-24-24.000005-24-24.000005z" fill="url(#radialGradient4152)"/>
  <path d="m113.05115 140.75967h10.57408l-.09613-66.712827h-10.57408zm-37.778306-14.51532h59.310976v-10.2857h-59.310976zm11.246976 14.51532h10.57408l-.096128-66.712827h-10.57408zm-11.246976-41.815675h59.310976v-10.285697h-59.310976z" fill="#fff" opacity=".902041"/>
  <path d="m105.31817 71.000002-3.65287 18.360483h-14.899872l-2.210948 10.862485h14.89987l-2.49934 12.68891h-14.803734l-2.210948 10.86249h14.803742l-3.84513 19.22563h11.34312l3.84513-19.22563h12.9773l-3.84512 19.22563h11.34312l3.84513-19.22563h14.89987l2.21094-10.86249h-14.89986l2.49933-12.68891h14.89987l2.21094-10.862485h-14.89986l3.65287-18.360483h-11.34313l-3.65287 18.360483h-12.9773l3.65287-18.360483zm5.4793 29.222968h12.97731l-2.49934 12.68891h-12.9773z" fill="url(#radialGradient4183)"/>
  <path clip-path="url(#clipPath3868)" d="m72 68c-24.00356 0-24 24.000005-24 24.000005v71.999995c0 24 24 24 24 24h12l-15.85359 32 39.09505-32h84.75854c24 0 24-24 24-24v-71.999995c0-24.000005-24-24.000005-24-24.000005z" fill="none" filter="url(#filter3890)" stroke="url(#linearGradient4109)" transform="translate(-15.16469 -20)"/>
  <path d="m60.83531 188 12-24h-20l-12-8h152l-12 8h-88z" fill="url(#linearGradient4142)" filter="url(#filter3949)"/>
  <path d="m55.83531 49v2h120v-2z" fill="url(#radialGradient4137)" filter="url(#filter4007)"/>
  <path d="m71 69v2h120v-2z" fill="url(#radialGradient4089)" filter="url(#filter4007)" transform="matrix(0 -.64989925 1 0 127.82927 196.1368)"/>
  <path d="m71 69v2h120v-2z" fill="url(#radialGradient4089)" filter="url(#filter4007)" transform="matrix(0 -.64989925 1 0 157.12209 205.1368)"/>
  <rect fill="url(#radialGradient34897)" height="67.351921" width="1.944544" x="34.302414" y="75.115807"/>
  <rect fill="url(#radialGradient34905)" height="67.351921" transform="rotate(90)" width="1.06066" x="165.4487" y="-162.81906"/>
  <path d="m172.73172 183.5 32.75 28-14.5-15.25-15.25-12.25z" fill="url(#radialGradient34915)" opacity=".881633"/>
</svg>
