<svg height="256" width="256" xmlns="http://www.w3.org/2000/svg" xmlns:xlink="http://www.w3.org/1999/xlink">
  <defs>
    <linearGradient id="linearGradient5244">
      <stop offset="0" stop-color="#fff"/>
      <stop offset="1" stop-color="#fff" stop-opacity="0"/>
    </linearGradient>
    <linearGradient id="linearGradient5127">
      <stop offset="0" stop-color="#141518"/>
      <stop offset=".41744292" stop-color="#141518" stop-opacity=".74902"/>
      <stop offset=".46940547" stop-color="#141518" stop-opacity=".498039"/>
      <stop offset=".56372547" stop-color="#141518" stop-opacity=".247059"/>
      <stop offset=".67094404" stop-color="#141518" stop-opacity=".121569"/>
      <stop offset="1" stop-color="#141518" stop-opacity="0"/>
    </linearGradient>
    <linearGradient id="linearGradient4904">
      <stop offset="0" stop-color="#80868c"/>
      <stop offset="1" stop-color="#80868c" stop-opacity="0"/>
    </linearGradient>
    <linearGradient id="linearGradient6453">
      <stop offset="0" stop-color="#b1b4b9"/>
      <stop offset="1" stop-color="#737980"/>
    </linearGradient>
    <linearGradient id="linearGradient6443" gradientUnits="userSpaceOnUse" x1="26" x2="220" y1="69" y2="69">
      <stop offset="0" stop-color="#bdc1c6"/>
      <stop offset=".24639483" stop-color="#f4f5f5"/>
      <stop offset=".38530767" stop-color="#9da5ac"/>
      <stop offset="1" stop-color="#8b96a1"/>
    </linearGradient>
    <filter id="filter7497" height="1.133899" width="1.03292" x="-.01646" y="-.06695">
      <feGaussianBlur stdDeviation=".036652415"/>
    </filter>
    <clipPath id="clipPath7399">
      <rect height="73" rx="0" width="96" x="165.90663" y="29.000002"/>
    </clipPath>
    <filter id="filter5885" height="1.028152" width="1.021409" x="-.010705" y="-.014076">
      <feGaussianBlur stdDeviation=".46554058"/>
    </filter>
    <filter id="filter6186" height="1.002717" width="1.001892" x="-.000946" y="-.001359">
      <feGaussianBlur stdDeviation=".0441875"/>
    </filter>
    <filter id="filter4815" height="1.155942" width="1.028254" x="-.014127" y="-.077971">
      <feGaussianBlur stdDeviation=".10541021"/>
    </filter>
    <clipPath id="clipPath4836">
      <path d="m78.208799 125.29709c0 2.06963-6.251186 3.7474-13.962415 3.7474-7.71123 0-13.962416-1.67777-13.962416-3.7474 0-.0188.000561-1.03917.0017-1.0587.11686-2.04255 6.322538-2.68869 13.960738-2.68869 7.653669 0 13.869011.65281 13.961373 2.7011.000695.0147-.01444 1.04629.001 1.04629z"/>
    </clipPath>
    <linearGradient gradientTransform="matrix(1.5593816 0 0 2.0926299 -36.447276 -93.961525)" gradientUnits="userSpaceOnUse" spreadMethod="reflect" x1="57.036041" x2="66.102737" xlink:href="#linearGradient6443" y1="104.63879" y2="104.68102"/>
    <filter id="filter4854" height="1.037075" width="1.006262" x="-.003131" y="-.018537">
      <feGaussianBlur stdDeviation=".036447204"/>
    </filter>
    <linearGradient id="linearGradient4981" gradientTransform="matrix(.79591837 0 0 1 13.112245 0)" gradientUnits="userSpaceOnUse" x1="66.89119" x2="66.89119" y1="72" y2="103.07543">
      <stop offset="0" stop-color="#cacaca"/>
      <stop offset=".61419845" stop-color="#ebebeb"/>
      <stop offset="1" stop-color="#cbcbcb"/>
    </linearGradient>
    <linearGradient id="linearGradient4983" gradientTransform="matrix(.79591837 0 0 1 13.112245 0)" gradientUnits="userSpaceOnUse" x1="67" x2="67" xlink:href="#linearGradient4904" y1="89" y2="112"/>
    <filter id="filter5003" height="1.053123" width="1.090912" x="-.045456" y="-.026561">
      <feGaussianBlur stdDeviation=".32371765"/>
    </filter>
    <filter id="filter5021" height="1.039876" width="1.006372" x="-.003186" y="-.019938">
      <feGaussianBlur stdDeviation=".11215092"/>
    </filter>
    <linearGradient id="linearGradient5029" gradientUnits="userSpaceOnUse" x1="92" x2="92" xlink:href="#linearGradient5244" y1="92" y2="117.0636"/>
    <mask id="mask5025" maskUnits="userSpaceOnUse">
      <path d="m31.90625 101c-.353347 0-2.094915.0395-2.8125 1.125-.04108.0622-.09117.11824-.125.1875l-7.0625 10.84375c-.738473 1.27897 1.576936 1.34375 2.03125 1.34375h80.125c.67483 0 2.76948-1.4632 2.03125-2.84375l-7.15625-9.5625c-.726436-1.06428-2.461513-1.09375-2.8125-1.09375zm32.34375 1.90625c7.675047 0 13.90625 1.64227 13.90625 3.6875s-6.231203 3.71875-13.90625 3.71875-13.875-1.67352-13.875-3.71875 6.199953-3.6875 13.875-3.6875z" fill="url(#linearGradient5029)" filter="url(#filter5021)" transform="matrix(1 0 0 -1 0 209.575)"/>
    </mask>
    <filter id="filter5224" height="2.996841" width="1.012574" x="-.006287" y="-.99842">
      <feGaussianBlur stdDeviation=".038984155"/>
    </filter>
    <linearGradient id="linearGradient4941" gradientUnits="userSpaceOnUse" x1="68.272774" x2="67.628471" xlink:href="#linearGradient5244" y1="102.02212" y2="108.07214"/>
    <mask id="mask4937" maskUnits="userSpaceOnUse">
      <path d="m73.526631 104.29872a8.9538164 1.7907633 0 1 1 -17.907632 0 8.9538164 1.7907633 0 1 1 17.907632 0z" fill="url(#linearGradient4941)" fill-rule="evenodd" transform="matrix(1.5520646 0 0 -2.0679509 -35.963753 318.48788)"/>
    </mask>
    <filter id="filter4828" height="1.282926" width="1.056692" x="-.028346" y="-.141463">
      <feGaussianBlur stdDeviation=".20777372"/>
    </filter>
    <linearGradient id="linearGradient4877" gradientUnits="userSpaceOnUse" x1="63.07880722742" x2="63.07880722742" y1="91.99999955654" y2="91.00000019224">
      <stop offset="0" stop-color="#5f656d"/>
      <stop offset="1" stop-color="#afb1b7"/>
    </linearGradient>
    <linearGradient id="linearGradient4879" gradientTransform="matrix(.79591837 0 0 1 13.112245 0)" gradientUnits="userSpaceOnUse" spreadMethod="reflect" x1="52.646282" x2="52.646282" y1="76.900963" y2="89.869804">
      <stop offset="0" stop-color="#cacaca"/>
      <stop offset=".61419845" stop-color="#aaadb3"/>
      <stop offset="1" stop-color="#cbcbcb"/>
    </linearGradient>
    <linearGradient id="linearGradient4881" gradientUnits="userSpaceOnUse" x1="54.86359" x2="67.444374" xlink:href="#linearGradient5244" y1="99.162399" y2="102.53341"/>
    <linearGradient id="linearGradient4883" gradientTransform="matrix(.79591837 0 0 1 13.112245 0)" gradientUnits="userSpaceOnUse" x1="66.555794" x2="66.555794" xlink:href="#linearGradient4904" y1="94.48008" y2="112.18031"/>
    <linearGradient id="linearGradient4885" gradientUnits="userSpaceOnUse" x1="67.444374" x2="67.444374" xlink:href="#linearGradient5244" y1="95.443077" y2="102.53341"/>
    <linearGradient id="linearGradient4887" gradientTransform="matrix(.79591837 0 0 1 13.112245 0)" gradientUnits="userSpaceOnUse" x1="68.332626" x2="68.332626" xlink:href="#linearGradient4904" y1="105.93135" y2="95.804237"/>
    <linearGradient id="linearGradient4890" gradientTransform="matrix(.79591837 0 0 1 13.112245 0)" gradientUnits="userSpaceOnUse" x1="52.945469" x2="68.332626" xlink:href="#linearGradient4904" y1="102.875" y2="95.804237"/>
    <linearGradient id="linearGradient4892" gradientTransform="matrix(.79591837 0 0 1 13.112245 0)" gradientUnits="userSpaceOnUse" x1="68.332626" x2="68.332626" xlink:href="#linearGradient5244" y1="103.21993" y2="101.56419"/>
    <linearGradient id="linearGradient4894" gradientUnits="userSpaceOnUse" x1="74.78125" x2="74.78125" xlink:href="#linearGradient5127" y1="84.432274" y2="92.5"/>
    <linearGradient id="linearGradient4898" gradientTransform="matrix(1 0 0 -1 0 106.24806)" gradientUnits="userSpaceOnUse" x1="110.2377" x2="12.362701" y1="82.125" y2="-9.046475">
      <stop offset="0" stop-color="#1d1e23"/>
      <stop offset=".5" stop-color="#101113"/>
      <stop offset="1" stop-color="#26292e"/>
    </linearGradient>
    <linearGradient id="linearGradient4900" gradientTransform="matrix(2.1092076 0 0 2.1367524 -6.781564 -14.878939)" gradientUnits="userSpaceOnUse" x1="84.361366" x2="42.887676" xlink:href="#linearGradient5244" y1="29.365416" y2="18.252573"/>
    <radialGradient id="radialGradient4950" cx="54.5" cy="94.107132" gradientTransform="matrix(3.4481511 0 0 .77520873 -133.46817 26.728199)" gradientUnits="userSpaceOnUse" r="4.865625" xlink:href="#linearGradient5244"/>
    <radialGradient id="radialGradient4952" cx="54.5" cy="94.107132" gradientTransform="matrix(3.4481511 0 0 .77520873 -133.29299 22.21823)" gradientUnits="userSpaceOnUse" r="4.865625" xlink:href="#linearGradient5244"/>
    <linearGradient id="linearGradient4957" gradientTransform="matrix(2.3193384 0 0 2.3105142 -20.54307 -21.664908)" gradientUnits="userSpaceOnUse" x1="80.264381" x2="38.917843" xlink:href="#linearGradient5244" y1="26.93886" y2="17.18886"/>
    <linearGradient id="linearGradient5006" gradientTransform="matrix(2.223528 0 0 2.25416 -14.374354 -20.537822)" gradientUnits="userSpaceOnUse" x1="82.44709" x2="82.44709" y1="87.650002" y2="21.826469">
      <stop offset="0" stop-color="#1949ed"/>
      <stop offset="1" stop-color="#3879f8"/>
    </linearGradient>
    <linearGradient id="linearGradient5033" gradientTransform="matrix(1.9065995 0 0 2.5585829 -58.870448 -156.78957)" gradientUnits="userSpaceOnUse" spreadMethod="reflect" x1="57.036041" x2="66.102737" xlink:href="#linearGradient6443" y1="104.63879" y2="104.68102"/>
    <linearGradient id="linearGradient5037" gradientTransform="matrix(1.8976532 0 0 2.5284087 -58.279262 -154.68669)" gradientUnits="userSpaceOnUse" x1="63.951206" x2="63.951206" xlink:href="#linearGradient6453" y1="103.02646" y2="106.44762"/>
    <linearGradient id="linearGradient5080" gradientUnits="userSpaceOnUse" x1="74.78125" x2="74.78125" xlink:href="#linearGradient5127" y1="86" y2="92.5"/>
    <clipPath id="clipPath5084">
      <path d="m73.526631 104.29872a8.9538164 1.7907633 0 1 1 -17.907632 0 8.9538164 1.7907633 0 1 1 17.907632 0z" transform="matrix(1.8976532 0 0 -2.5284087 -58.279262 363.83448)"/>
    </clipPath>
    <linearGradient gradientUnits="userSpaceOnUse" x1="63.951206" x2="63.951206" xlink:href="#linearGradient6453" y1="103.02646" y2="106.44762"/>
    <filter id="filter5102" height="1.054102" width="1.079192" x="-.039596" y="-.027051">
      <feGaussianBlur stdDeviation=".29023551"/>
    </filter>
    <filter id="filter5112" height="3.690625" width="1.077151" x="-.038575" y="-1.345313">
      <feGaussianBlur stdDeviation=".28027344"/>
    </filter>
    <linearGradient id="linearGradient1186" gradientUnits="userSpaceOnUse" x1="93.90028" x2="8.72737" y1="97.233709" y2="52.419489">
      <stop offset="0" stop-color="#fff" stop-opacity=".2"/>
      <stop offset="1" stop-color="#fff" stop-opacity=".1"/>
    </linearGradient>
    <linearGradient id="linearGradient1196" gradientUnits="userSpaceOnUse" x1="68.624904" x2="233.912416" y1="145.251431" y2="143.765547">
      <stop offset="0" stop-color="#fff" stop-opacity=".2"/>
      <stop offset="1" stop-color="#fff" stop-opacity="0"/>
    </linearGradient>
    <linearGradient id="linearGradient1206" gradientUnits="userSpaceOnUse" x1="234.094516" x2="65.797374" y1="55.291287" y2="144.912703">
      <stop offset="0" stop-color="#fff" stop-opacity=".15"/>
      <stop offset="1" stop-color="#fff" stop-opacity="0"/>
    </linearGradient>
    <radialGradient id="radialGradient21210" cx="63.071262" cy="-8.361158" gradientTransform="matrix(2 0 0 1.3956543 -.003196 27.533094)" gradientUnits="userSpaceOnUse" r="61.843754">
      <stop offset="0" stop-color="#f6f6f6"/>
      <stop offset="1" stop-color="#ccc"/>
    </radialGradient>
    <linearGradient id="linearGradient99219" gradientUnits="userSpaceOnUse" x1="-12.164773" x2="144.96719" xlink:href="#linearGradient5060" y1="128.77907" y2="47.786091"/>
    <linearGradient id="linearGradient5060">
      <stop offset="0"/>
      <stop offset="1" stop-opacity="0"/>
    </linearGradient>
    <filter id="filter3602" height="1.478705" width="1.263544" x="-.131772" y="-.239352">
      <feGaussianBlur stdDeviation="4.1505339"/>
    </filter>
    <radialGradient id="radialGradient99221" cx="-67.615143" cy="84.213043" fx="-67.047073" fy="83.803413" gradientTransform="matrix(1 0 0 .636364 0 30.62293)" gradientUnits="userSpaceOnUse" r="1.449837">
      <stop offset="0"/>
      <stop offset="1" stop-color="#2a2a2a"/>
    </radialGradient>
    <linearGradient id="linearGradient99223" gradientTransform="matrix(2.835088 -.550442 .494654 3.154855 36.17383 -52.25672)" gradientUnits="userSpaceOnUse" x1="-8.762095" x2="-11.719011" y1="52.858494" y2="48.873039">
      <stop offset="0" stop-color="#554513"/>
      <stop offset="1" stop-color="#b59e69"/>
    </linearGradient>
    <radialGradient id="radialGradient99225" cx="37.368698" cy="110.8646" fx="43.500916" fy="111.97002" gradientTransform="matrix(.477914 .477913 -1.482518 1.482518 181.2328 -69.10011)" gradientUnits="userSpaceOnUse" r="11.61476">
      <stop offset="0" stop-color="#b4942a"/>
      <stop offset="1" stop-color="#e4dcc9"/>
    </radialGradient>
    <radialGradient id="radialGradient99227" cx="19.006332" cy="99.120926" gradientTransform="matrix(1 0 0 1.412255 -1.403157 -41.48484)" gradientUnits="userSpaceOnUse" r="4.603175" xlink:href="#linearGradient5244"/>
    <linearGradient id="linearGradient99229" gradientTransform="matrix(2.555437 -.445861 .445861 2.555437 36.27033 -22.36791)" gradientUnits="userSpaceOnUse" x1="24.086939" x2="26.619194" xlink:href="#linearGradient5244" y1="16.355263" y2="20.057724"/>
    <radialGradient id="radialGradient99231" cx="49.009884" cy="8.495312" fx="47.370888" fy="6.77017" gradientTransform="matrix(1.091017 .841583 -.312923 .414532 57.96618 -29.84675)" gradientUnits="userSpaceOnUse" r="3.97504" xlink:href="#linearGradient3225"/>
    <linearGradient id="linearGradient3225">
      <stop offset="0" stop-color="#fff"/>
      <stop offset="1" stop-color="#aeaeae"/>
    </linearGradient>
    <linearGradient id="linearGradient99233" gradientUnits="userSpaceOnUse" x1="51.674519" x2="58.674988" y1="91.063316" y2="82.036392">
      <stop offset="0" stop-color="#f9f9f9"/>
      <stop offset="1" stop-color="#f9f9f9" stop-opacity="0"/>
    </linearGradient>
    <linearGradient id="linearGradient99235" gradientUnits="userSpaceOnUse" x1="47.745087" x2="39.897305" xlink:href="#linearGradient5060" y1="100.18176" y2="105.63568"/>
    <radialGradient id="radialGradient99237" cx="49.009884" cy="8.495312" fx="47.356842" fy="9.785249" gradientTransform="matrix(1.006114 .804017 .402416 -.496946 -8.95131 64.78593)" gradientUnits="userSpaceOnUse" r="3.97504" xlink:href="#linearGradient3225"/>
    <radialGradient id="radialGradient99239" cx="49.009884" cy="8.495312" fx="47.424515" fy="9.608234" gradientTransform="matrix(1.023607 .818166 .402456 -.496915 -6.729909 60.21586)" gradientUnits="userSpaceOnUse" r="3.97504" xlink:href="#linearGradient3225"/>
    <radialGradient id="radialGradient99241" cx="49.009884" cy="8.495312" fx="48.025326" fy="9.788682" gradientTransform="matrix(1.05859 .846463 .402535 -.496852 -5.327913 54.90227)" gradientUnits="userSpaceOnUse" r="3.97504" xlink:href="#linearGradient3225"/>
    <radialGradient id="radialGradient99243" cx="49.009884" cy="8.495312" fx="48.361217" fy="9.435684" gradientTransform="matrix(1.076084 .86061 .402574 -.496821 -3.078406 50.29781)" gradientUnits="userSpaceOnUse" r="3.97504" xlink:href="#linearGradient3225"/>
    <linearGradient id="linearGradient99245" gradientTransform="matrix(1.086544 -.0911518 -.132743 1.144289 8.908611 -9.844197)" gradientUnits="userSpaceOnUse" x1="59.634602" x2="50.843105" xlink:href="#linearGradient5060" y1="106.41199" y2="95.266502"/>
    <linearGradient id="linearGradient756" gradientUnits="userSpaceOnUse" spreadMethod="reflect" x1="64.492081" x2="64.492081" y1="83.273643" y2="83.705124">
      <stop offset="0" stop-color="#a5acb2"/>
      <stop offset=".64333254" stop-color="#bdc1c7"/>
      <stop offset=".88042605" stop-color="#33373c"/>
      <stop offset="1"/>
    </linearGradient>
  </defs>
  <path d="m73.526631 104.29872a8.9538164 1.6218115 0 1 1 -17.907632 0 8.9538164 1.6218115 0 1 1 17.907632 0z" fill-rule="evenodd" filter="url(#filter4815)" opacity=".818182" transform="matrix(3.7954084 0 0 5.3928284 -116.59212 -341.30415)"/>
  <g transform="matrix(4 0 0 4 -128.50161 -214.51541)">
    <g filter="url(#filter4828)" mask="url(#mask4937)" opacity=".663636" transform="matrix(1 0 0 -1 0 209.9)">
      <path d="m71 99.875 1.795918 3.525h-8.545918-9.045918l1.795918-3.525z" fill="#7d8389" fill-rule="evenodd" opacity=".45"/>
    </g>
    <path d="m81.315386 111.29001c0 2.53047-7.643099 4.58182-17.07134 4.58182-9.428242 0-17.071341-2.05135-17.071341-4.58182 0-.023.000686-2.27055.0021-2.29443.14288-2.49735 7.730338-3.28736 17.069289-3.28736 9.357864 0 16.957138.79816 17.070066 3.30253.00085.018-.01765 2.27926.0012 2.27926z" fill="url(#linearGradient5033)" fill-rule="evenodd"/>
    <path d="m73.526631 104.29872a8.9538164 1.7907633 0 1 1 -17.907632 0 8.9538164 1.7907633 0 1 1 17.907632 0z" fill="#fff" fill-rule="evenodd" transform="matrix(1.9065995 0 0 2.5585829 -58.870448 -157.78957)"/>
    <path d="m81.24878 109.0231a16.991238 4.5277815 0 1 1 -33.982471 0 16.991238 4.5277815 0 1 1 33.982471 0z" fill="url(#linearGradient5037)" fill-rule="evenodd"/>
    <path d="m64.227999 104.50322c-8.932854 0-16.22129 1.80784-16.964473 4.12649.874058-2.28317 8.127158-4.05007 16.964473-4.05007 8.837316 0 16.128796 1.7669 17.002854 4.05007-.743181-2.31865-8.069999-4.12649-17.002854-4.12649z" fill-opacity=".485714" fill-rule="evenodd" opacity=".290909"/>
    <path clip-path="url(#clipPath4836)" d="m50.28125 125.0619c-.001.12268 0 .98231 0 1 0 2.06963 6.25752 3.71875 13.96875 3.71875 7.711229 0 13.96875-1.64912 13.96875-3.71875-.01453 0-.000948-.88024 0-1 0 2.06963-6.257521 3.71875-13.96875 3.71875-7.71123 0-13.96875-1.64912-13.96875-3.71875z" fill-rule="evenodd" filter="url(#filter4854)" opacity=".181818" transform="matrix(1.2226638 0 0 1.2226638 -14.294174 -41.906767)"/>
  </g>
  <g transform="matrix(2 0 0 2 -.000004 5.840588)">
    <path d="m58.463938 80v14.757537l-.583273 4.392463h6.369335 6.369335l-.583273-4.392463v-14.757537h-5.786062zm3.636317 1.026559h2.149745 1.823583v9.0247h-3.973328z" fill="url(#linearGradient4877)" fill-rule="evenodd"/>
    <path d="m56 76.75v19.625l-.78125 6.125h8.53125 9.03125l-.78125-6.125v-19.625h-8.25zm5 1.375h2.75 3.25v13.875h-6z" fill="url(#linearGradient4879)" fill-rule="evenodd"/>
    <path d="m72 96.475.795918 6.025h-8.545918-9.045918l.795918-6.025z" fill="url(#linearGradient4881)" fill-rule="evenodd" opacity=".45"/>
    <path d="m72 96.375.795918 6.125h-8.545918-9.045918l.795918-6.125z" fill="url(#linearGradient4883)" fill-rule="evenodd" opacity=".45"/>
    <path d="m71.960937 96.334375.834981 6.165625h-8.545918-9.045918l.795918-6.126563z" fill="url(#linearGradient4885)" fill-rule="evenodd" opacity=".45"/>
    <path d="m72 96.375.795918 6.125h-8.545918-9.045918l.795918-6.125z" fill="url(#linearGradient4887)" fill-rule="evenodd" opacity=".45"/>
    <path d="m72 96.375.795918 6.125h-8.545918-9.045918l.795918-6.125z" fill="url(#linearGradient4890)" fill-rule="evenodd" opacity=".45"/>
    <path d="m72 97.789214.795918 4.710786h-8.545918-9.045918l.795918-4.710786z" fill="url(#linearGradient4892)" fill-rule="evenodd" opacity=".304545"/>
    <path d="m56 76.75v19.625l-.78125 6.125h.03125l.78125-6.125v-19.625zm15.96875 0v19.625l.78125 6.125h.0313l-.7813-6.125v-19.625h-.0313z" fill-opacity=".622857" fill-rule="evenodd" opacity=".359091"/>
    <path d="m56 76.75v16.195621h16v-16.195621h-8.25zm5 1.375h2.75 3.25v13.875h-6z" fill="url(#linearGradient4894)" fill-rule="evenodd" opacity=".890909"/>
  </g>
  <path d="m14.312496 8.5280875c-4.9788093 0-8.9999993 4.0211905-8.9999993 9.0000005v3.25 146.124992 3.3125c0 4.97881 4.02119 8.9375 8.9999993 8.9375h227.375004c4.9788 0 9-3.95869 9-8.9375v-152.687492c0-4.97881-4.0212-9.0000005-9-9.0000005z" fill-rule="evenodd" stroke="url(#radialGradient21210)" stroke-width="3"/>
  <path d="m9.25 11.9375c-.4270534 0-.7568164.142635-.96875.34375s-.34375.467228-.34375.96875v2.84375 69.75 2.84375c0 .757756.5547428 1.3125 1.3125 1.3125h109.5c.27365 0 .62452-.155611.90625-.46875s.40625-.776819.40625-.84375v-2.84375-69.75-2.84375c0-.75775-.55476-1.3125-1.3125-1.3125z" fill="url(#linearGradient4898)" fill-rule="evenodd" filter="url(#filter6186)" transform="matrix(2.1092076 0 0 2.0733474 -6.992484 -11.896125)"/>
  <path d="m11.792645 12.854459c-1.149257 0-2.0431473.853342-2.0432943 2.202932v156.343349l2.7683343 4.0819h52.532452l92.475563-162.628181z" fill="url(#linearGradient4900)" fill-rule="evenodd" opacity=".5"/>
  <rect fill="url(#linearGradient5006)" fill-rule="evenodd" height="138.63081" opacity=".840909" rx="0" width="213.45869" x="21.202095" y="24.54537"/>
  <g transform="matrix(2.4269702 0 0 2.3857078 -26.203526 -26.532356)">
    <g filter="url(#filter7497)" stroke="#000" stroke-linecap="round" stroke-linejoin="round" stroke-width="0" transform="matrix(1.8247035 0 0 1.8247035 -52.398467 -69.035703)">
      <path d="m61.363611 82.433983c-.25688 0-.40962.182246-.40962.487726 0 .307215.15274.487726.411356.487726.25688 0 .411356-.182246.411356-.480783 0-.315894-.149268-.494669-.413092-.494669zm.0017.133647c.163154 0 .260352.133648.260352.359286 0 .215224-.10067.348872-.260352.348872-.161418 0-.260352-.133648-.260352-.354079s.09893-.354079.260352-.354079z" opacity=".427273"/>
      <path d="m62.316498 82.899145.30548-.439127h-.163154l-.218696.329779-.218695-.329779h-.16489l.303744.44607-.321101.463426h.16489l.230845-.348871.227374.348871h.168361z" opacity=".427273"/>
      <path d="m63.37179 82.460018-.251673.708158-.232582-.708158h-.154475l.307215.912968-.05554.144061c-.0243.06422-.05554.08852-.116291.08852-.0243 0-.04513-.0035-.07637-.01041v.130176c.02951.01562.05901.02256.0972.02256.04686 0 .0972-.01562.135383-.04339.04513-.03298.07116-.07116.09893-.144062l.404413-1.100421z" opacity=".427273"/>
      <path d="m64.232687 82.460018v.131912c-.0729-.109348-.15274-.157947-.267295-.157947-.220431 0-.373171.20481-.373171.496404 0 .15274.03645.263824.114555.355815.06769.07984.154475.123233.248202.123233.109348 0 .187453-.0486.263823-.163154v.04686c0 .242995-.06769.33325-.248202.33325-.123233 0-.187453-.0486-.201339-.15274h-.147533c.01389.168361.147533.274238.345401.274238.133647 0 .244731-.04339.303744-.116291.06943-.08505.09546-.197867.09546-.411356v-.760228zm-.25341.107612c.15274 0 .239524.128441.239524.359286 0 .220431-.08852.348872-.239524.348872-.149268 0-.236052-.130176-.236052-.354079 0-.222167.08678-.354079.236052-.354079z" opacity=".427273"/>
      <path d="m65.378236 82.963365c0-.138854-.01041-.222167-.03645-.289858-.05901-.149269-.197867-.239524-.367964-.239524-.253409 0-.416563.19266-.416563.492933s.156211.482519.413092.482519c.208281 0 .352343-.118026.388792-.315894h-.145797c-.03992.119762-.121498.182247-.237788.182247-.09199 0-.170097-.04166-.218696-.118026-.03471-.05207-.04686-.104141-.0486-.194397zm-.666501-.118026c.01215-.168361.114555-.277709.260352-.277709.147533 0 .249938.114555.249938.277709z" opacity=".427273"/>
      <path d="m65.574368 82.460018v.909496h.145797v-.501611c0-.185718.0972-.307215.246467-.307215.114555 0 .187453.06943.187453.178775v.630051h.144062v-.687329c0-.151004-.11282-.248202-.288123-.248202-.135383 0-.222167.05207-.302009.178775v-.15274z" opacity=".427273"/>
      <path d="m61.363611 82.433983c-.25688 0-.40962.182246-.40962.487726 0 .307215.15274.487726.411356.487726.25688 0 .411356-.182246.411356-.480783 0-.315894-.149268-.494669-.413092-.494669zm.0017.133647c.163154 0 .260352.133648.260352.359286 0 .215224-.10067.348872-.260352.348872-.161418 0-.260352-.133648-.260352-.354079s.09893-.354079.260352-.354079z"/>
      <path d="m62.316498 82.899145.30548-.439127h-.163154l-.218696.329779-.218695-.329779h-.16489l.303744.44607-.321101.463426h.16489l.230845-.348871.227374.348871h.168361z"/>
      <path d="m63.37179 82.460018-.251673.708158-.232582-.708158h-.154475l.307215.912968-.05554.144061c-.0243.06422-.05554.08852-.116291.08852-.0243 0-.04513-.0035-.07637-.01041v.130176c.02951.01562.05901.02256.0972.02256.04686 0 .0972-.01562.135383-.04339.04513-.03298.07116-.07116.09893-.144062l.404413-1.100421z"/>
      <path d="m64.232687 82.460018v.131912c-.0729-.109348-.15274-.157947-.267295-.157947-.220431 0-.373171.20481-.373171.496404 0 .15274.03645.263824.114555.355815.06769.07984.154475.123233.248202.123233.109348 0 .187453-.0486.263823-.163154v.04686c0 .242995-.06769.33325-.248202.33325-.123233 0-.187453-.0486-.201339-.15274h-.147533c.01389.168361.147533.274238.345401.274238.133647 0 .244731-.04339.303744-.116291.06943-.08505.09546-.197867.09546-.411356v-.760228zm-.25341.107612c.15274 0 .239524.128441.239524.359286 0 .220431-.08852.348872-.239524.348872-.149268 0-.236052-.130176-.236052-.354079 0-.222167.08678-.354079.236052-.354079z"/>
      <path d="m65.378236 82.963365c0-.138854-.01041-.222167-.03645-.289858-.05901-.149269-.197867-.239524-.367964-.239524-.253409 0-.416563.19266-.416563.492933s.156211.482519.413092.482519c.208281 0 .352343-.118026.388792-.315894h-.145797c-.03992.119762-.121498.182247-.237788.182247-.09199 0-.170097-.04166-.218696-.118026-.03471-.05207-.04686-.104141-.0486-.194397zm-.666501-.118026c.01215-.168361.114555-.277709.260352-.277709.147533 0 .249938.114555.249938.277709z"/>
      <path d="m65.574368 82.460018v.909496h.145797v-.501611c0-.185718.0972-.307215.246467-.307215.114555 0 .187453.06943.187453.178775v.630051h.144062v-.687329c0-.151004-.11282-.248202-.288123-.248202-.135383 0-.222167.05207-.302009.178775v-.15274z"/>
    </g>
    <g transform="matrix(1.8247035 0 0 1.8247035 -52.398467 -69.161151)">
      <path d="m61.363611 82.433983c-.25688 0-.40962.182246-.40962.487726 0 .307215.15274.487726.411356.487726.25688 0 .411356-.182246.411356-.480783 0-.315894-.149268-.494669-.413092-.494669zm.0017.133647c.163154 0 .260352.133648.260352.359286 0 .215224-.10067.348872-.260352.348872-.161418 0-.260352-.133648-.260352-.354079s.09893-.354079.260352-.354079z" fill="url(#linearGradient756)"/>
      <path d="m62.316498 82.899145.30548-.439127h-.163154l-.218696.329779-.218695-.329779h-.16489l.303744.44607-.321101.463426h.16489l.230845-.348871.227374.348871h.168361z" fill="url(#linearGradient756)"/>
      <path d="m63.37179 82.460018-.251673.708158-.232582-.708158h-.154475l.307215.912968-.05554.144061c-.0243.06422-.05554.08852-.116291.08852-.0243 0-.04513-.0035-.07637-.01041v.130176c.02951.01562.05901.02256.0972.02256.04686 0 .0972-.01562.135383-.04339.04513-.03298.07116-.07116.09893-.144062l.404413-1.100421z" fill="url(#linearGradient756)"/>
      <path d="m64.232687 82.460018v.131912c-.0729-.109348-.15274-.157947-.267295-.157947-.220431 0-.373171.20481-.373171.496404 0 .15274.03645.263824.114555.355815.06769.07984.154475.123233.248202.123233.109348 0 .187453-.0486.263823-.163154v.04686c0 .242995-.06769.33325-.248202.33325-.123233 0-.187453-.0486-.201339-.15274h-.147533c.01389.168361.147533.274238.345401.274238.133647 0 .244731-.04339.303744-.116291.06943-.08505.09546-.197867.09546-.411356v-.760228zm-.25341.107612c.15274 0 .239524.128441.239524.359286 0 .220431-.08852.348872-.239524.348872-.149268 0-.236052-.130176-.236052-.354079 0-.222167.08678-.354079.236052-.354079z" fill="url(#linearGradient756)"/>
      <path d="m65.378236 82.963365c0-.138854-.01041-.222167-.03645-.289858-.05901-.149269-.197867-.239524-.367964-.239524-.253409 0-.416563.19266-.416563.492933s.156211.482519.413092.482519c.208281 0 .352343-.118026.388792-.315894h-.145797c-.03992.119762-.121498.182247-.237788.182247-.09199 0-.170097-.04166-.218696-.118026-.03471-.05207-.04686-.104141-.0486-.194397zm-.666501-.118026c.01215-.168361.114555-.277709.260352-.277709.147533 0 .249938.114555.249938.277709z" fill="url(#linearGradient756)"/>
      <path d="m65.574368 82.460018v.909496h.145797v-.501611c0-.185718.0972-.307215.246467-.307215.114555 0 .187453.06943.187453.178775v.630051h.144062v-.687329c0-.151004-.11282-.248202-.288123-.248202-.135383 0-.222167.05207-.302009.178775v-.15274z" fill="url(#linearGradient756)"/>
      <path d="m61.363611 82.433983c-.25688 0-.40962.182246-.40962.487726 0 .307215.15274.487726.411356.487726.25688 0 .411356-.182246.411356-.480783 0-.315894-.149268-.494669-.413092-.494669zm.0017.133647c.163154 0 .260352.133648.260352.359286 0 .215224-.10067.348872-.260352.348872-.161418 0-.260352-.133648-.260352-.354079s.09893-.354079.260352-.354079z" fill="#c4c7ce"/>
      <path d="m62.316498 82.899145.30548-.439127h-.163154l-.218696.329779-.218695-.329779h-.16489l.303744.44607-.321101.463426h.16489l.230845-.348871.227374.348871h.168361z" fill="#c4c7ce"/>
      <path d="m63.37179 82.460018-.251673.708158-.232582-.708158h-.154475l.307215.912968-.05554.144061c-.0243.06422-.05554.08852-.116291.08852-.0243 0-.04513-.0035-.07637-.01041v.130176c.02951.01562.05901.02256.0972.02256.04686 0 .0972-.01562.135383-.04339.04513-.03298.07116-.07116.09893-.144062l.404413-1.100421z" fill="#c4c7ce"/>
      <path d="m64.232687 82.460018v.131912c-.0729-.109348-.15274-.157947-.267295-.157947-.220431 0-.373171.20481-.373171.496404 0 .15274.03645.263824.114555.355815.06769.07984.154475.123233.248202.123233.109348 0 .187453-.0486.263823-.163154v.04686c0 .242995-.06769.33325-.248202.33325-.123233 0-.187453-.0486-.201339-.15274h-.147533c.01389.168361.147533.274238.345401.274238.133647 0 .244731-.04339.303744-.116291.06943-.08505.09546-.197867.09546-.411356v-.760228zm-.25341.107612c.15274 0 .239524.128441.239524.359286 0 .220431-.08852.348872-.239524.348872-.149268 0-.236052-.130176-.236052-.354079 0-.222167.08678-.354079.236052-.354079z" fill="#c4c7ce"/>
      <path d="m65.378236 82.963365c0-.138854-.01041-.222167-.03645-.289858-.05901-.149269-.197867-.239524-.367964-.239524-.253409 0-.416563.19266-.416563.492933s.156211.482519.413092.482519c.208281 0 .352343-.118026.388792-.315894h-.145797c-.03992.119762-.121498.182247-.237788.182247-.09199 0-.170097-.04166-.218696-.118026-.03471-.05207-.04686-.104141-.0486-.194397zm-.666501-.118026c.01215-.168361.114555-.277709.260352-.277709.147533 0 .249938.114555.249938.277709z" fill="#c4c7ce"/>
      <path d="m65.574368 82.460018v.909496h.145797v-.501611c0-.185718.0972-.307215.246467-.307215.114555 0 .187453.06943.187453.178775v.630051h.144062v-.687329c0-.151004-.11282-.248202-.288123-.248202-.135383 0-.222167.05207-.302009.178775v-.15274z" fill="#c4c7ce"/>
    </g>
  </g>
  <path clip-path="url(#clipPath7399)" d="m161.71875 25.8125v79.375h104.375v-79.375zm4.1875 3.1875h96v73h-96z" fill="#002540" fill-rule="evenodd" filter="url(#filter5885)" transform="matrix(2.2235278 0 0 1.8990025 -347.69588 -30.525706)"/>
  <rect fill="#1c1e22" fill-rule="evenodd" height=".288576" opacity=".431818" width="80.026833" x="78.380669" y="24.256796"/>
  <path d="m21.20503 24.54537v138.63082l52.374384-.41992 78.264746-138.248812z" fill="url(#linearGradient4957)" fill-rule="evenodd" opacity=".090909"/>
  <path d="m71.341378 99.886199-15.287653-.0369-.09375.0937.08984.00001 15.28051-.0571z" fill="url(#radialGradient4950)" filter="url(#filter5224)" transform="matrix(2 0 0 2 -.003196 -1.17935)"/>
  <path d="m71.516559 95.376225-14.787653-.03689-.09375.09375.08984.00001 14.78051-.05714z" fill="url(#radialGradient4952)" filter="url(#filter5224)" transform="matrix(-2 0 0 2 257.34156 7.840588)"/>
  <g transform="matrix(2 0 0 2 -52.000006 -2.159412)">
    <g filter="url(#filter5003)" mask="url(#mask5025)" opacity=".459091" transform="matrix(1 0 0 -1 26 212.975)">
      <path d="m57.5 76.75v20.625l-1.78125 6.625h8.53125 8.53125l-1.78125-6.625v-20.625h-6.75zm4.0625 1.375h2.6875 2.6875v12.875h-5.375z" fill="url(#linearGradient4981)" fill-rule="evenodd"/>
      <path d="m70 98.375 2.795918 7.625h-8.545918-8.545918l2.795918-7.625z" fill="url(#linearGradient4983)" fill-rule="evenodd" opacity=".45"/>
    </g>
    <g clip-path="url(#clipPath5084)" filter="url(#filter5102)" opacity=".854546" transform="matrix(1 0 0 -1 26 209.14779)">
      <path d="m58.463938 80v14.757537l-.583273 4.392463h6.369335 6.369335l-.583273-4.392463v-14.757537h-5.786062zm3.636317 1.026559h2.149745 1.823583v9.0247h-3.973328z" fill="url(#linearGradient4877)" fill-rule="evenodd"/>
      <path d="m56 76.75v19.625l-.78125 6.125h8.53125 9.03125l-.78125-6.125v-19.625h-8.25zm5 1.375h2.75 3.25v13.875h-6z" fill="url(#linearGradient4879)" fill-rule="evenodd"/>
      <path d="m72 96.475.795918 6.025h-8.545918-9.045918l.795918-6.025z" fill="url(#linearGradient4881)" fill-rule="evenodd" opacity=".45"/>
      <path d="m72 96.375.795918 6.125h-8.545918-9.045918l.795918-6.125z" fill="url(#linearGradient4883)" fill-rule="evenodd" opacity=".45"/>
      <path d="m71.960937 96.334375.834981 6.165625h-8.545918-9.045918l.795918-6.126563z" fill="url(#linearGradient4885)" fill-rule="evenodd" opacity=".45"/>
      <path d="m72 96.375.795918 6.125h-8.545918-9.045918l.795918-6.125z" fill="url(#linearGradient4887)" fill-rule="evenodd" opacity=".45"/>
      <path d="m72 96.375.795918 6.125h-8.545918-9.045918l.795918-6.125z" fill="url(#linearGradient4890)" fill-rule="evenodd" opacity=".45"/>
      <path d="m72 97.789214.795918 4.710786h-8.545918-9.045918l.795918-4.710786z" fill="url(#linearGradient4892)" fill-rule="evenodd" opacity=".304545"/>
      <path d="m56 76.75v19.625l-.78125 6.125h.03125l.78125-6.125v-19.625zm15.96875 0v19.625l.78125 6.125h.0313l-.7813-6.125v-19.625h-.0313z" fill-opacity=".622857" fill-rule="evenodd" opacity=".359091"/>
      <path d="m56 76.75v16.195621h16v-16.195621h-8.25zm5 1.375h2.75 3.25v13.875h-6z" fill="url(#linearGradient5080)" fill-rule="evenodd" opacity=".890909"/>
    </g>
    <rect fill-rule="evenodd" filter="url(#filter5112)" height=".5" opacity=".559091" width="17.4375" x="81.3125" y="106.7625"/>
  </g>
  <path d="m21.943014 25.368492v134.111718c42.667538-37.37779 66.973102-82.801718 78.014442-134.03798z" fill="url(#linearGradient1186)"/>
  <path d="m233.91242 124.95258v37.62592h-185.773192c57.712302-22.60078 119.639482-35.13611 185.773192-37.62592z" fill="url(#linearGradient1196)"/>
  <path d="m234.03842 35.589258v31.490306c-52.28978 34.387536-98.92823 69.601266-205.595304 96.039146 46.546494-50.81797 128.919974-88.097056 205.595304-127.529452z" fill="url(#linearGradient1206)"/>
  <g fill="none" transform="matrix(-2.7003294 0 0 2.7003294 -25.271538 -217.37365)">
    <path d="m44.103547 100.51226c5.234134-4.809941 13.431192-9.966967 17.946805-15.471078 14.842613-9.620114 50.198878-24.069862 49.790838-26.042239-1.11309-1.548482-35.702423 14.531288-53.531062 22.14411l-22.060222 6.607041z" fill="url(#linearGradient99219)" fill-rule="evenodd" filter="url(#filter3602)" transform="matrix(-.8428111 0 0 .6278928 10.10844 86.493537)"/>
    <g transform="matrix(-.6514004 .1766713 .1766713 .6514004 -24.579447 62.068888)">
      <path d="m47.828599 88.654348c6.298756-10.46427 7.883824-16.883712 18.896263-31.392804 11.012437-14.509091 31.513408-37.058742 47.178358-55.661729.99774-1.18487109 3.31248-1.39375754 5.01058-.1048985 1.76286 1.338016 2.02846 3.7071783 1.24665 4.8541481-13.69784 20.0957734-29.908702 45.9018934-40.921138 60.4109834-11.01244 14.509088-16.768992 17.762365-25.153489 26.643548-2.085742-1.583082-4.171483-3.166165-6.257224-4.749248z" fill="url(#radialGradient99221)" fill-rule="evenodd" stroke="#000" stroke-width="1.232"/>
      <path d="m45.850795 101.86837c-1.911906 5.04528-1.733058 10.3669-5.735712 15.13585-5.65259 6.73475-21.391925 9.41622-28.641299 3.64612 8.88158-1.29004 13.041553-8.00596 19.278311-13.7821 4.03262-3.73479 8.476258-5.99058 10.447682-8.580769 1.550341 1.193641 3.100678 2.387279 4.651018 3.580899z" fill="url(#linearGradient99223)" fill-rule="evenodd"/>
      <path d="m44.453546 101.98463c-1.174226 3.73332-3.239054 10.32252-5.784587 13.81042-3.594837 4.92565-16.622064 7.98845-21.774742 4.94781 6.521244-1.37644 10.881937-8.24982 14.747604-12.59847 1.366471-1.5372 8.55436-6.73456 9.804478-8.632736 1.031747.920596 1.9755 1.552376 3.007247 2.472976z" fill="url(#radialGradient99225)" fill-rule="evenodd"/>
      <path d="m47.828599 88.654348c6.298756-10.46427 7.883824-16.883712 18.896263-31.392804 11.012437-14.509091 31.513408-37.058742 47.178358-55.661729.99774-1.18487109 3.31248-1.39375754 5.01058-.1048985 1.76286 1.338016 2.02846 3.7071783 1.24665 4.8541481-13.69784 20.0957734-29.908702 45.9018934-40.921138 60.4109834-11.01244 14.509088-16.768992 17.762365-25.153489 26.643548-2.085742-1.583082-4.171483-3.166165-6.257224-4.749248z" fill="url(#radialGradient99227)" fill-rule="evenodd" opacity=".293023"/>
      <path d="m115.34229.70121995c-.57567.15545427-1.06285.49628835-1.40582.90358805-9.52758 11.314523-29.970488 34.565412-39.501396 46.75512 2.427422-.553646 5.762903-1.447341 8.764084-4.006747 5.691346-4.853585 28.161942-35.5317158 31.676492-39.4198715 2.20773-2.4424119 3.89296-.2727667 5.68085-.2868247-.0419-1.0917123-.52155-2.3366197-1.62333-3.1728797-1.11438-.84581277-2.49186-1.06915914-3.59088-.77238515z" fill="url(#linearGradient99229)" fill-rule="evenodd" opacity=".869767"/>
      <path d="m105.86597 10.071687c-1.06246.823376-2.25359 2.033722-2.72667 3.157122l7.01141 5.35766 2.48775-3.295564zm6.03505 4.650381-2.48778 3.295563 2.45815 1.896133c.928-.691132 1.69858-2.166647 2.24198-3.475615z" fill="url(#radialGradient99231)"/>
      <path d="m47.828599 88.654348c6.298756-10.46427 7.883824-16.883712 18.896263-31.392804 11.012437-14.509091 31.513408-37.058742 47.178358-55.661729.99774-1.18487109 3.31248-1.39375754 5.01058-.1048985 1.76286 1.338016 2.02846 3.7071783 1.24665 4.8541481-13.69784 20.0957734-29.908702 45.9018934-40.921138 60.4109834-11.01244 14.509088-16.768992 17.762365-25.153489 26.643548-2.085742-1.583082-4.171483-3.166165-6.257224-4.749248z" fill="url(#linearGradient99233)" fill-rule="evenodd" opacity=".293023"/>
      <path d="m96.690617 37.565476c-.108526.144759-.164597.278541-.168242.401339-.0036.122826.04553.223282.147504.301398.101533.07779.210297.09831.326274.06157.115983-.03676.22823-.127503.33675-.272255.109143-.145583.165524-.279773.169168-.402591.0036-.122819-.04532-.223102-.146855-.300896-.101976-.07812-.210949-.0988-.326925-.06205-.115978.03674-.228538.127906-.337674.273488m-.18083-.138535c.22198-.296086.440357-.493931.655153-.593529.214786-.09959.400612-.0893.557453.03085.156414.119832.216231.297721.179459.533697-.03678.23597-.166151.502002-.388126.798094-.221356.29526-.439732.493105-.655148.593526-.214788.09959-.400388.08947-.55681-.03035-.156839-.120152-.216877-.298218-.180098-.534188.03739-.236794.166768-.502825.388117-.798098m2.172716-1.866518.972962-.260718-.370882.494729-.653324.177325.01053.680094-.372726.49718-.01479-1.017398-.934364.251429.371803-.495948.61418-.164596-.01023-.641015.373652-.498418.01318.977336m.02566-1.029152.389375-.519389.659257-.155314-.03034-.683613.390294-.520622.0337 1.130973.40768.312302-.35609.47499-.407667-.312321-1.086233.272994m3.6981-3.051941c-.0586.141603-.12804.28194-.20848.421002-.0805.139076-.17155.276465-.27329.41217-.22999.306785-.45712.515393-.68142.625847-.22471.110119-.4142.106085-.56845-.01208-.156-.119503-.21026-.304803-.16282-.555908.0474-.251112.19018-.535399.42817-.852875.0919-.122544.18579-.235122.28175-.337703.0966-.103418.19403-.195763.29241-.277092l.20027.153439c-.10776.0793-.20742.164151-.29901.254552-.091.08957-.17467.18537-.25112.287349-.14182.18917-.22339.356505-.24474.502011-.0211.14436.0199.256103.12319.335207.1024.07845.21848.08967.3482.03368.12972-.056.26272-.174876.39899-.356648.037-.04934.0697-.09615.0981-.140418.0286-.04541.0521-.08763.0705-.126646l-.18796-.143999-.21735.289932-.16721-.128103.55494-.740222.46535.356501m-.5831-1.103181.96096-1.281818.1886.144474-.60489.806842.1802.138041.56879-.758734.18861.144486-.56881.758729.22167.169812.62522-.83398.1886.144482-.98131 1.30897zm1.29484-1.727195.39769-.530496 1.16589-.161469-.66367-.508436.33758-.450296.96765.741303-.3977.530497-1.1659.161461.66369.508437-.33758.450302zm2.24191-2.990508.3977-.530484 1.16588-.161479-.66366-.508425.33758-.450311.96764.741305-.39769.530496-1.16591.161463.6637.508443-.33759.450295zm1.92661-2.606652c.13133-.175184.25889-.294994.38269-.35942.12444-.06524.22769-.06642.30979-.0035.0821.06289.10898.163123.0807.300698-.0283.137578-.10844.294369-.2404.470376-.13195.176013-.2599.296808-.3839.362375-.12336.06476-.2261.06568-.30819.0028-.0821-.06289-.10921-.163288-.0813-.301196.0285-.138731.10873-.29609.24067-.472102m.23272.978489.76117-1.015344.12963.09931-.76117 1.015341-.12963-.0993m-.12255-.894082c-.0518.06909-.0782.132974-.0794.191659-.00053.05787.0243.105996.0744.144395.0501.0384.10245.04936.15699.03287.0552-.01731.10863-.06051.16041-.129605.0512-.06826.0772-.131158.0782-.188694.002-.05835-.0227-.106731-.0728-.14513-.0501-.03839-.10297-.04911-.15856-.03212-.055.01616-.10804.05837-.15923.126634m2.42497-2.492905c.10997-.11128.20995-.182942.29995-.214989.0902-.0332.16748-.02514.23186.02419.0959.07348.11653.199335.0618.377551-.0551.177886-.1832.400894-.3842.669018-.0709.09458-.14624.186439-.22598.27555-.0787.08863-.16085.173291-.2465.253982l-.19251-.147473c.0899-.07095.17362-.145383.25108-.223296.0776-.07907.14821-.160959.21172-.245672.0944-.125836.15503-.230838.18208-.315004.0277-.08499.0201-.143858-.0227-.176636-.0441-.03376-.10323-.02471-.17749.02717-.0741.05072-.16136.143114-.26187.277172l-.14243.189994-.16073-.123136.14983-.199855c.0894-.119263.14628-.215535.1706-.28883.0239-.07362.0158-.125824-.0244-.156603-.0372-.02847-.0872-.02211-.15003.01909-.0628.04119-.13312.113607-.2108.217234-.0574.07649-.11077.157279-.16027.242363-.0495.08509-.0944.173072-.13463.263951l-.18276-.140014c.0565-.104349.11577-.205236.17792-.302649.0621-.09742.12651-.190527.19309-.279364.17943-.239326.33427-.402334.46455-.488993.13046-.08781.23716-.09994.32011-.03639.0566.04337.0818.107334.0755.191884-.007.08422-.0443.187476-.11285.309763" fill="#999"/>
      <path d="m45.850795 101.86837c-1.911906 5.04528-1.733058 10.3669-5.735712 15.13585-5.65259 6.73475-14.041104-4.41612-8.009923-10.40659 4.03262-4.0054 7.123193-5.71997 9.094617-8.310159 1.550341 1.193641 3.100678 2.387279 4.651018 3.580899z" fill="url(#linearGradient99235)" fill-rule="evenodd"/>
      <g transform="matrix(.99990862 -.01351876 .01351876 .99990862 -.45278 -.68673)">
        <path d="m38.34944 98.879422c.751011-1.450103 1.895586-3.192465 3.027228-4.145441l6.412295 5.187625-3.199247 3.950744zm5.560223 4.449478 3.19925-3.95078 2.266831 1.81152c-.626426 1.2552-2.096426 2.66359-3.415851 3.76577z" fill="url(#radialGradient99237)"/>
        <path d="m41.361775 94.94897c.746637-1.453636 1.888528-3.198165 3.024064-4.148003l6.52432 5.278231-3.199564 3.950502zm5.656954 4.52771 3.199556-3.95053 2.306244 1.843402c-.622393 1.258459-2.095991 2.663928-3.420035 3.762378z" fill="url(#radialGradient99239)"/>
        <path d="m44.345464 90.914825c.737901-1.460703 1.874426-3.209577 3.017737-4.153123l6.748372 5.459444-3.200191 3.949994zm5.850403 4.684175 3.200183-3.95003 2.385064 1.907161c-.614324 1.264978-2.095127 2.664625-3.428391 3.755622z" fill="url(#radialGradient99241)"/>
        <path d="m47.385861 86.950051c.733532-1.46424 1.86737-3.215282 3.014569-4.155681l6.860405 5.550042-3.20051 3.949749zm5.947126 4.762406 3.200498-3.949777 2.424476 1.939032c-.610288 1.26824-2.094701 2.664978-3.432577 3.752246z" fill="url(#radialGradient99243)"/>
        <path d="m50.41561 82.77934c-1.111349.911013-2.222017 2.602204-2.956499 4.037011l-.09357-.06297c-1.107583.914062-2.217891 2.605539-2.956497 4.03701l-.03395.0028c-1.089405.911249-2.171914 2.582859-2.918393 3.998402l-.09357-.06297c-1.131642.952977-2.251889 2.697034-3.002898 4.147137l6.245645 5.00016 1.35296 1.09048c1.319431-1.10219 2.806202-2.53846 3.432627-3.79366l-.153181-.12879c1.290777-1.082291 2.681424-2.455868 3.284367-3.675001l-.123373-.09588c1.322309-1.085948 2.782454-2.467493 3.390379-3.7193l-.182987-.161704c1.315547-1.077056 2.7547-2.43887 3.352276-3.680689l-1.689125-1.380973z" fill="url(#linearGradient99245)"/>
      </g>
    </g>
  </g>
</svg>
