<svg height="256" width="256" xmlns="http://www.w3.org/2000/svg" xmlns:xlink="http://www.w3.org/1999/xlink">
  <defs>
    <linearGradient id="linearGradient3218" gradientTransform="matrix(6.2566 0 0 5.3334 -19.517797 -21.512)" gradientUnits="userSpaceOnUse" spreadMethod="reflect" x1="15.574" x2="23.577999" y1="46.971001" y2="46.971001">
      <stop offset="0" stop-color="#fff" stop-opacity="0"/>
      <stop offset="1" stop-color="#fff"/>
    </linearGradient>
    <linearGradient id="linearGradient7136">
      <stop offset="0" stop-color="#fff"/>
      <stop offset="1" stop-color="#fff" stop-opacity="0"/>
    </linearGradient>
    <filter id="filter4815" height="1.155942" width="1.028254" x="-.014127" y="-.077971">
      <feGaussianBlur stdDeviation=".10541021"/>
    </filter>
    <filter id="filter4828" height="1.282926" width="1.056692" x="-.028346" y="-.141463">
      <feGaussianBlur stdDeviation=".20777372"/>
    </filter>
    <linearGradient id="linearGradient5033" gradientTransform="matrix(1.9065995 0 0 2.5585829 -58.870448 -156.78957)" gradientUnits="userSpaceOnUse" spreadMethod="reflect" x1="57.036041" x2="66.102737" y1="104.63879" y2="104.68102">
      <stop offset="0" stop-color="#bdc1c6"/>
      <stop offset=".24639483" stop-color="#f4f5f5"/>
      <stop offset=".38530767" stop-color="#9da5ac"/>
      <stop offset="1" stop-color="#8b96a1"/>
    </linearGradient>
    <linearGradient id="linearGradient5037" gradientTransform="matrix(1.8976532 0 0 2.5284087 -58.279262 -154.68669)" gradientUnits="userSpaceOnUse" x1="63.951206" x2="63.951206" y1="103.02646" y2="106.44762">
      <stop offset="0" stop-color="#b1b4b9"/>
      <stop offset="1" stop-color="#737980"/>
    </linearGradient>
    <clipPath id="clipPath4836">
      <path d="m78.208799 125.29709c0 2.06963-6.251186 3.7474-13.962415 3.7474-7.71123 0-13.962416-1.67777-13.962416-3.7474 0-.0188.000561-1.03917.0017-1.0587.11686-2.04255 6.322538-2.68869 13.960738-2.68869 7.653669 0 13.869011.65281 13.961373 2.7011.000695.0147-.01444 1.04629.001 1.04629z"/>
    </clipPath>
    <filter id="filter4854" height="1.037075" width="1.006262" x="-.003131" y="-.018537">
      <feGaussianBlur stdDeviation=".036447204"/>
    </filter>
    <linearGradient id="linearGradient2142" gradientUnits="userSpaceOnUse" x1="63.07880722742" x2="63.07880722742" y1="91.99999955654" y2="91.00000019224">
      <stop offset="0" stop-color="#5f656d"/>
      <stop offset="1" stop-color="#afb1b7"/>
    </linearGradient>
    <linearGradient id="linearGradient2144" gradientTransform="matrix(.79591837 0 0 1 13.112245 0)" gradientUnits="userSpaceOnUse" spreadMethod="reflect" x1="52.646282" x2="52.646282" y1="76.900963" y2="89.869804">
      <stop offset="0" stop-color="#cacaca"/>
      <stop offset=".61419845" stop-color="#aaadb3"/>
      <stop offset="1" stop-color="#cbcbcb"/>
    </linearGradient>
    <linearGradient id="linearGradient2146" gradientUnits="userSpaceOnUse" x1="54.86359" x2="67.444374" xlink:href="#linearGradient7136" y1="99.162399" y2="102.53341"/>
    <linearGradient id="linearGradient2148" gradientTransform="matrix(.79591837 0 0 1 13.112245 0)" gradientUnits="userSpaceOnUse" x1="66.555794" x2="66.555794" xlink:href="#linearGradient4904" y1="94.48008" y2="112.18031"/>
    <linearGradient id="linearGradient4904">
      <stop offset="0" stop-color="#80868c"/>
      <stop offset="1" stop-color="#80868c" stop-opacity="0"/>
    </linearGradient>
    <linearGradient id="linearGradient2150" gradientUnits="userSpaceOnUse" x1="67.444374" x2="67.444374" xlink:href="#linearGradient7136" y1="95.443077" y2="102.53341"/>
    <linearGradient id="linearGradient2152" gradientTransform="matrix(.79591837 0 0 1 13.112245 0)" gradientUnits="userSpaceOnUse" x1="68.332626" x2="68.332626" xlink:href="#linearGradient4904" y1="105.93135" y2="95.804237"/>
    <linearGradient id="linearGradient2154" gradientTransform="matrix(.79591837 0 0 1 13.112245 0)" gradientUnits="userSpaceOnUse" x1="52.945469" x2="68.332626" xlink:href="#linearGradient4904" y1="102.875" y2="95.804237"/>
    <linearGradient id="linearGradient2156" gradientTransform="matrix(.79591837 0 0 1 13.112245 0)" gradientUnits="userSpaceOnUse" x1="68.332626" x2="68.332626" xlink:href="#linearGradient7136" y1="103.21993" y2="101.56419"/>
    <linearGradient id="linearGradient4894" gradientUnits="userSpaceOnUse" x1="74.78125" x2="74.78125" xlink:href="#linearGradient5127" y1="84.432274" y2="92.5"/>
    <linearGradient id="linearGradient5127">
      <stop offset="0" stop-color="#141518"/>
      <stop offset=".41744292" stop-color="#141518" stop-opacity=".74902"/>
      <stop offset=".46940547" stop-color="#141518" stop-opacity=".498039"/>
      <stop offset=".56372547" stop-color="#141518" stop-opacity=".247059"/>
      <stop offset=".67094404" stop-color="#141518" stop-opacity=".121569"/>
      <stop offset="1" stop-color="#141518" stop-opacity="0"/>
    </linearGradient>
    <radialGradient id="radialGradient21210" cx="63.071262" cy="-8.361158" gradientTransform="matrix(2 0 0 1.3956543 -.003194 27.5331)" gradientUnits="userSpaceOnUse" r="61.843754">
      <stop offset="0" stop-color="#f6f6f6"/>
      <stop offset="1" stop-color="#ccc"/>
    </radialGradient>
    <linearGradient id="linearGradient4898" gradientTransform="matrix(1 0 0 -1 0 106.24806)" gradientUnits="userSpaceOnUse" x1="110.2377" x2="12.362701" y1="82.125" y2="-9.046475">
      <stop offset="0" stop-color="#1d1e23"/>
      <stop offset=".5" stop-color="#101113"/>
      <stop offset="1" stop-color="#26292e"/>
    </linearGradient>
    <filter id="filter6186" height="1.002717" width="1.001892" x="-.000946" y="-.001359">
      <feGaussianBlur stdDeviation=".0441875"/>
    </filter>
    <linearGradient id="linearGradient4900" gradientTransform="matrix(2.1092076 0 0 2.1367524 -6.781562 -14.87893)" gradientUnits="userSpaceOnUse" x1="84.361366" x2="42.887676" xlink:href="#linearGradient7136" y1="29.365416" y2="18.252573"/>
    <linearGradient id="linearGradient5006" gradientTransform="matrix(2.223528 0 0 2.25416 -14.374352 -20.53781)" gradientUnits="userSpaceOnUse" x1="82.44709" x2="82.44709" y1="87.650002" y2="21.826469">
      <stop offset="0" stop-color="#101010"/>
      <stop offset="1" stop-color="#494949"/>
    </linearGradient>
    <filter id="filter7497" height="1.133899" width="1.03292" x="-.01646" y="-.06695">
      <feGaussianBlur stdDeviation=".036652415"/>
    </filter>
    <clipPath id="clipPath7399">
      <rect height="73" rx="0" width="96" x="165.90663" y="29.000002"/>
    </clipPath>
    <filter id="filter5885" height="1.028152" width="1.021409" x="-.010705" y="-.014076">
      <feGaussianBlur stdDeviation=".46554058"/>
    </filter>
    <linearGradient id="linearGradient4957" gradientTransform="matrix(2.3193384 0 0 2.3105142 -20.543068 -21.6649)" gradientUnits="userSpaceOnUse" x1="80.264381" x2="38.917843" xlink:href="#linearGradient7136" y1="26.93886" y2="17.18886"/>
    <radialGradient id="radialGradient4950" cx="54.5" cy="94.107132" gradientTransform="matrix(3.4481511 0 0 .77520873 -133.46976 -37.861473)" gradientUnits="userSpaceOnUse" r="4.865625" xlink:href="#linearGradient7136"/>
    <filter id="filter5224" height="2.996841" width="1.012574" x="-.006287" y="-.99842">
      <feGaussianBlur stdDeviation=".038984155"/>
    </filter>
    <radialGradient id="radialGradient4952" cx="54.5" cy="94.107132" gradientTransform="matrix(3.4481511 0 0 .77520873 -133.29299 22.21823)" gradientUnits="userSpaceOnUse" r="4.865625" xlink:href="#linearGradient7136"/>
    <mask id="mask5025" maskUnits="userSpaceOnUse">
      <path d="m31.90625 101c-.353347 0-2.094915.0395-2.8125 1.125-.04108.0622-.09117.11824-.125.1875l-7.0625 10.84375c-.738473 1.27897 1.576936 1.34375 2.03125 1.34375h80.125c.67483 0 2.76948-1.4632 2.03125-2.84375l-7.15625-9.5625c-.726436-1.06428-2.461513-1.09375-2.8125-1.09375zm32.34375 1.90625c7.675047 0 13.90625 1.64227 13.90625 3.6875s-6.231203 3.71875-13.90625 3.71875-13.875-1.67352-13.875-3.71875 6.199953-3.6875 13.875-3.6875z" fill="url(#linearGradient5029)" filter="url(#filter5021)" transform="matrix(1 0 0 -1 0 209.575)"/>
    </mask>
    <linearGradient id="linearGradient5029" gradientUnits="userSpaceOnUse" x1="92" x2="92" xlink:href="#linearGradient7136" y1="92" y2="117.0636"/>
    <filter id="filter5021" height="1.039876" width="1.006372" x="-.003186" y="-.019938">
      <feGaussianBlur stdDeviation=".11215092"/>
    </filter>
    <filter id="filter5003" height="1.053123" width="1.090912" x="-.045456" y="-.026561">
      <feGaussianBlur stdDeviation=".32371765"/>
    </filter>
    <linearGradient id="linearGradient4981" gradientTransform="matrix(.79591837 0 0 1 13.112245 0)" gradientUnits="userSpaceOnUse" x1="66.89119" x2="66.89119" y1="72" y2="103.07543">
      <stop offset="0" stop-color="#cacaca"/>
      <stop offset=".61419845" stop-color="#ebebeb"/>
      <stop offset="1" stop-color="#cbcbcb"/>
    </linearGradient>
    <linearGradient id="linearGradient4983" gradientTransform="matrix(.79591837 0 0 1 13.112245 0)" gradientUnits="userSpaceOnUse" x1="67" x2="67" xlink:href="#linearGradient4904" y1="89" y2="112"/>
    <clipPath id="clipPath5084">
      <path d="m73.526631 104.29872a8.9538164 1.7907633 0 1 1 -17.907632 0 8.9538164 1.7907633 0 1 1 17.907632 0z" transform="matrix(1.8976532 0 0 -2.5284087 -58.279262 363.83448)"/>
    </clipPath>
    <filter id="filter5102" height="1.054102" width="1.079192" x="-.039596" y="-.027051">
      <feGaussianBlur stdDeviation=".29023551"/>
    </filter>
    <linearGradient id="linearGradient5080" gradientUnits="userSpaceOnUse" x1="74.78125" x2="74.78125" xlink:href="#linearGradient5127" y1="86" y2="92.5"/>
    <filter id="filter5112" height="3.690625" width="1.077151" x="-.038575" y="-1.345313">
      <feGaussianBlur stdDeviation=".28027344"/>
    </filter>
    <linearGradient id="linearGradient1186" gradientUnits="userSpaceOnUse" x1="93.900282" x2="8.727372" y1="97.23372" y2="52.4195">
      <stop offset="0" stop-color="#fff" stop-opacity=".2"/>
      <stop offset="1" stop-color="#fff" stop-opacity=".1"/>
    </linearGradient>
    <linearGradient id="linearGradient1196" gradientUnits="userSpaceOnUse" x1="68.624906" x2="233.912418" y1="145.251442" y2="143.765558">
      <stop offset="0" stop-color="#fff" stop-opacity=".2"/>
      <stop offset="1" stop-color="#fff" stop-opacity="0"/>
    </linearGradient>
    <linearGradient id="linearGradient1206" gradientUnits="userSpaceOnUse" x1="234.094518" x2="65.797376" y1="55.291298" y2="144.912714">
      <stop offset="0" stop-color="#fff" stop-opacity=".15"/>
      <stop offset="1" stop-color="#fff" stop-opacity="0"/>
    </linearGradient>
    <filter id="filter1164" color-interpolation-filters="sRGB" height="1.229749" width="1.21643" x="-.108215" y="-.114875">
      <feGaussianBlur stdDeviation="1.5555933"/>
    </filter>
    <radialGradient id="radialGradient5988-0" cx="65.9431" cy="177.0983" fx="65.736488" fy="160.36913" gradientTransform="matrix(-1.0080606 .02253895 -.01326504 -.59328254 22.908382 107.41447)" gradientUnits="userSpaceOnUse" r="47.5">
      <stop offset="0" stop-color="#7fa9fa"/>
      <stop offset=".26238" stop-color="#1f52ef"/>
      <stop offset=".66093999" stop-color="#1946d5"/>
      <stop offset="1" stop-color="#163eb5"/>
    </radialGradient>
    <linearGradient id="linearGradient3895-3" gradientUnits="userSpaceOnUse" x1="-42.29726651861" x2="-35.76810819856" y1="29.89633019115" y2="36.81557260561">
      <stop offset="0" stop-color="#f7f7f7"/>
      <stop offset=".52275378" stop-color="#f0f0f0"/>
      <stop offset=".72337759" stop-color="#e7e6e6"/>
      <stop offset=".89024991" stop-color="#d9d7d7"/>
      <stop offset="1" stop-color="#b1aeae"/>
    </linearGradient>
    <filter id="filter8682" color-interpolation-filters="sRGB" height="1.376779" width="1.391503" x="-.195752" y="-.188389">
      <feGaussianBlur stdDeviation="2.9278198"/>
    </filter>
    <linearGradient id="linearGradient566" gradientUnits="userSpaceOnUse" spreadMethod="reflect" x1="64.492081" x2="64.492081" y1="83.273643" y2="83.705124">
      <stop offset="0" stop-color="#a5acb2"/>
      <stop offset=".64333254" stop-color="#bdc1c7"/>
      <stop offset=".88042605" stop-color="#33373c"/>
      <stop offset="1"/>
    </linearGradient>
    <mask id="mask605" maskUnits="userSpaceOnUse">
      <g transform="matrix(1 0 0 -1 0 209.9)">
        <path d="m78.154328 107.09675a13.896901 3.7032106 0 1 1 -27.793802 0 13.896901 3.7032106 0 1 1 27.793802 0z" fill="url(#linearGradient611)" fill-rule="evenodd"/>
      </g>
    </mask>
    <linearGradient id="linearGradient611" gradientTransform="matrix(1.5520646 0 0 2.0679509 -35.963753 -108.58788)" gradientUnits="userSpaceOnUse" x1="68.272774" x2="67.628471" xlink:href="#linearGradient7136" y1="102.02212" y2="108.07214"/>
  </defs>
  <path d="m73.526631 104.29872a8.9538164 1.6218115 0 1 1 -17.907632 0 8.9538164 1.6218115 0 1 1 17.907632 0z" fill-rule="evenodd" filter="url(#filter4815)" opacity=".818182" transform="matrix(3.7954084 0 0 5.3928284 -116.59212 -341.30416)"/>
  <g transform="matrix(4 0 0 4 -128.5016 -214.51542)">
    <path d="m71 99.875 1.795918 3.525h-8.545918-9.045918l1.795918-3.525z" fill="#7d8389" fill-rule="evenodd" filter="url(#filter4828)" mask="url(#mask605)" opacity=".298636" transform="matrix(1 0 0 -1 0 209.9)"/>
    <path d="m81.315386 111.29001c0 2.53047-7.643099 4.58182-17.07134 4.58182-9.428242 0-17.071341-2.05135-17.071341-4.58182 0-.023.000686-2.27055.0021-2.29443.14288-2.49735 7.730338-3.28736 17.069289-3.28736 9.357864 0 16.957138.79816 17.070066 3.30253.00085.018-.01765 2.27926.0012 2.27926z" fill="url(#linearGradient5033)" fill-rule="evenodd"/>
    <path d="m73.526631 104.29872a8.9538164 1.7907633 0 1 1 -17.907632 0 8.9538164 1.7907633 0 1 1 17.907632 0z" fill="#fff" fill-rule="evenodd" transform="matrix(1.9065995 0 0 2.5585829 -58.870448 -157.78957)"/>
    <path d="m81.24878 109.0231a16.991238 4.5277815 0 1 1 -33.982471 0 16.991238 4.5277815 0 1 1 33.982471 0z" fill="url(#linearGradient5037)" fill-rule="evenodd"/>
    <path d="m64.227999 104.50322c-8.932854 0-16.22129 1.80784-16.964473 4.12649.874058-2.28317 8.127158-4.05007 16.964473-4.05007 8.837316 0 16.128796 1.7669 17.002854 4.05007-.743181-2.31865-8.069999-4.12649-17.002854-4.12649z" fill-opacity=".485714" fill-rule="evenodd" opacity=".290909"/>
    <path clip-path="url(#clipPath4836)" d="m50.28125 125.0619c-.001.12268 0 .98231 0 1 0 2.06963 6.25752 3.71875 13.96875 3.71875 7.711229 0 13.96875-1.64912 13.96875-3.71875-.01453 0-.000948-.88024 0-1 0 2.06963-6.257521 3.71875-13.96875 3.71875-7.71123 0-13.96875-1.64912-13.96875-3.71875z" fill-rule="evenodd" filter="url(#filter4854)" opacity=".181818" transform="matrix(1.2226638 0 0 1.2226638 -14.294174 -41.906767)"/>
  </g>
  <g transform="matrix(2 0 0 2 -.000002 5.8406)">
    <path d="m58.463938 80v14.757537l-.583273 4.392463h6.369335 6.369335l-.583273-4.392463v-14.757537h-5.786062zm3.636317 1.026559h2.149745 1.823583v9.0247h-3.973328z" fill="url(#linearGradient2142)" fill-rule="evenodd"/>
    <path d="m56 76.75v19.625l-.78125 6.125h8.53125 9.03125l-.78125-6.125v-19.625h-8.25zm5 1.375h2.75 3.25v13.875h-6z" fill="url(#linearGradient2144)" fill-rule="evenodd"/>
    <path d="m72 96.475.795918 6.025h-8.545918-9.045918l.795918-6.025z" fill="url(#linearGradient2146)" fill-rule="evenodd" opacity=".45"/>
    <path d="m72 96.375.795918 6.125h-8.545918-9.045918l.795918-6.125z" fill="url(#linearGradient2148)" fill-rule="evenodd" opacity=".45"/>
    <path d="m71.960937 96.334375.834981 6.165625h-8.545918-9.045918l.795918-6.126563z" fill="url(#linearGradient2150)" fill-rule="evenodd" opacity=".45"/>
    <path d="m72 96.375.795918 6.125h-8.545918-9.045918l.795918-6.125z" fill="url(#linearGradient2152)" fill-rule="evenodd" opacity=".45"/>
    <path d="m72 96.375.795918 6.125h-8.545918-9.045918l.795918-6.125z" fill="url(#linearGradient2154)" fill-rule="evenodd" opacity=".45"/>
    <path d="m72 97.789214.795918 4.710786h-8.545918-9.045918l.795918-4.710786z" fill="url(#linearGradient2156)" fill-rule="evenodd" opacity=".304545"/>
    <path d="m56 76.75v19.625l-.78125 6.125h.03125l.78125-6.125v-19.625zm15.96875 0v19.625l.78125 6.125h.0313l-.7813-6.125v-19.625h-.0313z" fill-opacity=".622857" fill-rule="evenodd" opacity=".359091"/>
    <path d="m56 76.75v16.195621h16v-16.195621h-8.25zm5 1.375h2.75 3.25v13.875h-6z" fill="url(#linearGradient4894)" fill-rule="evenodd" opacity=".890909"/>
  </g>
  <path d="m14.312498 8.5281c-4.9788095 0-8.9999995 4.02119-8.9999995 9v3.25 146.125 3.3125c0 4.97881 4.02119 8.9375 8.9999995 8.9375h227.375002c4.9788 0 9-3.95869 9-8.9375v-152.6875c0-4.97881-4.0212-9-9-9z" fill-rule="evenodd" stroke="url(#radialGradient21210)" stroke-width="3"/>
  <path d="m9.25 11.9375c-.4270534 0-.7568164.142635-.96875.34375s-.34375.467228-.34375.96875v2.84375 69.75 2.84375c0 .757756.5547428 1.3125 1.3125 1.3125h109.5c.27365 0 .62452-.155611.90625-.46875s.40625-.776819.40625-.84375v-2.84375-69.75-2.84375c0-.75775-.55476-1.3125-1.3125-1.3125z" fill="url(#linearGradient4898)" fill-rule="evenodd" filter="url(#filter6186)" transform="matrix(2.1092076 0 0 2.0733474 -6.992482 -11.89612)"/>
  <path d="m11.792648 12.85447c-1.149258 0-2.0431475.85334-2.0432955 2.20293v156.34335l2.7683355 4.0819h52.532452l92.47557-162.62818z" fill="url(#linearGradient4900)" fill-rule="evenodd" opacity=".5"/>
  <rect fill="url(#linearGradient5006)" fill-rule="evenodd" height="138.63081" opacity=".840909" rx="0" width="213.45869" x="21.202097" y="24.545372"/>
  <g transform="matrix(2 0 0 -2 277.15696 124.00664)">
    <path d="m-20.875229 17.94691c0 4.46531-3.067448 5.978576-5.549678 7.662246-5.10854 3.46508-13.669156 1.756744-19.450326 1.837764-.081 5.78116 1.723142 12.231893-1.741938 17.340433-1.68367 2.48224-4.847792 5.659577-7.758062 5.659577 2.31803 0 5.362366-1.284062 8.619056-3.526616 10.104559-6.957994 15.03341-9.944732 22.307358-20.156793 1.657576-2.32711 3.57359-4.340811 3.57359-8.816611z" filter="url(#filter1164)" opacity=".589952"/>
    <path d="m-127.15908-19.468185c-.33984 0-.5.234618-.5.5v67.032883c0 .82158.67932 1.499638 1.5 1.5l70.95606.0313c.05307.000023 2.665808-.008 3.355424.00005 6.540972-4.50361 20.485281-17.193194 29.430511-26.195004 1.47685-1.65648.4576-2.194288 1.45391-3.431678l.00006-38.937501c0-.322718-.16322-.5-.5-.5z" fill="url(#radialGradient5988-0)"/>
    <path d="m111.74121 82.014226c-1.04722 3.891721-4.0502 8.263596-6.53243 9.947269-5.10854 3.465079-15.027614 2.360476-20.808784 2.441496-.081 5.781159 1.736656 12.777239-1.728424 17.885779-1.68367 2.48224-3.390858 5.541-6.753357 6.98251 3.287943.16189 6.063853-.0135 9.31062-2.90464 9.501888-8.46107 14.387682-12.5972 23.248245-21.123751 3.77962-3.637144 3.38615-7.995019 3.26413-13.228663z" filter="url(#filter8682)" opacity=".4" transform="translate(-132.87524 -69.556071)"/>
    <path d="m-21.179267 18.642872c0 4.46531-2.79749 6.40996-5.27972 8.09363-5.10854 3.46508-10.939114 3.32536-16.720284 3.40638-.081 5.78116.16586 9.504599-3.29922 14.613139-1.68367 2.48224-5.29051 5.386871-8.20078 5.386871 2.31803 0 4.443926-1.681712 7.58402-4.084811 9.539351-7.30042 13.204684-10.484303 21.673154-19.297529 1.979575-2.060165 4.24283-3.64188 4.24283-8.11768z" fill="url(#linearGradient3895-3)"/>
    <path d="m-21.160517 19.352392c-.31643 3.8991-3.52291 5.90281-5.85 7.48125-5.10854 3.46508-11.33758 2.32523-17.11875 2.40625-.081 5.78116.85258 10.316459-2.6125 15.424999-1.473211 2.17196-4.099456 4.6601-6.7625 5.250001 1.980459-.362301 3.884931-1.661391 6.26875-3.968751.339117-.38853.574297-.67895 1.10625-1.5 3.46508-5.10854 2.923687-8.465719 3.004687-14.246879 5.78117-.081 11.718023.21196 16.826563-3.25312.46542-.31569 1.59399-1.18775 2.00625-1.6 1.53629-1.53629 2.90171-2.61342 3.13125-5.99375zm-32.34375 30.5625c-.157658.0349-.313437.0414-.46875.0625.156991-.0169.310443-.0335.46875-.0625z" fill="#fff"/>
  </g>
  <g transform="matrix(2.4269702 0 0 2.3857078 -26.203524 -26.53235)">
    <g filter="url(#filter7497)" stroke="#000" stroke-linecap="round" stroke-linejoin="round" stroke-width="0" transform="matrix(1.8247035 0 0 1.8247035 -52.398467 -69.035703)">
      <path d="m61.363611 82.433983c-.25688 0-.40962.182246-.40962.487726 0 .307215.15274.487726.411356.487726.25688 0 .411356-.182246.411356-.480783 0-.315894-.149268-.494669-.413092-.494669zm.0017.133647c.163154 0 .260352.133648.260352.359286 0 .215224-.10067.348872-.260352.348872-.161418 0-.260352-.133648-.260352-.354079s.09893-.354079.260352-.354079z" opacity=".427273"/>
      <path d="m62.316498 82.899145.30548-.439127h-.163154l-.218696.329779-.218695-.329779h-.16489l.303744.44607-.321101.463426h.16489l.230845-.348871.227374.348871h.168361z" opacity=".427273"/>
      <path d="m63.37179 82.460018-.251673.708158-.232582-.708158h-.154475l.307215.912968-.05554.144061c-.0243.06422-.05554.08852-.116291.08852-.0243 0-.04513-.0035-.07637-.01041v.130176c.02951.01562.05901.02256.0972.02256.04686 0 .0972-.01562.135383-.04339.04513-.03298.07116-.07116.09893-.144062l.404413-1.100421z" opacity=".427273"/>
      <path d="m64.232687 82.460018v.131912c-.0729-.109348-.15274-.157947-.267295-.157947-.220431 0-.373171.20481-.373171.496404 0 .15274.03645.263824.114555.355815.06769.07984.154475.123233.248202.123233.109348 0 .187453-.0486.263823-.163154v.04686c0 .242995-.06769.33325-.248202.33325-.123233 0-.187453-.0486-.201339-.15274h-.147533c.01389.168361.147533.274238.345401.274238.133647 0 .244731-.04339.303744-.116291.06943-.08505.09546-.197867.09546-.411356v-.760228zm-.25341.107612c.15274 0 .239524.128441.239524.359286 0 .220431-.08852.348872-.239524.348872-.149268 0-.236052-.130176-.236052-.354079 0-.222167.08678-.354079.236052-.354079z" opacity=".427273"/>
      <path d="m65.378236 82.963365c0-.138854-.01041-.222167-.03645-.289858-.05901-.149269-.197867-.239524-.367964-.239524-.253409 0-.416563.19266-.416563.492933s.156211.482519.413092.482519c.208281 0 .352343-.118026.388792-.315894h-.145797c-.03992.119762-.121498.182247-.237788.182247-.09199 0-.170097-.04166-.218696-.118026-.03471-.05207-.04686-.104141-.0486-.194397zm-.666501-.118026c.01215-.168361.114555-.277709.260352-.277709.147533 0 .249938.114555.249938.277709z" opacity=".427273"/>
      <path d="m65.574368 82.460018v.909496h.145797v-.501611c0-.185718.0972-.307215.246467-.307215.114555 0 .187453.06943.187453.178775v.630051h.144062v-.687329c0-.151004-.11282-.248202-.288123-.248202-.135383 0-.222167.05207-.302009.178775v-.15274z" opacity=".427273"/>
      <path d="m61.363611 82.433983c-.25688 0-.40962.182246-.40962.487726 0 .307215.15274.487726.411356.487726.25688 0 .411356-.182246.411356-.480783 0-.315894-.149268-.494669-.413092-.494669zm.0017.133647c.163154 0 .260352.133648.260352.359286 0 .215224-.10067.348872-.260352.348872-.161418 0-.260352-.133648-.260352-.354079s.09893-.354079.260352-.354079z"/>
      <path d="m62.316498 82.899145.30548-.439127h-.163154l-.218696.329779-.218695-.329779h-.16489l.303744.44607-.321101.463426h.16489l.230845-.348871.227374.348871h.168361z"/>
      <path d="m63.37179 82.460018-.251673.708158-.232582-.708158h-.154475l.307215.912968-.05554.144061c-.0243.06422-.05554.08852-.116291.08852-.0243 0-.04513-.0035-.07637-.01041v.130176c.02951.01562.05901.02256.0972.02256.04686 0 .0972-.01562.135383-.04339.04513-.03298.07116-.07116.09893-.144062l.404413-1.100421z"/>
      <path d="m64.232687 82.460018v.131912c-.0729-.109348-.15274-.157947-.267295-.157947-.220431 0-.373171.20481-.373171.496404 0 .15274.03645.263824.114555.355815.06769.07984.154475.123233.248202.123233.109348 0 .187453-.0486.263823-.163154v.04686c0 .242995-.06769.33325-.248202.33325-.123233 0-.187453-.0486-.201339-.15274h-.147533c.01389.168361.147533.274238.345401.274238.133647 0 .244731-.04339.303744-.116291.06943-.08505.09546-.197867.09546-.411356v-.760228zm-.25341.107612c.15274 0 .239524.128441.239524.359286 0 .220431-.08852.348872-.239524.348872-.149268 0-.236052-.130176-.236052-.354079 0-.222167.08678-.354079.236052-.354079z"/>
      <path d="m65.378236 82.963365c0-.138854-.01041-.222167-.03645-.289858-.05901-.149269-.197867-.239524-.367964-.239524-.253409 0-.416563.19266-.416563.492933s.156211.482519.413092.482519c.208281 0 .352343-.118026.388792-.315894h-.145797c-.03992.119762-.121498.182247-.237788.182247-.09199 0-.170097-.04166-.218696-.118026-.03471-.05207-.04686-.104141-.0486-.194397zm-.666501-.118026c.01215-.168361.114555-.277709.260352-.277709.147533 0 .249938.114555.249938.277709z"/>
      <path d="m65.574368 82.460018v.909496h.145797v-.501611c0-.185718.0972-.307215.246467-.307215.114555 0 .187453.06943.187453.178775v.630051h.144062v-.687329c0-.151004-.11282-.248202-.288123-.248202-.135383 0-.222167.05207-.302009.178775v-.15274z"/>
    </g>
    <g transform="matrix(1.8247035 0 0 1.8247035 -52.398467 -69.161151)">
      <path d="m61.363611 82.433983c-.25688 0-.40962.182246-.40962.487726 0 .307215.15274.487726.411356.487726.25688 0 .411356-.182246.411356-.480783 0-.315894-.149268-.494669-.413092-.494669zm.0017.133647c.163154 0 .260352.133648.260352.359286 0 .215224-.10067.348872-.260352.348872-.161418 0-.260352-.133648-.260352-.354079s.09893-.354079.260352-.354079z" fill="url(#linearGradient566)"/>
      <path d="m62.316498 82.899145.30548-.439127h-.163154l-.218696.329779-.218695-.329779h-.16489l.303744.44607-.321101.463426h.16489l.230845-.348871.227374.348871h.168361z" fill="url(#linearGradient566)"/>
      <path d="m63.37179 82.460018-.251673.708158-.232582-.708158h-.154475l.307215.912968-.05554.144061c-.0243.06422-.05554.08852-.116291.08852-.0243 0-.04513-.0035-.07637-.01041v.130176c.02951.01562.05901.02256.0972.02256.04686 0 .0972-.01562.135383-.04339.04513-.03298.07116-.07116.09893-.144062l.404413-1.100421z" fill="url(#linearGradient566)"/>
      <path d="m64.232687 82.460018v.131912c-.0729-.109348-.15274-.157947-.267295-.157947-.220431 0-.373171.20481-.373171.496404 0 .15274.03645.263824.114555.355815.06769.07984.154475.123233.248202.123233.109348 0 .187453-.0486.263823-.163154v.04686c0 .242995-.06769.33325-.248202.33325-.123233 0-.187453-.0486-.201339-.15274h-.147533c.01389.168361.147533.274238.345401.274238.133647 0 .244731-.04339.303744-.116291.06943-.08505.09546-.197867.09546-.411356v-.760228zm-.25341.107612c.15274 0 .239524.128441.239524.359286 0 .220431-.08852.348872-.239524.348872-.149268 0-.236052-.130176-.236052-.354079 0-.222167.08678-.354079.236052-.354079z" fill="url(#linearGradient566)"/>
      <path d="m65.378236 82.963365c0-.138854-.01041-.222167-.03645-.289858-.05901-.149269-.197867-.239524-.367964-.239524-.253409 0-.416563.19266-.416563.492933s.156211.482519.413092.482519c.208281 0 .352343-.118026.388792-.315894h-.145797c-.03992.119762-.121498.182247-.237788.182247-.09199 0-.170097-.04166-.218696-.118026-.03471-.05207-.04686-.104141-.0486-.194397zm-.666501-.118026c.01215-.168361.114555-.277709.260352-.277709.147533 0 .249938.114555.249938.277709z" fill="url(#linearGradient566)"/>
      <path d="m65.574368 82.460018v.909496h.145797v-.501611c0-.185718.0972-.307215.246467-.307215.114555 0 .187453.06943.187453.178775v.630051h.144062v-.687329c0-.151004-.11282-.248202-.288123-.248202-.135383 0-.222167.05207-.302009.178775v-.15274z" fill="url(#linearGradient566)"/>
      <path d="m61.363611 82.433983c-.25688 0-.40962.182246-.40962.487726 0 .307215.15274.487726.411356.487726.25688 0 .411356-.182246.411356-.480783 0-.315894-.149268-.494669-.413092-.494669zm.0017.133647c.163154 0 .260352.133648.260352.359286 0 .215224-.10067.348872-.260352.348872-.161418 0-.260352-.133648-.260352-.354079s.09893-.354079.260352-.354079z" fill="#c4c7ce"/>
      <path d="m62.316498 82.899145.30548-.439127h-.163154l-.218696.329779-.218695-.329779h-.16489l.303744.44607-.321101.463426h.16489l.230845-.348871.227374.348871h.168361z" fill="#c4c7ce"/>
      <path d="m63.37179 82.460018-.251673.708158-.232582-.708158h-.154475l.307215.912968-.05554.144061c-.0243.06422-.05554.08852-.116291.08852-.0243 0-.04513-.0035-.07637-.01041v.130176c.02951.01562.05901.02256.0972.02256.04686 0 .0972-.01562.135383-.04339.04513-.03298.07116-.07116.09893-.144062l.404413-1.100421z" fill="#c4c7ce"/>
      <path d="m64.232687 82.460018v.131912c-.0729-.109348-.15274-.157947-.267295-.157947-.220431 0-.373171.20481-.373171.496404 0 .15274.03645.263824.114555.355815.06769.07984.154475.123233.248202.123233.109348 0 .187453-.0486.263823-.163154v.04686c0 .242995-.06769.33325-.248202.33325-.123233 0-.187453-.0486-.201339-.15274h-.147533c.01389.168361.147533.274238.345401.274238.133647 0 .244731-.04339.303744-.116291.06943-.08505.09546-.197867.09546-.411356v-.760228zm-.25341.107612c.15274 0 .239524.128441.239524.359286 0 .220431-.08852.348872-.239524.348872-.149268 0-.236052-.130176-.236052-.354079 0-.222167.08678-.354079.236052-.354079z" fill="#c4c7ce"/>
      <path d="m65.378236 82.963365c0-.138854-.01041-.222167-.03645-.289858-.05901-.149269-.197867-.239524-.367964-.239524-.253409 0-.416563.19266-.416563.492933s.156211.482519.413092.482519c.208281 0 .352343-.118026.388792-.315894h-.145797c-.03992.119762-.121498.182247-.237788.182247-.09199 0-.170097-.04166-.218696-.118026-.03471-.05207-.04686-.104141-.0486-.194397zm-.666501-.118026c.01215-.168361.114555-.277709.260352-.277709.147533 0 .249938.114555.249938.277709z" fill="#c4c7ce"/>
      <path d="m65.574368 82.460018v.909496h.145797v-.501611c0-.185718.0972-.307215.246467-.307215.114555 0 .187453.06943.187453.178775v.630051h.144062v-.687329c0-.151004-.11282-.248202-.288123-.248202-.135383 0-.222167.05207-.302009.178775v-.15274z" fill="#c4c7ce"/>
    </g>
  </g>
  <path clip-path="url(#clipPath7399)" d="m161.71875 25.8125v79.375h104.375v-79.375zm4.1875 3.1875h96v73h-96z" fill="#002540" fill-rule="evenodd" filter="url(#filter5885)" transform="matrix(2.2235278 0 0 1.8990025 -347.69586 -30.5257)"/>
  <path d="m21.205032 24.54538v138.63082l52.374384-.41992 78.264744-138.24881z" fill="url(#linearGradient4957)" fill-rule="evenodd" opacity=".090909"/>
  <path d="m71.33978 35.296527-15.287653-.0369-.09375.0937.08984.00001 15.28051-.0571z" fill="url(#radialGradient4950)" filter="url(#filter5224)" transform="matrix(2 0 0 2 .000003 128)"/>
  <path d="m71.516559 95.376225-14.787653-.03689-.09375.09375.08984.00001 14.78051-.05714z" fill="url(#radialGradient4952)" filter="url(#filter5224)" transform="matrix(-2 0 0 2 257.34156 7.8406)"/>
  <g transform="matrix(2 0 0 2 -51.999999 -2.1594)">
    <g filter="url(#filter5003)" mask="url(#mask5025)" opacity=".459091" transform="matrix(1 0 0 -1 26 212.975)">
      <path d="m57.5 76.75v20.625l-1.78125 6.625h8.53125 8.53125l-1.78125-6.625v-20.625h-6.75zm4.0625 1.375h2.6875 2.6875v12.875h-5.375z" fill="url(#linearGradient4981)" fill-rule="evenodd"/>
      <path d="m70 98.375 2.795918 7.625h-8.545918-8.545918l2.795918-7.625z" fill="url(#linearGradient4983)" fill-rule="evenodd" opacity=".45"/>
    </g>
    <g clip-path="url(#clipPath5084)" filter="url(#filter5102)" opacity=".854546" transform="matrix(1 0 0 -1 26 209.14779)">
      <path d="m58.463938 80v14.757537l-.583273 4.392463h6.369335 6.369335l-.583273-4.392463v-14.757537h-5.786062zm3.636317 1.026559h2.149745 1.823583v9.0247h-3.973328z" fill="url(#linearGradient2142)" fill-rule="evenodd"/>
      <path d="m56 76.75v19.625l-.78125 6.125h8.53125 9.03125l-.78125-6.125v-19.625h-8.25zm5 1.375h2.75 3.25v13.875h-6z" fill="url(#linearGradient2144)" fill-rule="evenodd"/>
      <path d="m72 96.475.795918 6.025h-8.545918-9.045918l.795918-6.025z" fill="url(#linearGradient2146)" fill-rule="evenodd" opacity=".45"/>
      <path d="m72 96.375.795918 6.125h-8.545918-9.045918l.795918-6.125z" fill="url(#linearGradient2148)" fill-rule="evenodd" opacity=".45"/>
      <path d="m71.960937 96.334375.834981 6.165625h-8.545918-9.045918l.795918-6.126563z" fill="url(#linearGradient2150)" fill-rule="evenodd" opacity=".45"/>
      <path d="m72 96.375.795918 6.125h-8.545918-9.045918l.795918-6.125z" fill="url(#linearGradient2152)" fill-rule="evenodd" opacity=".45"/>
      <path d="m72 96.375.795918 6.125h-8.545918-9.045918l.795918-6.125z" fill="url(#linearGradient2154)" fill-rule="evenodd" opacity=".45"/>
      <path d="m72 97.789214.795918 4.710786h-8.545918-9.045918l.795918-4.710786z" fill="url(#linearGradient2156)" fill-rule="evenodd" opacity=".304545"/>
      <path d="m56 76.75v19.625l-.78125 6.125h.03125l.78125-6.125v-19.625zm15.96875 0v19.625l.78125 6.125h.0313l-.7813-6.125v-19.625h-.0313z" fill-opacity=".622857" fill-rule="evenodd" opacity=".359091"/>
      <path d="m56 76.75v16.195621h16v-16.195621h-8.25zm5 1.375h2.75 3.25v13.875h-6z" fill="url(#linearGradient5080)" fill-rule="evenodd" opacity=".890909"/>
    </g>
    <rect fill-rule="evenodd" filter="url(#filter5112)" height=".5" opacity=".559091" width="17.4375" x="81.3125" y="106.7625"/>
  </g>
  <path d="m21.943016 25.3685v134.11172c42.667538-37.37779 66.973102-82.80172 78.014443-134.03798z" fill="url(#linearGradient1186)"/>
  <path d="m233.91242 124.95259v37.62592h-185.77319c57.71231-22.60078 119.63949-35.13611 185.77319-37.62592z" fill="url(#linearGradient1196)"/>
  <path d="m234.03842 35.589266v31.490306c-52.28978 34.387538-98.92823 69.601268-205.595302 96.039148 46.546494-50.81797 128.919972-88.097058 205.595302-127.529454z" fill="url(#linearGradient1206)"/>
  <path d="m81.050003 229h93.899997" fill="none" stroke="url(#linearGradient3218)" stroke-linecap="square" stroke-width="2"/>
</svg>
