<svg height="256" viewBox="0 0 256 256" width="256" xmlns="http://www.w3.org/2000/svg" xmlns:xlink="http://www.w3.org/1999/xlink">
  <defs>
    <filter id="filter1696" color-interpolation-filters="sRGB" height="1.641397" width="1.135583" x="-.067792" y="-.320699">
      <feGaussianBlur stdDeviation="1.4826726"/>
    </filter>
    <filter id="filter1704" color-interpolation-filters="sRGB" height="1.029715" width="1.083158" x="-.041579" y="-.014857">
      <feGaussianBlur stdDeviation=".17956475"/>
    </filter>
    <filter id="filter1192" color-interpolation-filters="sRGB" height="1.410755" width="1.248736" x="-.124304" y="-.205379">
      <feGaussianBlur stdDeviation="1.3730324"/>
    </filter>
    <filter id="filter1200" color-interpolation-filters="sRGB" height="1.045527" width="1.066349" x="-.033174" y="-.022763">
      <feGaussianBlur stdDeviation=".15155656"/>
    </filter>
    <linearGradient id="linearGradient163" gradientUnits="userSpaceOnUse" x1="12.170591" x2="42.980919" y1="242.07108" y2="276.95105">
      <stop offset="0" stop-color="#99e368"/>
      <stop offset="1" stop-color="#7cd245"/>
    </linearGradient>
  </defs>
  <g transform="matrix(3.77 0 0 3.77 30.40278 -853.46507)">
    <path d="m16.761255 291.26053c-1.744513 3.39257-11.9467225 2.8303-25.5798375 2.8303-13.6331155 0-25.7410275-1.53288-26.2044645-3.42453-.947714-3.86836-1.80366-7.59294 9.964985-7.6344 6.816515-.024 25.33770407.1365 34.0884046 1.95621 8.7507004 1.81971 8.1580594 5.44174 7.7309124 6.27242z" filter="url(#filter1696)" opacity=".499728" transform="matrix(.98842024 -.15174131 .15174131 .98842024 -8.730039 -2.800178)"/>
    <path d="m4.6234416 289.65326-3.76730315-3.7107-.2123703-48.34863c-.0172183-3.91995 3.13111775-7.62874 11.35400085-6.53712z" fill="#024c1c" stroke="#000" stroke-linejoin="round" stroke-width=".264583"/>
    <path d="m4.4577979 237.2465.1656437 52.40676 44.9652124-7.18106.0408-45.59041-37.631685-5.82498c-2.4474697-.37884-7.5554635 1.28973-7.5399761 6.18969z" fill="#66b036" stroke="#000" stroke-linejoin="round" stroke-width=".264583"/>
    <path d="m35.768816 243.84475 3.376535.12286-.01614 5.8066 3.257976.10008.0078 3.54292-3.370204-.0591-.120192 14.22339c-.0078.92053.264865 2.35824 1.651259 1.94009l2.014613-.3817.194123 2.95228-3.787148.67846c-2.842704.50927-4.941994-1.44685-4.941992-4.45152l.000009-15.35354-1.635586-.0389.09283-3.32336 1.992515.0965z" fill="#024c1c" filter="url(#filter1704)"/>
    <path d="m21.490169 245.89483c-3.538389-.14564-4.057732 6.97803-4.032198 11.91358.04544 8.78309 1.746144 13.34314 4.058693 13.37853 3.255041.0498 4.376634-5.70252 4.397684-13.50198.01969-7.29411-1.435475-11.66711-4.424179-11.79013zm-.251706-4.06379c10.094378.2491 10.026038 12.54714 10.111237 16.4595.240007 11.02112-3.995822 16.19503-7.043315 16.15465.159136 1.36304.393756 3.44789 3.43787 3.12279l.01418 3.80904c-7.296254.67028-8.721931-2.93186-8.725243-6.46287-5.808952-.77305-8.453159-6.70995-8.462559-15.66195-.01313-12.50311 3.183675-17.60585 10.66783-17.42116z" fill="#024c1c" filter="url(#filter1704)"/>
    <path d="m37.356317 243.84475 3.376535.12286-.01614 5.8066 3.257976.10008.0078 3.54292-3.370204-.0591-.120192 14.22339c-.0078.92053.264865 2.35824 1.651259 1.94009l2.014613-.3817.194123 2.95228-3.787148.67846c-2.842704.50927-4.941994-1.44685-4.941992-4.45152l.000009-15.35354-1.635586-.0389.09283-3.32336 1.992515.0965z" fill="#fff" stroke="url(#linearGradient163)" stroke-width=".264583"/>
    <path d="m23.07767 245.89483c-3.538389-.14564-4.057732 6.97803-4.032198 11.91358.04544 8.78309 1.746144 13.34314 4.058693 13.37853 3.255041.0498 4.376634-5.70252 4.397684-13.50198.01969-7.29411-1.435475-11.66711-4.424179-11.79013zm-.251706-4.06379c10.094378.2491 10.026038 12.54714 10.111237 16.4595.240007 11.02112-3.995822 16.19503-7.043315 16.15465.159136 1.36304.393756 3.44789 3.43787 3.12279l.01418 3.80904c-7.296254.67028-8.721931-2.93186-8.725243-6.46287-5.808952-.77305-8.453159-6.70995-8.462559-15.66195-.01313-12.50311 3.183675-17.60585 10.66783-17.42116z" fill="#fff" stroke="url(#linearGradient163)" stroke-width=".264583"/>
  </g>
  <g transform="matrix(3.77 0 0 3.77 -5.338402 -873.36171)">
    <path d="m38.202823 268.91331-7.936983 7.93698 8.096146 8.22689v-4.0876h18.252116v-8.47545h-18.411279zm19.949169 9.9782v3.44992l-18.439184.01v8.14317h18.346167v3.86746l7.781953-7.78143z" filter="url(#filter1192)" opacity=".5" stroke="#000" stroke-width="1.6" transform="translate(.644454 2.629342)"/>
    <path d="m30.265683 276.85046 7.937388-7.93739v3.60102h18.410938v8.47551h-18.252101v4.08755z" fill="#055e29" stroke="#fff" stroke-width="1.6"/>
    <path d="m39.712892 282.35125v8.14299h18.346327v3.8679l7.781872-7.78187-7.688955-7.68896v3.45009z" fill="#1e1261" stroke="#fff" stroke-width="1.6"/>
    <path d="m51.735417 289.80954q-.0425-.15936-.106244-.79683-.05312-.64808-.05312-1.07306h-.0425q-.966817 2.08238-3.67603 2.08238-2.008005 0-3.102315-1.56178-1.094309-1.57241-1.094309-4.38787 0-2.85795 1.147431-4.40911 1.158056-1.56178 3.272304-1.56178 1.221802 0 2.103625.50997.892446.50997 1.370543 1.51928h.02125l-.02125-1.89113v-4.19663h2.985446v13.25921q0 1.06244.08499 2.50735zm-.138117-5.81153q0-1.85926-.626837-2.85795-.616213-1.00932-1.827391-1.00932-1.200553 0-1.784893.97745-.58434.96681-.58434 2.96419 0 3.90977 2.347984 3.90977 1.179305 0 1.827391-1.03056.648086-1.04119.648086-2.95358z" filter="url(#filter1200)" opacity=".5"/>
    <path d="m51.206251 289.28037q-.0425-.15936-.106244-.79683-.05312-.64808-.05312-1.07306h-.0425q-.966817 2.08238-3.67603 2.08238-2.008005 0-3.102315-1.56178-1.094309-1.57241-1.094309-4.38786 0-2.85795 1.147431-4.40911 1.158056-1.56178 3.272304-1.56178 1.221802 0 2.103625.50997.892446.50997 1.370543 1.51928h.02125l-.02125-1.89113v-4.19663h2.985446v13.25921q0 1.06244.08499 2.50735zm-.138117-5.81153q0-1.85926-.626837-2.85794-.616213-1.00932-1.827391-1.00932-1.200553 0-1.784893.97744-.58434.96681-.58434 2.9642 0 3.90976 2.347984 3.90976 1.179305 0 1.827391-1.03055.648086-1.0412.648086-2.95359z" fill="#fff"/>
  </g>
</svg>
