<svg height="256" viewBox="0 0 256 256" width="256" xmlns="http://www.w3.org/2000/svg" xmlns:xlink="http://www.w3.org/1999/xlink">
  <defs>
    <linearGradient id="lg1">
      <stop offset="0" stop-color="#fff"/>
      <stop offset="1" stop-color="#fff" stop-opacity="0"/>
    </linearGradient>
    <linearGradient id="linearGradient3996" xlink:href="#lg1"/>
    <linearGradient id="linearGradient3912" gradientUnits="userSpaceOnUse" x1="79.82045" x2="79.82045" y1="-32.079426" y2="203.27065">
      <stop offset="0"/>
      <stop offset="1" stop-opacity="0"/>
    </linearGradient>
    <filter id="filter3884" height="1.03445" width="1.03445" x="-.017225" y="-.017225">
      <feGaussianBlur stdDeviation="1.3492823"/>
    </filter>
    <linearGradient id="linearGradient3914" gradientUnits="userSpaceOnUse" x1="66.619331" x2="66.619331" y1="-31.00098" y2="164.58943">
      <stop offset="0" stop-color="#e9e9e9"/>
      <stop offset=".31598574" stop-color="#fff"/>
      <stop offset="1" stop-color="#fff"/>
    </linearGradient>
    <linearGradient id="linearGradient3916" gradientUnits="userSpaceOnUse" x1="66" x2="66" y1="157" y2="-31">
      <stop offset="0" stop-color="#f6f6f6"/>
      <stop offset=".3583397" stop-color="#bcb9b8"/>
      <stop offset=".43154052" stop-color="#312e2d"/>
      <stop offset=".47642162" stop-color="#9b9493"/>
      <stop offset=".56865364" stop-color="#fff"/>
      <stop offset=".71001911" stop-color="#d3d3d3"/>
      <stop offset=".8135038" stop-color="#ada7a3"/>
      <stop offset="1" stop-color="#fff"/>
    </linearGradient>
    <radialGradient id="radialGradient3918" cx="66" cy="63" fx="69.022705" fy="109.85191" gradientTransform="matrix(1.026526 -.00000003 .00000003 1.026526 -1.750717 -1.671135)" gradientUnits="userSpaceOnUse" r="94">
      <stop offset="0" stop-color="#393939" stop-opacity="0"/>
      <stop offset=".64334816" stop-color="#393939" stop-opacity=".092683"/>
      <stop offset=".92916411" stop-color="#393939" stop-opacity=".572549"/>
      <stop offset="1"/>
    </radialGradient>
    <clipPath id="clipPath3809">
      <circle cx="66" cy="63" filter="url(#filter3801)" r="94" transform="matrix(1.0192088 0 0 1.0192088 -1.267779 -1.210152)"/>
    </clipPath>
    <filter id="filter3801" height="1.183732" width="1.183732" x="-.091866" y="-.091866">
      <feGaussianBlur stdDeviation="7.1961722"/>
    </filter>
    <linearGradient id="linearGradient3930" gradientUnits="userSpaceOnUse" x1="83.56278798795" x2="114.90954485868" xlink:href="#linearGradient3996" y1="36.60176156198" y2="185.54270485751"/>
    <radialGradient id="radialGradient3927" cx="125.5041" cy="167.16315" gradientTransform="matrix(.8923782 0 0 .62782401 13.506977 32.759565)" gradientUnits="userSpaceOnUse" r="92.861908" xlink:href="#linearGradient3996"/>
    <filter id="filter4076" height="1.031485" width="3.810074" x="-1.405037" y="-.015743">
      <feGaussianBlur stdDeviation=".58543213"/>
    </filter>
    <filter id="filter4062" height="1.341229" width="1.02425" x="-.012125" y="-.170615">
      <feGaussianBlur stdDeviation=".49762598"/>
    </filter>
    <linearGradient id="linearGradient4012" gradientTransform="matrix(.77099945 -.6368358 .6368358 .77099945 -57.36699 112.713568)" gradientUnits="userSpaceOnUse" x1="211.94576" x2="134.93153" y1="115.60049" y2="134.33568">
      <stop offset="0" stop-color="#a2a2a2"/>
      <stop offset="1" stop-color="#eaeaea"/>
    </linearGradient>
    <filter id="filter4070" height="1.611491" width="1.056546" x="-.028273" y="-.305745">
      <feGaussianBlur stdDeviation=".89175739"/>
    </filter>
    <linearGradient id="linearGradient4038" gradientUnits="userSpaceOnUse" x1="75.865326" x2="134.54863" y1="109.63228" y2="109.63228">
      <stop offset="0" stop-color="#e9e9e6"/>
      <stop offset="1" stop-color="#fff"/>
    </linearGradient>
    <radialGradient id="radialGradient4040" cx="66" cy="63" fx="68.168884" fy="4.440037" gradientUnits="userSpaceOnUse" r="94" xlink:href="#linearGradient3939"/>
    <linearGradient id="linearGradient3939">
      <stop offset="0" stop-color="#515151"/>
      <stop offset="1"/>
    </linearGradient>
    <filter id="filter4056" height="1.218182" width="1.218182" x="-.109091" y="-.109091">
      <feGaussianBlur stdDeviation="8.5454545"/>
    </filter>
    <radialGradient id="radialGradient4110" cx="123.99960216" cy="212.00044888" fx="124.07179945006" fy="210.05111888605" gradientUnits="userSpaceOnUse" r="3.12904944" xlink:href="#linearGradient3939"/>
    <radialGradient id="radialGradient4114" cx="66" cy="63" fx="68.168884" fy="4.440037" gradientTransform="matrix(0 .03328776 -.03328776 0 38.971695 122.67762)" gradientUnits="userSpaceOnUse" r="94" xlink:href="#linearGradient3939"/>
    <radialGradient id="radialGradient4118" cx="66" cy="63" fx="68.168884" fy="4.440037" gradientTransform="matrix(0 .03328776 -.03328776 0 213.2217 122.67762)" gradientUnits="userSpaceOnUse" r="94" xlink:href="#linearGradient3939"/>
    <filter id="filter2826" height="1.096" width="1.096" x="-.048" y="-.048">
      <feGaussianBlur stdDeviation="2.40001"/>
    </filter>
    <radialGradient id="radialGradient2894" cx="59.5107" cy="124" gradientTransform="matrix(1.9007067 0 0 1.9007225 13.956647 12.055919)" gradientUnits="userSpaceOnUse" r="125.1714">
      <stop offset=".1775" stop-color="#f0f0f0"/>
      <stop offset=".5325" stop-color="#a5a5bb"/>
    </radialGradient>
    <linearGradient id="linearGradient2896" gradientTransform="matrix(1.9007067 0 0 1.9007225 13.956647 12.055919)" gradientUnits="userSpaceOnUse" x1="60.0005" x2="60.0005" xlink:href="#lg1" y1="12.8452" y2="120.2141"/>
    <linearGradient id="linearGradient2898" gradientTransform="matrix(1.9007067 0 0 1.9007225 13.956647 12.055919)" gradientUnits="userSpaceOnUse" x1="60.0015" x2="60.0015" y1="94" y2="26.0005">
      <stop offset=".2959" stop-color="#fff"/>
      <stop offset="1" stop-color="#4a4a55"/>
    </linearGradient>
    <linearGradient id="linearGradient2900" gradientUnits="userSpaceOnUse" x1="128.00094708375" x2="128.00094708375" y1="186.922389" y2="65.27709936125">
      <stop offset=".1953" stop-color="#e9e9f0"/>
      <stop offset=".2597" stop-color="#dadae2"/>
      <stop offset=".461" stop-color="#b1b1bb"/>
      <stop offset=".6437" stop-color="#93939f"/>
      <stop offset=".7999" stop-color="#81818e"/>
      <stop offset=".9112" stop-color="#7a7a88"/>
      <stop offset="1" stop-color="#696975"/>
    </linearGradient>
    <linearGradient id="linearGradient2902" gradientTransform="matrix(1.9007067 0 0 1.9007225 13.956647 12.055919)" gradientUnits="userSpaceOnUse" x1="60.0015" x2="60.0015" y1="86" y2="34.0005">
      <stop offset="0" stop-color="#bbb"/>
      <stop offset="1" stop-color="#555"/>
    </linearGradient>
  </defs>
  <path d="m265.71479-171.21229v-12.002l-12.439-.415c-.552-4.127-1.622-8.089-3.153-11.816l10.555-6.572-6-10.394-10.981 5.861c-2.503-3.236-5.408-6.142-8.645-8.645l5.861-10.981-10.393-5.999-6.572 10.555c-3.728-1.532-7.689-2.603-11.817-3.155l-.416-12.439h-12l-.415 12.439c-4.128.552-8.09 1.623-11.817 3.154l-6.572-10.554-10.393 6 5.861 10.981c-3.236 2.503-6.142 5.409-8.646 8.646l-10.981-5.861-6 10.392 10.556 6.573c-1.532 3.727-2.603 7.689-3.154 11.817l-12.439.413-.001 12 12.44.415c.552 4.128 1.623 8.09 3.154 11.817l-10.555 6.573 5.999 10.393 10.983-5.862c2.503 3.236 5.409 6.143 8.646 8.646l-5.862 10.982 10.392 6 6.573-10.557c3.727 1.531 7.689 2.603 11.817 3.154l.414 12.439h12l.415-12.439c4.128-.552 8.09-1.622 11.816-3.154l6.572 10.556 10.393-6-5.861-10.983c3.235-2.503 6.142-5.409 8.645-8.645l10.981 5.861 6.001-10.393-10.556-6.572c1.531-3.727 2.603-7.688 3.154-11.816zm-60 23.998c-16.542 0-30-13.458-30-30s13.458-30 30-30 30 13.458 30 30-13.458 30-30 30z" filter="url(#filter2826)" transform="matrix(1.9007067 0 0 1.9007225 -263.00253 464.83518)"/>
  <path d="m242.04335 137.50741v-22.81248l-23.64289-.7888c-1.04919-7.84428-3.08295-15.37494-5.99293-22.458933l20.06196-12.491548-11.40424-19.75611-20.87166 11.140135c-4.75747-6.150738-10.27902-11.674238-16.43161-16.431746l11.14004-20.871834-19.75404-11.402434-12.49145 20.062126c-7.08583-2.911907-14.61453-4.947581-22.46065-5.99678l-.79069-23.643087h-22.80848l-.78879 23.643087c-7.84612 1.049199-15.37672 3.084873-22.460655 5.994879l-12.491444-20.060225-19.754045 11.404335 11.140042 20.871834c-6.150687 4.757508-11.674141 10.281008-16.43351 16.433646l-20.871661-11.140134-11.40424 19.752308 20.06386 12.493449c-2.911882 7.083993-4.947539 14.614652-5.994829 22.460842l-23.64289.78499-.0019 22.80867 23.644791.7888c1.04919 7.84619 3.084847 15.37685 5.994829 22.46084l-20.061959 12.49345 11.402339 19.75421 20.875462-11.14204c4.757469 6.15074 10.280923 11.67614 16.43351 16.43365l-11.141942 20.87374 19.752144 11.40433 12.493345-20.06593c7.083933 2.91001 14.614533 4.94758 22.460653 5.99488l.78689 23.64309h22.80848l.78879-23.64309c7.84612-1.0492 15.37672-3.08297 22.45875-5.99488l12.49145 20.06403 19.75404-11.40434-11.14004-20.87563c6.14879-4.75751 11.67414-10.28101 16.43161-16.43175l20.87166 11.14014 11.40614-19.75421-20.06386-12.49155c2.90998-7.08399 4.94754-14.61275 5.99483-22.45894zm-114.0424 45.61353c-31.441491 0-57.021201-25.57992-57.021201-57.02167 0-31.441752 25.57971-57.021676 57.021201-57.021676 31.44149 0 57.0212 25.579924 57.0212 57.021676 0 31.44175-25.57971 57.02167-57.0212 57.02167z" fill="url(#radialGradient2894)" stroke-width="1.90071"/>
  <path d="m118.43469 13.956642c-.10454 3.126688-.72607 21.806989-.72607 21.806989-.0304.927552-.72797 1.697345-1.64791 1.820892-7.58192 1.013085-14.97947 2.987936-21.989276 5.869431-.859119.353535-1.847487.03421-2.335968-.752686 0 0-9.866569-15.848224-11.520184-18.501633-2.455713 1.417939-14.112747 8.148398-16.56846 9.566337 1.473048 2.759849 10.275221 19.250517 10.275221 19.250517.152056.283208.224283.591125.224283.89334 0 .572117-.258496 1.134731-.737474 1.505372-6.019538 4.65677-11.434652 10.071928-16.091383 16.091517-.566411.733678-1.581388.950361-2.398692.515095 0 0-16.492432-8.802246-19.250357-10.275306-1.417928 2.455734-8.14833 14.112865-9.566257 16.568599 2.653386 1.653628 18.501479 11.520279 18.501479 11.520279.572112.357335.897133.97507.897133 1.615614 0 .241391-.04562.486585-.142553.722274-2.883372 7.011766-4.858206 14.411277-5.869382 21.989457-.121645.91995-.893332 1.61752-1.820877 1.64793 0 0-18.680145.62344-21.806808.72607v6.0272c16.878276 3.40039 34.843755 6.01008 53.463078 7.78345-.114042-1.94634-.245191-4.24811-.245191-4.24811 0-32.489051 26.433128-58.922398 58.921908-58.922398 32.49068 0 58.92191 26.433347 58.92191 58.922398 0 0-.13305 2.32458-.24519 4.27853 18.60601-1.75817 36.56959-4.35646 53.46497-7.74355 0-1.68594 0-4.19679 0-6.09942-3.12666-.10454-21.8068-.72607-21.8068-.72607-.92755-.0304-1.69923-.72798-1.82088-1.64793-1.01308-7.58008-2.98791-14.977692-5.86748-21.987557-.0969-.235689-.14255-.478982-.14255-.720374 0-.640543.32502-1.258278.89713-1.615614 0 0 15.84619-9.86665 18.49958-11.520279-1.41793-2.455733-8.14833-14.114765-9.56626-16.570499-2.75793 1.47116-19.25036 10.275306-19.25036 10.275306-.8173.435266-1.83038.218583-2.39869-.515095-4.65673-6.021489-10.07184-11.436648-16.08948-16.091517-.48088-.370641-.73938-.931354-.73938-1.505372 0-.304116.0722-.610132.22429-.89334 0 0 8.80217-16.490668 10.27332-19.250517-2.45572-1.417939-14.11275-8.150299-16.56846-9.568237-1.65362 2.653408-11.52209 18.501632-11.52209 18.501632-.49038.786899-1.47685 1.106221-2.33597.752686-7.0117-2.881495-14.41115-4.856346-21.99117-5.869431-.91804-.123547-1.6175-.893339-1.64601-1.820892 0 0-.62344-18.680301-.72797-21.806989-2.83206.0019-16.29286.0019-19.12872.0019z" fill="url(#linearGradient2896)" stroke-width="1.90071"/>
  <path d="m128.00095 61.474704c-35.68957 0-64.624028 28.934699-64.624028 64.624566 0 35.69177 28.934458 64.62456 64.624028 64.62456 35.69147 0 64.62403-28.93279 64.62403-64.62456 0-35.689867-28.93256-64.624566-64.62403-64.624566zm0 112.142626c-26.20124 0-47.517668-21.3166-47.517668-47.51806s21.316428-47.518063 47.517668-47.518063 47.51767 21.316603 47.51767 47.518063-21.31643 47.51806-47.51767 47.51806z" fill="url(#linearGradient2898)" stroke-width="1.90071"/>
  <path d="m128 65.276149c-33.538256 0-60.823128 27.284872-60.823128 60.823121 0 33.53825 27.284872 60.82312 60.823128 60.82312 33.53824 0 60.82311-27.28487 60.82311-60.82312 0-33.538249-27.28487-60.823121-60.82311-60.823121zm0 108.341181c-26.20147 0-47.518067-21.3166-47.518067-47.51806s21.316597-47.518063 47.518067-47.518063c26.20145 0 47.51805 21.316603 47.51805 47.518063s-21.3166 47.51806-47.51805 47.51806z" fill="url(#linearGradient2900)" stroke-width="1.90071"/>
  <path d="m128.00095 76.680484c-27.24853 0-49.418375 22.170027-49.418375 49.418786 0 27.25066 22.169845 49.41878 49.418375 49.41878 27.25043 0 49.41837-22.16812 49.41837-49.41878 0-27.248759-22.16794-49.418786-49.41837-49.418786zm0 95.036126c-25.15205 0-45.616961-20.46508-45.616961-45.61734s20.464911-45.617341 45.616961-45.617341 45.61696 20.465081 45.61696 45.617341-20.46491 45.61734-45.61696 45.61734z" fill="url(#linearGradient2902)" stroke-width="1.90071"/>
  <path d="m43.022254 161.11248-19.487946 12.13421.8078 1.39703 19.25606-11.98976c-.209078-.50559-.378241-1.03209-.575914-1.54148z" fill="#fff" stroke-width="1.90071"/>
  <path d="m80.855821 23.534382 12.491444 20.062126c7.083935-2.911907 14.614535-4.94758 22.460655-5.994878l.78879-23.644988h22.80848l.78879 23.643087c7.84612 1.049199 15.37672 3.084872 22.46065 5.996779l12.49145-20.062126 18.97665 10.959566.77549-1.454052-19.75024-11.406236-12.49145 20.062126c-7.08583-2.911907-14.61453-4.947581-22.46065-5.99678l-.79069-23.643087h-22.80848l-.78879 23.643087c-7.84612 1.049199-15.37672 3.084873-22.460655 5.994879l-12.491444-20.060225-19.754045 11.404335.775488 1.454053z" fill="#fff" stroke-width="1.90071"/>
  <path d="m184.46334 54.49335-.70326 1.319102c6.15069 4.757508 11.67414 10.281008 16.43161 16.431746l20.87166-11.140135 10.59644 18.357178.8078-.503691-11.40424-19.75611-20.87166 11.140135c-4.5731-5.907446-9.86467-11.219965-15.72835-15.848225z" fill="#fff" stroke-width="1.90071"/>
  <path d="m71.540457 199.60971-10.43678 19.55463.775488.44667 10.366454-19.42158c-.241389-.18437-.465673-.39345-.705162-.57972z" fill="#fff" stroke-width="1.90071"/>
  <path d="m211.59593 128.72987c-.74888 45.47098-37.94951 82.23856-83.59498 82.23856-45.647372 0-82.846103-36.76758-83.594982-82.23856-.0076.46378-.03611.92565-.03611 1.39133 0 46.11533 37.516149 83.63179 83.631092 83.63179 46.11495 0 83.63109-37.51646 83.63109-83.63179 0-.46568-.0285-.92755-.0361-1.39133z" fill="#fff" opacity=".5" stroke-width="1.90071"/>
  <path d="m218.40046 113.90804c-.97506-7.28547-2.83015-14.282034-5.41701-20.917456l-.57782.359237c2.90998 7.083989 4.94564 14.612759 5.99293 22.458939l23.64479.7869v-1.90073z" fill="#fff" stroke-width="1.90071"/>
  <path d="m212.40373 162.65396 19.25606 11.98976.8078-1.39703-19.48604-12.13421c-.20148.50939-.36874 1.03589-.57782 1.54148z" fill="#fff" stroke-width="1.90071"/>
  <path d="m34.938548 61.102163 20.87166 11.140134c4.757469-6.150738 10.280923-11.674237 16.433511-16.433647l-.705163-1.319101c-5.861779 4.628259-11.157148 9.940779-15.728348 15.850125l-20.87166-11.140135-11.40424 19.752309.8078.503691z" fill="#fff" stroke-width="1.90071"/>
  <path d="m183.75818 200.18943 10.36455 19.41968.77549-.44667-10.43678-19.55273c-.23759.18627-.46187.39535-.70326.57972z" fill="#fff" stroke-width="1.90071"/>
  <path d="m13.958548 116.59566 23.64289-.7888c1.04729-7.84619 3.084847-15.37685 5.994829-22.460841l-.575914-.359236c-2.586862 6.635422-4.445753 13.633877-5.418915 20.919347l-23.64289.7888-.0019 22.80867z" fill="#fff" stroke-width="1.90071"/>
  <g transform="matrix(.66662554 0 0 .66662554 45.339378 42.771074)">
    <circle cx="66" cy="63" fill="url(#linearGradient3912)" filter="url(#filter3884)" r="94" transform="matrix(1.2180852 0 0 -1.2180852 43.606383 201.73937)"/>
    <circle cx="66" cy="63" fill="url(#linearGradient3914)" r="94" transform="matrix(1.2180852 0 0 -1.2180852 43.606383 201.73937)"/>
    <circle cx="66" cy="63" fill="url(#linearGradient3916)" r="94" transform="matrix(1.2065342 0 0 1.2065342 44.368744 48.988346)"/>
    <circle cx="124.0000066" cy="125.0000058" fill="#f5f5f5" r="100.3307684"/>
    <circle clip-path="url(#clipPath3809)" cx="66" cy="63" fill="url(#radialGradient3918)" filter="url(#filter3801)" opacity=".785366" r="102.98344" transform="matrix(1.0331959 0 0 1.0331959 55.809072 59.908659)"/>
    <path d="m124.02855 31.40778c-51.578537 0-93.38635 41.807813-93.38635 93.38635 0 7.9978 1.010735 15.7718 2.901936 23.18051.993948.005 1.974691.0349 2.971861.0349 75.284843 0 141.498243-14.81387 179.850013-37.27062-6.77575-44.9137-45.53382-79.331248-92.33746-79.331248z" fill="url(#linearGradient3930)"/>
    <path d="m124.02855 31.40778c-51.578537 0-93.38635 41.807813-93.38635 93.38635 0 7.9978 1.010735 15.7718 2.901936 23.18051.993948.005 1.974691.0349 2.971861.0349 75.284843 0 141.498243-14.81387 179.850013-37.27062-6.77575-44.9137-45.53382-79.331248-92.33746-79.331248z" fill="url(#radialGradient3927)"/>
    <path d="m113.60092 133.62346 75.94345-62.728326-67.73928 60.491346z"/>
    <rect fill-opacity=".485549" filter="url(#filter4076)" height="89.25" transform="matrix(-.87909978 .47663778 .47663778 .87909978 -1 1)" width="1" x="-49.884197" y="159.59009"/>
    <path d="m118.13605 121.79498-7.75 3.5 7.75 3.5 90.75-3.5z" filter="url(#filter4062)" opacity=".317073" transform="matrix(.77099945 -.6368358 .6368358 .77099945 -51.198994 107.618888)"/>
    <path d="m113.60092 133.62346 75.94345-62.728326-72.19713 55.094356z" fill="url(#linearGradient4012)"/>
    <path d="m118.01221 121.04894-7.75 3.5 7.75 3.5 67.94864-3.41001z" filter="url(#filter4070)" opacity=".326829" transform="matrix(-.77597265 -.63076655 .63076655 -.77597265 141.4478 300.237565)"/>
    <path d="m134.54863 133.54128-58.683304-47.818 54.877204 40.21365z" fill="url(#linearGradient4038)"/>
    <path d="m134.54863 133.44128-58.683305-47.718007 50.461845 45.645467z" fill="#090909"/>
    <circle cx="66" cy="63" fill="url(#radialGradient4040)" filter="url(#filter4056)" r="94" transform="matrix(.01664388 0 0 .01664388 122.90151 123.95145)"/>
    <rect fill="#b70000" height="89.25" transform="matrix(-.87909978 .47663778 .47663778 .87909978 0 0)" width="1" x="-49.884197" y="159.59009"/>
    <circle cx="66" cy="63" fill="url(#radialGradient4040)" r="94" transform="matrix(.01664388 0 0 .01664388 122.90151 123.95145)"/>
    <path d="m119.21875 35.990234c-.14368 0-.15719.02522-.23437.04883-.0772.02361-.17129.05398-.28126.0918-.21992.07564-.5009.177074-.80664.28125-.61148.208353-1.32743.430014-1.75195.488282a.32177063.32177063 0 0 0 -.0117.002c-.24056.04148-.54736.05072-.82226.0918-.13745.02054-.26923.04455-.4043.115234-.13507.07068-.29102.252547-.29102.453125 0 .151602.1024.342796.23829.421875.13588.07908.26408.08789.39648.08789.6862 0 1.30295-.101672 1.96289-.214844.008 1.544172.0586 3.080667.0586 4.611328 0 1.388189-.0109 3.677208-.0586 4.949219-.20406.01146-.41056.02042-.76172.04883-.48804.03949-1.02199.09388-1.40429.189453a.32177063.32177063 0 0 0 -.0234.0078c-.0919.03062-.15958.07726-.22266.148438-.0631.07118-.12305.177317-.12305.3125 0 .127206.0483.265116.14649.363281.0982.09817.23608.146485.36328.146485.16348 0 .53316-.02355 1.11133-.04687.57816-.02333 1.34061-.04687 2.20117-.04687.83211 0 1.56881.02356 2.125.04687.55619.02332.90501.04687 1.0625.04687.1272 0 .26511-.04832.36328-.146485.0982-.09817.14649-.236075.14649-.363281 0-.135183-.06-.241323-.12305-.3125-.0631-.07118-.1308-.117818-.22266-.148438a.32177063.32177063 0 0 0 -.0195-.0059c-.366-.09688-.87175-.151863-1.33594-.191406-.32963-.02808-.51975-.03735-.71289-.04883-.0644-1.267533-.0859-3.561711-.0859-4.949219 0-.822628.0234-2.183723.0469-3.378906.0234-1.195184.0469-2.203181.0469-2.402344 0-.149429-.01-.297241-.10352-.449219-.0938-.151977-.30046-.248047-.46875-.248047zm10.21875 0c-1.62106 0-2.85136.726405-3.66211 1.494141-.40538.383868-.70941.778786-.91601 1.109375-.10331.165294-.18205.314466-.23829.443359-.0562.128893-.0996.212252-.0996.369141 0 .126043.0663.26358.16407.341797.0978.07822.2108.105469.31445.105469.20797 0 .29977-.10829.37695-.1875.0772-.07921.14296-.167312.21875-.267578.1516-.200534.33264-.448621.56641-.691407.46753-.485572 1.12028-.947265 2.18164-.947265 1.50597 0 2.14648 1.004394 2.14648 1.958984 0 1.26629-.84295 2.748394-1.91015 4.058594s-2.33625 2.450194-3.10156 3.103515c-.26713.220932-.53084.4263-.73829.607422-.10432.09108-.19407.175698-.26953.263672-.0755.08797-.16797.167333-.16797.373047 0 .177114.1369.372205.27344.439453.13655.06725.25327.07031.36133.07031.21283 0 .82388-.04383 1.66406-.0625a.32177063.32177063 0 0 0 .006 0c.83416-.03707 1.88055-.03125 2.86133-.03125.9979 0 2.02459.03539 2.88477.08398.0261.177189.0471.353479.0918.541016.0331.138815.0711.269821.14258.396484.0715.126663.22151.291016.44336.291016.11779 0 .24909-.04401.3418-.136719.0927-.09271.13672-.224012.13672-.341797 0-.390316-.125-1.131674-.125-2.21875 0-.32919.0294-.827264.0605-1.273438.0311-.446173.0645-.819105.0645-1.007812 0-.08578.00073-.187542-.0625-.316406-.0632-.128864-.25398-.25586-.41602-.25586-.1739 0-.29624.113955-.35742.199219-.0612.08526-.095.168035-.125.257813-.06.179554-.0992.388433-.13281.611328-.0551.365077-.0852.70426-.11524.96289-.83495.245095-1.77889.425122-3.20703.564454-.66688.06284-1.38127.09152-2.07813.126953l.14844-.113282a.32177063.32177063 0 0 0 .006-.0059c.71878-.578758 2.20392-1.725676 3.51367-3.105469 1.30976-1.379792 2.48243-2.991094 2.48243-4.613281 0-.901692-.35609-1.718631-1.00782-2.292969-.65172-.574338-1.5854-.904297-2.7207-.904297z" fill="#fff"/>
    <path d="m117.4229 38.995302v9.209826h2.63676v-13.353306h-1.75156c-.41435 1.582056-1.78923 2.391918-4.08698 2.391918v1.751562z" fill="#282828"/>
    <path d="m133.05511 45.850878h-5.66903c.35785-.715692.77219-1.111206 2.73093-2.523756 2.31658-1.69506 2.99461-2.693262 2.99461-4.52016 0-2.580258-1.78923-4.23765-4.57667-4.23765-2.76859 0-4.38832 1.638558-4.38832 4.463658v.47085h2.54259v-.433182c0-1.487886.69686-2.35425 1.90224-2.35425 1.1677 0 1.8834.809862 1.8834 2.147076 0 1.487886-.45202 2.034072-3.42779 4.14348-2.26008 1.544388-2.95694 2.712096-3.06994 5.198184h9.07798z" fill="#282828"/>
    <path d="m123.91639 208.80586c-1.3228.016-2.56062.94334-2.9552 2.20162-.41216 1.21464.00092 2.64942.99852 3.45226.9864.846 2.51182.97624 3.63042.31296 1.11202-.62082 1.76756-1.94944 1.57426-3.21296-.168-1.36694-1.31496-2.52992-2.679-2.71746-.1874-.0304-.37884-.0412-.569-.0364z" fill="url(#radialGradient4110)" opacity=".62439"/>
    <path d="m40.069151 124.7914c-.0152-1.3228-.943344-2.56062-2.201614-2.9552-1.214646-.41216-2.64943.00092-3.452254.99852-.84601.9864-.97625 2.51182-.312964 3.63042.62081 1.11202 1.949426 1.76756 3.212958 1.57426 1.366932-.168 2.529922-1.31496 2.717466-2.679.0303-.1874.04124-.37884.0364-.569z" fill="url(#radialGradient4114)" opacity=".62439"/>
    <path d="m214.31916 124.7914c-.016-1.3228-.94334-2.56062-2.20162-2.9552-1.21464-.41216-2.64942.00092-3.45226.99852-.846.9864-.97624 2.51182-.31296 3.63042.62082 1.11202 1.94944 1.76756 3.21296 1.57426 1.36694-.168 2.52992-1.31496 2.71746-2.679.0304-.1874.0412-.37884.0364-.569z" fill="url(#radialGradient4118)" opacity=".62439"/>
  </g>
</svg>
