<?xml version="1.0" encoding="UTF-8" standalone="no"?>
<svg
   height="256"
   viewBox="0 0 256 256"
   width="256"
   version="1.1"
   id="svg514"
   sodipodi:docname="tenacity.svg"
   inkscape:version="1.2.2 (b0a8486541, 2022-12-01)"
   xmlns:inkscape="http://www.inkscape.org/namespaces/inkscape"
   xmlns:sodipodi="http://sodipodi.sourceforge.net/DTD/sodipodi-0.dtd"
   xmlns:xlink="http://www.w3.org/1999/xlink"
   xmlns="http://www.w3.org/2000/svg"
   xmlns:svg="http://www.w3.org/2000/svg">
  <sodipodi:namedview
     id="namedview516"
     pagecolor="#ffffff"
     bordercolor="#666666"
     borderopacity="1.0"
     inkscape:showpageshadow="2"
     inkscape:pageopacity="0.0"
     inkscape:pagecheckerboard="0"
     inkscape:deskcolor="#d1d1d1"
     showgrid="false"
     inkscape:zoom="1.9352554"
     inkscape:cx="32.812207"
     inkscape:cy="177.49595"
     inkscape:window-width="1920"
     inkscape:window-height="1006"
     inkscape:window-x="0"
     inkscape:window-y="0"
     inkscape:window-maximized="1"
     inkscape:current-layer="svg514" />
  <defs
     id="defs490">
    <linearGradient
       id="linearGradient849"
       gradientUnits="userSpaceOnUse"
       x1="239.7206"
       x2="37.130405"
       y1="31.850929"
       y2="240.78589"
       gradientTransform="translate(-8.5333646,-8.5333406)">
      <stop
         offset="0"
         stop-color="#f15048"
         id="stop421" />
      <stop
         offset="1"
         stop-color="#9f0221"
         id="stop423" />
    </linearGradient>
    <filter
       id="filter1211"
       color-interpolation-filters="sRGB"
       height="2.3591891"
       width="1.172918"
       x="-0.08645899"
       y="-0.67959456">
      <feGaussianBlur
         stdDeviation="7.8929016"
         id="feGaussianBlur426" />
    </filter>
    <linearGradient
       id="linearGradient1221"
       gradientUnits="userSpaceOnUse"
       x1="169.33821"
       x2="168.89346"
       y1="256.35059"
       y2="17.933674"
       gradientTransform="translate(-8.5333646,-8.5333406)">
      <stop
         offset="0"
         stop-color="#973232"
         stop-opacity=".862745"
         id="stop429" />
      <stop
         offset="1"
         stop-color="#d58181"
         stop-opacity=".654902"
         id="stop431" />
    </linearGradient>
    <linearGradient
       id="linearGradient1060"
       gradientUnits="userSpaceOnUse"
       x1="112.95094"
       x2="111.17986"
       y1="41.641415"
       y2="228.03903">
      <stop
         offset="0"
         stop-color="#fefefe"
         id="stop434" />
      <stop
         offset="1"
         stop-color="#e82020"
         id="stop436" />
    </linearGradient>
    <filter
       id="filter1062"
       color-interpolation-filters="sRGB"
       height="1.0842336"
       width="1.0844944"
       x="-0.042247178"
       y="-0.042116804">
      <feGaussianBlur
         stdDeviation="2.1005123"
         id="feGaussianBlur439" />
    </filter>
    <linearGradient
       id="linearGradient28743"
       gradientUnits="userSpaceOnUse"
       x1="131.59048"
       x2="142.04996"
       y1="57.978264"
       y2="210.63278">
      <stop
         offset="0"
         stop-color="#fff"
         id="stop442" />
      <stop
         offset="1"
         stop-color="#fff"
         stop-opacity="0"
         id="stop444" />
    </linearGradient>
    <radialGradient
       id="radialGradient28751"
       cx="136.96667"
       cy="178.91896"
       gradientTransform="matrix(2.4711956,0.01633525,-0.01077529,1.6300899,-199.57687,-148.22271)"
       gradientUnits="userSpaceOnUse"
       r="81.009621">
      <stop
         offset="0"
         stop-color="#fff"
         stop-opacity=".801229"
         id="stop447" />
      <stop
         offset="1"
         stop-color="#fff"
         stop-opacity="0"
         id="stop449" />
    </radialGradient>
    <radialGradient
       id="radialGradient28973"
       cx="137.00909"
       cy="181.25655"
       gradientTransform="matrix(1.9059834,0.00242988,-0.00118466,0.92923507,-123.91323,-23.854386)"
       gradientUnits="userSpaceOnUse"
       r="78.628151">
      <stop
         offset="0"
         stop-color="#fff"
         stop-opacity=".672717"
         id="stop452" />
      <stop
         offset="1"
         stop-color="#ffed7f"
         stop-opacity="0"
         id="stop454" />
    </radialGradient>
    <radialGradient
       id="radialGradient29288"
       cx="137.00909"
       cy="181.25655"
       gradientTransform="matrix(1.9059834,0.00242988,-0.00118466,0.92923507,-123.91323,-23.854386)"
       gradientUnits="userSpaceOnUse"
       r="78.628151">
      <stop
         offset="0"
         stop-color="#fff8d8"
         stop-opacity=".672717"
         id="stop457" />
      <stop
         offset="1"
         stop-color="#ffe35a"
         stop-opacity="0"
         id="stop459" />
    </radialGradient>
    <mask
       id="mask795"
       maskUnits="userSpaceOnUse">
      <ellipse
         cx="140.74217"
         cy="-147.17647"
         fill="url(#radialGradient799)"
         rx="95.578873"
         ry="70.817795"
         transform="scale(1,-1)"
         id="ellipse462" />
    </mask>
    <radialGradient
       id="radialGradient799"
       cx="140.74217"
       cy="149.08191"
       gradientTransform="matrix(0.99998808,-0.00488222,0.00371863,0.76165847,-0.552703,-260.03883)"
       gradientUnits="userSpaceOnUse"
       r="96.078873">
      <stop
         offset="0"
         stop-color="#fff"
         id="stop465" />
      <stop
         offset=".34743243"
         stop-color="#d9d9d9"
         id="stop467" />
      <stop
         offset="1"
         id="stop469" />
    </radialGradient>
    <linearGradient
       id="linearGradient948"
       gradientUnits="userSpaceOnUse"
       x1="35.732658"
       x2="240.06264"
       y1="149.63313"
       y2="149.63313"
       gradientTransform="translate(-8.5333646,-8.5333406)">
      <stop
         offset="0"
         stop-color="#fff"
         stop-opacity=".2"
         id="stop472" />
      <stop
         offset=".20018333"
         stop-color="#fff"
         id="stop474" />
      <stop
         offset=".7978738"
         stop-color="#fff"
         id="stop476" />
      <stop
         offset="1"
         stop-color="#fff"
         stop-opacity=".2"
         id="stop478" />
    </linearGradient>
    <radialGradient
       id="radialGradient1057"
       cx="100.413"
       cy="147.40152"
       gradientTransform="matrix(4.9564619,-0.00280308,9.95e-4,1.7593582,-413.1662,-148.30222)"
       gradientUnits="userSpaceOnUse"
       r="76.812576">
      <stop
         offset="0"
         stop-color="#fff"
         stop-opacity=".000631"
         id="stop481" />
      <stop
         offset=".3318018"
         stop-color="#fefefe"
         stop-opacity="0"
         id="stop483" />
      <stop
         offset=".61198831"
         stop-color="#fcfcfc"
         stop-opacity=".54902"
         id="stop485" />
      <stop
         offset="1"
         stop-color="#fbfbfb"
         stop-opacity=".798219"
         id="stop487" />
    </radialGradient>
    <radialGradient
       inkscape:collect="always"
       xlink:href="#radialGradient28751"
       id="radialGradient635"
       gradientUnits="userSpaceOnUse"
       gradientTransform="matrix(2.4711956,0.01633525,-0.01077529,1.6300899,-199.57687,-148.22271)"
       cx="136.96667"
       cy="178.91896"
       r="81.009621" />
    <linearGradient
       inkscape:collect="always"
       xlink:href="#linearGradient28743"
       id="linearGradient637"
       gradientUnits="userSpaceOnUse"
       x1="131.59048"
       y1="57.978264"
       x2="142.04996"
       y2="210.63278" />
    <radialGradient
       inkscape:collect="always"
       xlink:href="#radialGradient28751"
       id="radialGradient639"
       gradientUnits="userSpaceOnUse"
       gradientTransform="matrix(2.4711956,0.01633525,-0.01077529,1.6300899,-199.57687,-148.22271)"
       cx="136.96667"
       cy="178.91896"
       r="81.009621" />
    <linearGradient
       inkscape:collect="always"
       xlink:href="#linearGradient28743"
       id="linearGradient641"
       gradientUnits="userSpaceOnUse"
       x1="131.59048"
       y1="57.978264"
       x2="142.04996"
       y2="210.63278" />
  </defs>
  <rect
     filter="url(#filter1211)"
     height="27.873919"
     opacity="0.519466"
     rx="19.510765"
     ry="13.936959"
     transform="matrix(1.2,0,0,1.2,-35.840007,-36.521513)"
     width="219.09767"
     x="26.984505"
     y="217.18634"
     id="rect492" />
  <path
     d="m 43.0379,10.274601 h 169.92415 c 17.9496,0 32.4,14.4504 32.4,32.4 V 213.32535 c 0,17.9496 -14.4504,32.4 -32.4,32.4 H 43.0379 c -17.9496,0 -32.4,-14.4504 -32.4,-32.4 V 42.674601 c 0,-17.9496 14.4504,-32.4 32.4,-32.4 z"
     fill="url(#linearGradient849)"
     stroke="url(#linearGradient1221)"
     stroke-linecap="round"
     stroke-width="4.53544"
     id="path494"
     style="fill:url(#linearGradient849);stroke:url(#linearGradient1221)" />
  <path
     d="M 143.66983,11.680383 108.64285,129.61845 243.53071,79.601412 244.09539,41.123353 C 243.9445,27.204725 230.21247,12.028704 214.75438,11.804712 Z M 76.233608,11.673303 59.74521,129.37005 85.27568,129.10989 113.07987,11.841975 Z"
     fill="url(#radialGradient1057)"
     id="path496"
     style="fill:url(#radialGradient1057)" />
  <path
     d="M 69.054384,43.032967 H 204.01231 c 14.25601,0 25.73288,11.476861 25.73288,25.732874 V 204.30086 c 0,14.25601 -11.47687,25.73287 -25.73288,25.73287 H 69.054384 c -14.256012,0 -25.732874,-11.47686 -25.732874,-25.73287 V 68.765841 c 0,-14.256013 11.476862,-25.732874 25.732874,-25.732874 z"
     style="opacity:0.8;fill:none;stroke:url(#linearGradient1060);stroke-width:5.66929;stroke-linecap:round;filter:url(#filter1062)"
     transform="matrix(1.2050872,0,0,1.2050872,-36.534592,-36.534595)"
     id="path498" />
  <g
     transform="matrix(1.2,0,0,1.2,-35.840032,-35.840035)"
     id="g504">
    <path
       d="m 144.06924,57.231775 c -2.82956,3.756266 -1.01225,8.500056 -3.21851,12.488863 -1.40272,13.62476 -1.75535,27.303011 -3.41739,40.919942 -0.29876,1.25085 -0.0229,6.34 -1.38503,5.00431 -1.29268,1.25427 -1.95267,-0.8282 -2.18028,2.5429 -0.62366,1.58671 -1.99504,-5.15684 -3.08155,-1.81253 -1.13928,1.12795 -2.39755,-4.47573 -2.67348,-0.0226 0.0508,3.48535 -1.95872,3.4742 -1.79552,0.0871 0.0557,-1.48159 -2.59726,-4.37728 -2.65246,-2.368 -1.405,3.57117 -1.00019,-0.70212 -2.35343,0.4323 -1.46961,1.07072 -0.96583,3.81991 -3.26709,3.78699 -0.24247,2.55544 -1.11741,4.91514 -1.33055,0.96187 -0.65432,-5.81955 -3.30201,-11.35148 -3.77512,-17.18215 -1.93991,-5.018401 -1.27783,-10.466235 -2.87662,-15.576322 -0.9666,3.683216 -1.22646,0.768272 -2.35523,0.410384 -0.77615,2.212655 -1.53109,4.303903 -2.87662,6.434625 -2.12957,-1.455141 -1.14339,-4.335466 -2.35523,-5.669873 -0.17688,4.477679 -2.24095,-0.919643 -2.41586,1.674143 -0.0646,3.144859 -0.886531,2.422423 -1.769621,3.934843 -1.6837,-1.567084 -1.34487,-4.109677 -2.35344,-5.542011 -1.27219,2.937529 -2.12368,0.128278 -2.87842,2.886083 -0.66749,-1.590402 -1.49821,-5.251947 -2.031928,-5.003913 -1.718436,4.920509 -2.068341,10.030364 -2.937426,15.047971 -1.703161,8.25636 -1.3609,16.66046 -3.52588,24.88312 -0.184546,2.13597 -0.475846,4.46541 -1.621391,4.4257 -0.433523,4.4407 -1.209518,-0.53714 -1.368033,-2.32191 -0.896742,-3.0797 -0.96953,2.88038 -1.855658,2.81524 -0.16805,-1.98566 -1.007907,-6.03852 -1.445775,-1.89994 -0.842544,3.66109 -0.477176,-4.68603 -1.599038,-2.12802 -0.994427,3.34792 -2.752285,0.0591 -2.915895,2.82993 -0.406982,-1.30729 -3.310459,-2.48026 -2.888381,0.61414 -0.991828,1.52408 -1.89481,-1.78663 -1.991609,-3.40959 -1.132799,-0.73314 -0.12613,3.93265 -1.947712,4.2556 -1.671051,2.39619 -2.134626,-2.01781 -3.084127,-2.90405 -0.844515,-1.8518 -1.091704,1.9555 -1.915759,-0.16254 -0.841024,4.00808 -1.401292,8.06305 -2.39838,12.01101 v 7.88591 H 220.49923 c -0.19931,-3.19721 0.58054,-6.50453 -0.82883,-9.59105 -1.23212,3.49849 -0.38683,-2.15488 -2.35343,-2.59625 -1.61183,-0.20344 -0.72028,-3.79512 -2.09275,-5.01838 -1.62462,2.23981 -2.61777,0.46181 -2.84026,-1.92682 -0.6602,-4.20386 -0.8394,2.59413 -1.8684,1.63457 -0.82474,0.0519 -1.14059,5.5948 -1.83205,1.01561 -0.36084,-2.09861 -2.02353,1.14603 -2.61593,-1.3712 -1.78055,-0.18511 -1.16408,-5.72151 -2.32854,-3.79329 -0.62782,1.69622 -1.63777,3.25267 -2.38012,5.00739 -0.91965,-1.00764 -0.92358,-7.2754 -1.68802,-3.73008 -0.15943,2.13921 -0.79086,5.82566 -1.1886,1.70131 -1.00546,-2.00891 -0.77,4.75813 -1.83205,2.8605 0.35908,-4.12447 -2.59561,0.98646 -2.67553,-2.84826 -0.6199,-2.78006 -0.0819,-6.08654 -1.82991,-8.40254 -0.35494,-4.30815 -1.16068,-8.53779 -2.81915,-12.69028 -0.80844,-1.89031 -1.77769,-3.83852 -2.61592,-5.64796 -0.31128,3.09134 -2.8592,-2.11993 -2.57687,2.06773 -0.94897,0.72422 -1.98762,-4.815801 -2.3925,-1.1057 -0.66285,3.25051 -1.98103,-3.295481 -3.31508,-0.2679 -0.52655,3.92967 -1.03609,0.6424 -1.39538,-1.47106 -1.91564,0.53073 -2.0916,2.57126 -3.13912,1.12156 -1.44249,-3.472591 -1.64031,-1.35657 -2.35343,1.26282 -1.07784,1.6637 -1.62761,4.7547 -2.22298,4.96901 -0.31032,-2.28231 -1.17148,-3.73007 -2.02054,-5.14806 -1.51926,-11.662511 -1.3227,-23.412914 -3.744,-35.018712 -0.40042,-1.272309 -0.15475,-5.924972 -1.5951,-5.069195 -0.48971,2.328442 -1.07718,4.895248 -1.40426,1.029622 -0.97044,-3.171052 -0.80673,5.457795 -1.83205,1.44913 -0.9916,1.786572 -2.62136,2.093803 -2.45727,-0.860573 0.0204,-1.914743 -1.01302,-5.91219 -1.39307,-1.78283 -0.66597,3.206185 -1.07169,-2.284487 -1.32694,-3.345565 -1.12952,-0.55505 -1.16479,4.056231 -1.6197,5.546438 -0.5117,1.146422 -1.24544,-1.008517 -2.09717,1.42161 -0.34652,-2.005649 -0.53422,-4.835106 -2.61592,-2.837365 -1.58253,-1.272572 -1.45833,-3.578708 -1.78649,-5.921833 0.0979,-1.220874 -0.57482,-0.355085 -1.35263,-0.971934 z"
       fill="url(#radialGradient28751)"
       stroke="url(#linearGradient28743)"
       stroke-opacity="0.79119"
       id="path500"
       style="fill:url(#radialGradient635);stroke:url(#linearGradient637)" />
    <path
       d="m 144.22266,62.542969 c -0.0377,0.341902 -0.10879,0.627677 -0.13868,0.996093 -0.15609,1.924339 -0.3392,4.193592 -1.38476,6.44336 -1.387,13.507306 -1.74253,27.174068 -3.41602,40.884768 -0.008,0.0697 -0.0208,0.13877 -0.0371,0.20703 0.007,-0.028 -0.0668,0.55357 -0.10351,1.17383 -0.0367,0.62026 -0.0722,1.35612 -0.15039,2.06836 -0.0782,0.71223 -0.093,1.33431 -0.5625,2.18554 -0.23478,0.42562 -0.79556,1.10995 -1.73633,1.21485 -0.24762,0.0276 -0.41865,-0.0626 -0.625,-0.10352 -0.0936,0.0332 -0.18233,0.10908 -0.27148,0.13477 -0.0311,0.18733 -0.0437,0.17018 -0.0703,0.56445 -0.0128,0.19086 -0.055,0.37861 -0.125,0.55664 -0.10131,0.25776 -0.23055,0.57652 -0.64062,0.93164 -0.41008,0.35512 -1.26325,0.57871 -1.83203,0.42969 -1.13757,-0.29805 -1.21639,-0.80484 -1.41407,-1.10742 -0.22633,-0.34646 -0.34465,-0.62904 -0.49609,-0.93946 -0.443,0.158 -0.91704,0.24104 -1.32031,0.13868 -0.11528,-0.0293 -0.11565,-0.0954 -0.21289,-0.13282 -0.062,0.25928 -0.0326,0.59034 -0.13086,0.83008 -0.31864,0.77777 -0.98678,1.79011 -2.34571,1.81641 -0.67946,0.0132 -1.29951,-0.3133 -1.67382,-0.67383 -0.37431,-0.36053 -0.58158,-0.74794 -0.73438,-1.14063 -0.29866,-0.76757 -0.37834,-1.612 -0.33594,-2.61132 -0.14019,0.20595 -0.20221,0.40459 -0.54492,0.63086 -0.29032,0.19168 -0.75948,0.37632 -1.26367,0.3457 -0.31846,-0.0193 -0.51375,-0.17114 -0.74414,-0.29297 -0.0917,0.2069 -0.081,0.14998 -0.20508,0.44336 -0.21353,0.50492 -0.5098,1.14237 -1.14062,1.71094 -0.20687,0.18645 -0.56855,0.16236 -0.83594,0.29687 -0.0513,0.31676 -0.0839,0.66055 -0.15039,0.94922 -0.14192,0.6165 -0.21206,1.07623 -0.6582,1.74805 -0.11154,0.16795 -0.25396,0.36729 -0.55469,0.58789 -0.30073,0.2206 -0.86952,0.46259 -1.47852,0.37109 -0.609,-0.0915 -1.03563,-0.45216 -1.25586,-0.71875 -0.22023,-0.26658 -0.31356,-0.48053 -0.38867,-0.67187 -0.30044,-0.76539 -0.33312,-1.39233 -0.39062,-2.45899 l 0.01,0.10938 c -0.59937,-5.33083 -3.1913,-10.8194 -3.74609,-17.02149 -1.58747,-4.307726 -1.6019,-8.547229 -2.19922,-12.373044 -0.15731,-0.02996 -0.23209,-0.08941 -0.35938,-0.144531 -0.56674,1.449957 -1.20571,2.913073 -2.15234,4.412109 -0.5632,0.892972 -1.75503,1.140199 -2.62695,0.544922 -1.3754,-0.93981 -1.85195,-2.298063 -2.10938,-3.433594 -0.16359,0.669131 -0.39824,1.226723 -0.73828,1.648438 -0.63779,0.790989 -0.78365,0.697603 -1.033202,1.125 -0.602285,1.030902 -2.005078,1.237419 -2.878907,0.423828 -1.2555,-1.168542 -1.694471,-2.633519 -1.96875,-3.734375 -0.002,-0.0081 -0.0019,-0.0076 -0.0039,-0.01563 -0.0687,0.01201 -0.143007,0.05511 -0.203125,0.0625 0.01957,-0.01858 0.101107,-0.166468 0.01172,0.160156 -0.537314,1.436301 -2.482667,1.645059 -3.3125,0.355469 -0.593607,3.086582 -1.053226,6.246397 -1.619141,9.513672 -0.0036,0.0196 -0.0075,0.0391 -0.01172,0.0586 -1.635959,7.93059 -1.298571,16.34276 -3.52539,24.87891 -0.09078,1.03488 -0.189707,2.13051 -0.482422,3.16406 -0.156109,0.5512 -0.347236,1.09996 -0.78125,1.6582 -0.107632,0.13844 -0.309293,0.25068 -0.466797,0.38086 -0.02532,0.15476 -0.0415,0.3607 -0.07227,0.5 -0.09039,0.40922 0.02391,0.73909 -0.730468,1.45898 -0.377189,0.35995 -1.40452,0.67077 -2.060547,0.41797 -0.656027,-0.2528 -0.849181,-0.59996 -0.992188,-0.81836 -0.184595,-0.2819 -0.216569,-0.45422 -0.28125,-0.65039 -0.298372,0.13711 -0.568503,0.32024 -0.939453,0.29297 -0.555243,-0.18248 -0.99271,-0.61488 -1.18164,-1.16797 -0.22535,0.0794 -0.348611,0.23379 -0.628907,0.21289 -0.632034,-0.0471 -1.081698,-0.40412 -1.294922,-0.64257 -0.213223,-0.23846 -0.290354,-0.41003 -0.351562,-0.54688 -0.09443,-0.21113 -0.0702,-0.27898 -0.105469,-0.41602 -0.366234,0.0969 -0.649151,0.1616 -0.910156,0.15626 -0.602473,0.70858 -1.635163,0.86444 -2.419922,0.36523 -0.04785,0.21811 -0.134519,0.42584 -0.255859,0.61328 -0.243376,0.37398 -0.573393,0.78436 -1.185547,1.05078 -0.612154,0.26642 -1.470451,0.18449 -1.976563,-0.0879 -0.185381,-0.0998 -0.233974,-0.2131 -0.36914,-0.31836 -0.186593,0.21777 -0.440947,0.33219 -0.69336,0.50196 -0.24486,0.31487 -0.478418,0.6269 -0.876953,0.87109 -0.512974,0.31431 -1.341566,0.47832 -2.003906,0.27344 -1.32468,-0.40977 -1.595685,-1.26872 -1.886719,-1.86914 -0.09894,-0.20413 -0.147452,-0.35903 -0.228515,-0.55469 -0.557938,2.99565 -1.058098,6.01535 -1.816407,9.08203 v 5.14468 H 218.63672 c 0.0119,-1.74509 0.0571,-2.71974 -0.11719,-4.13882 -0.0318,-0.009 -0.0623,0.0114 -0.0937,0 -0.79109,-0.28571 -0.99334,-0.76498 -1.11719,-1.01172 -0.12384,-0.24674 -0.16495,-0.40923 -0.20507,-0.55859 -0.0803,-0.29873 -0.12093,-0.54341 -0.16797,-0.80078 -0.0941,-0.51475 -0.21181,-1.05106 -0.32422,-1.33008 -0.11241,-0.27902 -0.0688,-0.045 0.29687,0.0371 l 0.17578,0.0312 c -1.09981,-0.13882 -1.98638,-1.09326 -2.29492,-1.81446 -0.30853,-0.72119 -0.37444,-1.33953 -0.45312,-1.90429 -0.0358,-0.25729 -0.0337,-0.18817 -0.0801,-0.40039 -0.83582,0.0933 -1.76633,-0.14672 -2.27148,-0.63477 -0.19188,-0.18538 -0.22007,-0.39551 -0.36133,-0.58789 -0.0918,0.31081 -0.17935,0.62911 -0.30274,1.00587 -0.0855,0.26116 -0.13877,0.49803 -0.41211,0.91601 -0.13667,0.209 -0.32056,0.54563 -0.95312,0.80468 -0.63256,0.25906 -1.65258,-0.009 -2.04297,-0.35351 -0.78078,-0.69002 -0.67755,-1.01837 -0.78516,-1.42187 -0.0226,-0.0849 -0.0396,-0.21968 -0.0605,-0.31055 -0.29674,0.0241 -0.58778,0.0661 -0.98633,-0.0684 -0.78175,-0.26376 -1.19951,-0.88633 -1.49219,-1.54296 -0.12765,-0.0965 -0.34118,-0.11647 -0.43945,-0.22071 -0.17892,-0.18978 -0.23382,-0.37474 -0.34961,-0.56445 -0.24538,0.47912 -0.52486,1.05588 -0.72266,1.52344 -0.53373,1.18639 -2.08804,1.47467 -3.01172,0.55859 -0.25902,0.17851 -0.64767,0.28752 -1.09765,0.31836 -0.005,0.0117 -0.003,0.0175 -0.008,0.0293 -0.0834,0.19624 -0.18327,0.42362 -0.44531,0.71484 -0.26204,0.29122 -0.83348,0.69089 -1.52929,0.6875 -0.69582,-0.003 -1.18623,-0.35418 -1.44727,-0.60742 -0.26104,-0.25324 -0.39324,-0.47037 -0.51367,-0.68555 -0.046,-0.13605 -0.0761,-0.27696 -0.0898,-0.41992 -0.35091,0.0274 -0.70256,0.0718 -1.20703,-0.15039 -0.66613,-0.2934 -1.14179,-0.93566 -1.3457,-1.48242 -0.19673,-0.52752 -0.24474,-1.03118 -0.25977,-1.60742 -0.30094,-1.53346 -0.35222,-3.01869 -0.49023,-4.26953 -0.14798,-1.34125 -0.41101,-2.36523 -0.97266,-3.10938 -0.21324,-0.28184 -0.34194,-0.6185 -0.37109,-0.9707 -0.34393,-4.17453 -1.11809,-8.20292 -2.68945,-12.14063 -0.48695,-1.13637 -1.06137,-2.31776 -1.61914,-3.49219 -0.0628,-0.002 -0.0887,-0.0223 -0.14649,-0.0273 -0.12668,0.28315 -0.32204,0.5302 -0.56836,0.71875 -0.63916,0.48778 -1.92957,0.45085 -2.47656,0.10938 -0.22607,-0.14114 -0.25312,-0.26053 -0.38281,-0.39454 -0.1915,0.14933 -0.30154,0.33103 -0.58008,0.41211 -0.54562,0.15884 -1.12369,0.0433 -1.47266,-0.11718 -0.40815,-0.18769 -0.467,-0.35339 -0.62695,-0.53125 -0.0572,0.11745 -0.0135,0.22249 -0.0937,0.35547 -0.13772,0.22812 -0.34227,0.56136 -0.89453,0.82226 -0.55226,0.2609 -1.43318,0.16018 -1.86328,-0.10352 -0.86022,-0.52739 -0.82383,-0.89978 -0.9375,-1.18359 -0.0738,-0.18421 -0.0637,-0.36195 -0.1211,-0.54883 -0.31132,0.19781 -0.71667,0.36207 -1.30078,0.34961 -0.51995,-0.0111 -0.92642,-0.19225 -1.26562,-0.42383 -0.0383,0.11317 -0.0873,0.2224 -0.14649,0.32618 -0.33118,0.5112 -0.74651,1.61156 -1.09375,2.62109 -0.17361,0.50476 -0.3364,0.98578 -0.54101,1.45117 -0.10231,0.2327 -0.20989,0.46161 -0.39258,0.72852 -0.18269,0.26691 -0.426,0.65518 -1.12891,0.9082 -1.1153,0.40072 -2.31642,-0.32772 -2.47656,-1.50195 -0.26241,-1.92993 -0.9276,-3.02554 -1.77539,-4.44141 -0.13095,-0.21941 -0.21538,-0.46339 -0.24805,-0.7168 -1.54265,-11.842104 -1.35296,-23.539192 -3.71875,-34.878907 l 0.0469,0.177734 c -0.11476,-0.364624 -0.11684,-0.66781 -0.15625,-0.984374 -0.19296,0.08285 -0.25963,0.222768 -0.52735,0.234374 -0.1767,0.0077 -0.24207,-0.129572 -0.40429,-0.169921 -0.11845,0.146603 -0.24318,0.306646 -0.51758,0.46289 -0.33671,0.19172 -0.87803,0.310226 -1.33789,0.220703 -0.13074,-0.02545 -0.16733,-0.09139 -0.27344,-0.128906 -0.47624,0.282945 -1.02865,0.508097 -1.75,0.410156 -0.97971,-0.13302 -1.79032,-0.963101 -2.09766,-1.722656 -0.16807,-0.415379 -0.12775,-0.890312 -0.16796,-1.332031 -0.30545,0.01344 -0.57069,-0.06591 -0.81836,-0.152344 -0.011,0.03822 -0.008,0.07727 -0.0195,0.115235 -0.0223,0.07319 -0.049,0.144941 -0.0801,0.214843 -0.14204,0.318219 -0.35021,0.680514 -0.75196,0.996094 -0.40174,0.31558 -0.99532,0.478208 -1.40625,0.470703 -0.11547,-0.0021 -0.0389,-0.01895 -0.13086,-0.02734 -0.85865,1.329079 -2.87843,1.050813 -3.3457,-0.460937 -0.1387,-0.802803 -0.25832,-1.323826 -0.36133,-1.771485 -0.49202,0.258062 -1.07353,0.283127 -1.58593,0.06836 -1.04148,-0.837489 -1.52307,-1.958722 -1.81836,-3.033203 z M 78.458984,126.97266 c -0.02383,0.0802 -0.06621,0.13881 -0.0918,0.21679 0.0401,-0.0571 0.04294,-0.0712 0.01172,0 z m 128.382816,4.38281 0.006,0.0391 c -3.6e-4,-0.002 0.002,0.006 0.002,0.004 -0.003,-0.0175 -0.005,-0.0252 -0.008,-0.043 z"
       fill="url(#radialGradient28973)"
       stroke-width="0.268042"
       transform="translate(0,2.331392)"
       id="path502"
       style="fill:url(#radialGradient28973)" />
  </g>
  <g
     mask="url(#mask795)"
     transform="matrix(1.2,0,0,-1.2,-35.840032,318.82643)"
     id="g510">
    <path
       d="m 126.02205,85.663461 c -2.06864,2.562342 0.67298,5.80055 -0.73147,8.525226 1.29813,9.319793 3.65551,18.696353 4.70027,28.051003 -0.0496,0.86033 1.23631,4.36238 -0.38772,3.44296 -1.04044,0.86336 -2.11198,-0.57 -1.67014,1.75055 -0.30733,1.09266 -3.01254,-3.5493 -3.43351,-1.24785 -0.913,0.77649 -3.27732,-3.0798 -2.67128,-0.0156 0.7408,2.3998 -1.26646,2.39211 -1.77381,0.06 -0.23748,-1.01975 -3.45546,-3.01211 -3.11368,-1.62974 -0.69604,2.45801 -1.13614,-0.48311 -2.26182,0.29747 -1.25452,0.73687 -0.20946,2.62945 -2.51183,2.60678 0.26212,1.75993 -0.14551,3.38568 -1.13783,0.66235 -1.79928,-4.00589 -5.52741,-7.81039 -7.14417,-11.81674 -2.9169,-3.44528 -3.32508,-7.18227 -5.916719,-10.68468 -0.241548,2.52414 -1.070314,0.52637 -2.263634,0.28115 -0.34006,1.51627 -0.682852,2.94984 -1.606092,4.41095 -2.404475,-0.99792 -1.984955,-2.97249 -3.451466,-3.88699 0.697545,3.06938 -2.409514,-0.63015 -2.078143,1.14733 0.548782,2.15609 -0.410379,1.66069 -0.994849,2.69786 -1.981615,-1.07467 -2.139312,-2.81772 -3.421884,-3.79934 -0.694882,2.0134 -2.088688,0.0879 -2.303876,1.97811 -0.973523,-1.09018 -2.511363,-3.59905 -2.994317,-3.42915 -0.755326,3.37195 -0.111582,6.87644 -0.0025,10.32041 -0.09258,5.67292 1.88397,11.45497 1.324929,17.11962 0.231903,1.47269 0.394989,3.07934 -0.756683,3.05195 0.432323,3.06444 -1.3124,-0.37053 -1.818101,-1.60146 -1.49435,-2.1232 -0.407478,1.98672 -1.305074,1.94178 -0.55408,-1.36968 -2.180394,-4.16395 -1.813195,-1.31056 -0.129603,2.52573 -1.386883,-3.2307 -2.009954,-1.46743 -0.342663,2.30885 -2.736187,0.0407 -2.361931,1.95154 -0.660013,-0.90163 -3.786208,-1.71046 -2.765121,0.42363 -0.695068,1.05148 -2.238164,-1.2323 -2.649042,-2.35141 -1.272753,-0.50545 0.635601,2.71224 -1.12098,2.93504 -1.205217,1.6535 -2.521941,-1.39192 -3.641282,-2.00312 -1.200844,-1.27683 -0.712231,1.34874 -1.944136,-0.11209 -0.06584,2.76481 0.157821,5.56375 -0.0756,8.29055 l 1.524947,5.4518 160.962483,10e-6 c -0.85849,-2.2111 -0.76064,-4.49717 -2.80476,-6.62953 -0.51102,2.41706 -0.82999,-1.48812 -2.88538,-1.79286 -1.65197,-0.14046 -1.49935,-2.61941 -3.12112,-3.46338 -1.16275,1.54544 -2.51934,0.31859 -3.23124,-1.32905 -1.52036,-2.89825 -0.30639,1.78942 -1.53059,1.12743 -0.81292,0.0358 0.007,3.86119 -1.62145,0.70065 -0.78996,-1.44768 -1.78625,0.79077 -2.89283,-0.94595 -1.81576,-0.12769 -2.3315,-3.94489 -3.1,-2.61581 -0.28035,1.16949 -0.97086,2.2429 -1.35384,3.45336 -1.12405,-0.69515 -2.4065,-5.01662 -2.44663,-2.57273 0.27715,1.47528 0.39872,4.01876 -0.83977,1.17324 -1.4133,-1.38534 0.20144,3.28295 -1.24626,1.97335 -0.48199,-2.84503 -2.39132,0.68073 -3.25191,-1.96492 -1.18455,-1.91701 -1.32001,-4.19592 -3.53504,-5.79146 -1.22885,-2.96641 -2.89045,-5.8768 -5.38532,-8.73222 -1.18847,-1.29924 -2.54854,-2.63786 -3.7496,-3.88077 0.31473,2.12365 -3.27673,-1.45574 -2.14994,1.42034 -0.79944,0.49758 -2.95227,-3.30733 -2.60729,-0.75959 -0.005,2.23336 -2.63817,-2.26311 -3.35726,-0.18404 0.26718,2.70003 -0.90299,0.44127 -1.68659,-1.01033 -1.80178,0.36447 -1.56652,1.76608 -2.90198,0.77025 -2.1351,-2.38447 -1.90702,-0.93166 -2.09118,0.86743 -0.7398,1.14306 -0.6666,3.26758 -1.21704,3.41492 -0.76785,-1.56885 -1.91684,-2.56374 -3.04753,-3.53795 -3.85025,-8.00429 -6.00433,-16.05401 -10.72705,-23.990068 -0.65133,-0.869126 -1.33361,-4.045904 -2.59403,-3.46178 -0.0232,1.58975 -0.0961,3.342919 -1.19016,0.702893 -1.5943,-2.164476 0.2841,3.727851 -1.53199,0.989473 -0.63015,1.220206 -2.18858,1.43006 -2.61227,-0.587668 -0.35986,-1.307197 -2.17929,-4.035001 -1.73772,-1.217167 -0.0255,2.189128 -1.51749,-1.559152 -1.9813,-2.283139 -1.23164,-0.378681 -0.35295,2.768249 -0.50949,3.785712 -0.28114,0.7829 -1.43715,-0.688623 -1.80194,0.970834 -0.74153,-1.369651 -1.48813,-3.30114 -3.16063,-1.937523 -1.82363,-0.868713 -2.15602,-2.442505 -2.94476,-4.04096 -0.14389,-0.832631 -0.64087,-0.24219 -1.5349,-0.662885 z"
       fill="url(#radialGradient28751)"
       stroke="url(#linearGradient28743)"
       stroke-opacity="0.79119"
       id="path506"
       style="fill:url(#radialGradient639);stroke:url(#linearGradient641)" />
    <path
       d="m 127.68369,88.547129 c 0.0301,0.23345 0.016,0.428585 0.0591,0.680164 0.22526,1.314301 0.49193,2.864688 -0.10247,4.4023 1.2933,9.243147 3.64851,18.615477 4.70321,28.038277 0.005,0.0479 0.007,0.0955 0.004,0.14244 0.001,-0.0193 0.0434,0.38089 0.13006,0.8077 0.0867,0.42686 0.19756,0.93332 0.26116,1.42359 0.0636,0.49031 0.17253,0.91861 -0.1266,1.50474 -0.14962,0.2931 -0.57308,0.76439 -1.49091,0.83664 -0.24159,0.019 -0.43017,-0.0431 -0.64419,-0.0713 -0.0868,0.0229 -0.16025,0.0751 -0.2441,0.0928 0.006,0.12902 -0.01,0.11721 0.042,0.38878 0.0251,0.13147 0.0203,0.2608 -0.0141,0.38344 -0.0499,0.17757 -0.11552,0.39717 -0.45419,0.64183 -0.3387,0.24468 -1.14574,0.39873 -1.74297,0.29605 -1.19443,-0.20536 -1.37365,-0.55452 -1.63095,-0.76298 -0.29459,-0.23867 -0.4687,-0.43332 -0.68139,-0.64715 -0.4107,0.10883 -0.86726,0.16603 -1.28995,0.0955 -0.12084,-0.0202 -0.13431,-0.0657 -0.23875,-0.0915 -0.0105,0.1786 0.0845,0.40665 0.034,0.5718 -0.16381,0.53583 -0.62996,1.23337 -1.98101,1.25149 -0.67552,0.009 -1.359,-0.21589 -1.80393,-0.46431 -0.4449,-0.24841 -0.72841,-0.51532 -0.95859,-0.78585 -0.44986,-0.52874 -0.69638,-1.11036 -0.85169,-1.79855 -0.0991,0.14182 -0.12174,0.27861 -0.41894,0.43443 -0.25177,0.13201 -0.68338,0.25917 -1.1925,0.23808 -0.32156,-0.0133 -0.54641,-0.11787 -0.80036,-0.20177 -0.0506,0.14249 -0.0512,0.10329 -0.11703,0.30534 -0.11331,0.34777 -0.28301,0.78686 -0.80019,1.17854 -0.16962,0.12845 -0.53531,0.11185 -0.77558,0.20452 0.0113,0.21824 0.0467,0.45511 0.0374,0.65402 -0.0199,0.42482 9e-4,0.74164 -0.31173,1.20466 -0.0782,0.11576 -0.18097,0.25316 -0.43759,0.40522 -0.25664,0.15207 -0.77664,0.31888 -1.40263,0.2558 -0.62597,-0.0631 -1.12299,-0.31169 -1.3954,-0.49544 -0.2724,-0.18375 -0.40775,-0.33121 -0.52045,-0.46308 -0.45076,-0.52748 -0.60696,-0.95949 -0.87457,-1.69441 l 0.0315,0.0754 c -1.64801,-3.67109 -5.3124,-7.44759 -7.08332,-11.71109 -2.42664,-2.95881 -3.271637,-5.86879 -4.615439,-8.49315 -0.162484,-0.0205 -0.248569,-0.0613 -0.386087,-0.0991 -0.280585,0.9944 -0.630589,1.99805 -1.280063,3.02658 -0.386265,0.61281 -1.525024,0.78248 -2.509845,0.37394 -1.553465,-0.64493 -2.293266,-1.57683 -2.77126,-2.35577 -0.0323,0.45899 -0.15714,0.84149 -0.413463,1.13081 -0.480813,0.54272 -0.644301,0.47864 -0.809447,0.77191 -0.398737,0.70746 -1.755699,0.84919 -2.784657,0.29082 -1.478077,-0.80185 -2.200491,-1.80689 -2.687893,-2.56197 -0.0036,-0.006 -0.0034,-0.005 -0.0069,-0.0107 -0.06607,0.008 -0.131666,0.0378 -0.190087,0.0429 0.01587,-0.0127 0.06827,-0.11417 0.04284,0.10985 -0.255502,0.98522 -2.152136,1.12842 -3.229205,0.24379 0.0089,2.11761 0.165472,4.28655 0.237135,6.53038 2.31e-4,0.0135 1.38e-4,0.0269 -2.79e-4,0.0403 -0.08747,5.45127 1.887719,11.24106 1.329496,17.12404 0.111199,0.71377 0.226131,1.46956 0.135434,2.18264 -0.04838,0.38035 -0.132211,0.75904 -0.456807,1.14431 -0.0805,0.0956 -0.260036,0.17301 -0.391969,0.26286 0.0049,0.10682 0.0289,0.24897 0.02534,0.34513 -0.01047,0.28248 0.168062,0.5102 -0.445131,1.00721 -0.306621,0.24853 -1.272383,0.46314 -1.977075,0.28859 -0.704664,-0.17455 -0.965265,-0.41425 -1.150674,-0.56503 -0.239316,-0.19462 -0.304819,-0.31358 -0.407638,-0.449 -0.271356,0.0947 -0.505546,0.22107 -0.881422,0.20225 -0.590186,-0.12598 -1.111338,-0.42447 -1.407674,-0.80624 -0.209649,0.0548 -0.302738,0.16137 -0.586789,0.14694 -0.640491,-0.0325 -1.159066,-0.27893 -1.418401,-0.44351 -0.259325,-0.16458 -0.369711,-0.28299 -0.457443,-0.37743 -0.135347,-0.1457 -0.124332,-0.19252 -0.186188,-0.28709 -0.346954,0.0669 -0.616953,0.11151 -0.878676,0.10783 -0.464115,0.489 -1.465338,0.59657 -2.346079,0.25204 -0.0055,0.15052 -0.05172,0.29389 -0.136535,0.42326 -0.170521,0.25813 -0.420535,0.5414 -0.980337,0.72531 -0.559826,0.18391 -1.433116,0.12735 -1.991504,-0.0607 -0.204529,-0.0689 -0.275031,-0.14711 -0.430452,-0.21976 -0.144183,0.15032 -0.37609,0.2293 -0.595336,0.34649 -0.183591,0.21737 -0.356451,0.43279 -0.707278,0.60138 -0.451587,0.21701 -1.247625,0.33025 -1.949001,0.18879 -1.402686,-0.28292 -1.839573,-0.8759 -2.246413,-1.29036 -0.138302,-0.1409 -0.216711,-0.24781 -0.335512,-0.38285 0.02191,2.06803 0.106211,4.15367 -0.05839,6.27277 l 1.131928,4.04364 H 218.63679 c -0.34774,-1.20708 -0.6482,-2.36719 -1.11472,-3.34826 -0.0336,-0.006 -0.0599,0.008 -0.0937,0 -0.84959,-0.1975 -1.1504,-0.52878 -1.32498,-0.69932 -0.17456,-0.17053 -0.24909,-0.28283 -0.31992,-0.38605 -0.14173,-0.20645 -0.23268,-0.37553 -0.33265,-0.55338 -0.19994,-0.35568 -0.4279,-0.72623 -0.59762,-0.919 -0.16971,-0.19276 -0.078,-0.0311 0.30429,0.0256 l 0.18208,0.0215 c -1.12759,-0.0959 -2.2097,-0.75523 -2.6662,-1.25337 -0.45643,-0.49808 -0.64929,-0.92508 -0.84389,-1.31504 -0.0886,-0.17765 -0.0723,-0.12993 -0.16225,-0.27645 -0.81581,0.0644 -1.79463,-0.1013 -2.39939,-0.43824 -0.2297,-0.12797 -0.30096,-0.27303 -0.48152,-0.40583 -0.028,0.21455 -0.0501,0.43429 -0.0961,0.69439 -0.0318,0.18031 -0.0365,0.34385 -0.22381,0.63246 -0.0937,0.14431 -0.20834,0.37677 -0.78719,0.55566 -0.57888,0.1789 -1.65294,-0.006 -2.11356,-0.24413 -0.92139,-0.47646 -0.88551,-0.70317 -1.07564,-0.98175 -0.04,-0.0586 -0.0846,-0.15167 -0.12403,-0.2144 -0.29149,0.0166 -0.57362,0.0456 -0.99928,-0.0472 -0.83488,-0.18208 -1.37955,-0.61184 -1.8062,-1.06505 -0.14723,-0.0666 -0.36459,-0.0804 -0.48406,-0.15233 -0.2175,-0.13098 -0.31015,-0.25862 -0.46458,-0.38954 -0.14713,0.33065 -0.30837,0.72871 -0.41036,1.05144 -0.29063,0.819 -1.78442,1.01802 -2.89424,0.38558 -0.22229,0.12324 -0.58827,0.19849 -1.03147,0.21978 -0.003,0.008 5.7e-4,0.0121 -0.002,0.0202 -0.0433,0.13548 -0.0966,0.29246 -0.29894,0.49352 -0.20233,0.20108 -0.69165,0.47705 -1.38749,0.4747 -0.69578,-0.002 -1.25733,-0.24456 -1.56975,-0.41941 -0.3124,-0.17485 -0.48873,-0.32476 -0.6529,-0.47331 -0.0737,-0.0939 -0.13251,-0.1912 -0.17528,-0.2899 -0.34495,0.0189 -0.68717,0.0496 -1.23636,-0.10382 -0.72515,-0.20253 -1.33104,-0.64585 -1.646,-1.02321 -0.30386,-0.36405 -0.4543,-0.71161 -0.58657,-1.10922 -0.61248,-1.05792 -0.96575,-2.08232 -1.35786,-2.94487 -0.42036,-0.92471 -0.891,-1.63054 -1.60277,-2.14342 -0.27007,-0.19423 -0.46689,-0.42623 -0.5675,-0.66893 -1.19054,-2.87557 -2.77975,-5.64867 -5.14444,-8.35765 -0.71552,-0.78146 -1.52721,-1.59374 -2.32075,-2.40107 -0.063,-0.001 -0.0929,-0.0153 -0.15154,-0.0188 -0.069,0.19463 -0.21379,0.36446 -0.42121,0.49407 -0.53852,0.33532 -1.83235,0.30993 -2.4466,0.0752 -0.25386,-0.097 -0.30494,-0.1791 -0.46128,-0.27122 -0.16074,0.10265 -0.23373,0.22755 -0.49502,0.28329 -0.51183,0.10919 -1.1114,0.0298 -1.49165,-0.0806 -0.44472,-0.12903 -0.53682,-0.24293 -0.73214,-0.36519 -0.0333,0.0807 0.0314,0.15294 -0.0217,0.24435 -0.0913,0.15681 -0.22794,0.3859 -0.72584,0.56527 -0.49793,0.17937 -1.39642,0.11012 -1.87834,-0.0712 -0.96378,-0.36257 -1.00252,-0.61856 -1.173,-0.81365 -0.11067,-0.12662 -0.1364,-0.24879 -0.23125,-0.37723 -0.27047,0.13596 -0.64143,0.24886 -1.22616,0.24029 -0.5205,-0.008 -0.96211,-0.13215 -1.3468,-0.29132 -0.0154,0.0778 -0.0423,0.15286 -0.0804,0.22419 -0.22726,0.35138 -0.41989,1.10783 -0.56295,1.80195 -0.0715,0.3471 -0.13706,0.6779 -0.24743,0.99797 -0.0552,0.16005 -0.1164,0.3175 -0.24487,0.50109 -0.12846,0.1836 -0.29297,0.45069 -0.94302,0.62476 -1.03162,0.27568 -2.37581,-0.22546 -2.77141,-1.03318 -0.64925,-1.32719 -1.53234,-2.08046 -2.66153,-3.05372 -0.17453,-0.1508 -0.30763,-0.31848 -0.39102,-0.49264 -3.90903,-8.13074 -6.05842,-16.147 -10.67262,-23.904262 l 0.082,0.121477 c -0.18669,-0.249209 -0.24914,-0.456416 -0.35135,-0.672755 -0.17529,0.05662 -0.21369,0.152235 -0.47747,0.160164 -0.17409,0.0053 -0.26639,-0.08855 -0.43565,-0.116127 -0.0885,0.100187 -0.18065,0.209561 -0.42229,0.31634 -0.2965,0.131027 -0.81097,0.212016 -1.28586,0.150826 -0.13501,-0.0174 -0.18449,-0.06246 -0.29742,-0.0881 -0.41708,0.193378 -0.92138,0.347261 -1.65786,0.280312 -1.00023,-0.09093 -1.97083,-0.658238 -2.42714,-1.177281 -0.24951,-0.283823 -0.30374,-0.608314 -0.43139,-0.910091 -0.30087,0.0092 -0.5802,-0.04503 -0.84347,-0.104083 -0.003,0.02611 0.007,0.05279 0.003,0.07872 -0.008,0.05 -0.0199,0.09902 -0.037,0.146774 -0.078,0.217405 -0.21297,0.464936 -0.54961,0.680559 -0.33665,0.215634 -0.89432,0.326757 -1.30421,0.321625 -0.11518,-0.0014 -0.0424,-0.01295 -0.13548,-0.01868 -0.58985,0.908296 -2.65258,0.718091 -3.41645,-0.314997 -0.29682,-0.548512 -0.51885,-0.904463 -0.70984,-1.210269 -0.43784,0.17628 -1.01072,0.193397 -1.56239,0.04668 -1.20053,-0.572066 -1.90069,-1.337822 -2.40642,-2.07152 z m -52.8703,44.215351 c -0.0082,0.0553 -0.03912,0.0957 -0.04952,0.14954 0.02894,-0.0394 0.02903,-0.0491 0.0117,0 z m 129.08948,3.0244 0.014,0.027 c -7.7e-4,-0.001 0.003,0.004 0.003,0.003 -0.007,-0.0121 -0.0102,-0.0174 -0.0168,-0.0297 z"
       fill="url(#radialGradient29288)"
       stroke-width="0.268042"
       transform="translate(0,2.331392)"
       id="path508"
       style="fill:url(#radialGradient29288)" />
  </g>
  <path
     d="M 22.399296,141.09978 H 236.32926"
     fill="none"
     opacity="0.7"
     stroke="url(#linearGradient948)"
     stroke-width="3.6"
     id="path512"
     style="stroke:url(#linearGradient948)" />
</svg>
