<svg height="256" viewBox="0 0 256 256" width="256" xmlns="http://www.w3.org/2000/svg" xmlns:xlink="http://www.w3.org/1999/xlink">
  <defs>
    <linearGradient id="linearGradient849" gradientUnits="userSpaceOnUse" x1="220.86850648" x2="38.53733692" y1="33.78582636" y2="221.82729504">
      <stop offset="0" stop-color="#a5eaff"/>
      <stop offset="1" stop-color="#007ed0"/>
    </linearGradient>
    <filter id="filter1211" color-interpolation-filters="sRGB" height="2.359189" width="1.172918" x="-.086459" y="-.679595">
      <feGaussianBlur stdDeviation="7.8929016"/>
    </filter>
    <linearGradient id="linearGradient1221" gradientUnits="userSpaceOnUse" x1="157.52436808" x2="157.12408768" y1="235.83552144" y2="21.26029632">
      <stop offset="0" stop-color="#636566" stop-opacity=".862745"/>
      <stop offset="1" stop-color="#a9adab" stop-opacity=".654902"/>
    </linearGradient>
    <linearGradient id="linearGradient1243" gradientUnits="userSpaceOnUse" x1="130.92841768" x2="109.85250928" y1="102.99593184" y2="12.46459812">
      <stop offset="0" stop-color="#fff" stop-opacity=".000631"/>
      <stop offset="1" stop-color="#fbfbfb"/>
    </linearGradient>
    <linearGradient id="linearGradient1060" gradientUnits="userSpaceOnUse" x1="112.95094" x2="111.17986" y1="41.641415" y2="228.03903">
      <stop offset="0" stop-color="#fefefe"/>
      <stop offset="1" stop-color="#0e6195"/>
    </linearGradient>
    <filter id="filter1062" color-interpolation-filters="sRGB" height="1.084234" width="1.084494" x="-.042247" y="-.042117">
      <feGaussianBlur stdDeviation="2.1005123"/>
    </filter>
    <filter id="filter1332" color-interpolation-filters="sRGB" height="1.152074" width="1.070138" x="-.035069" y="-.076037">
      <feGaussianBlur stdDeviation="1.888976"/>
    </filter>
  </defs>
  <rect filter="url(#filter1211)" height="27.873919" opacity=".519466" rx="19.510765" ry="13.936959" transform="matrix(1.08 0 0 1.08 -10.24 -3.690085)" width="219.09767" x="18.451166" y="209.82106"/>
  <path d="m51.534111 22.04714h152.931739c16.15464 0 29.16 13.00536 29.16 29.16v153.58567c0 16.15464-13.00536 29.16-29.16 29.16h-152.931739c-16.15464 0-29.16-13.00536-29.16-29.16v-153.58567c0-16.15464 13.00536-29.16 29.16-29.16z" fill="url(#linearGradient849)" stroke="url(#linearGradient1221)" stroke-linecap="round" stroke-width="4.0819"/>
  <g fill="#fff" filter="url(#filter1332)" opacity=".6" stroke-width="1.3541" transform="matrix(1.08 0 0 1.08 -22.798717 -11.791943)">
    <path d="m141.21526 148.93262h-14.81052l-8.08231-34.48736q-1.48105-6.09347-2.49663-12.73704-1.01558 5.54336-1.65032 8.46315-.63473 2.87747-9.01326 38.76125h-14.810516l-15.360624-59.622923h12.652415l8.632417 38.507353 1.946526 9.30947q1.184841-5.88189 2.285052-11.21368 1.14252-5.3741 8.46315-36.603143h13.96421l7.5322 31.736823q.88864 3.55453 3.00442 16.08l1.0579-4.90863 2.24273-9.73263 7.19368-33.175563h12.65242z" fill="#fff" stroke-width="1.3541"/>
    <path d="m191.35945 148.93262-10.66357-16.58778-10.74821 16.58778h-12.65241l16.75704-23.65452-15.95304-22.13115h12.82167l9.77495 14.97979 9.73262-14.97979h12.90631l-15.95304 22.0042 16.88399 23.78147z" fill="#fff" stroke-width="1.3541"/>
  </g>
  <path d="m157.22285 23.312343-53.12428 106.144257 127.87907-45.015331.50821-34.630254c-.1358-12.526765-12.49463-26.185184-26.40691-26.386776zm-62.852606-.006372-25.639558 105.927069 16.497421-.23414 46.623773-105.541124z" fill="url(#linearGradient1243)" stroke-width="1.08"/>
  <path d="m69.054384 43.032967h134.957926c14.25601 0 25.73288 11.476861 25.73288 25.732874v135.535019c0 14.25601-11.47687 25.73287-25.73288 25.73287h-134.957926c-14.256012 0-25.732874-11.47686-25.732874-25.73287v-135.535019c0-14.256013 11.476862-25.732874 25.732874-25.732874z" style="opacity:.8;fill:none;stroke-width:5.66929;stroke-linecap:round;stroke:url(#linearGradient1060);filter:url(#filter1062)" transform="matrix(1.0845785 0 0 1.0845785 -20.081136 -20.081138)"/>
  <g fill="#fff" stroke-width="1.3541" transform="matrix(1.08 0 0 1.08 -22.798717 -11.791943)">
    <path d="m141.21526 148.93262h-14.81052l-8.08231-34.48736q-1.48105-6.09347-2.49663-12.73704-1.01558 5.54336-1.65032 8.46315-.63473 2.87747-9.01326 38.76125h-14.810516l-15.360624-59.622923h12.652415l8.632417 38.507353 1.946526 9.30947q1.184841-5.88189 2.285052-11.21368 1.14252-5.3741 8.46315-36.603143h13.96421l7.5322 31.736823q.88864 3.55453 3.00442 16.08l1.0579-4.90863 2.24273-9.73263 7.19368-33.175563h12.65242z" fill="#fff" stroke-width="1.3541"/>
    <path d="m191.35945 148.93262-10.66357-16.58778-10.74821 16.58778h-12.65241l16.75704-23.65452-15.95304-22.13115h12.82167l9.77495 14.97979 9.73262-14.97979h12.90631l-15.95304 22.0042 16.88399 23.78147z" fill="#fff" stroke-width="1.3541"/>
  </g>
  <g transform="matrix(1.08 0 0 1.08 -18.535444 -11.090359)">
    <path d="m214.9666 154.0467v6.71885c0 23.63707-19.02913 42.66621-42.66621 42.66621h-73.238887c-23.637081 0-42.666214-19.02914-42.666214-42.66621v-6.71885z" style="opacity:.462637;fill:#fff;fill-opacity:.783645;stroke-width:2.6658;stroke-linecap:round;stroke-linejoin:round"/>
    <g fill="#0569a9" transform="translate(-12.502991 7.819005)">
      <path d="m118.26206 188.62335v-14.875h-15.1875v14.875h-9.218748v-36.03125h9.218748v13.53125h15.1875v-13.53125h9.21875v36.03125z" fill="#0569a9"/>
      <path d="m150.10581 189.24835q-7.625 0-11.71875-4.5-4.09375-4.53125-4.09375-13.1875 0-8.375 4.15625-12.875 4.15625-4.5 11.78125-4.5 7.28125 0 11.125 4.84375 3.84375 4.8125 3.84375 14.125v.25h-21.6875q0 4.9375 1.8125 7.46875 1.84375 2.5 5.21875 2.5 4.65625 0 5.875-4.03125l8.28125.71875q-3.59375 9.1875-14.59375 9.1875zm0-29.53125q-3.09375 0-4.78125 2.15625-1.65625 2.15625-1.75 6.03125h13.125q-.25-4.09375-1.96875-6.125-1.71875-2.0625-4.625-2.0625z" fill="#0569a9"/>
      <path d="m192.98081 188.62335-7.875-12.25-7.9375 12.25h-9.34375l12.375-17.46875-11.78125-16.34375h9.46875l7.21875 11.0625 7.1875-11.0625h9.53125l-11.78125 16.25 12.46875 17.5625z" fill="#0569a9"/>
    </g>
  </g>
</svg>
