<svg height="256" width="256" xmlns="http://www.w3.org/2000/svg" xmlns:xlink="http://www.w3.org/1999/xlink">
  <defs>
    <linearGradient id="linearGradient1227">
      <stop offset="0" stop-color="#bd9007"/>
      <stop offset=".33591679" stop-color="#f1ce09"/>
      <stop offset=".75" stop-color="#9f7a01"/>
      <stop offset="1" stop-color="#d3a201"/>
    </linearGradient>
    <linearGradient id="linearGradient1203" gradientUnits="userSpaceOnUse" x1="58.63092" x2="220.63572" y1="73.28984" y2="111.69896">
      <stop offset="0" stop-color="#f8de44"/>
      <stop offset=".19247945" stop-color="#f4d42e"/>
      <stop offset=".45345223" stop-color="#ffe12d"/>
      <stop offset=".67029542" stop-color="#e3b300"/>
      <stop offset=".83514774" stop-color="#dba400"/>
      <stop offset="1" stop-color="#ddb004"/>
    </linearGradient>
    <linearGradient id="linearGradient1229" gradientUnits="userSpaceOnUse" x1="18.437" x2="229.10932" xlink:href="#linearGradient1227" y1="69.87272" y2="152.40008"/>
    <filter id="filter1474" color-interpolation-filters="sRGB" height="1.159748" width="1.3334" x="-.1667" y="-.079874">
      <feGaussianBlur stdDeviation=".32896709"/>
    </filter>
    <filter id="filter1478" color-interpolation-filters="sRGB" height="1.270933" width="1.65903" x="-.329515" y="-.135466">
      <feGaussianBlur stdDeviation=".55383924"/>
    </filter>
    <filter id="filter1482" color-interpolation-filters="sRGB" height="1.285528" width="1.586149" x="-.293075" y="-.142764">
      <feGaussianBlur stdDeviation=".56834652"/>
    </filter>
    <filter id="filter1486" color-interpolation-filters="sRGB" height="1.160251" width="1.331232" x="-.165616" y="-.080125">
      <feGaussianBlur stdDeviation=".31954938"/>
    </filter>
    <linearGradient id="linearGradient1496" gradientUnits="userSpaceOnUse" x1="69.5058" x2="126.2138" xlink:href="#linearGradient1227" y1="189.24296" y2="214.64232"/>
    <linearGradient id="linearGradient1504" gradientUnits="userSpaceOnUse" x1="73.0698" x2="124.45844" y1="204.49688" y2="218.81032">
      <stop offset="0" stop-color="#f8de44"/>
      <stop offset=".19247945" stop-color="#f4d42e"/>
      <stop offset=".67029542" stop-color="#e3b300"/>
      <stop offset=".83514774" stop-color="#dba400"/>
      <stop offset="1" stop-color="#ddb004"/>
    </linearGradient>
    <filter id="filter1641" color-interpolation-filters="sRGB" height="1.423826" width="2.145109" x="-.572555" y="-.211913">
      <feGaussianBlur stdDeviation=".21060853"/>
    </filter>
    <clipPath id="clipPath6441">
      <path d="m22.439952 87.515684s17.743324-23.206517 39.132853-19.021923c21.389529 4.184602 47.457915 38.141109 47.457915 38.141109-7.61683 11.67867-26.706068 15.82616-41.655108 16.98935 15.587282-.0492 36.482638 4.10681 53.521638-15.55 0 0-28.44074-46.664692-57.029307-51.472685-28.588558-4.808001-52.161621 31.447106-52.161621 31.447106 8.785892 20.233149 27.807104 28.995419 49.712587 34.525209-18.509454-8.99599-31.999795-17.03048-38.978957-35.058166z"/>
    </clipPath>
    <filter id="filter6401" height="1.108914" width="1.049692" x="-.024846" y="-.054457">
      <feGaussianBlur stdDeviation=".89646"/>
    </filter>
    <filter id="filter3272" height="1.055294" width="1.035611" x="-.017805" y="-.027647">
      <feGaussianBlur stdDeviation=".86270686"/>
    </filter>
    <radialGradient id="radialGradient6515" cx="52.792747" cy="85.201317" gradientTransform="matrix(2 0 0 6.4343102 178 -553.66387)" gradientUnits="userSpaceOnUse" r="56.78125">
      <stop offset="0" stop-color="#484848"/>
      <stop offset="1" stop-color="#969696"/>
    </radialGradient>
    <radialGradient id="radialGradient6498" cx="-313.77863" cy="-75.845619" fx="-327.88126" fy="-122.29082" gradientTransform="matrix(.28846286 -.05317372 .02894512 .33053696 381.95113 1.87534)" gradientUnits="userSpaceOnUse" r="65.186401">
      <stop offset="0" stop-color="#fff" stop-opacity=".872727"/>
      <stop offset="1" stop-color="#fff" stop-opacity="0"/>
    </radialGradient>
    <filter id="filter6459" height="1.069996" width="1.036523" x="-.018261" y="-.034998">
      <feGaussianBlur stdDeviation=".83079885"/>
    </filter>
    <radialGradient id="radialGradient6496" cx="-313.77863" cy="-75.845619" gradientTransform="matrix(.28846286 -.05317372 .02894512 .33053696 381.95113 1.87534)" gradientUnits="userSpaceOnUse" r="65.186401">
      <stop offset="0"/>
      <stop offset="1" stop-opacity="0"/>
    </radialGradient>
    <radialGradient id="radialGradient6494" cx="-313.77863" cy="-75.845619" fx="-343.31003" fy="-124.01205" gradientTransform="matrix(.7044143 -.1313034 .12055556 .8162045 523.69469 16.43127)" gradientUnits="userSpaceOnUse" r="65.186401">
      <stop offset="0" stop-color="#fff" stop-opacity="0"/>
      <stop offset=".38366336" stop-opacity="0"/>
      <stop offset=".81882757" stop-opacity=".08"/>
      <stop offset="1"/>
    </radialGradient>
    <linearGradient id="linearGradient6492" gradientTransform="matrix(.44809686 -.2255045 .22690754 .26357572 449.27775 -83.26229)" gradientUnits="userSpaceOnUse" x1="-267.98022" x2="-329.33154" y1="-226.54375" y2="78.231689">
      <stop offset="0" stop-color="#fff"/>
      <stop offset="1" stop-color="#fff" stop-opacity="0"/>
    </linearGradient>
    <filter id="filter3068" height="1.083466" width="1.090071" x="-.045035" y="-.041733">
      <feGaussianBlur stdDeviation="2.0377368"/>
    </filter>
    <filter id="filter3098" height="1.07891" width="1.079741" x="-.03987" y="-.039455">
      <feGaussianBlur stdDeviation="1.8302414"/>
    </filter>
    <radialGradient id="radialGradient6490" cx="-675.3678" cy="-51.796902" gradientTransform="matrix(1 0 0 1.0237352 0 1.229408)" gradientUnits="userSpaceOnUse" r="55.901997" xlink:href="#linearGradient6556"/>
    <linearGradient id="linearGradient6556">
      <stop offset="0" stop-color="#00f5f1"/>
      <stop offset="1" stop-color="#00f5f1" stop-opacity="0"/>
    </linearGradient>
    <radialGradient id="radialGradient6562" cx="-673.01239" cy="-56.807011" gradientTransform="matrix(1.5841831 .2374271 -.28448622 1.7867905 377.00167 204.32421)" gradientUnits="userSpaceOnUse" r="56.163616" xlink:href="#linearGradient6556"/>
    <radialGradient id="radialGradient6488" cx="-318.59558" cy="-88.287811" gradientTransform="matrix(.7081184 -.1021672 .21772748 2.0406358 533.45391 133.81629)" gradientUnits="userSpaceOnUse" r="65.186401">
      <stop offset="0" stop-color="#004ac8"/>
      <stop offset="1" stop-color="#c6ddff"/>
    </radialGradient>
    <radialGradient id="radialGradient6529" cx="-9.625694" cy="-67.683014" fx="-35.087757" fy="-78.957077" gradientTransform="matrix(.85064436 0 0 .7098291 315.96905 54.16997)" gradientUnits="userSpaceOnUse" r="115.80503">
      <stop offset="0" stop-color="#fff"/>
      <stop offset=".5" stop-color="#ededed"/>
      <stop offset=".75" stop-color="#e3e3e3"/>
      <stop offset="1" stop-color="#8c8c8c"/>
    </radialGradient>
    <filter id="filter3223" height="1.220072" width="1.142245" x="-.071123" y="-.110036">
      <feGaussianBlur stdDeviation="3.4970547"/>
    </filter>
    <filter id="filter3395" height="1.177195" width="1.113849" x="-.056924" y="-.088597">
      <feGaussianBlur stdDeviation="2.3106204"/>
    </filter>
  </defs>
  <path d="m75.27092 218.22168c-.048 9.14064 12.43536 15.98576 22.59376 16 10.1584-.0142 22.64656-6.98656 22.59376-16-.048-9.01344-5.18384-25.0064-10.28624-30.44336l-24.67744-.3504c-4.50064 6.40992-10.1752 21.65328-10.22384 30.79392z" fill="url(#linearGradient1504)" stroke="url(#linearGradient1496)" stroke-width="8"/>
  <ellipse cx="36.453747" cy="55.041779" fill="#fcf795" filter="url(#filter1641)" rx=".441408" ry="1.192612" transform="matrix(10.207214 2.7649928 -2.7649928 10.207214 -129.763 -450.63576)"/>
  <path d="m128.4584 26.22156c-35.34624 0-53.28208 24-64 64l-16 80c-1.73296 8.66496-7.16352 16-16 16v16h192v-16c-8.83664 0-14.26704-7.33504-16-16l-16-80c-8.48528-40-28.65376-64-64-64z" fill="url(#linearGradient1203)" stroke="url(#linearGradient1229)" stroke-width="8"/>
  <path d="m267.95777 545.77398c-.0935.002-.78325.0393-.92752 1.23083-.14427 1.19149-.65921 4.37399-1.02539 5.4668s-.47898 1.18841-.70508 1.48633-.57705.46386-.80764.57226-.9804.51796-.89186.7058c.0885.18784 1.0406.10046 1.30887-.0261s.69016-.406.98828-.79883.42824-.5369.81836-1.70117.91226-4.40611 1.0586-5.61328.5413-1.2893.4298-1.30251c-.1115-.0132-.23793-.0202-.24643-.0202-.009 0 .0935-.002.00001.00007z" fill="#fdfb9f" filter="url(#filter1486)" transform="matrix(16 0 0 16 -4174.6206 -8692.9524)"/>
  <path d="m267.85937 545.86719c-.17607-.004-.73633-.16763-.89062 1.10351s-.5126 4.29671-.77653 5.40357-.4135 1.30679-.60959 1.56517-.41408.42903-.70661.5666-1.30169.38973-1.14044.73379 1.05178.0778 1.57678.023.75404-.22693 1.08217-.6593.46709-.59697.86719-1.79102.91529-4.3809 1.07226-5.67578-.20409-1.24124-.40429-1.26563c-.2002-.0244-.0585-.004-.0703-.004s.17605.004-.00002.0001z" fill="#fdfb9f" filter="url(#filter1482)" transform="matrix(16 0 0 16 -4174.6206 -8692.9524)"/>
  <path d="m268.32031 545.75c-.35214-.007-.80859.87113-.85156 1.2207-.26561 2.19271-.53734 3.98859-1.01172 5.4043-.23802.71035-.46016 1.13811-.65625 1.39648-.19608.25838-.35407.36672-.5957.48047-.34343.16139-.49116.5705-.33008.91407.16141.34454.57195.49247.91602.33007.38039-.17907.77539-.46021 1.10351-.89257.32813-.43237.60101-.99666.86719-1.79102.53402-1.59373.80423-3.46305 1.07226-5.67578.0459-.37702-.0663-1.33704-.44335-1.38282-.0233-.003-.0468-.004-.0703-.004z" fill="#c09301" filter="url(#filter1478)" transform="matrix(-16 0 0 16 4443.7632 -8692.9524)"/>
  <path d="m268.70682 545.66649c-.0935.002-.78325.14983-.92752 1.34132s-.65921 4.37399-1.02539 5.4668-.47898 1.18841-.70508 1.48633-.63643.65331-.89126.83774-1.00456.49197-.91603.6798c.0885.18784 1.07196-.0387 1.34022-.16526.26827-.12656.7666-.50632 1.06472-.89915s.42824-.5369.81836-1.70117.91226-4.40611 1.0586-5.61328.5329-1.40079.4298-1.413c-.1031-.0122-.23768-.0202-.24643-.0202-.009 0 .0935-.002.00001.00007z" fill="#c09301" filter="url(#filter1474)" transform="matrix(-16 0 0 16 4448.07 -8692.9524)"/>
  <g transform="matrix(.66666666 0 0 .66666666 -40.217608 198.99002)">
    <path d="m340.05181 154.59069s19.96201-26.10834 44.02616-21.40049c24.06415 4.70786 53.39222 42.91041 53.39222 42.91041-8.56927 13.13901-30.05846 17.80511-46.87679 19.11375l-6.68857-1.18171c-20.82394-10.12088-36.00116-19.16003-43.85302-39.44196z" fill-rule="evenodd" filter="url(#filter3395)" opacity=".568773" transform="matrix(1.8338723 0 0 1.8338723 -407.44349 -297.56602)"/>
    <path d="m20.438369 84.983841s19.175821-26.108334 42.292212-21.400483c23.116393 4.70786 51.289399 42.910402 51.289399 42.910402-8.23178 13.13901-28.862168 17.80511-45.018109 19.11375 16.845708-.0554 39.428039 4.62034 57.842669-17.49442 0 0-30.736886-52.499807-61.633524-57.909011-30.896631-5.409204-56.3728469 35.379362-56.3728469 35.379362 9.4952189 22.763169 30.0520849 32.621109 53.7260879 38.842359-20.003794-10.12088-34.583264-19.16003-42.125888-39.441959z" fill-rule="evenodd" filter="url(#filter3223)" opacity=".360595" transform="matrix(1.9090596 0 0 1.8338723 177.15002 -169.91596)"/>
    <path d="m216.16809-14.06644s36.60778-47.87936 80.73836-39.24577c44.13057 8.63362 97.9145 78.69221 97.9145 78.69221-15.71492 24.09527-55.12337 32.65231-85.96604 35.05219l-12.26598-2.1671c-38.18845-18.5604-66.02153-35.13706-80.42084-72.33153z" fill="url(#radialGradient6529)" fill-rule="evenodd"/>
    <path d="m339.43916-12.83326a53.897454 46.576652 88.043614 1 1 -91.83647 17.11839 53.897454 46.576652 88.043614 1 1 91.83647-17.11839z" fill="url(#radialGradient6488)"/>
    <g transform="matrix(.70382226 .0871914 -.10925932 .72014646 725.70297 89.05979)">
      <path d="m-618.74997-55.593742c9.375-9.375 45.31249-35.937498 45.31249-35.937498l-42.18749 42.187497h47.65624l-49.21874 3.90625 45.31249 39.0624987-48.43749-32.8124987 17.96875 46.0937478-7.8125-57.8124978-45.3125 42.1874987 35.9375-56.2499977-3.90625 17.968749h-53.125l49.21875-13.281249-.78125 17.187499-29.6875-57.812497 37.5 54.687497-10.15625-64.062497 17.96875 60.156247 15.625-51.562497-30.46875 48.437498 54.68749-6.25-51.56249 8.593749 44.53125 17.1875-42.1875-13.28125-14.0625 41.4062487 22.65625-42.1874987-48.4375 8.59375 57.8125 2.34375z" fill="#060606" fill-rule="evenodd" filter="url(#filter3068)" opacity=".576208"/>
      <path d="m-675.78122-64.187492c9.375-9.375 45.31249-35.937498 45.31249-35.937498l-42.18749 42.187497h47.65624l-49.21874 3.90625 45.31249 39.062499-48.43749-32.812499 17.96875 46.0937481-7.8125-57.8124981-45.3125 42.187499 35.9375-56.249998-3.90625 17.968749-55.4296-18.613271 51.52335 5.332022-.78125 17.187499-29.6875-57.812497 37.5 54.687497-10.15625-64.062497 17.96875 60.156247 15.625-51.562497-30.46875 48.437498 54.68749-6.25-51.56249 8.593749 44.53125 17.1875-42.1875-13.28125-14.0625 41.406249 22.65625-42.187499-67.5863 10.635141 76.9613.302359z" fill="#00f5f1" fill-rule="evenodd" filter="url(#filter3098)" opacity=".933085" transform="matrix(-.99989801 .01428189 -.01428189 -.99989801 -1302.354197 -102.260936)"/>
      <path d="m-675.78122-64.187492c9.375-9.375 52.85724-13.590169 52.85724-13.590169l-49.73224 19.840168 51.6994 4.64305-53.2619-.7368 32.78062 49.9611671-35.90562-43.7111671 46.11396 32.554808-35.95771-44.273558-29.89574 58.88871202 20.52074-72.95121102-3.90625 17.968749-50.65989-5.16432 46.75364-8.116929-.78125 17.187499-44.62257-40.607769 52.43507 37.482769 1.78505-52.650327 6.02745 48.744077 29.13389-30.169284-43.97764 27.044285 58.73065-1.60695-55.60565 3.950699 51.49455 33.423812-49.1508-29.517562 1.45559 59.4627574 7.13816-60.2440074-39.86844 49.0534819 49.24344-38.1159819z" fill="url(#radialGradient6490)" fill-rule="evenodd" filter="url(#filter3098)" opacity=".933085" transform="matrix(-.99989801 .01428189 -.01428189 -.99989801 -1302.354197 -102.260936)"/>
      <path d="m-676.09577-56.549223c9.375-9.375 53.68975-34.927045 53.68975-34.927045l-50.2502 33.538775 57.69232-6.804075-59.25482 10.710325 50.09461 43.738004-47.74822-37.687194 20.0201 55.0933915-15.33524-66.6129515-66.7243 27.636738 55.78712-23.480132-2.34407-.250356-38.98683-53.772697 47.64518 50.830678-13.34585 6.848269 72.21757-.776839-64.40507-2.348161-10.15625-64.062497 16.50054 60.888914 5.91442-61.539954-10.63049 60.600101 39.54521-50.278761-45.07968 49.704697 67.83395 23.318163-65.4902-19.411913-28.16874 50.7464279 36.76249-51.5276779-71.01097-13.715156 79.83169 18.736597z" fill="url(#radialGradient6562)" fill-rule="evenodd" opacity=".933085" transform="matrix(-.99989801 .01428189 -.01428189 -.99989801 -1302.354197 -102.260936)"/>
      <path d="m-676.09577-56.549223c9.375-9.375 5.25822-67.244397 5.25822-67.244397l-1.81867 65.856127-61.45279-40.274008 59.89029 44.180258 36.04927 54.46965382-33.70288-48.41884382-13.57161 53.2425418 18.25647-64.7621018-66.7243 27.636738 55.78712-23.480132-2.34407-.250356-38.98683-53.772697 47.64518 50.830678-13.34585 6.848269 64.07657 16.386909-56.26407-19.511909-10.15625-64.062497 16.50054 60.888914 56.82326 4.191415-61.53933-5.131268 50.33451-36.762698-55.86898 36.188634 57.05207 37.504274-54.70832-33.598024-28.16874 50.7464279 36.76249-51.5276779-71.01097-13.715156 79.83169 18.736597z" fill="url(#radialGradient6562)" fill-rule="evenodd" opacity=".933085" transform="matrix(-.99989801 .01428189 -.01428189 -.99989801 -1302.354197 -102.260936)"/>
    </g>
    <path d="m308.04613-9.97587a18.7695 21.934403 11.189389 1 1 -37.60771 6.93241 18.7695 21.934403 11.189389 1 1 37.60771-6.93241z"/>
    <path d="m317.76174-45.72889a23.684691 31.280501 87.887539 1 1 -52.59431 26.46806 23.684691 31.280501 87.887539 1 1 52.59431-26.46806z" fill="url(#linearGradient6492)"/>
    <path d="m339.43916-12.83326a53.897454 46.576652 88.043614 1 1 -91.83647 17.11839 53.897454 46.576652 88.043614 1 1 91.83647-17.11839z" fill="url(#radialGradient6494)" opacity=".676328"/>
    <path d="m308.04613-9.97587a18.7695 21.934403 11.189389 1 1 -37.60771 6.93241 18.7695 21.934403 11.189389 1 1 37.60771-6.93241z" fill="url(#radialGradient6496)"/>
    <path d="m55.717237 67.256091c-18.65241.459046-33.21875 19.53125-33.21875 19.53125.08683.22429.19241.43504.28125.65625 1.43813-1.82379 18.4071-22.691787 38.875-18.6875 20.519524 4.014396 45.076933 35.107429 47.062503 37.656249.12203-.17541.2583-.35232.375-.53125 0 0-26.047974-33.940397-47.437503-38.124999-2.005269-.392306-4.007941-.547488-5.9375-.5zm-43.65625 20.65625c-.04972.07477-.28125.40625-.28125.40625 8.78589 20.233139 27.81326 29.001459 49.71875 34.531249-1.498641-.72837-2.974207-1.46592-4.40625-2.1875-19.8169-5.53761-36.73628-14.29957-45.03125-32.749999zm108.531253 19.843749c-14.35911 16.2234-31.349112 15.76992-45.625003 15.28125-2.570576.36397-5.111421.65546-7.53125.84375 15.587282-.0492 36.492253 4.12556 53.531253-15.53125 0 0-.30038-.47338-.375-.59375z" fill-rule="evenodd" filter="url(#filter6459)" transform="matrix(2.063186 0 0 2.063186 169.8703 -194.62757)"/>
    <path d="m308.04613-9.97587a18.7695 21.934403 11.189389 1 1 -37.60771 6.93241 18.7695 21.934403 11.189389 1 1 37.60771-6.93241z" fill="url(#radialGradient6498)"/>
    <path d="m290.6875-78.761216c-53.94418.04422-96.6875 65.812496-96.6875 65.812496 18.12693 41.74475 57.36742 59.77853 102.5625 71.18751-38.18844-18.5604-65.97569-35.11803-80.375-72.31251 0 0 36.61943-47.88359 80.75-39.25 44.13058 8.63362 97.87501 78.68751 97.87501 78.68751-15.71494 24.09526-55.09486 32.66262-85.93751 35.0625 32.15947-.1014 75.28289 8.49316 110.43751-32.0625 0 0-58.70397-96.267722-117.68751-106.187506-3.68647-.619988-7.34122-.940448-10.9375-.9375z" fill="url(#radialGradient6515)" fill-rule="evenodd"/>
    <path d="m59.781315 50.846503c-27.838843.023762-49.906727 35.344184-49.906727 35.344184.16578.397424.350811.78044.523389 1.169929 2.673794-4.110378 26.338992-39.071966 55.017471-34.051104 28.468719 4.984138 56.486672 50.000328 60.035852 55.879528.23482-.27172.47464-.52009.70812-.80048 0 0-30.304489-51.720287-60.743972-57.049455-1.902466-.333073-3.778211-.494186-5.634133-.492602zm-40.461132 34.952299c-.204341.26338-.492602.64654-.492602.64654 6.332929 17.029098 17.707469 26.026908 33.127476 34.482128 2.736559.86973 5.532327 1.6854 8.374232 2.43222-19.268098-9.74865-33.4422-18.50222-41.009106-37.560888zm94.977407 21.835578c-8.53315 12.1356-28.152598 16.5111-43.626052 17.76446 3.842127-.0126 7.988191.23699 12.315046.33866 12.871534-2.43061 25.907426-7.42442 32.019126-17.17949 0 0-.43881-.5679-.70812-.92363z" fill="#b3b3b3" fill-rule="evenodd" filter="url(#filter3272)" transform="matrix(1.9090596 0 0 1.8338723 177.15002 -169.91596)"/>
    <path clip-path="url(#clipPath6441)" d="m55.403054 66.761395c-18.65241.459046-33.21875 19.53125-33.21875 19.53125l2.15625 1.78125s16.87394-22.073956 37.21875-18.09375c20.344803 3.980214 45.124996 36.281245 45.124996 36.281245l2.09375-.875s-26.047967-33.940393-47.437496-38.124995c-2.005269-.392306-4.007941-.547488-5.9375-.5z" fill="#1f1f1f" fill-rule="evenodd" filter="url(#filter6401)" transform="matrix(2.063186 0 0 2.063186 169.8703 -194.62757)"/>
  </g>
</svg>
