<svg height="256" width="256" xmlns="http://www.w3.org/2000/svg" xmlns:xlink="http://www.w3.org/1999/xlink">
  <defs>
    <linearGradient id="linearGradient3211">
      <stop offset="0" stop-color="#fff"/>
      <stop offset="1" stop-color="#fff" stop-opacity="0"/>
    </linearGradient>
    <filter id="filter1138" color-interpolation-filters="sRGB" height="1.869331" width="1.12424" x="-.06212" y="-.434666">
      <feGaussianBlur stdDeviation="5.9713193"/>
    </filter>
    <linearGradient id="linearGradient855" gradientUnits="userSpaceOnUse" x1="192.470701" x2="214.726631" y1="62.49541" y2="62.55093">
      <stop offset="0" stop-color="#b2b2b2"/>
      <stop offset="1" stop-color="#fff"/>
    </linearGradient>
    <linearGradient id="linearGradient863" gradientUnits="userSpaceOnUse" x1="190.123821" x2="213.692621" y1="105.446626" y2="105.446626">
      <stop offset="0" stop-color="#999"/>
      <stop offset="1" stop-color="#fff"/>
    </linearGradient>
    <linearGradient id="linearGradient871" gradientUnits="userSpaceOnUse" x1="187.952231" x2="211.521021" y1="148.41712" y2="148.41712">
      <stop offset="0" stop-color="#808080"/>
      <stop offset="1" stop-color="#fff" stop-opacity=".992157"/>
    </linearGradient>
    <linearGradient id="linearGradient1119" gradientUnits="userSpaceOnUse" x1="64.548842" x2="198.376171" y1="23.142004" y2="23.142004">
      <stop offset="0" stop-color="#002dcc"/>
      <stop offset="1" stop-color="#244deb"/>
    </linearGradient>
    <linearGradient id="linearGradient891" gradientUnits="userSpaceOnUse" x1="25.333293" x2="64.098052" y1="23.128207" y2="23.128207">
      <stop offset="0" stop-color="#363735"/>
      <stop offset=".07077314" stop-color="#0b0b0b"/>
      <stop offset=".35532537" stop-color="#343b3f"/>
      <stop offset="1" stop-color="#343b3f"/>
    </linearGradient>
    <linearGradient id="linearGradient909" gradientUnits="userSpaceOnUse" x1="27.381678" x2="65.223777" y1="6.048382" y2="40.471445">
      <stop offset="0" stop-color="#747973"/>
      <stop offset=".49817628" stop-color="#404040"/>
      <stop offset=".55324131" stop-color="#101010"/>
      <stop offset="1"/>
    </linearGradient>
    <linearGradient id="linearGradient995" gradientUnits="userSpaceOnUse" x1="28.359896" x2="196.897881" y1="22.812479" y2="22.812479">
      <stop offset="0" stop-color="#bcbcbc"/>
      <stop offset=".20814922" stop-color="#b4b4b4"/>
      <stop offset=".21555807" stop-color="#b9c3f2"/>
      <stop offset="1" stop-color="#c5caf7"/>
    </linearGradient>
    <linearGradient id="linearGradient1102" gradientUnits="userSpaceOnUse" x1="72.85059" x2="198.74785" y1="215.36397" y2="40.651903">
      <stop offset="0" stop-color="#2543b8"/>
      <stop offset="1" stop-color="#415eda"/>
    </linearGradient>
    <linearGradient id="linearGradient1090" gradientUnits="userSpaceOnUse" x1="25.413911" x2="62.481057" y1="116.6817" y2="116.6817">
      <stop offset="0" stop-color="#363735"/>
      <stop offset=".07077314" stop-color="#7d827c"/>
      <stop offset=".25934681" stop-color="#2e3436"/>
      <stop offset="1" stop-color="#2b3133"/>
    </linearGradient>
    <linearGradient id="linearGradient921" gradientUnits="userSpaceOnUse" x1="29.699446" x2="30.06026" y1="23.803442" y2="34.172007">
      <stop offset="0" stop-color="#1d1e1d" stop-opacity="0"/>
      <stop offset="1" stop-color="#1e1e1e"/>
    </linearGradient>
    <radialGradient id="radialGradient1044" cx="9.590435" cy="-375.33484" gradientTransform="matrix(.02057152 -.04001549 .13370247 .06873499 42.856387 -13.45495)" gradientUnits="userSpaceOnUse" r="81.34906">
      <stop offset="0" stop-color="#747973"/>
      <stop offset="1" stop-color="#747973" stop-opacity="0"/>
    </radialGradient>
    <linearGradient id="linearGradient1026" gradientUnits="userSpaceOnUse" x1="32.342173" x2="191.106591" y1="-5.241499" y2="-5.148573">
      <stop offset="0"/>
      <stop offset=".30057594" stop-opacity=".000806"/>
      <stop offset=".68152583" stop-opacity="0"/>
      <stop offset="1"/>
    </linearGradient>
    <filter id="filter964" color-interpolation-filters="sRGB" height="1.289844" width="1.018555" x="-.009277" y="-.144923">
      <feGaussianBlur stdDeviation=".61707657"/>
    </filter>
    <filter id="filter1187" color-interpolation-filters="sRGB" height="1.271163" width="1.179487" x="-.089743" y="-.135582">
      <feGaussianBlur stdDeviation="1.1008832"/>
    </filter>
    <filter id="filter3591" color-interpolation-filters="sRGB" height="1.053742" width="1.054261" x="-.02713" y="-.026871">
      <feGaussianBlur stdDeviation=".90496976"/>
    </filter>
    <linearGradient id="linearGradient4284" gradientTransform="matrix(2.4999996 0 0 2.4999996 292.20725 -20.47509)" gradientUnits="userSpaceOnUse" x1="-13.757333" x2="-62.424866" xlink:href="#XMLID_4_-3" y1="76.708466" y2="104.80668"/>
    <radialGradient id="XMLID_4_-3" cx="48" cy="-.2148" gradientTransform="matrix(.9792 0 0 .9725 133.0002 20.8762)" gradientUnits="userSpaceOnUse" r="55.147999">
      <stop offset="0" stop-color="#72d13d"/>
      <stop offset=".3553" stop-color="#35ac1c"/>
      <stop offset=".6194" stop-color="#0f9508"/>
      <stop offset=".7574" stop-color="#008c00"/>
      <stop offset="1" stop-color="#007a00"/>
    </radialGradient>
    <linearGradient id="linearGradient3339" gradientUnits="userSpaceOnUse" spreadMethod="reflect" x1="73.742638" x2="80" xlink:href="#linearGradient3211" y1="15.336544" y2="19.281664"/>
    <filter id="filter3387" height="1.189411" width="1.172683" x="-.086341" y="-.094706">
      <feGaussianBlur stdDeviation=".44655691"/>
    </filter>
    <linearGradient id="linearGradient3005" gradientTransform="scale(1.039383 .9621093)" gradientUnits="userSpaceOnUse" x1="64.341988" x2="76.284439" y1="18.50366" y2="18.50366">
      <stop offset="0" stop-color="#fff"/>
      <stop offset="1" stop-color="#252525" stop-opacity="0"/>
    </linearGradient>
    <radialGradient id="radialGradient4275" cx="182.2072676" cy="189.5248764" fx="142.207274" fy="229.52487" gradientUnits="userSpaceOnUse" r="59.9999904">
      <stop offset="0" stop-opacity=".779026"/>
      <stop offset="1" stop-opacity="0"/>
    </radialGradient>
    <radialGradient id="radialGradient4271" cx="-44" cy="84" fx="-40" fy="96" gradientTransform="matrix(2.4999996 0 0 2.4999996 292.20725 -20.47509)" gradientUnits="userSpaceOnUse" r="20" xlink:href="#XMLID_4_-3"/>
    <linearGradient id="linearGradient4268" gradientUnits="userSpaceOnUse" x1="164.69115532758" x2="164.69115532758" y1="130.87314328428" y2="249.55086679584">
      <stop offset="0" stop-color="#cbff9c"/>
      <stop offset="1" stop-color="#65c171" stop-opacity="0"/>
    </linearGradient>
    <linearGradient id="linearGradient4265" gradientUnits="userSpaceOnUse" x1="152.20725482095" x2="164.66581532758" xlink:href="#linearGradient3211" y1="109.5248892" y2="219.52845659943"/>
    <linearGradient id="linearGradient4262" gradientUnits="userSpaceOnUse" x1="202.20724932095" x2="172.20725162095" xlink:href="#linearGradient3211" y1="219.5248716" y2="159.5248812"/>
    <linearGradient id="linearGradient4259" gradientUnits="userSpaceOnUse" x1="61.622575" x2="62.09794" xlink:href="#linearGradient3211" y1="57.512504" y2="85.106242"/>
    <filter id="filter3191" height="1.0368" width="1.0368" x="-.0184" y="-.0184">
      <feGaussianBlur stdDeviation=".2025"/>
    </filter>
  </defs>
  <g transform="translate(12.20905 5.205838)">
    <path d="m25.427754 236.40392h203.234316c8.29693 0 12.46654 7.07216 12.46654 15.85686v6.27656c0 8.7847.85012 10.83713-7.44681 10.83713h-208.254046c-8.296931 0-14.97641-7.07216-14.97641-15.85686v-1.25683c0-8.7847 6.679479-15.85686 14.97641-15.85686z" filter="url(#filter1138)" transform="matrix(.79685534 0 0 .79685534 15.544741 14.424169)"/>
    <rect height="39.964474" rx="6.867042" style="stroke:#666;stroke-width:1.88976;stroke-linecap:round;stroke-linejoin:round;stroke-opacity:.776471;fill:url(#linearGradient855)" width="21.679024" x="192.54761" y="42.568695"/>
    <rect fill="url(#linearGradient863)" height="39.964474" rx="6.867042" stroke="#595959" stroke-linecap="round" stroke-linejoin="round" stroke-width="1.88976" width="21.679024" x="191.0687" y="85.464394"/>
    <path d="m58.549047 6.5918059h136.773133c1.6919 0 3.05398 1.362075 3.05398 3.053978v26.9924441c0 1.691903-1.36208 3.053978-3.05398 3.053978h-136.773133z" fill="url(#linearGradient1119)" stroke="#7d95ef" stroke-linecap="round" stroke-linejoin="round" stroke-width="3"/>
    <path d="m41.599387 6.5918059h21.99866v33.6672791h-21.99866c-8.73442 0-15.626216-1.766095-15.626216-1.766095l.00025-16.729574c.00013-9.247746 6.891906-15.0929351 15.625966-15.1716101z" fill="url(#linearGradient891)" stroke="url(#linearGradient909)" stroke-linecap="round" stroke-linejoin="round" stroke-width="3"/>
    <path d="m39.630137 13.153293h152.619473c-.85758 13.993535.34119 14.568205 3.89366 19.318378h-161.397753c-8.334196-.111779-9.123626-19.250915 4.88462-19.318378z" fill="#fff" stroke="url(#linearGradient995)" stroke-width=".755906"/>
    <path d="m57.445047 33.245148h143.529393c1.6919 0 3.05398 1.362074 3.05398 3.053978v185.246624c0 1.69191-1.36208 3.05398-3.05398 3.05398h-143.529393z" fill="url(#linearGradient1102)" stroke="#5894d8" stroke-linecap="round" stroke-linejoin="round" stroke-width="3"/>
    <path d="m28.252807 13.460816c-2.619616 15.338277 2.17154 19.747256 5.94913 19.801514 4.47727.06431 27.77912-.0081 27.77912-.0081v189.6662 1.67931h-26.072c-5.53731 0-9.995146-4.45784-9.995146-9.99515v-187.845774c.24933-3.825366-.72984-8.568628 2.338896-13.298z" fill="url(#linearGradient1090)" stroke="url(#linearGradient921)" stroke-linecap="round" stroke-linejoin="round" stroke-width="3"/>
    <path d="m31.234747 24.383663c4.17181 1.570178 7.74434 1.436441 14.72155 1.620319l142.966163.0027m-157.930643-5.170244c3.40787-1.064329 12.11085-1.328362 15.45341-1.317045l142.669583.538773m-157.996773 6.024987c3.96574 2.534154 7.71145 2.452092 14.68866 2.63597l144.616363.299758m-159.691213-6.365253 158.315123.261418m-157.525663-4.152189c3.26388-1.578897 10.08068-1.930294 13.42325-1.918977l144.664383.222896" fill="url(#radialGradient1044)" filter="url(#filter964)" opacity=".4" stroke="url(#linearGradient1026)" stroke-width=".566929"/>
    <path d="m38.734247 13.213879 14.78412-.168917c5.06534 3.901995 5.06294 15.143053-.271 19.487295h-19.39775c-8.334196-.111779-9.123626-19.250915 4.88463-19.318378z" filter="url(#filter1187)" opacity=".1"/>
    <path d="m168.76441 119.64881q0 8.27375-2.90945 15.09278-2.86399 6.81902-7.95553 10.68313-5.09154 3.81866-11.00136 3.81866-4.18234 0-6.45535-2.04571-2.22754-2.09117-2.22754-5.77344 0-1.68203.27276-3.04583h-.27276q-2.27301 4.77332-6.77357 7.81915-4.45509 3.04583-9.13749 3.04583-7.13724 0-11.09227-4.59148-3.90958-4.63693-3.90958-12.91068 0-7.41001 2.90945-13.91081 2.95491-6.50081 8.13737-10.18308 5.22792-3.72773 11.68326-3.72773 8.86473 0 12.00148 7.91007h.27276l1.77295-6.90995h7.09178l-5.31884 23.00284q-1.68202 7.81915-1.68202 10.91044 0 2.27301 1.04558 3.22767 1.09105.95467 2.50031.95467 3.63681 0 6.95541-3.13676 3.31859-3.18221 5.22791-8.45558 1.95479-5.31884 1.95479-11.68327 0-7.95552-3.50043-14.04719-3.45497-6.137118-10.00124-9.45571-6.54626-3.318592-15.22915-3.318592-10.91044 0-19.22964 4.773317-8.31922 4.773315-13.09253 13.774425-4.727859 9.00112-4.727859 20.18432 0 8.86473 3.591353 15.59283 3.636816 6.68264 10.183076 10.09216 6.54626 3.45497 15.36554 3.45497 13.36528 0 26.77603-7.04633l2.81853 5.54614q-7.63731 4.31872-14.9564 6.18259-7.27362 1.86386-14.95639 1.86386-10.72859 0-18.91142-4.36417-8.137372-4.31872-12.728848-12.50155-4.546016-8.22829-4.546016-18.8205 0-12.86523 5.72798-23.27561 5.773444-10.410374 15.911054-16.138355 10.13762-5.727979 22.68462-5.727979 11.04682 0 19.13873 4.136873 8.09191 4.091416 12.3197 11.592341 4.27326 7.50093 4.27326 17.41124zm-29.41273.18184q0-4.31871-2.72761-7.04632-2.68215-2.72761-6.9554-2.72761-4.27325 0-7.68277 2.86399-3.36405 2.81853-5.27337 8.04645-1.86387 5.18246-1.86387 10.68314 0 5.18245 2.18209 8.18282 2.22754 3.00037 6.77356 3.00037 3.00037 0 5.8189-1.90932 2.86399-1.90933 5.09153-5.50068 2.22755-3.63681 3.40952-8.22829 1.22742-4.63694 1.22742-7.36455z" filter="url(#filter3591)" opacity=".2"/>
    <path d="m172.01441 122.89881q0 8.27375-2.90945 15.09278-2.86399 6.81902-7.95553 10.68313-5.09154 3.81866-11.00136 3.81866-4.18234 0-6.45535-2.04571-2.22754-2.09117-2.22754-5.77344 0-1.68203.27276-3.04583h-.27276q-2.27301 4.77332-6.77357 7.81915-4.45509 3.04583-9.13749 3.04583-7.13724 0-11.09228-4.59148-3.90957-4.63693-3.90957-12.91068 0-7.41001 2.90945-13.91081 2.95491-6.50081 8.13737-10.18308 5.22792-3.72773 11.68326-3.72773 8.86473 0 12.00148 7.91007h.27276l1.77295-6.90995h7.09178l-5.31884 23.00284q-1.68202 7.81915-1.68202 10.91044 0 2.27301 1.04558 3.22767 1.09105.95467 2.50031.95467 3.63681 0 6.95541-3.13676 3.31859-3.18221 5.22791-8.45559 1.95479-5.31883 1.95479-11.68326 0-7.95553-3.50043-14.04719-3.45497-6.13712-10.00124-9.45571-6.54626-3.318593-15.22915-3.318593-10.91044 0-19.22965 4.773313-8.31921 4.77332-13.09252 13.77443-4.727859 9.00112-4.727859 20.18432 0 8.86473 3.591349 15.59283 3.63682 6.68264 10.18308 10.09216 6.54626 3.45497 15.36554 3.45497 13.36528 0 26.77603-7.04633l2.81853 5.54614q-7.63731 4.31872-14.9564 6.18259-7.27362 1.86386-14.95639 1.86386-10.72859 0-18.91142-4.36417-8.13737-4.31872-12.728848-12.50155-4.546017-8.22829-4.546017-18.8205 0-12.86523 5.72798-23.27561 5.773445-10.41037 15.911055-16.138355 10.13762-5.72798 22.68462-5.72798 11.04682 0 19.13873 4.136874 8.09191 4.091416 12.3197 11.592341 4.27326 7.50093 4.27326 17.41124zm-29.41273.18184q0-4.31871-2.72761-7.04632-2.68215-2.72761-6.9554-2.72761-4.27325 0-7.68277 2.86399-3.36405 2.81853-5.27337 8.04645-1.86387 5.18246-1.86387 10.68314 0 5.18245 2.18209 8.18282 2.22754 3.00037 6.77356 3.00037 3.00037 0 5.8189-1.90932 2.86399-1.90933 5.09153-5.50068 2.22755-3.63681 3.40952-8.22829 1.22742-4.63694 1.22742-7.36455z" fill="#fff" filter="url(#filter3591)" opacity=".25"/>
    <path d="m170.76441 121.64881q0 8.27375-2.90945 15.09278-2.86399 6.81902-7.95553 10.68313-5.09154 3.81866-11.00136 3.81866-4.18234 0-6.45535-2.04571-2.22754-2.09117-2.22754-5.77344 0-1.68203.27276-3.04583h-.27276q-2.27301 4.77332-6.77357 7.81915-4.45509 3.04583-9.13749 3.04583-7.13724 0-11.09227-4.59148-3.90958-4.63693-3.90958-12.91068 0-7.41001 2.90945-13.91081 2.95491-6.50081 8.13737-10.18308 5.22792-3.72773 11.68326-3.72773 8.86473 0 12.00148 7.91007h.27276l1.77295-6.90995h7.09178l-5.31884 23.00284q-1.68202 7.81915-1.68202 10.91044 0 2.27301 1.04558 3.22767 1.09105.95467 2.50031.95467 3.63681 0 6.95541-3.13676 3.31859-3.18221 5.22791-8.45558 1.95479-5.31884 1.95479-11.68327 0-7.95552-3.50043-14.04719-3.45497-6.13712-10.00124-9.45571-6.54626-3.318592-15.22915-3.318592-10.91044 0-19.22964 4.773317-8.31922 4.773315-13.09253 13.774425-4.727859 9.00112-4.727859 20.18432 0 8.86473 3.591349 15.59283 3.63682 6.68264 10.18308 10.09216 6.54626 3.45497 15.36554 3.45497 13.36528 0 26.77603-7.04633l2.81853 5.54614q-7.63731 4.31872-14.9564 6.18259-7.27362 1.86386-14.95639 1.86386-10.72859 0-18.91142-4.36417-8.137372-4.31872-12.728848-12.50155-4.546016-8.22829-4.546016-18.8205 0-12.86523 5.72798-23.27561 5.773444-10.410374 15.911054-16.138355 10.13762-5.727979 22.68462-5.727979 11.04682 0 19.13873 4.136873 8.09191 4.091416 12.3197 11.592341 4.27326 7.50093 4.27326 17.41124zm-29.41273.18184q0-4.31871-2.72761-7.04632-2.68215-2.72761-6.9554-2.72761-4.27325 0-7.68277 2.86399-3.36405 2.81853-5.27337 8.04645-1.86387 5.18246-1.86387 10.68314 0 5.18245 2.18209 8.18282 2.22754 3.00037 6.77356 3.00037 3.00037 0 5.8189-1.90932 2.86399-1.90933 5.09153-5.50068 2.22755-3.63681 3.40952-8.22829 1.22742-4.63694 1.22742-7.36455z" fill="#fff"/>
  </g>
  <g>
    <rect fill="url(#linearGradient871)" height="39.964474" rx="6.867042" stroke="#4c4c4c" stroke-linecap="round" stroke-linejoin="round" stroke-width="1.88976" width="21.679024" x="188.89713" y="128.43488"/>
    <path d="m177.36351 129.52489c-8.29382 0-15.15626 6.86244-15.15626 15.15625v24.84374h-24.84374c-8.29381 0-15.15625 6.86244-15.15625 15.15625v9.68749c0 8.29383 6.86244 15.15625 15.15625 15.15625h24.84374v24.84377c0 8.2938 6.86245 15.15625 15.15626 15.15625h9.6875c8.29379 0 15.15624-6.86245 15.15624-15.15625v-24.84377h24.84376c8.2938 0 15.15624-6.86242 15.15624-15.15625v-9.68749c0-8.29381-6.86244-15.15625-15.15624-15.15625h-24.84376v-24.84374c0-8.29381-6.86245-15.15625-15.15624-15.15625z" fill="url(#linearGradient4284)"/>
    <path d="m69.875971 12.057888c-1.077088.06528-2.528221.219164-3 .9375l1.589684 11.138061 10.534345-.759359v-.46875c1.740958-2.57016-4.780448-10.906792-9.124029-10.847452z" fill="url(#linearGradient3339)" fill-rule="evenodd" filter="url(#filter3387)" transform="matrix(-1.2499999 0 0 1.2499999 262.20726 115.42281)"/>
    <path d="m69.875971 12.057888c-1.077088.06528-2.528221.219164-3 .9375l1.296715 8.794311 10.827314 1.584391v-.46875c1.740958-2.57016-4.780448-10.906792-9.124029-10.847452z" fill="url(#linearGradient3339)" fill-rule="evenodd" filter="url(#filter3387)" transform="matrix(1.2499999 0 0 1.2499999 103.09633 115.42281)"/>
    <path d="m69.875971 12.057888c-1.077088.06528-2.528221.219164-3 .9375l2.175622 10.747436 9.948407-.368734v-.46875c1.740958-2.57016-4.780448-10.906792-9.124029-10.847452z" fill="url(#linearGradient3339)" fill-rule="evenodd" filter="url(#filter3387)" opacity=".681648" transform="matrix(-1.2499999 0 0 -1.2499999 262.20726 264.59684)"/>
    <path d="m69.875971 12.057888c-1.077088.06528-2.528221.219164-3 .9375l.90609 10.552124 11.217939-.173422v-.46875c1.740958-2.57016-4.780448-10.906792-9.124029-10.847452z" fill="url(#linearGradient3005)" fill-rule="evenodd" filter="url(#filter3387)" opacity=".707865" transform="matrix(1.2499999 0 0 -1.2499999 103.09634 264.59684)"/>
    <path d="m69.875971 12.057888c-1.077088.06528-2.528221.219164-3 .9375l1.589684 11.138061 10.534345-.759359v-.46875c1.740958-2.57016-4.780448-10.906792-9.124029-10.847452z" fill="url(#linearGradient3339)" fill-rule="evenodd" filter="url(#filter3387)" opacity=".550562" transform="matrix(1.2499999 0 0 1.2499999 143.09632 154.45292)"/>
    <path d="m177.36351 129.52489c-8.29382 0-15.15626 6.86244-15.15626 15.15625v24.84374h-24.84374c-8.29381 0-15.15625 3.13478-15.15625 11.42858 0-2.36569 0 8.47783 0 13.41516 0 8.29383 6.86244 15.15625 15.15625 15.15625h24.84374v24.84377c0 8.2938 6.86245 15.15625 15.15626 15.15625h9.6875c8.2938 0 15.15625-6.86245 15.15625-15.15625v-24.84377h24.84375c8.2938 0 15.15624-6.86242 15.15624-15.15625v-9.68749c0-8.29381-6.86244-15.15625-15.15624-15.15625h-24.84375v-24.84374c0-8.29381-6.86245-15.15625-15.15625-15.15625z" fill="url(#radialGradient4275)" opacity=".580524"/>
    <path d="m69.875971 12.057888c-1.077088.06528-2.528221.219164-3 .9375l1.589684 11.138061 10.534345-.759359v-.46875c1.740958-2.57016-4.780448-10.906792-9.124029-10.847452z" fill="url(#linearGradient3339)" fill-rule="evenodd" filter="url(#filter3387)" opacity=".550562" transform="matrix(-1.2499999 0 0 1.2499999 221.31817 154.45292)"/>
    <path d="m177.36351 139.52489c-2.83492 0-5.15626 2.32133-5.15626 5.15625v34.84374h-34.84374c-2.83492 0-5.15625 2.32132-5.15625 5.15625v9.68749c0 2.83493 2.32133 5.15625 5.15625 5.15625h34.84374v34.84377c0 2.83493 2.32134 5.15625 5.15626 5.15625h9.6875c2.83492 0 5.15624-2.32132 5.15624-5.15625v-34.84377h34.84376c2.83492 0 5.15625-2.32132 5.15625-5.15625v-9.68749c0-2.83493-2.32133-5.15625-5.15625-5.15625h-34.84376v-34.84374c0-2.83492-2.32131-5.15625-5.15624-5.15625z" fill="url(#radialGradient4271)"/>
    <path d="m177.36351 139.52489c-2.83492 0-5.15626 2.32133-5.15626 5.15625v34.84374h-34.84374c-2.83492 0-5.15625 2.32132-5.15625 5.15625v9.68749c0 .2745.11437.51805.15625.78125 8.14421 1.17393 16.72835 1.875 25.62499 1.875 28.75393 0 54.5146-6.57457 71.48437-16.87499-.72309-.38788-1.54836-.625-2.42186-.625h-34.84376v-34.84374c0-2.83492-2.32131-5.15625-5.15624-5.15625z" fill="url(#linearGradient4268)"/>
    <path d="m177.36351 139.52489c-2.83492 0-5.15626 2.32133-5.15626 5.15625v2.5c0-2.83493 3.32134-6.65625 6.15626-6.65625h9.68751c.70871 0 1.41496.1287 2.03123.39062.27565.6238 1.21875 2.81145 1.21875 3.53125l.90625 35.07812.0781-34.84374c0-1.43907-.60265-2.73395-1.5625-3.67188-.21943-.21942-.44758-.44755-.70313-.625-.0192-.013-.0587.0128-.0781 0-.2552-.17282-.49668-.34317-.78125-.46875-.0216-.009-.0563.009-.0781 0-.2865-.12175-.62777-.24407-.93749-.3125-.0256-.005-.0524.005-.0781 0-.30917-.0637-.61138-.073-.9375-.0781h-.0781-1.17187zm-40 39.99999c-2.83492 0-5.15625 2.32132-5.15625 5.15625v2.5c0-2.83493 2.32133-6.65625 5.15625-6.65625l34.84374-1zm54.84374 0 34.39942 1.2793c-16.89799 9.06775-44.55616 15.98634-71.27442 15.98632-4.44832 0-8.84885-.22488-13.12499-.54688 5.15098.4673 10.44853.78125 15.85937.78125 26.92515 0 51.20937-5.80927 68.12501-14.99999.0199-.0108.0582.0108.0781 0 1.1064-.60308 2.16156-1.24278 3.20312-1.875-.34076-.1828-.71323-.36195-1.09374-.46875-.025-.007-.053.006-.0781 0-.38094-.10113-.76344-.14945-1.17187-.15625h-.0781-1.17188z" fill="url(#linearGradient4265)"/>
    <path d="m177.36351 139.52489c-2.83492 0-5.15626 2.32133-5.15626 5.15625v2.5c0-2.83493 3.32134-6.65625 6.15626-6.65625h9.68751c.70871 0 1.41496.1287 2.03123.39062.27565.6238 1.21875 2.81145 1.21875 3.53125l.90625 35.07812.0781-34.84374c0-1.43907-.60265-2.73395-1.5625-3.67188-.21943-.21942-.44758-.44755-.70313-.625-.0192-.013-.0587.0128-.0781 0-.2552-.17282-.49668-.34317-.78125-.46875-.0216-.009-.0563.009-.0781 0-.2865-.12175-.62777-.24407-.93749-.3125-.0256-.005-.0524.005-.0781 0-.30917-.0637-.61138-.073-.9375-.0781h-.0781-1.17187zm-40 39.99999c-2.83492 0-5.15625 2.32132-5.15625 5.15625v2.5c0-2.83493 2.32133-6.65625 5.15625-6.65625l34.84374-1zm54.84374 0 34.64356 1.2793c-16.89798 9.06775-44.8003 15.98634-71.51856 15.98632-4.44832 0-8.84885-.22488-13.12499-.54688 5.15098.4673 10.44853.78125 15.85937.78125 26.92515 0 51.20937-5.80927 68.12501-14.99999.0199-.0108.0582.0108.0781 0 1.1064-.60308 2.16156-1.24278 3.20312-1.875-.34076-.1828-.71323-.36195-1.09374-.46875-.025-.007-.053.006-.0781 0-.38094-.10113-.76344-.14945-1.17187-.15625h-.0781-1.17188z" fill="url(#linearGradient4262)"/>
    <path d="m62.0625 43.999992c-1.13397 0-2.062504.928531-2.062504 2.0625v13.9375h-13.9375c-1.133969 0-2.0625.928528-2.0625 2.062498v3.875c0 1.13397.928531 2.0625 2.0625 2.0625h13.9375v13.93751c0 1.13397.928534 2.0625 2.062504 2.0625h3.875c1.13397 0 2.0625-.92853 2.0625-2.0625v-13.93751h13.9375c1.13397 0 2.0625-.92853 2.0625-2.0625v-3.875c0-1.13397-.92853-2.062498-2.0625-2.062498h-13.9375v-13.9375c0-1.133969-.92853-2.0625-2.0625-2.0625z" style="fill:none;stroke-width:.5;stroke-linecap:round;stroke-linejoin:round;stroke-dashoffset:1.0878;stroke:url(#linearGradient4259);filter:url(#filter3191)" transform="matrix(2.4999996 0 0 2.4999996 22.207288 29.52493)"/>
  </g>
</svg>
