<svg height="256" viewBox="0 0 256 256" width="256" xmlns="http://www.w3.org/2000/svg" xmlns:xlink="http://www.w3.org/1999/xlink">
  <defs>
    <linearGradient id="linearGradient3996">
      <stop offset="0" stop-color="#fff"/>
      <stop offset="1" stop-color="#fff" stop-opacity="0"/>
    </linearGradient>
    <radialGradient id="radialGradient3154" cx="81.562538" cy="151.97745" fx="73.268311" gradientTransform="matrix(1.601946 0 0 .1497599 -2.658776 220.69336)" gradientUnits="userSpaceOnUse" r="80.225449" xlink:href="#linearGradient3148"/>
    <linearGradient id="linearGradient3148">
      <stop offset="0"/>
      <stop offset="1" stop-opacity="0"/>
    </linearGradient>
    <radialGradient id="radialGradient4467" cx="83.065674" cy="81.761391" gradientTransform="matrix(1.145989 .00007182 -.0000718 1.145706 -12.93017 -8.588644)" gradientUnits="userSpaceOnUse" r="60.137135" xlink:href="#linearGradient2455"/>
    <linearGradient id="linearGradient2455">
      <stop offset="0"/>
      <stop offset=".79708803" stop-color="#202020"/>
      <stop offset=".85546148" stop-color="#e7e7e7"/>
      <stop offset=".93506157" stop-color="#f8f6f8"/>
      <stop offset=".96003789" stop-color="#c0c0c0"/>
      <stop offset="1" stop-color="#393939"/>
    </linearGradient>
    <radialGradient id="radialGradient4471" cx="83.065674" cy="81.761391" gradientTransform="matrix(1.145989 .00007182 -.0000718 1.145706 -12.93017 -8.588644)" gradientUnits="userSpaceOnUse" r="60.137135">
      <stop offset="0"/>
      <stop offset=".79708803" stop-color="#535353" stop-opacity=".021661"/>
      <stop offset=".8900001" stop-color="#d7d7d7" stop-opacity=".733333"/>
      <stop offset=".93590701" stop-color="#f8f6f8"/>
      <stop offset=".95950168" stop-color="#b8b8b8" stop-opacity=".642599"/>
      <stop offset="1" stop-color="#4c4c4c" stop-opacity="0"/>
    </radialGradient>
    <linearGradient id="linearGradient4477" gradientTransform="matrix(.438478 0 0 .441381 73.98556 -126.2765)" gradientUnits="userSpaceOnUse" x1="-12.06945" x2="-25.188473" xlink:href="#linearGradient2334" y1="25.74098" y2="25.657583"/>
    <linearGradient id="linearGradient2334">
      <stop offset="0" stop-color="#323232"/>
      <stop offset=".07692308" stop-color="#dfe1e1"/>
      <stop offset=".5" stop-color="#e2dcdc"/>
      <stop offset=".78201604" stop-color="#fff"/>
      <stop offset=".9005897" stop-color="#dfd9df"/>
      <stop offset="1" stop-color="#3a3a3a"/>
    </linearGradient>
    <linearGradient id="linearGradient4479" gradientTransform="matrix(.609627 0 0 .715052 29.30307 10.26489)" gradientUnits="userSpaceOnUse" x1="147.29317" x2="143.51395" xlink:href="#linearGradient3148" y1="91.801956" y2="79.985901"/>
    <radialGradient id="radialGradient4481" cx="-22.273863" cy="25.119381" fx="-22.740553" fy="25.096069" gradientTransform="matrix(1 0 0 19.25308 0 -458.5062)" gradientUnits="userSpaceOnUse" r="1.06066" xlink:href="#linearGradient3996"/>
    <linearGradient id="linearGradient4483" gradientTransform="matrix(3.448624 .00449815 .02868487 2.135546 -187.1513 6.397941)" gradientUnits="userSpaceOnUse" x1="48.498562" x2="48.732723" xlink:href="#linearGradient3996" y1=".811505" y2="2.365727"/>
    <linearGradient id="linearGradient4485" gradientTransform="matrix(3.429646 0 0 2.135734 -186.3433 6.642557)" gradientUnits="userSpaceOnUse" x1="46.051746" x2="46.051746" xlink:href="#linearGradient3251" y1="3.099999" y2="2.395859"/>
    <linearGradient id="linearGradient3251">
      <stop offset="0"/>
      <stop offset="1" stop-color="#131313" stop-opacity="0"/>
    </linearGradient>
    <radialGradient id="radialGradient4487" cx="49.011971" cy="2.674308" gradientTransform="matrix(2.28699 0 0 .25983 -140.1983 11.60303)" gradientUnits="userSpaceOnUse" r="1.724619" xlink:href="#linearGradient3273"/>
    <linearGradient id="linearGradient3273">
      <stop offset="0" stop-color="#fff" stop-opacity=".55036"/>
      <stop offset="1" stop-color="#fff" stop-opacity="0"/>
    </linearGradient>
    <linearGradient id="linearGradient4489" gradientTransform="matrix(3.402862 0 0 2.135734 -148.6237 6.642557)" gradientUnits="userSpaceOnUse" x1="46.051746" x2="46.051746" xlink:href="#linearGradient3251" y1="3.099999" y2="2.395859"/>
    <radialGradient id="radialGradient4491" cx="49.011971" cy="2.674308" gradientTransform="matrix(2.269129 0 0 .25983 -102.8394 11.60303)" gradientUnits="userSpaceOnUse" r="1.724619" xlink:href="#linearGradient3259"/>
    <linearGradient id="linearGradient3259">
      <stop offset="0" stop-color="#fff" stop-opacity=".55036"/>
      <stop offset="1" stop-opacity="0"/>
    </linearGradient>
    <radialGradient id="radialGradient4493" cx="49.011971" cy="2.674308" gradientTransform="matrix(7.916514 0 0 .25993 -406.4715 11.59422)" gradientUnits="userSpaceOnUse" r="1.724619" xlink:href="#linearGradient3207"/>
    <linearGradient id="linearGradient3207">
      <stop offset="0" stop-color="#fff"/>
      <stop offset="1" stop-color="#252525" stop-opacity="0"/>
    </linearGradient>
    <radialGradient id="radialGradient4495" cx="-24.921875" cy="15.046875" fx="-26.866419" fy="14.944194" gradientTransform="matrix(1 0 0 1.335606 -1.988117 -4.751606)" gradientUnits="userSpaceOnUse" r="4.421875" xlink:href="#linearGradient3996"/>
    <linearGradient id="linearGradient4497" gradientTransform="matrix(1.4518104 0 0 1.8602165 201.358 -155.70509)" gradientUnits="userSpaceOnUse" x1="-27.24758" x2="-10.121838" xlink:href="#linearGradient2334" y1="21.989172" y2="21.94939"/>
    <linearGradient id="linearGradient4501" gradientTransform="matrix(1.3751106 1.3189138 -1.3276488 1.3660627 130.81161 -54.993065)" gradientUnits="userSpaceOnUse" x1="53.468643" x2="74.656281" xlink:href="#linearGradient2334" y1="4.911948" y2="4.911948"/>
    <linearGradient id="linearGradient4503" gradientTransform="matrix(3.5261064 3.5543854 -2.1014922 2.1212226 49.880764 -148.16999)" gradientUnits="userSpaceOnUse" x1="48.498562" x2="48.732723" xlink:href="#linearGradient3996" y1=".811505" y2="2.365727"/>
    <linearGradient id="linearGradient4511" gradientTransform="matrix(3.5293096 3.5512464 2.1638466 -2.0584288 28.9901 -127.69906)" gradientUnits="userSpaceOnUse" x1="48.498562" x2="48.732723" xlink:href="#linearGradient3996" y1=".811505" y2="2.365727"/>
    <linearGradient id="linearGradient4521" gradientTransform="matrix(1.4681977 .00000002 -.00000001 1.4683278 128.92167 -115.42231)" gradientUnits="userSpaceOnUse" x1="-238.48151" x2="188.91844" xlink:href="#linearGradient2334" y1="-174.05746" y2="214.27696"/>
    <linearGradient id="linearGradient4529" gradientTransform="matrix(1.6677043 .07018116 -.07064596 1.6567329 2.087152 -15.542159)" gradientUnits="userSpaceOnUse" x1="93.014229" x2="63.199142" xlink:href="#linearGradient3996" y1="195.93301" y2="107.47736"/>
    <linearGradient id="linearGradient4531" gradientTransform="matrix(1.6677043 .07018116 -.07064596 1.6567329 2.087152 -15.542159)" gradientUnits="userSpaceOnUse" x1="23.311308" x2="63.795216" xlink:href="#linearGradient3996" y1="27.910204" y2="61.082687"/>
    <linearGradient id="linearGradient4533" gradientUnits="userSpaceOnUse" spreadMethod="reflect" x1="191.75986" x2="195.248833" y1="-124.0956" y2="-124.0956">
      <stop offset="0"/>
      <stop offset=".5" stop-opacity="0"/>
      <stop offset="1" stop-opacity="0"/>
    </linearGradient>
    <linearGradient id="linearGradient4535" gradientUnits="userSpaceOnUse" x1="192.246514" x2="219.683683" y1="68.238406" y2="80.901717">
      <stop offset="0" stop-color="#090909"/>
      <stop offset="1" stop-color="#090909" stop-opacity="0"/>
    </linearGradient>
    <linearGradient id="linearGradient4537" gradientUnits="userSpaceOnUse" x1="224.326897" x2="208.286707" xlink:href="#linearGradient3996" y1="88.499712" y2="74.570064"/>
    <radialGradient id="radialGradient4551" cx="-22.273863" cy="25.119381" fx="-22.740553" fy="25.096069" gradientTransform="matrix(4.266857 4.2879924 -34.210836 33.567597 1156.6349 -704.30252)" gradientUnits="userSpaceOnUse" r="1.06066" xlink:href="#linearGradient3996"/>
    <radialGradient id="radialGradient4557" cx="49.011971" cy="2.674308" gradientTransform="matrix(3.3202424 0 0 .36326391 -.552391 -132.83454)" gradientUnits="userSpaceOnUse" r="1.724619" xlink:href="#linearGradient3273"/>
    <radialGradient id="radialGradient4559" cx="49.011971" cy="2.674308" gradientTransform="matrix(3.2943082 0 0 .36326391 -352.28711 -132.83454)" gradientUnits="userSpaceOnUse" r="1.724619" xlink:href="#linearGradient3259"/>
    <radialGradient id="radialGradient4561" cx="49.011971" cy="2.674308" gradientTransform="matrix(11.493221 -.00000008 0 .36337023 -384.44034 -132.75018)" gradientUnits="userSpaceOnUse" r="1.724619" xlink:href="#linearGradient3207"/>
    <radialGradient id="radialGradient4565" cx="49.011971" cy="2.674308" gradientTransform="matrix(3.3202659 -.00000002 0 .36333817 -4.262519 117.54211)" gradientUnits="userSpaceOnUse" r="1.724619" xlink:href="#linearGradient3273"/>
    <radialGradient id="radialGradient4567" cx="49.011971" cy="2.674308" gradientTransform="matrix(3.2943375 .00000002 0 .36333817 -348.58174 117.54211)" gradientUnits="userSpaceOnUse" r="1.724619" xlink:href="#linearGradient3259"/>
    <radialGradient id="radialGradient4569" cx="49.011971" cy="2.674308" gradientTransform="matrix(11.493148 0 .00000001 .36353062 -392.67106 117.72818)" gradientUnits="userSpaceOnUse" r="1.724619" xlink:href="#linearGradient3207"/>
    <radialGradient id="radialGradient4571" cx="83.065674" cy="81.761391" gradientTransform="matrix(1.3432394 1.3529693 -1.3615899 1.3340732 117.8472 -92.188203)" gradientUnits="userSpaceOnUse" r="60.137135" xlink:href="#linearGradient2455"/>
    <linearGradient id="linearGradient4575" gradientTransform="matrix(1.1721977 1.1805376 -1.188356 1.1644837 122.79755 -66.922317)" gradientUnits="userSpaceOnUse" x1="70.014503" x2="70.714478" xlink:href="#linearGradient3148" y1="234.0043" y2="81.013222"/>
    <linearGradient id="linearGradient4577" gradientTransform="matrix(2.053228 0 0 2.0655172 1.671686 -6.976255)" gradientUnits="userSpaceOnUse" x1="65.203751" x2="56.701717" xlink:href="#linearGradient3148" y1="612.86029" y2="-254.52678"/>
    <radialGradient id="radialGradient4579" cx="59.067848" cy="128.89101" gradientTransform="matrix(2.1213208 .01442716 -.01435654 2.0837252 -15.070338 -110.66354)" gradientUnits="userSpaceOnUse" r="62.349537">
      <stop offset="0" stop-opacity="0"/>
      <stop offset=".78571427" stop-opacity="0"/>
      <stop offset="1"/>
    </radialGradient>
    <linearGradient id="linearGradient4581" gradientUnits="userSpaceOnUse" x1="236.262368" x2="205.242117" xlink:href="#linearGradient3148" y1="155.864706" y2="166.204785"/>
    <radialGradient id="radialGradient4583" cx="106.95535" cy="101.32612" gradientTransform="matrix(1 0 0 .971429 0 2.895033)" gradientUnits="userSpaceOnUse" r="7.577808" xlink:href="#linearGradient2334"/>
    <radialGradient id="radialGradient4595" cx="106.95535" cy="101.32612" gradientTransform="matrix(2.207106 -.00000003 0 2.1442414 -103.28618 -187.65263)" gradientUnits="userSpaceOnUse" r="7.577808" xlink:href="#linearGradient2334"/>
    <linearGradient id="linearGradient4597" gradientUnits="userSpaceOnUse" x1="209.349882" x2="216.394636" xlink:href="#linearGradient3148" y1="70.697019" y2="46.206422"/>
    <linearGradient id="linearGradient4599" gradientUnits="userSpaceOnUse" x1="205.543324" x2="213.895716" xlink:href="#linearGradient3148" y1="62.196176" y2="46.103425"/>
    <linearGradient id="linearGradient46" gradientUnits="userSpaceOnUse" x1="70.014503" x2="70.714478" xlink:href="#linearGradient3148" y1="234.0043" y2="81.013222"/>
    <linearGradient id="linearGradient47" gradientTransform="matrix(3.324551 -3.768017 3.412219 3.760659 -394.5377 140.5301)" gradientUnits="userSpaceOnUse" x1="96.500999" x2="86.659409" xlink:href="#linearGradient3148" y1="108.17699" y2="46.901562"/>
    <linearGradient id="linearGradient48" gradientUnits="userSpaceOnUse" x1="15.926414" x2="60.493149" xlink:href="#linearGradient3996" y1="35.015072" y2="89.003677"/>
    <mask id="mask1874" maskUnits="userSpaceOnUse">
      <g transform="translate(248.01637 30.885255)">
        <path d="m-184.42232-32.47243c-33.12519 0-64 32.374805-64 65.5 0 33.12519 31.37481 64 64.5 64 30.28912 0 55.33661-26.21626 59.40625-55.34375l-35.03125-5.03125c-1.62468 11.96113-11.93007 20.96875-24.375 20.96875-13.57163 0-22.09375-11.52212-22.09375-25.09375 0-13.571634 6.02212-20.09375 19.59375-20.09375 6.78582-.000001 9.92129-2.234956 14.375 2.21875l-4.82718 11.327179c-2.05587 2.05587-2.24372 3.30578-1.67961 4.615529.50857 1.180779 1.52073 2.526042 4.20973 2.526042h43.95331c3.84589 0 6.45899-2.654379 6.45899-6.250131l-.0689-44.078018c0-2.480755-.90251-3.843229-2.18147-4.349615-1.31432-.520385-3.03321-.122678-5.10709 1.9512l-10.19531.195314c-10.85935-10.859351-26.3749-13.0625-42.9375-13.0625z" fill="url(#radialGradient1884)"/>
        <path d="m-165.97219 35.741664c-.5 2.5-25.73233 13.210991-25.73233 13.210991l-17.54044 57.354135 93.24867-15.147495 17.090919-53.805075z" fill="url(#linearGradient1886)" fill-rule="evenodd" filter="url(#filter3438)"/>
        <rect height="12.847281" width="65.162331" x="-178.8031" y="34.267242"/>
      </g>
    </mask>
    <radialGradient id="radialGradient1884" cx="-112.17241" cy="118.60459" fx="-113.14772" fy="59.708473" gradientTransform="matrix(.6484284 .1017206 -.03125715 .1992521 -4.56257 53.15916)" gradientUnits="userSpaceOnUse" r="59.995121">
      <stop offset="0" stop-color="#fff" stop-opacity="0"/>
      <stop offset=".5" stop-color="#fff" stop-opacity=".18705"/>
      <stop offset="1" stop-color="#fff"/>
    </radialGradient>
    <linearGradient id="linearGradient1886" gradientUnits="userSpaceOnUse" x1="-187.48831" x2="-204.79953" xlink:href="#linearGradient3148" y1="91.523811" y2="89.909561"/>
    <filter id="filter3438" height="1.09076" width="1.058044" x="-.029022" y="-.04538">
      <feGaussianBlur stdDeviation="1.3342697"/>
    </filter>
    <linearGradient id="linearGradient3516" gradientTransform="matrix(.9792 0 0 .9725 133.0002 20.8762)" gradientUnits="userSpaceOnUse" x1="64.088867" x2="64.088867" y1="9.679421" y2="123.90625">
      <stop offset="0" stop-color="#f0ba00"/>
      <stop offset=".3553" stop-color="#dab000"/>
      <stop offset=".6194" stop-color="#c89200"/>
      <stop offset=".7574" stop-color="#b39100"/>
      <stop offset="1" stop-color="#695500"/>
    </linearGradient>
    <radialGradient id="radialGradient3757" cx="66.01458" cy="126.69183" gradientTransform="matrix(.675025 0 0 .3583625 19.527377 41.004647)" gradientUnits="userSpaceOnUse" r="59.995121">
      <stop offset="0" stop-color="#d9a11f"/>
      <stop offset="1" stop-color="#be8e2c" stop-opacity="0"/>
    </radialGradient>
    <radialGradient id="radialGradient3658" cx="167.67001" cy="80.404922" gradientTransform="matrix(.2676699 .521376 -.7037472 .3612977 108.99386 -36.062981)" gradientUnits="userSpaceOnUse" r="59.995121" xlink:href="#linearGradient3148"/>
    <radialGradient id="radialGradient3654" cx="-10.165252" cy="66.906013" gradientTransform="matrix(.4582893 -.00000002 .00000005 1.0000813 20.447953 -.005197)" gradientUnits="userSpaceOnUse" r="59.995121" xlink:href="#linearGradient3148"/>
    <radialGradient id="radialGradient3744" cx="46.25367" cy="86.72467" fx="46.253662" gradientTransform="matrix(-.00000024 1.1093034 -1.0633726 -.00000014 156.30951 -2.406116)" gradientUnits="userSpaceOnUse" r="59.995121" xlink:href="#linearGradient3148"/>
    <radialGradient id="radialGradient3767" cx="64.088867" cy="7.410843" gradientTransform="matrix(.3093869 0 0 .4779247 44.260611 3.864422)" gradientUnits="userSpaceOnUse" r="59.995121" xlink:href="#linearGradient3996"/>
    <filter id="filter3630" height="1.036044" width="1.035957" x="-.017978" y="-.018022">
      <feGaussianBlur stdDeviation=".89883985"/>
    </filter>
    <linearGradient id="linearGradient3676" gradientUnits="userSpaceOnUse" spreadMethod="reflect" x1="120.0625" x2="125.30366" xlink:href="#linearGradient3996" y1="12.569496" y2="14.444496"/>
    <filter id="filter3738" height="1.397879" width="1.301924" x="-.150962" y="-.198939">
      <feGaussianBlur stdDeviation=".39257441"/>
    </filter>
    <linearGradient id="linearGradient3771" gradientUnits="userSpaceOnUse" spreadMethod="reflect" x1="120.0625" x2="125.30366" y1="12.569496" y2="14.444496">
      <stop offset="0" stop-color="#ffdc45"/>
      <stop offset="1" stop-color="#fff" stop-opacity="0"/>
    </linearGradient>
    <radialGradient id="radialGradient3524" cx="67.09375" cy="116.90626" gradientUnits="userSpaceOnUse" r="71.590965">
      <stop offset="0" stop-color="#f1c300"/>
      <stop offset=".3553" stop-color="#b38600"/>
      <stop offset=".6194" stop-color="#d9ad0d"/>
      <stop offset=".7574" stop-color="#ffcb01"/>
      <stop offset="1" stop-color="#dfa300"/>
    </radialGradient>
    <radialGradient id="radialGradient3535" cx="99.726295" cy="27.418272" fx="64.689766" fy="68.231934" gradientTransform="matrix(.693735 .05867125 -.0362428 .4285387 33.939389 26.8809)" gradientUnits="userSpaceOnUse" r="56">
      <stop offset="0" stop-color="#fb0"/>
      <stop offset="1" stop-color="#4d3300" stop-opacity="0"/>
    </radialGradient>
    <linearGradient id="linearGradient3548" gradientUnits="userSpaceOnUse" x1="75.09375" x2="75.09375" y1="4.531704" y2="80.172485">
      <stop offset="0" stop-color="#ffeebf"/>
      <stop offset="1" stop-color="#fff6bf" stop-opacity="0"/>
    </linearGradient>
    <linearGradient id="linearGradient3581" gradientUnits="userSpaceOnUse" x1="75.097969" x2="75.097969" xlink:href="#linearGradient3996" y1="4.533675" y2="80.174454"/>
    <linearGradient id="linearGradient3613" gradientUnits="userSpaceOnUse" x1="71.59375" x2="71.59375" y1="130.40625" y2="63.426777">
      <stop offset="0" stop-color="#fff480"/>
      <stop offset="1" stop-color="#fff680" stop-opacity="0"/>
    </linearGradient>
    <filter id="filter3378" height="1.033143" width="1.033143" x="-.016571" y="-.016571">
      <feGaussianBlur stdDeviation=".565"/>
    </filter>
  </defs>
  <ellipse cx="128" cy="243.45352" fill="url(#radialGradient3154)" opacity=".221312" rx="128.51683" ry="12.014585"/>
  <g transform="matrix(.28484144 .28539904 -.25844988 .25181088 220.4638 -18.131289)">
    <g>
      <g>
        <path d="m82.253117 16.192372c-37.957156 0-68.919768 30.930705-68.919768 68.887861 0 37.957157 30.962613 68.919767 68.919768 68.919767 37.957163 0 68.919773-30.96261 68.919773-68.919767 0-37.957156-30.96261-68.887861-68.919773-68.887861zm0 14.996432c29.830703 0 53.891423 24.060738 53.891423 53.891429 0 29.830697-24.06072 53.891417-53.891423 53.891417-29.830693 0-53.89143-24.06072-53.89143-53.891417 0-29.830691 24.060739-53.891429 53.89143-53.891429z" fill="url(#radialGradient4467)"/>
        <path d="m13.333349 85.080233c0 37.957157 30.962613 68.919767 68.919768 68.919767 37.957163 0 68.919773-30.96261 68.919773-68.919767 0-37.957156-137.839541-37.957156-137.839541 0zm122.811191 0c0 29.830697-24.06072 53.891417-53.891423 53.891417-29.830693 0-53.89143-24.06072-53.89143-53.891417 0-29.830691 107.782853-29.830691 107.782853 0z" fill="url(#linearGradient46)"/>
        <path d="m82.253117 16.192372c-37.957156 0-68.919768 30.930705-68.919768 68.887861 0 37.957157 30.962613 68.919767 68.919768 68.919767 37.957163 0 68.919773-30.96261 68.919773-68.919767 0-37.957156-30.96261-68.887861-68.919773-68.887861zm0 14.996432c29.830703 0 53.891423 24.060738 53.891423 53.891429 0 29.830697-24.06072 53.891417-53.891423 53.891417-29.830693 0-53.89143-24.06072-53.89143-53.891417 0-29.830691 24.060739-53.891429 53.89143-53.891429z" fill="url(#radialGradient4471)"/>
        <path d="m32.919809 44.249044c-7.19123 9.15761-11.296417 20.718791-11.296429 33.303626-.000017 15.789309 6.64233 30.01589 17.411554 39.85996-6.715563-8.98785-10.587113-20.219928-10.587116-32.338642.00001-29.8307 23.963769-53.818874 53.794476-53.818893 13.983144-.000001 26.704286 5.269512 36.267886 13.959199-9.82085-13.066631-25.435163-21.480535-43.092328-21.480517-17.245882.000017-32.643381 7.965934-42.498043 20.515267zm-4.818215 83.409956c12.637184 16.06593 32.257014 26.29152 54.201 26.29152 37.957176-.00001 68.883506-30.81815 68.883506-68.775314.00002-19.40061-8.12571-36.964581-21.10279-49.502155 8.91543 11.610347 14.27835 26.264198 14.27835 41.980837 0 37.957152-30.92633 68.775302-68.883498 68.775312-18.271445 0-35.020075-7.0945-47.376568-18.7702z" fill="url(#linearGradient47)"/>
        <path d="m106.40625.9375c-3.0632.0990517-6.01559 1.2292478-8.25 3.40625-2.633411 2.5657526-3.794611 6.113268-3.53125 9.71875.220155-2.887821 1.389582-5.6321059 3.53125-7.71875 5.10722-4.976005 13.87125-4.4210106 19.5 1.21875 2.71177 2.717073 4.20819 6.1317 4.46875 9.5.2865-3.982648-1.21463-8.2395129-4.46875-11.5-3.16617-3.1723653-7.3116-4.75235216-11.25-4.625zm-8.78125 13.5c-.301157 3.171661.882093 6.595721 3.5 9.21875 4.42366 4.432314 11.23621 4.848164 15.25.9375 2.12495-2.070351 3.02302-4.921232 2.75-7.8125-.21347 2.176079-1.1194 4.223793-2.75 5.8125-4.01379 3.910664-10.82634 3.494814-15.25-.9375-2.073589-2.077647-3.251006-4.658591-3.5-7.21875z" fill="url(#linearGradient48)" transform="matrix(3.324551 -3.768017 3.412219 3.760659 -327.8572 438.6096)"/>
      </g>
    </g>
  </g>
  <g transform="matrix(2.053228 0 0 2.053228 1.671686 -5.486401)">
    <rect fill="url(#linearGradient4477)" height="6.329079" transform="matrix(.00994511 .999951 -.999952 .0098147 0 0)" width="5.547753" x="63.259872" y="-115.09926"/>
    <g transform="matrix(.752035 0 0 .752035 27.42683 15.48001)">
      <rect fill="url(#linearGradient4479)" height="4.786486" transform="matrix(.999695 -.02470684 -.04260364 .999092 0 0)" width="3.910747" x="115.50954" y="67.634216"/>
      <g transform="matrix(.00579881 .583026 -.586887 .00576066 132.4148 76.30728)">
        <rect height="12.371133" width="16.588566" x="-26.710403" y="15.763824"/>
        <path d="m-21.213203 25.119381c0 3.317745.18567 3.699316-.925702 3.699316-1.348921 0-1.195618 2.292556-1.195618-1.025189s.475176-8.684534 1.06066-8.684534c.585485 0 1.06066 2.692662 1.06066 6.010407z" fill="url(#radialGradient4481)" opacity=".364754" transform="matrix(4.166667 0 0 1.338235 73.00877 -10.52919)"/>
      </g>
      <g transform="matrix(.00579881 .583026 -.586887 .00576066 132.4128 76.11627)">
        <path d="m-19.34375 8.96875c-7.421472.174189-11.811409 2.026669-12.46875 2.96875-.03694.05788-.05475.137323-.0625.1875-.000508.007-.000092.02443 0 .03125v5.90625h27.59375s-.025893-5.477208-.03125-5.875c-.0002288-.01709.0026-.04492 0-.0625-.018936-.08905-.07851-.213355-.15625-.3125-.952784-1.139896-5.693726-2.8333732-13.65625-2.84375-.415011-.0005411-.821171-.00933-1.21875 0z" fill-rule="evenodd"/>
        <path d="m-20.53664 9.2059377c5.348446-.2444763 10.6382483.587152 11.0541948.7184367.4159256.1312966-6.0450428-.4957344-10.2014838-.1138677-4.124677.3789383-7.764362 2.3635033-8.218868 2.3830193-.454505.01952-3.984135-.160856-2.28769-1.028873 1.774405-.907907 5.524316-1.7687788 9.653847-1.9587153z" fill="url(#linearGradient4483)" fill-rule="evenodd"/>
        <rect fill="url(#linearGradient4485)" height="1.036178" transform="matrix(.999999 .00130413 .01343145 .99991 0 0)" width="7.888392" x="-32.052456" y="12.227109"/>
        <rect fill="url(#radialGradient4487)" height="1.612524" transform="matrix(.999999 .00130413 .01343145 .99991 0 0)" width="7.888392" x="-32.052456" y="11.650754"/>
        <rect fill="url(#linearGradient4489)" height="1.036178" transform="matrix(-.999999 -.00130413 .01343145 .99991 0 0)" width="7.826785" x="4.463424" y="12.227109"/>
        <rect fill="url(#radialGradient4491)" height="1.612524" transform="matrix(-.999999 -.00130413 .01343145 .99991 0 0)" width="7.826785" x="4.463424" y="11.650754"/>
        <rect fill="url(#radialGradient4493)" height="1.613145" transform="matrix(1 .00056811 .03082075 .999525 0 0)" width="27.305944" x="-32.119999" y="11.641968"/>
        <path d="m-31.019367 12.593464c-.194198.702526-.3125 1.479663-.3125 2.278882 0 1.184028.218846 2.280903.625 3.224375h7.5625c.406154-.943472.65625-2.040347.65625-3.224375 0-.799219-.118302-1.576356-.3125-2.278882z" fill="url(#radialGradient4495)" opacity=".508197"/>
      </g>
    </g>
  </g>
  <rect fill="url(#linearGradient4497)" height="23.012985" transform="matrix(.70535767 .70885158 -.71378532 .70036457 0 0)" width="24.083452" x="162.57956" y="-126.38097"/>
  <path d="m206.76596 47.932908c-5.89531 5.784463-5.7811 7.245881-10.52316 2.480326-5.75566-5.784163-9.17518-1.129747-3.27987-6.91421 5.8953-5.784463 17.45907-13.103867 19.95725-10.593316 2.49818 2.510555-.25891 9.242737-6.15422 15.0272z" fill="url(#radialGradient4551)" opacity=".364754"/>
  <path d="m218.42742 26.402671c-7.19918-6.72466-13.12054-9.32231-14.90682-9.266162-.014.000834-.0708.000274-.0844.0015-.014.0016-.0288.04076-.0416.04268-.036.007-.0916.0288-.126.04416-.01.0056-.0742-.0044-.0844.0015-.01.0058-.033.03708-.0416.04268-.004.0032-.0354.03668-.0414.04268l-9.67584 9.443216c-.006.0058-.0382.03902-.0414.04268-.01.0142.014.0654.001.0839-.006.01-.0358.03196-.0414.04268-.016.03376-.0324.09108-.04.1266-.26976 1.598848 2.37162 7.91224 9.78294 15.734332.39704.41904.82296.851812 1.24768 1.27917 8.08514 8.135422 14.59398 11.36905 16.75908 11.290168.012-.0011.0732-.000094.0844-.0015.1342-.0203.28314-.08364.37784-.13248.008-.0042.0348-.03848.0416-.0427.01-.0114.0328-.03444.0416-.04268.25036-.238138 9.39122-9.155104 9.63434-9.400526.012-.0126.0674-.06934.083-.08538.0642-.1087.1002-.297626.1186-.463688.002-.03278.0392-.09166.04-.1266.0001-.036-.001-.1297-.002-.1678-.006-.09796-.0324-.265894-.049-.37684-.4315-2.633306-3.72206-8.735646-11.10028-16.172976-.42428-.427734-.83132-.87905-1.24764-1.279168-.24286-.233408-.44756-.435304-.68756-.659458z" fill="url(#linearGradient4501)" fill-rule="evenodd"/>
  <path d="m217.6539 26.091853c5.71948 5.26618 10.30526 11.526 10.6001 12.082762.29478.556752-5.6941-6.708266-10.33036-10.61284-4.60082-3.874744-10.30722-5.67759-10.79202-6.126338s-3.91832-4.258784-1.31546-3.362674c2.7225.937296 7.42052 3.95422 11.83774 8.01909z" fill="url(#linearGradient4503)" fill-rule="evenodd"/>
  <rect fill="url(#radialGradient4557)" height="2.254438" transform="matrix(.70427714 .70992514 -.70379506 .71040306 0 0)" width="11.45231" x="156.45282" y="-132.76781"/>
  <rect fill="url(#radialGradient4559)" height="2.254438" transform="matrix(-.70427714 -.70992514 -.70379506 .71040306 0 0)" width="11.36287" x="-196.50644" y="-132.76781"/>
  <rect fill="url(#radialGradient4561)" height="2.255112" transform="matrix(.70477996 .70942597 -.69084801 .72300002 0 0)" width="39.642906" x="159.04482" y="-132.68349"/>
  <path d="m202.0925 41.340615c5.22226 5.753456 11.46016 10.394302 12.0165 10.694796.55636.300454-6.67406-5.747942-10.54068-10.406734-3.83704-4.62318-5.5735-10.316198-6.01854-10.80389-.44506-.487692-4.23296-3.950498-3.36662-1.352714.90614 2.717166 3.87842 7.425152 7.90934 11.868542z" fill="url(#linearGradient4511)" fill-rule="evenodd"/>
  <rect fill="url(#radialGradient4565)" height="2.25489" transform="matrix(.70491289 .70929388 .72453598 -.68923698 0 0)" width="11.452447" x="152.74466" y="117.60873"/>
  <rect fill="url(#radialGradient4567)" height="2.25489" transform="matrix(-.70491289 -.70929388 .72453598 -.68923698 0 0)" width="11.363006" x="-192.79874" y="117.60873"/>
  <rect fill="url(#radialGradient4569)" height="2.256089" transform="matrix(.70441016 .70979316 .73686018 -.67604517 0 0)" width="39.642597" x="150.80978" y="117.79498"/>
  <path d="m199.97222 49.036413c-44.49332-44.8098803-117.54429-45.3441163-162.650868-1.143604-45.1065822 44.200512-45.6068372 116.808551-1.113526 161.618431 44.493318 44.8099 117.582204 45.30696 162.688794 1.10646 45.10656-44.20052 45.56892-116.771395 1.0756-161.581287zm-17.8211 17.463112c34.9675 35.216295 34.57872 91.639255-.87072 126.376615-35.44945 34.73738-92.246062 34.35112-127.213558-.86518-34.967486-35.21628-34.578762-91.63925.8707-126.376621 35.449454-34.73737 92.246108-34.351092 127.213578.865186z" fill="url(#radialGradient4571)"/>
  <ellipse cx="174.98769" cy="7.288091" fill="url(#linearGradient4521)" rx="91.541451" ry="91.549561" transform="matrix(.7045955 .70960918 -.71424396 .69989682 0 0)"/>
  <path d="m163.34054 87.099859-44.26365 36.835041c-2.73028-1.13182-6.03817-.62636-8.29691 1.5113-2.25182 2.13108-2.81857 5.28726-1.67567 7.90332l-12.717512 12.0357 3.902032 3.76696 12.71751-12.0357c2.72788 1.1251 6.02945.61132 8.28472-1.52306 2.2599-2.13874 2.82276-5.29348 1.66348-7.9151z" fill="#505050" fill-opacity=".138211"/>
  <path d="m37.321352 47.892809c-45.1065822 44.200512-45.6068372 116.808551-1.113526 161.618431 44.493318 44.8099 117.582204 45.30696 162.688794 1.10646 45.10656-44.20052-116.46869-206.9254033-161.575268-162.724891zm143.959048 144.983331c-35.44945 34.73738-92.246062 34.35112-127.213558-.86518-34.967486-35.21628-34.578762-91.63925.8707-126.376621 35.449454-34.73737 161.792298 92.504441 126.342858 127.241801z" fill="url(#linearGradient4575)"/>
  <path d="m117.10161 26.201097c-22.462052.249016-44.865016 8.884932-62.174318 25.948052-19.386426 19.110696-30.846116 44.80262-29.212826 69.904831 1.526504-20.96542 13.011316-41.540651 29.212826-57.511733 35.449452-34.945264 92.268498-34.523378 127.235968.903664 15.70806 15.9145 26.84932 35.477779 28.31452 56.090909 1.6523-24.736907-9.46484-49.386611-28.31452-68.484009-17.89351-18.128682-41.52142-27.112678-65.06165-26.851714zm-113.7616762 96.111063c-1.68375 31.23492 9.2302502 63.07804 32.8516522 87.0099 44.493318 45.07806 117.611744 45.56232 162.718334 1.0973 24.31526-23.96946 35.62214-56.20258 33.94242-87.91356-1.4926 27.5691-12.79872 54.67746-33.94242 75.52046-45.10659 44.46502-118.225016 43.98076-162.718334-1.09732-20.508636-20.77816-31.4240642-47.49302-32.8516522-74.61678z" fill="url(#linearGradient4577)" opacity=".536885"/>
  <path d="m182.6434 64.335769c-35.67313-35.027262-93.249064-35.128196-129.06167-.03497-12.971492 12.710932-21.321766 28.343754-25.058684 44.790161l172.995934 58.37582c15.5163-33.4963 9.56186-74.491255-18.03306-102.282499-.27816-.280136-.56162-.572706-.84252-.848512z" fill="url(#radialGradient4579)" opacity=".696721"/>
  <path d="m79.36251 54.851741 31.21397 71.151099c-1.93045 2.22708-2.47341 5.50782-1.12891 8.30434 1.34038 2.78794 4.18468 4.30274 7.04273 4.03538l7.57003 15.74542 4.8157-2.51582-7.57002-15.74542c1.92325-2.2269 2.4563-5.50424 1.11386-8.29648-1.34519-2.79796-4.18931-4.30862-7.05778-4.02752z" fill-opacity=".097561"/>
  <ellipse cx="174.9877" cy="7.288289" rx="11.224427" ry="11.225427" transform="matrix(.70459558 .70960909 -.71424406 .69989673 0 0)"/>
  <path d="m165.34054 85.099859-44.26365 36.835041c-2.73028-1.13183-6.03817-.62634-8.29691 1.5113-2.25182 2.13108-2.81857 5.28728-1.67567 7.90332l-12.717514 12.0357 3.902034 3.76696 12.71751-12.0357c2.72788 1.1251 6.02945.61132 8.28472-1.52306 2.2599-2.13872 2.82276-5.29348 1.66348-7.9151z" fill="#505050"/>
  <path d="m81.36251 52.851743 31.21397 71.151097c-1.93045 2.22708-2.47341 5.50782-1.12891 8.30434 1.34038 2.78796 4.18468 4.30274 7.04273 4.03538l7.57003 15.74542 4.8157-2.51582-7.57002-15.74542c1.92325-2.2269 2.4563-5.50424 1.11386-8.29648-1.34519-2.79796-4.18931-4.30863-7.05778-4.02752z" fill="#a00000"/>
  <g transform="matrix(1.6677043 .07018116 -.07064596 1.6567329 2.087152 -15.542163)">
    <rect height="14.974206" opacity=".696721" transform="matrix(.43984924 .40968566 -.40964885 .43980929 -.852583 9.417329)" width="1.784061" x="174.09627" y="-81.053131"/>
    <rect height="8.999997" opacity=".696721" transform="matrix(.97450104 .224383 -.224383 .97450104 0 0)" width="1.072376" x="89.738029" y="12.969214"/>
    <rect height="9" opacity=".696721" transform="matrix(-.95613385 .29293012 -.29293012 -.95613385 0 0)" width="1.072377" x="-46.846619" y="-155.10823"/>
    <rect height="9" opacity=".696721" transform="matrix(.95613385 -.29293012 .29293012 .95613385 0 0)" width="1.072377" x="44.701859" y="49.567024"/>
    <rect height="8.999997" opacity=".696721" transform="matrix(-.97450103 -.22438302 .22438302 -.97450103 0 0)" width="1.072376" x="-91.882782" y="-118.51031"/>
    <rect height="9.000002" opacity=".696721" transform="matrix(.22438232 -.97450119 .97450119 .22438232 0 0)" width="1.072377" x="-66.812279" y="38.03981"/>
    <rect height="9.000002" opacity=".696721" transform="matrix(-.22438234 .97450119 -.97450119 -.22438234 0 0)" width="1.072377" x="64.667519" y="-143.58102"/>
    <rect height="9.000002" opacity=".696721" transform="matrix(-.29293012 -.95613385 .95613385 -.29293012 0 0)" width="1.072377" x="-103.41003" y="-6.996347"/>
    <rect height="9.000002" opacity=".696721" transform="matrix(.29293012 .95613385 -.95613385 .29293012 0 0)" width="1.072377" x="101.26527" y="-98.544876"/>
    <path d="m93.742787 53.95649 1.222392 1.138564 3.929762-4.219093-1.578226-.971916.634834-.681574 1.570814.965011.748257.696941-4.564601 4.900667 1.222392 1.138565-.586532.629715-3.185624-2.967164zm5.341468 4.975168 2.611465 2.432384-.58653.629716-3.511588-3.270778.586532-.629715q.836554-.04403 2.260026-.101734 1.43063-.05796 1.81965-.09684.73538-.06909 1.1349-.215802.40669-.146957.65855-.417365.41057-.440801.35818-1.008434-.0487-.564185-.54505-1.026508-.3519-.327767-.8584-.571246-.5028-.240029-1.17847-.405874l.70384-.755659q.62097.239418 1.09987.512531.47891.273119.80487.576731.85938.800444.97034 1.706257.11096.905813-.55838 1.62443-.31742.340787-.73343.527483-.40885.186439-1.13236.287345-.19266.02116-1.1686.07372-.97249.04886-2.735415.129356z"/>
    <path d="m46.947104 114.27573q.37656.35073.837913.29955.458588-.0538.876382-.50232.415216-.44578.438897-.9098.01834-.46382-.358223-.81456-.376567-.35074-.835155-.29698-.463932.054-.879148.49974-.417794.44856-.43613.91238-.0211.46124.355464.81199zm-2.742809.71851.474531-.50947q.117595.29568.284563.54945.164205.25119.374635.44719.553775.5158 1.195435.41537.638888-.103 1.384483-.82021-.387735.0887-.752793-.0134-.367644-.0994-.663908-.37535-.622992-.58027-.629628-1.29487-.01197-.71441.594086-1.36509.593165-.63683 1.328202-.67097.735045-.0341 1.36081.54873.717131.66795.585827 1.5695-.133884.90432-1.106159 1.94818-.912957.98018-1.91971 1.12837-1.009332.15096-1.792921-.57889-.21043-.196-.384948-.43612-.177283-.24269-.332502-.5424z"/>
    <rect height="9.000002" opacity=".696721" transform="matrix(-.73175197 -.68157101 .68157101 -.73175197 0 0)" width="1.072377" x="-112.58651" y="-64.297791"/>
    <rect height="9" opacity=".696721" transform="matrix(-.68157101 .73175197 -.73175197 -.68157101 0 0)" width="1.072377" x="10.454785" y="-164.28473"/>
    <rect height="9" opacity=".696721" transform="matrix(.68157099 -.731752 .731752 .68157099 0 0)" width="1.072377" x="-12.599546" y="58.743515"/>
    <path d="m102.44037 111.3813q-.45979.32154-.94002.29308-.48283-.0257-.88154-.39707-.61193-.56995-.55495-1.30288.057-.73291.77909-1.50819.24242-.26028.55293-.48816.30516-.2277.68098-.42577l.53993.5029q-.35231.10622-.67943.31863-.32712.2124-.60823.51421-.49001.52608-.53766.99362-.0502.47031.34572.83911.36548.34042.81023.27377.44493-.0613.87046-.51818l.44874-.48178.45963.42811-.46937.50393q-.38427.41256-.42465.78346-.0376.37348.2725.66232.31842.29659.6988.22686.38057-.0644.77257-.48525.21406-.22981.40923-.53927.19517-.30945.38395-.72311l.49839.46422q-.20798.40094-.42158.71909-.2162.32089-.44573.56731-.59317.63684-1.22947.73708-.63355.10281-1.12641-.35625-.34334-.31979-.39835-.73817-.0523-.4158.19423-.86363z"/>
    <path d="m44.670943 60.210077-.509469-.474531q.295681-.11759.54945-.28456.253766-.166973.447189-.374637.515795-.553771.415562-1.190084-.100424-.64166-.820406-1.389833.08854.382385-.01362.747447-.102162.365061-.380691.664097-.577691.620224-1.289332.634782-.711832.0092-1.362513-.596849-.636837-.593165-.670967-1.328207-.03413-.735042.548719-1.360804.667955-.717133 1.569698-.580482.901554.131304 1.948182 1.106158.977405.910379 1.128365 1.919711.150771 1.003985-.579079 1.787571-.196003.210433-.438697.387718-.242695.177285-.542393.3325zm-.715936-2.745573q.35074-.376564.296976-.835148-.05119-.461354-.49974-.879148-.445786-.415216-.909608-.433552-.464011-.02368-.814752.35288-.350741.376565-.296787.840497.05376.458585.49955.8738.448555.417795.909798.4389.463822.01834.814563-.358229z"/>
  </g>
  <path d="m232.65726 121.07961c-5.4979 16.01887-9.02924 34.01237-17.15772 48.07335-3.68532 6.375-19.50554 11.0852-18.94768 13.25132.5353 2.0784 18.36504 4.3259 22.22714-.51784 8.2523-10.34964 9.35014-30.57372 14.0555-45.59444.1698-5.15434.1234-9.96976-.1774-15.21239z" fill-rule="evenodd" opacity=".180328"/>
  <path d="m232.65726 121.07961c-4.79502 17.69617-8.90264 35.29819-17.03114 49.35915-3.68534 6.37498-15.24802 8.8257-14.69016 10.99182.53528 2.07838 11.97452 3.27888 15.83662-1.56482 8.2523-10.34962 11.16104-28.15016 15.86642-43.17088-.3006-5.24262.31884-10.37264.018-15.61527z" fill="url(#linearGradient4581)" fill-rule="evenodd" opacity=".180328"/>
  <g transform="matrix(1.6677043 .07018116 -.07064596 1.6567329 2.087152 -15.542163)">
    <rect height="1.799535" opacity=".696721" transform="matrix(.731752 .68157099 -.68157099 .731752 0 0)" width=".21442" x="133.38354" y="18.07995"/>
    <rect height="1.799535" opacity=".696721" transform="matrix(-.73175197 -.68157101 .68157101 -.73175197 0 0)" width=".21442" x="-133.81239" y="-39.182739"/>
    <rect height="1.799535" opacity=".696721" transform="matrix(-.68157101 .73175197 -.73175197 -.68157101 0 0)" width=".21442" x="28.41691" y="-144.14935"/>
    <rect height="1.799535" opacity=".696721" transform="matrix(.68157099 -.731752 .731752 .68157099 0 0)" width=".21442" x="-28.84576" y="123.04665"/>
    <rect height="1.799533" opacity=".696721" transform="matrix(-.9561339 .29292996 -.29292996 -.9561339 0 0)" width=".21442" x="-42.218117" y="-140.56609"/>
    <rect height="1.799533" opacity=".696721" transform="matrix(.9561339 -.29292997 .29292997 .9561339 0 0)" width=".21442" x="41.789272" y="119.46337"/>
    <rect height="1.799538" opacity=".696721" transform="matrix(-.97450103 -.22438302 .22438302 -.97450103 0 0)" width=".21442" x="-101.59805" y="-102.14622"/>
    <rect height="1.799538" opacity=".696721" transform="matrix(.97450104 .224383 -.224383 .97450104 0 0)" width=".21442" x="101.16921" y="81.043381"/>
    <rect height="1.799531" opacity=".696721" transform="matrix(.22438307 -.97450102 .97450102 .22438307 0 0)" width=".214419" x="-91.808777" y="90.832245"/>
    <rect height="1.799531" opacity=".696721" transform="matrix(-.22438319 .97450099 -.97450099 -.22438319 0 0)" width=".214419" x="91.379936" y="-111.93499"/>
    <rect height="1.799532" opacity=".696721" transform="matrix(-.29292812 -.95613447 .95613447 -.29292812 0 0)" width=".21442" x="-130.22923" y="31.452309"/>
    <rect height="1.799532" opacity=".696721" transform="matrix(.29292814 .95613446 -.95613446 .29292814 0 0)" width=".214419" x="129.8004" y="-52.555061"/>
    <path d="m85.813339 112.81354-6.828899-1.09874c-.111007-.33654-.416561-.5961-.788541-.63179-.370847-.0356-.702923.16231-.85168.47235l-2.094381-.20099-.03721.65068 2.094381.201c.11146.33578.417251.59412.788666.62975.372181.0357.703825-.16242.851797-.47437z" fill="#505050"/>
    <path d="m76.834961 121.97317 1.554949-9.22869c.340391-.0986.61097-.39443.660281-.76485.04915-.36929-.13645-.7084-.44081-.86843l.277633-2.08561-.648899-.061-.27763 2.08563c-.339646.0991-.609014.39519-.658254.76504-.04934.37061.136513.7093.442829.8686z" fill="#a00000"/>
    <path d="m132.36979 21.445862h.33401v-1.152854l-.36336.07288v-.186238l.36134-.07288h.20446v1.339092h.33401v.172067h-.87046zm1.45954 0h.71358v.172067h-.95954v-.172067q.1164-.120448.31681-.32288.20142-.203445.25304-.262151.0982-.110325.13664-.186238.0395-.07692.0395-.150812 0-.120447-.085-.19636-.084-.07591-.21964-.07591-.0962 0-.20345.0334-.10627.0334-.22773.101216v-.206481q.12348-.0496.23077-.0749.10729-.0253.19636-.0253.23482 0 .3745.11741.13968.117411.13968.313771 0 .09312-.0354.177129-.0344.083-.12652.196359-.0253.02935-.16093.170044-.13563.139678-.3826.391707z" transform="matrix(.731752 .68157099 -.68157099 .731752 0 0)"/>
    <path d="m-133.74322-36.648577q-.1029 0-.16342.07036-.0598.07036-.0598.192927 0 .121809.0598.192928.0605.07036.16342.07036.10289 0 .16266-.07036.0605-.07112.0605-.192928 0-.122565-.0605-.192927-.0598-.07036-.16266-.07036zm.30338-.478914v.13921q-.0575-.02724-.11651-.04161-.0582-.01438-.11575-.01438-.15132 0-.23152.102138-.0794.102138-.0908.308683.0446-.06582.11198-.100625.0673-.03556.14829-.03556.17023 0 .26858.103651.0991.102895.0991.28069 0 .174013-.10289.279177-.1029.105165-.27388.105165-.19596 0-.29961-.149803-.10365-.150559-.10365-.435788 0-.267828.12711-.42671.1271-.159637.34121-.159637.0575 0 .11576.01135.059.01135.12256.03405z" transform="matrix(-.73175197 -.68157101 .68157101 -.73175197 0 0)"/>
    <path d="m28.662516-141.46816q.109703.0235.170986.0976.06204.0741.06204.18309 0 .1672-.114999.25875-.115.0916-.326842.0916-.07112 0-.146776-.0144-.0749-.0136-.155098-.0416v-.14753q.06355.0371.13921.056.07566.0189.158125.0189.14375 0 .218651-.0567.07566-.0567.07566-.16493 0-.0999-.07036-.15585-.0696-.0567-.194441-.0567h-.131644v-.12559h.137697q.11273 0 .1725-.0446.05977-.0454.05977-.13013 0-.087-.06204-.13316-.06128-.0469-.176283-.0469-.0628 0-.13467.0136-.07188.0136-.158125.0424v-.13618q.08701-.0242.162664-.0363.07641-.0121.14375-.0121.174013 0 .275394.0794.101381.0787.101381.21335 0 .0938-.05372.15888-.05372.0643-.152828.0893z" transform="matrix(-.68157101 .73175197 -.73175197 -.68157101 0 0)"/>
    <path d="m-29.048272 126.04227v-.13921q.0575.0272.116513.0416.05901.0144.115756.0144.151315 0 .230756-.10138.0802-.10214.09155-.30944-.04388.0651-.111217.0999-.06733.0348-.149046.0348-.169473 0-.268585-.10214-.09835-.10289-.09835-.28069 0-.17401.102895-.27917.102894-.10517.273881-.10517.195953 0 .298848.15056.103651.1498.103651.43579 0 .26707-.127105.42671-.126348.15888-.34046.15888-.0575 0-.116513-.0113-.05901-.0114-.122565-.034zm.304144-.47892q.102894 0 .162664-.0704.06053-.0704.06053-.19293 0-.12181-.06053-.19217-.05977-.0711-.162664-.0711-.102895 0-.163421.0711-.05977.0704-.05977.19217 0 .12257.05977.19293.06053.0704.163421.0704z" transform="matrix(.68157099 -.731752 .731752 .68157099 0 0)"/>
    <ellipse cx="106.95535" cy="101.32612" fill="url(#radialGradient4583)" opacity=".209016" rx="7.577808" ry="7.361299" transform="matrix(.970793 .904221 -.904221 .970793 65.66841 -82.83729)"/>
  </g>
  <path d="m48.833788 190.125c36.917104 41.21008 97.052852 39.41442 131.270692 7.64846-11.3731 18.114-46.09264 33.4243-70.93789 32.50088-39.896448-1.48282-91.73369-43.75534-60.332802-40.14934z" fill="url(#linearGradient4529)" fill-rule="evenodd"/>
  <path d="m118.25015 16.624739c-84.084456.1932-128.1662342 82.241702-109.6110202 142.696701.3624 1.18072 2.7658142 1.21638 3.7372002.4967 7.59438-5.6266-23.397201-124.749751 107.09935-138.193637z" fill="url(#linearGradient4531)" fill-rule="evenodd" opacity=".286885"/>
  <path d="m208.93898 19.431545c10.3906 6.258876 16.15308 13.956026 20.83866 20.810248.6399 1.71498-7.10096-6.32223-11.43118-10.486626-2.92398-2.812004-10.55604-10.269288-9.40748-10.323622z" fill-rule="evenodd" opacity=".131148"/>
  <path d="m208.93898 19.431545c10.3906 6.258876 16.15308 13.956026 20.83866 20.810248.6399 1.71498-6.85166-7.112134-11.103-11.355984-3.30684-3.301018-10.88422-9.39993-9.73566-9.454264z" fill-rule="evenodd" opacity=".22541"/>
  <path d="m208.93898 19.431545c10.3906 6.258876 16.15308 13.956026 20.83866 20.810248.6399 1.71498-5.92188-7.275138-10.17318-11.518988-3.30688-3.301018-11.81404-9.236926-10.66548-9.29126z" fill-rule="evenodd" opacity=".655738"/>
  <rect fill="url(#linearGradient4533)" height="12.647516" opacity=".413934" transform="matrix(.70943693 .70476893 -.70943693 .70476893 0 0)" width="39.250919" x="155.998" y="-130.41931"/>
  <path d="m200.2667 50.931837s8.26856 9.537996 7.59798 15.618094c-.38468 3.487744-5.86378 6.664406-5.06534 9.708544 1.4528 5.53878 7.30018 11.224176 11.81912 16.040204 5.64688 6.018146 13.08542 5.909552 13.08542 5.909552-5.18134-18.988984-15.24314-34.64643-27.43718-47.276394z" fill="url(#linearGradient4535)" fill-rule="evenodd" opacity=".168033"/>
  <path d="m200.2667 50.931837s8.26856 9.537996 7.59798 15.618094c-.38468 3.487744-5.86378 6.664406-5.06534 9.708544 1.4528 5.53878 7.30018 11.224176 11.81912 16.040204 5.64688 6.018146 13.08542 5.909552 13.08542 5.909552-5.18134-18.988984-15.24314-34.64643-27.43718-47.276394z" fill="url(#linearGradient4537)" fill-rule="evenodd" opacity=".168033"/>
  <g>
    <rect height="2.994028" opacity=".696721" transform="matrix(.70459584 .70960884 -.7142434 .69989739 0 0)" width=".35672" x="132.60242" y="11.358837"/>
    <rect height="2.994028" opacity=".696721" transform="matrix(-.70459584 -.70960884 .7142434 -.69989739 0 0)" width=".35672" x="-133.31587" y="-46.469204"/>
    <rect height="2.993795" opacity=".696721" transform="matrix(-.7142434 .69989739 -.70459584 -.70960884 0 0)" width=".356747" x="28.557259" y="-150.51288"/>
    <rect height="2.993795" opacity=".696721" transform="matrix(.7142434 -.69989739 .70459584 .70960884 0 0)" width=".356747" x="-29.27076" y="115.40546"/>
    <rect height="2.985272" opacity=".696721" transform="matrix(-.96807882 .25064595 -.25376404 -.96726615 0 0)" width=".357761" x="-41.920238" y="-146.73654"/>
    <ellipse cx="132.7756" cy="29.614927" fill="url(#radialGradient4595)" opacity=".180328" rx="16.725025" ry="16.248642" transform="matrix(.70459505 .70960962 -.71424399 .69989679 0 0)"/>
    <rect height="2.985272" opacity=".696721" transform="matrix(.96807882 -.25064595 .25376404 .96726615 0 0)" width=".357761" x="41.204708" y="111.72894"/>
    <rect height="2.985416" opacity=".696721" transform="matrix(-.96457686 -.26380197 .26705905 -.96368017 0 0)" width=".357745" x="-101.33716" y="-108.76693"/>
    <rect height="2.985416" opacity=".696721" transform="matrix(.96457686 .26380197 -.26705905 .96368017 0 0)" width=".357745" x="100.62167" y="73.757545"/>
    <rect height="3.002389" opacity=".696721" transform="matrix(.26705987 -.96367994 .96457743 .26379989 0 0)" width=".35572" x="-91.617645" y="83.375175"/>
    <rect height="3.002389" opacity=".696721" transform="matrix(-.26705991 .96367993 -.96457742 -.26379993 0 0)" width=".35572" x="90.906197" y="-118.58359"/>
    <rect height="3.002537" opacity=".696721" transform="matrix(-.25376288 -.96726646 .96807948 -.25064341 0 0)" width=".355707" x="-129.58919" y="23.95698"/>
    <rect height="3.002537" opacity=".696721" transform="matrix(.25376285 .96726647 -.96807949 .25064338 0 0)" width=".355707" x="128.87778" y="-59.167133"/>
    <path d="m85.592836 116.45211-11.31096-2.29958c-.16134-.56535-.652588-1.01682-1.27042-1.10205-.615946-.085-1.183732.21957-1.45372.72278l-3.478608-.47997-.108 1.07539 3.478606.47999c.16216.56412.65388 1.01358 1.270774 1.09868.618164.0854 1.185244-.2197 1.454056-.72612z" fill="#505050"/>
    <path d="m67.076248 98.649763 4.77978 14.769147c-.427924.40809-.601244 1.05218-.390014 1.63484.2106.5809.745334.93594 1.318366.9359l1.18933 3.28068 1.006786-.4119-1.18935-3.28072c.426466-.4082.597772-1.05177.386872-1.63355-.21134-.58298-.746118-.93721-1.32148-.93459z" fill="#a00000"/>
    <path d="m130.91969 16.958133h.5557v-1.918003l-.60453.121244v-.309844l.60116-.121244h.34016v2.227847h.5557v.286269h-1.44819zm2.42824 0h1.18717v.286269h-1.59637v-.286269q.19365-.200388.52707-.537176.33511-.338471.42099-.436139.16334-.183549.22733-.309844.0657-.127979.0657-.250906 0-.200389-.14145-.326684-.13976-.126295-.36541-.126295-.15998 0-.33847.05557-.17682.05557-.37889.168393v-.343522q.20544-.08251.38394-.124612.1785-.0421.32668-.0421.39068 0 .62306.195336.23238.195337.23238.52202 0 .154923-.0589.294689-.0573.138083-.21049.326684-.0421.04883-.26774.282901-.22565.232383-.63653.651683z" stroke-width="2.00574" transform="matrix(.70457207 .70958507 -.71428307 .69993607 0 0)"/>
    <path d="m-133.20462-42.250858q-.17118 0-.27188.117061-.0994.117061-.0994.320974 0 .202654.0994.320973.1007.117061.27188.117061.17119 0 .27063-.117061.1007-.118319.1007-.320973 0-.203913-.1007-.320974-.0994-.117061-.27063-.117061zm.50475-.79677v.231604q-.0957-.04531-.19384-.06923-.0969-.02392-.19259-.02392-.25174 0-.38517.169927-.13216.169927-.15104.513558.0743-.109508.18629-.16741.11203-.05916.24671-.05916.28321 0 .44684.172444.1649.171186.1649.466986 0 .289505-.17119.464468-.17119.174962-.45566.174962-.326 0-.49845-.249227-.17244-.250485-.17244-.725023 0-.445587.21146-.709919.21147-.26559.56768-.26559.0957 0 .19259.01888.0982.01888.20391.05664z" stroke-width="2.00574" transform="matrix(-.70457207 -.70958507 .71428307 -.69993607 0 0)"/>
    <path d="m28.964467-146.05664q.182515.039.284471.16238.103215.12335.103215.30461 0 .27818-.191325.43048-.191326.15231-.543768.15231-.118319 0-.244191-.0239-.124614-.0227-.258038-.0692v-.24545q.105732.0617.231604.0932.125873.0315.263073.0315.239157 0 .36377-.0944.125872-.0944.125872-.2744 0-.16615-.117061-.2593-.115802-.0944-.323491-.0944h-.219017v-.20895h.229087q.187549 0 .286988-.0743.09944-.0755.09944-.2165 0-.14476-.103215-.22154-.101956-.078-.293282-.078-.104474 0-.224052.0227-.119579.0227-.263073.0705v-.22657q.144753-.0403.270625-.0604.127131-.0201.239157-.0201.289506 0 .458175.13216.168668.13091.168668.35496 0 .15609-.08937.26434-.08937.10699-.254262.14852z" stroke-width="2.00574" transform="matrix(-.71428307 .69993607 -.70457207 -.70958507 0 0)"/>
    <path d="m-29.606251 120.39259v-.2316q.09566.0453.193843.0692.09818.0239.192584.0239.251744 0 .38391-.16867.133424-.16993.152305-.51481-.07301.10825-.185032.16615-.112026.0579-.247968.0579-.281953 0-.446846-.16993-.163633-.17119-.163633-.46699 0-.2895.171186-.46446.171186-.17497.455656-.17497.326009 0 .497195.25049.172445.24923.172445.72502 0 .44433-.211465.70992-.210207.26433-.566424.26433-.09566 0-.193843-.0189-.09818-.0189-.203913-.0566zm.506005-.79677q.171187 0 .270625-.11706.100698-.11706.100698-.32098 0-.20265-.100698-.31971-.09944-.11832-.270625-.11832-.171186 0-.271883.11832-.09944.11706-.09944.31971 0 .20392.09944.32098.100697.11706.271883.11706z" stroke-width="2.00574" transform="matrix(.71428307 -.69993607 .70457207 .70958507 0 0)"/>
  </g>
  <path d="m188.67906 43.075227 16.9872 17.047222 8.16344-7.983382c3.2382 2.203626 6.19724 3.031674 7.56338 3.181258 0 0 2.04374-1.946092 2.4488-2.340992 7.2487-7.852062-24.97524-20.221696-35.16282-9.904106z" fill="url(#linearGradient4597)"/>
  <path d="m202.90208 42.168219c5.23302 7.20058 16.0914 13.57347 18.2475 13.192842 0 0-9.31554-8.525546-13.8654-11.895812-4.54986-3.370268-4.3821-1.29703-4.3821-1.29703z" fill="url(#linearGradient4599)" fill-rule="evenodd"/>
  <path d="m202.90208 42.168219c5.23302 7.20058 16.0914 13.57347 18.2475 13.192842 0 0-9.28978-5.57682-12.85658-9.97429-3.67732-4.533692-5.20564-3.465582-5.39092-3.218552z" fill="url(#linearGradient4599)" fill-rule="evenodd"/>
  <g mask="url(#mask1874)" transform="matrix(-1 0 0 1 251.93653 123.93654)">
    <path d="m64.09375 3.90625c-33.125192-.0000001-60.0000001 26.874805-60 60 .0000001 33.125192 26.87481 60 60 60 30.289116 0 55.33661-22.21626 59.40625-51.34375l-35.03125-5.03125c-1.624684 11.961129-11.930074 20.96875-24.375 20.96875-13.571628-.000001-24.59375-11.022119-24.59375-24.59375.000001-13.571634 11.022119-24.59375 24.59375-24.59375 6.785818-.000001 12.921294 2.765044 17.375 7.21875l-10.327179 10.327179c-2.05587 2.05587-2.243725 3.30578-1.679608 4.615529.508568 1.180779 1.520732 2.526042 4.209725 2.526042h43.953312c3.84589 0 6.45899-2.654379 6.45899-6.250131l-.0689-44.078018c0-2.480755-.90251-3.8432292-2.18147-4.3496147-1.31432-.5203849-3.03321-.1226787-5.10709 1.9511997l-10.19528 10.195314c-10.859348-10.859351-25.874901-17.5625-42.4375-17.5625z" fill="url(#linearGradient3516)"/>
    <path d="m64.09375 3.90625c-33.125192-.0000001-60.0000001 26.874805-60 60 .0000001 33.125192 26.87481 60 60 60 30.289116 0 55.33661-22.21626 59.40625-51.34375l-35.03125-5.03125c-1.624684 11.961129-11.930074 20.96875-24.375 20.96875-13.571628-.000001-24.59375-11.022119-24.59375-24.59375.000001-13.571634 11.022119-24.59375 24.59375-24.59375 6.785818-.000001 12.921294 2.765044 17.375 7.21875l-10.327179 10.327179c-2.05587 2.05587-2.243725 3.30578-1.679608 4.615529.508568 1.180779 1.520732 2.526042 4.209725 2.526042h43.953312c3.84589 0 6.45899-2.654379 6.45899-6.250131l-.0689-44.078018c0-2.480755-.90251-3.8432292-2.18147-4.3496147-1.31432-.5203849-3.03321-.1226787-5.10709 1.9511997l-10.19528 10.195314c-10.859348-10.859351-25.874901-17.5625-42.4375-17.5625z" fill="url(#radialGradient3757)" opacity=".797753"/>
    <path d="m64.09375 3.90625c-33.125192-.0000001-60.0000001 26.874805-60 60 .0000001 33.125192 26.87481 60 60 60 30.289116 0 55.33661-22.21626 59.40625-51.34375l-35.03125-5.03125c-1.624684 11.961129-11.930074 20.96875-24.375 20.96875-13.571628-.000001-24.59375-11.022119-24.59375-24.59375.000001-13.571634 11.022119-24.59375 24.59375-24.59375 6.785818-.000001 12.921294 2.765044 17.375 7.21875l-10.327179 10.327179c-2.05587 2.05587-2.243725 3.30578-1.679608 4.615529.508568 1.180779 1.520732 2.526042 4.209725 2.526042h43.953312c3.84589 0 6.45899-2.654379 6.45899-6.250131l-.0689-44.078018c0-2.480755-.90251-3.8432292-2.18147-4.3496147-1.31432-.5203849-3.03321-.1226787-5.10709 1.9511997l-10.19528 10.195314c-10.859348-10.859351-25.874901-17.5625-42.4375-17.5625z" fill="url(#radialGradient3658)" opacity=".689139"/>
    <path d="m64.09375 3.90625c-33.125192-.0000001-60.0000001 26.874805-60 60 .0000001 33.125192 26.87481 60 60 60 30.289116 0 55.33661-22.21626 59.40625-51.34375l-35.03125-5.03125c-1.624684 11.961129-11.930074 20.96875-24.375 20.96875-13.571628-.000001-24.59375-11.022119-24.59375-24.59375.000001-13.571634 11.022119-24.59375 24.59375-24.59375 6.785818-.000001 12.921294 2.765044 17.375 7.21875l-10.327179 10.327179c-2.05587 2.05587-2.243725 3.30578-1.679608 4.615529.508568 1.180779 1.520732 2.526042 4.209725 2.526042h43.953312c3.84589 0 6.45899-2.654379 6.45899-6.250131l-.0689-44.078018c0-2.480755-.90251-3.8432292-2.18147-4.3496147-1.31432-.5203849-3.03321-.1226787-5.10709 1.9511997l-10.19528 10.195314c-10.859348-10.859351-25.874901-17.5625-42.4375-17.5625z" fill="url(#radialGradient3654)"/>
    <path d="m64.09375 3.90625c-33.125192-.0000001-60.0000001 26.874805-60 60 .0000001 33.125192 26.87481 60 60 60 30.289116 0 55.33661-22.21626 59.40625-51.34375l-35.03125-5.03125c-1.624684 11.961129-11.930074 20.96875-24.375 20.96875-13.571628-.000001-24.59375-11.022119-24.59375-24.59375.000001-13.571634 11.022119-24.59375 24.59375-24.59375 6.785818-.000001 12.921294 2.765044 17.375 7.21875l-10.327179 10.327179c-2.05587 2.05587-2.243725 3.30578-1.679608 4.615529.508568 1.180779 1.520732 2.526042 4.209725 2.526042h43.953312c3.84589 0 6.45899-2.654379 6.45899-6.250131l-.0689-44.078018c0-2.480755-.90251-3.8432292-2.18147-4.3496147-1.31432-.5203849-3.03321-.1226787-5.10709 1.9511997l-10.19528 10.195314c-10.859348-10.859351-25.874901-17.5625-42.4375-17.5625z" fill="url(#radialGradient3744)" opacity=".797753"/>
    <path d="m64.09375 4.20625c-33.125192-.0000001-60.0000001 26.574805-60 59.7.0000001 33.125192 26.87481 60 60 60 30.289116 0 55.33661-22.21626 59.40625-51.34375l-35.03125-5.03125c-1.624684 11.961129-11.930074 20.96875-24.375 20.96875-13.571628-.000001-24.59375-11.022119-24.59375-24.59375.000001-13.571634 11.022119-24.59375 24.59375-24.59375 6.785818-.000001 12.921294 2.765044 17.375 7.21875l-10.327179 10.327179c-2.05587 2.05587-2.243725 3.30578-1.679608 4.615529.508568 1.180779 1.520732 2.526042 4.209725 2.526042h43.953312c3.84589 0 6.45899-2.654379 6.45899-6.250131l-.0689-44.078018c0-2.480755-.90251-3.8432292-2.18147-4.3496147-1.31432-.5203849-3.03321-.1226787-5.10709 1.9511997l-10.19528 10.195314c-10.859348-10.859351-25.874901-17.2625-42.4375-17.2625z" fill="url(#radialGradient3767)" filter="url(#filter3630)" opacity=".745318"/>
    <path d="m117.6875 10.75.9375 4.375 1.25.875 4-2.625c.24688-1.723751-.35117-3.347429-1.9375-4.0000001-1.58634-.6525714-3.16128.1267033-4.25 1.3750001z" fill="url(#linearGradient3676)" fill-rule="evenodd" filter="url(#filter3738)" opacity=".820225"/>
    <path d="m117.6875 10.75 2.1875 3.125.5-.125 3.5-.375c.24688-1.723751-.35117-3.347429-1.9375-4.0000001-1.58634-.6525714-3.16128.1267033-4.25 1.3750001z" fill="url(#linearGradient3771)" fill-rule="evenodd" filter="url(#filter3738)" opacity=".820225" transform="matrix(0 1 1 0 60.363582 -60.363586)"/>
    <path d="m64.09375 7.90625c-30.961698-.0000001-56.0000001 25.038299-56 56 .0000001 30.961698 25.038304 56 56 56 26.932896 0 49.12173-18.80675 54.53125-44l-27.125-3.875c-3.438564 11.897301-14.440379 20.46875-27.40625 20.46875-15.737346-.000001-28.59375-12.856401-28.59375-28.59375.000001-15.737351 12.856402-28.59375 28.59375-28.59375 7.872416-.000001 15.051554 3.207804 20.21875 8.375.759464.751409 1.187497 1.775386 1.1875 2.84375 0 1.068364-.428036 2.092341-1.1875 2.84375l-10.625 10.625h43.9375c2.00539 0 2.46875-.592164 2.46875-2.25l-.09375-44.09375-10.625 10.65625c-.75141.759464-1.77539 1.1875-2.84375 1.1875s-2.09234-.428036-2.84375-1.1875c-10.137665-10.137667-24.110394-16.40625-39.59375-16.40625z" fill="url(#radialGradient3524)"/>
    <path d="m64.09375 7.90625c-30.961698-.0000001-56.0000001 25.038299-56 56 .0000001 30.961698 25.038304 56 56 56 26.932896 0 49.12173-18.80675 54.53125-44l-27.125-3.875c-3.438564 11.897301-14.440379 20.46875-27.40625 20.46875-15.737346-.000001-28.59375-12.856401-28.59375-28.59375.000001-15.737351 12.856402-28.59375 28.59375-28.59375 7.872416-.000001 15.051554 3.207804 20.21875 8.375.759464.751409 1.187497 1.775386 1.1875 2.84375 0 1.068364-.428036 2.092341-1.1875 2.84375l-10.625 10.625h43.9375c2.00539 0 2.46875-.592164 2.46875-2.25l-.09375-44.09375-10.625 10.65625c-.75141.759464-1.77539 1.1875-2.84375 1.1875s-2.09234-.428036-2.84375-1.1875c-10.137665-10.137667-24.110394-16.40625-39.59375-16.40625z" fill="url(#radialGradient3535)"/>
    <path d="m64.09375 7.90625c-30.961698-.0000001-56.0000001 25.038299-56 56 0 .567872.014522 1.123731.03125 1.6875 5.98947.677652 12.141218 1.15013 18.40625 1.40625-.270702-10.459042 3.671609-20.974916 11.8125-28.78125 15.339317-14.708937 39.728563-14.214319 54.4375 1.125 2.763849 2.882296 4.756602 5.688367 6.5625 9.25l-20.5 10.40625h19.15625c7.9282-2.026627 15.18621-3.436967 22.09375-6.1875l-.09375-39.15625-10.625 10.65625c-.75141.759464-1.77539 1.1875-2.84375 1.1875s-2.09234-.428036-2.84375-1.1875c-10.137665-10.137667-24.110394-16.40625-39.59375-16.40625z" fill="url(#linearGradient3548)" opacity=".833333"/>
    <path d="m64.099866 7.9087646c-30.96169-.0000002-55.9999999 25.0382984-55.9999999 55.9999994.00001.178712-.00249.354295 0 .53125.25324-30.743505 25.1959799-55.5312495 55.9999999-55.5312494 15.48337-.0000001 29.45608 6.2685824 39.593744 16.4062494.75142.759465 1.77539 1.1875 2.84375 1.1875 1.06837.000001 2.09234-.428036 2.84375-1.1875l10.125-10.15625.49375 37.55c-6.90754 2.75053-14.56555 3.86086-22.493744 5.8875l-18.65625.40625h19.15625c7.928194-2.02663 15.186204-3.43697 22.093744-6.1875l-.0937-38.15625v-1l-.5.5-10.125 10.15625c-.7514.759465-1.77539 1.1875-2.84375 1.1875-1.06835.000001-2.09234-.428036-2.84375-1.1875-.0105-.01047-.0208-.02079-.0312-.03125-.0524-.05229-.10367-.104166-.15625-.15625-.5738-.567871-1.15087-1.11515-1.75-1.65625-.0815-.07412-.16804-.145107-.25-.21875-9.916144-8.910179-23.009684-14.3437494-37.406344-14.3437494zm-.65625 19.2187494c-9.23817.25052-18.40344 3.79268-25.59375 10.6875-7.63208 7.318434-11.12755 17.372917-11.3125 27.21875.23988-9.80188 4.18042-19.494066 11.8125-26.8125 13.31613-12.7689 33.45333-14.098057 48.15625-4.1875-6.87906-4.805074-14.98746-7.12523-23.0625-6.90625z" fill="url(#linearGradient3581)"/>
    <path d="m63.59375 7.90625c-30.9617-.0000001-56 25.038299-56 56 0 30.961698 25.0383 56 56 56 26.9329 0 49.12173-18.80675 54.53125-44l-27.125-3.875c-3.43856 11.897301-14.44038 20.46875-27.40625 20.46875-15.73735-.000001-28.59375-12.856401-28.59375-28.59375 0-15.737351 12.8564-28.59375 28.59375-28.59375 7.87242-.000001 15.05155 3.207804 20.21875 8.375.75946.751409 1.1875 1.775386 1.1875 2.84375s-.42804 2.092341-1.1875 2.84375l-10.625 10.625h43.9375c2.00539 0 2.46875-.592164 2.46875-2.25l-.09375-44.09375-10.625 10.65625c-.75141.759464-1.77539 1.1875-2.84375 1.1875s-2.09234-.428036-2.84375-1.1875c-10.13766-10.137667-24.11039-16.40625-39.59375-16.40625z" style="fill:none;stroke-linecap:round;stroke-linejoin:round;stroke-dashoffset:1.0878;stroke:url(#linearGradient3613);filter:url(#filter3378)"/>
  </g>
</svg>
