<svg height="256" width="256" xmlns="http://www.w3.org/2000/svg" xmlns:xlink="http://www.w3.org/1999/xlink">
  <defs>
    <linearGradient id="linearGradient4100">
      <stop offset="0" stop-color="#4392cc"/>
      <stop offset="1" stop-color="#003a65"/>
    </linearGradient>
    <linearGradient id="linearGradient4067">
      <stop offset="0" stop-color="#fbffbf"/>
      <stop offset="1" stop-color="#fffdbf" stop-opacity="0"/>
    </linearGradient>
    <linearGradient id="linearGradient3972">
      <stop offset="0" stop-color="#bffdff"/>
      <stop offset="1" stop-color="#bff8ff" stop-opacity="0"/>
    </linearGradient>
    <linearGradient id="linearGradient3710">
      <stop offset="0" stop-color="#fff"/>
      <stop offset="1" stop-color="#fff" stop-opacity="0"/>
    </linearGradient>
    <linearGradient id="linearGradient3361">
      <stop offset="0" stop-color="#edffbf"/>
      <stop offset="1" stop-color="#edffbf" stop-opacity="0"/>
    </linearGradient>
    <linearGradient id="linearGradient3348">
      <stop offset="0" stop-color="#cbff10"/>
      <stop offset="1" stop-color="#004d00"/>
    </linearGradient>
    <linearGradient gradientUnits="userSpaceOnUse" x1="60" x2="60" xlink:href="#linearGradient3348" y1="-16" y2="84"/>
    <linearGradient gradientUnits="userSpaceOnUse" x1="68" x2="68" xlink:href="#linearGradient4100" y1="24" y2="72"/>
    <filter id="filter4014" height="1.405825" width="1.080411" x="-.040206" y="-.202913">
      <feGaussianBlur stdDeviation=".50728155"/>
    </filter>
    <linearGradient id="linearGradient4059" gradientUnits="userSpaceOnUse" x1="209.1763786" x2="221.54676750069" xlink:href="#linearGradient4067" y1="177.7478528" y2="223.91476908695"/>
    <linearGradient id="linearGradient4057" gradientUnits="userSpaceOnUse" x1="287.751712" x2="287.751712" y1="169.8903366" y2="264.1807302">
      <stop offset="0" stop-color="#fff710"/>
      <stop offset="1" stop-color="#df9500"/>
    </linearGradient>
    <clipPath id="clipPath4114-3">
      <rect height="40" rx="8.000002" width="40.000008" x="3.999992" y="27.999998"/>
    </clipPath>
    <radialGradient id="radialGradient5389" cx="61" cy="30.999996" gradientTransform="matrix(-3.9999996 3.9999996 -1.3333339 -1.3333335 330.33332 -174.66664)" gradientUnits="userSpaceOnUse" r="6" xlink:href="#linearGradient3710"/>
    <filter id="filter3845" height="1.256311" width="1.256311" x="-.128155" y="-.128155">
      <feGaussianBlur stdDeviation=".6407767"/>
    </filter>
    <radialGradient id="radialGradient5391" cx="60" cy="28" gradientTransform="matrix(-3.9999996 3.9999996 -1.3333339 -1.3333335 337.33332 -174.66664)" gradientUnits="userSpaceOnUse" r="6" xlink:href="#linearGradient3710"/>
    <radialGradient id="radialGradient5393" cx="62.125" cy="27.624998" gradientTransform="matrix(-3.9999996 3.9999996 -1.3333339 -1.3333335 337.33332 -174.66664)" gradientUnits="userSpaceOnUse" r="6" xlink:href="#linearGradient4067"/>
    <radialGradient id="radialGradient5395" cx="61.125" cy="24.624998" gradientTransform="matrix(-3.9999996 3.9999996 -1.3333339 -1.3333335 337.33332 -174.66664)" gradientUnits="userSpaceOnUse" r="6" xlink:href="#linearGradient4067"/>
    <linearGradient id="linearGradient4047" gradientUnits="userSpaceOnUse" x1="293.46516" x2="293.46516" y1="125.905493" y2="251.576453">
      <stop offset="0" stop-color="#ffe110"/>
      <stop offset="1" stop-color="#912d00"/>
    </linearGradient>
    <linearGradient id="linearGradient3987" gradientUnits="userSpaceOnUse" x1="205.18032675706" x2="217.54228297706" xlink:href="#linearGradient3972" y1="58.16328382047" y2="104.2987112671"/>
    <linearGradient id="linearGradient3989" gradientUnits="userSpaceOnUse" x1="287.70525" x2="287.70525" y1="65.164523875" y2="198.689901875">
      <stop offset="0" stop-color="#1e9cf1"/>
      <stop offset="1" stop-color="#00508b"/>
    </linearGradient>
    <radialGradient id="radialGradient3968" cx="62.125" cy="27.624998" gradientTransform="matrix(-3.9999996 3.9999996 -1.3333339 -1.3333335 337.33332 -174.66664)" gradientUnits="userSpaceOnUse" r="6" xlink:href="#linearGradient3972"/>
    <radialGradient id="radialGradient3970" cx="61.125" cy="24.624998" gradientTransform="matrix(-3.9999996 3.9999996 -1.3333339 -1.3333335 337.33332 -174.66664)" gradientUnits="userSpaceOnUse" r="6" xlink:href="#linearGradient3972"/>
    <linearGradient id="linearGradient3950" gradientUnits="userSpaceOnUse" x1="293.465156" x2="293.465156" xlink:href="#linearGradient4100" y1="46.3138825" y2="146.8506313"/>
    <filter id="filter3894" height="1.576699" width="1.092891" x="-.046446" y="-.28835">
      <feGaussianBlur stdDeviation=".72087379"/>
    </filter>
    <linearGradient id="linearGradient3795" gradientUnits="userSpaceOnUse" x1="74.592823" x2="74.592823" xlink:href="#linearGradient3710" y1="23.27419734838" y2="45.26858334838"/>
    <linearGradient id="linearGradient3776" gradientUnits="userSpaceOnUse" x1="59.929899" x2="68.36164298971" xlink:href="#linearGradient3361" y1="15.942737" y2="73.98276729247"/>
    <linearGradient id="linearGradient3784" gradientUnits="userSpaceOnUse" x1="45.44183770016" x2="45.44183770016" xlink:href="#linearGradient3348" y1="-11.71480566319" y2="133.42267243783"/>
    <clipPath id="clipPath3875-7">
      <rect height="48" rx="8" width="47.999996" x="4" y="28"/>
    </clipPath>
    <radialGradient id="radialGradient3819" cx="61" cy="30.999996" gradientTransform="matrix(-3.9999996 3.9999996 -1.3333339 -1.3333335 337.33332 -174.66664)" gradientUnits="userSpaceOnUse" r="6" xlink:href="#linearGradient3710"/>
    <radialGradient id="radialGradient3863" cx="62.125" cy="27.624998" gradientTransform="matrix(-3.9999996 3.9999996 -1.3333339 -1.3333335 337.33332 -174.66664)" gradientUnits="userSpaceOnUse" r="6" xlink:href="#linearGradient3361"/>
    <radialGradient id="radialGradient3865" cx="61.125" cy="24.624998" gradientTransform="matrix(-3.9999996 3.9999996 -1.3333339 -1.3333335 337.33332 -174.66664)" gradientUnits="userSpaceOnUse" r="6" xlink:href="#linearGradient3361"/>
    <linearGradient id="linearGradient3805" gradientUnits="userSpaceOnUse" x1="122.765437" x2="122.765437" xlink:href="#linearGradient3348" y1="-73.597242" y2="122.763808"/>
  </defs>
  <rect fill="url(#linearGradient3805)" height="94.25322" rx="15.708883" width="94.253319" x="12.803226" y="12.80162"/>
  <g clip-path="url(#clipPath3875-7)" transform="matrix(1.9636105 0 0 1.9636105 4.948805 -42.179474)">
    <path d="m44 24v12h12c0-6.647994-5.352006-12-12-12z" fill="url(#radialGradient3819)" filter="url(#filter3845)" opacity=".935644" transform="matrix(.66666667 0 0 .66666667 14.666667 12)"/>
    <path d="m52 24v12h12c0-6.647994-5.352006-12-12-12z" fill="url(#radialGradient5391)" filter="url(#filter3845)" opacity=".935644" transform="matrix(-.66666667 0 0 .66666667 46.666667 12)"/>
    <path d="m44 33v12h12c0-6.647994-5.352006-12-12-12z" fill="url(#radialGradient3863)" filter="url(#filter3845)" opacity=".549604" transform="matrix(.66666667 0 0 -.66666667 14.666667 98)"/>
    <path d="m52 33v12h12c0-6.647994-5.352006-12-12-12z" fill="url(#radialGradient3865)" filter="url(#filter3845)" opacity=".549604" transform="matrix(-.66666667 0 0 -.66666667 46.666667 98)"/>
  </g>
  <rect fill="url(#linearGradient3784)" height="73.314613" rx="7.331462" width="73.314621" x="23.272593" y="23.274214"/>
  <path d="m30.604043 23.2742c-4.061628 0-7.331454 3.269831-7.331454 7.331463v36.199093c25.96824 2.883718 50.243868-2.804822 73.31462-14.548369v-21.650724c0-4.061632-3.269826-7.331463-7.331454-7.331463z" fill="url(#linearGradient3776)" opacity=".935644"/>
  <path d="m30.604043 23.29711c-4.061628 0-7.331454 3.269834-7.331454 7.331462v1.260097c0-4.061632 3.269826-7.331463 7.331454-7.331463h58.651712c4.061628 0 7.331454 3.269831 7.331454 7.331463v-1.260097c0-4.061628-3.269826-7.331462-7.331454-7.331462z" fill="url(#linearGradient3795)"/>
  <path d="m9.8333575 43v2c0 2.216 1.7840005 4 4.0000005 4h29.249963c2.216 0 4-1.784 4-4v-2c0 2.216-1.784 4-4 4h-29.249963c-2.216 0-4.0000005-1.784-4.0000005-4z" fill="#b0d843" filter="url(#filter3894)" transform="matrix(1.9636105 0 0 1.9636105 4.408805 2.607178)"/>
  <rect height="10.472579" opacity=".549604" rx="0" width="31.41774" x="107.05323" y="54.69194"/>
  <rect height="136.14354" opacity=".549604" rx="0" width="10.470961" x="128" y="65.16452"/>
  <rect height="10.472579" opacity=".549604" rx="0" width="20.94516" x="138.47096" y="75.6371"/>
  <rect height="10.472586" opacity=".549604" rx="0" width="20.94516" x="138.47096" y="190.83548"/>
  <rect fill="url(#linearGradient3950)" height="83.780624" rx="16.756128" width="83.78064" x="159.41612" y="54.69194"/>
  <g clip-path="url(#clipPath4114-3)" transform="matrix(2.0945156 0 0 2.0945156 151.03809 -3.954492)">
    <path d="m37 24v12h12c0-6.647994-5.352006-12-12-12z" fill="url(#radialGradient5389)" filter="url(#filter3845)" opacity=".935644" transform="matrix(.66666666 0 0 .66666666 11.333334 12)"/>
    <path d="m52 24v12h12c0-6.647994-5.352006-12-12-12z" fill="url(#radialGradient5391)" filter="url(#filter3845)" opacity=".935644" transform="matrix(-.66666667 0 0 .66666667 46.666667 12)"/>
    <path d="m44 33v12h12c0-6.647994-5.352006-12-12-12z" fill="url(#radialGradient3968)" filter="url(#filter3845)" opacity=".549604" transform="matrix(.66666667 0 0 -.66666667 6.666667 90)"/>
    <path d="m52 33v12h12c0-6.647994-5.352006-12-12-12z" fill="url(#radialGradient3970)" filter="url(#filter3845)" opacity=".549604" transform="matrix(-.66666667 0 0 -.66666667 46.666667 90)"/>
  </g>
  <rect fill="url(#linearGradient3989)" height="62.835464" rx="7.854433" width="62.835464" x="169.88873" y="65.164536"/>
  <path d="m177.74316 65.16452c-4.35135 0-7.85442 3.503077-7.85442 7.854433v27.183697c2.58172.1728 5.17807.30681 7.85442.30681 25.05168 0 46.46297-7.815092 54.98104-18.838364v-8.652143c0-4.351356-3.50307-7.854433-7.85445-7.854433z" fill="url(#linearGradient3987)" opacity=".549604"/>
  <path d="m86.312795 53.874202v2c0 2.216 1.784 4 4 4h22.281225c2.216 0 4-1.784 4-4v-2c0 2.216-1.784 4.7-4 4.7h-22.281225c-2.216 0-4-2.484-4-4.7z" fill="#13b9cd" filter="url(#filter4014)" transform="matrix(2.0945156 0 0 2.0945156 -11.189293 4.143766)"/>
  <path d="m177.74316 65.16452c-4.35135 0-7.85442 3.503077-7.85442 7.854433v1.963609c0-4.351356 3.50307-7.854433 7.85442-7.854433h47.12659c4.35138 0 7.85445 3.503077 7.85445 7.854433v-1.963609c0-4.351356-3.50307-7.854433-7.85445-7.854433z" fill="#fff"/>
  <rect fill="url(#linearGradient4047)" height="83.78064" rx="16.756128" width="83.78064" x="159.41612" y="159.41774"/>
  <g clip-path="url(#clipPath4114-3)" transform="matrix(2.0945156 0 0 2.0945156 151.03809 100.77131)">
    <path d="m37 24v12h12c0-6.647994-5.352006-12-12-12z" fill="url(#radialGradient5389)" filter="url(#filter3845)" opacity=".935644" transform="matrix(.66666666 0 0 .66666666 11.333334 12)"/>
    <path d="m52 24v12h12c0-6.647994-5.352006-12-12-12z" fill="url(#radialGradient5391)" filter="url(#filter3845)" opacity=".935644" transform="matrix(-.66666667 0 0 .66666667 46.666667 12)"/>
    <path d="m44 33v12h12c0-6.647994-5.352006-12-12-12z" fill="url(#radialGradient5393)" filter="url(#filter3845)" opacity=".549604" transform="matrix(.66666667 0 0 -.66666667 6.666667 90)"/>
    <path d="m52 33v12h12c0-6.647994-5.352006-12-12-12z" fill="url(#radialGradient5395)" filter="url(#filter3845)" opacity=".549604" transform="matrix(-.66666667 0 0 -.66666667 46.666667 90)"/>
  </g>
  <rect fill="url(#linearGradient4057)" height="62.86026" rx="7.857533" width="62.86026" x="169.8887" y="169.89032"/>
  <path d="m177.74624 169.89032c-4.35307 0-7.85752 3.50446-7.85752 7.85754v27.19442c2.58275.17298 5.18013.30693 7.85752.30693 25.06154 0 46.48131-7.81817 55.00273-18.8458v-8.65555c0-4.35308-3.50446-7.85754-7.85753-7.85754z" fill="url(#linearGradient4059)" opacity=".549604"/>
  <path d="m88.350162 114.6v2c0 2.216 1.784 4 4 4h22.949518c2.216 0 4-1.784 4-4v-2c0 2.216-1.784 4.7-4 4.7h-22.949518c-2.216 0-4-2.484-4-4.7z" fill="#f4e588" filter="url(#filter4014)" transform="matrix(2.0561936 0 0 2.0325802 -12.118741 -11.316728)"/>
  <path d="m177.74624 169.89032c-4.35307 0-7.85752 3.50446-7.85752 7.85754v1.96438c0-4.35307 3.50445-7.85754 7.85752-7.85754h47.1452c4.35307 0 7.85753 3.50447 7.85753 7.85754v-1.96438c0-4.35308-3.50446-7.85754-7.85753-7.85754z" fill="#fff"/>
</svg>
