<svg height="256" width="256" xmlns="http://www.w3.org/2000/svg" xmlns:xlink="http://www.w3.org/1999/xlink">
  <defs>
    <linearGradient id="linearGradient4357">
      <stop offset="0" stop-color="#14471f"/>
      <stop offset=".40677965" stop-color="#1a5c28" stop-opacity="0"/>
      <stop offset=".40677965" stop-color="#1d662d" stop-opacity="0"/>
      <stop offset=".58213836" stop-color="#207132" stop-opacity=".498039"/>
      <stop offset=".70489997" stop-color="#26863b" stop-opacity="0"/>
      <stop offset="1" stop-color="#2d9b45" stop-opacity="0"/>
    </linearGradient>
    <linearGradient id="linearGradient3244">
      <stop offset="0"/>
      <stop offset="1" stop-opacity="0"/>
    </linearGradient>
    <linearGradient id="linearGradient3182">
      <stop offset="0" stop-color="#fff"/>
      <stop offset="1" stop-color="#fff" stop-opacity="0"/>
    </linearGradient>
    <linearGradient id="zerotowhitetozero">
      <stop offset="0" stop-color="#fff" stop-opacity="0"/>
      <stop offset=".33462518" stop-color="#fff" stop-opacity="0"/>
      <stop offset=".55554277" stop-color="#fff"/>
      <stop offset=".74528182" stop-color="#fff" stop-opacity="0"/>
      <stop offset="1" stop-color="#fff" stop-opacity="0"/>
    </linearGradient>
    <linearGradient id="linearGradient3441" gradientTransform="matrix(.61460796 .71173856 -.32480858 .28546578 408.14809 420.0197)" gradientUnits="userSpaceOnUse" x1="-435.29645" x2="-419.48849" y1="403.28021" y2="405.64288">
      <stop offset="0" stop-opacity=".729412"/>
      <stop offset="1" stop-color="#fff" stop-opacity="0"/>
    </linearGradient>
    <linearGradient id="linearGradient3443" gradientTransform="matrix(.61460796 .71173856 -.32480858 .28546578 408.14809 420.0197)" gradientUnits="userSpaceOnUse" x1="-432.85263" x2="-420.16779" xlink:href="#zerotowhitetozero" y1="405.99652" y2="406.47195"/>
    <radialGradient id="radialGradient3451" cx="24.043716" cy="94.499092" fx="23.213139" fy="94.227501" gradientTransform="matrix(2.136838 3.54659 .91491 -3.4423726 -113.53113 450.01484)" gradientUnits="userSpaceOnUse" r="1.923497">
      <stop offset="0" stop-color="#37a42c"/>
      <stop offset=".125" stop-color="#37a42c" stop-opacity=".606498"/>
      <stop offset=".25" stop-color="#37a42c" stop-opacity=".480144"/>
      <stop offset=".5" stop-color="#37a42c" stop-opacity=".368231"/>
      <stop offset=".625" stop-color="#37a42c" stop-opacity=".231047"/>
      <stop offset=".75" stop-color="#37a42c" stop-opacity=".133574"/>
      <stop offset="1" stop-color="#37a42c" stop-opacity="0"/>
    </radialGradient>
    <radialGradient id="radialGradient4363" cx="-132.9108" cy="22.232618" fx="-101.146" fy="1.284522" gradientTransform="matrix(1.2578522 .39456042 -5.4946386 6.677994 432.28897 1.246561)" gradientUnits="userSpaceOnUse" r="20.117188" xlink:href="#linearGradient4357"/>
    <radialGradient id="radialGradient4385" cx="108.64658" cy="14.850324" fx="112.29258" fy="9.518267" gradientTransform="matrix(3.997764 -2.519226 .954744 1.515088 -225.54815 274.51672)" gradientUnits="userSpaceOnUse" r="12.184338" xlink:href="#linearGradient3182"/>
    <radialGradient id="radialGradient4389" cx="-115.04427" cy="-27.05776" fx="-113.23781" fy="-26.507681" gradientTransform="matrix(.12661612 .0252544 -.04745284 .213692 62.160287 214.34012)" gradientUnits="userSpaceOnUse" r="20.501772" spreadMethod="pad" xlink:href="#linearGradient3182"/>
    <radialGradient id="radialGradient4392" cx="-201.00865" cy="-3.849809" fx="-199.20219" fy="-3.29973" gradientTransform="matrix(.325402 -.310962 .331262 .270192 116.72829 143.74703)" gradientUnits="userSpaceOnUse" r="20.501772" spreadMethod="pad" xlink:href="#linearGradient3182"/>
    <linearGradient id="linearGradient4396" gradientTransform="matrix(.823054 .853876 -.339104 .340628 73.795287 -132.54928)" gradientUnits="userSpaceOnUse" x1="135.68752" x2="197.88403" xlink:href="#linearGradient3244" y1="299.44708" y2="162.98607"/>
    <linearGradient id="linearGradient4399" gradientTransform="matrix(.223596 .0667793 -1.506588 1.36862 418.80605 393.95532)" gradientUnits="userSpaceOnUse" x1="-2105.8408" x2="-2035.2124" xlink:href="#zerotowhitetozero" y1="-86.329994" y2="-88.10363"/>
    <radialGradient id="radialGradient4405" cx="-36.280697" cy="224.72163" fx="-36.26968" fy="224.71202" gradientTransform="matrix(1.132776 -2.333056 -1.007016 -.616598 299.71265 258.22052)" gradientUnits="userSpaceOnUse" r="14.292608" spreadMethod="reflect" xlink:href="#zerotowhitetozero"/>
    <radialGradient id="radialGradient4408" cx="-543.27472" cy="-157.50522" fx="-541.46826" fy="-156.95514" gradientTransform="matrix(.311484 .538254 -.706106 .46441 107.00957 570.31812)" gradientUnits="userSpaceOnUse" r="20.501772" spreadMethod="pad" xlink:href="#linearGradient3182"/>
    <radialGradient id="radialGradient4411" cx="-36.280697" cy="224.72163" fx="-36.26968" fy="224.71202" gradientTransform="matrix(1.26838 -2.25149 1.01571 .60001 -171.58817 -5.864325)" gradientUnits="userSpaceOnUse" r="14.292608" spreadMethod="reflect" xlink:href="#zerotowhitetozero"/>
    <linearGradient id="linearGradient4414" gradientTransform="matrix(2.230926 -.01604382 .01604382 2.230926 -25.824933 .688411)" gradientUnits="userSpaceOnUse" x1="54.341255" x2="92.500397" xlink:href="#linearGradient3244" y1="66.426491" y2="44.626854"/>
    <linearGradient id="linearGradient4417" gradientTransform="matrix(2.47969 -1.188846 .301472 1.324614 -262.86355 8.001837)" gradientUnits="userSpaceOnUse" x1="111.31033" x2="135.19012" xlink:href="#zerotowhitetozero" y1="198.13455" y2="235.01132"/>
    <linearGradient id="linearGradient4420" gradientTransform="matrix(2.077776 -.915386 -.02172924 1.476472 -238.85515 -678.15388)" gradientUnits="userSpaceOnUse" spreadMethod="reflect" x1="139.84422" x2="159.0388" y1="169.79622" y2="203.17725">
      <stop offset="0" stop-color="#b5b5b8"/>
      <stop offset="1" stop-color="#ebebee"/>
    </linearGradient>
    <linearGradient id="linearGradient4423" gradientTransform="matrix(.823054 .853876 -.339104 .340628 60.416947 -116.92592)" gradientUnits="userSpaceOnUse" x1="189.70045" x2="185.19417" xlink:href="#XMLID_11_" y1="98.893227" y2="223.53912"/>
    <linearGradient id="linearGradient4426" gradientTransform="matrix(2.230984 -.00108243 .00108243 2.230984 -25.225453 -.616367)" gradientUnits="userSpaceOnUse" x1="73.75" x2="92.71875" xlink:href="#linearGradient3182" y1="34.015625" y2="34.015625"/>
    <linearGradient id="lg1">
      <stop offset="0" stop-color="#094422"/>
      <stop offset="1" stop-color="#9ed676"/>
    </linearGradient>
    <linearGradient id="linearGradient4429" gradientTransform="matrix(.823054 .853876 -.339104 .340628 73.795287 -132.54928)" gradientUnits="userSpaceOnUse" x1="183.57243" x2="187.18298" xlink:href="#lg1" y1="247.49863" y2="123.06261"/>
    <radialGradient id="radialGradient4432" cx="91.509644" cy="33.319088" fx="94.437843" fy="33.117798" gradientTransform="matrix(.745246 -.698338 3.065724 3.271628 12.296507 30.017015)" gradientUnits="userSpaceOnUse" r="9.809225">
      <stop offset="0"/>
      <stop offset=".5"/>
      <stop offset="1" stop-color="#fff"/>
    </radialGradient>
    <linearGradient id="linearGradient4435" gradientTransform="matrix(2.230926 -.01604382 .01604382 2.230926 -25.229893 -1.151033)" gradientUnits="userSpaceOnUse" x1="73.109634" x2="112.67555" xlink:href="#linearGradient3244" y1="26.46607" y2="26.46607"/>
    <linearGradient id="linearGradient4438" gradientTransform="matrix(2.173236 .01504726 -.01900446 2.290138 -19.046631 -4.646161)" gradientUnits="userSpaceOnUse" x1="132.08015" x2="103.92957" xlink:href="#XMLID_11_" y1="48.816029" y2="25.544348"/>
    <linearGradient id="linearGradient4463" gradientTransform="matrix(1.5879747 -1.2158685 1.2158685 1.5879747 -.078753 8.162315)" gradientUnits="userSpaceOnUse" x1="-61.42284" x2="-64.420349" xlink:href="#linearGradient4357" y1="93.001884" y2="92.036232"/>
    <linearGradient id="XMLID_11_" gradientTransform="translate(-484 -674)" gradientUnits="userSpaceOnUse" x1="579.72852" x2="579.72852" xlink:href="#lg1" y1="732.41022" y2="736.55688"/>
  </defs>
  <path d="m220.30437 15.265309c-.0954.000318-.1908.0012-.28624.0024-7.64822.09779-15.83204 3.118229-23.32878 10.124058-9.32718 8.716376-16.86848 28.344402-29.96746 28.495464-1.40188 2.111598-2.34669 4.35896-2.88862 6.681982-3.45153-1.479392-6.64623-2.24409-9.32995-2.228866-2.49418.0142-4.5471.701988-5.95462 2.11581l-13.564 12.510132c-.43863.255328-.84571.568936-1.21873.943624-3.17382 3.188144-1.97036 9.266438 2.07339 16.510852-35.889029 32.646015-72.211773 65.801715-108.082351 98.426115-.12744.11922-2.955532 2.6921-5.40697 8.47266-2.451423 5.78064-2.536367 15.8062-11.73905 22.49714-6.1682541 5.81118-4.6433961 10.88056-1.9182611 14.91892.311044.46092.872657.96026 1.3936901 1.4607.442724.55938.880285 1.1595 1.303827 1.50866 3.757903 3.09788 8.654374 5.09686 15.01566-.50188 7.5229-8.53998 17.499716-7.67706 23.479354-9.57406 5.979534-1.897 8.805288-4.47248 8.93585-4.58826 36.03631-32.85684 72.650191-66.11878 108.703471-98.98759 7.19204 4.62469 13.30014 6.19865 16.84579 3.33255.0152-.00016.0302-.00016.0454-.00048l9.88428-8.92797 4.10181-3.9609.094-.0966c2.63831-2.77094 2.73909-7.90168.72059-14.14276 2.54522-.17428 5.06838-.773379 7.50884-1.864477.48614-14.361898 21.65748-21.118854 30.27978-29.176498 26.33472-24.610212 7.60974-54.030199-16.70072-53.950704z" style="opacity:.05;fill:none;stroke:#2a2a2a;stroke-width:13.3859;stroke-linecap:round;stroke-linejoin:round"/>
  <path d="m220.30277 15.042216c-.0954.000318-.1908.0012-.28626.0024-7.64822.09779-15.83202 3.11823-23.32877 10.124058-9.32718 8.716377-16.86847 28.344401-29.96746 28.495465-1.40188 2.111596-2.34669 4.35896-2.88862 6.681982-3.45152-1.479394-6.64623-2.24409-9.32994-2.228866-2.49418.0142-4.54711.701986-5.95462 2.115808l-13.564 12.510114c-.43863.255348-.84572.568954-1.21874.943644-3.17381 3.188144-1.97035 9.266436 2.0734 16.510852-35.889035 32.646017-72.211777 65.801707-108.082357 98.426117-.12744.11922-2.95553 2.6921-5.406968 8.47265-2.451424 5.78065-2.536368 15.8062-11.73905 22.49716-6.1682551 5.81118-4.6433971 10.88056-1.9182621 14.9189.311045.46094.872657.96026 1.3936911 1.46072.442723.55936.880285 1.1595 1.303827 1.50864 3.757903 3.09788 8.654374 5.09686 15.015658-.50188 7.5229-8.53998 17.499718-7.67706 23.479356-9.57406 5.979534-1.89698 8.805286-4.47248 8.93585-4.58824 36.03631-32.85686 72.650185-66.11879 108.703475-98.9876 7.19204 4.62469 13.30014 6.19865 16.84578 3.33255.0152-.00016.0302-.00016.0454-.00049l9.88428-8.92797 4.10181-3.96089.094-.0966c2.63832-2.77094 2.7391-7.90168.72059-14.14276 2.54523-.174259 5.06839-.773381 7.50883-1.864481.48618-14.361896 21.65752-21.118852 30.27982-29.176496 26.33472-24.610214 7.60974-54.0302-16.70072-53.950707z" style="opacity:.1;fill:none;stroke:#2a2a2a;stroke-width:11.1549;stroke-linecap:round;stroke-linejoin:round"/>
  <path d="m220.30117 14.819124c-.0954.000318-.1908.0012-.28626.0024-7.64822.09779-15.83202 3.118229-23.32877 10.124058-9.32718 8.716375-16.86848 28.344401-29.96746 28.495463-1.40188 2.111598-2.34669 4.35896-2.88862 6.681984-3.45153-1.479394-6.64623-2.24409-9.32995-2.228866-2.49418.0142-4.5471.701986-5.95462 2.115808l-13.56399 12.510112c-.43863.25535-.84572.568956-1.21874.943644-3.17382 3.188144-1.97036 9.266438 2.07339 16.510854-35.889029 32.646019-72.211771 65.801709-108.082351 98.426109-.12744.11922-2.95553 2.69211-5.40697 8.47266-2.451422 5.78064-2.536366 15.80621-11.739049 22.49715-6.1682541 5.81118-4.6433961 10.88056-1.9182611 14.91892.311045.46092.872657.96026 1.3936901 1.4607.442724.55938.880286 1.1595 1.303827 1.50864 3.757904 3.09788 8.654373 5.09688 15.015659-.50188 7.5229-8.53996 17.499718-7.67704 23.479354-9.57404 5.979536-1.897 8.805288-4.4725 8.93585-4.58826 36.036312-32.85685 72.650191-66.11878 108.703471-98.98759 7.19204 4.62469 13.30014 6.19865 16.84579 3.33255.0152-.00016.0302-.00017.0454-.00049l9.88428-8.92797 4.10181-3.96089.094-.0966c2.63832-2.77094 2.7391-7.90169.72059-14.142761 2.54523-.17428 5.06837-.773384 7.50883-1.864482.48618-14.361896 21.65752-21.118852 30.2798-29.176498 26.33474-24.610212 7.60976-54.030199-16.7007-53.950705z" style="opacity:.15;fill:none;stroke:#2a2a2a;stroke-width:8.92394;stroke-linecap:round;stroke-linejoin:round"/>
  <path d="m220.29955 14.596031c-.0954.000318-.1908.0012-.28624.0024-7.64822.09779-15.83202 3.11823-23.32878 10.124058-9.32718 8.716376-16.86847 28.344402-29.96746 28.495464-1.40187 2.111598-2.34668 4.35896-2.88862 6.681982-3.45152-1.479392-6.64622-2.244088-9.32994-2.228864-2.49418.0142-4.54711.701986-5.95462 2.115808l-13.564 12.510132c-.43863.255348-.84572.568956-1.21874.943644-3.17381 3.188144-1.97035 9.266438 2.0734 16.510852-35.889033 32.646013-72.211775 65.801713-108.082355 98.426113-.12744.11922-2.95553 2.69211-5.40697 8.47266-2.451423 5.78064-2.536366 15.8062-11.739049 22.49714-6.1682541 5.81118-4.6433961 10.88058-1.9182611 14.91892.311044.46094.872657.96026 1.3936901 1.4607.442723.55938.880285 1.1595 1.303827 1.50866 3.757903 3.09788 8.654373 5.09686 15.015659-.50188 7.5229-8.53998 17.499716-7.67706 23.479354-9.57406 5.979536-1.897 8.805288-4.47248 8.93585-4.58826 36.036312-32.85686 72.650185-66.11879 108.703475-98.98761 7.19204 4.6247 13.30014 6.19865 16.84579 3.33255.0152-.00016.0302-.00016.0454-.00048l9.88428-8.92797 4.10181-3.9609.094-.0966c2.6383-2.77094 2.73908-7.90168.72058-14.142757 2.54524-.17426 5.06838-.773382 7.50884-1.86448.48618-14.361896 21.6575-21.118852 30.2798-29.176498 26.33472-24.610212 7.60976-54.030199-16.70072-53.950704z" style="opacity:.2;fill:none;stroke:#2a2a2a;stroke-width:6.69296;stroke-linecap:round;stroke-linejoin:round"/>
  <path d="m220.29635 14.149846c-.0954.000318-.1908.0012-.28624.0024-7.64822.09779-15.83204 3.118229-23.32878 10.124058-9.32718 8.716377-16.86848 28.344401-29.96747 28.495463-1.40187 2.111598-2.34668 4.358962-2.88862 6.681984-3.45152-1.479394-6.64622-2.24409-9.32994-2.228866-2.49418.0142-4.54711.701986-5.95462 2.115808l-13.564 12.510132c-.43863.25535-.84572.568956-1.21874.943646-3.17381 3.188142-1.97035 9.266436 2.0734 16.510852-35.889031 32.646017-72.211775 65.801707-108.082353 98.426117-.12744.11922-2.955532 2.6921-5.40697 8.47265-2.451423 5.78065-2.536367 15.80621-11.73905 22.49715-6.1682541 5.81118-4.6434571 10.8806-1.9182611 14.91892.311045.46092 21.3936151-3.80162 1.3936901 1.4607.442724.55938.880285 1.1595 1.303827 1.50864 3.757903 3.0979 8.654374 5.09688 15.01566-.50186 7.5229-8.53998 17.499716-7.67706 23.479354-9.57406 5.979534-1.897 8.805288-4.47248 8.93585-4.58826 36.036312-32.85687 72.650183-66.1188 108.703473-98.98761 7.19204 4.62469 13.30014 6.19865 16.84579 3.33255.0152-.00016.0302-.00017.0454-.00049l9.88428-8.92797 4.10181-3.96089.094-.0966c2.63831-2.77094 2.73909-7.90168.72059-14.142759 2.54522-.17426 5.06838-.773384 7.50882-1.864482.48618-14.361896 21.65752-21.118852 30.27982-29.176498 26.33472-24.610212 7.60974-54.030199-16.70072-53.950705z" style="opacity:.25;fill:none;stroke:#2a2a2a;stroke-width:4.46196;stroke-linecap:round;stroke-linejoin:round"/>
  <path d="m220.29635 14.149846c-.0954.000318-.1908.0012-.28624.0024-7.64822.09779-15.83204 3.118229-23.32878 10.124058-9.32718 8.716377-16.86848 28.344401-29.96747 28.495463-1.40187 2.111598-2.34668 4.358962-2.88862 6.681984-3.45152-1.479394-6.64622-2.24409-9.32994-2.228866-2.49418.0142-4.54711.701986-5.95462 2.115808l-13.564 12.510132c-.43863.25535-.84572.568956-1.21874.943646-3.17381 3.188142-1.97035 9.266436 2.0734 16.510852-35.889031 32.646017-72.211775 65.801707-108.082353 98.426117-.12744.11922-2.955532 2.6921-5.40697 8.47265-2.451423 5.78065-2.536367 15.80621-11.73905 22.49715-6.1682541 5.81118-4.6433961 10.88056-1.9182611 14.91892.311045.46092.872657.96026 1.3936901 1.4607.442724.55938.880285 1.1595 1.303827 1.50864 3.757903 3.0979 8.654374 5.09688 15.01566-.50186 7.5229-8.53998 17.499716-7.67706 23.479354-9.57406 5.979534-1.897 8.805288-4.47248 8.93585-4.58826 36.036312-32.85687 72.650183-66.1188 108.703473-98.98761 7.19204 4.62469 13.30014 6.19865 16.84579 3.33255.0152-.00016.0302-.00017.0454-.00049l9.88428-8.92797 4.10181-3.96089.094-.0966c2.63831-2.77094 2.73909-7.90168.72059-14.142759 2.54522-.17426 5.06838-.773384 7.50882-1.864482.48618-14.361896 21.65752-21.118852 30.27982-29.176498 26.33472-24.610212 7.60974-54.030199-16.70072-53.950705z" style="opacity:.29;fill:none;stroke:#2a2a2a;stroke-width:2.23098;stroke-linecap:round;stroke-linejoin:round"/>
  <path d="m196.86473 23.754147c-9.34425 8.732352-16.89934 28.396314-30.02233 28.547658-13.85481 20.869092 16.84968 54.971635 40.07659 44.586812.48706-14.388172 21.69732-21.157522 30.33538-29.229912 34.77188-32.494886-8.87032-73.3598672-40.38964-43.904558z" fill="url(#linearGradient4438)"/>
  <path d="m196.86473 23.754147c-9.34425 8.732352-16.89934 28.396314-30.02233 28.547658-13.85481 20.869092 16.84968 54.971635 40.07659 44.586812.48706-14.388172 21.69732-21.157522 30.33538-29.229912 34.77188-32.494886-8.87032-73.3598672-40.38964-43.904558z" fill="url(#linearGradient4435)" opacity=".266393"/>
  <path d="m167.0483 51.323685c-15.18838 19.144196 18.09806 53.014125 39.28269 45.322874.006-13.239346-25.21028-39.831098-39.28269-45.322874z" fill="url(#radialGradient4432)" opacity=".356557"/>
  <path d="m198.58034 113.02198-4.10917 3.96807-9.90241 8.94437c-7.64637.16656-11.3957-20.71794-22.31123-32.042139-9.88044-10.250446-27.92468-13.17703-28.81225-20.999194l15.19074-14.010378c5.82228-5.848428 21.70025 1.53209 35.1816 16.79297 13.55002 15.338622 20.51863 31.303231 14.85695 37.249491" fill="url(#linearGradient4429)"/>
  <path d="m162.06782 58.761049-22.71929 20.858178c3.15269 1.930376 7.20719 3.85856 11.29729 6.060004l21.95782-20.372702c-3.86469-2.766476-7.09541-5.188076-10.53582-6.54548zm14.99665 9.956982-21.74621 19.677946c1.62458 1.034116 3.21305 2.109946 4.67275 3.34421l20.84409-19.327786c-1.41208-1.332484-2.34775-2.519864-3.77063-3.69437z" fill="url(#linearGradient4426)"/>
  <path d="m185.02757 125.47987c-5.8223 5.84854-19.87889-2.39175-34.01049-17.05244-14.1316-14.660807-23.01316-30.217755-17.19087-36.066297 5.82229-5.848426 19.88403 3.106942 34.01563 17.767752 14.05028 14.576405 22.94165 29.307935 17.27997 35.254165" fill="url(#linearGradient4423)"/>
  <path d="m138.15163 86.857285c-36.68535 33.365345-73.843153 67.285825-110.528525 100.651265-.12768.11944-2.960956 2.69712-5.416884 8.48826-2.455913 5.79123-2.541031 15.83509-11.760559 22.53829-6.1795581 5.8218-4.6519101 10.90046-1.9217821 14.9462.311611.46174.874308.96204 1.396302 1.46342.4435391.56038.8818641 1.16152 1.3061851 1.51132 3.764777 3.10356 8.670292 5.10622 15.043226-.50276 7.536662-8.5556 17.531712-7.69108 23.52229-9.59154 5.99048-1.90046 8.821364-4.48076 8.952186-4.59674 36.64403-33.41096 73.884611-67.24033 110.528531-100.65128-5.76897-1.75788-12.81396-7.69021-18.73293-14.22218-5.94258-6.52104-11.18423-14.112455-12.38804-20.034255z" fill="url(#linearGradient4420)" fill-rule="evenodd"/>
  <path d="m6.7197979 198.32592c11.9619131-11.03342 25.1826711-8.82645 35.4149751-.66516 8.621682 6.87662 17.326764 21.03736 6.021196 31.0987 40.313192-36.57704 80.799531-73.23717 121.112621-109.81422 11.4708-9.03273-1.55381-19.995861-8.95552-27.750177-8.98629-9.414384-24.67655-9.489078-35.82181-.05799-39.941899 36.379347-77.829763 70.809487-117.7714621 107.188847z" fill="url(#linearGradient4417)" fill-rule="evenodd"/>
  <path d="m185.02757 125.47987c-5.8223 5.84854-19.52129-2.39432-33.65289-17.05501-14.1316-14.660809-23.37076-30.215185-17.54847-36.063727 5.82229-5.848426 19.52643 3.109514 33.65803 17.770324 14.05029 14.576403 23.29925 29.305363 17.63757 35.251593" fill="url(#linearGradient4414)"/>
  <path d="m7.7338969 224.22432c-.437735 1.54642-.212137 6.59356 1.487161 6.63738 1.2909981.0334 9.4277361-8.05272 11.1076811-9.81364 7.20167-9.8673 7.2613-9.68254 7.983946-11.06018 3.365936-6.41685.955806-20.93238-.478382-20.01311-5.113296 3.27779-6.398248 15.81753-9.004193 20.23285-4.415439 7.4809-9.2977201 9.93236-11.0962131 14.0167z" fill="url(#radialGradient4411)" fill-rule="evenodd"/>
  <path d="m23.203883 190.69433c-1.385418 1.63096-1.041042.77432-1.68949 3.42213-3.914232 7.50884-2.536443 15.82496-11.7559871 22.52816-6.179558 5.82182-4.643908 10.8922-1.913854 14.93792 2.3212031 3.43966 9.8828741 8.66994 14.3063671 4.8036 8.30199-6.95716 15.372038-7.1192 22.333594-9.16334 3.071754-.54968 6.135686-1.66236 8.98105-3.65264.312914-.28352.660998-.60192.974462-.88602-.690132-16.09077-8.284414-25.30258-27.966678-33.86718z" fill="url(#radialGradient4408)" fill-rule="evenodd" opacity=".820106"/>
  <path d="m23.024609 214.03304c-1.003808 1.20596-5.141691 3.62858-6.061753 2.09692-.69905-1.1636 1.503733-12.81874 2.031312-15.27268 4.108661-11.72773 3.930535-11.68598 4.651429-13.06461 3.358232-6.42157 16.176272-11.77782 16.190964-9.98708.05254 6.38487-9.26694 14.09206-11.426556 18.77589-3.659106 7.93584-3.068732 13.67888-5.385396 17.45156z" fill="url(#radialGradient4405)" fill-rule="evenodd"/>
  <path d="m18.624506 236.62808c-1.382053 1.2146-4.626198-.25742-7.241278-3.28582-2.6151671-3.02852-3.6159451-6.47212-2.2338711-7.6868 1.3819721-1.2147 4.6261011.2574 7.2412781 3.28582 2.600117 3.011 3.606862 6.43188 2.256304 7.66668" fill="url(#linearGradient3441)"/>
  <path d="m18.624506 236.62808c-1.382053 1.2146-4.626198-.25742-7.241278-3.28582-2.6151671-3.02852-3.6159451-6.47212-2.2338711-7.6868 1.3819721-1.2147 4.6261011.2574 7.2412781 3.28582 2.600117 3.011 3.606862 6.43188 2.256304 7.66668" fill="url(#linearGradient3443)" opacity=".825397"/>
  <path d="m156.02477 87.802775-112.420027 103.016665c-1.053216.95677-2.829052 1.44993-3.981664 1.10572l-13.197306-3.94152c-1.152594-.34421-1.232512-1.39166-.1793-2.34842l112.327247-101.915781c3.73799-3.195576 9.1419-2.15155 17.45105 4.083336z" fill="url(#linearGradient4399)" fill-rule="evenodd"/>
  <path d="m154.85503 56.746193c-2.6086-.03026-4.73415.674008-6.18972 2.136116-5.14834 4.75336-14.89472 13.44727-15.44501 14.260086-4.90936 6.183002 4.40992 21.013964 18.17184 35.291255 13.71891 14.23255 27.01051 22.35594 33.10322 17.47083.14302-.11468.28081-.22242.4158-.35159l.13892-.0707.0692-.0702 9.35155-8.43366 4.08519-3.9337.13842-.14044c5.66171-5.94626-1.49348-21.869353-15.04349-37.207977-10.11101-11.44566-20.97013-18.859216-28.79592-18.94998z" fill="url(#linearGradient4396)" opacity="0"/>
  <path d="m143.28396 81.935959c-1.04207.947876-7.41101 7.500872-8.45385 8.44954-.11502.0933-.24417.14946-.35779.245404-36.685381 33.365447-71.684867 65.019847-108.370239 98.385297.682512-.62 1.406988-1.02196 2.10741-1.53663-.257208.23398-.5184.47115-.7756.70513-.12762.11952-2.960284 2.72702-5.416212 8.51816-2.45591 5.79114-4.546617 16.08838-11.755895 22.50818-6.1796571 5.82182-4.6440001 10.89222-1.9138541 14.93794 2.3210871 3.43966 9.8827761 8.66992 14.3062731 4.80348 8.302092-6.9571 15.372048-7.0991 22.333516-9.14326 2.656186-.4753 5.280244-1.50584 7.78869-3.02784-.392788.39414-.715612.83886-1.134016 1.2107.547272-.4959 1.103404-.98488 1.650674-1.48076.22207-.1434.45632-.2212.675768-.37474 13.810812-12.51326 28.43087-25.88793 42.95856-39.15571 21.964435-19.8814 77.754835-70.59583 77.175625-70.75863 3.42931-7.55823-5.24894-15.94074-9.52129-20.264575-4.35962-4.41218-13.4412-13.943078-21.29777-14.021686z" fill-rule="evenodd" opacity=".020161"/>
  <path d="m23.203883 190.69433c-1.385418 1.63096-1.041042.77432-1.68949 3.42213-3.914232 7.50884-2.536443 15.82496-11.7559871 22.52816-6.179558 5.82182-4.643908 10.8922-1.913854 14.93792 2.3212031 3.43966 9.8828741 8.66994 14.3063671 4.8036 8.30199-6.95716 15.372038-7.1192 22.333594-9.16334 3.071754-.54968 6.135686-1.66236 8.98105-3.65264.312914-.28352.660998-.60192.974462-.88602-.690132-16.09077-8.284414-25.30258-27.966678-33.86718z" fill="url(#radialGradient4392)" fill-rule="evenodd" opacity=".820106"/>
  <path d="m23.203883 190.69433c-1.385418 1.63096-1.041042.77432-1.68949 3.42213-3.914232 7.50884-2.536443 15.82496-11.7559871 22.52816-6.179558 5.82182-4.643908 10.8922-1.913854 14.93792 2.3212031 3.43966 9.8828741 8.66994 14.3063671 4.8036 8.30199-6.95716 15.372038-7.1192 22.333594-9.16334 3.071754-.54968 6.135686-1.66236 8.98105-3.65264.312914-.28352.660998-.60192.974462-.88602-.690132-16.09077-8.284414-25.30258-27.966678-33.86718z" fill="url(#radialGradient4389)" fill-rule="evenodd" opacity=".820106"/>
  <path d="m28.414769 216.80882a9.6957972 4.0451116 77.516693 1 0 -8.220406-13.64372 9.6957972 4.0451116 77.516693 1 0 8.220406 13.64372z" fill="url(#radialGradient3451)" opacity=".290984"/>
  <path d="m220.57869 14.859833c-.37286.0145-.74092.04517-1.11496.07774-7.4071 7.848768-12.51414 19.12685-14.69522 31.270542 9.06436-7.694852 15.98418-6.461682 24.45196-12.446576 4.81562-3.403612 8.79504-11.263276 3.44574-15.29347-3.65812-2.756042-7.84166-3.773352-12.08752-3.608234zm-10.50914 2.585499c-1.87442.81011-3.74712 1.757842-5.48754 2.828265-9.37862 6.893079-10.15573 14.64786-23.57577 27.639244l13.04547 10.78251c1.58056-2.303192 3.03935-4.275846 4.48845-6.028204 2.97905-16.703796 7.15793-27.851918 11.52939-35.221815z" fill="url(#radialGradient4385)" fill-rule="evenodd" opacity=".454918"/>
  <path d="m138.70469 89.688647c3.99322 9.951158 13.86669 20.017223 21.52029 26.066663l-96.615303 95.76557-23.180452-22.6487z" fill="url(#radialGradient4363)" opacity=".327869"/>
  <path d="m10.574936 232.17466 5.124858-3.9683c.263199.21256.453569.45784.535006.5642l-5.156108 4.06204c-.0407.0312-.09857.0234-.129734-.018l-.391245-.5102c-.03116-.0406-.02348-.0986.01722-.1298z" fill="url(#linearGradient4463)" opacity=".483607"/>
</svg>
