<svg height="256" width="256" xmlns="http://www.w3.org/2000/svg" xmlns:xlink="http://www.w3.org/1999/xlink">
  <defs>
    <linearGradient id="lg1">
      <stop offset="0" stop-color="#fff"/>
      <stop offset="1" stop-color="#fff" stop-opacity="0"/>
    </linearGradient>
    <linearGradient id="lg3">
      <stop offset="0"/>
      <stop offset="1" stop-opacity="0"/>
    </linearGradient>
    <radialGradient id="radialGradient3937" cx="154.17799" cy="33.309246" gradientTransform="matrix(.9702732 -.06291178 .06430445 .8808136 12.919321 82.553878)" gradientUnits="userSpaceOnUse" r="11.547417" xlink:href="#lg3"/>
    <filter id="filter3933" height="1.070987" width="1.073383" x="-.036631" y="-.035494">
      <feGaussianBlur stdDeviation="1.4820941"/>
    </filter>
    <radialGradient id="radialGradient9655" cx="154.17799" cy="33.309246" gradientTransform="matrix(1 0 0 .931884 3.581214 -10.16833)" gradientUnits="userSpaceOnUse" r="11.547417" xlink:href="#lg3"/>
    <radialGradient id="radialGradient9657" cx="173.35292" cy="29.473955" gradientTransform="matrix(5.093182 .03710751 -.03342812 4.588167 -711.6483 -118.8231)" gradientUnits="userSpaceOnUse" r="7.125" xlink:href="#linearGradient4174"/>
    <linearGradient id="linearGradient4174">
      <stop offset="0" stop-color="#fff"/>
      <stop offset="1" stop-color="#3e3e3e" stop-opacity="0"/>
    </linearGradient>
    <radialGradient id="radialGradient9659" cx="150.17821" cy="56.316689" gradientTransform="matrix(7.899763 -.133352 .10295 6.09874 -1031.154 -297.761)" gradientUnits="userSpaceOnUse" r="4.695971" xlink:href="#linearGradient4174"/>
    <radialGradient id="radialGradient22837" cx="78.344902" cy="47.896503" gradientTransform="matrix(2.0560534 -.254145 .2618352 1.869825 -21.692592 29.887716)" gradientUnits="userSpaceOnUse" r="59.069851" xlink:href="#linearGradient22831"/>
    <linearGradient id="linearGradient22831">
      <stop offset="0" stop-color="#fff"/>
      <stop offset="1" stop-color="#888a85" stop-opacity="0"/>
    </linearGradient>
    <radialGradient id="radialGradient10545" cx="222.09877" cy="1.235139" gradientTransform="matrix(4.7562088 -.6150012 2.0805022 13.735553 -872.78156 215.61436)" gradientUnits="userSpaceOnUse" r="16.390625" xlink:href="#linearGradient22831"/>
    <radialGradient id="radialGradient25491" cx="302.08856" cy="-10.284327" gradientTransform="matrix(.5714042 -.19387398 .6807232 1.7477084 39.183752 150.53262)" gradientUnits="userSpaceOnUse" r="59.073311" xlink:href="#lg3"/>
    <radialGradient id="radialGradient27252" cx="302.08856" cy="-10.284327" gradientTransform="matrix(.5714042 -.19387398 .6807232 1.7477084 39.679608 150.47132)" gradientUnits="userSpaceOnUse" r="59.073311" xlink:href="#lg3"/>
    <radialGradient id="radialGradient19335" cx="64.035408" cy="72.25351" gradientTransform="matrix(.35411 -4.17141 5.032558 -1.51988 -331.3648 448.8406)" gradientUnits="userSpaceOnUse" r="8.072002">
      <stop offset="0" stop-color="#fff"/>
      <stop offset="1" stop-opacity="0"/>
    </radialGradient>
    <radialGradient id="radialGradient15831" cx="77.371063" cy="64.803642" gradientTransform="matrix(.71884 .05195072 .124003 10.14631 11.77238 -600.3243)" gradientUnits="userSpaceOnUse" r="4.14229">
      <stop offset="0" stop-color="#fff"/>
      <stop offset="1" stop-color="#555753" stop-opacity="0"/>
    </radialGradient>
    <radialGradient id="radialGradient12309" cx="94.138443" cy="38.927982" gradientTransform="matrix(.581247 .00581712 -.07455762 9.383173 36.03053 -309.6658)" gradientUnits="userSpaceOnUse" r="6.873377" xlink:href="#lg1"/>
    <linearGradient id="linearGradient13190" gradientTransform="matrix(.737301 -.00000067 .00000013 1.016243 23.72264 1.031887)" gradientUnits="userSpaceOnUse" x1="79.735275" x2="95" xlink:href="#linearGradient13184" y1="48.538784" y2="48.538784"/>
    <linearGradient id="linearGradient13184">
      <stop offset="0" stop-opacity=".666667"/>
      <stop offset="1" stop-opacity="0"/>
    </linearGradient>
    <radialGradient id="radialGradient14940" cx="94.138443" cy="38.927982" gradientTransform="matrix(.566041 .00497625 -.07260836 8.025401 38.46269 -251.3652)" gradientUnits="userSpaceOnUse" r="6.873377" xlink:href="#lg1"/>
    <linearGradient id="linearGradient14942" gradientTransform="matrix(.718011 .00000055 -.00000002 .869189 26.47674 14.37374)" gradientUnits="userSpaceOnUse" x1="79.735275" x2="95" xlink:href="#linearGradient13184" y1="48.538784" y2="48.538784"/>
    <radialGradient id="radialGradient14946" cx="94.138443" cy="38.927982" gradientTransform="matrix(.602777 .00495854 -.07732142 7.998709 33.70512 -255.1298)" gradientUnits="userSpaceOnUse" r="6.873377" xlink:href="#lg1"/>
    <linearGradient id="linearGradient14948" gradientTransform="matrix(.764612 -.00000092 -.00000009 .866298 20.94123 9.725384)" gradientUnits="userSpaceOnUse" x1="79.735275" x2="95" xlink:href="#linearGradient13184" y1="48.538784" y2="48.538784"/>
    <linearGradient id="linearGradient23728" gradientTransform="matrix(1.0692341 -.1321662 .1338966 .9561867 48.060002 78.298058)" gradientUnits="userSpaceOnUse" x1="105.58075" x2="120.06922" xlink:href="#lg3" y1="11.270861" y2="11.270861"/>
    <filter id="filter3737" height="1.189864" width="1.09672" x="-.04836" y="-.094932">
      <feGaussianBlur stdDeviation=".30086486"/>
    </filter>
    <linearGradient id="linearGradient26375" gradientTransform="matrix(2.0560534 -.254145 .2677932 1.9123734 -21.98461 27.372956)" gradientUnits="userSpaceOnUse" x1="114.74419" x2="141.67282" xlink:href="#lg3" y1="51.131916" y2="13.184787"/>
    <radialGradient id="radialGradient27256" cx="224.46358" cy="-4.225865" gradientTransform="matrix(2.3781044 -.3075006 1.0402511 6.8677766 -373.51169 171.00736)" gradientUnits="userSpaceOnUse" r="16.390625" xlink:href="#linearGradient22831"/>
    <filter id="filter3985" height="1.019604" width="1.030938" x="-.015469" y="-.009802">
      <feGaussianBlur stdDeviation=".18706947"/>
    </filter>
    <radialGradient id="radialGradient34276" cx="19.006332" cy="99.120926" gradientTransform="matrix(-2.0668952 .15794532 -.2321384 -2.715357 87.85852 493.41898)" gradientUnits="userSpaceOnUse" r="4.603175" xlink:href="#lg1"/>
    <radialGradient id="radialGradient34303" cx="174.07651" cy="28.159636" gradientTransform="matrix(9.8886778 -.570695 .568341 8.6776458 -1505.3041 -82.542244)" gradientUnits="userSpaceOnUse" r="7.125" xlink:href="#linearGradient4174"/>
    <radialGradient id="radialGradient3758" cx="-32.149124" cy="103.47713" gradientTransform="matrix(.63865672 -.27951697 1.0908811 2.4925094 -41.836746 -33.793119)" gradientUnits="userSpaceOnUse" r="54.613575" xlink:href="#lg1"/>
    <radialGradient id="radialGradient4005" cx="62.261757" cy="77.167572" fx="56.312855" fy="65.784782" gradientTransform="matrix(.9299242 2.0072946 -.570749 .3916828 138.71386 -29.169344)" gradientUnits="userSpaceOnUse" r="33.8983" xlink:href="#lg1"/>
    <radialGradient id="radialGradient8648" cx="18.988297" cy="99.099472" gradientTransform="matrix(2.0560534 -.254145 .3558978 2.5415462 -30.715684 -34.977644)" gradientUnits="userSpaceOnUse" r="4.909016" xlink:href="#lg1"/>
    <filter id="filter3989" height="1.033421" width="1.018722" x="-.009361" y="-.016711">
      <feGaussianBlur stdDeviation=".086425096"/>
    </filter>
    <filter id="filter3995" height="1.080642" width="1.049493" x="-.024746" y="-.040321">
      <feGaussianBlur stdDeviation=".17395735"/>
    </filter>
    <linearGradient id="linearGradient2" gradientUnits="userSpaceOnUse" x1="89.0843" x2="111.1612" y1="145.97728" y2="167.90104">
      <stop offset=".213" stop-color="#f00"/>
      <stop offset="1" stop-color="#9f0909"/>
    </linearGradient>
  </defs>
  <path d="m163.42013 66.776718c-.38761.001-.76398.0107-1.15625.0312-.0411.002-.084-.002-.125 0-.22868.0131-1.08367.0549-1.15625.0625-.063.007-.15279-.005-.21875 0-.0712.008-.14783.0225-.21875.0312-.64105.0788-1.28857.18432-1.90625.3125-7.7673 1.43217-13.66592 6.63673-14.84375 12.90625-.0516.26545-.0906.54346-.125.8125-.0214.17681-.0487.35303-.0625.53125-.005.0326-.0264.0924-.0312.125 0 0-3.38133 20.709522-7.375 26.281252-.0979.13666-.23211.33162-.4375.5625-1.44015 1.50848-4.71332 4.67208-8.78125 8.59375-15.88665 15.08847-47.182849 43.76734-54.906249 52-.09039.0848-1.0625 1-1.0625 1l.40625-.28125c-.52975.58685-.92924 1.04236-1.09375 1.3125-.74532 1.2239-1.2252 2.50943-1.46875 3.8125-.0038.02.0037.0425 0 .0625-.05528.3052-.095.60027-.125.90625-.0032.0302.0029.0636 0 .0937-.02759.30674-.05941.63142-.0625.9375-.00016.0105.00013.0208 0 .0312-.0023.30496.01003.6033.03125.90625.0014.0209-.0015.0416 0 .0625.02281.30294.04832.60673.09375.90625.003.0205-.0031.0421 0 .0625.04694.29918.11882.58064.1875.875.05119.22628.12388.43341.1875.65625.02678.0919.03365.19003.0625.28125.007.0224.02417.0401.03125.0625.01717.0533.04463.10322.0625.15625.17386.52494.35425 1.06545.59375 1.5625.0099.0202.02128.0423.03125.0625 2.01346 4.12141 6.21584 7.11428 11.125 6.6875.2621-.0174.54635-.0564.8125-.0937.0099-.002.02138.002.03125 0 .07192-.0103.14655-.0195.21875-.0312 1.12838-.18406 2.29152-.58032 3.46875-1.15625.728-.33876 1.4502-.7455 2.1875-1.25 7.777258-5.32167 54.751549-63.99235 61.093749-68.09375.1357-.0878.32954-.18975.5-.28125 7.346-3.21055 14.40065-3.64773 21.78125-6.1875 2.38889-.54638 4-.90625 4-.90625.005.001.0265-.00054.0312 0 .004-.00005.0272.00063.0312 0 .003-.002.0283-.0289.0312-.0312.002-.004.0297-.0266.0312-.0312.001-.005-.00089-.0255 0-.0312.0005-.006.001-.0219 0-.0312.003-.00075.125-.0312.125-.0312.16232.0365.13926-.2075-.0312-.71875 4.28901-2.22562 9.82067-8.27365 11.90625-17.031252.10101-.42412-.19444-3.34879-.3125-3.53125.0146-.0641.0481-.12321.0625-.1875l-13.3125 6.28125-8.21875-5.46875c-.88732-1.73881-1.71153-3.3195-2.21875-4.40625.00004-4.12787-.003-4.47806.375-8.21875 5.07467-1.99776 14.03125-5.4375 14.03125-5.4375-.0105-.0101-.0208-.0212-.0312-.0312.0126-.005.28125-.0937.28125-.0937-3.46702-3.34013-8.71705-5.4283-14.53115-5.40625zm-82.843749 102.843752c2.45674-.0582 4.83751 1.56017 6.15625 3.90625.10908.19885.21919.38518.3125.59375.0099.0216.02152.0408.03125.0625.09209.21044.175131.43724.25.65625.0076.0216.02382.0408.03125.0625.121128.36439.21215.74151.28125 1.125.03177.16659.04132.33035.0625.5.02294.19692.05445.3935.0625.59375.127034 3.16042-2.7388 6.43578-6 7.15625-.16457.0225-.3344.0226-.5.0312-3.65242.19122-7.36535-3.46519-7.59375-7.28125-.15736-2.62913 1.26481-5.26077 3.78125-6.625.61117-.30037 1.30564-.54914 2.03125-.6875.06063-.009.12592.007.1875 0 .29518-.0452.59518-.0769.90625-.0937z" style="fill-rule:evenodd;stroke-width:1.5781;stroke-linecap:round;stroke-linejoin:round;stroke:url(#radialGradient3937);filter:url(#filter3933)" transform="matrix(2 0 0 2 -128 -128)"/>
  <g transform="matrix(1.9405464 -.12582356 .13800956 1.8903932 -107.66114 52.780515)">
    <path d="m181.67604 9.099418-14.13212 5.699466-8.155-6.393046c-1.0714 1.417425-1.8863 21.693357 3.10193 21.520607 9.13195-.316254 15.80573-9.325742 19.18519-20.827027z" style="fill:#888a85;fill-rule:evenodd;stroke-width:1.644;stroke-linecap:round;stroke-linejoin:round;stroke:url(#radialGradient9655)"/>
    <path d="m181.16095 9.7597789-13.40625 5.4062501-.84375 9.4375 1.53125 4.15625c5.84622-3.223357 10.19566-10.413188 12.71875-19.0000001z" fill="url(#radialGradient9657)" fill-rule="evenodd" opacity=".513761"/>
    <path d="m159.31603 8.5972985c-.004.00554-.0271.02514-.0312.03125-.008.013357-.023.046897-.0312.0625-1.03857 2.0973105-1.73455 21.6068755 3.15625 21.4374995 1.08085-.03743 2.14566-.198035 3.15625-.46875l.6875-15.59375z" fill="url(#radialGradient9659)" fill-rule="evenodd" opacity=".513761"/>
  </g>
  <path d="m192.08048 1.990295c-18.01334 2.21358-31.70746 14.45632-32.82812 28.9246-.01.0652-.041.20412-.0506.26936 0 0-6.74558 41.438944-14.73292 52.582404-6.269 8.74608-126.113323 117.075861-131.759455 126.347401-11.92519447 19.58238 10.31371 47.50776 33.907268 31.36364 15.554526-10.64336 109.469667-127.95146 122.154067-136.15426 8.57382-5.544561 53.10994-15.037841 53.10994-15.037841 2.59702.5834-18.55738-37.981624-24.24966-50.177724.00008-8.28386-.018-8.95586.7465-16.50926 10.05456-3.96356 28.56168-11.03078 28.56168-11.03078-7.39652-7.12562-18.84772-11.41582-31.40032-10.7586-.0822.004-.1838.01-.26598.014-.45736.0262-2.11616.1032-2.26132.1184-.126.014-.33364.014-.46556.0244-.1424.016-.3237.006-.46554.0244zm-159.228755 205.109985c7.304918-.38246 14.371618 6.71084 14.70984 15.12534.27981 6.96132-6.6816 14.21946-13.986492 14.60192-7.304868.38246-14.74913-6.9608-15.205936-14.5929-.43895-7.33402 5.250204-14.65098 14.482588-15.13436z" fill="#888a85" fill-rule="evenodd"/>
  <path d="m193.10654 1.789055c-18.01334 2.21358-31.70744 14.45632-32.8281 28.92458-.01.0652-.041.20414-.0506.26936 0 0-6.7456 41.438944-14.73294 52.582424-6.26898 8.74608-126.113299 117.075841-131.759441 126.347381-11.9251965 19.58236 10.313708 47.50774 33.907268 31.36362 15.55451-10.64334 109.469673-127.95144 122.154073-136.15424 8.5738-5.544561 53.10992-15.037821 53.10992-15.037821 2.59702.58338-18.55738-37.981624-24.24966-50.177744.00006-8.28384-.018-8.95586.74648-16.50926 10.05458-3.96354 28.5617-11.03076 28.5617-11.03076-7.39652-7.12564-18.84772-11.41584002-31.40034-10.75862-.0822.004-.1838.01-.26598.014-.45736.0262-2.11614.1032-2.2613.1184-.126.014-.33364.014-.46556.0244-.1424.016-.3237.006-.46554.0244zm-159.228741 205.109985c7.304904-.38246 14.37163 6.7108 14.70984 15.1253.279812 6.96132-6.681598 14.21946-13.986506 14.60194-7.304854.38244-14.749128-6.9608-15.20592-14.59292-.438952-7.334 5.250214-14.65094 14.482586-15.13432z" fill="url(#radialGradient22837)" fill-rule="evenodd"/>
  <path d="m163.31188 32.119875 14.95348 32.48868 6.36782-2.71434 10.56516 23.659004-5.23688 2.48594 7.19682 9.40224c11.88798-2.98054 24.7103-8.06986 24.7103-8.06986.01.0011.0562-.004.0648-.004.008-.0013.0576-.00092.0648-.004.006-.006.0566-.0578.0612-.0648.004-.01-.006-.051-.004-.0614.004-.023.0566-.099.0574-.1264-.051-3.55764-19.0742-38.419184-24.41326-49.903104-.006-8.2831.008-8.94878.76206-16.50098 9.99882-3.95666 28.45818-10.216 28.45818-10.216-7.36254-7.1297-22.48142-10.23882-33.75478-8.14714-17.7072 3.28542-28.2198 13.86638-29.8531 27.77496z" fill="url(#radialGradient10545)" fill-rule="evenodd"/>
  <path d="m190.02556 2.419355c-16.9733 2.8686-29.6823 14.76458-30.75916 28.66768-.01.0652-.0212.1818-.0308.247-.00002 0-6.74196 41.441924-14.72932 52.585404-6.26898 8.74606-126.150351 117.060501-131.796505 126.332041-11.92519447 19.58236 10.3438 47.51488 33.937344 31.37078 15.554526-10.64336 109.501701-127.94542 122.186081-136.14822 8.5738-5.544561 53.05682-15.069701 53.05682-15.069701.01.002.0632.0508.0726.0518.008-.0001.0562-.006.0642-.008.006-.004.05-.063.0558-.0676.004-.008.0528-.0584.0558-.0678.002-.01-.01-.0482-.008-.0598.004-.0378-.0226-.1318-.0252-.1792-.359-4.03976-19.11316-38.426164-24.42746-49.812384.00006-8.28384-.004-8.95552.76034-16.50892 10.05458-3.96354 28.51806-11.06378 28.51806-11.06378-7.39652-7.12562-18.81886-11.37052-31.37146-10.7133-.0822.004-.1832-.0328-.26538-.028-.45736.0262-2.1204.1432-2.26554.1584-.126.014-.32622-.014-.45814-.004-.1246.014-.31808.0454-.44976.0556-.70364.0864-1.43032.1454-2.1203.26208zm2.71206 2.09662c11.20952-1.92396 25.8897.4368 33.13758 7.45516 0 0-18.32646 7.0833-28.3253 11.03996-.75488 7.55222-.76634 8.22584-.76034 16.50894 5.29736 11.3942 24.02044 45.808464 24.36322 49.820304.00078.014.008.0458.008.0598-.01.0226-.0366.1058-.0476.1274.00048.006.008.0534.008.0598-.014.014-.0534.0648-.0558.0678-.014.00038-.0602.008-.0642.008-.006.00048-.0584.008-.0642.008 0 0-14.21818 2.43504-26.10618 5.4156l-3.56258-5.17144 6.9948-4.59036-12.78944-24.786084-8.82434 3.06268-14.2572-31.19844c1.63328-13.90858 12.13274-24.47828 29.83994-27.76372.1762-.0326.3277-.0928.50564-.1232zm-162.176921 202.981825c.739432-.1382 1.528028-.1846 2.321422-.22614 7.304896-.38246 14.388796 6.66642 14.727026 15.08092.279814 6.96132-6.726866 14.24074-14.031778 14.62322-7.304882.38246-14.725646-6.96696-15.182458-14.59908-.401208-6.70374 4.300932-13.40952 12.165788-14.87892z" fill="url(#radialGradient25491)" fill-rule="evenodd"/>
  <path d="m190.52142 2.358055c-16.9733 2.8686-29.68228 14.7646-30.75914 28.6677-.01.0652-.0212.1818-.0308.24698-.00002 0-6.74198 41.441944-14.72934 52.585404-6.26898 8.74608-126.150355 117.060501-131.796507 126.332061-11.9252045 19.58234 10.343806 47.51484 33.93735 31.37074 15.554526-10.64336 109.501697-127.9454 122.186097-136.14818 8.57378-5.544581 53.0568-15.069721 53.0568-15.069721.01.002.0632.0508.0726.0518.008-.0001.0562-.006.0642-.008.006-.004.05-.063.0558-.0678.004-.008.0528-.0584.0558-.0676.002-.01-.01-.0482-.008-.0598.004-.0378-.0226-.1318-.0252-.1792-.359-4.03976-19.11316-38.426164-24.42746-49.812364.00006-8.28384-.004-8.95554.76032-16.50894 10.05458-3.96354 28.51808-11.06378 28.51808-11.06378-7.39652-7.12562-18.81886-11.3705-31.37146-10.71328-.0822.004-.1832-.0328-.26538-.028-.45736.0262-2.1204.1432-2.26554.1584-.126.014-.32622-.014-.45814-.004-.1246.014-.31808.0454-.44976.0556-.70364.0864-1.43032.1454-2.1203.2621zm2.71206 2.09662c11.20952-1.92394 25.8897.4368 33.13758 7.45518 0 0-18.32648 7.0833-28.32532 11.03996-.75486 7.5522-.76632 8.22582-.76032 16.50892 5.29734 11.3942 24.02044 45.808464 24.36322 49.820304.00078.014.008.0458.008.0598-.01.0226-.0366.106-.0474.1274.00048.006.008.0534.008.0598-.014.014-.0532.0648-.0558.0678-.014.00038-.0602.008-.0642.008-.006.0005-.0584.008-.0642.008 0 0-14.21818 2.43504-26.10618 5.4156l-3.75654-6.55506 7.55526-4.19044-11.73312-24.447464-9.94526 2.26286-14.55928-29.75354c1.63326-13.90858 12.13274-24.47828 29.8399-27.7637.1762-.0326.32772-.0928.50566-.1232zm-162.176927 202.981825c.739446-.1382 1.528026-.1846 2.321434-.22616 7.304888-.38244 14.38879 6.66644 14.727018 15.08092.279816 6.96132-6.726864 14.24074-14.031778 14.62322-7.30488.38248-14.725644-6.96696-15.182456-14.59906-.401204-6.70374 4.300926-13.4095 12.165782-14.87892z" fill="url(#radialGradient27252)" fill-rule="evenodd"/>
  <g transform="matrix(2.0560534 -.254145 .2677932 1.9123734 -21.984611 27.372955)">
    <rect height="13.094864" style="fill:#2e3436;fill-rule:evenodd;stroke-width:1.54413;stroke-linecap:round;stroke-linejoin:round;stroke:url(#radialGradient19335)" transform="matrix(.956291 -.292417 .309707 .950832 0 0)" width="13.399776" x="68.625313" y="58"/>
    <rect fill="url(#radialGradient15831)" fill-rule="evenodd" height="11.043238" transform="matrix(.967683 -.25217 .307423 .951573 0 0)" width="7.725412" x="71.562981" y="55.691086"/>
    <rect height="1.232567" ry="0" style="fill-rule:evenodd;stroke-width:.38433;stroke-linecap:round;stroke-linejoin:round;fill:url(#radialGradient12309);stroke:url(#linearGradient13190)" transform="matrix(.98605 -.16645 .08671967 .996233 0 0)" width="11.254695" x="82.51152" y="49.742821"/>
    <rect height="1.05421" ry="0" style="fill-rule:evenodd;stroke-width:.350756;stroke-linecap:round;stroke-linejoin:round;fill:url(#radialGradient14940);stroke:url(#linearGradient14942)" transform="matrix(.989282 -.14602 .09906172 .995081 0 0)" width="10.960242" x="83.72757" y="56.036003"/>
    <rect height="1.050705" ry="0" style="fill-rule:evenodd;stroke-width:.361358;stroke-linecap:round;stroke-linejoin:round;fill:url(#radialGradient14946);stroke:url(#linearGradient14948)" transform="matrix(.990631 -.136567 .105988 .994367 0 0)" width="11.671585" x="81.907768" y="51.249149"/>
  </g>
  <path d="m162.90083 75.885008 14.24754-5.4999.64447 1.69008-14.93125 5.91618z" fill="url(#linearGradient23728)" fill-rule="evenodd" filter="url(#filter3737)" transform="matrix(2 0 0 2 -128 -128)"/>
  <path d="m220.51746 85.969839c8.32032-1.57774 21.32006-18.944424 25.47892-38.447804.185-.86754.85128 6.11582.6299 7.0454-4.2894 18.011724-15.85856 30.305224-24.5276 34.434364-.5128.24426.0596 3.45222-1.58122-3.03196z" fill="url(#linearGradient26375)" fill-rule="evenodd"/>
  <path d="m146.27057 79.045578 6.54959 16.82813 4.02458-.75729 5.49822 11.568252-3.26536 2.02672 2.38065 3.20948c5.94399-1.49028 12.35515-4.03493 12.35515-4.03493.005.00055.0281-.002.0324-.002.004-.00064.0288-.00047.0324-.002.003-.003.0284-.0289.0306-.0324.002-.005-.003-.0255-.002-.0307.002-.0115.0283-.0495.0287-.0631-.0255-1.77883-9.53709-19.209592-12.20662-24.951562-.003-4.14154.004-4.47438.38103-8.25049 4.99941-1.97832 13.18461-5.39238 13.18461-5.39238-3.68127-3.56486-10.00248-3.45141-15.63916-2.40556-8.85361 1.64271-12.56815 5.33503-13.38479 12.28932z" fill="url(#radialGradient27256)" fill-rule="evenodd" filter="url(#filter3985)" transform="matrix(2 0 0 2 -128 -128)"/>
  <path d="m14.054443 208.0712s123.211737-115.597661 131.190417-125.019801c7.66144-9.0475 14.3584-50.167884 14.3584-50.167884s4.1988-2.84486 3.39656-.37816c-1.09918 3.37976-11.78576 44.874544-14.40882 48.903764-5.9756 9.17904-39.8924 39.462781-39.8924 39.462781l-82.868893 78.72808z" fill-rule="evenodd" opacity=".385321"/>
  <path d="m35.087905 239.12558s-9.517624.1498-14.531066-6.15024c-5.013454-6.3-5.432626-15.9213-5.432626-15.9213l1.100756-1.64886s.990308 9.65228 5.506726 15.7506c4.602956 6.21512 14.476666 6.56906 14.322786 6.82618z" fill="url(#radialGradient34276)" fill-rule="evenodd" opacity=".894495"/>
  <path d="m217.4048 58.395475c-.1668.53874.5248 16.673444.62508 17.243724.2402 8.85936 2.34148 9.3951 2.57238 10.98312 1.7128-.65162.5506.1608 2.09152-.79212-.1474-.7746-2.32728-6.17566-3.22766-8.1125.0772-4.40626.0914-16.765184.1096-17.937664-.83124-.55622-1.15044-.77806-2.17096-1.38456z" fill-rule="evenodd"/>
  <path d="m244.97944 48.193315-25.26934 11.90676-.33486 17.946764 3.54506 7.66428c10.9-6.829 18.34804-20.967884 22.05914-37.517804z" fill="url(#radialGradient34303)" fill-rule="evenodd" opacity=".513761"/>
  <path d="m190.52142 2.358055c-16.9733 2.8686-29.68228 14.7646-30.75914 28.6677-.01.0652-.0212.1818-.0308.24698-.00002 0-6.74198 41.441944-14.72934 52.585404-6.26898 8.74608-126.150355 117.060501-131.796507 126.332061-11.9252045 19.58234 10.343806 47.51484 33.93735 31.37074 15.554526-10.64336 109.501697-127.9454 122.186097-136.14818 8.57378-5.544581 53.0568-15.069721 53.0568-15.069721.01.002.0632.0508.0726.0518.008-.0001.0562-.006.0642-.008.006-.004.05-.063.0558-.0678.004-.008.0528-.0584.0558-.0676.002-.01-.01-.0482-.008-.0598.004-.0378-.0226-.1318-.0252-.1792-.359-4.03976-19.11316-38.426164-24.42746-49.812364.00006-8.28384-.004-8.95554.76032-16.50894 10.05458-3.96354 28.51808-11.06378 28.51808-11.06378-7.39652-7.12562-18.81886-11.3705-31.37146-10.71328-.0822.004-.1832-.0328-.26538-.028-.45736.0262-2.1204.1432-2.26554.1584-.126.014-.32622-.014-.45814-.004-.1246.014-.31808.0454-.44976.0556-.70364.0864-1.43032.1454-2.1203.2621zm2.71206 2.09662c11.20952-1.92394 25.8897.4368 33.13758 7.45518 0 0-18.32648 7.0833-28.32532 11.03996-.75486 7.5522-.76632 8.22582-.76032 16.50892 5.29734 11.3942 24.02044 45.808464 24.36322 49.820304.00078.014.008.0458.008.0598-.01.0226-.0366.106-.0474.1274.00048.006.008.0534.008.0598-.014.014-.0532.0648-.0558.0678-.014.00038-.0602.008-.0642.008-.006.0005-.0584.008-.0642.008 0 0-14.21818 2.43504-26.10618 5.4156l-3.75654-6.55506 7.55526-4.19044-11.73312-24.447464-9.94526 2.26286-14.55928-29.75354c1.63326-13.90858 12.13274-24.47828 29.8399-27.7637.1762-.0326.32772-.0928.50566-.1232zm-162.176927 202.981825c.739446-.1382 1.528026-.1846 2.321434-.22616 7.304888-.38244 14.38879 6.66644 14.727018 15.08092.279816 6.96132-6.726864 14.24074-14.031778 14.62322-7.30488.38248-14.725644-6.96696-15.182456-14.59906-.401204-6.70374 4.300926-13.4095 12.165782-14.87892z" fill="url(#radialGradient3758)" fill-rule="evenodd"/>
  <path d="m31.730567 201.82488c11.085982-2.60994 23.700432 9.8214 21.269008 21.54164 8.297178-6.87 103.777865-113.3566 105.757825-118.48078 3.03192-7.846761-5.15616-14.936841-12.9442-11.594741-5.43212 2.33108-114.804215 108.703761-114.082633 108.533881z" fill="#888a85" fill-rule="evenodd"/>
  <path d="m31.730567 201.82488c11.085982-2.60994 23.700432 9.8214 21.269008 21.54164 8.297178-6.87 103.777865-113.3566 105.757825-118.48078 3.03192-7.846761-5.15616-14.936841-12.9442-11.594741-5.43212 2.33108-114.804215 108.703761-114.082633 108.533881z" fill-rule="evenodd" opacity=".8"/>
  <path d="m31.730567 201.82488c11.085982-2.60994 23.700432 9.8214 21.269008 21.54164 8.297178-6.87 103.777865-113.3566 105.757825-118.48078 3.03192-7.846761-5.15616-14.936841-12.9442-11.594741-5.43212 2.33108-114.804215 108.703761-114.082633 108.533881z" fill="url(#radialGradient4005)" fill-rule="evenodd" opacity=".277228"/>
  <path d="m31.730567 201.82488c11.085982-2.60994 23.700432 9.8214 21.269008 21.54164 8.297178-6.87 103.777865-113.3566 105.757825-118.48078 3.03192-7.846761-5.15616-14.936841-12.9442-11.594741-5.43212 2.33108-114.804215 108.703761-114.082633 108.533881z" fill="url(#linearGradient2)" fill-rule="evenodd"/>
  <path d="m145.64156 93.527159c.60832-.37476 5.75148-2.94006 10.50034 1.2392 4.0537 3.56746 3.50726 7.259421 2.37784 10.582621-.54544 1.60486-44.3803 51.30932-52.24932 60.353-3.86942 4.44702-17.110521 18.92006-29.259541 32.28916-12.257218 13.48814-23.767936 25.18804-23.767936 25.18804s103.858657-115.7759 104.485977-118.93442c.91962-4.630221-.9769-6.103941-2.53998-7.583001-1.59304-1.50742-4.39606-3.1921-8.21118-2.41782-5.2611 1.06774-113.003427 106.663901-115.042187 107.438721 0 0 25.872666-25.61816 53.177206-51.96582 27.304541-26.34768 56.040941-53.424861 60.528781-56.189681z" fill="#2e3436" fill-rule="evenodd" opacity=".40367"/>
  <path d="m32.763165 200.75056s8.591514-2.06222 15.932778 4.81762c8.028638 7.524 5.586498 16.4834 5.586498 16.4834l-1.291126 1.54172s.706098-3.42878-.12858-6.79248c-.834684-3.36372-2.60796-6.81974-5.630108-9.60194-2.978134-2.74168-5.801192-4.50682-8.868454-5.1634-3.067262-.65656-6.554022-.183-6.484106-.31488z" fill="url(#radialGradient8648)" fill-rule="evenodd"/>
  <path d="m32.763165 200.75056s8.591514-2.06222 15.932778 4.81762c8.028638 7.524 5.586498 16.4834 5.586498 16.4834l-1.291126 1.54172s.706098-3.42878-.12858-6.79248c-.834684-3.36372-2.60796-6.81974-5.630108-9.60194-2.978134-2.74168-5.801192-4.50682-8.868454-5.1634-3.067262-.65656-6.554022-.183-6.484106-.31488z" fill="url(#radialGradient8648)" fill-rule="evenodd"/>
  <path d="m168.24113 66.095628c-11.99185-.98932-20.74161 3.16636-22.1576 12.26959 1.64622-6.95749 8.9487-12.60613 22.1576-12.26959z" fill="#fff" fill-rule="evenodd" filter="url(#filter3989)" transform="matrix(2 0 0 2 -128 -128)"/>
  <path d="m168.24113 66.095628c-12.14259-1.71283-21.73644 2.65387-22.1576 12.26959 2.30944-6.83691 8.9487-12.33481 22.1576-12.26959z" fill="#fff" fill-rule="evenodd" filter="url(#filter3995)" opacity=".777228" transform="matrix(2 0 0 2 -128 -128)"/>
  <path d="m99.845703 3.1445313c-4.798407-.0351518-8.967798.9933311-11.974609 3.0273437-2.561312 1.7326462-4.281075 4.180907-4.896485 7.326172 2.488422-5.1985473 7.763116-9.3373418 16.871094-10.3535157z" fill="#fff" fill-rule="evenodd" filter="url(#filter3995)" opacity=".777228" transform="matrix(2 0 0 2 -.733741 -2.196565)"/>
  <path d="m150.1356 92.428439c-1.41178-.043-2.85224.24836-4.3125.875-5.43212 2.33108-114.784081 108.669881-114.062499 108.500001.75401-.1776 1.487064-.2692 2.25-.3125 11.662906-11.76824 106.727039-104.005161 111.812499-106.187501 6.23406-2.67522 12.71314 1.33152 13.5 7.062501.51496-5.327121-3.8876-9.775741-9.1875-9.937501zm-96.874999 128.750001c-.03846.73422-.09804 1.45498-.25 2.1875.04668-.0386.19784-.1426.25-.1874.0011-.021-.001-.0416 0-.0624.0313-.65026.05156-1.29176 0-1.9375z" fill="#530000" fill-rule="evenodd" opacity=".5"/>
</svg>
