<svg height="256" width="256" xmlns="http://www.w3.org/2000/svg" xmlns:xlink="http://www.w3.org/1999/xlink">
  <defs>
    <linearGradient id="lg1">
      <stop offset="0" stop-color="#fff"/>
      <stop offset="1" stop-color="#fff" stop-opacity="0"/>
    </linearGradient>
    <linearGradient id="linearGradient4913" xlink:href="#lg1"/>
    <linearGradient id="linearGradient6391" gradientUnits="userSpaceOnUse" x1="223.979051" x2="223.979051" xlink:href="#linearGradient4913" y1="7.422799" y2="-6.814803"/>
    <filter id="filter5876" height="1.035335" width="1.018171" x="-.009085" y="-.017668">
      <feGaussianBlur stdDeviation=".11909804"/>
    </filter>
    <filter id="filter5718" height="1.144494" width="1.074305" x="-.037152" y="-.072247">
      <feGaussianBlur stdDeviation=".48701799"/>
    </filter>
    <filter id="filter5836" height="1.035335" width="1.018171" x="-.009085" y="-.017668">
      <feGaussianBlur stdDeviation=".12356379"/>
    </filter>
    <radialGradient id="radialGradient6361" cx="64.101105" cy="61.470516" fx="63.292271" fy="74.81649" gradientTransform="matrix(1.1118445 .00000019 -.00000018 1.0614159 152.69879 -70.882696)" gradientUnits="userSpaceOnUse" r="22.686441" xlink:href="#linearGradient6666"/>
    <linearGradient id="linearGradient6666">
      <stop offset="0" stop-color="#9fc1f2"/>
      <stop offset=".5" stop-color="#587eb5"/>
      <stop offset="1" stop-color="#0c2a58"/>
    </linearGradient>
    <radialGradient id="radialGradient6363" cx="64.101105" cy="61.470516" fx="76.59713" fy="74.429352" gradientTransform="matrix(1.2934799 0 0 1.234813 141.05575 -81.541495)" gradientUnits="userSpaceOnUse" r="22.686441" xlink:href="#linearGradient6666"/>
    <linearGradient id="linearGradient6365" gradientUnits="userSpaceOnUse" x1="71.964134" x2="79.398361" xlink:href="#linearGradient4913" y1="26.784721" y2="63.955555"/>
    <clipPath id="clipPath5947">
      <ellipse cx="59.380135" cy="39.357106" rx="40.03013" ry="20.015065"/>
    </clipPath>
    <filter id="filter6019" height="1.127927" width="1.127927" x="-.063964" y="-.063964">
      <feGaussianBlur stdDeviation="1.196414"/>
    </filter>
    <radialGradient id="radialGradient6367" cx="267.42477" cy="81.257088" gradientTransform="matrix(.9679843 -.1075536 .2763828 2.487449 -15.584867 -92.434168)" gradientUnits="userSpaceOnUse" r="23.279442">
      <stop offset="0" stop-color="#d7d7d7"/>
      <stop offset="1" stop-color="#fff"/>
    </radialGradient>
    <clipPath id="clipPath6103">
      <path d="m200.1619 45.294924c-5.42224.212474-9.70739 4.671813-9.70376 10.098216v25.245539c.0171 3.487235 1.83207 6.718917 4.80092 8.54838 2.96888 1.829463 6.67151 1.997824 9.79416.445344l25.24554-12.62277c3.37866-1.725896 5.50499-5.199776 5.50499-8.993723 0-3.793948-2.12633-7.267827-5.50499-8.993724l-25.24554-12.62277c-1.51165-.77352-3.19397-1.153395-4.89132-1.104492z"/>
    </clipPath>
    <filter id="filter6085" height="1.051695" width="1.027616" x="-.013808" y="-.025847">
      <feGaussianBlur stdDeviation=".26087548"/>
    </filter>
    <clipPath id="clipPath6097">
      <path d="m151.42888 45.294924c-5.42224.212474-9.70739 4.671813-9.70376 10.098216v25.245539c.0171 3.487235 1.83207 6.718917 4.80092 8.54838 2.96888 1.829463 6.67151 1.997824 9.79416.445344l25.24554-12.62277c3.37866-1.725896 5.50499-5.199776 5.50499-8.993723 0-3.793948-2.12633-7.267827-5.50499-8.993724l-25.24554-12.62277c-1.51165-.77352-3.19397-1.153395-4.89132-1.104492z"/>
    </clipPath>
    <filter id="filter6093" height="1.034499" width="1.0184" x="-.0092" y="-.01725">
      <feGaussianBlur stdDeviation=".17382035"/>
    </filter>
    <linearGradient id="linearGradient6372" gradientUnits="userSpaceOnUse" x1="223.542776" x2="222.220163" xlink:href="#linearGradient4913" y1="-5.750556" y2="-21.586177"/>
    <filter id="filter2826" height="1.096" width="1.096" x="-.048" y="-.048">
      <feGaussianBlur stdDeviation="2.40001"/>
    </filter>
    <radialGradient id="radialGradient2894" cx="205.22449" cy="-114.21429" gradientUnits="userSpaceOnUse" r="125.1714">
      <stop offset=".1775" stop-color="#f0f0f0"/>
      <stop offset=".5325" stop-color="#a5a5bb"/>
    </radialGradient>
    <linearGradient id="linearGradient2896" gradientUnits="userSpaceOnUse" x1="205.71429" x2="205.71429" xlink:href="#lg1" y1="-225.36909" y2="-118.00019"/>
    <linearGradient id="linearGradient2898" gradientUnits="userSpaceOnUse" x1="205.715289" x2="205.715289" y1="-144.21429" y2="-212.21379">
      <stop offset=".2959" stop-color="#fff"/>
      <stop offset="1" stop-color="#4a4a55"/>
    </linearGradient>
    <linearGradient id="linearGradient2900" gradientUnits="userSpaceOnUse" x1="205.715289" x2="205.715289" y1="-146.21429" y2="-210.21379">
      <stop offset=".1953" stop-color="#e9e9f0"/>
      <stop offset=".2597" stop-color="#dadae2"/>
      <stop offset=".461" stop-color="#b1b1bb"/>
      <stop offset=".6437" stop-color="#93939f"/>
      <stop offset=".7999" stop-color="#81818e"/>
      <stop offset=".9112" stop-color="#7a7a88"/>
      <stop offset="1" stop-color="#696975"/>
    </linearGradient>
    <linearGradient id="linearGradient2902-2" gradientUnits="userSpaceOnUse" x1="205.715289" x2="205.715289" y1="-152.21429" y2="-204.21379">
      <stop offset="0" stop-color="#bbb"/>
      <stop offset="1" stop-color="#555"/>
    </linearGradient>
    <radialGradient id="radialGradient8674" cx="57.453342" cy="82.885696" fx="57.453342" fy="82.885696" gradientTransform="matrix(.855818 0 0 .855818 156.64819 146.19206)" gradientUnits="userSpaceOnUse" r="145.1954" xlink:href="#XMLID_104_"/>
    <radialGradient id="XMLID_104_" cx="1.5898" cy="91.173798" gradientTransform="matrix(.4279 0 0 .4279 32.8183 38.6081)" gradientUnits="userSpaceOnUse" r="108.4177">
      <stop offset=".0393" stop-color="#fff"/>
      <stop offset=".4862" stop-color="#fff" stop-opacity="0"/>
      <stop offset=".52810001" stop-opacity="0"/>
      <stop offset=".60049999" stop-color="#030303" stop-opacity="0"/>
      <stop offset=".66159999" stop-color="#0e0e0e" stop-opacity="0"/>
      <stop offset=".71850002" stop-color="#1f1f1f" stop-opacity="0"/>
      <stop offset="1" stop-color="#fff"/>
    </radialGradient>
    <radialGradient id="radialGradient8669" cx="164.966928" cy="187.369191" fx="172.716618" fy="177.691421" gradientUnits="userSpaceOnUse" r="41.67461">
      <stop offset="0" stop-color="#fff"/>
      <stop offset=".27083334" stop-color="#fff" stop-opacity="0"/>
      <stop offset="1" stop-opacity="0"/>
    </radialGradient>
    <radialGradient id="radialGradient8682" cx="187.931078" cy="279.474841" gradientUnits="userSpaceOnUse" r="137.83684" xlink:href="#lg1-0"/>
    <linearGradient id="lg1-0">
      <stop offset=".0506"/>
      <stop offset=".2727" stop-color="#040404"/>
      <stop offset=".5095" stop-color="#111"/>
      <stop offset=".7531" stop-color="#262626"/>
      <stop offset="1" stop-color="#444"/>
    </linearGradient>
    <linearGradient id="linearGradient8685" gradientUnits="userSpaceOnUse" x1="161.878915" x2="194.408828" y1="227.493251" y2="227.493251">
      <stop offset="0" stop-color="#ff0606" stop-opacity="0"/>
      <stop offset=".77083331" stop-color="#910000" stop-opacity=".36076"/>
      <stop offset="1"/>
    </linearGradient>
    <linearGradient id="linearGradient8688" gradientUnits="userSpaceOnUse" x1="189.836538" x2="189.836538" y1="280.988631" y2="266.015701">
      <stop offset="0" stop-opacity="0"/>
      <stop offset=".13541667" stop-opacity=".498039"/>
      <stop offset="1"/>
    </linearGradient>
    <radialGradient id="radialGradient8691" cx="1.5898" cy="91.173798" gradientTransform="matrix(.855818 0 0 .855818 156.64819 146.19206)" gradientUnits="userSpaceOnUse" r="108.4177" xlink:href="#XMLID_104_"/>
    <radialGradient id="radialGradient8694" cx="225.588778" cy="115.730247" gradientUnits="userSpaceOnUse" r="16.697952">
      <stop offset="0" stop-color="#fffa7e"/>
      <stop offset="1" stop-color="#dea200"/>
    </radialGradient>
    <radialGradient id="radialGradient8697" cx="225.588778" cy="115.310295" gradientUnits="userSpaceOnUse" r="18.548487" xlink:href="#lg2"/>
    <linearGradient id="lg2">
      <stop offset="0" stop-color="#fffa7e"/>
      <stop offset=".8202" stop-color="#ffe600"/>
      <stop offset="1" stop-color="#dea200"/>
    </linearGradient>
    <radialGradient id="radialGradient8700" cx="158.261239" cy="114.665523" gradientUnits="userSpaceOnUse" r="18.487551">
      <stop offset="0" stop-color="#fffa7e"/>
      <stop offset="1" stop-color="#bd8a00"/>
    </radialGradient>
    <radialGradient id="radialGradient8703" cx="158.261239" cy="113.788822" gradientUnits="userSpaceOnUse" r="20.618282" xlink:href="#lg2"/>
    <radialGradient id="radialGradient8706" cx="187.928598" cy="282.038951" gradientUnits="userSpaceOnUse" r="141.50737" xlink:href="#lg1-0"/>
    <radialGradient id="radialGradient8709" cx="187.934848" cy="282.039821" gradientUnits="userSpaceOnUse" r="141.47374" xlink:href="#lg1-0"/>
    <radialGradient id="radialGradient8712" cx="187.930218" cy="282.046491" gradientUnits="userSpaceOnUse" r="141.52577" xlink:href="#lg1-0"/>
    <radialGradient id="radialGradient8715" cx="187.930648" cy="282.038951" gradientUnits="userSpaceOnUse" r="141.50557" xlink:href="#lg1-0"/>
    <radialGradient id="radialGradient8718" cx="187.933218" cy="282.042301" gradientUnits="userSpaceOnUse" r="141.50488" xlink:href="#lg1-0"/>
    <radialGradient id="radialGradient8721" cx="187.933638" cy="282.039821" gradientUnits="userSpaceOnUse" r="141.49582" xlink:href="#lg1-0"/>
    <radialGradient id="radialGradient8724" cx="187.931078" cy="282.035631" gradientUnits="userSpaceOnUse" r="141.49445" xlink:href="#lg1-0"/>
    <radialGradient id="radialGradient8727" cx="187.932788" cy="282.049821" gradientUnits="userSpaceOnUse" r="141.51662" xlink:href="#lg1-0"/>
    <radialGradient id="radialGradient8730" cx="-76.899498" cy="78.245316" gradientTransform="matrix(-.26541 .496416 .516428 .276116 177.74581 202.8915)" gradientUnits="userSpaceOnUse" r="22.7651">
      <stop offset="0"/>
      <stop offset="1" stop-opacity="0"/>
    </radialGradient>
    <radialGradient id="radialGradient8733" cx="-17.5312" cy="53.155411" gradientTransform="matrix(.475492 .25587 -.38115 .708338 168.48001 154.42522)" gradientUnits="userSpaceOnUse" r="22.7672">
      <stop offset="0"/>
      <stop offset="1" stop-color="#626262" stop-opacity="0"/>
    </radialGradient>
    <linearGradient id="linearGradient8736" gradientUnits="userSpaceOnUse" x1="191.861968" x2="191.861968" y1="167.674541" y2="155.293464">
      <stop offset="0" stop-color="#fffa7e"/>
      <stop offset="1" stop-color="#fff740"/>
    </linearGradient>
    <radialGradient id="radialGradient8739" cx="242.928258" cy="80.70487" fx="245.749878" fy="84.498964" gradientUnits="userSpaceOnUse" r="5.222886" xlink:href="#lg3"/>
    <linearGradient id="lg3">
      <stop offset=".0169" stop-color="#aaa"/>
      <stop offset=".309" stop-color="#444"/>
      <stop offset=".8876" stop-color="#111"/>
    </linearGradient>
    <radialGradient id="radialGradient8742" cx="237.241778" cy="93.871799" fx="235.208868" fy="100.987579" gradientUnits="userSpaceOnUse" r="7.400429" xlink:href="#lg3"/>
    <radialGradient id="radialGradient8745" cx="227.869538" cy="122.538791" gradientUnits="userSpaceOnUse" r="19.398483" xlink:href="#lg3"/>
    <radialGradient id="radialGradient8748" cx="137.340081" cy="85.641225" gradientUnits="userSpaceOnUse" r="7.70279" xlink:href="#lg3"/>
    <radialGradient id="radialGradient8751" cx="146.16314" cy="94.125892" fx="148.551126" fy="101.130504" gradientUnits="userSpaceOnUse" r="7.400429" xlink:href="#lg3"/>
    <radialGradient id="radialGradient8754" cx="127.452561" cy="127.483535" gradientUnits="userSpaceOnUse" r="36.405643" xlink:href="#lg3"/>
    <radialGradient id="radialGradient8757" cx="166.674358" cy="97.966201" gradientUnits="userSpaceOnUse" r="11.37596" xlink:href="#lg4"/>
    <linearGradient id="lg4">
      <stop offset="0" stop-color="#fff"/>
      <stop offset=".1635" stop-color="#ba7878"/>
      <stop offset=".2753" stop-color="#8d2222"/>
      <stop offset=".3258" stop-color="#7c0000"/>
      <stop offset="1" stop-color="#600000"/>
    </linearGradient>
    <radialGradient id="radialGradient8760" cx="200.292438" cy="115.310722" gradientUnits="userSpaceOnUse" r="9.559059">
      <stop offset="0" stop-color="#fff"/>
      <stop offset=".0556" stop-color="#ccc"/>
      <stop offset=".1524" stop-color="#777"/>
      <stop offset=".1966" stop-color="#555"/>
      <stop offset="1"/>
    </radialGradient>
    <radialGradient id="radialGradient8763" cx="182.985478" cy="118.35247" gradientUnits="userSpaceOnUse" r="13.561121">
      <stop offset="0" stop-color="#fff"/>
      <stop offset=".0762" stop-color="#ccc"/>
      <stop offset=".2091" stop-color="#777"/>
      <stop offset=".2697" stop-color="#555"/>
      <stop offset="1"/>
    </radialGradient>
    <radialGradient id="radialGradient8766" cx="126.247827" cy="258.918521" gradientUnits="userSpaceOnUse" r="16.5" xlink:href="#lg5"/>
    <linearGradient id="lg5">
      <stop offset=".0169" stop-color="#494949"/>
      <stop offset=".309" stop-color="#222"/>
      <stop offset=".8876" stop-color="#111"/>
    </linearGradient>
    <radialGradient id="radialGradient8769" cx="106.782159" cy="267.332081" gradientUnits="userSpaceOnUse" r="28.588858" xlink:href="#lg3"/>
    <radialGradient id="radialGradient8772" cx="281.252048" cy="278.491181" gradientUnits="userSpaceOnUse" r="31.402357" xlink:href="#lg3"/>
    <radialGradient id="radialGradient8775" cx="264.515158" cy="286.603901" gradientUnits="userSpaceOnUse" r="59.188461" xlink:href="#lg5"/>
    <linearGradient id="linearGradient8778" gradientUnits="userSpaceOnUse" x1="192.028978" x2="192.028978" y1="156.846305" y2="145.293251">
      <stop offset="0" stop-color="#474747"/>
      <stop offset="1"/>
    </linearGradient>
    <radialGradient id="radialGradient8781" cx="181.087438" cy="134.709976" fx="179.566828" fy="136.990989" gradientUnits="userSpaceOnUse" r="33.886543">
      <stop offset=".0112" stop-color="#fff"/>
      <stop offset=".3146" stop-color="#222"/>
      <stop offset="1"/>
    </radialGradient>
    <radialGradient id="radialGradient8784" cx="198.495898" cy="126.829605" gradientUnits="userSpaceOnUse" r="16.11548" xlink:href="#lg6"/>
    <linearGradient id="lg6">
      <stop offset="0" stop-color="#fff"/>
      <stop offset=".0921" stop-color="#ccc"/>
      <stop offset=".2526" stop-color="#777"/>
      <stop offset=".3258" stop-color="#555"/>
      <stop offset="1"/>
    </linearGradient>
    <radialGradient id="radialGradient8787" cx="179.779068" cy="122.165226" fx="184.164198" fy="124.814666" gradientUnits="userSpaceOnUse" r="10.916986" xlink:href="#lg6"/>
    <radialGradient id="radialGradient8790" cx="202.330388" cy="116.015659" gradientUnits="userSpaceOnUse" r="4.6049">
      <stop offset="0" stop-color="#fff740"/>
      <stop offset=".7584" stop-color="#f0c000"/>
      <stop offset="1" stop-color="#bd8a00"/>
    </radialGradient>
    <radialGradient id="radialGradient8793" cx="171.447858" cy="116.451103" gradientUnits="userSpaceOnUse" r="19.145504">
      <stop offset="0" stop-color="#fff740"/>
      <stop offset=".7584" stop-color="#dea200"/>
      <stop offset="1" stop-color="#bd8a00"/>
    </radialGradient>
    <radialGradient id="radialGradient8796" cx="190.967868" cy="158.847557" gradientUnits="userSpaceOnUse" r="72.085121">
      <stop offset=".1236" stop-color="#fa746b"/>
      <stop offset=".2416" stop-color="#fb3a3c"/>
      <stop offset=".3596" stop-color="#f00"/>
      <stop offset=".6685" stop-color="#c70010"/>
      <stop offset=".9438" stop-color="#910018"/>
    </radialGradient>
    <linearGradient id="linearGradient8799" gradientUnits="userSpaceOnUse" x1="192.028978" x2="192.028978" y1="209.766261" y2="298.977231">
      <stop offset="0" stop-color="#fa746b"/>
      <stop offset=".5674" stop-color="#910018"/>
      <stop offset="1" stop-color="#200"/>
    </linearGradient>
    <radialGradient id="radialGradient8802" cx="190.967868" cy="183.140971" gradientUnits="userSpaceOnUse" r="112.09557">
      <stop offset="0" stop-color="#fa746b"/>
      <stop offset=".1629" stop-color="#fb3a3c"/>
      <stop offset=".309" stop-color="#e00"/>
      <stop offset=".4245" stop-color="#e10000"/>
      <stop offset=".5337" stop-color="#d00"/>
      <stop offset=".7697" stop-color="#700"/>
      <stop offset=".9888" stop-color="#400"/>
    </radialGradient>
    <linearGradient id="linearGradient8805" gradientUnits="userSpaceOnUse" x1="192.027978" x2="192.027978" y1="80.693227" y2="145.610855">
      <stop offset="0" stop-color="#fff"/>
      <stop offset=".0176" stop-color="#f0f0f0"/>
      <stop offset=".0817" stop-color="#bebebe"/>
      <stop offset=".1506" stop-color="#919191"/>
      <stop offset=".2229" stop-color="#6a6a6a"/>
      <stop offset=".2992" stop-color="#494949"/>
      <stop offset=".3808" stop-color="#2e2e2e"/>
      <stop offset=".4697" stop-color="#1a1a1a"/>
      <stop offset=".5695" stop-color="#0b0b0b"/>
      <stop offset=".6892" stop-color="#030303"/>
      <stop offset=".882"/>
    </linearGradient>
    <radialGradient id="radialGradient8808" cx="214.791608" cy="98.440925" gradientUnits="userSpaceOnUse" r="11.330431" xlink:href="#lg4"/>
    <radialGradient id="radialGradient8811" cx="232.979368" cy="136.230682" fx="229.817798" fy="132.207313" gradientUnits="userSpaceOnUse" r="5.11685">
      <stop offset=".0169" stop-color="#aaa"/>
      <stop offset=".309" stop-color="#444"/>
      <stop offset=".6854" stop-color="#111"/>
    </radialGradient>
    <radialGradient id="radialGradient8814" cx="150.426393" cy="136.484687" fx="152.659394" fy="131.880386" gradientUnits="userSpaceOnUse" r="5.117193">
      <stop offset=".0169" stop-color="#aaa"/>
      <stop offset=".309" stop-color="#444"/>
      <stop offset=".6236" stop-color="#111"/>
    </radialGradient>
    <radialGradient id="radialGradient8817" cx="197.060948" cy="127.863433" gradientUnits="userSpaceOnUse" r="20.441469" xlink:href="#lg7"/>
    <linearGradient id="lg7">
      <stop offset="0" stop-color="#fff"/>
      <stop offset=".1667" stop-color="#ccc"/>
      <stop offset=".4573" stop-color="#777"/>
      <stop offset=".5899" stop-color="#555"/>
      <stop offset="1"/>
    </linearGradient>
    <radialGradient id="radialGradient8820" cx="179.943298" cy="121.523365" fx="186.030058" fy="125.200897" gradientUnits="userSpaceOnUse" r="15.153285" xlink:href="#lg7"/>
    <radialGradient id="radialGradient8823" cx="108.734536" cy="184.131411" gradientUnits="userSpaceOnUse" r="8.471743" xlink:href="#lg5"/>
    <radialGradient id="radialGradient8826" cx="135.946038" cy="179.592331" fx="138.482003" fy="165.898471" gradientUnits="userSpaceOnUse" r="19.188124" xlink:href="#lg5"/>
    <radialGradient id="radialGradient8829" cx="121.9838" cy="173.602451" fx="127.989583" fy="169.991581" gradientUnits="userSpaceOnUse" r="7.007695" xlink:href="#lg3"/>
    <radialGradient id="radialGradient8832" cx="242.706768" cy="175.029101" fx="243.467498" fy="162.477591" gradientUnits="userSpaceOnUse" r="23.645311" xlink:href="#lg5"/>
    <radialGradient id="radialGradient8835" cx="258.300368" cy="170.844071" gradientUnits="userSpaceOnUse" r="38.193443">
      <stop offset="0" stop-color="#444"/>
      <stop offset=".8876" stop-color="#111"/>
    </radialGradient>
  </defs>
  <g transform="matrix(1.8275715 0 0 1.8275866 -247.95757 451.87446)">
    <path d="m265.71479-171.21229v-12.002l-12.439-.415c-.552-4.127-1.622-8.089-3.153-11.816l10.555-6.572-6-10.394-10.981 5.861c-2.503-3.236-5.408-6.142-8.645-8.645l5.861-10.981-10.393-5.999-6.572 10.555c-3.728-1.532-7.689-2.603-11.817-3.155l-.416-12.439h-12l-.415 12.439c-4.128.552-8.09 1.623-11.817 3.154l-6.572-10.554-10.393 6 5.861 10.981c-3.236 2.503-6.142 5.409-8.646 8.646l-10.981-5.861-6 10.392 10.556 6.573c-1.532 3.727-2.603 7.689-3.154 11.817l-12.439.413-.001 12 12.44.415c.552 4.128 1.623 8.09 3.154 11.817l-10.555 6.573 5.999 10.393 10.983-5.862c2.503 3.236 5.409 6.143 8.646 8.646l-5.862 10.982 10.392 6 6.573-10.557c3.727 1.531 7.689 2.603 11.817 3.154l.414 12.439h12l.415-12.439c4.128-.552 8.09-1.622 11.816-3.154l6.572 10.556 10.393-6-5.861-10.983c3.235-2.503 6.142-5.409 8.645-8.645l10.981 5.861 6.001-10.393-10.556-6.572c1.531-3.727 2.603-7.688 3.154-11.816zm-60 23.998c-16.542 0-30-13.458-30-30s13.458-30 30-30 30 13.458 30 30-13.458 30-30 30z" filter="url(#filter2826)"/>
    <path d="m265.71479-172.21229v-12.002l-12.439-.415c-.552-4.127-1.622-8.089-3.153-11.816l10.555-6.572-6-10.394-10.981 5.861c-2.503-3.236-5.408-6.142-8.645-8.645l5.861-10.981-10.393-5.999-6.572 10.555c-3.728-1.532-7.689-2.603-11.817-3.155l-.416-12.439h-12l-.415 12.439c-4.128.552-8.09 1.623-11.817 3.154l-6.572-10.554-10.393 6 5.861 10.981c-3.236 2.503-6.142 5.409-8.646 8.646l-10.981-5.861-6 10.392 10.556 6.573c-1.532 3.727-2.603 7.689-3.154 11.817l-12.439.413-.001 12 12.44.415c.552 4.128 1.623 8.09 3.154 11.817l-10.555 6.573 5.999 10.393 10.983-5.862c2.503 3.236 5.409 6.143 8.646 8.646l-5.862 10.982 10.392 6 6.573-10.557c3.727 1.531 7.689 2.603 11.817 3.154l.414 12.439h12l.415-12.439c4.128-.552 8.09-1.622 11.816-3.154l6.572 10.556 10.393-6-5.861-10.983c3.235-2.503 6.142-5.409 8.645-8.645l10.981 5.861 6.001-10.393-10.556-6.572c1.531-3.727 2.603-7.688 3.154-11.816zm-60 23.998c-16.542 0-30-13.458-30-30s13.458-30 30-30 30 13.458 30 30-13.458 30-30 30z" fill="url(#radialGradient2894)"/>
    <path d="m200.68179-237.21429c-.055 1.645-.382 11.473-.382 11.473-.016.488-.383.893-.867.958-3.989.533-7.881 1.572-11.569 3.088-.452.186-.972.018-1.229-.396 0 0-5.191-8.338-6.061-9.734-1.292.746-7.425 4.287-8.717 5.033.775 1.452 5.406 10.128 5.406 10.128.08.149.118.311.118.47 0 .301-.136.597-.388.792-3.167 2.45-6.016 5.299-8.466 8.466-.298.386-.832.5-1.262.271 0 0-8.677-4.631-10.128-5.406-.746 1.292-4.287 7.425-5.033 8.717 1.396.87 9.734 6.061 9.734 6.061.301.188.472.513.472.85 0 .127-.024.256-.075.38-1.517 3.689-2.556 7.582-3.088 11.569-.064.484-.47.851-.958.867 0 0-9.828.328-11.473.382v3.171c8.88 1.789 18.332 3.162 28.128 4.095-.06-1.024-.129-2.235-.129-2.235 0-17.093 13.907-31 31-31 17.094 0 31 13.907 31 31 0 0-.07 1.223-.129 2.251 9.789-.925 19.24-2.292 28.129-4.074 0-.887 0-2.208 0-3.209-1.645-.055-11.473-.382-11.473-.382-.488-.016-.894-.383-.958-.867-.533-3.988-1.572-7.88-3.087-11.568-.051-.124-.075-.252-.075-.379 0-.337.171-.662.472-.85 0 0 8.337-5.191 9.733-6.061-.746-1.292-4.287-7.426-5.033-8.718-1.451.774-10.128 5.406-10.128 5.406-.43.229-.963.115-1.262-.271-2.45-3.168-5.299-6.017-8.465-8.466-.253-.195-.389-.49-.389-.792 0-.16.038-.321.118-.47 0 0 4.631-8.676 5.405-10.128-1.292-.746-7.425-4.288-8.717-5.034-.87 1.396-6.062 9.734-6.062 9.734-.258.414-.777.582-1.229.396-3.689-1.516-7.582-2.555-11.57-3.088-.483-.065-.851-.47-.866-.958 0 0-.328-9.828-.383-11.473-1.49.001-8.572.001-10.064.001z" fill="url(#linearGradient2896)"/>
    <path d="m205.71479-212.21429c-18.777 0-34 15.223-34 34 0 18.778 15.223 34 34 34 18.778 0 34-15.222 34-34 0-18.777-15.222-34-34-34zm0 59c-13.785 0-25-11.215-25-25s11.215-25 25-25 25 11.215 25 25-11.215 25-25 25z" fill="url(#linearGradient2898)"/>
    <path d="m205.71479-210.21429c-17.645 0-32 14.355-32 32s14.355 32 32 32 32-14.355 32-32-14.355-32-32-32zm0 57c-13.785 0-25-11.215-25-25s11.215-25 25-25 25 11.215 25 25-11.215 25-25 25z" fill="url(#linearGradient2900)"/>
    <path d="m205.71479-204.21429c-14.336 0-26 11.664-26 26 0 14.337 11.664 26 26 26 14.337 0 26-11.663 26-26 0-14.336-11.663-26-26-26zm0 50c-13.233 0-24-10.767-24-24s10.767-24 24-24 24 10.767 24 24-10.767 24-24 24z" fill="url(#linearGradient2902-2)"/>
    <path d="m161.00579-159.79329-10.253 6.384.425.735 10.131-6.308c-.11-.266-.199-.543-.303-.811z" fill="#fff"/>
    <path d="m180.91079-232.17529 6.572 10.555c3.727-1.532 7.689-2.603 11.817-3.154l.415-12.44h12l.415 12.439c4.128.552 8.09 1.623 11.817 3.155l6.572-10.555 9.984 5.766.408-.765-10.391-6.001-6.572 10.555c-3.728-1.532-7.689-2.603-11.817-3.155l-.416-12.439h-12l-.415 12.439c-4.128.552-8.09 1.623-11.817 3.154l-6.572-10.554-10.393 6 .408.765z" fill="#fff"/>
    <path d="m235.42079-215.88729-.37.694c3.236 2.503 6.142 5.409 8.645 8.645l10.981-5.861 5.575 9.658.425-.265-6-10.394-10.981 5.861c-2.406-3.108-5.19-5.903-8.275-8.338z" fill="#fff"/>
    <path d="m176.00979-139.53929-5.491 10.288.408.235 5.454-10.218c-.127-.097-.245-.207-.371-.305z" fill="#fff"/>
    <path d="m249.69579-176.83029c-.394 23.923-19.966 43.267-43.981 43.267-24.016 0-43.587-19.344-43.981-43.267-.004.244-.019.487-.019.732 0 24.262 19.738 44 44 44s44-19.738 44-44c0-.245-.015-.488-.019-.732z" fill="#fff" opacity=".5"/>
    <path d="m253.27579-184.62829c-.513-3.833-1.489-7.514-2.85-11.005l-.304.189c1.531 3.727 2.602 7.688 3.153 11.816l12.44.414v-1z" fill="#fff"/>
    <path d="m250.12079-158.98229 10.131 6.308.425-.735-10.252-6.384c-.106.268-.194.545-.304.811z" fill="#fff"/>
    <path d="m156.75279-212.41029 10.981 5.861c2.503-3.236 5.409-6.142 8.646-8.646l-.371-.694c-3.084 2.435-5.87 5.23-8.275 8.339l-10.981-5.861-6 10.392.425.265z" fill="#fff"/>
    <path d="m235.04979-139.23429 5.453 10.217.408-.235-5.491-10.287c-.125.098-.243.208-.37.305z" fill="#fff"/>
    <path d="m145.71479-183.21429 12.439-.415c.551-4.128 1.623-8.09 3.154-11.817l-.303-.189c-1.361 3.491-2.339 7.173-2.851 11.006l-12.439.415-.001 12z" fill="#fff"/>
  </g>
  <g transform="matrix(1.863806 0 0 1.863806 -289.43524 143.37356)">
    <path d="m208.29585-8.7556656c-.005.158737-.0472.311795-.0472.471676 0 8.67652397 7.07743 15.70679 15.75395 15.70679 8.67653 0 15.7068-7.03026303 15.70679-15.70679 0-.159881-.0424-.312939-.0472-.471676-.22836 8.47771997-7.12708 15.282283-15.65962 15.282283s-15.47841-6.80456303-15.70679-15.282283z" fill="url(#linearGradient6391)" filter="url(#filter5876)" opacity=".873606"/>
    <path d="m239.66226-8.9563466c.005-.158737.0472-.311795.0472-.471676 0-8.6765244-7.07744-15.7067904-15.75396-15.7067904s-15.70679 7.030263-15.70679 15.7067904c0 .159881.0424.312939.0472.471676.22837-8.4777204 7.12709-15.2822834 15.65962-15.2822834 8.53254 0 15.47842 6.804563 15.70679 15.2822834z" fill="#565656" filter="url(#filter5718)" opacity=".873606"/>
    <path d="m240.25032-8.6497116c.005-.164689.0489-.323486.0489-.489362 0-9.0018634-7.34281-16.2957394-16.34467-16.2957394s-16.29574 7.293873-16.29574 16.2957394c0 .165876.044.324673.0489.489362.23693-8.7956044 7.39433-16.2703134 16.2468-16.2703134 8.85248 0 16.05881 7.474709 16.29574 16.2703134z" fill="#fff" filter="url(#filter5836)" opacity=".873606"/>
    <path d="m208.29585-8.7556656c-.005.158737-.0472.311795-.0472.471676 0 8.67652397 7.07743 16.70679 15.75395 16.70679 8.67653 0 15.7068-8.03026303 15.70679-16.70679 0-.159881-.0424-.312939-.0472-.471676-.22836 8.47771997-7.12708 15.282283-15.65962 15.282283s-15.47841-6.80456303-15.70679-15.282283z" fill="url(#linearGradient6391)" filter="url(#filter5876)" opacity=".345725"/>
    <circle cx="223.96924" cy="-9.069039" fill="url(#radialGradient6361)" r="31.747278"/>
    <circle cx="223.96924" cy="-9.069039" fill="url(#radialGradient6363)" r="31.747278"/>
    <circle clip-path="url(#clipPath5947)" cx="64.101105" cy="58.236969" fill="url(#linearGradient6365)" filter="url(#filter6019)" r="22.445498" transform="matrix(1.4144163 0 0 1.4144163 133.3036 -91.440356)"/>
    <g transform="matrix(.6879621 0 0 .6879621 45.031317 -56.774301)">
      <path d="m249.70376 45.294924c-5.42224.212474-9.70739 4.671813-9.70376 10.098216v25.245539c.0171 3.487235 1.83207 6.718917 4.80092 8.54838 2.96888 1.829463 6.67151 1.997824 9.79416.445344l25.24554-12.62277c3.37866-1.725896 5.50499-5.199776 5.50499-8.993723 0-3.793948-2.12633-7.267827-5.50499-8.993724l-25.24554-12.62277c-1.51165-.77352-3.19397-1.153395-4.89132-1.104492z" fill="url(#radialGradient6367)" fill-rule="evenodd"/>
      <path clip-path="url(#clipPath6103)" d="m200.15625 43.880333c-5.42224.21247-9.69113 4.66734-9.6875 10.09375v3c-.004-5.42641 4.26526-9.88128 9.6875-10.09375 1.69735-.0489 3.3946.32023 4.90625 1.09375l25.25 12.625c2.92621 1.49478 4.89534 4.31054 5.375 7.5.0742-.49316.125-.99194.125-1.5-.00001-3.79394-2.12134-7.2741-5.5-9l-25.25-12.625c-1.51165-.77352-3.2089-1.14265-4.90625-1.09375z" fill="#121212" fill-opacity=".778107" fill-rule="evenodd" filter="url(#filter6085)" transform="translate(49.539651)"/>
      <path clip-path="url(#clipPath6097)" d="m186.9375 67.53447c-.47972 3.18935-2.44887 6.00526-5.375 7.5l-25.25 12.625c-3.12265 1.55248-6.81238 1.39197-9.78125-.4375-2.96885-1.82946-4.7954-5.07526-4.8125-8.5625v3c.0171 3.48724 1.84365 6.73304 4.8125 8.5625 2.96887 1.82947 6.6586 1.98998 9.78125.4375l25.25-12.625c3.37867-1.7259 5.5-5.20606 5.5-9 0-.50815-.0508-1.00676-.125-1.5z" fill="#fff" fill-rule="evenodd" filter="url(#filter6093)" transform="translate(98.3)"/>
    </g>
    <path d="m192.64957-10.387957c15.12716 4.7123804 46.8015 4.1036324 62.44824-4.48756l-.0285-.914927c-16.22466 8.5013814-47.18599 10.0885644-62.41974 5.402487z" fill="url(#linearGradient6372)" fill-rule="evenodd"/>
  </g>
  <g transform="matrix(.75 0 0 .75 32.641329 22.754302)">
    <path d="m120.2868 279.0588-.25201.356s.026-.03.062-.074c.004-.008.004-.008.01-.014.044-.056.104-.14.18-.268l-.014.022c.004-.01.008-.012.014-.022z" fill="none" opacity=".05" stroke="#000" stroke-linejoin="round" stroke-width="16.0004"/>
    <path d="m120.2868 279.0588-.25201.356s.026-.03.062-.074c.004-.008.004-.008.01-.014.044-.056.104-.14.18-.268l-.014.022c.004-.01.008-.012.014-.022z" fill="none" opacity=".1" stroke="#000" stroke-linejoin="round" stroke-width="12.0003"/>
    <path d="m284.26042 183.8767s.78 3.36007-1.48804 2.53405c0 0-13.8583-12.11826-23.92053-10.37022l.80002 2.56805s6.16213 4.08009 8.82419 3.60408c0 0 1.66604 1.04402 1.66604 1.99605 0 .95202 5.65612 2.90206 7.41616 1.80803 0 0 3.37608.57202 3.37608 3.51808 0 0-2.37806 1.42603-3.66008.66602 0 0 2.54406 4.06609 7.55816-.95202 2.49606-2.49806-.572-5.37212-.572-5.37212z" fill="none" opacity=".1" stroke="#000" stroke-linejoin="round" stroke-width="8.00018"/>
    <path d="m120.2868 279.0588-.25201.356s.026-.03.062-.074c.004-.008.004-.008.01-.014.044-.056.104-.14.18-.268l-.014.022c.004-.01.008-.012.014-.022z" fill="none" opacity=".1" stroke="#000" stroke-linejoin="round" stroke-width="8.00018"/>
    <path d="m280.36232 295.86328s-7.15816-12.43426-19.30242-17.75638l-.20001.044c.44601-.102.73602-.17.73602-.17 5.32813-22.06049-8.26418-40.07288-8.26418-40.07288l-.024.074c1.87604-7.34017 3.04207-15.02434 3.37207-22.86051.024-.54601.022-1.07802.036-1.62204.004.07.01.136.012.20601.012-.40801.004-.80202.012-1.20803.016-.82002.03-1.63803.028-2.44805-.002-.094.004-.192.004-.28801 0 .078-.006.158-.006.23601 0-.028-.002-.054-.002-.082-.002-.57402-.02-1.13803-.032-1.70804-.02-.85602-.04-1.70804-.08-2.55206-.026-.54601-.062-1.08802-.098-1.63003-.052-.84802-.11-1.69404-.184-2.52806-.046-.52201-.106-1.03602-.16-1.55003-.088-.83802-.18-1.67404-.29-2.49606-.066-.50401-.144-.99802-.22001-1.49403-.122-.82002-.246-1.63804-.39001-2.44405-.086-.48201-.184-.95803-.276-1.43404-.158-.80401-.31601-1.61003-.49401-2.40005-.104-.46001-.21801-.91202-.33001-1.37003-.19-.78602-.38001-1.57003-.59201-2.34205-.124-.44801-.25801-.88402-.38601-1.32803-.22201-.76202-.44601-1.52403-.68802-2.27005-.138-.43201-.292-.85402-.43801-1.28003-.254-.74001-.50801-1.47803-.78202-2.20405-.158-.41601-.326-.82001-.49001-1.23002-.284-.71402-.56801-1.43003-.87202-2.12805-.176-.40201-.362-.79402-.54201-1.19203-.312-.68801-.62401-1.37403-.95802-2.04404-.192-.39001-.39601-.77002-.59601-1.15403-.34001-.65801-.68002-1.31803-1.03802-1.95804-.21001-.37601-.43201-.74202-.64802-1.11202-.34601-.59202-.68601-1.18803-1.04602-1.76604l.016.012c5.23411 2.19205 7.82417 7.82617 9.47421 9.47221 1.64603 1.64803 5.32211 1.77603 5.32211 1.77603l-2.41006-7.73417-4.18209-4.18409c-6.84615-11.66625-19.51243-12.92228-19.51243-12.92228l.006.022c-.138-.126-.28401-.24601-.42401-.37201-.44401-.39401-.88202-.79802-1.33603-1.18003 2.73606-1.13202 4.4521-2.48005 4.4521-4.08409 0-.54801-.052-1.12202-.134-1.70603-.006-.038-.004-.072-.01-.11-.002.004-.006.01-.008.014-.22-1.48604-.68801-3.08007-1.38003-4.75011.48401-1.37803 1.26803-3.25207 2.05405-3.56608.46401-.186.072-1.12802-.72002-2.24205l.30801.27601v-.28601s.19-.76201 1.90204-.76201c1.70804 0 1.99604-19.11242-2.28405-29.85866 0 0-.67602-1.31203-2.31405-1.40803l.79401-.114c.85602-3.51808 3.42008-8.55819 6.18014-11.982266 1.62604-2.018044 1.71004-3.496076 1.11402-4.474098.46601-1.33403 2.87807-8.078179 2.87807-8.078179 1.04602-.38001 2.66405 1.236027 2.66405 1.236027-4.37609-8.462188-9.3182-1.902043-9.3182-1.902043 1.23402-.190004 2.47005-.950021 3.32607.190004.85602 1.142025-1.52203 7.228159-1.52203 7.228159-1.99605-.47601-4.18409 2.472054-4.18409 2.472054-2.63806 3.822084-3.70809 14.672322-3.79409 15.598342-1.51403.34001-2.93206 1.21403-2.86006 3.41808.094 2.94806-.85802 5.42212-.85802 5.42212l6.84615 13.12229s0 4.6601.47401 5.99013c.34201.95402-.67801 1.46203-1.28803 1.67803-1.20802-1.17402-2.53605-2.12204-3.43407-2.12204l-1.26803 1.01402-.048.096c-.11-.146-.226-.29201-.33801-.44001-.39201-.51401-.79201-1.02802-1.20603-1.54003-.184-.22601-.37401-.45001-.56001-.67602-.36801-.44001-.73802-.88002-1.12202-1.31803-.21801-.252-.44201-.50001-.66602-.75001-.37201-.41201-.74602-.82202-1.12802-1.23003-.24001-.25601-.48201-.51201-.72802-.76802-.38801-.40401-.78402-.80202-1.18403-1.19802-.248-.24801-.49401-.49602-.74801-.74002-.43401-.42001-.87602-.83202-1.32203-1.24403-.22601-.21-.45001-.42401-.68002-.63201-.67601-.61202-1.36403-1.21403-2.06004-1.80204-.74202.42801-1.53404.83602-2.36405 1.22603-.35601.166-.74402.316-1.11603.47601-.48601.208-.96202.422-1.47403.61801-.042.016-.092.03-.134.046l.55801-.54601s-2.12405-2.76006 1.17203-8.59419c2.50405-4.4261-4.92011-1.98604-8.64619 1.11002-.002 0-.002-.002-.004-.002-.004.002-.006.006-.01.008-.80002-.68001-1.61604-1.33203-2.45206-1.92404-.008-.006-.016-.012-.024-.018h-.002c-.028-.02-.056-.038-.086-.058l.088.056c0-1.65203 3.49408-.98002 2.06605-2.40805-.26201-.26001-.51601-.51601-.76602-.76602 1.14803-2.68806 6.12614-3.54607 12.30427-6.01813 6.65415-2.662058 8.9402-8.938196 9.69822-11.220246.76201-2.28205-3.80209-5.514122-4.1841-1.140026-.378 4.374096-2.66406 8.368184-6.27613 10.460232-5.52613 2.11405-11.45026 5.46412-13.06229 6.40014-.31201-.31201-.50401-.50401-.50401-.50401h-.88802c.88802.88802-.88802 3.57808-.88802 3.57808l.292.188c-3.32807-1.99405-6.65414-3.19607-9.1882-3.19607-2.66806 0-6.21813 1.31803-9.72221 3.50807l.01-.006s-1.23403-3.12006-1.23403-5.21211l-3.08407.92402c-1.93204-1.11002-7.55616-4.24409-12.80428-6.250138-3.61408-2.092046-5.89413-6.086134-6.27614-10.46023-.38001-4.374096-4.94411-1.142024-4.18409 1.140026.76002 2.28405 3.04207 8.558188 9.70022 11.220242 5.93613 2.37606 11.33824 3.39208 12.84628 5.87613v1.92005s2.55005.72401 2.55005 2.55005l.23001-.158c-.22401.166-.44401.33401-.66602.50601l-.006-.008-.062.06c-.54201.42201-1.07002.86202-1.59003 1.32003-.002-.002-.006-.006-.008-.008-.002.002-.004.004-.008.008-3.54808-3.26207-11.66226-6.08213-9.0622-1.48003 3.15007 5.57412 1.35403 8.33418 1.18803 8.57019-.052-.022-.106-.044-.16-.066-.39601-.168-.81002-.33001-1.19003-.50601-.82802-.38801-1.61804-.79402-2.35805-1.22203-1.16003.97802-2.29005 1.99605-3.38808 3.03607-.076.074-.156.144-.232.216-1.04603.99803-2.05205 2.01805-3.02607 3.05407-.114.122-.23.24201-.34401.36401-.93802 1.01002-1.83204 2.03204-2.68406 3.06207-.124.148-.248.296-.37.44401-.76002.93202-1.48004 1.86804-2.16005 2.80006l-.23801-.47801-1.26802-1.01403c-.89802 0-2.22805.94603-3.43408 2.12205-.61001-.216-1.63004-.72401-1.29003-1.67804.47601-1.33202.47601-5.99213.47601-5.99213l6.84615-13.12429s-.95202-2.47205-.85402-5.42012c.07-2.20404-1.34803-3.07806-2.86206-3.41807-.086-.92402-1.15603-11.77626-3.79408-15.600344 0 0-2.18805-2.948064-4.1861-2.472054 0 0-2.37605-6.086135-1.52203-7.22816.85802-1.140025 2.09405-.380008 3.33007-.190004 0 0-4.9461-6.560144-9.3202 1.902042 0 0 1.61604-1.616035 2.66206-1.236027 0 0 2.41405 6.740149 2.88006 8.076179-.59801.98002-.51401 2.456054 1.11203 4.476098 2.75806 3.424074 5.32611 8.464186 6.18213 11.98226l.79402.114c-1.64004.096-2.31605 1.40803-2.31605 1.40803-4.2781 10.74624-3.99409 29.85866-2.28205 29.85866s1.90204.76202 1.90204.76202v.284l.30801-.274c-.79202 1.11402-1.18603 2.05204-.72002 2.24005.95002.38001 1.89804 3.03206 2.31405 4.34209-.47601 1.29403-.81402 2.54206-.98802 3.71809 0-.004-.004-.006-.006-.01-.004.028-.002.054-.006.084-.084.59401-.14 1.17602-.14 1.73403 0 1.60604 1.71604 2.95207 4.4541 4.08409-.002.002-.004.004-.006.006s-10.94624 1.51404-13.99031 4.05009c-3.04207 2.53606-8.36618 10.65024-8.36618 10.65024s-4.5641 4.31209-4.81811 6.34014l1.45603-1.06803-1.56403 1.56204s-9.59221 1.05802-10.73224 3.71808c0 0 .25401.29801.68002.69202l-.026-.014s-10.54423 1.70203-12.63628 6.64614c0 0-.47601-1.61603-1.14202-2.28205 0 0-.904024 3.56608-1.61604 4.2781-.712016.71201.47401 5.80212 4.08809 5.32611 0 0-1.61604-5.32611 3.70808-7.89417 0 0 2.85406.28801 2.85406 2.85406 0 0 2.56806-2.66206 2.56806-4.37609l6.03213-2.45206-.038-.02c.48002.112.98003.19 1.51804.19l6.87815-2.59806c1.26803.50402 7.35216-2.79006 8.11618-3.29607.028-.018.084-.078.156-.154-.15.31601-.29001.64002-.43601.95802-.186.41001-.37801.81202-.55801 1.22803-.29801.69002-.58002 1.39403-.86002 2.09805-.166.42001-.34001.83401-.50001 1.25802-.27201.71802-.52402 1.45204-.77602 2.18605-.148.43001-.30201.85802-.44201 1.29203-.24201.74602-.46401 1.50403-.68602 2.26605-.128.44401-.264.88202-.386 1.33003-.21001.77202-.40201 1.55603-.59402 2.34205-.11.45801-.226.90802-.33 1.37003-.178.79602-.33801 1.60804-.49802 2.42005-.092.46601-.188.93003-.272 1.40204-.146.82001-.27201 1.65203-.39801 2.48605-.072.48201-.148.96202-.21201 1.45003-.112.84002-.204 1.69204-.294 2.54406-.052.50001-.108.99602-.154 1.49803-.076.85802-.134 1.72604-.188 2.59806-.034.51801-.07 1.03202-.094 1.55203-.042.87402-.064 1.75804-.082 2.64406-.012.53601-.028 1.06802-.03 1.61004 0 .044-.002.088-.002.132 0-.084-.004-.172-.006-.25601 0 .104.006.21001.006.31401-.004.82402.012 1.65803.028 2.49205.006.38001 0 .75202.01 1.13403.002-.064.008-.126.01-.192.016.53801.014 1.06602.036 1.60803.312 7.42617 1.38603 14.70833 3.09207 21.69848l-.11-.394s-11.40626 14.67832-9.50221 26.46657c1.53403 9.5162.056 13.12428-.57202 14.16632l1.79604-2.51806-.022.034-.444 3.53208c-12.14227 5.32212-19.30043 17.75638-19.30043 17.75638-1.14202 0-1.90204-4.05808-1.90204-4.05808-1.648038 9.76622 7.60817 6.72014 7.60817 6.72014-3.80409-1.39202-.50602-6.34214-.50602-7.10016 0-.764 4.94611.25202 4.94611.25202 1.90205-6.71816 7.35417-3.9301 7.35417-3.9301 1.39403-6.46614 4.43609-4.4381 4.43609-4.4381l.75202-5.83812 1.18203 3.93808.88602-2.53804s1.64803 2.53804 2.79006 2.53804c0 0-9.24821-30.85466 2.60205-37.42881l-.124-.44401c6.28614 20.13844 17.9764 37.18482 32.42272 46.97102.042.032.078.074.12.104l.188.104c2.84006 1.89804 5.78212 3.52406 8.81219 4.8301l.102.056c.052.022.106.042.158.062.64402.274 1.29403.51802 1.94405.76202.292.11.58201.232.87601.336.68802.24402 1.38404.45802 2.08005.67002.27001.082.53801.178.81002.254.71001.204 1.42803.37402 2.14605.54002.262.062.52201.138.78601.196.98002.21 1.96405.38802 2.95607.53402.238.036.47401.018.71201-.022-.01.002-.02.006-.03.008.024.006.054.01.08.014 1.92405.278 3.86809-2.18206 5.83213-2.54006 2.01205.252 4.00809 2.82806 5.98213 2.54006 22.90651-3.32808 42.77495-24.55654 52.35716-52.23515l-.11.36201c9.0002 12.33627 1.27203 36.7368 1.27203 36.7368l2.28205-2.28606 1.39603 2.91608-.38001-5.06812c.176 0 1.23203-.22 2.44005-.486l.85802 4.41608s3.04207-2.03004 4.4361 4.4381c0 0 5.45412-2.79006 7.35616 3.9301 0 0 4.94612-1.01602 4.94612-.25202 0 .75802 3.29406 5.70814-.51002 7.10016 0 0 9.2562 3.04408 7.61016-6.72014-.002.008-.762 4.06608-1.90404 4.06608zm-156.86545-23.2985.024-.034.122.402zm63.38739 26.25058c.102-.034.20401-.058.30601-.1-.104.042-.206.066-.30601.1zm.76602-.31802c.09-.046.18-.09.27001-.14-.09.05-.18.092-.27001.14zm.80802-.462c.05-.034.102-.064.152-.098-.05.034-.1.066-.152.098zm1.05202-.67402c.066-.042.13-.082.196-.124-.068.042-.132.084-.196.124zm.72402-.42402c.09-.048.18-.1.272-.144-.092.044-.182.094-.272.144zm.78601-.356c.084-.03.166-.068.25001-.094-.082.026-.166.064-.25001.094z" fill="none" opacity=".1" stroke="#000" stroke-linejoin="round" stroke-width="8.00018"/>
    <path d="m280.36232 295.86328s-7.15816-12.43426-19.30242-17.75638l-.20001.044c.44601-.102.73602-.17.73602-.17 5.32813-22.06049-8.26418-40.07288-8.26418-40.07288l-.024.074c1.87604-7.34017 3.04207-15.02434 3.37207-22.86051.024-.54601.022-1.07802.036-1.62204.004.07.01.136.012.20601.012-.40801.004-.80202.012-1.20803.016-.82002.03-1.63803.028-2.44805-.002-.094.004-.192.004-.28801 0 .078-.006.158-.006.23601 0-.028-.002-.054-.002-.082-.002-.57402-.02-1.13803-.032-1.70804-.02-.85602-.04-1.70804-.08-2.55206-.026-.54601-.062-1.08802-.098-1.63003-.052-.84802-.11-1.69404-.184-2.52806-.046-.52201-.106-1.03602-.16-1.55003-.088-.83802-.18-1.67404-.29-2.49606-.066-.50401-.144-.99802-.22001-1.49403-.122-.82002-.246-1.63804-.39001-2.44405-.086-.48201-.184-.95803-.276-1.43404-.158-.80401-.31601-1.61003-.49401-2.40005-.104-.46001-.21801-.91202-.33001-1.37003-.19-.78602-.38001-1.57003-.59201-2.34205-.124-.44801-.25801-.88402-.38601-1.32803-.22201-.76202-.44601-1.52403-.68802-2.27005-.138-.43201-.292-.85402-.43801-1.28003-.254-.74001-.50801-1.47803-.78202-2.20405-.158-.41601-.326-.82001-.49001-1.23002-.284-.71402-.56801-1.43003-.87202-2.12805-.176-.40201-.362-.79402-.54201-1.19203-.312-.68801-.62401-1.37403-.95802-2.04404-.192-.39001-.39601-.77002-.59601-1.15403-.34001-.65801-.68002-1.31803-1.03802-1.95804-.21001-.37601-.43201-.74202-.64802-1.11202-.34601-.59202-.68601-1.18803-1.04602-1.76604l.016.012c5.23411 2.19205 7.82417 7.82617 9.47421 9.47221 1.64603 1.64803 5.32211 1.77603 5.32211 1.77603l-2.41006-7.73417-4.18209-4.18409c-6.84615-11.66625-19.51243-12.92228-19.51243-12.92228l.006.022c-.138-.126-.28401-.24601-.42401-.37201-.44401-.39401-.88202-.79802-1.33603-1.18003 2.73606-1.13202 4.4521-2.48005 4.4521-4.08409 0-.54801-.052-1.12202-.134-1.70603-.006-.038-.004-.072-.01-.11-.002.004-.006.01-.008.014-.22-1.48604-.68801-3.08007-1.38003-4.75011.48401-1.37803 1.26803-3.25207 2.05405-3.56608.46401-.186.072-1.12802-.72002-2.24205l.30801.27601v-.28601s.19-.76201 1.90204-.76201c1.70804 0 1.99604-19.11242-2.28405-29.85866 0 0-.67602-1.31203-2.31405-1.40803l.79401-.114c.85602-3.51808 3.42008-8.55819 6.18014-11.982266 1.62604-2.018044 1.71004-3.496076 1.11402-4.474098.46601-1.33403 2.87807-8.078179 2.87807-8.078179 1.04602-.38001 2.66405 1.236027 2.66405 1.236027-4.37609-8.462188-9.3182-1.902043-9.3182-1.902043 1.23402-.190004 2.47005-.950021 3.32607.190004.85602 1.142025-1.52203 7.228159-1.52203 7.228159-1.99605-.47601-4.18409 2.472054-4.18409 2.472054-2.63806 3.822084-3.70809 14.672322-3.79409 15.598342-1.51403.34001-2.93206 1.21403-2.86006 3.41808.094 2.94806-.85802 5.42212-.85802 5.42212l6.84615 13.12229s0 4.6601.47401 5.99013c.34201.95402-.67801 1.46203-1.28803 1.67803-1.20802-1.17402-2.53605-2.12204-3.43407-2.12204l-1.26803 1.01402-.048.096c-.11-.146-.226-.29201-.33801-.44001-.39201-.51401-.79201-1.02802-1.20603-1.54003-.184-.22601-.37401-.45001-.56001-.67602-.36801-.44001-.73802-.88002-1.12202-1.31803-.21801-.252-.44201-.50001-.66602-.75001-.37201-.41201-.74602-.82202-1.12802-1.23003-.24001-.25601-.48201-.51201-.72802-.76802-.38801-.40401-.78402-.80202-1.18403-1.19802-.248-.24801-.49401-.49602-.74801-.74002-.43401-.42001-.87602-.83202-1.32203-1.24403-.22601-.21-.45001-.42401-.68002-.63201-.67601-.61202-1.36403-1.21403-2.06004-1.80204-.74202.42801-1.53404.83602-2.36405 1.22603-.35601.166-.74402.316-1.11603.47601-.48601.208-.96202.422-1.47403.61801-.042.016-.092.03-.134.046l.55801-.54601s-2.12405-2.76006 1.17203-8.59419c2.50405-4.4261-4.92011-1.98604-8.64619 1.11002-.002 0-.002-.002-.004-.002-.004.002-.006.006-.01.008-.80002-.68001-1.61604-1.33203-2.45206-1.92404-.008-.006-.016-.012-.024-.018h-.002c-.028-.02-.056-.038-.086-.058l.088.056c0-1.65203 3.49408-.98002 2.06605-2.40805-.26201-.26001-.51601-.51601-.76602-.76602 1.14803-2.68806 6.12614-3.54607 12.30427-6.01813 6.65415-2.662058 8.9402-8.938196 9.69822-11.220246.76201-2.28205-3.80209-5.514122-4.1841-1.140026-.378 4.374096-2.66406 8.368184-6.27613 10.460232-5.52613 2.11405-11.45026 5.46412-13.06229 6.40014-.31201-.31201-.50401-.50401-.50401-.50401h-.88802c.88802.88802-.88802 3.57808-.88802 3.57808l.292.188c-3.32807-1.99405-6.65414-3.19607-9.1882-3.19607-2.66806 0-6.21813 1.31803-9.72221 3.50807l.01-.006s-1.23403-3.12006-1.23403-5.21211l-3.08407.92402c-1.93204-1.11002-7.55616-4.24409-12.80428-6.250138-3.61408-2.092046-5.89413-6.086134-6.27614-10.46023-.38001-4.374096-4.94411-1.142024-4.18409 1.140026.76002 2.28405 3.04207 8.558188 9.70022 11.220242 5.93613 2.37606 11.33824 3.39208 12.84628 5.87613v1.92005s2.55005.72401 2.55005 2.55005l.23001-.158c-.22401.166-.44401.33401-.66602.50601l-.006-.008-.062.06c-.54201.42201-1.07002.86202-1.59003 1.32003-.002-.002-.006-.006-.008-.008-.002.002-.004.004-.008.008-3.54808-3.26207-11.66226-6.08213-9.0622-1.48003 3.15007 5.57412 1.35403 8.33418 1.18803 8.57019-.052-.022-.106-.044-.16-.066-.39601-.168-.81002-.33001-1.19003-.50601-.82802-.38801-1.61804-.79402-2.35805-1.22203-1.16003.97802-2.29005 1.99605-3.38808 3.03607-.076.074-.156.144-.232.216-1.04603.99803-2.05205 2.01805-3.02607 3.05407-.114.122-.23.24201-.34401.36401-.93802 1.01002-1.83204 2.03204-2.68406 3.06207-.124.148-.248.296-.37.44401-.76002.93202-1.48004 1.86804-2.16005 2.80006l-.23801-.47801-1.26802-1.01403c-.89802 0-2.22805.94603-3.43408 2.12205-.61001-.216-1.63004-.72401-1.29003-1.67804.47601-1.33202.47601-5.99213.47601-5.99213l6.84615-13.12429s-.95202-2.47205-.85402-5.42012c.07-2.20404-1.34803-3.07806-2.86206-3.41807-.086-.92402-1.15603-11.77626-3.79408-15.600344 0 0-2.18805-2.948064-4.1861-2.472054 0 0-2.37605-6.086135-1.52203-7.22816.85802-1.140025 2.09405-.380008 3.33007-.190004 0 0-4.9461-6.560144-9.3202 1.902042 0 0 1.61604-1.616035 2.66206-1.236027 0 0 2.41405 6.740149 2.88006 8.076179-.59801.98002-.51401 2.456054 1.11203 4.476098 2.75806 3.424074 5.32611 8.464186 6.18213 11.98226l.79402.114c-1.64004.096-2.31605 1.40803-2.31605 1.40803-4.2781 10.74624-3.99409 29.85866-2.28205 29.85866s1.90204.76202 1.90204.76202v.284l.30801-.274c-.79202 1.11402-1.18603 2.05204-.72002 2.24005.95002.38001 1.89804 3.03206 2.31405 4.34209-.47601 1.29403-.81402 2.54206-.98802 3.71809 0-.004-.004-.006-.006-.01-.004.028-.002.054-.006.084-.084.59401-.14 1.17602-.14 1.73403 0 1.60604 1.71604 2.95207 4.4541 4.08409-.002.002-.004.004-.006.006s-10.94624 1.51404-13.99031 4.05009c-3.04207 2.53606-8.36618 10.65024-8.36618 10.65024s-4.5641 4.31209-4.81811 6.34014l1.45603-1.06803-1.56403 1.56204s-9.59221 1.05802-10.73224 3.71808c0 0 .25401.29801.68002.69202l-.026-.014s-10.54423 1.70203-12.63628 6.64614c0 0-.47601-1.61603-1.14202-2.28205 0 0-.904024 3.56608-1.61604 4.2781-.712016.71201.47401 5.80212 4.08809 5.32611 0 0-1.61604-5.32611 3.70808-7.89417 0 0 2.85406.28801 2.85406 2.85406 0 0 2.56806-2.66206 2.56806-4.37609l6.03213-2.45206-.038-.02c.48002.112.98003.19 1.51804.19l6.87815-2.59806c1.26803.50402 7.35216-2.79006 8.11618-3.29607.028-.018.084-.078.156-.154-.15.31601-.29001.64002-.43601.95802-.186.41001-.37801.81202-.55801 1.22803-.29801.69002-.58002 1.39403-.86002 2.09805-.166.42001-.34001.83401-.50001 1.25802-.27201.71802-.52402 1.45204-.77602 2.18605-.148.43001-.30201.85802-.44201 1.29203-.24201.74602-.46401 1.50403-.68602 2.26605-.128.44401-.264.88202-.386 1.33003-.21001.77202-.40201 1.55603-.59402 2.34205-.11.45801-.226.90802-.33 1.37003-.178.79602-.33801 1.60804-.49802 2.42005-.092.46601-.188.93003-.272 1.40204-.146.82001-.27201 1.65203-.39801 2.48605-.072.48201-.148.96202-.21201 1.45003-.112.84002-.204 1.69204-.294 2.54406-.052.50001-.108.99602-.154 1.49803-.076.85802-.134 1.72604-.188 2.59806-.034.51801-.07 1.03202-.094 1.55203-.042.87402-.064 1.75804-.082 2.64406-.012.53601-.028 1.06802-.03 1.61004 0 .044-.002.088-.002.132 0-.084-.004-.172-.006-.25601 0 .104.006.21001.006.31401-.004.82402.012 1.65803.028 2.49205.006.38001 0 .75202.01 1.13403.002-.064.008-.126.01-.192.016.53801.014 1.06602.036 1.60803.312 7.42617 1.38603 14.70833 3.09207 21.69848l-.11-.394s-11.40626 14.67832-9.50221 26.46657c1.53403 9.5162.056 13.12428-.57202 14.16632l1.79604-2.51806-.022.034-.444 3.53208c-12.14227 5.32212-19.30043 17.75638-19.30043 17.75638-1.14202 0-1.90204-4.05808-1.90204-4.05808-1.648038 9.76622 7.60817 6.72014 7.60817 6.72014-3.80409-1.39202-.50602-6.34214-.50602-7.10016 0-.764 4.94611.25202 4.94611.25202 1.90205-6.71816 7.35417-3.9301 7.35417-3.9301 1.39403-6.46614 4.43609-4.4381 4.43609-4.4381l.75202-5.83812 1.18203 3.93808.88602-2.53804s1.64803 2.53804 2.79006 2.53804c0 0-9.24821-30.85466 2.60205-37.42881l-.124-.44401c6.28614 20.13844 17.9764 37.18482 32.42272 46.97102.042.032.078.074.12.104l.188.104c2.84006 1.89804 5.78212 3.52406 8.81219 4.8301l.102.056c.052.022.106.042.158.062.64402.274 1.29403.51802 1.94405.76202.292.11.58201.232.87601.336.68802.24402 1.38404.45802 2.08005.67002.27001.082.53801.178.81002.254.71001.204 1.42803.37402 2.14605.54002.262.062.52201.138.78601.196.98002.21 1.96405.38802 2.95607.53402.238.036.47401.018.71201-.022-.01.002-.02.006-.03.008.024.006.054.01.08.014 1.92405.278 3.86809-2.18206 5.83213-2.54006 2.01205.252 4.00809 2.82806 5.98213 2.54006 22.90651-3.32808 42.77495-24.55654 52.35716-52.23515l-.11.36201c9.0002 12.33627 1.27203 36.7368 1.27203 36.7368l2.28205-2.28606 1.39603 2.91608-.38001-5.06812c.176 0 1.23203-.22 2.44005-.486l.85802 4.41608s3.04207-2.03004 4.4361 4.4381c0 0 5.45412-2.79006 7.35616 3.9301 0 0 4.94612-1.01602 4.94612-.25202 0 .75802 3.29406 5.70814-.51002 7.10016 0 0 9.2562 3.04408 7.61016-6.72014-.002.008-.762 4.06608-1.90404 4.06608zm-156.86545-23.2985.024-.034.122.402zm63.38739 26.25058c.102-.034.20401-.058.30601-.1-.104.042-.206.066-.30601.1zm.76602-.31802c.09-.046.18-.09.27001-.14-.09.05-.18.092-.27001.14zm.80802-.462c.05-.034.102-.064.152-.098-.05.034-.1.066-.152.098zm1.05202-.67402c.066-.042.13-.082.196-.124-.068.042-.132.084-.196.124zm.72402-.42402c.09-.048.18-.1.272-.144-.092.044-.182.094-.272.144zm.78601-.356c.084-.03.166-.068.25001-.094-.082.026-.166.064-.25001.094z" fill="none" opacity=".1" stroke="#000" stroke-linejoin="round" stroke-width="4.00008"/>
    <path d="m284.26042 183.8767s.78 3.36007-1.48804 2.53405c0 0-13.8583-12.11826-23.92053-10.37022l.80002 2.56805s6.16213 4.08009 8.82419 3.60408c0 0 1.66604 1.04402 1.66604 1.99605 0 .95202 5.65612 2.90206 7.41616 1.80803 0 0 3.37608.57202 3.37608 3.51808 0 0-2.37806 1.42603-3.66008.66602 0 0 2.54406 4.06609 7.55816-.95202 2.49606-2.49806-.572-5.37212-.572-5.37212z" fill="none" opacity=".15" stroke="#000" stroke-linejoin="round" stroke-width="4.00008"/>
    <path d="m120.2868 279.0588-.25201.356s.026-.03.062-.074c.004-.008.004-.008.01-.014.044-.056.104-.14.18-.268l-.014.022c.004-.01.008-.012.014-.022z" fill="none" opacity=".15" stroke="#000" stroke-linejoin="round" stroke-width="4.00008"/>
    <path d="m282.77038 184.41071s-13.8583-12.11827-23.92053-10.37023l.80002 2.56806s6.16213 4.08009 8.82419 3.60408c0 0 1.66604 1.04402 1.66604 1.99604s5.65612 2.90206 7.41616 1.80804c0 0 3.37608.57201 3.37608 3.51808 0 0-2.37806 1.42603-3.66008.66601 0 0 2.54406 4.06609 7.55816-.95002 2.49606-2.49805-.572-5.37212-.572-5.37212s.78 3.35608-1.48804 2.53206z" fill="url(#radialGradient8835)" stroke-width="2"/>
    <path d="m233.8453 152.72401s12.66628 1.25603 19.51243 12.92229l4.18209 4.18409 2.41005 7.73417s-3.67608-.128-5.32211-1.77604c-1.65004-1.64804-4.2401-7.28216-9.47421-9.47221l-9.72621-7.43816z" fill="url(#radialGradient8832)" stroke-width="2"/>
    <path d="m126.24493 171.17242-1.56404 1.56403s-9.59221 1.05803-10.73223 3.71808c0 0 2.37605 2.94807 5.99213 2.94807l6.87815-2.59806 3.20207-9.0022z" fill="url(#radialGradient8829)" stroke-width="2"/>
    <path d="m151.96349 151.19998s-10.94624 1.51403-13.9903 4.05009c-3.04207 2.53605-8.36619 10.65023-8.36619 10.65023s-4.5641 4.3121-4.8181 6.34014l3.80408-2.79006s-3.04207 6.84815-1.77604 7.35416c1.26803.50401 7.35216-2.79006 8.11618-3.29607.75801-.50801 17.03037-22.30849 17.03037-22.30849z" fill="url(#radialGradient8826)" stroke-width="2"/>
    <path d="m114.60067 177.13255s-10.54423 1.70204-12.63628 6.64615c0 0-.47601-1.61604-1.14202-2.28205 0 0-.904022 3.56607-1.616038 4.27809-.712016.71402.47401 5.80213 4.088088 5.32612 0 0-1.61603-5.32612 3.70808-7.89418 0 0 2.85407.28801 2.85407 2.85407 0 0 2.56805-2.66206 2.56805-4.3761l6.03214-2.45205z" fill="url(#radialGradient8823)" stroke-width="2"/>
    <path d="m169.82789 120.98731s2.12604-2.76006-1.17003-8.59418c-3.29407-5.83213 10.65224.254 10.65224 4.05808 0 3.80409-1.31603 7.07616-1.31603 7.07616l-5.27812.28001z" fill="url(#radialGradient8820)" stroke-width="2"/>
    <path d="m213.38885 120.98731s-2.12405-2.76006 1.17202-8.59418c3.29807-5.83213-10.65023.254-10.65023 4.05808 0 3.80409 1.31603 7.07616 1.31603 7.07616l5.27811.28001z" fill="url(#radialGradient8817)" stroke-width="2"/>
    <path d="m148.87943 142.31578s-1.26803-4.5641-2.53606-5.07211c-1.26803-.50601 3.80408-6.59214 6.08613-6.59214l1.26803 1.01402 1.01402 2.02804z" fill="url(#radialGradient8814)" stroke-width="2"/>
    <path d="m234.52732 142.06178s1.26802-4.5641 2.53605-5.07011c1.26803-.50801-3.80408-6.59415-6.08613-6.59415l-1.26803 1.01402-1.01402 2.02805z" fill="url(#radialGradient8811)" stroke-width="2"/>
    <path d="m202.76661 107.13101s7.03616-4.18209 13.5023-6.65615c3.61208-2.092044 5.89613-6.08613 6.27614-10.460228.38001-4.374096 4.94611-1.142024 4.18409 1.140026-.75802 2.28405-3.04207 8.558188-9.69821 11.220242-6.65815 2.66406-11.98427 3.42408-12.55228 6.65615z" fill="url(#radialGradient8808)" stroke-width="2"/>
    <path d="m169.41988 126.75344c-2.45205 12.63228 7.43616 22.7905 22.6085 22.7905 15.17233 0 25.05855-10.15822 22.61049-22.7905-2.01204-10.38023-15.46634-19.81243-22.61049-19.81243-7.14416 0-20.59446 9.4322-22.6085 19.81243z" fill="url(#linearGradient8805)" stroke-width="2"/>
    <path d="m127.37895 215.12339c1.76204 41.84692 27.2746 79.31375 58.36329 83.83183 2.07404.30202 4.17009-2.58604 6.28814-2.58604 2.11604 0 4.21209 2.88806 6.28813 2.58604 31.08869-4.51808 56.60125-41.98491 58.36529-83.83183 1.99805-47.39505-26.89659-78.13172-64.65142-78.13172-37.75684 0-66.65147 30.73667-64.65343 78.13172z" fill="url(#radialGradient8802)" stroke-width="2"/>
    <path d="m256.6798 213.41335c-1.76404 40.9289-27.2766 77.57171-58.36529 81.99381-2.07404.292-4.17009-2.53006-6.28813-2.53006-2.11805 0-4.2141 2.82206-6.28814 2.53006-31.08869-4.4221-56.60125-41.06491-58.36329-81.99381-.054-1.23003-.082-2.44406-.09-3.64608-.012 1.76204.014 3.54608.09 5.35812 1.76204 41.84692 27.2746 79.31375 58.36329 83.83183 2.07404.30202 4.17009-2.58604 6.28814-2.58604 2.11604 0 4.21209 2.88806 6.28813 2.58604 31.08869-4.51808 56.60125-41.98491 58.36529-83.83183.078-1.81004.104-3.59608.09-5.35812-.006 1.20202-.036 2.41605-.09 3.64608z" fill="url(#linearGradient8799)" stroke-width="2"/>
    <path d="m192.02838 148.14991c35.66078 0 63.4134 25.53656 64.69942 65.55744 1.36603-46.59102-27.3226-76.71568-64.69942-76.71568-37.37683 0-66.06346 30.12466-64.69543 76.71568 1.28403-40.02288 29.03464-65.55744 64.69543-65.55744z" fill="url(#radialGradient8796)" stroke-width="2"/>
    <path d="m179.3881 112.49513s2.83606 3.83008 6.76815 3.19607c0 0-4.3701 9.83221-12.16827 2.03204z" fill="url(#radialGradient8793)" stroke-width="2"/>
    <path d="m201.49658 119.87529c.93603.42801 3.80409 1.12802 4.73211-.104 1.06202-1.41603-.088-5.22012.85802-5.22212-1.16603-1.08402-2.40006-2.08604-3.66008-2.98006-.002 0-2.81406 3.87008-5.73213 3.87008-.82402.062 2.86806 4.00809 3.80208 4.4361z" fill="url(#radialGradient8790)" stroke-width="2"/>
    <path d="m171.04391 122.17334 1.67004 1.63204 5.27812-.28001s1.31603-3.27007 1.31603-7.07616c0-.80401-.62802-1.71003-1.58204-2.58405-2.71606 2.39005-5.12011 5.24011-6.68215 8.30818z" fill="url(#radialGradient8787)" stroke-width="2"/>
    <path d="m212.72883 121.63333c-1.64803-3.01807-4.08809-5.81013-6.81815-8.13218-1.18602.98402-2.00004 2.03404-2.00004 2.95006 0 3.80409 1.31603 7.07616 1.31603 7.07616l5.27811.28001z" fill="url(#radialGradient8784)" stroke-width="2"/>
    <path d="m217.91895 119.16727c-6.16014 3.56008-15.47034 5.82813-25.88857 5.82813s-19.72844-2.26805-25.89057-5.82813c-10.37623 8.7502-18.62441 20.28845-18.62441 27.94262 0 8.21418 44.51298 9.73621 44.51298 9.73621s44.51298-1.52203 44.51298-9.73621c0-7.65417-8.24419-19.19042-18.62241-27.94262z" fill="url(#radialGradient8781)" stroke-width="2"/>
    <path d="m192.02838 153.42403s-41.60892-1.29403-44.36698-8.13018c-.092.62401-.148 1.23403-.148 1.81604 0 8.21418 44.51298 9.73621 44.51298 9.73621s44.51298-1.52203 44.51298-9.73621c0-.58401-.052-1.19203-.144-1.81604-2.75406 6.83615-44.36698 8.13018-44.36698 8.13018z" fill="url(#linearGradient8778)" stroke-width="2"/>
    <path d="m253.33373 237.90989s13.59231 18.0124 8.26418 40.07287c0 0-6.02413 1.39804-6.46414 1.39804l.38001 5.06812-1.39603-2.91608-2.28205 2.28606s7.72817-24.40054-1.27203-36.73681z" fill="url(#radialGradient8775)" stroke-width="2"/>
    <path d="m280.36232 295.86316s-7.15816-12.43428-19.30242-17.75638l-3.48808.786.85802 4.4181s3.04207-2.03004 4.4361 4.4381c0 0 5.45412-2.79006 7.35616 3.93008 0 0 4.94612-1.01602 4.94612-.252 0 .75802 3.29406 5.70812-.51002 7.10016 0 0 9.2562 3.04406 7.61016-6.72014-.004-.002-.764 4.05608-1.90604 4.05608z" fill="url(#radialGradient8772)" stroke-width="2"/>
    <path d="m102.3164 295.86316s7.16016-12.43428 19.30043-17.75638l.44401-3.53208 1.41203-2.07206 1.63403 4.1661-.85602 6.64014s-3.04206-2.03004-4.43609 4.4381c0 0-5.45412-2.79006-7.35417 3.93008 0 0-4.9461-1.01602-4.9461-.252 0 .75802-3.29608 5.70812.50601 7.10016 0 0-9.254208 3.04406-7.60817-6.72014.002 0 .76202 4.05808 1.90404 4.05808z" fill="url(#radialGradient8769)" stroke-width="2"/>
    <path d="m130.36102 236.42786s-11.40625 14.67832-9.50221 26.46658c1.90004 11.79226-.82602 14.52032-.82602 14.52032l3.48608-4.88212 2.66406 8.8782.88602-2.53806s1.64803 2.53806 2.79006 2.53806c0 0-9.24821-30.85467 2.60205-37.42882z" fill="url(#radialGradient8766)" stroke-width="2"/>
    <path d="m182.31616 110.44308s-1.23402-3.12007-1.23402-5.21211l-3.80409 1.14002v3.23407s2.55006.72402 2.55006 2.55006z" fill="url(#radialGradient8763)" stroke-width="2"/>
    <path d="m200.92657 109.94907s1.77804-2.69006.88802-3.57808h.88802s1.36403 1.36403 2.79006 2.79006c1.42803 1.42604-2.06604.75602-2.06604 2.40806z" fill="url(#radialGradient8760)" stroke-width="2"/>
    <path d="m178.69808 106.561s-7.03815-4.1841-13.50429-6.65615c-3.61409-2.092046-5.89414-6.086134-6.27614-10.46023-.38001-4.374096-4.94411-1.142024-4.1841 1.140026.76002 2.28405 3.04207 8.558188 9.70022 11.220244 6.65815 2.66406 12.65628 3.61408 13.22829 6.84815z" fill="url(#radialGradient8757)" stroke-width="2"/>
    <path d="m146.75538 134.99562s-.19-.76201-1.90204-.76201-1.99805-19.11442 2.28205-29.85866c0 0 .76001-1.52203 2.66406-1.42603 1.90204.094 4.47009.66601 4.37609 3.61208-.096 2.94806.85402 5.42012.85402 5.42012l-6.84615 13.12428s0 4.66011-.47601 5.99214c-.47401 1.33203 1.71204 1.80604 1.71204 1.80604l-2.66206 2.37605" fill="url(#radialGradient8754)" stroke-width="2"/>
    <path d="m147.5154 87.542578s-2.18805-2.948064-4.1861-2.472054c-1.99604.47601-3.61208 2.376052-.85602 5.800128 2.75806 3.424076 5.32612 8.464186 6.18214 11.982268l2.66406.38s-1.04802-11.696254-3.80408-15.690342z" fill="url(#radialGradient8751)" stroke-width="2"/>
    <path d="m145.13734 77.652361s-4.94611-6.560145-9.3202 1.902041c0 0 1.61603-1.616035 2.66206-1.236027 0 0 2.75806 7.702171 2.94806 8.274183.19.570012 1.90004-1.522034 1.90004-1.522034s-2.37605-6.086134-1.52203-7.228159c.86002-1.140025 2.09805-.380009 3.33207-.190004z" fill="url(#radialGradient8748)" stroke-width="2"/>
    <path d="m236.65136 134.74162s.19-.76202 1.90204-.76202c1.70804 0 1.99605-19.11242-2.28405-29.85866 0 0-.76001-1.52203-2.66205-1.42603-1.90205.094-4.4701.66602-4.3741 3.61208.094 2.94807-.85802 5.42212-.85802 5.42212l6.84615 13.12229s0 4.6601.47401 5.99013c.47601 1.33203-1.71004 1.80604-1.71004 1.80604l2.66406 2.37805" fill="url(#radialGradient8745)" stroke-width="2"/>
    <path d="m235.88935 87.288572s2.18804-2.948064 4.18409-2.472054c1.99804.47601 3.61608 2.378052.85802 5.800128-2.76006 3.424076-5.32412 8.464186-6.18014 11.982264l-2.66406.38001s1.04402-11.69626 3.80209-15.690348z" fill="url(#radialGradient8742)" stroke-width="2"/>
    <path d="m238.2674 77.398355s4.94411-6.560144 9.3182 1.902042c0 0-1.61803-1.616036-2.66406-1.236027 0 0-2.75606 7.70417-2.94806 8.274182-.19.570012-1.90204-1.522034-1.90204-1.522034s2.37605-6.086134 1.52203-7.228159c-.85402-1.140025-2.09005-.380008-3.32607-.190004z" fill="url(#radialGradient8739)" stroke-width="2"/>
    <path d="m192.02838 156.8461s-9.87022-.338-20.31445-1.55203c-.004.07-.014.138-.014.21 0 4.97211 9.62821 12.17027 20.09644 12.17027 10.47023 0 20.22445-7.07215 20.22445-12.04426 0-.102-.012-.198-.018-.29601-10.31623 1.18203-19.97444 1.51203-19.97444 1.51203z" fill="url(#linearGradient8736)" stroke-width="2"/>
    <path d="m140.26924 175.27451c-4.93011 8.58619-5.21412 17.68039-.63402 20.30845 4.5781 2.62805 12.28827-2.20005 17.21838-10.78624 4.93011-8.58419 5.21412-17.67839.63601-20.30645-4.5801-2.63006-12.29027 2.20005-17.22037 10.78424z" fill="url(#radialGradient8733)" stroke-width="2"/>
    <path d="m238.81341 175.27451c4.93011 8.58619 5.21411 17.68039.63601 20.30845-4.5801 2.62805-12.29027-2.20005-17.21838-10.78624-4.93211-8.58419-5.21411-17.67839-.63401-20.30645 4.5781-2.63006 12.28627 2.20005 17.21638 10.78424z" fill="url(#radialGradient8730)" stroke-width="2"/>
    <path d="m148.46742 210.97329s.108-.052.306-.15c1.73404-.85601 10.39023-5.13611 13.2923-6.50414 3.12407-1.47203 5.18411-.008 9.70221 2.83806.154.1.31201.198.47201.29601h4.3761l2.66406 4.09409s3.32807 2.75606 2.09004 5.03811c0 0 2.66406 4.3761.76002 7.13416 0 0-3.13607 12.54828-11.41025 12.46628-.126 0-.25401-.004-.38001-.012-8.55819-.47601-8.8442.284-10.27023.95402 0 0-3.32807-4.85211-4.85011-5.80413-1.52203-.94802-2.66405-.28601-2.66405-.28601s-4.85011-3.70608-2.09005-10.64823z" fill="url(#radialGradient8727)" stroke-width="2"/>
    <path d="m151.66749 192.52489-2.79006-13.6923c-5.32612-9.1282-12.93429.76001-12.93429.76001s-2.78806 4.81611-4.05609 18.76642c-1.26803 13.9463 15.46834 4.05209 15.97435 2.28205.50601-1.77404 3.29608-8.11618 3.29608-8.11618z" fill="url(#radialGradient8724)" stroke-width="2"/>
    <path d="m250.31166 200.38906s-2.53405-19.27442-6.59014-23.08051c0 0-12.60628-2.60805-12.93429 7.60817-.254 7.86217 3.80009 9.1322 5.07211 11.15625 1.26803 2.03004 3.29408 9.1302 3.29408 11.66625.002.002 10.39823 2.78806 11.15824-7.35016z" fill="url(#radialGradient8721)" stroke-width="2"/>
    <path d="m140.50924 258.96435c-2.53605-4.5641-1.26803-7.35216-1.52203-9.1282-.25201-1.77404 8.11618-.50801 9.1302-1.51803 1.01402-1.02002 9.3822.25201 13.94831 10.64623 0 0 2.28005 7.10215 3.54808 7.86417 0 0 1.01602 11.41026-8.6202 8.36818 0 0-2.79006-3.29806-5.58012-3.29806.002-.002-8.36818-8.37018-10.90424-12.93429z" fill="url(#radialGradient8718)" stroke-width="2"/>
    <path d="m221.65703 274.43268s-6.33814-22.81849 15.47034-27.63859c0 0 7.10016 1.27002 6.08614 8.37218 0 0-8.37219 10.90223-10.14423 16.22435 0-.002-4.05609 5.32612-11.41225 3.04206z" fill="url(#radialGradient8715)" stroke-width="2"/>
    <path d="m178.54808 272.66066s2.79006 1.27002 4.81611-.76402c2.03004-2.02606-.50602-4.5641-.50602-4.5641s-5.32611-1.26604-5.32611-4.3081c.002-.002-1.26603 6.08414 1.01602 9.63622z" fill="url(#radialGradient8712)" stroke-width="2"/>
    <path d="m201.87659 273.16666s-4.05609-3.04206-4.5621-4.5641 6.59215-.75802 7.60817-3.29408c1.01202-2.53804 1.52003 6.58816-3.04607 7.85818z" fill="url(#radialGradient8709)" stroke-width="2"/>
    <path d="m210.75479 241.72397c-1.77604-1.27002-.76002-6.59814-5.32412-6.34214-4.5661.25601 0-.76001 0-.76001s-4.31209.76001-4.31209-6.84815c0-7.60617-3.04207-11.91827-1.52204-12.93229 1.52204-1.01602 2.28205 1.01402 3.04207-.50801.76002-1.52204 3.04207-10.65024 10.14222-10.65024 7.10016 0 5.07411 2.53606 9.1302 2.53606 4.05809 0 6.34014 1.77804 7.60818 6.08613 1.26802 4.3141 4.5621-.50601 2.79006 13.69631-1.77604 14.20231-9.13021 8.62219-9.13021 8.62219l-3.80208 9.1262s-1.26803-9.63221-3.80209-7.35416c-2.54005 2.28205-4.8201 5.32811-4.8201 5.32811z" fill="url(#radialGradient8706)" stroke-width="2"/>
    <path d="m153.57153 132.63757-1.24603 1.83004c-.002 0-.002.002-.002.002s.23801 4.6101 4.6101 4.6101c0 0 2.71806.198 3.60808-3.60808l8.62019-2.88006s7.47217-3.25207 7.47217-9.37821l-.008-.006c-4.04409-1.00002-7.61217-2.37605-10.48823-4.03809-4.86811 4.10409-9.26821 8.8242-12.56628 13.4683z" fill="url(#radialGradient8703)" stroke-width="2"/>
    <path d="m153.57153 134.41361c3.29807-4.6441 6.92015-8.27818 11.79226-12.38227 3.82608 2.21005 11.15625 1.77604 11.15625 1.77604 0 .374-.03.74001-.082 1.10002.126-.53801.198-1.10202.198-1.69404l-.008-.006c-4.04409-1.00002-7.61217-2.37605-10.48824-4.03809-4.8681 4.10609-9.2682 8.8262-12.56827 13.4703l-1.24603 1.83004c-.002 0-.002.002-.002.002s.034.60001.278 1.36603z" fill="url(#radialGradient8700)" stroke-width="2"/>
    <path d="m217.91895 119.16727c-2.87207 1.66004-6.44015 3.03607-10.47623 4.03609l-.008.004s2.30605 10.48623 16.38036 10.48623c0 0 4.18009 10.19623 8.68419 1.99205-3.40007-5.58413-8.63819-11.50826-14.58032-16.51837z" fill="url(#radialGradient8697)" stroke-width="2"/>
    <path d="m208.21873 123.80538c4.03809-1.00003 7.01616-1.12803 9.89022-2.79007 5.86213 4.94411 10.35823 10.21223 13.74031 15.71835.214-.31201.43201-.65401.64801-1.04802-3.39807-5.58413-8.63619-11.50826-14.58032-16.51837-2.87207 1.66004-6.44015 3.03607-10.47623 4.03609l-.008.004s.076.33001.27.86602z" fill="url(#radialGradient8694)" stroke-width="2"/>
    <path d="m152.93551 155.25007s-24.34453 21.30247-22.31449 52.74716c2.02805 31.44269 5.07212 40.5729 11.15825 51.73114 6.08613 11.15425 27.0386 33.29673 35.50078 34.48475 8.46219 1.19404 8.62219-2.53606 11.15825-5.0721 2.53405-2.53606-15.21634-11.15826-29.41665-18.2584-14.20231-7.09816-17.75239-16.73437-20.28645-29.41465-2.53605-12.68028-1.01602-24.84855-3.55008-39.05486-2.53605-14.19832 13.18429-42.59894 18.76442-43.10495 5.58012-.50801-1.01403-4.05809-1.01403-4.05809z" fill="url(#radialGradient8691)" stroke-width="2"/>
    <path d="m202.76661 266.84852s-8.75219 2.05204-22.44449-.68602c-13.6923-2.73206 17.88039 34.19476 22.44449.68602z" fill="url(#linearGradient8688)" stroke-width="2"/>
    <path d="m185.64824 156.01008s-33.84075 125.79078-20.76646 134.60296l9.1042 4.99012c3.79808 1.62404 7.73017 2.76806 11.75426 3.35206 2.07404.30202 4.17009-2.58604 6.28814-2.58604.176 0 .354.028.53201.062-.022-.27202-.04-.53602-.066-.82402-.76002-7.98818-1.14003-32.33072-.37801-36.1348.75802-3.80208 1.90004-31.9507 1.14203-41.84292-.76202-9.88822.75801-44.88299 1.14002-51.72914.37801-6.84615-8.75019-9.89022-8.75019-9.89022z" fill="url(#linearGradient8685)" stroke-width="2"/>
    <path d="m198.92253 156.4841c-4.13609.268-6.89215.362-6.89215.362s-2.86607-.098-7.14216-.37801v4.1541s-8.62019 5.83812-9.1282 10.61623c-.50601 4.7761 2.79006 9.55421 2.79006 9.55421l-1.01402.53001 3.04206 2.38805c3.80209 5.31012 11.66426 2.91807 11.66426 2.91807 6.08613 4.7801 15.72435-3.98209 15.72435-3.98209 4.8161-6.37014-1.26803-17.78239-1.26803-17.78239-7.20016-4.16009-7.88817-7.14016-7.77617-8.38018z" fill="url(#radialGradient8682)" stroke-width="2"/>
    <circle cx="166.24982" cy="187.58078" fill="url(#radialGradient8669)" r="23.584518" stroke-width="2.00004"/>
    <path d="m192.02838 296.36918c-1.88405 0-3.75409 2.28604-5.60613 2.57204.024.006.054.01.08.014 1.93405.28002 3.88609-2.20804 5.86013-2.54604-.112-.016-.224-.04-.334-.04z" fill="#fff" stroke-width="2"/>
    <path d="m186.41025 156.01008s-.026.092-.072.26401c2.11605.87002 8.37619 3.93009 8.06018 9.62421-.38201 6.84615-1.90404 41.84092-1.14003 51.72914.75802 9.89222-.382 38.04084-1.14202 41.84292-.76002 3.80408-.38201 28.14662.37801 36.1348.026.274.042.522.062.78202.08-.008.154-.02.232-.02.178 0 .35401.028.53201.062-.022-.27202-.04-.53602-.064-.82402-.76202-7.98818-1.14202-32.33072-.38201-36.1348.76202-3.80208 1.90404-31.9507 1.14203-41.84292-.75802-9.88822.76201-44.88299 1.14202-51.72914s-8.74819-9.88822-8.74819-9.88822z" fill="#fff" opacity=".3" stroke-width="2"/>
    <path d="m284.26042 181.87665s.78 3.35808-1.48804 2.53406c0 0-13.8583-12.11827-23.92053-10.37023l.80002 2.56806s6.16213 4.08009 8.82419 3.60408c0 0 1.66604 1.04402 1.66604 1.99604s5.65612 2.90206 7.41616 1.80804c0 0 3.37608.57201 3.37608 3.51808 0 0-2.37806 1.42603-3.66008.66601 0 0 2.54406 4.06609 7.55816-.95002 2.49606-2.50005-.572-5.37412-.572-5.37412z" opacity=".3" stroke-width="2"/>
    <path d="m120.2868 277.05874-.25201.35602c-.002 0 .1-.106.25201-.35602z" opacity=".3" stroke-width="2"/>
    <path d="m234.08531 155.75808s25.10655 23.29251 20.79445 57.31126c0 0-4.06009 39.55687-15.21633 53.25318 0 0-17.24239 24.84854-32.45872 26.37058 0 0-8.11618 2.54004-11.15825-4.0561 0 0-2.53405.50602 7.61017-2.03004 10.14223-2.53406 19.77844-6.08214 26.8786-16.22636 7.10015-10.14422 12.68028-17.75239 11.15624-23.33051-1.52003-5.58012 3.55208-29.92666 7.60817-40.57289 4.05809-10.65024-8.62019-27.89462-13.4383-28.91064-4.8181-1.01602-1.77603-21.80848-1.77603-21.80848z" fill="url(#radialGradient8674)" stroke-width="2"/>
  </g>
</svg>
