<svg height="256" width="256" xmlns="http://www.w3.org/2000/svg" xmlns:xlink="http://www.w3.org/1999/xlink">
  <defs>
    <linearGradient id="linearGradient3106">
      <stop offset="0" stop-color="#24acff"/>
      <stop offset="1" stop-color="#8eaac9" stop-opacity="0"/>
    </linearGradient>
    <linearGradient id="linearGradient3011">
      <stop offset="0" stop-color="#6193cf"/>
      <stop offset="1" stop-color="#6193cf" stop-opacity="0"/>
    </linearGradient>
    <linearGradient id="linearGradient2965">
      <stop offset="0" stop-color="#e8e8e8"/>
      <stop offset="1" stop-color="#e8e8e8" stop-opacity="0"/>
    </linearGradient>
    <linearGradient id="linearGradient2877">
      <stop offset="0" stop-color="#fdfdfd"/>
      <stop offset="1" stop-color="#fdfdfd" stop-opacity="0"/>
    </linearGradient>
    <filter id="filter3950" height="1.070602" width="1.033675" x="-.016837" y="-.035301">
      <feGaussianBlur stdDeviation=".87464667"/>
    </filter>
    <filter id="filter3958" height="1.288092" width="1.245991" x="-.122996" y="-.144046">
      <feGaussianBlur stdDeviation=".87464667"/>
    </filter>
    <filter id="filter3962" height="1.286779" width="1.230141" x="-.11507" y="-.143389">
      <feGaussianBlur stdDeviation=".87464667"/>
    </filter>
    <filter id="filter3974" height="1.286779" width="1.206109" x="-.103055" y="-.143389">
      <feGaussianBlur stdDeviation=".87464667"/>
    </filter>
    <filter id="filter4014" height="1.207245" width="1.102652" x="-.051326" y="-.103622">
      <feGaussianBlur stdDeviation="2.4802531"/>
    </filter>
    <radialGradient id="radialGradient4078" cx="252.65891" cy="9.996206" gradientTransform="matrix(-.99999897 .00000078 0 .43359327 320.55586 64.386473)" gradientUnits="userSpaceOnUse" r="61.75" xlink:href="#linearGradient3106"/>
    <radialGradient id="radialGradient4080" cx="255.04922" cy="42.881924" gradientTransform="matrix(-.99999897 .00000078 0 .43359327 320.55586 64.386473)" gradientUnits="userSpaceOnUse" r="61.75" xlink:href="#linearGradient3106"/>
    <radialGradient id="radialGradient4082" cx="-12.143297" cy="312.47681" gradientTransform="matrix(-.680003 -.01086166 -.00661782 .447816 42.027298 -29.84956)" gradientUnits="userSpaceOnUse" r="63.988659" xlink:href="#linearGradient3011"/>
    <radialGradient id="radialGradient4084" cx="89.216011" cy="196.43195" fx="82.953209" fy="192.42668" gradientTransform="matrix(-.192656 .482784 1.219161 .525853 -170.20781 -34.1805)" gradientUnits="userSpaceOnUse" r="63.988659" xlink:href="#linearGradient3011"/>
    <radialGradient id="radialGradient4094" cx="-93.689613" cy="377.23575" fx="-141.14726" fy="378.3584" gradientTransform="matrix(-.401036 0 .00034301 .183417 68.227048 47.11596)" gradientUnits="userSpaceOnUse" r="63.988659" xlink:href="#linearGradient3011"/>
    <radialGradient id="radialGradient4096" cx="-7.790653" cy="315.84476" gradientTransform="matrix(-.999882 -.0159711 -.00661782 .447816 38.142908 -29.91161)" gradientUnits="userSpaceOnUse" r="63.988659" xlink:href="#linearGradient3011"/>
    <linearGradient id="linearGradient4098" gradientTransform="matrix(-.999882 -.0159711 -.01536206 1.039523 130.32585 -3.554603)" gradientUnits="userSpaceOnUse" x1="13.380353" x2="24.503778" xlink:href="#linearGradient2965" y1="96.249008" y2="105.43793"/>
    <radialGradient id="radialGradient4102" cx="-9.138469" cy="303.95941" gradientTransform="matrix(-2.22415 -.595959 -.114167 .433073 58.079698 -32.02693)" gradientUnits="userSpaceOnUse" r="63.988659" xlink:href="#linearGradient3011"/>
    <radialGradient id="radialGradient4106" cx="6.862105" cy="111.5335" gradientTransform="matrix(-1.358425 -.02169809 -.01224827 .828819 132.45796 18.69657)" gradientUnits="userSpaceOnUse" r="8.635406" xlink:href="#linearGradient2965"/>
    <radialGradient id="radialGradient4108" cx="-12.143297" cy="312.47681" gradientTransform="matrix(-.941359 -.543494 -.223192 .38829 106.52788 -17.71688)" gradientUnits="userSpaceOnUse" r="63.988659" xlink:href="#linearGradient3011"/>
    <radialGradient id="radialGradient4110" cx="-7.253958" cy="311.01965" gradientTransform="matrix(-2.22415 -.595959 -.114167 .433073 58.079698 -32.02693)" gradientUnits="userSpaceOnUse" r="63.988659" xlink:href="#linearGradient3011"/>
    <filter id="filter4145" height="1.074052" width="1.033837" x="-.016919" y="-.037026">
      <feGaussianBlur stdDeviation=".77904136"/>
    </filter>
    <linearGradient id="linearGradient2974" gradientTransform="matrix(-1.603186 -.00849376 .00088196 1.5439002 235.92923 14.940356)" gradientUnits="userSpaceOnUse" x1="67.637222" x2="80.331238" xlink:href="#linearGradient2877" y1="-14.269801" y2="79.553719"/>
    <linearGradient id="linearGradient2982" gradientTransform="matrix(1.6079014 -.12802876 .12802876 1.6079014 19.193426 30.410962)" gradientUnits="userSpaceOnUse" x1="85.013451" x2="82.914459" y1="34.894394" y2="147.22853">
      <stop offset="0" stop-color="#0d284d"/>
      <stop offset=".5"/>
      <stop offset="1"/>
    </linearGradient>
    <linearGradient id="linearGradient2985" gradientTransform="matrix(-.963514 -.08169758 -.07106383 .899186 132.24738 3.908005)" gradientUnits="userSpaceOnUse" x1="71.137604" x2="71.137604" xlink:href="#linearGradient2877" y1="-45.176449" y2="85.008018"/>
  </defs>
  <path d="m101.48196 34.597164c9.51499-2.22563 19.61228-3.261406 30.02097-2.889164 55.51304 1.985286 99.44582 42.84523 98.12904 91.25057-.52434 19.27541-8.15378 36.86678-20.65162 50.91228 6.48484 12.40128 16.83502 20.91346 31.27196 21.60826-21.92148 10.22695-48.25767 7.66239-67.50832 3.6084-13.90516 5.65154-29.524 8.5701-46.01491 7.98034-55.51302-1.98528-99.515716-42.89037-98.19895-91.29571 1.069892-39.329344 31.720218-71.530582 72.95183-81.174976z" fill="url(#linearGradient2982)"/>
  <g transform="matrix(1.6079014 -.12802876 .12802876 1.6079014 19.193426 30.410962)">
    <path d="m7.5185681 54.257379c17.5610599 9.107482 36.4499339-19.898516 60.5746279-17.802797 18.676073 1.622394 39.544814 35.837903 55.402034 32.488768-3.21321 5.929221-7.62366 11.125321-12.94439 15.40629 8.86759 39.97853-86.941392 5.95697-103.0322719-30.092261z" fill="url(#radialGradient4078)" filter="url(#filter4014)" opacity=".240816" transform="matrix(1.0572569 0 0 1.0572569 -7.297319 -6.086873)"/>
    <path d="m7.5185681 54.257379c17.5610599 9.107482 34.0102759 15.781481 58.1349699 17.8772 18.676073 1.622394 41.984472.157906 57.841692-3.191229-3.21321 5.929221-7.62366 11.125321-12.94439 15.40629 6.44414 48.79106-93.102146 28.35971-103.0322719-30.092261z" fill="url(#radialGradient4080)" filter="url(#filter4014)" opacity=".240816" transform="matrix(1.0572569 0 0 1.0572569 -7.297319 -6.086873)"/>
  </g>
  <path d="m.90540805 55.654962c.25856005 27.625519 33.42584595 40.006177 47.31254095 44.113344 13.772199 4.073304 27.794112 4.098834 37.635371 1.138264 10.618936 3.13432 22.74667 14.1108 35.80277 10.65411 1.23533.38816 2.52076.69844 3.89378.87452-14.05095 5.24162-27.688527 1.77733-39.386139-1.67539-8.871643 2.80844-18.661407 3.83489-28.82394 2.65891-32.867393-3.80331-57.39349295-29.297552-56.43438295-57.763758zm121.91734195 6.567853c-.009 1.609126-.0853 3.242755-.25949 4.869768-1.23777 11.561572-6.56466 21.784363-14.59767 29.757644-.22133-.460378-.43267-.930662-.63553-1.40734 8.41493-8.065262 13.99136-18.542751 15.26393-30.42935.0999-.932824.18365-1.863305.22876-2.790722z" fill="url(#radialGradient4082)" filter="url(#filter3950)" opacity=".233607" transform="matrix(1.6079014 -.12802876 .12802876 1.6079014 19.193426 30.410962)"/>
  <path d="m.90540805 55.654962c.25856005 27.625519 35.42474495 48.043488 56.54191695 50.487098 21.117173 2.44361 19.952297.14953 28.82394-2.6589 10.618936 3.13432 22.328725 11.53421 35.384825 8.07752 1.23533.38816 2.52076.69844 3.89378.87452-14.05095 5.24162-27.688527 1.77733-39.386139-1.67539-8.871643 2.80844-18.661407 3.83489-28.82394 2.65891-32.867393-3.80331-57.39349295-29.297552-56.43438295-57.763758zm121.91734195 6.567853c-.009 1.609126-.0853 3.242755-.25949 4.869768-1.23777 11.561572-6.56466 21.784363-14.59767 29.757644-.22133-.460378-.43267-.930662-.63553-1.40734 8.41493-8.065262 13.99136-18.542751 15.26393-30.42935.0999-.932824.18365-1.863305.22876-2.790722z" fill="url(#radialGradient4084)" filter="url(#filter3950)" opacity=".098361" transform="matrix(1.6079014 -.12802876 .12802876 1.6079014 19.193426 30.410962)"/>
  <path d="m127.21589 33.45076c3.45855.0154 6.99787.19644 10.52633.540568 50.18265 4.8942 89.22377 41.705534 85.21327 82.242152-.143 1.44611-.34916 2.90022-.59246 4.316-23.17002 8.23299-52.78046 12.99503-82.87072 12.8356-38.68632-.20495-75.460512-8.4442-101.471144-21.72797-.516294-4.30838-.583378-8.70162-.144788-13.134508 3.258562-32.935984 34.578878-58.18902 72.498572-63.882956 5.46919-.821242 11.0767-1.214878 16.84094-1.188886z" fill="url(#linearGradient2974)"/>
  <path d="m66.012143 9.4775283c2.078717.1746573 4.226018.4504045 6.331533.8197367 28.877384 5.065455 49.693644 26.888709 47.260054 49.434999.90035-21.728927-19.52227-42.290313-47.437713-47.187034-2.105515-.369332-4.252816-.645078-6.331535-.819737-3.464513-.291094-6.835134-.314283-10.161525-.097838-23.063081 1.500694-42.568197 14.751536-46.0547074 33.776946-.1431799.781348-.2458099 1.567223-.3329499 2.34795.0684-1.529116.2294099-3.061347.5106099-4.595913 3.4865104-19.025412 22.9916234-32.276254 46.0547064-33.7769477 3.326391-.2164469 6.697012-.1932566 10.161527.097838z" fill="url(#linearGradient2985)" filter="url(#filter4145)" transform="matrix(1.6527365 -.13586056 .13159874 1.7062604 16.9124 26.605732)"/>
  <path d="m.90540805 55.654962c.25856005 27.625519 24.31851995 46.563788 45.71349295 52.028998 21.430533 5.4743 29.765019 1.87834 39.606278-1.08224 10.618936 3.13433 22.374811 8.41565 35.430911 4.95896 1.23533.38816 2.52076.69844 3.89378.87452-14.05095 5.24162-27.688527 1.77733-39.386139-1.67539-8.871643 2.80844-18.661407 3.83489-28.82394 2.65891-32.867393-3.80331-57.39349295-29.297552-56.43438295-57.763758zm121.91734195 6.567853c-.009 1.609126-.0853 3.242755-.25949 4.869768-1.23777 11.561572-6.56466 21.784363-14.59767 29.757644-.22133-.460378-.43267-.930662-.63553-1.40734 8.41493-8.065262 13.99136-18.542751 15.26393-30.42935.0999-.932824.18365-1.863305.22876-2.790722z" fill="url(#radialGradient4082)" filter="url(#filter3950)" opacity=".233607" transform="matrix(1.6079014 -.12802876 .12802876 1.6079014 19.193426 30.410962)"/>
  <path d="m.90540805 55.654962c.25856005 27.625519 34.26455695 42.645179 46.14226895 46.158158 11.80698 3.49207 29.307055 9.72426 39.148314 6.7637 10.618936 3.13433 22.403999 6.44055 35.460099 2.98386 1.23533.38816 2.52076.69844 3.89378.87452-14.05095 5.24162-27.688527 1.77733-39.386139-1.67539-8.871643 2.80844-18.661407 3.83489-28.82394 2.65891-32.867393-3.80331-57.39349295-29.297552-56.43438295-57.763758zm121.91734195 6.567853c-.009 1.609126-.0853 3.242755-.25949 4.869768-1.23777 11.561572-6.56466 21.784363-14.59767 29.757644-.22133-.460378-.43267-.930662-.63553-1.40734 8.41493-8.065262 13.99136-18.542751 15.26393-30.42935.0999-.932824.18365-1.863305.22876-2.790722z" fill="url(#radialGradient4094)" filter="url(#filter3950)" transform="matrix(1.6079014 -.12802876 .12802876 1.6079014 19.193426 30.410962)"/>
  <path d="m.90540805 55.654962c.25856005 27.625519 24.37792995 53.012988 56.44974495 56.724228 10.162533 1.17599 19.952297.14954 28.82394-2.6589 10.618935 3.13433 22.420897 5.29708 35.476997 1.84039 1.23533.38816 2.52076.69844 3.89378.87452-14.05095 5.24162-27.688527 1.77733-39.386139-1.67539-8.871643 2.80844-18.661407 3.83489-28.82394 2.65891-32.867393-3.80331-57.39349295-29.297552-56.43438295-57.763758zm121.91734195 6.567853c-.009 1.609126-.0853 3.242755-.25949 4.869768-1.23777 11.561572-6.56466 21.784363-14.59767 29.757644-.22133-.460378-.43267-.930662-.63553-1.40734 8.41493-8.065262 13.99136-18.542751 15.26393-30.42935.0999-.932824.18365-1.863305.22876-2.790722z" fill="url(#radialGradient4096)" filter="url(#filter3950)" transform="matrix(1.6079014 -.12802876 .12802876 1.6079014 19.193426 30.410962)"/>
  <path d="m125.21474 113.19493c-7.756-2.30301-12.71387-6.32801-16.20936-14.639516l-4.15996 2.355616c2.61231 5.10552 9.1684 11.99331 20.36932 12.2839z" fill="url(#linearGradient4098)" fill-rule="evenodd" filter="url(#filter3974)" opacity=".610656" transform="matrix(1.6079014 -.12802876 .12802876 1.6079014 19.193426 30.410962)"/>
  <path d="m.90540805 55.654962c.25856005 27.625519 34.26455695 42.645179 46.14226895 46.158158 11.80698 3.49207 29.307055 5.72426 39.148314 2.7637 10.618936 3.13433 19.303299 8.98463 32.359399 5.52794 2.02464 1.46838 5.69747 2.20187 6.99448 2.33044-14.05095 5.24162-27.688527 1.77733-39.386139-1.67539-8.871643 2.80844-18.661407 3.83489-28.82394 2.65891-32.867393-3.80331-57.39349295-29.297552-56.43438295-57.763758zm121.91734195 6.567853c-.009 1.609126-.0853 3.242755-.25949 4.869768-1.23777 11.561572-6.56466 21.784363-14.59767 29.757644-.22133-.460378-.43267-.930662-.63553-1.40734 8.41493-8.065262 13.99136-18.542751 15.26393-30.42935.0999-.932824.18365-1.863305.22876-2.790722z" fill="url(#radialGradient4094)" filter="url(#filter3950)" transform="matrix(1.6079014 -.12802876 .12802876 1.6079014 19.193426 30.410962)"/>
  <path d="m.90540805 55.654962c.25856005 27.625519 34.26455695 42.645179 46.14226895 46.158158 11.80698 3.49207 29.399227 3.48713 39.240487.52656 10.618935 3.13432 22.311826 12.67769 35.367926 9.221 1.23533.38816 2.52076.69844 3.89378.87452-14.05095 5.24162-27.688527 1.77733-39.386139-1.67539-8.871643 2.80844-18.661407 3.83489-28.82394 2.65891-32.867393-3.80331-57.39349295-29.297552-56.43438295-57.763758zm121.91734195 6.567853c-.009 1.609126-.0853 3.242755-.25949 4.869768-1.23777 11.561572-6.56466 21.784363-14.59767 29.757644-.22133-.460378-.43267-.930662-.63553-1.40734 8.41493-8.065262 13.99136-18.542751 15.26393-30.42935.0999-.932824.18365-1.863305.22876-2.790722z" fill="url(#radialGradient4102)" filter="url(#filter3950)" opacity=".233607" transform="matrix(1.6079014 -.12802876 .12802876 1.6079014 19.193426 30.410962)"/>
  <path d="m125.21474 113.19493c-7.756-2.30301-12.71387-6.32801-16.20936-14.639516l-2.03297 1.145086c2.61231 5.10551 10.11708 13.37149 18.24233 13.49443z" fill="url(#linearGradient4098)" fill-rule="evenodd" filter="url(#filter3962)" opacity=".610656" transform="matrix(1.6079014 -.12802876 .12802876 1.6079014 19.193426 30.410962)"/>
  <path d="m124.97388 113.12823c-7.756-2.30301-12.47301-6.26131-15.9685-14.572816l-1.09839.636197c2.18271 6.900579 12.07619 13.856899 17.06689 13.936619z" fill="url(#radialGradient4106)" fill-rule="evenodd" filter="url(#filter3958)" opacity=".610656" transform="matrix(1.6079014 -.12802876 .12802876 1.6079014 19.193426 30.410962)"/>
  <path d="m.90540805 55.654962c.25856005 27.625519 24.68584995 44.851048 46.08081995 50.316258 21.430534 5.4743 29.41459 2.4476 39.255849-.51298 10.618936 3.13434 22.357913 9.55913 35.414013 6.10244 1.23533.38816 2.52076.69844 3.89378.87452-14.05095 5.24162-27.688527 1.77733-39.386139-1.67539-8.871643 2.80844-18.661407 3.83489-28.82394 2.65891-32.867393-3.80331-57.39349295-29.297552-56.43438295-57.763758zm121.91734195 6.567853c-.009 1.609126-.0853 3.242755-.25949 4.869768-1.23777 11.561572-6.56466 21.784363-14.59767 29.757644-.22133-.460378-.43267-.930662-.63553-1.40734 8.41493-8.065262 13.99136-18.542751 15.26393-30.42935.0999-.932824.18365-1.863305.22876-2.790722z" fill="url(#radialGradient4108)" filter="url(#filter3950)" opacity=".233607" transform="matrix(1.6079014 -.12802876 .12802876 1.6079014 19.193426 30.410962)"/>
  <path d="m.90540805 55.654962c.25856005 27.625519 34.26455695 38.453743 46.14226895 41.966722 11.80698 3.492066 29.399227 4.938016 39.240487 1.977442 10.618935 3.134324 22.311826 15.418244 35.367926 11.961554 1.23533.38816 2.52076.69844 3.89378.87452-14.05095 5.24162-27.688527 1.77733-39.386139-1.67539-8.871643 2.80844-18.661407 3.83489-28.82394 2.65891-32.867393-3.80331-57.39349295-29.297552-56.43438295-57.763758zm121.91734195 6.567853c-.009 1.609126-.0853 3.242755-.25949 4.869768-1.23777 11.561572-6.56466 21.784363-14.59767 29.757644-.22133-.460378-.43267-.930662-.63553-1.40734 8.41493-8.065262 13.99136-18.542751 15.26393-30.42935.0999-.932824.18365-1.863305.22876-2.790722z" fill="url(#radialGradient4110)" filter="url(#filter3950)" opacity=".233607" transform="matrix(1.6079014 -.12802876 .12802876 1.6079014 19.193426 30.410962)"/>
</svg>
