<svg height="256" width="256" xmlns="http://www.w3.org/2000/svg" xmlns:xlink="http://www.w3.org/1999/xlink">
  <defs>
    <filter id="filter3834" color-interpolation-filters="sRGB" height="1.064318" width="1.080929" x="-.040464" y="-.032159">
      <feGaussianBlur stdDeviation="1.50075"/>
    </filter>
    <filter id="filter3826" color-interpolation-filters="sRGB" height="1.044321" width="1.055874" x="-.027937" y="-.02216">
      <feGaussianBlur stdDeviation="1.036"/>
    </filter>
    <linearGradient id="linearGradient4524-4" gradientUnits="userSpaceOnUse" x1="-79.8111" x2="-79.8111" y1="-27.556071" y2="88.844839">
      <stop offset="0" stop-color="#eeecec"/>
      <stop offset=".40000001" stop-color="#f4f4f4"/>
      <stop offset="1" stop-color="#f6f5f5"/>
    </linearGradient>
    <filter id="filter1164" color-interpolation-filters="sRGB" height="1.096" width="1.090435" x="-.045217" y="-.048">
      <feGaussianBlur stdDeviation=".65000024"/>
    </filter>
    <radialGradient id="radialGradient5988-0" cx="64" cy="64.004021" fx="63.793392" fy="47.274845" gradientTransform="matrix(1.6842105 -.08429519 .06886339 1.3758846 -200.0081 -46.219304)" gradientUnits="userSpaceOnUse" r="47.5">
      <stop offset="0" stop-color="#fff"/>
      <stop offset="1" stop-color="#fff" stop-opacity="0"/>
    </radialGradient>
    <clipPath id="clipPath6093-7-5">
      <path d="m17.000001 8-.000001 112h61.5c1.675283 0 3.914297-.56468 7-3.6 8.870045-8.72523 16.24047-13.8518 23.49904-21.175957 2.44056-2.462612 3.00096-4.47117 3.00096-6.724043v-80.5z"/>
    </clipPath>
    <filter id="filter6171-8" color-interpolation-filters="sRGB" height="2.02159" width="1.956141" x="-.47807" y="-.510795">
      <feGaussianBlur stdDeviation="10.140743"/>
    </filter>
    <linearGradient id="linearGradient3895-3" gradientUnits="userSpaceOnUse" x1="-60.929087" x2="-54.399928" y1="72.200368" y2="79.119611">
      <stop offset="0" stop-color="#fcfcfc"/>
      <stop offset=".52275378" stop-color="#f8f8f8"/>
      <stop offset=".72337759" stop-color="#f0efef"/>
      <stop offset=".89024991" stop-color="#e3e1e1"/>
      <stop offset="1" stop-color="#cecbcb"/>
    </linearGradient>
    <radialGradient id="radialGradient4781" cx="429" cy="272" gradientTransform="matrix(3.7081089 0 0 3.8935142 -1606.4778 -1030.8024)" gradientUnits="userSpaceOnUse" r="4">
      <stop offset="0" stop-color="#033a13"/>
      <stop offset="1" stop-color="#398c37"/>
    </radialGradient>
    <linearGradient id="linearGradient4783" gradientTransform="matrix(2.9014685 0 0 3.046542 -1260.429 -800.42589)" gradientUnits="userSpaceOnUse" x1="429.30026" x2="429.30026" y1="273.82983" y2="271.99973">
      <stop offset="0" stop-color="#bbf10e"/>
      <stop offset="1" stop-color="#5f9207"/>
    </linearGradient>
    <linearGradient id="linearGradient4785" gradientTransform="matrix(2.9014685 0 0 3.046542 -1260.429 -800.42589)" gradientUnits="userSpaceOnUse" x1="430" x2="430" y1="269" y2="275.0867">
      <stop offset="0" stop-color="#e0f4b8"/>
      <stop offset="1" stop-color="#92c441" stop-opacity=".214592"/>
    </linearGradient>
    <radialGradient id="radialGradient884" cx="429" cy="272" gradientTransform="matrix(3.7081089 0 0 3.8935142 -1606.4778 -1030.8024)" gradientUnits="userSpaceOnUse" r="4">
      <stop offset="0" stop-color="#3a0303"/>
      <stop offset="1" stop-color="#8c3737"/>
    </radialGradient>
    <linearGradient id="linearGradient886" gradientTransform="matrix(2.9014685 0 0 3.046542 -1260.429 -800.42589)" gradientUnits="userSpaceOnUse" x1="429.30026" x2="429.30026" y1="273.82983" y2="271.99973">
      <stop offset="0" stop-color="#f10e0e"/>
      <stop offset="1" stop-color="#920707"/>
    </linearGradient>
    <linearGradient id="linearGradient888" gradientTransform="matrix(2.9014685 0 0 3.046542 -1260.429 -800.42589)" gradientUnits="userSpaceOnUse" x1="430" x2="430" y1="269" y2="275.0867">
      <stop offset="0" stop-color="#f4b8b8"/>
      <stop offset="1" stop-color="#c44141" stop-opacity=".214592"/>
    </linearGradient>
  </defs>
  <g transform="matrix(2 0 0 -2 296.61038 201.88787)">
    <path d="m-128.8111-19.056071v112h56.187504c5.114947-.238308 32.613203-27.078301 32.775-30.612499.08138-25.126708.0375-56.2589983.0375-81.387501z" filter="url(#filter3834)" opacity=".262376"/>
    <path d="m-128.8111-19.556071v112.2h55.746422c3.098719 0 24.709876-18.512112 30.003672-24.699929 1.602664-1.873324 3.24991-3.03751 3.24991-7.20007v-80.300001z" fill-opacity=".700535" filter="url(#filter3826)"/>
    <path d="m-128.8111-19.556071v112h55.500004c1.675283 0 3.914297-.56468 7-3.6 8.870045-8.72523 16.24047-13.851809 23.49904-21.175959 2.44056-2.46261 3.00096-4.47117 3.00096-6.72404v-80.500001z" fill="#fff"/>
    <path d="m-127.3111-18.556071c-.33984 0-.5.234618-.5.5v107.96875c0 .82158.67932 1.5 1.5 1.5h51.687504c.05307 0 .810384.0234 1.5.0313 1.777664-.0401 3.131974-.75374 4.356035-1.59328 1.051866-.29103 16.649835-13.619589 25.770955-22.809239 1.36239-1.37262 2.18546-3.94817 2.18546-4.89561l.00005-80.201921c0-.322718-.16322-.5-.5-.5z" fill="url(#linearGradient4524-4)"/>
    <path d="m-39.811096 59.94691c0 4.46531-3.067448 5.978576-5.549678 7.662246-5.10854 3.46508-13.669156 1.756744-19.450326 1.837764-.081 5.78116 1.723142 12.231893-1.741938 17.340433-1.68367 2.48224-4.847792 5.659577-7.758062 5.659577 2.31803 0 4.74284-1.334761 7.58402-4.084811 9.14197-8.84873 14.36714-11.135349 22.673154-20.297529 1.91895-2.11675 4.24283-3.64188 4.24283-8.11768z" filter="url(#filter1164)" opacity=".4"/>
    <path d="m-127.3111-18.556071c-.33984 0-.5.234618-.5.5v107.96875c0 .82158.67932 1.499511 1.5 1.5l52.500004.0313c.05307.000032 3.273884-.008 3.9635.00005 6.540972-4.50361 18.6373-15.953289 27.58253-24.955099 1.47685-1.65648.4576-.37006 1.45391-1.60745l.00006-82.937501c0-.322718-.16322-.5-.5-.5z" fill="url(#radialGradient5988-0)" opacity=".846535"/>
    <path clip-path="url(#clipPath6093-7-5)" d="m114.4 82.502986c0 4.465301-4.99749 12.609952-7.47972 14.293625-5.10854 3.465079-12.739114 1.52536-18.520284 1.60638-.081 5.781159 1.96586 11.304599-1.49922 16.413139-1.68367 2.48224-9.79051 8.68687-12.70078 8.68687-2.091359 1.5337 3.488204 8.21101 6.734971 5.31989 9.501888-8.46107 35.131683-30.022704 43.350823-39.262889 2.04044-2.29392-4.90514-9.844666-9.88579-7.057015z" filter="url(#filter6171-8)" opacity=".277228" transform="translate(-151.8111 -27.556071)"/>
    <path d="m-39.811096 60.94691c0 4.46531-2.79749 6.40996-5.27972 8.09363-5.10854 3.46508-10.939114 3.32536-16.720284 3.40638-.081 5.78116.16586 9.504599-3.29922 14.613139-1.68367 2.48224-5.29051 5.386871-8.20078 5.386871 2.31803 0 4.443926-1.681712 7.58402-4.084811 9.539351-7.30042 13.204684-10.484303 21.673154-19.297529 1.979575-2.060165 4.24283-3.64188 4.24283-8.11768z" fill="url(#linearGradient3895-3)"/>
    <path d="m-39.792346 61.65643c-.31643 3.8991-3.52291 5.90281-5.85 7.48125-5.10854 3.46508-11.33758 2.32523-17.11875 2.40625-.081 5.78116.85258 10.316459-2.6125 15.424999-1.473211 2.17196-4.099456 4.6601-6.7625 5.250001 1.980459-.362301 3.884931-1.661391 6.26875-3.968751.339117-.38853.574297-.67895 1.10625-1.5 3.46508-5.10854 2.923687-8.465719 3.004687-14.246879 5.78117-.081 11.718023.21196 16.826563-3.25312.46542-.31569 1.59399-1.18775 2.00625-1.6 1.53629-1.53629 2.90171-2.61342 3.13125-5.99375zm-32.34375 30.5625c-.157658.0349-.313437.0414-.46875.0625.156991-.0169.310443-.0335.46875-.0625z" fill="#fff"/>
  </g>
  <g transform="matrix(4 0 0 4 249.15639 10.195542)">
    <path d="m-36.028962 24.95117v7h17l-.007 4.986749 8.48677-8.486809-8.48677-8.4868.007 4.98686z" fill="none" stroke="url(#radialGradient4781)" stroke-linecap="round" stroke-linejoin="round" stroke-width="2"/>
    <path d="m-36.028962 24.95117v7h17l-.007 4.986789 8.48719-8.486789-8.48679-8.48678.0066 4.98678z" fill="url(#linearGradient4783)" fill-rule="evenodd"/>
    <path d="m-36.028962 24.95117v3h25l-8.0066-7.98678.0066 4.98678z" fill="url(#linearGradient4785)" fill-rule="evenodd"/>
  </g>
  <g transform="matrix(-4 0 0 4 6.843608 66.195542)">
    <path d="m-36.028962 24.95117v7h17l-.007 4.986749 8.48677-8.486809-8.48677-8.4868.007 4.98686z" fill="none" stroke="url(#radialGradient884)" stroke-linecap="round" stroke-linejoin="round" stroke-width="2"/>
    <path d="m-36.028962 24.95117v7h17l-.007 4.986789 8.48719-8.486789-8.48679-8.48678.0066 4.98678z" fill="url(#linearGradient886)" fill-rule="evenodd"/>
    <path d="m-36.028962 24.95117v3h25l-8.0066-7.98678.0066 4.98678z" fill="url(#linearGradient888)" fill-rule="evenodd"/>
  </g>
</svg>
