<svg height="256" width="256" xmlns="http://www.w3.org/2000/svg" xmlns:xlink="http://www.w3.org/1999/xlink">
  <defs>
    <radialGradient id="radialGradient2924" cx="74.600372" cy="243.29161" gradientTransform="matrix(2 0 0 1.1546821 28.491052 -120.0112)" gradientUnits="userSpaceOnUse" r="54.745525">
      <stop offset="0" stop-color="#91e92d" stop-opacity=".6"/>
      <stop offset="1" stop-color="#5db700" stop-opacity=".6"/>
    </radialGradient>
    <linearGradient id="linearGradient2914" gradientUnits="userSpaceOnUse" x1="171.696084" x2="171.031686" y1="133.47522" y2="240.32868">
      <stop offset="0" stop-color="#e4ffc7"/>
      <stop offset="1" stop-color="#62ce07"/>
    </linearGradient>
    <linearGradient id="linearGradient2932" gradientUnits="userSpaceOnUse" x1="160.606438" x2="155.62127" y1="161.288738" y2="242.37054">
      <stop offset="0" stop-color="#ace871"/>
      <stop offset=".41578192" stop-color="#abee6b"/>
      <stop offset=".46140233" stop-color="#90e240"/>
      <stop offset=".53897512" stop-color="#7ee31b"/>
      <stop offset="1" stop-color="#45a600" stop-opacity=".819608"/>
    </linearGradient>
    <filter id="filter37586" color-interpolation-filters="sRGB" height="1.13114" width="1.075712" x="-.037856" y="-.06557">
      <feGaussianBlur stdDeviation="3.3794532"/>
    </filter>
    <filter id="filter3834" color-interpolation-filters="sRGB" height="1.064318" width="1.080929" x="-.040464" y="-.032159">
      <feGaussianBlur stdDeviation="1.50075"/>
    </filter>
    <filter id="filter3826" color-interpolation-filters="sRGB" height="1.044321" width="1.055874" x="-.027937" y="-.02216">
      <feGaussianBlur stdDeviation="1.036"/>
    </filter>
    <linearGradient id="linearGradient4524-4" gradientUnits="userSpaceOnUse" x1="-79.8111" x2="-79.8111" y1="-27.556071" y2="88.844839">
      <stop offset="0" stop-color="#eeecec"/>
      <stop offset=".40000001" stop-color="#f4f4f4"/>
      <stop offset="1" stop-color="#f6f5f5"/>
    </linearGradient>
    <filter id="filter1164" color-interpolation-filters="sRGB" height="1.096" width="1.090435" x="-.045217" y="-.048">
      <feGaussianBlur stdDeviation=".65000024"/>
    </filter>
    <radialGradient id="radialGradient5988-0" cx="64" cy="64.004021" fx="63.793392" fy="47.274845" gradientTransform="matrix(1.6842105 -.08429519 .06886339 1.3758846 -200.0081 -46.219304)" gradientUnits="userSpaceOnUse" r="47.5">
      <stop offset="0" stop-color="#fff"/>
      <stop offset="1" stop-color="#fff" stop-opacity="0"/>
    </radialGradient>
    <clipPath id="clipPath6093-7-5">
      <path d="m17.000001 8-.000001 112h61.5c1.675283 0 3.914297-.56468 7-3.6 8.870045-8.72523 16.24047-13.8518 23.49904-21.175957 2.44056-2.462612 3.00096-4.47117 3.00096-6.724043v-80.5z"/>
    </clipPath>
    <filter id="filter6171-8" color-interpolation-filters="sRGB" height="2.02159" width="1.956141" x="-.47807" y="-.510795">
      <feGaussianBlur stdDeviation="10.140743"/>
    </filter>
    <linearGradient id="linearGradient3895-3" gradientUnits="userSpaceOnUse" x1="-60.92908651861" x2="-54.39992819856" y1="72.20036819115" y2="79.11961060561">
      <stop offset="0" stop-color="#fcfcfc"/>
      <stop offset=".52275378" stop-color="#f8f8f8"/>
      <stop offset=".72337759" stop-color="#f0efef"/>
      <stop offset=".89024991" stop-color="#e3e1e1"/>
      <stop offset="1" stop-color="#cecbcb"/>
    </linearGradient>
  </defs>
  <g transform="matrix(2 0 0 -2 296.61038 201.88787)">
    <path d="m-128.8111-19.056071v112h56.187504c5.114947-.238308 32.613203-27.078301 32.775-30.612499.08138-25.126708.0375-56.2589983.0375-81.387501z" filter="url(#filter3834)" opacity=".262376"/>
    <path d="m-128.8111-19.556071v112.2h55.746422c3.098719 0 24.709876-18.512112 30.003672-24.699929 1.602664-1.873324 3.24991-3.03751 3.24991-7.20007v-80.300001z" fill-opacity=".700535" filter="url(#filter3826)"/>
    <path d="m-128.8111-19.556071v112h55.500004c1.675283 0 3.914297-.56468 7-3.6 8.870045-8.72523 16.24047-13.851809 23.49904-21.175959 2.44056-2.46261 3.00096-4.47117 3.00096-6.72404v-80.500001z" fill="#fff"/>
    <path d="m-127.3111-18.556071c-.33984 0-.5.234618-.5.5v107.96875c0 .82158.67932 1.5 1.5 1.5h51.687504c.05307 0 .810384.0234 1.5.0313 1.777664-.0401 3.131974-.75374 4.356035-1.59328 1.051866-.29103 16.649835-13.619589 25.770955-22.809239 1.36239-1.37262 2.18546-3.94817 2.18546-4.89561l.00005-80.201921c0-.322718-.16322-.5-.5-.5z" fill="url(#linearGradient4524-4)"/>
    <path d="m-39.811096 59.94691c0 4.46531-3.067448 5.978576-5.549678 7.662246-5.10854 3.46508-13.669156 1.756744-19.450326 1.837764-.081 5.78116 1.723142 12.231893-1.741938 17.340433-1.68367 2.48224-4.847792 5.659577-7.758062 5.659577 2.31803 0 4.74284-1.334761 7.58402-4.084811 9.14197-8.84873 14.36714-11.135349 22.673154-20.297529 1.91895-2.11675 4.24283-3.64188 4.24283-8.11768z" filter="url(#filter1164)" opacity=".4"/>
    <path d="m-127.3111-18.556071c-.33984 0-.5.234618-.5.5v107.96875c0 .82158.67932 1.499511 1.5 1.5l52.500004.0313c.05307.000032 3.273884-.008 3.9635.00005 6.540972-4.50361 18.6373-15.953289 27.58253-24.955099 1.47685-1.65648.4576-.37006 1.45391-1.60745l.00006-82.937501c0-.322718-.16322-.5-.5-.5z" fill="url(#radialGradient5988-0)" opacity=".846535"/>
    <path clip-path="url(#clipPath6093-7-5)" d="m114.4 82.502986c0 4.465301-4.99749 12.609952-7.47972 14.293625-5.10854 3.465079-12.739114 1.52536-18.520284 1.60638-.081 5.781159 1.96586 11.304599-1.49922 16.413139-1.68367 2.48224-9.79051 8.68687-12.70078 8.68687-2.091359 1.5337 3.488204 8.21101 6.734971 5.31989 9.501888-8.46107 35.131683-30.022704 43.350823-39.262889 2.04044-2.29392-4.90514-9.844666-9.88579-7.057015z" filter="url(#filter6171-8)" opacity=".277228" transform="translate(-151.8111 -27.556071)"/>
    <path d="m-39.811096 60.94691c0 4.46531-2.79749 6.40996-5.27972 8.09363-5.10854 3.46508-10.939114 3.32536-16.720284 3.40638-.081 5.78116.16586 9.504599-3.29922 14.613139-1.68367 2.48224-5.29051 5.386871-8.20078 5.386871 2.31803 0 4.443926-1.681712 7.58402-4.084811 9.539351-7.30042 13.204684-10.484303 21.673154-19.297529 1.979575-2.060165 4.24283-3.64188 4.24283-8.11768z" fill="url(#linearGradient3895-3)"/>
    <path d="m-39.792346 61.65643c-.31643 3.8991-3.52291 5.90281-5.85 7.48125-5.10854 3.46508-11.33758 2.32523-17.11875 2.40625-.081 5.78116.85258 10.316459-2.6125 15.424999-1.473211 2.17196-4.099456 4.6601-6.7625 5.250001 1.980459-.362301 3.884931-1.661391 6.26875-3.968751.339117-.38853.574297-.67895 1.10625-1.5 3.46508-5.10854 2.923687-8.465719 3.004687-14.246879 5.78117-.081 11.718023.21196 16.826563-3.25312.46542-.31569 1.59399-1.18775 2.00625-1.6 1.53629-1.53629 2.90171-2.61342 3.13125-5.99375zm-32.34375 30.5625c-.157658.0349-.313437.0414-.46875.0625.156991-.0169.310443-.0335.46875-.0625z" fill="#fff"/>
  </g>
  <g transform="matrix(-.76367789 0 0 .76367789 227.42851 51.677934)">
    <path d="m237.32191 114.04072-214.25 123.69532h52.249997 162.000003zm-28 48.4961v47.19922h-81.75z" fill="#1e7f00" filter="url(#filter37586)" opacity=".4"/>
    <path d="m236.49105 110.51836-214.249998 123.69532h52.25 161.999998zm-28 48.4961v47.19922h-81.75z" fill="url(#radialGradient2924)" stroke="url(#linearGradient2914)" stroke-width="2"/>
    <path d="m208.49105 156.42868-81.75 47.19921v4l53.36521-30.81096 28.38479-16.38825zm-179.320311 73.785-6.929687 4h52.25 161.999998v-4h-161.999998z" fill="url(#linearGradient2932)"/>
    <g stroke="#349606" stroke-width="1.09545" transform="matrix(2 0 0 1.6666667 28.491052 -239.11965)">
      <path d="m101.5 278v6" fill="none" stroke="#349606" stroke-width="1.09545"/>
      <path d="m86.5 278v6" fill="none" stroke="#349606" stroke-width="1.09545"/>
      <path d="m71.5 278v6" fill="none" stroke="#349606" stroke-width="1.09545"/>
      <path d="m56.5 278v6" fill="none" stroke="#349606" stroke-width="1.09545"/>
      <path d="m41.5 278v6" fill="none" stroke="#349606" stroke-width="1.09545"/>
      <path d="m26.5 278v6" fill="none" stroke="#349606" stroke-width="1.09545"/>
      <path d="m11.5 278v6" fill="none" stroke="#349606" stroke-width="1.09545"/>
    </g>
    <g stroke="#1c9807" transform="matrix(2 0 0 2 28.491052 -333.78632)">
      <path d="m98.5 281v3" fill="none" stroke="#1c9807"/>
      <path d="m95.5 281v3" fill="none" stroke="#1c9807"/>
      <path d="m92.5 281v3" fill="none" stroke="#1c9807"/>
      <path d="m89.5 281v3" fill="none" stroke="#1c9807"/>
      <path d="m83.5 281v3" fill="none" stroke="#1c9807"/>
      <path d="m80.5 281v3" fill="none" stroke="#1c9807"/>
      <path d="m77.5 281v3" fill="none" stroke="#1c9807"/>
      <path d="m74.5 281v3" fill="none" stroke="#1c9807"/>
      <path d="m68.5 281v3" fill="none" stroke="#1c9807"/>
      <path d="m65.5 281v3" fill="none" stroke="#1c9807"/>
      <path d="m62.5 281v3" fill="none" stroke="#1c9807"/>
      <path d="m59.5 281v3" fill="none" stroke="#1c9807"/>
      <path d="m53.5 281v3" fill="none" stroke="#1c9807"/>
      <path d="m50.5 281v3" fill="none" stroke="#1c9807"/>
      <path d="m47.5 281v3" fill="none" stroke="#1c9807"/>
      <path d="m44.5 281v3" fill="none" stroke="#1c9807"/>
      <path d="m38.5 281v3" fill="none" stroke="#1c9807"/>
      <path d="m35.5 281v3" fill="none" stroke="#1c9807"/>
      <path d="m32.5 281v3" fill="none" stroke="#1c9807"/>
      <path d="m29.5 281v3" fill="none" stroke="#1c9807"/>
      <path d="m23.5 281v3" fill="none" stroke="#1c9807"/>
      <path d="m20.5 281v3" fill="none" stroke="#1c9807"/>
      <path d="m17.5 281v3" fill="none" stroke="#1c9807"/>
      <path d="m14.5 281v3" fill="none" stroke="#1c9807"/>
      <path d="m8.5 281v3" fill="none" stroke="#1c9807"/>
      <path d="m5.5 281v3" fill="none" stroke="#1c9807"/>
    </g>
  </g>
</svg>
