<svg height="256" width="256" xmlns="http://www.w3.org/2000/svg" xmlns:xlink="http://www.w3.org/1999/xlink">
  <defs>
    <linearGradient id="linearGradient3211">
      <stop offset="0" stop-color="#fff"/>
      <stop offset="1" stop-color="#fff" stop-opacity="0"/>
    </linearGradient>
    <linearGradient id="linearGradient6028" gradientTransform="matrix(1.3755238 0 0 1.8570645 -22.548199 -92.562977)" gradientUnits="userSpaceOnUse" x1="63.911137" x2="87.757362" y1="79.998817" y2="93.999413">
      <stop offset="0"/>
      <stop offset="1" stop-opacity="0"/>
    </linearGradient>
    <filter id="filter3825" height="1.052361" width="1.055602" x="-.027801" y="-.02618">
      <feGaussianBlur stdDeviation=".6715998"/>
    </filter>
    <radialGradient id="radialGradient6030" cx="42.617531" cy="120.64188" gradientTransform="matrix(1.909059 1.8392116 -8.6222515 7.5766472 1009.8522 -881.36145)" gradientUnits="userSpaceOnUse" r="3.406888">
      <stop offset="0" stop-color="#b4942a"/>
      <stop offset="1" stop-color="#e4dcc9"/>
    </radialGradient>
    <linearGradient id="linearGradient6032" gradientTransform="matrix(.9986497 0 0 .9998891 .14044 .005323)" gradientUnits="userSpaceOnUse" x1="75.848022" x2="81.452583" y1="72.804123" y2="77.047241">
      <stop offset="0" stop-color="#252525"/>
      <stop offset=".5" stop-color="#252525"/>
      <stop offset=".75" stop-color="#252525"/>
      <stop offset="1"/>
    </linearGradient>
    <linearGradient id="linearGradient6034" gradientTransform="matrix(.9986497 0 0 .9998891 .14044 .005323)" gradientUnits="userSpaceOnUse" x1="76.708534" x2="80.579521" y1="83.325729" y2="87.154587">
      <stop offset="0" stop-color="#d4a100" stop-opacity=".976471"/>
      <stop offset="1" stop-color="#ffc712"/>
    </linearGradient>
    <linearGradient id="linearGradient6036" gradientTransform="matrix(1.2875994 1.1737414 -.5465891 .6213041 81.686465 27.89447)" gradientUnits="userSpaceOnUse" x1="11.326384" x2="14.493531" y1="57.383999" y2="57.383999">
      <stop offset="0" stop-color="#9a7600"/>
      <stop offset=".09292036" stop-color="#e3ad00"/>
      <stop offset=".5043171" stop-color="#ffcd2c"/>
      <stop offset=".91571385" stop-color="#e3ad00"/>
      <stop offset="1" stop-color="#b98d00"/>
    </linearGradient>
    <linearGradient id="linearGradient6038" gradientTransform="matrix(.9992082 0 0 .9993395 .108362 -.090375)" gradientUnits="userSpaceOnUse" x1="114.92793" x2="100.65602" y1="-22.560064" y2="-22.052734">
      <stop offset="0" stop-color="#980000"/>
      <stop offset="1" stop-color="#db5c5c"/>
    </linearGradient>
    <linearGradient id="linearGradient6040" gradientUnits="userSpaceOnUse" x1="-12.817558" x2="82.172836" y1="7.462277" y2="7.462277">
      <stop offset="0" stop-color="#fff" stop-opacity=".683453"/>
      <stop offset="1" stop-color="#fff" stop-opacity="0"/>
    </linearGradient>
    <filter id="filter3849" height="1.777462" width="1.015902" x="-.007951" y="-.388731">
      <feGaussianBlur stdDeviation=".31468463"/>
    </filter>
    <radialGradient id="radialGradient6042" cx="34.677639" cy="7.462277" gradientTransform="matrix(-1.5103 .00264127 -.00011671 -.00911022 87.0522 7.438666)" gradientUnits="userSpaceOnUse" r="47.595196" xlink:href="#linearGradient3211"/>
    <linearGradient id="linearGradient6044" gradientTransform="matrix(.6182226 0 0 .6232687 24.10803 47.993844)" gradientUnits="userSpaceOnUse" x1="33.342377" x2="24.450998" y1="117.83894" y2="107.35519">
      <stop offset="0"/>
      <stop offset="1" stop-color="#515151"/>
    </linearGradient>
    <linearGradient id="linearGradient6046" gradientTransform="matrix(1.6732108 1.5189394 -1.5009523 1.6928488 18.675678 -24.465565)" gradientUnits="userSpaceOnUse" x1="48.498562" x2="48.732723" xlink:href="#linearGradient3211" y1=".811505" y2="2.365727"/>
    <linearGradient id="linearGradient6048" gradientTransform="matrix(.9973012 0 0 .9997782 .28069 .010646)" gradientUnits="userSpaceOnUse" x1="92.226158" x2="96.579895" y1="54.119438" y2="57.15118">
      <stop offset="0" stop-color="#ea3838"/>
      <stop offset="1" stop-color="#c40000"/>
    </linearGradient>
    <radialGradient id="radialGradient6050" cx="49.011971" cy="2.674308" gradientTransform="matrix(2.2600183 0 0 .2752449 -2.259041 -25.415382)" gradientUnits="userSpaceOnUse" r="1.724619" xlink:href="#linearGradient3207"/>
    <linearGradient id="linearGradient3207">
      <stop offset="0" stop-color="#fff"/>
      <stop offset="1" stop-color="#252525" stop-opacity="0"/>
    </linearGradient>
    <radialGradient id="radialGradient6052" cx="49.011971" cy="2.674308" gradientTransform="matrix(1.550633 0 0 .1873121 21.621938 -31.864287)" gradientUnits="userSpaceOnUse" r="1.724619" xlink:href="#linearGradient3207"/>
    <radialGradient id="radialGradient6054" cx="49.011971" cy="2.674308" gradientTransform="matrix(1.5495914 0 0 .1876849 -193.24041 -23.535874)" gradientUnits="userSpaceOnUse" r="1.724619" xlink:href="#linearGradient3207"/>
    <filter id="filter3834" color-interpolation-filters="sRGB" height="1.064318" width="1.080929" x="-.040464" y="-.032159">
      <feGaussianBlur stdDeviation="1.50075"/>
    </filter>
    <filter id="filter3826" color-interpolation-filters="sRGB" height="1.044321" width="1.055874" x="-.027937" y="-.02216">
      <feGaussianBlur stdDeviation="1.036"/>
    </filter>
    <linearGradient id="linearGradient4524-4" gradientUnits="userSpaceOnUse" x1="-79.8111" x2="-79.8111" y1="-27.556071" y2="88.844839">
      <stop offset="0" stop-color="#eeecec"/>
      <stop offset=".40000001" stop-color="#f4f4f4"/>
      <stop offset="1" stop-color="#f6f5f5"/>
    </linearGradient>
    <filter id="filter1164" color-interpolation-filters="sRGB" height="1.096" width="1.090435" x="-.045217" y="-.048">
      <feGaussianBlur stdDeviation=".65000024"/>
    </filter>
    <radialGradient id="radialGradient5988-0" cx="64" cy="64.004021" fx="63.793392" fy="47.274845" gradientTransform="matrix(1.6842105 -.08429519 .06886339 1.3758846 -200.0081 -46.219304)" gradientUnits="userSpaceOnUse" r="47.5" xlink:href="#linearGradient3211"/>
    <clipPath id="clipPath6093-7-5">
      <path d="m17.000001 8-.000001 112h61.5c1.675283 0 3.914297-.56468 7-3.6 8.870045-8.72523 16.24047-13.8518 23.49904-21.175957 2.44056-2.462612 3.00096-4.47117 3.00096-6.724043v-80.5z"/>
    </clipPath>
    <filter id="filter6171-8" color-interpolation-filters="sRGB" height="2.02159" width="1.956141" x="-.47807" y="-.510795">
      <feGaussianBlur stdDeviation="10.140743"/>
    </filter>
    <linearGradient id="linearGradient3895-3" gradientUnits="userSpaceOnUse" x1="-60.92908651861" x2="-54.39992819856" y1="72.20036819115" y2="79.11961060561">
      <stop offset="0" stop-color="#fcfcfc"/>
      <stop offset=".52275378" stop-color="#f8f8f8"/>
      <stop offset=".72337759" stop-color="#f0efef"/>
      <stop offset=".89024991" stop-color="#e3e1e1"/>
      <stop offset="1" stop-color="#cecbcb"/>
    </linearGradient>
  </defs>
  <g transform="matrix(2 0 0 -2 296.61038 201.88787)">
    <path d="m-128.8111-19.056071v112h56.187504c5.114947-.238308 32.613203-27.078301 32.775-30.612499.08138-25.126708.0375-56.2589983.0375-81.387501z" filter="url(#filter3834)" opacity=".262376"/>
    <path d="m-128.8111-19.556071v112.2h55.746422c3.098719 0 24.709876-18.512112 30.003672-24.699929 1.602664-1.873324 3.24991-3.03751 3.24991-7.20007v-80.300001z" fill-opacity=".700535" filter="url(#filter3826)"/>
    <path d="m-128.8111-19.556071v112h55.500004c1.675283 0 3.914297-.56468 7-3.6 8.870045-8.72523 16.24047-13.851809 23.49904-21.175959 2.44056-2.46261 3.00096-4.47117 3.00096-6.72404v-80.500001z" fill="#fff"/>
    <path d="m-127.3111-18.556071c-.33984 0-.5.234618-.5.5v107.96875c0 .82158.67932 1.5 1.5 1.5h51.687504c.05307 0 .810384.0234 1.5.0313 1.777664-.0401 3.131974-.75374 4.356035-1.59328 1.051866-.29103 16.649835-13.619589 25.770955-22.809239 1.36239-1.37262 2.18546-3.94817 2.18546-4.89561l.00005-80.201921c0-.322718-.16322-.5-.5-.5z" fill="url(#linearGradient4524-4)"/>
    <path d="m-39.811096 59.94691c0 4.46531-3.067448 5.978576-5.549678 7.662246-5.10854 3.46508-13.669156 1.756744-19.450326 1.837764-.081 5.78116 1.723142 12.231893-1.741938 17.340433-1.68367 2.48224-4.847792 5.659577-7.758062 5.659577 2.31803 0 4.74284-1.334761 7.58402-4.084811 9.14197-8.84873 14.36714-11.135349 22.673154-20.297529 1.91895-2.11675 4.24283-3.64188 4.24283-8.11768z" filter="url(#filter1164)" opacity=".4"/>
    <path d="m-127.3111-18.556071c-.33984 0-.5.234618-.5.5v107.96875c0 .82158.67932 1.499511 1.5 1.5l52.500004.0313c.05307.000032 3.273884-.008 3.9635.00005 6.540972-4.50361 18.6373-15.953289 27.58253-24.955099 1.47685-1.65648.4576-.37006 1.45391-1.60745l.00006-82.937501c0-.322718-.16322-.5-.5-.5z" fill="url(#radialGradient5988-0)" opacity=".846535"/>
    <path clip-path="url(#clipPath6093-7-5)" d="m114.4 82.502986c0 4.465301-4.99749 12.609952-7.47972 14.293625-5.10854 3.465079-12.739114 1.52536-18.520284 1.60638-.081 5.781159 1.96586 11.304599-1.49922 16.413139-1.68367 2.48224-9.79051 8.68687-12.70078 8.68687-2.091359 1.5337 3.488204 8.21101 6.734971 5.31989 9.501888-8.46107 35.131683-30.022704 43.350823-39.262889 2.04044-2.29392-4.90514-9.844666-9.88579-7.057015z" filter="url(#filter6171-8)" opacity=".277228" transform="translate(-151.8111 -27.556071)"/>
    <path d="m-39.811096 60.94691c0 4.46531-2.79749 6.40996-5.27972 8.09363-5.10854 3.46508-10.939114 3.32536-16.720284 3.40638-.081 5.78116.16586 9.504599-3.29922 14.613139-1.68367 2.48224-5.29051 5.386871-8.20078 5.386871 2.31803 0 4.443926-1.681712 7.58402-4.084811 9.539351-7.30042 13.204684-10.484303 21.673154-19.297529 1.979575-2.060165 4.24283-3.64188 4.24283-8.11768z" fill="url(#linearGradient3895-3)"/>
    <path d="m-39.792346 61.65643c-.31643 3.8991-3.52291 5.90281-5.85 7.48125-5.10854 3.46508-11.33758 2.32523-17.11875 2.40625-.081 5.78116.85258 10.316459-2.6125 15.424999-1.473211 2.17196-4.099456 4.6601-6.7625 5.250001 1.980459-.362301 3.884931-1.661391 6.26875-3.968751.339117-.38853.574297-.67895 1.10625-1.5 3.46508-5.10854 2.923687-8.465719 3.004687-14.246879 5.78117-.081 11.718023.21196 16.826563-3.25312.46542-.31569 1.59399-1.18775 2.00625-1.6 1.53629-1.53629 2.90171-2.61342 3.13125-5.99375zm-32.34375 30.5625c-.157658.0349-.313437.0414-.46875.0625.156991-.0169.310443-.0335.46875-.0625z" fill="#fff"/>
  </g>
  <g transform="matrix(1.4512107 0 0 1.4512107 78.73497 52.049872)">
    <path d="m90.067703 48.28801c.613642-.692125 4.648657-.363057 8.944253 3.536477 4.337724 3.937759 5.210074 7.748115 4.441394 8.615025-.5003.564284-1.00061 1.128566-1.50092 1.692851-4.461914-4.050501-8.9238-8.101002-13.385691-12.151503.500309-.564283 1.000624-1.128565 1.500964-1.69285z" fill="#bf0000" fill-rule="evenodd"/>
    <path d="m36.000762 124 20.247-9.42653.09417-.10772-13.269004-12.28446-.127672.1459z" fill="#b3925d" fill-rule="evenodd"/>
    <path d="m97.750257 56.002191c-1.025821-.04502-1.882013.614542-2.665637.986566-4.174912 3.698786-21.569273 21.653428-22.000397 22.168708l-17.273332 20.659839-.106627.116066-9.682256 17.6334 23.598527-5.26172 29.942357-36.049248 3.589728-4.294461c.64726-1.199814 1.23861-7.813473-1.74155-12.76732-1.452992-2.415269-2.634989-3.146806-3.660813-3.19183zm5.402363 15.95915c-.0266.04924-.0446.143824-.0711.174098-.0129.01476 1.49247-1.049396.6753-.870498z" fill="url(#linearGradient6028)" fill-rule="evenodd" filter="url(#filter3825)"/>
    <path d="m37.004018 123.01573 18.885171-8.78019.09416-.10769-12.551842-11.60866-.12769.14592z" fill="url(#radialGradient6030)" fill-rule="evenodd"/>
    <path d="m49.164276 108.94499c1.648961 1.50106 2.755448 1.51054 3.34488 2.0471.09525.0867.175312.18851.243795.29167l44.639991-51.266458-6.480524-5.899315-44.724863 51.363483c.214748.0564.415855.13454.602285.30424.538767.49045.717813 1.65124 2.374436 3.15928z" fill="url(#linearGradient6032)"/>
    <path d="m54.219542 109.12044-1.750182 2.00168c.538752.53092.431653 1.46553 1.421976 2.36702 1.067261.97156 1.630178.45849 2.321697 1.08447l1.771382-2.02599z" opacity=".353488"/>
    <path d="m97.156354 59.801933-44.606049 51.227617c.541583.53354.517441 1.37742 1.512824 2.28353 1.072712.97652 1.555044.55628 2.250088 1.18547l44.627263-51.251869z" fill="url(#linearGradient6034)"/>
    <path d="m47.641192 104.81388-.897802 1.02682-.0345.0376c.447512.42018.395724 1.39005 1.878296 2.86086l.08229.0749.586334.53373.0823.0749c1.616252 1.35012 2.54668 1.16726 3.136095 1.7038l.947655-1.09585z" fill="#252525" opacity=".386047"/>
    <path d="m43.884886 101.37497-.940801.95531c.02064.0187-.05311.1047-.03237.12358.423005.38509.412824 1.36825 1.189787 2.20191l.072.0655.318878.29029.04115.0374c.925767.72156 1.702344.46358 2.175362.82926l.940872-1.07609z" fill="#131313" opacity=".353488"/>
    <path d="m44.501995 104.6749c1.032229.92922 1.738227.6105 2.287845 1.11081l44.606065-51.227604-3.824461-3.481452-44.627276 51.251876c.02096.019.04162.0379.06269.0571.42971.39116.455145 1.35294 1.495139 2.28929z" fill="url(#linearGradient6036)"/>
    <rect fill="url(#linearGradient6038)" height="4.252269" transform="matrix(.7409346 .6715772 -.6655662 .7463388 0 0)" width="18.073059" x="99.380959" y="-24.64492"/>
    <ellipse cx="34.677639" cy="7.462277" fill="url(#linearGradient6040)" filter="url(#filter3849)" rx="47.495197" ry=".971422" transform="matrix(.3854946 -.4403693 -1.7345162 -1.5764895 62.874028 110.46407)"/>
    <path d="m106.56087 7.4622769a71.883232.4230493 0 0 1 -71.318597.4230363 71.883232.4230493 0 0 1 -72.438996-.4163905 71.883232.4230493 0 0 1 70.180601-.4295776 71.883232.4230493 0 0 1 73.541512.4096419" fill="url(#radialGradient6042)" transform="matrix(.3184879 -.3665274 -1.2576415 -1.1452705 66.925762 101.47904)"/>
    <path d="m44.721041 119.98334c-1.894932-.77816-4.469372-3.93608-5.787909-5.07837l-2.933131 9.08971z" fill="url(#linearGradient6044)" fill-rule="evenodd"/>
    <path d="m97.676422 50.957862c2.773338 2.157871 4.754818 5.136648 4.863888 5.422718.10904.286071-2.586875-3.046365-4.878244-4.572341-2.273846-1.514326-5.450917-1.552229-5.685693-1.736594-.234782-.184361-1.822614-1.877275-.38221-1.814774 1.506596.06537 3.94013 1.035831 6.082259 2.700991z" fill="url(#linearGradient6046)" fill-rule="evenodd"/>
    <path d="m93.653015 51.592952-2.773744 3.218036 6.482458 5.873697 2.773741-3.186793z" fill="url(#linearGradient6048)"/>
    <rect fill="url(#radialGradient6050)" height="1.708078" transform="matrix(.7404161 .6721488 -.6634233 .7482443 0 0)" width="7.795228" x="104.60918" y="-25.364759"/>
    <rect fill="url(#radialGradient6052)" height="1.162492" transform="matrix(.6942228 .7197602 -.7693435 .6388354 0 0)" width="5.348458" x="94.946716" y="-31.829779"/>
    <rect fill="url(#radialGradient6054)" height="1.164788" transform="matrix(-.7514575 -.6597815 -.5893147 .8079036 0 0)" width="5.3449" x="-119.96733" y="-23.501301"/>
  </g>
</svg>
