<svg height="256" width="256" xmlns="http://www.w3.org/2000/svg" xmlns:xlink="http://www.w3.org/1999/xlink">
  <defs>
    <filter id="filter3834" color-interpolation-filters="sRGB" height="1.064318" width="1.080929" x="-.040464" y="-.032159">
      <feGaussianBlur stdDeviation="1.50075"/>
    </filter>
    <filter id="filter3826" color-interpolation-filters="sRGB" height="1.044321" width="1.055874" x="-.027937" y="-.02216">
      <feGaussianBlur stdDeviation="1.036"/>
    </filter>
    <linearGradient id="linearGradient4524-4" gradientUnits="userSpaceOnUse" x1="-79.8111" x2="-79.8111" y1="-27.556071" y2="88.844839">
      <stop offset="0" stop-color="#eeecec"/>
      <stop offset=".40000001" stop-color="#f4f4f4"/>
      <stop offset="1" stop-color="#f6f5f5"/>
    </linearGradient>
    <filter id="filter1164" color-interpolation-filters="sRGB" height="1.096" width="1.090435" x="-.045217" y="-.048">
      <feGaussianBlur stdDeviation=".65000024"/>
    </filter>
    <linearGradient id="lg1">
      <stop offset="0" stop-color="#fff"/>
      <stop offset="1" stop-color="#fff" stop-opacity="0"/>
    </linearGradient>
    <radialGradient id="radialGradient5988-0" cx="64" cy="64.004021" fx="63.793392" fy="47.274845" gradientTransform="matrix(1.6842105 -.08429519 .06886339 1.3758846 -200.0081 -46.219304)" gradientUnits="userSpaceOnUse" r="47.5" xlink:href="#lg1"/>
    <clipPath id="clipPath6093-7-5">
      <path d="m17.000001 8-.000001 112h61.5c1.675283 0 3.914297-.56468 7-3.6 8.870045-8.72523 16.24047-13.8518 23.49904-21.175957 2.44056-2.462612 3.00096-4.47117 3.00096-6.724043v-80.5z"/>
    </clipPath>
    <filter id="filter6171-8" color-interpolation-filters="sRGB" height="2.02159" width="1.956141" x="-.47807" y="-.510795">
      <feGaussianBlur stdDeviation="10.140743"/>
    </filter>
    <linearGradient id="linearGradient3895-3" gradientUnits="userSpaceOnUse" x1="-60.929087" x2="-54.399928" y1="72.200368" y2="79.119611">
      <stop offset="0" stop-color="#fcfcfc"/>
      <stop offset=".52275378" stop-color="#f8f8f8"/>
      <stop offset=".72337759" stop-color="#f0efef"/>
      <stop offset=".89024991" stop-color="#e3e1e1"/>
      <stop offset="1" stop-color="#cecbcb"/>
    </linearGradient>
    <filter id="filter8004" color-interpolation-filters="sRGB" height="1.091674" width="1.122635" x="-.061318" y="-.045837">
      <feGaussianBlur stdDeviation="2.1377235"/>
    </filter>
    <linearGradient id="linearGradient6111" gradientUnits="userSpaceOnUse" x1="179.29327" x2="184.62646" xlink:href="#XMLID_9_-6" y1="-50.328094" y2="-50.328094"/>
    <linearGradient id="XMLID_9_-6" gradientUnits="userSpaceOnUse" x1="94.343803" x2="86.535599" y1="102.3447" y2="94.536598">
      <stop offset="0" stop-color="#5c5c5c"/>
      <stop offset=".31394675" stop-color="#eff0ef"/>
      <stop offset=".72916669" stop-color="#aaaba9"/>
      <stop offset="1" stop-color="#535551"/>
    </linearGradient>
    <linearGradient id="linearGradient6113" gradientTransform="matrix(1.9999981 0 0 6.9999995 -122.03227 -631.66929)" gradientUnits="userSpaceOnUse" x1="149.32961" x2="154.66281" xlink:href="#XMLID_9_-6" y1="85.334404" y2="85.334404"/>
    <radialGradient id="radialGradient6115" cx="146.66299" cy="120.00019" gradientTransform="matrix(2.0000008 0 0 2.000001 -146.66311 -117.3337)" gradientUnits="userSpaceOnUse" r="5.3332" xlink:href="#XMLID_9_-6"/>
    <linearGradient id="linearGradient6117" gradientUnits="userSpaceOnUse" x1="177.07967" x2="188.72249" xlink:href="#lg1" y1="-52.541744" y2="-9.09009"/>
    <radialGradient id="radialGradient6119" cx="87.5" cy="35.875004" fx="89.841835" fy="49.577999" gradientTransform="matrix(1.5834776 -.20833001 .20832006 1.5834018 -67.697307 -7.915132)" gradientUnits="userSpaceOnUse" r="19.872202">
      <stop offset="0" stop-color="#dbfdff" stop-opacity=".841479"/>
      <stop offset=".55311084" stop-color="#baf5fc" stop-opacity=".916588"/>
      <stop offset=".75562102" stop-color="#83b5eb" stop-opacity=".916895"/>
      <stop offset="1" stop-color="#5987d1" stop-opacity=".964706"/>
    </radialGradient>
    <radialGradient id="radialGradient6121" cx="177.12991" cy="42.65752" gradientTransform="matrix(1.7311303 .19371147 -.19380456 1.7319623 -121.23783 -65.55117)" gradientUnits="userSpaceOnUse" r="32.512764">
      <stop offset="0"/>
      <stop offset="1" stop-opacity="0"/>
    </radialGradient>
    <filter id="filter7286" color-interpolation-filters="sRGB" height="1.050911" width="1.050937" x="-.025468" y="-.025456">
      <feGaussianBlur stdDeviation=".66771187"/>
    </filter>
    <radialGradient id="radialGradient6123" cx="199.99719" cy="96.868515" gradientTransform="matrix(1 0 0 1.0004806 0 -.035878)" gradientUnits="userSpaceOnUse" r="32.512764" xlink:href="#lg1"/>
    <filter id="filter7416" color-interpolation-filters="sRGB" height="1.154012" width="1.154086" x="-.077043" y="-.077006">
      <feGaussianBlur stdDeviation="2.0893418"/>
    </filter>
    <linearGradient id="linearGradient6125" gradientUnits="userSpaceOnUse" x1="165.64815" x2="198.18205" y1="33.308235" y2="89.6586">
      <stop offset="0" stop-color="#fff"/>
      <stop offset="1" stop-color="#555753"/>
    </linearGradient>
    <radialGradient id="radialGradient6127" cx="177.12991" cy="42.65752" gradientTransform="matrix(1 0 0 1.0004806 0 -.035878)" gradientUnits="userSpaceOnUse" r="32.512764" xlink:href="#lg1"/>
    <linearGradient id="linearGradient6129" gradientUnits="userSpaceOnUse" spreadMethod="reflect" x1="183.60056" x2="205.3282" y1="77.033615" y2="114.667">
      <stop offset="0" stop-color="#fff"/>
      <stop offset=".19999996" stop-color="#fff" stop-opacity="0"/>
      <stop offset="1" stop-color="#fff" stop-opacity="0"/>
    </linearGradient>
    <filter id="filter7274" color-interpolation-filters="sRGB" height="1.014558" width="1.014565" x="-.007283" y="-.007279">
      <feGaussianBlur stdDeviation=".19214062"/>
    </filter>
    <filter id="filter7424" color-interpolation-filters="sRGB" height="1.012003" width="1.01201" x="-.006005" y="-.006002">
      <feGaussianBlur stdDeviation=".15467289"/>
    </filter>
    <linearGradient id="linearGradient6133" gradientTransform="matrix(1.0260038 .00517786 -.00530278 1.0507565 -23.530791 -12.329575)" gradientUnits="userSpaceOnUse" x1="101.5314" x2="101.5314" xlink:href="#lg1" y1="18.620571" y2="58.619572"/>
    <radialGradient id="radialGradient6135" cx="94.831596" cy="37.335598" gradientUnits="userSpaceOnUse" r="7.9998" xlink:href="#lg1"/>
    <radialGradient id="radialGradient6137" cx="48.247009" cy="55.47147" gradientUnits="userSpaceOnUse" r="5.3332" xlink:href="#lg1"/>
  </defs>
  <g transform="matrix(2 0 0 -2 296.61038 201.88787)">
    <path d="m-128.8111-19.056071v112h56.187504c5.114947-.238308 32.613203-27.078301 32.775-30.612499.08138-25.126708.0375-56.2589983.0375-81.387501z" filter="url(#filter3834)" opacity=".262376"/>
    <path d="m-128.8111-19.556071v112.2h55.746422c3.098719 0 24.709876-18.512112 30.003672-24.699929 1.602664-1.873324 3.24991-3.03751 3.24991-7.20007v-80.300001z" fill-opacity=".700535" filter="url(#filter3826)"/>
    <path d="m-128.8111-19.556071v112h55.500004c1.675283 0 3.914297-.56468 7-3.6 8.870045-8.72523 16.24047-13.851809 23.49904-21.175959 2.44056-2.46261 3.00096-4.47117 3.00096-6.72404v-80.500001z" fill="#fff"/>
    <path d="m-127.3111-18.556071c-.33984 0-.5.234618-.5.5v107.96875c0 .82158.67932 1.5 1.5 1.5h51.687504c.05307 0 .810384.0234 1.5.0313 1.777664-.0401 3.131974-.75374 4.356035-1.59328 1.051866-.29103 16.649835-13.619589 25.770955-22.809239 1.36239-1.37262 2.18546-3.94817 2.18546-4.89561l.00005-80.201921c0-.322718-.16322-.5-.5-.5z" fill="url(#linearGradient4524-4)"/>
    <path d="m-39.811096 59.94691c0 4.46531-3.067448 5.978576-5.549678 7.662246-5.10854 3.46508-13.669156 1.756744-19.450326 1.837764-.081 5.78116 1.723142 12.231893-1.741938 17.340433-1.68367 2.48224-4.847792 5.659577-7.758062 5.659577 2.31803 0 4.74284-1.334761 7.58402-4.084811 9.14197-8.84873 14.36714-11.135349 22.673154-20.297529 1.91895-2.11675 4.24283-3.64188 4.24283-8.11768z" filter="url(#filter1164)" opacity=".4"/>
    <path d="m-127.3111-18.556071c-.33984 0-.5.234618-.5.5v107.96875c0 .82158.67932 1.499511 1.5 1.5l52.500004.0313c.05307.000032 3.273884-.008 3.9635.00005 6.540972-4.50361 18.6373-15.953289 27.58253-24.955099 1.47685-1.65648.4576-.37006 1.45391-1.60745l.00006-82.937501c0-.322718-.16322-.5-.5-.5z" fill="url(#radialGradient5988-0)" opacity=".846535"/>
    <path clip-path="url(#clipPath6093-7-5)" d="m114.4 82.502986c0 4.465301-4.99749 12.609952-7.47972 14.293625-5.10854 3.465079-12.739114 1.52536-18.520284 1.60638-.081 5.781159 1.96586 11.304599-1.49922 16.413139-1.68367 2.48224-9.79051 8.68687-12.70078 8.68687-2.091359 1.5337 3.488204 8.21101 6.734971 5.31989 9.501888-8.46107 35.131683-30.022704 43.350823-39.262889 2.04044-2.29392-4.90514-9.844666-9.88579-7.057015z" filter="url(#filter6171-8)" opacity=".277228" transform="translate(-151.8111 -27.556071)"/>
    <path d="m-39.811096 60.94691c0 4.46531-2.79749 6.40996-5.27972 8.09363-5.10854 3.46508-10.939114 3.32536-16.720284 3.40638-.081 5.78116.16586 9.504599-3.29922 14.613139-1.68367 2.48224-5.29051 5.386871-8.20078 5.386871 2.31803 0 4.443926-1.681712 7.58402-4.084811 9.539351-7.30042 13.204684-10.484303 21.673154-19.297529 1.979575-2.060165 4.24283-3.64188 4.24283-8.11768z" fill="url(#linearGradient3895-3)"/>
    <path d="m-39.792346 61.65643c-.31643 3.8991-3.52291 5.90281-5.85 7.48125-5.10854 3.46508-11.33758 2.32523-17.11875 2.40625-.081 5.78116.85258 10.316459-2.6125 15.424999-1.473211 2.17196-4.099456 4.6601-6.7625 5.250001 1.980459-.362301 3.884931-1.661391 6.26875-3.968751.339117-.38853.574297-.67895 1.10625-1.5 3.46508-5.10854 2.923687-8.465719 3.004687-14.246879 5.78117-.081 11.718023.21196 16.826563-3.25312.46542-.31569 1.59399-1.18775 2.00625-1.6 1.53629-1.53629 2.90171-2.61342 3.13125-5.99375zm-32.34375 30.5625c-.157658.0349-.313437.0414-.46875.0625.156991-.0169.310443-.0335.46875-.0625z" fill="#fff"/>
  </g>
  <g transform="matrix(1.4872421 -.27290566 .27290566 1.4872421 33.194539 96.25293)">
    <path d="m71.2263 9.781248c-16.1521.02035-30.61855 12.72033-33.1125 29.18125-2.75195 18.16377 9.74248 35.12305 27.90625 37.875 6.72745 1.01926 13.99491-1.37287 19.73125-4.05l3.96875 6.84375-3.09375 1.78125 21.4375 36.750002c1.98093 3.39823 6.3663 4.55657 9.78125 2.59375 3.35945-1.93092 4.53597-6.1588 2.6875-9.53125l-21.53125-36.906252-3.09375 1.75-4.0625-6.96875c6.63833-5.05108 11.0019-12.17083 12.35-21.06875 2.75195-18.16377-9.74248-35.12305-27.90625-37.875-1.70285-.257995-3.39159-.377105-5.0625-.375zm0 1.53125c1.59421-.002 3.21906.0976 4.84375.34375 17.33 2.625627 29.25063 18.82625 26.625 36.15625s-19.095 30.15063-36.425 27.525-29.25063-18.82625-26.625-36.15625c2.37947-15.70531 16.17058-27.849332 31.58125-27.86875z" filter="url(#filter8004)" opacity=".642458"/>
    <g transform="matrix(.34426204 -1.287016 1.2953764 .34459705 -84.946972 253.50492)">
      <rect fill="url(#linearGradient6111)" height="6.583196" opacity=".971015" transform="matrix(.70710678 .70710678 -.70710678 .70710678 0 0)" width="5.3332" x="179.29326" y="-54.244732"/>
      <rect fill="url(#linearGradient6113)" height="31.999203" transform="matrix(.70710678 .70710678 -.70710678 .70710678 0 0)" width="10.666389" x="176.62666" y="-47.66153"/>
      <path d="m157.3294 122.6668a5.3332 5.3332 0 0 1 -2.6666 4.61869 5.3332 5.3332 0 0 1 -5.3332 0 5.3332 5.3332 0 0 1 -2.6666-4.61869h5.3332z" fill="url(#radialGradient6115)" transform="matrix(.70710678 .70710678 -.70710678 .70710678 119.100971 -76.725958)"/>
      <rect fill="url(#linearGradient6117)" height="31.999199" opacity=".971015" transform="matrix(.70710678 .70710678 -.70710678 .70710678 0 0)" width="2.66658" x="179.29326" y="-47.66153"/>
    </g>
    <circle cx="78.33046" cy="30.660536" fill="url(#radialGradient6119)" r="31.736837" transform="matrix(.9887166 .14979813 -.14979813 .9887166 0 0)"/>
    <g transform="matrix(1.0659043 .16149268 -.16149268 1.0659043 -108.40285 -66.830742)">
      <path d="m181.34375 43.179688c-17.38944 0-31.47656 14.087118-31.47656 31.476562s14.08712 31.47656 31.47656 31.47656 31.44531-14.086498 31.44531-31.47656-14.05587-31.476563-31.44531-31.476562zm0 1.640624c16.48273 0 29.83594 13.353213 29.83594 29.835938s-13.35254 29.86719-29.83594 29.86719-29.86719-13.383791-29.86719-29.86719 13.38446-29.835938 29.86719-29.835938z" fill="url(#radialGradient6121)" filter="url(#filter7286)" transform="matrix(.91617705 0 0 .91617705 15.199521 6.258093)"/>
      <path d="m181.34375 42.097656c-17.97497 0-32.55859 14.583628-32.55859 32.558594s14.58362 32.55859 32.55859 32.55859 32.52734-14.584283 32.52734-32.55859-14.55237-32.558594-32.52734-32.558594zm0 3.804688c15.89813 0 28.75391 12.855774 28.75391 28.753906s-12.8565 28.78516-28.75391 28.78516-28.78516-12.887747-28.78516-28.78516 12.88703-28.753906 28.78516-28.753906z" fill="url(#radialGradient6123)" filter="url(#filter7416)" opacity=".540984" transform="matrix(.81712719 0 0 .81712719 33.160106 13.652997)"/>
      <path d="m181.34375 42.09375c-17.9772 0-32.5625 14.5853-32.5625 32.5625s14.5853 32.5625 32.5625 32.5625 32.53125-14.585964 32.53125-32.5625-14.55405-32.5625-32.53125-32.5625zm0 3.8125c15.8959 0 28.75 12.854098 28.75 28.75s-12.85482 28.78125-28.75 28.78125-28.78125-12.886072-28.78125-28.78125 12.88535-28.75 28.78125-28.75z" fill="url(#linearGradient6125)"/>
      <path d="m181.34375 43.376953c-17.28301 0-31.2793 13.99629-31.2793 31.279297s13.99629 31.2793 31.2793 31.2793 31.24805-13.995443 31.24805-31.2793-13.96504-31.279297-31.24805-31.279297zm0 1.246094c16.589 0 30.0332 13.444209 30.0332 30.033203s-13.44328 30.06445-30.0332 30.06445-30.06445-13.474529-30.06445-30.06445 13.47545-30.033203 30.06445-30.033203z" fill="url(#radialGradient6127)" opacity=".519126" transform="matrix(1.0317053 0 0 1.0317053 -5.749097 -2.367074)"/>
      <path d="m181.34375 42.980469c-17.49707 0-31.67578 14.178707-31.67578 31.675781s14.17871 31.67578 31.67578 31.67578 31.64453-14.178323 31.64453-31.67578-14.14746-31.675781-31.64453-31.675781zm0 2.039062c16.37527 0 29.63672 13.261453 29.63672 29.636719s-13.26103 29.66797-29.63672 29.66797-29.66797-13.292286-29.66797-29.66797 13.2927-29.636719 29.66797-29.636719z" fill="url(#linearGradient6129)" filter="url(#filter7274)"/>
      <path d="m181.34375 43.730469c-17.09248 0-30.92578 13.833298-30.92578 30.925781s13.8333 30.92578 30.92578 30.92578 30.89453-13.832031 30.89453-30.92578-13.80205-30.925781-30.89453-30.925781zm0 .539062c16.77922 0 30.38672 13.607504 30.38672 30.386719s-13.60612 30.41797-30.38672 30.41797-30.41797-13.637374-30.41797-30.41797 13.63875-30.386719 30.41797-30.386719z" fill="url(#radialGradient6123)" filter="url(#filter7424)" transform="matrix(.95352862 0 0 .95352862 8.426593 3.469478)"/>
    </g>
    <path d="m73.239375 12.543528c-13.075834-.06598-27.050524 10.525156-27.095053 19.348723-.03239 6.417447 14.439877 9.44439 25.814159 9.501794 9.960657.05026 28.590799-1.823763 28.620869-7.782253.0485-9.606335-14.787352-21.004916-27.339975-21.068264z" fill="url(#linearGradient6133)"/>
    <circle cx="94.831596" cy="37.335598" fill="url(#radialGradient6135)" opacity=".52459" r="7.9998"/>
    <circle cx="48.247009" cy="55.47147" fill="url(#radialGradient6137)" opacity=".52459" r="5.3332"/>
  </g>
</svg>
