<svg height="256" width="256" xmlns="http://www.w3.org/2000/svg" xmlns:xlink="http://www.w3.org/1999/xlink">
  <defs>
    <filter id="filter3834" color-interpolation-filters="sRGB" height="1.064318" width="1.080929" x="-.040464" y="-.032159">
      <feGaussianBlur stdDeviation="1.50075"/>
    </filter>
    <filter id="filter3826" color-interpolation-filters="sRGB" height="1.044321" width="1.055874" x="-.027937" y="-.02216">
      <feGaussianBlur stdDeviation="1.036"/>
    </filter>
    <linearGradient id="linearGradient4524-4" gradientTransform="matrix(2 0 0 -2 -7.01182 257.00001)" gradientUnits="userSpaceOnUse" x1="72" x2="72" y1="0" y2="116.40091">
      <stop offset="0" stop-color="#eeecec"/>
      <stop offset=".40000001" stop-color="#f4f4f4"/>
      <stop offset="1" stop-color="#f6f5f5"/>
    </linearGradient>
    <filter id="filter1164" color-interpolation-filters="sRGB" height="1.096" width="1.090435" x="-.045217" y="-.048">
      <feGaussianBlur stdDeviation=".65000024"/>
    </filter>
    <radialGradient id="radialGradient5988-0" cx="64" cy="64.004021" fx="63.793392" fy="47.274845" gradientTransform="matrix(3.368421 .16859038 .13772678 -2.7517692 -103.40582 294.32648)" gradientUnits="userSpaceOnUse" r="47.5">
      <stop offset="0" stop-color="#fff"/>
      <stop offset="1" stop-color="#fff" stop-opacity="0"/>
    </radialGradient>
    <clipPath id="clipPath6093-7">
      <path d="m17.000001 8-.000001 112h61.5c1.675283 0 3.914297-.56468 7-3.6 8.870045-8.72523 16.24047-13.8518 23.49904-21.175957 2.44056-2.462612 3.00096-4.47117 3.00096-6.724043v-80.5z"/>
    </clipPath>
    <filter id="filter6171-8" color-interpolation-filters="sRGB" height="2.02159" width="1.956141" x="-.47807" y="-.510795">
      <feGaussianBlur stdDeviation="10.140743"/>
    </filter>
    <linearGradient id="linearGradient3895-3" gradientTransform="matrix(2.0239716 0 0 -2.0239716 -.8029 246.97433)" gradientUnits="userSpaceOnUse" x1="86.73793" x2="93.189758" y1="93.621468" y2="100.45876">
      <stop offset="0" stop-color="#fcfcfc"/>
      <stop offset=".52275378" stop-color="#f8f8f8"/>
      <stop offset=".72337759" stop-color="#f0efef"/>
      <stop offset=".89024991" stop-color="#e3e1e1"/>
      <stop offset="1" stop-color="#cecbcb"/>
    </linearGradient>
    <filter id="filter3889" height="1.109716" width="1.405631" x="-.202815" y="-.054858">
      <feGaussianBlur stdDeviation="2.2559242"/>
    </filter>
    <linearGradient id="linearGradient3870" gradientUnits="userSpaceOnUse" x1="253.821438" x2="253.821438" y1="304.06729" y2="143.620916">
      <stop offset="0" stop-color="#c0c0c0"/>
      <stop offset="1" stop-color="#fff"/>
    </linearGradient>
  </defs>
  <path d="m-128.8111-19.056071v112h56.187504c5.114947-.238308 32.613203-27.078301 32.775-30.612499.08138-25.126708.0375-56.2589983.0375-81.387501z" filter="url(#filter3834)" opacity=".262376" transform="matrix(2 0 0 -2 296.61038 201.88787)"/>
  <path d="m-128.8111-19.556071v112.2h55.746422c3.098719 0 24.709876-18.512112 30.003672-24.699929 1.602664-1.873324 3.24991-3.03751 3.24991-7.20007v-80.300001z" fill-opacity=".700535" filter="url(#filter3826)" transform="matrix(2 0 0 -2 296.61038 201.88787)"/>
  <path d="m38.98818 241.00001v-223.999998h111.00001c3.35056 0 7.82859 1.12936 14 7.2 17.74009 17.45046 32.48094 27.703618 46.99808 42.351918 4.88112 4.92522 6.00192 8.94234 6.00192 13.44808v161z" fill="#fff" stroke-width="2"/>
  <path d="m41.98818 239.00001c-.67968 0-1-.46923-1-1v-215.937498c0-1.64316 1.35864-3 3-3h103.37501c.10614 0 1.62077-.0468 3-.0626 3.55533.0802 6.26395 1.50748 8.71207 3.18656 2.10373.58206 33.29967 27.239178 51.54191 45.618478 2.72478 2.74524 4.37092 7.89634 4.37092 9.79122l.0001 160.40384c0 .64544-.32644 1-1 1z" fill="url(#linearGradient4524-4)" stroke-width="2"/>
  <path d="m-39.811096 59.94691c0 4.46531-3.067448 5.978576-5.549678 7.662246-5.10854 3.46508-13.669156 1.756744-19.450326 1.837764-.081 5.78116 1.723142 12.231893-1.741938 17.340433-1.68367 2.48224-4.847792 5.659577-7.758062 5.659577 2.31803 0 4.74284-1.334761 7.58402-4.084811 9.14197-8.84873 14.36714-11.135349 22.673154-20.297529 1.91895-2.11675 4.24283-3.64188 4.24283-8.11768z" filter="url(#filter1164)" opacity=".4" transform="matrix(2 0 0 -2 296.61038 201.88787)"/>
  <path d="m41.98818 239.00001c-.67968 0-1-.46923-1-1v-215.937498c0-1.64316 1.35864-2.999022 3-3l105.00001-.0626c.10614-.000064 6.54777.016 7.927-.0001 13.08194 9.00722 37.2746 31.906578 55.16506 49.910198 2.9537 3.31296.9152.74012 2.90782 3.2149l.00012 165.875c0 .64544-.32644 1-1 1z" fill="url(#radialGradient5988-0)" opacity=".846535" stroke-width="2"/>
  <path clip-path="url(#clipPath6093-7)" d="m114.4 82.502986c0 4.465301-4.99749 12.609952-7.47972 14.293625-5.10854 3.465079-12.739114 1.52536-18.520284 1.60638-.081 5.781159 1.96586 11.304599-1.49922 16.413139-1.68367 2.48224-9.79051 8.68687-12.70078 8.68687-2.091359 1.5337 3.488204 8.21101 6.734971 5.31989 9.501888-8.46107 35.131683-30.022704 43.350823-39.262889 2.04044-2.29392-4.90514-9.844666-9.88579-7.057015z" filter="url(#filter6171-8)" opacity=".277228" transform="matrix(2 0 0 -2 -7.01182 257.00001)"/>
  <path d="m164.33925 218h32.06075m-44.66074 0h9.71191m-31.65117 0h19.05117m-34.79238 0h12.95332m-36.114259 0h20.274609m-29.513667 0h6.352731m-13.552731 0h4.313664m-19.172457 0h11.972457m5.278716-12h-17.251173m26.012106 0h-5.872851m21.594725 0h-12.835547m24.113677 0h-8.39179m20.99179 0h-9.71191m21.23085 0h-8.63085m28.43085 0h-16.91367m33.11367 0h-13.31367m20.03379 0h-3.83379m20.78262 0h-14.06075m-24.36327-12h16.82402m-33.50215 0h13.7918m-27.35508 0h10.67695m-28.91601 0h15.35274m-44.984192 0h26.745122m-47.00918 0h17.377731m-5.173236-12h-12.204495m29.121678 0h-14.030856m38.872258 0h-21.955075m28.796485 0h-3.95507m21.59648 0h-14.75508m23.27695 0h-5.63554m26.75742 0h-18.23555m39.7459 0h-18.62402m12.00762-12h13.8164m-30.0164 0h13.31367m-30.83555 0h14.63555m-17.52188 0h-16.31426m-12.84082 0h9.95274m-28.1918 0h15.35273m-21.594725 0h3.355668m-27.599418 0h21.357423m-29.852928 0h5.609178m74.174422-24h21.0164m-43.93828 0h20.03555m-36.35509 0h13.43321m-32.635544 0h16.31601m-37.655856 0h18.453519m-18.453519-12h23.255856m7.2 0h-4.313673m42.257817 0h-35.057817m55.072267 0h-17.27226m25.67461 0h-5.51602m18.35508 0h-9.95273m37.09687 0h-24.25781m1.8-12h15.25781m-31.45781 0h13.31367m-25.91367 0h9.71367m-26.51133 0h13.91133m-21.11133 0h4.31367m-18.35508 0h11.15508m-23.874604 0h9.833204m-44.6168 0h31.897269m-19.680471-12h-12.216798m32.016798 0h-16.913673m32.635545 0h-12.835545m27.235545 0h-11.51367m23.27695 0h-8.87695m32.75508 0h-20.9918m33.11367 0h-9.23555m21.7336 0h-9.61172m24.01172-11.999999h-6.48985m-12.12187 0h9.23555m-28.55743 0h16.43555m-25.31601 0h5.99414m-17.3918 0h8.51133m-18.22851 0h6.83085m-16.90664 0h7.18946m-17.63087 0h7.55508m-23.39648 0h12.95508m-26.152734 0h10.311327m-17.147466 0h3.949812m-16.428519 0h9.59238m47.04962-24h5.75507m53.88398 12h16.91895m-22.31895-12h25.91895m-44.03848 0h15.23321m-33.23321 0h15.11368m14.28398 12h9.23555m-25.67461 0h13.55273m-26.99648 0h10.55742m-22.67754 0h9.23379m-6.10664-12h6.5918m-29.51895 12h16.91367m-37.072266 0h17.272269m-26.272269 0h6.111918m-19.309572 0h10.309572m29.176173-12h14.269925m-26.3918 0h9.235548m-18.235548 0h6.113673m-24.477543 0h15.477543m3.121875-12h-18.599418m27.838476 0h-6.352731m27.952735 0h-18.713677m27.713677 0h-6.11368m13.31368 0h-4.31368m21.11133 0h-13.91133m30.11133 0h-13.31367m-1.8-12.000002h17.27227m-29.63321 0h9.47461m-22.07461 0h9.71368m-25.91368 0h13.31368m-25.913676 0h9.713673m-39.475197 0h26.875197m39.603513-12h28.91602m-43.07696 0h11.27461m-17.99473 0h3.8338m-17.026176 0h10.304296m-25.308988 0h12.118365m-29.518947 0h14.514255" fill="none" stroke="#b6b6b6" stroke-width="5.6921"/>
  <path d="m54.2 29.066811h102.6l45 42.933214v154.933215h-147.6z" fill="#5fbaff" opacity=".332629" stroke-linejoin="round" stroke-width="13.2816"/>
  <path d="m216.98819 79.99405c0-8.93062-5.59498-12.81992-10.55944-16.18726-10.21708-6.93016-21.87823-6.65072-33.44057-6.81276-.162-11.56232.33172-19.009198-6.59844-29.226278-3.36734-4.96448-10.58102-10.773742-16.40156-10.773742 4.63606 0 8.88785 3.363424 15.16804 8.169622 19.0787 14.60084 26.40937 20.968606 43.34631 38.595058 3.95915 4.12033 8.48566 7.28376 8.48566 16.23536z" fill="url(#linearGradient3895-3)"/>
  <path d="m217.02569 78.57501c-.63286-7.7982-7.04582-11.80562-11.7-14.9625-10.21708-6.93016-22.67516-4.65046-34.2375-4.8125-.162-11.56232 1.70516-20.632918-5.225-30.849998-2.94642-4.34392-8.19891-9.3202-13.525-10.500002 3.96092.724602 7.76986 3.322782 12.5375 7.937502.67823.77706 1.14859 1.3579 2.2125 3 6.93016 10.21708 5.84737 16.931438 6.00937 28.493758 11.56234.162 23.43605-.42392 33.65313 6.50624.93084.63138 3.18798 2.3755 4.0125 3.2 3.07258 3.07258 5.80342 5.22684 6.2625 11.9875zm-64.6875-61.125c-.31532-.0698-.62688-.0828-.9375-.125.31398.0338.62088.067.9375.125z" fill="#fff"/>
  <g transform="translate(-32.120233 -13.32849)">
    <path d="m8 14.652344c-.8614954 0-1.3476563.486161-1.3476562 1.347656v8c0 .861495.4861608 1.347656 1.3476562 1.347656a6.6533318 6.6533318 0 0 1 6.652344 6.652344v64a6.6533318 6.6533318 0 0 1 -6.652344 6.65234c-.8614954 0-1.3476562.48616-1.3476562 1.34766v8c0 .8615.4861608 1.34766 1.3476562 1.34766h24c.861495 0 1.347656-.48616 1.347656-1.34766v-8c0-.8615-.486161-1.34766-1.347656-1.34766a6.6533318 6.6533318 0 0 1 -6.652344-6.65234v-64a6.6533318 6.6533318 0 0 1 6.652344-6.652344c.861495 0 1.347656-.486161 1.347656-1.347656v-8c0-.861495-.486161-1.347656-1.347656-1.347656z" fill-opacity=".734104" fill-rule="evenodd" filter="url(#filter3889)" transform="translate(229.35836 130.56661)"/>
    <path d="m237.35836 144.06661v8h8v80h-8v8h24v-8h-8v-80h8v-8h-8-8z" fill="url(#linearGradient3870)"/>
  </g>
</svg>
