<svg height="256" width="256" xmlns="http://www.w3.org/2000/svg" xmlns:xlink="http://www.w3.org/1999/xlink">
  <defs>
    <linearGradient id="linearGradient3685">
      <stop offset="0" stop-color="#fcfcfc"/>
      <stop offset="1" stop-color="#fcfcfc" stop-opacity="0"/>
    </linearGradient>
    <linearGradient id="linearGradient3657">
      <stop offset="0" stop-color="#f4f0db"/>
      <stop offset="1" stop-color="#f4f0db" stop-opacity="0"/>
    </linearGradient>
    <linearGradient id="linearGradient3621">
      <stop offset="0" stop-color="#fff"/>
      <stop offset="1" stop-color="#fff" stop-opacity="0"/>
    </linearGradient>
    <linearGradient id="linearGradient3207">
      <stop offset="0" stop-color="#fff"/>
      <stop offset="1" stop-color="#252525" stop-opacity="0"/>
    </linearGradient>
    <linearGradient id="linearGradient3129" gradientTransform="matrix(.6503243 .06088511 .083562 .48012959 81.824264 163.46752)" gradientUnits="userSpaceOnUse" x1="108.79048" x2="-33.218544" y1="-174.82219" y2="135.07704">
      <stop offset="0" stop-color="#d8b789"/>
      <stop offset="1" stop-color="#b17f3a"/>
    </linearGradient>
    <linearGradient id="linearGradient3131" gradientTransform="matrix(.6503243 .06088511 .083562 .48012959 90.40521 164.96457)" gradientUnits="userSpaceOnUse" x1="-97.944916" x2="73.430084" y1="-23.21875" y2="-23.21875">
      <stop offset="0" stop-color="#dcc0a1"/>
      <stop offset="1" stop-color="#dcc0a1" stop-opacity="0"/>
    </linearGradient>
    <linearGradient id="linearGradient3154" gradientTransform="matrix(.6503243 .06088511 .083562 .48012959 108.36544 148.61027)" gradientUnits="userSpaceOnUse" x1="60.356251" x2="60.356251" y1="-54.913631" y2="33.209373">
      <stop offset="0" stop-color="#c2a27e"/>
      <stop offset="1" stop-color="#c2a27e" stop-opacity="0"/>
    </linearGradient>
    <radialGradient id="radialGradient3202" cx="-352.85913" cy="-29.344431" gradientTransform="matrix(-.2343078 .4910111 -.3835806 -.1484282 -35.185483 234.29923)" gradientUnits="userSpaceOnUse" r="91.92762">
      <stop offset="0" stop-color="#bea57f"/>
      <stop offset=".5" stop-color="#a6865c"/>
      <stop offset="1" stop-color="#d8ac6e"/>
    </radialGradient>
    <linearGradient id="linearGradient3402" gradientTransform="matrix(.62209221 .21948584 -.21948584 .62209221 288.33819 240.79585)" gradientUnits="userSpaceOnUse" x1="-300.78125" x2="-275.78125" y1="-178.25" y2="-178.25">
      <stop offset="0" stop-color="#f0e0c7"/>
      <stop offset=".25" stop-color="#c5b496"/>
      <stop offset=".5" stop-color="#9b7e56"/>
      <stop offset=".75" stop-color="#c9ad86"/>
      <stop offset="1" stop-color="#e4ccab"/>
    </linearGradient>
    <filter id="filter3427" height="1.007187" width="1.009467" x="-.004672" y="-.00353">
      <feGaussianBlur stdDeviation=".095096535"/>
    </filter>
    <filter id="filter3451" height="1.015595" width="1.007443" x="-.003722" y="-.007797">
      <feGaussianBlur stdDeviation=".020027675"/>
    </filter>
    <filter id="filter3473" height="1.30564" width="1.142158" x="-.071079" y="-.15282">
      <feGaussianBlur stdDeviation=".14342474"/>
    </filter>
    <linearGradient id="linearGradient3584" gradientUnits="userSpaceOnUse" x1="3.453884" x2="109.72025" y1="122.88519" y2="86.646883">
      <stop offset="0" stop-color="#af8d5f"/>
      <stop offset="1" stop-color="#af8d5f" stop-opacity="0"/>
    </linearGradient>
    <filter id="filter3608" height="1.201994" width="1.096255" x="-.051719" y="-.081552">
      <feGaussianBlur stdDeviation=".39548387"/>
    </filter>
    <linearGradient id="linearGradient3627" gradientUnits="userSpaceOnUse" x1="86.41205539679" x2="139.43703416875" xlink:href="#linearGradient3621" y1="155.18046624117" y2="155.18046624117"/>
    <linearGradient id="linearGradient3651" gradientUnits="userSpaceOnUse" x1="109.97449704878" x2="120.08536353268" xlink:href="#linearGradient3657" y1="117.18311022728" y2="128.57961611065"/>
    <linearGradient id="linearGradient3663" gradientTransform="matrix(1.7487115 .61697804 -.61697804 1.7487115 -2.929303 11.801631)" gradientUnits="userSpaceOnUse" x1="71.54351" x2="92.716805" xlink:href="#linearGradient3657" y1="-57.658264" y2="-12.442841"/>
    <linearGradient id="linearGradient3667" gradientTransform="matrix(1.7487115 .61697804 -.61697804 1.7487115 -2.929303 11.801631)" gradientUnits="userSpaceOnUse" x1="108.72569" x2="92.849922" y1="34.642288" y2="1.423187">
      <stop offset="0"/>
      <stop offset="1" stop-color="#f4f0db" stop-opacity="0"/>
    </linearGradient>
    <linearGradient id="linearGradient3691" gradientUnits="userSpaceOnUse" x1="48.71875" x2="61.71875" xlink:href="#linearGradient3685" y1="60.941544" y2="60.941544"/>
    <linearGradient id="linearGradient3699" gradientUnits="userSpaceOnUse" x1="65.83002" x2="78.83002" xlink:href="#linearGradient3685" y1="53.736638" y2="53.736638"/>
    <linearGradient id="linearGradient3208" gradientUnits="userSpaceOnUse" x1="62.77597943788" x2="62.77597943788" xlink:href="#linearGradient5826" y1="81.93865889712" y2="-9.74533850014"/>
    <linearGradient id="linearGradient3200" gradientUnits="userSpaceOnUse" x1="59.13524170017" x2="59.13524170017" y1="91.73026967169" y2="41.25513545881">
      <stop offset="0" stop-color="#f00"/>
      <stop offset="1" stop-color="#7f0000"/>
    </linearGradient>
    <linearGradient id="linearGradient3194" gradientTransform="matrix(1.381268 0 0 .6872743 5.540478 5.540485)" gradientUnits="userSpaceOnUse" x1="68.313011" x2="51.544849" y1="109.97649" y2="32.750854">
      <stop offset="0" stop-color="#f4f5f8"/>
      <stop offset="1" stop-color="#fdfdfe"/>
    </linearGradient>
    <linearGradient id="linearGradient3191" gradientUnits="userSpaceOnUse" x1="51.5911358119" x2="51.5911358119" xlink:href="#linearGradient3366" y1="26.72081798575" y2="74.09136629706"/>
    <linearGradient id="linearGradient3188" gradientUnits="userSpaceOnUse" x1="61.72658398666" x2="60.8660801659" y1="76.73918945221" y2="26.59814950463">
      <stop offset="0" stop-color="#fff" stop-opacity="0"/>
      <stop offset="1" stop-color="#fff"/>
    </linearGradient>
    <linearGradient id="linearGradient5275" gradientUnits="userSpaceOnUse" spreadMethod="reflect" x1="88.60625" x2="91.575107" xlink:href="#linearGradient3207" y1="13.510336" y2="13.510336"/>
    <linearGradient id="linearGradient5273" gradientUnits="userSpaceOnUse" spreadMethod="reflect" x1="31.60625" x2="34.575107" xlink:href="#linearGradient3207" y1="13.510336" y2="13.510336"/>
    <radialGradient id="radialGradient5265" cx="-36.592777" cy="90.072952" gradientTransform="matrix(.4576062 0 0 .782313 -19.847694 18.82067)" gradientUnits="userSpaceOnUse" r="25.986174">
      <stop offset="0"/>
      <stop offset="1" stop-opacity="0"/>
    </radialGradient>
    <linearGradient id="linearGradient5263" gradientUnits="userSpaceOnUse" x1="59.999996" x2="57.434441" y1="92.973083" y2="55.07938">
      <stop offset="0" stop-color="#fff5e4"/>
      <stop offset=".25" stop-color="#ffecd0"/>
      <stop offset=".5" stop-color="#ffd390"/>
      <stop offset="1" stop-color="#ffc46a"/>
    </linearGradient>
    <linearGradient id="linearGradient5261" gradientUnits="userSpaceOnUse" spreadMethod="reflect" x1="88.60625" x2="91.575107" xlink:href="#linearGradient3366" y1="13.510336" y2="13.510336"/>
    <linearGradient id="linearGradient5257" gradientUnits="userSpaceOnUse" x1="304.88663" x2="345.62039" xlink:href="#linearGradient3489" y1="385.86127" y2="384.62384"/>
    <linearGradient id="linearGradient5255" gradientTransform="scale(1.0975951 .9110828)" gradientUnits="userSpaceOnUse" x1="26.091133" x2="31.500689" xlink:href="#linearGradient3489" y1="14.856744" y2="14.856744"/>
    <linearGradient id="linearGradient5253" gradientTransform="scale(1.0975951 .9110828)" gradientUnits="userSpaceOnUse" x1="26.091133" x2="31.500689" xlink:href="#linearGradient3621" y1="14.856744" y2="14.856744"/>
    <linearGradient id="linearGradient3366">
      <stop offset="0" stop-color="#ff8787"/>
      <stop offset="1" stop-color="#ff8787" stop-opacity="0"/>
    </linearGradient>
    <linearGradient id="linearGradient5826">
      <stop offset="0" stop-color="#810000"/>
      <stop offset="1" stop-color="#c50000"/>
    </linearGradient>
    <filter id="filter3354" height="1.044866" width="1.044866" x="-.022433" y="-.022433">
      <feGaussianBlur stdDeviation=".45754832"/>
    </filter>
    <filter id="filter3477" height="1.28034" width="1.232702" x="-.116351" y="-.14017">
      <feGaussianBlur stdDeviation=".28784801"/>
    </filter>
    <filter id="filter3549" height="1.318829" width="1.245312" x="-.122653" y="-.162916">
      <feGaussianBlur stdDeviation="2.5695681"/>
    </filter>
    <clipPath id="clipPath3559">
      <path d="m-64.510272 10.75c-1.042316.0084-2.040208.423209-2.78125 1.15625l-16.96875 16.96875c-1.561474 1.562119-1.561474 4.094131 0 5.65625l25.4375 25.46875-25.4375 25.46875c-1.561474 1.562119-1.561474 4.094131 0 5.65625l16.96875 16.96875c1.562119 1.56147 4.094131 1.56147 5.65625 0l25.46875-25.4375 25.46875 25.4375c1.5621191 1.56147 4.0941311 1.56147 5.6562501 0l16.9687499-16.96875c1.56147-1.562119 1.56147-4.094131 0-5.65625l-25.4375-25.46875 25.4375-25.46875c1.56147-1.562119 1.56147-4.094131 0-5.65625l-16.9687499-16.96875c-1.562119-1.561474-4.094131-1.561474-5.6562501 0l-25.46875 25.4375-25.46875-25.4375c-.764077-.756011-1.800247-1.172731-2.875-1.15625zm31.1875 63.40625c-.751409-.759464-1.775386-1.18681-2.84375-1.18681s-2.092341.427346-2.84375 1.18681z"/>
    </clipPath>
    <linearGradient gradientUnits="userSpaceOnUse" x1="-37.422805" x2="-37.422805" xlink:href="#linearGradient5826" y1="78.411346" y2="-15.688621"/>
    <linearGradient id="linearGradient3489">
      <stop offset="0" stop-color="#765c44"/>
      <stop offset="1" stop-color="#765c44" stop-opacity="0"/>
    </linearGradient>
    <linearGradient id="linearGradient5670" gradientTransform="matrix(.6503243 .0608851 .08356202 .48012959 594.53266 194.1265)" gradientUnits="userSpaceOnUse" x1="-781.8573" x2="-742.67065" xlink:href="#linearGradient3621" y1="20.04932" y2="20.04932"/>
    <filter id="filter5696" height="1.314742" width="1.12042" x="-.06021" y="-.157371">
      <feGaussianBlur stdDeviation="2.6569206"/>
    </filter>
  </defs>
  <g opacity=".88587" transform="matrix(1.5128818 0 0 1.5128818 80.557229 79.857735)">
    <path d="m36.38397 16.014487c-1.015554.0081-1.987832.412338-2.709842 1.126563l-16.533086 16.533086c-1.521389 1.522007-1.521384 3.989015-.000004 5.511024l24.784409 24.814857-24.784404 24.814852c-1.521385 1.522003-1.521385 3.989016 0 5.511019l16.533086 16.533082c1.522004 1.52139 3.989016 1.52139 5.511029.00001l24.814851-24.784401 24.814848 24.784401c1.522012 1.52138 3.989019 1.52138 5.511025-.00001l16.533088-16.533081c1.52138-1.522005 1.52138-3.989012 0-5.511024l-24.784398-24.814848 24.784408-24.814852c1.52137-1.522014 1.52137-3.989022-.00001-5.511033l-16.533085-16.533085c-1.522009-1.521381-3.989017-1.521385-5.511024.000004l-24.814852 24.784404-24.814857-24.784409c-.744461-.736601-1.754021-1.142617-2.801182-1.126559zm30.386773 61.778321c-.732115-.739963-1.7298-1.156336-2.770734-1.156336-1.040934.000001-2.038624.416372-2.770738 1.15634z" fill="url(#linearGradient3208)"/>
    <path clip-path="url(#clipPath3559)" d="m-62.57895 106.7868 26.162951-26.870061 25.809397 26.516501-25.809397-40.305083z" fill-rule="evenodd" filter="url(#filter3549)" stroke="#000" stroke-width=".493731" transform="matrix(.9743255 0 0 .9743255 99.290143 5.540481)"/>
    <path d="m31.7 16 2.875-3.375c-1.051205-1.695758-3.935136-2.288018-5.9375-.3125l2.8125 3.375z" fill="url(#linearGradient5253)" fill-rule="evenodd" filter="url(#filter3477)" opacity=".498127" transform="matrix(0 1.8163775 -1.8163775 0 130.55195 34.179955)"/>
    <path d="m31.7 16 2.875-3.375c-1.051205-1.695758-3.935136-2.288018-5.9375-.3125l2.8125 3.375z" fill="url(#linearGradient5255)" fill-rule="evenodd" filter="url(#filter3477)" opacity=".790262" transform="matrix(1.7938181 0 0 -1.7938181 -20.276758 130.94405)"/>
    <path d="m31.7 16 2.875-3.375c-1.051205-1.695758-3.935136-2.288018-5.9375-.3125l2.8125 3.375z" fill="url(#linearGradient5257)" fill-rule="evenodd" filter="url(#filter3477)" opacity=".498127" transform="matrix(0 1.6448195 1.6448195 0 -.724353 39.584706)"/>
    <path d="m91.558091 23.43728-27.558085 27.558085-27.558082-27.558081-13.004648 13.004648 27.558082 27.558081-27.558089 27.558089 13.004655 13.004638 27.55808-27.55808 27.558084 27.55808 13.004642-13.004644-27.558078-27.558084 27.558078-27.558083z" fill="url(#linearGradient3200)" opacity=".921348"/>
    <path d="m88.7 16 2.875-3.375c-1.051205-1.695758-3.935136-2.288018-5.9375-.3125l2.8125 3.375z" fill="url(#linearGradient5261)" fill-rule="evenodd" filter="url(#filter3477)" opacity=".790262" transform="matrix(1.6448195 0 0 -1.6448195 -53.800876 129.5366)"/>
    <path clip-path="url(#clipPath3559)" d="m-62.57895 106.7868 26.162951-26.870061 25.809397 26.516501-25.809397-40.305083z" fill="url(#radialGradient5265)" fill-rule="evenodd" filter="url(#filter3549)" transform="matrix(.9743255 0 0 -.9743255 99.290147 122.00005)"/>
    <path d="m31.7 16 2.875-3.375c-1.051205-1.695758-3.935136-2.288018-5.9375-.3125l2.8125 3.375z" fill="url(#linearGradient5273)" fill-rule="evenodd" filter="url(#filter3477)" opacity=".790262" transform="matrix(1.4958209 0 0 1.4958209 -10.888668 .614396)"/>
    <path d="m88.7 16 2.875-3.375c-1.051205-1.695758-3.935136-2.288018-5.9375-.3125l2.8125 3.375z" fill="url(#linearGradient5275)" fill-rule="evenodd" filter="url(#filter3477)" opacity=".790262" transform="matrix(1.5356935 0 0 1.5356935 -44.142789 .237756)"/>
    <path d="m88.284271 18.368396-28.284271 28.28427-28.284271-28.28427-13.347333 13.347333 28.28427 28.284271-28.28427 28.284271 13.347333 13.347339 28.284271-28.284276 28.284271 28.284276 13.347339-13.347339-28.284276-28.284271 28.284276-28.284271z" style="opacity:.921348;fill:none;stroke-width:1.53953;stroke-linecap:round;stroke-linejoin:round;stroke-dashoffset:1.0878;stroke:url(#linearGradient5263);filter:url(#filter3354)" transform="matrix(.9743255 0 0 .9743255 5.540478 5.540485)"/>
    <path d="m36.427153 23.374602-.730744.730744-12.272136 12.272136 12.759296-11.784977 27.817754 26.405744 27.29253-26.405743 10.932447 10.932441c-.0956.494517-.22471.974139-.36538 1.461486l-11.845002 13.79366c-10.682815 5.325801-25.578562 10.57913-41.593244 10.59579l.274024.274023c.459478.0054.908174.03045 1.370152.03046 16.062749-.000001 27.107879-3.307858 37.817731-8.64714l15.742309-15.742316c.0648-.224563.12493-.446354.18269-.669851.0676-.261529.13113-.52498.18269-.791634l-12.454832-12.454823-.730744.730745-26.805371 26.892902z" fill="url(#linearGradient3194)"/>
    <path d="m36.444861 23.441989-13.002879 13.00288 25.272433 25.272433c.459468.0054.908166.03045 1.370144.03045 16.062751-.000003 27.107878-3.307858 37.817731-8.64714l15.74232-15.742304c.14067-.487351.26975-.966977.36537-1.461494l-12.454833-12.454825-27.555142 27.555142z" fill="url(#linearGradient3191)"/>
    <path d="m36.427153 23.374602-.730744.730744-12.272136 12.272136 12.759296-11.784977 27.824156 28.24391-.0064-1.838166.0097 1.824011 27.282847-28.229754 10.932448 10.932441c-.0956.494517-.22471.974139-.36538 1.461486l-11.845003 13.79366c-10.682815 5.325801-25.578562 10.57913-41.593244 10.59579l.274024.274023c.459478.0054.908174.03045 1.370152.03046 16.062749-.000001 27.107879-3.307858 37.817731-8.64714l15.74229-15.742316c.0648-.224563.12493-.446354.18269-.669851.0676-.261529.13113-.52498.18269-.791634l-12.454832-12.454823-.730744.730745-26.805371 26.892902z" fill="url(#linearGradient3188)"/>
  </g>
  <path d="m160.51971 6.7172503c7.03843-1.6192166 11.53086 1.4960917 15.55235 5.4871577l-33.54679 95.082212-15.55234-5.48715z" style="stroke:#000;stroke-width:.741744;stroke-linecap:round;stroke-linejoin:round;stroke-dashoffset:4.15;stroke-opacity:.455621;fill:url(#linearGradient3402)"/>
  <path d="m160.51971 6.7172503c7.03843-1.6192166 11.53086 1.4960917 15.55235 5.4871577l-33.54679 95.082212-15.55234-5.48715z" fill="url(#linearGradient3667)"/>
  <path d="m160.51971 6.7172503c7.03843-1.6192166 11.53086 1.4960917 15.55235 5.4871577l-33.54679 95.082212-15.55234-5.48715z" fill="url(#linearGradient3663)"/>
  <path d="m55.382038 123.29951 50.530142-24.34878c8.01526-27.177166-56.391335-.95898-80.36121-.23423l-24.859223 12.70583 6.076699-.82864 6.570201-2.48297-5.969896 4.45624 6.482548-.43531.0987 2.88146 2.150783-4.14026-3.531851 5.52132s-1.025305 1.77955 1.184404.95091 7.930644-.12226 7.930644-.12226l-3.559104 1.41569 9.912016-.0346 2.408583 2.66123 9.744815-.1753-4.969634 1.39433 3.588566.53916-.82864 1.10486 7.457767-2.48593-4.204339 4.58146 6.966474-.99068-3.038349 1.93349z" fill="url(#linearGradient3584)" fill-rule="evenodd" filter="url(#filter5696)" transform="matrix(1.8543607 0 0 1.8543607 28.523084 2.451807)"/>
  <path d="m66.64518 50.081027c-3.574743-.851161-1.693131 4.198669-2.938631 5.96354-1.183833 1.677489-5.285784 1.72654-7.150397 3.183852-3.167198 2.475356-5.724336 5.523193-7.945041 8.614156-2.514232 3.499524-3.896335 7.571119-6.259761 11.157307-3.141688 4.767094-6.600767 9.393778-10.255571 13.902535l-10.230172 12.620493 5.970421-5.679694-5.115082 6.310244 4.966885-4.30574-4.642245 6.17103 2.656354.98265 2.053654.37576.447432 1.14283-2.70716 1.58146 5.215314 1.40571s2.519434-1.23203 3.335253-2.2566 7.81518-9.36028 7.81518-9.36028l-9.34942 11.96899 3.659888-.39131.635153.79342 2.973927 1.37937 6.306343-8.03361-4.317608 8.03631 2.306304.39942.602696.60689 1.923806-.37035 1.808072 1.82068-.31052 1.07187 4.371254-3.44405-.964013 3.02909 1.761488-1.30302.927326 2.4722 1.450968-.23113.985199 1.37665 1.418509-.41766-.09034.90899 2.331712-.88263 1.960495-5.87163.223025 6.9935 2.908999 1.00631 2.386748-9.13454-1.033167 8.34381 6.125624-39.060346c.686776-4.379252 2.498577-8.51223 2.715608-12.957039.127823-2.617853-1.33457-5.521817-1.681053-8.230948-.112716-.881335.183299-1.698458.303463-2.540448.215761-1.511929 1.552191-3.452115.704307-4.521312-.691412-.871881-3.546368-3.504099-8.261228-4.62673z" fill="url(#radialGradient3202)" fill-rule="evenodd" filter="url(#filter3427)" stroke="#000" stroke-width=".058639" transform="matrix(1.89025 0 0 1.89025 1.918864 4.198232)"/>
  <path d="m125.97983 99.53032c-1.57444 2.27771-3.62039 4.40841-4.80884 6.94433-.66341 1.41559-.72799 3.07997-.91474 4.62266s-.49135 2.95688-1.50228 3.88872c-1.38002 1.27205-3.74521 2.0039-6.22054 2.73852-2.47532.73461-5.05248 1.46425-6.73269 2.8972-5.17047 4.40962-8.341335 10.29752-11.973292 15.63114-5.902959 8.66862-9.897064 18.26887-16.642034 26.36704-12.54214 15.05837-27.553721 28.82202-41.350921 43.25593l1.026238.61266c13.777613-14.41342 28.787962-28.18253 41.36602-43.28403 6.820147-8.18843 10.833294-17.81689 16.692557-26.42135 3.654968-5.3674 6.810922-11.19076 11.857152-15.49442 1.50347-1.28222 3.92074-2.01614 6.39822-2.7514 2.47747-.73525 5.00863-1.47311 6.57011-2.91243 1.20038-1.10646 1.51334-2.65067 1.7038-4.22407.19046-1.57341.26523-3.19148.86217-4.46523 1.13553-2.423 3.13056-4.54769 4.74061-6.87692z" fill="#926b3f" fill-rule="evenodd"/>
  <path d="m125.73986 99.803044c-1.5664 2.202876-3.4135 4.250896-4.49583 6.560366-.59694 1.27375-.67171 2.89183-.86217 4.46523s-.50343 3.11761-1.70381 4.22408c-1.56147 1.43931-4.09263 2.17717-6.5701 2.91242-2.47748.73526-4.89475 1.46918-6.39822 2.75141-5.04624 4.30365-8.202186 10.12702-11.857154 15.49442-5.859263 8.60445-9.872413 18.23291-16.692557 26.42134-12.578058 15.1015-27.588407 28.87061-41.36602 43.28404l.08356.48013c13.777613-14.41343 28.787962-28.18254 41.36602-43.28404 6.820144-8.18843 10.833294-17.81689 16.692557-26.42134 3.654968-5.36741 6.810924-11.19077 11.857154-15.49442 1.50347-1.28223 3.92074-2.01615 6.39822-2.75141 2.47747-.73525 5.00863-1.47311 6.57011-2.91242 1.20038-1.10647 1.51334-2.65068 1.7038-4.22408s.26523-3.19148.86217-4.46523c1.13553-2.423 3.13055-4.54769 4.74061-6.876919z" fill="url(#linearGradient3131)" fill-rule="evenodd"/>
  <path d="m127.33267 99.656976c-1.57445 2.277714-3.62039 4.408414-4.80884 6.944324-.66342 1.4156-.728 3.07998-.91474 4.62267-.18675 1.54269-.49135 2.95687-1.50228 3.88871-1.38002 1.27205-3.74522 2.00391-6.22054 2.73852-2.47532.73462-5.05248 1.46425-6.73269 2.89721-5.17048 4.40961-8.341338 10.29752-11.973295 15.63114-5.902959 8.66862-9.897065 18.26886-16.642035 26.36704-12.542142 15.05837-27.55372 28.82201-41.35092 43.25593l.650324.0609c13.7972-14.43391 28.808779-28.19756 41.35092-43.25593 6.74497-8.09817 10.739076-17.69841 16.642035-26.36703 3.631957-5.33362 6.802821-11.22153 11.973301-15.63115 1.6802-1.43295 4.25736-2.16259 6.73269-2.8972 2.47532-.73462 4.84051-1.46647 6.22053-2.73852 1.01093-.93184 1.31554-2.34603 1.50228-3.88872.18675-1.54269.25133-3.20707.91474-4.62266 1.15418-2.46278 3.10812-4.54716 4.6625-6.751396z" fill="#4a341b" fill-rule="evenodd"/>
  <path d="m137.48557 105.15451c-3.42684 3.48397-6.05117 7.47855-10.08443 10.2879-4.36778 3.04235-12.27684 3.94699-15.99958 7.88916-4.82243 5.10667-5.9651 12.36144-8.83169 18.40487-2.45683 5.17962-4.436765 10.53633-7.26128 15.48191-5.109831 8.94706-11.877719 17.23025-16.674846 26.40825-3.735254 7.14638-5.318852 15.13452-8.762423 22.24885-1.87232 3.86818-4.858722 7.30865-7.335997 11.03228l1.509325.74645c2.437824-3.66434 5.465157-7.13439 7.399009-11.1297 3.501053-7.23308 5.08063-15.20554 8.747323-22.22074 4.747195-9.08247 11.503332-17.3711 16.657135-26.39515 2.867056-5.02006 4.836714-10.38709 7.273774-15.52502 2.93247-6.18234 4.12321-13.35749 8.70566-18.21004 3.32816-3.52432 11.09319-4.46476 15.84018-7.77125 4.23341-2.94875 6.88159-6.97475 10.22873-10.3777z" fill="url(#linearGradient3129)" fill-rule="evenodd"/>
  <path d="m137.39609 104.87353c-3.31877 3.38989-5.97285 7.37736-10.18083 10.3084-4.74698 3.30649-12.51201 4.24693-15.84017 7.77125-4.58245 4.85255-5.77319 12.0277-8.70566 18.21004-2.43706 5.13793-4.406716 10.50495-7.273778 15.52502-5.153802 9.02404-11.909933 17.31267-16.657134 26.39514-3.666694 7.01521-5.246271 14.98767-8.747324 22.22075-1.933851 3.99531-4.961185 7.46535-7.399009 11.1297l-.610815-.29334c-.03112.0464-.06486.0921-.09582.13862l1.509325.74645c2.437824-3.66434 5.465157-7.13439 7.399009-11.1297 3.501054-7.23307 5.08063-15.20554 8.747324-22.22074 4.747194-9.08247 11.503332-17.3711 16.657134-26.39515 2.867056-5.02006 4.836708-10.38709 7.273768-15.52502 2.93247-6.18234 4.12322-13.35749 8.70567-18.21004 3.32815-3.52431 11.09319-4.46476 15.84017-7.77125 4.23341-2.94875 6.8816-6.97475 10.22874-10.37771z" fill="#ead7bd" fill-rule="evenodd"/>
  <path d="m138.69707 104.98687c-.34643 3.48601.13074 7.22769-.99693 10.23836-.33318.88954-1.36083 1.59873-2.40851 2.35744-1.04769.7587-2.12284 1.57033-2.35311 2.79064-1.25052 6.6271 1.96785 14.67401-.14654 20.753-3.01753 8.6756-10.46397 15.95867-15.48717 24.15791-4.53015 7.39445-8.0536 15.24544-13.00236 22.35372-4.518716 6.49058-11.068786 12.04634-15.541442 18.67702-3.803762 5.63905-6.095013 11.96812-9.118474 17.90572l1.165316.49285c3.045319-5.98053 5.339408-12.29185 9.088274-17.84951 4.405967-6.53181 10.963186-12.06341 15.546666-18.64701 4.99136-7.16948 8.53394-15.02841 13.03779-22.37993 4.96733-8.10804 12.44615-15.4139 15.52724-24.27223 2.22413-6.39449-1.04752-14.48854.15119-20.84112.17436-.92399 1.08591-1.6492 2.12139-2.39907s2.18767-1.52123 2.61525-2.66279c1.19982-3.20328.71554-6.99391 1.05211-10.38079z" fill="#977248" fill-rule="evenodd"/>
  <path d="m138.1016 104.50604c-.34642 3.48602.13074 7.2277-.99693 10.23837-.33318.88953-1.36083 1.59872-2.40851 2.35743s-2.12284 1.57034-2.35311 2.79065c-1.25051 6.62709 1.96785 14.67401-.14653 20.753-3.01754 8.67559-10.46397 15.95866-15.48717 24.1579-4.53015 7.39446-8.05361 15.24545-13.00236 22.35372-4.518721 6.49058-11.068791 12.04634-15.541447 18.67703-3.803762 5.63904-6.095014 11.96811-9.118474 17.90572l1.165316.49285c3.045319-5.98054 5.339408-12.29185 9.088274-17.84951 4.405966-6.53181 10.963181-12.06341 15.546671-18.64702 4.99136-7.16947 8.53393-15.02841 13.03778-22.37992 4.96733-8.10805 12.44615-15.4139 15.52725-24.27223 2.22412-6.39449-1.04753-14.48855.15119-20.84112.17435-.92399 1.0859-1.6492 2.12138-2.39908 1.03548-.74987 2.18768-1.52123 2.61526-2.66278 1.19981-3.20329.71553-6.99392 1.0521-10.3808z" fill="url(#linearGradient3154)" fill-rule="evenodd"/>
  <path d="m142.98399 107.85302c-.0281 2.58542.48487 5.26671-.0856 7.54889-.28386 1.13558-1.1 2.16792-1.89386 3.24691-.79386 1.079-1.54955 2.21805-1.61286 3.59793-.32812 7.15041 2.54984 15.00745 2.17796 22.04808-.55077 10.42692-3.42939 20.41466-4.96878 30.72178-1.39521 9.34185-2.16687 18.84333-3.80834 28.08515-2.11023 11.88109-4.96981 23.56251-7.46028 35.35918l1.15691.32971c2.48799-11.78495 5.36356-23.46752 7.47799-35.37229 1.64777-9.27727 2.41433-18.78379 3.80574-28.10015 1.53197-10.25746 4.42585-20.24998 4.98126-30.76489.38145-7.22134-2.52074-15.09486-2.2009-22.06498.0538-1.17233.74436-2.21597 1.52806-3.28116s1.67527-2.14633 1.99956-3.44365c.61353-2.45448.0553-5.18558.0824-7.68202z" fill="#613f23" fill-rule="evenodd"/>
  <path d="m142.12839 107.34785c-.0281 2.58541.48488 5.2667-.0856 7.54888-.28385 1.13558-1.1 2.16792-1.89386 3.24691-.79386 1.079-1.54955 2.21805-1.61286 3.59794-.32811 7.1504 2.54985 15.00744 2.17796 22.04807-.55077 10.42692-3.42938 20.41466-4.96877 30.72178-1.39521 9.34185-2.16687 18.84333-3.80835 28.08515-2.11023 11.88109-4.96981 23.56252-7.46028 35.35918l1.15692.32971c2.48799-11.78494 5.36355-23.46752 7.47799-35.37228 1.64777-9.27728 2.41433-18.7838 3.80573-28.10016 1.53197-10.25746 4.42585-20.24998 4.98127-30.76489.38145-7.22134-2.52074-15.09486-2.2009-22.06498.0538-1.17233.74435-2.21597 1.52805-3.28116s1.67527-2.14633 1.99956-3.44365c.61354-2.45448.0553-5.18558.0824-7.68202z" fill="#ceb58e" fill-rule="evenodd"/>
  <path d="m139.31437 105.11829c-.85628 1.2871-1.857 2.54266-2.61162 3.94721-.7594 1.41346-.69056 3.13299-1.56064 3.89801-.1968.17304-.89543.26648-1.74286.32389-.84744.0574-1.9151.089-2.38831.75054-1.49542 2.09061-1.82638 5.02263-2.05314 7.61559-.25752 2.94464 1.05826 6.10628.59278 8.68985-.92787 5.15116-3.35315 9.98942-4.88638 15.11387-3.62413 12.11277-7.72288 24.11231-10.56021 36.50063-3.75724 16.40488-6.12509 33.21187-9.18609 49.79483l1.48991.40516c3.06466-16.60283 5.44307-33.39925 9.19131-49.76482 2.82631-12.34022 6.92092-24.31208 10.55034-36.44252 1.50983-5.04624 3.94154-9.90128 4.89364-15.18699.52184-2.89708-.81884-6.09486-.58551-8.76296.22508-2.57375.60313-5.41358 1.93291-7.27262.12941-.18092.69857-.27404 1.52193-.32982.82335-.0558 1.84999-.0622 2.47277-.60979 1.29354-1.13735 1.13215-2.96143 1.74501-4.10214.71186-1.32497 1.69998-2.56607 2.58143-3.891z" fill="#83653d" fill-rule="evenodd"/>
  <path d="m138.49692 104.09714c-.85628 1.28711-1.857 2.54266-2.61162 3.94721-.7594 1.41347-.69055 3.13299-1.56064 3.89802-.1968.17304-.89543.26648-1.74286.32389-.84743.0574-1.9151.089-2.38831.75053-1.49542 2.09062-1.82638 5.02263-2.05314 7.6156-.25752 2.94464 1.05827 6.10627.59278 8.68984-.92786 5.15116-3.35314 9.98943-4.88638 15.11387-3.62413 12.11278-7.72288 24.11231-10.56021 36.50064-3.75724 16.40488-6.12509 33.21186-9.18609 49.79482l1.48991.40517c3.06467-16.60284 5.44308-33.39926 9.19131-49.76482 2.82631-12.34022 6.92092-24.31209 10.55034-36.44252 1.50983-5.04624 3.94154-9.90128 4.89364-15.18699.52185-2.89708-.81884-6.09486-.58551-8.76297.22508-2.57374.60313-5.41358 1.93291-7.27262.12941-.18092.69857-.27403 1.52193-.32982.82335-.0558 1.84999-.0622 2.47277-.60978 1.29354-1.13735 1.13215-2.96143 1.74502-4.10215.71185-1.32496 1.69997-2.56606 2.58142-3.891z" fill="#ab6c40" fill-rule="evenodd"/>
  <path d="m54.729951 212.00604c2.505989-2.71157-3.129508.31799-1.010623-2.42978 11.757027-15.24648 24.480933-36.03859 34.26438-51.46985-11.666864 18.20183-15.90708 37.54807-33.253757 53.89963z" fill="#2b2014" fill-rule="evenodd"/>
  <path d="m111.41724 234.23577c2.50598-2.71152-1.8496.84928-1.01064-2.42973 4.82016-18.83897 9.06399-48.2732 18.84743-63.70444-11.66686 18.20184-10.67376 46.62194-17.83679 66.13417z" fill="#2b2014" fill-rule="evenodd"/>
  <path d="m90.866963 224.95419c2.505977-2.71154-2.114181.76175-1.010634-2.42977 6.050197-17.49754 24.869531-60.52766 32.072161-77.4268-7.32024 18.36352-23.898501 60.34432-31.061527 79.85657z" fill="#2b2014" fill-rule="evenodd"/>
  <path d="m119.80826 117.18312c-12.60231.4386-16.30727 14.08215-23.280874 22.793 7.090774-8.80917 12.174924-21.28221 23.280874-22.793z" fill="url(#linearGradient3651)" fill-rule="evenodd"/>
  <path d="m109.96074 141.58063-6.85139 14.61961-12.091318 16.90376" fill="none" stroke="url(#linearGradient5670)" stroke-width=".554213"/>
  <path d="m123.12992 125.47146c1.88659 12.29678-2.21712 13.52948-3.60442 19.77938 1.33364-6.60046 7.86775-13.48933 3.60442-19.77938z" fill="#f4f0db" fill-rule="evenodd"/>
  <path d="m46.62814 209.35542 19.630993-27.97417-16.686344 27.48338z" fill="none"/>
  <path d="m62.15625 55.71875c-.183569.04722-.32466.194172-.364375.379509-.03971.185337.02877.377198.176875.495491 4.049156 3.428847 8.124119 4.404627 12.0625 5.625.267513.08629.554331-.06061.640625-.328125.086294-.267513-.060612-.554331-.328125-.640625-3.979743-1.233189-7.849779-2.129985-11.71875-5.40625-.124221-.119746-.301399-.166994-.46875-.125z" fill="#8c8c8c" fill-rule="evenodd" filter="url(#filter3451)" transform="matrix(1.89025 0 0 1.89025 1.918864 4.198232)"/>
  <path d="m62.302972 57.218509c3.959062 3.352557 7.918123 4.29749 11.877185 5.524271" fill="none" filter="url(#filter3473)" stroke="#000" stroke-linecap="round" stroke-opacity=".497041" transform="matrix(1.89025 0 0 1.89025 1.918864 4.198232)"/>
  <path d="m97.505302 136.5839c-6.45541 7.63619-14.182861 22.01968-23.24132 34.86198 9.055677-11.00603 16.796224-25.04962 23.24132-34.86198z" fill-rule="evenodd"/>
  <path d="m73.245581 219.63976c1.405101-1.68754.09162 5.59963 2.485189.57155 9.506467-19.96992 21.599339-40.50334 30.29559-57.93791z" fill="#863e3e" fill-rule="evenodd"/>
  <path d="m57.174455 216.17828c1.405101-1.68754.09162 5.59963 2.485188.57155 9.506467-19.96992 14.676393-18.99275 23.372642-36.42733z" fill="#863e3e" fill-rule="evenodd"/>
  <path d="m119.72823 230.76591c1.40509-1.68755.28295 7.24276 1.49619 1.80779 3.07801-13.78872 3.79748-12.81155 4.33454-23.32316-2.27325 7.92218-3.55749 15.97915-5.83073 21.51537z" fill="#863e3e" fill-rule="evenodd"/>
  <path d="m86.877497 143.32527c-.442812.11226-.737895.53029-.695385.98513.08408 1.30029.998141 2.38236 2.260002 3.59282 1.261861 1.21047 2.987697 2.48452 4.983594 3.82462 3.991793 2.6802 9.113682 5.49987 13.907702 7.76514 4.94697 2.33753 12.0182 4.75749 18.31181 6.31641 3.14681.77947 6.12623 1.33336 8.51847 1.56462 1.19613.11562 2.22561.1352 3.12923.058.90363-.0772 1.69066-.23015 2.31796-.69538.3364-.1648.54061-.51581.51759-.88971-.023-.37388-.26874-.69721-.62281-.8195-.35408-.12227-.74696-.0196-.99581.26049-.1329.0986-.6594.22721-1.39077.28974-.73136.0625-1.65822.0506-2.78154-.0579-2.24664-.21718-5.14077-.74178-8.22873-1.50667-6.17589-1.52977-13.19397-3.94653-17.96411-6.20052-4.71778-2.22923-9.795102-4.9856-13.675914-7.59128-1.940407-1.30285-3.61729-2.56248-4.751799-3.65078-1.134509-1.08829-1.661574-2.08295-1.680515-2.3759-.0087-.28171-.144992-.5442-.370471-.7133-.225478-.1691-.515631-.22649-.788504-.15594z" fill="#808080" fill-rule="evenodd"/>
  <path d="m31.6 77.466667c.111102 1.718375 5.981748 5.348347 11.111172 7.772097 5.240141 2.476066 15.249019 5.177396 16.888828 3.961236" fill="none" filter="url(#filter3608)" stroke="#000" stroke-opacity=".455621" transform="matrix(1.8543607 0 0 1.8543607 28.523084 2.451807)"/>
  <path d="m87.051343 143.91635c-.244293.0134-.473835.10922-.637436.28974.0061.0154-.0063.0426 0 .058.359124.87487 1.098185 1.65761 2.028207 2.54975 1.261861 1.21046 2.987697 2.54246 4.983594 3.88257 3.991793 2.6802 9.113682 5.49986 13.907702 7.76513 4.94697 2.33753 12.0182 4.75748 18.31181 6.31642 3.14681.77946 6.12623 1.33336 8.51847 1.56461 1.19613.11564 2.22561.1352 3.12923.058.83544-.0714 1.5421-.24965 2.14411-.63743-.29275-.12493-.65154-.0855-.92718.11589-.1329.0986-.6594.28517-1.39077.3477-.73136.0625-1.65822.0506-2.78154-.058-2.24664-.21719-5.14077-.79973-8.22873-1.56462-6.17589-1.52977-13.19396-3.88858-17.96411-6.14257-4.71778-2.22925-9.795102-5.04355-13.675914-7.64924-1.940407-1.30284-3.61729-2.56247-4.751799-3.65077-1.134509-1.08831-1.661574-2.025-1.680515-2.31795.000473-.25627-.103121-.51974-.289744-.69539-.186617-.17564-.439611-.24779-.695385-.23179z" fill="url(#linearGradient3627)" fill-rule="evenodd"/>
  <path d="m134.59251 150.67704c-1.50181 7.74715-5.09663 24.91282-11.86791 56.37256 7.46966-19.66928 9.51473-37.98241 11.86791-56.37256z" fill="#2b2014" fill-rule="evenodd"/>
  <path d="m123.96085 119.77102c-6.45541 7.6362-9.7324 13.61326-15.08213 26.95005 6.08869-13.23126 8.63703-17.13769 15.08213-26.95005z" fill-rule="evenodd"/>
  <path d="m99.236039 166.74816c-6.455409 7.6362-18.138829 32.65137-25.466552 46.23539 7.324941-13.47849 19.021457-36.42303 25.466552-46.23539z" fill-rule="evenodd"/>
  <path d="m123.96085 168.72615c-4.72468 9.11968-17.64433 41.79954-24.972058 55.38357 7.324938-13.4785 20.010448-44.82947 24.972058-55.38357z" fill="#ddd298" fill-rule="evenodd"/>
  <path d="m138.79574 126.69397c-.76871 6.39996-.0898 18.31097-8.40644 32.63674 6.0887-15.45647 8.38979-24.80236 8.40644-32.63674z" fill="#bb7c3e" fill-rule="evenodd"/>
  <path d="m49 57.875c-.140341.0361-.21495.125911-.28125.25.02945.04569.04989.08997.09375.125 4.127523 3.49521 8.297896 4.506008 12.3125 5.75.238602.07697.475131-.03986.59375-.25-.062541-.100391-.159869-.210845-.28125-.25-4.056763-1.257056-7.993649-2.160326-11.9375-5.5-.126623-.122063-.32941-.167807-.5-.125z" fill="url(#linearGradient3691)" fill-rule="evenodd" filter="url(#filter3451)" transform="matrix(1.8543607 0 0 1.8543607 28.523084 2.451807)"/>
  <path d="m62.15625 55.71875c-.183569.04722-.32466.194172-.364375.379509-.03971.185337.02877.377198.176875.495491 4.049156 3.428847 8.124119 4.404627 12.0625 5.625.267513.08629.554331-.06061.640625-.328125.086294-.267513-.060612-.554331-.328125-.640625-3.979743-1.233189-7.849779-2.129985-11.71875-5.40625-.124221-.119746-.301399-.166994-.46875-.125z" fill="#8c8c8c" fill-rule="evenodd" filter="url(#filter3451)" transform="matrix(1.6737341 0 0 1.6737341 20.398176 5.067194)"/>
  <path d="m62.302972 57.218509c3.959062 3.352557 7.918123 4.29749 11.877185 5.524271" fill="none" filter="url(#filter3473)" stroke="#000" stroke-linecap="round" stroke-opacity=".497041" transform="matrix(1.6737341 0 0 1.6737341 20.398176 5.067194)"/>
  <path d="m66.11127 50.670094c-.140341.0361-.21495.125911-.28125.25.02945.04569.04989.08997.09375.125 4.127523 3.49521 8.297896 4.506008 12.3125 5.75.238602.07697.475131-.03986.59375-.25-.06254-.100391-.159869-.210845-.28125-.25-4.056763-1.257056-7.993649-2.160326-11.9375-5.5-.126623-.122063-.32941-.167807-.5-.125z" fill="url(#linearGradient3699)" fill-rule="evenodd" filter="url(#filter3451)" transform="matrix(1.6419557 0 0 1.6419557 15.859108 15.350947)"/>
</svg>
