<svg height="256" width="256" xmlns="http://www.w3.org/2000/svg" xmlns:xlink="http://www.w3.org/1999/xlink">
  <defs>
    <linearGradient id="linearGradient3195">
      <stop offset="0" stop-color="#d3d3d3"/>
      <stop offset="1" stop-color="#d3d3d3" stop-opacity="0"/>
    </linearGradient>
    <linearGradient id="linearGradient3159">
      <stop offset="0" stop-color="#fff"/>
      <stop offset="1" stop-color="#fff" stop-opacity="0"/>
    </linearGradient>
    <linearGradient id="linearGradient26907" gradientTransform="matrix(0 1 -1 0 -39.9985 140.0029)" gradientUnits="userSpaceOnUse" x1="-84.002403" x2="-12.0029" y1="-383.9971" y2="-383.9971">
      <stop offset="0" stop-color="#888a85"/>
      <stop offset="1"/>
    </linearGradient>
    <linearGradient id="linearGradient2963" gradientTransform="matrix(-2 0 0 2 255.99346 -9.599997)" gradientUnits="userSpaceOnUse" x1="72" x2="72" xlink:href="#linearGradient26907" y1="-16" y2="64"/>
    <radialGradient id="radialGradient2965" cx="79.339813" cy="114.95621" gradientTransform="matrix(-2 -.00000008 -.00000004 1.142857 254.67309 67.021493)" gradientUnits="userSpaceOnUse" r="56" xlink:href="#linearGradient26907"/>
    <linearGradient id="linearGradient2980" gradientTransform="matrix(-2 0 0 2 505.99346 -9.599997)" gradientUnits="userSpaceOnUse" x1="181" x2="205" xlink:href="#linearGradient3159" y1="-32" y2="88"/>
    <filter id="filter3550" height="1.189327" width="1.189327" x="-.094663" y="-.094663">
      <feGaussianBlur stdDeviation="1.23375"/>
    </filter>
    <linearGradient id="linearGradient3124" gradientTransform="matrix(-2 0 0 2 229.13708 -4.996468)" gradientUnits="userSpaceOnUse" x1="68.9375" x2="68.9375" y1="38.90625" y2="103.40701">
      <stop offset="0" stop-color="#fff"/>
      <stop offset="1" stop-color="#dfdfdf"/>
    </linearGradient>
    <radialGradient id="radialGradient3133" cx="76.20943897812" cy="68.79377726109" gradientUnits="userSpaceOnUse" r="40.32993948438">
      <stop offset="0" stop-color="#fff" stop-opacity=".48"/>
      <stop offset="1" stop-color="#fff" stop-opacity="0"/>
    </radialGradient>
    <linearGradient id="linearGradient3165" gradientTransform="matrix(-2 0 0 2 255.99346 -9.599997)" gradientUnits="userSpaceOnUse" x1="80" x2="72" xlink:href="#linearGradient3159" y1="68" y2="44"/>
    <linearGradient id="linearGradient3189" gradientTransform="matrix(-2 0 0 2 506.08636 -9.599997)" gradientUnits="userSpaceOnUse" x1="185.04645" x2="205" xlink:href="#linearGradient3159" y1="-8" y2="88"/>
    <linearGradient id="linearGradient3191" gradientTransform="matrix(-2 0 0 2 506.11782 -9.599997)" gradientUnits="userSpaceOnUse" x1="270.03271" x2="142.0327" xlink:href="#linearGradient3159" y1="95" y2="31"/>
    <linearGradient id="linearGradient3201" gradientUnits="userSpaceOnUse" x1="72" x2="72" xlink:href="#linearGradient3195" y1="108" y2="60"/>
    <filter id="filter3221" height="1.028056" width="1.021041" x="-.010521" y="-.014028">
      <feGaussianBlur stdDeviation=".2125"/>
    </filter>
    <linearGradient id="linearGradient3233" gradientUnits="userSpaceOnUse" x1="88" x2="88" y1="112.8" y2="-7.2">
      <stop offset="0"/>
      <stop offset="1" stop-opacity="0"/>
    </linearGradient>
    <filter id="filter3243" height="1.082803" width="1.063691" x="-.031845" y="-.041401">
      <feGaussianBlur stdDeviation="1.3800491"/>
    </filter>
    <filter id="filter3383" height="1.856902" width="2.093919" x="-.546959" y="-.428451">
      <feGaussianBlur stdDeviation="1.0041831"/>
    </filter>
    <filter id="filter3387" height="1.976219" width="2.151064" x="-.575532" y="-.488109">
      <feGaussianBlur stdDeviation="1.0041831"/>
    </filter>
    <filter id="filter3391" height="1.621946" width="1.803346" x="-.401673" y="-.310973">
      <feGaussianBlur stdDeviation="1.0041831"/>
    </filter>
    <filter id="filter3395" height="1.602509" width="1.786952" x="-.393476" y="-.301255">
      <feGaussianBlur stdDeviation="1.0041831"/>
    </filter>
    <clipPath id="clipPath3405">
      <path d="m185.5 28c-.99276-.0016-1.95066.365936-2.6875 1.03125l-40 36c-.83978.758484-1.31903 1.837148-1.31903 2.96875s.47925 2.210266 1.31903 2.96875l40 36c.73684.66531 1.69474 1.03288 2.6875 1.03125h56c2.20905-.00022 3.99978-1.79095 4-4v-72c-.00022-2.209048-1.79095-3.999779-4-4z"/>
    </clipPath>
    <linearGradient gradientTransform="translate(129.5)" gradientUnits="userSpaceOnUse" x1="72" x2="72" xlink:href="#linearGradient26907" y1="-16" y2="64"/>
    <radialGradient id="radialGradient3411" cx="185.8528" cy="31.163853" gradientTransform="matrix(.9135171 -.4068004 1 2.2456148 -16.006057 35.372984)" gradientUnits="userSpaceOnUse" r="3.5625" xlink:href="#linearGradient3159"/>
    <radialGradient id="radialGradient3413" cx="241.76289" cy="31.512632" gradientTransform="matrix(.8076259 .5896951 -1.6428571 2.25 99.016782 -182.84482)" gradientUnits="userSpaceOnUse" r="3.5" xlink:href="#linearGradient3159"/>
    <radialGradient id="radialGradient3415" cx="243.40625" cy="105.53125" gradientTransform="matrix(.7165883 -.6974964 1.9764912 2.0305916 -139.5974 61.015368)" gradientUnits="userSpaceOnUse" r="2.59375" xlink:href="#linearGradient3195"/>
    <radialGradient id="radialGradient3417" cx="184.82086" cy="105.38967" gradientTransform="matrix(.7757118 .6310874 -3.3294798 4.0924865 391.47818 -441.38143)" gradientUnits="userSpaceOnUse" r="2.703125" xlink:href="#linearGradient3195"/>
  </defs>
  <path d="m56 28.8c-.99276-.0016-1.950661.365936-2.6875 1.03125l-40 36c-.839777.758484-1.319034 1.837148-1.319034 2.96875s.479257 2.210266 1.319034 2.96875l40 36c.736839.66531 1.69474 1.03288 2.6875 1.03125h56c2.20905-.00022 3.99978-1.79095 4-4v-72c-.00022-2.209048-1.79095-3.999779-4-4z" fill="url(#linearGradient3233)" filter="url(#filter3243)" transform="matrix(-2 0 0 2 255.99346 -9.599997)"/>
  <path d="m143.99346 46.400003c1.98552-.0032 3.90132.731872 5.375 2.0625l80 71.999997c1.67956 1.51697 2.63807 3.6743 2.63807 5.9375 0 2.26321-.95851 4.42054-2.63807 5.9375l-80 72c-1.47368 1.33062-3.38948 2.06576-5.375 2.0625h-112c-4.4181-.00044-7.99956-3.5819-8-8v-143.999997c.00044-4.418096 3.5819-7.999558 8-8z" fill="url(#linearGradient2963)"/>
  <g clip-path="url(#clipPath3405)" transform="matrix(-2 0 0 2 514.99346 -9.599997)">
    <path d="m185.5 28c-.99276-.0016-1.95066.365936-2.6875 1.03125l-.9375.84375 6.125 6.125v-8z" fill="url(#radialGradient3411)" fill-rule="evenodd" filter="url(#filter3395)"/>
    <path d="m240 28-.5 7.75 6-3.75c-.00022-2.209048-1.79095-3.999779-4-4z" fill="url(#radialGradient3413)" fill-rule="evenodd" filter="url(#filter3391)"/>
    <path d="m241.3125 103.0625.0625 4.9375h.125c2.20905-.00022 3.99978-1.79095 4-4v-.90625z" fill="url(#radialGradient3415)" fill-rule="evenodd" filter="url(#filter3387)"/>
    <path d="m186.15625 102.375-4.40625 3.625 1.0625.96875c.73684.66531 1.69474 1.03288 2.6875 1.03125h.0312z" fill="url(#radialGradient3417)" fill-rule="evenodd" filter="url(#filter3383)"/>
  </g>
  <path d="m143.99346 54.400003 80 71.999997-80 72h-112v-143.999997z" fill="url(#radialGradient2965)"/>
  <path d="m143.99346 54.400003 80 71.999997-9.8125 8.8125c-14.3224 1.0953-29.09518 1.6875-44.1875 1.6875-51.37938 0-98.94508-6.63946-138-17.9375v-64.562497z" fill="url(#linearGradient2980)"/>
  <path d="m59.17819 37.864264-11.8125 11.78125 17.0625 17.0625-17.0625 17.03125 11.8125 11.8125 17.03125-17.0625 17.0625 17.0625 11.78125-11.8125-17.03125-17.03125 17.03125-17.0625-11.78125-11.78125-17.0625 17.03125z" style="fill:none;stroke-width:5;stroke-linecap:round;stroke-linejoin:round;stroke:url(#radialGradient3133);filter:url(#filter3550)" transform="matrix(-2 0 0 2 255.99346 -9.599997)"/>
  <path d="m137.63708 66.128531 23.625 23.5625-34.125 34.124999 34.125 34.0625-23.625 23.625-34.0625-34.125-34.125 34.125-23.5625-23.625 34.0625-34.0625-34.0625-34.124999 23.5625-23.5625 34.125 34.062499z" fill="url(#linearGradient3124)"/>
  <path d="m137.61846 66.150003 23.625 23.5625-34.125 34.124997 12.3125 12.25c-22.62339-1.18408-44.29822-3.66219-64.5-7.25l5-5-34.0625-34.124997 23.5625-23.5625 34.125 34.062497z" fill="url(#linearGradient3165)"/>
  <path d="m144.0885 54.400003 80 71.999997-80-69.999997h-112v-2z" fill="url(#linearGradient3189)"/>
  <path d="m33.9274 116.9625c39.05493 11.29804 86.62063 17.9375 138.00001 17.9375 15.09232 0 29.8651-.5922 44.1875-1.6875l7.8125-7 .1875.1875-9.8125 8.8125c-14.3224 1.0953-29.09518 1.6875-44.1875 1.6875-51.37938 0-98.94508-6.63946-138.00001-17.9375v-64.562497z" fill="url(#linearGradient3191)"/>
  <path d="m56 32-40 36 40 36h56v-72z" style="opacity:.604;fill:none;stroke-linecap:round;stroke-linejoin:round;stroke-dashoffset:4;stroke:url(#linearGradient3201);filter:url(#filter3221)" transform="matrix(-2 0 0 2 255.99346 -9.599997)"/>
</svg>
