<svg height="256" width="256" xmlns="http://www.w3.org/2000/svg" xmlns:xlink="http://www.w3.org/1999/xlink">
  <defs>
    <linearGradient id="linearGradient1208">
      <stop offset="0" stop-color="#d92424"/>
      <stop offset="1" stop-color="#a91212"/>
    </linearGradient>
    <linearGradient id="linearGradient4792">
      <stop offset="0"/>
      <stop offset="1" stop-opacity="0"/>
    </linearGradient>
    <linearGradient id="linearGradient4635">
      <stop offset="0" stop-color="#fff"/>
      <stop offset="1" stop-color="#fff" stop-opacity="0"/>
    </linearGradient>
    <linearGradient id="linearGradient3792">
      <stop offset="0" stop-color="#fff"/>
      <stop offset="1" stop-color="#e7e7e7"/>
    </linearGradient>
    <linearGradient id="linearGradient3617" gradientTransform="matrix(1.7026094 -.9823464 .9830018 1.701474 -45.214045 64.798827)" gradientUnits="userSpaceOnUse" x1="62.646275" x2="52.066586" xlink:href="#linearGradient3792" y1="53.750923" y2="53.750923"/>
    <linearGradient id="linearGradient3637" gradientTransform="matrix(3.7082852 0 0 3.7058128 -105.21476 -123.98059)" gradientUnits="userSpaceOnUse" x1="61.911907" x2="59.719414" xlink:href="#linearGradient4792" y1="72.456772" y2="73.709625"/>
    <linearGradient id="linearGradient3802" gradientTransform="matrix(-1.7026094 -.9823464 -.9830018 1.701474 300.54602 64.798827)" gradientUnits="userSpaceOnUse" x1="62.646275" x2="52.066586" xlink:href="#linearGradient3792" y1="53.750923" y2="53.750923"/>
    <linearGradient id="linearGradient4259" gradientUnits="userSpaceOnUse" x1="129.892345" x2="142.195979" xlink:href="#linearGradient4792" y1="126.508359" y2="117.320753"/>
    <linearGradient id="linearGradient4443" gradientTransform="matrix(1.7026092 -.9823464 .9830018 1.701474 -44.531445 61.417307)" gradientUnits="userSpaceOnUse" x1="66.410789" x2="56.771309" xlink:href="#linearGradient1208" y1="111.09748" y2="111.40427"/>
    <clipPath id="clipPath4455">
      <path d="m75.1875 70.0625c-.856681.05009-1.585955.641049-1.8125 1.46875l-2.15625 8.0625c-.12671.509335-.04815 1.048066.21875 1.5l18.1875 31.46875c2.347816 4.06383 5.542933 7.16167 9 8.90625 3.45707 1.74458 7.34864 2.14876 10.53125.3125 3.18256-1.83623 4.77875-5.41426 5-9.28125s-.87023-8.18495-3.21875-12.25c-2.3484-4.064847-5.54173-7.169784-9-8.90625-3.458275-1.736466-7.351338-2.11595-10.53125-.28125-.752211.433999-.828237.418141-1.40625.125s-1.570148-1.206147-2.75-2.84375c-2.359704-3.275207-5.525701-9.158071-10.21875-17.28125-.376511-.65468-1.089664-1.041475-1.84375-1zm22.75 28.96875c1.910083-.131349 5.35613 1.85167 7.5 5.5625 1.31974 2.28435 1.89273 4.67398 1.8125 6.53125-.0802 1.85727-.74835 3.00743-1.65625 3.53125-.90784.52379-2.19441.51626-3.84375-.34375s-3.461233-2.55894-4.78125-4.84375c-1.319749-2.28436-1.892729-4.70523-1.8125-6.5625.08023-1.85727.717103-3.007424 1.625-3.53125.373276-.215369.739601-.3151 1.15625-.34375z"/>
    </clipPath>
    <filter id="filter4475" height="1.099727" width="1.122722" x="-.061357" y="-.049884">
      <feGaussianBlur stdDeviation=".47498194"/>
    </filter>
    <linearGradient id="linearGradient4494" gradientUnits="userSpaceOnUse" x1="201.37323833854" x2="235.50227037684" xlink:href="#linearGradient4635" y1="168.14454383849" y2="227.25773318809"/>
    <linearGradient id="linearGradient4572" gradientTransform="matrix(-1.7026092 -.9823464 -.9830018 1.701474 300.34414 61.417307)" gradientUnits="userSpaceOnUse" x1="66.410789" x2="56.771309" xlink:href="#linearGradient1208" y1="111.09748" y2="111.40427"/>
    <linearGradient id="linearGradient4574" gradientTransform="matrix(-2.2608536 0 0 2.2608536 281.0618 -23.921587)" gradientUnits="userSpaceOnUse" x1="100.23751" x2="115.33315" xlink:href="#linearGradient4635" y1="84.952927" y2="111.09933"/>
    <linearGradient id="linearGradient4641" gradientUnits="userSpaceOnUse" x1="24.636236" x2="24.636236" xlink:href="#linearGradient4635" y1="118.53715" y2="110.80067"/>
    <filter id="filter4691" height="1.166563" width="1.166111" x="-.083055" y="-.083282">
      <feGaussianBlur stdDeviation=".41898454"/>
    </filter>
    <filter id="filter4711" height="1.07862" width="1.079912" x="-.039956" y="-.03931">
      <feGaussianBlur stdDeviation=".71627592"/>
    </filter>
    <radialGradient id="radialGradient4728" cx="66" cy="54" fx="66.495979" fy="53.140942" gradientTransform="matrix(3.4307853 -1.9814404 1.9807642 3.4273787 -291.88227 127.70929)" gradientUnits="userSpaceOnUse" r="2">
      <stop offset="0" stop-color="#dfdfdf"/>
      <stop offset="1" stop-color="#606060"/>
    </radialGradient>
    <linearGradient id="linearGradient4798" gradientUnits="userSpaceOnUse" x1="64.46875" x2="65.410522" xlink:href="#linearGradient4792" y1="67.044975" y2="80.970673"/>
    <filter id="filter4821" height="1.078754" width="1.093479" x="-.04674" y="-.039385">
      <feGaussianBlur stdDeviation=".98653907"/>
    </filter>
  </defs>
  <path d="m35.28125 14.46875c-.954832.551423-.830149 1.715793-.59375 2.3125 7.137423 18.61036 13.535762 35.566537 23.46875 53.96875l-1.53125 2.46875c-.380064-.670955-1.137889-1.074734-1.9375-1-.653266.05705-1.237077.430692-1.5625 1-4.162732 7.210063-6.957633 12.432454-9.03125 15.3125-1.036809 1.440023-1.889833 2.238391-2.34375 2.46875s-.443117.263851-1.0625-.09375c-2.900225-1.674446-6.417811-1.314362-9.53125.25s-5.991657 4.327822-8.09375 7.96875c-2.102209 3.64113-3.074146 7.51712-2.875 11s1.659632 6.73028 4.5625 8.40625c2.902918 1.676 6.450269 1.29036 9.5625-.28125s5.960997-4.32884 8.0625-7.96875l16.125-27.9375c.174659-.295751.272646-.63122.28125-.96875 1.712756-1.201476 3.655005-2.331908 5.53125-3.125 1.989075.840643 4.082293 2.059785 5.875 3.34375.02916.265081.116917.513115.25.75l16.125 27.9375c2.101502 3.63991 4.981519 6.39714 8.09375 7.96875s6.62833 1.95725 9.53125.28125c2.90287-1.67597 4.36335-4.92337 4.5625-8.40625s-.77279-7.35887-2.875-11c-2.10209-3.640928-4.98031-6.404388-8.09375-7.96875-3.113439-1.564362-6.631025-1.924446-9.53125-.25-.619383.357601-.608583.324109-1.0625.09375s-1.306941-1.028727-2.34375-2.46875c-2.073617-2.880046-4.868518-8.102437-9.03125-15.3125-.376511-.65468-1.089664-1.041475-1.84375-1-.790011.04953-1.474032.553922-1.75 1.28125l-1.71875-2.75c9.93299-18.402209 16.33133-35.358392 23.46875-53.96875.236396-.596707.361085-1.761076-.59375-2.3125l-29.0625 46.40625zm-.5 83.90625c.33505.02305.602965.106147.90625.28125.721235.416406 1.274848 1.37263 1.34375 2.96875.0689 1.59612-.411848 3.66326-1.5625 5.65625-1.150921 1.99346-2.709089 3.47996-4.125 4.21875s-2.497565.72887-3.21875.3125c-.72123-.4164-1.274847-1.34138-1.34375-2.9375-.0689-1.59612.411852-3.69452 1.5625-5.6875 1.8691-3.237377 4.880946-4.919607 6.4375-4.8125zm59.375 0c1.556552-.107107 4.568404 1.575125 6.4375 4.8125 1.15065 1.99298 1.6314 4.09138 1.5625 5.6875s-.59127 2.5211-1.3125 2.9375c-.72118.41637-1.80284.42629-3.21875-.3125s-2.974078-2.22529-4.125-4.21875c-1.150651-1.99299-1.662652-4.06013-1.59375-5.65625.0689-1.59612.622515-2.552344 1.34375-2.96875.303281-.1751.5712-.258195.90625-.28125z" style="opacity:.5;fill-rule:evenodd;stroke-width:3.54752;stroke-linecap:round;stroke-linejoin:round;stroke:url(#linearGradient4798);filter:url(#filter4821)" transform="matrix(2.2558498 0 0 2.2543458 -17.431819 -23.140783)"/>
  <path d="m106.37517 140.19596c1.71336.10018 3.17192 1.2821 3.625 2.9375l4.3125 16.125c.25342 1.01867.0963 2.09613-.4375 3l-36.374995 62.9375c-4.695632 8.12766-11.085866 14.32334-18 17.8125-6.91414 3.48916-14.69728 4.29752-21.0625.625-6.36512-3.67246-9.5575-10.82852-10-18.5625s1.74046-16.3699 6.4375-24.5c4.6968-8.12969 11.08346-14.33957 18-17.8125 6.91655-3.47293 14.702676-4.2319 21.0625-.5625 1.504422.868 1.656474.83628 2.8125.25s3.140296-2.41229 5.5-5.6875c4.719416-6.55041 11.051396-18.31614 20.437495-34.5625.75302-1.30936 2.17934-2.08295 3.6875-2zm-45.499995 57.9375c-3.820166-.2627-10.71226 3.70334-15 11.125-2.63948 4.5687-3.78546 9.34796-3.625 13.0625s1.4967 6.01486 3.3125 7.0625c1.81568 1.04758 4.38882 1.03252 7.6875-.6875s6.922466-5.11788 9.5625-9.6875c2.639498-4.56872 3.785458-9.41046 3.625-13.125-.16046-3.71454-1.434206-6.01485-3.25-7.0625-.746552-.43074-1.479202-.6302-2.3125-.6875z" fill="url(#linearGradient4572)" fill-rule="evenodd"/>
  <path d="m110.36733 140.69681c1.84534.10788 3.39786 1.39642 3.88584 3.17933l.14132.56521c-.74412-.84955-1.71748-1.41474-2.89672-1.48368-1.62436-.0893-3.21612.70934-4.02716 2.11955-10.109059 17.49775-16.889739 30.17845-21.972663 37.23343-2.541464 3.52748-4.689668 5.51526-5.93474 6.1467-1.24507.63143-1.417718.65225-3.038022-.28261-6.84969-3.95204-15.229874-3.10456-22.67919.63587-7.44932 3.74043-14.30002 10.39075-19.35856 19.14661l-1.13042-2.26086c5.05854-8.75586 11.90922-15.40617 19.35856-19.14661 7.449308-3.74043 15.829492-4.5879 22.679182-.63586 1.620304.93485 1.792952.91404 3.038022.2826 1.245074-.63144 3.393278-2.61921 5.934742-6.14669 5.08291-7.05498 11.86361-19.73569 21.972669-37.23344.81104-1.4102 2.4028-2.20888 4.02714-2.11955z" fill="url(#linearGradient4574)" fill-rule="evenodd" opacity=".772277"/>
  <path d="m75.1875 70.0625c-.856681.05009-1.585955.641049-1.8125 1.46875l-2.15625 8.0625c-.12671.509335-.04815 1.048066.21875 1.5l18.1875 31.46875c2.347816 4.06383 5.542933 7.16167 9 8.90625 3.45707 1.74458 7.34864 2.14876 10.53125.3125 3.18256-1.83623 4.77875-5.41426 5-9.28125s-.87023-8.18495-3.21875-12.25c-2.3484-4.064847-5.54173-7.169784-9-8.90625-3.458275-1.736466-7.351338-2.11595-10.53125-.28125-.752211.433999-.828237.418141-1.40625.125s-1.570148-1.206147-2.75-2.84375c-2.359704-3.275207-5.525701-9.158071-10.21875-17.28125-.376511-.65468-1.089664-1.041475-1.84375-1zm22.75 28.96875c1.910083-.131349 5.35613 1.85167 7.5 5.5625 1.31974 2.28435 1.89273 4.67398 1.8125 6.53125-.0802 1.85727-.74835 3.00743-1.65625 3.53125-.90784.52379-2.19441.51626-3.84375-.34375s-3.461233-2.55894-4.78125-4.84375c-1.319749-2.28436-1.892729-4.70523-1.8125-6.5625.08023-1.85727.717103-3.007424 1.625-3.53125.373276-.215369.739601-.3151 1.15625-.34375z" style="opacity:.70297;fill:none;stroke:#000;stroke-width:3;stroke-linecap:round;stroke-linejoin:round;clip-path:url(#clipPath4455);filter:url(#filter4475)" transform="matrix(-2 0 0 2 256.75018 .070959)"/>
  <path d="m149.43751 140.19596c-1.71336.10018-3.17191 1.2821-3.625 2.9375l-4.3125 16.125c-.25342 1.01867-.0963 2.09613.4375 3l36.37501 62.9375c4.69563 8.12766 11.08586 14.32334 18 17.8125s14.69728 4.29752 21.0625.625c6.36512-3.67246 9.5575-10.82852 10-18.5625s-1.74046-16.3699-6.4375-24.5c-4.6968-8.12969-11.08346-14.33957-18-17.8125-6.91655-3.47293-14.70268-4.2319-21.0625-.5625-1.50443.868-1.65648.83628-2.8125.25-1.15603-.58628-3.1403-2.41229-5.5-5.6875-4.71941-6.55041-11.05141-18.31614-20.43751-34.5625-.75302-1.30936-2.17933-2.08295-3.6875-2zm45.50001 57.9375c3.82016-.2627 10.71226 3.70334 15 11.125 2.63948 4.5687 3.78546 9.34796 3.625 13.0625-.1604 3.71454-1.4967 6.01486-3.3125 7.0625-1.81568 1.04758-4.38882 1.03252-7.6875-.6875s-6.92247-5.11788-9.5625-9.6875c-2.6395-4.56872-3.78546-9.41046-3.625-13.125s1.4342-6.01485 3.25-7.0625c.74655-.43074 1.4792-.6302 2.3125-.6875z" fill="url(#linearGradient4443)" fill-rule="evenodd"/>
  <path d="m145.44535 140.69681c-1.84534.10788-3.39786 1.39642-3.88584 3.17933l-.1413.56521c.74411-.84955 1.71747-1.41474 2.89672-1.48368 1.62434-.0893 3.21611.70934 4.02714 2.11955 10.10907 17.49775 16.88976 30.17845 21.97268 37.23343 2.54146 3.52748 4.68967 5.51526 5.93474 6.1467 1.24507.63143 1.41772.65225 3.03802-.28261 6.84969-3.95204 15.22987-3.10456 22.67919.63587s14.30002 10.39075 19.35856 19.14661l1.13042-2.26086c-5.05854-8.75586-11.90922-15.40617-19.35856-19.14661-7.44931-3.74043-15.82949-4.5879-22.67918-.63586-1.62031.93485-1.79295.91404-3.03802.2826-1.24508-.63144-3.39328-2.61921-5.93475-6.14669-5.08291-7.05498-11.86361-19.73569-21.97267-37.23344-.81103-1.4102-2.4028-2.20888-4.02715-2.11955z" fill="url(#linearGradient4494)" fill-rule="evenodd" opacity=".772277"/>
  <path d="m75.1875 70.0625c-.856681.05009-1.585955.641049-1.8125 1.46875l-2.15625 8.0625c-.12671.509335-.04815 1.048066.21875 1.5l18.1875 31.46875c2.347816 4.06383 5.542933 7.16167 9 8.90625 3.45707 1.74458 7.34864 2.14876 10.53125.3125 3.18256-1.83623 4.77875-5.41426 5-9.28125s-.87023-8.18495-3.21875-12.25c-2.3484-4.064847-5.54173-7.169784-9-8.90625-3.458275-1.736466-7.351338-2.11595-10.53125-.28125-.752211.433999-.828237.418141-1.40625.125s-1.570148-1.206147-2.75-2.84375c-2.359704-3.275207-5.525701-9.158071-10.21875-17.28125-.376511-.65468-1.089664-1.041475-1.84375-1zm22.75 28.96875c1.910083-.131349 5.35613 1.85167 7.5 5.5625 1.31974 2.28435 1.89273 4.67398 1.8125 6.53125-.0802 1.85727-.74835 3.00743-1.65625 3.53125-.90784.52379-2.19441.51626-3.84375-.34375s-3.461233-2.55894-4.78125-4.84375c-1.319749-2.28436-1.892729-4.70523-1.8125-6.5625.08023-1.85727.717103-3.007424 1.625-3.53125.373276-.215369.739601-.3151 1.15625-.34375z" style="opacity:.70297;fill:none;stroke:#000;stroke-width:3;stroke-linecap:round;stroke-linejoin:round;clip-path:url(#clipPath4455);filter:url(#filter4475)" transform="matrix(2 0 0 2 -.937489 .070959)"/>
  <path d="m194.98426 3.8933447-88.663 141.6782453-2.29998 23.62795c3.93201-6.80589 18.60646-16.4883 29.34891-19.36481 28.16938-48.75826 44.51607-92.284637 63.05328-140.5737423.54839-1.382924.77578-4.089665-1.43921-5.367643z" fill="url(#linearGradient3802)" fill-rule="evenodd"/>
  <path d="m194.44751 4.8409427-71.90702 114.0864573" fill="none" stroke="#fff" stroke-width="2"/>
  <path d="m118.56251 131.38346-4.0625 1.125-2.875 4.5625 8.625 18.4375c3.65171-2.0877 7.48356-3.89637 11-5.0625z" fill="url(#linearGradient3637)" fill-rule="evenodd"/>
  <path d="m133.43751 102.19596-16.375 26.1875 14.375 22c.65264-.21301 1.30901-.39421 1.9375-.5625 5.11943-8.86121 9.82743-17.54941 14.25-26.125z" fill="url(#linearGradient4259)" fill-rule="evenodd"/>
  <path d="m60.347733 3.8933447 88.662997 141.6782453 2.29997 23.62795c-3.932-6.80589-18.60646-16.4883-29.3489-19.36481-28.169379-48.75826-44.516071-92.284637-63.053281-140.5737423-.548392-1.382924-.775784-4.089665 1.439214-5.367643z" fill="url(#linearGradient3617)" fill-rule="evenodd"/>
  <path d="m60.540489 4.8409427 66.907011 107.0864573" fill="none" stroke="#fff" stroke-width="2"/>
  <ellipse cx="41.510822" cy="182.01266" fill="url(#radialGradient4728)" fill-rule="evenodd" opacity=".96" rx="6.651708" ry="6.64954" transform="matrix(.86616642 -.49975568 .50024442 .86588424 0 0)"/>
  <path d="m57.53125 79.25-17.8125 30.8125c-2.347814 4.06383-5.542933 7.16167-9 8.90625-3.45707 1.74458-7.34864 2.14876-10.53125.3125-3.18256-1.83623-4.77875-5.41426-5-9.28125-.06827-1.19324.0074-2.42906.1875-3.6875-.562763 2.11357-.800347 4.21517-.6875 6.1875.22125 3.86699 1.81744 7.44502 5 9.28125 3.18261 1.83626 7.07418 1.43208 10.53125-.3125 3.457067-1.74458 6.652186-4.84242 9-8.90625l18.1875-31.46875c.2669-.451934.34546-.990665.21875-1.5zm-26.125 17.28125c-1.910083-.131349-5.35613 1.85167-7.5 5.5625-1.065463 1.84422-1.640002 3.76032-1.78125 5.40625.297918-.95218.725187-1.94376 1.28125-2.90625 2.14387-3.71083 5.589917-5.693849 7.5-5.5625.416649.02865.782976.128381 1.15625.34375.907897.523826 1.544773 1.67398 1.625 3.53125.01564.36208.0035.75652-.03125 1.15625.409149-1.31651.577675-2.58153.53125-3.65625-.08023-1.85727-.717103-3.007424-1.625-3.53125-.373274-.215369-.739601-.3151-1.15625-.34375z" fill-rule="evenodd" filter="url(#filter4711)" opacity=".707921" transform="matrix(2 0 0 2 -.937489 .070959)"/>
  <path d="m57.53125 79.25-17.8125 30.8125c-2.347814 4.06383-5.542933 7.16167-9 8.90625-3.45707 1.74458-7.34864 2.14876-10.53125.3125-3.18256-1.83623-4.77875-5.41426-5-9.28125-.06827-1.19324.0074-2.42906.1875-3.6875-.562763 2.11357-.800347 4.21517-.6875 6.1875.22125 3.86699 1.81744 7.44502 5 9.28125 3.18261 1.83626 7.07418 1.43208 10.53125-.3125 3.457067-1.74458 6.652186-4.84242 9-8.90625l18.1875-31.46875c.2669-.451934.34546-.990665.21875-1.5zm-26.125 17.28125c-1.910083-.131349-5.35613 1.85167-7.5 5.5625-1.065463 1.84422-1.640002 3.76032-1.78125 5.40625.297918-.95218.725187-1.94376 1.28125-2.90625 2.14387-3.71083 5.589917-5.693849 7.5-5.5625.416649.02865.782976.128381 1.15625.34375.907897.523826 1.544773 1.67398 1.625 3.53125.01564.36208.0035.75652-.03125 1.15625.409149-1.31651.577675-2.58153.53125-3.65625-.08023-1.85727-.717103-3.007424-1.625-3.53125-.373274-.215369-.739601-.3151-1.15625-.34375z" fill-rule="evenodd" filter="url(#filter4711)" opacity=".707921" transform="matrix(-2 0 0 2 256.75114 .070959)"/>
  <path d="m33.1875 106.4375c-.299488.99755-.732301 2.02698-1.3125 3.03125-1.320017 2.28481-3.13191 3.98374-4.78125 4.84375s-2.93591.86754-3.84375.34375c-.9079-.52382-1.57602-1.67398-1.65625-3.53125-.381744 1.2629-.544959 2.45924-.5 3.5.08023 1.85727.74835 3.00743 1.65625 3.53125.90784.52379 2.19441.51626 3.84375-.34375s3.461233-2.55894 4.78125-4.84375c1.312576-2.27195 1.885229-4.678 1.8125-6.53125z" fill="url(#linearGradient4641)" fill-rule="evenodd" filter="url(#filter4691)" opacity=".485149" transform="matrix(3.2790804 0 0 3.0376258 -32.937289 -117.88847)"/>
  <path d="m33.1875 106.4375c-.299488.99755-.732301 2.02698-1.3125 3.03125-1.320017 2.28481-3.13191 3.98374-4.78125 4.84375s-2.93591.86754-3.84375.34375c-.9079-.52382-1.57602-1.67398-1.65625-3.53125-.381744 1.2629-.544959 2.45924-.5 3.5.08023 1.85727.74835 3.00743 1.65625 3.53125.90784.52379 2.19441.51626 3.84375-.34375s3.461233-2.55894 4.78125-4.84375c1.312576-2.27195 1.885229-4.678 1.8125-6.53125z" fill="url(#linearGradient4641)" fill-rule="evenodd" filter="url(#filter4691)" opacity=".485149" transform="matrix(-3.2790804 0 0 3.0376258 289.05156 -117.88847)"/>
  <path d="m130.6027 132.63611-7.17328 8.54891" fill="none" opacity=".777228" stroke="#fff" stroke-width="2"/>
</svg>
