<svg height="256" width="256" xmlns="http://www.w3.org/2000/svg" xmlns:xlink="http://www.w3.org/1999/xlink">
  <defs>
    <filter id="filter3834" color-interpolation-filters="sRGB" height="1.126379" width="1.080929" x="-.040464" y="-.063189">
      <feGaussianBlur stdDeviation="1.50075"/>
    </filter>
    <filter id="filter3826" color-interpolation-filters="sRGB" height="1.088484" width="1.055874" x="-.027937" y="-.044242">
      <feGaussianBlur stdDeviation="1.036"/>
    </filter>
    <linearGradient id="linearGradient4524-4" gradientTransform="matrix(2 0 0 -2 -7.01182 257.00001)" gradientUnits="userSpaceOnUse" x1="72" x2="72" y1="0" y2="116.40091">
      <stop offset="0" stop-color="#eeecec"/>
      <stop offset=".40000001" stop-color="#f4f4f4"/>
      <stop offset="1" stop-color="#f6f5f5"/>
    </linearGradient>
    <filter id="filter1164" color-interpolation-filters="sRGB" height="1.096" width="1.090435" x="-.045217" y="-.048">
      <feGaussianBlur stdDeviation=".65000024"/>
    </filter>
    <linearGradient id="lg1">
      <stop offset="0" stop-color="#fff"/>
      <stop offset="1" stop-color="#fff" stop-opacity="0"/>
    </linearGradient>
    <radialGradient id="radialGradient5988-0" cx="64" cy="64.004021" fx="63.793392" fy="47.274845" gradientTransform="matrix(3.368421 .16859038 .13772678 -2.7517692 -103.40582 294.32648)" gradientUnits="userSpaceOnUse" r="47.5" xlink:href="#lg1"/>
    <clipPath id="clipPath6093-7">
      <path d="m17.000001 8-.000001 112h61.5c1.675283 0 3.914297-.56468 7-3.6 8.870045-8.72523 16.24047-13.8518 23.49904-21.175957 2.44056-2.462612 3.00096-4.47117 3.00096-6.724043v-80.5z"/>
    </clipPath>
    <filter id="filter6171-8" color-interpolation-filters="sRGB" height="2.02159" width="1.956141" x="-.47807" y="-.510795">
      <feGaussianBlur stdDeviation="10.140743"/>
    </filter>
    <linearGradient id="linearGradient3895-3" gradientTransform="matrix(2.0239716 0 0 -2.0239716 -.8029 246.97433)" gradientUnits="userSpaceOnUse" x1="86.73793" x2="93.189758" y1="93.621468" y2="100.45876">
      <stop offset="0" stop-color="#fcfcfc"/>
      <stop offset=".52275378" stop-color="#f8f8f8"/>
      <stop offset=".72337759" stop-color="#f0efef"/>
      <stop offset=".89024991" stop-color="#e3e1e1"/>
      <stop offset="1" stop-color="#cecbcb"/>
    </linearGradient>
    <linearGradient id="linearGradient4090" gradientUnits="userSpaceOnUse" x1="24.38773" x2="24.38773" y1="-135.76206" y2="-119.200916">
      <stop offset="0" stop-color="#f00"/>
      <stop offset="1" stop-color="#ff8080"/>
    </linearGradient>
    <linearGradient id="linearGradient59" gradientUnits="userSpaceOnUse" x1="124.9903" x2="124.9903" y1="140.29292" y2="103.72149">
      <stop offset="0" stop-color="#b6b6b6"/>
      <stop offset="1" stop-color="#b6b6b6" stop-opacity=".197055"/>
    </linearGradient>
    <filter id="filter4181" color-interpolation-filters="sRGB" height="1.441807" width="1.300975" x="-.150488" y="-.220903">
      <feGaussianBlur stdDeviation="1.5989305"/>
    </filter>
    <filter id="filter4175" color-interpolation-filters="sRGB" height="1.143994" width="1.145553" x="-.072777" y="-.071997">
      <feGaussianBlur stdDeviation=".61497325"/>
    </filter>
    <filter id="filter4126" color-interpolation-filters="sRGB" height="1.188336" width="1.259268" x="-.129634" y="-.094168">
      <feGaussianBlur stdDeviation="1.0397727"/>
    </filter>
    <linearGradient id="linearGradient4004">
      <stop offset="0" stop-color="#f5f8fa"/>
      <stop offset="1" stop-color="#eee"/>
    </linearGradient>
    <filter id="filter4069" color-interpolation-filters="sRGB" height="1.234487" width="1.093723" x="-.046862" y="-.117244">
      <feGaussianBlur stdDeviation=".64201332"/>
    </filter>
    <filter id="filter20074" color-interpolation-filters="sRGB" height="1.205788" width="1.068435" x="-.034218" y="-.102894">
      <feGaussianBlur stdDeviation=".46355994"/>
    </filter>
    <filter id="filter4023" color-interpolation-filters="sRGB" height="1.147291" width="1.161373" x="-.080686" y="-.073645">
      <feGaussianBlur stdDeviation=".8131684"/>
    </filter>
    <filter id="filter14744" color-interpolation-filters="sRGB" height="1.298463" width="1.188622" x="-.094311" y="-.149232">
      <feGaussianBlur stdDeviation="1.2920782"/>
    </filter>
    <radialGradient id="radialGradient28445" cx="229.40211" cy="-9.399371" gradientTransform="matrix(-1.264694 -.33887373 -.15145227 .56522755 375.39168 47.154099)" gradientUnits="userSpaceOnUse" r="16.940229" xlink:href="#linearGradient4004"/>
    <radialGradient id="radialGradient28543" cx="229.40211" cy="-9.399371" gradientTransform="matrix(-.86110735 -.23073303 -.10312112 .38485325 234.53883 25.048209)" gradientUnits="userSpaceOnUse" r="16.940229" xlink:href="#linearGradient4004"/>
    <radialGradient id="radialGradient207" cx="243.12498" cy="2.433143" gradientTransform="matrix(1.0526939 .28206849 -.22884801 .85407239 182.20564 25.330655)" gradientUnits="userSpaceOnUse" r="13.25">
      <stop offset="0" stop-color="#ebebeb"/>
      <stop offset="1" stop-color="#e7e7e7"/>
    </radialGradient>
    <radialGradient id="radialGradient28451" cx="389.12994" cy="-4.978069" fx="384.96979" fy="-16.156342" gradientTransform="matrix(.25490198 -.08823529 .2629712 .75969467 337.69867 128.20122)" gradientUnits="userSpaceOnUse" r="12.75" xlink:href="#lg1"/>
    <radialGradient id="radialGradient9341" cx="273.125" cy="9.220458" gradientTransform="matrix(1.4958206 0 0 2.0313611 -300.93854 -44.217901)" gradientUnits="userSpaceOnUse" r="10.125" xlink:href="#linearGradient4004"/>
    <linearGradient id="linearGradient27" gradientTransform="matrix(-.6407306 0 0 .6407306 382.27989 -107.78008)" gradientUnits="userSpaceOnUse" x1="421.608" x2="431.43747" xlink:href="#linearGradient4004" y1="134.02512" y2="117"/>
    <radialGradient id="radialGradient41" cx="229.40211" cy="-9.399371" gradientTransform="matrix(1.8177516 -.48706512 .21768318 .81240472 -337.07192 85.902785)" gradientUnits="userSpaceOnUse" r="16.940229" xlink:href="#linearGradient4004"/>
  </defs>
  <g>
    <path d="m-128.8111 35.943929v57h56.187504c5.114947-.238308 32.613203-27.078301 32.775-30.612499.08138-25.126708.0375-1.258998.0375-26.387501z" filter="url(#filter3834)" opacity=".262376" transform="matrix(2 0 0 -2 296.61038 201.88787)"/>
    <path d="m-128.8111 36.443929v56.2h55.746422c3.098719 0 24.709876-18.512112 30.003672-24.699929 1.602664-1.873324 3.24991-3.03751 3.24991-7.20007v-24.300001z" fill-opacity=".700535" filter="url(#filter3826)" transform="matrix(2 0 0 -2 296.61038 201.88787)"/>
    <path d="m38.98818 129.00001v-111.999998h111.00001c3.35056 0 7.82859 1.12936 14 7.2 17.74009 17.45046 32.48094 27.703618 46.99808 42.351918 4.88112 4.92522 6.00192 8.94234 6.00192 13.44808v49z" fill="#fff" stroke-width="2"/>
    <path d="m41.98818 129.00001c-.67968 0-1-.46923-1-1v-105.937498c0-1.64316 1.35864-3 3-3h103.37501c.10614 0 1.62077-.0468 3-.0626 3.55533.0802 6.26395 1.50748 8.71207 3.18656 2.10373.58206 33.29967 27.239178 51.54191 45.618478 2.72478 2.74524 4.37092 7.89634 4.37092 9.79122l.0001 50.40384c0 .64544-.32644 1-1 1z" fill="url(#linearGradient4524-4)" stroke-width="2"/>
    <path d="m-39.811096 59.94691c0 4.46531-3.067448 5.978576-5.549678 7.662246-5.10854 3.46508-13.669156 1.756744-19.450326 1.837764-.081 5.78116 1.723142 12.231893-1.741938 17.340433-1.68367 2.48224-4.847792 5.659577-7.758062 5.659577 2.31803 0 4.74284-1.334761 7.58402-4.084811 9.14197-8.84873 14.36714-11.135349 22.673154-20.297529 1.91895-2.11675 4.24283-3.64188 4.24283-8.11768z" filter="url(#filter1164)" opacity=".4" transform="matrix(2 0 0 -2 296.61038 201.88787)"/>
    <path d="m41.98818 127.00001c-.67968 0-1-.46923-1-1v-103.937498c0-1.64316 1.35864-2.999022 3-3l105.00001-.0626c.10614-.000064 6.54777.016 7.927-.0001 13.08194 9.00722 37.2746 31.906578 55.16506 49.910198 2.9537 3.31296.9152.74012 2.90782 3.2149l.00012 53.875c0 .64544-.32644 1-1 1z" fill="url(#radialGradient5988-0)" opacity=".846535" stroke-width="2"/>
    <path clip-path="url(#clipPath6093-7)" d="m114.4 82.502986c0 4.465301-4.99749 12.609952-7.47972 14.293625-5.10854 3.465079-12.739114 1.52536-18.520284 1.60638-.081 5.781159 1.96586 11.304599-1.49922 16.413139-1.68367 2.48224-9.79051 8.68687-12.70078 8.68687-2.091359 1.5337 3.488204 8.21101 6.734971 5.31989 9.501888-8.46107 35.131683-30.022704 43.350823-39.262889 2.04044-2.29392-4.90514-9.844666-9.88579-7.057015z" filter="url(#filter6171-8)" opacity=".277228" transform="matrix(2 0 0 -2 -7.01182 257.00001)"/>
    <path d="m173.94219 122h15.25781m-31.45781 0h13.31367m-25.91367 0h9.71367m-26.51133 0h13.91133m-21.11133 0h4.31367m-18.35508 0h11.15508m-23.874604 0h9.833204m-44.6168 0h31.897269m-19.680471-12h-12.216798m32.016798 0h-16.913673m32.635545 0h-12.835545m27.235545 0h-11.51367m23.27695 0h-8.87695m32.75508 0h-20.9918m33.11367 0h-9.23555m21.7336 0h-9.61172m24.01172-11.999999h-6.48985m-12.12187 0h9.23555m-28.55743 0h16.43555m-25.31601 0h5.99414m-17.3918 0h8.51133m-18.22851 0h6.83085m-16.90664 0h7.18946m-17.63087 0h7.55508m-23.39648 0h12.95508m-26.152734 0h10.311327m-17.147466 0h3.949812m-16.428519 0h9.59238m47.04962-24h5.75507m53.88398 12h16.91895m-22.31895-12h25.91895m-44.03848 0h15.23321m-33.23321 0h15.11368m14.28398 12h9.23555m-25.67461 0h13.55273m-26.99648 0h10.55742m-22.67754 0h9.23379m-6.10664-12h6.5918m-29.51895 12h16.91367m-37.072266 0h17.272269m-26.272269 0h6.111918m-19.309572 0h10.309572m29.176173-12h14.269925m-26.3918 0h9.235548m-18.235548 0h6.113673m-24.477543 0h15.477543m3.121875-12h-18.599418m27.838476 0h-6.352731m27.952735 0h-18.713677m27.713677 0h-6.11368m13.31368 0h-4.31368m21.11133 0h-13.91133m30.11133 0h-13.31367m-1.8-12.000002h17.27227m-29.63321 0h9.47461m-22.07461 0h9.71368m-25.91368 0h13.31368m-25.913676 0h9.713673m-39.475197 0h26.875197m39.603513-12h28.91602m-43.07696 0h11.27461m-17.99473 0h3.8338m-17.026176 0h10.304296m-25.308988 0h12.118365m-29.518947 0h14.514255" fill="none" stroke="url(#linearGradient59)" stroke-width="5.6921"/>
    <path d="m216.98819 79.99405c0-8.93062-5.59498-12.81992-10.55944-16.18726-10.21708-6.93016-21.87823-6.65072-33.44057-6.81276-.162-11.56232.33172-19.009198-6.59844-29.226278-3.36734-4.96448-10.58102-10.773742-16.40156-10.773742 4.63606 0 8.88785 3.363424 15.16804 8.169622 19.0787 14.60084 26.40937 20.968606 43.34631 38.595058 3.95915 4.12033 8.48566 7.28376 8.48566 16.23536z" fill="url(#linearGradient3895-3)"/>
    <path d="m217.02569 78.57501c-.63286-7.7982-7.04582-11.80562-11.7-14.9625-10.21708-6.93016-22.67516-4.65046-34.2375-4.8125-.162-11.56232 1.70516-20.632918-5.225-30.849998-2.94642-4.34392-8.19891-9.3202-13.525-10.500002 3.96092.724602 7.76986 3.322782 12.5375 7.937502.67823.77706 1.14859 1.3579 2.2125 3 6.93016 10.21708 5.84737 16.931438 6.00937 28.493758 11.56234.162 23.43605-.42392 33.65313 6.50624.93084.63138 3.18798 2.3755 4.0125 3.2 3.07258 3.07258 5.80342 5.22684 6.2625 11.9875zm-64.6875-61.125c-.31532-.0698-.62688-.0828-.9375-.125.31398.0338.62088.067.9375.125z" fill="#fff"/>
  </g>
  <g>
    <rect fill="url(#linearGradient4090)" height="5.36652" rx=".27518" ry=".332376" transform="scale(1 -1)" width="180" x="34.990292" y="-130.68326"/>
    <rect id="rect2225" fill="#ff6868" height="10.6668" rx=".412785" ry=".498582" transform="scale(1 -1)" width="10.6668" x="31.26437" y="-133.3334"/>
    <use fill="#e4a4a4" height="88" transform="translate(178.39253)" width="88" xlink:href="#rect2225"/>
  </g>
  <g transform="matrix(1.5995415 0 0 1.5995415 -19.918178 301.22245)">
    <use transform="matrix(-.191861 -.98142211 .98142211 -.191861 133.179995 43.015314)" xlink:href="#use9235"/>
    <use transform="matrix(.79557955 -.21092909 .21092909 .79557955 56.461061 44.743691)" xlink:href="#use9289"/>
    <use transform="matrix(-.98534468 .17057512 .17057512 .98534468 188.0372 15.354326)" xlink:href="#g170"/>
    <use transform="matrix(-1 0 0 1 200.84091 32.549873)" xlink:href="#use157"/>
    <use transform="matrix(-.98166202 .1906297 .1906297 .98166202 227.66513 12.206647)" xlink:href="#use154"/>
    <use transform="matrix(-.41691044 -.6349744 -.6349744 .41691044 100.54642 29.199464)" xlink:href="#use9289"/>
    <g id="use9289" transform="matrix(-1.0459933 0 0 1.0459934 164.31632 -66.694283)">
      <path d="m430.24998 9.6588594-11.5 3.7499996-.75 2.5-4 .75-.5 3-2.25 8.999997 2.25 6 11 1.5 5-9s3.5-2.25 4.25-4.249997c.75-2 2.5-9.25 1.25-10.5s-4.75-2.7499996-4.75-2.7499996z" fill-opacity=".326389" filter="url(#filter4023)" transform="matrix(-.65344257 0 0 .65344257 387.30867 -41.697289)"/>
      <path d="m106.60556-35.217345 7.3684 2.40274.48054 1.601826 2.56293.480548.32035 1.922192 1.44166 5.766573-1.44166 3.844384-7.04802.961096-3.20366-5.766575s-2.24256-1.441644-2.7231-2.723104c-.48056-1.281461-1.60184-5.926758-.80092-6.727671s3.04348-1.762009 3.04348-1.762009z" fill="url(#linearGradient27)"/>
      <path d="m106.69606-35.378856 7.32742 2.389377.47789 1.592918 2.54866.477876.31859 1.911502 1.43362 5.734506-1.43362 3.823003-.17921.01995 1.35399-3.584065-1.43363-5.734506-.31859-1.911502-2.54866-.477876-.47789-1.592918-7.32742-2.389377s-1.94387.832757-2.84734 1.592918c.0221-.034.0537-.0735.0797-.09956.79645-.796459 3.02653-1.75221 3.02653-1.75221z" fill="#fff"/>
    </g>
    <g transform="matrix(.64278762 -.76604443 .76604443 .64278762 101.815638 -38.501815)">
      <path d="m413.5148-4.918458 3.18198.176777 5.12652-4.065864 3.35876-.883884 2.82843 1.060661 2.65165-1.590991 4.06586 2.121321 4.94975 3.535533 6.71751 5.126525-9.19238 2.358757-7.07107-1.767767-11.84404-2.828427-3.0052-.828427z" fill="#8d96a7" filter="url(#filter4069)" transform="matrix(-.62299729 0 0 .62299729 308.25195 -34.713122)"/>
      <path d="m50.633356-37.777308-1.982369.110132-3.193811-2.533023-2.092491-.550657-1.762107.660789-1.651976-.991183-2.533015 1.321577-3.08368 2.202628-4.184991 3.193811 5.726826 2.715494 4.405254-1.101315 7.378811-1.762102 1.872229-1.762102z" fill="url(#radialGradient28543)"/>
      <path d="m39.954273-41.046243 1.654838.992902 1.752181-.661934 2.102614.545122 3.19286 2.530927 1.985806-.09734-.17522.253093-1.810586.09734-3.19286-2.530926-.456013-.0774-1.669951 1.155243.02333-1.622962-2.004078 1.903103.251896-1.241169-1.654838-.992902-1.556149 3.346216-.974776-2.022346-.98357.699013-.727339 1.426018-1.384608.07493-3.971612 3.037111-.21415-.09734 4.185762-3.192862 3.095517-2.199958z" fill="#fff" opacity=".459016"/>
    </g>
    <g transform="matrix(.30883576 -.66230042 .66230042 .30883576 55.079841 26.355896)">
      <path d="m434.728 62.256684 3.18198.176777 5.12652-4.065864 3.35876-.883884 2.82843 1.060661 2.65165-1.590991 4.06586 2.121321 3.15681.403916 1.79294 3.131617 4.4953 1.290335 2.22221 3.83619-2.41859 9.996319-13.84486-9.405329-11.84404-2.828427-3.0052-.828427z" fill="#8d96a7" filter="url(#filter14744)" transform="matrix(-.91444609 0 0 .91444609 502.19746 -102.306)"/>
      <path d="m105.2928-45.116691-2.91148.161738-4.690685-3.720199-3.073217-.80875-2.587959.970488-2.426235-1.455732-3.7202 1.940976-3.179064.370317-1.349885 2.864653-4.339185 1.340088-1.807221 3.350601.844737 9.475751 13.786628-3.862387 11.086576-3.655305 3.57279 2.585728z" fill="url(#radialGradient28445)"/>
      <path d="m89.608616-49.917724 2.430449 1.458262 2.573382-.972175 3.088085.800611 4.689298 3.717133 2.91653-.143018-.25736.371701-2.65917.143018-4.689298-3.717118-3.088085-.800625-2.573382.972174-2.430449-1.458247-3.717134 1.944334-3.187748.368355-1.35857 2.862691-3.664822 1.606691-2.168221 2.85386-.157263-.0715-.157262-.0715 1.785044-3.425525 4.362524-1.263767 1.35857-2.862691 3.187748-.368355 3.717134-1.944349z" fill="#fff"/>
      <path d="m89.608616-49.917724 2.430449 1.458262 2.573382-.972175 3.088085.800611 4.689298 3.717133 2.91653-.143018-.25736.371701-2.65917.143018-4.689298-3.717118-1.652649 4.469358-1.435436-5.269983-2.573382.972174-1.668425 2.670518-.762024-4.128765-3.717134 1.944334-.82012 5.004033-2.367628-4.635678-1.35857 2.862691-.585908 5.193061-3.078914-3.58637-2.168221 2.85386-.157263-.0715-.157262-.0715 1.785044-3.425525 4.362524-1.263767 1.35857-2.862691 3.187748-.368355 3.717134-1.944349z" fill="#fff" opacity=".393443"/>
    </g>
    <g id="use154" transform="matrix(-.39411908 .68263424 .68263424 .39411908 177.65289 -429.75506)">
      <path d="m425.95457 87.959416 4.75.5.5-7.749999 6.5 6.499999 5 .25 3 2.5 5 5.25-4.25 4.5-9.5 1.500004-8.25-5.250004-3.5-5.75z" fill="#7c7c7c" filter="url(#filter4181)" transform="matrix(.67373805 0 0 .67373805 142.60259 30.914035)"/>
      <path d="m429.58439 90.17564 3.20025.336869.33687-5.221469 4.3793 4.379296 3.36869.168435 2.02121 1.684345 3.36869 3.537125-2.86338 3.031821-6.40052 1.01061-5.55834-3.537128-2.35808-3.873994z" fill="url(#radialGradient207)"/>
      <path d="m433.12152 85.291037-.33687 5.22147-3.20026-.336869-.5053 1.51591.29476.48425.48425-1.452748 3.20025.336869.33687-5.22147 4.3793 4.379297 3.36869.168435 2.02121 1.684345 2.96866 3.116038.12633-.126325-3.36869-3.537125-2.02122-1.684345-3.36869-.168435z" fill="#fff"/>
      <path d="m425.95457 87.959416 4.75.5.5-7.749999 6.5 6.499999 5 .25 3 2.5 5 5.25-4.25 4.5-9.5 1.500004-8.25-5.250004-3.5-5.75z" fill="url(#radialGradient28451)" filter="url(#filter4175)" transform="matrix(.67373805 0 0 .67373805 142.60259 30.914035)"/>
    </g>
    <g id="use157" transform="matrix(-.71837167 0 0 .71837167 420.69542 -146.67219)">
      <path d="m425.95457 87.959416 4.75.5.5-7.749999 6.5 6.499999 5 .25 3 2.5 5 5.25-4.25 4.5-9.5 1.500004-8.25-5.250004-3.5-5.75z" fill="#7c7c7c" filter="url(#filter4181)" transform="matrix(.67373805 0 0 .67373805 142.60259 30.914035)"/>
      <path d="m429.58439 90.17564 3.20025.336869.33687-5.221469 4.3793 4.379296 3.36869.168435 2.02121 1.684345 3.36869 3.537125 1.75537 1.780582.22943 3.244777 2.36589 2.27674 2.52216 10.90307-16.83219-4.30006-6.63312-11.945693-.58786-5.328107z" fill="url(#radialGradient207)"/>
      <path d="m433.12152 85.291037-.33687 5.22147-3.20026-.336869-.5053 1.51591.29476.48425.48425-1.452748 3.20025.336869.33687-5.22147 4.3793 4.379297 3.36869.168435 2.02121 1.684345 2.96866 3.116038.12633-.126325-3.36869-3.537125-2.02122-1.684345-3.36869-.168435z" fill="#fff"/>
      <path d="m425.95457 87.959416 4.75.5.5-7.749999 6.5 6.499999 5 .25-2.21962 2.210021 5 5.25-3.73576 5.130363-4.59556 1.64068-8.44906-5.731064-3.5-5.75z" fill="url(#radialGradient28451)" filter="url(#filter4175)" transform="matrix(.67373805 0 0 .67373805 142.60259 30.914035)"/>
    </g>
    <g transform="matrix(.8133367 .37926514 -.37926514 .8133367 -258.51754 -321.39323)">
      <path d="m425.95457 87.959416 4.75.5 1.11881-4.621549 5.88119 3.371549 5 .25 3 2.5 5 5.25-4.11249 2.643557-9.63751 3.356447-8.25-5.250004-3.5-5.75z" fill="#7c7c7c" filter="url(#filter4181)" transform="matrix(.67373805 0 0 .67373805 142.60259 30.914035)"/>
      <path d="m429.58439 90.17564 3.20025.336869.80011-2.835767 3.91606 1.993594 3.36869.168435 2.02121 1.684345 3.36869 3.537125-2.12219 8.405439-10.47706-.42544-6.99439-1.59151 2.41332-9.75718z" fill="url(#radialGradient207)"/>
      <path d="m433.58476 87.653577-.80011 2.85893-3.20026-.336869-.5053 1.51591.29476.48425.48425-1.452748 3.20025.336869.80011-2.85893 3.91606 2.016757 3.36869.168435 2.02121 1.684345 2.96866 3.116038.12633-.126325-3.36869-3.537125-2.02122-1.684345-3.36869-.168435z" fill="#fff"/>
      <path d="m425.95457 87.959416 4.75.5 1.18066-4.249456 5.81934 2.999456 5 .25 3 2.5-4.72373 2.916305 5.86268 19.669019-17.47346-3.55634-.66549-13.028984-3.5-5.75z" fill="url(#radialGradient28451)" filter="url(#filter4175)" transform="matrix(.67373805 0 0 .67373805 142.60259 30.914035)"/>
    </g>
    <g id="use9235" transform="matrix(.23500395 .42355848 -.42355848 .23500395 83.615429 -80.094083)">
      <path d="m413.5148 74.984606 3.18198.176777 5.12652-4.065864 3.35876-.883884 2.82843 1.060661 2.65165-1.590991 4.06586 2.121321 4.94975 3.535533 6.71751 5.126525-9.19238 2.358757-7.07107-1.767767-11.84404-2.828427-3.0052-.828427z" fill="#8d96a7" filter="url(#filter4069)" transform="matrix(1.315114 0 0 1.315114 -492.67638 -145.33184)"/>
      <path d="m51.142711-46.718523 4.184674.232478 6.741965-5.347074 4.417152-1.162415 3.719706 1.394892 3.487228-2.092338 5.347074 2.789783 6.509488 4.649628 8.834288 6.741966-12.089039 5.732264-9.299242-2.324814-15.576282-3.719706-3.952169-3.719706z" fill="url(#radialGradient41)"/>
      <path d="m73.68569-53.619073-1.746638 1.047978-1.746637 1.047978-1.849374-.698652-1.849374-.698652-2.219258.575364-2.219258.575366-6.739961 5.34264-4.153257-.288351.369871.534269 3.783386.288351 6.739961-5.342656 2.219258-.575356 2.219258-.575357 1.849374.698652 1.849374.698652 1.746637-1.047978 1.746638-1.047978 2.671328 1.397304 2.671327 1.397304 3.267229 2.322001 3.26723 2.322001 4.191926 3.20559 4.191927 3.205588.226039-.10274.226037-.10274-4.417964-3.369979-4.417965-3.36998-3.26723-2.322001-3.267229-2.322003-2.671327-1.397304z" fill="#fff"/>
      <path d="m70.770176-56.396197-1.312953.787768-1.312953.787769-1.39018-.525179-1.390181-.525179-1.668223.432503-1.668224.432504-5.06645 4.01608-3.134475-.216754.278033.401612 2.856442.216754 5.06645-4.016092 1.066164 3.73175 2.270283-4.596745.236233 3.836508 2.544128-2.78615 1.363125 3.175793 1.262781-4.75133.60324 3.609112 3.412851-1.508396-.955686 4.60524 5.86766-1.114328-.511446 4.015145 6.813616.804158.169914-.07723.169913-.07723-3.320998-2.533224-3.320999-2.533225-2.455987-1.745456-2.455987-1.745457-2.008045-1.050358z" fill="#fff" filter="url(#filter20074)" opacity=".349727" transform="matrix(1.3303122 0 0 1.3303122 -20.460739 21.405476)"/>
    </g>
    <g id="g170" transform="matrix(.61520037 .23881982 -.23881982 .61520037 -27.890079 -79.627069)">
      <path d="m442.24999 90.400001 3.5 2.5 6 1.75 4.5 1v3.25l4.25 1.249999.5 16.75-19.25-18.499999z" fill="#8d96a7" filter="url(#filter4126)" transform="matrix(.88354323 0 0 .88354323 -296.72407 -123.56112)"/>
      <path d="m94.022948-43.15868 3.092402 2.208858 5.30126 1.546209 3.97595.883544v2.871509l3.75505 1.104437.44177 14.799349-17.174479-14.017511z" fill="url(#radialGradient9341)"/>
      <path d="m94.022963-43.180773-.441773 7.068349.02762.02762.414172-6.488516 3.092387 2.20886 5.301261 1.546194 3.97594.883544v-.607435l-3.97594-.883543-5.301261-1.546194-3.092387-2.208859zm12.369607 7.510121v.607435l3.75506 1.104436.41415 14.164299.0276.02762-.44177-14.799363-3.75506-1.104423z" fill="#fff"/>
    </g>
    <use transform="matrix(.90997762 -.41465737 .41465737 .90997762 96.733464 29.841724)" xlink:href="#g170"/>
    <use transform="matrix(.87516463 .48382526 -.48382526 .87516463 12.462965 9.320089)" xlink:href="#use154"/>
    <use transform="matrix(1.2329348 .38023302 -.38023302 1.2329348 55.641928 -14.027987)" xlink:href="#g170"/>
    <use transform="matrix(.72160929 .90238586 -.90238586 .72160929 -15.14916 -87.607432)" xlink:href="#use154"/>
    <use transform="matrix(-.95268661 .3039543 .3039543 .95268661 105.79192 13.693032)" xlink:href="#g170"/>
    <use transform="matrix(-1.0588343 -.38538416 .38538416 -1.0588343 144.6011 -122.84263)" xlink:href="#g170"/>
    <use transform="matrix(-.93338533 -.35887578 .35887578 -.93338533 193.958816 -129.881393)" xlink:href="#g170"/>
    <use transform="matrix(1.013441 .71018737 -.71018737 1.013441 -82.64567 -107.8109)" xlink:href="#use9235"/>
    <use transform="matrix(.74465229 -.24298281 .24298281 .74465229 73.665742 19.462836)" xlink:href="#use9289"/>
  </g>
</svg>
