<svg enable-background="new 0 0 128 128" height="256" viewBox="0 0 256 256" width="256" xmlns="http://www.w3.org/2000/svg" xmlns:xlink="http://www.w3.org/1999/xlink">
  <defs>
    <linearGradient id="linearGradient6113">
      <stop offset="0"/>
      <stop offset="1" stop-opacity="0"/>
    </linearGradient>
    <linearGradient id="linearGradient3235">
      <stop offset="0" stop-color="#fff"/>
      <stop offset="1" stop-color="#fff" stop-opacity="0"/>
    </linearGradient>
    <linearGradient id="linearGradient3207">
      <stop offset="0" stop-color="#fff"/>
      <stop offset="1" stop-color="#252525" stop-opacity="0"/>
    </linearGradient>
    <radialGradient id="radialGradient6054" cx="49.011971" cy="2.674308" gradientTransform="matrix(1.5495914 0 0 .1876849 -193.24041 -23.535874)" gradientUnits="userSpaceOnUse" r="1.724619" xlink:href="#linearGradient3207"/>
    <radialGradient id="radialGradient6052" cx="49.011971" cy="2.674308" gradientTransform="matrix(1.550633 0 0 .1873121 21.621938 -31.864287)" gradientUnits="userSpaceOnUse" r="1.724619" xlink:href="#linearGradient3207"/>
    <radialGradient id="radialGradient6050" cx="49.011971" cy="2.674308" gradientTransform="matrix(2.2600183 0 0 .2752449 -2.259041 -25.415382)" gradientUnits="userSpaceOnUse" r="1.724619" xlink:href="#linearGradient3207"/>
    <linearGradient id="linearGradient6048" gradientTransform="matrix(.9973012 0 0 .9997782 .28069 .010646)" gradientUnits="userSpaceOnUse" x1="92.226158" x2="96.579895" y1="54.119438" y2="57.15118">
      <stop offset="0" stop-color="#ea3838"/>
      <stop offset="1" stop-color="#c40000"/>
    </linearGradient>
    <linearGradient id="linearGradient6046" gradientTransform="matrix(1.6732108 1.5189394 -1.5009523 1.6928488 18.675678 -24.465565)" gradientUnits="userSpaceOnUse" x1="48.498562" x2="48.732723" xlink:href="#linearGradient3235" y1=".811505" y2="2.365727"/>
    <linearGradient id="linearGradient6044" gradientTransform="matrix(.6182226 0 0 .6232687 24.10803 47.993844)" gradientUnits="userSpaceOnUse" x1="33.342377" x2="24.450998" y1="117.83894" y2="107.35519">
      <stop offset="0"/>
      <stop offset="1" stop-color="#515151"/>
    </linearGradient>
    <radialGradient id="radialGradient6042" cx="34.677639" cy="7.462277" gradientTransform="matrix(-1.5103 .00264127 -.00011671 -.00911022 87.0522 7.438666)" gradientUnits="userSpaceOnUse" r="47.595196" xlink:href="#linearGradient3235"/>
    <linearGradient id="linearGradient6040" gradientUnits="userSpaceOnUse" x1="-12.817558" x2="82.172836" y1="7.462277" y2="7.462277">
      <stop offset="0" stop-color="#fff" stop-opacity=".683453"/>
      <stop offset="1" stop-color="#fff" stop-opacity="0"/>
    </linearGradient>
    <linearGradient id="linearGradient6038" gradientTransform="matrix(.9992082 0 0 .9993395 .108362 -.090375)" gradientUnits="userSpaceOnUse" x1="114.92793" x2="100.65602" y1="-22.560064" y2="-22.052734">
      <stop offset="0" stop-color="#980000"/>
      <stop offset="1" stop-color="#db5c5c"/>
    </linearGradient>
    <linearGradient id="linearGradient6036" gradientTransform="matrix(1.2875994 1.1737414 -.5465891 .6213041 81.686465 27.89447)" gradientUnits="userSpaceOnUse" x1="11.326384" x2="14.493531" y1="57.383999" y2="57.383999">
      <stop offset="0" stop-color="#9a7600"/>
      <stop offset=".09292036" stop-color="#e3ad00"/>
      <stop offset=".5043171" stop-color="#ffcd2c"/>
      <stop offset=".91571385" stop-color="#e3ad00"/>
      <stop offset="1" stop-color="#b98d00"/>
    </linearGradient>
    <linearGradient id="linearGradient6034" gradientTransform="matrix(.9986497 0 0 .9998891 .14044 .005323)" gradientUnits="userSpaceOnUse" x1="76.708534" x2="80.579521" y1="83.325729" y2="87.154587">
      <stop offset="0" stop-color="#d4a100" stop-opacity=".976471"/>
      <stop offset="1" stop-color="#ffc712"/>
    </linearGradient>
    <linearGradient id="linearGradient6032" gradientTransform="matrix(.9986497 0 0 .9998891 .14044 .005323)" gradientUnits="userSpaceOnUse" x1="75.848022" x2="81.452583" y1="72.804123" y2="77.047241">
      <stop offset="0" stop-color="#252525"/>
      <stop offset=".5" stop-color="#252525"/>
      <stop offset=".75" stop-color="#252525"/>
      <stop offset="1"/>
    </linearGradient>
    <radialGradient id="radialGradient6030" cx="42.617531" cy="120.64188" gradientTransform="matrix(1.909059 1.8392116 -8.6222515 7.5766472 1009.8522 -881.36145)" gradientUnits="userSpaceOnUse" r="3.406888">
      <stop offset="0" stop-color="#b4942a"/>
      <stop offset="1" stop-color="#e4dcc9"/>
    </radialGradient>
    <linearGradient id="linearGradient6028" gradientTransform="matrix(1.3755238 0 0 1.8570645 -22.548199 -92.562977)" gradientUnits="userSpaceOnUse" x1="63.911137" x2="87.757362" xlink:href="#linearGradient6113" y1="79.998817" y2="93.999413"/>
    <filter id="filter3825" height="1.052361" width="1.055602" x="-.027801" y="-.02618">
      <feGaussianBlur stdDeviation=".6715998"/>
    </filter>
    <filter id="filter3849" height="1.777462" width="1.015902" x="-.007951" y="-.388731">
      <feGaussianBlur stdDeviation=".31468463"/>
    </filter>
    <mask id="mask753" maskUnits="userSpaceOnUse">
      <g transform="translate(248.01637 30.885255)">
        <path d="m-184.42232-32.47243c-33.12519 0-64 32.374805-64 65.5 0 33.12519 31.37481 64 64.5 64 30.28912 0 55.33661-26.21626 59.40625-55.34375l-35.03125-5.03125c-1.62468 11.96113-11.93007 20.96875-24.375 20.96875-13.57163 0-22.09375-11.52212-22.09375-25.09375 0-13.571634 6.02212-20.09375 19.59375-20.09375 6.78582-.000001 9.92129-2.234956 14.375 2.21875l-4.82718 11.327179c-2.05587 2.05587-2.24372 3.30578-1.67961 4.615529.50857 1.180779 1.52073 2.526042 4.20973 2.526042h43.95331c3.84589 0 6.45899-2.654379 6.45899-6.250131l-.0689-44.078018c0-2.480755-.90251-3.843229-2.18147-4.349615-1.31432-.520385-3.03321-.122678-5.10709 1.9512l-10.19531.195314c-10.85935-10.859351-26.3749-13.0625-42.9375-13.0625z" fill="url(#radialGradient765)"/>
        <path d="m-165.97219 35.741664c-.5 2.5-25.73233 13.210991-25.73233 13.210991l-17.54044 57.354135 93.24867-15.147495 17.090919-53.805075z" fill-rule="evenodd"/>
        <rect height="12.847281" width="65.162331" x="-178.8031" y="34.267242"/>
        <rect fill="url(#linearGradient767)" filter="url(#filter1764-1)" height="141.67763" ry="0" width="84.954704" x="-264.30585" y="-30.310705"/>
      </g>
    </mask>
    <radialGradient id="radialGradient765" cx="-112.17241" cy="118.60459" fx="-113.14772" fy="59.708473" gradientTransform="matrix(.6484284 .1017206 -.03125715 .1992521 -4.56257 53.15916)" gradientUnits="userSpaceOnUse" r="59.995121">
      <stop offset="0" stop-color="#fff" stop-opacity="0"/>
      <stop offset=".5" stop-color="#fff" stop-opacity=".18705"/>
      <stop offset="1" stop-color="#fff"/>
    </radialGradient>
    <linearGradient id="linearGradient767" gradientUnits="userSpaceOnUse" x1="-197.15518" x2="-182.5446" xlink:href="#linearGradient6113" y1="9.529777" y2="-3.06975"/>
    <filter id="filter1764-1" color-interpolation-filters="sRGB" height="1.052437" width="1.087448" x="-.043724" y="-.026218">
      <feGaussianBlur stdDeviation="1.5477332"/>
    </filter>
    <linearGradient id="linearGradient26065-9" gradientUnits="userSpaceOnUse" x1="64.088867" x2="64.088867" xlink:href="#linearGradient6666" y1="9.679421" y2="123.90625"/>
    <linearGradient id="linearGradient6666">
      <stop offset="0" stop-color="#9fc1f2"/>
      <stop offset=".5" stop-color="#587eb5"/>
      <stop offset="1" stop-color="#0c2a58"/>
    </linearGradient>
    <radialGradient id="radialGradient892" cx="64.444115" cy="-13.566779" gradientTransform="matrix(.675025 0 0 .3583625 19.527377 41.004647)" gradientUnits="userSpaceOnUse" r="59.995121" xlink:href="#linearGradient6404"/>
    <linearGradient id="linearGradient6404">
      <stop offset="0" stop-color="#081e3e"/>
      <stop offset="1" stop-color="#387de4"/>
    </linearGradient>
    <radialGradient id="radialGradient894" cx="-10.165252" cy="66.906013" gradientTransform="matrix(.4582893 -.00000002 .00000005 1.0000813 20.447954 -.005196)" gradientUnits="userSpaceOnUse" r="59.995121" xlink:href="#linearGradient6113"/>
    <radialGradient id="radialGradient896" cx="46.25367" cy="86.72467" fx="46.253662" gradientTransform="matrix(-.00000024 1.1093034 -1.0633726 -.00000014 156.30951 -2.406116)" gradientUnits="userSpaceOnUse" r="59.995121" xlink:href="#linearGradient6113"/>
    <radialGradient id="radialGradient898" cx="64.088867" cy="7.410843" gradientTransform="matrix(.3093869 0 0 .4779247 44.260611 3.864422)" gradientUnits="userSpaceOnUse" r="59.995121" xlink:href="#linearGradient3235"/>
    <filter id="filter3630-1" height="1.036044" width="1.035957" x="-.017978" y="-.018022">
      <feGaussianBlur stdDeviation=".89883985"/>
    </filter>
    <linearGradient id="linearGradient900" gradientUnits="userSpaceOnUse" spreadMethod="reflect" x1="114.405646" x2="119.646806" xlink:href="#linearGradient3235" y1="18.22635" y2="20.10135"/>
    <filter id="filter3738-7" height="1.397879" width="1.301924" x="-.150962" y="-.198939">
      <feGaussianBlur stdDeviation=".39257441"/>
    </filter>
    <linearGradient id="linearGradient26067-8" gradientUnits="userSpaceOnUse" spreadMethod="reflect" x1="120.0625" x2="125.30366" xlink:href="#linearGradient3295-5" y1="12.569496" y2="14.444496"/>
    <linearGradient id="linearGradient3295-5">
      <stop offset="0" stop-color="#63e9ff"/>
      <stop offset="1" stop-color="#fff" stop-opacity="0"/>
    </linearGradient>
    <radialGradient id="radialGradient904" cx="66.33543812786" cy="57.99193594899" gradientUnits="userSpaceOnUse" r="71.5909656" xlink:href="#linearGradient6404"/>
    <radialGradient id="radialGradient906" cx="99.726295" cy="27.418272" fx="64.689766" fy="68.231934" gradientTransform="matrix(.693735 .05867125 -.0362428 .4285387 33.939389 26.8809)" gradientUnits="userSpaceOnUse" r="56" xlink:href="#linearGradient6666"/>
    <linearGradient id="linearGradient26069-7" gradientUnits="userSpaceOnUse" x1="75.09375" x2="75.09375" y1="4.531704" y2="80.172485">
      <stop offset="0" stop-color="#cdeeff"/>
      <stop offset="1" stop-color="#d2e8ed" stop-opacity="0"/>
    </linearGradient>
    <linearGradient id="linearGradient26071-3" gradientUnits="userSpaceOnUse" x1="75.097966" x2="75.097966" xlink:href="#linearGradient3235" y1="4.533675" y2="80.174456"/>
    <linearGradient id="linearGradient26073-6" gradientUnits="userSpaceOnUse" x1="71.40321" x2="76.69478" xlink:href="#linearGradient3295-5" y1="85.216988" y2="1.296342"/>
    <filter id="filter3378-7" height="1.033143" width="1.033143" x="-.016571" y="-.016571">
      <feGaussianBlur stdDeviation=".565"/>
    </filter>
  </defs>
  <g transform="matrix(2.9024214 0 0 2.9024214 -54.647241 -116.73339)">
    <path d="m90.067703 48.28801c.613642-.692125 4.648657-.363057 8.944253 3.536477 4.337724 3.937759 5.210074 7.748115 4.441394 8.615025-.5003.564284-1.00061 1.128566-1.50092 1.692851-4.461914-4.050501-8.9238-8.101002-13.385691-12.151503.500309-.564283 1.000624-1.128565 1.500964-1.69285z" fill="#bf0000" fill-rule="evenodd"/>
    <path d="m36.000762 124 20.247-9.42653.09417-.10772-13.269004-12.28446-.127672.1459z" fill="#b3925d" fill-rule="evenodd"/>
    <path d="m97.750257 56.002191c-1.025821-.04502-1.882013.614542-2.665637.986566-4.174912 3.698786-21.569273 21.653428-22.000397 22.168708l-17.273332 20.659839-.106627.116066-9.682256 17.6334 23.598527-5.26172 29.942357-36.049248 3.589728-4.294461c.64726-1.199814 1.23861-7.813473-1.74155-12.76732-1.452992-2.415269-2.634989-3.146806-3.660813-3.19183zm5.402363 15.95915c-.0266.04924-.0446.143824-.0711.174098-.0129.01476 1.49247-1.049396.6753-.870498z" fill="url(#linearGradient6028)" fill-rule="evenodd" filter="url(#filter3825)"/>
    <path d="m37.004018 123.01573 18.885171-8.78019.09416-.10769-12.551842-11.60866-.12769.14592z" fill="url(#radialGradient6030)" fill-rule="evenodd"/>
    <path d="m49.164276 108.94499c1.648961 1.50106 2.755448 1.51054 3.34488 2.0471.09525.0867.175312.18851.243795.29167l44.639991-51.266458-6.480524-5.899315-44.724863 51.363483c.214748.0564.415855.13454.602285.30424.538767.49045.717813 1.65124 2.374436 3.15928z" fill="url(#linearGradient6032)"/>
    <path d="m54.219542 109.12044-1.750182 2.00168c.538752.53092.431653 1.46553 1.421976 2.36702 1.067261.97156 1.630178.45849 2.321697 1.08447l1.771382-2.02599z" opacity=".353488"/>
    <path d="m97.156354 59.801933-44.606049 51.227617c.541583.53354.517441 1.37742 1.512824 2.28353 1.072712.97652 1.555044.55628 2.250088 1.18547l44.627263-51.251869z" fill="url(#linearGradient6034)"/>
    <path d="m47.641192 104.81388-.897802 1.02682-.0345.0376c.447512.42018.395724 1.39005 1.878296 2.86086l.08229.0749.586334.53373.0823.0749c1.616252 1.35012 2.54668 1.16726 3.136095 1.7038l.947655-1.09585z" fill="#252525" opacity=".386047"/>
    <path d="m43.884886 101.37497-.940801.95531c.02064.0187-.05311.1047-.03237.12358.423005.38509.412824 1.36825 1.189787 2.20191l.072.0655.318878.29029.04115.0374c.925767.72156 1.702344.46358 2.175362.82926l.940872-1.07609z" fill="#131313" opacity=".353488"/>
    <path d="m44.501995 104.6749c1.032229.92922 1.738227.6105 2.287845 1.11081l44.606065-51.227604-3.824461-3.481452-44.627276 51.251876c.02096.019.04162.0379.06269.0571.42971.39116.455145 1.35294 1.495139 2.28929z" fill="url(#linearGradient6036)"/>
    <rect fill="url(#linearGradient6038)" height="4.252269" transform="matrix(.7409346 .6715772 -.6655662 .7463388 0 0)" width="18.073059" x="99.380959" y="-24.64492"/>
    <ellipse cx="34.677639" cy="7.462277" fill="url(#linearGradient6040)" filter="url(#filter3849)" rx="47.495197" ry=".971422" transform="matrix(.3854946 -.4403693 -1.7345162 -1.5764895 62.874028 110.46407)"/>
    <path d="m106.56087 7.4622769a71.883232.4230493 0 0 1 -71.318597.4230363 71.883232.4230493 0 0 1 -72.438996-.4163905 71.883232.4230493 0 0 1 70.180601-.4295776 71.883232.4230493 0 0 1 73.541512.4096419" fill="url(#radialGradient6042)" transform="matrix(.3184879 -.3665274 -1.2576415 -1.1452705 66.925762 101.47904)"/>
    <path d="m44.721041 119.98334c-1.894932-.77816-4.469372-3.93608-5.787909-5.07837l-2.933131 9.08971z" fill="url(#linearGradient6044)" fill-rule="evenodd"/>
    <path d="m97.676422 50.957862c2.773338 2.157871 4.754818 5.136648 4.863888 5.422718.10904.286071-2.586875-3.046365-4.878244-4.572341-2.273846-1.514326-5.450917-1.552229-5.685693-1.736594-.234782-.184361-1.822614-1.877275-.38221-1.814774 1.506596.06537 3.94013 1.035831 6.082259 2.700991z" fill="url(#linearGradient6046)" fill-rule="evenodd"/>
    <path d="m93.653015 51.592952-2.773744 3.218036 6.482458 5.873697 2.773741-3.186793z" fill="url(#linearGradient6048)"/>
    <rect fill="url(#radialGradient6050)" height="1.708078" transform="matrix(.7404161 .6721488 -.6634233 .7482443 0 0)" width="7.795228" x="104.60918" y="-25.364759"/>
    <rect fill="url(#radialGradient6052)" height="1.162492" transform="matrix(.6942228 .7197602 -.7693435 .6388354 0 0)" width="5.348458" x="94.946716" y="-31.829779"/>
    <rect fill="url(#radialGradient6054)" height="1.164788" transform="matrix(-.7514575 -.6597815 -.5893147 .8079036 0 0)" width="5.3449" x="-119.96733" y="-23.501301"/>
  </g>
  <g mask="url(#mask753)" transform="matrix(-1.4433757 .83333334 .83333336 1.4433757 161.4471 -27.372089)">
    <path d="m64.09375 3.90625c-33.125192-.0000001-60.0000001 26.874805-60 60 .0000001 33.125192 26.87481 60 60 60 30.289116 0 55.33661-22.21626 59.40625-51.34375l-35.03125-5.03125c-1.624684 11.961129-11.930074 20.96875-24.375 20.96875-13.571628-.000001-24.59375-11.022119-24.59375-24.59375.000001-13.571634 11.022119-24.59375 24.59375-24.59375 6.785818-.000001 12.921294 2.765044 17.375 7.21875l-4.670325 4.670325c-2.05587 2.05587-2.243725 3.30578-1.679608 4.615529.508568 1.180779 1.549596 2.133108 4.209725 2.526042l38.296458 5.656854c3.80461.561987 6.45899-2.654379 6.45899-6.250131l-5.72575-38.421164c0-2.480755-.90251-3.843229-2.18147-4.349615-1.31432-.520385-3.03321-.122678-5.10709 1.9512l-4.53843 4.53846c-10.859348-10.859351-25.874901-17.5625-42.4375-17.5625z" fill="url(#linearGradient26065-9)"/>
    <path d="m64.09375 3.90625c-33.125192-.0000001-60.0000001 26.874805-60 60 .0000001 33.125192 26.87481 60 60 60 30.289116 0 55.33661-22.21626 59.40625-51.34375l-35.03125-5.03125c-1.624684 11.961129-11.930074 20.96875-24.375 20.96875-13.571628-.000001-24.59375-11.022119-24.59375-24.59375.000001-13.571634 11.022119-24.59375 24.59375-24.59375 6.785818-.000001 12.921294 2.765044 17.375 7.21875l-4.670325 4.670325c-2.05587 2.05587-2.243725 3.30578-1.679608 4.615529.508568 1.180779 1.549596 2.133108 4.209725 2.526042l38.296458 5.656854c3.80461.561987 6.45899-2.654379 6.45899-6.250131l-5.72575-38.421164c0-2.480755-.90251-3.843229-2.18147-4.349614-1.31432-.520385-3.03321-.122679-5.10709 1.951199l-4.53843 4.53846c-10.859348-10.859351-25.874901-17.5625-42.4375-17.5625z" fill="url(#radialGradient892)" opacity=".797753"/>
    <path d="m64.093747 3.906251c-33.125188 0-59.9999961 26.874805-59.9999961 59.999996 0 33.125183 26.8748101 59.999993 59.9999961 59.999993 30.289107 0 55.336603-22.21626 59.406243-51.343739l-35.031239-5.031252c-1.62468 11.961132-11.930078 20.968752-24.375004 20.968752-13.571626 0-24.593748-11.022124-24.593748-24.593754s11.022122-24.593748 24.593748-24.593748c6.78582 0 12.921296 2.765048 17.375008 7.21875l-10.327188 10.327178c-2.055864 2.055874-2.243724 3.305778-1.679604 4.615532.50857 1.180774 1.520734 2.526038 4.209722 2.526038h43.953305c3.84589 0 6.45899-2.654378 6.45899-6.250126-.73897-17.626422-24.161734-128.197327-.0689-44.078019 0-2.480755-.90251-3.843229-2.18147-4.349615-1.31432-.520385-3.03321-.122678-5.10709 1.9512l-10.19528 10.195314c-10.859346-10.859351-25.874895-17.5625-42.437493-17.5625z" fill="url(#radialGradient894)"/>
    <path d="m64.09375 3.90625c-33.125192 0-60.0000001 26.874805-60 60 .0000001 33.12519 26.87481 60 60 60 30.289116 0 55.33661-22.21626 59.40625-51.34375l-35.03125-5.03125c-1.624684 11.961129-11.930074 20.96875-24.375 20.96875-13.571628 0-24.59375-11.022119-24.59375-24.59375.000001-13.571634 11.022119-24.59375 24.59375-24.59375 6.785818-.000001 12.921294 2.765044 17.375 7.21875l-4.670325 4.670325c-2.05587 2.05587-2.243725 3.30578-1.679608 4.615529.508568 1.180779 1.549596 2.133108 4.209725 2.526042l38.296458 5.656854c3.80461.561987 6.45899-2.654379 6.45899-6.250131l-5.72575-38.421164c0-2.480755-.90251-3.843229-2.18147-4.349615-1.31432-.520385-3.03321-.122678-5.10709 1.9512l-4.53843 4.53846c-10.859348-10.859351-25.874901-17.5625-42.4375-17.5625z" fill="url(#radialGradient896)" opacity=".797753"/>
    <path d="m64.09375 4.20625c-33.125192 0-60.0000001 26.574805-60 59.7.0000001 33.12519 26.87481 60 60 60 30.289116 0 55.33661-22.21626 59.40625-51.34375l-35.03125-5.03125c-1.624684 11.96113-11.930074 20.96875-24.375 20.96875-13.571628 0-24.59375-11.022119-24.59375-24.59375.000001-13.571634 11.022119-24.59375 24.59375-24.59375 6.785818-.000001 12.921294 2.765044 17.375 7.21875l-10.327179 10.327179c-2.05587 2.05587-2.243725 3.30578-1.679608 4.615529.508568 1.180779 1.520732 2.526042 4.209725 2.526042h43.953312c3.84589 0 6.45899-2.654379 6.45899-6.250131l-.0689-44.078018c0-2.480755-.90251-3.843229-2.18147-4.349615-1.31432-.520385-3.03321-.122678-5.10709 1.9512l-10.19528 10.195314c-10.859348-10.859351-25.874901-17.2625-42.4375-17.2625z" fill="url(#radialGradient898)" filter="url(#filter3630-1)" opacity=".745318"/>
    <path d="m112.03066 16.406856.9375 4.375 1.25.875 4-2.625c.24688-1.723751-.35117-3.347429-1.9375-4.000001-1.58634-.652571-3.16128.126704-4.25 1.375001z" fill="url(#linearGradient900)" fill-rule="evenodd" filter="url(#filter3738-7)" opacity=".820225"/>
    <path d="m117.6875 10.75 2.1875 3.125.5-.125 3.5-.375c.24688-1.723751-.35117-3.347429-1.9375-4.0000001-1.58634-.6525714-3.16128.1267033-4.25 1.3750001z" fill="url(#linearGradient26067-8)" fill-rule="evenodd" filter="url(#filter3738-7)" opacity=".820225" transform="matrix(0 1 1 0 66.020438 -66.020442)"/>
    <path d="m64.09375 7.90625c-30.961698 0-56.0000001 25.038299-56 56 .0000001 30.9617 25.038304 56 56 56 26.932896 0 49.12173-18.80675 54.53125-44l-27.125-3.875c-3.438564 11.897301-14.440379 20.46875-27.40625 20.46875-15.737346 0-28.59375-12.856401-28.59375-28.59375.000001-15.737351 12.856402-28.59375 28.59375-28.59375 7.872416-.000001 15.051554 3.207804 20.21875 8.375.759464.751409 1.187497 1.775386 1.1875 2.84375 0 1.068364-.428036 2.092341-1.1875 2.84375l-4.968146 4.968146 38.280646 5.656854c1.98385.293159 2.46875-.592164 2.46875-2.25l-5.7506-38.436896-4.96815 4.999396c-.75141.759464-1.77539 1.1875-2.84375 1.1875s-2.09234-.428036-2.84375-1.1875c-10.137665-10.137667-24.110394-16.40625-39.59375-16.40625z" fill="url(#radialGradient904)"/>
    <path d="m64.09375 7.90625c-30.961698 0-56.0000001 25.038299-56 56 .0000001 30.9617 25.038304 56 56 56 26.932896 0 49.12173-18.80675 54.53125-44l-27.125-3.875c-3.438564 11.897301-14.440379 20.46875-27.40625 20.46875-15.737346 0-28.59375-12.856401-28.59375-28.59375.000001-15.737351 12.856402-28.59375 28.59375-28.59375 7.872416-.000001 15.051554 3.207804 20.21875 8.375.759464.751409 1.187497 1.775386 1.1875 2.84375 0 1.068364-.428036 2.092341-1.1875 2.84375l-4.968146 4.968146 38.280646 5.656854c1.98385.293159 2.46875-.592164 2.46875-2.25l-5.7506-38.436896-4.96815 4.999396c-.75141.759464-1.77539 1.1875-2.84375 1.1875s-2.09234-.428036-2.84375-1.1875c-10.137665-10.137667-24.110394-16.40625-39.59375-16.40625z" fill="url(#radialGradient906)"/>
    <path d="m64.09375 7.90625c-30.961698 0-56.0000001 25.038299-56 56 0 .567872.014522 1.123731.03125 1.6875 5.98947.677652 12.141218 1.15013 18.40625 1.40625-.270702-10.459042 3.671609-20.974916 11.8125-28.78125 15.339317-14.708937 39.728563-14.214319 54.4375 1.125 2.763849 2.882296 4.756602 5.688367 6.5625 9.25l-16.257359 6.163609c12.043805 2.653357 27.714399 2.05354 36.889409-1.826908l-5.63265-33.617347-4.96815 4.999396c-.75141.759464-1.77539 1.1875-2.84375 1.1875s-2.09234-.428036-2.84375-1.1875c-10.137665-10.137667-24.110394-16.40625-39.59375-16.40625z" fill="url(#linearGradient26069-7)" opacity=".833333"/>
    <path d="m64.099866 7.908765c-30.96169-.000001-55.9999999 25.038298-55.9999999 55.999999.00001.178712-.00249.354295 0 .53125.25324-30.743505 25.1959799-55.531249 55.9999999-55.531249 15.48337 0 29.45608 6.268582 39.593744 16.406249.75142.759465 1.77539 1.1875 2.84375 1.1875 1.06837.000001 2.09234-.428036 2.84375-1.1875l4.46815-4.499396 6.1506 31.893146c-16.76723 5.788983-36.907354 2.05111-36.907354 2.05111s23.507464 5.048048 37.007354-1.94486l-5.75055-32.499396v-1l-.5.5-4.46815 4.499396c-.7514.759465-1.77539 1.1875-2.84375 1.1875-1.06835.000001-2.09234-.428036-2.84375-1.1875-.0105-.01047-.0208-.02079-.0312-.03125-.0524-.05229-.10367-.104166-.15625-.15625-.5738-.567871-1.15087-1.11515-1.75-1.65625-.0815-.07412-.16804-.145107-.25-.21875-9.916144-8.910179-23.009684-14.343749-37.406344-14.343749zm-.65625 19.218749c-9.23817.25052-18.40344 3.79268-25.59375 10.6875-7.63208 7.318434-11.12755 17.372917-11.3125 27.21875.23988-9.80188 4.18042-19.494066 11.8125-26.8125 13.31613-12.7689 33.45333-14.098057 48.15625-4.1875-6.87906-4.805074-14.98746-7.12523-23.0625-6.90625z" fill="url(#linearGradient26071-3)"/>
    <path d="m63.59375 7.90625c-30.9617 0-56 25.038299-56 56 0 30.9617 25.0383 56 56 56 26.9329 0 49.12173-18.80675 54.53125-44l-27.125-3.875c-3.43856 11.897301-14.44038 20.46875-27.40625 20.46875-15.73735 0-28.59375-12.856401-28.59375-28.59375 0-15.737351 12.8564-28.59375 28.59375-28.59375 7.87242-.000001 15.05155 3.207804 20.21875 8.375.75946.751409 1.1875 1.775386 1.1875 2.84375s-.42804 2.092341-1.1875 2.84375l-4.968146 4.968146 38.280646 5.656854c1.98385.293159 2.46875-.592164 2.46875-2.25l-5.7506-38.436896-4.96815 4.999396c-.75141.759464-1.77539 1.1875-2.84375 1.1875s-2.09234-.428036-2.84375-1.1875c-10.13766-10.137667-24.11039-16.40625-39.59375-16.40625z" style="fill:none;stroke-linecap:round;stroke-linejoin:round;stroke-dashoffset:1.0878;stroke:url(#linearGradient26073-6);filter:url(#filter3378-7)"/>
  </g>
</svg>
