<svg enable-background="new 0 0 121 120" height="256" viewBox="0 0 256 256" width="256" xmlns="http://www.w3.org/2000/svg" xmlns:xlink="http://www.w3.org/1999/xlink">
  <defs>
    <linearGradient id="linearGradient28">
      <stop offset="0" stop-color="#fff"/>
      <stop offset="1" stop-color="#fff" stop-opacity="0"/>
    </linearGradient>
    <linearGradient id="linearGradient2413">
      <stop offset="0"/>
      <stop offset="1" stop-opacity="0"/>
    </linearGradient>
    <linearGradient id="linearGradient3516" gradientTransform="matrix(.9792 0 0 .9725 133.0002 20.8762)" gradientUnits="userSpaceOnUse" x1="64.088867" x2="64.088867" y1="9.679421" y2="123.90625">
      <stop offset="0" stop-color="#124dde"/>
      <stop offset=".35530001" stop-color="#113ec9"/>
      <stop offset=".61940002" stop-color="#1148b7"/>
      <stop offset=".75739998" stop-color="#0e47a5"/>
      <stop offset="1" stop-color="#0b1b5e"/>
    </linearGradient>
    <radialGradient id="radialGradient1324" cx="167.67001" cy="80.404922" gradientTransform="matrix(.2676699 .521376 -.7037472 .3612977 108.99386 -36.062981)" gradientUnits="userSpaceOnUse" r="59.995121" xlink:href="#linearGradient2413"/>
    <radialGradient id="radialGradient3654" cx="-10.165252" cy="66.906013" gradientTransform="matrix(.4582893 -.00000002 .00000005 1.0000813 20.447953 -.005197)" gradientUnits="userSpaceOnUse" r="59.995121" xlink:href="#linearGradient2413"/>
    <radialGradient id="radialGradient3744" cx="46.25367" cy="86.72467" fx="46.253662" gradientTransform="matrix(-.00000024 1.1093034 -1.0633726 -.00000014 156.30951 -2.406116)" gradientUnits="userSpaceOnUse" r="59.995121" xlink:href="#linearGradient2413"/>
    <radialGradient id="radialGradient3767" cx="64.088867" cy="7.410843" gradientTransform="matrix(.3093869 0 0 .4779247 44.260611 3.864422)" gradientUnits="userSpaceOnUse" r="59.995121" xlink:href="#linearGradient28"/>
    <filter id="filter3630-8" height="1.051526" width="1.035128" x="-.017564" y="-.025763">
      <feGaussianBlur stdDeviation=".89883985"/>
    </filter>
    <linearGradient id="linearGradient3676" gradientUnits="userSpaceOnUse" spreadMethod="reflect" x1="117.23407" x2="122.47523" xlink:href="#linearGradient28" y1="15.397923" y2="17.272923"/>
    <filter id="filter3738-1" height="1.397879" width="1.301924" x="-.150962" y="-.198939">
      <feGaussianBlur stdDeviation=".39257441"/>
    </filter>
    <radialGradient id="radialGradient3524" cx="67.09375" cy="116.90626" gradientUnits="userSpaceOnUse" r="71.590965">
      <stop offset="0" stop-color="#2571e5"/>
      <stop offset=".35530001" stop-color="#113581"/>
      <stop offset=".61940002" stop-color="#3874f5"/>
      <stop offset=".75739998" stop-color="#216edf"/>
      <stop offset="1" stop-color="#2f5fa8"/>
    </radialGradient>
    <radialGradient id="radialGradient3535" cx="99.726295" cy="27.418272" fx="64.689766" fy="68.231934" gradientTransform="matrix(.693735 .05867125 -.0362428 .4285387 33.939389 26.8809)" gradientUnits="userSpaceOnUse" r="56">
      <stop offset="0" stop-color="#2c5fd2"/>
      <stop offset="1" stop-color="#0049ff" stop-opacity="0"/>
    </radialGradient>
    <linearGradient id="linearGradient3548" gradientUnits="userSpaceOnUse" x1="75.09375" x2="75.09375" y1="4.531704" y2="80.172485">
      <stop offset="0" stop-color="#c2cee8"/>
      <stop offset="1" stop-color="#c2d0e8" stop-opacity="0"/>
    </linearGradient>
    <linearGradient id="linearGradient3581" gradientUnits="userSpaceOnUse" x1="75.097969" x2="75.097969" xlink:href="#linearGradient28" y1="4.533675" y2="80.174454"/>
    <linearGradient id="linearGradient3771" gradientUnits="userSpaceOnUse" spreadMethod="reflect" x1="120.0625" x2="125.30366" y1="12.569496" y2="14.444496">
      <stop offset="0" stop-color="#4584ff"/>
      <stop offset="1" stop-color="#fff" stop-opacity="0"/>
    </linearGradient>
    <mask id="mask95" maskUnits="userSpaceOnUse">
      <g transform="matrix(1.3362647 1.3362647 -1.3362647 1.3362647 65.729948 -26.449052)">
        <path d="m.82138142 30.781618-2.60833752-9.030106 21.6474401-27.3067626 18.467063-5.0761544 27.072631 17.0082713-32.932822 24.3120127z" fill="#fff"/>
        <rect fill="url(#linearGradient95)" height="34.123039" transform="matrix(.41692975 .90893871 -.90893871 .41692975 0 0)" width="33.428257" x="24.05673" y="-8.477193"/>
      </g>
    </mask>
    <linearGradient id="linearGradient95" gradientUnits="userSpaceOnUse" x1="38.067943" x2="51.082128" xlink:href="#linearGradient28" y1="9.395129" y2="9.482287"/>
    <filter id="filter3404-3" color-interpolation-filters="sRGB" height="1.447955" width="1.142311" x="-.071155" y="-.223977">
      <feGaussianBlur stdDeviation="1.4655712"/>
    </filter>
    <radialGradient id="radialGradient41542-3" cx="-131.62318" cy="35.453381" gradientTransform="matrix(3.0689453 .03997649 -.01384229 1.0626558 341.73819 -54.920585)" gradientUnits="userSpaceOnUse" r="40.111713">
      <stop offset="0" stop-color="#fff3b3"/>
      <stop offset="1" stop-color="#ffe533"/>
    </radialGradient>
    <radialGradient id="radialGradient41526-3" cx="-114.62321" cy="63.758366" gradientTransform="matrix(-.05437281 3.7448539 -5.1029934 -.07409211 298.92805 449.74229)" gradientUnits="userSpaceOnUse" r="19.990749">
      <stop offset="0" stop-color="#fff380" stop-opacity=".890196"/>
      <stop offset="1" stop-color="#ffde0f"/>
    </radialGradient>
    <linearGradient id="linearGradient1435-9" gradientUnits="userSpaceOnUse" x1="34.77993" x2="8.801199" y1="4.185662" y2="88.158432">
      <stop offset="0" stop-color="#fffbdb"/>
      <stop offset=".86219037" stop-color="#fffbdb" stop-opacity=".715337"/>
      <stop offset="1" stop-color="#fffbdb" stop-opacity="0"/>
    </linearGradient>
    <radialGradient id="radialGradient1459-9" cx="1819.1876" cy="82.251923" gradientTransform="matrix(-3.6759818 -1.2418089 1.1310812 -3.3485665 6556.5528 2568.9441)" gradientUnits="userSpaceOnUse" r="20.062654">
      <stop offset="0" stop-color="#fff170"/>
      <stop offset="1" stop-color="#ffdf0f"/>
    </radialGradient>
    <linearGradient id="linearGradient1461" gradientUnits="userSpaceOnUse" x1="-91.69825" x2="-70.117493" y1="4.656933" y2="86.269028">
      <stop offset="0" stop-color="#fffde5"/>
      <stop offset=".81037629" stop-color="#fffce0" stop-opacity=".814724"/>
      <stop offset="1" stop-color="#fffce0" stop-opacity="0"/>
    </linearGradient>
    <linearGradient id="linearGradient1402-8" gradientUnits="userSpaceOnUse" x1="-158.05634" x2="-127.06013" y1="50.037014" y2="77.099533">
      <stop offset="0" stop-color="#fff199" stop-opacity=".521569"/>
      <stop offset="1" stop-color="#fff5b5" stop-opacity=".090196"/>
    </linearGradient>
    <linearGradient id="linearGradient1808" gradientUnits="userSpaceOnUse" x1="-140.36668" x2="-164.8158" y1="80.670319" y2="49.174103">
      <stop offset="0" stop-color="#fff" stop-opacity=".284514"/>
      <stop offset="1" stop-color="#fff" stop-opacity="0"/>
    </linearGradient>
    <filter id="filter1412-3" color-interpolation-filters="sRGB" height="1.061137" width="1.06398" x="-.025214" y="-.025873">
      <feGaussianBlur stdDeviation=".21321066"/>
    </filter>
    <radialGradient id="radialGradient1424-5" cx="-119.1118" cy="125.21239" gradientTransform="matrix(2.3447009 .03078489 -.01686377 1.2844125 250.73313 -31.368766)" gradientUnits="userSpaceOnUse" r="39.9958">
      <stop offset="0" stop-color="#ffdc00"/>
      <stop offset="1" stop-color="#ffeb4c"/>
    </radialGradient>
    <radialGradient id="radialGradient1482-8" cx="-118.5901" cy="140.56108" gradientTransform="matrix(3.5549074 .0751574 -.02652878 1.2547976 395.81057 -24.357921)" gradientUnits="userSpaceOnUse" r="39.9958">
      <stop offset="0" stop-color="#ffdc00"/>
      <stop offset=".95888841" stop-color="#ffe429"/>
      <stop offset="1" stop-color="#ffe014" stop-opacity=".042017"/>
    </radialGradient>
    <linearGradient id="linearGradient1451-1" gradientUnits="userSpaceOnUse" x1="-118.79394" x2="-119.08158" y1="59.672836" y2="112.7418">
      <stop offset="0" stop-color="#fff5b7"/>
      <stop offset=".90624952" stop-color="#fff5b7" stop-opacity=".686675"/>
      <stop offset="1" stop-color="#fff5b7" stop-opacity="0"/>
    </linearGradient>
    <filter id="filter1420-9" color-interpolation-filters="sRGB" height="1.012167" width="6.702491" x="-2.851246" y="-.006084">
      <feGaussianBlur stdDeviation=".1333915"/>
    </filter>
    <linearGradient id="linearGradient1810" gradientUnits="userSpaceOnUse" x1="-119.08158" x2="-119.08475" xlink:href="#linearGradient28" y1="112.38586" y2="107.16949"/>
    <filter id="filter1462-7" color-interpolation-filters="sRGB" height="1.257283" width="1.099227" x="-.049614" y="-.128642">
      <feGaussianBlur stdDeviation=".27960165"/>
    </filter>
    <linearGradient id="linearGradient1471-4" gradientUnits="userSpaceOnUse" x1="-118.85702" x2="-118.67797" y1="57.951923" y2="65.830505">
      <stop offset="0" stop-color="#fff"/>
      <stop offset="1" stop-color="#fff4a9" stop-opacity="0"/>
    </linearGradient>
    <filter id="filter1489-6" color-interpolation-filters="sRGB" height="1.084361" width="1.036838" x="-.018419" y="-.04218">
      <feGaussianBlur stdDeviation=".15915251"/>
    </filter>
    <filter id="filter1643-0" color-interpolation-filters="sRGB" height="1.690779" width="1.751802" x="-.375901" y="-.34539">
      <feGaussianBlur stdDeviation=".83272841"/>
    </filter>
  </defs>
  <g id="g64" mask="url(#mask95)" transform="matrix(1.5035083 .54723229 -.54723223 1.5035082 68.352099 -15.646347)">
    <path d="m119.88582 12.693927c.79339.713112 1.30096 1.945659 1.30096 3.806224l5.72591 38.421309c0 3.595749-2.65466 6.811318-6.45926 6.249333l-38.297009-5.656854c-2.660127-.392933-3.700928-1.343815-4.209496-2.524593-.564116-1.309747-.376489-2.559661 1.679379-4.615529l7.499199-7.499198c-1.144385-1.144386-2.781963-2.172499-4.685964-3.075639-10.88593-7.839676-25.509355-8.045982-36.61211-.516519-12.688095 8.631352-17.449799 25.062797-11.342711 39.140846 6.106825 14.077715-30.3904002 20.60854-30.3904003-12.516619-.0000001-33.125161 26.8753373-60.0004961 60.0004963-60.000496 16.562583 0 31.576737 6.703701 42.436076 17.563041l7.36661-7.366616c2.07388-2.073876 3.79288-2.473214 5.10719-1.95283.31974.126596.61666.306436.88113.54414z" fill="url(#linearGradient3516)"/>
    <path d="m119.88582 12.693927c.79339.713112 1.30096 1.945659 1.30096 3.806224l5.72591 38.421309c0 3.595749-2.65466 6.811319-6.45926 6.249333l-38.297009-5.656854c-2.660127-.392934-3.700928-1.343815-4.209496-2.524593-.564116-1.309747-.376489-2.559661 1.679379-4.615529l7.499199-7.499198c-1.181467-1.181467-2.887153-2.240324-4.871027-3.164027-10.864326-7.727117-25.384112-7.897769-36.427047-.428131-12.688095 8.631352-17.449799 25.062797-11.342711 39.140846 6.106825 14.077715-30.3904002 20.60854-30.3904003-12.516619-.0000001-33.125161 26.8753373-60.0004961 60.0004963-60.000496 16.562583 0 31.576737 6.703701 42.436076 17.563041l7.36661-7.366616c2.07388-2.073876 3.79288-2.473214 5.10719-1.95283.31974.126596.61666.306436.88113.54414z" fill="url(#radialGradient3654)"/>
    <path d="m119.88582 12.693927c.79339.713112 1.30096 1.945659 1.30096 3.806224l5.72591 38.421309c0 3.595749-2.65466 6.811319-6.45926 6.249333l-38.297009-5.656854c-2.660127-.392933-3.700928-1.343815-4.209496-2.524593-.564116-1.309747-.376489-2.559661 1.679379-4.615529l7.499199-7.499198c-1.181467-1.181467-2.887153-2.240324-4.871027-3.164027-10.864326-7.727117-25.384112-7.897769-36.427047-.428131-12.688095 8.631352-17.449799 25.062797-11.342711 39.140846 6.106825 14.077715-30.3904002 20.60854-30.3904003-12.516619-.0000001-33.125161 26.8753373-60.0004961 60.0004963-60.000496 16.562583 0 31.576737 6.703701 42.436076 17.563041l7.36661-7.366616c2.07388-2.073876 3.79288-2.473214 5.10719-1.95283.31974.126596.61666.306436.88113.54414z" fill="url(#radialGradient3744)" opacity=".797753"/>
    <path d="m119.88582 12.693927c.79339.713112 1.30096 1.945659 1.30096 3.806224l5.72591 38.421309c0 3.595749-2.65466 6.811319-6.45926 6.249333l-38.297009-5.656854c-2.660127-.392934-3.700928-1.343815-4.209496-2.524593-.564116-1.309747-.376489-2.559661 1.679379-4.615529l7.499199-7.499198c-1.181467-1.181467-2.887153-2.240324-4.871027-3.164027-10.864326-7.727117-25.384112-7.897769-36.427047-.428131-12.688095 8.631352-17.449799 25.062797-11.342711 39.140846 6.106825 14.077715-30.3904002 20.60854-30.3904003-12.516619-.0000001-33.125161 26.8739563-59.7008043 59.9991153-59.7008042 16.562582 0 31.578118 6.4040092 42.437457 17.2633492l7.36661-7.366616c2.07388-2.073876 3.79288-2.473214 5.10719-1.95283.31974.126596.61666.306436.88113.54414z" fill="url(#radialGradient3767)" filter="url(#filter3630-8)" opacity=".745318" visibility="hidden"/>
    <path d="m114.85908 13.578428.9375 4.375 1.25.875 4-2.625c.24688-1.723751-.35117-3.347429-1.9375-4.000001-1.58634-.652571-3.16128.126704-4.25 1.375001z" fill="url(#linearGradient3676)" fill-rule="evenodd" filter="url(#filter3738-1)" opacity=".820225" visibility="hidden"/>
    <path d="m117.17202 16.484959 5.74938 38.436501c0 1.657835-.48413 2.542919-2.46797 2.24976l-38.280437-5.656854 7.796129-7.796129c.759463-.751408 1.187718-1.776637 1.187718-2.845-.000003-1.068362-.428255-2.090829-1.187718-2.842237-2.766493-2.766493-7.737028-4.946903-12.961323-6.398488-10.784367-4.450222-23.082678-3.187966-32.738215 3.360138-13.787563 9.379373-18.962028 27.234609-12.326031 42.532749 6.635478 15.298654-23.8496625 17.342956-23.8496626-13.618711-.0000001-30.96167 25.0378756-55.9995423 55.9995426-55.9995422 15.483341 0 29.456182 6.2680492 39.593837 16.4057062.75141.759463 1.77526 1.186337 2.84362 1.186337s2.09221-.426874 2.84362-1.186337z" fill="url(#radialGradient3524)"/>
    <path d="m64.09375 7.90625c-30.961698-.0000001-56.0000001 25.038299-56 56 .0000001 30.961698 21.749396 15.737349 21.749396 0 .000001-15.737351 18.513256-34.250604 34.250604-34.250604 7.872416-.000001 20.708408 3.207804 25.875604 8.375.759464.751409 1.187497 1.775386 1.1875 2.84375 0 1.068364-.428036 2.092341-1.1875 2.84375l-7.796573 7.796573 38.280649 5.656854c1.98384.293159 2.46875-.592164 2.46875-2.25l-5.75061-38.436896-7.79657 7.827823c-.75141.759464-1.77539 1.1875-2.84375 1.1875s-2.09234-.428036-2.84375-1.1875c-10.137665-10.137667-24.110394-16.40625-39.59375-16.40625z" fill="url(#radialGradient3535)"/>
    <path d="m117.17202 16.484959 5.14309 34.106853c-4.12776 3.325236-24.076826 1.184051-36.399423 1.336874l16.256553-6.163706c-1.8059-3.561629-3.79899-6.3681-6.562837-9.250393-3.949441-4.118703-9.010269-7.154818-14.589601-9.126097-12.886623-6.132174-28.055718-4.989567-39.878337 3.003823-11.995429 8.16261-18.675441 22.144582-17.488463 36.605205-6.229463-.256634-9.556846-.727502-15.5287281-1.403165-.0167279-.563768-.0303835-1.119793-.0303835-1.687665-.0000001-30.96167 25.0378756-55.9995423 55.9995426-55.9995422 15.483341 0 29.456182 6.2680492 39.593837 16.4057062.75141.759463 1.77526 1.186337 2.84362 1.186337s2.09221-.426874 2.84362-1.186337z" fill="url(#linearGradient3548)" opacity=".833333"/>
    <path d="m64.099866 7.9087646c-30.96169-.0000002-55.9999999 25.0382984-55.9999999 55.9999994.00001.178712-.00249.354295 0 .53125.25324-30.743505 25.1959799-55.5312495 55.9999999-55.5312494 15.48337-.0000001 29.45608 6.2685824 39.593744 16.4062494.75142.759465 1.77539 1.1875 2.84375 1.1875 1.06837.000001 2.09234-.428036 2.84375-1.1875l7.29657-7.327823 5.34425 32.699505c-4.50581 3.215576-23.805189.783015-36.100996 1.24475 10.593901-.101868 30.612046 3.351171 36.200996-1.1385l-4.9442-33.305755v-1l-.5.5-7.29657 7.327823c-.7514.759465-1.77539 1.1875-2.84375 1.1875-1.06835.000001-2.09234-.428036-2.84375-1.1875-.0105-.01047-.0208-.02079-.0312-.03125-.0524-.05229-.10367-.104166-.15625-.15625-.5738-.567871-1.15087-1.11515-1.75-1.65625-.0815-.07412-.16804-.145107-.25-.21875-9.916144-8.910179-23.009684-14.3437494-37.406344-14.3437494zm-.79165 15.1997444c-9.23817.25052-19.344674 3.267752-28.286777 11.878078-8.936918 8.605333-12.239605 20.699646-11.3125 30.047177-.361563-9.839656 3.147907-20.77719 11.8125-29.640927 13.924418-14.244452 37.804157-15.557735 53.813104-4.1875-11.202491-7.783003-17.951287-8.315808-26.026327-8.096828z" fill="url(#linearGradient3581)"/>
    <path d="m119.88582 12.693927c.79339.713112 1.30096 1.945659 1.30096 3.806224l5.72591 38.421309c0 3.595749-2.65466 6.811319-6.45926 6.249333l-38.297009-5.656854c-2.660127-.392934-3.700928-1.343815-4.209496-2.524593-.564116-1.309747-.376489-2.559661 1.679379-4.615529l7.499199-7.499198c-.5801-.389472-1.459183-.808048-2.524592-1.240199-10.910206-9.450444-26.800965-10.414361-38.773482-2.351959-12.688095 8.631352-17.449799 25.062797-11.342711 39.140846 6.106825 14.077715-30.3904002 20.60854-30.3904003-12.516619-.0000001-33.125161 26.8753373-60.0004961 60.0004963-60.000496 16.562583 0 31.576737 6.703701 42.436076 17.563041l7.36661-7.366616c2.07388-2.073876 3.79288-2.473214 5.10719-1.95283.31974.126596.61666.306436.88113.54414zm-65.280324 19.113981c-3.283265-.682937-4.213058-.83672 0 0z" fill="url(#radialGradient1324)" opacity=".689139"/>
    <path d="m117.6875 10.75 2.1875 3.125.5-.125 3.5-.375c.24688-1.723751-.35117-3.347429-1.9375-4.0000001-1.58634-.6525714-3.16128.1267033-4.25 1.3750001z" fill="url(#linearGradient3771)" fill-rule="evenodd" filter="url(#filter3738-1)" opacity=".820225" transform="matrix(0 1 1 0 68.848866 -68.84887)" visibility="hidden"/>
  </g>
  <use transform="matrix(-1 0 0 -1 257.27698 250.8053)" xlink:href="#g64"/>
  <g id="g73" transform="matrix(.43893759 0 0 .43893759 84.190563 51.501831)">
    <path d="m8.0785387 280.34033 24.4484893 8.29821 24.983868-7.58439-24.805409-8.11975z" filter="url(#filter3404-3)" opacity=".25" transform="matrix(5.0147577 0 0 5.0147577 -194.09838 -1299.7327)"/>
    <path d="m-124.06802-12.388385 94.089964 25.967482 93.41549-24.618522-93.752711-24.618523z" fill="url(#radialGradient41542-3)" stroke="#fffde5" stroke-linejoin="bevel" stroke-width="2.3449"/>
    <path d="m-29.978056 78.666422 93.752732 30.688838-.337242-120.394685-93.41549 24.618522z" fill="url(#radialGradient41526-3)" stroke="url(#linearGradient1435-9)" stroke-width="2.3449"/>
    <path d="m-29.978056 78.666422-93.078224 27.990918-1.01174-119.045725 94.089964 25.967482z" fill="url(#radialGradient1459-9)" stroke="url(#linearGradient1461)" stroke-width="2.3449"/>
    <path d="m-158.91925 48.598827 40.12531 11.074011-40.12531 34.084943z" fill="url(#linearGradient1402-8)" filter="url(#filter1412-3)" opacity=".99" stroke="url(#linearGradient1808)" transform="matrix(2.344903 0 0 2.344903 248.58221 -126.34792)"/>
    <path d="m-123.05628 106.65734 92.403736 31.36333 94.42722-28.66541-93.752732-30.688838z" fill="url(#radialGradient1424-5)" stroke="url(#radialGradient1482-8)" stroke-linejoin="bevel" stroke-width="2.3449"/>
    <path d="m-118.79394 59.672838-.28764 53.068962" fill="none" filter="url(#filter1420-9)" stroke="url(#linearGradient1451-1)" transform="matrix(2.344903 0 0 2.344903 248.58221 -126.34792)"/>
    <path d="m-125.49152 110.1187 6.40994 2.26722 7.11548-2.26722c-2.66524.24614-4.73432.42398-7.11865-2.94916-.40211 1.79195-3.08837 2.66151-6.40677 2.94916z" fill="url(#linearGradient1810)" filter="url(#filter1462-7)" transform="matrix(2.344903 0 0 2.344903 248.58221 -126.34792)"/>
    <path d="m-129.50249 56.774986 10.70855 2.897852 10.02929-2.669786c-5.21949 1.908988-9.44019 5.386525-9.91332 8.827455-1.23335-5.556509-8.52133-8.491914-10.82452-9.055521z" fill="url(#linearGradient1471-4)" filter="url(#filter1489-6)" transform="matrix(2.344903 0 0 2.344903 248.58221 -126.34792)"/>
    <ellipse cx="-119.30241" cy="57.740631" fill="#fff" filter="url(#filter1643-0)" opacity=".856" rx="2.658344" ry="2.893179" transform="matrix(3.3690399 0 0 3.3690399 371.97347 -182.16769)"/>
  </g>
  <use transform="translate(108.07909 97.49751)" xlink:href="#g73"/>
</svg>
