<svg height="256" width="256" xmlns="http://www.w3.org/2000/svg" xmlns:xlink="http://www.w3.org/1999/xlink">
  <defs>
    <linearGradient id="linearGradient3260">
      <stop offset="0" stop-color="#fff"/>
      <stop offset="1" stop-color="#fff" stop-opacity="0"/>
    </linearGradient>
    <linearGradient id="XMLID_9_-6" gradientUnits="userSpaceOnUse" x1="94.343803" x2="86.535599" y1="102.3447" y2="94.536598">
      <stop offset="0" stop-color="#5c5c5c"/>
      <stop offset=".31394675" stop-color="#eff0ef"/>
      <stop offset=".72916669" stop-color="#aaaba9"/>
      <stop offset="1" stop-color="#535551"/>
    </linearGradient>
    <linearGradient id="linearGradient7278">
      <stop offset="0"/>
      <stop offset="1" stop-opacity="0"/>
    </linearGradient>
    <filter id="filter7286" color-interpolation-filters="sRGB" height="1.050911" width="1.050937" x="-.025468" y="-.025456">
      <feGaussianBlur stdDeviation=".66771187"/>
    </filter>
    <filter id="filter7416" color-interpolation-filters="sRGB" height="1.154012" width="1.154086" x="-.077043" y="-.077006">
      <feGaussianBlur stdDeviation="2.0893418"/>
    </filter>
    <filter id="filter7274" color-interpolation-filters="sRGB" height="1.014558" width="1.014565" x="-.007283" y="-.007279">
      <feGaussianBlur stdDeviation=".19214062"/>
    </filter>
    <filter id="filter7424" color-interpolation-filters="sRGB" height="1.012003" width="1.01201" x="-.006005" y="-.006002">
      <feGaussianBlur stdDeviation=".15467289"/>
    </filter>
    <filter id="filter8004" color-interpolation-filters="sRGB" height="1.091674" width="1.122635" x="-.061318" y="-.045837">
      <feGaussianBlur stdDeviation="2.1377235"/>
    </filter>
    <linearGradient id="linearGradient6111" gradientUnits="userSpaceOnUse" x1="179.293269" x2="184.626469" xlink:href="#XMLID_9_-6" y1="-50.328096" y2="-50.328096"/>
    <linearGradient id="linearGradient6113" gradientTransform="matrix(1.9999981 0 0 6.9999995 -122.03227 -631.66929)" gradientUnits="userSpaceOnUse" x1="149.32961" x2="154.66281" xlink:href="#XMLID_9_-6" y1="85.334404" y2="85.334404"/>
    <radialGradient id="radialGradient6115" cx="146.66299" cy="120.00019" gradientTransform="matrix(2.0000008 0 0 2.000001 -146.66311 -117.3337)" gradientUnits="userSpaceOnUse" r="5.3332" xlink:href="#XMLID_9_-6"/>
    <linearGradient id="linearGradient6117" gradientUnits="userSpaceOnUse" x1="177.079659" x2="188.722489" xlink:href="#linearGradient3260" y1="-52.541746" y2="-9.09009"/>
    <radialGradient id="radialGradient6119" cx="87.5" cy="35.875004" fx="89.841835" fy="49.577999" gradientTransform="matrix(1.5834776 -.20833001 .20832006 1.5834018 -67.697307 -7.915132)" gradientUnits="userSpaceOnUse" r="19.872202">
      <stop offset="0" stop-color="#dbfdff" stop-opacity=".841479"/>
      <stop offset=".55311084" stop-color="#baf5fc" stop-opacity=".916588"/>
      <stop offset=".75562102" stop-color="#83b5eb" stop-opacity=".916895"/>
      <stop offset="1" stop-color="#5987d1" stop-opacity=".964706"/>
    </radialGradient>
    <radialGradient id="radialGradient6121" cx="177.12991" cy="42.65752" gradientTransform="matrix(1.7311303 .19371147 -.19380456 1.7319623 -121.23783 -65.55117)" gradientUnits="userSpaceOnUse" r="32.512764" xlink:href="#linearGradient7278"/>
    <radialGradient id="radialGradient6123" cx="199.99719" cy="96.868515" gradientTransform="matrix(1 0 0 1.0004806 0 -.035878)" gradientUnits="userSpaceOnUse" r="32.512764" xlink:href="#linearGradient3260"/>
    <linearGradient id="linearGradient6125" gradientUnits="userSpaceOnUse" x1="165.64815" x2="198.18205" y1="33.308235" y2="89.6586">
      <stop offset="0" stop-color="#fff"/>
      <stop offset="1" stop-color="#555753"/>
    </linearGradient>
    <radialGradient id="radialGradient6127" cx="177.12991" cy="42.65752" gradientTransform="matrix(1 0 0 1.0004806 0 -.035878)" gradientUnits="userSpaceOnUse" r="32.512764" xlink:href="#linearGradient3260"/>
    <linearGradient id="linearGradient6129" gradientUnits="userSpaceOnUse" spreadMethod="reflect" x1="183.60056" x2="205.3282" y1="77.033615" y2="114.667">
      <stop offset="0" stop-color="#fff"/>
      <stop offset=".19999996" stop-color="#fff" stop-opacity="0"/>
      <stop offset="1" stop-color="#fff" stop-opacity="0"/>
    </linearGradient>
    <linearGradient id="linearGradient6133" gradientTransform="matrix(1.0260038 .00517786 -.00530278 1.0507565 -23.530791 -12.329575)" gradientUnits="userSpaceOnUse" x1="101.5314" x2="101.5314" xlink:href="#linearGradient3260" y1="18.620571" y2="58.619572"/>
    <radialGradient id="radialGradient6135" cx="94.8315975" cy="37.3355995" gradientUnits="userSpaceOnUse" r="7.9998" xlink:href="#linearGradient3260"/>
    <radialGradient id="radialGradient6137" cx="48.247008" cy="55.471468" gradientUnits="userSpaceOnUse" r="5.3332" xlink:href="#linearGradient3260"/>
    <linearGradient id="linearGradient3208" gradientUnits="userSpaceOnUse" x1="4.59497943788" x2="4.59497943788" y1="128.48346089712" y2="36.79946349986">
      <stop offset="0" stop-color="#810000"/>
      <stop offset="1" stop-color="#c50000"/>
    </linearGradient>
    <clipPath id="clipPath3559">
      <path d="m-64.510272 10.75c-1.042316.0084-2.040208.423209-2.78125 1.15625l-16.96875 16.96875c-1.561474 1.562119-1.561474 4.094131 0 5.65625l25.4375 25.46875-25.4375 25.46875c-1.561474 1.562119-1.561474 4.094131 0 5.65625l16.96875 16.96875c1.562119 1.56147 4.094131 1.56147 5.65625 0l25.46875-25.4375 25.46875 25.4375c1.5621191 1.56147 4.0941311 1.56147 5.6562501 0l16.9687499-16.96875c1.56147-1.562119 1.56147-4.094131 0-5.65625l-25.4375-25.46875 25.4375-25.46875c1.56147-1.562119 1.56147-4.094131 0-5.65625l-16.9687499-16.96875c-1.562119-1.561474-4.094131-1.561474-5.6562501 0l-25.46875 25.4375-25.46875-25.4375c-.764077-.756011-1.800247-1.172731-2.875-1.15625zm31.1875 63.40625c-.751409-.759464-1.775386-1.18681-2.84375-1.18681s-2.092341.427346-2.84375 1.18681z"/>
    </clipPath>
    <filter id="filter3549" height="1.318829" width="1.245312" x="-.122653" y="-.162916">
      <feGaussianBlur stdDeviation="2.5695681"/>
    </filter>
    <linearGradient id="linearGradient5253" gradientTransform="scale(1.0975951 .9110828)" gradientUnits="userSpaceOnUse" x1="26.091133" x2="31.500689" xlink:href="#linearGradient3260" y1="14.856744" y2="14.856744"/>
    <filter id="filter3477" height="1.28034" width="1.232702" x="-.116351" y="-.14017">
      <feGaussianBlur stdDeviation=".28784801"/>
    </filter>
    <linearGradient id="linearGradient5257" gradientUnits="userSpaceOnUse" x1="304.88663" x2="345.62039" y1="385.86127" y2="384.62384">
      <stop offset="0" stop-color="#765c44"/>
      <stop offset="1" stop-color="#765c44" stop-opacity="0"/>
    </linearGradient>
    <linearGradient id="linearGradient3200" gradientUnits="userSpaceOnUse" x1=".95424170017" x2=".95424170017" y1="138.27507167169" y2="87.79993745881">
      <stop offset="0" stop-color="#f00"/>
      <stop offset="1" stop-color="#7f0000"/>
    </linearGradient>
    <linearGradient id="linearGradient5261" gradientUnits="userSpaceOnUse" spreadMethod="reflect" x1="88.60625" x2="91.575107" xlink:href="#linearGradient3366" y1="13.510336" y2="13.510336"/>
    <linearGradient id="linearGradient3366">
      <stop offset="0" stop-color="#ff8787"/>
      <stop offset="1" stop-color="#ff8787" stop-opacity="0"/>
    </linearGradient>
    <radialGradient id="radialGradient5265" cx="-36.592777" cy="90.072952" gradientTransform="matrix(.4576062 0 0 .782313 -19.847694 18.82067)" gradientUnits="userSpaceOnUse" r="25.986174" xlink:href="#linearGradient7278"/>
    <linearGradient id="linearGradient5273" gradientUnits="userSpaceOnUse" spreadMethod="reflect" x1="31.60625" x2="34.575107" xlink:href="#linearGradient3207-43" y1="13.510336" y2="13.510336"/>
    <linearGradient id="linearGradient3207-43">
      <stop offset="0" stop-color="#fff"/>
      <stop offset="1" stop-color="#790000" stop-opacity="0"/>
    </linearGradient>
    <linearGradient id="linearGradient5275" gradientUnits="userSpaceOnUse" spreadMethod="reflect" x1="88.60625" x2="91.575107" xlink:href="#linearGradient3207-43" y1="13.510336" y2="13.510336"/>
    <linearGradient id="linearGradient5263" gradientUnits="userSpaceOnUse" x1="59.999996" x2="57.434441" y1="92.973083" y2="55.07938">
      <stop offset="0" stop-color="#fff5e4"/>
      <stop offset=".25" stop-color="#ffecd0"/>
      <stop offset=".5" stop-color="#ffd390"/>
      <stop offset="1" stop-color="#ffc46a"/>
    </linearGradient>
    <filter id="filter3354" height="1.044866" width="1.044866" x="-.022433" y="-.022433">
      <feGaussianBlur stdDeviation=".45754832"/>
    </filter>
    <linearGradient id="linearGradient3194" gradientTransform="matrix(1.381268 0 0 .6872743 -52.640522 52.085287)" gradientUnits="userSpaceOnUse" x1="68.313011" x2="51.544849" y1="109.97649" y2="32.750854">
      <stop offset="0" stop-color="#f4f5f8"/>
      <stop offset="1" stop-color="#fdfdfe"/>
    </linearGradient>
    <linearGradient id="linearGradient3191" gradientUnits="userSpaceOnUse" x1="-6.5898641881" x2="-6.5898641881" xlink:href="#linearGradient3366" y1="73.26561998575" y2="120.63616829706"/>
    <linearGradient id="linearGradient3188" gradientUnits="userSpaceOnUse" x1="3.54558398666" x2="2.6850801659" y1="123.28399145221" y2="73.14295150463">
      <stop offset="0" stop-color="#fff" stop-opacity="0"/>
      <stop offset="1" stop-color="#fff"/>
    </linearGradient>
  </defs>
  <g transform="matrix(2.2308632 -.40935848 .40935848 2.2308632 -76.422819 23.901453)">
    <path d="m71.2263 9.781248c-16.1521.02035-30.61855 12.72033-33.1125 29.18125-2.75195 18.16377 9.74248 35.12305 27.90625 37.875 6.72745 1.01926 13.99491-1.37287 19.73125-4.05l3.96875 6.84375-3.09375 1.78125 21.4375 36.750002c1.98093 3.39823 6.3663 4.55657 9.78125 2.59375 3.35945-1.93092 4.53597-6.1588 2.6875-9.53125l-21.53125-36.906252-3.09375 1.75-4.0625-6.96875c6.63833-5.05108 11.0019-12.17083 12.35-21.06875 2.75195-18.16377-9.74248-35.12305-27.90625-37.875-1.70285-.257995-3.39159-.377105-5.0625-.375zm0 1.53125c1.59421-.002 3.21906.0976 4.84375.34375 17.33 2.625627 29.25063 18.82625 26.625 36.15625s-19.095 30.15063-36.425 27.525-29.25063-18.82625-26.625-36.15625c2.37947-15.70531 16.17058-27.849332 31.58125-27.86875z" filter="url(#filter8004)" opacity=".642458"/>
    <g transform="matrix(.34426204 -1.287016 1.2953764 .34459705 -84.946972 253.50492)">
      <rect fill="url(#linearGradient6111)" height="6.583196" opacity=".971015" transform="matrix(.70710678 .70710678 -.70710678 .70710678 0 0)" width="5.3332" x="179.29326" y="-54.244732"/>
      <rect fill="url(#linearGradient6113)" height="31.999203" transform="matrix(.70710678 .70710678 -.70710678 .70710678 0 0)" width="10.666389" x="176.62666" y="-47.66153"/>
      <path d="m157.3294 122.6668a5.3332 5.3332 0 0 1 -2.6666 4.61869 5.3332 5.3332 0 0 1 -5.3332 0 5.3332 5.3332 0 0 1 -2.6666-4.61869h5.3332z" fill="url(#radialGradient6115)" transform="matrix(.70710678 .70710678 -.70710678 .70710678 119.100971 -76.725958)"/>
      <rect fill="url(#linearGradient6117)" height="31.999199" opacity=".971015" transform="matrix(.70710678 .70710678 -.70710678 .70710678 0 0)" width="2.66658" x="179.29326" y="-47.66153"/>
    </g>
    <circle cx="78.33046" cy="30.660536" fill="url(#radialGradient6119)" r="31.736837" transform="matrix(.9887166 .14979813 -.14979813 .9887166 0 0)"/>
    <g transform="matrix(1.0659043 .16149268 -.16149268 1.0659043 -108.40285 -66.830742)">
      <path d="m181.34375 43.179688c-17.38944 0-31.47656 14.087118-31.47656 31.476562s14.08712 31.47656 31.47656 31.47656 31.44531-14.086498 31.44531-31.47656-14.05587-31.476563-31.44531-31.476562zm0 1.640624c16.48273 0 29.83594 13.353213 29.83594 29.835938s-13.35254 29.86719-29.83594 29.86719-29.86719-13.383791-29.86719-29.86719 13.38446-29.835938 29.86719-29.835938z" fill="url(#radialGradient6121)" filter="url(#filter7286)" transform="matrix(.91617705 0 0 .91617705 15.199521 6.258093)"/>
      <path d="m181.34375 42.097656c-17.97497 0-32.55859 14.583628-32.55859 32.558594s14.58362 32.55859 32.55859 32.55859 32.52734-14.584283 32.52734-32.55859-14.55237-32.558594-32.52734-32.558594zm0 3.804688c15.89813 0 28.75391 12.855774 28.75391 28.753906s-12.8565 28.78516-28.75391 28.78516-28.78516-12.887747-28.78516-28.78516 12.88703-28.753906 28.78516-28.753906z" fill="url(#radialGradient6123)" filter="url(#filter7416)" opacity=".540984" transform="matrix(.81712719 0 0 .81712719 33.160106 13.652997)"/>
      <path d="m181.34375 42.09375c-17.9772 0-32.5625 14.5853-32.5625 32.5625s14.5853 32.5625 32.5625 32.5625 32.53125-14.585964 32.53125-32.5625-14.55405-32.5625-32.53125-32.5625zm0 3.8125c15.8959 0 28.75 12.854098 28.75 28.75s-12.85482 28.78125-28.75 28.78125-28.78125-12.886072-28.78125-28.78125 12.88535-28.75 28.78125-28.75z" fill="url(#linearGradient6125)"/>
      <path d="m181.34375 43.376953c-17.28301 0-31.2793 13.99629-31.2793 31.279297s13.99629 31.2793 31.2793 31.2793 31.24805-13.995443 31.24805-31.2793-13.96504-31.279297-31.24805-31.279297zm0 1.246094c16.589 0 30.0332 13.444209 30.0332 30.033203s-13.44328 30.06445-30.0332 30.06445-30.06445-13.474529-30.06445-30.06445 13.47545-30.033203 30.06445-30.033203z" fill="url(#radialGradient6127)" opacity=".519126" transform="matrix(1.0317053 0 0 1.0317053 -5.749097 -2.367074)"/>
      <path d="m181.34375 42.980469c-17.49707 0-31.67578 14.178707-31.67578 31.675781s14.17871 31.67578 31.67578 31.67578 31.64453-14.178323 31.64453-31.67578-14.14746-31.675781-31.64453-31.675781zm0 2.039062c16.37527 0 29.63672 13.261453 29.63672 29.636719s-13.26103 29.66797-29.63672 29.66797-29.66797-13.292286-29.66797-29.66797 13.2927-29.636719 29.66797-29.636719z" fill="url(#linearGradient6129)" filter="url(#filter7274)"/>
      <path d="m181.34375 43.730469c-17.09248 0-30.92578 13.833298-30.92578 30.925781s13.8333 30.92578 30.92578 30.92578 30.89453-13.832031 30.89453-30.92578-13.80205-30.925781-30.89453-30.925781zm0 .539062c16.77922 0 30.38672 13.607504 30.38672 30.386719s-13.60612 30.41797-30.38672 30.41797-30.41797-13.637374-30.41797-30.41797 13.63875-30.386719 30.41797-30.386719z" fill="url(#radialGradient6123)" filter="url(#filter7424)" transform="matrix(.95352862 0 0 .95352862 8.426593 3.469478)"/>
    </g>
    <path d="m73.239375 12.543528c-13.075834-.06598-27.050524 10.525156-27.095053 19.348723-.03239 6.417447 14.439877 9.44439 25.814159 9.501794 9.960657.05026 28.590799-1.823763 28.620869-7.782253.0485-9.606335-14.787352-21.004916-27.339975-21.068264z" fill="url(#linearGradient6133)"/>
    <circle cx="94.831596" cy="37.335598" fill="url(#radialGradient6135)" opacity=".52459" r="7.9998"/>
    <circle cx="48.247009" cy="55.47147" fill="url(#radialGradient6137)" opacity=".52459" r="5.3332"/>
  </g>
  <g transform="matrix(1.5 0 0 1.5 169.27149 11.489252)">
    <path d="m-21.79703 62.559289c-1.015554.0081-1.987832.412338-2.709842 1.126563l-16.533086 16.533086c-1.521389 1.522007-1.521384 3.989015-.000004 5.511024l24.784409 24.814858-24.784404 24.81485c-1.521385 1.522-1.521385 3.98902 0 5.51102l16.533086 16.53308c1.522004 1.52139 3.989016 1.52139 5.511029.00001l24.814851-24.7844 24.814848 24.7844c1.522012 1.52138 3.989019 1.52138 5.511025-.00001l16.533088-16.53308c1.52138-1.522 1.52138-3.98901 0-5.51102l-24.784398-24.81485 24.784408-24.814853c1.52137-1.522014 1.52137-3.989022-.00001-5.511033l-16.533085-16.533085c-1.522009-1.521381-3.989017-1.521385-5.511024.000004l-24.814852 24.784404-24.814857-24.784409c-.744461-.736601-1.754021-1.142617-2.801182-1.126559zm30.386773 61.778321c-.732115-.73996-1.7298-1.15634-2.770734-1.15634-1.040934.00001-2.038624.41638-2.770738 1.15634z" fill="url(#linearGradient3208)"/>
    <path clip-path="url(#clipPath3559)" d="m-62.57895 106.7868 26.162951-26.870061 25.809397 26.516501-25.809397-40.305083z" fill-rule="evenodd" filter="url(#filter3549)" stroke="#000" stroke-width=".493731" transform="matrix(.9743255 0 0 .9743255 41.109143 52.085283)"/>
    <path d="m31.7 16 2.875-3.375c-1.051205-1.695758-3.935136-2.288018-5.9375-.3125l2.8125 3.375z" fill="url(#linearGradient5253)" fill-rule="evenodd" filter="url(#filter3477)" opacity=".498127" transform="matrix(0 1.8163775 -1.8163775 0 72.37095 80.724757)"/>
    <path d="m31.7 16 2.875-3.375c-1.051205-1.695758-3.935136-2.288018-5.9375-.3125l2.8125 3.375z" fill="url(#linearGradient5253)" fill-rule="evenodd" filter="url(#filter3477)" opacity=".790262" transform="matrix(1.7938181 0 0 -1.7938181 -78.457758 177.48885)"/>
    <path d="m31.7 16 2.875-3.375c-1.051205-1.695758-3.935136-2.288018-5.9375-.3125l2.8125 3.375z" fill="url(#linearGradient5257)" fill-rule="evenodd" filter="url(#filter3477)" opacity=".498127" transform="matrix(0 1.6448195 1.6448195 0 -58.905353 86.129508)"/>
    <path d="m33.377091 69.982082-27.558085 27.558085-27.558082-27.558081-13.004648 13.004648 27.558082 27.558086-27.558089 27.55808 13.004655 13.00464 27.55808-27.55808 27.558084 27.55808 13.004642-13.00464-27.558078-27.55809 27.558078-27.558079z" fill="url(#linearGradient3200)" opacity=".921348"/>
    <path d="m88.7 16 2.875-3.375c-1.051205-1.695758-3.935136-2.288018-5.9375-.3125l2.8125 3.375z" fill="url(#linearGradient5261)" fill-rule="evenodd" filter="url(#filter3477)" opacity=".790262" transform="matrix(1.6448195 0 0 -1.6448195 -111.98188 176.0814)"/>
    <path clip-path="url(#clipPath3559)" d="m-62.57895 106.7868 26.162951-26.870061 25.809397 26.516501-25.809397-40.305083z" fill="url(#radialGradient5265)" fill-rule="evenodd" filter="url(#filter3549)" transform="matrix(.9743255 0 0 -.9743255 41.109147 168.54485)"/>
    <path d="m31.7 16 2.875-3.375c-1.051205-1.695758-3.935136-2.288018-5.9375-.3125l2.8125 3.375z" fill="url(#linearGradient5273)" fill-rule="evenodd" filter="url(#filter3477)" opacity=".790262" transform="matrix(1.4958209 0 0 1.4958209 -69.069668 47.159198)"/>
    <path d="m88.7 16 2.875-3.375c-1.051205-1.695758-3.935136-2.288018-5.9375-.3125l2.8125 3.375z" fill="url(#linearGradient5275)" fill-rule="evenodd" filter="url(#filter3477)" opacity=".790262" transform="matrix(1.5356935 0 0 1.5356935 -102.32379 46.782557)"/>
    <path d="m88.284271 18.368396-28.284271 28.28427-28.284271-28.28427-13.347333 13.347333 28.28427 28.284271-28.28427 28.284271 13.347333 13.347339 28.284271-28.284276 28.284271 28.284276 13.347339-13.347339-28.284276-28.284271 28.284276-28.284271z" style="opacity:.921348;fill:none;stroke-width:1.53953;stroke-linecap:round;stroke-linejoin:round;stroke-dashoffset:1.0878;stroke:url(#linearGradient5263);filter:url(#filter3354)" transform="matrix(.9743255 0 0 .9743255 -52.640522 52.085287)"/>
    <path d="m-21.753847 69.919404-.730744.730744-12.272136 12.272136 12.759296-11.784977 27.817754 26.405744 27.29253-26.405743 10.932447 10.932441c-.0956.494517-.22471.974139-.36538 1.461486l-11.845002 13.79366c-10.682815 5.325805-25.578562 10.579125-41.593244 10.595785l.274024.27403c.459478.005.908174.0305 1.370152.0305 16.062749 0 27.107879-3.30786 37.817731-8.647142l15.742309-15.742356c.0648-.224563.12493-.446354.18269-.669851.0676-.261529.13113-.52498.18269-.791634l-12.454832-12.454823-.730744.730745-26.805371 26.892902z" fill="url(#linearGradient3194)"/>
    <path d="m-21.736139 69.986791-13.002879 13.00288 25.272433 25.272429c.459468.005.908166.0305 1.370144.0305 16.062751 0 27.107878-3.30785 37.817731-8.647136l15.74232-15.742354c.14067-.487351.26975-.966977.36537-1.461494l-12.454833-12.454825-27.555142 27.555142z" fill="url(#linearGradient3191)"/>
    <path d="m-21.753847 69.919404-.730744.730744-12.272136 12.272136 12.759296-11.784977 27.824156 28.24391-.0064-1.838166.0097 1.824011 27.282847-28.229754 10.932448 10.932441c-.0956.494517-.22471.974139-.36538 1.461486l-11.845003 13.79366c-10.682815 5.325805-25.578562 10.579125-41.593244 10.595785l.274024.27403c.459478.005.908174.0305 1.370152.0305 16.062749 0 27.107879-3.30786 37.817731-8.647142l15.74229-15.742356c.0648-.224563.12493-.446354.18269-.669851.0676-.261529.13113-.52498.18269-.791634l-12.454832-12.454823-.730744.730745-26.805371 26.892902z" fill="url(#linearGradient3188)"/>
  </g>
</svg>
