<svg height="256" width="256" xmlns="http://www.w3.org/2000/svg" xmlns:xlink="http://www.w3.org/1999/xlink">
  <defs>
    <linearGradient id="linearGradient4222">
      <stop offset="0" stop-color="#fff"/>
      <stop offset="1" stop-color="#fff" stop-opacity="0"/>
    </linearGradient>
    <linearGradient id="linearGradient4284" gradientTransform="matrix(2.4999996 0 0 2.4999996 174 -145.99998)" gradientUnits="userSpaceOnUse" x1="-13.757333" x2="-62.424866" xlink:href="#XMLID_4_" y1="76.708466" y2="104.80668"/>
    <linearGradient id="linearGradient4299" gradientUnits="userSpaceOnUse" spreadMethod="reflect" x1="73.742638" x2="80" xlink:href="#linearGradient4222" y1="15.336544" y2="19.281664"/>
    <radialGradient id="radialGradient4275" cx="64.0000176" cy="63.9999864" fx="24.000024" fy="103.99998" gradientUnits="userSpaceOnUse" r="59.9999904">
      <stop offset="0" stop-opacity=".779026"/>
      <stop offset="1" stop-opacity="0"/>
    </radialGradient>
    <filter id="filter3387" height="1.189411" width="1.172683" x="-.086341" y="-.094706">
      <feGaussianBlur stdDeviation=".44655691"/>
    </filter>
    <radialGradient id="XMLID_4_" cx="48" cy="-.2148" gradientTransform="matrix(.9792 0 0 .9725 133.0002 20.8762)" gradientUnits="userSpaceOnUse" r="55.147999">
      <stop offset="0" stop-color="#72d13d"/>
      <stop offset=".3553" stop-color="#35ac1c"/>
      <stop offset=".6194" stop-color="#0f9508"/>
      <stop offset=".7574" stop-color="#008c00"/>
      <stop offset="1" stop-color="#007a00"/>
    </radialGradient>
    <radialGradient id="radialGradient4271" cx="-44" cy="84" fx="-40" fy="96" gradientTransform="matrix(2.4999996 0 0 2.4999996 174 -145.99998)" gradientUnits="userSpaceOnUse" r="20" xlink:href="#XMLID_4_"/>
    <linearGradient id="linearGradient4268" gradientUnits="userSpaceOnUse" x1="46.48390532758" x2="46.48390532758" y1="5.34825328428" y2="124.02597679584">
      <stop offset="0" stop-color="#cbff9c"/>
      <stop offset="1" stop-color="#65c171" stop-opacity="0"/>
    </linearGradient>
    <linearGradient id="linearGradient4265" gradientUnits="userSpaceOnUse" x1="34.00000482095" x2="46.45856532758" xlink:href="#linearGradient4222" y1="-16.0000008" y2="94.00356659943"/>
    <linearGradient id="linearGradient4262" gradientUnits="userSpaceOnUse" x1="83.99999932095" x2="54.00000162095" xlink:href="#linearGradient4222" y1="93.9999816" y2="33.9999912"/>
    <filter id="filter3191" height="1.0368" width="1.0368" x="-.0184" y="-.0184">
      <feGaussianBlur stdDeviation=".2025"/>
    </filter>
    <linearGradient id="linearGradient4259" gradientUnits="userSpaceOnUse" x1="61.622575" x2="62.09794" xlink:href="#linearGradient4222" y1="57.512504" y2="85.106242"/>
    <linearGradient id="linearGradient3005" gradientTransform="scale(1.039383 .9621093)" gradientUnits="userSpaceOnUse" x1="64.341988" x2="76.284439" y1="18.50366" y2="18.50366">
      <stop offset="0" stop-color="#fff"/>
      <stop offset="1" stop-color="#252525" stop-opacity="0"/>
    </linearGradient>
    <linearGradient id="linearGradient11897" gradientUnits="userSpaceOnUse" x1="148.06615" x2="148.06615" y1="486.029187" y2="315.26278">
      <stop offset="0" stop-color="#b79b0a"/>
      <stop offset=".06283271" stop-color="#dcb50c"/>
      <stop offset=".13" stop-color="#f5ce0c"/>
      <stop offset=".2" stop-color="#f7d435"/>
      <stop offset=".69999999" stop-color="#ffe564"/>
      <stop offset="1" stop-color="#ffe76d"/>
    </linearGradient>
    <radialGradient id="radialGradient69112" cx="147.01562" cy="525.86011" gradientTransform="matrix(1.5869209 .00000013 -.00000006 .7528981 -86.286523 85.899531)" gradientUnits="userSpaceOnUse" r="103.04688" xlink:href="#linearGradient4222"/>
    <filter id="filter4375-19" color-interpolation-filters="sRGB" height="2.70625" width="1.027256" x="-.013628" y="-.853125">
      <feGaussianBlur stdDeviation="1.0664062"/>
    </filter>
    <radialGradient id="radialGradient6522" cx="129.6713" cy="373.82709" gradientTransform="matrix(1.6479878 -.20963477 .12857357 1.0000028 -143.25941 41.552401)" gradientUnits="userSpaceOnUse" r="108.06256">
      <stop offset="0" stop-color="#fff" stop-opacity=".3"/>
      <stop offset="1" stop-color="#fff" stop-opacity="0"/>
    </radialGradient>
    <linearGradient id="linearGradient6345" gradientUnits="userSpaceOnUse" x1="85.710602" x2="130.89238" y1="333.96301" y2="426.5687">
      <stop offset="0" stop-color="#fff" stop-opacity=".501323"/>
      <stop offset="1" stop-color="#fff" stop-opacity="0"/>
    </linearGradient>
    <linearGradient id="linearGradient6330" gradientUnits="userSpaceOnUse" x1="167.42222" x2="180.588074" y1="320.081253" y2="482.75946">
      <stop offset="0" stop-color="#ffe051"/>
      <stop offset=".85273892" stop-color="#e3a700"/>
      <stop offset="1" stop-color="#9b7200"/>
    </linearGradient>
    <radialGradient id="radialGradient4473" cx="247.51796" cy="398.59106" gradientTransform="matrix(18.995059 1.4881598 -.69502644 8.7771065 -4177.0689 -3468.2313)" gradientUnits="userSpaceOnUse" r="6.669825" xlink:href="#linearGradient4324-3"/>
    <linearGradient id="linearGradient4324-3">
      <stop offset="0" stop-color="#fff"/>
      <stop offset=".71109551" stop-color="#fff" stop-opacity=".652941"/>
      <stop offset="1" stop-color="#fff" stop-opacity="0"/>
    </linearGradient>
    <filter id="filter4504" color-interpolation-filters="sRGB" height="1.016538" width="1.596151" x="-.298075" y="-.008269">
      <feGaussianBlur stdDeviation=".36649449"/>
    </filter>
    <radialGradient id="radialGradient4510" cx="247.06819" cy="400.18509" gradientTransform="matrix(18.991109 -1.5372251 .72828823 8.9017414 -4934.6608 -2770.632)" gradientUnits="userSpaceOnUse" r="6.669825" xlink:href="#linearGradient4324-3"/>
    <radialGradient id="radialGradient4684" cx="143.60225" cy="314.05942" gradientTransform="matrix(.99998876 .0047154 -.00314412 .65968261 .993526 125.47248)" gradientUnits="userSpaceOnUse" r="101.60544" xlink:href="#linearGradient4324-3"/>
    <filter id="filter4686" color-interpolation-filters="sRGB" height="1.266905" width="1.013573" x="-.006787" y="-.133453">
      <feGaussianBlur stdDeviation=".55859871"/>
    </filter>
    <linearGradient id="linearGradient4786" gradientTransform="matrix(5.3662019 0 0 5.0873708 24.876041 281.34659)" gradientUnits="userSpaceOnUse" x1="15.132965" x2="15.043873" y1="17.420126" y2="6.623367">
      <stop offset="0" stop-color="#f0c923"/>
      <stop offset="1" stop-color="#fff1a5"/>
    </linearGradient>
    <filter id="filter4123" color-interpolation-filters="sRGB" height="1.737155" width="1.15412" x="-.07706" y="-.368578">
      <feGaussianBlur stdDeviation="6.4501067"/>
    </filter>
    <linearGradient id="linearGradient4790" gradientUnits="userSpaceOnUse" x1="107.5" x2="94.813972" y1="357" y2="279.76166">
      <stop offset="0" stop-color="#ffcd44"/>
      <stop offset="1" stop-color="#f5e38c"/>
    </linearGradient>
    <radialGradient id="radialGradient5200" cx="143.60225" cy="314.05942" gradientTransform="matrix(.99998876 .0047154 -.00314412 .65968261 .993526 134.19434)" gradientUnits="userSpaceOnUse" r="101.60544" xlink:href="#linearGradient4324-3"/>
    <linearGradient id="linearGradient1153" gradientUnits="userSpaceOnUse" x1="28.764215" x2="104.45377" y1="36.473289" y2="36.473289">
      <stop offset="0" stop-color="#fff"/>
      <stop offset=".80391872" stop-color="#fff"/>
      <stop offset=".80391872" stop-color="#c2daff"/>
      <stop offset="1" stop-color="#67a5ff"/>
    </linearGradient>
    <radialGradient id="radialGradient1239" cx="53.077576" cy="315.76599" gradientTransform="matrix(12.121708 -.51919541 1.2554004 28.998403 -987.39718 -8818.0506)" gradientUnits="userSpaceOnUse" r=".945125" xlink:href="#linearGradient4222"/>
    <filter id="filter1241" color-interpolation-filters="sRGB" height="1.082104" width="5.770302" x="-2.385151" y="-.041052">
      <feGaussianBlur stdDeviation=".69616742"/>
    </filter>
    <filter id="filter4454" color-interpolation-filters="sRGB" height="4.714403" width="1.322992" x="-.161496" y="-1.857202">
      <feGaussianBlur stdDeviation="15.476679"/>
    </filter>
  </defs>
  <g transform="translate(148.76011 106.08655)">
    <rect fill-rule="evenodd" filter="url(#filter4454)" height="20" opacity=".8" rx="8.153439" ry="10" transform="matrix(.90283514 0 0 .29664711 -138.12868 50.70052)" width="230" x="15" y="201"/>
    <g enable-background="new" transform="matrix(1.0583333 0 0 1.0640034 -176.33511 -412.35101)">
      <path d="m52.094352 312c-2.335611 0-4.094352 1.27843-4.094352 3.94967v167.46562c0 3.95197 2.446761 6.58471 5.771787 6.58471h189.555213c3.34438 0 4.673-2.46074 4.673-5.90535v-147.52177c0-2.95096-2.01067-4.54661-4.51602-4.54661h-93.98741c-1.69284 0-4.43377-.2055-6.49302-2.5614l-13.0712-14.95423c-1.75748-2.01066-4.22518-2.51056-6.08975-2.51056z" fill="url(#linearGradient4786)" fill-rule="evenodd"/>
      <path d="m122.25 324c-3.19807 0-5.91553 1.72373-7.53125 4.125l-7.65625 11.34375c-1.91159 2.84099-5.30031 4.7797-9.46875 4.78125h-44.690945c-3.196847 0-5.39241 3.03742-5.34375 5.0625l.40625 16.6875h199.194385l1.28125-36.9375c.10424-3.03661-2.14692-5.06249-5.34375-5.0625z" fill-rule="evenodd" filter="url(#filter4123)" opacity=".712329" transform="translate(0 20)"/>
      <path d="m51.094352 311c-2.335611 0-4.094352 1.27843-4.094352 3.94967l3.779528 168.46562c0 3.95197 2.446761 6.58471 5.771787 6.58471h183.996155c3.34438 0 4.673-2.46074 4.673-5.90535l3.77953-148.52177c0-2.95096-2.01067-4.54661-4.51602-4.54661h-94.98741c-1.69284 0-4.43377-.2055-6.49302-2.5614l-13.0712-14.95423c-1.75748-2.01066-4.22518-2.51056-6.08975-2.51056z" fill="none" stroke="url(#linearGradient4790)" stroke-width="3.76944"/>
      <path d="m51.070083 314.44327h67.537087c15.09647 0 17.92002 20.63788 26.98266 20.63788h103.02184" fill="none" filter="url(#filter4686)" stroke="url(#radialGradient5200)" stroke-width="2.82708"/>
      <path d="m32.764215 36.473291h67.689555" fill="#82b7ff" stroke="url(#linearGradient1153)" stroke-linecap="round" stroke-width="8" transform="matrix(.94488192 0 0 .93984662 27.055117 289.74598)"/>
      <path d="m50.672676 296.60521 1.095457 41.30827" fill="none" filter="url(#filter1241)" opacity=".6" stroke="url(#radialGradient1239)" stroke-width="1.88472" transform="translate(0 20)"/>
    </g>
    <g enable-background="new" transform="matrix(1.0583333 0 0 1.0640034 -176.40518 -402.78533)">
      <path d="m122.25371 334.00973h128.40625c3.19684 0 5.34375 5.0625 5.34375 5.0625l-10.34375 146.9375h-197.25l-8.40625-126.6875s2.11566-5.0625 5.3125-5.0625l52.28125-.0313c4.16844-.002 7.55716-1.94026 9.46875-4.78125l7.65625-11.34375c1.61572-2.40122 4.33318-4.0937 7.53125-4.0937z" fill="url(#linearGradient11897)"/>
      <path d="m245.65625 480.9375h-197.25v3h197.25z" fill="url(#radialGradient69112)" fill-rule="evenodd" filter="url(#filter4375-19)" opacity=".499377" transform="matrix(1 0 0 3.291657 0 -1113.5278)"/>
      <path d="m122.25371 334.00973h128.40625c3.19684 0 5.34375 5.0625 5.34375 5.0625l-10.34375 146.9375h-197.25l-8.40625-126.6875s2.11566-5.0625 5.3125-5.0625l52.28125-.0313c4.16844-.002 7.55716-1.94026 9.46875-4.78125l7.65625-11.34375c1.61572-2.40122 4.33318-4.0937 7.53125-4.0937z" fill="url(#radialGradient6522)"/>
      <path d="m122.25359 334.0094c-3.19807 0-5.91566 1.69225-7.53137 4.09347l-7.65687 11.34424c-1.91159 2.84099-5.29884 4.77984-9.467274 4.78184l-52.282236.0312c-3.196837 0-5.32997 3.03712-5.31127 5.06269l4.287202 61.42044 208.934958-37.7554 2.77747-43.9158c-.003-3.0384-2.14765-5.06269-5.34449-5.06269z" fill="url(#linearGradient6345)"/>
      <path d="m241.87672 480.9375h-187.801178v3h187.801178z" fill="url(#radialGradient69112)" fill-rule="evenodd" filter="url(#filter4375-19)" opacity=".3" transform="matrix(1 0 0 .7217391 0 131.78117)"/>
      <path d="m122.1875 323h128.40625c3.19684 0 5.34375 5.0625 5.34375 5.0625l-10.34375 146.9375h-197.25l-8.40625-126.6875s2.11566-5.0625 5.3125-5.0625l52.28125-.0313c4.16844-.002 7.55716-1.94026 9.46875-4.78125l7.65625-11.34375c1.61572-2.40122 4.33318-4.0937 7.53125-4.0937z" fill="none" stroke="url(#linearGradient6330)" stroke-linecap="round" stroke-linejoin="round" stroke-width="3.76944" transform="translate(.06621 11.009727)"/>
      <path d="m242.72824 466.93019 9.57943-136.67828" fill="none" filter="url(#filter4504)" opacity=".6" stroke="url(#radialGradient4473)" stroke-width="2.82708" transform="translate(.06621 11.009727)"/>
      <path d="m51.845123 467.08123-7.68301-117.52373" fill="none" filter="url(#filter4504)" opacity=".6" stroke="url(#radialGradient4510)" stroke-width="2.82708" transform="translate(.06621 11.009727)"/>
      <path d="m45.400791 347.07466h52.418975c15.096474 0 16.030254-20.71537 25.092894-20.71537h125.69901" fill="none" filter="url(#filter4686)" stroke="url(#radialGradient4684)" stroke-width="2.82708" transform="translate(.06621 11.009727)"/>
    </g>
  </g>
  <g transform="matrix(1.0666667 0 0 1.0666667 116.30435 116.2578)">
    <path d="m59.156262 4c-8.293817 0-15.156258 6.862442-15.156258 15.156248v24.843745h-24.843745c-8.293807 0-15.1562478 6.862442-15.1562478 15.156243v9.687499c0 8.293824 6.8624408 15.156248 15.1562478 15.156248h24.843745v24.843767c0 8.2938 6.862447 15.15625 15.156258 15.15625h9.687503c8.29379 0 15.15624-6.86245 15.15624-15.15625v-24.843767h24.843755c8.2938 0 15.15624-6.862424 15.15624-15.156248v-9.687499c0-8.293801-6.86244-15.156243-15.15624-15.156243h-24.843755v-24.843745c0-8.293806-6.86245-15.156248-15.15624-15.156248z" fill="url(#linearGradient4284)"/>
    <path d="m69.875971 12.057888c-1.077088.06528-2.528221.219164-3 .9375l1.589684 11.138061 10.534345-.759359v-.46875c1.740958-2.57016-4.780448-10.906792-9.124029-10.847452z" fill="url(#linearGradient4299)" fill-rule="evenodd" filter="url(#filter3387)" transform="matrix(-1.2499999 0 0 1.2499999 144.00001 -10.102078)"/>
    <path d="m69.875971 12.057888c-1.077088.06528-2.528221.219164-3 .9375l1.296715 8.794311 10.827314 1.584391v-.46875c1.740958-2.57016-4.780448-10.906792-9.124029-10.847452z" fill="url(#linearGradient4299)" fill-rule="evenodd" filter="url(#filter3387)" transform="matrix(1.2499999 0 0 1.2499999 -15.110921 -10.102078)"/>
    <path d="m69.875971 12.057888c-1.077088.06528-2.528221.219164-3 .9375l2.175622 10.747436 9.948407-.368734v-.46875c1.740958-2.57016-4.780448-10.906792-9.124029-10.847452z" fill="url(#linearGradient4299)" fill-rule="evenodd" filter="url(#filter3387)" opacity=".681648" transform="matrix(-1.2499999 0 0 -1.2499999 144.00001 139.07195)"/>
    <path d="m69.875971 12.057888c-1.077088.06528-2.528221.219164-3 .9375l.90609 10.552124 11.217939-.173422v-.46875c1.740958-2.57016-4.780448-10.906792-9.124029-10.847452z" fill="url(#linearGradient3005)" fill-rule="evenodd" filter="url(#filter3387)" opacity=".707865" transform="matrix(1.2499999 0 0 -1.2499999 -15.110911 139.07195)"/>
    <path d="m69.875971 12.057888c-1.077088.06528-2.528221.219164-3 .9375l1.589684 11.138061 10.534345-.759359v-.46875c1.740958-2.57016-4.780448-10.906792-9.124029-10.847452z" fill="url(#linearGradient4299)" fill-rule="evenodd" filter="url(#filter3387)" opacity=".550562" transform="matrix(1.2499999 0 0 1.2499999 24.889073 28.928032)"/>
    <path d="m59.156262 4c-8.293817 0-15.156258 6.862442-15.156258 15.156248v24.843745h-24.843745c-8.293807 0-15.156252 3.134775-15.156252 11.428576.000001-2.365685.000003 8.477828.000004 13.415166 0 8.293824 6.862441 15.156248 15.156248 15.156248h24.843745v24.843767c0 8.2938 6.862447 15.15625 15.156258 15.15625h9.687503c8.293795 0 15.156245-6.86245 15.156245-15.15625v-24.843767h24.84375c8.2938 0 15.15624-6.862424 15.15624-15.156248v-9.687499c0-8.293801-6.86244-15.156243-15.15624-15.156243h-24.84375v-24.843745c0-8.293806-6.86245-15.156248-15.156245-15.156248z" fill="url(#radialGradient4275)" opacity=".580524"/>
    <path d="m69.875971 12.057888c-1.077088.06528-2.528221.219164-3 .9375l1.589684 11.138061 10.534345-.759359v-.46875c1.740958-2.57016-4.780448-10.906792-9.124029-10.847452z" fill="url(#linearGradient4299)" fill-rule="evenodd" filter="url(#filter3387)" opacity=".550562" transform="matrix(-1.2499999 0 0 1.2499999 103.11092 28.928032)"/>
    <path d="m59.156262 13.999998c-2.834926 0-5.156258 2.321328-5.156258 5.15625v34.843745h-34.843745c-2.834923 0-5.156249 2.321319-5.156249 5.156243v9.687499c0 2.834923 2.321326 5.156249 5.156249 5.156249h34.843745v34.843766c0 2.83493 2.321332 5.15625 5.156258 5.15625h9.687503c2.83492 0 5.156239-2.32132 5.156239-5.15625v-34.843766h34.843756c2.83492 0 5.15625-2.321326 5.15625-5.156249v-9.687499c0-2.834924-2.32133-5.156243-5.15625-5.156243h-34.843756v-34.843745c0-2.834922-2.321319-5.15625-5.156239-5.15625z" fill="url(#radialGradient4271)"/>
    <path d="m59.156262 13.999998c-2.834926 0-5.156258 2.321328-5.156258 5.15625v34.843745h-34.843745c-2.834923 0-5.156249 2.321319-5.156249 5.156243v9.687499c0 .2745.114369.518049.156249.78125 8.144214 1.173923 16.728351 1.875 25.624996 1.875 28.75393 0 54.5146-6.574575 71.484365-16.874997-.72309-.387875-1.54836-.624995-2.42186-.624995h-34.843756v-34.843745c0-2.834922-2.321319-5.15625-5.156239-5.15625z" fill="url(#linearGradient4268)"/>
    <path d="m59.156262 13.999998c-2.834926 0-5.156258 2.321328-5.156258 5.15625v2.5c0-2.834923 3.321333-6.656249 6.156257-6.656249h9.687505c.708719 0 1.414969.128705 2.031239.390625.275649.623795 1.21875 2.811445 1.21875 3.531249l.906249 35.07812.07813-34.843745c0-1.43907-.602651-2.733952-1.562501-3.671874-.219429-.219426-.447579-.447555-.703129-.625001-.01922-.01302-.05872.01277-.07812 0-.2552-.172827-.49668-.343174-.78125-.46875-.02165-.0092-.05633.0089-.07813 0-.2865-.121756-.62777-.244077-.937489-.312499-.0256-.0053-.0524.0049-.07813 0-.309169-.06373-.61137-.07302-.9375-.07813h-.07812-1.17188zm-40.000003 39.999995c-2.834923 0-5.156249 2.321319-5.156249 5.156243v2.5c0-2.834925 2.321326-6.656248 5.156249-6.656248l34.843745-.999995zm54.843745 0 34.399416 1.279294c-16.897985 9.067749-44.55616 15.986348-71.274415 15.986322-4.448322 0-8.848855-.224875-13.124996-.546874 5.150982.4673 10.448531.78125 15.859372.78125 26.925154 0 51.209374-5.809275 68.125009-14.999998.0199-.0108.0582.01082.0781 0 1.1064-.603076 2.16156-1.242775 3.20312-1.874999-.34076-.182801-.71323-.36195-1.09374-.46875-.025-.0066-.053.0063-.0781 0-.38094-.101125-.76344-.149451-1.17187-.156245h-.0781-1.17188z" fill="url(#linearGradient4265)"/>
    <path d="m59.156262 13.999998c-2.834926 0-5.156258 2.321328-5.156258 5.15625v2.5c0-2.834923 3.321333-6.656249 6.156257-6.656249h9.687505c.708719 0 1.414969.128705 2.031239.390625.275649.623795 1.21875 2.811445 1.21875 3.531249l.906249 35.07812.07813-34.843745c0-1.43907-.602651-2.733952-1.562501-3.671874-.219429-.219426-.447579-.447555-.703129-.625001-.01922-.01302-.05872.01277-.07812 0-.2552-.172827-.49668-.343174-.78125-.46875-.02165-.0092-.05633.0089-.07813 0-.2865-.121756-.62777-.244077-.937489-.312499-.0256-.0053-.0524.0049-.07813 0-.309169-.06373-.61137-.07302-.9375-.07813h-.07812-1.17188zm-40.000003 39.999995c-2.834923 0-5.156249 2.321319-5.156249 5.156243v2.5c0-2.834925 2.321326-6.656248 5.156249-6.656248l34.843745-.999995zm54.843745 0 34.643556 1.279294c-16.897975 9.067749-44.8003 15.986348-71.518555 15.986322-4.448322 0-8.848855-.224875-13.124996-.546874 5.150982.4673 10.448531.78125 15.859372.78125 26.925154 0 51.209374-5.809275 68.125009-14.999998.0199-.0108.0582.01082.0781 0 1.1064-.603076 2.16156-1.242775 3.20312-1.874999-.34076-.182801-.71323-.36195-1.09374-.46875-.025-.0066-.053.0063-.0781 0-.38094-.101125-.76344-.149451-1.17187-.156245h-.0781-1.17188z" fill="url(#linearGradient4262)"/>
    <path d="m62.0625 43.999992c-1.13397 0-2.062504.928531-2.062504 2.0625v13.9375h-13.9375c-1.133969 0-2.0625.928528-2.0625 2.062498v3.875c0 1.13397.928531 2.0625 2.0625 2.0625h13.9375v13.93751c0 1.13397.928534 2.0625 2.062504 2.0625h3.875c1.13397 0 2.0625-.92853 2.0625-2.0625v-13.93751h13.9375c1.13397 0 2.0625-.92853 2.0625-2.0625v-3.875c0-1.13397-.92853-2.062498-2.0625-2.062498h-13.9375v-13.9375c0-1.133969-.92853-2.0625-2.0625-2.0625z" style="fill:none;stroke-width:.5;stroke-linecap:round;stroke-linejoin:round;stroke-dashoffset:1.0878;stroke:url(#linearGradient4259);filter:url(#filter3191)" transform="matrix(2.4999996 0 0 2.4999996 -95.999962 -95.99996)"/>
  </g>
</svg>
