<svg height="256" width="256" xmlns="http://www.w3.org/2000/svg" xmlns:xlink="http://www.w3.org/1999/xlink">
  <defs>
    <linearGradient id="linearGradient3211">
      <stop offset="0" stop-color="#fff"/>
      <stop offset="1" stop-color="#fff" stop-opacity="0"/>
    </linearGradient>
    <linearGradient id="linearGradient3436" gradientUnits="userSpaceOnUse" x1="48" x2="48" y1="108" y2="-20">
      <stop offset="0"/>
      <stop offset=".36741748" stop-color="#620000"/>
      <stop offset="1" stop-color="#c50000"/>
    </linearGradient>
    <radialGradient id="radialGradient3438" cx="51.767773" cy="14.017021" gradientTransform="matrix(1.72893 .00000002 0 .08175904 -41.735084 -1.112001)" gradientUnits="userSpaceOnUse" r="46" xlink:href="#linearGradient3211"/>
    <radialGradient id="radialGradient3440" cx="50" cy="106.01698" gradientTransform="matrix(.8043478 .00000021 -.00000006 .2293229 5.782615 79.687866)" gradientUnits="userSpaceOnUse" r="46">
      <stop offset="0" stop-color="#ca5c00"/>
      <stop offset="1" stop-color="#fff" stop-opacity="0"/>
    </radialGradient>
    <radialGradient id="radialGradient3442" cx="48" cy="77.455223" gradientTransform="matrix(1 0 0 1.1459883 -4 -16.762777)" gradientUnits="userSpaceOnUse" r="41.838463">
      <stop offset="0" stop-color="#e00"/>
      <stop offset="1" stop-color="#4c0000"/>
    </radialGradient>
    <linearGradient id="linearGradient3444" gradientUnits="userSpaceOnUse" x1="56" x2="56" xlink:href="#linearGradient3211" y1="132" y2="20"/>
    <filter id="filter3032" height="1.017245" width="1.020323" x="-.010184" y="-.008622">
      <feGaussianBlur stdDeviation=".13617728"/>
    </filter>
    <linearGradient id="linearGradient3446" gradientUnits="userSpaceOnUse" x1="85.095451" x2="90.487144" xlink:href="#linearGradient3211" y1="6.023225" y2="-3.699494"/>
    <filter id="filter3102" height="1.317541" width="1.244662" x="-.122331" y="-.15877">
      <feGaussianBlur stdDeviation=".27482165"/>
    </filter>
    <radialGradient id="radialGradient3448" cx="48" cy="12.812049" gradientTransform="matrix(1.5652174 0 0 .2608696 -31.130435 8.657726)" gradientUnits="userSpaceOnUse" r="46">
      <stop offset="0" stop-color="#1d0000"/>
      <stop offset="1" stop-color="#4f0000" stop-opacity="0"/>
    </radialGradient>
    <linearGradient id="linearGradient3450" gradientUnits="userSpaceOnUse" x1="6.518213" x2="6.518213" xlink:href="#linearGradient3211" y1="4.211263" y2="-9.444737"/>
    <filter id="filter3098" height="1.317541" width="1.271353" x="-.135676" y="-.15877">
      <feGaussianBlur stdDeviation=".27482165"/>
    </filter>
    <linearGradient id="linearGradient3452" gradientUnits="userSpaceOnUse" x1="44" x2="52" xlink:href="#linearGradient3211" y1="-16" y2="68"/>
    <linearGradient id="linearGradient3454" gradientUnits="userSpaceOnUse" x1="72.225001" x2="40.225001" xlink:href="#linearGradient3211" y1="55.975" y2="-40.025"/>
    <linearGradient id="linearGradient3456" gradientUnits="userSpaceOnUse" x1="48.000002" x2="51.725" xlink:href="#linearGradient3211" y1="-8" y2="55.975"/>
    <linearGradient id="linearGradient3458" gradientUnits="userSpaceOnUse" x1="74.125" x2="64" xlink:href="#linearGradient3211" y1="98.1875" y2="88"/>
    <filter id="filter3240" height="1.225591" width="1.097377" x="-.048689" y="-.112795">
      <feGaussianBlur stdDeviation=".17624262"/>
    </filter>
    <linearGradient id="linearGradient3460" gradientUnits="userSpaceOnUse" x1="78.125" x2="68.0625" xlink:href="#linearGradient3211" y1="106.1875" y2="99.800003"/>
    <radialGradient id="radialGradient3328" cx="51.767773" cy="14.017021" gradientTransform="matrix(1.72893 .00000002 0 .08175904 -35.735084 6.887999)" gradientUnits="userSpaceOnUse" r="46" xlink:href="#linearGradient3211"/>
    <radialGradient id="radialGradient3330" cx="50" cy="106.01698" gradientTransform="matrix(.8043478 .00000021 -.00000006 .2293229 11.782615 87.687866)" gradientUnits="userSpaceOnUse" r="46" xlink:href="#linearGradient3211"/>
    <radialGradient id="radialGradient3332" cx="52" cy="98.397842" gradientTransform="matrix(1 0 0 1.1459883 2 -8.762777)" gradientUnits="userSpaceOnUse" r="41.838463">
      <stop offset="0" stop-color="#5e5e5e"/>
      <stop offset="1" stop-opacity="0"/>
    </radialGradient>
    <linearGradient id="linearGradient3334" gradientUnits="userSpaceOnUse" x1="62" x2="62" xlink:href="#linearGradient3211" y1="140" y2="28"/>
    <linearGradient id="linearGradient3336" gradientUnits="userSpaceOnUse" x1="91.095451" x2="96.487144" xlink:href="#linearGradient3211" y1="14.023225" y2="4.300506"/>
    <linearGradient id="linearGradient3338" gradientUnits="userSpaceOnUse" x1="12.518213" x2="12.518213" xlink:href="#linearGradient3211" y1="12.211263" y2="-1.444737"/>
    <linearGradient id="linearGradient3340" gradientUnits="userSpaceOnUse" x1="42" x2="58" xlink:href="#linearGradient3211" y1="-104" y2="64"/>
    <linearGradient id="linearGradient3342" gradientUnits="userSpaceOnUse" x1="78.225001" x2="46.225001" xlink:href="#linearGradient3211" y1="63.975" y2="-32.025"/>
    <linearGradient id="linearGradient3344" gradientUnits="userSpaceOnUse" x1="54.000002" x2="57.725" xlink:href="#linearGradient3211" y1="0" y2="63.975"/>
    <linearGradient id="linearGradient3346" gradientUnits="userSpaceOnUse" x1="80.125" x2="76.8125" xlink:href="#linearGradient3211" y1="106.1875" y2="101.125"/>
    <linearGradient id="linearGradient3348" gradientUnits="userSpaceOnUse" x1="78.125" x2="74.8125" xlink:href="#linearGradient3211" y1="106.1875" y2="101.125"/>
    <filter id="filter3680" height="1.228253" width="1.338575" x="-.169288" y="-.114126">
      <feGaussianBlur stdDeviation=".91821957"/>
    </filter>
    <radialGradient id="radialGradient3253" cx="8.223019" cy="14.316785" gradientTransform="matrix(5.6560649 -1.7338234 3.1377073 10.211621 -35.168909 -41.213797)" gradientUnits="userSpaceOnUse" r="5.32381" spreadMethod="reflect" xlink:href="#linearGradient3211"/>
    <linearGradient id="linearGradient3240" gradientTransform="matrix(5.0064247 0 0 5.0005077 10.020283 3.01153)" gradientUnits="userSpaceOnUse" x1="9.44859" x2="7.677631" xlink:href="#linearGradient3211" y1="2.761672" y2="19.013866"/>
  </defs>
  <g transform="matrix(1.0732812 0 0 1.0732812 22.133434 29.44064)">
    <path d="m1.6184157.0340192-1.6184158 31.9659808h7.6886241l.336729-1.616495c1.620211-8.865674 4.911925-13.323265 7.567278-15.496907 1.541606-1.260214 2.506958-1.82056 4.321344-2.251547s4.526678-.635051 9.035537-.635051h7.015168l.03532 67.999999c-.313043 4.423918.547584 9.576952-2.122968 13.399761-2.636929 2.93537-8.073635 2.82925-12.08115 3.26828l-1.795883.1732v7.15876h52v-7.15876l-1.795883-.1732c-6.44286-.48116-9.93895-1.15418-11.734776-2.64742-2.453359-2.039992-2.469337-7.774431-2.469339-14.020621v-67.999999h7.295775c4.708211 0 7.552777.200033 9.372265.635051s2.681715 1.003308 4.040737 2.251547c2.387107 2.19517 5.383475 6.717683 7.26587 15.554639l.336728 1.558763 7.688624.099999-1.373128-32.0659798z" fill="url(#linearGradient3436)"/>
    <path d="m1.6184157.0340192-1.6184158 31.9659808h7.6886241l.336729-1.616495c1.620211-8.865674 4.911925-13.323265 7.567278-15.496907 1.541606-1.260214 2.506958-1.82056 4.321344-2.251547s4.526678-.635051 9.035537-.635051h7.015168 20.035321 7.295775c4.708211 0 7.552777.200033 9.372265.635051s2.681715 1.003308 4.040737 2.251547c2.387107 2.19517 5.383475 6.717683 7.26587 15.554639l.336728 1.558763 7.688624.099999-1.373128-32.0659798z" fill="url(#radialGradient3438)" opacity=".74"/>
    <path d="m36 79.999999c-.313043 4.423918.547584 9.576952-2.122968 13.399761-2.636929 2.93537-8.073635 2.82925-12.08115 3.26828l-1.795883.1732v7.15876h52v-7.15876l-1.795883-.1732c-6.44286-.48116-9.93895-1.15418-11.734776-2.64742-2.453359-2.039992-2.469337-7.774431-2.469339-14.020621z" fill="url(#radialGradient3440)" opacity=".148"/>
    <path d="m5.3658975 4.077427h81.4881955l1.010184 23.901031h-.617334c-2.031178-8.253911-4.963004-13.394313-7.91311-16.107216-1.5336-1.408586-3.490912-2.627843-5.780499-3.175258-2.442676-.584015-5.453406-.750512-10.270207-.750516h-7.295775-3.928494v4.041237 68.008249c.000002 3.126654-.02548 6.242548.336728 9.121649.36221 2.879101.963326 5.896897 3.591766 8.082477 1.950085 1.62151 4.388503 2.31098 7.239654 2.77113h-34.1779c2.572241-.46432 5.493303-1.30406 7.744746-3.81031l.168364-.17319.112242-.23093c3.885007-5.561263 2.722718-11.79946 2.981663-15.458872v-.115464-.173195l-.056121-72.008249h-12c-4.624535 0-6.608615.128746-8.996615.695984-2.245754.533452-4.112989 1.593053-5.83662 3.002062-3.236194 2.649113-6.707414 7.770849-8.5865664 16.22268h-.3928494z" fill="url(#radialGradient3442)"/>
    <path d="m5.3658975 4.077427h81.4881955l1.010184 23.901031h-.617334c-2.031178-8.253911-4.963004-13.394313-7.91311-16.107216-1.5336-1.408586-3.490912-2.627843-5.780499-3.175258-2.442676-.584015-5.453406-.750512-10.270207-.750516h-7.295775-3.928494v4.041237 68.008249c.000002 3.126654-.02548 6.242548.336728 9.121649.36221 2.879101.963326 5.896897 3.591766 8.082477 1.950085 1.62151 4.388503 2.31098 7.239654 2.77113h-34.1779c2.572241-.46432 5.493303-1.30406 7.744746-3.81031l.168364-.17319.112242-.23093c3.885007-5.561263 2.722718-11.79946 2.981663-15.458872v-.115464-.173195l-.056121-72.008249h-12c-4.624535 0-6.608615.128746-8.996615.695984-2.245754.533452-4.112989 1.593053-5.83662 3.002062-3.236194 2.649113-6.707414 7.770849-8.5865664 16.22268h-.3928494z" fill="none" filter="url(#filter3032)" opacity=".56" stroke="url(#linearGradient3444)"/>
    <path d="m90.487145.0570111-3.535534 4.1542519-1.856156-.265165z" fill="url(#linearGradient3446)" fill-rule="evenodd" filter="url(#filter3102)"/>
    <path d="m1.6184157.0340192-1.6184158 31.9659808h7.6886241l.336729-1.616495c1.620211-8.865674 4.911925-13.323265 7.567278-15.496907 1.541606-1.260214 2.506958-1.82056 4.321344-2.251547s4.526678-.635051 9.035537-.635051h7.015168l.03532 23.999999h20.000001v-23.999999h7.295775c4.708211 0 7.552777.200033 9.372265.635051s2.681715 1.003308 4.040737 2.251547c2.387107 2.19517 5.383475 6.717683 7.26587 15.554639l.336728 1.558763 7.688624.099999-1.373128-32.0659798z" fill="url(#radialGradient3448)"/>
    <path d="m5.2807766 4.122875-3.6239223-4.1542523 4.8613587 3.9774753z" fill="url(#linearGradient3450)" fill-rule="evenodd" filter="url(#filter3098)"/>
    <path d="m5.375 4.0625-1.1875 23.84375h.40625c1.879152-8.451831 5.326306-13.569637 8.5625-16.21875 1.723631-1.409009 3.597995-2.466548 5.84375-3 2.388-.567238 4.375465-.6875 9-.6875h12l.0063 34.59375c4.223425-.606961 8.189108-1.410961 12.05625-2.375v-28.21875-4.0625h3.93745 7.28125c4.816801.000004 7.838571.165985 10.28125.75 2.289587.547415 4.247651 1.778913 5.78125 3.1875 2.264701 2.082608 4.499776 5.620927 6.34375 10.875.675527-.750161 1.301403-1.50489 1.875-2.28125l-.71875-16.40625z" fill="url(#linearGradient3452)" opacity=".908"/>
    <path d="m86.5375 4.0375.6875 15.40625c-.5736.77636-1.19947 1.531089-1.875 2.28125-.82979-2.364333-1.73226-4.154601-2.6875-5.625 1.07235 1.801665 2.07801 3.997964 3 6.625.67553-.750161 1.3014-1.50489 1.875-2.28125l-.71875-16.40625zm-34.8125 35.15625c-3.7708.940023-7.53322 2.011109-11.64375 2.6125v.7625c4.22343-.606961 8.08911-1.410961 11.95625-2.375v-28.21875-4.0625zm-28.90625-31.125c-1.60781.116595-2.96225.310131-4.15625.59375-2.24575.533452-4.12012 1.590991-5.84375 3-3.23619 2.649113-6.68335 6.766919-8.5625004 15.21875h-.03125l-.0625 1h.40625c1.8791504-8.451831 5.3263104-13.569637 8.5625004-16.21875 1.72363-1.409009 3.598-2.466548 5.84375-3 1.194-.283619 2.51719-.477155 4.125-.59375-.08756.0058-.19531-.0062-.28125 0z" fill="url(#linearGradient3454)" opacity=".908"/>
    <path d="m5.0999996 4.0375-1.1875 23.84375h.0625l1.125-23.64375c26.9515964.409308 54.0474004.6302 81.4687504.1l.6875 16.16875c.01342-.01807.01788-.04441.03125-.0625l-.71875-16.40625z" fill="url(#linearGradient3456)" opacity=".908"/>
    <path d="m63.312501 99.8125 2.375-3.75 6.3125.8125z" fill="url(#linearGradient3458)" fill-rule="evenodd" filter="url(#filter3240)"/>
    <path d="m67.312501 107.8125 2.375-3.75 6.3125.8125z" fill="url(#linearGradient3460)" fill-rule="evenodd" filter="url(#filter3240)" transform="matrix(-1 0 0 1 96.0625 -7.8)"/>
  </g>
  <g transform="matrix(1.0732812 0 0 1.0732812 50.038746 46.613142)">
    <path d="m7.6184157 8.0340192-1.6184158 31.9659808h7.6886241l.336729-1.616495c1.620211-8.865674 4.911925-13.323265 7.567278-15.496907 1.541606-1.260214 2.506958-1.82056 4.321344-2.251547s4.526678-.635051 9.035537-.635051h7.015168l.03532 67.999999c-.313043 4.423918.547584 9.576952-2.122968 13.399761-2.636929 2.93537-8.073635 2.82925-12.08115 3.26828l-1.795883.1732v7.15876h52v-7.15876l-1.795883-.1732c-6.44286-.48116-9.93895-1.15418-11.734776-2.64742-2.453359-2.039992-2.469337-7.774431-2.469339-14.020621v-67.999999h7.295775c4.708211 0 7.552777.200033 9.372265.635051s2.681715 1.003308 4.040737 2.251547c2.387107 2.19517 5.383475 6.717683 7.26587 15.554639l.336728 1.558763 7.688624.099999-1.373128-32.0659798z"/>
    <path d="m7.6184157 8.0340192-1.6184158 31.9659808h7.6886241l.336729-1.616495c1.620211-8.865674 4.911925-13.323265 7.567278-15.496907 1.541606-1.260214 2.506958-1.82056 4.321344-2.251547s4.526678-.635051 9.035537-.635051h7.015168 20.035321 7.295775c4.708211 0 7.552777.200033 9.372265.635051s2.681715 1.003308 4.040737 2.251547c2.387107 2.19517 5.383475 6.717683 7.26587 15.554639l.336728 1.558763 7.688624.099999-1.373128-32.0659798z" fill="url(#radialGradient3328)" opacity=".74"/>
    <path d="m42 87.999999c-.313043 4.423918.547584 9.576952-2.122968 13.399761-2.636929 2.93537-8.073635 2.82925-12.08115 3.26828l-1.795883.1732v7.15876h52v-7.15876l-1.795883-.1732c-6.44286-.48116-9.93895-1.15418-11.734776-2.64742-2.453359-2.039992-2.469337-7.774431-2.469339-14.020621z" fill="url(#radialGradient3330)" opacity=".632"/>
    <path d="m11.365898 12.077427h81.488195l1.010184 23.901031h-.617334c-2.031178-8.253911-4.963004-13.394313-7.91311-16.107216-1.5336-1.408586-3.490912-2.627843-5.780499-3.175258-2.442676-.584015-5.453406-.750512-10.270207-.750516h-7.295775-3.928494v4.041237 68.008249c.000002 3.126654-.02548 6.242548.336728 9.121649.36221 2.879101.963326 5.896897 3.591766 8.082477 1.950085 1.62151 4.388503 2.31098 7.239654 2.77113h-34.1779c2.572241-.46432 5.493303-1.30406 7.744746-3.81031l.168364-.17319.112242-.23093c3.885007-5.561263 2.722718-11.79946 2.981663-15.458872v-.115464-.173195l-.056121-72.008249h-12c-4.624535 0-6.608615.128746-8.996615.695984-2.245754.533452-4.112989 1.593053-5.83662 3.002062-3.236194 2.649113-6.707414 7.770849-8.586566 16.22268h-.39285z" fill="url(#radialGradient3332)"/>
    <path d="m11.365898 12.077427h81.488195l1.010184 23.901031h-.617334c-2.031178-8.253911-4.963004-13.394313-7.91311-16.107216-1.5336-1.408586-3.490912-2.627843-5.780499-3.175258-2.442676-.584015-5.453406-.750512-10.270207-.750516h-7.295775-3.928494v4.041237 68.008249c.000002 3.126654-.02548 6.242548.336728 9.121649.36221 2.879101.963326 5.896897 3.591766 8.082477 1.950085 1.62151 4.388503 2.31098 7.239654 2.77113h-34.1779c2.572241-.46432 5.493303-1.30406 7.744746-3.81031l.168364-.17319.112242-.23093c3.885007-5.561263 2.722718-11.79946 2.981663-15.458872v-.115464-.173195l-.056121-72.008249h-12c-4.624535 0-6.608615.128746-8.996615.695984-2.245754.533452-4.112989 1.593053-5.83662 3.002062-3.236194 2.649113-6.707414 7.770849-8.586566 16.22268h-.39285z" fill="none" filter="url(#filter3032)" opacity=".56" stroke="url(#linearGradient3334)"/>
    <path d="m96.487145 8.0570111-3.535534 4.1542519-1.856156-.265165z" fill="url(#linearGradient3336)" fill-rule="evenodd" filter="url(#filter3102)"/>
    <path d="m11.280777 12.122875-3.6239227-4.1542523 4.8613587 3.9774753z" fill="url(#linearGradient3338)" fill-rule="evenodd" filter="url(#filter3098)"/>
    <path d="m11.375 12.0625-1.1875 23.84375h.40625c1.879152-8.451831 5.326306-13.569637 8.5625-16.21875 1.723631-1.409009 3.597995-2.466548 5.84375-3 2.388-.567238 4.375465-.6875 9-.6875h12l.0063 34.59375c4.223425-.606961 8.189108-1.410961 12.05625-2.375v-28.21875-4.0625h3.93745 7.28125c4.816801.000004 7.838571.165985 10.28125.75 2.289587.547415 4.247651 1.778913 5.78125 3.1875 2.264701 2.082608 4.499776 5.620927 6.34375 10.875.675527-.750161 1.301403-1.50489 1.875-2.28125l-.71875-16.40625z" fill="url(#linearGradient3340)" opacity=".908"/>
    <path d="m92.5375 12.0375.6875 15.40625c-.5736.77636-1.19947 1.531089-1.875 2.28125-.82979-2.364333-1.73226-4.154601-2.6875-5.625 1.07235 1.801665 2.07801 3.997964 3 6.625.67553-.750161 1.3014-1.50489 1.875-2.28125l-.71875-16.40625zm-34.8125 35.15625c-3.7708.940023-7.53322 2.011109-11.64375 2.6125v.7625c4.22343-.606961 8.08911-1.410961 11.95625-2.375v-28.21875-4.0625zm-28.90625-31.125c-1.60781.116595-2.96225.310131-4.15625.59375-2.24575.533452-4.12012 1.590991-5.84375 3-3.23619 2.649113-6.68335 6.766919-8.5625 15.21875h-.03125l-.0625 1h.40625c1.87915-8.451831 5.32631-13.569637 8.5625-16.21875 1.72363-1.409009 3.598-2.466548 5.84375-3 1.194-.283619 2.51719-.477155 4.125-.59375-.08756.0058-.19531-.0062-.28125 0z" fill="url(#linearGradient3342)" opacity=".908"/>
    <path d="m11.1 12.0375-1.1875004 23.84375h.0625l1.1250004-23.64375c26.951596.409308 54.0474.6302 81.46875.1l.6875 16.16875c.01342-.01807.01788-.04441.03125-.0625l-.71875-16.40625z" fill="url(#linearGradient3344)" opacity=".908"/>
    <path d="m69.312501 107.8125 2.375-3.75 6.3125.8125z" fill="url(#linearGradient3346)" fill-rule="evenodd" filter="url(#filter3240)"/>
    <path d="m67.312501 107.8125 2.375-3.75 6.3125.8125z" fill="url(#linearGradient3348)" fill-rule="evenodd" filter="url(#filter3240)" transform="matrix(-1 0 0 1 102.0625 .2)"/>
  </g>
  <g transform="matrix(1.3333333 0 0 1.3333333 97.523728 77.608536)">
    <path d="m5 19c.0000524.523584.4764155.999948 1 1h3.59375l2.5 2.5625c.272702.267764.706204.357015 1.0625.21875l1.25-.46875c.353635-.127466.619754-.46962.65625-.84375l.34375-3.3125 2.40625-3c.296435-.374818.26821-.967546-.0625-1.3125l-11.2451499-10.3075557z" fill-rule="evenodd" filter="url(#filter3680)" opacity=".502347" transform="matrix(5.0064249 0 0 5.0005072 10.020283 2.009385)"/>
    <path d="m40.058831 8.0120374v80.0081236h20.0257l14.05376 14.241309 6.319219-2.365149 1.850134-18.142171 12.94035-16.125774z" fill="#201020" fill-rule="evenodd" stroke="#595959" stroke-linejoin="round" stroke-width="16"/>
    <path d="m40.058833 8.0120367v80.0081183h20.025701l14.053761 14.241295 6.319219-2.365137 1.850133-18.142169 12.767023-16.083288z" fill="#c4c4c4" fill-rule="evenodd"/>
    <path d="m40.058833 8.0120367v80.0081183h20.025701l14.053761 14.241295 6.319219-2.365137 1.850133-18.142169 12.666003-15.889289z" fill="url(#radialGradient3253)" fill-rule="evenodd"/>
    <path d="m44.038461 84.09322 20.002613.09259 11.337022 14.628848 1.251808-1.318643 1.832315-17.591421 11.16027-13.971816-45.617103-48.252032.03307 66.412475z" fill="none" stroke="url(#linearGradient3240)" stroke-width="8"/>
  </g>
</svg>
