<svg height="256" viewBox="0 0 256 256" width="256" xmlns="http://www.w3.org/2000/svg" xmlns:xlink="http://www.w3.org/1999/xlink">
  <defs>
    <radialGradient id="radialGradient12" cx="120.54089" cy="172.34988" gradientTransform="matrix(1 0 0 1.0254731 0 -3.186886)" gradientUnits="userSpaceOnUse" r="96.609375">
      <stop offset="0" stop-color="#fcfcfc"/>
      <stop offset="1" stop-color="#e0e0e0"/>
    </radialGradient>
    <linearGradient id="linearGradient15" gradientUnits="userSpaceOnUse" x1="201.53917" x2="149.08801" y1="132.52074" y2="-16.996611">
      <stop offset="0" stop-color="#fff"/>
      <stop offset="1" stop-color="#fff" stop-opacity="0"/>
    </linearGradient>
    <linearGradient id="linearGradient13" gradientUnits="userSpaceOnUse" x1="120.47059" x2="120.47059" y1="225.29524" y2="26.037657">
      <stop offset="0" stop-color="#454545"/>
      <stop offset="1" stop-color="#969696"/>
    </linearGradient>
    <linearGradient id="linearGradient4721" gradientUnits="userSpaceOnUse" x1="771.41627807132" x2="771.41627807132" y1="63.59378351168" y2="1.65934688593">
      <stop offset="0" stop-color="#06f"/>
      <stop offset="1" stop-color="#80b3ff"/>
    </linearGradient>
  </defs>
  <g stroke-width="5.33333" transform="matrix(1.5 0 0 1.5 -942.8457 7.533491)">
    <path d="m782.39342 17.190442v6.113076q-2.74034-1.405305-5.69148-2.107957-2.95114-.702653-6.11308-.702653-4.81317 0-7.23732 1.47557-2.38902 1.47557-2.38902 4.42671 0 2.248487 1.7215 3.548394 1.7215 1.264774 6.92113 2.424151l2.21335.491856q6.886 1.47557 9.76687 4.180782 2.91601 2.670079 2.91601 7.483247 0 5.480688-4.35645 8.677756-4.32131 3.197069-11.90995 3.197069-3.16194 0-6.60494-.632388-3.40786-.597254-7.20218-1.826896v-6.675197q3.58352 1.862029 7.06165 2.81061 3.47813.913448 6.886.913448 4.56724 0 7.02652-1.545836 2.45928-1.580967 2.45928-4.426709 0-2.634946-1.79176-4.040251-1.75663-1.405305-7.76431-2.705212l-2.24849-.526989q-6.00767-1.264774-8.67775-3.864588-2.67008-2.634946-2.67008-7.202186 0-5.550954 3.93485-8.572359 3.93485-3.021405 11.17217-3.021405 3.58353 0 6.74547.52699 3.16193.526989 5.83201 1.580967z" fill="none" stroke="url(#linearGradient4721)" stroke-linecap="round" stroke-linejoin="round"/>
    <path d="m782.42898 17.341166v6.129592q-2.74775-1.409101-5.70686-2.113652-2.95912-.704551-6.12959-.704551-4.82618 0-7.25688 1.479557-2.39547 1.479556-2.39547 4.43867 0 2.254562 1.72615 3.557981 1.72615 1.268192 6.93982 2.430701l2.21934.493185q6.9046 1.479557 9.79326 4.192078 2.92388 2.677293 2.92388 7.503466 0 5.495496-4.36821 8.701202-4.33299 3.205707-11.94214 3.205707-3.17048 0-6.62278-.634096-3.41707-.598868-7.22164-1.831832v-6.693233q3.59321 1.86706 7.08073 2.818203 3.48753.915916 6.9046.915916 4.57958 0 7.04551-1.550011 2.46593-1.58524 2.46593-4.438671 0-2.642065-1.79661-4.051167-1.76137-1.409101-7.78528-2.71252l-2.25457-.528414q-6.02391-1.268191-8.7012-3.875029-2.67729-2.642066-2.67729-7.221646 0-5.565951 3.94548-8.59552 3.94549-3.029568 11.20236-3.029568 3.59321 0 6.76369.528413 3.17048.528413 5.84777 1.585239z" fill="#e6f0ff"/>
  </g>
  <g transform="matrix(.7965373 0 0 1.0026825 2.04545 2.556424)">
    <path d="m175.87684 224.17829-17.57813-50.625h-75.515626l-17.578125 50.625h-41.484375l72.28125-198.140633h48.937506l72 198.140633zm-55.40626-167.625-.84375 3.09375q-1.40625 5.0625-3.375 11.531251-1.96875 6.46875-24.187497 71.156249h56.953127l-19.54688-56.953129-6.04687-19.124996z" fill="url(#radialGradient12)" stroke-width="1.5"/>
    <path d="m96.001953 26.037109-45.199219 123.904301a85.52104 127.72643 76.264855 0 0 92.785156 5.74218 85.52104 127.72643 76.264855 0 0 43.05273-14.88476l-41.70117-114.761721zm24.468747 30.515625 2.95313 9.703125 6.04687 19.125 19.54688 56.953121h-56.953127c14.812497-43.124995 22.874997-66.843746 24.187497-71.156246s2.4375-8.15625 3.375-11.53125z" fill="url(#linearGradient15)" stroke-width="1.5"/>
    <path d="m175.87684 224.17829-17.57813-50.625h-75.515626l-17.578125 50.625h-41.484375l72.28125-198.140633h48.937506l72 198.140633zm-55.40626-167.625-.84375 3.09375q-1.40625 5.0625-3.375 11.531251-1.96875 6.46875-24.187497 71.156249h56.953127l-19.54688-56.953129-6.04687-19.124996z" fill="none" stroke="url(#linearGradient13)" stroke-width="5"/>
  </g>
</svg>
