<svg height="256" viewBox="0 0 256 256" width="256" xmlns="http://www.w3.org/2000/svg" xmlns:xlink="http://www.w3.org/1999/xlink">
  <defs>
    <radialGradient id="radialGradient4851" cx="271.40051" cy="448.53534" gradientTransform="matrix(17.068525 0 0 9.76999 -4502.5912 -4348.5771)" gradientUnits="userSpaceOnUse" r="4.44072">
      <stop offset="0" stop-color="#d3d3d3"/>
      <stop offset="1" stop-color="#5b5b5b"/>
    </radialGradient>
    <radialGradient id="radialGradient4853" cx="271.40051" cy="456.81781" gradientTransform="matrix(28.90462 0 0 24.553519 -7714.9125 -11006.534)" gradientUnits="userSpaceOnUse" r="4.44072">
      <stop offset="0" stop-color="#fff"/>
      <stop offset="1" stop-color="#c5c5c5"/>
    </radialGradient>
    <linearGradient id="linearGradient4855" gradientUnits="userSpaceOnUse" x1="164.866032" x2="164.866032" y1="128.240284" y2="-133.046324971">
      <stop offset="0" stop-color="#fff"/>
      <stop offset="1" stop-color="#fff" stop-opacity="0"/>
    </linearGradient>
    <linearGradient id="linearGradient4857" gradientTransform="matrix(15.454546 0 0 15.000001 -6231.546 -2931.8741)" gradientUnits="userSpaceOnUse" x1="410" x2="410" y1="205" y2="201">
      <stop offset="0" stop-color="#454545"/>
      <stop offset="1" stop-color="#969696"/>
    </linearGradient>
    <linearGradient id="linearGradient4860" gradientTransform="matrix(15.454546 0 0 15 -6231.5455 -2931.8739)" gradientUnits="userSpaceOnUse" x1="411" x2="412.11804" y1="203" y2="204.93649">
      <stop offset="0" stop-color="#fcfcfc"/>
      <stop offset="1" stop-color="#e0e0e0"/>
    </linearGradient>
  </defs>
  <path d="m67.95899 173.09295h10.9505l4.80945 19.4857c1.73995 2.19875 4.1674 4.3057 7.2818 6.3212 3.1142 1.92405 6.5491 3.6647 10.3047 5.2219 3.84665 1.4656 7.8772 2.65705 12.0907 3.57315 4.2135.8246 5.5462 1.23645 9.57645 1.23645 6.9612 0 13.0068-.9158 18.1365-2.7483 5.12915-1.9237 9.3426-4.5347 12.64045-7.83275 3.3886-3.2979 5.90785-7.19175 7.55625-11.68045 1.649-4.48925 2.47335-9.3905 2.4734-14.70395-.00005-6.5962-1.4198-9.2577-4.2594-13.56365-2.74795-4.30575-5.0169-7.92445-9.59685-10.85625-4.48845-3.02285-8.22315-5.5424-13.99345-7.55785-5.77095-2.10695-11.72495-4.21425-17.8615-6.3213-6.0456-2.10715-13.4913-4.44335-19.26195-7.008-5.7707-2.56555-10.94605-5.8179-15.52585-9.7571-4.48815-3.9391-8.1524-8.7946-10.9918-14.5664-2.7482-5.863051-4.1224-13.054852-4.1224-21.575002 0-7.1456 1.3742-14.2191 4.1224-19.99085 2.74795-5.8631 6.77805-10.810148 12.0905-14.841648 5.3127-4.12225 12.73895-7.283 20.43335-9.4818 7.78585-2.19835 17.24005-3.2979 27.13255-3.2981 9.0681.0002 17.6786.5956 25.83065 1.78665 8.15195 1.1909 13.80345 2.56525 20.6732 4.12255v38.955098h-7.07115l-4.80905-19.24925c-4.0302-2.93185-8.9763-5.3593-14.83845-7.2835-5.8624-1.923598-12.45735-2.885898-19.7852-2.885948-6.77845.00005-12.04005.73315-16.98585 2.198898-4.8545 1.4659-8.88505 3.4814-12.09085 6.0464-3.20595 2.47355-5.5876 5.45125-7.14495 8.9324-1.5568 3.38985-2.3352 7.05405-2.3352 10.9935 0 5.95475 1.37375 7.6144 4.12175 11.55365 2.8393 3.9397 6.5032 7.329201 10.9915 10.169251 4.58015 2.748451 9.75505 5.130151 15.52605 7.145851 5.86195 2.0155 14.54535 4.1226 20.5909 6.3212 6.13665 2.1071 11.08485 4.53475 16.8555 7.2829 5.86215 2.6571 11.9074 6.09255 16.39575 10.30665 4.5799 4.1226 8.24365 9.20725 10.99165 15.25355 2.83965 5.95465 4.25935 13.32995 4.2594 22.12455-.00005 8.52005-1.3285 16.21575-3.9844 23.08645-2.56515 6.871-6.5037 12.7798-11.81625 17.727-5.221 4.85525-14.14085 8.6115-22.10935 11.26815-7.87745 2.56515-18.0447 3.8481-28.76145 3.8481-5.67935 0-11.2664-.275-16.7622-.8246-5.49585-.5496-10.67145-1.28285-15.5262-2.19875-4.8546-.9163-9.3427-1.96955-13.4649-3.1608-4.12155-1.1909-9.71405-2.3818-12.7367-3.57245z" fill="none" stroke="url(#radialGradient4851)" stroke-linecap="round" stroke-linejoin="round" stroke-width="10"/>
  <path d="m68.60674 173.1695h10.322l4.80715 19.425c1.74005 2.19715 4.16655 4.30315 7.2798 6.31765 3.11255 1.92295 6.5465 3.6625 10.3006 5.2189 3.8457 1.46505 7.8745 2.6553 12.08645 3.57105 4.212.82395 8.3326 1.23625 12.3614 1.23625 6.9588 0 10.6777-.91575 15.80505-2.7471 5.12765-1.9227 9.3393-4.53245 12.63585-7.8285 3.38765-3.29625 5.90555-7.18765 7.55435-11.67455 1.6479-4.4867 2.47195-9.38545 2.472-14.696-.00005-6.5925-1.41975-9.25135-4.2577-13.55465-2.74695-4.3033-6.40975-7.9202-10.9878-10.8505-4.487-3.0215-7.28975-5.53945-13.05795-7.554-5.76905-2.106-11.72065-4.2118-17.8555-6.31785-6.0432-2.1059-13.7946-4.4406-19.5628-7.00475-5.7685-2.56385-10.942-5.81415-15.52005-9.75165-4.48685-3.93705-8.14915-8.7896-10.98765-14.55855-2.747-5.860351-4.12055-13.047802-4.12055-21.563352 0-7.14195 1.37355-13.59705 4.12055-19.36595 2.7468-5.85985 6.7755-10.80435 12.0866-14.833148 5.3105-4.1203 11.81155-7.27935 19.50285-9.47715 7.783-2.19735 18.46435-3.2959 28.3531-3.29605 9.06505.00015 17.67185.59535 25.82115 1.7856 8.14905 1.1904 13.3328 2.56395 20.20035 4.12015v38.319498h-6.603l-4.8073-19.5659c-4.0288-2.9301-8.97335-5.35665-14.8331-7.27945-5.8604-1.922748-12.4528-2.884198-19.7781-2.884348-6.77575.00015-12.0348.73265-16.97945 2.197748-4.85265 1.4649-8.8816 3.47955-12.0861 6.04315-3.2053 2.47225-5.5859 5.4482-7.1423 8.92735-1.55695 3.3882-2.33485 4.0919-2.33485 8.0291 0 5.95195 1.37375 10.8962 4.1204 14.8335 2.83825 3.93765 6.50095 7.325101 10.98755 10.163551 4.57815 2.747001 9.75165 5.127551 15.52015 7.141951 5.86015 2.01455 13.6715 4.12035 19.71465 6.318 6.1344 2.10595 12.5553 4.5325 18.3237 7.2794 5.8602 2.6553 11.03375 6.08905 15.5203 10.3008 4.5781 4.1205 8.24055 9.20215 10.98785 15.24545 2.8381 5.9517 4.2573 13.32275 4.25735 22.1127-.00005 8.51525-1.32755 16.20695-3.98295 23.07415-2.56385 6.8674-6.50085 12.7732-11.8116 17.71765-5.21915 4.85275-11.81195 8.60715-19.7778 11.26235-7.87465 2.56385-19.02785 3.8454-29.74095 3.8454-5.6771 0-12.33185-.2745-17.8261-.82375-5.49395-.5493-10.6672-1.28195-15.5197-2.19745-4.8528-.9161-9.33975-1.9686-13.46-3.15925-4.12055-1.1897-9.7116-2.3804-12.73335-3.5708v-39.93165" fill="url(#radialGradient4853)"/>
  <path d="m131.96754 33.14845c-9.86355.00015-20.9616 1.18245-28.72435 3.37415-7.672 2.1921-14.1047 5.1696-19.40125 9.27885-5.29755 4.01905-9.4921 8.917148-12.23145 14.761998-2.74045 5.75395-3.79625 12.893-3.79625 20.0169 0 8.49375 1.0558 15.665451 3.79625 21.510152 2.83085 5.7542 8.64355 10.8351 13.11875 14.76245 4.5662 3.92705 7.6989 7.1433 13.4526 9.7007 5.75385 2.5574 13.83955 4.64785 19.8674 6.7484 6.11925 2.10065 11.9606 4.22565 17.7143 6.3265 1.0169.355 1.9759.87895 2.9526 1.26525 13.62785-1.5573 25.94965-5.58895 36.6941-10.96585-.284-.2705-.5512-.58115-.84325-.84375-4.4756-4.20095-9.7609-7.47405-15.6057-10.1227-5.75385-2.73975-9.4428-5.0693-15.5617-7.17005-6.02775-2.1917-13.72885-4.31745-19.5738-6.32655-5.7541-2.00925-11.0395-4.42975-15.60605-7.170201-4.47515-2.8312-8.1346-6.195301-10.96565-10.122551-2.74015-3.92675-4.21795-5.8669-4.21795-11.8036 0-3.92675.9781-7.5865 2.53075-10.9659 1.55245-3.4702 3.9733-6.39075 7.17015-8.85725 3.1966-2.55665 6.96905-4.8652 11.80945-6.32675 4.9319-1.460948 10.66285-2.108398 17.42105-2.108748 7.3068.00035 13.97845 1.03455 19.8236 2.952298 5.8451 1.91815 10.74325 4.2478 14.762 7.1702l4.6396 19.8172h6.5326v-38.996248c-6.8498-1.55265-11.90125-3.0305-20.02925-4.218-8.12845-1.18715-16.68655-1.6866-25.72855-1.6869z" fill="url(#linearGradient4855)"/>
  <rect fill="none" height="15.000001" stroke="url(#linearGradient4857)" stroke-linecap="round" stroke-linejoin="round" stroke-width="10" width="170.00002" x="42.999992" y="113.12595"/>
  <rect fill="url(#linearGradient4860)" height="15" width="170" x="42.999992" y="113.12595"/>
</svg>
