<svg height="256" viewBox="0 0 256 256" width="256" xmlns="http://www.w3.org/2000/svg" xmlns:xlink="http://www.w3.org/1999/xlink">
  <defs>
    <radialGradient id="radialGradient14" cx="651.7016" cy="618.67328" gradientTransform="matrix(1.5390658 .01175273 -.00996974 1.305593 -344.80434 -208.61213)" gradientUnits="userSpaceOnUse" r="119.45849">
      <stop offset="0" stop-color="#fcfcfc"/>
      <stop offset="1" stop-color="#e0e0e0"/>
    </radialGradient>
    <linearGradient id="linearGradient21" gradientUnits="userSpaceOnUse" x1="664.55536" x2="621.57013" y1="590.28491" y2="449.96194">
      <stop offset="0" stop-color="#fff"/>
      <stop offset="1" stop-color="#fff" stop-opacity="0"/>
    </linearGradient>
    <linearGradient id="linearGradient18" gradientUnits="userSpaceOnUse" x1="653.65253" x2="653.65253" y1="671.32074" y2="468.19174">
      <stop offset="0" stop-color="#454545"/>
      <stop offset="1" stop-color="#969696"/>
    </linearGradient>
  </defs>
  <g transform="translate(-523.24421 -443.00625)">
    <path d="m770.7027 608.94615q0 30.35192-12.53061 46.36325-12.53061 16.01134-36.75646 16.01134-24.5043 0-36.89568-15.87211-12.39138-15.8721-12.39138-46.50248 0-31.1873 11.97369-46.78095 11.97369-15.73288 37.87029-15.73288 25.06122 0 36.89568 15.87211 11.83447 15.73288 11.83447 46.64172zm-169.16324 60.14692h-28.68117l128.09068-196.17366h29.09886zm-20.04897-198.40132q24.92199 0 36.89568 15.73288 12.11292 15.73287 12.11292 46.64171 0 30.35192-12.66983 46.50249-12.53061 16.01133-37.03492 16.01133-24.22584 0-36.61723-15.8721-12.39138-16.01134-12.39138-46.64172 0-31.60498 11.9737-46.92017 11.97369-15.45442 37.73106-15.45442zm159.27797 138.2544q0-22.13742-4.3161-31.60499-4.17687-9.46757-14.47981-9.46757-11.13832 0-15.45442 9.6068-4.17687 9.6068-4.17687 31.46576 0 22.27664 4.45533 31.46575 4.45532 9.04988 14.8975 9.04988 10.16372 0 14.61904-9.46757 4.45533-9.46757 4.45533-31.04806zm-140.48206-75.87981q0-21.85895-4.3161-31.32652-4.17687-9.46758-14.47981-9.46758-11.13832 0-15.45442 9.46758-4.3161 9.32834-4.3161 31.32652 0 21.99818 4.45533 31.46575 4.59455 9.32835 15.03673 9.32835 10.30294 0 14.61904-9.46757 4.45533-9.46758 4.45533-31.32653z" fill="url(#radialGradient14)" stroke-width="9.72072"/>
    <path d="m581.49023 470.69141c-17.17158 0-29.748 5.15213-37.73046 15.45507-7.98247 10.21013-11.97461 25.84994-11.97461 46.91993 0 17.7432 3.11855 31.80636 9.35546 42.1914a141.52282 239.60276 79.915849 0 0 71.61329 9.71289c1.83012-1.61621 3.52225-3.41678 5.07617-5.40234 8.44655-10.76705 12.66992-26.26734 12.66992-46.50195 0-20.6059-4.038-36.154-12.11328-46.64258-7.98246-10.48859-20.28183-15.73242-36.89649-15.73242zm119.45899 2.22851-73.2207 112.13867a141.52282 239.60276 79.915849 0 0 29.90039-1.58984h.002l72.41602-110.54883zm-119.45899 19.35156c6.86863 0 11.69589 3.15703 14.48047 9.46875 2.8774 6.31172 4.31641 16.75354 4.31641 31.32618 0 14.57263-1.48486 25.01445-4.45508 31.32617-2.8774 6.31171-7.75051 9.46875-14.61914 9.46875-6.96145 0-11.97408-3.11118-15.03711-9.33008-2.97022-6.31171-4.45508-16.79939-4.45508-31.46484 0-14.66546 1.43706-25.10728 4.31446-31.32618 2.8774-6.31172 8.02953-9.46875 15.45507-9.46875zm140.48243 54.16016c-17.2644 0-29.88864 5.24579-37.8711 15.73438-3.95944 5.15648-6.93615 11.5905-8.93164 19.30468a141.52282 239.60276 79.915849 0 0 20.02149-3.23828 141.52282 239.60276 79.915849 0 0 12.20507-2.48437c2.99478-5.24973 7.85333-7.875 14.57618-7.875 3.24989 0 6.04331.70613 8.3789 2.11914a141.52282 239.60276 79.915849 0 0 27.56641-8.91016c-7.9125-9.76639-19.89415-14.65039-35.94531-14.65039z" fill="url(#linearGradient21)" stroke-width="9.72072"/>
    <path d="m770.7027 608.94615q0 30.35192-12.53061 46.36325-12.53061 16.01134-36.75646 16.01134-24.5043 0-36.89568-15.87211-12.39138-15.8721-12.39138-46.50248 0-31.1873 11.97369-46.78095 11.97369-15.73288 37.87029-15.73288 25.06122 0 36.89568 15.87211 11.83447 15.73288 11.83447 46.64172zm-169.16324 60.14692h-28.68117l128.09068-196.17366h29.09886zm-20.04897-198.40132q24.92199 0 36.89568 15.73288 12.11292 15.73287 12.11292 46.64171 0 30.35192-12.66983 46.50249-12.53061 16.01133-37.03492 16.01133-24.22584 0-36.61723-15.8721-12.39138-16.01134-12.39138-46.64172 0-31.60498 11.9737-46.92017 11.97369-15.45442 37.73106-15.45442zm159.27797 138.2544q0-22.13742-4.3161-31.60499-4.17687-9.46757-14.47981-9.46757-11.13832 0-15.45442 9.6068-4.17687 9.6068-4.17687 31.46576 0 22.27664 4.45533 31.46575 4.45532 9.04988 14.8975 9.04988 10.16372 0 14.61904-9.46757 4.45533-9.46757 4.45533-31.04806zm-140.48206-75.87981q0-21.85895-4.3161-31.32652-4.17687-9.46758-14.47981-9.46758-11.13832 0-15.45442 9.46758-4.3161 9.32834-4.3161 31.32652 0 21.99818 4.45533 31.46575 4.59455 9.32835 15.03673 9.32835 10.30294 0 14.61904-9.46757 4.45533-9.46758 4.45533-31.32653z" fill="none" stroke="url(#linearGradient18)" stroke-width="5"/>
  </g>
</svg>
