<svg height="256" width="256" xmlns="http://www.w3.org/2000/svg" xmlns:xlink="http://www.w3.org/1999/xlink">
  <defs>
    <linearGradient id="linearGradient3022">
      <stop offset="0" stop-color="#fff"/>
      <stop offset="1" stop-color="#fff" stop-opacity="0"/>
    </linearGradient>
    <linearGradient id="linearGradient3449">
      <stop offset="0"/>
      <stop offset="1" stop-opacity="0"/>
    </linearGradient>
    <linearGradient id="linearGradient3295">
      <stop offset="0" stop-color="#63e9ff"/>
      <stop offset="1" stop-color="#fff" stop-opacity="0"/>
    </linearGradient>
    <linearGradient id="linearGradient3301" gradientUnits="userSpaceOnUse" spreadMethod="reflect" x1="77.742638" x2="82.939339" xlink:href="#linearGradient3295" y1="15.336544" y2="16.750759"/>
    <filter id="filter3387" height="1.249912" width="1.20414" x="-.10207" y="-.124956">
      <feGaussianBlur stdDeviation=".44655691"/>
    </filter>
    <linearGradient id="linearGradient3393" gradientUnits="userSpaceOnUse" spreadMethod="reflect" x1="74.75" x2="78.939339" xlink:href="#linearGradient3295" y1="14.275884" y2="16.750759"/>
    <linearGradient id="linearGradient3409" gradientTransform="matrix(0 1 -.8610463 0 129.39927 -107.98426)" gradientUnits="userSpaceOnUse" x1="194.5" x2="104.25" y1="123.90683" y2="5.155958">
      <stop offset="0" stop-color="#081e3e"/>
      <stop offset="1" stop-color="#387de4"/>
    </linearGradient>
    <filter id="filter3443" height="1.255079" width="1.231461" x="-.11573" y="-.12754">
      <feGaussianBlur stdDeviation=".32549158"/>
    </filter>
    <radialGradient id="radialGradient3455" cx="79.407021" cy="56.848118" gradientTransform="matrix(-.01767767 .5816285 -.8878982 -.02698625 122.02118 31.93759)" gradientUnits="userSpaceOnUse" r="60" xlink:href="#linearGradient3449"/>
    <linearGradient id="linearGradient3521" gradientTransform="matrix(1 0 0 .8610463 -108.16138 -1.436187)" gradientUnits="userSpaceOnUse" spreadMethod="reflect" x1="223.32712" x2="226.659" xlink:href="#linearGradient3295" y1="53.784153" y2="57.279232"/>
    <linearGradient id="linearGradient2228" gradientUnits="userSpaceOnUse" x1="310.63408" x2="262.27058" xlink:href="#linearGradient3295" y1="59.980953" y2="60.609806"/>
    <radialGradient id="radialGradient3534" cx="-16.668488" cy="86.826965" gradientTransform="matrix(.5212474 .2586607 -.4106011 .8274344 77.907487 -35.523706)" gradientUnits="userSpaceOnUse" r="60" xlink:href="#linearGradient3449"/>
    <filter id="filter3187" height="1.034019" width="1.035146" x="-.017573" y="-.017008">
      <feGaussianBlur stdDeviation=".56525828"/>
    </filter>
    <radialGradient id="radialGradient2433" cx="212.73311" cy="76.109528" gradientTransform="matrix(0 1 -.98014092 0 138.45379 -107.98426)" gradientUnits="userSpaceOnUse" r="56">
      <stop offset="0" stop-color="#9fc1f2"/>
      <stop offset=".5" stop-color="#587eb5"/>
      <stop offset="1" stop-color="#0c2a58"/>
    </radialGradient>
    <linearGradient id="linearGradient3020" gradientUnits="userSpaceOnUse" spreadMethod="reflect" x1="63.933056" x2="66.207115" xlink:href="#linearGradient3022" y1="7.566768" y2="7.566768"/>
    <filter id="filter3084" height="1.153631" width="1.201111" x="-.100556" y="-.076815">
      <feGaussianBlur stdDeviation=".1991477"/>
    </filter>
    <linearGradient id="linearGradient3125" gradientUnits="userSpaceOnUse" x1="84.481171" x2="85.487968" y1="2.010225" y2="88.883774">
      <stop offset="0" stop-color="#cdeeff"/>
      <stop offset="1" stop-color="#d2e8ed" stop-opacity="0"/>
    </linearGradient>
    <linearGradient id="linearGradient3146" gradientUnits="userSpaceOnUse" x1="84.280134" x2="85.8225" xlink:href="#linearGradient3022" y1="2.110225" y2="66.222269"/>
    <linearGradient id="linearGradient3148" gradientUnits="userSpaceOnUse" x1="103.563823" x2="86.896979" xlink:href="#linearGradient3022" y1="85.614641" y2="49.084192"/>
    <radialGradient id="radialGradient3336" cx="63.912209" cy="115.70919" fy="115.7093" gradientTransform="matrix(1 0 0 .197802 0 92.82166)" gradientUnits="userSpaceOnUse" r="63.912209" xlink:href="#linearGradient3449"/>
    <linearGradient id="XMLID_2_" gradientUnits="userSpaceOnUse" x1="15.5" x2="111.5" y1="-28.5" y2="-28.5">
      <stop offset=".04702916" stop-color="#4e4e4a"/>
      <stop offset=".19629943" stop-color="#8c8f89"/>
      <stop offset=".64499998" stop-color="#a5a7a3"/>
      <stop offset="1" stop-color="#53504b"/>
    </linearGradient>
    <linearGradient id="linearGradient3122" gradientUnits="userSpaceOnUse" x1="99" x2="91" y1="31" y2="39">
      <stop offset="0" stop-color="#fff"/>
      <stop offset=".1304" stop-color="#f6f6f5"/>
      <stop offset=".8343" stop-color="#888a85"/>
      <stop offset=".9172" stop-color="#555753"/>
    </linearGradient>
    <linearGradient id="linearGradient3119" gradientTransform="matrix(4 0 0 1 -310 96.5)" gradientUnits="userSpaceOnUse" x1="103" x2="103" y1="-63.772499" y2="-58.681499">
      <stop offset="0" stop-color="#babdb6"/>
      <stop offset="1" stop-color="#888a85"/>
    </linearGradient>
    <linearGradient id="linearGradient3116" gradientTransform="matrix(4 0 0 1 -262 96.5)" gradientUnits="userSpaceOnUse" x1="88" x2="88" y1="-61.227501" y2="-66.318497">
      <stop offset=".1304" stop-color="#888a85"/>
      <stop offset="1" stop-color="#888a85"/>
    </linearGradient>
    <linearGradient id="linearGradient3113" gradientUnits="userSpaceOnUse" x1="104" x2="88" y1="22" y2="22">
      <stop offset="0" stop-color="#555753"/>
      <stop offset="1" stop-color="#2e3436"/>
    </linearGradient>
    <linearGradient id="linearGradient3110" gradientTransform="matrix(1 0 0 -1 -290.4746 -348.5)" gradientUnits="userSpaceOnUse" x1="354.47461" x2="354.47461" y1="-464.60941" y2="-357.87811">
      <stop offset="0" stop-color="#b9b9b1"/>
      <stop offset="1" stop-color="#72776c"/>
    </linearGradient>
    <linearGradient id="linearGradient3098" gradientTransform="matrix(.9361702 0 0 1 4.553192 96.5)" gradientUnits="userSpaceOnUse" x1="63.5005" x2="63.5005" xlink:href="#linearGradient10239" y1="15.8428" y2="6.9485"/>
    <linearGradient id="linearGradient10239" gradientUnits="userSpaceOnUse" x1="63.5005" x2="63.5005" y1="15.8428" y2="6.9485">
      <stop offset=".2" stop-color="#fff"/>
      <stop offset="1" stop-color="#daddde"/>
    </linearGradient>
    <linearGradient id="linearGradient3095" gradientTransform="matrix(.9361702 0 0 1 4.553192 96.5)" gradientUnits="userSpaceOnUse" x1="63.5005" x2="63.5005" xlink:href="#linearGradient10239" y1="7.8428" y2="-1.0515"/>
    <linearGradient id="linearGradient3092" gradientTransform="matrix(.9361702 0 0 1 4.553192 96.5)" gradientUnits="userSpaceOnUse" x1="63.5005" x2="63.5005" xlink:href="#linearGradient10239" y1="-.1572" y2="-9.0515"/>
    <linearGradient id="linearGradient3089" gradientTransform="matrix(.9361702 0 0 1 4.553192 96.5)" gradientUnits="userSpaceOnUse" x1="63.5005" x2="63.5005" xlink:href="#linearGradient10239" y1="-8.1572" y2="-17.0515"/>
    <linearGradient id="linearGradient3086" gradientTransform="matrix(.9361702 0 0 1 4.553192 96.5)" gradientUnits="userSpaceOnUse" x1="63.5005" x2="63.5005" xlink:href="#linearGradient10239" y1="-16.1572" y2="-25.0515"/>
    <linearGradient id="linearGradient3083" gradientTransform="matrix(.9361702 0 0 1 4.553192 96.5)" gradientUnits="userSpaceOnUse" x1="63.5005" x2="63.5005" xlink:href="#linearGradient10239" y1="-24.1572" y2="-33.050999"/>
    <linearGradient id="linearGradient3080" gradientTransform="matrix(.9462366 0 0 1 3.913979 96.5)" gradientUnits="userSpaceOnUse" x1="63.5005" x2="63.5005" xlink:href="#linearGradient10239" y1="-32.1577" y2="-41.051998"/>
    <linearGradient id="linearGradient3077" gradientUnits="userSpaceOnUse" x1="64.0005" x2="64.0005" xlink:href="#linearGradient10239" y1="56.3423" y2="47.448002"/>
    <linearGradient id="linearGradient3074" gradientUnits="userSpaceOnUse" x1="64.0005" x2="64.0005" xlink:href="#linearGradient10239" y1="48.3423" y2="39.448002"/>
    <linearGradient id="linearGradient3071" gradientUnits="userSpaceOnUse" x1="64.0005" x2="64.0005" xlink:href="#linearGradient10239" y1="40.3423" y2="31.447998"/>
    <linearGradient id="linearGradient3068-3" gradientUnits="userSpaceOnUse" x1="64.0005" x2="64.0005" xlink:href="#linearGradient10239" y1="32.3423" y2="23.447998"/>
    <linearGradient id="linearGradient3065" gradientUnits="userSpaceOnUse" x1="64.0005" x2="64.0005" xlink:href="#linearGradient10239" y1="24.3423" y2="15.447998"/>
    <linearGradient id="linearGradient3061" gradientTransform="matrix(1.2648 0 0 -.9239 -403.4008 -344.5036)" gradientUnits="userSpaceOnUse" x1="369.54489" x2="369.54489" y1="-491.397" y2="-426.69751">
      <stop offset="0" stop-color="#bf5e00"/>
      <stop offset=".2959" stop-color="#db6a00"/>
      <stop offset=".5562" stop-color="#803f00"/>
    </linearGradient>
    <filter id="AI_Sfocatura_1" height="1.12" width="1.192" x="-.096" y="-.06">
      <feGaussianBlur stdDeviation="1"/>
    </filter>
    <linearGradient id="XMLID_19_" gradientUnits="userSpaceOnUse" x1="51.168499" x2="84.261703" y1="-30.392599" y2="33.725601">
      <stop offset=".1538" stop-color="#b3925d"/>
      <stop offset="1" stop-color="#8f6b32"/>
    </linearGradient>
    <linearGradient id="lg1">
      <stop offset="0" stop-color="#ec7331"/>
      <stop offset="1" stop-color="#803f00"/>
    </linearGradient>
    <linearGradient id="XMLID_20_" gradientUnits="userSpaceOnUse" x1="59" x2="59" xlink:href="#lg1" y1="90" y2="110"/>
    <linearGradient id="XMLID_21_" gradientTransform="matrix(-1 0 0 1 137.5 96.5)" gradientUnits="userSpaceOnUse" x1="68.5" x2="68.5" xlink:href="#lg1" y1="-6.501" y2="13.499"/>
    <linearGradient id="linearGradient8332" gradientUnits="userSpaceOnUse" x1="68.242142" x2="68.242142" xlink:href="#linearGradient3449" y1="112" y2="107.984406"/>
    <linearGradient id="linearGradient4929" gradientUnits="userSpaceOnUse" x1="62.727921" x2="62.97398" y1="108" y2="114.65165">
      <stop offset="0" stop-color="#004d00"/>
      <stop offset=".40853259" stop-color="#008c00"/>
    </linearGradient>
    <linearGradient id="linearGradient3039" gradientUnits="userSpaceOnUse" x1="64.0005" x2="64.0005" xlink:href="#linearGradient4534" y1="116" y2="112"/>
    <linearGradient id="linearGradient4534">
      <stop offset="0"/>
      <stop offset=".72097087" stop-color="#909090"/>
      <stop offset="1" stop-color="#fff"/>
    </linearGradient>
    <linearGradient id="linearGradient3036" gradientUnits="userSpaceOnUse" x1="64.0005" x2="64.0005" xlink:href="#linearGradient4534" y1="120" y2="116"/>
    <linearGradient id="linearGradient3033" gradientTransform="matrix(.8333333 0 0 1 7.75 96.5)" gradientUnits="userSpaceOnUse" x1="31.5" x2="31.5" xlink:href="#linearGradient13674" y1="-22.167" y2="19.833"/>
    <linearGradient id="linearGradient13674" gradientUnits="userSpaceOnUse" x1="95.5" x2="95.5" y1="-22.167" y2="19.833">
      <stop offset=".0059" stop-color="#9c773f"/>
      <stop offset="1" stop-color="#8c6b3b"/>
    </linearGradient>
    <radialGradient id="radialGradient3030" cx="34.463402" cy="-3.3936" gradientTransform="matrix(.67365 0 0 .9091 10.816225 96.7105)" gradientUnits="userSpaceOnUse" r="20.350599" xlink:href="#radialGradient14444"/>
    <radialGradient id="radialGradient14444" cx="34.463402" cy="-3.3936" gradientTransform="matrix(.8982 0 0 .9091 .5883 .2105)" gradientUnits="userSpaceOnUse" r="20.350599">
      <stop offset="0" stop-color="#bfd9ff"/>
      <stop offset="1" stop-color="#fff"/>
    </radialGradient>
    <linearGradient id="linearGradient3024" gradientTransform="matrix(0 1 -1 0 30.5 45.501)" gradientUnits="userSpaceOnUse" x1="40.499001" x2="40.499001" xlink:href="#linearGradient13674" y1="-8.167" y2="15.833"/>
    <linearGradient id="linearGradient3021" gradientTransform="matrix(.8333333 0 0 1 14.416667 96.5)" gradientUnits="userSpaceOnUse" x1="95.5" x2="95.5" xlink:href="#linearGradient13674" y1="-22.167" y2="19.833"/>
    <radialGradient id="radialGradient3018" cx="106.3066" cy="-3.3936" gradientTransform="matrix(.67365 0 0 .9091 22.4185 96.7105)" gradientUnits="userSpaceOnUse" r="20.3496" xlink:href="#radialGradient14444"/>
    <linearGradient id="linearGradient3012" gradientTransform="matrix(0 1 -1 0 30.5 45.501)" gradientUnits="userSpaceOnUse" x1="40.499001" x2="40.499001" xlink:href="#linearGradient13674" y1="-72.166" y2="-48.166"/>
    <linearGradient id="lg2">
      <stop offset="0" stop-color="#db6a00"/>
      <stop offset="1" stop-color="#803f00"/>
    </linearGradient>
    <linearGradient id="XMLID_34_" gradientUnits="userSpaceOnUse" x1="59" x2="59" xlink:href="#lg2" y1="76" y2="96"/>
    <linearGradient id="XMLID_35_" gradientTransform="matrix(-1 0 0 1 137.5 96.5)" gradientUnits="userSpaceOnUse" x1="68.5" x2="68.5" xlink:href="#lg2" y1="-20.500999" y2="-.501"/>
    <linearGradient id="linearGradient4466" gradientUnits="userSpaceOnUse" x1="57.5" x2="57.5" xlink:href="#linearGradient3449" y1="-4.5" y2=".876"/>
    <linearGradient id="lg3">
      <stop offset="0" stop-color="#e3ad00"/>
      <stop offset=".7278" stop-color="#ffea00"/>
      <stop offset="1" stop-color="#ba7c00"/>
    </linearGradient>
    <linearGradient id="XMLID_37_" gradientTransform="matrix(.7071 -.7071 .7071 .7071 18.4979 39.9256)" gradientUnits="userSpaceOnUse" x1="55.578098" x2="59.578098" xlink:href="#lg3" y1="-2.4209" y2="-2.4209"/>
    <radialGradient id="XMLID_38_" cx="57.5" cy="-2.5" fy="-1" gradientUnits="userSpaceOnUse" r="2" xlink:href="#lg3"/>
    <linearGradient id="linearGradient2996" gradientUnits="userSpaceOnUse" x1="58" x2="58" y1="92.4932" y2="93.8053">
      <stop offset="0" stop-color="#fff"/>
      <stop offset="1" stop-color="#ffeb55"/>
    </linearGradient>
    <linearGradient id="linearGradient5656" gradientUnits="userSpaceOnUse" x1="63.9995" x2="63.9995" xlink:href="#linearGradient3449" y1="0" y2="57"/>
    <radialGradient id="radialGradient3951" cx="63.5" cy="-86.201904" gradientUnits="userSpaceOnUse" r="106">
      <stop offset="0" stop-color="#555753"/>
      <stop offset=".645" stop-color="#2e3436"/>
      <stop offset="1" stop-color="#babdb6"/>
    </radialGradient>
  </defs>
  <g transform="matrix(1.3333334 0 0 1.3333334 42.666662 -.168331)">
    <ellipse cx="63.912209" cy="115.70919" fill="url(#radialGradient3336)" opacity=".1" rx="63.912209" ry="12.641975" transform="matrix(1.001374 0 0 .4746094 -.000024 67.083334)"/>
    <path d="m15.5 11.5h96v12h-96z" fill="url(#XMLID_2_)" transform="translate(.5 96.5)"/>
    <rect fill="url(#linearGradient3122)" height="28" width="16" x="88" y="20"/>
    <rect fill="url(#linearGradient3119)" height="28" width="4" x="100" y="20"/>
    <rect fill="url(#linearGradient3116)" height="28" width="4" x="88" y="20"/>
    <rect fill="url(#linearGradient3113)" height="4" width="16" x="88" y="20"/>
    <path d="m16 64v48h96v-48l-48.438-48z" fill="url(#linearGradient3110)"/>
    <rect fill="url(#linearGradient3098)" height="8" width="88" x="20" y="104"/>
    <rect fill="url(#linearGradient3095)" height="8" width="88" x="20" y="96"/>
    <rect fill="url(#linearGradient3092)" height="8" width="88" x="20" y="88"/>
    <rect fill="url(#linearGradient3089)" height="8" width="88" x="20" y="80"/>
    <rect fill="url(#linearGradient3086)" height="8" width="88" x="20" y="72"/>
    <rect fill="url(#linearGradient3083)" height="8" width="88" x="20" y="64"/>
    <rect fill="url(#linearGradient3080)" height="8" width="88" x="20" y="56"/>
    <rect fill="url(#linearGradient3077)" height="8" width="79" x="24.5" y="48"/>
    <rect fill="url(#linearGradient3074)" height="8" width="63" x="32.5" y="40"/>
    <rect fill="url(#linearGradient3071)" height="8" width="46" x="41" y="32"/>
    <rect fill="url(#linearGradient3068-3)" height="8" width="30" x="49" y="24"/>
    <rect fill="url(#linearGradient3065)" height="8" width="14" x="57" y="16"/>
    <rect fill="url(#linearGradient3061)" height="40" width="24" x="52" y="72"/>
    <path d="m52 72v40h1.655c0-9.879 0-37.246 0-39h22.345v39h1v-40z" filter="url(#AI_Sfocatura_1)"/>
    <polygon fill="url(#XMLID_19_)" points="75.5 -24.5 75.5 15.5 79.5 15.5 79.5 -28.5 47.5 -28.5 47.5 15.5 51.5 15.5 51.5 -24.5" transform="translate(.5 96.5)"/>
    <path d="m54 90v20h10v-20zm9 1v17c-.855 0-6.145 0-7 0 0-.926 0-16.074 0-17z" fill="url(#XMLID_20_)" opacity=".4"/>
    <path d="m64 90v20h10v-20zm8 1v17c-.855 0-6.145 0-7 0 0-.926 0-16.074 0-17z" fill="url(#XMLID_21_)" opacity=".4"/>
    <rect fill="url(#linearGradient8332)" height="4" opacity=".5" width="34" x="47" y="108"/>
    <path d="m50 112c0-2.2096 1.791-4 4-4h20c2.209 0 4 1.7904 4 4 0 2.2096-1.791 4-4 4h-20c-2.209 0-4-1.7904-4-4z" fill="url(#linearGradient4929)"/>
    <rect fill="url(#linearGradient3039)" height="4" width="36" x="46" y="112"/>
    <rect fill="url(#linearGradient3036)" height="4" width="40" x="44" y="116"/>
    <rect fill="url(#linearGradient3033)" height="28" width="20" x="24" y="72"/>
    <rect fill="url(#radialGradient3030)" height="20" width="12" x="28" y="76"/>
    <rect fill="url(#linearGradient3024)" height="4" width="16" x="24" y="84"/>
    <rect fill="url(#linearGradient3021)" height="28" width="20" x="84" y="72"/>
    <rect fill="url(#radialGradient3018)" height="20" width="12" x="88" y="76"/>
    <rect fill="url(#linearGradient3012)" height="4" width="16" x="88" y="84"/>
    <path d="m54 76v20h10v-20zm9 1v17c-.855 0-6.145 0-7 0 0-.926 0-16.074 0-17z" fill="url(#XMLID_34_)" opacity=".4"/>
    <path d="m64 76v20h10v-20zm8 1v17c-.855 0-6.145 0-7 0 0-.926 0-16.074 0-17z" fill="url(#XMLID_35_)" opacity=".4"/>
    <ellipse cx="57.5" cy="-1.812" fill="url(#linearGradient4466)" opacity=".5" rx="2" ry="2.688" transform="translate(.5 96.5)"/>
    <circle cx="57.5" cy="-2.5" fill="url(#XMLID_37_)" r="2" transform="translate(.5 96.5)"/>
    <circle cx="57.5" cy="-2.5" fill="url(#XMLID_38_)" r="1" transform="translate(.5 96.5)"/>
    <path d="m56.688 93.806c0 .724.589 0 1.312 0s1.312.724 1.312 0c0-.725-.589-1.312-1.312-1.312s-1.312.587-1.312 1.312z" fill="url(#linearGradient2996)"/>
    <path d="m16 64 48-48 48 48v4h-96z" fill="url(#linearGradient5656)" opacity=".3"/>
    <path d="m115.5-28.5-52-52-52 52-4-4 56-56 56 56z" fill="url(#radialGradient3951)" transform="translate(.5 96.5)"/>
    <path d="m60 16-45 47 3.0625 2.0625 45.9375-45.0625 46.9375 45.0625 2.83211-2.125-46.70711-47z" filter="url(#AI_Sfocatura_1)" opacity=".6"/>
  </g>
  <g transform="translate(63.571009 124.75842)">
    <path d="m115.79764 73.234494-48.982342-67.6668103c-.705268-.98334-1.750262-1.55194-2.852216-1.55194s-2.146948.5686-2.852216 1.55194l-48.973094 68.3543103c-2.6303905 4.14312-3.0031104 10.09375 2.82531 10.09375h24.999996v31.999996c-.000654 2.38204 1.948953 4.00076 4.000004 4h40c2.05105.00076 4.000656-1.61796 4-4v-31.999996h24.000008c3.89113 0 6.55329-7.02052 3.83455-10.78125z" fill="url(#linearGradient3409)" fill-rule="evenodd"/>
    <path d="m115.79764 73.234494-48.982342-67.6668103c-.705268-.98334-1.750262-1.55194-2.852216-1.55194s-2.146948.5686-2.852216 1.55194l-48.973094 68.3543103c-2.6303905 4.14312-3.0031104 10.09375 2.82531 10.09375h24.999996v31.999996c-.000654 2.38204 1.948953 4.00076 4.000004 4h40c2.05105.00076 4.000656-1.61796 4-4v-31.999996h24.000008c3.89113 0 6.55329-7.02052 3.83455-10.78125z" fill="url(#radialGradient3534)" fill-rule="evenodd" opacity=".254682"/>
    <path d="m76.5 11.0625c-1.077088.06528-2.113901.376786-3 .9375l2.375 7.625 8.125-3.15625v-.46875c0-2.918352-3.938921-5.15334-7.5-4.9375z" fill="url(#linearGradient3301)" fill-rule="evenodd" filter="url(#filter3387)" transform="matrix(0 1 -1 0 127.96309 .015744)"/>
    <path d="m115.65112 40c-.33944 1.154561-2.5625 6.125-2.5625 6.125l6.75-.03125v-2.09375c.00076-2.05105-1.61796-4.000656-4-4z" fill="url(#linearGradient3521)" fill-rule="evenodd" filter="url(#filter3443)" opacity=".614232" transform="matrix(0 1 1 0 -.161918 .015744)"/>
    <path d="m115.79764 73.234494-48.982342-67.6668103c-.705268-.98334-1.750262-1.55194-2.852216-1.55194s-2.146948.5686-2.852216 1.55194l-48.973094 68.3543103c-2.6303905 4.14312-3.0031104 10.09375 2.82531 10.09375h24.999996v31.999996c-.000654 2.38204 1.948953 4.00076 4.000004 4h40c2.05105.00076 4.000656-1.61796 4-4v-31.999996h24.000008c3.89113 0 6.55329-7.02052 3.83455-10.78125z" fill="url(#radialGradient3455)" fill-rule="evenodd"/>
    <path d="m72.5 11.0625c-1.077088.06528-2.113901.376786-3 .9375l2.375 7.625 8.125-3.15625v-.46875c0-2.918352-3.938921-5.15334-7.5-4.9375z" fill="url(#linearGradient3393)" fill-rule="evenodd" filter="url(#filter3387)" opacity=".70412" transform="matrix(0 .8316412 1 0 -.821068 17.484444)"/>
    <path d="m115.65112 40c-.33944 1.154561-2.5625 6.125-2.5625 6.125l6.75-.03125v-2.09375c.00076-2.05105-1.61796-4.000656-4-4z" fill="url(#linearGradient3521)" fill-rule="evenodd" filter="url(#filter3443)" opacity=".749064" transform="matrix(.9995972 -.02838214 -.02838214 -.9995972 -30.523448 163.13379)"/>
    <path d="m61.556485 5.2217571c1.68914-1.4588975 3.241258-1.0679895 4.753139-.1338913l-2.242678 5.3891212z" fill="url(#linearGradient3020)" fill-rule="evenodd" filter="url(#filter3084)"/>
    <path d="m110.91704 73.56618-45.065775-64.04497c-1.385794-1.3858-2.601194-1.16397-3.662725-.10244l-43.925464 62.59697c-3.084174 4-3.2487 8 0 8h25.700007v36h40v-36h24.832227c2.7473 0 4.02507-3.15287 2.12173-6.44956z" fill="url(#radialGradient2433)" fill-rule="evenodd"/>
    <path d="m278.55044 21.46494-64.44497 52.342019c-1.3858 1.609542-1.16397 3.021178-.10244 4.254102l62.99697 51.017599c4 3.58214 8 3.77323 8 0v-29.849488h36v-46.458336h-36v-28.841604c0-3.190873-3.15287-4.674949-6.44956-2.464292z" style="fill:none;stroke-width:1.07771;stroke-linecap:round;stroke-linejoin:round;stroke:url(#linearGradient2228);filter:url(#filter3187)" transform="matrix(0 1 -.8609865 0 129.59806 -205.18729)"/>
    <path d="m63.90625 8.4375c-.609766.014938-1.187984.3437411-1.71875.875l-43.9375 62.65625c-.509518.661431-.902075 1.325371-1.25 1.96875 2.796365.045262 5.603847.0625 8.4375.0625 29.660757 0 57.370183-2.551595 80.9375-6.90625l-40.53125-57.65625c-.692897-.6935446-1.327734-1.0149377-1.9375-1z" fill="url(#linearGradient3125)"/>
    <path d="m63.705083 8.5375c-.60976.014938-1.18798.3437411-1.71875.875l-43.9375 62.65625c-.50951.661431-.90207 1.325371-1.25 1.96875.19678.0032.39687-.0029.59375 0 .19938-.317454.41062-.649877.65625-.96875l43.9375-62.65625c.53077-.5312589 1.10899-.8600623 1.71875-.875.60977-.014938 1.24461.3064554 1.9375 1l39.906247 56.78125c.20753-.03795.41812-.08677.625-.125l-40.531247-57.65625c-.69289-.6935446-1.32773-1.0149377-1.9375-1z" fill="url(#linearGradient3146)"/>
    <path d="m65.618473 9.4837605 39.058447 56.5849895c-23.567307 4.637101-51.276747 7.519528-80.937497 7.875-2.3194.0278-4.61366.03279-6.90625.03125-.01092.02007-.02042.04247-.03125.0625 2.79636.04526 5.60385.0625 8.4375.0625 29.66075 0 57.37019-2.551595 80.937497-6.90625l-40.531247-57.65625z" fill="url(#linearGradient3148)"/>
  </g>
</svg>
