<svg height="256" width="256" xmlns="http://www.w3.org/2000/svg" xmlns:xlink="http://www.w3.org/1999/xlink">
  <defs>
    <linearGradient id="linearGradient10897">
      <stop offset="0"/>
      <stop offset="1" stop-opacity="0"/>
    </linearGradient>
    <filter id="filter9643" height="1.048828" width="1.0472" x="-.0236" y="-.024414">
      <feGaussianBlur stdDeviation="1.18"/>
    </filter>
    <radialGradient id="radialGradient10781" cx="48" cy="-.2148" gradientTransform="matrix(2.6401368 -.0001085 .00009066 2.2059512 1.277981 19.420174)" gradientUnits="userSpaceOnUse" r="55.147999">
      <stop offset="0" stop-color="#72d13d"/>
      <stop offset=".3553" stop-color="#35ac1c"/>
      <stop offset=".6194" stop-color="#0f9508"/>
      <stop offset=".7574" stop-color="#008c00"/>
      <stop offset="1" stop-color="#007a00"/>
    </radialGradient>
    <radialGradient id="radialGradient10784" cx="48.125" cy="8.625" gradientTransform="matrix(2.5 0 0 2 8.000011 15.593114)" gradientUnits="userSpaceOnUse" r="49.875">
      <stop offset="0" stop-color="#d6ffc0"/>
      <stop offset=".0735" stop-color="#ccfab7"/>
      <stop offset=".61132425" stop-color="#4cb544"/>
      <stop offset=".7574" stop-color="#008c00"/>
    </radialGradient>
    <clipPath id="clipPath10906">
      <rect height="89.032265" width="127.74194" x=".129032" y="40.838711"/>
    </clipPath>
    <clipPath id="clipPath10917">
      <rect height="54.19355" width="185.80646" x="-28.903227" y="-13.354839"/>
    </clipPath>
    <linearGradient id="linearGradient11290" gradientUnits="userSpaceOnUse" x1="118.04734810738" x2="111.30363914957" y1="118.52887531522" y2="111.31661248112">
      <stop offset="0" stop-color="#a2a2a2"/>
      <stop offset="1" stop-color="#fff"/>
    </linearGradient>
    <linearGradient id="linearGradient11297" gradientUnits="userSpaceOnUse" x1="55.873226" x2="64.096496" y1="61.561832" y2="354.496716">
      <stop offset="0" stop-color="#fff"/>
      <stop offset="1" stop-color="#eee"/>
    </linearGradient>
    <filter id="filter11438" height="1.305863" width="1.298229" x="-.149115" y="-.152931">
      <feGaussianBlur stdDeviation="1.1413633"/>
    </filter>
    <linearGradient id="linearGradient10873" gradientTransform="scale(1 1.1648177)" gradientUnits="userSpaceOnUse" spreadMethod="reflect" x1="24" x2="24" y1="6.121857" y2="-4.005442">
      <stop offset="0" stop-color="#fff"/>
      <stop offset="1" stop-color="#555"/>
    </linearGradient>
    <radialGradient id="radialGradient10885" cx="24" cy="17.363621" gradientTransform="matrix(1.7134983 0 0 .6139271 -17.123959 5.555533)" gradientUnits="userSpaceOnUse" r="10.839936">
      <stop offset="0"/>
      <stop offset="1" stop-color="#060"/>
    </radialGradient>
    <linearGradient id="linearGradient10903" gradientUnits="userSpaceOnUse" x1="25.559429" x2="25.559429" xlink:href="#linearGradient10897" y1="-.202853" y2="4.002753"/>
    <linearGradient id="linearGradient10915" gradientTransform="matrix(1 0 0 1.2895928 -.202853 -18.34379)" gradientUnits="userSpaceOnUse" x1="25.559429" x2="25.559429" xlink:href="#linearGradient10897" y1="-.202853" y2="4.002753"/>
    <linearGradient id="linearGradient11851" gradientUnits="userSpaceOnUse" spreadMethod="reflect" x1="41.331223" x2="41.331223" y1="72" y2="80.06089">
      <stop offset="0" stop-color="#f00"/>
      <stop offset="1" stop-color="#8c0000"/>
    </linearGradient>
    <linearGradient id="linearGradient3409" gradientTransform="matrix(0 1 -.8610463 0 129.39927 -107.98426)" gradientUnits="userSpaceOnUse" x1="194.5" x2="104.25" y1="123.90683" y2="5.155958">
      <stop offset="0" stop-color="#081e3e"/>
      <stop offset="1" stop-color="#387de4"/>
    </linearGradient>
    <radialGradient id="radialGradient3534" cx="-16.668488" cy="86.826965" gradientTransform="matrix(.5212474 .2586607 -.4106011 .8274344 77.907487 -35.523706)" gradientUnits="userSpaceOnUse" r="60" xlink:href="#linearGradient10897"/>
    <linearGradient id="linearGradient3301" gradientUnits="userSpaceOnUse" spreadMethod="reflect" x1="77.742638" x2="82.939339" xlink:href="#linearGradient3295" y1="15.336544" y2="16.750759"/>
    <linearGradient id="linearGradient3295">
      <stop offset="0" stop-color="#63e9ff"/>
      <stop offset="1" stop-color="#fff" stop-opacity="0"/>
    </linearGradient>
    <filter id="filter3387" height="1.249912" width="1.20414" x="-.10207" y="-.124956">
      <feGaussianBlur stdDeviation=".44655691"/>
    </filter>
    <linearGradient id="linearGradient3521" gradientTransform="matrix(1 0 0 .8610463 -108.16138 -1.436187)" gradientUnits="userSpaceOnUse" spreadMethod="reflect" x1="223.32712" x2="226.659" xlink:href="#linearGradient3295" y1="53.784153" y2="57.279232"/>
    <filter id="filter3443" height="1.255079" width="1.231461" x="-.11573" y="-.12754">
      <feGaussianBlur stdDeviation=".32549158"/>
    </filter>
    <radialGradient id="radialGradient3455" cx="79.407021" cy="56.848118" gradientTransform="matrix(-.01767767 .5816285 -.8878982 -.02698625 122.02118 31.93759)" gradientUnits="userSpaceOnUse" r="60" xlink:href="#linearGradient10897"/>
    <linearGradient id="linearGradient3393" gradientUnits="userSpaceOnUse" spreadMethod="reflect" x1="74.75" x2="78.939339" xlink:href="#linearGradient3295" y1="14.275884" y2="16.750759"/>
    <linearGradient id="linearGradient3020" gradientUnits="userSpaceOnUse" spreadMethod="reflect" x1="63.933056" x2="66.207115" xlink:href="#linearGradient3022" y1="7.566768" y2="7.566768"/>
    <linearGradient id="linearGradient3022">
      <stop offset="0" stop-color="#fff"/>
      <stop offset="1" stop-color="#fff" stop-opacity="0"/>
    </linearGradient>
    <filter id="filter3084" height="1.153631" width="1.201111" x="-.100556" y="-.076815">
      <feGaussianBlur stdDeviation=".1991477"/>
    </filter>
    <radialGradient id="radialGradient2433" cx="212.73311" cy="76.109528" gradientTransform="matrix(0 1 -.98014092 0 138.45379 -107.98426)" gradientUnits="userSpaceOnUse" r="56">
      <stop offset="0" stop-color="#9fc1f2"/>
      <stop offset=".5" stop-color="#587eb5"/>
      <stop offset="1" stop-color="#0c2a58"/>
    </radialGradient>
    <filter id="filter3187" height="1.034019" width="1.035146" x="-.017573" y="-.017008">
      <feGaussianBlur stdDeviation=".56525828"/>
    </filter>
    <linearGradient id="linearGradient2228" gradientUnits="userSpaceOnUse" x1="310.63408" x2="262.27058" xlink:href="#linearGradient3295" y1="59.980953" y2="60.609806"/>
    <linearGradient id="linearGradient3125" gradientUnits="userSpaceOnUse" x1="84.481171" x2="85.487968" y1="2.010225" y2="88.883774">
      <stop offset="0" stop-color="#cdeeff"/>
      <stop offset="1" stop-color="#d2e8ed" stop-opacity="0"/>
    </linearGradient>
    <linearGradient id="linearGradient3146" gradientUnits="userSpaceOnUse" x1="84.280134" x2="85.8225" xlink:href="#linearGradient3022" y1="2.110225" y2="66.222269"/>
    <linearGradient id="linearGradient3148" gradientUnits="userSpaceOnUse" x1="103.563823" x2="86.896979" xlink:href="#linearGradient3022" y1="85.614641" y2="49.084192"/>
  </defs>
  <rect clip-path="url(#clipPath10917)" fill="#003d00" filter="url(#filter9643)" height="116" transform="matrix(2.0666666 0 0 2.0666666 -4.266659 -5.056884)" width="120" x="4" y="8"/>
  <rect clip-path="url(#clipPath10917)" fill="#003d00" filter="url(#filter9643)" height="116" transform="matrix(2.0666666 0 0 2.0666666 -4.266659 -5.056884)" width="120" x="4" y="8"/>
  <path clip-path="url(#clipPath10906)" d="m4 8h120v94.63924c-6.2115 7.72333-12.67862 15.19104-20.44373 21.36076h-99.55627z" filter="url(#filter9643)" opacity=".5" transform="matrix(2.0666666 0 0 2.0666666 -4.266658 -5.056884)"/>
  <path d="m8.0000081 15.343116h239.9999919v192.126784l-39.0618 39.87322h-200.9381919z" fill="#fff"/>
  <path d="m12.057061 19.400168h231.885919v190.098272l-34.19338 33.78766h-197.692539z" fill="url(#linearGradient11297)"/>
  <rect fill="url(#radialGradient10784)" height="63.75" stroke-width="2" width="240" x="8.000008" y="15.593117"/>
  <rect fill="url(#radialGradient10781)" height="60" stroke-width="2" width="236" x="10.000008" y="19.343117"/>
  <g transform="matrix(2 0 0 2 .000008 -.656884)">
    <rect fill="#ddd" height="8" width="8" x="24" y="64"/>
    <rect fill="#ddd" height="8" width="8" x="36" y="64"/>
    <rect fill="#ddd" height="8" width="8" x="48" y="64"/>
    <rect fill="#ddd" height="8" width="8" x="60" y="64"/>
    <rect fill="#ddd" height="8" width="8" x="72" y="64"/>
    <rect fill="#ddd" height="8" width="8" x="84" y="64"/>
    <rect fill="#dfbfff" height="8" width="8" x="96" y="64"/>
    <rect fill="#eee" height="8" width="8" x="24" y="52"/>
    <rect fill="#ddd" height="8" width="8" x="36" y="52"/>
    <rect fill="#ddd" height="8" width="8" x="48" y="52"/>
    <rect fill="#ddd" height="8" width="8" x="60" y="52"/>
    <rect fill="#ddd" height="8" width="8" x="72" y="52"/>
    <rect fill="#ddd" height="8" width="8" x="84" y="52"/>
    <rect fill="#dfbfff" height="8" width="8" x="96" y="52"/>
    <rect fill="#ddd" height="8" width="8" x="24" y="76.000008"/>
    <rect fill="#ddd" height="8" width="8" x="36" y="76.000008"/>
    <rect fill="#ddd" height="8" width="8" x="48" y="76.000008"/>
    <rect fill="#ddd" height="8" width="8" x="60" y="76.000008"/>
    <rect fill="#ddd" height="8" width="8" x="72" y="76.000008"/>
    <rect fill="#ddd" height="8" width="8" x="84" y="76.000008"/>
    <rect fill="#dfbfff" height="8" width="8" x="96" y="76.000008"/>
    <rect fill="#ddd" height="8" width="8" x="24" y="88.000008"/>
    <rect fill="#ddd" height="8" width="8" x="36" y="88.000008"/>
    <rect fill="#ddd" height="8" width="8" x="48" y="88.000008"/>
    <rect fill="#ddd" height="8" width="8" x="60" y="88.000008"/>
    <rect fill="#ddd" height="8" width="8" x="72" y="88.000008"/>
    <rect fill="#ddd" height="8" width="8" x="84" y="88.000008"/>
    <rect fill="#dfbfff" height="8" width="8" x="96" y="88.000008"/>
    <rect fill="#ddd" height="8" width="8" x="24" y="100.00001"/>
    <rect fill="#ddd" height="8" width="8" x="36" y="100.00001"/>
    <rect fill="#ddd" height="8" width="8" x="48" y="100.00001"/>
    <rect fill="#ddd" height="8" width="8" x="60" y="100.00001"/>
    <rect fill="#eee" height="8" width="8" x="72" y="100.00001"/>
    <rect fill="#eee" height="8" width="8" x="84" y="100.00001"/>
  </g>
  <g id="g10917" transform="matrix(2 0 0 2 .000008 -.656884)">
    <rect fill="url(#radialGradient10885)" height="8.494453" rx="3.327495" ry="3.042789" width="23.708399" x="12.145801" y="10.142631"/>
    <rect fill="url(#linearGradient10873)" height="18.637083" width="16" x="16"/>
    <rect fill="url(#linearGradient10903)" height="4.202853" opacity=".451977" width="15.974644" x="16.025356" y="-.202853"/>
    <rect fill="url(#linearGradient10915)" height="5.419969" opacity=".638418" transform="scale(1 -1)" width="15.974644" x="15.822505" y="-18.605389"/>
  </g>
  <use transform="translate(159.84786)" xlink:href="#g10917"/>
  <g transform="matrix(2 0 0 2 .000008 -.656884)">
    <g transform="translate(24)">
      <rect fill="url(#linearGradient11851)" height="16" width="16" x="32" y="72"/>
      <rect fill="#fff" height="8" opacity=".9" width="8" x="36" y="76"/>
    </g>
    <g transform="matrix(.33333333 0 0 .33333333 42.809663 79.24664)">
      <path d="m115.79764 73.234494-48.982342-67.6668103c-.705268-.98334-1.750262-1.55194-2.852216-1.55194s-2.146948.5686-2.852216 1.55194l-48.973094 68.3543103c-2.6303905 4.14312-3.0031104 10.09375 2.82531 10.09375h24.999996v31.999996c-.000654 2.38204 1.948953 4.00076 4.000004 4h40c2.05105.00076 4.000656-1.61796 4-4v-31.999996h24.000008c3.89113 0 6.55329-7.02052 3.83455-10.78125z" fill="url(#linearGradient3409)" fill-rule="evenodd"/>
      <path d="m115.79764 73.234494-48.982342-67.6668103c-.705268-.98334-1.750262-1.55194-2.852216-1.55194s-2.146948.5686-2.852216 1.55194l-48.973094 68.3543103c-2.6303905 4.14312-3.0031104 10.09375 2.82531 10.09375h24.999996v31.999996c-.000654 2.38204 1.948953 4.00076 4.000004 4h40c2.05105.00076 4.000656-1.61796 4-4v-31.999996h24.000008c3.89113 0 6.55329-7.02052 3.83455-10.78125z" fill="url(#radialGradient3534)" fill-rule="evenodd" opacity=".254682"/>
      <path d="m76.5 11.0625c-1.077088.06528-2.113901.376786-3 .9375l2.375 7.625 8.125-3.15625v-.46875c0-2.918352-3.938921-5.15334-7.5-4.9375z" fill="url(#linearGradient3301)" fill-rule="evenodd" filter="url(#filter3387)" transform="matrix(0 1 -1 0 127.96309 .015744)"/>
      <path d="m115.65112 40c-.33944 1.154561-2.5625 6.125-2.5625 6.125l6.75-.03125v-2.09375c.00076-2.05105-1.61796-4.000656-4-4z" fill="url(#linearGradient3521)" fill-rule="evenodd" filter="url(#filter3443)" opacity=".614232" transform="matrix(0 1 1 0 -.161918 .015744)"/>
      <path d="m115.79764 73.234494-48.982342-67.6668103c-.705268-.98334-1.750262-1.55194-2.852216-1.55194s-2.146948.5686-2.852216 1.55194l-48.973094 68.3543103c-2.6303905 4.14312-3.0031104 10.09375 2.82531 10.09375h24.999996v31.999996c-.000654 2.38204 1.948953 4.00076 4.000004 4h40c2.05105.00076 4.000656-1.61796 4-4v-31.999996h24.000008c3.89113 0 6.55329-7.02052 3.83455-10.78125z" fill="url(#radialGradient3455)" fill-rule="evenodd"/>
      <path d="m72.5 11.0625c-1.077088.06528-2.113901.376786-3 .9375l2.375 7.625 8.125-3.15625v-.46875c0-2.918352-3.938921-5.15334-7.5-4.9375z" fill="url(#linearGradient3393)" fill-rule="evenodd" filter="url(#filter3387)" opacity=".70412" transform="matrix(0 .8316412 1 0 -.821068 17.484444)"/>
      <path d="m115.65112 40c-.33944 1.154561-2.5625 6.125-2.5625 6.125l6.75-.03125v-2.09375c.00076-2.05105-1.61796-4.000656-4-4z" fill="url(#linearGradient3521)" fill-rule="evenodd" filter="url(#filter3443)" opacity=".749064" transform="matrix(.9995972 -.02838214 -.02838214 -.9995972 -30.523448 163.13379)"/>
      <path d="m61.556485 5.2217571c1.68914-1.4588975 3.241258-1.0679895 4.753139-.1338913l-2.242678 5.3891212z" fill="url(#linearGradient3020)" fill-rule="evenodd" filter="url(#filter3084)"/>
      <path d="m110.91704 73.56618-45.065775-64.04497c-1.385794-1.3858-2.601194-1.16397-3.662725-.10244l-43.925464 62.59697c-3.084174 4-3.2487 8 0 8h25.700007v36h40v-36h24.832227c2.7473 0 4.02507-3.15287 2.12173-6.44956z" fill="url(#radialGradient2433)" fill-rule="evenodd"/>
      <path d="m278.55044 21.46494-64.44497 52.342019c-1.3858 1.609542-1.16397 3.021178-.10244 4.254102l62.99697 51.017599c4 3.58214 8 3.77323 8 0v-29.849488h36v-46.458336h-36v-28.841604c0-3.190873-3.15287-4.674949-6.44956-2.464292z" style="fill:none;stroke-width:1.07771;stroke-linecap:round;stroke-linejoin:round;stroke:url(#linearGradient2228);filter:url(#filter3187)" transform="matrix(0 1 -.8609865 0 129.59806 -205.18729)"/>
      <path d="m63.90625 8.4375c-.609766.014938-1.187984.3437411-1.71875.875l-43.9375 62.65625c-.509518.661431-.902075 1.325371-1.25 1.96875 2.796365.045262 5.603847.0625 8.4375.0625 29.660757 0 57.370183-2.551595 80.9375-6.90625l-40.53125-57.65625c-.692897-.6935446-1.327734-1.0149377-1.9375-1z" fill="url(#linearGradient3125)"/>
      <path d="m63.705083 8.5375c-.60976.014938-1.18798.3437411-1.71875.875l-43.9375 62.65625c-.50951.661431-.90207 1.325371-1.25 1.96875.19678.0032.39687-.0029.59375 0 .19938-.317454.41062-.649877.65625-.96875l43.9375-62.65625c.53077-.5312589 1.10899-.8600623 1.71875-.875.60977-.014938 1.24461.3064554 1.9375 1l39.906247 56.78125c.20753-.03795.41812-.08677.625-.125l-40.531247-57.65625c-.69289-.6935446-1.32773-1.0149377-1.9375-1z" fill="url(#linearGradient3146)"/>
      <path d="m65.618473 9.4837605 39.058447 56.5849895c-23.567307 4.637101-51.276747 7.519528-80.937497 7.875-2.3194.0278-4.61366.03279-6.90625.03125-.01092.02007-.02042.04247-.03125.0625 2.79636.04526 5.60385.0625 8.4375.0625 29.66075 0 57.37019-2.551595 80.937497-6.90625l-40.531247-57.65625z" fill="url(#linearGradient3148)"/>
    </g>
  </g>
  <g transform="matrix(2 0 0 2 .000008 -.656884)">
    <path d="m104.81141 122.58003s6.05884-5.44599 9.41773-8.80487c3.35889-3.35889 8.80489-8.80917 8.80489-8.80917s-6.77442-1.09996-17.29407.92856c-1.62283 9.50538-.92855 16.68548-.92855 16.68548z" fill="#060606" filter="url(#filter11438)" opacity=".485876"/>
    <path d="m104.14336 123.98574s7.27596-6.05455 10.63485-9.41343c3.35889-3.35889 9.41344-10.63485 9.41344-10.63485s-9.81718 3.97135-16.07693 3.97135c0 6.25974-3.97136 16.07693-3.97136 16.07693z" fill="url(#linearGradient11290)"/>
  </g>
</svg>
