<svg height="256" width="256" xmlns="http://www.w3.org/2000/svg" xmlns:xlink="http://www.w3.org/1999/xlink">
  <defs>
    <linearGradient id="linearGradient3719" gradientTransform="matrix(2 0 0 1.7222223 7.98597 17.78362)" gradientUnits="userSpaceOnUse" x1="29.32505" x2="29.32505" y1="-62.343174" y2="124.38532">
      <stop offset="0" stop-color="#fff"/>
      <stop offset="1" stop-color="#555"/>
    </linearGradient>
    <linearGradient id="linearGradient3733" gradientTransform="matrix(1.6410754 0 0 2.5216478 15.266589 3.714533)" gradientUnits="userSpaceOnUse" x1="46.048" x2="46.048" xlink:href="#linearGradient3719" y1="128.01709" y2="16.6203">
      <stop offset="0" stop-color="#c7cdd7"/>
      <stop offset="1" stop-color="#fff"/>
    </linearGradient>
    <linearGradient id="lg1">
      <stop offset="0" stop-color="#fff"/>
      <stop offset="1" stop-color="#fff" stop-opacity="0"/>
    </linearGradient>
    <linearGradient id="linearGradient4001" gradientTransform="matrix(0 -1.6732 1.6732 0 15.46215 213.51272)" gradientUnits="userSpaceOnUse" x1="75.337349" x2="84.49453" y1="39.000782" y2="12.57299">
      <stop offset="0" stop-color="#0c69ed"/>
      <stop offset="1" stop-color="#89ddff"/>
    </linearGradient>
    <linearGradient id="linearGradient4126" gradientTransform="matrix(.83657447 0 0 .83657447 3.096101 7.520204)" gradientUnits="userSpaceOnUse" x1="85.273903" x2="85.478134" xlink:href="#linearGradient3719" y1="45.3125" y2="210.6875">
      <stop offset="0" stop-color="#b7b7b7"/>
      <stop offset="1" stop-color="#616161"/>
    </linearGradient>
    <linearGradient id="linearGradient4259" gradientUnits="userSpaceOnUse" x1="61.622574" x2="62.097939" xlink:href="#lg1" y1="57.512505" y2="85.106239"/>
    <filter id="filter3191" height="1.0368" width="1.0368" x="-.0184" y="-.0184">
      <feGaussianBlur stdDeviation=".2025"/>
    </filter>
    <linearGradient id="linearGradient4262" gradientUnits="userSpaceOnUse" x1="75.679373" x2="15.679373" xlink:href="#lg1" y1="261.919328" y2="141.919343"/>
    <linearGradient id="linearGradient4265" gradientUnits="userSpaceOnUse" x1="-24.320632" x2=".59649" xlink:href="#lg1" y1="41.919358" y2="261.926488"/>
    <linearGradient id="linearGradient4268" gradientUnits="userSpaceOnUse" x1=".647172" x2=".647172" y1="84.615865" y2="321.971318">
      <stop offset="0" stop-color="#cbff9c"/>
      <stop offset="1" stop-color="#65c171" stop-opacity="0"/>
    </linearGradient>
    <radialGradient id="radialGradient4271" cx="-44" cy="84" fx="-40" fy="96" gradientTransform="matrix(4.9999992 0 0 4.9999992 255.67935 -218.0806)" gradientUnits="userSpaceOnUse" r="20" xlink:href="#XMLID_4_"/>
    <radialGradient id="XMLID_4_" cx="48" cy="-.2148" gradientTransform="matrix(.9792 0 0 .9725 133.0002 20.8762)" gradientUnits="userSpaceOnUse" r="55.147999">
      <stop offset="0" stop-color="#72d13d"/>
      <stop offset=".3553" stop-color="#35ac1c"/>
      <stop offset=".6194" stop-color="#0f9508"/>
      <stop offset=".7574" stop-color="#008c00"/>
      <stop offset="1" stop-color="#007a00"/>
    </radialGradient>
    <linearGradient id="linearGradient4299" gradientUnits="userSpaceOnUse" spreadMethod="reflect" x1="73.742638" x2="80" xlink:href="#lg1" y1="15.336544" y2="19.281664"/>
    <filter id="filter3387" height="1.189411" width="1.172683" x="-.086341" y="-.094706">
      <feGaussianBlur stdDeviation=".44655691"/>
    </filter>
    <radialGradient id="radialGradient4275" cx="35.679383" cy="201.919328" fx="-44.320597" fy="281.919308" gradientUnits="userSpaceOnUse" r="119.99998">
      <stop offset="0" stop-opacity=".779026"/>
      <stop offset="1" stop-opacity="0"/>
    </radialGradient>
    <linearGradient id="linearGradient3005" gradientTransform="scale(1.039383 .9621093)" gradientUnits="userSpaceOnUse" x1="64.341988" x2="76.284439" y1="18.50366" y2="18.50366">
      <stop offset="0" stop-color="#fff"/>
      <stop offset="1" stop-color="#252525" stop-opacity="0"/>
    </linearGradient>
    <linearGradient id="linearGradient3003" gradientUnits="userSpaceOnUse" spreadMethod="reflect" x1="73.742638" x2="80" y1="15.336544" y2="19.281664">
      <stop offset="0" stop-color="#fff14d"/>
      <stop offset="1" stop-color="#f8ffa0" stop-opacity="0"/>
    </linearGradient>
    <linearGradient id="linearGradient4284" gradientTransform="matrix(4.9999992 0 0 4.9999992 255.67935 -218.0806)" gradientUnits="userSpaceOnUse" x1="-13.757333" x2="-62.424866" xlink:href="#XMLID_4_" y1="76.708466" y2="104.80668"/>
    <linearGradient id="linearGradient56" gradientUnits="userSpaceOnUse" spreadMethod="pad" x1="94.5073695914" x2="58.8472945914" y1="98.938926428" y2="34.259288928">
      <stop offset="0" stop-color="#0968ef"/>
      <stop offset="1" stop-color="#aecffc"/>
    </linearGradient>
  </defs>
  <rect fill="url(#linearGradient3733)" height="154.6978" width="207.96442" x="24.01877" y="50.792187"/>
  <path d="m23.167246 49.870844v22.326172 133.931634h31.214844v-133.931634h178.40039v-22.326172h-178.40039z" fill="#343434" opacity=".12" stroke-linecap="round" stroke-linejoin="round" stroke-width="4"/>
  <path d="m18.671152 45.427485v26.796526 111.551969 26.79653h182.948378 35.71127v-138.348499h-.0523v-26.796526h-35.65897-147.289391zm4.496588 4.444302h31.162399v22.326081h-31.162399zm35.658987 0h31.214685v22.326081h-31.214685zm35.711272 0h31.162401v22.326081h-31.162401zm35.711271 0h31.1624v22.326081h-31.1624zm35.65899 0h31.21468v22.326081h-31.21468zm35.71127 0h31.1624v22.326081h-31.1624zm-178.45179 26.822669h31.162399v22.273795h-31.162399zm35.711273 0h31.162399v22.273795h-31.162399zm35.658985 0h31.162402v22.273795h-31.162401zm35.711272 0h31.1624v22.273795h-31.1624zm35.71127 0h31.1624v22.273795h-31.1624zm35.65899 0h31.1624v22.273795h-31.1624zm-178.45179 26.796534h31.162399v22.24765h-31.162399v-18.40464zm35.711273 0h31.162399v22.24765h-31.162399zm35.658985 0h31.162402v22.24765h-31.162401zm35.711272 0h31.1624v22.24765h-31.1624zm35.71127 0h31.1624v22.24765h-31.1624zm35.65899 0h31.1624l.0523 22.24765h-31.2147zm-178.45179 26.77037h31.162399v22.24765h-31.162399l-.04248-18.37849h.04248zm35.711273 0h31.162399v22.24765h-31.214685v-18.37849h.05229zm35.658985 0h31.162402v22.24765h-31.162401zm35.711272 0h31.1624v22.24765h-31.1624zm35.71127 0h31.1624v22.24765h-31.1624zm35.65899 0h31.21468l-.0523 22.24765h-31.1624zm-178.45179 26.77038h31.162399v22.2738h-31.162399zm35.658987 0h31.214685v22.2738h-31.162399zm35.711272 0h31.162401v22.2738h-31.162401zm35.711271 0h31.1624v22.2738h-31.1624zm35.71127 0h31.1624v22.2738h-31.1624zm35.65899 0h31.1624v22.2738h-31.1624zm-178.45179 26.7704h31.214685v22.32607h-31.214685zm35.711273 0h31.162399v22.32607h-31.162399zm35.658985 0h31.214682v22.32607h-31.214681zm35.711272 0h31.21469v22.32607h-31.21469zm35.71127 0h31.1624v22.32607h-31.1624zm35.65899 0h31.21468v22.32607h-31.21468z" fill="url(#linearGradient4126)" stroke-width=".836574"/>
  <g transform="matrix(.4 0 0 .4 187.43652 118.0808)">
    <path d="m25.991883 81.919356c-16.58763 0-30.312514 13.724884-30.312514 30.312494v49.68749h-49.687489c-16.587614 0-30.312496 13.72489-30.312496 30.31249v19.375c0 16.58765 13.724882 30.31249 30.312496 30.31249h49.687489v49.68754c0 16.5876 13.724894 30.3125 30.312514 30.3125h19.37501c16.58758 0 30.31248-13.7249 30.31248-30.3125v-49.68754h49.687497c16.5876 0 30.31248-13.72484 30.31248-30.31249v-19.375c0-16.5876-13.72488-30.31249-30.31248-30.31249h-49.687497v-49.68749c0-16.58761-13.7249-30.312494-30.31248-30.312494z" fill="url(#linearGradient4284)"/>
    <path d="m69.875971 12.057888c-1.077088.06528-2.528221.219164-3 .9375l1.589684 11.138061 10.534345-.759359v-.46875c1.740958-2.57016-4.780448-10.906792-9.124029-10.847452z" fill="url(#linearGradient4299)" fill-rule="evenodd" filter="url(#filter3387)" transform="matrix(-2.4999998 0 0 2.4999998 195.67937 53.7152)"/>
    <path d="m69.875971 12.057888c-1.077088.06528-2.528221.219164-3 .9375l1.296715 8.794311 10.827314 1.584391v-.46875c1.740958-2.57016-4.780448-10.906792-9.124029-10.847452z" fill="url(#linearGradient4299)" fill-rule="evenodd" filter="url(#filter3387)" transform="matrix(2.4999998 0 0 2.4999998 -122.54248 53.7152)"/>
    <path d="m69.875971 12.057888c-1.077088.06528-2.528221.219164-3 .9375l2.175622 10.747436 9.948407-.368734v-.46875c1.740958-2.57016-4.780448-10.906792-9.124029-10.847452z" fill="url(#linearGradient3003)" fill-rule="evenodd" filter="url(#filter3387)" opacity=".681648" transform="matrix(-2.4999998 0 0 -2.4999998 195.67937 352.06326)"/>
    <path d="m69.875971 12.057888c-1.077088.06528-2.528221.219164-3 .9375l.90609 10.552124 11.217939-.173422v-.46875c1.740958-2.57016-4.780448-10.906792-9.124029-10.847452z" fill="url(#linearGradient3005)" fill-rule="evenodd" filter="url(#filter3387)" opacity=".707865" transform="matrix(2.4999998 0 0 -2.4999998 -122.54246 352.06326)"/>
    <path d="m69.875971 12.057888c-1.077088.06528-2.528221.219164-3 .9375l1.589684 11.138061 10.534345-.759359v-.46875c1.740958-2.57016-4.780448-10.906792-9.124029-10.847452z" fill="url(#linearGradient4299)" fill-rule="evenodd" filter="url(#filter3387)" opacity=".550562" transform="matrix(2.4999998 0 0 2.4999998 -42.542492 131.77542)"/>
    <path d="m25.991883 81.919356c-16.58763 0-30.312514 13.724884-30.312514 30.312494v49.68749h-49.687489c-16.587614 0-30.312505 6.26955-30.312505 22.85716.000003-4.73137.000007 16.95565.000009 26.83033 0 16.58765 13.724882 30.31249 30.312496 30.31249h49.687489v49.68754c0 16.5876 13.724894 30.3125 30.312514 30.3125h19.37501c16.58759 0 30.31248-13.7249 30.31248-30.3125v-49.68754h49.687497c16.5876 0 30.31248-13.72484 30.31248-30.31249v-19.375c0-16.5876-13.72488-30.31249-30.31248-30.31249h-49.687497v-49.68749c0-16.58761-13.72489-30.312494-30.31248-30.312494z" fill="url(#radialGradient4275)" opacity=".580524"/>
    <path d="m69.875971 12.057888c-1.077088.06528-2.528221.219164-3 .9375l1.589684 11.138061 10.534345-.759359v-.46875c1.740958-2.57016-4.780448-10.906792-9.124029-10.847452z" fill="url(#linearGradient4299)" fill-rule="evenodd" filter="url(#filter3387)" opacity=".550562" transform="matrix(-2.4999998 0 0 2.4999998 113.90119 131.77542)"/>
    <path d="m25.991883 101.91935c-5.66985 0-10.31251 4.64266-10.31251 10.3125v69.68749h-69.687493c-5.669846 0-10.312498 4.64264-10.312498 10.31249v19.375c0 5.66984 4.642652 10.3125 10.312498 10.3125h69.687493v69.68753c0 5.66986 4.64266 10.3125 10.31251 10.3125h19.37501c5.66984 0 10.31248-4.64264 10.31248-10.3125v-69.68753h69.687497c5.66985 0 10.3125-4.64266 10.3125-10.3125v-19.375c0-5.66985-4.64265-10.31249-10.3125-10.31249h-69.687497v-69.68749c0-5.66984-4.64264-10.3125-10.31248-10.3125z" fill="url(#radialGradient4271)"/>
    <path d="m25.991883 101.91935c-5.66985 0-10.31251 4.64266-10.31251 10.3125v69.68749h-69.687493c-5.669846 0-10.312498 4.64264-10.312498 10.31249v19.375c0 .549.228738 1.0361.312498 1.5625 16.288428 2.34784 33.456702 3.75 51.249992 3.75 57.507861 0 109.029201-13.14915 142.968728-33.75-1.44619-.77575-3.09673-1.24999-4.84373-1.24999h-69.687497v-69.68749c0-5.66984-4.64264-10.3125-10.31248-10.3125z" fill="url(#linearGradient4268)"/>
    <path d="m25.991883 101.91935c-5.66985 0-10.31251 4.64266-10.31251 10.3125v5c0-5.66984 6.64266-13.3125 12.31251-13.3125h19.37501c1.41744 0 2.82994.25741 4.06248.78125.5513 1.24759 2.4375 5.62289 2.4375 7.0625l1.8125 70.15624.15626-69.68749c0-2.87814-1.20531-5.4679-3.12501-7.34375-.43885-.43885-.89515-.89511-1.40625-1.25-.0384-.026-.11744.0255-.15624 0-.5104-.34565-.99336-.68635-1.5625-.9375-.0433-.0184-.11266.0178-.15626 0-.573-.24351-1.25554-.48815-1.87498-.625-.0512-.0106-.1048.01-.15626 0-.61834-.12746-1.22274-.14604-1.875-.15626h-.15624-2.34376zm-80.000003 79.99999c-5.669846 0-10.312498 4.64264-10.312498 10.31249v5c0-5.66985 4.642652-13.3125 10.312498-13.3125l69.687493-1.99999zm109.687493 0 68.798817 2.55859c-33.795957 18.1355-89.112307 31.9727-142.548819 31.97265-8.896644 0-17.697709-.44975-26.249992-1.09375 10.301965.9346 20.897062 1.5625 31.718744 1.5625 53.85031 0 102.41874-11.61855 136.250007-30 .0398-.0216.1164.0216.1562 0 2.2128-1.20615 4.32312-2.48555 6.40624-3.75-.68152-.3656-1.42646-.7239-2.18747-.9375-.05-.0132-.106.0126-.15621 0-.76188-.20225-1.52688-.2989-2.34374-.31249h-.1562-2.34376z" fill="url(#linearGradient4265)"/>
    <path d="m25.991883 101.91935c-5.66985 0-10.31251 4.64266-10.31251 10.3125v5c0-5.66984 6.64266-13.3125 12.31251-13.3125h19.37501c1.41744 0 2.82994.25741 4.06248.78125.5513 1.24759 2.4375 5.62289 2.4375 7.0625l1.8125 70.15624.15626-69.68749c0-2.87814-1.20531-5.4679-3.12501-7.34375-.43885-.43885-.89515-.89511-1.40625-1.25-.0384-.026-.11744.0255-.15624 0-.5104-.34565-.99336-.68635-1.5625-.9375-.0433-.0184-.11266.0178-.15626 0-.573-.24351-1.25554-.48815-1.87498-.625-.0512-.0106-.1048.01-.15626 0-.61834-.12746-1.22274-.14604-1.875-.15626h-.15624-2.34376zm-80.000003 79.99999c-5.669846 0-10.312498 4.64264-10.312498 10.31249v5c0-5.66985 4.642652-13.3125 10.312498-13.3125l69.687493-1.99999zm109.687493 0 69.287097 2.55859c-33.795947 18.1355-89.600587 31.9727-143.037099 31.97265-8.896644 0-17.697709-.44975-26.249992-1.09375 10.301965.9346 20.897062 1.5625 31.718744 1.5625 53.85031 0 102.41874-11.61855 136.250007-30 .0398-.0216.1164.0216.1562 0 2.2128-1.20615 4.32312-2.48555 6.40624-3.75-.68152-.3656-1.42646-.7239-2.18747-.9375-.05-.0132-.106.0126-.15621 0-.76188-.20225-1.52688-.2989-2.34374-.31249h-.1562-2.34376z" fill="url(#linearGradient4262)"/>
    <path d="m62.0625 43.999992c-1.13397 0-2.062504.928531-2.062504 2.0625v13.9375h-13.9375c-1.133969 0-2.0625.928528-2.0625 2.062498v3.875c0 1.13397.928531 2.0625 2.0625 2.0625h13.9375v13.93751c0 1.13397.928534 2.0625 2.062504 2.0625h3.875c1.13397 0 2.0625-.92853 2.0625-2.0625v-13.93751h13.9375c1.13397 0 2.0625-.92853 2.0625-2.0625v-3.875c0-1.13397-.92853-2.062498-2.0625-2.062498h-13.9375v-13.9375c0-1.133969-.92853-2.0625-2.0625-2.0625z" style="fill:none;stroke-width:.5;stroke-linecap:round;stroke-linejoin:round;stroke-dashoffset:1.0878;stroke:url(#linearGradient4259);filter:url(#filter3191)" transform="matrix(4.9999992 0 0 4.9999992 -284.32056 -118.08056)"/>
  </g>
  <path d="m54.329355 45.433344v26.703125h-35.660156v.05664l.158203 31.199221h40v-26.703126h35.710938v-31.25586zm4.498047 4.498047h31.263672v.06641 22.138672h-31.263672zm-35.660156 26.757813h31.162109.158203v22.207031h-31.320312z" fill="url(#linearGradient56)" stroke-width=".8366"/>
  <path d="m90.042246 76.695063v22.273438h-31.164063v4.523429h31.164063v11.12306h20.076174v-15.646489h-15.58008v-22.273438z" fill="#343434" stroke-linecap="round" stroke-linejoin="round" stroke-width="4"/>
  <path d="m58.827402 49.931391v22.205078h31.263672v-22.205078zm-35.660156 26.796875v22.205078h31.263672v-22.205078z" fill="url(#linearGradient4001)"/>
</svg>
