<svg height="256" width="256" xmlns="http://www.w3.org/2000/svg" xmlns:xlink="http://www.w3.org/1999/xlink">
  <defs>
    <linearGradient id="linearGradient3426">
      <stop offset="0" stop-color="#555"/>
      <stop offset="1" stop-color="#555" stop-opacity="0"/>
    </linearGradient>
    <linearGradient id="linearGradient7555">
      <stop offset="0" stop-color="#fff"/>
      <stop offset="1" stop-color="#fff" stop-opacity="0"/>
    </linearGradient>
    <linearGradient id="linearGradient4284" gradientTransform="matrix(1.2499998 0 0 1.2499998 292.33017 207.43877)" gradientUnits="userSpaceOnUse" x1="-13.757333" x2="-62.424866" xlink:href="#XMLID_4_-3" y1="76.708466" y2="104.80668"/>
    <radialGradient id="XMLID_4_-3" cx="48" cy="-.2148" gradientTransform="matrix(.9792 0 0 .9725 133.0002 20.8762)" gradientUnits="userSpaceOnUse" r="55.147999">
      <stop offset="0" stop-color="#72d13d"/>
      <stop offset=".3553" stop-color="#35ac1c"/>
      <stop offset=".6194" stop-color="#0f9508"/>
      <stop offset=".7574" stop-color="#008c00"/>
      <stop offset="1" stop-color="#007a00"/>
    </radialGradient>
    <linearGradient id="linearGradient3255" gradientUnits="userSpaceOnUse" spreadMethod="reflect" x1="73.742638" x2="80" xlink:href="#linearGradient7555" y1="15.336544" y2="19.281664"/>
    <filter id="filter3387" height="1.189411" width="1.172683" x="-.086341" y="-.094706">
      <feGaussianBlur stdDeviation=".44655691"/>
    </filter>
    <linearGradient id="linearGradient4420" gradientTransform="scale(1.039383 .9621093)" gradientUnits="userSpaceOnUse" x1="64.341988" x2="76.284439" y1="18.50366" y2="18.50366">
      <stop offset="0" stop-color="#fff"/>
      <stop offset="1" stop-color="#252525" stop-opacity="0"/>
    </linearGradient>
    <radialGradient id="radialGradient4275" cx="237.3301788" cy="312.4387532" fx="217.330182" fy="332.43875" gradientUnits="userSpaceOnUse" r="29.9999952">
      <stop offset="0" stop-opacity=".779026"/>
      <stop offset="1" stop-opacity="0"/>
    </radialGradient>
    <radialGradient id="radialGradient4271" cx="-44" cy="84" fx="-40" fy="96" gradientTransform="matrix(1.2499998 0 0 1.2499998 292.33017 207.43877)" gradientUnits="userSpaceOnUse" r="20" xlink:href="#XMLID_4_-3"/>
    <linearGradient id="linearGradient4268" gradientUnits="userSpaceOnUse" x1="228.57211266379" x2="228.57211266379" y1="283.11288664214" y2="342.45174839792">
      <stop offset="0" stop-color="#cbff9c"/>
      <stop offset="1" stop-color="#65c171" stop-opacity="0"/>
    </linearGradient>
    <linearGradient id="linearGradient4265" gradientUnits="userSpaceOnUse" x1="222.33016241047" x2="228.55944266379" xlink:href="#linearGradient7555" y1="272.4387596" y2="327.44054329971"/>
    <linearGradient id="linearGradient4262" gradientUnits="userSpaceOnUse" x1="247.33015966047" x2="232.33016081047" xlink:href="#linearGradient7555" y1="327.4387508" y2="297.4387556"/>
    <linearGradient id="linearGradient4259" gradientUnits="userSpaceOnUse" x1="61.622575" x2="62.09794" xlink:href="#linearGradient7555" y1="57.512504" y2="85.106242"/>
    <filter id="filter3191" height="1.0368" width="1.0368" x="-.0184" y="-.0184">
      <feGaussianBlur stdDeviation=".2025"/>
    </filter>
    <clipPath id="clipPath16814-3">
      <path d="m12 28v80h104v-80z"/>
    </clipPath>
    <radialGradient id="radialGradient21667-7" cx="96.675285" cy="93.389153" gradientTransform="matrix(1.9592408 0 0 .7057335 -92.63189 3.684153)" gradientUnits="userSpaceOnUse" r="63.998783">
      <stop offset="0" stop-color="#ff7e00"/>
      <stop offset="1" stop-color="#ff007b"/>
    </radialGradient>
    <filter id="filter3336-2" height="1.546667" width="1.546667" x="-.273333" y="-.273333">
      <feGaussianBlur stdDeviation="3.5813918"/>
    </filter>
    <radialGradient id="radialGradient21675-1" cx="50.269897" cy="47.169552" gradientUnits="userSpaceOnUse" r="15.723184">
      <stop offset="0" stop-color="#fff8de"/>
      <stop offset="1" stop-color="#ff0"/>
    </radialGradient>
    <filter id="filter3410-0" height="1.48" width="1.48" x="-.24" y="-.24">
      <feGaussianBlur stdDeviation="3.1446367"/>
    </filter>
    <filter id="filter7623-3" height="1.604646" width="1.604646" x="-.302323" y="-.302323">
      <feGaussianBlur stdDeviation="3.9612318"/>
    </filter>
    <filter id="filter7585-0" height="1.983171" width="1.071516" x="-.035758" y="-.491585">
      <feGaussianBlur stdDeviation="3.8156296"/>
    </filter>
    <filter id="filter1902" color-interpolation-filters="sRGB" height="2.223251" width="1.04996" x="-.02498" y="-.611626">
      <feGaussianBlur stdDeviation=".46229847"/>
    </filter>
    <linearGradient id="linearGradient2447-2" gradientTransform="matrix(.50664076 0 0 .35125016 -58.339395 -48.250919)" gradientUnits="userSpaceOnUse" x1="73.10424" x2="54.405266" y1="112.78188" y2="10.968399">
      <stop offset="0" stop-color="#fff"/>
      <stop offset="1" stop-color="#e0e0e0"/>
    </linearGradient>
    <linearGradient id="linearGradient1643" gradientUnits="userSpaceOnUse" x1="-39.21118081472" x2="-30.22843034062" y1="-43.33457525442" y2="-7.05094182905">
      <stop offset="0" stop-color="#999"/>
      <stop offset="1" stop-color="#c1c1c1"/>
    </linearGradient>
    <linearGradient id="linearGradient2471" gradientTransform="matrix(.4103611 0 0 .4330773 11.197909 27.054412)" gradientUnits="userSpaceOnUse" x1="190.0625" x2="193" y1="187.73239" y2="122.8568">
      <stop offset="0" stop-color="#323232"/>
      <stop offset="1" stop-color="#101010"/>
    </linearGradient>
    <linearGradient id="linearGradient2473" gradientTransform="matrix(.2763587 0 0 .09333054 27.98082 75.411416)" gradientUnits="userSpaceOnUse" x1="82.802177" x2="83.742836" xlink:href="#linearGradient3426" y1="154.27817" y2="167.16171"/>
    <linearGradient id="linearGradient2475" gradientTransform="matrix(.2763587 0 0 .09333054 26.78551 85.855903)" gradientUnits="userSpaceOnUse" x1="82.802177" x2="83.742836" xlink:href="#linearGradient3426" y1="154.27817" y2="167.16171"/>
    <linearGradient id="linearGradient2477" gradientTransform="matrix(.2763587 0 0 .09333054 36.60848 73.09434)" gradientUnits="userSpaceOnUse" x1="82.802177" x2="83.742836" xlink:href="#linearGradient3426" y1="154.27817" y2="167.16171"/>
    <linearGradient id="linearGradient2479" gradientTransform="matrix(.2763587 0 0 .09333054 -1.99325 88.072721)" gradientUnits="userSpaceOnUse" x1="82.802177" x2="83.742836" xlink:href="#linearGradient3426" y1="154.27817" y2="167.16171"/>
    <linearGradient id="linearGradient2481" gradientTransform="matrix(.2763587 0 0 .09333054 47.83175 86.843073)" gradientUnits="userSpaceOnUse" x1="82.802177" x2="83.742836" xlink:href="#linearGradient3426" y1="154.27817" y2="167.16171"/>
    <linearGradient id="linearGradient2483" gradientTransform="matrix(.2763587 0 0 .09333054 57.65472 74.081509)" gradientUnits="userSpaceOnUse" x1="82.802177" x2="83.742836" xlink:href="#linearGradient3426" y1="154.27817" y2="167.16171"/>
    <linearGradient id="linearGradient2485" gradientTransform="matrix(.2763587 0 0 .09333054 48.99633 73.751418)" gradientUnits="userSpaceOnUse" x1="82.802177" x2="83.742836" xlink:href="#linearGradient3426" y1="154.27817" y2="167.16171"/>
    <linearGradient id="linearGradient2487" gradientTransform="matrix(.2763587 0 0 .09333054 37.77434 80.971102)" gradientUnits="userSpaceOnUse" x1="82.802177" x2="83.742836" xlink:href="#linearGradient3426" y1="154.27817" y2="167.16171"/>
    <linearGradient id="linearGradient2489" gradientTransform="matrix(.2763587 0 0 .09333054 36.15406 73.094106)" gradientUnits="userSpaceOnUse" x1="82.802177" x2="83.742836" xlink:href="#linearGradient3426" y1="154.27817" y2="167.16171"/>
    <linearGradient id="linearGradient2491" gradientTransform="matrix(.2763587 0 0 .09333054 75.64961 74.00068)" gradientUnits="userSpaceOnUse" x1="82.802177" x2="83.742836" xlink:href="#linearGradient3426" y1="154.27817" y2="167.16171"/>
    <linearGradient id="linearGradient2493" gradientTransform="matrix(.2763587 0 0 .09333054 70.848586 84.534846)" gradientUnits="userSpaceOnUse" x1="82.802177" x2="83.742836" xlink:href="#linearGradient3426" y1="154.27817" y2="167.16171"/>
    <linearGradient id="linearGradient2495" gradientTransform="matrix(.2763587 0 0 .09333054 65.91592 80.588816)" gradientUnits="userSpaceOnUse" x1="82.802177" x2="83.742836" xlink:href="#linearGradient3426" y1="154.27817" y2="167.16171"/>
    <linearGradient id="linearGradient2497" gradientTransform="matrix(.2763587 0 0 .09333054 85.24867 75.726787)" gradientUnits="userSpaceOnUse" x1="82.802177" x2="83.742836" xlink:href="#linearGradient3426" y1="154.27817" y2="167.16171"/>
    <linearGradient id="linearGradient2499" gradientTransform="matrix(.2763587 0 0 .09333054 76.59028 82.063366)" gradientUnits="userSpaceOnUse" x1="82.802177" x2="83.742836" xlink:href="#linearGradient3426" y1="154.27817" y2="167.16171"/>
    <linearGradient id="linearGradient2501" gradientTransform="matrix(.2763587 0 0 .09333054 72.5902 67.336322)" gradientUnits="userSpaceOnUse" x1="82.802177" x2="83.742836" xlink:href="#linearGradient3426" y1="154.27817" y2="167.16171"/>
    <linearGradient id="linearGradient2503" gradientTransform="matrix(.2763587 0 0 .09333054 60.376438 66.281208)" gradientUnits="userSpaceOnUse" x1="82.802177" x2="83.742836" xlink:href="#linearGradient3426" y1="154.27817" y2="167.16171"/>
    <linearGradient id="linearGradient2505" gradientTransform="matrix(.2763587 0 0 .09333054 48.051227 68.246694)" gradientUnits="userSpaceOnUse" x1="82.802177" x2="83.742836" xlink:href="#linearGradient3426" y1="154.27817" y2="167.16171"/>
    <linearGradient id="linearGradient2507" gradientTransform="matrix(.2763587 0 0 .09333054 41.169166 64.717098)" gradientUnits="userSpaceOnUse" x1="82.802177" x2="83.742836" xlink:href="#linearGradient3426" y1="154.27817" y2="167.16171"/>
    <linearGradient id="linearGradient2509" gradientTransform="matrix(.2763587 0 0 .09333054 24.510621 64.460362)" gradientUnits="userSpaceOnUse" x1="82.802177" x2="83.742836" xlink:href="#linearGradient3426" y1="154.27817" y2="167.16171"/>
    <linearGradient id="linearGradient2511" gradientTransform="matrix(.2763587 0 0 .09333054 9.575134 64.53888)" gradientUnits="userSpaceOnUse" x1="82.802177" x2="83.742836" xlink:href="#linearGradient3426" y1="154.27817" y2="167.16171"/>
    <linearGradient id="linearGradient2513" gradientTransform="matrix(.2763587 0 0 .09333054 .916743 64.208793)" gradientUnits="userSpaceOnUse" x1="82.802177" x2="83.742836" xlink:href="#linearGradient3426" y1="154.27817" y2="167.16171"/>
    <linearGradient id="linearGradient2515" gradientTransform="matrix(.2763587 0 0 .09333054 13.575211 63.071818)" gradientUnits="userSpaceOnUse" x1="82.802177" x2="83.742836" xlink:href="#linearGradient3426" y1="154.27817" y2="167.16171"/>
    <linearGradient id="linearGradient2517" gradientTransform="matrix(.2763587 0 0 .09333054 -.916668 73.926191)" gradientUnits="userSpaceOnUse" x1="82.802177" x2="83.742836" xlink:href="#linearGradient3426" y1="154.27817" y2="167.16171"/>
    <linearGradient id="linearGradient2519" gradientTransform="matrix(.2763587 0 0 .09333054 33.739332 68.818796)" gradientUnits="userSpaceOnUse" x1="82.802177" x2="83.742836" xlink:href="#linearGradient3426" y1="154.27817" y2="167.16171"/>
    <linearGradient id="linearGradient2521" gradientTransform="matrix(.2763587 0 0 .09333054 51.080944 81.822041)" gradientUnits="userSpaceOnUse" x1="82.802177" x2="83.742836" xlink:href="#linearGradient3426" y1="154.27817" y2="167.16171"/>
    <linearGradient id="linearGradient2523" gradientTransform="matrix(.2763587 0 0 .09333054 37.739409 85.12951)" gradientUnits="userSpaceOnUse" x1="82.802177" x2="83.742836" xlink:href="#linearGradient3426" y1="154.27817" y2="167.16171"/>
    <linearGradient id="linearGradient2525" gradientTransform="matrix(.2763587 0 0 .09333054 60.08087 69.317219)" gradientUnits="userSpaceOnUse" x1="82.802177" x2="83.742836" xlink:href="#linearGradient3426" y1="154.27817" y2="167.16171"/>
    <linearGradient id="linearGradient2527" gradientTransform="matrix(.2763587 0 0 .09333054 86.5355 64.058986)" gradientUnits="userSpaceOnUse" x1="82.802177" x2="83.742836" xlink:href="#linearGradient3426" y1="154.27817" y2="167.16171"/>
    <linearGradient id="linearGradient2529" gradientTransform="matrix(.2763587 0 0 .09333054 69.876953 63.802249)" gradientUnits="userSpaceOnUse" x1="82.802177" x2="83.742836" xlink:href="#linearGradient3426" y1="154.27817" y2="167.16171"/>
    <linearGradient id="linearGradient2531" gradientTransform="matrix(.2763587 0 0 .09333054 79.230835 70.797971)" gradientUnits="userSpaceOnUse" x1="82.802177" x2="83.742836" xlink:href="#linearGradient3426" y1="154.27817" y2="167.16171"/>
    <linearGradient id="linearGradient2533" gradientTransform="matrix(.2763587 0 0 .09333054 11.32227 75.154679)" gradientUnits="userSpaceOnUse" x1="82.802177" x2="83.742836" xlink:href="#linearGradient3426" y1="154.27817" y2="167.16171"/>
    <linearGradient id="linearGradient2537" gradientTransform="matrix(.2763587 0 0 .09333054 52.575217 78.627372)" gradientUnits="userSpaceOnUse" x1="82.802177" x2="83.742836" xlink:href="#linearGradient3426" y1="154.27817" y2="167.16171"/>
    <linearGradient id="linearGradient2539" gradientTransform="matrix(.2763587 0 0 .09333054 1.580862 78.206107)" gradientUnits="userSpaceOnUse" x1="82.802177" x2="83.742836" xlink:href="#linearGradient3426" y1="154.27817" y2="167.16171"/>
    <linearGradient id="linearGradient2541" gradientTransform="matrix(.4103611 0 0 .4330773 11.197909 27.054412)" gradientUnits="userSpaceOnUse" x1="252.7813" x2="3.973908" y1="158.64418" y2="145.26782">
      <stop offset="0" stop-color="#181818" stop-opacity=".000065"/>
      <stop offset=".74053472" stop-color="#d6c220" stop-opacity=".637661"/>
      <stop offset="1" stop-color="#1f1f1f" stop-opacity=".000041"/>
    </linearGradient>
    <linearGradient id="linearGradient2543" gradientTransform="matrix(.4103611 0 0 .2638169 11.197909 46.514122)" gradientUnits="userSpaceOnUse" x1="121.88446" x2="121.88446" y1="114.96759" y2="124.25063">
      <stop offset="0" stop-color="#ff7e00"/>
      <stop offset="1" stop-color="#ff7e00" stop-opacity="0"/>
    </linearGradient>
    <linearGradient id="linearGradient2545" gradientTransform="matrix(.4103611 0 0 .3192147 11.197909 29.066876)" gradientUnits="userSpaceOnUse" x1="150.04311" x2="150.04311" xlink:href="#linearGradient7555" y1=".059548" y2="51.622837"/>
    <linearGradient id="linearGradient2547" gradientTransform="matrix(.6298032 0 0 .6007775 -44.212917 -48.145246)" gradientUnits="userSpaceOnUse" x1="126.03124" x2="126.03124" y1="40.936672" y2="-5.271013">
      <stop offset="0" stop-color="#3383e6" stop-opacity="0"/>
      <stop offset="1" stop-color="#23fff0"/>
    </linearGradient>
    <linearGradient id="linearGradient2549" gradientTransform="matrix(1.2462121 0 0 1.2230467 -46.531215 -73.217086)" gradientUnits="userSpaceOnUse" x1="48" x2="74.222046" xlink:href="#linearGradient7555" y1="38.75" y2="70.519157"/>
    <linearGradient id="linearGradient2551" gradientTransform="matrix(1.2727273 0 0 -1.2057416 -354.92894 -63.963001)" gradientUnits="userSpaceOnUse" x1="314.05814" x2="314.05814" y1="11.862287" y2="-113.61256">
      <stop offset="0"/>
      <stop offset="1" stop-opacity="0"/>
    </linearGradient>
  </defs>
  <g transform="matrix(5 0 0 5 8.000006 -.326695)">
    <rect fill="#000305" filter="url(#filter1902)" height="1.814045" opacity=".6" stroke-linejoin="round" stroke-width="14" transform="matrix(1.0097917 0 0 1.0097917 -.235002 1.187261)" width="44.415802" x="1.7921" y="41.244648"/>
    <rect fill="url(#linearGradient2447-2)" height="35.922016" stroke="url(#linearGradient1643)" stroke-linecap="round" stroke-opacity=".96863" transform="matrix(-.9999985 .0017332 -.00096053 -.99999954 0 0)" width="44.966068" x="-46.458378" y="-43.667912"/>
  </g>
  <g transform="matrix(2.0696194 0 0 2.127015 61.815785 117.86634)">
    <g clip-path="url(#clipPath16814-3)" transform="matrix(.9230769 0 0 .9 -27.096775 -56.435732)">
      <rect fill="url(#radialGradient21667-7)" height="40.601517" width="105.02679" x="11.223557" y="27.0802"/>
      <rect fill="url(#linearGradient2471)" height="40.601517" width="105.02679" x="11.223557" y="67.755539"/>
      <circle cx="50.269897" cy="47.169552" fill="#ff7e00" filter="url(#filter3336-2)" opacity=".627778" r="15.723184" transform="matrix(2.7604692 0 0 .9533723 -78.809706 15.60179)"/>
      <circle cx="50.269897" cy="47.169552" fill="url(#radialGradient21675-1)" filter="url(#filter3410-0)" r="15.723184" transform="matrix(.709197 0 0 .7484557 5.809368 21.718126)"/>
      <circle cx="50.269897" cy="47.169552" fill="#ff7e00" filter="url(#filter7623-3)" opacity=".627778" r="15.723184" transform="matrix(3.060609 0 0 .2647755 -90.409629 32.491805)"/>
      <path d="m11.179582 64.099911 8.432228-2.154496 4.260493-.09367 2.574046-1.873476 4.970576 2.248171 4.793056-1.686128 2.574046 2.810212 11.006277 3.372256 1.775205-.936737 11.538832 1.217758 1.331404-.655716 1.331409 1.030411 26.273041-6.088794 2.041485.562043 11.1838-.281022 2.84032 1.592454 5.41438-1.49878 2.75157.281021v12.833303h-105.092168z" fill="#3b2611"/>
      <path d="m11.715254 72.275512 6.984155-3.290561 7.889509 2.60503 19.529768-.137108 5.173448-4.113201 2.716061 3.016347 19.012419-6.169799 9.95889 1.782383 4.268096-1.919492 2.328052 2.193706 11.510918 1.371068 4.26809 1.371066 10.34691.137108v6.444013h-104.503661z" fill="#131617"/>
      <path d="m11.512042 74.085325 4.869068-3.619621 2.356001 1.316226 6.125601.987169 5.968535-2.138865 16.177871 1.151696 12.565334 2.467921h14.450135l5.968534-1.645282 3.769602.16453 6.439735 1.645278 15.706672-1.809808 6.5968-2.303392 2.04187-1.645282 1.41359.987169v7.239234h-104.763481z"/>
      <path d="m42.55749 91.012714c3.65907-.476381 7.85922-.724343 10.499-1.631008 3.6819.898016 8.20709 1.084057 12.38881 1.560092-4.1996-.177285-8.3992-.91838-12.59879-.531854-3.2097-.09622-6.82754.358887-10.28902.60277z" fill="url(#linearGradient2473)" opacity=".533333"/>
      <path d="m41.36219 101.4572c3.65907-.47637 7.85921-.72434 10.49899-1.631007 3.6819.898017 8.2071 1.084057 12.38881 1.560097-4.19959-.17728-8.39919-.91838-12.59879-.53185-3.2097-.0962-6.82754.35888-10.28901.60276z" fill="url(#linearGradient2475)" opacity=".533333"/>
      <path d="m51.18516 88.695638c3.65907-.476376 7.85921-.724343 10.49899-1.631008 3.68191.89802 8.2071 1.084057 12.38881 1.560092-4.19959-.177281-8.39919-.918375-12.59879-.531845-3.20969-.09623-6.82754.358882-10.28901.602761z" fill="url(#linearGradient2477)" opacity=".533333"/>
      <path d="m12.583429 103.67401c3.65907-.47637 7.85922-.72434 10.49899-1.631 3.68191.89802 8.2071 1.08406 12.38882 1.56009-4.1996-.17728-8.3992-.91838-12.5988-.53185-3.20969-.0962-6.82754.35888-10.28901.60276z" fill="url(#linearGradient2479)" opacity=".533333"/>
      <path d="m62.40842 102.44437c3.65907-.47638 7.85922-.72434 10.499-1.63101 3.6819.89802 8.2071 1.08406 12.38881 1.56009-4.1996-.17728-8.39919-.91837-12.59879-.53184-3.2097-.0962-6.82755.35888-10.28902.60276z" fill="url(#linearGradient2481)" opacity=".533333"/>
      <path d="m72.23139 89.682807c3.65908-.476376 7.85922-.724343 10.499-1.631008 3.68191.898021 8.2071 1.084058 12.38881 1.560092-4.1996-.17728-8.39919-.918375-12.59879-.531845-3.2097-.09623-6.82754.358883-10.28902.602761z" fill="url(#linearGradient2483)" opacity=".533333"/>
      <path d="m63.573 89.352716c3.65907-.476377 7.85922-.724344 10.499-1.631008 3.6819.89802 8.20709 1.084062 12.38881 1.560096-4.1996-.177285-8.39919-.91838-12.59879-.531849-3.2097-.09623-6.82755.358882-10.28902.602761z" fill="url(#linearGradient2485)" opacity=".533333"/>
      <path d="m52.35102 96.5724c3.65907-.476376 7.85922-.724344 10.49899-1.631008 3.68191.89802 8.20711 1.084057 12.38882 1.560092-4.1996-.177281-8.3992-.918376-12.59879-.53185-3.2097-.09623-6.82755.358887-10.28902.602766z" fill="url(#linearGradient2487)" opacity=".533333"/>
      <path d="m50.73074 88.6954c3.65906-.476377 7.85921-.724339 10.49899-1.631004 3.68191.89802 8.2071 1.084057 12.38882 1.560092-4.1996-.17728-8.3992-.91838-12.5988-.53185-3.2097-.09623-6.82754.358883-10.28901.602762z" fill="url(#linearGradient2489)" opacity=".533333"/>
      <path d="m90.22629 89.601973c3.65908-.476376 7.85922-.724339 10.499-1.631008 3.6819.898025 8.2071 1.084062 12.38881 1.560096-4.19959-.17728-8.39919-.918379-12.59879-.531849-3.2097-.09623-6.82754.358883-10.28902.602761z" fill="url(#linearGradient2491)" opacity=".533333"/>
      <path d="m85.425266 100.13614c3.65907-.476377 7.85921-.72434 10.49899-1.631009 3.681907.898025 8.207094 1.084062 12.388814 1.560099-4.1996-.177283-8.399197-.918382-12.598794-.531852-3.2097-.09623-6.82754.358883-10.28901.602762z" fill="url(#linearGradient2493)" opacity=".533333"/>
      <path d="m80.4926 96.190114c3.65906-.476376 7.85921-.724344 10.49899-1.631008 3.68191.89802 8.2071 1.084057 12.38881 1.560092-4.19959-.177281-8.39919-.918376-12.59879-.53185-3.2097-.09623-6.82755.358887-10.28901.602766z" fill="url(#linearGradient2495)" opacity=".533333"/>
      <path d="m99.82535 91.328085c3.65908-.476376 7.85922-.724343 10.499-1.631008 3.6819.898021 8.20709 1.084058 12.38881 1.560092-4.1996-.17728-8.39919-.918375-12.59879-.531845-3.2097-.09623-6.82754.358883-10.28902.602761z" fill="url(#linearGradient2497)" opacity=".533333"/>
      <path d="m91.16695 97.66466c3.65908-.476377 7.85923-.724344 10.49901-1.631008 3.6819.89802 8.20709 1.084062 12.38881 1.560096-4.1996-.177285-8.3992-.91838-12.5988-.531849-3.2097-.09624-6.82754.358882-10.28902.602761z" fill="url(#linearGradient2499)" opacity=".533333"/>
      <path d="m87.16688 82.937611c3.65907-.476376 7.85922-.724343 10.499-1.631008 3.6819.898021 8.2071 1.084058 12.38881 1.560096-4.1996-.177284-8.39919-.918379-12.59879-.531849-3.2097-.09623-6.82755.358883-10.28902.602761z" fill="url(#linearGradient2501)" opacity=".533333"/>
      <path d="m74.953121 81.882503c3.659067-.47638 7.859215-.724343 10.498994-1.631008 3.681904.898016 8.207095 1.084058 12.388808 1.560092-4.199597-.177285-8.399191-.918379-12.59879-.531854-3.209696-.09623-6.827538.358887-10.289012.60277z" fill="url(#linearGradient2503)" opacity=".533333"/>
      <path d="m62.627903 83.847984c3.659067-.476376 7.85922-.724343 10.498999-1.631008 3.681903.89802 8.207099 1.084057 12.38881 1.560096-4.199595-.177285-8.399193-.918379-12.598792-.531849-3.209701-.09623-6.827543.358882-10.289017.602761z" fill="url(#linearGradient2505)" opacity=".533333"/>
      <path d="m55.745848 80.318394c3.659067-.47638 7.859216-.724343 10.498995-1.631008 3.681903.898016 8.207094 1.084058 12.388809 1.560092-4.199598-.177285-8.399193-.91838-12.598791-.531854-3.209697-.09623-6.827539.358887-10.289013.60277z" fill="url(#linearGradient2507)" opacity=".533333"/>
      <path d="m39.087298 80.061653c3.659066-.476376 7.859219-.724343 10.498998-1.631008 3.681903.89802 8.207098 1.084057 12.388809 1.560096-4.199594-.177285-8.399193-.918379-12.598791-.531849-3.209701-.09623-6.827542.358882-10.289016.602761z" fill="url(#linearGradient2509)" opacity=".533333"/>
      <path d="m24.151813 80.140179c3.659074-.476377 7.859218-.724344 10.498997-1.631008 3.681904.89802 8.207095 1.084057 12.38881 1.560091-4.199598-.17728-8.399193-.918375-12.598791-.531845-3.209697-.09623-6.827539.358883-10.289016.602762z" fill="url(#linearGradient2511)" opacity=".533333"/>
      <path d="m15.493415 79.810087c3.659075-.476376 7.859224-.724343 10.499002-1.631008 3.681903.89802 8.207095 1.084062 12.38881 1.560096-4.199595-.177285-8.399193-.918379-12.598792-.531849-3.2097-.09623-6.827546.358882-10.28902.602761z" fill="url(#linearGradient2513)" opacity=".533333"/>
      <path d="m28.151893 78.673112c3.659067-.476381 7.859215-.724344 10.498994-1.631008 3.681904.898016 8.207095 1.084057 12.38881 1.560092-4.199598-.177285-8.399193-.91838-12.598792-.531854-3.209696-.09622-6.827538.358887-10.289012.60277z" fill="url(#linearGradient2515)" opacity=".533333"/>
      <path d="m13.66001 89.527481c3.659066-.476377 7.859219-.724344 10.498998-1.631008 3.681902.89802 8.207098 1.084057 12.388809 1.560096-4.199595-.177285-8.399193-.91838-12.598791-.53185-3.209701-.09623-6.827543.358883-10.289016.602762z" fill="url(#linearGradient2517)" opacity=".533333"/>
      <path d="m48.316011 84.420097c3.659074-.476377 7.859219-.724344 10.498998-1.631009 3.681903.898021 8.207094 1.084058 12.38881 1.560092-4.199599-.17728-8.399194-.918375-12.598792-.531845-3.209697-.09623-6.827539.358883-10.289016.602762z" fill="url(#linearGradient2519)" opacity=".533333"/>
      <path d="m65.657617 97.423337c3.659075-.476376 7.859223-.724343 10.499002-1.631008 3.681904.89802 8.207095 1.084062 12.38881 1.560096-4.199594-.177285-8.399193-.918379-12.598792-.531849-3.2097-.09623-6.827546.358882-10.28902.602761z" fill="url(#linearGradient2521)" opacity=".533333"/>
      <path d="m52.316091 100.73081c3.659067-.47638 7.859215-.72435 10.498995-1.631012 3.681903.898016 8.207094 1.084062 12.388809 1.560092-4.199598-.17728-8.399193-.91838-12.598791-.53185-3.209697-.0962-6.827539.35888-10.289013.60277z" fill="url(#linearGradient2523)" opacity=".533333"/>
      <path d="m74.657547 84.918511c3.659066-.476377 7.859219-.724344 10.498998-1.631008 3.681902.89802 8.207098 1.084057 12.388809 1.560096-4.199594-.177285-8.399193-.91838-12.598791-.53185-3.209701-.09623-6.827543.358883-10.289016.602762z" fill="url(#linearGradient2525)" opacity=".533333"/>
      <path d="m101.11218 79.660281c3.65907-.47638 7.85922-.724343 10.499-1.631008 3.6819.898016 8.20709 1.084058 12.38881 1.560092-4.1996-.177285-8.3992-.918379-12.59879-.531854-3.2097-.09623-6.82754.358887-10.28902.60277z" fill="url(#linearGradient2527)" opacity=".533333"/>
      <path d="m84.453632 79.40354c3.659066-.476376 7.859219-.724343 10.498998-1.631008 3.681903.89802 8.2071 1.084057 12.38881 1.560096-4.19959-.177285-8.399193-.918379-12.598792-.531849-3.209701-.09623-6.827543.358882-10.289016.602761z" fill="url(#linearGradient2529)" opacity=".533333"/>
      <path d="m93.807513 86.399263c3.659067-.476377 7.859217-.724344 10.498997-1.631009 3.68191.898021 8.2071 1.084058 12.38881 1.560096-4.19959-.177284-8.39919-.918379-12.59879-.531849-3.2097-.09623-6.827543.358883-10.289017.602762z" fill="url(#linearGradient2531)" opacity=".533333"/>
      <path d="m25.89895 90.755973c3.65907-.476376 7.85921-.724344 10.49899-1.631008 3.6819.89802 8.2071 1.084057 12.38881 1.560096-4.19959-.177285-8.39919-.91838-12.59879-.531849-3.2097-.09623-6.82754.358882-10.28901.602761z" fill="url(#linearGradient2533)" opacity=".533333"/>
      <path d="m24.151813 80.140179c3.659074-.476377 7.859218-.724344 10.498997-1.631008 3.681904.89802 8.207095 1.084057 12.38881 1.560091-4.199598-.17728-8.399193-.918375-12.598791-.531845-3.209697-.09623-6.827539.358883-10.289016.602762z" fill="url(#linearGradient2511)" opacity=".533333"/>
      <path d="m67.151899 94.228666c3.659067-.476381 7.859215-.724344 10.498994-1.631008 3.681904.898016 8.207098 1.084057 12.388812 1.560092-4.199604-.177285-8.399195-.91838-12.598794-.531854-3.209696-.09622-6.827538.358887-10.289012.60277z" fill="url(#linearGradient2537)" opacity=".533333"/>
      <path d="m16.157538 93.807399c3.659066-.476377 7.859219-.724344 10.498998-1.631008 3.681902.89802 8.207098 1.084057 12.388809 1.560096-4.199594-.177285-8.399193-.91838-12.598791-.53185-3.209701-.09623-6.827543.358883-10.289016.602762z" fill="url(#linearGradient2539)" opacity=".533333"/>
      <path d="m25.89895 90.755973c3.65907-.476376 7.85921-.724344 10.49899-1.631008 3.6819.89802 8.2071 1.084057 12.38881 1.560096-4.19959-.177285-8.39919-.91838-12.59879-.531849-3.2097-.09623-6.82754.358882-10.28901.602761z" fill="#ffeb55" opacity=".294444"/>
      <path d="m24.151813 80.140179c3.659074-.476377 7.859218-.724344 10.498997-1.631008 3.681904.89802 8.207095 1.084057 12.38881 1.560091-4.199598-.17728-8.399193-.918375-12.598791-.531845-3.209697-.09623-6.827539.358883-10.289016.602762z" fill="#ffeb55" opacity=".294444"/>
      <path d="m25.985226 85.339778c3.659067-.476381 7.859215-.724344 10.498994-1.631008 3.681904.898016 8.207095 1.084057 12.38881 1.560092-4.199598-.177285-8.399193-.91838-12.598792-.531854-3.209696-.09622-6.827538.358887-10.289012.60277z" fill="#ffeb55" opacity=".294444"/>
      <path d="m35.657541 80.474067c3.659066-.476377 7.859219-.724344 10.498998-1.631008 3.681902.89802 8.207098 1.084057 12.388809 1.560096-4.199594-.177285-8.399193-.91838-12.598791-.53185-3.209701-.09623-6.827543.358883-10.289016.602762z" fill="#ffeb55" opacity=".294444"/>
      <path d="m23.732283 99.644861c3.65907-.476376 7.85921-.724344 10.49899-1.631008 3.6819.89802 8.2071 1.084057 12.38881 1.560096-4.19959-.177285-8.39919-.91838-12.59879-.531849-3.2097-.09623-6.82754.358882-10.28901.602761z" fill="#ffeb55" opacity=".294444"/>
      <path d="m24.151813 80.140179c3.659074-.476377 7.859218-.724344 10.498997-1.631008 3.681904.89802 8.207095 1.084057 12.38881 1.560091-4.199598-.17728-8.399193-.918375-12.598791-.531845-3.209697-.09623-6.827539.358883-10.289016.602762z" fill="#ffeb55" opacity=".294444"/>
      <path d="m28.151893 87.562c3.659067-.476381 7.859215-.724344 10.498994-1.631008 3.681904.898016 8.207095 1.084057 12.38881 1.560092-4.199598-.177285-8.399193-.91838-12.598792-.531854-3.209696-.09622-6.827538.358887-10.289012.60277z" fill="#ffeb55" opacity=".294444"/>
      <path d="m35.657541 82.696289c3.659066-.476377 7.859219-.724344 10.498998-1.631008 3.681902.89802 8.207098 1.084057 12.388809 1.560096-4.199594-.177285-8.399193-.91838-12.598791-.53185-3.209701-.09623-6.827543.358883-10.289016.602762z" fill="#ffeb55" opacity=".294444"/>
      <path d="m32.70396 95.200417c3.65907-.476376 7.85922-.724344 10.499-1.631008 3.6819.89802 8.2071 1.084057 12.38881 1.560096-4.1996-.177285-8.39919-.91838-12.59879-.531849-3.2097-.09623-6.82754.358882-10.28902.602761z" fill="#e3ad00" opacity=".294444"/>
      <rect fill="url(#linearGradient2541)" height="30.212458" width="101.97912" x="13.233362" y="76.823875"/>
      <path d="m32.70396 86.311529c3.65907-.476376 7.85922-.724344 10.499-1.631008 3.6819.89802 8.2071 1.084057 12.38881 1.560096-4.1996-.177285-8.39919-.91838-12.59879-.531849-3.2097-.09623-6.82754.358882-10.28902.602761z" fill="#e3ad00" opacity=".294444"/>
      <path d="m20.323991 84.584623c3.659074-.476377 7.859219-.724344 10.498998-1.631008 3.681903.89802 8.207094 1.084057 12.38881 1.560091-4.199599-.17728-8.399194-.918375-12.598792-.531845-3.209697-.09623-6.827539.358883-10.289016.602762z" fill="#e3ad00" opacity=".294444"/>
      <path d="m25.329718 96.029621c3.659067-.476377 7.859219-.724344 10.498999-1.631008 3.6819.89802 8.207099 1.084057 12.38881 1.560096-4.199594-.177285-8.399197-.91838-12.598792-.53185-3.209702-.09623-6.827543.358883-10.289017.602762z" fill="#e3ad00" opacity=".294444"/>
      <rect fill="url(#linearGradient2543)" height="2.448633" opacity=".427778" width="105.02679" x="11.223557" y="76.844902"/>
      <rect fill="url(#linearGradient2545)" height="29.926754" opacity=".522222" width="105.02679" x="11.223557" y="29.085884"/>
      <path d="m-.04466021 80.174298 20.54831121-2.711748 10.382302-.117902 6.272637-2.358042 12.112688 2.82965 11.680094-2.122236 6.272637 3.53706 26.820955 4.244475 4.325959-1.179019 28.118727 1.532725 3.24447-.825313 3.24448 1.296921 64.0242-7.663634 4.97485.707413 27.25356-.353707 6.92152 2.004336 13.19417-1.886433 6.70524.353706v16.152584h-256.09680021z" fill="#ff7e00" filter="url(#filter7585-0)" opacity=".488889" transform="matrix(.4037181 0 0 .4330773 12.048239 26.156697)"/>
    </g>
    <rect fill="url(#linearGradient2547)" height="71.75" opacity=".771863" ry="0" transform="scale(1 -1)" width="96" x="-16.019852" y="-40.764259"/>
    <path d="m-15.019852 12.04674c31.197145 8.203863 65.387552 2.15464 94-11.5315831 0-15.8353609 0-30.1567139 0-30.7508889-1.30357 0-92.696425 0-94 0z" fill="url(#linearGradient2549)" opacity=".5"/>
    <path d="m-16.019852 40.764264v-71.999996h96v71.999996zm1-.947368h94v-70.10526h-94z" fill="url(#linearGradient2551)"/>
  </g>
  <g transform="matrix(2 0 0 2 -286 -436.26083)">
    <path d="m234.90829 282.43876c-4.1469 0-7.57812 3.43122-7.57812 7.57812v12.42188h-12.42188c-4.1469 0-7.57812 3.43122-7.57812 7.57812v4.84375c0 4.14691 3.43122 7.57812 7.57812 7.57812h12.42188v12.42188c0 4.1469 3.43122 7.57813 7.57812 7.57813h4.84375c4.1469 0 7.57813-3.43123 7.57813-7.57813v-12.42188h12.42187c4.14691 0 7.57813-3.43121 7.57813-7.57812v-4.84375c0-4.14691-3.43122-7.57812-7.57813-7.57812h-12.42187v-12.42188c0-4.1469-3.43123-7.57812-7.57813-7.57812z" fill="url(#linearGradient4284)"/>
    <path d="m69.875971 12.057888c-1.077088.06528-2.528221.219164-3 .9375l1.589684 11.138061 10.534345-.759359v-.46875c1.740958-2.57016-4.780448-10.906792-9.124029-10.847452z" fill="url(#linearGradient3255)" fill-rule="evenodd" filter="url(#filter3387)" transform="matrix(-.62499995 0 0 .62499995 277.33017 275.38772)"/>
    <path d="m69.875971 12.057888c-1.077088.06528-2.528221.219164-3 .9375l1.296715 8.794311 10.827314 1.584391v-.46875c1.740958-2.57016-4.780448-10.906792-9.124029-10.847452z" fill="url(#linearGradient3255)" fill-rule="evenodd" filter="url(#filter3387)" transform="matrix(.62499995 0 0 .62499995 197.7747 275.38772)"/>
    <path d="m69.875971 12.057888c-1.077088.06528-2.528221.219164-3 .9375l2.175622 10.747436 9.948407-.368734v-.46875c1.740958-2.57016-4.780448-10.906792-9.124029-10.847452z" fill="url(#linearGradient3255)" fill-rule="evenodd" filter="url(#filter3387)" opacity=".681648" transform="matrix(-.62499995 0 0 -.62499995 277.33017 349.97473)"/>
    <path d="m69.875971 12.057888c-1.077088.06528-2.528221.219164-3 .9375l.90609 10.552124 11.217939-.173422v-.46875c1.740958-2.57016-4.780448-10.906792-9.124029-10.847452z" fill="url(#linearGradient4420)" fill-rule="evenodd" filter="url(#filter3387)" opacity=".707865" transform="matrix(.62499995 0 0 -.62499995 197.77471 349.97473)"/>
    <path d="m69.875971 12.057888c-1.077088.06528-2.528221.219164-3 .9375l1.589684 11.138061 10.534345-.759359v-.46875c1.740958-2.57016-4.780448-10.906792-9.124029-10.847452z" fill="url(#linearGradient3255)" fill-rule="evenodd" filter="url(#filter3387)" opacity=".550562" transform="matrix(.62499995 0 0 .62499995 217.7747 294.90278)"/>
    <path d="m234.90829 282.43876c-4.1469 0-7.57812 3.43122-7.57812 7.57812v12.42188h-12.42188c-4.1469 0-7.57812 1.56738-7.57812 5.71429 0-1.18285 0 4.23891 0 6.70758 0 4.14691 3.43122 7.57812 7.57812 7.57812h12.42188v12.42188c0 4.1469 3.43122 7.57813 7.57812 7.57813h4.84375c4.14691 0 7.57813-3.43123 7.57813-7.57813v-12.42188h12.42187c4.14691 0 7.57813-3.43121 7.57813-7.57812v-4.84375c0-4.14691-3.43122-7.57812-7.57813-7.57812h-12.42187v-12.42188c0-4.1469-3.43122-7.57812-7.57813-7.57812z" fill="url(#radialGradient4275)" opacity=".580524"/>
    <path d="m69.875971 12.057888c-1.077088.06528-2.528221.219164-3 .9375l1.589684 11.138061 10.534345-.759359v-.46875c1.740958-2.57016-4.780448-10.906792-9.124029-10.847452z" fill="url(#linearGradient3255)" fill-rule="evenodd" filter="url(#filter3387)" opacity=".550562" transform="matrix(-.62499995 0 0 .62499995 256.88562 294.90278)"/>
    <path d="m234.90829 287.43876c-1.41746 0-2.57812 1.16066-2.57812 2.57812v17.42188h-17.42188c-1.41746 0-2.57812 1.16066-2.57812 2.57812v4.84375c0 1.41746 1.16066 2.57812 2.57812 2.57812h17.42188v17.42188c0 1.41747 1.16066 2.57813 2.57812 2.57813h4.84375c1.41747 0 2.57813-1.16066 2.57813-2.57813v-17.42188h17.42187c1.41747 0 2.57813-1.16066 2.57813-2.57812v-4.84375c0-1.41746-1.16066-2.57812-2.57813-2.57812h-17.42187v-17.42188c0-1.41746-1.16066-2.57812-2.57813-2.57812z" fill="url(#radialGradient4271)"/>
    <path d="m234.90829 287.43876c-1.41746 0-2.57812 1.16066-2.57812 2.57812v17.42188h-17.42188c-1.41746 0-2.57812 1.16066-2.57812 2.57812v4.84375c0 .13725.0572.25902.0781.39063 4.07211.58695 8.36418.9375 12.8125.9375 14.37696 0 27.2573-3.28729 35.74219-8.4375-.36155-.19394-.77418-.3125-1.21094-.3125h-17.42188v-17.42188c0-1.41746-1.16066-2.57812-2.57812-2.57812z" fill="url(#linearGradient4268)"/>
    <path d="m234.90829 287.43876c-1.41746 0-2.57812 1.16066-2.57812 2.57812v1.25c0-1.41746 1.66066-3.32812 3.07812-3.32812h4.84376c.35436 0 .70748.0643 1.01562.19531.13782.3119.60937 1.40573.60937 1.76562l.45313 17.53907.039-17.42188c0-.71953-.30132-1.36697-.78125-1.83594-.10971-.10971-.22378-.22377-.35156-.3125-.01-.007-.0293.006-.0391 0-.1276-.0864-.24834-.17158-.39062-.23437-.0108-.005-.0281.005-.0391 0-.14324-.0609-.31388-.12203-.46874-.15625-.0128-.002-.0262.002-.0391 0-.15458-.0319-.30568-.0365-.46875-.0391h-.0391-.58594zm-20 20c-1.41746 0-2.57812 1.16066-2.57812 2.57812v1.25c0-1.41746 1.16066-3.32812 2.57812-3.32812l17.42188-.5zm27.42188 0 17.1997.63965c-8.44899 4.53387-22.27807 7.99317-35.63721 7.99316-2.22416 0-4.42442-.11244-6.56249-.27344 2.57549.23365 5.22426.39063 7.92969.39063 13.46257 0 25.60468-2.90464 34.0625-7.5.01-.005.0291.005.039 0 .5532-.30154 1.08078-.6214 1.60156-.9375-.17038-.0914-.35662-.18098-.54687-.23438-.0125-.004-.0265.003-.039 0-.19047-.0506-.38172-.0747-.58594-.0781h-.039-.58594z" fill="url(#linearGradient4265)"/>
    <path d="m234.90829 287.43876c-1.41746 0-2.57812 1.16066-2.57812 2.57812v1.25c0-1.41746 1.66066-3.32812 3.07812-3.32812h4.84376c.35436 0 .70748.0643 1.01562.19531.13782.3119.60937 1.40573.60937 1.76562l.45313 17.53907.039-17.42188c0-.71953-.30132-1.36697-.78125-1.83594-.10971-.10971-.22378-.22377-.35156-.3125-.01-.007-.0293.006-.0391 0-.1276-.0864-.24834-.17158-.39062-.23437-.0108-.005-.0281.005-.0391 0-.14324-.0609-.31388-.12203-.46874-.15625-.0128-.002-.0262.002-.0391 0-.15458-.0319-.30568-.0365-.46875-.0391h-.0391-.58594zm-20 20c-1.41746 0-2.57812 1.16066-2.57812 2.57812v1.25c0-1.41746 1.16066-3.32812 2.57812-3.32812l17.42188-.5zm27.42188 0 17.32177.63965c-8.44898 4.53387-22.40014 7.99317-35.75927 7.99316-2.22416 0-4.42443-.11244-6.5625-.27344 2.57549.23365 5.22426.39063 7.92969.39063 13.46257 0 25.60468-2.90464 34.0625-7.5.01-.005.0291.005.039 0 .5532-.30154 1.08078-.6214 1.60156-.9375-.17038-.0914-.35662-.18098-.54687-.23438-.0125-.004-.0265.003-.039 0-.19047-.0506-.38172-.0747-.58593-.0781h-.039-.58594z" fill="url(#linearGradient4262)"/>
    <path d="m62.0625 43.999992c-1.13397 0-2.062504.928531-2.062504 2.0625v13.9375h-13.9375c-1.133969 0-2.0625.928528-2.0625 2.062498v3.875c0 1.13397.928531 2.0625 2.0625 2.0625h13.9375v13.93751c0 1.13397.928534 2.0625 2.062504 2.0625h3.875c1.13397 0 2.0625-.92853 2.0625-2.0625v-13.93751h13.9375c1.13397 0 2.0625-.92853 2.0625-2.0625v-3.875c0-1.13397-.92853-2.062498-2.0625-2.062498h-13.9375v-13.9375c0-1.133969-.92853-2.0625-2.0625-2.0625z" style="fill:none;stroke-width:.5;stroke-linecap:round;stroke-linejoin:round;stroke-dashoffset:1.0878;stroke:url(#linearGradient4259);filter:url(#filter3191)" transform="matrix(1.2499998 0 0 1.2499998 157.33018 232.43878)"/>
  </g>
</svg>
