<svg height="256" width="256" xmlns="http://www.w3.org/2000/svg" xmlns:xlink="http://www.w3.org/1999/xlink">
  <defs>
    <linearGradient id="linearGradient7555">
      <stop offset="0" stop-color="#fff"/>
      <stop offset="1" stop-color="#fff" stop-opacity="0"/>
    </linearGradient>
    <linearGradient id="linearGradient4284" gradientTransform="matrix(1.2499998 0 0 1.2499998 292.33017 207.43877)" gradientUnits="userSpaceOnUse" x1="-13.757333" x2="-62.424866" xlink:href="#XMLID_4_-3" y1="76.708466" y2="104.80668"/>
    <radialGradient id="XMLID_4_-3" cx="48" cy="-.2148" gradientTransform="matrix(.9792 0 0 .9725 133.0002 20.8762)" gradientUnits="userSpaceOnUse" r="55.147999">
      <stop offset="0" stop-color="#72d13d"/>
      <stop offset=".3553" stop-color="#35ac1c"/>
      <stop offset=".6194" stop-color="#0f9508"/>
      <stop offset=".7574" stop-color="#008c00"/>
      <stop offset="1" stop-color="#007a00"/>
    </radialGradient>
    <linearGradient id="linearGradient3255" gradientUnits="userSpaceOnUse" spreadMethod="reflect" x1="73.742638" x2="80" xlink:href="#linearGradient7555" y1="15.336544" y2="19.281664"/>
    <filter id="filter3387" height="1.189411" width="1.172683" x="-.086341" y="-.094706">
      <feGaussianBlur stdDeviation=".44655691"/>
    </filter>
    <linearGradient id="linearGradient4420" gradientTransform="scale(1.039383 .9621093)" gradientUnits="userSpaceOnUse" x1="64.341988" x2="76.284439" y1="18.50366" y2="18.50366">
      <stop offset="0" stop-color="#fff"/>
      <stop offset="1" stop-color="#252525" stop-opacity="0"/>
    </linearGradient>
    <radialGradient id="radialGradient4275" cx="237.3301788" cy="312.4387532" fx="217.330182" fy="332.43875" gradientUnits="userSpaceOnUse" r="29.9999952">
      <stop offset="0" stop-opacity=".779026"/>
      <stop offset="1" stop-opacity="0"/>
    </radialGradient>
    <radialGradient id="radialGradient4271" cx="-44" cy="84" fx="-40" fy="96" gradientTransform="matrix(1.2499998 0 0 1.2499998 292.33017 207.43877)" gradientUnits="userSpaceOnUse" r="20" xlink:href="#XMLID_4_-3"/>
    <linearGradient id="linearGradient4268" gradientUnits="userSpaceOnUse" x1="228.57211266379" x2="228.57211266379" y1="283.11288664214" y2="342.45174839792">
      <stop offset="0" stop-color="#cbff9c"/>
      <stop offset="1" stop-color="#65c171" stop-opacity="0"/>
    </linearGradient>
    <linearGradient id="linearGradient4265" gradientUnits="userSpaceOnUse" x1="222.33016241047" x2="228.55944266379" xlink:href="#linearGradient7555" y1="272.4387596" y2="327.44054329971"/>
    <linearGradient id="linearGradient4262" gradientUnits="userSpaceOnUse" x1="247.33015966047" x2="232.33016081047" xlink:href="#linearGradient7555" y1="327.4387508" y2="297.4387556"/>
    <linearGradient id="linearGradient4259" gradientUnits="userSpaceOnUse" x1="61.622575" x2="62.09794" xlink:href="#linearGradient7555" y1="57.512504" y2="85.106242"/>
    <filter id="filter3191" height="1.0368" width="1.0368" x="-.0184" y="-.0184">
      <feGaussianBlur stdDeviation=".2025"/>
    </filter>
    <radialGradient id="radialGradient3328" cx="51.767773" cy="14.017021" gradientTransform="matrix(1.72893 .00000002 0 .08175904 -35.735084 6.887999)" gradientUnits="userSpaceOnUse" r="46" xlink:href="#linearGradient7555"/>
    <radialGradient id="radialGradient3330" cx="50" cy="106.01698" gradientTransform="matrix(.8043478 .00000021 -.00000006 .2293229 11.782615 87.687866)" gradientUnits="userSpaceOnUse" r="46" xlink:href="#linearGradient7555"/>
    <radialGradient id="radialGradient3332" cx="52" cy="98.397842" gradientTransform="matrix(1 0 0 1.1459883 2 -8.762777)" gradientUnits="userSpaceOnUse" r="41.838463">
      <stop offset="0" stop-color="#5e5e5e"/>
      <stop offset="1" stop-opacity="0"/>
    </radialGradient>
    <linearGradient id="linearGradient3334" gradientUnits="userSpaceOnUse" x1="62" x2="62" xlink:href="#linearGradient7555" y1="140" y2="28"/>
    <filter id="filter3032" height="1.017245" width="1.020323" x="-.010184" y="-.008622">
      <feGaussianBlur stdDeviation=".13617728"/>
    </filter>
    <linearGradient id="linearGradient3336" gradientUnits="userSpaceOnUse" x1="91.095451" x2="96.487144" xlink:href="#linearGradient7555" y1="14.023225" y2="4.300506"/>
    <filter id="filter3102" height="1.317541" width="1.244662" x="-.122331" y="-.15877">
      <feGaussianBlur stdDeviation=".27482165"/>
    </filter>
    <linearGradient id="linearGradient3338" gradientUnits="userSpaceOnUse" x1="12.518213" x2="12.518213" xlink:href="#linearGradient7555" y1="12.211263" y2="-1.444737"/>
    <filter id="filter3098" height="1.317541" width="1.271353" x="-.135676" y="-.15877">
      <feGaussianBlur stdDeviation=".27482165"/>
    </filter>
    <linearGradient id="linearGradient3340" gradientUnits="userSpaceOnUse" x1="42" x2="58" xlink:href="#linearGradient7555" y1="-104" y2="64"/>
    <linearGradient id="linearGradient3342" gradientUnits="userSpaceOnUse" x1="78.225001" x2="46.225001" xlink:href="#linearGradient7555" y1="63.975" y2="-32.025"/>
    <linearGradient id="linearGradient3344" gradientUnits="userSpaceOnUse" x1="54.000002" x2="57.725" xlink:href="#linearGradient7555" y1="0" y2="63.975"/>
    <linearGradient id="linearGradient3346" gradientUnits="userSpaceOnUse" x1="80.125" x2="76.8125" xlink:href="#linearGradient7555" y1="106.1875" y2="101.125"/>
    <filter id="filter3240" height="1.225591" width="1.097377" x="-.048689" y="-.112795">
      <feGaussianBlur stdDeviation=".17624262"/>
    </filter>
    <linearGradient id="linearGradient3348" gradientUnits="userSpaceOnUse" x1="78.125" x2="74.8125" xlink:href="#linearGradient7555" y1="106.1875" y2="101.125"/>
  </defs>
  <g transform="matrix(1.6099218 0 0 1.6099218 44.284066 31.960879)">
    <path d="m7.6184157 8.0340192-1.6184158 31.9659808h7.6886241l.336729-1.616495c1.620211-8.865674 4.911925-13.323265 7.567278-15.496907 1.541606-1.260214 2.506958-1.82056 4.321344-2.251547s4.526678-.635051 9.035537-.635051h7.015168l.03532 67.999999c-.313043 4.423918.547584 9.576952-2.122968 13.399761-2.636929 2.93537-8.073635 2.82925-12.08115 3.26828l-1.795883.1732v7.15876h52v-7.15876l-1.795883-.1732c-6.44286-.48116-9.93895-1.15418-11.734776-2.64742-2.453359-2.039992-2.469337-7.774431-2.469339-14.020621v-67.999999h7.295775c4.708211 0 7.552777.200033 9.372265.635051s2.681715 1.003308 4.040737 2.251547c2.387107 2.19517 5.383475 6.717683 7.26587 15.554639l.336728 1.558763 7.688624.099999-1.373128-32.0659798z"/>
    <path d="m7.6184157 8.0340192-1.6184158 31.9659808h7.6886241l.336729-1.616495c1.620211-8.865674 4.911925-13.323265 7.567278-15.496907 1.541606-1.260214 2.506958-1.82056 4.321344-2.251547s4.526678-.635051 9.035537-.635051h7.015168 20.035321 7.295775c4.708211 0 7.552777.200033 9.372265.635051s2.681715 1.003308 4.040737 2.251547c2.387107 2.19517 5.383475 6.717683 7.26587 15.554639l.336728 1.558763 7.688624.099999-1.373128-32.0659798z" fill="url(#radialGradient3328)" opacity=".74"/>
    <path d="m42 87.999999c-.313043 4.423918.547584 9.576952-2.122968 13.399761-2.636929 2.93537-8.073635 2.82925-12.08115 3.26828l-1.795883.1732v7.15876h52v-7.15876l-1.795883-.1732c-6.44286-.48116-9.93895-1.15418-11.734776-2.64742-2.453359-2.039992-2.469337-7.774431-2.469339-14.020621z" fill="url(#radialGradient3330)" opacity=".632"/>
    <path d="m11.365898 12.077427h81.488195l1.010184 23.901031h-.617334c-2.031178-8.253911-4.963004-13.394313-7.91311-16.107216-1.5336-1.408586-3.490912-2.627843-5.780499-3.175258-2.442676-.584015-5.453406-.750512-10.270207-.750516h-7.295775-3.928494v4.041237 68.008249c.000002 3.126654-.02548 6.242548.336728 9.121649.36221 2.879101.963326 5.896897 3.591766 8.082477 1.950085 1.62151 4.388503 2.31098 7.239654 2.77113h-34.1779c2.572241-.46432 5.493303-1.30406 7.744746-3.81031l.168364-.17319.112242-.23093c3.885007-5.561263 2.722718-11.79946 2.981663-15.458872v-.115464-.173195l-.056121-72.008249h-12c-4.624535 0-6.608615.128746-8.996615.695984-2.245754.533452-4.112989 1.593053-5.83662 3.002062-3.236194 2.649113-6.707414 7.770849-8.586566 16.22268h-.39285z" fill="url(#radialGradient3332)"/>
    <path d="m11.365898 12.077427h81.488195l1.010184 23.901031h-.617334c-2.031178-8.253911-4.963004-13.394313-7.91311-16.107216-1.5336-1.408586-3.490912-2.627843-5.780499-3.175258-2.442676-.584015-5.453406-.750512-10.270207-.750516h-7.295775-3.928494v4.041237 68.008249c.000002 3.126654-.02548 6.242548.336728 9.121649.36221 2.879101.963326 5.896897 3.591766 8.082477 1.950085 1.62151 4.388503 2.31098 7.239654 2.77113h-34.1779c2.572241-.46432 5.493303-1.30406 7.744746-3.81031l.168364-.17319.112242-.23093c3.885007-5.561263 2.722718-11.79946 2.981663-15.458872v-.115464-.173195l-.056121-72.008249h-12c-4.624535 0-6.608615.128746-8.996615.695984-2.245754.533452-4.112989 1.593053-5.83662 3.002062-3.236194 2.649113-6.707414 7.770849-8.586566 16.22268h-.39285z" fill="none" filter="url(#filter3032)" opacity=".56" stroke="url(#linearGradient3334)"/>
    <path d="m96.487145 8.0570111-3.535534 4.1542519-1.856156-.265165z" fill="url(#linearGradient3336)" fill-rule="evenodd" filter="url(#filter3102)"/>
    <path d="m11.280777 12.122875-3.6239227-4.1542523 4.8613587 3.9774753z" fill="url(#linearGradient3338)" fill-rule="evenodd" filter="url(#filter3098)"/>
    <path d="m11.375 12.0625-1.1875 23.84375h.40625c1.879152-8.451831 5.326306-13.569637 8.5625-16.21875 1.723631-1.409009 3.597995-2.466548 5.84375-3 2.388-.567238 4.375465-.6875 9-.6875h12l.0063 34.59375c4.223425-.606961 8.189108-1.410961 12.05625-2.375v-28.21875-4.0625h3.93745 7.28125c4.816801.000004 7.838571.165985 10.28125.75 2.289587.547415 4.247651 1.778913 5.78125 3.1875 2.264701 2.082608 4.499776 5.620927 6.34375 10.875.675527-.750161 1.301403-1.50489 1.875-2.28125l-.71875-16.40625z" fill="url(#linearGradient3340)" opacity=".908"/>
    <path d="m92.5375 12.0375.6875 15.40625c-.5736.77636-1.19947 1.531089-1.875 2.28125-.82979-2.364333-1.73226-4.154601-2.6875-5.625 1.07235 1.801665 2.07801 3.997964 3 6.625.67553-.750161 1.3014-1.50489 1.875-2.28125l-.71875-16.40625zm-34.8125 35.15625c-3.7708.940023-7.53322 2.011109-11.64375 2.6125v.7625c4.22343-.606961 8.08911-1.410961 11.95625-2.375v-28.21875-4.0625zm-28.90625-31.125c-1.60781.116595-2.96225.310131-4.15625.59375-2.24575.533452-4.12012 1.590991-5.84375 3-3.23619 2.649113-6.68335 6.766919-8.5625 15.21875h-.03125l-.0625 1h.40625c1.87915-8.451831 5.32631-13.569637 8.5625-16.21875 1.72363-1.409009 3.598-2.466548 5.84375-3 1.194-.283619 2.51719-.477155 4.125-.59375-.08756.0058-.19531-.0062-.28125 0z" fill="url(#linearGradient3342)" opacity=".908"/>
    <path d="m11.1 12.0375-1.1875004 23.84375h.0625l1.1250004-23.64375c26.951596.409308 54.0474.6302 81.46875.1l.6875 16.16875c.01342-.01807.01788-.04441.03125-.0625l-.71875-16.40625z" fill="url(#linearGradient3344)" opacity=".908"/>
    <path d="m69.312501 107.8125 2.375-3.75 6.3125.8125z" fill="url(#linearGradient3346)" fill-rule="evenodd" filter="url(#filter3240)"/>
    <path d="m67.312501 107.8125 2.375-3.75 6.3125.8125z" fill="url(#linearGradient3348)" fill-rule="evenodd" filter="url(#filter3240)" transform="matrix(-1 0 0 1 102.0625 .2)"/>
  </g>
  <g transform="matrix(2 0 0 2 -286 -436.26083)">
    <path d="m234.90829 282.43876c-4.1469 0-7.57812 3.43122-7.57812 7.57812v12.42188h-12.42188c-4.1469 0-7.57812 3.43122-7.57812 7.57812v4.84375c0 4.14691 3.43122 7.57812 7.57812 7.57812h12.42188v12.42188c0 4.1469 3.43122 7.57813 7.57812 7.57813h4.84375c4.1469 0 7.57813-3.43123 7.57813-7.57813v-12.42188h12.42187c4.14691 0 7.57813-3.43121 7.57813-7.57812v-4.84375c0-4.14691-3.43122-7.57812-7.57813-7.57812h-12.42187v-12.42188c0-4.1469-3.43123-7.57812-7.57813-7.57812z" fill="url(#linearGradient4284)"/>
    <path d="m69.875971 12.057888c-1.077088.06528-2.528221.219164-3 .9375l1.589684 11.138061 10.534345-.759359v-.46875c1.740958-2.57016-4.780448-10.906792-9.124029-10.847452z" fill="url(#linearGradient3255)" fill-rule="evenodd" filter="url(#filter3387)" transform="matrix(-.62499995 0 0 .62499995 277.33017 275.38772)"/>
    <path d="m69.875971 12.057888c-1.077088.06528-2.528221.219164-3 .9375l1.296715 8.794311 10.827314 1.584391v-.46875c1.740958-2.57016-4.780448-10.906792-9.124029-10.847452z" fill="url(#linearGradient3255)" fill-rule="evenodd" filter="url(#filter3387)" transform="matrix(.62499995 0 0 .62499995 197.7747 275.38772)"/>
    <path d="m69.875971 12.057888c-1.077088.06528-2.528221.219164-3 .9375l2.175622 10.747436 9.948407-.368734v-.46875c1.740958-2.57016-4.780448-10.906792-9.124029-10.847452z" fill="url(#linearGradient3255)" fill-rule="evenodd" filter="url(#filter3387)" opacity=".681648" transform="matrix(-.62499995 0 0 -.62499995 277.33017 349.97473)"/>
    <path d="m69.875971 12.057888c-1.077088.06528-2.528221.219164-3 .9375l.90609 10.552124 11.217939-.173422v-.46875c1.740958-2.57016-4.780448-10.906792-9.124029-10.847452z" fill="url(#linearGradient4420)" fill-rule="evenodd" filter="url(#filter3387)" opacity=".707865" transform="matrix(.62499995 0 0 -.62499995 197.77471 349.97473)"/>
    <path d="m69.875971 12.057888c-1.077088.06528-2.528221.219164-3 .9375l1.589684 11.138061 10.534345-.759359v-.46875c1.740958-2.57016-4.780448-10.906792-9.124029-10.847452z" fill="url(#linearGradient3255)" fill-rule="evenodd" filter="url(#filter3387)" opacity=".550562" transform="matrix(.62499995 0 0 .62499995 217.7747 294.90278)"/>
    <path d="m234.90829 282.43876c-4.1469 0-7.57812 3.43122-7.57812 7.57812v12.42188h-12.42188c-4.1469 0-7.57812 1.56738-7.57812 5.71429 0-1.18285 0 4.23891 0 6.70758 0 4.14691 3.43122 7.57812 7.57812 7.57812h12.42188v12.42188c0 4.1469 3.43122 7.57813 7.57812 7.57813h4.84375c4.14691 0 7.57813-3.43123 7.57813-7.57813v-12.42188h12.42187c4.14691 0 7.57813-3.43121 7.57813-7.57812v-4.84375c0-4.14691-3.43122-7.57812-7.57813-7.57812h-12.42187v-12.42188c0-4.1469-3.43122-7.57812-7.57813-7.57812z" fill="url(#radialGradient4275)" opacity=".580524"/>
    <path d="m69.875971 12.057888c-1.077088.06528-2.528221.219164-3 .9375l1.589684 11.138061 10.534345-.759359v-.46875c1.740958-2.57016-4.780448-10.906792-9.124029-10.847452z" fill="url(#linearGradient3255)" fill-rule="evenodd" filter="url(#filter3387)" opacity=".550562" transform="matrix(-.62499995 0 0 .62499995 256.88562 294.90278)"/>
    <path d="m234.90829 287.43876c-1.41746 0-2.57812 1.16066-2.57812 2.57812v17.42188h-17.42188c-1.41746 0-2.57812 1.16066-2.57812 2.57812v4.84375c0 1.41746 1.16066 2.57812 2.57812 2.57812h17.42188v17.42188c0 1.41747 1.16066 2.57813 2.57812 2.57813h4.84375c1.41747 0 2.57813-1.16066 2.57813-2.57813v-17.42188h17.42187c1.41747 0 2.57813-1.16066 2.57813-2.57812v-4.84375c0-1.41746-1.16066-2.57812-2.57813-2.57812h-17.42187v-17.42188c0-1.41746-1.16066-2.57812-2.57813-2.57812z" fill="url(#radialGradient4271)"/>
    <path d="m234.90829 287.43876c-1.41746 0-2.57812 1.16066-2.57812 2.57812v17.42188h-17.42188c-1.41746 0-2.57812 1.16066-2.57812 2.57812v4.84375c0 .13725.0572.25902.0781.39063 4.07211.58695 8.36418.9375 12.8125.9375 14.37696 0 27.2573-3.28729 35.74219-8.4375-.36155-.19394-.77418-.3125-1.21094-.3125h-17.42188v-17.42188c0-1.41746-1.16066-2.57812-2.57812-2.57812z" fill="url(#linearGradient4268)"/>
    <path d="m234.90829 287.43876c-1.41746 0-2.57812 1.16066-2.57812 2.57812v1.25c0-1.41746 1.66066-3.32812 3.07812-3.32812h4.84376c.35436 0 .70748.0643 1.01562.19531.13782.3119.60937 1.40573.60937 1.76562l.45313 17.53907.039-17.42188c0-.71953-.30132-1.36697-.78125-1.83594-.10971-.10971-.22378-.22377-.35156-.3125-.01-.007-.0293.006-.0391 0-.1276-.0864-.24834-.17158-.39062-.23437-.0108-.005-.0281.005-.0391 0-.14324-.0609-.31388-.12203-.46874-.15625-.0128-.002-.0262.002-.0391 0-.15458-.0319-.30568-.0365-.46875-.0391h-.0391-.58594zm-20 20c-1.41746 0-2.57812 1.16066-2.57812 2.57812v1.25c0-1.41746 1.16066-3.32812 2.57812-3.32812l17.42188-.5zm27.42188 0 17.1997.63965c-8.44899 4.53387-22.27807 7.99317-35.63721 7.99316-2.22416 0-4.42442-.11244-6.56249-.27344 2.57549.23365 5.22426.39063 7.92969.39063 13.46257 0 25.60468-2.90464 34.0625-7.5.01-.005.0291.005.039 0 .5532-.30154 1.08078-.6214 1.60156-.9375-.17038-.0914-.35662-.18098-.54687-.23438-.0125-.004-.0265.003-.039 0-.19047-.0506-.38172-.0747-.58594-.0781h-.039-.58594z" fill="url(#linearGradient4265)"/>
    <path d="m234.90829 287.43876c-1.41746 0-2.57812 1.16066-2.57812 2.57812v1.25c0-1.41746 1.66066-3.32812 3.07812-3.32812h4.84376c.35436 0 .70748.0643 1.01562.19531.13782.3119.60937 1.40573.60937 1.76562l.45313 17.53907.039-17.42188c0-.71953-.30132-1.36697-.78125-1.83594-.10971-.10971-.22378-.22377-.35156-.3125-.01-.007-.0293.006-.0391 0-.1276-.0864-.24834-.17158-.39062-.23437-.0108-.005-.0281.005-.0391 0-.14324-.0609-.31388-.12203-.46874-.15625-.0128-.002-.0262.002-.0391 0-.15458-.0319-.30568-.0365-.46875-.0391h-.0391-.58594zm-20 20c-1.41746 0-2.57812 1.16066-2.57812 2.57812v1.25c0-1.41746 1.16066-3.32812 2.57812-3.32812l17.42188-.5zm27.42188 0 17.32177.63965c-8.44898 4.53387-22.40014 7.99317-35.75927 7.99316-2.22416 0-4.42443-.11244-6.5625-.27344 2.57549.23365 5.22426.39063 7.92969.39063 13.46257 0 25.60468-2.90464 34.0625-7.5.01-.005.0291.005.039 0 .5532-.30154 1.08078-.6214 1.60156-.9375-.17038-.0914-.35662-.18098-.54687-.23438-.0125-.004-.0265.003-.039 0-.19047-.0506-.38172-.0747-.58593-.0781h-.039-.58594z" fill="url(#linearGradient4262)"/>
    <path d="m62.0625 43.999992c-1.13397 0-2.062504.928531-2.062504 2.0625v13.9375h-13.9375c-1.133969 0-2.0625.928528-2.0625 2.062498v3.875c0 1.13397.928531 2.0625 2.0625 2.0625h13.9375v13.93751c0 1.13397.928534 2.0625 2.062504 2.0625h3.875c1.13397 0 2.0625-.92853 2.0625-2.0625v-13.93751h13.9375c1.13397 0 2.0625-.92853 2.0625-2.0625v-3.875c0-1.13397-.92853-2.062498-2.0625-2.062498h-13.9375v-13.9375c0-1.133969-.92853-2.0625-2.0625-2.0625z" style="fill:none;stroke-width:.5;stroke-linecap:round;stroke-linejoin:round;stroke-dashoffset:1.0878;stroke:url(#linearGradient4259);filter:url(#filter3191)" transform="matrix(1.2499998 0 0 1.2499998 157.33018 232.43878)"/>
  </g>
</svg>
