<svg height="256" width="256" xmlns="http://www.w3.org/2000/svg" xmlns:xlink="http://www.w3.org/1999/xlink">
  <defs>
    <linearGradient id="linearGradient6674">
      <stop offset="0" stop-color="#bf5e00"/>
      <stop offset="1" stop-color="#bf5e00" stop-opacity="0"/>
    </linearGradient>
    <linearGradient id="linearGradient6446">
      <stop offset="0" stop-color="#fff"/>
      <stop offset="1" stop-color="#fff" stop-opacity="0"/>
    </linearGradient>
    <radialGradient id="radialGradient9692" cx="-127.999999" cy="183.579045" gradientUnits="userSpaceOnUse" r="101.213259" spreadMethod="pad">
      <stop offset="0" stop-color="#ffbf00"/>
      <stop offset="1" stop-color="#ff7e00"/>
    </radialGradient>
    <linearGradient id="linearGradient6410" gradientUnits="userSpaceOnUse" x1="79.483872" x2="22.916128" y1="227.09678" y2="26.012904">
      <stop offset="0" stop-color="#ed7500"/>
      <stop offset="1" stop-color="#ff7b07"/>
    </linearGradient>
    <linearGradient id="linearGradient6452" gradientUnits="userSpaceOnUse" spreadMethod="reflect" x1="21.507897" x2="15.602036" xlink:href="#linearGradient6446" y1="21.721349" y2="27.627209"/>
    <filter id="filter6458" height="1.145266" width="1.152245" x="-.076123" y="-.072633">
      <feGaussianBlur stdDeviation=".28444187"/>
    </filter>
    <linearGradient id="linearGradient6464" gradientUnits="userSpaceOnUse" spreadMethod="reflect" x1="21.507897" x2="15.539791" xlink:href="#linearGradient6446" y1="21.721349" y2="27.689454"/>
    <linearGradient id="linearGradient6470" gradientUnits="userSpaceOnUse" spreadMethod="reflect" x1="21.507897" x2="14.373943" xlink:href="#linearGradient6446" y1="21.721349" y2="28.855302"/>
    <linearGradient id="linearGradient6637" gradientUnits="userSpaceOnUse" x1="110.658066" x2="110.658066" y1="224" y2="149.826294">
      <stop offset="0" stop-color="#703700"/>
      <stop offset="1" stop-color="#bf5e00" stop-opacity="0"/>
    </linearGradient>
    <linearGradient id="linearGradient6649" gradientUnits="userSpaceOnUse" x1="124.077424" x2="124.077424" y1="31.82742" y2="101.45797">
      <stop offset="0" stop-color="#ffdfbf"/>
      <stop offset="1" stop-color="#ffdfbf" stop-opacity="0"/>
    </linearGradient>
    <linearGradient id="linearGradient6680" gradientUnits="userSpaceOnUse" x1="38.19355" x2="160.095398" xlink:href="#linearGradient6674" y1="101.161294" y2="133.79515"/>
    <linearGradient id="linearGradient2816" gradientUnits="userSpaceOnUse" x1="118.451614" x2="118.451614" xlink:href="#linearGradient6446" y1="-63.425492" y2="196.33435"/>
    <linearGradient id="linearGradient3231" gradientUnits="userSpaceOnUse" x1="118.976339" x2="118.976339" xlink:href="#linearGradient6446" y1="15.794643" y2="92.457717"/>
    <linearGradient id="linearGradient3233" gradientUnits="userSpaceOnUse" x1="186.163513" x2="63.219801" xlink:href="#linearGradient6446" y1="123.159892" y2="43.892688"/>
    <linearGradient id="linearGradient3243" gradientUnits="userSpaceOnUse" x1="-60.945251" x2="-59.415245" y1="105.83054" y2="45.631207">
      <stop offset="0" stop-color="#ffeb8b"/>
      <stop offset="1" stop-color="#fff" stop-opacity="0"/>
    </linearGradient>
    <filter id="filter3281" height="1.029709" width="1.029709" x="-.014855" y="-.014855">
      <feGaussianBlur stdDeviation=".32872878"/>
    </filter>
    <linearGradient id="linearGradient3289" gradientUnits="userSpaceOnUse" x1="60.402065" x2="60.402065" xlink:href="#linearGradient6674" y1="64.076149" y2="-20.962214"/>
    <filter id="filter3319" height="1.080899" width="1.080899" x="-.040449" y="-.040449">
      <feGaussianBlur stdDeviation="1.6179775"/>
    </filter>
    <linearGradient id="linearGradient4284" gradientTransform="matrix(4.9999992 0 0 4.9999992 318.67935 -279.0806)" gradientUnits="userSpaceOnUse" x1="-13.757333" x2="-62.424866" xlink:href="#XMLID_4_" y1="76.708466" y2="104.80668"/>
    <radialGradient id="XMLID_4_" cx="48" cy="-.2148" gradientTransform="matrix(.9792 0 0 .9725 133.0002 20.8762)" gradientUnits="userSpaceOnUse" r="55.147999">
      <stop offset="0" stop-color="#72d13d"/>
      <stop offset=".3553" stop-color="#35ac1c"/>
      <stop offset=".6194" stop-color="#0f9508"/>
      <stop offset=".7574" stop-color="#008c00"/>
      <stop offset="1" stop-color="#007a00"/>
    </radialGradient>
    <linearGradient id="linearGradient4299" gradientUnits="userSpaceOnUse" spreadMethod="reflect" x1="73.742638" x2="80" xlink:href="#linearGradient6446" y1="15.336544" y2="19.281664"/>
    <filter id="filter3387" height="1.189411" width="1.172683" x="-.086341" y="-.094706">
      <feGaussianBlur stdDeviation=".44655691"/>
    </filter>
    <linearGradient id="linearGradient3003" gradientUnits="userSpaceOnUse" spreadMethod="reflect" x1="73.742638" x2="80" y1="15.336544" y2="19.281664">
      <stop offset="0" stop-color="#fff14d"/>
      <stop offset="1" stop-color="#f8ffa0" stop-opacity="0"/>
    </linearGradient>
    <linearGradient id="linearGradient3005-6" gradientTransform="scale(1.039383 .9621093)" gradientUnits="userSpaceOnUse" x1="64.341988" x2="76.284439" y1="18.50366" y2="18.50366">
      <stop offset="0" stop-color="#fff"/>
      <stop offset="1" stop-color="#252525" stop-opacity="0"/>
    </linearGradient>
    <radialGradient id="radialGradient4275" cx="98.679382" cy="140.91933" fx="18.679403" fy="220.91931" gradientUnits="userSpaceOnUse" r="119.99998">
      <stop offset="0" stop-opacity=".779026"/>
      <stop offset="1" stop-opacity="0"/>
    </radialGradient>
    <radialGradient id="radialGradient4271" cx="-44" cy="84" fx="-40" fy="96" gradientTransform="matrix(4.9999992 0 0 4.9999992 318.67935 -279.0806)" gradientUnits="userSpaceOnUse" r="20" xlink:href="#XMLID_4_"/>
    <linearGradient id="linearGradient4268" gradientUnits="userSpaceOnUse" x1="63.647171" x2="63.647171" y1="23.615866" y2="260.97131">
      <stop offset="0" stop-color="#cbff9c"/>
      <stop offset="1" stop-color="#65c171" stop-opacity="0"/>
    </linearGradient>
    <linearGradient id="linearGradient4265" gradientUnits="userSpaceOnUse" x1="38.679367" x2="63.596489" xlink:href="#linearGradient6446" y1="-19.080643" y2="200.92648"/>
    <linearGradient id="linearGradient4262" gradientUnits="userSpaceOnUse" x1="138.67937" x2="78.679375" xlink:href="#linearGradient6446" y1="200.91933" y2="80.919342"/>
    <linearGradient id="linearGradient4259" gradientUnits="userSpaceOnUse" x1="61.622574" x2="62.097939" xlink:href="#linearGradient6446" y1="57.512505" y2="85.106239"/>
    <filter id="filter3191" height="1.0368" width="1.0368" x="-.0184" y="-.0184">
      <feGaussianBlur stdDeviation=".2025"/>
    </filter>
  </defs>
  <rect fill="url(#linearGradient3289)" filter="url(#filter3319)" height="96" rx="10.083601" transform="scale(2)" width="96" x="16" y="16"/>
  <rect fill="url(#linearGradient6410)" height="192" rx="20.167202" width="192" x="32" y="32"/>
  <rect fill="url(#linearGradient6680)" height="192" opacity=".082902" rx="20.167202" width="192" x="32" y="32"/>
  <rect fill="url(#radialGradient9692)" height="173.54117" rx="14.002863" transform="scale(-1 1)" width="173.54117" x="-214.77058" y="41.229416"/>
  <path d="m54.374999 40.562499c-7.98045 0-14.375 6.39455-14.375 14.375v67.562501c57.962154 14.61327 119.171001 8.75537 174.562501-12.5625.56404-.66537 1.05076-1.34392 1.4375-2v-53.000001c0-7.98045-6.39454-14.375-14.375-14.375z" fill="url(#linearGradient2816)"/>
  <path d="m67.999999 112c-4.084852 0-8.089156.31603-12 .9375v16.3125c3.886058-.79171 7.881242-1.25 12-1.25 33.120001 0 60.000001 26.88001 60.000001 60 0 4.11876-.45829 8.11394-1.25 12h16.3125c.62147-3.91084.9375-7.91515.9375-12 0-41.95198-34.04801-76-76.000001-76zm0 32c-4.206098 0-8.271978.58379-12.125 1.6875.06145.47497.125.94527.125 1.4375v15.625c3.649612-1.74359 7.687904-2.75 12-2.75 15.455994-.00001 28 12.54401 28 28 0 4.31209-1.006406 8.35039-2.75 12h17.062501c1.08248-3.8187 1.6875-7.83604 1.6875-12 0-24.28799-19.712001-44-44.000001-44zm0 32c-6.624 0-12 5.37601-12 12 0 6.624 5.375998 12 12 12 6.624 0 11.999998-5.376 12-12 0-6.624-5.376002-12.00001-12-12z" fill="#fff"/>
  <path d="m25.906944 16.299378c-4.690175 0-9.397509 3.568001-9.397509 9.39874l4.267305-.05891c.452373-2.129835 2.851964-4.270962 4.526605-4.603385z" fill="url(#linearGradient6452)" filter="url(#filter6458)" opacity=".887641" transform="scale(2)"/>
  <path d="m25.397509 16.46919c-4.690175 0-8.967908 3.654709-8.967908 9.485448l4.347139-.315433c.452373-2.129835 2.851964-4.270962 4.526605-4.603385z" fill="url(#linearGradient6464)" filter="url(#filter6458)" opacity=".868914" transform="matrix(-2 0 0 2 255.73482 -.000001)"/>
  <path d="m31.999999 195.75v8.0625c0 11.17262 9.01487 20.1875 20.1875 20.1875h151.625001c11.17262 0 20.1875-9.01486 20.1875-20.1875v-8.0625c0 11.17262-9.01488 20.1875-20.1875 20.1875h-151.625001c-11.17263 0-20.1875-9.01488-20.1875-20.1875z" fill="url(#linearGradient6637)" opacity=".082902"/>
  <path d="m26.246568 16.978625c-4.690175 0-9.477343 3.654709-9.477343 9.485448l4.007515-.824868c.452373-2.129835 2.851964-4.270962 4.526605-4.603385z" fill="url(#linearGradient6470)" filter="url(#filter6458)" opacity=".326425" transform="matrix(2 0 0 -2 -.000001 256.17572)"/>
  <path d="m26.246568 16.978625c-4.690175 0-9.477343 3.654709-9.477343 9.485448l4.007515-.824868c.452373-2.129835 2.851964-4.270962 4.526605-4.603385z" fill="url(#linearGradient6470)" filter="url(#filter6458)" opacity=".176166" transform="matrix(-2 0 0 -2 255.73482 256.17572)"/>
  <path d="m31.999999 60.077419v-8.0625c0-11.17262 9.01487-20.1875 20.1875-20.1875h151.625001c11.17262 0 20.1875 9.01486 20.1875 20.1875v8.0625c0-11.17262-9.01488-20.1875-20.1875-20.1875h-151.625001c-11.17263 0-20.1875 9.01488-20.1875 20.1875z" fill="url(#linearGradient6649)" opacity=".388601"/>
  <path d="m54.882605 40.562499c-7.98045 0-14.375 6.39455-14.375 14.375v2c0-7.98045 6.39455-14.375 14.375-14.375h147.249995c7.98046 0 14.375 6.39455 14.375 14.375v-2c0-7.98045-6.39454-14.375-14.375-14.375z" fill="url(#linearGradient3231)"/>
  <path d="m208.42154 43.892687c3.19072 2.62959 5.25 6.573496 5.25 11.0625v53.000003c-.38674.65607-.87348 1.33464-1.4375 2-54.49555 20.97305-114.624415 26.97665-171.749995 13.25v1.125c57.96214 14.61326 119.170985 8.75537 174.562495-12.5625.56404-.66537 1.05076-1.34393 1.4375-2v-53.000003c0-5.706022-3.28208-10.548168-8.0625-12.875z" fill="url(#linearGradient3233)"/>
  <rect fill="none" filter="url(#filter3281)" height="86.770584" rx="7.001432" stroke="url(#linearGradient3243)" stroke-linecap="round" stroke-linejoin="round" transform="scale(-2 2)" width="86.770584" x="-107.38529" y="20.614708"/>
  <g transform="matrix(.5 0 0 .5 139.32065 118.15701)">
    <path d="m88.991883 20.919356c-16.58763 0-30.312514 13.724884-30.312514 30.312496v49.687488h-49.687489c-16.587614 0-30.312496 13.72489-30.312496 30.31249v19.375c0 16.58765 13.724882 30.31249 30.312496 30.31249h49.687489v49.68754c0 16.5876 13.724894 30.3125 30.312514 30.3125h19.375007c16.58758 0 30.31248-13.7249 30.31248-30.3125v-49.68754h49.6875c16.5876 0 30.31248-13.72484 30.31248-30.31249v-19.375c0-16.5876-13.72488-30.31249-30.31248-30.31249h-49.6875v-49.687488c0-16.587612-13.7249-30.312496-30.31248-30.312496z" fill="url(#linearGradient4284)"/>
    <path d="m69.875971 12.057888c-1.077088.06528-2.528221.219164-3 .9375l1.589684 11.138061 10.534345-.759359v-.46875c1.740958-2.57016-4.780448-10.906792-9.124029-10.847452z" fill="url(#linearGradient4299)" fill-rule="evenodd" filter="url(#filter3387)" transform="matrix(-2.4999998 0 0 2.4999998 258.67937 -7.2848)"/>
    <path d="m69.875971 12.057888c-1.077088.06528-2.528221.219164-3 .9375l1.296715 8.794311 10.827314 1.584391v-.46875c1.740958-2.57016-4.780448-10.906792-9.124029-10.847452z" fill="url(#linearGradient4299)" fill-rule="evenodd" filter="url(#filter3387)" transform="matrix(2.4999998 0 0 2.4999998 -59.54248 -7.2848)"/>
    <path d="m69.875971 12.057888c-1.077088.06528-2.528221.219164-3 .9375l2.175622 10.747436 9.948407-.368734v-.46875c1.740958-2.57016-4.780448-10.906792-9.124029-10.847452z" fill="url(#linearGradient3003)" fill-rule="evenodd" filter="url(#filter3387)" opacity=".681648" transform="matrix(-2.4999998 0 0 -2.4999998 258.67937 291.06326)"/>
    <path d="m69.875971 12.057888c-1.077088.06528-2.528221.219164-3 .9375l.90609 10.552124 11.217939-.173422v-.46875c1.740958-2.57016-4.780448-10.906792-9.124029-10.847452z" fill="url(#linearGradient3005-6)" fill-rule="evenodd" filter="url(#filter3387)" opacity=".707865" transform="matrix(2.4999998 0 0 -2.4999998 -59.54246 291.06326)"/>
    <path d="m69.875971 12.057888c-1.077088.06528-2.528221.219164-3 .9375l1.589684 11.138061 10.534345-.759359v-.46875c1.740958-2.57016-4.780448-10.906792-9.124029-10.847452z" fill="url(#linearGradient4299)" fill-rule="evenodd" filter="url(#filter3387)" opacity=".550562" transform="matrix(2.4999998 0 0 2.4999998 20.457508 70.775421)"/>
    <path d="m88.991883 20.919356c-16.58763 0-30.312514 13.724884-30.312514 30.312496v49.687488h-49.687489c-16.587614 0-30.312505 6.26955-30.312505 22.85716.000003-4.73137.000007 16.95565.000009 26.83033 0 16.58765 13.724882 30.31249 30.312496 30.31249h49.687489v49.68754c0 16.5876 13.724894 30.3125 30.312514 30.3125h19.375007c16.58759 0 30.31248-13.7249 30.31248-30.3125v-49.68754h49.6875c16.5876 0 30.31248-13.72484 30.31248-30.31249v-19.375c0-16.5876-13.72488-30.31249-30.31248-30.31249h-49.6875v-49.687488c0-16.587612-13.72489-30.312496-30.31248-30.312496z" fill="url(#radialGradient4275)" opacity=".580524"/>
    <path d="m69.875971 12.057888c-1.077088.06528-2.528221.219164-3 .9375l1.589684 11.138061 10.534345-.759359v-.46875c1.740958-2.57016-4.780448-10.906792-9.124029-10.847452z" fill="url(#linearGradient4299)" fill-rule="evenodd" filter="url(#filter3387)" opacity=".550562" transform="matrix(-2.4999998 0 0 2.4999998 176.90119 70.775421)"/>
    <path d="m88.991883 40.919352c-5.66985 0-10.31251 4.642656-10.31251 10.3125v69.687488h-69.687493c-5.669846 0-10.312498 4.64264-10.312498 10.31249v19.375c0 5.66984 4.642652 10.3125 10.312498 10.3125h69.687493v69.68753c0 5.66986 4.64266 10.3125 10.31251 10.3125h19.375007c5.66984 0 10.31248-4.64264 10.31248-10.3125v-69.68753h69.6875c5.66985 0 10.3125-4.64266 10.3125-10.3125v-19.375c0-5.66985-4.64265-10.31249-10.3125-10.31249h-69.6875v-69.687488c0-5.669844-4.64264-10.3125-10.31248-10.3125z" fill="url(#radialGradient4271)"/>
    <path d="m88.991883 40.919352c-5.66985 0-10.31251 4.642656-10.31251 10.3125v69.687488h-69.687493c-5.669846 0-10.312498 4.64264-10.312498 10.31249v19.375c0 .549.228738 1.0361.312498 1.5625 16.288428 2.34784 33.456702 3.75 51.249992 3.75 57.507858 0 109.029198-13.14915 142.968728-33.75-1.44619-.77575-3.09673-1.24999-4.84373-1.24999h-69.6875v-69.687488c0-5.669844-4.64264-10.3125-10.31248-10.3125z" fill="url(#linearGradient4268)"/>
    <path d="m88.991883 40.919352c-5.66985 0-10.31251 4.642656-10.31251 10.3125v5c0-5.669846 6.64266-13.312498 12.31251-13.312498h19.375007c1.41744 0 2.82994.25741 4.06248.78125.5513 1.24759 2.4375 5.62289 2.4375 7.062498l1.8125 70.156238.15626-69.687488c0-2.87814-1.20531-5.467904-3.12501-7.343748-.43885-.438852-.89515-.89511-1.40625-1.250002-.0384-.02604-.11744.02554-.15624 0-.5104-.345654-.99336-.686348-1.5625-.9375-.0433-.0184-.11266.0178-.15626 0-.573-.243512-1.25554-.488154-1.87498-.624998-.0512-.0106-.1048.0098-.15626 0-.61834-.12746-1.22274-.14604-1.875-.15626h-.15624-2.34376zm-80.000003 79.999988c-5.669846 0-10.312498 4.64264-10.312498 10.31249v5c0-5.66985 4.642652-13.3125 10.312498-13.3125l69.687493-1.99999zm109.68749 0 68.79882 2.55859c-33.79596 18.1355-89.112307 31.9727-142.548819 31.97265-8.896644 0-17.697709-.44975-26.249992-1.09375 10.301965.9346 20.897062 1.5625 31.718744 1.5625 53.850307 0 102.418737-11.61855 136.250007-30 .0398-.0216.1164.0216.1562 0 2.2128-1.20615 4.32312-2.48555 6.40624-3.75-.68152-.3656-1.42646-.7239-2.18747-.9375-.05-.0132-.106.0126-.15621 0-.76188-.20225-1.52688-.2989-2.34374-.31249h-.1562-2.34376z" fill="url(#linearGradient4265)"/>
    <path d="m88.991883 40.919352c-5.66985 0-10.31251 4.642656-10.31251 10.3125v5c0-5.669846 6.64266-13.312498 12.31251-13.312498h19.375007c1.41744 0 2.82994.25741 4.06248.78125.5513 1.24759 2.4375 5.62289 2.4375 7.062498l1.8125 70.156238.15626-69.687488c0-2.87814-1.20531-5.467904-3.12501-7.343748-.43885-.438852-.89515-.89511-1.40625-1.250002-.0384-.02604-.11744.02554-.15624 0-.5104-.345654-.99336-.686348-1.5625-.9375-.0433-.0184-.11266.0178-.15626 0-.573-.243512-1.25554-.488154-1.87498-.624998-.0512-.0106-.1048.0098-.15626 0-.61834-.12746-1.22274-.14604-1.875-.15626h-.15624-2.34376zm-80.000003 79.999988c-5.669846 0-10.312498 4.64264-10.312498 10.31249v5c0-5.66985 4.642652-13.3125 10.312498-13.3125l69.687493-1.99999zm109.68749 0 69.2871 2.55859c-33.79595 18.1355-89.600587 31.9727-143.037099 31.97265-8.896644 0-17.697709-.44975-26.249992-1.09375 10.301965.9346 20.897062 1.5625 31.718744 1.5625 53.850307 0 102.418737-11.61855 136.250007-30 .0398-.0216.1164.0216.1562 0 2.2128-1.20615 4.32312-2.48555 6.40624-3.75-.68152-.3656-1.42646-.7239-2.18747-.9375-.05-.0132-.106.0126-.15621 0-.76188-.20225-1.52688-.2989-2.34374-.31249h-.1562-2.34376z" fill="url(#linearGradient4262)"/>
    <path d="m62.0625 43.999992c-1.13397 0-2.062504.928531-2.062504 2.0625v13.9375h-13.9375c-1.133969 0-2.0625.928528-2.0625 2.062498v3.875c0 1.13397.928531 2.0625 2.0625 2.0625h13.9375v13.93751c0 1.13397.928534 2.0625 2.062504 2.0625h3.875c1.13397 0 2.0625-.92853 2.0625-2.0625v-13.93751h13.9375c1.13397 0 2.0625-.92853 2.0625-2.0625v-3.875c0-1.13397-.92853-2.062498-2.0625-2.062498h-13.9375v-13.9375c0-1.133969-.92853-2.0625-2.0625-2.0625z" style="fill:none;stroke-width:.5;stroke-linecap:round;stroke-linejoin:round;stroke-dashoffset:1.0878;stroke:url(#linearGradient4259);filter:url(#filter3191)" transform="matrix(4.9999992 0 0 4.9999992 -221.32056 -179.08056)"/>
  </g>
</svg>
