<svg height="256" width="256" xmlns="http://www.w3.org/2000/svg" xmlns:xlink="http://www.w3.org/1999/xlink">
  <defs>
    <linearGradient id="linearGradient6674">
      <stop offset="0" stop-color="#bf5e00"/>
      <stop offset="1" stop-color="#bf5e00" stop-opacity="0"/>
    </linearGradient>
    <linearGradient id="linearGradient6446">
      <stop offset="0" stop-color="#fff"/>
      <stop offset="1" stop-color="#fff" stop-opacity="0"/>
    </linearGradient>
    <radialGradient id="radialGradient9692" cx="-127.999999" cy="183.579045" gradientUnits="userSpaceOnUse" r="101.213259" spreadMethod="pad">
      <stop offset="0" stop-color="#ffbf00"/>
      <stop offset="1" stop-color="#ff7e00"/>
    </radialGradient>
    <linearGradient id="linearGradient6410" gradientUnits="userSpaceOnUse" x1="79.483872" x2="22.916128" y1="227.09678" y2="26.012904">
      <stop offset="0" stop-color="#ed7500"/>
      <stop offset="1" stop-color="#ff7b07"/>
    </linearGradient>
    <linearGradient id="linearGradient6452" gradientUnits="userSpaceOnUse" spreadMethod="reflect" x1="21.507897" x2="15.602036" xlink:href="#linearGradient6446" y1="21.721349" y2="27.627209"/>
    <filter id="filter6458" height="1.145266" width="1.152245" x="-.076123" y="-.072633">
      <feGaussianBlur stdDeviation=".28444187"/>
    </filter>
    <linearGradient id="linearGradient6464" gradientUnits="userSpaceOnUse" spreadMethod="reflect" x1="21.507897" x2="15.539791" xlink:href="#linearGradient6446" y1="21.721349" y2="27.689454"/>
    <linearGradient id="linearGradient6470" gradientUnits="userSpaceOnUse" spreadMethod="reflect" x1="21.507897" x2="14.373943" xlink:href="#linearGradient6446" y1="21.721349" y2="28.855302"/>
    <linearGradient id="linearGradient6637" gradientUnits="userSpaceOnUse" x1="110.658066" x2="110.658066" y1="224" y2="149.826294">
      <stop offset="0" stop-color="#703700"/>
      <stop offset="1" stop-color="#bf5e00" stop-opacity="0"/>
    </linearGradient>
    <linearGradient id="linearGradient6649" gradientUnits="userSpaceOnUse" x1="124.077424" x2="124.077424" y1="31.82742" y2="101.45797">
      <stop offset="0" stop-color="#ffdfbf"/>
      <stop offset="1" stop-color="#ffdfbf" stop-opacity="0"/>
    </linearGradient>
    <linearGradient id="linearGradient6680" gradientUnits="userSpaceOnUse" x1="38.19355" x2="160.095398" xlink:href="#linearGradient6674" y1="101.161294" y2="133.79515"/>
    <linearGradient id="linearGradient2816" gradientUnits="userSpaceOnUse" x1="118.451614" x2="118.451614" xlink:href="#linearGradient6446" y1="-63.425492" y2="196.33435"/>
    <linearGradient id="linearGradient3231" gradientUnits="userSpaceOnUse" x1="118.976339" x2="118.976339" xlink:href="#linearGradient6446" y1="15.794643" y2="92.457717"/>
    <linearGradient id="linearGradient3233" gradientUnits="userSpaceOnUse" x1="186.163513" x2="63.219801" xlink:href="#linearGradient6446" y1="123.159892" y2="43.892688"/>
    <linearGradient id="linearGradient3243" gradientUnits="userSpaceOnUse" x1="-60.945251" x2="-59.415245" y1="105.83054" y2="45.631207">
      <stop offset="0" stop-color="#ffeb8b"/>
      <stop offset="1" stop-color="#fff" stop-opacity="0"/>
    </linearGradient>
    <filter id="filter3281" height="1.029709" width="1.029709" x="-.014855" y="-.014855">
      <feGaussianBlur stdDeviation=".32872878"/>
    </filter>
    <linearGradient id="linearGradient3289" gradientUnits="userSpaceOnUse" x1="60.402065" x2="60.402065" xlink:href="#linearGradient6674" y1="64.076149" y2="-20.962214"/>
    <filter id="filter3319" height="1.080899" width="1.080899" x="-.040449" y="-.040449">
      <feGaussianBlur stdDeviation="1.6179775"/>
    </filter>
    <linearGradient id="linearGradient4284-5" gradientTransform="matrix(4.9999992 0 0 4.9999992 159.67935 -510.3206)" gradientUnits="userSpaceOnUse" x1="-13.757333" x2="-62.424866" xlink:href="#XMLID_4_-5" y1="76.708466" y2="104.80668"/>
    <radialGradient id="XMLID_4_-5" cx="48" cy="-.2148" gradientTransform="matrix(.9792 0 0 .9725 133.0002 20.8762)" gradientUnits="userSpaceOnUse" r="55.147999">
      <stop offset="0" stop-color="#ff0101"/>
      <stop offset="1" stop-color="#800000"/>
    </radialGradient>
    <linearGradient id="linearGradient4291" gradientUnits="userSpaceOnUse" spreadMethod="reflect" x1="73.742638" x2="80" xlink:href="#linearGradient6446" y1="15.336544" y2="19.281664"/>
    <filter id="filter3387-0" height="1.1775" width="1.172683" x="-.086341" y="-.08875">
      <feGaussianBlur stdDeviation=".44655691"/>
    </filter>
    <radialGradient id="radialGradient4275-3" cx="-60.32061" cy="-90.320663" fx="-140.3206" fy="-10.32068" gradientUnits="userSpaceOnUse" r="119.99998">
      <stop offset="0" stop-opacity=".779026"/>
      <stop offset="1" stop-opacity="0"/>
    </radialGradient>
    <radialGradient id="radialGradient4271-4" cx="-44" cy="84" fx="-40" fy="96" gradientTransform="matrix(4.9999992 0 0 4.9999992 159.67935 -510.3206)" gradientUnits="userSpaceOnUse" r="20" xlink:href="#XMLID_4_-5"/>
    <linearGradient id="linearGradient4268-4" gradientUnits="userSpaceOnUse" x1="-95.352844" x2="-95.352844" y1="-207.62413" y2="29.73131">
      <stop offset="0" stop-color="#ff8787"/>
      <stop offset="1" stop-color="#ff8787" stop-opacity="0"/>
    </linearGradient>
    <linearGradient id="linearGradient4265-3" gradientUnits="userSpaceOnUse" x1="-120.32065" x2="-95.403526" xlink:href="#linearGradient6446" y1="-250.32065" y2="-30.313511"/>
    <linearGradient id="linearGradient4262-1" gradientUnits="userSpaceOnUse" x1="-20.320641" x2="-80.320641" xlink:href="#linearGradient6446" y1="-30.320681" y2="-150.32066"/>
    <linearGradient id="linearGradient4259-9" gradientUnits="userSpaceOnUse" x1="61.622574" x2="62.097939" xlink:href="#linearGradient6446" y1="57.512505" y2="85.106239"/>
    <filter id="filter3191-6" height="1.184" width="1.0368" x="-.0184" y="-.092">
      <feGaussianBlur stdDeviation=".2025"/>
    </filter>
  </defs>
  <rect fill="url(#linearGradient3289)" filter="url(#filter3319)" height="96" rx="10.083601" transform="scale(2)" width="96" x="16" y="16"/>
  <rect fill="url(#linearGradient6410)" height="192" rx="20.167202" width="192" x="32" y="32"/>
  <rect fill="url(#linearGradient6680)" height="192" opacity=".082902" rx="20.167202" width="192" x="32" y="32"/>
  <rect fill="url(#radialGradient9692)" height="173.54117" rx="14.002863" transform="scale(-1 1)" width="173.54117" x="-214.77058" y="41.229416"/>
  <path d="m54.374999 40.562499c-7.98045 0-14.375 6.39455-14.375 14.375v67.562501c57.962154 14.61327 119.171001 8.75537 174.562501-12.5625.56404-.66537 1.05076-1.34392 1.4375-2v-53.000001c0-7.98045-6.39454-14.375-14.375-14.375z" fill="url(#linearGradient2816)"/>
  <path d="m67.999999 112c-4.084852 0-8.089156.31603-12 .9375v16.3125c3.886058-.79171 7.881242-1.25 12-1.25 33.120001 0 60.000001 26.88001 60.000001 60 0 4.11876-.45829 8.11394-1.25 12h16.3125c.62147-3.91084.9375-7.91515.9375-12 0-41.95198-34.04801-76-76.000001-76zm0 32c-4.206098 0-8.271978.58379-12.125 1.6875.06145.47497.125.94527.125 1.4375v15.625c3.649612-1.74359 7.687904-2.75 12-2.75 15.455994-.00001 28 12.54401 28 28 0 4.31209-1.006406 8.35039-2.75 12h17.062501c1.08248-3.8187 1.6875-7.83604 1.6875-12 0-24.28799-19.712001-44-44.000001-44zm0 32c-6.624 0-12 5.37601-12 12 0 6.624 5.375998 12 12 12 6.624 0 11.999998-5.376 12-12 0-6.624-5.376002-12.00001-12-12z" fill="#fff"/>
  <path d="m25.906944 16.299378c-4.690175 0-9.397509 3.568001-9.397509 9.39874l4.267305-.05891c.452373-2.129835 2.851964-4.270962 4.526605-4.603385z" fill="url(#linearGradient6452)" filter="url(#filter6458)" opacity=".887641" transform="scale(2)"/>
  <path d="m25.397509 16.46919c-4.690175 0-8.967908 3.654709-8.967908 9.485448l4.347139-.315433c.452373-2.129835 2.851964-4.270962 4.526605-4.603385z" fill="url(#linearGradient6464)" filter="url(#filter6458)" opacity=".868914" transform="matrix(-2 0 0 2 255.73482 -.000001)"/>
  <path d="m31.999999 195.75v8.0625c0 11.17262 9.01487 20.1875 20.1875 20.1875h151.625001c11.17262 0 20.1875-9.01486 20.1875-20.1875v-8.0625c0 11.17262-9.01488 20.1875-20.1875 20.1875h-151.625001c-11.17263 0-20.1875-9.01488-20.1875-20.1875z" fill="url(#linearGradient6637)" opacity=".082902"/>
  <path d="m26.246568 16.978625c-4.690175 0-9.477343 3.654709-9.477343 9.485448l4.007515-.824868c.452373-2.129835 2.851964-4.270962 4.526605-4.603385z" fill="url(#linearGradient6470)" filter="url(#filter6458)" opacity=".326425" transform="matrix(2 0 0 -2 -.000001 256.17572)"/>
  <path d="m26.246568 16.978625c-4.690175 0-9.477343 3.654709-9.477343 9.485448l4.007515-.824868c.452373-2.129835 2.851964-4.270962 4.526605-4.603385z" fill="url(#linearGradient6470)" filter="url(#filter6458)" opacity=".176166" transform="matrix(-2 0 0 -2 255.73482 256.17572)"/>
  <path d="m31.999999 60.077419v-8.0625c0-11.17262 9.01487-20.1875 20.1875-20.1875h151.625001c11.17262 0 20.1875 9.01486 20.1875 20.1875v8.0625c0-11.17262-9.01488-20.1875-20.1875-20.1875h-151.625001c-11.17263 0-20.1875 9.01488-20.1875 20.1875z" fill="url(#linearGradient6649)" opacity=".388601"/>
  <path d="m54.882605 40.562499c-7.98045 0-14.375 6.39455-14.375 14.375v2c0-7.98045 6.39455-14.375 14.375-14.375h147.249995c7.98046 0 14.375 6.39455 14.375 14.375v-2c0-7.98045-6.39454-14.375-14.375-14.375z" fill="url(#linearGradient3231)"/>
  <path d="m208.42154 43.892687c3.19072 2.62959 5.25 6.573496 5.25 11.0625v53.000003c-.38674.65607-.87348 1.33464-1.4375 2-54.49555 20.97305-114.624415 26.97665-171.749995 13.25v1.125c57.96214 14.61326 119.170985 8.75537 174.562495-12.5625.56404-.66537 1.05076-1.34393 1.4375-2v-53.000003c0-5.706022-3.28208-10.548168-8.0625-12.875z" fill="url(#linearGradient3233)"/>
  <rect fill="none" filter="url(#filter3281)" height="86.770584" rx="7.001432" stroke="url(#linearGradient3243)" stroke-linecap="round" stroke-linejoin="round" transform="scale(-2 2)" width="86.770584" x="-107.38529" y="20.614708"/>
  <g transform="matrix(.5 0 0 .5 218.82065 233.83063)">
    <path d="m-150.00813-130.32066c-16.58762 0-30.3125 13.72488-30.3125 30.31248v19.375c0 16.58765 13.72488 30.3125 30.3125 30.3125h179.375c16.5876 0 30.31248-13.72485 30.31248-30.3125v-19.375c0-16.5876-13.72488-30.31248-30.31248-30.31248z" fill="url(#linearGradient4284-5)"/>
    <path d="m69.875971 12.057888c-1.077088.06528-2.528221.219164-3 .9375l1.589684 11.138061 10.534345-.759359v-.46875c1.740958-2.57016-4.780448-10.906792-9.124029-10.847452z" fill="url(#linearGradient4291)" fill-rule="evenodd" filter="url(#filter3387-0)" opacity=".550562" transform="matrix(2.4999998 0 0 2.4999998 -138.54251 -160.46458)" visibility="hidden"/>
    <path d="m-150.00813-130.32066c-16.58762 0-30.31251 6.26955-30.31251 22.85715.00001-4.73137.00001 16.95566.00001 26.83033 0 16.58765 13.72488 30.3125 30.3125 30.3125h179.375c16.5876 0 30.31248-13.72485 30.31248-30.3125v-19.375c0-16.5876-13.72488-30.31248-30.31248-30.31248z" fill="url(#radialGradient4275-3)" opacity=".580524"/>
    <path d="m69.875971 12.057888c-1.077088.06528-2.528221.219164-3 .9375l1.589684 11.138061 10.534345-.759359v-.46875c1.740958-2.57016-4.780448-10.906792-9.124029-10.847452z" fill="url(#linearGradient4291)" fill-rule="evenodd" filter="url(#filter3387-0)" opacity=".550562" transform="matrix(-2.4999998 0 0 2.4999998 17.90119 -160.46458)" visibility="hidden"/>
    <path d="m-150.00813-110.32066c-5.66985 0-10.3125 4.64264-10.3125 10.31248v19.375c0 5.66985 4.64265 10.3125 10.3125 10.3125h179.375c5.66984 0 10.3125-4.64265 10.3125-10.3125v-19.375c0-5.66984-4.64266-10.31248-10.3125-10.31248z" fill="url(#radialGradient4271-4)"/>
    <path d="m-150.00813-110.32066c-5.66985 0-10.3125 4.64264-10.3125 10.31248v19.375c0 .549.22874 1.0361.3125 1.5625 16.28842 2.34785 33.4567 3.75 51.24999 3.75 57.50786 0 109.0292-13.14915 142.96873-33.74999-1.44618-.77575-3.09672-1.24999-4.84372-1.24999z" fill="url(#linearGradient4268-4)"/>
    <path d="m-150.00813-110.32066c-5.66985 0-10.3125 4.64264-10.3125 10.31248v5c0-5.66985 4.64265-13.31249 10.3125-13.31249zm178.48632 2.55859c-33.79597 18.13549-89.11232 31.97269-142.54883 31.97264-8.89664 0-17.69771-.44975-26.24999-1.09375 10.30196.9346 20.89706 1.5625 31.71874 1.5625 53.85031 0 102.41875-11.61855 136.25002-29.99999.0398-.0216.1164.0216.1562 0 2.2128-1.20616 4.32312-2.48555 6.40624-3.75-.68152-.3656-1.42646-.7239-2.18748-.9375-.05-.0132-.106.0126-.1562 0-.76188-.20225-1.52688-.2989-2.34374-.31249h-.1562-2.34376z" fill="url(#linearGradient4265-3)"/>
    <path d="m-150.00813-110.32066c-5.66985 0-10.3125 4.64264-10.3125 10.31248v5c0-5.66985 4.64265-13.31249 10.3125-13.31249zm178.9746 2.55859c-33.79595 18.13549-89.6006 31.97269-143.03711 31.97264-8.89665 0-17.69771-.44975-26.24999-1.09375 10.30196.9346 20.89706 1.5625 31.71874 1.5625 53.85031 0 102.41875-11.61855 136.25002-29.99999.0398-.0216.1164.0216.1562 0 2.2128-1.20616 4.32312-2.48555 6.40624-3.75-.68152-.3656-1.42646-.7239-2.18748-.9375-.05-.0132-.106.0126-.1562 0-.76188-.20225-1.52688-.2989-2.34374-.31249h-.1562-2.34376z" fill="url(#linearGradient4262-1)"/>
    <path d="m46.062496 59.999992c-1.133969 0-2.0625.928528-2.0625 2.062498v3.875c0 1.13397.928531 2.0625 2.0625 2.0625h35.875004c1.13397 0 2.0625-.92853 2.0625-2.0625v-3.875c0-1.13397-.92853-2.062498-2.0625-2.062498z" style="fill:none;stroke-width:.5;stroke-linecap:round;stroke-linejoin:round;stroke-dashoffset:1.0878;stroke:url(#linearGradient4259-9);filter:url(#filter3191-6)" transform="matrix(4.9999992 0 0 4.9999992 -380.32057 -410.32056)"/>
  </g>
</svg>
