<svg enable-background="new 0 0 121 120" height="256" viewBox="0 0 256 256" width="256" xmlns="http://www.w3.org/2000/svg" xmlns:xlink="http://www.w3.org/1999/xlink">
  <defs>
    <linearGradient id="linearGradient4013">
      <stop offset="0" stop-color="#fff"/>
      <stop offset="1" stop-color="#fff" stop-opacity="0"/>
    </linearGradient>
    <filter id="filter5956" height="1.089982" width="1.04574" x="-.02287" y="-.044991">
      <feGaussianBlur stdDeviation=".55418773"/>
    </filter>
    <filter id="filter6074" height="1.149692" width="1.149692" x="-.074846" y="-.074846">
      <feGaussianBlur stdDeviation="1.9142018"/>
    </filter>
    <clipPath id="clipPath6080">
      <circle cx="-166.53223" cy="93.331604" filter="url(#filter6074)" r="30.690229"/>
    </clipPath>
    <radialGradient id="radialGradient6084" cx="-166.53223" cy="65.938202" gradientTransform="matrix(1 0 0 .6578174 0 22.562908)" gradientUnits="userSpaceOnUse" r="31.190229" xlink:href="#linearGradient4013"/>
    <radialGradient id="radialGradient3960" cx="-166.53223" cy="65.938202" gradientTransform="matrix(.5375647 0 0 .6578174 -77.010381 22.562908)" gradientUnits="userSpaceOnUse" r="31.190229">
      <stop offset="0" stop-color="#00c4cc"/>
      <stop offset="1" stop-color="#fff" stop-opacity="0"/>
    </radialGradient>
    <radialGradient id="radialGradient3962" cx="-128.000068" cy="95.742812" gradientUnits="userSpaceOnUse" r="111.097057">
      <stop offset="0" stop-color="#0081ec"/>
      <stop offset="1" stop-color="#003871"/>
    </radialGradient>
    <radialGradient id="radialGradient3966" cx="-128.00005" cy="205.618713" gradientUnits="userSpaceOnUse" r="104.576287">
      <stop offset="0" stop-color="#0081ec"/>
      <stop offset="1" stop-color="#004c98"/>
    </radialGradient>
    <linearGradient id="linearGradient3977" gradientUnits="userSpaceOnUse" x1="118.261098" x2="120.662023" xlink:href="#linearGradient4013" y1="24.717585" y2="107.670797"/>
    <linearGradient id="linearGradient3980" gradientUnits="userSpaceOnUse" x1="180.806485" x2="99.789041" xlink:href="#linearGradient4013" y1="160.841732" y2="81.424957"/>
    <linearGradient id="linearGradient3983" gradientUnits="userSpaceOnUse" x1="118.261098" x2="118.261098" xlink:href="#linearGradient4013" y1="-210.382501" y2="154.615374"/>
    <linearGradient id="linearGradient3987" gradientUnits="userSpaceOnUse" x1="200.02928" x2="200.02928" y1="24.663849" y2="210.8788">
      <stop offset="0" stop-color="#a4c0e4"/>
      <stop offset="1" stop-color="#a4c0e4" stop-opacity="0"/>
    </linearGradient>
    <filter id="filter4737" height="1.048" width="1.048" x="-.024" y="-.024">
      <feGaussianBlur stdDeviation=".61380459"/>
    </filter>
    <linearGradient id="linearGradient4747" gradientUnits="userSpaceOnUse" x1="-175.8602" x2="-174.98068" y1="125.05635" y2="67.385735">
      <stop offset="0" stop-color="#00316e"/>
      <stop offset="1" stop-color="#00316e" stop-opacity="0"/>
    </linearGradient>
    <filter id="filter1590-2" color-interpolation-filters="sRGB" height="1.200572" width="1.226559" x="-.11071" y="-.100286">
      <feGaussianBlur stdDeviation="1.4825898"/>
    </filter>
  </defs>
  <circle cx="-166.53223" cy="93.331604" fill="url(#linearGradient4747)" filter="url(#filter4737)" r="30.690229" transform="matrix(-3.5876219 0 0 3.5876219 -469.45467 -206.83851)"/>
  <circle clip-path="url(#clipPath6080)" cx="-166.53223" cy="93.331604" fill="url(#radialGradient3960)" filter="url(#filter6074)" r="30.690229" transform="matrix(-3.5619186 0 0 -3.5619186 -465.17418 460.4396)"/>
  <circle cx="-128.00005" cy="128.00002" fill="url(#radialGradient3962)" r="109.3161" transform="scale(-1 1)"/>
  <circle clip-path="url(#clipPath6080)" cx="-166.53223" cy="93.331604" fill="url(#radialGradient6084)" filter="url(#filter6074)" r="30.690229" transform="matrix(-3.5619186 0 0 3.5619186 -465.17418 -204.43957)"/>
  <circle cx="-128.00005" cy="127.52911" fill="url(#radialGradient3966)" r="102.89986" transform="scale(-1 1)"/>
  <path d="m127.98986 24.66606c-56.800747 0-102.856587 46.055867-102.856587 102.8566 0 5.28792.335461 10.52055 1.105989 15.59439.0055.0356-.0055.075 0 .11061 21.62699 3.45916 44.657902 5.19813 68.571029 5.19813 51.088229 0 98.245479-8.53698 136.036149-22.8939-1.06252-55.882805-46.72121-100.865813-102.85658-100.865821z" fill="url(#linearGradient3987)" opacity=".892193"/>
  <path d="m35.266679 59.904184c0 4.311609.942174 7.649114 2.826503 10.012514 1.884329 2.363401 4.519199 3.545098 7.904619 3.545098 2.107895 0 3.976258-.590849 5.605088-1.772546 1.628831-1.181705 2.890369-2.874408 3.784634-5.078119l7.665086 2.251618c-1.852397 3.992232-4.167892 6.88261-6.946487 8.671123-2.778585 1.788522-6.148029 2.682778-10.108321 2.682778-6.164005 0-10.938713-1.772546-14.324123-5.317648-3.353477-3.545102-5.030216-8.543374-5.030216-14.994818 0-6.483382 1.62883-11.41778 4.886491-14.80319 3.25766-3.385412 7.93656-5.078118 14.036681-5.078118 4.151926 0 7.617177.89426 10.395772 2.682779 2.810527 1.788519 4.982298 4.551143 6.51532 8.287871l-7.473461 1.964174c-.830381-1.948209-2.028044-3.465256-3.593-4.551143-1.533023-1.085887-3.401386-1.62883-5.605098-1.62883-3.481227 0-6.116097 1.117824-7.904609 3.353474-1.756589 2.235649-2.634879 5.493309-2.634879 9.77298z" style="fill:none;opacity:.7;stroke:#00366b;stroke-width:.945312;visibility:hidden;filter:url(#filter1590-2)" transform="matrix(3.1100825 0 0 3.1100825 -11.771978 -58.97742)"/>
  <path d="m97.910313 127.32956c0 13.40946 2.930227 23.78934 8.790647 31.13973 5.86042 7.35036 14.05509 11.02555 24.58402 11.02555 6.55573 0 12.36649-1.83762 17.43229-5.51277 5.0658-3.6752 8.98928-8.93964 11.77052-15.79337l23.83905 7.00273c-5.7611 12.41617-12.96249 21.40547-21.60415 26.96787-8.64163 5.56248-19.12088 8.34368-31.43771 8.34368-19.17057 0-34.020297-5.51277-44.5492-16.53832-10.429591-11.02555-15.644387-26.57058-15.644387-46.6351 0-20.16385 5.065797-35.510262 15.19739-46.039152 10.13159-10.52892 24.683357-15.79336 43.655237-15.79336 12.91283 0 23.69005 2.7812 32.33171 8.34364 8.74097 5.56244 15.49535 14.15445 20.26318 25.77596l-23.24308 6.108772c-2.58256-6.059112-6.30739-10.777262-11.17453-14.154452-4.76783-3.3772-10.57859-5.06578-17.43232-5.06578-10.8269 0-19.02156 3.47653-24.58398 10.42959-5.46314 6.953022-8.194687 17.084612-8.194687 30.394782z" fill="#f4f4f4" opacity=".908" stroke-width="2.3839"/>
  <path d="m-134.09375 98.625c-.003.166656-.0312.332675-.0312.5 0 16.04925 13.0445 29.0625 29.09375 29.0625 16.049249 0 29.062503-13.01325 29.0625-29.0625 0-.167107.0028-.33356 0-.5-.267346 15.81875-13.180358 28.5625-29.0625 28.5625-15.88193 0-28.79481-12.74404-29.0625-28.5625z" fill="#007fea" filter="url(#filter5956)" transform="matrix(-3.5391516 0 0 3.5391516 -243.78752 -222.21358)"/>
  <path d="m127.92809 24.739161c-56.800713 0-102.856586 46.055873-102.856586 102.856619 0 .52093-.0067 1.02859 0 1.54836 1.061542-55.881803 46.721201-100.865836 102.856586-100.8658 54.94159 0 99.86472 43.101116 102.746 97.32665.0319-.0122.0785.0122.11067 0-1.06258-55.882806-46.7213-100.865791-102.85667-100.865829z" fill="url(#linearGradient3983)"/>
  <path d="m127.92809 24.739161c-56.800713 0-102.856586 46.055873-102.856586 102.856619 0 .52093-.0067 1.02859 0 1.54836 1.061542-55.881803 46.721201-102.281499 102.856586-102.281461 54.94159 0 99.86472 44.516777 102.746 98.742311.0319-.0122.0785.0122.11067 0-1.06258-55.882806-46.7213-100.865791-102.85667-100.865829z" fill="url(#linearGradient3977)" opacity=".8"/>
  <path d="m166.47134 32.109069c34.124 16.266329 62.18293 52.386416 62.94594 92.517281-37.79066 14.35695-91.23719 22.26878-142.325424 22.26882-19.895421.4217-39.158192-.26764-60.969995-3.74521.0053.0356-.0055.075 0 .1106 21.626945 3.45913 44.657932 5.1981 68.571056 5.1981 51.088233 0 98.245493-8.53691 136.036153-22.89386-.80434-42.302494-27.14393-78.429414-64.25773-93.455731z" fill="url(#linearGradient3980)" opacity=".6"/>
</svg>
