<svg height="256" width="256" xmlns="http://www.w3.org/2000/svg" xmlns:xlink="http://www.w3.org/1999/xlink">
  <defs>
    <filter id="filter4755" height="1.111361" width="1.070719" x="-.03536" y="-.05568">
      <feGaussianBlur stdDeviation="1.0251142"/>
    </filter>
    <linearGradient id="linearGradient11746" gradientUnits="userSpaceOnUse" x1="98.683632" x2="98.683632" y1="84.08482" y2="148.190262">
      <stop offset="0" stop-color="#e5edf8"/>
      <stop offset="1" stop-color="#fafafa"/>
    </linearGradient>
    <linearGradient id="linearGradient11743" gradientUnits="userSpaceOnUse" x1="98.683632" x2="98.683632" xlink:href="#linearGradient4089" y1="85.111653" y2="136.685044"/>
    <linearGradient id="linearGradient4089">
      <stop offset="0" stop-color="#dee1e5"/>
      <stop offset="1" stop-color="#fafafa"/>
    </linearGradient>
    <linearGradient id="linearGradient11740" gradientTransform="matrix(1 0 0 .9090909 -2.415098 54.889807)" gradientUnits="userSpaceOnUse" x1="87.53772" x2="87.53772" xlink:href="#linearGradient3953" y1="86.377098" y2="-16.000978"/>
    <linearGradient id="linearGradient3953">
      <stop offset="0" stop-color="#e0e0e0"/>
      <stop offset="1" stop-color="#fff"/>
    </linearGradient>
    <linearGradient id="linearGradient11725" gradientUnits="userSpaceOnUse" x1="98.683632" x2="98.683632" xlink:href="#linearGradient4089" y1="96.053749" y2="160.546413"/>
    <clipPath id="clipPath4018">
      <rect height="71.191017" width="112" x="8" y="30.477533"/>
    </clipPath>
    <filter id="filter4459" height="1.200543" width="1.065992" x="-.032996" y="-.100272">
      <feGaussianBlur stdDeviation="1.5398218"/>
    </filter>
    <linearGradient id="linearGradient11720" gradientTransform="matrix(1 0 0 .9280118 -2.415098 60.375691)" gradientUnits="userSpaceOnUse" x1="68.019264" x2="68.019264" xlink:href="#linearGradient3953" y1="50.058746" y2="119.35289"/>
    <linearGradient id="linearGradient4016" gradientTransform="matrix(1 0 0 -.9280118 -2.415098 172.76018)" gradientUnits="userSpaceOnUse" x1="68.019264" x2="68.019264" xlink:href="#linearGradient3953" y1="47.688831" y2="102.47923"/>
    <radialGradient id="radialGradient845" cx="128.82677" cy="128.10286" gradientTransform="matrix(1.0496551 .00000003 -.00000003 1.1036727 -194.34207 -213.04728)" gradientUnits="userSpaceOnUse" r="103.96655">
      <stop offset="0" stop-color="#fff" stop-opacity=".999365"/>
      <stop offset="1" stop-color="#fff" stop-opacity="0"/>
    </radialGradient>
    <radialGradient id="radialGradient873" cx="123.58932" cy="81.856438" gradientTransform="matrix(1.2604118 .01660855 -.07116307 5.4004193 -26.358997 -337.37043)" gradientUnits="userSpaceOnUse" r="14.457345">
      <stop offset="0" stop-color="#fdf4a4"/>
      <stop offset="1" stop-color="#ecd40c"/>
    </radialGradient>
    <radialGradient id="radialGradient881" cx="135.28246" cy="82.310966" gradientTransform="matrix(2.5375325 -.04724251 .10068898 5.4082932 -216.28897 -330.31102)" gradientUnits="userSpaceOnUse" r="14.45734">
      <stop offset="0" stop-color="#eed404"/>
      <stop offset="1" stop-color="#fff180"/>
    </radialGradient>
    <radialGradient id="radialGradient945" cx="150.14912" cy="110.04501" gradientTransform="matrix(1.6402258 -.44110995 .19665902 .73125804 -117.97224 97.314311)" gradientUnits="userSpaceOnUse" r="51.983276">
      <stop offset="0" stop-color="#fce94f"/>
      <stop offset="1" stop-color="#fdf3a8"/>
    </radialGradient>
    <radialGradient id="radialGradient889" cx="185.83896" cy="106.87302" gradientTransform="matrix(-1.3013006 .41308165 -.14254588 -.44905176 455.86394 80.681908)" gradientUnits="userSpaceOnUse" r="51.983276">
      <stop offset="0" stop-color="#c6a200"/>
      <stop offset="1" stop-color="#dfbd00"/>
    </radialGradient>
    <radialGradient id="radialGradient897" cx="146.22264" cy="150.70227" gradientTransform="matrix(1.2635102 1.7427766 -.67439702 .48893673 63.102 -185.75026)" gradientUnits="userSpaceOnUse" r="32.12743">
      <stop offset="0" stop-color="#edd400"/>
      <stop offset="1" stop-color="#ebd200"/>
    </radialGradient>
    <radialGradient id="radialGradient905" cx="137.85384" cy="172.23495" gradientTransform="matrix(1.3708189 1.0358307 -.44019451 .58255366 23.281441 -72.45469)" gradientUnits="userSpaceOnUse" r="32.12743">
      <stop offset="0" stop-color="#d7b518"/>
      <stop offset="1" stop-color="#c69d01"/>
    </radialGradient>
    <radialGradient id="radialGradient913" cx="104.5392" cy="159.95218" gradientTransform="matrix(-.61614102 -.78763586 1.4998849 -1.1733095 -54.509855 441.60037)" gradientUnits="userSpaceOnUse" r="32.127434">
      <stop offset="0" stop-color="#ebc209"/>
      <stop offset="1" stop-color="#d1ab01"/>
    </radialGradient>
    <radialGradient id="radialGradient921" cx="76.865028" cy="183.30855" gradientTransform="matrix(.50351979 .24070298 -.81823647 1.7116458 188.1517 -144.61525)" gradientUnits="userSpaceOnUse" r="32.127434">
      <stop offset="0" stop-color="#ffef5f"/>
      <stop offset="1" stop-color="#e7ce00"/>
    </radialGradient>
    <radialGradient id="radialGradient929" cx="52.375164" cy="118.02059" gradientTransform="matrix(-1.208202 -.43566307 .15981277 -.44320057 144.28634 202.27634)" gradientUnits="userSpaceOnUse" r="51.983276">
      <stop offset="0" stop-color="#eccb00"/>
      <stop offset="1" stop-color="#cea400"/>
    </radialGradient>
    <radialGradient id="radialGradient937" cx="107.79362" cy="123.61239" gradientTransform="matrix(-1.2016462 -.40484524 .12221645 -.36275819 222.21594 202.25181)" gradientUnits="userSpaceOnUse" r="51.983276">
      <stop offset="0" stop-color="#ffeb4c"/>
      <stop offset="1" stop-color="#fcf1a1"/>
    </radialGradient>
    <linearGradient id="linearGradient2247" gradientUnits="userSpaceOnUse" x1="-17.96615" x2="-85.33134" y1="-5.90042" y2="-164.237801">
      <stop offset="0" stop-color="#987000"/>
      <stop offset="1" stop-color="#c29d00"/>
    </linearGradient>
    <linearGradient id="linearGradient2278" gradientUnits="userSpaceOnUse" x1="10.52657" x2="-64.84225" y1="-10.95625" y2="-169.672269">
      <stop offset="0" stop-color="#ecb900"/>
      <stop offset="1" stop-color="#ffd301"/>
    </linearGradient>
    <filter id="filter4402" color-interpolation-filters="sRGB" height="1.097683" width="1.093013" x="-.046506" y="-.048841">
      <feGaussianBlur stdDeviation="4.338583"/>
    </filter>
  </defs>
  <g transform="matrix(-2 0 0 2 251.16981 -104.96371)">
    <path d="m5.5849018 79.719353v3.625 3.625l56.0000002 36.374997 55.999998-36.374997v-3.625-3.625z" fill="#fff" opacity=".5"/>
    <path d="m5.5849018 80.919353v1.625.5 1.525 66.184857 1.29014h1.0377086.4198446.022097 110.520348v-67.474997-1.525-.5-1.625z" style="opacity:.688372;stroke:#000;stroke-width:3;stroke-linecap:round;stroke-linejoin:round;filter:url(#filter4755)"/>
    <rect fill="url(#linearGradient11746)" height="72" width="112" x="5.584902" y="80.344353"/>
    <rect fill="url(#linearGradient11743)" height="72" width="112" x="5.584902" y="80.344353"/>
    <path d="m5.5849018 80.344353v3.625l56.0000002 36.374997 55.999998-36.374997v-3.625z" fill="url(#linearGradient11740)"/>
    <path d="m5.5849018 83.969353v68.374997h111.9999982v-68.374997l-55.999998 36.374997z" fill="url(#linearGradient11725)"/>
    <path d="m5.5849018 83.969353 56.0000002 38.374997 55.999998-38.374997-55.999998 36.374997z" fill="#fff"/>
    <path clip-path="url(#clipPath4018)" d="m8 33.000267 47.420173 34.356424 8.579827-6.063681 8.652644 6.014271 47.347356-34.307014v-2.499197h-112z" fill="#2d2d2d" filter="url(#filter4459)" opacity=".5" transform="matrix(1 0 0 -.9994652 -2.415098 182.80558)"/>
    <path d="m5.5849018 149.46482 56.0000002-37.12047 55.999998 37.12047v2.06703c0 .46607-.27261.81271-.76875.81271h-110.4968732c-.4101346 0-.7324931-.28055-.734518-.82052z" fill="url(#linearGradient11720)"/>
    <path d="m61.584902 112.34435-56.0000002 37.125v1l56.0000002-32.125 55.999998 32.125v-1z" fill="#fff"/>
    <path clip-path="url(#clipPath4018)" d="m8 35.001337 56 42.300234 56-42.300234v-4.500267h-112z" fill="#2d2d2d" filter="url(#filter4459)" opacity=".5" transform="matrix(1 0 0 .9994652 -2.415098 50.330289)"/>
    <path d="m5.5849018 83.671049 56.0000002 39.120471 55.999998-39.120471v-2.511996c0-.46607-.27261-.8127-.76875-.8127h-110.4968732c-.4101346 0-.7324931.28054-.734518.82051z" fill="url(#linearGradient4016)"/>
    <path d="m61.584902 122.79152-56.0000002-39.125001v-1l56.0000002 34.125001 55.999998-34.225001v1z" fill="#fff"/>
    <rect fill="#fff" height="4" opacity=".832558" rx="2.721268" ry="2.6666" width="112" x="5.584902" y="80.344353"/>
  </g>
  <g transform="matrix(.5 0 0 .5 218.37893 105.82695)">
    <path d="m-59.1184-189.2413a2.5734699 2.5734699 0 0 0 -2.375 1.58398l-29.816406 71.68555-77.388674 6.20508a2.5734699 2.5734699 0 0 0 -1.46875 4.51953l58.96289 50.50781-18.01562 75.51953a2.5734699 2.5734699 0 0 0 3.8457 2.79297l66.25586-40.46875 66.25586 40.46875a2.5734699 2.5734699 0 0 0 3.8457-2.79297l-18.01562-75.51953 58.96289-50.50781a2.5734699 2.5734699 0 0 0 -1.46875-4.51953l-77.38867-6.20508-29.81641-71.68555a2.5734699 2.5734699 0 0 0 -2.375-1.58398z" fill="#ffd301" filter="url(#filter4402)" stroke-linecap="round" stroke-linejoin="round" stroke-width="3"/>
    <path d="m-59.1184-186.66825 30.41909 73.1363 78.95678 6.32993-60.15674 51.53064 18.37887 77.04841-67.598-41.28862-67.59801 41.28862 18.37887-77.04841-60.15673-51.53065 78.956767-6.32992z" fill="url(#linearGradient2247)" stroke="url(#linearGradient2278)" stroke-linecap="round" stroke-linejoin="round" stroke-width="3"/>
    <g transform="translate(-187.94517 -199.22931)">
      <path d="m100.01012 87.902942 28.81665 39.826768v-109.110309z" fill="url(#radialGradient873)"/>
      <path d="m128.82677 127.72971 28.81664-39.826768-28.81664-69.283541z" fill="url(#radialGradient881)"/>
      <path d="m128.82677 127.72971 28.81664-39.826768 74.79741 5.996478z" fill="url(#radialGradient945)"/>
      <path d="m128.82677 127.72971 46.62631 14.98576 56.98774-48.81605z" fill="url(#radialGradient889)"/>
      <path d="m128.82677 127.72971 46.62631 14.98576 17.41069 72.98957z" fill="url(#radialGradient897)"/>
      <path d="m128.82677 127.72971 64.037 87.97533-64.037-39.11357z" fill="url(#radialGradient905)"/>
      <path d="m128.82677 127.72971v48.86176l-64.037008 39.11357z" fill="url(#radialGradient913)"/>
      <path d="m128.82677 127.72971-64.037008 87.97533 17.410684-72.98957z" fill="url(#radialGradient921)"/>
      <path d="m128.82677 127.72971-46.626324 14.98576-56.987726-48.81606z" fill="url(#radialGradient929)"/>
      <path d="m128.82677 127.72971-103.61405-33.8303 74.7974-5.996468z" fill="url(#radialGradient937)"/>
    </g>
    <path d="m50.01058-107.12181-107.49204 35.98972 65.8085 92.29913-67.44544-91.10983-67.44545 91.10983 65.80851-92.29913-107.49208-35.98973 108.11733 34.0654 1.01169-113.35227 1.01168 113.35227z" fill="url(#radialGradient845)"/>
  </g>
</svg>
