<svg enable-background="new" height="256" width="256" xmlns="http://www.w3.org/2000/svg" xmlns:xlink="http://www.w3.org/1999/xlink">
  <defs>
    <linearGradient id="lg1">
      <stop offset="0" stop-color="#fff"/>
      <stop offset="1" stop-color="#fff" stop-opacity="0"/>
    </linearGradient>
    <linearGradient id="linearGradient3344">
      <stop offset="0" stop-color="#fdff63"/>
      <stop offset="1" stop-color="#fff" stop-opacity="0"/>
    </linearGradient>
    <filter id="filter3891-5" height="1.089103" width="1.168914" x="-.084457" y="-.044551">
      <feGaussianBlur stdDeviation="1.5750545"/>
    </filter>
    <radialGradient id="radialGradient5616-9" cx="59.940041" cy="56.035801" fx="59.940041" fy="56.035801" gradientTransform="matrix(2.529521 0 0 4.6368512 -23.621786 -131.15562)" gradientUnits="userSpaceOnUse" r="24.090857" xlink:href="#XMLID_4_-3-3"/>
    <radialGradient id="XMLID_4_-3-3" cx="48" cy="-.2148" gradientTransform="matrix(.9792 0 0 .9725 133.0002 20.8762)" gradientUnits="userSpaceOnUse" r="55.147999">
      <stop offset="0" stop-color="#fff718"/>
      <stop offset="1" stop-color="#e77100"/>
    </radialGradient>
    <radialGradient id="radialGradient4028-5" cx="92.609375" cy="2.384881" gradientTransform="matrix(3.49562 -2.4342373 .6597955 .94748129 -257.69134 225.62669)" gradientUnits="userSpaceOnUse" r="1.515625" xlink:href="#lg1"/>
    <filter id="filter3957-2" height="1.276605" width="1.259841" x="-.129921" y="-.138303">
      <feGaussianBlur stdDeviation=".16747573"/>
    </filter>
    <linearGradient id="linearGradient5612-4" gradientUnits="userSpaceOnUse" x1="70.0049886074" x2="186.0797924381" y1="128.54904198302" y2="128.54904198302">
      <stop offset="0" stop-color="#753919"/>
      <stop offset="1" stop-color="#753919" stop-opacity="0"/>
    </linearGradient>
    <radialGradient id="radialGradient4032-4" cx="92.504089" cy="1.991497" gradientTransform="matrix(1.6002822 -3.1923724 1.0321559 .51740226 -58.053329 296.8628)" gradientUnits="userSpaceOnUse" r="1.515625" xlink:href="#linearGradient3344"/>
    <radialGradient id="radialGradient4034-7" cx="92.609375" cy="2.384881" gradientTransform="matrix(3.49562 -2.4342373 .6597955 .94748129 -265.30336 257.27635)" gradientUnits="userSpaceOnUse" r="1.515625" xlink:href="#lg1"/>
    <radialGradient id="radialGradient5608-8" cx="47.98196" cy="64.88855" fx="45.620869" fy="43.625381" gradientTransform="matrix(.64675488 .3025808 -1.0316083 2.2050232 128.17749 18.568215)" gradientUnits="userSpaceOnUse" r="22.407845">
      <stop offset="0" stop-color="#31170a"/>
      <stop offset="1" stop-color="#542912" stop-opacity="0"/>
    </radialGradient>
    <radialGradient id="radialGradient4036-8" cx="77" cy="40.033596" gradientTransform="matrix(4.6717758 0 0 9.3632124 -188.57541 -327.20425)" gradientUnits="userSpaceOnUse" r="19.958006">
      <stop offset="0" stop-color="#ffea00"/>
      <stop offset="1" stop-color="#fc0"/>
    </radialGradient>
    <radialGradient id="radialGradient4038-1" cx="92.609375" cy="2.384881" gradientTransform="matrix(3.49562 -2.4342373 .6597955 .94748129 -232.69134 225.62669)" gradientUnits="userSpaceOnUse" r="1.515625" xlink:href="#linearGradient3344"/>
    <radialGradient id="radialGradient4040-4" cx="77" cy="43.275459" gradientTransform="matrix(4.6717758 0 0 9.3632124 -188.57541 -327.20425)" gradientUnits="userSpaceOnUse" r="19.958006">
      <stop offset="0" stop-color="#ffea00"/>
      <stop offset="1" stop-color="#dea200"/>
    </radialGradient>
    <radialGradient id="radialGradient4042-0" cx="54.0625" cy="56" fx="59.98452" fy="46.739941" gradientTransform="matrix(4.1259296 .7195094 -2.030875 11.64578 3.801387 -562.47868)" gradientUnits="userSpaceOnUse" r="14.0625" xlink:href="#XMLID_4_-3-3"/>
    <linearGradient id="linearGradient4044-6" gradientUnits="userSpaceOnUse" x1="120.56091352952" x2="131.2978726669" y1="209.528161" y2="135.5192913993">
      <stop offset="0" stop-color="#fffccf"/>
      <stop offset="1" stop-color="#fff" stop-opacity="0"/>
    </linearGradient>
    <linearGradient id="linearGradient4046-2" gradientUnits="userSpaceOnUse" x1="113.91109118592" x2="133.79137328786" y1="96.63119693112" y2="22.43698173819">
      <stop offset="0" stop-color="#fff" stop-opacity="0"/>
      <stop offset=".5" stop-color="#fff" stop-opacity=".18705"/>
      <stop offset="1" stop-color="#fff"/>
    </linearGradient>
    <linearGradient id="linearGradient4048-9" gradientUnits="userSpaceOnUse" x1="131.4378513" x2="111.38981642438" xlink:href="#lg1" y1="128.583489" y2="93.85927446322"/>
    <filter id="filter3911-4" height="1.038035" width="1.098383" x="-.046055" y="-.021564">
      <feGaussianBlur stdDeviation=".43658741"/>
    </filter>
    <radialGradient id="radialGradient4693-7" cx="67.273438" cy="2.351479" gradientTransform="matrix(2.1582105 2.7612836 -.9564263 .74753972 -100.66778 -185.24544)" gradientUnits="userSpaceOnUse" r="1.351563" xlink:href="#lg1"/>
    <filter id="filter3991-2" height="1.284083" width="1.324416" x="-.162208" y="-.142041">
      <feGaussianBlur stdDeviation=".17107863"/>
    </filter>
    <linearGradient id="linearGradient2264" gradientUnits="userSpaceOnUse" x1="61" x2="105" y1="44" y2="72">
      <stop offset="0" stop-color="#382a23"/>
      <stop offset="1" stop-color="#753919" stop-opacity="0"/>
    </linearGradient>
    <linearGradient id="linearGradient2266" gradientUnits="userSpaceOnUse" x1="30.450985" x2="41.028702" y1="79.965019" y2="40.488441">
      <stop offset="0" stop-color="#ffeb4a"/>
      <stop offset="1" stop-color="#ffeb4a" stop-opacity="0"/>
    </linearGradient>
  </defs>
  <path d="m57.59375 13.574219a2.4257372 2.4257372 0 0 0 -2.296875 1.644531l-13.59375 40a2.4257372 2.4257372 0 0 0 2.296875 3.207031h6.005859l-12.30664 36.804688a2.4257372 2.4257372 0 0 0 4.320312 2.111328l31.90625-48a2.4257372 2.4257372 0 0 0 -2.019531-3.767578h-6.267578l16.36914-28.361328a2.4257372 2.4257372 0 0 0 -2.101562-3.638672z" fill="url(#linearGradient2264)" filter="url(#filter3891-5)" transform="matrix(2.529521 0 0 2.529521 -23.654564 -6.745883)"/>
  <path d="m122.09247 16.222365c-4.87934-.02886-9.0549 2.947648-10.62202 7.568802a5.0941274 5.0941274 0 0 0 -.014.03954l-33.56557 101.877433c-.00058.002.00058.004 0 .006-2.58172 7.35562 2.83066 14.91564 10.62694 14.84118h8.05792l-29.599178 85.64692a5.0941274 5.0941274 0 0 0 -.0098.0296c-1.836406 5.41266.495356 11.14986 5.696362 13.65544 5.200996 2.50562 11.145136.77406 14.243376-4.05118l81.44859-122.13336a5.0941274 5.0941274 0 0 0 .006-.006c2.30192-3.4639 2.56022-7.75436.55828-11.47672-2.00196-3.722359-5.74354-5.855399-9.876-5.844579h-7.24286l36.32728-63.41576c2.0448-3.5298 2.02364-7.666804.01-11.175344-2.01354-3.508414-5.64182-5.548258-9.61416-5.562972a5.0941274 5.0941274 0 0 0 -.02 0z" fill="url(#radialGradient5616-9)" stroke-width="2.52952"/>
  <path d="m66 1.6874995-.96875 2.9062505 3.09375-.1875005c-.15911-2.224387-1.155152-2.4401352-2.125-2.71875z" fill="url(#radialGradient4028-5)" filter="url(#filter3957-2)" transform="matrix(3.7135868 0 0 3.7135868 -65.209766 11.845265)"/>
  <path d="m122.02329 16.340937c-4.78248.03768-8.85812 2.998894-10.37498 7.534218a4.8981992 4.8981992 0 0 0 -.01.0198l-33.57053 101.902165c-2.48958 7.1967 2.75994 14.60348 10.37498 14.63864a4.8981992 4.8981992 0 0 0 .0248 0h8.29998l-29.687282 85.75172.06916-.1878c-2.128676 5.41962.16922 11.36838 5.409814 13.93214 5.240608 2.56374 11.360248.76328 14.347128-4.26858l-.1334.2174 81.48319-122.18772c2.3147-3.43486 2.52786-7.72986.56816-11.37792-1.9597-3.648039-5.64552-5.853559-9.80684-5.819859h-7.3268l36.32728-63.52459c2.06058-3.500642 2.00018-7.645328.0296-11.086416-1.96972-3.43965-5.5421-5.54687-9.545-5.543208h-56.43992a4.8981992 4.8981992 0 0 0 -.0396 0z" fill="url(#linearGradient5612-4)" stroke-width="2.52952"/>
  <path d="m89.78466 2.9912276.46534 3.5691631 3.25065-2.1541407c-.15911-2.224387-3.25065-2.506427-3.71599-1.4150224z" fill="url(#radialGradient4032-4)" filter="url(#filter3957-2)" transform="matrix(-3.1874772 0 0 -3.1874772 366.93483 245.74388)"/>
  <path d="m58.387959 33.337184-.96875 2.90625 3.09375-.1875c-.15911-2.224387-1.155152-2.440135-2.125-2.71875z" fill="url(#radialGradient4034-7)" filter="url(#filter3957-2)" transform="matrix(3.7337304 0 0 3.7337304 -57.353236 -26.360109)"/>
  <path d="m122.02823 16.731235c-4.60278.03628-8.5495 2.902498-10.00938 7.267432a4.5063432 4.5063432 0 0 0 -.01.02964l-33.33337 102.134353c-2.39202 6.91462 2.69278 14.0861 10.0094 14.11986a4.5063432 4.5063432 0 0 0 .02 0h8.82862l-30.077584 86.01854.0593-.158c-2.047516 5.21298.17676 10.9723 5.217124 13.43808 5.04038 2.4658 10.96588.72354 13.83826-4.1154l-.1284.20256 82.27861-122.98314c2.22884-3.30742 2.43542-7.465.5484-10.97774-1.887-3.512739-5.44998-5.644799-9.45606-5.612359h-8.04308l35.91228-63.322024v-.005c1.98048-3.368046 1.92232-7.372468.0248-10.686238-1.89772-3.313636-5.34954-5.353872-9.2042-5.35041h-56.43992a4.5063432 4.5063432 0 0 0 -.0346 0z" fill="url(#radialGradient5608-8)" stroke-width="2.52952"/>
  <path d="m77.55906 229.76432 34.82235-99.65238h-23.73613l33.59643-103.999997h56.47324l-44.81018 79.999997h26.47664z" fill="url(#radialGradient4036-8)" stroke-width="2.52952"/>
  <path d="m91 1.6874995-.96875 2.9062505 3.09375-.1875005c-.15911-2.224387-1.155152-2.4401352-2.125-2.71875z" fill="url(#radialGradient4038-1)" filter="url(#filter3957-2)" transform="matrix(-3.4858452 0 0 -3.4858452 404.79905 143.9943)"/>
  <path d="m77.55906 229.76432 34.82235-99.65238 18.2976-11.64654 27.59164-10.11808z" fill="url(#radialGradient4040-4)" stroke-width="2.52952"/>
  <path d="m122.06283 27.402651-33.39569 102.709289h23.71427l-34.82235 99.65238 50.59043-111.29892h-20.23618l40.78852-91.062749z" fill="url(#radialGradient4042-0)" stroke-width="2.52952"/>
  <path d="m122.26969 26.111943-31.99179 99.704877c6.79292-.0838 12.71897-3.79564 17.30767-5.5672 5.83662.2312 16.37998.71762 19.3883.65656 11.10912-2.7914 23.76788-8.91878 32.69612-13.68758l.71142-1.10666h-26.48092l44.80914-79.999997z" fill="url(#linearGradient4044-6)" stroke-width="2.52952"/>
  <path d="m122.27751 26.111943-.39524 1.26476h54.5428l-44.81696 79.999997h26.48092l-.63238.94858c.74556-.37744 1.48448-.71738 2.21334-1.10668l.71142-1.10666h-26.48092l44.81696-79.999997z" fill="url(#linearGradient4046-2)" stroke-width="2.52952"/>
  <path d="m157.06141 106.11194c-7.76844 4.11834-19.48848 9.70762-28.92756 12.35346l-20.37472.1406c-5.1208 2.17616-10.71069 5.59376-17.11615 5.77294l-.47428 1.3438c6.49256-.0802 12.73295-3.8004 17.38993-5.50586l19.4714.68724c11.2162-2.79612 23.63788-8.87724 32.63996-13.68548l.71142-1.10666z" fill="url(#linearGradient4048-9)" stroke-width="2.52952"/>
  <path d="m26 84 13.766383-39.395754h-9.383646l13.281733-41.1145037 15.33553 7.0102577-10.724752 24.616283h10.467059z" fill="none" filter="url(#filter3911-4)" stroke="url(#linearGradient2266)" transform="matrix(2.529521 0 0 2.529521 11.791504 17.284567)"/>
  <path d="m43.625 1.7812495.53125 2.890625-2.53125-1.421875c.17769-.5642061.687414-1.4701237 2-1.46875z" fill="url(#radialGradient4693-7)" filter="url(#filter3991-2)" opacity=".811881" transform="matrix(3.8020256 0 0 3.8020256 -44.78702 11.339585)"/>
</svg>
