<svg height="256" width="256" xmlns="http://www.w3.org/2000/svg" xmlns:xlink="http://www.w3.org/1999/xlink">
  <defs>
    <linearGradient id="linearGradient6446">
      <stop offset="0" stop-color="#fff"/>
      <stop offset="1" stop-color="#fff" stop-opacity="0"/>
    </linearGradient>
    <radialGradient id="radialGradient9692" cx="42.700352" cy="103.5803" gradientTransform="matrix(-2.3781598 0 0 2.3781598 229.54826 -62.751461)" gradientUnits="userSpaceOnUse" r="42.559486" spreadMethod="pad">
      <stop offset="0" stop-color="#00c900"/>
      <stop offset="1" stop-color="#006500"/>
    </radialGradient>
    <linearGradient id="linearGradient6410" gradientUnits="userSpaceOnUse" x1="24" x2="22.916128" y1="136" y2="26.012904">
      <stop offset="0" stop-color="#004d00"/>
      <stop offset="1" stop-color="#006b00"/>
    </linearGradient>
    <linearGradient id="linearGradient6452" gradientUnits="userSpaceOnUse" spreadMethod="reflect" x1="13.507897" x2="7.602036" xlink:href="#linearGradient6446" y1="13.721349" y2="19.627209"/>
    <filter id="filter6458" height="1.145266" width="1.152245" x="-.076123" y="-.072633">
      <feGaussianBlur stdDeviation=".28444187"/>
    </filter>
    <linearGradient id="linearGradient6464" gradientUnits="userSpaceOnUse" spreadMethod="reflect" x1="21.507897" x2="15.539791" xlink:href="#linearGradient6446" y1="21.721349" y2="27.689454"/>
    <linearGradient id="linearGradient6470" gradientUnits="userSpaceOnUse" spreadMethod="reflect" x1="21.507897" x2="14.373943" xlink:href="#linearGradient6446" y1="21.721349" y2="28.855302"/>
    <linearGradient id="linearGradient6637" gradientTransform="scale(2)" gradientUnits="userSpaceOnUse" x1="55.329033" x2="55.329033" xlink:href="#linearGradient4770" y1="112" y2="74.913147"/>
    <linearGradient id="linearGradient6680" gradientUnits="userSpaceOnUse" x1="38.19355" x2="160.095398" y1="101.161294" y2="133.79515">
      <stop offset="0" stop-color="#32b800"/>
      <stop offset="1" stop-color="#bff500" stop-opacity="0"/>
    </linearGradient>
    <linearGradient id="linearGradient2816" gradientUnits="userSpaceOnUse" x1="118.451614" x2="118.451614" xlink:href="#linearGradient6446" y1="-63.425492" y2="196.33435"/>
    <linearGradient id="linearGradient3231" gradientUnits="userSpaceOnUse" x1="118.976339" x2="118.976339" xlink:href="#linearGradient6446" y1="15.794643" y2="92.457717"/>
    <linearGradient id="linearGradient3233" gradientUnits="userSpaceOnUse" x1="232.000005" x2="63.219801" xlink:href="#linearGradient6446" y1="144.000003" y2="43.892687"/>
    <linearGradient id="linearGradient3243" gradientUnits="userSpaceOnUse" x1="-60.945251" x2="-59.415245" y1="105.83054" y2="45.631207">
      <stop offset="0" stop-color="#ffeb8b"/>
      <stop offset="1" stop-color="#fff" stop-opacity="0"/>
    </linearGradient>
    <filter id="filter3281" height="1.02533" width="1.024842" x="-.012421" y="-.012665">
      <feGaussianBlur stdDeviation=".32872878"/>
    </filter>
    <linearGradient id="linearGradient3289" gradientTransform="matrix(0 1 -1 0 -39.9985 140.0029)" gradientUnits="userSpaceOnUse" x1="60.402065" x2="60.402065" y1="64.076149" y2="-20.962214">
      <stop offset="0" stop-color="#144c00"/>
      <stop offset="1" stop-color="#5b7500" stop-opacity="0"/>
    </linearGradient>
    <filter id="filter3319" height="1.069342" width="1.069342" x="-.034671" y="-.034671">
      <feGaussianBlur stdDeviation="1.6179775"/>
    </filter>
    <linearGradient id="linearGradient3075">
      <stop offset="0" stop-color="#fff"/>
      <stop offset=".42597079" stop-color="#fff"/>
      <stop offset=".5892781" stop-color="#f1f1f1"/>
      <stop offset=".80219781" stop-color="#eaeaea"/>
      <stop offset="1" stop-color="#dfdfdf"/>
    </linearGradient>
    <linearGradient id="linearGradient4770" gradientTransform="matrix(0 1 -1 0 -39.9985 140.0029)" gradientUnits="userSpaceOnUse" x1="-84.002403" x2="-12.0029" y1="-383.9971" y2="-383.9971">
      <stop offset="0" stop-color="#e5ff00"/>
      <stop offset="1" stop-color="#bff500" stop-opacity="0"/>
    </linearGradient>
    <radialGradient id="radialGradient3443" cx="63.96875" cy="66.125" fx="79.944847" fy="81.962006" gradientTransform="matrix(1.4607746 .9720434 -1.4690494 2.2076692 131.62653 -75.912521)" gradientUnits="userSpaceOnUse" r="44.043648" spreadMethod="reflect" xlink:href="#linearGradient3075"/>
    <filter id="filter3487" height="1.039159" width="1.033312" x="-.016656" y="-.01958">
      <feGaussianBlur stdDeviation=".61137351"/>
    </filter>
    <filter id="filter3491" height="1.026104" width="1.02221" x="-.011105" y="-.013052">
      <feGaussianBlur stdDeviation=".40755289"/>
    </filter>
    <clipPath id="clipPath3495">
      <path d="m-93.928355 26.46875c-1.530347.0426-2.961334.686235-4.03125 1.78125l-16.906255 16.90625-.0937.0625c-.90982.63942-1.62687 1.516932-2.0625 2.59375-.7188 1.776821-.48619 3.766011.5 5.34375.15448.24713.30737.493854.5.71875.11916.139108.24156.277105.375.40625.0701.07003.11409.121216.1875.1875l17.500005 17.5c1.479032 1.540452 3.652281 2.132471 5.71875 1.59375 2.066472-.538722 3.680028-2.121031 4.21875-4.1875.538723-2.066471-.0533-4.270969-1.59375-5.75l-7.625-7.625h26.1875c2.126604.03007 4.115419-1.100653 5.1875-2.9375 1.072082-1.836845 1.072081-4.100653 0-5.9375-1.07208-1.83685-3.060892-2.936326-5.1875-2.90625h-26.1875l7.625-7.625c1.735348-1.696583 2.259277-4.296651 1.3125-6.53125-.946775-2.2346-3.199016-3.660283-5.625-3.59375zm40.90625 32c-.519027-.0056-1.045883.05282-1.5625.1875-2.066469.538721-3.648778 2.152281-4.1875 4.21875-.538724 2.06647.0533 4.270969 1.59375 5.75l7.625 7.625h-26.1875c-2.126609-.03008-4.115419 1.069403-5.1875 2.90625-1.072079 1.836847-1.072081 4.100653 0 5.9375 1.072083 1.836845 3.060892 2.967576 5.1875 2.9375h26.1875l-7.625 7.625c-1.735345 1.696585-2.259277 4.29665-1.3125 6.53125.946778 2.2346 3.167766 3.66028 5.59375 3.59375 1.530346-.0426 2.992584-.68624 4.0625-1.78125l16.875-16.90625.09375-.0625c.90983-.639417 1.65813-1.548182 2.09375-2.625.71881-1.776818.48619-3.734761-.5-5.3125-.15447-.247131-.30737-.493854-.5-.71875-.11915-.139105-.24156-.277105-.375-.40625-.07012-.07003-.14534-.152466-.21875-.21875l-17.46875-17.46875c-1.109275-1.155337-2.630418-1.795809-4.1875-1.8125z"/>
    </clipPath>
    <radialGradient cx="63.96875" cy="66.125" fx="79.944847" fy="81.962006" gradientTransform="matrix(.6328574 .4211224 -.6364423 .9564376 -71.795444 -24.058106)" gradientUnits="userSpaceOnUse" r="44.043648" spreadMethod="reflect" xlink:href="#linearGradient3075"/>
    <clipPath id="clipPath3501">
      <path d="m-189.50809 26.46875c-1.53035.0426-2.96134.686235-4.03125 1.78125l-16.90626 16.90625-.0937.0625c-.90982.63942-1.62687 1.516932-2.0625 2.59375-.7188 1.776821-.48619 3.766011.5 5.34375.15448.24713.30737.493854.5.71875.11916.139108.24156.277105.375.40625.0701.07003.11409.121216.1875.1875l17.50001 17.5c1.47903 1.540452 3.65228 2.132471 5.71875 1.59375 2.06647-.538722 3.68002-2.121031 4.21875-4.1875.53872-2.066471-.0533-4.270969-1.59375-5.75l-7.625-7.625h26.1875c2.1266.03007 4.11542-1.100653 5.1875-2.9375 1.07208-1.836845 1.07208-4.100653 0-5.9375-1.07208-1.83685-3.0609-2.936326-5.1875-2.90625h-26.1875l7.625-7.625c1.73534-1.696583 2.25927-4.296651 1.3125-6.53125-.94678-2.2346-3.19902-3.660283-5.625-3.59375zm40.90625 32c-.51903-.0056-1.04589.05282-1.5625.1875-2.06647.538721-3.64878 2.152281-4.1875 4.21875-.53873 2.06647.0533 4.270969 1.59375 5.75l7.625 7.625h-26.1875c-2.12661-.03008-4.11542 1.069403-5.1875 2.90625s-1.07208 4.100653 0 5.9375c1.07208 1.836845 3.06089 2.967576 5.1875 2.9375h26.1875l-7.625 7.625c-1.73535 1.696585-2.25928 4.29665-1.3125 6.53125.94677 2.2346 3.16776 3.66028 5.59375 3.59375 1.53034-.0426 2.99258-.68624 4.0625-1.78125l16.875-16.90625.0937-.0625c.90983-.639417 1.65813-1.548182 2.09375-2.625.71881-1.776818.48619-3.734761-.5-5.3125-.15447-.247131-.30737-.493854-.5-.71875-.11915-.139105-.24156-.277105-.375-.40625-.0701-.07003-.14534-.152466-.21875-.21875l-17.46875-17.46875c-1.10928-1.155337-2.63042-1.795809-4.1875-1.8125z"/>
    </clipPath>
    <radialGradient cx="63.96875" cy="66.125" fx="79.944847" fy="81.962006" gradientTransform="matrix(.6328574 .4211224 -.6364423 .9564376 -167.37518 -24.058106)" gradientUnits="userSpaceOnUse" r="44.043648" spreadMethod="reflect" xlink:href="#linearGradient3075"/>
    <radialGradient id="radialGradient3179" cx="64" cy="-8.622761" gradientTransform="matrix(2 0 0 .2522322 -.000001 26.174937)" gradientUnits="userSpaceOnUse" r="56" xlink:href="#linearGradient4770"/>
  </defs>
  <path d="m18.083601 8h91.832799c5.58631 0 10.0836 4.497286 10.0836 10.083601v91.832799c0 5.58631-4.49729 10.0836-10.0836 10.0836h-91.832799c-5.586315 0-10.083601-4.49729-10.083601-10.0836v-91.832799c0-5.586315 4.497286-10.083601 10.083601-10.083601z" fill="url(#linearGradient3289)" filter="url(#filter3319)" transform="scale(2)"/>
  <path d="m36.167201 15.999999h183.665599c11.17262 0 20.1672 8.994572 20.1672 20.167202v183.665599c0 11.17262-8.99458 20.1672-20.1672 20.1672h-183.665599c-11.17263 0-20.167202-8.99458-20.167202-20.1672v-183.665599c0-11.17263 8.994572-20.167202 20.167202-20.167202z" fill="url(#linearGradient6410)"/>
  <path d="m36.167201 19.999999h183.665599c11.17262 0 20.1672 8.994572 20.1672 20.167202v179.665599c0 11.17262-8.99458 20.1672-20.1672 20.1672h-183.665599c-11.17263 0-20.167202-8.99458-20.167202-20.1672v-179.665599c0-11.17263 8.994572-20.167202 20.167202-20.167202z" fill="url(#linearGradient6680)" opacity=".082902"/>
  <path d="m218.76772 25.229415h-179.535443c-7.757586 0-14.002862 6.245276-14.002862 14.002862v177.535443c0 7.75758 6.245276 14.00286 14.002862 14.00286h179.535443c7.75758 0 14.00286-6.24528 14.00286-14.00286v-177.535443c0-7.757586-6.24528-14.002862-14.00286-14.002862z" fill="url(#radialGradient9692)"/>
  <path d="m17.906944 8.299378c-4.690175 0-9.397509 3.568001-9.397509 9.39874l4.267305-.05891c.452373-2.129835 2.851964-4.270962 4.526605-4.603385z" fill="url(#linearGradient6452)" filter="url(#filter6458)" opacity=".887641" transform="scale(2)"/>
  <path d="m25.397509 16.46919c-4.690175 0-8.967908 3.654709-8.967908 9.485448l4.347139-.315433c.452373-2.129835 2.851964-4.270962 4.526605-4.603385z" fill="url(#linearGradient6464)" filter="url(#filter6458)" opacity=".868914" transform="matrix(-2 0 0 2 271.73482 -16.000001)"/>
  <path d="m15.999999 211.75v8.0625c0 11.17262 9.01487 20.1875 20.1875 20.1875h183.625001c11.17262 0 20.1875-9.01486 20.1875-20.1875v-8.0625c0 11.17262-9.01488 20.1875-20.1875 20.1875h-183.625001c-11.17263 0-20.1875-9.01488-20.1875-20.1875z" fill="url(#linearGradient6637)" opacity=".082902"/>
  <path d="m26.246568 16.978625c-4.690175 0-9.477343 3.654709-9.477343 9.485448l4.007515-.824868c.452373-2.129835 2.851964-4.270962 4.526605-4.603385z" fill="url(#linearGradient6470)" filter="url(#filter6458)" opacity=".326425" transform="matrix(2 0 0 -2 -16.000001 272.17572)"/>
  <path d="m26.246568 16.978625c-4.690175 0-9.477343 3.654709-9.477343 9.485448l4.007515-.824868c.452373-2.129835 2.851964-4.270962 4.526605-4.603385z" fill="url(#linearGradient6470)" filter="url(#filter6458)" opacity=".176166" transform="matrix(-2 0 0 -2 271.73482 272.17572)"/>
  <path d="m15.999999 44.077419v-8.0625c0-11.17262 9.01487-20.1875 20.1875-20.1875h183.625001c11.17262 0 20.1875 9.01486 20.1875 20.1875v8.0625c0-11.17262-9.01488-20.1875-20.1875-20.1875h-183.625001c-11.17263 0-20.1875 9.01488-20.1875 20.1875z" fill="url(#radialGradient3179)" opacity=".388601"/>
  <path d="m38.882605 24.562499c-7.98045 0-14.375 6.39455-14.375 14.375v2c0-7.98045 6.39455-14.375 14.375-14.375h179.249995c7.98046 0 14.375 6.39455 14.375 14.375v-2c0-7.98045-6.39454-14.375-14.375-14.375z" fill="url(#linearGradient3231)"/>
  <path d="m224.42154 27.892687c3.19072 2.62959 5.25 6.573496 5.25 11.0625v69.000003c-.38674.65607-.87348 1.33464-1.4375 2-54.49555 20.97305-146.624415 26.97665-203.749995 13.25v1.125c57.96214 14.61326 151.170985 8.75537 206.562495-12.5625.56404-.66537 1.05076-1.34393 1.4375-2v-69.000003c0-5.706022-3.28208-10.548168-8.0625-12.875z" fill="url(#linearGradient3233)"/>
  <path d="m-109.38386 13.614708h89.767721c3.878793 0 7.001431 3.122638 7.001431 7.001431v87.767721c0 3.87879-3.122638 7.00143-7.001431 7.00143h-89.767721c-3.87879 0-7.00143-3.12264-7.00143-7.00143v-87.767721c0-3.878793 3.12264-7.001431 7.00143-7.001431z" fill="none" filter="url(#filter3281)" stroke="url(#linearGradient3243)" stroke-linecap="round" stroke-linejoin="round" transform="scale(-2 2)"/>
  <path d="m38.374999 24.562499c-7.98045 0-14.375 6.39455-14.375 14.375v83.562501c57.962154 14.61327 151.171001 8.75537 206.562501-12.5625.56404-.66537 1.05076-1.34392 1.4375-2v-69.000001c0-7.98045-6.39454-14.375-14.375-14.375z" fill="url(#linearGradient2816)"/>
  <path d="m80.538883 40.714619c-3.532378.09832-6.835412 1.583982-9.305014 4.111518l-39.023358 39.023358-.216396.14426c-2.100084 1.475922-3.755194 3.501414-4.760704 5.986948-1.65916 4.101294-1.122244 8.692784 1.15411 12.334557.356554.57043.709478 1.13992 1.15411 1.65903.275028.32109.557574.63962.865582.93772.16186.16164.263334.27979.432792.43279l40.393864 40.39386c3.413932 3.5557 8.43027 4.92222 13.200138 3.67873 4.769872-1.24349 8.494316-4.89581 9.737806-9.66568 1.243492-4.76987-.12302-9.85834-3.678728-13.27227l-17.600182-17.60018h60.446527c4.90868.0694 9.4993-2.54055 11.9739-6.7804 2.4746-4.239843 2.4746-9.465211 0-13.705059-2.4746-4.239856-7.06521-6.77769-11.9739-6.708268h-60.446527l17.600182-17.600182c4.005568-3.916088 5.21491-9.91762 3.02954-15.075568-2.185366-5.15795-7.384034-8.44874-12.983742-8.295168zm94.420657 73.863061c-1.19803-.0128-2.41413.12192-3.60659.4328-4.76987 1.24348-8.42219 4.96794-9.66568 9.7378-1.24349 4.76987.12302 9.85834 3.67873 13.27227l17.60018 17.60019h-60.44653c-4.90868-.0694-9.4993 2.46841-11.9739 6.70826-2.47459 4.23985-2.47459 9.46521 0 13.70506 2.47461 4.23985 7.06522 6.84982 11.9739 6.7804h60.44653l-17.60018 17.60018c-4.00556 3.9161-5.21491 9.91762-3.02954 15.07558 2.18537 5.15794 7.3119 8.44872 12.91161 8.29516 3.53237-.0984 6.90754-1.584 9.37715-4.11152l38.95122-39.02336.2164-.14426c2.10008-1.47591 3.82732-3.57354 4.83284-6.05907 1.65916-4.10129 1.12222-8.62066-1.15412-12.26243-.35654-.57043-.70948-1.13992-1.1541-1.65903-.27504-.32109-.55758-.63962-.86558-.93772-.1618-.16164-.33548-.35192-.50494-.50492l-40.32172-40.32174c-2.56046-2.66677-6.07159-4.14512-9.66568-4.18365z" fill="url(#radialGradient3443)" fill-rule="evenodd"/>
  <path clip-path="url(#clipPath3495)" d="m-93.9375 25.519523c-1.53035.0426-2.961334.686235-4.03125 1.78125l-16.90625 16.90625-.0937.0625c-.90982.63942-1.62687 1.51693-2.0625 2.59375-.48173 1.19081-.53213 2.46245-.21875 3.65625.0605-.22752.1289-.43415.21875-.65625.43563-1.07682 1.15268-1.95433 2.0625-2.59375l.0937-.0625 16.90625-16.90625c1.069916-1.095015 2.5009-1.738651 4.03125-1.78125 2.425984-.06653 4.678222 1.359151 5.625 3.59375.109142.257599.179549.515881.25.78125.319272-1.232878.267655-2.559473-.25-3.78125-.946778-2.234599-3.199016-3.660283-5.625-3.59375zm-.3125 17.75-3 3h26.1875c2.126608-.03008 4.115417 1.0694 5.1875 2.90625.26802.45921.49099.93826.625 1.4375.39122-1.4892.173628-3.06918-.625-4.4375-1.072083-1.83685-3.060892-2.93633-5.1875-2.90625zm41.21875 14.25c-.519026-.0056-1.045883.05282-1.5625.1875-2.066468.53872-3.648778 2.15228-4.1875 4.21875-.258483.99151-.242008 2.00907 0 2.96875.545922-2.05254 2.130719-3.65131 4.1875-4.1875.516617-.13468 1.043474-.19307 1.5625-.1875 1.557082.01669 3.078226.65716 4.1875 1.8125l17.46875 17.46875c.07341.06628.148629.14872.21875.21875.13344.12914.255849.26714.375.40625.19263.22489.345529.47162.5.71875.32873.52591.564808 1.09789.71875 1.6875.448801-1.60577.155864-3.28826-.71875-4.6875-.154471-.24713-.30737-.49386-.5-.71875-.119151-.13911-.24156-.27711-.375-.40625-.07012-.07003-.14534-.15247-.21875-.21875l-17.46875-17.46875c-1.109274-1.15534-2.630418-1.79581-4.1875-1.8125zm-44.21875.53125 7.625 7.625c.770224.73951 1.320529 1.66194 1.59375 2.65625.498841-2.04041-.07552-4.19855-1.59375-5.65625l-4.625-4.625zm21.5 17.25c-2.126612-.03008-4.115419 1.0694-5.1875 2.90625-.79871 1.36846-.985131 2.94818-.59375 4.4375.13401-.49924.32573-.97829.59375-1.4375 1.072081-1.83685 3.060888-2.93633 5.1875-2.90625h26.1875l-3-3zm23.1875 14.78125-4.625 4.625c-1.541748 1.50731-2.114983 3.70628-1.5625 5.749997.264413-1.023067.775249-1.980337 1.5625-2.749997l7.625-7.625z" fill="#313131" fill-rule="evenodd" filter="url(#filter3487)" opacity=".701087" transform="matrix(2.3082208 0 0 2.3082208 297.46708 -22.181099)"/>
  <path clip-path="url(#clipPath3501)" d="m-183.625 32.269464c-.26441 1.02307-.77525 1.98033-1.5625 2.75l-7.625 7.625h3l4.625-4.625c1.54174-1.50732 2.11498-3.70628 1.5625-5.75zm-29.1875 17.65625c-.42353 1.59265-.14417 3.27573.71875 4.65625.15448.24714.30737.49385.5.71875.11916.13911.24156.2771.375.40625.0701.07004.11409.12121.1875.1875l17.5 17.5c1.47903 1.54046 3.65228 2.13247 5.71875 1.59375s3.68002-2.12103 4.21875-4.1875c.25848-.9915.24201-2.00907 0-2.96875-.54598 2.05271-2.16166 3.61997-4.21875 4.15625-2.06647.53872-4.23972-.05329-5.71875-1.59375l-17.5-17.5c-.0734-.06629-.11738-.11746-.1875-.1875-.13344-.12915-.25584-.26714-.375-.40625-.19263-.2249-.34552-.47161-.5-.71875-.3233-.51723-.5644-1.07256-.71875-1.65625zm51.96875.125c-.13401.49924-.32573.97829-.59375 1.4375-1.07208 1.83684-3.0609 2.96758-5.1875 2.9375h-26.1875l3 3h23.1875c2.1266.03008 4.11542-1.10066 5.1875-2.9375.79871-1.36846.98513-2.94818.59375-4.4375zm6.5 14.3125c-.51203 2.04916.0681 4.22269 1.59375 5.6875l4.625 4.625h3l-7.625-7.625c-.78504-.75374-1.32547-1.67123-1.59375-2.6875zm-22.78125 17.71875c-.39122 1.48919-.17363 3.06917.625 4.4375 1.07208 1.83685 3.06089 2.96757 5.1875 2.9375h23.1875l3-3h-26.1875c-2.12661.03007-4.11542-1.10065-5.1875-2.9375-.26802-.45921-.49099-.93826-.625-1.4375zm52 .09375c-.0605.22667-.1289.43415-.21875.65625-.43562 1.07681-1.18392 1.98559-2.09375 2.625l-.0937.0625-16.875 16.906246c-1.06992 1.09501-2.53216 1.73866-4.0625 1.78125-2.42599.0665-4.64698-1.35914-5.59375-3.59375-.10914-.2576-.17955-.51588-.25-.781246-.32816 1.241076-.27176 2.549776.25 3.781246.94677 2.23461 3.16776 3.66028 5.59375 3.59375 1.53034-.0426 2.99258-.68624 4.0625-1.78125l16.875-16.906246.0937-.0625c.90983-.63941 1.65813-1.54819 2.09375-2.625.48316-1.19432.53523-2.46873.21875-3.65625z" fill="#fff" fill-rule="evenodd" filter="url(#filter3491)" opacity=".701087" transform="matrix(2.3082208 0 0 2.3082208 518.08128 -22.181099)"/>
</svg>
