<svg height="256" width="256" xmlns="http://www.w3.org/2000/svg" xmlns:xlink="http://www.w3.org/1999/xlink">
  <defs>
    <linearGradient id="lg1">
      <stop offset="0" stop-color="#fff"/>
      <stop offset="1" stop-color="#fff" stop-opacity="0"/>
    </linearGradient>
    <linearGradient id="linearGradient4913" xlink:href="#lg1"/>
    <linearGradient id="linearGradient6391" gradientUnits="userSpaceOnUse" x1="223.979051" x2="223.979051" xlink:href="#linearGradient4913" y1="7.422799" y2="-6.814803"/>
    <filter id="filter5876" height="1.035335" width="1.018171" x="-.009085" y="-.017668">
      <feGaussianBlur stdDeviation=".11909804"/>
    </filter>
    <filter id="filter5718" height="1.144494" width="1.074305" x="-.037152" y="-.072247">
      <feGaussianBlur stdDeviation=".48701799"/>
    </filter>
    <filter id="filter5836" height="1.035335" width="1.018171" x="-.009085" y="-.017668">
      <feGaussianBlur stdDeviation=".12356379"/>
    </filter>
    <radialGradient id="radialGradient6361" cx="64.101105" cy="61.470516" fx="63.292271" fy="74.81649" gradientTransform="matrix(1.1118445 .00000019 -.00000018 1.0614159 152.69879 -70.882696)" gradientUnits="userSpaceOnUse" r="22.686441" xlink:href="#linearGradient6666"/>
    <linearGradient id="linearGradient6666">
      <stop offset="0" stop-color="#9fc1f2"/>
      <stop offset=".5" stop-color="#587eb5"/>
      <stop offset="1" stop-color="#0c2a58"/>
    </linearGradient>
    <radialGradient id="radialGradient6363" cx="64.101105" cy="61.470516" fx="76.59713" fy="74.429352" gradientTransform="matrix(1.2934799 0 0 1.234813 141.05575 -81.541495)" gradientUnits="userSpaceOnUse" r="22.686441" xlink:href="#linearGradient6666"/>
    <linearGradient id="linearGradient6365" gradientUnits="userSpaceOnUse" x1="71.964134" x2="79.398361" xlink:href="#linearGradient4913" y1="26.784721" y2="63.955555"/>
    <clipPath id="clipPath5947">
      <ellipse cx="59.38013533865" cy="39.35710555932" rx="40.03012963406" ry="20.01506481703"/>
    </clipPath>
    <filter id="filter6019" height="1.127927" width="1.127927" x="-.063964" y="-.063964">
      <feGaussianBlur stdDeviation="1.196414"/>
    </filter>
    <radialGradient id="radialGradient6367" cx="267.42477" cy="81.257088" gradientTransform="matrix(.9679843 -.1075536 .2763828 2.487449 -15.584867 -92.434168)" gradientUnits="userSpaceOnUse" r="23.279442">
      <stop offset="0" stop-color="#d7d7d7"/>
      <stop offset="1" stop-color="#fff"/>
    </radialGradient>
    <clipPath id="clipPath6103">
      <path d="m200.1619 45.294924c-5.42224.212474-9.70739 4.671813-9.70376 10.098216v25.245539c.0171 3.487235 1.83207 6.718917 4.80092 8.54838 2.96888 1.829463 6.67151 1.997824 9.79416.445344l25.24554-12.62277c3.37866-1.725896 5.50499-5.199776 5.50499-8.993723 0-3.793948-2.12633-7.267827-5.50499-8.993724l-25.24554-12.62277c-1.51165-.77352-3.19397-1.153395-4.89132-1.104492z"/>
    </clipPath>
    <filter id="filter6085" height="1.051695" width="1.027616" x="-.013808" y="-.025847">
      <feGaussianBlur stdDeviation=".26087548"/>
    </filter>
    <clipPath id="clipPath6097">
      <path d="m151.42888 45.294924c-5.42224.212474-9.70739 4.671813-9.70376 10.098216v25.245539c.0171 3.487235 1.83207 6.718917 4.80092 8.54838 2.96888 1.829463 6.67151 1.997824 9.79416.445344l25.24554-12.62277c3.37866-1.725896 5.50499-5.199776 5.50499-8.993723 0-3.793948-2.12633-7.267827-5.50499-8.993724l-25.24554-12.62277c-1.51165-.77352-3.19397-1.153395-4.89132-1.104492z"/>
    </clipPath>
    <filter id="filter6093" height="1.034499" width="1.0184" x="-.0092" y="-.01725">
      <feGaussianBlur stdDeviation=".17382035"/>
    </filter>
    <linearGradient id="linearGradient6372" gradientUnits="userSpaceOnUse" x1="223.542776" x2="222.220163" xlink:href="#linearGradient4913" y1="-5.750556" y2="-21.586177"/>
    <filter id="filter2826" height="1.096" width="1.096" x="-.048" y="-.048">
      <feGaussianBlur stdDeviation="2.40001"/>
    </filter>
    <radialGradient id="radialGradient2894" cx="205.22449" cy="-114.21429" gradientUnits="userSpaceOnUse" r="125.1714">
      <stop offset=".1775" stop-color="#f0f0f0"/>
      <stop offset=".5325" stop-color="#a5a5bb"/>
    </radialGradient>
    <linearGradient id="linearGradient2896" gradientUnits="userSpaceOnUse" x1="205.71429" x2="205.71429" xlink:href="#lg1" y1="-225.36909" y2="-118.00019"/>
    <linearGradient id="linearGradient2898" gradientUnits="userSpaceOnUse" x1="205.715289" x2="205.715289" y1="-144.21429" y2="-212.21379">
      <stop offset=".2959" stop-color="#fff"/>
      <stop offset="1" stop-color="#4a4a55"/>
    </linearGradient>
    <linearGradient id="linearGradient2900" gradientUnits="userSpaceOnUse" x1="205.715289" x2="205.715289" y1="-146.21429" y2="-210.21379">
      <stop offset=".1953" stop-color="#e9e9f0"/>
      <stop offset=".2597" stop-color="#dadae2"/>
      <stop offset=".461" stop-color="#b1b1bb"/>
      <stop offset=".6437" stop-color="#93939f"/>
      <stop offset=".7999" stop-color="#81818e"/>
      <stop offset=".9112" stop-color="#7a7a88"/>
      <stop offset="1" stop-color="#696975"/>
    </linearGradient>
    <linearGradient id="linearGradient2902-2" gradientUnits="userSpaceOnUse" x1="205.715289" x2="205.715289" y1="-152.21429" y2="-204.21379">
      <stop offset="0" stop-color="#bbb"/>
      <stop offset="1" stop-color="#555"/>
    </linearGradient>
  </defs>
  <g transform="matrix(1.8275715 0 0 1.8275866 -247.95757 451.87446)">
    <path d="m265.71479-171.21229v-12.002l-12.439-.415c-.552-4.127-1.622-8.089-3.153-11.816l10.555-6.572-6-10.394-10.981 5.861c-2.503-3.236-5.408-6.142-8.645-8.645l5.861-10.981-10.393-5.999-6.572 10.555c-3.728-1.532-7.689-2.603-11.817-3.155l-.416-12.439h-12l-.415 12.439c-4.128.552-8.09 1.623-11.817 3.154l-6.572-10.554-10.393 6 5.861 10.981c-3.236 2.503-6.142 5.409-8.646 8.646l-10.981-5.861-6 10.392 10.556 6.573c-1.532 3.727-2.603 7.689-3.154 11.817l-12.439.413-.001 12 12.44.415c.552 4.128 1.623 8.09 3.154 11.817l-10.555 6.573 5.999 10.393 10.983-5.862c2.503 3.236 5.409 6.143 8.646 8.646l-5.862 10.982 10.392 6 6.573-10.557c3.727 1.531 7.689 2.603 11.817 3.154l.414 12.439h12l.415-12.439c4.128-.552 8.09-1.622 11.816-3.154l6.572 10.556 10.393-6-5.861-10.983c3.235-2.503 6.142-5.409 8.645-8.645l10.981 5.861 6.001-10.393-10.556-6.572c1.531-3.727 2.603-7.688 3.154-11.816zm-60 23.998c-16.542 0-30-13.458-30-30s13.458-30 30-30 30 13.458 30 30-13.458 30-30 30z" filter="url(#filter2826)"/>
    <path d="m265.71479-172.21229v-12.002l-12.439-.415c-.552-4.127-1.622-8.089-3.153-11.816l10.555-6.572-6-10.394-10.981 5.861c-2.503-3.236-5.408-6.142-8.645-8.645l5.861-10.981-10.393-5.999-6.572 10.555c-3.728-1.532-7.689-2.603-11.817-3.155l-.416-12.439h-12l-.415 12.439c-4.128.552-8.09 1.623-11.817 3.154l-6.572-10.554-10.393 6 5.861 10.981c-3.236 2.503-6.142 5.409-8.646 8.646l-10.981-5.861-6 10.392 10.556 6.573c-1.532 3.727-2.603 7.689-3.154 11.817l-12.439.413-.001 12 12.44.415c.552 4.128 1.623 8.09 3.154 11.817l-10.555 6.573 5.999 10.393 10.983-5.862c2.503 3.236 5.409 6.143 8.646 8.646l-5.862 10.982 10.392 6 6.573-10.557c3.727 1.531 7.689 2.603 11.817 3.154l.414 12.439h12l.415-12.439c4.128-.552 8.09-1.622 11.816-3.154l6.572 10.556 10.393-6-5.861-10.983c3.235-2.503 6.142-5.409 8.645-8.645l10.981 5.861 6.001-10.393-10.556-6.572c1.531-3.727 2.603-7.688 3.154-11.816zm-60 23.998c-16.542 0-30-13.458-30-30s13.458-30 30-30 30 13.458 30 30-13.458 30-30 30z" fill="url(#radialGradient2894)"/>
    <path d="m200.68179-237.21429c-.055 1.645-.382 11.473-.382 11.473-.016.488-.383.893-.867.958-3.989.533-7.881 1.572-11.569 3.088-.452.186-.972.018-1.229-.396 0 0-5.191-8.338-6.061-9.734-1.292.746-7.425 4.287-8.717 5.033.775 1.452 5.406 10.128 5.406 10.128.08.149.118.311.118.47 0 .301-.136.597-.388.792-3.167 2.45-6.016 5.299-8.466 8.466-.298.386-.832.5-1.262.271 0 0-8.677-4.631-10.128-5.406-.746 1.292-4.287 7.425-5.033 8.717 1.396.87 9.734 6.061 9.734 6.061.301.188.472.513.472.85 0 .127-.024.256-.075.38-1.517 3.689-2.556 7.582-3.088 11.569-.064.484-.47.851-.958.867 0 0-9.828.328-11.473.382v3.171c8.88 1.789 18.332 3.162 28.128 4.095-.06-1.024-.129-2.235-.129-2.235 0-17.093 13.907-31 31-31 17.094 0 31 13.907 31 31 0 0-.07 1.223-.129 2.251 9.789-.925 19.24-2.292 28.129-4.074 0-.887 0-2.208 0-3.209-1.645-.055-11.473-.382-11.473-.382-.488-.016-.894-.383-.958-.867-.533-3.988-1.572-7.88-3.087-11.568-.051-.124-.075-.252-.075-.379 0-.337.171-.662.472-.85 0 0 8.337-5.191 9.733-6.061-.746-1.292-4.287-7.426-5.033-8.718-1.451.774-10.128 5.406-10.128 5.406-.43.229-.963.115-1.262-.271-2.45-3.168-5.299-6.017-8.465-8.466-.253-.195-.389-.49-.389-.792 0-.16.038-.321.118-.47 0 0 4.631-8.676 5.405-10.128-1.292-.746-7.425-4.288-8.717-5.034-.87 1.396-6.062 9.734-6.062 9.734-.258.414-.777.582-1.229.396-3.689-1.516-7.582-2.555-11.57-3.088-.483-.065-.851-.47-.866-.958 0 0-.328-9.828-.383-11.473-1.49.001-8.572.001-10.064.001z" fill="url(#linearGradient2896)"/>
    <path d="m205.71479-212.21429c-18.777 0-34 15.223-34 34 0 18.778 15.223 34 34 34 18.778 0 34-15.222 34-34 0-18.777-15.222-34-34-34zm0 59c-13.785 0-25-11.215-25-25s11.215-25 25-25 25 11.215 25 25-11.215 25-25 25z" fill="url(#linearGradient2898)"/>
    <path d="m205.71479-210.21429c-17.645 0-32 14.355-32 32s14.355 32 32 32 32-14.355 32-32-14.355-32-32-32zm0 57c-13.785 0-25-11.215-25-25s11.215-25 25-25 25 11.215 25 25-11.215 25-25 25z" fill="url(#linearGradient2900)"/>
    <path d="m205.71479-204.21429c-14.336 0-26 11.664-26 26 0 14.337 11.664 26 26 26 14.337 0 26-11.663 26-26 0-14.336-11.663-26-26-26zm0 50c-13.233 0-24-10.767-24-24s10.767-24 24-24 24 10.767 24 24-10.767 24-24 24z" fill="url(#linearGradient2902-2)"/>
    <path d="m161.00579-159.79329-10.253 6.384.425.735 10.131-6.308c-.11-.266-.199-.543-.303-.811z" fill="#fff"/>
    <path d="m180.91079-232.17529 6.572 10.555c3.727-1.532 7.689-2.603 11.817-3.154l.415-12.44h12l.415 12.439c4.128.552 8.09 1.623 11.817 3.155l6.572-10.555 9.984 5.766.408-.765-10.391-6.001-6.572 10.555c-3.728-1.532-7.689-2.603-11.817-3.155l-.416-12.439h-12l-.415 12.439c-4.128.552-8.09 1.623-11.817 3.154l-6.572-10.554-10.393 6 .408.765z" fill="#fff"/>
    <path d="m235.42079-215.88729-.37.694c3.236 2.503 6.142 5.409 8.645 8.645l10.981-5.861 5.575 9.658.425-.265-6-10.394-10.981 5.861c-2.406-3.108-5.19-5.903-8.275-8.338z" fill="#fff"/>
    <path d="m176.00979-139.53929-5.491 10.288.408.235 5.454-10.218c-.127-.097-.245-.207-.371-.305z" fill="#fff"/>
    <path d="m249.69579-176.83029c-.394 23.923-19.966 43.267-43.981 43.267-24.016 0-43.587-19.344-43.981-43.267-.004.244-.019.487-.019.732 0 24.262 19.738 44 44 44s44-19.738 44-44c0-.245-.015-.488-.019-.732z" fill="#fff" opacity=".5"/>
    <path d="m253.27579-184.62829c-.513-3.833-1.489-7.514-2.85-11.005l-.304.189c1.531 3.727 2.602 7.688 3.153 11.816l12.44.414v-1z" fill="#fff"/>
    <path d="m250.12079-158.98229 10.131 6.308.425-.735-10.252-6.384c-.106.268-.194.545-.304.811z" fill="#fff"/>
    <path d="m156.75279-212.41029 10.981 5.861c2.503-3.236 5.409-6.142 8.646-8.646l-.371-.694c-3.084 2.435-5.87 5.23-8.275 8.339l-10.981-5.861-6 10.392.425.265z" fill="#fff"/>
    <path d="m235.04979-139.23429 5.453 10.217.408-.235-5.491-10.287c-.125.098-.243.208-.37.305z" fill="#fff"/>
    <path d="m145.71479-183.21429 12.439-.415c.551-4.128 1.623-8.09 3.154-11.817l-.303-.189c-1.361 3.491-2.339 7.173-2.851 11.006l-12.439.415-.001 12z" fill="#fff"/>
  </g>
  <g transform="matrix(1.863806 0 0 1.863806 -289.43524 143.37356)">
    <path d="m208.29585-8.7556656c-.005.158737-.0472.311795-.0472.471676 0 8.67652397 7.07743 15.70679 15.75395 15.70679 8.67653 0 15.7068-7.03026303 15.70679-15.70679 0-.159881-.0424-.312939-.0472-.471676-.22836 8.47771997-7.12708 15.282283-15.65962 15.282283s-15.47841-6.80456303-15.70679-15.282283z" fill="url(#linearGradient6391)" filter="url(#filter5876)" opacity=".873606"/>
    <path d="m239.66226-8.9563466c.005-.158737.0472-.311795.0472-.471676 0-8.6765244-7.07744-15.7067904-15.75396-15.7067904s-15.70679 7.030263-15.70679 15.7067904c0 .159881.0424.312939.0472.471676.22837-8.4777204 7.12709-15.2822834 15.65962-15.2822834 8.53254 0 15.47842 6.804563 15.70679 15.2822834z" fill="#565656" filter="url(#filter5718)" opacity=".873606"/>
    <path d="m240.25032-8.6497116c.005-.164689.0489-.323486.0489-.489362 0-9.0018634-7.34281-16.2957394-16.34467-16.2957394s-16.29574 7.293873-16.29574 16.2957394c0 .165876.044.324673.0489.489362.23693-8.7956044 7.39433-16.2703134 16.2468-16.2703134 8.85248 0 16.05881 7.474709 16.29574 16.2703134z" fill="#fff" filter="url(#filter5836)" opacity=".873606"/>
    <path d="m208.29585-8.7556656c-.005.158737-.0472.311795-.0472.471676 0 8.67652397 7.07743 16.70679 15.75395 16.70679 8.67653 0 15.7068-8.03026303 15.70679-16.70679 0-.159881-.0424-.312939-.0472-.471676-.22836 8.47771997-7.12708 15.282283-15.65962 15.282283s-15.47841-6.80456303-15.70679-15.282283z" fill="url(#linearGradient6391)" filter="url(#filter5876)" opacity=".345725"/>
    <circle cx="223.96924" cy="-9.069039" fill="url(#radialGradient6361)" r="31.747278"/>
    <circle cx="223.96924" cy="-9.069039" fill="url(#radialGradient6363)" r="31.747278"/>
    <circle clip-path="url(#clipPath5947)" cx="64.101105" cy="58.236969" fill="url(#linearGradient6365)" filter="url(#filter6019)" r="22.445498" transform="matrix(1.4144163 0 0 1.4144163 133.3036 -91.440356)"/>
    <g transform="matrix(.6879621 0 0 .6879621 45.031317 -56.774301)">
      <path d="m249.70376 45.294924c-5.42224.212474-9.70739 4.671813-9.70376 10.098216v25.245539c.0171 3.487235 1.83207 6.718917 4.80092 8.54838 2.96888 1.829463 6.67151 1.997824 9.79416.445344l25.24554-12.62277c3.37866-1.725896 5.50499-5.199776 5.50499-8.993723 0-3.793948-2.12633-7.267827-5.50499-8.993724l-25.24554-12.62277c-1.51165-.77352-3.19397-1.153395-4.89132-1.104492z" fill="url(#radialGradient6367)" fill-rule="evenodd"/>
      <path clip-path="url(#clipPath6103)" d="m200.15625 43.880333c-5.42224.21247-9.69113 4.66734-9.6875 10.09375v3c-.004-5.42641 4.26526-9.88128 9.6875-10.09375 1.69735-.0489 3.3946.32023 4.90625 1.09375l25.25 12.625c2.92621 1.49478 4.89534 4.31054 5.375 7.5.0742-.49316.125-.99194.125-1.5-.00001-3.79394-2.12134-7.2741-5.5-9l-25.25-12.625c-1.51165-.77352-3.2089-1.14265-4.90625-1.09375z" fill="#121212" fill-opacity=".778107" fill-rule="evenodd" filter="url(#filter6085)" transform="translate(49.539651)"/>
      <path clip-path="url(#clipPath6097)" d="m186.9375 67.53447c-.47972 3.18935-2.44887 6.00526-5.375 7.5l-25.25 12.625c-3.12265 1.55248-6.81238 1.39197-9.78125-.4375-2.96885-1.82946-4.7954-5.07526-4.8125-8.5625v3c.0171 3.48724 1.84365 6.73304 4.8125 8.5625 2.96887 1.82947 6.6586 1.98998 9.78125.4375l25.25-12.625c3.37867-1.7259 5.5-5.20606 5.5-9 0-.50815-.0508-1.00676-.125-1.5z" fill="#fff" fill-rule="evenodd" filter="url(#filter6093)" transform="translate(98.3)"/>
    </g>
    <path d="m192.64957-10.387957c15.12716 4.7123804 46.8015 4.1036324 62.44824-4.48756l-.0285-.914927c-16.22466 8.5013814-47.18599 10.0885644-62.41974 5.402487z" fill="url(#linearGradient6372)" fill-rule="evenodd"/>
  </g>
</svg>
