<svg height="256" width="256" xmlns="http://www.w3.org/2000/svg" xmlns:xlink="http://www.w3.org/1999/xlink">
  <defs>
    <linearGradient id="linearGradient2990">
      <stop offset="0" stop-color="#ccc"/>
      <stop offset="1" stop-color="#f1f1f1"/>
    </linearGradient>
    <linearGradient id="linearGradient3237">
      <stop offset="0" stop-color="#ffeb8b"/>
      <stop offset="1" stop-color="#fff" stop-opacity="0"/>
    </linearGradient>
    <linearGradient id="linearGradient6674">
      <stop offset="0" stop-color="#bf0000"/>
      <stop offset="1" stop-color="#f11" stop-opacity="0"/>
    </linearGradient>
    <linearGradient id="linearGradient6446">
      <stop offset="0" stop-color="#fff"/>
      <stop offset="1" stop-color="#fff" stop-opacity="0"/>
    </linearGradient>
    <radialGradient id="radialGradient9692" cx="42.700352" cy="103.5803" gradientTransform="matrix(-3.7594438 -.17808124 -.11252496 2.3754962 300.18494 -54.871431)" gradientUnits="userSpaceOnUse" r="42.559486" spreadMethod="pad">
      <stop offset="0" stop-color="#f9ff00"/>
      <stop offset="1" stop-color="#db7300"/>
    </radialGradient>
    <linearGradient id="linearGradient6410" gradientUnits="userSpaceOnUse" x1="79.483872" x2="22.916128" y1="227.09678" y2="26.012904">
      <stop offset="0" stop-color="#e12700"/>
      <stop offset="1" stop-color="#ffc50a"/>
    </linearGradient>
    <linearGradient id="linearGradient6452" gradientUnits="userSpaceOnUse" spreadMethod="reflect" x1="13.507897" x2="7.602036" xlink:href="#linearGradient6446" y1="13.721349" y2="19.627209"/>
    <filter id="filter6458" height="1.145266" width="1.152245" x="-.076123" y="-.072633">
      <feGaussianBlur stdDeviation=".28444187"/>
    </filter>
    <linearGradient id="linearGradient6464" gradientUnits="userSpaceOnUse" spreadMethod="reflect" x1="21.507897" x2="15.539791" xlink:href="#linearGradient6446" y1="21.721349" y2="27.689454"/>
    <linearGradient id="linearGradient6470" gradientUnits="userSpaceOnUse" spreadMethod="reflect" x1="21.507897" x2="14.373943" xlink:href="#linearGradient6446" y1="21.721349" y2="28.855302"/>
    <linearGradient id="linearGradient6637" gradientUnits="userSpaceOnUse" x1="110.658066" x2="110.658066" y1="224" y2="149.826294">
      <stop offset="0" stop-color="#703700"/>
      <stop offset="1" stop-color="#bf5e00" stop-opacity="0"/>
    </linearGradient>
    <linearGradient id="linearGradient6649" gradientUnits="userSpaceOnUse" x1="112" x2="112" xlink:href="#linearGradient3237" y1="0" y2="64"/>
    <linearGradient id="linearGradient6680" gradientUnits="userSpaceOnUse" x1="38.19355" x2="160.095398" xlink:href="#linearGradient6674" y1="101.161294" y2="133.79515"/>
    <linearGradient id="linearGradient2816" gradientUnits="userSpaceOnUse" x1="118.451614" x2="118.451614" xlink:href="#linearGradient6446" y1="-63.425492" y2="196.33435"/>
    <linearGradient id="linearGradient3231" gradientUnits="userSpaceOnUse" x1="118.976339" x2="118.976339" xlink:href="#linearGradient6446" y1="15.794643" y2="92.457717"/>
    <linearGradient id="linearGradient3233" gradientUnits="userSpaceOnUse" x1="232.000005" x2="63.219801" xlink:href="#linearGradient6446" y1="144.000003" y2="43.892687"/>
    <linearGradient id="linearGradient3243" gradientUnits="userSpaceOnUse" x1="-60.945251" x2="-59.415245" xlink:href="#linearGradient3237" y1="105.83054" y2="45.631207"/>
    <filter id="filter3281" height="1.02533" width="1.024842" x="-.012421" y="-.012665">
      <feGaussianBlur stdDeviation=".32872878"/>
    </filter>
    <linearGradient id="linearGradient3289" gradientUnits="userSpaceOnUse" x1="60.402065" x2="60.402065" xlink:href="#linearGradient6674" y1="64.076149" y2="-20.962214"/>
    <filter id="filter3319" height="1.069342" width="1.069342" x="-.034671" y="-.034671">
      <feGaussianBlur stdDeviation="1.6179775"/>
    </filter>
    <radialGradient id="radialGradient2407" cx="64" cy="81.325775" fx="66.881805" fy="105.27442" gradientTransform="matrix(1.359881 .494009 -.5273754 1.4517308 68.682343 5.808308)" gradientUnits="userSpaceOnUse" r="43.474762" spreadMethod="reflect" xlink:href="#linearGradient2990"/>
    <filter id="filter3067" height="1.024755" width="1.023289" x="-.011645" y="-.012378">
      <feGaussianBlur stdDeviation=".42279072"/>
    </filter>
    <radialGradient id="radialGradient3085" cx="64" cy="81.325775" fx="66.881805" fy="105.27442" gradientTransform="matrix(.6799405 .2470045 -.2636877 .7258654 34.441172 2.904154)" gradientUnits="userSpaceOnUse" r="43.474762" spreadMethod="reflect" xlink:href="#linearGradient2990"/>
    <clipPath id="clipPath3095">
      <g transform="translate(-128.13808)">
        <path d="m28.020992 20.250704c-2.70477-.03825-5.2302 1.38252-6.59375 3.71875-1.36354 2.33623-1.36355 5.22627 0 7.5625s3.88898 3.757 6.59375 3.71875h4.03125c-9.73211 10.626681-14.04638 25.850705-10.0625 40.71875 6.19485 23.119556 30.19294 36.976106 53.3125 30.781246 23.11955-6.19487 36.976098-30.192955 30.781248-53.312496-1.18562-4.401256-5.69249-6.998133-10.093748-5.8125-4.40126 1.185628-7.02938 5.692495-5.84375 10.09375 3.88494 14.498819-4.59493 29.208797-19.09375 33.09375-14.49883 3.884946-29.24005-4.626184-33.125-19.125-3.11605-11.629271 1.72709-23.3864 11.25-29.59375v11.96875c-.03825 2.704769 1.38252 5.230202 3.71875 6.59375 2.33623 1.363546 5.22627 1.363548 7.5625 0 2.33623-1.36355 3.757-3.888981 3.71875-6.59375v-26c.02542-2.027115-.78231-3.975697-2.21875-5.40625-.80079-.797508-1.77011-1.382192-2.8125-1.75-.95816-.426097-2.00803-.670257-3.125-.65625z" fill="url(#radialGradient3085)"/>
      </g>
    </clipPath>
  </defs>
  <path d="m18.083601 8h91.832799c5.58631 0 10.0836 4.497286 10.0836 10.083601v91.832799c0 5.58631-4.49729 10.0836-10.0836 10.0836h-91.832799c-5.586315 0-10.083601-4.49729-10.083601-10.0836v-91.832799c0-5.586315 4.497286-10.083601 10.083601-10.083601z" fill="url(#linearGradient3289)" filter="url(#filter3319)" transform="scale(2)"/>
  <path d="m36.167201 15.999999h183.665599c11.17262 0 20.1672 8.994572 20.1672 20.167202v183.665599c0 11.17262-8.99458 20.1672-20.1672 20.1672h-183.665599c-11.17263 0-20.167202-8.99458-20.167202-20.1672v-183.665599c0-11.17263 8.994572-20.167202 20.167202-20.167202z" fill="url(#linearGradient6410)"/>
  <path d="m36.167201 15.999999h183.665599c11.17262 0 20.1672 8.994572 20.1672 20.167202v183.665599c0 11.17262-8.99458 20.1672-20.1672 20.1672h-183.665599c-11.17263 0-20.167202-8.99458-20.167202-20.1672v-183.665599c0-11.17263 8.994572-20.167202 20.167202-20.167202z" fill="url(#linearGradient6680)" opacity=".082902"/>
  <path d="m218.76772 25.229415h-179.535443c-7.757586 0-14.002862 6.245276-14.002862 14.002862v177.535443c0 7.75758 6.245276 14.00286 14.002862 14.00286h179.535443c7.75758 0 14.00286-6.24528 14.00286-14.00286v-177.535443c0-7.757586-6.24528-14.002862-14.00286-14.002862z" fill="url(#radialGradient9692)"/>
  <path d="m17.906944 8.299378c-4.690175 0-9.397509 3.568001-9.397509 9.39874l4.267305-.05891c.452373-2.129835 2.851964-4.270962 4.526605-4.603385z" fill="url(#linearGradient6452)" filter="url(#filter6458)" opacity=".887641" transform="scale(2)"/>
  <path d="m25.397509 16.46919c-4.690175 0-8.967908 3.654709-8.967908 9.485448l4.347139-.315433c.452373-2.129835 2.851964-4.270962 4.526605-4.603385z" fill="url(#linearGradient6464)" filter="url(#filter6458)" opacity=".868914" transform="matrix(-2 0 0 2 271.73482 -16.000001)"/>
  <path d="m15.999999 211.75v8.0625c0 11.17262 9.01487 20.1875 20.1875 20.1875h183.625001c11.17262 0 20.1875-9.01486 20.1875-20.1875v-8.0625c0 11.17262-9.01488 20.1875-20.1875 20.1875h-183.625001c-11.17263 0-20.1875-9.01488-20.1875-20.1875z" fill="url(#linearGradient6637)" opacity=".082902"/>
  <path d="m26.246568 16.978625c-4.690175 0-9.477343 3.654709-9.477343 9.485448l4.007515-.824868c.452373-2.129835 2.851964-4.270962 4.526605-4.603385z" fill="url(#linearGradient6470)" filter="url(#filter6458)" opacity=".326425" transform="matrix(2 0 0 -2 -16.000001 272.17572)"/>
  <path d="m26.246568 16.978625c-4.690175 0-9.477343 3.654709-9.477343 9.485448l4.007515-.824868c.452373-2.129835 2.851964-4.270962 4.526605-4.603385z" fill="url(#linearGradient6470)" filter="url(#filter6458)" opacity=".176166" transform="matrix(-2 0 0 -2 271.73482 272.17572)"/>
  <path d="m15.999999 44.077419v-8.0625c0-11.17262 9.01487-20.1875 20.1875-20.1875h183.625001c11.17262 0 20.1875 9.01486 20.1875 20.1875v8.0625c0-11.17262-9.01488-20.1875-20.1875-20.1875h-183.625001c-11.17263 0-20.1875 9.01488-20.1875 20.1875z" fill="url(#linearGradient6649)" opacity=".388601"/>
  <path d="m38.882605 24.562499c-7.98045 0-14.375 6.39455-14.375 14.375v2c0-7.98045 6.39455-14.375 14.375-14.375h179.249995c7.98046 0 14.375 6.39455 14.375 14.375v-2c0-7.98045-6.39454-14.375-14.375-14.375z" fill="url(#linearGradient3231)"/>
  <path d="m224.42154 27.892687c3.19072 2.62959 5.25 6.573496 5.25 11.0625v69.000003c-.38674.65607-.87348 1.33464-1.4375 2-54.49555 20.97305-146.624415 26.97665-203.749995 13.25v1.125c57.96214 14.61326 151.170985 8.75537 206.562495-12.5625.56404-.66537 1.05076-1.34393 1.4375-2v-69.000003c0-5.706022-3.28208-10.548168-8.0625-12.875z" fill="url(#linearGradient3233)"/>
  <path d="m-109.38386 13.614708h89.767721c3.878793 0 7.001431 3.122638 7.001431 7.001431v87.767721c0 3.87879-3.122638 7.00143-7.001431 7.00143h-89.767721c-3.87879 0-7.00143-3.12264-7.00143-7.00143v-87.767721c0-3.878793 3.12264-7.001431 7.00143-7.001431z" fill="none" filter="url(#filter3281)" stroke="url(#linearGradient3243)" stroke-linecap="round" stroke-linejoin="round" transform="scale(-2 2)"/>
  <path d="m38.374999 24.562499c-7.98045 0-14.375 6.39455-14.375 14.375v83.562501c57.962154 14.61327 151.171001 8.75537 206.562501-12.5625.56404-.66537 1.05076-1.34392 1.4375-2v-69.000001c0-7.98045-6.39454-14.375-14.375-14.375z" fill="url(#linearGradient2816)"/>
  <g>
    <path d="m55.841983 40.501407c-5.40954-.0765-10.4604 2.76504-13.1875 7.4375-2.72708 4.67246-2.7271 10.45254 0 15.125s7.77796 7.514 13.1875 7.4375h8.0625c-19.46422 21.253362-28.09276 51.701413-20.125 81.437503 12.3897 46.23911 60.385877 73.95221 106.624997 61.56249 46.2391-12.38974 73.9522-60.38591 61.5625-106.62499-2.37124-8.802515-11.38498-13.996269-20.1875-11.625003-8.80252 2.371256-14.05876 11.384993-11.6875 20.187503 7.76988 28.99764-9.18986 58.41759-38.1875 66.1875-28.99766 7.76989-58.480097-9.25237-66.249997-38.25-6.2321-23.25854 3.45418-46.772803 22.5-59.187503v23.937503c-.0765 5.40954 2.765037 10.4604 7.437497 13.1875 4.67246 2.72709 10.45254 2.72709 15.125 0 4.67246-2.7271 7.514-7.77796 7.4375-13.1875v-52.000003c.0508-4.05423-1.56462-7.951394-4.4375-10.8125-1.60158-1.595016-3.54022-2.764384-5.625-3.5-1.91632-.852194-4.01606-1.340514-6.25-1.3125z" fill="url(#radialGradient2407)"/>
    <path clip-path="url(#clipPath3095)" d="m-107.5866 27.976649c-.36554 1.78306-.0704 3.66147.875 5.28125 1.36355 2.33623 3.88898 3.757 6.59375 3.71875h1.5625c.78679-1.02848 1.59189-2.04254 2.46875-3h-4.03125c-2.70477.03825-5.2302-1.38252-6.59375-3.71875-.42065-.72071-.71389-1.48765-.875-2.28125zm28.625 12.84375c-7.94419 5.17829-12.62943 14.2372-12.15625 23.84375.52163-8.467 5.04043-16.20542 12.15625-20.84375zm0 11.96875v3c-.03825 2.70477 1.38252 5.2302 3.71875 6.59375s5.22627 1.36355 7.5625 0 3.757-3.88898 3.71875-6.59375v-3c.03825 2.70477-1.38252 5.2302-3.71875 6.59375s-5.22627 1.36355-7.5625 0-3.757-3.88898-3.71875-6.59375zm40.8125 3.03125c-.22072 1.17297-.1755 2.3935.15625 3.625.51674 1.9285.81209 3.87125.90625 5.78125.17788-2.86965-.11722-5.83656-.90625-8.78125-.05724-.21249-.11656-.4124-.15625-.625zm-69.4375 8.9375c-.17604 4.26747.27744 8.6081 1.4375 12.9375 6.19485 23.119561 30.19294 36.976111 53.3125 30.781251 19.80036-5.30549 32.78382-23.657131 32.21875-43.343751-.76793 18.51868-13.43412 35.310421-32.21875 40.343751-23.11956 6.19486-47.11765-7.66169-53.3125-30.781251-.88848-3.31585-1.34253-6.64118-1.4375-9.9375z" fill="#fff" filter="url(#filter3067)" transform="matrix(2 0 0 2 256.19312 -.000001)"/>
  </g>
</svg>
