<svg height="256" viewBox="0 0 256 256" width="256" xmlns="http://www.w3.org/2000/svg" xmlns:xlink="http://www.w3.org/1999/xlink">
  <defs>
    <filter id="filter1090" color-interpolation-filters="sRGB" height="1.248758" width="1.12906" x="-.06453" y="-.124379">
      <feGaussianBlur stdDeviation="3.2455206"/>
    </filter>
    <filter id="filter1098" color-interpolation-filters="sRGB" height="1.230718" width="1.119701" x="-.05985" y="-.115359">
      <feGaussianBlur stdDeviation="3.2455206"/>
    </filter>
    <linearGradient id="linearGradient1135" gradientUnits="userSpaceOnUse" x1="125.9356" x2="125.99821" y1="180.1346" y2="73.595825">
      <stop offset="0" stop-color="#c2c2c2"/>
      <stop offset=".5" stop-color="#e0e0e2"/>
      <stop offset="1" stop-color="#fff"/>
    </linearGradient>
  </defs>
  <g id="g1" transform="matrix(.75 0 0 .75 7.999998 8.000002)">
    <path d="m95.181933 72.567669c-37.950936 0-28.234292 39.048101-41.8527 59.021431-4.679614 6.86326-12.113805 11.47565-25.184329 11.47565h-6.988602v40.36758h213.687398v-40.36758h-6.98859c-13.07053 0-20.50474-4.61239-25.18433-11.47565-13.61841-19.97333-3.90178-59.021431-41.8527-59.021431z" filter="url(#filter1098)" opacity=".4" stroke="#000" stroke-width="10"/>
    <path d="m95.181933 72.567669c-37.950936 0-28.234292 39.048101-41.8527 59.021431-4.679614 6.86326-12.113805 11.47565-25.184329 11.47565h-6.988602v40.36758h213.687398v-40.36758h-6.98859c-13.07053 0-20.50474-4.61239-25.18433-11.47565-13.61841-19.97333-3.90178-59.021431-41.8527-59.021431z" fill="#fff" filter="url(#filter1090)" stroke="#fff" stroke-width="12"/>
    <path d="m95.181933 72.567669c-37.950936 0-28.234292 39.048101-41.8527 59.021431-4.679614 6.86326-12.113805 11.47565-25.184329 11.47565h-6.988602v40.36758h213.687398v-40.36758h-6.98859c-13.07053 0-20.50474-4.61239-25.18433-11.47565-13.61841-19.97333-3.90178-59.021431-41.8527-59.021431z" fill="none" stroke="#656565" stroke-width="10"/>
    <path d="m95.181933 72.567669c-37.950936 0-28.234292 39.048101-41.8527 59.021431-4.679614 6.86326-12.113805 11.47565-25.184329 11.47565h-6.988602v40.36758h213.687398v-40.36758h-6.98859c-13.07053 0-20.50474-4.61239-25.18433-11.47565-13.61841-19.97333-3.90178-59.021431-41.8527-59.021431z" fill="url(#linearGradient1135)" stroke="#fff" stroke-width="3"/>
  </g>
  <use transform="translate(48 48)" xlink:href="#g1"/>
</svg>
