<svg height="256" viewBox="0 0 256 256" width="256" xmlns="http://www.w3.org/2000/svg" xmlns:xlink="http://www.w3.org/1999/xlink">
  <defs>
    <filter id="filter1090" color-interpolation-filters="sRGB" height="1.248758" width="1.12906" x="-.06453" y="-.124379">
      <feGaussianBlur stdDeviation="3.2455206"/>
    </filter>
    <filter id="filter1098" color-interpolation-filters="sRGB" height="1.230718" width="1.119701" x="-.05985" y="-.115359">
      <feGaussianBlur stdDeviation="3.2455206"/>
    </filter>
    <linearGradient id="linearGradient1135" gradientUnits="userSpaceOnUse" x1="125.9356" x2="125.99821" y1="180.1346" y2="73.595825">
      <stop offset="0" stop-color="#c2c2c2"/>
      <stop offset=".5" stop-color="#e0e0e2"/>
      <stop offset="1" stop-color="#fff"/>
    </linearGradient>
    <mask id="mask2094" maskUnits="userSpaceOnUse">
      <g transform="translate(2.967669 -1.143027)">
        <rect fill="url(#radialGradient2102)" height="136.23538" opacity=".999961" transform="scale(-1 1)" width="135.55533" x="-133.21173" y="-.321846"/>
        <rect height="76.105209" opacity=".999961" transform="scale(-1 1)" width="81.23642" x="-131.3279" y="66.822647"/>
      </g>
    </mask>
    <radialGradient id="radialGradient2102" cx="-92.539787" cy="35.938" gradientTransform="matrix(1.0662091 -.50282204 .35039779 .74300105 -8.063261 -36.811493)" gradientUnits="userSpaceOnUse" r="67.777664">
      <stop offset="0" stop-color="#fff"/>
      <stop offset=".70053035" stop-color="#fff" stop-opacity=".999407"/>
      <stop offset="1"/>
    </radialGradient>
    <linearGradient id="linearGradient3516-9" gradientTransform="matrix(.9792 0 0 .9725 133.0002 20.8762)" gradientUnits="userSpaceOnUse" x1="64.088867" x2="64.088867" y1="9.679421" y2="123.90625">
      <stop offset="0" stop-color="#f0ba00"/>
      <stop offset=".3553" stop-color="#dab000"/>
      <stop offset=".6194" stop-color="#c89200"/>
      <stop offset=".7574" stop-color="#b39100"/>
      <stop offset="1" stop-color="#695500"/>
    </linearGradient>
    <radialGradient id="radialGradient3757-6" cx="66.01458" cy="126.69183" gradientTransform="matrix(.675025 0 0 .3583625 19.527377 41.004647)" gradientUnits="userSpaceOnUse" r="59.995121">
      <stop offset="0" stop-color="#d9a11f"/>
      <stop offset="1" stop-color="#be8e2c" stop-opacity="0"/>
    </radialGradient>
    <radialGradient id="radialGradient3658-9" cx="167.67001" cy="80.404922" gradientTransform="matrix(.2676699 .521376 -.7037472 .3612977 108.99386 -36.062981)" gradientUnits="userSpaceOnUse" r="59.995121" xlink:href="#linearGradient3449"/>
    <linearGradient id="linearGradient3449">
      <stop offset="0"/>
      <stop offset="1" stop-opacity="0"/>
    </linearGradient>
    <radialGradient id="radialGradient3654-4" cx="-10.165252" cy="66.906013" gradientTransform="matrix(.4582893 -.00000002 .00000005 1.0000813 20.447953 -.005197)" gradientUnits="userSpaceOnUse" r="59.995121" xlink:href="#linearGradient3449"/>
    <radialGradient id="radialGradient3744-8" cx="46.25367" cy="86.72467" fx="46.253662" gradientTransform="matrix(-.00000024 1.1093034 -1.0633726 -.00000014 156.30951 -2.406116)" gradientUnits="userSpaceOnUse" r="59.995121" xlink:href="#linearGradient3449"/>
    <radialGradient id="radialGradient3767-7" cx="64.088867" cy="7.410843" gradientTransform="matrix(.3093869 0 0 .4779247 44.260611 3.864422)" gradientUnits="userSpaceOnUse" r="59.995121" xlink:href="#linearGradient5244"/>
    <linearGradient id="linearGradient5244">
      <stop offset="0" stop-color="#fff"/>
      <stop offset="1" stop-color="#fff" stop-opacity="0"/>
    </linearGradient>
    <filter id="filter3630-1" height="1.036044" width="1.035957" x="-.017978" y="-.018022">
      <feGaussianBlur stdDeviation=".89883985"/>
    </filter>
    <linearGradient id="linearGradient3676-2" gradientUnits="userSpaceOnUse" spreadMethod="reflect" x1="120.0625" x2="125.30366" xlink:href="#linearGradient5244" y1="12.569496" y2="14.444496"/>
    <filter id="filter3738-7" height="1.397879" width="1.301924" x="-.150962" y="-.198939">
      <feGaussianBlur stdDeviation=".39257441"/>
    </filter>
    <radialGradient id="radialGradient3524-1" cx="67.09375" cy="116.90626" gradientUnits="userSpaceOnUse" r="71.590965">
      <stop offset="0" stop-color="#f1c300"/>
      <stop offset=".3553" stop-color="#b38600"/>
      <stop offset=".6194" stop-color="#d9ad0d"/>
      <stop offset=".7574" stop-color="#ffcb01"/>
      <stop offset="1" stop-color="#dfa300"/>
    </radialGradient>
    <radialGradient id="radialGradient3535-9" cx="99.726295" cy="27.418272" fx="64.689766" fy="68.231934" gradientTransform="matrix(.693735 .05867125 -.0362428 .4285387 33.939389 26.8809)" gradientUnits="userSpaceOnUse" r="56">
      <stop offset="0" stop-color="#fb0"/>
      <stop offset="1" stop-color="#4d3300" stop-opacity="0"/>
    </radialGradient>
    <linearGradient id="linearGradient3548-1" gradientUnits="userSpaceOnUse" x1="75.09375" x2="75.09375" y1="4.531704" y2="80.172485">
      <stop offset="0" stop-color="#ffeebf"/>
      <stop offset="1" stop-color="#fff6bf" stop-opacity="0"/>
    </linearGradient>
    <linearGradient id="linearGradient3581-1" gradientUnits="userSpaceOnUse" x1="75.097969" x2="75.097969" xlink:href="#linearGradient5244" y1="4.533675" y2="80.174454"/>
    <linearGradient id="linearGradient3613" gradientUnits="userSpaceOnUse" x1="71.59375" x2="71.59375" y1="130.40625" y2="63.426777">
      <stop offset="0" stop-color="#fff480"/>
      <stop offset="1" stop-color="#fff680" stop-opacity="0"/>
    </linearGradient>
    <filter id="filter3378-9" height="1.033143" width="1.033143" x="-.016571" y="-.016571">
      <feGaussianBlur stdDeviation=".565"/>
    </filter>
  </defs>
  <path d="m95.181933 72.567669c-37.950936 0-28.234292 39.048101-41.8527 59.021431-4.679614 6.86326-12.113805 11.47565-25.184329 11.47565h-6.988602v40.36758h213.687398v-40.36758h-6.98859c-13.07053 0-20.50474-4.61239-25.18433-11.47565-13.61841-19.97333-3.90178-59.021431-41.8527-59.021431z" filter="url(#filter1098)" opacity=".4" stroke="#000" stroke-width="10"/>
  <path d="m95.181933 72.567669c-37.950936 0-28.234292 39.048101-41.8527 59.021431-4.679614 6.86326-12.113805 11.47565-25.184329 11.47565h-6.988602v40.36758h213.687398v-40.36758h-6.98859c-13.07053 0-20.50474-4.61239-25.18433-11.47565-13.61841-19.97333-3.90178-59.021431-41.8527-59.021431z" fill="#fff" filter="url(#filter1090)" stroke="#fff" stroke-width="12"/>
  <path d="m95.181933 72.567669c-37.950936 0-28.234292 39.048101-41.8527 59.021431-4.679614 6.86326-12.113805 11.47565-25.184329 11.47565h-6.988602v40.36758h213.687398v-40.36758h-6.98859c-13.07053 0-20.50474-4.61239-25.18433-11.47565-13.61841-19.97333-3.90178-59.021431-41.8527-59.021431z" fill="none" stroke="#656565" stroke-width="10"/>
  <path d="m95.181933 72.567669c-37.950936 0-28.234292 39.048101-41.8527 59.021431-4.679614 6.86326-12.113805 11.47565-25.184329 11.47565h-6.988602v40.36758h213.687398v-40.36758h-6.98859c-13.07053 0-20.50474-4.61239-25.18433-11.47565-13.61841-19.97333-3.90178-59.021431-41.8527-59.021431z" fill="url(#linearGradient1135)" stroke="#fff" stroke-width="3"/>
  <g mask="url(#mask2094)" transform="matrix(1.4488887 -.38822856 .38822856 1.4488887 46.455925 176.15792)">
    <path d="m64.09375 3.90625c-33.125192-.0000001-60.0000001 26.874805-60 60 .0000001 33.125192 26.87481 60 60 60 30.289116 0 55.33661-22.21626 59.40625-51.34375l-35.03125-5.03125c-1.624684 11.961129-11.930074 20.96875-24.375 20.96875-13.571628-.000001-24.59375-11.022119-24.59375-24.59375.000001-13.571634 11.022119-24.59375 24.59375-24.59375 6.785818-.000001 12.921294 2.765044 17.375 7.21875l-10.327179 10.327179c-2.05587 2.05587-2.243725 3.30578-1.679608 4.615529.508568 1.180779 1.520732 2.526042 4.209725 2.526042h43.953312c3.84589 0 6.45899-2.654379 6.45899-6.250131l-.0689-44.078018c0-2.480755-.90251-3.8432292-2.18147-4.3496147-1.31432-.5203849-3.03321-.1226787-5.10709 1.9511997l-10.19528 10.195314c-10.859348-10.859351-25.874901-17.5625-42.4375-17.5625z" fill="url(#linearGradient3516-9)"/>
    <path d="m64.09375 3.90625c-33.125192-.0000001-60.0000001 26.874805-60 60 .0000001 33.125192 26.87481 60 60 60 30.289116 0 55.33661-22.21626 59.40625-51.34375l-35.03125-5.03125c-1.624684 11.961129-11.930074 20.96875-24.375 20.96875-13.571628-.000001-24.59375-11.022119-24.59375-24.59375.000001-13.571634 11.022119-24.59375 24.59375-24.59375 6.785818-.000001 12.921294 2.765044 17.375 7.21875l-10.327179 10.327179c-2.05587 2.05587-2.243725 3.30578-1.679608 4.615529.508568 1.180779 1.520732 2.526042 4.209725 2.526042h43.953312c3.84589 0 6.45899-2.654379 6.45899-6.250131l-.0689-44.078018c0-2.480755-.90251-3.8432292-2.18147-4.3496147-1.31432-.5203849-3.03321-.1226787-5.10709 1.9511997l-10.19528 10.195314c-10.859348-10.859351-25.874901-17.5625-42.4375-17.5625z" fill="url(#radialGradient3757-6)" opacity=".797753"/>
    <path d="m64.09375 3.90625c-33.125192-.0000001-60.0000001 26.874805-60 60 .0000001 33.125192 26.87481 60 60 60 30.289116 0 55.33661-22.21626 59.40625-51.34375l-35.03125-5.03125c-1.624684 11.961129-11.930074 20.96875-24.375 20.96875-13.571628-.000001-24.59375-11.022119-24.59375-24.59375.000001-13.571634 11.022119-24.59375 24.59375-24.59375 6.785818-.000001 12.921294 2.765044 17.375 7.21875l-10.327179 10.327179c-2.05587 2.05587-2.243725 3.30578-1.679608 4.615529.508568 1.180779 1.520732 2.526042 4.209725 2.526042h43.953312c3.84589 0 6.45899-2.654379 6.45899-6.250131l-.0689-44.078018c0-2.480755-.90251-3.8432292-2.18147-4.3496147-1.31432-.5203849-3.03321-.1226787-5.10709 1.9511997l-10.19528 10.195314c-10.859348-10.859351-25.874901-17.5625-42.4375-17.5625z" fill="url(#radialGradient3658-9)" opacity=".689139"/>
    <path d="m64.09375 3.90625c-33.125192-.0000001-60.0000001 26.874805-60 60 .0000001 33.125192 26.87481 60 60 60 30.289116 0 55.33661-22.21626 59.40625-51.34375l-35.03125-5.03125c-1.624684 11.961129-11.930074 20.96875-24.375 20.96875-13.571628-.000001-24.59375-11.022119-24.59375-24.59375.000001-13.571634 11.022119-24.59375 24.59375-24.59375 6.785818-.000001 12.921294 2.765044 17.375 7.21875l-10.327179 10.327179c-2.05587 2.05587-2.243725 3.30578-1.679608 4.615529.508568 1.180779 1.520732 2.526042 4.209725 2.526042h43.953312c3.84589 0 6.45899-2.654379 6.45899-6.250131l-.0689-44.078018c0-2.480755-.90251-3.8432292-2.18147-4.3496147-1.31432-.5203849-3.03321-.1226787-5.10709 1.9511997l-10.19528 10.195314c-10.859348-10.859351-25.874901-17.5625-42.4375-17.5625z" fill="url(#radialGradient3654-4)"/>
    <path d="m64.09375 3.90625c-33.125192-.0000001-60.0000001 26.874805-60 60 .0000001 33.125192 26.87481 60 60 60 30.289116 0 55.33661-22.21626 59.40625-51.34375l-35.03125-5.03125c-1.624684 11.961129-11.930074 20.96875-24.375 20.96875-13.571628-.000001-24.59375-11.022119-24.59375-24.59375.000001-13.571634 11.022119-24.59375 24.59375-24.59375 6.785818-.000001 12.921294 2.765044 17.375 7.21875l-10.327179 10.327179c-2.05587 2.05587-2.243725 3.30578-1.679608 4.615529.508568 1.180779 1.520732 2.526042 4.209725 2.526042h43.953312c3.84589 0 6.45899-2.654379 6.45899-6.250131l-.0689-44.078018c0-2.480755-.90251-3.8432292-2.18147-4.3496147-1.31432-.5203849-3.03321-.1226787-5.10709 1.9511997l-10.19528 10.195314c-10.859348-10.859351-25.874901-17.5625-42.4375-17.5625z" fill="url(#radialGradient3744-8)" opacity=".797753"/>
    <path d="m64.09375 4.20625c-33.125192-.0000001-60.0000001 26.574805-60 59.7.0000001 33.125192 26.87481 60 60 60 30.289116 0 55.33661-22.21626 59.40625-51.34375l-35.03125-5.03125c-1.624684 11.961129-11.930074 20.96875-24.375 20.96875-13.571628-.000001-24.59375-11.022119-24.59375-24.59375.000001-13.571634 11.022119-24.59375 24.59375-24.59375 6.785818-.000001 12.921294 2.765044 17.375 7.21875l-10.327179 10.327179c-2.05587 2.05587-2.243725 3.30578-1.679608 4.615529.508568 1.180779 1.520732 2.526042 4.209725 2.526042h43.953312c3.84589 0 6.45899-2.654379 6.45899-6.250131l-.0689-44.078018c0-2.480755-.90251-3.8432292-2.18147-4.3496147-1.31432-.5203849-3.03321-.1226787-5.10709 1.9511997l-10.19528 10.195314c-10.859348-10.859351-25.874901-17.2625-42.4375-17.2625z" fill="url(#radialGradient3767-7)" filter="url(#filter3630-1)" opacity=".745318"/>
    <path d="m117.6875 10.75.9375 4.375 1.25.875 4-2.625c.24688-1.723751-.35117-3.347429-1.9375-4.0000001-1.58634-.6525714-3.16128.1267033-4.25 1.3750001z" fill="url(#linearGradient3676-2)" fill-rule="evenodd" filter="url(#filter3738-7)" opacity=".820225"/>
    <path d="m117.6875 10.75 2.1875 3.125.5-.125 3.5-.375c.24688-1.723751-.35117-3.347429-1.9375-4.0000001-1.58634-.6525714-3.16128.1267033-4.25 1.3750001z" fill="url(#linearGradient3676-2)" fill-rule="evenodd" filter="url(#filter3738-7)" opacity=".820225" transform="matrix(0 1 1 0 60.363582 -60.363586)"/>
    <path d="m64.09375 7.90625c-30.961698-.0000001-56.0000001 25.038299-56 56 .0000001 30.961698 25.038304 56 56 56 26.932896 0 49.12173-18.80675 54.53125-44l-27.125-3.875c-3.438564 11.897301-14.440379 20.46875-27.40625 20.46875-15.737346-.000001-28.59375-12.856401-28.59375-28.59375.000001-15.737351 12.856402-28.59375 28.59375-28.59375 7.872416-.000001 15.051554 3.207804 20.21875 8.375.759464.751409 1.187497 1.775386 1.1875 2.84375 0 1.068364-.428036 2.092341-1.1875 2.84375l-10.625 10.625h43.9375c2.00539 0 2.46875-.592164 2.46875-2.25l-.09375-44.09375-10.625 10.65625c-.75141.759464-1.77539 1.1875-2.84375 1.1875s-2.09234-.428036-2.84375-1.1875c-10.137665-10.137667-24.110394-16.40625-39.59375-16.40625z" fill="url(#radialGradient3524-1)"/>
    <path d="m64.09375 7.90625c-30.961698-.0000001-56.0000001 25.038299-56 56 .0000001 30.961698 25.038304 56 56 56 26.932896 0 49.12173-18.80675 54.53125-44l-27.125-3.875c-3.438564 11.897301-14.440379 20.46875-27.40625 20.46875-15.737346-.000001-28.59375-12.856401-28.59375-28.59375.000001-15.737351 12.856402-28.59375 28.59375-28.59375 7.872416-.000001 15.051554 3.207804 20.21875 8.375.759464.751409 1.187497 1.775386 1.1875 2.84375 0 1.068364-.428036 2.092341-1.1875 2.84375l-10.625 10.625h43.9375c2.00539 0 2.46875-.592164 2.46875-2.25l-.09375-44.09375-10.625 10.65625c-.75141.759464-1.77539 1.1875-2.84375 1.1875s-2.09234-.428036-2.84375-1.1875c-10.137665-10.137667-24.110394-16.40625-39.59375-16.40625z" fill="url(#radialGradient3535-9)"/>
    <path d="m64.09375 7.90625c-30.961698-.0000001-56.0000001 25.038299-56 56 0 .567872.014522 1.123731.03125 1.6875 5.98947.677652 12.141218 1.15013 18.40625 1.40625-.270702-10.459042 3.671609-20.974916 11.8125-28.78125 15.339317-14.708937 39.728563-14.214319 54.4375 1.125 2.763849 2.882296 4.756602 5.688367 6.5625 9.25l-20.5 10.40625h19.15625c7.9282-2.026627 15.18621-3.436967 22.09375-6.1875l-.09375-39.15625-10.625 10.65625c-.75141.759464-1.77539 1.1875-2.84375 1.1875s-2.09234-.428036-2.84375-1.1875c-10.137665-10.137667-24.110394-16.40625-39.59375-16.40625z" fill="url(#linearGradient3548-1)" opacity=".833333"/>
    <path d="m64.099866 7.9087646c-30.96169-.0000002-55.9999999 25.0382984-55.9999999 55.9999994.00001.178712-.00249.354295 0 .53125.25324-30.743505 25.1959799-55.5312495 55.9999999-55.5312494 15.48337-.0000001 29.45608 6.2685824 39.593744 16.4062494.75142.759465 1.77539 1.1875 2.84375 1.1875 1.06837.000001 2.09234-.428036 2.84375-1.1875l10.125-10.15625.49375 37.55c-6.90754 2.75053-14.56555 3.86086-22.493744 5.8875l-18.65625.40625h19.15625c7.928194-2.02663 15.186204-3.43697 22.093744-6.1875l-.0937-38.15625v-1l-.5.5-10.125 10.15625c-.7514.759465-1.77539 1.1875-2.84375 1.1875-1.06835.000001-2.09234-.428036-2.84375-1.1875-.0105-.01047-.0208-.02079-.0312-.03125-.0524-.05229-.10367-.104166-.15625-.15625-.5738-.567871-1.15087-1.11515-1.75-1.65625-.0815-.07412-.16804-.145107-.25-.21875-9.916144-8.910179-23.009684-14.3437494-37.406344-14.3437494zm-.65625 19.2187494c-9.23817.25052-18.40344 3.79268-25.59375 10.6875-7.63208 7.318434-11.12755 17.372917-11.3125 27.21875.23988-9.80188 4.18042-19.494066 11.8125-26.8125 13.31613-12.7689 33.45333-14.098057 48.15625-4.1875-6.87906-4.805074-14.98746-7.12523-23.0625-6.90625z" fill="url(#linearGradient3581-1)"/>
    <path d="m63.59375 7.90625c-30.9617-.0000001-56 25.038299-56 56 0 30.961698 25.0383 56 56 56 26.9329 0 49.12173-18.80675 54.53125-44l-27.125-3.875c-3.43856 11.897301-14.44038 20.46875-27.40625 20.46875-15.73735-.000001-28.59375-12.856401-28.59375-28.59375 0-15.737351 12.8564-28.59375 28.59375-28.59375 7.87242-.000001 15.05155 3.207804 20.21875 8.375.75946.751409 1.1875 1.775386 1.1875 2.84375s-.42804 2.092341-1.1875 2.84375l-10.625 10.625h43.9375c2.00539 0 2.46875-.592164 2.46875-2.25l-.09375-44.09375-10.625 10.65625c-.75141.759464-1.77539 1.1875-2.84375 1.1875s-2.09234-.428036-2.84375-1.1875c-10.13766-10.137667-24.11039-16.40625-39.59375-16.40625z" style="fill:none;stroke-linecap:round;stroke-linejoin:round;stroke-dashoffset:1.0878;stroke:url(#linearGradient3613);filter:url(#filter3378-9)"/>
  </g>
</svg>
