<svg height="256" width="256" xmlns="http://www.w3.org/2000/svg" xmlns:xlink="http://www.w3.org/1999/xlink">
  <defs>
    <linearGradient id="linearGradient12560">
      <stop offset="0"/>
      <stop offset="1" stop-opacity="0"/>
    </linearGradient>
    <linearGradient id="linearGradient11584">
      <stop offset="0" stop-color="#fff"/>
      <stop offset="1" stop-color="#fff" stop-opacity="0"/>
    </linearGradient>
    <linearGradient id="linearGradient2959" gradientUnits="userSpaceOnUse" x1="17.0464" x2="17.0464" y1="7.6074" y2="3.1118">
      <stop offset="0" stop-color="#eee"/>
      <stop offset=".2909" stop-color="#cecece"/>
      <stop offset=".85" stop-color="#888"/>
      <stop offset="1" stop-color="#555"/>
    </linearGradient>
    <linearGradient id="linearGradient2316">
      <stop offset="0" stop-color="#dd6a0e"/>
      <stop offset="1" stop-color="#ffb66d"/>
    </linearGradient>
    <radialGradient id="radialGradient10686" cx="63.912209" cy="115.70919" fx="42.094791" fy="115.7093" gradientTransform="matrix(2 0 0 .16483513 .175579 226.02332)" gradientUnits="userSpaceOnUse" r="63.912209" xlink:href="#linearGradient12560"/>
    <radialGradient id="radialGradient11644" cx="-52.250774" cy="128.00081" gradientTransform="matrix(3.6653889 0 0 3.1931863 87.466273 -194.55922)" gradientUnits="userSpaceOnUse" r="36.937431" spreadMethod="reflect">
      <stop offset="0" stop-color="#fff"/>
      <stop offset=".42597079" stop-color="#fff"/>
      <stop offset=".5892781" stop-color="#f1f1f1"/>
      <stop offset=".80219781" stop-color="#eaeaea"/>
      <stop offset="1" stop-color="#dfdfdf"/>
    </radialGradient>
    <linearGradient id="linearGradient11646" gradientUnits="userSpaceOnUse" x1="67.197702" x2="151.537721" xlink:href="#linearGradient2316" y1="156.566473" y2="156.566473"/>
    <linearGradient id="linearGradient11648" gradientUnits="userSpaceOnUse" x1="49.184354" x2="-71.717499" y1="121.384982" y2="223.21558">
      <stop offset="0"/>
      <stop offset=".5" stop-color="#7f7f7f" stop-opacity=".33935"/>
      <stop offset="1" stop-color="#fff"/>
    </linearGradient>
    <linearGradient id="linearGradient11654" gradientUnits="userSpaceOnUse" x1="68.781548" x2="153.121567" xlink:href="#linearGradient2316" y1="158.150319" y2="158.150319"/>
    <linearGradient id="linearGradient11656" gradientUnits="userSpaceOnUse" x1="191.842075" x2="191.762271" xlink:href="#linearGradient11584" y1="29.710408" y2="46.711702"/>
    <linearGradient id="linearGradient11658" gradientTransform="matrix(1.919467 0 0 1.8765816 6.343866 .040061)" gradientUnits="userSpaceOnUse" x1="111.30237" x2="108.5625" xlink:href="#linearGradient2959" y1="-18.911451" y2="26.541067"/>
    <linearGradient id="linearGradient11660" gradientUnits="userSpaceOnUse" x1="129.219456" x2="124.313976" xlink:href="#linearGradient11584" y1="106.460789" y2="204.132989"/>
    <linearGradient id="linearGradient11662" gradientTransform="matrix(1.98746 0 0 1.9665738 .175704 1.187318)" gradientUnits="userSpaceOnUse" x1="112.14121" x2="108.5625" xlink:href="#linearGradient2959" y1=".229723" y2="41.496986"/>
    <linearGradient id="linearGradient11664" gradientUnits="userSpaceOnUse" x1="470.061695" x2="5.086544" xlink:href="#linearGradient11584" y1="-98.987603" y2="222.993825"/>
    <linearGradient id="linearGradient11666" gradientUnits="userSpaceOnUse" x1="190.517173" x2="63.689857" xlink:href="#linearGradient11584" y1="-65.981146" y2="258.694708"/>
    <radialGradient id="radialGradient11668" cx="99.498825" cy="33.076019" fx="92.406448" fy="33.504173" gradientTransform="matrix(.76353234 .2231481 -.27934413 .95582043 139.93031 9.861278)" gradientUnits="userSpaceOnUse" r="17.845808" xlink:href="#linearGradient12560"/>
    <linearGradient id="linearGradient12566" gradientUnits="userSpaceOnUse" x1="193.258181" x2="217.969725" xlink:href="#linearGradient12560" y1="57.393781" y2="82.243879"/>
    <linearGradient id="linearGradient15192" gradientUnits="userSpaceOnUse" x1="64.854806" x2="149.194825" xlink:href="#linearGradient2316" y1="154.223575" y2="154.223575"/>
    <linearGradient id="linearGradient4284" gradientTransform="matrix(2.4999996 0 0 2.4999996 281.49515 1.4217)" gradientUnits="userSpaceOnUse" x1="-13.757333" x2="-62.424866" xlink:href="#XMLID_4_" y1="76.708466" y2="104.80668"/>
    <radialGradient id="XMLID_4_" cx="48" cy="-.2148" gradientTransform="matrix(.9792 0 0 .9725 133.0002 20.8762)" gradientUnits="userSpaceOnUse" r="55.147999">
      <stop offset="0" stop-color="#72d13d"/>
      <stop offset=".3553" stop-color="#35ac1c"/>
      <stop offset=".6194" stop-color="#0f9508"/>
      <stop offset=".7574" stop-color="#008c00"/>
      <stop offset="1" stop-color="#007a00"/>
    </radialGradient>
    <linearGradient id="linearGradient4289" gradientUnits="userSpaceOnUse" spreadMethod="reflect" x1="73.742638" x2="80" xlink:href="#linearGradient11584" y1="15.336544" y2="19.281664"/>
    <filter id="filter3387" height="1.189411" width="1.172683" x="-.086341" y="-.094706">
      <feGaussianBlur stdDeviation=".44655691"/>
    </filter>
    <linearGradient id="linearGradient3005" gradientTransform="scale(1.039383 .9621093)" gradientUnits="userSpaceOnUse" x1="64.341988" x2="76.284439" y1="18.50366" y2="18.50366">
      <stop offset="0" stop-color="#fff"/>
      <stop offset="1" stop-color="#252525" stop-opacity="0"/>
    </linearGradient>
    <radialGradient id="radialGradient4275" cx="171.49516" cy="211.42166" fx="131.49518" fy="251.42166" gradientUnits="userSpaceOnUse" r="59.999989">
      <stop offset="0" stop-opacity=".779026"/>
      <stop offset="1" stop-opacity="0"/>
    </radialGradient>
    <radialGradient id="radialGradient4271" cx="-44" cy="84" fx="-40" fy="96" gradientTransform="matrix(2.4999996 0 0 2.4999996 281.49515 1.4217)" gradientUnits="userSpaceOnUse" r="20" xlink:href="#XMLID_4_"/>
    <linearGradient id="linearGradient4268" gradientUnits="userSpaceOnUse" x1="153.97905" x2="153.97905" y1="152.76993" y2="271.44766">
      <stop offset="0" stop-color="#cbff9c"/>
      <stop offset="1" stop-color="#65c171" stop-opacity="0"/>
    </linearGradient>
    <linearGradient id="linearGradient4265" gradientUnits="userSpaceOnUse" x1="141.49515" x2="153.95372" xlink:href="#linearGradient11584" y1="131.42168" y2="241.42525"/>
    <linearGradient id="linearGradient4262" gradientUnits="userSpaceOnUse" x1="191.49515" x2="161.49515" xlink:href="#linearGradient11584" y1="241.42166" y2="181.42168"/>
    <linearGradient id="linearGradient4259" gradientUnits="userSpaceOnUse" x1="61.622574" x2="62.097939" xlink:href="#linearGradient11584" y1="57.512505" y2="85.106239"/>
    <filter id="filter3191" height="1.0368" width="1.0368" x="-.0184" y="-.0184">
      <feGaussianBlur stdDeviation=".2025"/>
    </filter>
  </defs>
  <path d="m101.67166 5.9581495v-5.58941597z" fill="#fff" fill-opacity=".756881"/>
  <ellipse cx="128" cy="245.09628" fill="url(#radialGradient10686)" opacity=".381395" rx="127.82442" ry="10.534988"/>
  <path d="m130.97541 34.441165c-6.06088-.548143-12.2963 1.489478-16.95552 6.148705l-107.5712753 107.50916c-8.3375636 8.33757-8.3375638 21.78488 0 30.12244l59.9343403 59.93435c8.337564 8.33757 21.784879 8.33755 30.122441 0l107.509184-107.57128c4.95042-4.95043 6.22617-11.66646 6.21081-18.07346l-.12422-57.01526c0-11.791102-9.51198-21.303087-21.30309-21.303087 0 0-56.85654.182687-57.82267.248432zm57.3258 10.185733c7.27932-.320836 12.23531 4.939726 12.23531 11.055246s-4.93974 11.055246-11.05525 11.055246c-6.11553.000002-11.11736-4.939726-11.11736-11.055246 0-5.7333 4.3367-10.8084 9.9373-11.055246z"/>
  <rect fill="url(#radialGradient11644)" height="87.781738" rx="15.697425" transform="matrix(.70710678 -.70710678 .70710678 .70710678 0 0)" width="146.82343" x="-103.43658" y="129.07945"/>
  <path d="m150.70783 115.22627-82.680277 82.68029" fill="none" opacity=".356557" stroke="url(#linearGradient11646)" stroke-width="13.2782"/>
  <rect height="87.781738" rx="15.697425" style="opacity:.229508;fill:none;stroke-width:5.96238;stroke-linecap:round;stroke-linejoin:round;stroke-dashoffset:4;stroke:url(#linearGradient11648)" transform="matrix(.70710678 -.70710678 .70710678 .70710678 0 0)" width="146.82343" x="-103.43658" y="129.07945"/>
  <rect height="87.781738" rx="15.697425" style="opacity:.229508;fill:none;stroke-width:9.34106;stroke-linecap:round;stroke-linejoin:round;stroke-dashoffset:4;stroke:url(#linearGradient11648)" transform="matrix(.70710678 -.70710678 .70710678 .70710678 0 0)" width="146.82343" x="-103.43658" y="129.07945"/>
  <rect height="87.781738" rx="15.697425" style="opacity:.229508;fill:none;stroke-width:2.98119;stroke-linecap:round;stroke-linejoin:round;stroke-dashoffset:4;stroke:url(#linearGradient11648)" transform="matrix(.70710678 -.70710678 .70710678 .70710678 0 0)" width="146.82343" x="-103.43658" y="129.07945"/>
  <path d="m152.29168 116.81012-82.680283 82.6803" fill="none" opacity=".356557" stroke="url(#linearGradient11654)" stroke-width="8.50832"/>
  <path d="m190.63306 36.354888c-20.85396 0-41.20788-.166688-62.06184-.166688-3.50205 0-8.4583 1.87329-11.6699 5.084895-3.29968 3.431665-6.76604 6.196612-10.06572 9.628275 4.79818-4.798169 14.33525-11.378017 22.04707-11.378017 14.74896 0 54.35911-.195368 61.75039-.06338 7.377 0 14.02247 4.215609 17.79716 10.753555-1.36891-3.862318-9.28808-13.858644-17.79716-13.858644z" fill="url(#linearGradient11656)" fill-rule="evenodd"/>
  <path d="m200.27998 53.25558c-3.7566-3.434006-6.78802-9.282459-6.78802-15.742525 0-7.02241 3.91083-13.562262 8.2337-18.829951 4.32284-5.267689 10.50905-8.196542 15.0718-9.2390455 4.56275-1.0425029 11.51747-.2428606 15.84032 3.0494455 4.32288 3.292306 6.9037 8.46488 6.9037 15.487287 0 7.02241-4.03075 13.882057-8.35362 19.149746-4.32286 5.267685-11.899 8.844735-16.46177 9.88724-1.79909.41106-2.773.514384-4.66892.326301v7.236568c1.80259-.15375 2.73624-.353863 4.66892-.795445 10.75588-2.45751 19.52996-8.683829 25.25301-15.65773 5.72303-6.973902 8.99751-15.13703 8.99751-23.281345 0-8.144313-3.27448-14.817631-8.99751-19.1763196-4.42644-3.3711736-10.65784-5.5143484-18.23495-5.1606002-2.21956.10362338-4.58117.44015464-7.01806.9969342-10.75583 2.4575093-19.58994 8.7424716-25.31299 15.7163726-5.72303 6.973902-8.93751 15.078386-8.93751 23.222701-.00002 8.144313 3.21448 14.876269 8.93751 19.234962 1.07307.817256 4.9444 2.527974 3.53903 2.1698-.0135-.0034 3.90176 2.487634 3.68743 1.360295 3.59906-1.467392 4.38993-6.911784 3.64042-9.954691z" fill="url(#linearGradient11658)"/>
  <path d="m179.87735 34.221754c-16.03619.05446-48.15449.199125-48.87909.248432-6.06088-.548141-12.2963 1.489478-16.95552 6.148704l-98.565595 98.50349c22.914521 3.93979 55.434876 9.11299 101.608895 15.83757 16.44421 2.39486 36.3579 4.04715 57.45001 5.15497l29.50136-29.50136c4.95043-4.95042 6.22618-11.66646 6.21081-18.07346l-.12421-57.01526c0-11.791099-9.51199-21.303086-21.30309-21.303086 0 0-3.59817-.01809-8.94357 0zm8.57092 10.372056c7.18626-.232085 12.11109 5.049612 12.11109 11.117355 0 6.115522-4.93974 11.055246-11.05525 11.055246-6.11554.000004-11.11735-4.939726-11.11735-11.055246-.00001-5.733298 4.33669-10.8084 9.9373-11.055246.0569-.0026.0676-.06028.12421-.06211z" fill="url(#linearGradient11660)" opacity=".110656"/>
  <path d="m193.41764 66.024129c4.17396-1.53776 6.73818-5.045362 7.07542-9.410133-3.88969-3.598684-6.54001-9.386815-6.54001-16.156674-.00002-7.359169 4.04933-14.212637 8.52534-19.732937 4.47598-5.520301 10.8813-8.589606 15.60567-9.682102 4.7244-1.092496 11.92546-.254507 16.40144 3.195681 4.476 3.450187 7.14824 8.870812 7.14824 16.229976 0 7.359169-4.17353 14.547768-8.64953 20.068068-4.47598 5.520299-12.32048 9.268885-17.04487 10.361382-1.86283.430774-3.89719.627292-5.86027.430188v7.583597c1.86645-.161124 3.85911-.459072 5.86027-.921832 11.13687-2.575359 20.22175-9.100259 26.14752-16.408593 5.92575-7.308332 9.31622-15.862922 9.31622-24.397797 0-8.534871-3.39047-15.528207-9.31622-20.0959159-4.58322-3.5328376-11.03537-5.778788-18.88087-5.4080758-2.29818.1085924-4.74345.4612621-7.26665 1.0447418-11.13686 2.5753589-20.28389 9.1617159-26.20964 16.4700489-5.92577 7.308333-9.25411 15.801467-9.25411 24.33634-.00002 8.534873 3.32834 15.589664 9.25411 20.157374 1.11107.856446 2.35747 1.654767 3.68794 2.336663z" fill="url(#linearGradient11662)"/>
  <path d="m173.23178 34.221754c-16.90054.06485-41.5995.205288-42.23352.248432-6.06088-.548141-12.2963 1.489478-16.95552 6.148704l-98.565595 98.50349c12.944251 2.22556 28.950445 4.87979 48.754878 7.94984 21.886945-34.39387 54.359327-74.11129 77.138287-93.162191 9.23136-7.720529 23.8156-14.271775 40.43239-19.688275-.60996.0012-1.25717-.0022-1.92535 0-2.00452.0068-4.2312-.0093-6.64557 0zm36.51958 17.266058c-3.0899 1.364177-6.17516 2.721872-9.192 4.099137.00059.0473 0 .07682 0 .124216 0 6.115522-4.93974 11.055246-11.05525 11.055246-2.65166.000002-5.10227-.933778-7.01822-2.484325-13.28085 6.670802-24.01122 12.955976-29.00449 17.949248-16.37826 16.378257-30.85745 47.204316-41.11558 72.045426 1.55911.22809 3.12883.45143 4.72022.68319 16.44421 2.39486 36.3579 4.04715 57.45001 5.15497l29.50136-29.50136c4.95043-4.95042 6.22618-11.66646 6.21081-18.07346l-.12421-57.01526c0-1.381769-.12303-2.729496-.37265-4.037028z" fill="url(#linearGradient11664)" opacity=".20082"/>
  <path d="m200.49306 56.483388c-3.88969-3.636906-6.54001-9.486514-6.54001-16.328275-.00002-7.43733 2.97698-14.792534 7.45299-20.371465 4.47597-5.578932 9.80892-8.895308 14.5333-9.9994079 4.72439-1.1040992 9.99521-.2572101 14.47119 3.2296229 4.476 3.486832 7.57719 9.393973 7.57719 16.831301 0 7.43733-3.10119 14.91675-7.57719 20.495681-4.47598 5.57893-9.7468 8.771092-14.47119 9.875192-1.86283.435349-3.81299.633954-5.77606.434757v8.260381c1.86644-.162833 3.7749-.463947 5.77606-.931622 11.13687-2.602712 20.22175-9.196914 26.14752-16.58287 5.92575-7.385954 9.31622-16.031403 9.31622-24.656925s-3.39047-15.693134-9.31622-20.3093566c-4.58322-3.5703599-11.03537-5.84016467-18.88087-5.46551512-2.29818.10974592-4.74345.46616122-7.26665 1.05583812-11.13686 2.6027117-20.28389 9.2590226-26.20964 16.6449776-5.92577 7.385955-9.25411 15.969294-9.25411 24.594817-.00002 8.625523 3.32834 15.755241 9.25411 20.371465 1.11107.865543 2.33392 1.608863 3.66438 2.298001.0127.0066.0493-.0066.0621 0 4.11186-1.554093 6.69963-5.035469 7.03687-9.446597z" fill="none"/>
  <path d="m173.23178 34.221754c-16.90054.06485-41.5995.205288-42.23352.248432-6.06088-.548141-12.2963 1.489478-16.95552 6.148704l-98.565595 98.50349c12.944251 2.22556 103.114205-66.16145 125.893165-85.212351 9.23136-7.720529 23.8156-14.271775 40.43239-19.688275-.60996.0012-1.25717-.0022-1.92535 0-2.00452.0068-4.2312-.0093-6.64557 0zm36.51958 17.266058c-3.0899 1.364177-6.17516 2.721872-9.192 4.099137.00059.0473 0 .07682 0 .124216 0 6.115522-4.93974 11.055246-11.05525 11.055246-2.65166.000002-5.10227-.933778-7.01822-2.484325-13.28085 6.670802-24.01122 12.955976-29.00449 17.949248-16.37826 16.378257-.0375 76.775766 21.05465 77.883586l29.50136-29.50136c4.95043-4.95042 6.22618-11.66646 6.21081-18.07346l-.12421-57.01526c0-1.381769-.12303-2.729496-.37265-4.037028z" fill="url(#linearGradient11666)" opacity=".143443"/>
  <path d="m181.82365 52.333083c1.48793 4.594536 4.20149 8.432706 7.9375 11.312505 1.11107.856445 2.29454 1.693105 3.625 2.375002 5.31217-1.901027 8.02229-7.010278 6.93751-12.812506-.30514-.278934-.64215-.565989-.9375-.875001zm43.43752 0c-3.67506 2.422117-7.71077 4.035936-10.56251 4.687502-1.79908.411059-2.72908.500585-4.625.312501v3.937501 3.312502 4.375002c1.86644-.16112 3.87384-.47474 5.875-.937501 10.73085-2.481461 19.56975-8.701328 25.50001-15.687507z" fill="url(#radialGradient11668)" opacity=".606557"/>
  <path d="m148.36494 112.88338-82.680285 82.68029" fill="none" opacity=".356557" stroke="url(#linearGradient15192)" stroke-width="19.908"/>
  <path d="m179.19949 60.104142c.98248 4.65147 5.17602 8.113532 10.26236 8.113534 5.08632 0 9.35881-3.462062 10.34129-8.113534-1.70955 3.86403-5.73258 6.582678-10.34129 6.582678-4.60872 0-8.5528-2.718648-10.26236-6.582678z" fill="#c5c5c5" opacity=".536885"/>
  <path d="m200.24932 53.197741c2.30172 8.101331 7.3129 6.184391 9.86694 13.650897v4.710346c-9.13162-2.87501-12.44427-2.275378-16.85808-5.519352 4.27807-1.66618 8.10518-5.174352 6.99114-12.841891z" fill="url(#linearGradient12566)" fill-rule="evenodd" opacity=".303279"/>
  <g transform="translate(17.165183 -22.804987)">
    <path d="m166.65141 151.42168c-8.29382 0-15.15626 6.86244-15.15626 15.15625v24.84374h-24.84374c-8.29381 0-15.15625 6.86245-15.15625 15.15625v9.6875c0 8.29382 6.86244 15.15624 15.15625 15.15624h24.84374v24.84377c0 8.2938 6.86245 15.15625 15.15626 15.15625h9.6875c8.29379 0 15.15624-6.86245 15.15624-15.15625v-24.84377h24.84376c8.2938 0 15.15624-6.86242 15.15624-15.15624v-9.6875c0-8.29381-6.86244-15.15625-15.15624-15.15625h-24.84376v-24.84374c0-8.29381-6.86245-15.15625-15.15624-15.15625z" fill="url(#linearGradient4284)"/>
    <path d="m69.875971 12.057888c-1.077088.06528-2.528221.219164-3 .9375l1.589684 11.138061 10.534345-.759359v-.46875c1.740958-2.57016-4.780448-10.906792-9.124029-10.847452z" fill="url(#linearGradient4289)" fill-rule="evenodd" filter="url(#filter3387)" transform="matrix(-1.2499999 0 0 1.2499999 251.49516 137.3196)"/>
    <path d="m69.875971 12.057888c-1.077088.06528-2.528221.219164-3 .9375l1.296715 8.794311 10.827314 1.584391v-.46875c1.740958-2.57016-4.780448-10.906792-9.124029-10.847452z" fill="url(#linearGradient4289)" fill-rule="evenodd" filter="url(#filter3387)" transform="matrix(1.2499999 0 0 1.2499999 92.384229 137.3196)"/>
    <path d="m69.875971 12.057888c-1.077088.06528-2.528221.219164-3 .9375l2.175622 10.747436 9.948407-.368734v-.46875c1.740958-2.57016-4.780448-10.906792-9.124029-10.847452z" fill="url(#linearGradient4289)" fill-rule="evenodd" filter="url(#filter3387)" opacity=".681648" transform="matrix(-1.2499999 0 0 -1.2499999 251.49516 286.49363)"/>
    <path d="m69.875971 12.057888c-1.077088.06528-2.528221.219164-3 .9375l.90609 10.552124 11.217939-.173422v-.46875c1.740958-2.57016-4.780448-10.906792-9.124029-10.847452z" fill="url(#linearGradient3005)" fill-rule="evenodd" filter="url(#filter3387)" opacity=".707865" transform="matrix(1.2499999 0 0 -1.2499999 92.384239 286.49363)"/>
    <path d="m69.875971 12.057888c-1.077088.06528-2.528221.219164-3 .9375l1.589684 11.138061 10.534345-.759359v-.46875c1.740958-2.57016-4.780448-10.906792-9.124029-10.847452z" fill="url(#linearGradient4289)" fill-rule="evenodd" filter="url(#filter3387)" opacity=".550562" transform="matrix(1.2499999 0 0 1.2499999 132.38422 176.34971)"/>
    <path d="m166.65141 151.42168c-8.29382 0-15.15626 6.86244-15.15626 15.15625v24.84374h-24.84374c-8.29381 0-15.15625 3.13478-15.15625 11.42858 0-2.36569 0 8.47783 0 13.41517 0 8.29382 6.86244 15.15624 15.15625 15.15624h24.84374v24.84377c0 8.2938 6.86245 15.15625 15.15626 15.15625h9.6875c8.2938 0 15.15625-6.86245 15.15625-15.15625v-24.84377h24.84375c8.2938 0 15.15624-6.86242 15.15624-15.15624v-9.6875c0-8.29381-6.86244-15.15625-15.15624-15.15625h-24.84375v-24.84374c0-8.29381-6.86245-15.15625-15.15625-15.15625z" fill="url(#radialGradient4275)" opacity=".580524"/>
    <path d="m69.875971 12.057888c-1.077088.06528-2.528221.219164-3 .9375l1.589684 11.138061 10.534345-.759359v-.46875c1.740958-2.57016-4.780448-10.906792-9.124029-10.847452z" fill="url(#linearGradient4289)" fill-rule="evenodd" filter="url(#filter3387)" opacity=".550562" transform="matrix(-1.2499999 0 0 1.2499999 210.60607 176.34971)"/>
    <path d="m166.65141 161.42168c-2.83492 0-5.15626 2.32133-5.15626 5.15625v34.84374h-34.84374c-2.83492 0-5.15625 2.32132-5.15625 5.15625v9.6875c0 2.83492 2.32133 5.15624 5.15625 5.15624h34.84374v34.84377c0 2.83493 2.32134 5.15625 5.15626 5.15625h9.6875c2.83492 0 5.15624-2.32132 5.15624-5.15625v-34.84377h34.84376c2.83492 0 5.15625-2.32132 5.15625-5.15624v-9.6875c0-2.83493-2.32133-5.15625-5.15625-5.15625h-34.84376v-34.84374c0-2.83492-2.32132-5.15625-5.15624-5.15625z" fill="url(#radialGradient4271)"/>
    <path d="m166.65141 161.42168c-2.83492 0-5.15626 2.32133-5.15626 5.15625v34.84374h-34.84374c-2.83492 0-5.15625 2.32132-5.15625 5.15625v9.6875c0 .27449.11437.51804.15625.78125 8.14421 1.17392 16.72835 1.875 25.62499 1.875 28.75393 0 54.5146-6.57458 71.48437-16.875-.72309-.38788-1.54836-.625-2.42186-.625h-34.84376v-34.84374c0-2.83492-2.32132-5.15625-5.15624-5.15625z" fill="url(#linearGradient4268)"/>
    <path d="m166.65141 161.42168c-2.83492 0-5.15626 2.32133-5.15626 5.15625v2.5c0-2.83493 3.32134-6.65625 6.15626-6.65625h9.68751c.70872 0 1.41496.1287 2.03123.39062.27565.6238 1.21875 2.81145 1.21875 3.53125l.90625 35.07812.0781-34.84374c0-1.43907-.60265-2.73395-1.5625-3.67188-.21943-.21942-.44758-.44755-.70313-.625-.0192-.013-.0587.0128-.0781 0-.2552-.17282-.49668-.34317-.78125-.46875-.0217-.009-.0563.009-.0781 0-.2865-.12175-.62777-.24407-.93749-.3125-.0256-.005-.0524.005-.0781 0-.30916-.0637-.61137-.073-.9375-.0781h-.0781-1.17188zm-40 39.99999c-2.83492 0-5.15625 2.32132-5.15625 5.15625v2.5c0-2.83493 2.32133-6.65625 5.15625-6.65625l34.84374-1zm54.84374 0 34.39942 1.2793c-16.89799 9.06775-44.55616 15.98634-71.27442 15.98632-4.44832 0-8.84885-.22488-13.12499-.54687 5.15098.46729 10.44853.78125 15.85937.78125 26.92515 0 51.20937-5.80928 68.12501-15 .0199-.0108.0582.0108.0781 0 1.1064-.60308 2.16156-1.24278 3.20312-1.875-.34076-.1828-.71323-.36195-1.09374-.46875-.025-.007-.053.006-.0781 0-.38094-.10113-.76344-.14945-1.17187-.15625h-.0781-1.17188z" fill="url(#linearGradient4265)"/>
    <path d="m166.65141 161.42168c-2.83492 0-5.15626 2.32133-5.15626 5.15625v2.5c0-2.83493 3.32134-6.65625 6.15626-6.65625h9.68751c.70872 0 1.41496.1287 2.03123.39062.27565.6238 1.21875 2.81145 1.21875 3.53125l.90625 35.07812.0781-34.84374c0-1.43907-.60265-2.73395-1.5625-3.67188-.21943-.21942-.44758-.44755-.70313-.625-.0192-.013-.0587.0128-.0781 0-.2552-.17282-.49668-.34317-.78125-.46875-.0217-.009-.0563.009-.0781 0-.2865-.12175-.62777-.24407-.93749-.3125-.0256-.005-.0524.005-.0781 0-.30916-.0637-.61137-.073-.9375-.0781h-.0781-1.17188zm-40 39.99999c-2.83492 0-5.15625 2.32132-5.15625 5.15625v2.5c0-2.83493 2.32133-6.65625 5.15625-6.65625l34.84374-1zm54.84374 0 34.64356 1.2793c-16.89798 9.06775-44.8003 15.98634-71.51856 15.98632-4.44832 0-8.84885-.22488-13.12499-.54687 5.15098.46729 10.44853.78125 15.85937.78125 26.92515 0 51.20937-5.80928 68.12501-15 .0199-.0108.0582.0108.0781 0 1.1064-.60308 2.16156-1.24278 3.20312-1.875-.34076-.1828-.71323-.36195-1.09374-.46875-.025-.007-.053.006-.0781 0-.38094-.10113-.76344-.14945-1.17187-.15625h-.0781-1.17188z" fill="url(#linearGradient4262)"/>
    <path d="m62.0625 43.999992c-1.13397 0-2.062504.928531-2.062504 2.0625v13.9375h-13.9375c-1.133969 0-2.0625.928528-2.0625 2.062498v3.875c0 1.13397.928531 2.0625 2.0625 2.0625h13.9375v13.93751c0 1.13397.928534 2.0625 2.062504 2.0625h3.875c1.13397 0 2.0625-.92853 2.0625-2.0625v-13.93751h13.9375c1.13397 0 2.0625-.92853 2.0625-2.0625v-3.875c0-1.13397-.92853-2.062498-2.0625-2.062498h-13.9375v-13.9375c0-1.133969-.92853-2.0625-2.0625-2.0625z" style="fill:none;stroke-width:.5;stroke-linecap:round;stroke-linejoin:round;stroke-dashoffset:1.0878;stroke:url(#linearGradient4259);filter:url(#filter3191)" transform="matrix(2.4999996 0 0 2.4999996 11.495188 51.42172)"/>
  </g>
</svg>
