<svg height="256" width="256" xmlns="http://www.w3.org/2000/svg" xmlns:xlink="http://www.w3.org/1999/xlink">
  <defs>
    <linearGradient id="linearGradient2940">
      <stop offset="0" stop-color="#fff"/>
      <stop offset="1" stop-color="#fff" stop-opacity="0"/>
    </linearGradient>
    <linearGradient id="linearGradient3273">
      <stop offset="0" stop-color="#fff" stop-opacity=".55036"/>
      <stop offset="1" stop-color="#fff" stop-opacity="0"/>
    </linearGradient>
    <linearGradient id="linearGradient3259">
      <stop offset="0" stop-color="#fff" stop-opacity=".55036"/>
      <stop offset="1" stop-opacity="0"/>
    </linearGradient>
    <linearGradient id="linearGradient3207">
      <stop offset="0" stop-color="#fff"/>
      <stop offset="1" stop-color="#252525" stop-opacity="0"/>
    </linearGradient>
    <radialGradient id="radialGradient2317" cx="49.009884" cy="8.495312" fx="47.370888" fy="6.77017" gradientTransform="matrix(.769753 1.181802 -7.650992 7.762471 62.39291 -29.03898)" gradientUnits="userSpaceOnUse" r="3.97504">
      <stop offset="0" stop-color="#fff"/>
      <stop offset="1" stop-color="#aeaeae"/>
    </radialGradient>
    <linearGradient id="linearGradient2319" gradientTransform="matrix(.981227 .967355 -1.189872 1.227494 77.89405 -44.83244)" gradientUnits="userSpaceOnUse" x1="48.498562" x2="48.732723" xlink:href="#linearGradient2940" y1=".811505" y2="2.365727"/>
    <radialGradient id="radialGradient2321" cx="49.011971" cy="2.674308" gradientTransform="matrix(.913761 0 0 .207981 43.52233 -82.64466)" gradientUnits="userSpaceOnUse" r="1.724619" xlink:href="#linearGradient3273"/>
    <radialGradient id="radialGradient2323" cx="49.011971" cy="2.674308" gradientTransform="matrix(3.15491 0 0 .208011 -61.469 -82.65113)" gradientUnits="userSpaceOnUse" r="1.724619" xlink:href="#linearGradient3207"/>
    <radialGradient id="radialGradient2325" cx="49.011971" cy="2.674308" gradientTransform="matrix(.906625 0 0 .207981 -140.6272 -82.64466)" gradientUnits="userSpaceOnUse" r="1.724619" xlink:href="#linearGradient3259"/>
    <radialGradient id="radialGradient2327" cx="34.677639" cy="7.462277" fx="11.254922" fy="18.452005" gradientTransform="matrix(1.135556 .00325649 -.00001156 .02608447 -4.700669 7.1547)" gradientUnits="userSpaceOnUse" r="47.595196">
      <stop offset="0" stop-color="#fff" stop-opacity=".683453"/>
      <stop offset="1" stop-color="#fff" stop-opacity="0"/>
    </radialGradient>
    <linearGradient id="linearGradient2329" gradientTransform="matrix(1.37789 .0001263 .01423919 1.378513 65.76164 -93.88427)" gradientUnits="userSpaceOnUse" x1="48.498562" x2="48.732723" xlink:href="#linearGradient2940" y1=".811505" y2="2.365727"/>
    <radialGradient id="radialGradient2331" cx="49.011971" cy="2.674308" gradientTransform="matrix(.913761 0 0 .167717 85.52731 -90.69359)" gradientUnits="userSpaceOnUse" r="1.724619" xlink:href="#linearGradient3273"/>
    <radialGradient id="radialGradient2333" cx="49.011971" cy="2.674308" gradientTransform="matrix(3.15491 0 0 .167755 -19.14379 -90.70726)" gradientUnits="userSpaceOnUse" r="1.724619" xlink:href="#linearGradient3207"/>
    <radialGradient id="radialGradient2335" cx="49.011971" cy="2.674308" gradientTransform="matrix(.906625 0 0 .167717 -182.6324 -90.69359)" gradientUnits="userSpaceOnUse" r="1.724619" xlink:href="#linearGradient3259"/>
    <linearGradient id="linearGradient3686" gradientTransform="matrix(1.99646 -.12336858 .05443816 1.698252 -1.203121 8.681536)" gradientUnits="userSpaceOnUse" spreadMethod="reflect" x1="55.743965" x2="121.51667" y1="46.374126" y2="11.318704">
      <stop offset="0" stop-color="#ff5900"/>
      <stop offset="1" stop-color="#ff0"/>
    </linearGradient>
    <radialGradient id="radialGradient5847" cx="67.497665" cy="36.571056" fx="51.110146" fy="38.92115" gradientTransform="matrix(2.286704 -.577966 .290872 .973872 -30.034687 69.574232)" gradientUnits="userSpaceOnUse" r="59.66724">
      <stop offset="0" stop-opacity="0"/>
      <stop offset=".87912089" stop-opacity="0"/>
      <stop offset="1"/>
    </radialGradient>
    <radialGradient id="radialGradient5998" cx="10.502676" cy="43.419136" gradientTransform="matrix(2.364338 -.14610068 .0381564 1.190326 -4.302423 32.765692)" gradientUnits="userSpaceOnUse" r="29.231159" spreadMethod="reflect" xlink:href="#linearGradient2940"/>
    <linearGradient id="linearGradient6010" gradientTransform="matrix(1.99646 -.12336858 .05443816 1.698252 -1.203121 8.681536)" gradientUnits="userSpaceOnUse" x1="92.518745" x2="95.046997" xlink:href="#linearGradient2940" y1="5.879021" y2="19.529158"/>
    <radialGradient id="radialGradient7795" cx="123.62269" cy="35.345421" fx="125.26403" fy="34.200359" gradientTransform="matrix(1.2912763 0 0 2.6204466 81.927546 -26.070249)" gradientUnits="userSpaceOnUse" r="3.246656" xlink:href="#linearGradient2940"/>
    <linearGradient id="linearGradient8150" gradientTransform="matrix(-25.45414 .984252 -.10729458 7.943096 535.00065 -480.91854)" gradientUnits="userSpaceOnUse" spreadMethod="pad" x1="18.704878" x2="13.317425" xlink:href="#linearGradient2940" y1="74.448128" y2="64.212517"/>
    <radialGradient id="radialGradient8227" cx="123.62269" cy="35.345421" fx="125.26403" fy="34.200359" gradientTransform="matrix(1.2912763 0 0 2.6204466 -170.17236 .334734)" gradientUnits="userSpaceOnUse" r="3.246656" xlink:href="#linearGradient2940"/>
    <linearGradient id="linearGradient2946" gradientUnits="userSpaceOnUse" x1="292.950889" x2="107.724135" xlink:href="#linearGradient2940" y1="79.430172" y2="40.579308"/>
    <radialGradient id="radialGradient2959" cx="103.12353" cy="24.956741" fx="101.56755" fy="22.07275" gradientTransform="matrix(2.031464 .802932 -.361226 .913922 4.897275 -64.681324)" gradientUnits="userSpaceOnUse" r="12.241624">
      <stop offset="0"/>
      <stop offset="1" stop-opacity="0"/>
    </radialGradient>
    <radialGradient id="radialGradient3867" cx="80.292313" cy="39.653671" gradientTransform="matrix(20.86782 -4.49454 .245976 .630224 -1542.1118 411.66726)" gradientUnits="userSpaceOnUse" r="9.040999">
      <stop offset="0" stop-color="#ff5f00"/>
      <stop offset="1" stop-color="#ff5f00" stop-opacity="0"/>
    </radialGradient>
  </defs>
  <path d="m199.67477 23.069018c-.60744 1.107154-1.24617 2.218526-2.08327 3.266088.1645.0188.33935.05602.50252.0753 20.33717 2.403862 31.43479 14.098444 33.93855 23.21437 2.50374 9.115925-5.74914 18.343299-22.37302 29.4592-16.62389 11.115898-41.85777 21.781244-71.21995 28.702164-29.36217 6.92092-57.038751 8.7273-77.375933 6.32344-20.337186-2.40386-32.328144-6.86454-34.831898-15.980466-2.503752-9.115924 1.118742-24.33188 17.742634-35.447781 16.623888-11.115903 44.892176-24.627537 74.254357-31.548457 7.54221-.09216 5.52878-3.96198-.33428-2.627486-32.876341 7.74924-63.098603 18.230066-83.189993 31.664581-20.091388 13.434517-31.9527238 28.931713-28.2036792 42.581629 3.7490452 13.64991 22.1684252 22.07001 46.7476512 24.97527 24.579219 2.90528 56.347331 2.44848 89.223681-5.30076 32.87633-7.74923 60.99631-21.40767 81.08773-34.84219 20.09134-13.434512 21.78154-28.356373 18.0325-42.00629-3.6881-13.427974-17.70654-22.031524-41.9176-22.508612z" fill="url(#linearGradient3686)"/>
  <path d="m40.123774 40.507884c.147209.736045-1.617347 1.187712-1.930889 1.869713-.313542.682.492414 2.315431-.162117 2.682885-.65453.367455-1.629369-1.171165-2.37488-1.258611-.745511-.08745-2.049941 1.183821-2.601672.674875-.551732-.508946.610341-1.911532.463132-2.647577-.147209-.736046-1.759348-1.583789-1.445806-2.26579s2.006581-.01023 2.661112-.377681c.654531-.367455.962604-2.162657 1.708115-2.075211.745511.08745.629794 1.905212 1.181525 2.414158.551732.508946 2.354271.247193 2.50148.983239z" fill="#eb7331" transform="matrix(1.99646 -.12336858 .05443816 1.698252 42.429789 -38.185824)"/>
  <path d="m-43.86199 91.807774c-5.746548-2.915528.576848-17.216398-2.358502-22.952846-2.935351-5.736449-18.233065-8.973759-17.236014-15.34.997051-6.36624 16.552023-4.771544 21.100637-9.335889 4.548613-4.564344 2.900225-20.113718 9.262985-21.132743 6.36276-1.019024 9.652865 14.267421 15.399413 17.18295 5.746549 2.915528 20.0255027-3.457203 22.9608536 2.279245 2.9353508 5.736449-10.5862245 13.589296-11.5832757 19.955536s9.4762156 17.97705 4.9276022 22.541395c-4.5486132 4.564344-16.1955121-5.868775-22.5582711-4.84975-6.36276 1.019024-14.168879 14.56763-19.915428 11.652102z" fill="#eb7331" transform="matrix(.46703 -.206418 .206418 .46703 212.03405 138.81425)"/>
  <path d="m177.55786 13.656192c-13.02386.201989-16.96822 4.359718-17.61011 10.52566-.72345 6.949474 10.8091 11.04089 18.73031 8.547956 18.86827-5.938146 46.37111 3.478096 52.19123 19.130786 3.30882 8.898767-4.54776 17.296259-21.17164 28.412158-16.62388 11.1159-41.85232 21.951078-71.2145 28.871998-29.36217 6.92092-57.038749 8.72729-77.375931 6.32344-20.33719-2.40387-33.968866-8.12446-36.47262-17.24038-1.02653-3.737508-1.934064-8.445728-.433804-13.532958l3.57827-14.945461c-5.65415 5.290247-13.723745 10.987973-16.043677 15.715747-3.0816438 5.847226-5.7478682 11.72148-4.2363492 17.224782 3.7490452 13.64991 21.1701942 22.13169 45.7494202 25.03695 24.579219 2.90528 56.347331 2.44848 89.223681-5.30076 32.87633-7.74923 62.50581-21.93373 82.59723-35.368258 20.09134-13.43451 26.65166-26.493375 22.9026-40.143292-3.74906-13.649914-16.98604-22.880874-41.63928-28.775153-13.06532-3.12376-23.4433-4.565901-28.77483-4.483215z" style="opacity:.368853;fill:none;stroke:#000;stroke-width:5.52946;stroke-linecap:round;stroke-linejoin:round;stroke-dashoffset:4;stroke-opacity:.044898"/>
  <path d="m177.53609 12.97689c-13.02387.201989-17.56717 4.396729-18.20905 10.562672-.72346 6.949472 11.42981 11.68318 19.35102 9.190246 18.86827-5.938146 49.39405 7.3445 51.79193 19.15546 1.86782 9.249253-4.15934 16.931933-20.78322 28.047836-16.62389 11.115896-41.85777 21.781246-71.21995 28.702166-29.36217 6.92092-57.038749 8.7273-77.375933 6.32344-20.33719-2.40386-33.353596-7.65199-35.85735-16.76791-1.02653-3.737508-1.734418-8.458066-.234158-13.545296l-13.86293.856644c-3.0816432 5.847226-5.7478672 11.721482-4.2363482 17.224782 3.7490442 13.64991 21.7691322 22.09468 46.3483582 24.99994 24.579219 2.90528 56.347331 2.44848 89.223681-5.30076 32.87633-7.74923 62.50581-21.93373 82.59723-35.368258 20.09134-13.43451 27.05094-26.518051 23.3019-40.167968-3.74906-13.649912-17.4071-23.535502-42.06034-29.42978-13.06534-3.123755-23.44331-4.5659-28.77484-4.483214z" style="opacity:.581967;fill:none;stroke:#000;stroke-width:3.6863;stroke-linecap:round;stroke-linejoin:round;stroke-dashoffset:4;stroke-opacity:.065306"/>
  <g opacity=".175" transform="matrix(-.61868 1.976754 -1.991358 -.17587762 295.16065 6.264646)">
    <path d="m118.78907 2.0588973c.53184-.547895 3.35709-.6241909 5.87615 1.8593065 2.54375 2.5078422 2.63975 5.1933474 1.97354 5.8796153-.43361.4467089-95.970314 97.3822009-96.403928 97.8288909-2.61659-2.57964-5.233159-5.15926-7.849735-7.738898.433619-.446703 95.970333-97.3821918 96.403973-97.8289147z" fill-rule="evenodd"/>
    <path d="m42.529815 79.422833c-1.375221.907976-12.340591 12.125941-13.147717 13.383904l6.297737 6.180851 13.147692-13.383895zm5.636697 5.524761-13.147697 13.383884 2.203352 2.187022c1.193941-.761432 12.215824-11.918008 13.147683-13.383892z" fill="url(#radialGradient2317)"/>
    <path d="m123.84698 3.3831922c1.66285 1.3566771 2.70525 3.3114393 2.75025 3.5027664.045.1913336-1.44629-1.9742288-2.84619-2.9189915-1.38919-.9375217-3.54078-.82251-3.68139-.9385225-.14059-.1160052-1.04625-1.2064534-.0754-1.2275181 1.0155-.022039 2.56815.5354505 3.8527 1.5822657z" fill="url(#linearGradient2319)" fill-rule="evenodd"/>
    <rect fill="url(#radialGradient2321)" height="1.290741" transform="matrix(.712123 .702055 -.696017 .718025 0 0)" width="3.151786" x="86.731697" y="-82.606361"/>
    <rect fill="url(#radialGradient2323)" height="1.290935" transform="matrix(.712168 .702009 -.688266 .725459 0 0)" width="10.88204" x="87.71843" y="-82.612938"/>
    <rect fill="url(#radialGradient2325)" height="1.290741" transform="matrix(-.712123 -.702055 -.696017 .718025 0 0)" width="3.127172" x="-97.754829" y="-82.606361"/>
    <path d="m39.4289 97.1653c-.05449.05527-.08604.108899-.09468.160888-.0086.052.0065.09754.0453.13663.03867.03893.08372.05393.135138.045.05142-.0089.104373-.04102.158857-.09629.0548-.05558.08651-.10937.09515-.161365.0086-.052-.0064-.09745-.04506-.136379-.03884-.03909-.08396-.05417-.135385-.04525-.05142.0089-.104526.04118-.159321.09676m-.06887-.06933c.111446-.113044.215692-.184537.312744-.214473.09705-.02994.175443-.01484.235176.04529.05957.05996.07473.139035.04548.237216-.02925.09818-.0996.203796-.211049.316844-.111135.112729-.215381.184222-.312744.214475-.09705.02993-.175359.01492-.234931-.04504-.05973-.06013-.07497-.139284-.04572-.237463.02956-.0985.09991-.20411.211047-.316846m1.031296-.667986.428626-.05466-.186208.188884-.287944.03767-.03478.289695-.187133.189821.05244-.433319-.411684.05294.18667-.189353.270571-.03451.03265-.273067.1876-.190294-.05081.416197m.07031-.435981.195492-.198301.289196-.02797.02656-.292333.195956-.198771-.05095.482687.155263.156284-.178779.181349-.15526-.15629-.477483.05334m1.748121-1.083825c-.03306.05681-.0707.112452-.112926.166922-.04222.05447-.08888.107615-.139954.159425-.11547.11713-.22406.192692-.325775.226696-.101877.03384-.182191.02119-.240939-.03795-.05941-.0598-.07178-.141698-.03712-.245695.03466-.104004.11174-.216606.231231-.337817.04613-.04679.09255-.08922.139254-.127286.04702-.03838.09378-.07201.140289-.100905l.07627.07678c-.05038.02749-.09764.05781-.14179.09095-.04384.03282-.08495.06871-.123335.107648-.0712.07222-.115533.138644-.133003.199263-.01732.06014-.0063.110011.03301.149595.039.03926.08769.05073.146067.03442.05837-.01631.121768-.05917.190185-.128569.01857-.01884.03518-.03684.04981-.05402.01478-.01765.0272-.03424.03726-.04977l-.07158-.07206-.109125.110694-.06368-.0641.278612-.282614.17723.178399m-.184179-.502587.482463-.489396.07183.0723-.303687.308052.06862.06907.285578-.289681.07183.0723-.285578.289681.08442.08498.313903-.318412.07183.0723-.492681.49976-.368527-.370961m.650096-.659438.199671-.202541.504906-.0013-.252761-.254428.169488-.171924.368529.370961-.199673.202542-.504906.0013.252762.254432-.169489.171922-.368527-.37096m1.125593-1.141765.199671-.202539.504905-.0013-.252761-.254426.169489-.171926.368528.37096-.199671.202542-.504908.0013.252763.254432-.169489.171923-.368527-.37096m.969405-.996805c.06594-.06688.127078-.110447.183422-.130686.05665-.02055.100611-.01509.131878.01638.03126.03147.03691.07563.01693.132475-.01997.05685-.06309.118869-.129334.186068-.06625.0672-.127616.111159-.184105.131875-.05618.0204-.0999.01487-.131166-.0166-.03127-.03147-.03699-.07571-.01718-.132726.02012-.05732.06331-.119583.129552-.186785m.04244.429361.382163-.387653.04937.04969-.382163.387655-.04937-.04969m-.000481-.387122c-.026.02638-.04094.05201-.04481.07689-.0036.02457.0042.04646.02329.06567.01909.01922.0407.02689.06483.02303.02444-.0042.04967-.01945.07567-.04583.0257-.02606.04041-.05129.04414-.07569.004-.02472-.0035-.04668-.02258-.06589-.01909-.01921-.04094-.02682-.06555-.02281-.0243.0037-.04929.01858-.07499.04464m1.174679-.919683c.05316-.04095.0998-.06564.139906-.07407.04025-.0089.07264-.001.09716.02367.03653.03677.03803.09146.0045.164054-.0337.07243-.101015.159833-.201934.262202-.0356.03611-.07292.07081-.111956.104087-.03856.03313-.07838.06437-.119445.09373l-.07331-.0738c.04232-.02497.08219-.05178.119613-.08042.03757-.02913.07229-.05986.104179-.0922.04736-.04805.07922-.08917.09558-.123389.01666-.03453.01685-.05999.000555-.07639-.01678-.01689-.04246-.01646-.07702.0013-.03442.01729-.07685.05152-.127313.102705l-.07151.07254-.06121-.06162.07522-.07631c.04489-.04553.07462-.08317.08919-.112923.01441-.02991.01396-.05257-.0013-.06798-.01416-.01425-.03578-.01443-.06487-.000547-.02909.01388-.06314.04061-.10215.08017-.02879.02921-.05616.06046-.08212.09377-.02595.03331-.05011.06812-.07246.104429l-.06961-.07007c.03002-.0411.06106-.08056.09309-.118379.03204-.03782.06478-.07368.09821-.107601.09009-.09137.165313-.151727.22569-.181043.06052-.02979.106578-.02879.138173.003.02156.0217.02857.05034.02103.08592-.0077.03541-.02965.07713-.06585.125157" fill="#999"/>
    <ellipse cx="34.677639" cy="7.462277" fill="url(#radialGradient2327)" rx="47.495197" ry="1.14129" transform="matrix(1.032406 -1.036404 -1.861463 -1.9626 52.02282 103.6246)"/>
    <g transform="matrix(.712202 .701974 .870513 -.883197 9.637176 -69.26202)">
      <path d="m127.80368-90.294455c-.006-.563594 1.95277-2.067585 5.4902-2.067265 3.5721.000332 5.52563 1.362339 5.5329 2.068292.005.459498.01-.08101.0143.378492-3.67438-.000328-7.34874-.000664-11.02311-.000999-.005-.459504-.01.081-.0143-.37852" fill-rule="evenodd"/>
      <path d="m132.33556-92.205799c2.13664-.162122 4.25123.370455 4.41759.454862.16635.08442-2.41591-.315135-4.07612-.06529-1.6475.247939-3.09913 1.531941-3.28071 1.544898-.18157.01297-1.59205-.100623-.91537-.662315.70777-.587493 2.20492-1.146223 3.85461-1.272157z" fill="url(#linearGradient2329)" fill-rule="evenodd"/>
      <rect fill="url(#radialGradient2331)" height="1.040863" transform="matrix(1 .00009167 .01032906 .999947 0 0)" width="3.151786" x="128.73668" y="-90.662788"/>
      <rect fill="url(#radialGradient2333)" height="1.041099" transform="matrix(1 .00004003 .02364474 .99972 0 0)" width="10.882042" x="130.04366" y="-90.676453"/>
      <rect fill="url(#radialGradient2335)" height="1.040863" transform="matrix(-1 -.00009167 .01032906 .999947 0 0)" width="3.127172" x="-139.75981" y="-90.662788"/>
    </g>
  </g>
  <g opacity=".26" transform="matrix(-.891184 1.837126 -1.992014 -.456582 326.05085 25.610852)">
    <path d="m118.78907 2.0588973c.53184-.547895 3.35709-.6241909 5.87615 1.8593065 2.54375 2.5078422 2.63975 5.1933474 1.97354 5.8796153-.43361.4467089-95.970314 97.3822009-96.403928 97.8288909-2.61659-2.57964-5.233159-5.15926-7.849735-7.738898.433619-.446703 95.970333-97.3821918 96.403973-97.8289147z" fill-rule="evenodd"/>
    <path d="m42.529815 79.422833c-1.375221.907976-12.340591 12.125941-13.147717 13.383904l6.297737 6.180851 13.147692-13.383895zm5.636697 5.524761-13.147697 13.383884 2.203352 2.187022c1.193941-.761432 12.215824-11.918008 13.147683-13.383892z" fill="url(#radialGradient2317)"/>
    <path d="m123.84698 3.3831922c1.66285 1.3566771 2.70525 3.3114393 2.75025 3.5027664.045.1913336-1.44629-1.9742288-2.84619-2.9189915-1.38919-.9375217-3.54078-.82251-3.68139-.9385225-.14059-.1160052-1.04625-1.2064534-.0754-1.2275181 1.0155-.022039 2.56815.5354505 3.8527 1.5822657z" fill="url(#linearGradient2319)" fill-rule="evenodd"/>
    <rect fill="url(#radialGradient2321)" height="1.290741" transform="matrix(.712123 .702055 -.696017 .718025 0 0)" width="3.151786" x="86.731697" y="-82.606361"/>
    <rect fill="url(#radialGradient2323)" height="1.290935" transform="matrix(.712168 .702009 -.688266 .725459 0 0)" width="10.88204" x="87.71843" y="-82.612938"/>
    <rect fill="url(#radialGradient2325)" height="1.290741" transform="matrix(-.712123 -.702055 -.696017 .718025 0 0)" width="3.127172" x="-97.754829" y="-82.606361"/>
    <path d="m39.4289 97.1653c-.05449.05527-.08604.108899-.09468.160888-.0086.052.0065.09754.0453.13663.03867.03893.08372.05393.135138.045.05142-.0089.104373-.04102.158857-.09629.0548-.05558.08651-.10937.09515-.161365.0086-.052-.0064-.09745-.04506-.136379-.03884-.03909-.08396-.05417-.135385-.04525-.05142.0089-.104526.04118-.159321.09676m-.06887-.06933c.111446-.113044.215692-.184537.312744-.214473.09705-.02994.175443-.01484.235176.04529.05957.05996.07473.139035.04548.237216-.02925.09818-.0996.203796-.211049.316844-.111135.112729-.215381.184222-.312744.214475-.09705.02993-.175359.01492-.234931-.04504-.05973-.06013-.07497-.139284-.04572-.237463.02956-.0985.09991-.20411.211047-.316846m1.031296-.667986.428626-.05466-.186208.188884-.287944.03767-.03478.289695-.187133.189821.05244-.433319-.411684.05294.18667-.189353.270571-.03451.03265-.273067.1876-.190294-.05081.416197m.07031-.435981.195492-.198301.289196-.02797.02656-.292333.195956-.198771-.05095.482687.155263.156284-.178779.181349-.15526-.15629-.477483.05334m1.748121-1.083825c-.03306.05681-.0707.112452-.112926.166922-.04222.05447-.08888.107615-.139954.159425-.11547.11713-.22406.192692-.325775.226696-.101877.03384-.182191.02119-.240939-.03795-.05941-.0598-.07178-.141698-.03712-.245695.03466-.104004.11174-.216606.231231-.337817.04613-.04679.09255-.08922.139254-.127286.04702-.03838.09378-.07201.140289-.100905l.07627.07678c-.05038.02749-.09764.05781-.14179.09095-.04384.03282-.08495.06871-.123335.107648-.0712.07222-.115533.138644-.133003.199263-.01732.06014-.0063.110011.03301.149595.039.03926.08769.05073.146067.03442.05837-.01631.121768-.05917.190185-.128569.01857-.01884.03518-.03684.04981-.05402.01478-.01765.0272-.03424.03726-.04977l-.07158-.07206-.109125.110694-.06368-.0641.278612-.282614.17723.178399m-.184179-.502587.482463-.489396.07183.0723-.303687.308052.06862.06907.285578-.289681.07183.0723-.285578.289681.08442.08498.313903-.318412.07183.0723-.492681.49976-.368527-.370961m.650096-.659438.199671-.202541.504906-.0013-.252761-.254428.169488-.171924.368529.370961-.199673.202542-.504906.0013.252762.254432-.169489.171922-.368527-.37096m1.125593-1.141765.199671-.202539.504905-.0013-.252761-.254426.169489-.171926.368528.37096-.199671.202542-.504908.0013.252763.254432-.169489.171923-.368527-.37096m.969405-.996805c.06594-.06688.127078-.110447.183422-.130686.05665-.02055.100611-.01509.131878.01638.03126.03147.03691.07563.01693.132475-.01997.05685-.06309.118869-.129334.186068-.06625.0672-.127616.111159-.184105.131875-.05618.0204-.0999.01487-.131166-.0166-.03127-.03147-.03699-.07571-.01718-.132726.02012-.05732.06331-.119583.129552-.186785m.04244.429361.382163-.387653.04937.04969-.382163.387655-.04937-.04969m-.000481-.387122c-.026.02638-.04094.05201-.04481.07689-.0036.02457.0042.04646.02329.06567.01909.01922.0407.02689.06483.02303.02444-.0042.04967-.01945.07567-.04583.0257-.02606.04041-.05129.04414-.07569.004-.02472-.0035-.04668-.02258-.06589-.01909-.01921-.04094-.02682-.06555-.02281-.0243.0037-.04929.01858-.07499.04464m1.174679-.919683c.05316-.04095.0998-.06564.139906-.07407.04025-.0089.07264-.001.09716.02367.03653.03677.03803.09146.0045.164054-.0337.07243-.101015.159833-.201934.262202-.0356.03611-.07292.07081-.111956.104087-.03856.03313-.07838.06437-.119445.09373l-.07331-.0738c.04232-.02497.08219-.05178.119613-.08042.03757-.02913.07229-.05986.104179-.0922.04736-.04805.07922-.08917.09558-.123389.01666-.03453.01685-.05999.000555-.07639-.01678-.01689-.04246-.01646-.07702.0013-.03442.01729-.07685.05152-.127313.102705l-.07151.07254-.06121-.06162.07522-.07631c.04489-.04553.07462-.08317.08919-.112923.01441-.02991.01396-.05257-.0013-.06798-.01416-.01425-.03578-.01443-.06487-.000547-.02909.01388-.06314.04061-.10215.08017-.02879.02921-.05616.06046-.08212.09377-.02595.03331-.05011.06812-.07246.104429l-.06961-.07007c.03002-.0411.06106-.08056.09309-.118379.03204-.03782.06478-.07368.09821-.107601.09009-.09137.165313-.151727.22569-.181043.06052-.02979.106578-.02879.138173.003.02156.0217.02857.05034.02103.08592-.0077.03541-.02965.07713-.06585.125157" fill="#999"/>
    <ellipse cx="34.677639" cy="7.462277" fill="url(#radialGradient2327)" rx="47.495197" ry="1.14129" transform="matrix(1.032406 -1.036404 -1.861463 -1.9626 52.02282 103.6246)"/>
    <g transform="matrix(.712202 .701974 .870513 -.883197 9.637176 -69.26202)">
      <path d="m127.80368-90.294455c-.006-.563594 1.95277-2.067585 5.4902-2.067265 3.5721.000332 5.52563 1.362339 5.5329 2.068292.005.459498.01-.08101.0143.378492-3.67438-.000328-7.34874-.000664-11.02311-.000999-.005-.459504-.01.081-.0143-.37852" fill-rule="evenodd"/>
      <path d="m132.33556-92.205799c2.13664-.162122 4.25123.370455 4.41759.454862.16635.08442-2.41591-.315135-4.07612-.06529-1.6475.247939-3.09913 1.531941-3.28071 1.544898-.18157.01297-1.59205-.100623-.91537-.662315.70777-.587493 2.20492-1.146223 3.85461-1.272157z" fill="url(#linearGradient2329)" fill-rule="evenodd"/>
      <rect fill="url(#radialGradient2331)" height="1.040863" transform="matrix(1 .00009167 .01032906 .999947 0 0)" width="3.151786" x="128.73668" y="-90.662788"/>
      <rect fill="url(#radialGradient2333)" height="1.041099" transform="matrix(1 .00004003 .02364474 .99972 0 0)" width="10.882042" x="130.04366" y="-90.676453"/>
      <rect fill="url(#radialGradient2335)" height="1.040863" transform="matrix(-1 -.00009167 .01032906 .999947 0 0)" width="3.127172" x="-139.75981" y="-90.662788"/>
    </g>
  </g>
  <g transform="matrix(-1.0841 1.73031 -1.93116 -.668738 350.16905 39.128172)">
    <path d="m118.78907 2.0588973c.53184-.547895 3.35709-.6241909 5.87615 1.8593065 2.54375 2.5078422 2.63975 5.1933474 1.97354 5.8796153-.43361.4467089-95.970314 97.3822009-96.403928 97.8288909-2.61659-2.57964-5.233159-5.15926-7.849735-7.738898.433619-.446703 95.970333-97.3821918 96.403973-97.8289147z" fill-rule="evenodd"/>
    <path d="m42.529815 79.422833c-1.375221.907976-12.340591 12.125941-13.147717 13.383904l6.297737 6.180851 13.147692-13.383895zm5.636697 5.524761-13.147697 13.383884 2.203352 2.187022c1.193941-.761432 12.215824-11.918008 13.147683-13.383892z" fill="url(#radialGradient2317)"/>
    <path d="m123.84698 3.3831922c1.66285 1.3566771 2.70525 3.3114393 2.75025 3.5027664.045.1913336-1.44629-1.9742288-2.84619-2.9189915-1.38919-.9375217-3.54078-.82251-3.68139-.9385225-.14059-.1160052-1.04625-1.2064534-.0754-1.2275181 1.0155-.022039 2.56815.5354505 3.8527 1.5822657z" fill="url(#linearGradient2319)" fill-rule="evenodd"/>
    <rect fill="url(#radialGradient2321)" height="1.290741" transform="matrix(.712123 .702055 -.696017 .718025 0 0)" width="3.151786" x="86.731697" y="-82.606361"/>
    <rect fill="url(#radialGradient2323)" height="1.290935" transform="matrix(.712168 .702009 -.688266 .725459 0 0)" width="10.88204" x="87.71843" y="-82.612938"/>
    <rect fill="url(#radialGradient2325)" height="1.290741" transform="matrix(-.712123 -.702055 -.696017 .718025 0 0)" width="3.127172" x="-97.754829" y="-82.606361"/>
    <path d="m39.4289 97.1653c-.05449.05527-.08604.108899-.09468.160888-.0086.052.0065.09754.0453.13663.03867.03893.08372.05393.135138.045.05142-.0089.104373-.04102.158857-.09629.0548-.05558.08651-.10937.09515-.161365.0086-.052-.0064-.09745-.04506-.136379-.03884-.03909-.08396-.05417-.135385-.04525-.05142.0089-.104526.04118-.159321.09676m-.06887-.06933c.111446-.113044.215692-.184537.312744-.214473.09705-.02994.175443-.01484.235176.04529.05957.05996.07473.139035.04548.237216-.02925.09818-.0996.203796-.211049.316844-.111135.112729-.215381.184222-.312744.214475-.09705.02993-.175359.01492-.234931-.04504-.05973-.06013-.07497-.139284-.04572-.237463.02956-.0985.09991-.20411.211047-.316846m1.031296-.667986.428626-.05466-.186208.188884-.287944.03767-.03478.289695-.187133.189821.05244-.433319-.411684.05294.18667-.189353.270571-.03451.03265-.273067.1876-.190294-.05081.416197m.07031-.435981.195492-.198301.289196-.02797.02656-.292333.195956-.198771-.05095.482687.155263.156284-.178779.181349-.15526-.15629-.477483.05334m1.748121-1.083825c-.03306.05681-.0707.112452-.112926.166922-.04222.05447-.08888.107615-.139954.159425-.11547.11713-.22406.192692-.325775.226696-.101877.03384-.182191.02119-.240939-.03795-.05941-.0598-.07178-.141698-.03712-.245695.03466-.104004.11174-.216606.231231-.337817.04613-.04679.09255-.08922.139254-.127286.04702-.03838.09378-.07201.140289-.100905l.07627.07678c-.05038.02749-.09764.05781-.14179.09095-.04384.03282-.08495.06871-.123335.107648-.0712.07222-.115533.138644-.133003.199263-.01732.06014-.0063.110011.03301.149595.039.03926.08769.05073.146067.03442.05837-.01631.121768-.05917.190185-.128569.01857-.01884.03518-.03684.04981-.05402.01478-.01765.0272-.03424.03726-.04977l-.07158-.07206-.109125.110694-.06368-.0641.278612-.282614.17723.178399m-.184179-.502587.482463-.489396.07183.0723-.303687.308052.06862.06907.285578-.289681.07183.0723-.285578.289681.08442.08498.313903-.318412.07183.0723-.492681.49976-.368527-.370961m.650096-.659438.199671-.202541.504906-.0013-.252761-.254428.169488-.171924.368529.370961-.199673.202542-.504906.0013.252762.254432-.169489.171922-.368527-.37096m1.125593-1.141765.199671-.202539.504905-.0013-.252761-.254426.169489-.171926.368528.37096-.199671.202542-.504908.0013.252763.254432-.169489.171923-.368527-.37096m.969405-.996805c.06594-.06688.127078-.110447.183422-.130686.05665-.02055.100611-.01509.131878.01638.03126.03147.03691.07563.01693.132475-.01997.05685-.06309.118869-.129334.186068-.06625.0672-.127616.111159-.184105.131875-.05618.0204-.0999.01487-.131166-.0166-.03127-.03147-.03699-.07571-.01718-.132726.02012-.05732.06331-.119583.129552-.186785m.04244.429361.382163-.387653.04937.04969-.382163.387655-.04937-.04969m-.000481-.387122c-.026.02638-.04094.05201-.04481.07689-.0036.02457.0042.04646.02329.06567.01909.01922.0407.02689.06483.02303.02444-.0042.04967-.01945.07567-.04583.0257-.02606.04041-.05129.04414-.07569.004-.02472-.0035-.04668-.02258-.06589-.01909-.01921-.04094-.02682-.06555-.02281-.0243.0037-.04929.01858-.07499.04464m1.174679-.919683c.05316-.04095.0998-.06564.139906-.07407.04025-.0089.07264-.001.09716.02367.03653.03677.03803.09146.0045.164054-.0337.07243-.101015.159833-.201934.262202-.0356.03611-.07292.07081-.111956.104087-.03856.03313-.07838.06437-.119445.09373l-.07331-.0738c.04232-.02497.08219-.05178.119613-.08042.03757-.02913.07229-.05986.104179-.0922.04736-.04805.07922-.08917.09558-.123389.01666-.03453.01685-.05999.000555-.07639-.01678-.01689-.04246-.01646-.07702.0013-.03442.01729-.07685.05152-.127313.102705l-.07151.07254-.06121-.06162.07522-.07631c.04489-.04553.07462-.08317.08919-.112923.01441-.02991.01396-.05257-.0013-.06798-.01416-.01425-.03578-.01443-.06487-.000547-.02909.01388-.06314.04061-.10215.08017-.02879.02921-.05616.06046-.08212.09377-.02595.03331-.05011.06812-.07246.104429l-.06961-.07007c.03002-.0411.06106-.08056.09309-.118379.03204-.03782.06478-.07368.09821-.107601.09009-.09137.165313-.151727.22569-.181043.06052-.02979.106578-.02879.138173.003.02156.0217.02857.05034.02103.08592-.0077.03541-.02965.07713-.06585.125157" fill="#999"/>
    <ellipse cx="34.677639" cy="7.462277" fill="url(#radialGradient2327)" rx="47.495197" ry="1.14129" transform="matrix(1.032406 -1.036404 -1.861463 -1.9626 52.02282 103.6246)"/>
    <g transform="matrix(.712202 .701974 .870513 -.883197 9.637176 -69.26202)">
      <path d="m127.80368-90.294455c-.006-.563594 1.95277-2.067585 5.4902-2.067265 3.5721.000332 5.52563 1.362339 5.5329 2.068292.005.459498.01-.08101.0143.378492-3.67438-.000328-7.34874-.000664-11.02311-.000999-.005-.459504-.01.081-.0143-.37852" fill-rule="evenodd"/>
      <path d="m132.33556-92.205799c2.13664-.162122 4.25123.370455 4.41759.454862.16635.08442-2.41591-.315135-4.07612-.06529-1.6475.247939-3.09913 1.531941-3.28071 1.544898-.18157.01297-1.59205-.100623-.91537-.662315.70777-.587493 2.20492-1.146223 3.85461-1.272157z" fill="url(#linearGradient2329)" fill-rule="evenodd"/>
      <rect fill="url(#radialGradient2331)" height="1.040863" transform="matrix(1 .00009167 .01032906 .999947 0 0)" width="3.151786" x="128.73668" y="-90.662788"/>
      <rect fill="url(#radialGradient2333)" height="1.041099" transform="matrix(1 .00004003 .02364474 .99972 0 0)" width="10.882042" x="130.04366" y="-90.676453"/>
      <rect fill="url(#radialGradient2335)" height="1.040863" transform="matrix(-1 -.00009167 .01032906 .999947 0 0)" width="3.127172" x="-139.75981" y="-90.662788"/>
    </g>
  </g>
  <path d="m177.50887 12.127763c-13.02387.20199-18.14433 5.113043-18.78622 11.278985-.72345 6.949472 12.0342 11.815994 19.95541 9.32306 18.86827-5.938146 49.17455 8.71796 51.75241 19.383274 2.47656 10.246241-4.13072 16.364471-20.75458 27.480368-16.6239 11.115902-41.85778 21.78125-71.21995 28.70217-29.36218 6.92092-57.038759 8.7273-77.375941 6.32344-20.337188-2.40387-32.943416-7.33701-35.447168-16.452934-1.026532-3.737506-.935836-8.507412.564424-13.594642l.955206-15.083867c-9.296836 5.582765-13.702225 10.262279-18.0124728 16.137899-3.0816434 5.847228-4.1506984 11.622788-2.6391804 17.126084 3.7490452 13.64991 22.1684252 22.07001 46.7476512 24.97527 24.579219 2.90528 56.347331 2.44848 89.223681-5.30076 32.87633-7.74923 62.50581-21.93373 82.59723-35.368258 20.09134-13.43451 27.45024-26.542723 23.7012-40.192642-3.74908-13.649912-17.83362-24.359958-42.48684-30.254234-13.06536-3.123756-23.44333-4.565898-28.77486-4.483213z" style="opacity:.53;fill:none;stroke:#000;stroke-width:1.84315;stroke-linecap:round;stroke-linejoin:round;stroke-dashoffset:4;stroke-opacity:.110204"/>
  <path d="m48.269695 52.36573c-4.90103 2.458707-9.452306 5.054069-13.565208 7.804241-11.872742 7.938954-20.832672 16.590909-25.4108128 25.159167-2.0027824 3.748322 2.7708998 7.64491 2.5682468 11.294496 3.999289 1.263292 2.39341 1.713794 6.928493 1.433554 2.462567-.15218 4.852947-.577984 7.150969-1.186342-1.862024-9.209412 2.144604-23.565404 18.03302-34.189513 2.05656-1.375166 4.28827-2.73915 6.683064-4.082086-.546908-2.182846-1.372042-4.2748-2.387772-6.233517z" fill="url(#linearGradient3686)"/>
  <path d="m177.49798 11.788114c-13.02386.201988-18.53818 5.307539-19.18006 11.473482-.72345 6.949472 12.43893 11.961146 20.36014 9.468212 18.86827-5.938146 47.82415 7.531736 51.39267 19.180132 2.77236 9.049599-3.7873 16.058135-20.41118 27.174036-16.62389 11.115898-41.85777 21.781244-71.21995 28.702164-29.36217 6.92092-57.038751 8.7273-77.375933 6.32344-20.337186-2.40386-32.328144-6.86454-34.831898-15.980466-1.026534-3.737508-.935834-8.507414.564426-13.594642l-17.6562068 1.091044c-3.0816434 5.847228-4.1506984 11.622788-2.6391804 17.126084 3.7490452 13.64991 22.1684252 22.07001 46.7476512 24.97527 24.579219 2.90528 56.347331 2.44848 89.223681-5.30076 32.87633-7.74923 62.50581-21.93373 82.59723-35.368258 20.09134-13.43451 27.45024-26.542723 23.7012-40.192642-3.74908-13.649912-17.84452-24.699604-42.49774-30.593884-13.06533-3.123758-23.44332-4.5659-28.77485-4.483212z" fill="url(#linearGradient3686)" opacity=".93"/>
  <path d="m113.15758 40.645612c-30.882249 7.553026-59.080705 16.978551-78.126463 29.713881-12.413476 8.300523-20.770193 8.565969-25.2961548 14.325273-2.7993724 3.56221-4.9299154 11.344276-3.2341544 18.066834 3.4511994 13.71767 22.1684252 22.07001 46.7476512 24.97527 24.579219 2.90528 56.347331 2.44848 89.223681-5.30076 32.87633-7.74923 61.45177-20.85088 81.54315-34.285402 20.09136-13.434508 28.28202-25.268341 24.53296-38.918256-2.5227-9.184838-10.3485-12.45243-22.11134-14.247402 3.95054 3.143608 6.21858 6.78015 6.34664 10.774678.0454 1.416916-.20036 2.85585-.67666 4.242682 2.18972 8.998697-6.04444 18.123419-22.44734 29.091566-16.62389 11.115898-41.85777 21.781244-71.21995 28.702164-29.36217 6.92092-57.038751 8.7273-77.375933 6.32344-20.337186-2.40386-32.328144-6.86454-34.831898-15.980466-2.503752-9.115924 1.44537-14.14236 18.069262-25.258261 14.486624-9.686778 37.865548-18.617658 63.076409-25.327473 1.22248-2.387308 3.18588-4.707818 5.78014-6.897768z" fill="url(#radialGradient5847)" opacity=".55"/>
  <path d="m69.692462 49.321984c-19.443187 7.837441-44.388367 20.151951-44.211869 42.397598.21914 27.620498 69.531248 26.129448 109.035637 16.877058-26.50291 11.6633-115.742147 15.29282-118.173483-15.410906-1.68823-21.319535 37.015016-42.829326 53.349715-43.86375z" fill="url(#radialGradient5998)" fill-rule="evenodd" opacity=".520492"/>
  <g opacity=".1" transform="matrix(-.454234 1.986658 -2.038278 .00311928 274.14365 4.216812)">
    <path d="m118.78907 2.0588973c.53184-.547895 3.35709-.6241909 5.87615 1.8593065 2.54375 2.5078422 2.63975 5.1933474 1.97354 5.8796153-.43361.4467089-95.970314 97.3822009-96.403928 97.8288909-2.61659-2.57964-5.233159-5.15926-7.849735-7.738898.433619-.446703 95.970333-97.3821918 96.403973-97.8289147z" fill-rule="evenodd"/>
    <path d="m42.529815 79.422833c-1.375221.907976-12.340591 12.125941-13.147717 13.383904l6.297737 6.180851 13.147692-13.383895zm5.636697 5.524761-13.147697 13.383884 2.203352 2.187022c1.193941-.761432 12.215824-11.918008 13.147683-13.383892z" fill="url(#radialGradient2317)"/>
    <path d="m123.84698 3.3831922c1.66285 1.3566771 2.70525 3.3114393 2.75025 3.5027664.045.1913336-1.44629-1.9742288-2.84619-2.9189915-1.38919-.9375217-3.54078-.82251-3.68139-.9385225-.14059-.1160052-1.04625-1.2064534-.0754-1.2275181 1.0155-.022039 2.56815.5354505 3.8527 1.5822657z" fill="url(#linearGradient2319)" fill-rule="evenodd"/>
    <rect fill="url(#radialGradient2321)" height="1.290741" transform="matrix(.712123 .702055 -.696017 .718025 0 0)" width="3.151786" x="86.731697" y="-82.606361"/>
    <rect fill="url(#radialGradient2323)" height="1.290935" transform="matrix(.712168 .702009 -.688266 .725459 0 0)" width="10.88204" x="87.71843" y="-82.612938"/>
    <rect fill="url(#radialGradient2325)" height="1.290741" transform="matrix(-.712123 -.702055 -.696017 .718025 0 0)" width="3.127172" x="-97.754829" y="-82.606361"/>
    <path d="m39.4289 97.1653c-.05449.05527-.08604.108899-.09468.160888-.0086.052.0065.09754.0453.13663.03867.03893.08372.05393.135138.045.05142-.0089.104373-.04102.158857-.09629.0548-.05558.08651-.10937.09515-.161365.0086-.052-.0064-.09745-.04506-.136379-.03884-.03909-.08396-.05417-.135385-.04525-.05142.0089-.104526.04118-.159321.09676m-.06887-.06933c.111446-.113044.215692-.184537.312744-.214473.09705-.02994.175443-.01484.235176.04529.05957.05996.07473.139035.04548.237216-.02925.09818-.0996.203796-.211049.316844-.111135.112729-.215381.184222-.312744.214475-.09705.02993-.175359.01492-.234931-.04504-.05973-.06013-.07497-.139284-.04572-.237463.02956-.0985.09991-.20411.211047-.316846m1.031296-.667986.428626-.05466-.186208.188884-.287944.03767-.03478.289695-.187133.189821.05244-.433319-.411684.05294.18667-.189353.270571-.03451.03265-.273067.1876-.190294-.05081.416197m.07031-.435981.195492-.198301.289196-.02797.02656-.292333.195956-.198771-.05095.482687.155263.156284-.178779.181349-.15526-.15629-.477483.05334m1.748121-1.083825c-.03306.05681-.0707.112452-.112926.166922-.04222.05447-.08888.107615-.139954.159425-.11547.11713-.22406.192692-.325775.226696-.101877.03384-.182191.02119-.240939-.03795-.05941-.0598-.07178-.141698-.03712-.245695.03466-.104004.11174-.216606.231231-.337817.04613-.04679.09255-.08922.139254-.127286.04702-.03838.09378-.07201.140289-.100905l.07627.07678c-.05038.02749-.09764.05781-.14179.09095-.04384.03282-.08495.06871-.123335.107648-.0712.07222-.115533.138644-.133003.199263-.01732.06014-.0063.110011.03301.149595.039.03926.08769.05073.146067.03442.05837-.01631.121768-.05917.190185-.128569.01857-.01884.03518-.03684.04981-.05402.01478-.01765.0272-.03424.03726-.04977l-.07158-.07206-.109125.110694-.06368-.0641.278612-.282614.17723.178399m-.184179-.502587.482463-.489396.07183.0723-.303687.308052.06862.06907.285578-.289681.07183.0723-.285578.289681.08442.08498.313903-.318412.07183.0723-.492681.49976-.368527-.370961m.650096-.659438.199671-.202541.504906-.0013-.252761-.254428.169488-.171924.368529.370961-.199673.202542-.504906.0013.252762.254432-.169489.171922-.368527-.37096m1.125593-1.141765.199671-.202539.504905-.0013-.252761-.254426.169489-.171926.368528.37096-.199671.202542-.504908.0013.252763.254432-.169489.171923-.368527-.37096m.969405-.996805c.06594-.06688.127078-.110447.183422-.130686.05665-.02055.100611-.01509.131878.01638.03126.03147.03691.07563.01693.132475-.01997.05685-.06309.118869-.129334.186068-.06625.0672-.127616.111159-.184105.131875-.05618.0204-.0999.01487-.131166-.0166-.03127-.03147-.03699-.07571-.01718-.132726.02012-.05732.06331-.119583.129552-.186785m.04244.429361.382163-.387653.04937.04969-.382163.387655-.04937-.04969m-.000481-.387122c-.026.02638-.04094.05201-.04481.07689-.0036.02457.0042.04646.02329.06567.01909.01922.0407.02689.06483.02303.02444-.0042.04967-.01945.07567-.04583.0257-.02606.04041-.05129.04414-.07569.004-.02472-.0035-.04668-.02258-.06589-.01909-.01921-.04094-.02682-.06555-.02281-.0243.0037-.04929.01858-.07499.04464m1.174679-.919683c.05316-.04095.0998-.06564.139906-.07407.04025-.0089.07264-.001.09716.02367.03653.03677.03803.09146.0045.164054-.0337.07243-.101015.159833-.201934.262202-.0356.03611-.07292.07081-.111956.104087-.03856.03313-.07838.06437-.119445.09373l-.07331-.0738c.04232-.02497.08219-.05178.119613-.08042.03757-.02913.07229-.05986.104179-.0922.04736-.04805.07922-.08917.09558-.123389.01666-.03453.01685-.05999.000555-.07639-.01678-.01689-.04246-.01646-.07702.0013-.03442.01729-.07685.05152-.127313.102705l-.07151.07254-.06121-.06162.07522-.07631c.04489-.04553.07462-.08317.08919-.112923.01441-.02991.01396-.05257-.0013-.06798-.01416-.01425-.03578-.01443-.06487-.000547-.02909.01388-.06314.04061-.10215.08017-.02879.02921-.05616.06046-.08212.09377-.02595.03331-.05011.06812-.07246.104429l-.06961-.07007c.03002-.0411.06106-.08056.09309-.118379.03204-.03782.06478-.07368.09821-.107601.09009-.09137.165313-.151727.22569-.181043.06052-.02979.106578-.02879.138173.003.02156.0217.02857.05034.02103.08592-.0077.03541-.02965.07713-.06585.125157" fill="#999"/>
    <ellipse cx="34.677639" cy="7.462277" fill="url(#radialGradient2327)" rx="47.495197" ry="1.14129" transform="matrix(1.032406 -1.036404 -1.861463 -1.9626 52.02282 103.6246)"/>
    <g transform="matrix(.712202 .701974 .870513 -.883197 9.637176 -69.26202)">
      <path d="m127.80368-90.294455c-.006-.563594 1.95277-2.067585 5.4902-2.067265 3.5721.000332 5.52563 1.362339 5.5329 2.068292.005.459498.01-.08101.0143.378492-3.67438-.000328-7.34874-.000664-11.02311-.000999-.005-.459504-.01.081-.0143-.37852" fill-rule="evenodd"/>
      <path d="m132.33556-92.205799c2.13664-.162122 4.25123.370455 4.41759.454862.16635.08442-2.41591-.315135-4.07612-.06529-1.6475.247939-3.09913 1.531941-3.28071 1.544898-.18157.01297-1.59205-.100623-.91537-.662315.70777-.587493 2.20492-1.146223 3.85461-1.272157z" fill="url(#linearGradient2329)" fill-rule="evenodd"/>
      <rect fill="url(#radialGradient2331)" height="1.040863" transform="matrix(1 .00009167 .01032906 .999947 0 0)" width="3.151786" x="128.73668" y="-90.662788"/>
      <rect fill="url(#radialGradient2333)" height="1.041099" transform="matrix(1 .00004003 .02364474 .99972 0 0)" width="10.882042" x="130.04366" y="-90.676453"/>
      <rect fill="url(#radialGradient2335)" height="1.040863" transform="matrix(-1 -.00009167 .01032906 .999947 0 0)" width="3.127172" x="-139.75981" y="-90.662788"/>
    </g>
  </g>
  <path d="m173.46445 11.92257c-4.30301.130764-11.472 2.823209-12.73384 6.241652-1.28346 3.477014 6.38021 6.333236 10.29036 5.809514 7.51978-1.007192 8.82741-2.545004 10.56699-5.433852 2.42208-4.02224 37.05967 2.809546 37.05967 2.809546s-23.34332-10.090563-45.18318-9.42686z" fill="url(#linearGradient6010)" fill-rule="evenodd"/>
  <path d="m25.659211 68.024477c-20.0225092 18.644437-28.0122878 36.887363 7.616418 49.357773 54.647506 16.48501 134.464101 3.55972 184.400921-28.269592-49.07225 36.077732-135.348441 49.466022-188.805367 32.064642-38.0598878-13.32129-26.0598128-33.74751-3.211972-53.152823z" fill="url(#linearGradient8150)" fill-rule="evenodd" opacity=".510101"/>
  <ellipse cx="241.55855" cy="66.550491" fill="url(#radialGradient7795)" rx="4.19233" ry="8.507687" transform="matrix(.99809622 -.06167611 .03203892 .99948662 0 0)"/>
  <ellipse cx="-10.541329" cy="92.955475" fill="url(#radialGradient8227)" rx="4.19233" ry="8.507687" transform="matrix(-.99809622 .06167611 .03203892 .99948662 0 0)"/>
  <path d="m28.699643 66.421154c-.981394 1.079533-3.723873-1.159259-5.152371-.862747-1.428499.296512-3.053401 3.441837-4.383366 2.84207s-.04822-3.899844-.771649-5.166799c-.72343-1.266956-4.216935-1.840371-4.057504-3.290581.15943-1.45021 3.694072-1.250977 4.675466-2.33051.981394-1.079534.447192-4.57925 1.87569-4.875762s2.331281 3.126699 3.661246 3.726466c1.329964.599767 4.493315-.989762 5.216744.277194.72343 1.266955-2.253261 3.183382-2.412691 4.633592-.159431 1.45021 2.329829 3.967544 1.348435 5.047077z" fill="#eb7331" transform="matrix(1.99646 -.1304121 .05443816 1.79521 28.982869 -32.276268)"/>
  <path d="m7.8018446 39.950608c-.5397667.490697-1.7984335-.753933-2.5235384-.674218s-1.6833186 1.568061-2.3167963 1.206346c-.6334776-.361715.1612864-1.94339-.1385971-2.608372-.2998835-.664983-2.0114885-1.116374-1.86323252-1.830623.14825602-.714249 1.89811392-.447148 2.43788062-.937845.5397668-.490697.4401504-2.258018 1.1652553-2.337733.7251049-.07972 1.0118125 1.667037 1.6452902 2.028752s2.2835164-.279158 2.5833999.385824c.2998835.664983-1.2727794 1.477434-1.4210354 2.191683s.9711404 2.085489.4313737 2.576186z" fill="#eb7331" transform="matrix(1.99646 -.1304121 .05443816 1.79521 28.982869 -32.276268)"/>
  <path d="m10.588219 92.891701c-.9813944-1.226743 1.864575-3.763067 1.791672-5.332372-.0729-1.569305-3.1417619-3.830851-2.278328-5.143297.863434-1.312446 4.155075.610465 5.625044.05619 1.469969-.554277 2.672499-4.171791 4.187524-3.756185 1.515026.415607.703403 4.140356 1.684797 5.367098.981394 1.226743 4.793456 1.252543 4.86636 2.821848.0729 1.569304-3.720349 1.948415-4.583783 3.26086-.863434 1.312446.290021 4.945906-1.179948 5.500183s-3.002705-2.936169-4.51773-3.351775c-1.515026-.415607-4.614214 1.804194-5.595608.577452z" fill="#eb7331" transform="matrix(1.99646 -.1304121 .05443816 1.79521 28.982869 -32.276268)"/>
  <path d="m127.65813 110.15767c71.53319 1.44606 155.00998-65.20204 92.88888-88.297414 57.13122 29.230184-34.03051 90.500014-92.88888 88.297414z" fill="url(#linearGradient2946)" fill-rule="evenodd"/>
  <path d="m195.57235 25.009052c-7.31303-.0158-12.11521 2.542056-12.5625 6.75 18.27444-2.887032 42.67666 8.823382 46.8125 19.4375 2.06178-1.760568 2.73102-4.267738 1.625-7.3125-2.77422-7.637174-15.76418-15.783872-29-18.1875-2.48172-.45068-4.76991-.68298-6.875-.6875z" fill="url(#radialGradient2959)" opacity=".54918"/>
  <path d="m128.90391 72.965975c9.0292-.67168 16.82343-2.763396 24.54721-4.936134l3.57435 9.490443c-7.32097 3.188766-15.68409 4.51037-24.5472 4.936138z" fill="url(#radialGradient3867)" opacity=".336066"/>
</svg>
