<svg height="256" width="256" xmlns="http://www.w3.org/2000/svg" xmlns:xlink="http://www.w3.org/1999/xlink">
  <defs>
    <linearGradient id="linearGradient1175">
      <stop offset="0" stop-color="#fff"/>
      <stop offset="1" stop-color="#ededed"/>
    </linearGradient>
    <filter id="filter1138" color-interpolation-filters="sRGB" height="1.869309" width="1.070048" x="-.035024" y="-.434654">
      <feGaussianBlur stdDeviation="5.9713193"/>
    </filter>
    <linearGradient id="linearGradient1119" gradientUnits="userSpaceOnUse" spreadMethod="reflect" x1="128.74869072" x2="251.5413564" y1="56.49050312" y2="56.25046808">
      <stop offset="0" stop-color="#002dcc"/>
      <stop offset=".16559018" stop-color="#002dcc"/>
      <stop offset="1" stop-color="#244deb"/>
    </linearGradient>
    <linearGradient id="linearGradient891" gradientUnits="userSpaceOnUse" x1="126.95048424" x2="154.86111072" xlink:href="#linearGradient901" y1="56.24053004" y2="56.24053004"/>
    <linearGradient id="linearGradient901">
      <stop offset="0" stop-color="#363735"/>
      <stop offset=".07077314" stop-color="#0b0b0b"/>
      <stop offset=".35532537" stop-color="#343b3f"/>
      <stop offset="1" stop-color="#343b3f"/>
    </linearGradient>
    <linearGradient id="linearGradient909" gradientUnits="userSpaceOnUse" x1="128.42532144" x2="155.67163272" xlink:href="#linearGradient907" y1="43.94306024" y2="68.7276656"/>
    <linearGradient id="linearGradient907">
      <stop offset="0" stop-color="#747973"/>
      <stop offset=".49817628" stop-color="#404040"/>
      <stop offset=".55324131" stop-color="#101010"/>
      <stop offset="1"/>
    </linearGradient>
    <linearGradient id="linearGradient993">
      <stop offset="0" stop-color="#bcbcbc"/>
      <stop offset=".20814922" stop-color="#b4b4b4"/>
      <stop offset=".21555807" stop-color="#b9c3f2"/>
      <stop offset="1" stop-color="#c5caf7"/>
    </linearGradient>
    <filter id="filter964" color-interpolation-filters="sRGB" height="1.227458" width="1.020966" x="-.010534" y="-.113732">
      <feGaussianBlur stdDeviation=".61707657"/>
    </filter>
    <filter id="filter1187" color-interpolation-filters="sRGB" height="1.271163" width="1.179487" x="-.089743" y="-.135582">
      <feGaussianBlur stdDeviation="1.1008832"/>
    </filter>
    <linearGradient id="linearGradient5209" gradientUnits="userSpaceOnUse" x1="126.95048424" x2="154.86111072" xlink:href="#linearGradient901" y1="188.72052904" y2="188.72052904"/>
    <linearGradient id="linearGradient5211" gradientUnits="userSpaceOnUse" x1="128.42532144" x2="155.67163272" xlink:href="#linearGradient907" y1="176.42306224" y2="201.2076676"/>
    <linearGradient id="linearGradient5089" gradientTransform="matrix(-.72 0 0 .72 159.32785 26.676821)" gradientUnits="userSpaceOnUse" x1="42.053242" x2="80.818001" xlink:href="#linearGradient901" y1="41.060707" y2="41.060707"/>
    <linearGradient id="linearGradient5091" gradientTransform="matrix(-.72 0 0 .72 159.32785 26.681318)" gradientUnits="userSpaceOnUse" x1="44.101627" x2="81.943726" xlink:href="#linearGradient907" y1="23.974642" y2="58.397705"/>
    <linearGradient id="linearGradient5203" gradientTransform="matrix(-.72 0 0 .72 159.32785 159.15682)" gradientUnits="userSpaceOnUse" x1="42.053242" x2="80.818001" xlink:href="#linearGradient901" y1="41.060707" y2="41.060707"/>
    <linearGradient id="linearGradient5205" gradientTransform="matrix(-.72 0 0 .72 159.32785 159.16132)" gradientUnits="userSpaceOnUse" x1="44.101627" x2="81.943726" xlink:href="#linearGradient907" y1="23.974642" y2="58.397705"/>
    <linearGradient id="linearGradient1393" gradientTransform="matrix(-.72 0 0 .72 159.32785 40.681316)" gradientUnits="userSpaceOnUse" x1="45.079845" x2="195.83098" xlink:href="#linearGradient993" y1="40.738739" y2="40.738739"/>
    <linearGradient id="linearGradient2313" gradientUnits="userSpaceOnUse" x1="129.2101524" x2="237.7509696" xlink:href="#linearGradient993" y1="70.01320808" y2="70.01320808"/>
    <linearGradient id="linearGradient2328" gradientTransform="matrix(-.8 0 0 .8 172.79334 -26.007196)" gradientUnits="userSpaceOnUse" x1="45.079845" x2="195.83098" xlink:href="#linearGradient993" y1="40.738739" y2="40.738739"/>
    <radialGradient id="radialGradient2330" cx="9.590435" cy="-375.33484" gradientTransform="matrix(.02057152 -.04001549 .13370247 .06873499 161.06543 -2.805001)" gradientUnits="userSpaceOnUse" r="81.34906">
      <stop offset="0" stop-color="#747973"/>
      <stop offset="1" stop-color="#747973" stop-opacity="0"/>
    </radialGradient>
    <linearGradient id="linearGradient2332" gradientUnits="userSpaceOnUse" x1="150.551212" x2="295.71069" y1="5.408453" y2="5.408453">
      <stop offset="0"/>
      <stop offset=".30057594" stop-opacity=".000806"/>
      <stop offset=".68152583" stop-opacity="0"/>
      <stop offset="1"/>
    </linearGradient>
    <radialGradient id="radialGradient1169" cx="200.22397" cy="41.960564" gradientTransform="matrix(1.4941449 -.00554826 .0056614 1.5246116 -115.38576 16.355254)" gradientUnits="userSpaceOnUse" r="62.495953" xlink:href="#linearGradient1175"/>
    <radialGradient id="radialGradient1185" cx="75.105003" cy="53.257263" gradientTransform="matrix(1.4649277 .02271427 -.02548209 1.6434351 -36.737502 -17.983385)" gradientUnits="userSpaceOnUse" r="62.495991" xlink:href="#linearGradient1175"/>
    <filter id="filter1449" color-interpolation-filters="sRGB" height="1.337627" width="3.691877" x="-1.345939" y="-.168814">
      <feGaussianBlur stdDeviation="9.0582356"/>
    </filter>
  </defs>
  <path d="m-177.98682 236.40396c-8.29692 0-12.466 7.07109-12.466 15.85578v6.27712c0 8.78469-.85066 10.8385 7.44627 10.8385h394.23958c8.29692 0 7.44626-2.05381 7.44626-10.8385v-6.27712c0-8.78469-4.16907-15.85578-12.46599-15.85578z" filter="url(#filter1138)" transform="matrix(.57373585 0 0 .57373585 119.90273 49.973625)"/>
  <path d="m16.657508 44.33377c-1.218163 0-2.199373.981208-2.199373 2.199375v151.914375c0 1.21817.98121 2.19937 2.199373 2.19937h87.308282v-15.92437h47.79984v14.48437h87.57688c1.21817 0 2.19937-.9812 2.19937-2.19937v-150.474375c0-1.218167-.9812-2.199375-2.19937-2.199375h-89.87328v16.332188h-42.27469v-16.332188z" fill="url(#linearGradient1119)" stroke="#7d95ef" stroke-linecap="round" stroke-linejoin="round" stroke-width="2.16"/>
  <path d="m138.66208 44.334324h15.83904v24.24044h-15.83904c-6.28878 0-10.14308-1.271588-10.14308-1.271588l-.00028-12.045293c-.00015-6.658378 3.85484-10.866913 10.14336-10.923559z" fill="url(#linearGradient891)" stroke="url(#linearGradient909)" stroke-linecap="round" stroke-linejoin="round" stroke-width="2.16"/>
  <path d="m149.92791-31.90006 14.78412-.168917c5.06534 3.901995 5.06294 15.143053-.271 19.487295h-19.39775c-8.3342-.111779-9.12363-19.250915 4.88463-19.318378z" filter="url(#filter1187)" opacity=".1" transform="matrix(.72 0 0 .72 28.651089 72.07026)"/>
  <path d="m138.66208 176.81433h15.83904v24.24044h-15.83904c-6.28878 0-10.02776-1.27159-10.02776-1.27159l.00018-12.04529c.0001-6.65838 3.73906-10.86692 10.02758-10.92356z" fill="url(#linearGradient5209)" stroke="url(#linearGradient5211)" stroke-linecap="round" stroke-linejoin="round" stroke-width="2.16"/>
  <path d="m117.33793 44.334324h-15.83904v24.24044h15.83904c6.28878 0 10.14353-1.271588 10.14353-1.271588l-.00018-12.045293c-.0001-6.658378-3.85483-10.866913-10.14335-10.923559z" fill="url(#linearGradient5089)" stroke="url(#linearGradient5091)" stroke-linecap="round" stroke-linejoin="round" stroke-width="2.16"/>
  <path d="m117.33793 176.81433h-15.83904v24.24044h15.83904c6.28878 0 10.02777-1.27159 10.02777-1.27159l-.00018-12.04529c-.00011-6.65838-3.73907-10.86692-10.02759-10.92356z" fill="url(#linearGradient5203)" stroke="url(#linearGradient5205)" stroke-linecap="round" stroke-linejoin="round" stroke-width="2.16"/>
  <path d="m128.01453 63.058593c-37.556818 3.53055-72.933701 4.421186-109.94853 0v131.909227c39.232929 4.51725 73.881048 2.94282 109.94853 0z" fill="url(#radialGradient1185)" stroke="url(#linearGradient1393)" stroke-width=".544252"/>
  <path d="m128.06596 63.058593c37.55678 3.53055 72.93364 4.421186 109.94846 0v131.909227c-39.23293 4.51725-73.88101 2.94282-109.94846 0z" fill="url(#radialGradient1169)" stroke="url(#linearGradient2313)" stroke-width=".544252"/>
  <g id="g2326" transform="matrix(-.9 0 0 .9 252.31703 50.087794)">
    <path d="m127.71327-1.1435564h-108.762246c.686064 11.1948274-.272952 11.6545634-3.114928 15.4547034 35.949565 3.936251 78.191789 5.674592 122.147274.304256.0549-8.0135411.9365-15.7049878-10.2701-15.7589594z" fill="#fff" stroke="url(#linearGradient2328)" stroke-width=".604724"/>
    <path d="m147.54219 35.921026c3.80932.680784 9.65094 1.234305 16.62315 1.556124 42.36724 1.95556 83.27373 2.324533 126.29949-.820518m-141.99143-5.47133c3.34795-.195239 12.16843-.706234 15.51101-.700345l126.67277.223159m-143.2317 8.433679c4.47382.662763 9.62988 1.08132 16.59026 1.599308 45.11268 3.357262 85.53846 2.973388 127.94969-1.072272m-144.29227-6.365253c47.40125 3.203481 94.67981 2.118221 142.91618.261418m-140.90504-4.876678c2.97121-.575111 10.12672-1.200309 13.4693-1.194488l127.99771.222896" fill="url(#radialGradient2330)" filter="url(#filter964)" opacity=".4" stroke="url(#linearGradient2332)" stroke-width=".566929" transform="matrix(-.8 0 0 .8 253.98461 -20.18615)"/>
    <path d="m156.94329 23.863829 14.78412-.168917c5.06534 3.901995 5.06294 15.143053-.271 19.487295l-26.29154.385767c-.13851-7.816721.50843-19.575379 11.77842-19.704145z" filter="url(#filter1187)" opacity=".1" transform="matrix(-.8 0 0 .8 253.98461 -20.18615)"/>
  </g>
  <rect filter="url(#filter1449)" height="128.77965" opacity=".2" stroke-width="2.2" width="16.152122" x="119.27622" y="64.366753"/>
  <path d="m137.58576 85.994367c-.00091-.24308.0137 3.66338.0127 3.4203 3.38581.447361 6.77332.853656 10.1822 1.212453-.00021-.06482-.0106-3.343954-.0109-3.408771-3.40939-.36208-6.79762-.772215-10.18408-1.223982zm12.21836 1.434001c-.00018-.05655.0107 3.463427.0105 3.406875 2.84733.282943 5.69403.530201 8.54918.739083-.00004-.01343-.009-3.386918-.009-3.400347-2.85554-.210679-5.7027-.46011-8.55047-.745611zm10.58955.889325c-.00002-.0073.009 3.406458.009 3.399127 2.42807.161724 4.85394.294654 7.28258.39777.00002.0092-.008-3.404997-.008-3.395808-2.42895-.103955-4.85517-.23799-7.28356-.401089zm9.32532.481339c.00003.01234.008 3.38283.008 3.395166.90338.03209 1.80643.05998 2.7094.08366.00004.0167-.007-3.411208-.007-3.394506-.90309-.02386-1.80626-.05198-2.70975-.08432zm4.74784.130939c.00004.01869.007 3.375463.007 3.394154.43401.0083.86794.01566 1.3018.02202 1.86808.03001 3.73307.04417 5.59699.04248.34327.000385.68649.000229 1.02968-.00047.00005.02766-.006-3.421662-.006-3.393997-.34323.000735-.6865.000923-1.02982.000563-1.86417.0018-3.72942-.01237-5.59775-.04257-.43392-.0064-.8679-.0138-1.30197-.02218zm9.95779.05349c.00005.02791.006 3.36636.006 3.394272 6.786-.05597 13.48933-.322616 20.21078-.781032.00003.045-.003-3.448654-.003-3.403651-6.72247.463502-13.42711.73332-20.21389.790411zm-46.81352 3.858259c-.00029-.07955.0127 3.520663.0124 3.441115 6.28459.81546 12.54326 1.488679 18.89212 1.982681-.00003-.01434-.009-3.409731-.009-3.424068-6.34966-.497954-12.60989-1.176842-18.89561-1.999728zm20.93336 2.153036c-.00002-.0095.009 3.432337.009 3.422854 2.28713.163464 4.57282.302206 6.86141.415252.00001.0052-.008-3.42486-.008-3.419626-2.28893-.113902-4.57499-.253719-6.86247-.41848zm8.90399.513136c.00002.0088.007 3.410112.007 3.41892 2.78076.118585 5.55583.198366 8.33251.238548.3548.0056.70953.01072 1.0642.01523.00004.02333-.006-3.440485-.006-3.417154-.35473-.0045-.70951-.0096-1.06437-.01531-2.77706-.04043-5.55256-.12077-8.33371-.240237zm11.42669.275315c.00004.02466.005 3.39243.006 3.417095.83475.0056 1.66897.0081 2.50282.0074 1.43985.0018 2.8784-.0057 4.31661-.02258.00004.03385-.005-3.45159-.004-3.417738-1.43843.01713-2.8772.02486-4.31726.02314-.83398.000701-1.66832-.0017-2.5032-.0073zm8.84412-.0461c.00004.03386.004 3.384319.004 3.418175 2.21439-.03938 4.42401-.100681 6.63237-.183378.00004.04348-.003-3.463857-.003-3.420381-2.20872.08363-4.41868.145663-6.63341.185584zm8.64991-.267929c.00004.04221.003 3.379068.003 3.421284 4.02542-.174431 8.02446-.418335 12.01996-.725949.00001.06101-.00074-3.4899-.00073-3.42889-3.99621.310764-7.99601.557214-12.02206.733555zm-58.73362 4.263122c-.00015-.04324.0119 3.50467.0117 3.46143 4.33902.55372 8.67525 1.04248 13.05039 1.45311-.00005-.0204-.009-3.42938-.009-3.44981-4.37584-.41376-8.71303-.90638-13.05289-1.46473zm15.08629 1.65101c-.00005-.0173.009 3.4657.009 3.44841 1.49248.13132 2.98529.25293 4.47979.36445-.00002-.009-.008-3.43691-.008-3.44571-1.49474-.11233-2.98781-.23484-4.48054-.36715zm6.52.51398c-.00001-.005.008 3.44982.008 3.44465 4.41075.30143 8.80578.51119 13.21571.62376.00003.0174-.006-3.4578-.006-3.44037-4.41055-.11327-8.80637-.32444-13.21779-.62804zm15.25476.67335c.00003.0199.005 3.42021.005 3.4401.43239.008.86469.0152 1.29692.0214 1.00233.0158 2.00394.0271 3.00515.0341.00003.0272-.005-3.46706-.005-3.43987-1.00136-.007-2.00312-.0184-3.0056-.0342-.4323-.006-.86466-.0134-1.29711-.0215zm6.32913.0638c.00004.0286.004 3.41134.004 3.43992.00003 0 .56241.00011.56238.00011.82228.001 1.64421-.0007 2.46599-.006.00004.0347-.004-3.47495-.004-3.4402-.8219.005-1.64396.007-2.46636.006.00002 0-.56244-.00007-.56247-.00007zm5.05304-.024c.00004.0354.004 3.40512.004 3.44051 3.25333-.0387 6.49457-.12407 9.73503-.25462.00003.0542-.002-3.49756-.002-3.4434-3.24097.13189-6.48275.21826-9.73656.25751zm11.75317-.34544c.00003.0525.002 3.39174.002 3.44428 3.09787-.14264 6.18154-.32552 9.2616-.54604 0 .0804-.00018-3.52998-.00018-3.44956-3.08059.22261-6.16482.40725-9.26318.55132zm-59.97344 4.39643c-.00009-.0266.0108 3.5078.0108 3.48126 3.60698.45342 7.21468.86322 10.84817 1.22166-.00004-.016-.009-3.45634-.009-3.47238-3.63407-.36093-7.24249-.7737-10.85013-1.23054zm12.88088 1.42652c-.00004-.0141.008 3.48512.008 3.47103 1.43494.13351 2.8704.25843 4.30766.3744-.00002-.009-.008-3.4599-.008-3.46849-1.43749-.11674-2.87319-.24251-4.30837-.37694zm6.34393.53608c-.00002-.006.007 3.47342.007 3.46744 2.17307.16221 4.34525.30314 6.52047.42184 0 .003-.006-3.46795-.006-3.46472-2.17555-.11945-4.34809-.26128-6.5215-.42456zm8.55969.52984c.00001.006.006 3.45788.006 3.46407 3.36231.16174 6.7155.26886 10.07301.31972.00003.0226-.005-3.48483-.005-3.46225-3.35799-.0511-6.71172-.15882-10.07453-.32154zm12.10381.34869c.00003.0248.004 3.43735.004 3.46216 1.28418.0136 2.56698.0201 3.84909.0195 0 0 .19004.00024.19004.00024.00004.0332-.004-3.4955-.004-3.46226 0 0-.19008-.00023-.19008-.00023-1.2823.00074-2.56529-.006-3.84966-.0194zm6.06662.0154c.00003.0348.003 3.42762.003 3.46245 1.54138-.008 3.08103-.0256 4.62017-.0539.00004.0472-.003-3.51042-.003-3.4632-1.53937.0286-3.07926.0469-4.62086.0546zm6.64148-.0981c.00003.0477.002 3.41594.002 3.46367 3.52891-.0854 7.04105-.22433 10.55138-.41392.00001.0897-.00069-3.55734-.00068-3.46758-3.51087.19127-7.02359.33147-10.55301.41783zm12.56099-.53278c.00001.0857.00034 3.38291.00035 3.46859 3.53343-.2102 7.04486-.46984 10.55127-.77423-.0001.24421.002-3.71946.001-3.47525-3.50701.30697-7.01906.56884-10.55304.78089zm12.54484-.96009c-.0001.20813-.002 3.26863-.002 3.47676 5.97164-.54715 11.83669-1.21208 17.70584-1.96179.00024-.1669.005-3.32662.005-3.49352-5.87025.75621-11.73672 1.42677-17.70928 1.97855zm-77.68129 5.70294c-.00004-.0163.01 3.51693.01 3.50059 2.3999.29766 4.80226.57664 7.21494.83457-.00003-.0123-.008-3.48287-.008-3.49514-2.41306-.25958-4.81582-.54037-7.21611-.84002zm9.24434 1.05288c-.00003-.0112.008 3.50497.008 3.49381 1.43122.14552 2.86327.28308 4.2975.41226-.00002-.008-.007-3.48345-.007-3.49127-1.43444-.12997-2.86671-.26837-4.29815-.4148zm6.33266.59329c-.00002-.006.007 3.49638.007 3.4902 4.06206.34261 8.11534.61403 12.18617.80787.00001.007-.005-3.49245-.005-3.48557-4.07139-.19488-8.12532-.46784-12.18796-.8125zm14.22553.90342c.00001.009.005 3.47569.005 3.48509 2.77967.1144 5.55351.19157 8.32918.2307 1.1967.0186 2.39232.0311 3.5874.0374.00003.0295-.003-3.51351-.003-3.48396-1.19525-.006-2.39103-.0188-3.5879-.0375-2.77606-.0393-5.55031-.1168-8.33037-.23179zm13.94297.27416c.00003.0319.003 3.45209.003 3.48404 2.16018.003 4.31668-.0133 6.47285-.0499.00003.0521-.002-3.537-.002-3.48485-2.15646.0371-4.31327.0541-6.47375.0508zm8.49403-.0914c.00003.0541.002 3.43115.002 3.48526 2.46376-.0561 4.92075-.13801 7.37608-.24486.00002.10645-.0009-3.59388-.00088-3.48743-2.45567.10774-4.91302.19036-7.37712.24703zm9.38861-.34089c.00002.10574.00057 3.38245.00059 3.4882 3.14905-.15447 6.28259-.34889 9.41221-.58038-.00031 1.31428.001-4.80705.0008-3.49277-3.13008.23328-6.2641.42922-9.4136.58495zm11.41006-.73881c-.00028.88921-.00082 2.60474-.001 3.49394 2.12908-.16818 4.25051-.3527 6.36841-.55234.00012-.20865.002-3.28949.002-3.49814-2.11823.20115-4.23999.38707-6.3694.55654zm8.35212-.74932c.00016-.22823-.003 3.72783-.002 3.49959 3.87659-.38279 7.71536-.81202 11.54779-1.27852.00008-.0733.004-3.43601.004-3.50928-3.83306.47006-7.67252.90253-11.5497 1.28821zm-81.37172 6.10539c-.00002-.009.008 3.5283.008 3.51944 2.23201.2736 4.46639.53134 6.7096.77131-.00002-.006-.007-3.50857-.007-3.51506-2.24349-.2413-4.47817-.5005-6.71047-.77569zm8.73747.98852c-.00001-.006.007 3.51957.007 3.51389.92425.0941 1.84899.18507 2.7746.27263-.00001-.004-.007-3.5081-.007-3.51243-.92573-.088-1.85059-.17943-2.77496-.27409zm4.80506.46155c0-.003.007 3.5147.007 3.51144 2.42035.21566 4.84044.40719 7.26627.57296 0 .001-.006-3.50996-.006-3.5085-2.42613-.16659-4.84655-.3591-7.26721-.5759zm9.3032.70949c.00001.003.005 3.5048.005 3.50784 3.04923.18981 6.09329.33726 9.14281.44039.00001.0123-.004-3.51816-.004-3.50581-3.0499-.10356-6.09438-.25169-9.144-.44242zm11.18023.5049c.00002.0146.004 3.49094.004 3.50555 1.36591.0373 2.73072.0655 4.09535.0847.40928.006.81847.0119 1.22758.0169.00002.0236-.003-3.5288-.003-3.50523-.40916-.005-.8184-.0105-1.22774-.0169-1.3648-.0192-2.72978-.0475-4.09587-.085zm7.34971.12041c.00002.0262.003 3.47901.003 3.50524.77891.005 1.55735.007 2.33547.007.90242.002 1.80441-.00027 2.70622-.006.00003.0408-.002-3.54637-.002-3.50555-.90193.005-1.80403.007-2.70656.006-.77822.00026-1.55675-.002-2.33576-.007zm7.06461-.0169c.00003.0445.002 3.4613.002 3.50579 1.59553-.0186 3.18898-.0481 4.78172-.0881.00004.0762-.002-3.58284-.001-3.50664-1.59295.0404-3.1866.0702-4.78233.089zm6.7996-.14595c.00003.0826.001 3.42452.001 3.50711 1.98257-.0611 3.96079-.13851 5.93737-.23174.00004.31017-.00054-3.81904-.0005-3.50887-1.97683.0939-3.9553.1719-5.93811.2335zm7.94724-.33443c.00002.36206.00021 3.14754.00024 3.5096 1.39029-.0731 2.77823-.15385 4.16482-.24201.00003-.31087.00027-3.20042.00029-3.5113-1.38677.0888-2.77488.17008-4.16535.24371zm6.16859-.37715c.00004-.28714-.00059 3.79934-.00055 3.51221 3.80057-.26125 7.57226-.57584 11.33817-.93717.00003-.0634.002-3.4551.002-3.5185-3.76639.36372-7.53859.68042-11.33963.94346zm13.3194-1.13898c.00005-.0627-.002 3.58253-.002 3.51978 2.11049-.21163 4.21199-.43673 6.30952-.67384.00003-.0426.003-3.48159.003-3.52424-2.0978.23869-4.1996.46527-6.31036.6783zm8.2742-.90534c.00004-.0423-.003 3.56798-.003 3.52572 1.4714-.17166 2.93827-.34863 4.40271-.53037.00004-.0339.004-3.49535.004-3.52924-1.46464.18295-2.93171.36109-4.4033.53389zm-90.93333 7.17817c-.00001-.003.007 3.54036.007 3.5378 2.8433.34506 5.68876.66454 8.54947.95456 0-.00047-.006-3.53278-.006-3.53326-2.86099-.29136-5.70673-.61235-8.55028-.9591zm10.57688 1.16021c0 .00015.006 3.53221.006 3.53235 3.9676.3816 7.92951.70112 11.9127.95116.00001.005-.005-3.53333-.005-3.52821-3.98361-.25107-7.94598-.57196-11.91396-.9553zm13.94994 1.07739c.00001.006.004 3.52153.004 3.52772 3.0208.17118 6.03597.30066 9.05577.38674.00002.0133-.003-3.53955-.003-3.52629-3.02014-.0864-6.03565-.21631-9.05678-.38817zm11.09196.43972c.00001.015.003 3.51112.003 3.52614.83142.0183 1.66247.0333 2.49336.0449 1.86497.0287 3.72681.043 5.58763.0427 0 0 .009.00001.009.00001.00002.0286-.002-3.55472-.002-3.52612 0 0-.009-.00002-.009-.00002-1.86102.0004-3.72306-.0138-5.58823-.0426-.83099-.0116-1.66213-.0266-2.49364-.045zm10.11427.0854c.00002.0321.002 3.49417.002 3.52628 2.07451-.008 4.14541-.0341 6.21573-.0781.00002.0686-.001-3.59573-.001-3.52708-2.07053.0444-4.14166.0708-6.2164.0789zm8.2363-.12797c.00003.0827.001 3.44473.001 3.52745 4.89869-.13176 9.75624-.36222 14.61457-.6829 0-.0634.0003-3.46838.0003-3.53182-4.85882.32259-9.71691.55452-14.61611.68727zm16.61507-.82506c.00001-.0575-.00052 3.59015-.00051 3.53263 2.13124-.15142 4.25513-.31934 6.37569-.50264.00001-.0341.001-3.50148.001-3.53555-2.12077.18435-4.24488.35325-6.37634.50556zm8.36417-.68292c.00001-.0323-.001 3.56886-.001 3.53655 2.20309-.20047 4.39688-.41653 6.58661-.64667.00001-.0231.002-3.51713.002-3.54021-2.18995.23143-4.38396.44872-6.58727.65033zm-78.93537 5.95589c.00001.003.006 3.55221.006 3.55569 7.45916.89781 14.85881 1.61218 22.40037 2.08429.00001.008-.004-3.55575-.004-3.548-7.54217-.47366-14.94244-1.19062-22.40193-2.09198zm24.43747 2.21365c.00001.008.004 3.53945.004 3.54761 2.31287.13079 4.62337.23741 6.93616.31902.00001.0106-.003-3.55725-.003-3.54666-2.313-.0818-4.6237-.18876-6.93678-.31997zm8.97431.38552c.00001.0112.003 3.53528.003 3.5465 1.56528.0452 3.12906.0788 4.69272.1006 1.05251.0162 2.10421.0278 3.15548.0348.00001.0166-.002-3.56291-.002-3.54634-1.05137-.007-2.10316-.0186-3.15577-.0348-1.5638-.0218-3.12772-.0555-4.69315-.10079zm9.87251.14338c.00001.0181.002 3.52831.002 3.54642.00002 0 .40769.00021.40767.00021.8726.002 1.74481.00031 2.61684-.004.00001.0234-.002-3.57007-.002-3.54663-.87211.005-1.7444.006-2.61707.005.00001 0-.4077-.00019-.40771-.00019zm5.04621-.0209c.00002.027.002 3.51981.002 3.54683 3.24915-.0356 6.48593-.11513 9.72209-.2372-.00005-.22031-.00075-3.32812-.0008-3.54843-3.23644.12278-6.47352.20288-9.72295.2388zm11.73667-.32068c-.00002-.0822.00064 3.63105.00063 3.54889 2.25622-.0973 4.50571-.21486 6.75271-.35163 0-.0207-.00007-3.53003-.00007-3.55076-2.24718.13747-4.49686.25562-6.75327.3535zm8.75429-.48104c0-.0172-.00008 3.56866-.00008 3.55141 3.0777-.20299 6.13834-.44066 9.19403-.70969.00001-.008.00078-3.54638.00078-3.55486-3.05591.27031-6.11678.50913-9.19473.71314zm11.17833-.89304c0-.008-.00092 3.56337-.00091 3.55571 3.49686-.32339 6.96497-.68456 10.42682-1.07711 0-.005.002-3.55601.002-3.5607-3.46204.39435-6.93038.75718-10.42747 1.0821zm-79.98935 6.08945c.00001.01.004 3.56307.004 3.57311 5.42403.64865 10.83246 1.20319 16.3081 1.63911.00001.0112-.004-3.57956-.004-3.56839-5.47595-.43709-10.88453-.99322-16.30861-1.64383zm18.3412 1.80032c.00002.0109.004 3.55707.004 3.56798 1.01354.0749 2.02721.14555 3.04144.21172.00001.011-.003-3.57844-.003-3.56744-1.0143-.0663-2.02803-.13712-3.04163-.21226zm5.07654.33928c.00001.0106.003 3.55649.003 3.56712 4.90393.29072 9.78288.47343 14.6807.54177 1.86432.0287 3.72551.0431 5.58569.0432 1.46615.003 2.93091-.003 4.39534-.0175 0 .001-.002-3.56773-.002-3.56659-1.46454.0149-2.9294.0209-4.39566.0178-1.86031-.00001-3.72163-.0144-5.58609-.043-4.89819-.0683-9.77749-.25138-14.68175-.5428zm26.58301.54337c0-.002.001 3.56891.001 3.56679 4.03357-.0621 8.04446-.19113 12.05545-.38375.00001.0284-.00058-3.59714-.00057-3.56878-4.01124.19349-8.02241.32323-12.05626.38574zm14.06309-.48784c.00001.0221.00046 3.5471.00046 3.56923 1.27811-.0681 2.55424-.14244 3.82917-.22287 0 .018-.00024-3.58817-.00024-3.57018-1.275.0808-2.5512.15543-3.82939.22382zm5.82862-.35549c0 .0159.00013 3.55481.00013 3.57072 2.2975-.15643 4.58635-.33191 6.87161-.52506 0 .0129.0002-3.58574.0002-3.57279-2.28536.19389-4.57432.37006-6.87194.52713zm8.85943-.70026c0 .012-.00027 3.56148-.00027 3.57345 5.57584-.49636 11.05916-1.08851 16.54485-1.75028 0 .008.00066-3.58809.00066-3.57976-5.48573.66406-10.96917 1.25834-16.54524 1.75659zm-78.74413 6.01148c.00001.0181.003 3.57198.003 3.59007 4.29941.51176 8.59488.96548 12.92926 1.34853.00001.0181-.003-3.60545-.003-3.58734-4.33448-.38379-8.62989-.83843-12.92916-1.35126zm14.95917 1.52552c.00002.0171.003 3.5699.003 3.58701 3.83223.31793 7.65731.57579 11.49815.76798.00001.0125-.003-3.59823-.003-3.5857-3.84104-.19247-7.66626-.45076-11.49859-.76929zm13.53612.86511c.00001.0108.002 3.57476.002 3.58558 3.16064.13869 6.31317.23143 9.46921.27686 0 .00059-.002-3.58597-.002-3.58538-3.15623-.0454-6.30893-.13819-9.46974-.27706zm11.49572.30319c0-.003.002 3.58808.002 3.58543 1.2311.0126 2.46095.0191 3.69015.0193 3.45432.008 6.89589-.0341 10.33864-.12424-.00002-.0835-.001-3.50298-.001-3.58652-3.44294.0906-6.88468.13268-10.3392.12517-1.22927-.00015-2.45918-.007-3.69036-.0191zm16.0446-.16459c-.00005-.20412.001 3.79091.00095 3.58679 4.89823-.155 9.75367-.40579 14.60923-.74327 0 .0616-.00039-3.65101-.00038-3.5894-4.8557.33854-9.71132.59021-14.6098.74588zm-56.02719 11.8745c.00002.0485.00089 3.57405.0009 3.62259 1.30505.15471 2.61133.30429 3.9202.44837.00001.0522-.001-3.67464-.001-3.62247-1.30877-.14412-2.61494-.29374-3.91985-.44849zm5.94033.66631c.00002.0471.001 3.57529.001 3.62241 5.00032.52719 9.98716.965 15.01715 1.29725.00001.0309-.002-3.65298-.002-3.62211-5.03009-.33227-10.01674-.7702-15.01682-1.29755zm17.05114 1.42597c.00002.0253.002 3.59683.002 3.62211.78909.0475 1.57816.0923 2.36741.13429.00001.0209-.002-3.64304-.002-3.62212-.78927-.042-1.57836-.0868-2.36746-.13428zm4.40257.23644c.00001.0154.002 3.6067.002 3.62214 3.57216.16849 7.13324.27896 10.69991.32933 0 0 .12032.002.12032.002-.00001-.0141-.001-3.60836-.001-3.62247-.00001 0-.12033-.002-.12033-.002-3.56681-.0502-7.12799-.16057-10.70026-.329zm12.8456.35604c-.00001-.0206.001 3.64321.001 3.62258 1.14719.0112 2.2933.017 3.43883.0175 1.17956.003 2.35832.00007 3.53682-.008-.00001-.0427-.00093-3.58033-.00094-3.623-1.17854.009-2.35733.0115-3.53694.009-1.14556-.0004-2.29171-.006-3.43894-.0173zm8.99578-.0118c-.00002-.0547.00089 3.67786.00087 3.62313 3.80929-.0487 7.59963-.15675 11.38996-.32148-.00002-.11523-.00059-3.50883-.00061-3.62407-3.79039.16508-7.58081.27342-11.39022.32242zm13.39827-.41516c-.00003-.17357.00061 3.79783.00058 3.62426 3.39598-.16544 6.77304-.37493 10.14609-.62493-.00009-.50735-.00055-3.11786-.00064-3.62521-3.37299.25032-6.75002.46014-10.14603.62588zm12.1378-.7784c.00028 1.53996.00039 2.08543.00067 3.6254 3.063-.24145 6.10748-.51433 9.14657-.81496.00009.29741-.001-3.92363-.001-3.62621-3.03891.30087-6.08324.57403-9.14616.81577zm11.12095-1.01522c.00006.1671.001 3.45926.001 3.62637 3.14912-.32398 6.27389-.67468 9.39313-1.04718.00007.11029-.002-3.73722-.002-3.62694-3.11891.37263-6.24336.72353-9.39228 1.04775zm-85.891 6.78686c.00001.0916.00024 3.54653.00025 3.63817 2.84179.33707 5.68524.6493 8.54305.93293.00002.0952-.001-3.73392-.001-3.63868-2.85766-.28349-5.70083-.59554-8.54228-.93242zm10.56842 1.12833c.00003.0774.001 3.56133.001 3.63879 3.28878.3098 6.57518.57835 9.87449.80137.00001.0486-.001-3.68783-.001-3.63927-3.29934-.22286-6.58565-.49125-9.8743-.80089zm11.91048.9325c.00001.037.001 3.60233.001 3.63938 5.17051.31931 10.31249.52081 15.47663.59664-.00001-.0183-.00088-3.62189-.00088-3.64025-5.16438-.0755-10.30642-.27671-15.47704-.59577zm17.50253.62241c-.00001-.025.00081 3.6654.00081 3.64039.92484.01 1.84903.0161 2.77283.0189-.00001-.0315-.00071-3.60903-.00072-3.64057-.92383-.003-1.84805-.009-2.77292-.0187zm4.79473.0214c-.00001-.0391.00066 3.67978.00065 3.64069 3.4482-.001 6.88349-.0519 10.3196-.15018-.00001-.0634-.00038-3.57798-.00039-3.64135-3.43618.0984-6.87155.14914-10.31986.15084zm12.33557-.21405c-.00001-.0775.00037 3.71895.00036 3.64146 1.30994-.0445 2.61818-.0959 3.9255-.15398-.00001-.0805-.00031-3.56123-.00032-3.64169-1.30732.0581-2.61558.10958-3.92554.15421zm5.93309-.24876c-.00001-.10137.00032 3.74317.00031 3.6418 4.23241-.21017 8.43193-.48843 12.62771-.82757-.00002-.1545-.00056-3.48782-.00058-3.64233-4.19562.33926-8.395.6177-12.62744.8281zm14.61477-.99332c-.00005-.24367.00073 3.88604.00068 3.64237 4.27929-.36535 8.51429-.78894 12.74398-1.2598-.00051-1.05982-.001-2.58245-.002-3.64226-4.22923.47069-8.4638.89425-12.7429 1.25969zm-77.65929 6.03145c0 .30844-.00007 3.34485-.00007 3.6533 4.05099.48156 8.09923.91171 12.17925 1.28007.00006.24865-.00098-3.90367-.00092-3.65502-4.07993-.36789-8.12776-.79747-12.17826-1.27835zm14.20784 1.45597c.00005.1476.00094 3.50767.00098 3.65527 6.29356.53468 12.54484.90769 18.84912 1.09781 0-.006-.00066-3.65143-.00066-3.65713-6.30468-.18957-12.55587-.56197-18.84944-1.09595zm20.88309 1.15068c0-.0133.00057 3.6706.00057 3.65731 1.00221.0239 2.00387.0431 3.00535.0575 1.8635.0295 3.72392.0449 5.58331.0462.72976.002 1.45926.002 2.18864-.00063 0-.0387-.00015-3.61946-.00015-3.65814-.7294.002-1.45893.003-2.18871.00078-1.85947-.001-3.71996-.0164-5.58354-.0457-1.00151-.0143-2.00322-.0334-3.00547-.0572zm12.79818.0898c0-.001.00008 3.65683.00008 3.65826 2.49182-.0221 4.97763-.0696 7.46259-.14215 0-.001.00012-3.66007.00012-3.65864-2.48501.0726-4.97088.12032-7.46279.14253zm9.47616-.20683c0-.0624-.00016 3.72114-.00016 3.65872 3.20858-.11102 6.40271-.26289 9.59412-.45327 0-.0713.00016-3.58765.00016-3.65892-3.19136.19039-6.38548.34233-9.59412.45347zm11.5944-.57783c0-.001-.00013 3.65753-.00013 3.65891 3.88968-.25158 7.75003-.55777 11.60524-.912-.00001-.10097-.00045-3.55755-.00046-3.65851-3.85493.35398-7.71504.66005-11.60465.9116zm-68.95983 5.39825c0-.001-.00001 3.6668-.00001 3.668 4.02246.47998 8.04224.90899 12.09251 1.27696-.00009-.36286-.00079-3.30782-.00087-3.67069-4.05025-.36721-8.06963-.79534-12.09163-1.27427zm14.12126 1.45291c-.001-5.77044.002 9.44149.0009 3.67106 1.37788.11783 2.75602.2281 4.13551.3305.00018.74961-.001-4.42136-.00088-3.67175-1.37952-.10219-2.75766-.21223-4.13553-.32981zm6.16877.47462c.00004.18062.0008 3.49146.00084 3.67208 3.01719.2067 6.02998.37425 9.04858.50046 0 .0114-.00047-3.68476-.00047-3.67335-3.01878-.12583-6.03166-.29296-9.04895-.49919zm11.08551.57774c0-.00087.00035 3.67449.00035 3.67361 1.97212.0702 3.94179.12231 5.9117.15611 0-.001 0-3.67567 0-3.67429-1.97004-.0336-3.93981-.0855-5.91205-.15543zm7.94179.18562c0-.001-.00011 3.67311-.00011 3.67449 1.45569.0185 2.9096.0284 4.36271.0296.81454.002 1.62876.002 2.44282-.001.00001-.0369.00047-3.63812.00047-3.67506-.8141.003-1.62836.004-2.44294.001-1.45319-.001-2.90717-.0108-4.36295-.0292zm8.82811.0142c0-.0419-.00058 3.7171-.00057 3.67519 2.01389-.019 4.02425-.0547 6.0338-.10689.00002-.0453.0008-3.63014.00082-3.67545-2.00963.0522-4.02007.088-6.03405.10715zm8.04838-.16498c.00001-.0509-.00089 3.72637-.00088 3.6755 3.93774-.12369 7.8521-.30941 11.76443-.55292.00002-.0567.00096-3.61863.00097-3.67537-3.91229.24334-7.82664.42902-11.76452.55279zm13.76356-.68213c.00001-.0645-.00095 3.73973-.00094 3.67527 3.07493-.20677 6.13336-.4476 9.18708-.71928.00001-.0675.00046-3.60697.00048-3.67442-3.05351.27129-6.11176.51185-9.18662.71843zm11.16877-.89888c0-.0786-.00031 3.75272-.00031 3.67416.87678-.0818 1.7524-.16607 2.62718-.2526 0-.001.00006-3.67503.00006-3.67375-.87469.0864-1.75023.17048-2.62693.25219zm4.6031-.45137c0-.001.00017 3.67214.00017 3.6734 3.20769-.33027 6.39101-.689 9.56892-1.07112-.00004-.0943-.002-3.5768-.002-3.67113-3.17733.38119-6.3601.73917-9.56743 1.06885zm-85.72908 6.83343c-.00001-.11319.0005 3.79544.00049 3.68225 2.78981.33464 5.58103.64493 8.38499.92738-.00003-.10359-.001-3.58127-.001-3.68486-2.80392-.28169-5.59491-.5911-8.38443-.92477zm10.41099 1.12325c-.00004-.13212.001 3.81753.001 3.68541 1.01008.0966 2.02052.18938 3.03178.27814-.00003-.12292-.001-3.56325-.001-3.68618-1.01127-.0885-2.02172-.18102-3.03179-.27737zm5.06446.44978c-.00005-.18185.001 3.86852.001 3.68667 1.49051.1227 2.98114.23636 4.47318.34062-.00007-.31074-.00076-3.37691-.00083-3.68764-1.49213-.10396-2.98281-.21729-4.47337-.33965zm6.50709.47542c.00012.61486.00059 3.07319.00071 3.68806 4.77208.30559 9.52274.51085 14.29053.60909 0-.0209.00046-3.66958.00047-3.69043-4.76831-.0976-9.51926-.30207-14.29171-.60672zm16.32281.6421c0-.026-.00066 3.71671-.00065 3.6907 1.79329.0282 3.58378.0432 5.3733.045 1.23456.004 2.46824.001 3.70166-.008.00001-.0355.001-3.65607.001-3.69155-1.23351.009-2.46729.0117-3.70194.008-1.78965-.002-3.58028-.0165-5.37372-.0444zm11.02724.0169c.00001-.0392-.001 3.73089-.001 3.69166 4.44801-.0561 8.86855-.19374 13.29077-.40867.00003-.0444.002-3.64732.002-3.69172-4.42237.21474-8.84306.35242-13.29142.40873zm15.29711-.51138c.00002-.0489-.002 3.74049-.002 3.69162 2.24952-.12113 4.49211-.26162 6.73197-.42045.00004-.0487.002-3.64241.002-3.69105-2.23982.15858-4.4824.29888-6.73196.41988zm8.72841-.56609c.00002-.0539-.002 3.7447-.002 3.6908 7.41715-.5621 14.66754-1.31058 21.94366-2.19044 0-.001-.00039-3.68643-.00039-3.68526-7.27497.87706-14.52392 1.62377-21.94117 2.1849z" fill="#b6b6b6" transform="translate(0 -12)"/>
  <path d="m137.58576 85.994367c-.00091-.24308.0137 3.66338.0127 3.4203 3.38581.447361 6.77332.853656 10.1822 1.212453-.00021-.06482-.0106-3.343954-.0109-3.408771-3.40939-.36208-6.79762-.772215-10.18408-1.223982zm12.21836 1.434001c-.00018-.05655.0107 3.463427.0105 3.406875 2.84733.282943 5.69403.530201 8.54918.739083-.00004-.01343-.009-3.386918-.009-3.400347-2.85554-.210679-5.7027-.46011-8.55047-.745611zm10.58955.889325c-.00002-.0073.009 3.406458.009 3.399127 2.42807.161724 4.85394.294654 7.28258.39777.00002.0092-.008-3.404997-.008-3.395808-2.42895-.103955-4.85517-.23799-7.28356-.401089zm9.32532.481339c.00003.01234.008 3.38283.008 3.395166.90338.03209 1.80643.05998 2.7094.08366.00004.0167-.007-3.411208-.007-3.394506-.90309-.02386-1.80626-.05198-2.70975-.08432zm4.74784.130939c.00004.01869.007 3.375463.007 3.394154.43401.0083.86794.01566 1.3018.02202 1.86808.03001 3.73307.04417 5.59699.04248.34327.000385.68649.000229 1.02968-.00047.00005.02766-.006-3.421662-.006-3.393997-.34323.000735-.6865.000923-1.02982.000563-1.86417.0018-3.72942-.01237-5.59775-.04257-.43392-.0064-.8679-.0138-1.30197-.02218zm9.95779.05349c.00005.02791.006 3.36636.006 3.394272 6.786-.05597 13.48933-.322616 20.21078-.781032.00003.045-.003-3.448654-.003-3.403651-6.72247.463502-13.42711.73332-20.21389.790411zm-46.81352 3.858259c-.00029-.07955.0127 3.520663.0124 3.441115 6.28459.81546 12.54326 1.488679 18.89212 1.982681-.00003-.01434-.009-3.409731-.009-3.424068-6.34966-.497954-12.60989-1.176842-18.89561-1.999728zm20.93336 2.153036c-.00002-.0095.009 3.432337.009 3.422854 2.28713.163464 4.57282.302206 6.86141.415252.00001.0052-.008-3.42486-.008-3.419626-2.28893-.113902-4.57499-.253719-6.86247-.41848zm8.90399.513136c.00002.0088.007 3.410112.007 3.41892 2.78076.118585 5.55583.198366 8.33251.238548.3548.0056.70953.01072 1.0642.01523.00004.02333-.006-3.440485-.006-3.417154-.35473-.0045-.70951-.0096-1.06437-.01531-2.77706-.04043-5.55256-.12077-8.33371-.240237zm11.42669.275315c.00004.02466.005 3.39243.006 3.417095.83475.0056 1.66897.0081 2.50282.0074 1.43985.0018 2.8784-.0057 4.31661-.02258.00004.03385-.005-3.45159-.004-3.417738-1.43843.01713-2.8772.02486-4.31726.02314-.83398.000701-1.66832-.0017-2.5032-.0073zm8.84412-.0461c.00004.03386.004 3.384319.004 3.418175 2.21439-.03938 4.42401-.100681 6.63237-.183378.00004.04348-.003-3.463857-.003-3.420381-2.20872.08363-4.41868.145663-6.63341.185584zm8.64991-.267929c.00004.04221.003 3.379068.003 3.421284 4.02542-.174431 8.02446-.418335 12.01996-.725949.00001.06101-.00074-3.4899-.00073-3.42889-3.99621.310764-7.99601.557214-12.02206.733555zm-58.73362 4.263122c-.00015-.04324.0119 3.50467.0117 3.46143 4.33902.55372 8.67525 1.04248 13.05039 1.45311-.00005-.0204-.009-3.42938-.009-3.44981-4.37584-.41376-8.71303-.90638-13.05289-1.46473zm15.08629 1.65101c-.00005-.0173.009 3.4657.009 3.44841 1.49248.13132 2.98529.25293 4.47979.36445-.00002-.009-.008-3.43691-.008-3.44571-1.49474-.11233-2.98781-.23484-4.48054-.36715zm6.52.51398c-.00001-.005.008 3.44982.008 3.44465 4.41075.30143 8.80578.51119 13.21571.62376.00003.0174-.006-3.4578-.006-3.44037-4.41055-.11327-8.80637-.32444-13.21779-.62804zm15.25476.67335c.00003.0199.005 3.42021.005 3.4401.43239.008.86469.0152 1.29692.0214 1.00233.0158 2.00394.0271 3.00515.0341.00003.0272-.005-3.46706-.005-3.43987-1.00136-.007-2.00312-.0184-3.0056-.0342-.4323-.006-.86466-.0134-1.29711-.0215zm6.32913.0638c.00004.0286.004 3.41134.004 3.43992.00003 0 .56241.00011.56238.00011.82228.001 1.64421-.0007 2.46599-.006.00004.0347-.004-3.47495-.004-3.4402-.8219.005-1.64396.007-2.46636.006.00002 0-.56244-.00007-.56247-.00007zm5.05304-.024c.00004.0354.004 3.40512.004 3.44051 3.25333-.0387 6.49457-.12407 9.73503-.25462.00003.0542-.002-3.49756-.002-3.4434-3.24097.13189-6.48275.21826-9.73656.25751zm11.75317-.34544c.00003.0525.002 3.39174.002 3.44428 3.09787-.14264 6.18154-.32552 9.2616-.54604 0 .0804-.00018-3.52998-.00018-3.44956-3.08059.22261-6.16482.40725-9.26318.55132zm-59.97344 4.39643c-.00009-.0266.0108 3.5078.0108 3.48126 3.60698.45342 7.21468.86322 10.84817 1.22166-.00004-.016-.009-3.45634-.009-3.47238-3.63407-.36093-7.24249-.7737-10.85013-1.23054zm12.88088 1.42652c-.00004-.0141.008 3.48512.008 3.47103 1.43494.13351 2.8704.25843 4.30766.3744-.00002-.009-.008-3.4599-.008-3.46849-1.43749-.11674-2.87319-.24251-4.30837-.37694zm6.34393.53608c-.00002-.006.007 3.47342.007 3.46744 2.17307.16221 4.34525.30314 6.52047.42184 0 .003-.006-3.46795-.006-3.46472-2.17555-.11945-4.34809-.26128-6.5215-.42456zm8.55969.52984c.00001.006.006 3.45788.006 3.46407 3.36231.16174 6.7155.26886 10.07301.31972.00003.0226-.005-3.48483-.005-3.46225-3.35799-.0511-6.71172-.15882-10.07453-.32154zm12.10381.34869c.00003.0248.004 3.43735.004 3.46216 1.28418.0136 2.56698.0201 3.84909.0195 0 0 .19004.00024.19004.00024.00004.0332-.004-3.4955-.004-3.46226 0 0-.19008-.00023-.19008-.00023-1.2823.00074-2.56529-.006-3.84966-.0194zm6.06662.0154c.00003.0348.003 3.42762.003 3.46245 1.54138-.008 3.08103-.0256 4.62017-.0539.00004.0472-.003-3.51042-.003-3.4632-1.53937.0286-3.07926.0469-4.62086.0546zm6.64148-.0981c.00003.0477.002 3.41594.002 3.46367 3.52891-.0854 7.04105-.22433 10.55138-.41392.00001.0897-.00069-3.55734-.00068-3.46758-3.51087.19127-7.02359.33147-10.55301.41783zm12.56099-.53278c.00001.0857.00034 3.38291.00035 3.46859 3.53343-.2102 7.04486-.46984 10.55127-.77423-.0001.24421.002-3.71946.001-3.47525-3.50701.30697-7.01906.56884-10.55304.78089zm12.54484-.96009c-.0001.20813-.002 3.26863-.002 3.47676 5.97164-.54715 11.83669-1.21208 17.70584-1.96179.00024-.1669.005-3.32662.005-3.49352-5.87025.75621-11.73672 1.42677-17.70928 1.97855zm-77.68129 5.70294c-.00004-.0163.01 3.51693.01 3.50059 2.3999.29766 4.80226.57664 7.21494.83457-.00003-.0123-.008-3.48287-.008-3.49514-2.41306-.25958-4.81582-.54037-7.21611-.84002zm9.24434 1.05288c-.00003-.0112.008 3.50497.008 3.49381 1.43122.14552 2.86327.28308 4.2975.41226-.00002-.008-.007-3.48345-.007-3.49127-1.43444-.12997-2.86671-.26837-4.29815-.4148zm6.33266.59329c-.00002-.006.007 3.49638.007 3.4902 4.06206.34261 8.11534.61403 12.18617.80787.00001.007-.005-3.49245-.005-3.48557-4.07139-.19488-8.12532-.46784-12.18796-.8125zm14.22553.90342c.00001.009.005 3.47569.005 3.48509 2.77967.1144 5.55351.19157 8.32918.2307 1.1967.0186 2.39232.0311 3.5874.0374.00003.0295-.003-3.51351-.003-3.48396-1.19525-.006-2.39103-.0188-3.5879-.0375-2.77606-.0393-5.55031-.1168-8.33037-.23179zm13.94297.27416c.00003.0319.003 3.45209.003 3.48404 2.16018.003 4.31668-.0133 6.47285-.0499.00003.0521-.002-3.537-.002-3.48485-2.15646.0371-4.31327.0541-6.47375.0508zm8.49403-.0914c.00003.0541.002 3.43115.002 3.48526 2.46376-.0561 4.92075-.13801 7.37608-.24486.00002.10645-.0009-3.59388-.00088-3.48743-2.45567.10774-4.91302.19036-7.37712.24703zm9.38861-.34089c.00002.10574.00057 3.38245.00059 3.4882 3.14905-.15447 6.28259-.34889 9.41221-.58038-.00031 1.31428.001-4.80705.0008-3.49277-3.13008.23328-6.2641.42922-9.4136.58495zm11.41006-.73881c-.00028.88921-.00082 2.60474-.001 3.49394 2.12908-.16818 4.25051-.3527 6.36841-.55234.00012-.20865.002-3.28949.002-3.49814-2.11823.20115-4.23999.38707-6.3694.55654zm8.35212-.74932c.00016-.22823-.003 3.72783-.002 3.49959 3.87659-.38279 7.71536-.81202 11.54779-1.27852.00008-.0733.004-3.43601.004-3.50928-3.83306.47006-7.67252.90253-11.5497 1.28821zm-81.37172 6.10539c-.00002-.009.008 3.5283.008 3.51944 2.23201.2736 4.46639.53134 6.7096.77131-.00002-.006-.007-3.50857-.007-3.51506-2.24349-.2413-4.47817-.5005-6.71047-.77569zm8.73747.98852c-.00001-.006.007 3.51957.007 3.51389.92425.0941 1.84899.18507 2.7746.27263-.00001-.004-.007-3.5081-.007-3.51243-.92573-.088-1.85059-.17943-2.77496-.27409zm4.80506.46155c0-.003.007 3.5147.007 3.51144 2.42035.21566 4.84044.40719 7.26627.57296 0 .001-.006-3.50996-.006-3.5085-2.42613-.16659-4.84655-.3591-7.26721-.5759zm9.3032.70949c.00001.003.005 3.5048.005 3.50784 3.04923.18981 6.09329.33726 9.14281.44039.00001.0123-.004-3.51816-.004-3.50581-3.0499-.10356-6.09438-.25169-9.144-.44242zm11.18023.5049c.00002.0146.004 3.49094.004 3.50555 1.36591.0373 2.73072.0655 4.09535.0847.40928.006.81847.0119 1.22758.0169.00002.0236-.003-3.5288-.003-3.50523-.40916-.005-.8184-.0105-1.22774-.0169-1.3648-.0192-2.72978-.0475-4.09587-.085zm7.34971.12041c.00002.0262.003 3.47901.003 3.50524.77891.005 1.55735.007 2.33547.007.90242.002 1.80441-.00027 2.70622-.006.00003.0408-.002-3.54637-.002-3.50555-.90193.005-1.80403.007-2.70656.006-.77822.00026-1.55675-.002-2.33576-.007zm7.06461-.0169c.00003.0445.002 3.4613.002 3.50579 1.59553-.0186 3.18898-.0481 4.78172-.0881.00004.0762-.002-3.58284-.001-3.50664-1.59295.0404-3.1866.0702-4.78233.089zm6.7996-.14595c.00003.0826.001 3.42452.001 3.50711 1.98257-.0611 3.96079-.13851 5.93737-.23174.00004.31017-.00054-3.81904-.0005-3.50887-1.97683.0939-3.9553.1719-5.93811.2335zm7.94724-.33443c.00002.36206.00021 3.14754.00024 3.5096 1.39029-.0731 2.77823-.15385 4.16482-.24201.00003-.31087.00027-3.20042.00029-3.5113-1.38677.0888-2.77488.17008-4.16535.24371zm6.16859-.37715c.00004-.28714-.00059 3.79934-.00055 3.51221 3.80057-.26125 7.57226-.57584 11.33817-.93717.00003-.0634.002-3.4551.002-3.5185-3.76639.36372-7.53859.68042-11.33963.94346zm13.3194-1.13898c.00005-.0627-.002 3.58253-.002 3.51978 2.11049-.21163 4.21199-.43673 6.30952-.67384.00003-.0426.003-3.48159.003-3.52424-2.0978.23869-4.1996.46527-6.31036.6783zm8.2742-.90534c.00004-.0423-.003 3.56798-.003 3.52572 1.4714-.17166 2.93827-.34863 4.40271-.53037.00004-.0339.004-3.49535.004-3.52924-1.46464.18295-2.93171.36109-4.4033.53389zm-90.93333 7.17817c-.00001-.003.007 3.54036.007 3.5378 2.8433.34506 5.68876.66454 8.54947.95456 0-.00047-.006-3.53278-.006-3.53326-2.86099-.29136-5.70673-.61235-8.55028-.9591zm10.57688 1.16021c0 .00015.006 3.53221.006 3.53235 3.9676.3816 7.92951.70112 11.9127.95116.00001.005-.005-3.53333-.005-3.52821-3.98361-.25107-7.94598-.57196-11.91396-.9553zm13.94994 1.07739c.00001.006.004 3.52153.004 3.52772 3.0208.17118 6.03597.30066 9.05577.38674.00002.0133-.003-3.53955-.003-3.52629-3.02014-.0864-6.03565-.21631-9.05678-.38817zm11.09196.43972c.00001.015.003 3.51112.003 3.52614.83142.0183 1.66247.0333 2.49336.0449 1.86497.0287 3.72681.043 5.58763.0427 0 0 .009.00001.009.00001.00002.0286-.002-3.55472-.002-3.52612 0 0-.009-.00002-.009-.00002-1.86102.0004-3.72306-.0138-5.58823-.0426-.83099-.0116-1.66213-.0266-2.49364-.045zm10.11427.0854c.00002.0321.002 3.49417.002 3.52628 2.07451-.008 4.14541-.0341 6.21573-.0781.00002.0686-.001-3.59573-.001-3.52708-2.07053.0444-4.14166.0708-6.2164.0789zm8.2363-.12797c.00003.0827.001 3.44473.001 3.52745 4.89869-.13176 9.75624-.36222 14.61457-.6829 0-.0634.0003-3.46838.0003-3.53182-4.85882.32259-9.71691.55452-14.61611.68727zm16.61507-.82506c.00001-.0575-.00052 3.59015-.00051 3.53263 2.13124-.15142 4.25513-.31934 6.37569-.50264.00001-.0341.001-3.50148.001-3.53555-2.12077.18435-4.24488.35325-6.37634.50556zm8.36417-.68292c.00001-.0323-.001 3.56886-.001 3.53655 2.20309-.20047 4.39688-.41653 6.58661-.64667.00001-.0231.002-3.51713.002-3.54021-2.18995.23143-4.38396.44872-6.58727.65033zm-78.93537 5.95589c.00001.003.006 3.55221.006 3.55569 7.45916.89781 14.85881 1.61218 22.40037 2.08429.00001.008-.004-3.55575-.004-3.548-7.54217-.47366-14.94244-1.19062-22.40193-2.09198zm24.43747 2.21365c.00001.008.004 3.53945.004 3.54761 2.31287.13079 4.62337.23741 6.93616.31902.00001.0106-.003-3.55725-.003-3.54666-2.313-.0818-4.6237-.18876-6.93678-.31997zm8.97431.38552c.00001.0112.003 3.53528.003 3.5465 1.56528.0452 3.12906.0788 4.69272.1006 1.05251.0162 2.10421.0278 3.15548.0348.00001.0166-.002-3.56291-.002-3.54634-1.05137-.007-2.10316-.0186-3.15577-.0348-1.5638-.0218-3.12772-.0555-4.69315-.10079zm9.87251.14338c.00001.0181.002 3.52831.002 3.54642.00002 0 .40769.00021.40767.00021.8726.002 1.74481.00031 2.61684-.004.00001.0234-.002-3.57007-.002-3.54663-.87211.005-1.7444.006-2.61707.005.00001 0-.4077-.00019-.40771-.00019zm5.04621-.0209c.00002.027.002 3.51981.002 3.54683 3.24915-.0356 6.48593-.11513 9.72209-.2372-.00005-.22031-.00075-3.32812-.0008-3.54843-3.23644.12278-6.47352.20288-9.72295.2388zm11.73667-.32068c-.00002-.0822.00064 3.63105.00063 3.54889 2.25622-.0973 4.50571-.21486 6.75271-.35163 0-.0207-.00007-3.53003-.00007-3.55076-2.24718.13747-4.49686.25562-6.75327.3535zm8.75429-.48104c0-.0172-.00008 3.56866-.00008 3.55141 3.0777-.20299 6.13834-.44066 9.19403-.70969.00001-.008.00078-3.54638.00078-3.55486-3.05591.27031-6.11678.50913-9.19473.71314zm11.17833-.89304c0-.008-.00092 3.56337-.00091 3.55571 3.49686-.32339 6.96497-.68456 10.42682-1.07711 0-.005.002-3.55601.002-3.5607-3.46204.39435-6.93038.75718-10.42747 1.0821zm-79.98935 6.08945c.00001.01.004 3.56307.004 3.57311 5.42403.64865 10.83246 1.20319 16.3081 1.63911.00001.0112-.004-3.57956-.004-3.56839-5.47595-.43709-10.88453-.99322-16.30861-1.64383zm18.3412 1.80032c.00002.0109.004 3.55707.004 3.56798 1.01354.0749 2.02721.14555 3.04144.21172.00001.011-.003-3.57844-.003-3.56744-1.0143-.0663-2.02803-.13712-3.04163-.21226zm5.07654.33928c.00001.0106.003 3.55649.003 3.56712 4.90393.29072 9.78288.47343 14.6807.54177 1.86432.0287 3.72551.0431 5.58569.0432 1.46615.003 2.93091-.003 4.39534-.0175 0 .001-.002-3.56773-.002-3.56659-1.46454.0149-2.9294.0209-4.39566.0178-1.86031-.00001-3.72163-.0144-5.58609-.043-4.89819-.0683-9.77749-.25138-14.68175-.5428zm26.58301.54337c0-.002.001 3.56891.001 3.56679 4.03357-.0621 8.04446-.19113 12.05545-.38375.00001.0284-.00058-3.59714-.00057-3.56878-4.01124.19349-8.02241.32323-12.05626.38574zm14.06309-.48784c.00001.0221.00046 3.5471.00046 3.56923 1.27811-.0681 2.55424-.14244 3.82917-.22287 0 .018-.00024-3.58817-.00024-3.57018-1.275.0808-2.5512.15543-3.82939.22382zm5.82862-.35549c0 .0159.00013 3.55481.00013 3.57072 2.2975-.15643 4.58635-.33191 6.87161-.52506 0 .0129.0002-3.58574.0002-3.57279-2.28536.19389-4.57432.37006-6.87194.52713zm8.85943-.70026c0 .012-.00027 3.56148-.00027 3.57345 5.57584-.49636 11.05916-1.08851 16.54485-1.75028 0 .008.00066-3.58809.00066-3.57976-5.48573.66406-10.96917 1.25834-16.54524 1.75659zm-78.74413 6.01148c.00001.0181.003 3.57198.003 3.59007 4.29941.51176 8.59488.96548 12.92926 1.34853.00001.0181-.003-3.60545-.003-3.58734-4.33448-.38379-8.62989-.83843-12.92916-1.35126zm14.95917 1.52552c.00002.0171.003 3.5699.003 3.58701 3.83223.31793 7.65731.57579 11.49815.76798.00001.0125-.003-3.59823-.003-3.5857-3.84104-.19247-7.66626-.45076-11.49859-.76929zm13.53612.86511c.00001.0108.002 3.57476.002 3.58558 3.16064.13869 6.31317.23143 9.46921.27686 0 .00059-.002-3.58597-.002-3.58538-3.15623-.0454-6.30893-.13819-9.46974-.27706zm11.49572.30319c0-.003.002 3.58808.002 3.58543 1.2311.0126 2.46095.0191 3.69015.0193 3.45432.008 6.89589-.0341 10.33864-.12424-.00002-.0835-.001-3.50298-.001-3.58652-3.44294.0906-6.88468.13268-10.3392.12517-1.22927-.00015-2.45918-.007-3.69036-.0191zm16.0446-.16459c-.00005-.20412.001 3.79091.00095 3.58679 4.89823-.155 9.75367-.40579 14.60923-.74327 0 .0616-.00039-3.65101-.00038-3.5894-4.8557.33854-9.71132.59021-14.6098.74588zm-56.02719 11.8745c.00002.0485.00089 3.57405.0009 3.62259 1.30505.15471 2.61133.30429 3.9202.44837.00001.0522-.001-3.67464-.001-3.62247-1.30877-.14412-2.61494-.29374-3.91985-.44849zm5.94033.66631c.00002.0471.001 3.57529.001 3.62241 5.00032.52719 9.98716.965 15.01715 1.29725.00001.0309-.002-3.65298-.002-3.62211-5.03009-.33227-10.01674-.7702-15.01682-1.29755zm17.05114 1.42597c.00002.0253.002 3.59683.002 3.62211.78909.0475 1.57816.0923 2.36741.13429.00001.0209-.002-3.64304-.002-3.62212-.78927-.042-1.57836-.0868-2.36746-.13428zm4.40257.23644c.00001.0154.002 3.6067.002 3.62214 3.57216.16849 7.13324.27896 10.69991.32933 0 0 .12032.002.12032.002-.00001-.0141-.001-3.60836-.001-3.62247-.00001 0-.12033-.002-.12033-.002-3.56681-.0502-7.12799-.16057-10.70026-.329zm12.8456.35604c-.00001-.0206.001 3.64321.001 3.62258 1.14719.0112 2.2933.017 3.43883.0175 1.17956.003 2.35832.00007 3.53682-.008-.00001-.0427-.00093-3.58033-.00094-3.623-1.17854.009-2.35733.0115-3.53694.009-1.14556-.0004-2.29171-.006-3.43894-.0173zm8.99578-.0118c-.00002-.0547.00089 3.67786.00087 3.62313 3.80929-.0487 7.59963-.15675 11.38996-.32148-.00002-.11523-.00059-3.50883-.00061-3.62407-3.79039.16508-7.58081.27342-11.39022.32242zm13.39827-.41516c-.00003-.17357.00061 3.79783.00058 3.62426 3.39598-.16544 6.77304-.37493 10.14609-.62493-.00009-.50735-.00055-3.11786-.00064-3.62521-3.37299.25032-6.75002.46014-10.14603.62588zm12.1378-.7784c.00028 1.53996.00039 2.08543.00067 3.6254 3.063-.24145 6.10748-.51433 9.14657-.81496.00009.29741-.001-3.92363-.001-3.62621-3.03891.30087-6.08324.57403-9.14616.81577zm11.12095-1.01522c.00006.1671.001 3.45926.001 3.62637 3.14912-.32398 6.27389-.67468 9.39313-1.04718.00007.11029-.002-3.73722-.002-3.62694-3.11891.37263-6.24336.72353-9.39228 1.04775zm-85.891 6.78686c.00001.0916.00024 3.54653.00025 3.63817 2.84179.33707 5.68524.6493 8.54305.93293.00002.0952-.001-3.73392-.001-3.63868-2.85766-.28349-5.70083-.59554-8.54228-.93242zm10.56842 1.12833c.00003.0774.001 3.56133.001 3.63879 3.28878.3098 6.57518.57835 9.87449.80137.00001.0486-.001-3.68783-.001-3.63927-3.29934-.22286-6.58565-.49125-9.8743-.80089zm11.91048.9325c.00001.037.001 3.60233.001 3.63938 5.17051.31931 10.31249.52081 15.47663.59664-.00001-.0183-.00088-3.62189-.00088-3.64025-5.16438-.0755-10.30642-.27671-15.47704-.59577zm17.50253.62241c-.00001-.025.00081 3.6654.00081 3.64039.92484.01 1.84903.0161 2.77283.0189-.00001-.0315-.00071-3.60903-.00072-3.64057-.92383-.003-1.84805-.009-2.77292-.0187zm4.79473.0214c-.00001-.0391.00066 3.67978.00065 3.64069 3.4482-.001 6.88349-.0519 10.3196-.15018-.00001-.0634-.00038-3.57798-.00039-3.64135-3.43618.0984-6.87155.14914-10.31986.15084zm12.33557-.21405c-.00001-.0775.00037 3.71895.00036 3.64146 1.30994-.0445 2.61818-.0959 3.9255-.15398-.00001-.0805-.00031-3.56123-.00032-3.64169-1.30732.0581-2.61558.10958-3.92554.15421zm5.93309-.24876c-.00001-.10137.00032 3.74317.00031 3.6418 4.23241-.21017 8.43193-.48843 12.62771-.82757-.00002-.1545-.00056-3.48782-.00058-3.64233-4.19562.33926-8.395.6177-12.62744.8281zm14.61477-.99332c-.00005-.24367.00073 3.88604.00068 3.64237 4.27929-.36535 8.51429-.78894 12.74398-1.2598-.00051-1.05982-.001-2.58245-.002-3.64226-4.22923.47069-8.4638.89425-12.7429 1.25969zm-77.65929 6.03145c0 .30844-.00007 3.34485-.00007 3.6533 4.05099.48156 8.09923.91171 12.17925 1.28007.00006.24865-.00098-3.90367-.00092-3.65502-4.07993-.36789-8.12776-.79747-12.17826-1.27835zm14.20784 1.45597c.00005.1476.00094 3.50767.00098 3.65527 6.29356.53468 12.54484.90769 18.84912 1.09781 0-.006-.00066-3.65143-.00066-3.65713-6.30468-.18957-12.55587-.56197-18.84944-1.09595zm20.88309 1.15068c0-.0133.00057 3.6706.00057 3.65731 1.00221.0239 2.00387.0431 3.00535.0575 1.8635.0295 3.72392.0449 5.58331.0462.72976.002 1.45926.002 2.18864-.00063 0-.0387-.00015-3.61946-.00015-3.65814-.7294.002-1.45893.003-2.18871.00078-1.85947-.001-3.71996-.0164-5.58354-.0457-1.00151-.0143-2.00322-.0334-3.00547-.0572zm12.79818.0898c0-.001.00008 3.65683.00008 3.65826 2.49182-.0221 4.97763-.0696 7.46259-.14215 0-.001.00012-3.66007.00012-3.65864-2.48501.0726-4.97088.12032-7.46279.14253zm9.47616-.20683c0-.0624-.00016 3.72114-.00016 3.65872 3.20858-.11102 6.40271-.26289 9.59412-.45327 0-.0713.00016-3.58765.00016-3.65892-3.19136.19039-6.38548.34233-9.59412.45347zm11.5944-.57783c0-.001-.00013 3.65753-.00013 3.65891 3.88968-.25158 7.75003-.55777 11.60524-.912-.00001-.10097-.00045-3.55755-.00046-3.65851-3.85493.35398-7.71504.66005-11.60465.9116zm-68.95983 5.39825c0-.001-.00001 3.6668-.00001 3.668 4.02246.47998 8.04224.90899 12.09251 1.27696-.00009-.36286-.00079-3.30782-.00087-3.67069-4.05025-.36721-8.06963-.79534-12.09163-1.27427zm14.12126 1.45291c-.001-5.77044.002 9.44149.0009 3.67106 1.37788.11783 2.75602.2281 4.13551.3305.00018.74961-.001-4.42136-.00088-3.67175-1.37952-.10219-2.75766-.21223-4.13553-.32981zm6.16877.47462c.00004.18062.0008 3.49146.00084 3.67208 3.01719.2067 6.02998.37425 9.04858.50046 0 .0114-.00047-3.68476-.00047-3.67335-3.01878-.12583-6.03166-.29296-9.04895-.49919zm11.08551.57774c0-.00087.00035 3.67449.00035 3.67361 1.97212.0702 3.94179.12231 5.9117.15611 0-.001 0-3.67567 0-3.67429-1.97004-.0336-3.93981-.0855-5.91205-.15543zm7.94179.18562c0-.001-.00011 3.67311-.00011 3.67449 1.45569.0185 2.9096.0284 4.36271.0296.81454.002 1.62876.002 2.44282-.001.00001-.0369.00047-3.63812.00047-3.67506-.8141.003-1.62836.004-2.44294.001-1.45319-.001-2.90717-.0108-4.36295-.0292zm8.82811.0142c0-.0419-.00058 3.7171-.00057 3.67519 2.01389-.019 4.02425-.0547 6.0338-.10689.00002-.0453.0008-3.63014.00082-3.67545-2.00963.0522-4.02007.088-6.03405.10715zm8.04838-.16498c.00001-.0509-.00089 3.72637-.00088 3.6755 3.93774-.12369 7.8521-.30941 11.76443-.55292.00002-.0567.00096-3.61863.00097-3.67537-3.91229.24334-7.82664.42902-11.76452.55279zm13.76356-.68213c.00001-.0645-.00095 3.73973-.00094 3.67527 3.07493-.20677 6.13336-.4476 9.18708-.71928.00001-.0675.00046-3.60697.00048-3.67442-3.05351.27129-6.11176.51185-9.18662.71843zm11.16877-.89888c0-.0786-.00031 3.75272-.00031 3.67416.87678-.0818 1.7524-.16607 2.62718-.2526 0-.001.00006-3.67503.00006-3.67375-.87469.0864-1.75023.17048-2.62693.25219zm4.6031-.45137c0-.001.00017 3.67214.00017 3.6734 3.20769-.33027 6.39101-.689 9.56892-1.07112-.00004-.0943-.002-3.5768-.002-3.67113-3.17733.38119-6.3601.73917-9.56743 1.06885zm-85.72908 6.83343c-.00001-.11319.0005 3.79544.00049 3.68225 2.78981.33464 5.58103.64493 8.38499.92738-.00003-.10359-.001-3.58127-.001-3.68486-2.80392-.28169-5.59491-.5911-8.38443-.92477zm10.41099 1.12325c-.00004-.13212.001 3.81753.001 3.68541 1.01008.0966 2.02052.18938 3.03178.27814-.00003-.12292-.001-3.56325-.001-3.68618-1.01127-.0885-2.02172-.18102-3.03179-.27737zm5.06446.44978c-.00005-.18185.001 3.86852.001 3.68667 1.49051.1227 2.98114.23636 4.47318.34062-.00007-.31074-.00076-3.37691-.00083-3.68764-1.49213-.10396-2.98281-.21729-4.47337-.33965zm6.50709.47542c.00012.61486.00059 3.07319.00071 3.68806 4.77208.30559 9.52274.51085 14.29053.60909 0-.0209.00046-3.66958.00047-3.69043-4.76831-.0976-9.51926-.30207-14.29171-.60672zm16.32281.6421c0-.026-.00066 3.71671-.00065 3.6907 1.79329.0282 3.58378.0432 5.3733.045 1.23456.004 2.46824.001 3.70166-.008.00001-.0355.001-3.65607.001-3.69155-1.23351.009-2.46729.0117-3.70194.008-1.78965-.002-3.58028-.0165-5.37372-.0444zm11.02724.0169c.00001-.0392-.001 3.73089-.001 3.69166 4.44801-.0561 8.86855-.19374 13.29077-.40867.00003-.0444.002-3.64732.002-3.69172-4.42237.21474-8.84306.35242-13.29142.40873zm15.29711-.51138c.00002-.0489-.002 3.74049-.002 3.69162 2.24952-.12113 4.49211-.26162 6.73197-.42045.00004-.0487.002-3.64241.002-3.69105-2.23982.15858-4.4824.29888-6.73196.41988zm8.72841-.56609c.00002-.0539-.002 3.7447-.002 3.6908 7.41715-.5621 14.66754-1.31058 21.94366-2.19044 0-.001-.00039-3.68643-.00039-3.68526-7.27497.87706-14.52392 1.62377-21.94117 2.1849z" fill="#b6b6b6" transform="translate(-115.28736 -12.105089)"/>
  <use transform="matrix(-1 0 0 1 256.13088 0)" xlink:href="#g2326"/>
</svg>
