<svg height="256" width="256" xmlns="http://www.w3.org/2000/svg" xmlns:xlink="http://www.w3.org/1999/xlink">
  <defs>
    <linearGradient id="linearGradient6446">
      <stop offset="0" stop-color="#fff"/>
      <stop offset="1" stop-color="#fff" stop-opacity="0"/>
    </linearGradient>
    <radialGradient id="radialGradient9692" cx="42.700352" cy="103.5803" gradientTransform="matrix(-.41986185 0 0 .41986185 53.399876 12.662587)" gradientUnits="userSpaceOnUse" r="42.559486" spreadMethod="pad">
      <stop offset="0" stop-color="#37ff00"/>
      <stop offset="1" stop-color="#1e8d00"/>
    </radialGradient>
    <linearGradient id="linearGradient6410" gradientUnits="userSpaceOnUse" x1="26.906151" x2="16.91917" y1="63.835018" y2="28.33385">
      <stop offset="0" stop-color="#116c00"/>
      <stop offset="1" stop-color="#17c100"/>
    </linearGradient>
    <linearGradient id="linearGradient6452" gradientUnits="userSpaceOnUse" spreadMethod="reflect" x1="13.507897" x2="7.602036" xlink:href="#linearGradient6446" y1="13.721349" y2="19.627209"/>
    <filter id="filter6458" height="1.145266" width="1.152245" x="-.076123" y="-.072633">
      <feGaussianBlur stdDeviation=".28444187"/>
    </filter>
    <linearGradient id="linearGradient6464" gradientUnits="userSpaceOnUse" spreadMethod="reflect" x1="21.507897" x2="15.539791" xlink:href="#linearGradient6446" y1="21.721349" y2="27.689454"/>
    <linearGradient id="linearGradient6470" gradientUnits="userSpaceOnUse" spreadMethod="reflect" x1="21.507897" x2="14.373943" xlink:href="#linearGradient6446" y1="21.721349" y2="28.855302"/>
    <linearGradient id="linearGradient6637" gradientUnits="userSpaceOnUse" x1="32.409925" x2="32.409925" y1="63.288284" y2="50.192987">
      <stop offset="0" stop-color="#157000"/>
      <stop offset="1" stop-color="#25bf00" stop-opacity="0"/>
    </linearGradient>
    <linearGradient id="linearGradient6649" gradientUnits="userSpaceOnUse" x1="34.7791" x2="34.7791" y1="29.360398" y2="41.653605">
      <stop offset="0" stop-color="#8cff65"/>
      <stop offset="1" stop-color="#d0ffbf" stop-opacity="0"/>
    </linearGradient>
    <linearGradient id="linearGradient6680" gradientUnits="userSpaceOnUse" x1="19.616384" x2="41.138039" y1="41.601227" y2="47.362704">
      <stop offset="0" stop-color="#3cbf00"/>
      <stop offset="1" stop-color="#3dff11" stop-opacity="0"/>
    </linearGradient>
    <linearGradient id="linearGradient2816" gradientUnits="userSpaceOnUse" x1="33.785869" x2="33.785869" xlink:href="#linearGradient6446" y1="12.543587" y2="58.40394"/>
    <linearGradient id="linearGradient3231" gradientUnits="userSpaceOnUse" x1="33.878509" x2="33.878509" xlink:href="#linearGradient6446" y1="26.529826" y2="40.064619"/>
    <linearGradient id="linearGradient3233" gradientUnits="userSpaceOnUse" x1="53.83273" x2="24.034745" xlink:href="#linearGradient6446" y1="49.164361" y2="31.490509"/>
    <linearGradient id="linearGradient3243" gradientUnits="userSpaceOnUse" x1="-60.945251" x2="-59.415245" y1="105.83054" y2="45.631207">
      <stop offset="0" stop-color="#b1ff8b"/>
      <stop offset="1" stop-color="#fff" stop-opacity="0"/>
    </linearGradient>
    <filter id="filter3281" height="1.02533" width="1.024842" x="-.012421" y="-.012665">
      <feGaussianBlur stdDeviation=".32872878"/>
    </filter>
    <linearGradient id="linearGradient3289" gradientUnits="userSpaceOnUse" x1="60.402065" x2="60.402065" y1="64.076149" y2="-20.962214">
      <stop offset="0" stop-color="#20bf00"/>
      <stop offset="1" stop-color="#4aff11" stop-opacity="0"/>
    </linearGradient>
    <filter id="filter3319" height="1.069342" width="1.069342" x="-.034671" y="-.034671">
      <feGaussianBlur stdDeviation="1.6179775"/>
    </filter>
    <filter id="filter5929" color-interpolation-filters="sRGB" height="2.042" width="1.176488" x="-.088244" y="-.521">
      <feGaussianBlur stdDeviation="3.96"/>
    </filter>
    <linearGradient id="linearGradient60" gradientUnits="userSpaceOnUse" x1="60.402065" x2="60.402065" xlink:href="#linearGradient3289" y1="64.076149" y2="-20.962214"/>
    <linearGradient id="linearGradient61" gradientUnits="userSpaceOnUse" x1="26.906151" x2="16.91917" xlink:href="#linearGradient6410" y1="63.835018" y2="28.33385"/>
    <linearGradient id="linearGradient62" gradientUnits="userSpaceOnUse" x1="19.616384" x2="41.138039" xlink:href="#linearGradient6680" y1="41.601227" y2="47.362704"/>
    <radialGradient id="radialGradient62" cx="42.700352" cy="103.5803" gradientTransform="matrix(-.41986185 0 0 .41986185 53.399876 12.662587)" gradientUnits="userSpaceOnUse" r="42.559486" spreadMethod="pad" xlink:href="#radialGradient9692"/>
    <linearGradient id="linearGradient65" gradientUnits="userSpaceOnUse" x1="32.409925" x2="32.409925" xlink:href="#linearGradient6637" y1="63.288284" y2="50.192987"/>
    <linearGradient id="linearGradient68" gradientUnits="userSpaceOnUse" x1="34.7791" x2="34.7791" xlink:href="#linearGradient6649" y1="29.360398" y2="41.653605"/>
    <linearGradient id="linearGradient71" gradientUnits="userSpaceOnUse" x1="-60.945251" x2="-59.415245" xlink:href="#linearGradient3243" y1="105.83054" y2="45.631207"/>
  </defs>
  <g transform="matrix(-2 0 0 2 281.44408 -1.324266)">
    <g transform="matrix(-.63873266 0 0 .63873266 144.72874 -3.999542)">
      <path d="m18.083601 8h91.832799c5.58631 0 10.0836 4.497286 10.0836 10.083601v91.832799c0 5.58631-4.49729 10.0836-10.0836 10.0836h-91.832799c-5.586315 0-10.083601-4.49729-10.083601-10.0836v-91.832799c0-5.586315 4.497286-10.083601 10.083601-10.083601z" fill="url(#linearGradient3289)" filter="url(#filter3319)" opacity=".97" transform="matrix(.3530981 0 0 .3530981 12.873349 23.741297)"/>
      <path d="m19.258634 26.566082h32.425987c1.972515 0 3.5605 1.587983 3.5605 3.5605v32.425987c0 1.972515-1.587985 3.5605-3.5605 3.5605h-32.425987c-1.972517 0-3.5605-1.587985-3.5605-3.5605v-32.425987c0-1.972517 1.587983-3.5605 3.5605-3.5605z" fill="url(#linearGradient6410)" opacity=".97"/>
      <path d="m19.258634 26.566082h32.425987c1.972515 0 3.5605 1.587983 3.5605 3.5605v32.425987c0 1.972515-1.587985 3.5605-3.5605 3.5605h-32.425987c-1.972517 0-3.5605-1.587985-3.5605-3.5605v-32.425987c0-1.972517 1.587983-3.5605 3.5605-3.5605z" fill="url(#linearGradient6680)" opacity=".080414"/>
      <path d="m51.496582 28.195526h-31.696812c-1.369594 0-2.472192 1.102598-2.472192 2.472192v31.343714c0 1.369593 1.102598 2.472192 2.472192 2.472192h31.696812c1.369594 0 2.472192-1.102599 2.472192-2.472192v-31.343714c0-1.369594-1.102598-2.472192-2.472192-2.472192z" fill="url(#radialGradient9692)" opacity=".97"/>
      <path d="m17.906944 8.299378c-4.690175 0-9.397509 3.568001-9.397509 9.39874l4.267305-.05891c.452373-2.129835 2.851964-4.270962 4.526605-4.603385z" fill="url(#linearGradient6452)" filter="url(#filter6458)" opacity=".861012" transform="matrix(.3530981 0 0 .3530981 12.873349 23.741297)"/>
      <path d="m25.397509 16.46919c-4.690175 0-8.967908 3.654709-8.967908 9.485448l4.347139-.315433c.452373-2.129835 2.851964-4.270962 4.526605-4.603385z" fill="url(#linearGradient6464)" filter="url(#filter6458)" opacity=".842847" transform="matrix(-.3530981 0 0 .3530981 60.847873 20.916512)"/>
      <path d="m15.698134 61.125558v1.423427c0 1.972516 1.591567 3.564084 3.564084 3.564084h32.418819c1.972516 0 3.564084-1.591565 3.564084-3.564084v-1.423427c0 1.972516-1.591568 3.564084-3.564084 3.564084h-32.418819c-1.972517 0-3.564084-1.591568-3.564084-3.564084z" fill="url(#linearGradient6637)" opacity=".080414"/>
      <path d="m26.246568 16.978625c-4.690175 0-9.477343 3.654709-9.477343 9.485448l4.007515-.824868c.452373-2.129835 2.851964-4.270962 4.526605-4.603385z" fill="url(#linearGradient6470)" filter="url(#filter6458)" opacity=".316632" transform="matrix(.3530981 0 0 -.3530981 10.048564 71.793662)"/>
      <path d="m26.246568 16.978625c-4.690175 0-9.477343 3.654709-9.477343 9.485448l4.007515-.824868c.452373-2.129835 2.851964-4.270962 4.526605-4.603385z" fill="url(#linearGradient6470)" filter="url(#filter6458)" opacity=".170881" transform="matrix(-.3530981 0 0 -.3530981 60.847873 71.793662)"/>
      <path d="m15.698134 31.523124v-1.423427c0-1.972516 1.591567-3.564084 3.564084-3.564084h32.418819c1.972516 0 3.564084 1.591565 3.564084 3.564084v1.423427c0-1.972516-1.591568-3.564084-3.564084-3.564084h-32.418819c-1.972517 0-3.564084 1.591568-3.564084 3.564084z" fill="url(#linearGradient6649)" opacity=".376943"/>
      <path d="m19.738036 28.077783c-1.408941 0-2.537892 1.128952-2.537892 2.537893v.353098c0-1.408941 1.128951-2.537893 2.537892-2.537893h31.646416c1.408943 0 2.537893 1.128952 2.537893 2.537893v-.353098c0-1.408941-1.12895-2.537893-2.537893-2.537893z" fill="url(#linearGradient3231)" opacity=".97"/>
      <path d="m52.494759 28.665725c.563318.464251.926882 1.160544.926882 1.953074v12.181884c-.06828.11583-.154212.235629-.253789.353098-9.621138 3.702773-25.886401 4.762703-35.971868 2.339275v.198618c10.233161 2.579958 26.689093 1.545752 36.468412-2.217898.09958-.117469.185511-.237268.253789-.353098v-12.181884c0-1.007393-.579448-1.862269-1.423426-2.273069z" fill="url(#linearGradient3233)" opacity=".97"/>
      <path d="m-109.38386 13.614708h89.767721c3.878793 0 7.001431 3.122638 7.001431 7.001431v87.767721c0 3.87879-3.122638 7.00143-7.001431 7.00143h-89.767721c-3.87879 0-7.00143-3.12264-7.00143-7.00143v-87.767721c0-3.878793 3.12264-7.001431 7.00143-7.001431z" style="opacity:.97;fill:none;stroke-linecap:round;stroke-linejoin:round;stroke:url(#linearGradient3243);filter:url(#filter3281)" transform="matrix(-.3530981 0 0 .3530981 12.873349 23.741297)"/>
      <path d="m19.648419 28.077783c-1.408941 0-2.537893 1.128952-2.537893 2.537893v14.75288c10.233163 2.579958 26.689096 1.545752 36.468413-2.217898.09958-.11747.185511-.237268.25379-.353098v-12.181884c0-1.408941-1.12895-2.537893-2.537893-2.537893z" fill="url(#linearGradient2816)" opacity=".97"/>
    </g>
    <path d="m168.37695 218.34766h35.62305m-49.62305 0h10.79102m-35.16797 0h21.16797m-38.6582 0h14.39257m-40.126949 0h22.527339m-32.792964 0h7.058593m-15.058593 0h4.792968m-21.302734 0h13.302734m5.865235-12h-19.167969m28.902344 0h-6.525391m23.994141 0h-14.261719m26.792965 0h-9.32421m23.32421 0h-10.79101m23.58984 0h-9.58984m31.58984 0h-18.79297m36.79297 0h-14.79297m22.25977 0h-4.25977m23.0918 0h-15.62305m-27.07031-12h18.69336m-37.22461 0h15.32422m-30.39453 0h11.86328m-32.12891 0h17.0586m-49.982425 0h29.716795m-52.23242 0h19.308594" fill="#8bff75" filter="url(#filter5929)" stroke="#8bff75" stroke-width="6" transform="matrix(-.5 0 0 .5 124.61846 -77.574771)"/>
    <path d="m40.42999 30.399059v3h-17.81153v-3zm7 0v3h-5.39552v-3zm12.18847 0v3h-10.58399v-3zm8.745115 0v3h-7.196285v-3zm12.867189 0v3h-11.263669v-3zm5.132813 0v3h-3.529296v-3zm4 0v3h-2.396484v-3zm8.254883 0v3h-6.651367v-3zm0-6v3h-9.583984v-3zm-11.188477 0v3h-3.262695v-3zm-4.86621 0v3h-7.13086v-3zm-8.734378 0v3h-4.662105v-3zm-6.2666 0v3h-5.395505v-3zm-7 0v3h-4.79492v-3zm-6.398435 0v3h-9.39649v-3zm-11 0v3h-7.39649v-3zm-9 0v3h-2.12989v-3zm-3.73438 0v3h-7.81152v-3zm13.53516-6v3h-9.34668v-3zm9.265625 0v3h-7.662115v-3zm7.535155 0v3h-5.93164v-3zm10.132815 0v3h-8.5293v-3zm16.461913 0v3h-14.858398v-3zm11.257812 0v3h-9.654297v-3z" fill="#126d00" fill-opacity=".972549" opacity=".7" stroke="#baffa0" stroke-width=".6"/>
  </g>
  <g id="g72">
    <g transform="matrix(1.2774653 0 0 1.2774653 51.9866 68.872646)">
      <path d="m18.083601 8h91.832799c5.58631 0 10.0836 4.497286 10.0836 10.083601v91.832799c0 5.58631-4.49729 10.0836-10.0836 10.0836h-91.832799c-5.586315 0-10.083601-4.49729-10.083601-10.0836v-91.832799c0-5.586315 4.497286-10.083601 10.083601-10.083601z" fill="url(#linearGradient60)" filter="url(#filter3319)" opacity=".97" transform="matrix(.3530981 0 0 .3530981 12.873349 23.741297)"/>
      <path d="m19.258634 26.566082h32.425987c1.972515 0 3.5605 1.587983 3.5605 3.5605v32.425987c0 1.972515-1.587985 3.5605-3.5605 3.5605h-32.425987c-1.972517 0-3.5605-1.587985-3.5605-3.5605v-32.425987c0-1.972517 1.587983-3.5605 3.5605-3.5605z" fill="url(#linearGradient61)" opacity=".97"/>
      <path d="m19.258634 26.566082h32.425987c1.972515 0 3.5605 1.587983 3.5605 3.5605v32.425987c0 1.972515-1.587985 3.5605-3.5605 3.5605h-32.425987c-1.972517 0-3.5605-1.587985-3.5605-3.5605v-32.425987c0-1.972517 1.587983-3.5605 3.5605-3.5605z" fill="url(#linearGradient62)" opacity=".080414"/>
      <path d="m51.496582 28.195526h-31.696812c-1.369594 0-2.472192 1.102598-2.472192 2.472192v31.343714c0 1.369593 1.102598 2.472192 2.472192 2.472192h31.696812c1.369594 0 2.472192-1.102599 2.472192-2.472192v-31.343714c0-1.369594-1.102598-2.472192-2.472192-2.472192z" fill="url(#radialGradient62)" opacity=".97"/>
      <path d="m17.906944 8.299378c-4.690175 0-9.397509 3.568001-9.397509 9.39874l4.267305-.05891c.452373-2.129835 2.851964-4.270962 4.526605-4.603385z" fill="url(#linearGradient6452)" filter="url(#filter6458)" opacity=".861012" transform="matrix(.3530981 0 0 .3530981 12.873349 23.741297)"/>
      <path d="m25.397509 16.46919c-4.690175 0-8.967908 3.654709-8.967908 9.485448l4.347139-.315433c.452373-2.129835 2.851964-4.270962 4.526605-4.603385z" fill="url(#linearGradient6464)" filter="url(#filter6458)" opacity=".842847" transform="matrix(-.3530981 0 0 .3530981 60.847873 20.916512)"/>
      <path d="m15.698134 61.125558v1.423427c0 1.972516 1.591567 3.564084 3.564084 3.564084h32.418819c1.972516 0 3.564084-1.591565 3.564084-3.564084v-1.423427c0 1.972516-1.591568 3.564084-3.564084 3.564084h-32.418819c-1.972517 0-3.564084-1.591568-3.564084-3.564084z" fill="url(#linearGradient65)" opacity=".080414"/>
      <path d="m26.246568 16.978625c-4.690175 0-9.477343 3.654709-9.477343 9.485448l4.007515-.824868c.452373-2.129835 2.851964-4.270962 4.526605-4.603385z" fill="url(#linearGradient6470)" filter="url(#filter6458)" opacity=".316632" transform="matrix(.3530981 0 0 -.3530981 10.048564 71.793662)"/>
      <path d="m26.246568 16.978625c-4.690175 0-9.477343 3.654709-9.477343 9.485448l4.007515-.824868c.452373-2.129835 2.851964-4.270962 4.526605-4.603385z" fill="url(#linearGradient6470)" filter="url(#filter6458)" opacity=".170881" transform="matrix(-.3530981 0 0 -.3530981 60.847873 71.793662)"/>
      <path d="m15.698134 31.523124v-1.423427c0-1.972516 1.591567-3.564084 3.564084-3.564084h32.418819c1.972516 0 3.564084 1.591565 3.564084 3.564084v1.423427c0-1.972516-1.591568-3.564084-3.564084-3.564084h-32.418819c-1.972517 0-3.564084 1.591568-3.564084 3.564084z" fill="url(#linearGradient68)" opacity=".376943"/>
      <path d="m19.738036 28.077783c-1.408941 0-2.537892 1.128952-2.537892 2.537893v.353098c0-1.408941 1.128951-2.537893 2.537892-2.537893h31.646416c1.408943 0 2.537893 1.128952 2.537893 2.537893v-.353098c0-1.408941-1.12895-2.537893-2.537893-2.537893z" fill="url(#linearGradient3231)" opacity=".97"/>
      <path d="m52.494759 28.665725c.563318.464251.926882 1.160544.926882 1.953074v12.181884c-.06828.11583-.154212.235629-.253789.353098-9.621138 3.702773-25.886401 4.762703-35.971868 2.339275v.198618c10.233161 2.579958 26.689093 1.545752 36.468412-2.217898.09958-.117469.185511-.237268.253789-.353098v-12.181884c0-1.007393-.579448-1.862269-1.423426-2.273069z" fill="url(#linearGradient3233)" opacity=".97"/>
      <path d="m-109.38386 13.614708h89.767721c3.878793 0 7.001431 3.122638 7.001431 7.001431v87.767721c0 3.87879-3.122638 7.00143-7.001431 7.00143h-89.767721c-3.87879 0-7.00143-3.12264-7.00143-7.00143v-87.767721c0-3.878793 3.12264-7.001431 7.00143-7.001431z" style="opacity:.97;fill:none;stroke-linecap:round;stroke-linejoin:round;stroke:url(#linearGradient71);filter:url(#filter3281)" transform="matrix(-.3530981 0 0 .3530981 12.873349 23.741297)"/>
      <path d="m19.648419 28.077783c-1.408941 0-2.537893 1.128952-2.537893 2.537893v14.75288c10.233163 2.579958 26.689096 1.545752 36.468413-2.217898.09958-.11747.185511-.237268.25379-.353098v-12.181884c0-1.408941-1.12895-2.537893-2.537893-2.537893z" fill="url(#linearGradient2816)" opacity=".97"/>
    </g>
    <path d="m222.20716 140.06985h21.16797m-38.6582 0h14.39257m-40.12695 0h22.52734m-32.79296 0h7.05859m-15.05859 0h4.79296m-21.30273 0h13.30273m5.86524-12h-19.16797m28.90234 0h-6.52539m23.99414 0h-14.26172m26.79297 0h-9.32421m23.32421 0h-10.79101m23.58984 0h-9.58984m31.58984 0h-18.79297m1.86719-12h15.32422m-30.39453 0h11.86328m-32.12891 0h17.0586m-49.98243 0h29.7168m-52.23242 0h19.30859" fill="#8bff75" filter="url(#filter5929)" stroke="#8bff75" stroke-width="6"/>
    <path d="m222.20716 137.66985v6h21.16798v-6zm-17.49023 0v6h14.39257v-6zm-25.73438 0v6h22.52734v-6zm-10.26562 0v6h7.05859v-6zm-8 0v6h4.79296v-6zm-16.50977 0v6h13.30273v-6zm0-12v6h19.16797v-6zm22.37695 0v6h6.52539v-6zm9.73242 0v6h14.26172v-6zm17.46876 0v6h9.32421v-6zm12.5332 0v6h10.79101v-6zm14 0v6h9.58984v-6zm12.79687 0v6h18.79298v-6zm1.86719-12v6h15.32423v-6zm-15.07031 0v6h11.86328v-6zm-20.26563 0v6h17.0586v-6zm-32.92383 0v6h29.7168v-6zm-22.51562 0v6h19.30859v-6z" fill="#126d00" fill-opacity=".972549" opacity=".7" stroke="#baffa0" stroke-width="1.2"/>
  </g>
  <use transform="translate(0 78.056305)" xlink:href="#g72"/>
  <g>
    <rect fill="#7193c6" height="5.366509" rx="0" transform="rotate(90)" width="5.333216" x="146.81575" y="-39.983627"/>
    <rect fill="#7193c6" height="5.366509" rx="0" transform="rotate(90)" width="5.333216" x="157.48213" y="-39.983627"/>
    <rect fill="#7193c6" height="5.366509" rx="0" transform="rotate(90)" width="5.333216" x="168.14854" y="-39.983627"/>
    <rect fill="#7193c6" height="5.366509" rx="0" transform="rotate(90)" width="5.333216" x="178.81494" y="-39.983627"/>
    <rect fill="#7193c6" height="5.366509" rx="0" transform="rotate(90)" width="5.333216" x="189.48135" y="-39.983627"/>
    <rect fill="#7193c6" height="5.366509" rx="0" transform="rotate(90)" width="5.333216" x="200.14777" y="-39.983627"/>
    <rect fill="#7193c6" height="5.366509" rx="0" transform="rotate(90)" width="5.333216" x="82.929649" y="-39.983627"/>
    <rect fill="#7193c6" height="5.366509" rx="0" transform="rotate(90)" width="5.333216" x="93.596031" y="-39.983627"/>
    <rect fill="#7193c6" height="5.366509" rx="0" transform="rotate(90)" width="5.333216" x="104.26244" y="-39.983627"/>
    <rect fill="#7193c6" height="5.366509" rx="0" transform="rotate(90)" width="5.333216" x="114.92883" y="-39.983627"/>
    <rect fill="#7193c6" height="5.366509" rx="0" transform="rotate(90)" width="5.333216" x="125.59524" y="-39.983627"/>
    <rect fill="#7193c6" height="5.366509" rx="0" transform="rotate(90)" width="5.333216" x="136.26164" y="-39.983627"/>
    <rect fill="#7193c6" height="5.366509" rx="0" transform="scale(-1)" width="5.333216" x="-61.354847" y="-130.7531"/>
    <rect fill="#7193c6" height="5.366509" rx="0" transform="scale(-1)" width="5.333216" x="-50.688435" y="-130.7531"/>
    <rect fill="#7193c6" height="5.366509" rx="0" transform="scale(-1)" width="5.333216" x="-61.354847" y="-208.8094"/>
    <rect fill="#7193c6" height="5.366509" rx="0" transform="scale(-1)" width="5.333216" x="-50.688435" y="-208.8094"/>
  </g>
</svg>
