<svg height="256" width="256" xmlns="http://www.w3.org/2000/svg" xmlns:xlink="http://www.w3.org/1999/xlink">
  <defs>
    <linearGradient id="linearGradient7912" gradientTransform="matrix(.242914 0 0 .351321 -7.762237 -169.08361)" gradientUnits="userSpaceOnUse" x1="399.77466" x2="399.77466" y1="727.07941" y2="480.60214">
      <stop offset="0" stop-color="#cbcbcd"/>
      <stop offset=".5" stop-color="#e0e0e2"/>
      <stop offset="1" stop-color="#f2f2f2"/>
    </linearGradient>
    <linearGradient id="linearGradient12912" gradientTransform="matrix(2.371406 0 0 2.3714056 -2274.542 1186.943)" gradientUnits="userSpaceOnUse" x1="1055.3002" x2="1055.3002" y1="-473.54486" y2="-483.66544">
      <stop offset="0" stop-color="#2bc50f"/>
      <stop offset="1" stop-color="#b9ffb4"/>
    </linearGradient>
    <filter id="filter4400" height="1.055767" width="1.047076" x="-.023538" y="-.027883">
      <feGaussianBlur stdDeviation="1.177891"/>
    </filter>
    <linearGradient id="linearGradient2194" gradientTransform="matrix(2.371406 0 0 2.3714056 -2306.542 1186.943)" gradientUnits="userSpaceOnUse" x1="1055.3002" x2="1055.3002" y1="-473.54486" y2="-483.66544">
      <stop offset="0" stop-color="#e3ba0e"/>
      <stop offset="1" stop-color="#fff3ca"/>
    </linearGradient>
    <linearGradient id="linearGradient2213" gradientTransform="matrix(2.371406 0 0 2.3714056 -2338.542 1186.943)" gradientUnits="userSpaceOnUse" x1="1055.3002" x2="1055.3002" y1="-473.54486" y2="-483.66544">
      <stop offset="0" stop-color="#df0000"/>
      <stop offset="1" stop-color="#ffc7c7"/>
    </linearGradient>
    <linearGradient id="linearGradient2219" gradientTransform="matrix(2.371406 0 0 2.3714056 -2466.542 1186.943)" gradientUnits="userSpaceOnUse" x1="1055.3002" x2="1055.3002" y1="-473.54486" y2="-481.76657">
      <stop offset="0" stop-color="#656565"/>
      <stop offset="1" stop-color="#fff"/>
    </linearGradient>
    <filter id="filter2275" color-interpolation-filters="sRGB" height="1.105069" width="1.088372" x="-.044186" y="-.052535">
      <feGaussianBlur stdDeviation="2.160153"/>
    </filter>
    <filter id="filter2281" color-interpolation-filters="sRGB" height="1.096" width="1.096" x="-.048" y="-.048">
      <feGaussianBlur stdDeviation=".23999996"/>
    </filter>
    <linearGradient id="linearGradient4310" gradientUnits="userSpaceOnUse" x1="414.41217" x2="414.41217" xlink:href="#linearGradient4304" y1="136.78235" y2="168.78155"/>
    <linearGradient id="linearGradient4304">
      <stop offset="0" stop-color="#cbcbcd"/>
      <stop offset="1" stop-color="#cbcbcd" stop-opacity="0"/>
    </linearGradient>
    <linearGradient id="linearGradient4333" gradientUnits="userSpaceOnUse" x1="414.41217" x2="414.41217" xlink:href="#linearGradient4304" y1="200.76405" y2="232.76325"/>
    <linearGradient id="linearGradient34" gradientTransform="matrix(8.0000001 0 0 8.0000039 8 -.000003)" gradientUnits="userSpaceOnUse" x1="3.5" x2="3.5" y1="8" y2="5">
      <stop offset="0" stop-color="#0057ae"/>
      <stop offset="1" stop-color="#0057ae"/>
    </linearGradient>
    <linearGradient id="linearGradient35" gradientTransform="matrix(7.5452306 0 0 7.4748734 9.591692 3.506601)" gradientUnits="userSpaceOnUse" x1="3.5" x2="3.5" y1="7.82534" y2="4.878163">
      <stop offset="0" stop-color="#0968ef"/>
      <stop offset="1" stop-color="#aecffc"/>
    </linearGradient>
    <linearGradient id="linearGradient36" gradientTransform="matrix(8.0889801 0 0 7.9869061 48.218484 -.133794)" gradientUnits="userSpaceOnUse" x1="-1.147762" x2="-1.850474" y1="7.029993" y2="4.143643">
      <stop offset="0" stop-color="#b3b3b3"/>
      <stop offset=".52879584" stop-color="#fff"/>
      <stop offset="1" stop-color="#c5c5c5"/>
    </linearGradient>
  </defs>
  <path d="m87.62845 247.5457c-1.303794 0-2.6666 1.0425-2.6666 2.6666v93.3517c0 1.62218 1.375348 2.6666 2.6666 2.6666h111.9972c1.478 0 2.6666-1.2163 2.6666-2.6666v-93.3517c0-1.49059-1.20393-2.6666-2.6666-2.6666zm1.96875 2.67187 108.0597.0336c1.09166 0 1.96875 1.02406 1.96875 2.29688l.026 88.71912c0 1.2728-.87709 2.29687-1.96875 2.29687l-108.0857.0416c-1.091657 0-1.96875-1.02407-1.96875-2.29687v-88.79428c0-1.27282.877093-2.29688 1.96875-2.29688z" fill="#fff" filter="url(#filter2275)" transform="matrix(2 0 0 2 -159.2541 -465.77629)"/>
  <rect filter="url(#filter4400)" height="101.384" opacity=".4" rx="3.595974" transform="matrix(2 0 0 2.0071684 -159.2541 -460.29154)" width="120.1011" x="83.54525" y="242.45522"/>
  <rect fill="url(#linearGradient7912)" height="197.3284" rx="5.385861" width="234.6608" x="10.669606" y="29.315092"/>
  <use transform="translate(32)" xlink:href="#use2287"/>
  <ellipse cx="228.00325" cy="51.975952" fill="url(#linearGradient12912)" rx="11.999999" ry="11.999997"/>
  <use id="use2287" transform="translate(32)" xlink:href="#use2285"/>
  <ellipse cx="196.00325" cy="51.975952" fill="url(#linearGradient2194)" rx="11.999999" ry="11.999997"/>
  <use id="use2285" transform="translate(128)" xlink:href="#ellipse2279"/>
  <ellipse cx="164.00327" cy="51.975952" fill="url(#linearGradient2213)" rx="11.999999" ry="11.999997"/>
  <ellipse id="ellipse2279" cx="97.628677" cy="258.87613" filter="url(#filter2281)" rx="6" ry="5.999999" transform="matrix(2 0 0 2 -159.2541 -465.77629)"/>
  <ellipse cx="36.003246" cy="51.975952" fill="url(#linearGradient2219)" rx="11.999999" ry="11.999997"/>
  <path d="m14.669599 87.98031h226.660801v134.6632h-226.660801z" fill="#fff" opacity=".6"/>
  <path d="m16.002799 29.31511c-2.607588 0-5.3332 2.085-5.3332 5.3332v186.7034c0 3.24436 2.750696 5.3332 5.3332 5.3332h223.994401c2.956 0 5.3332-2.4326 5.3332-5.3332v-186.7034c0-2.98118-2.40786-5.3332-5.3332-5.3332zm3.9375 5.34374 216.119401.0672c2.18332 0 3.9375 2.04812 3.9375 4.59376l.052 177.43824c0 2.5456-1.75418 4.59374-3.9375 4.59374l-216.171401.0832c-2.183314 0-3.9375-2.04814-3.9375-4.59374v-177.58856c0-2.54564 1.754186-4.59376 3.9375-4.59376z" fill="#fff"/>
  <g transform="translate(-290.93001 -15.838828)">
    <g id="g3550" transform="matrix(1.3333334 0 0 1.3333334 298.96018 75.449147)">
      <rect fill="url(#linearGradient34)" height="24" rx="1.985773" ry="2.276042" width="24" x="24" y="40"/>
      <rect fill="url(#linearGradient35)" height="20" rx=".881566" ry="1.001006" width="20" x="26" y="42"/>
      <path d="m26 41.967068 19.994108.088388.005892 5.944544h-6l-7.82985 4h-6.018445z" fill="url(#linearGradient36)" fill-rule="evenodd"/>
      <path d="m25.911612 56h6.088388l8-4h6.082368l-.082368-4h-6l-8 4h-5.914433z" fill="#0057ae" fill-rule="evenodd" opacity=".8"/>
    </g>
    <use height="128" transform="translate(74.605184 -.09026)" width="128" xlink:href="#g3550"/>
    <use height="128" transform="translate(143.93678 -.09026)" width="128" xlink:href="#g3550"/>
    <use height="128" transform="translate(.007183 63.92446)" width="128" xlink:href="#g3550"/>
    <use height="128" transform="translate(74.612384 63.8342)" width="128" xlink:href="#g3550"/>
    <path d="m323.08626 179.44795c-6.0381 0-10.875 4.8369-10.875 10.875v41.75h5.3125v-41.5625c0-3.1876 2.56241-5.75 5.75-5.75h5v-5.3125zm42.5625 0v5.3125h148.9375c3.1876 0 5.75 2.5624 5.75 5.75v41.5625h5.3125v-41.75c0-6.0381-4.8369-10.875-10.875-10.875z" fill="url(#linearGradient4333)" fill-rule="evenodd"/>
    <path d="m323.08626 115.46625c-6.0381 0-10.875 4.8369-10.875 10.875v41.75h5.3125v-41.5625c0-3.1876 2.56241-5.75 5.75-5.75h5v-5.3125zm42.5625 0v5.3125h148.9375c3.1876 0 5.75 2.5624 5.75 5.75v41.5625h5.3125v-41.75c0-6.0381-4.8369-10.875-10.875-10.875z" fill="url(#linearGradient4310)" fill-rule="evenodd"/>
    <g fill="#0e62bc" transform="matrix(.97991727 0 0 1.0204943 266.71195 -153.66286)">
      <path d="m65.782041 331.63515c-.40048 0-.75416-.0412-1.06106-.1234-.30316-.0786-.56328-.1908-.78034-.33686-.21334-.1422-.3855-.31438-.5165-.51648-.1272-.1984-.2152-.41732-.26386-.65684l1.57754-.1852c.0562.24326.176.43414.3593.57262.1872.1384.4304.20772.72982.20772.1872 0 .35742-.0262.51088-.0786.1572-.0524.29006-.1422.3986-.26946.1122-.1236.1984-.2882.25824-.49404.0636-.20584.0954-.46034.0954-.7635 0-.1048 0-.21146 0-.32 0-.1086.0019-.20772.006-.29754.004-.1048.006-.20586.006-.30316h-.012c-.1834.39298-.44164.67742-.77474.85332-.32936.176-.72234.26386-1.17894.26386-.3855 0-.7186-.0748-.9993-.22456-.27696-.1534-.50714-.3649-.69052-.63438-.1834-.27322-.32-.59696-.40982-.97122-.086-.37802-.1292-.79346-.1292-1.24632 0-.46784.0468-.89076.1404-1.26876.0936-.38176.23578-.70924.42666-.98246.1946-.27322.4379-.4828.72984-.62878.29566-.1498.6456-.22454 1.04982-.22456.4042.00002.76536.086 1.0835.25826.32186.1722.57262.45098.75228.83648h.028c0-.0786.0019-.1684.006-.26948.008-.1048.014-.20396.0224-.29754.008-.0972.014-.1834.0224-.25824.012-.0748.0206-.1254.028-.1516h1.49334c-.008.1348-.014.32374-.0224.56702-.008.24328-.012.5221-.012.83648v4.48562c-.00002.44162-.0636.82526-.1908 1.15086-.1272.32936-.3144.60258-.5614.81966-.24328.21706-.54458.37988-.90386.48842-.35556.1086-.76164.1628-1.21824.1628m1.31928-5.55788c0-.38176-.0374-.69988-.1122-.95438s-.1722-.45848-.29192-.61194c-.1198-.1534-.25826-.26198-.41544-.3256-.1534-.0636-.30878-.0954-.46596-.0954-.20212 0-.38176.0392-.53896.1178-.1534.0786-.28444.20024-.39298.36492-.1086.1646-.1908.37428-.24702.62876-.0562.25452-.0842.55768-.0842.90948 0 .65498.1048 1.149.31438 1.4821.2096.3331.5221.49966.93754.49966.1572 0 .31252-.03.46598-.0898.1572-.0636.29752-.1722.42104-.3256.1236-.1572.22268-.36492.29754-.62316.0748-.25824.1122-.58386.1122-.97684" stroke-width="2"/>
      <path d="m80.643741 326.15587c-.00002.46408-.0656.88888-.1964 1.27438-.1272.3855-.32.7186-.57824.9993-.25826.27696-.58012.49402-.96562.65122-.3855.1534-.83462.23018-1.34736.23018-.49404 0-.93006-.0768-1.30806-.23018-.37802-.1534-.69614-.36866-.9544-.64562-.2545-.27696-.44724-.60818-.57824-.99368-.131-.38924-.1964-.81776-.1964-1.2856 0-.45286.0618-.87018.1852-1.25194.1272-.38548.31812-.71858.57262-.9993.2545-.28068.5745-.49964.96-.65684s.83648-.23578 1.35298-.23578c.54642 0 1.0124.0786 1.3979.23578.38548.1572.69988.37616.94316.65684.247.27698.42664.6082.53894.9937.116.38174.174.80092.174 1.25754m-1.65054 0c0-.72234-.1178-1.24632-.35368-1.57194-.23578-.3256-.57824-.4884-1.02736-.48842-.4641.00002-.81966.1646-1.06666.49404-.24702.32936-.37054.85146-.37054 1.56632 0 .36304.0318.67554.0954.93754.0674.26198.161.47718.2807.6456.1198.1684.26386.2938.43228.37614.1684.0786.35368.118.5558.118.23204 0 .43788-.0394.61754-.118.1834-.0824.33684-.20772.46034-.37614.1236-.1684.21708-.38362.2807-.6456.0636-.262.0954-.5745.0954-.93754" stroke-width="2"/>
      <path d="m83.364921 323.12429v3.40772c0 .23578.018.45286.0562.65122.0374.1946.0992.36304.1852.50526.086.1384.1964.24702.33122.32562.1384.0786.3069.1178.50526.1178.1908 0 .36304-.0412.5165-.1236.1572-.086.29192-.20584.4042-.3593.1122-.1572.1984-.34246.25824-.55578.0636-.21708.0954-.45474.0954-.71298v-3.25614h1.57754v4.71578.4042c.004.1384.008.27136.012.3986.008.1236.014.2358.016.33684.008.0974.014.1702.016.21896h-1.50456c-.004-.045-.012-.116-.0224-.21334-.008-.101-.014-.21146-.0224-.33122-.004-.1198-.01-.23954-.016-.3593-.004-.1198-.006-.22082-.006-.30316h-.028c-.2096.46034-.4772.79532-.8028 1.0049-.32188.2096-.7055.3144-1.15088.3144-.36304 0-.67182-.0598-.92632-.1796s-.46222-.28256-.62316-.48842c-.1572-.20958-.27134-.4566-.34244-.74104-.0712-.28444-.1066-.59134-.1066-.9207v-3.85684h1.57754" stroke-width="2"/>
      <path d="m69.879501 329.19867v-4.64842c0-.131-.0019-.26946-.006-.41544 0-.146-.004-.28444-.012-.41544-.004-.1348-.008-.2545-.012-.3593-.004-.1086-.01-.1872-.016-.23578h1.50456c.008.045.014.1236.0224.23578.008.1086.014.22832.0224.3593.008.131.014.262.016.39298.008.1272.012.23018.012.30878h.0224c.0786-.22082.1572-.4173.23578-.58948.0786-.1758.1704-.32372.27508-.4435.1086-.1236.23766-.21708.38738-.2807.1496-.0674.33496-.101.55578-.101.0936.00002.1852.01.2751.028.0936.014.1646.0336.21332.0562v1.3193c-.101-.0224-.20398-.0412-.30876-.0562-.101-.018-.2227-.028-.36492-.028-.39298 0-.69988.159-.9207.4772-.21708.31812-.32562.7897-.32562 1.41472v2.98106h-1.57754" stroke-width="2"/>
      <path d="m94.272601 326.13341c-.00002.46034-.0468.88514-.1404 1.27438-.0898.38924-.23018.7242-.42104 1.00492-.1908.2807-.43416.5015-.72984.66244-.29192.1572-.63812.2358-1.03858.2358-.1796 0-.3593-.018-.53896-.0562-.176-.0374-.34432-.0974-.50526-.1796-.161-.086-.31064-.1964-.44912-.33122-.1348-.1384-.25076-.30878-.34806-.51088h-.0338c.004.018.008.0654.012.1404.004.0748.008.1628.012.26386.004.0974.006.2021.006.31438.004.1086.006.20958.006.30316v2.32982h-1.57754v-7.06244c0-.31064-.006-.5876-.016-.83088-.008-.24328-.016-.43228-.028-.56702h1.53262c.008.0262.014.0768.0224.1516.012.0748.018.161.0224.25824.008.0974.014.1984.016.30316.004.1048.006.1966.006.27508h.0224c.1908-.40046.45286-.68676.78596-.85894.3331-.1722.71858-.25824 1.15648-.25824.3855 0 .7186.0786.9993.23578.2807.1572.51088.37428.69052.65124.1834.27696.31812.60818.40422.99368.0898.38176.1348.80094.1348 1.25754m-1.64492 0c0-.6924-.1048-1.20514-.31438-1.53824-.2096-.33684-.5221-.50526-.93754-.50526-.1572 0-.3144.0336-.47158.101-.1534.0636-.29194.176-.41544.33684-.1198.1572-.21894.37054-.29754.64-.0748.26574-.1122.60258-.1122 1.01052 0 .39674.0374.72796.1122.9937.0748.26198.1722.47158.29192.62876.1236.1572.262.26948.41544.33684.1534.0636.30878.0954.46596.0954.2021 0 .38176-.0394.53896-.118.1572-.0824.28818-.20772.39298-.37614.1086-.1722.1908-.3911.24702-.65684.0562-.26572.0842-.58198.0842-.94876" stroke-width="2"/>
      <path d="m95.418461 329.19867v-1.09474c.1796-.39298.3986-.74666.65684-1.06106.25824-.31812.52772-.60818.80842-.87016.28444-.26574.56514-.51088.8421-.73544.2807-.2283.53146-.44724.75228-.65684.22456-.21334.40608-.42666.54456-.64.1384-.21332.20772-.43976.20772-.6793 0-.3518-.088-.61192-.26386-.78034-.176-.1684-.43416-.25264-.77474-.25264-.33684 0-.59508.0918-.77472.27508-.176.1796-.29006.451-.34246.81404l-1.58878-.0898c.0374-.31064.1142-.60256.23018-.8758.116-.2732.2807-.51274.49404-.71858.21706-.20584.48654-.36678.80842-.48282.3256-.1198.71298-.1796 1.1621-.1796.42666 0 .80468.0506 1.13404.1516.32934.0974.6063.2414.830859.43228.22456.1908.39486.4248.51088.70176.116.27322.174.58572.174.93754 0 .37052-.073.7055-.21896 1.0049-.146.29942-.3331.57638-.5614.83088-.228299.25076-.482799.48656-.763499.70736-.27696.22082-.54644.43604-.80842.64562-.262.2096-.50152.42106-.7186.63438-.21332.21334-.3724.44164-.47718.68492h3.671559v1.29684h-5.535419" stroke-width="2"/>
    </g>
    <g fill="#0e62bc" transform="matrix(1.9598345 0 0 2.0409886 131.70397 -448.97345)">
      <path d="m101.77846 279.15916c-.20024 0-.37708-.0206-.53053-.0617-.15158-.0393-.28164-.0954-.39017-.16842-.10667-.0711-.19275-.1572-.25825-.25825-.0636-.0992-.1076-.20865-.13193-.32842l.78877-.0926c.0281.12164.088.21707.17965.28631.0936.0692.2152.10386.36491.10386.0936 0 .17871-.0131.25544-.0393.0786-.0262.14503-.0711.1993-.13474.0561-.0618.0992-.14409.12912-.24702.0318-.10292.0477-.23017.0477-.38175 0-.0524 0-.10573 0-.16 0-.0543.00093-.10386.003-.14877.002-.0524.003-.10293.003-.15158h-.006c-.0917.19649-.22082.33871-.38737.42666-.16468.088-.36117.13193-.58947.13193-.19275 0-.3593-.0374-.49965-.11228-.13848-.0767-.25357-.18245-.34526-.31719-.0917-.13661-.16-.29848-.20491-.48561-.043-.18901-.0646-.39672-.0646-.62316 0-.23391.0234-.44538.0702-.63438.0468-.19088.11789-.35462.21333-.49123.0973-.13661.21895-.2414.36492-.31439.14783-.0749.3228-.11227.52491-.11228.2021.00001.38268.043.54175.12913.16093.0861.28631.2255.37614.41824h.014c0-.0393.00094-.0842.003-.13474.004-.0524.007-.10198.0112-.14877.004-.0486.007-.0917.0112-.12912.006-.0374.0103-.0627.014-.0758h.74667c-.004.0674-.007.16188-.0112.28351-.004.12164-.006.26105-.006.41824v2.24281c-.00001.22081-.0318.41263-.0954.57543-.0636.16468-.1572.30129-.2807.40983-.12164.10853-.27229.18994-.45193.24421-.17778.0543-.38082.0814-.60912.0814m.65964-2.77894c0-.19088-.0187-.34994-.0561-.47719s-.0861-.22924-.14596-.30597c-.0599-.0767-.12913-.13099-.20772-.1628-.0767-.0318-.15439-.0477-.23298-.0477-.10106 0-.19088.0196-.26948.0589-.0767.0393-.14222.10012-.19649.18246-.0543.0823-.0954.18714-.12351.31439-.0281.12725-.0421.27883-.0421.45473 0 .32749.0524.5745.15719.74105.1048.16655.26105.24983.46877.24983.0786 0 .15626-.015.23299-.0449.0786-.0318.14876-.0861.21052-.1628.0618-.0786.11134-.18246.14877-.31158.0374-.12912.0561-.29193.0561-.48842"/>
      <path d="m109.27444 276.41952c-.00001.23205-.0328.44444-.0982.63719-.0636.19275-.16.3593-.28912.49965-.12913.13848-.29006.24701-.48281.32561-.19275.0767-.41731.11509-.67368.11509-.24702 0-.46503-.0384-.65403-.11509-.18901-.0767-.34807-.18433-.4772-.32281-.12725-.13847-.22362-.30409-.28912-.49684-.0655-.19462-.0982-.40888-.0982-.6428 0-.22643.0309-.43509.0926-.62597.0636-.19274.15906-.35929.28631-.49964s.28725-.24983.48-.32842c.19275-.0786.41824-.1179.67649-.1179.27321 0 .5062.0393.69895.1179.19274.0786.34994.18807.47158.32842.1235.13848.21332.30409.26947.49684.058.19088.087.40047.087.62877m-.82527 0c0-.36117-.0589-.62316-.17684-.78597-.11789-.1628-.28912-.2442-.51368-.24421-.23205.00001-.40983.0824-.53333.24702-.12351.16468-.18527.42573-.18527.78316 0 .18152.0159.33778.0477.46877.0337.13099.0805.2386.14035.3228.0599.0842.13193.14691.21614.18807.0842.0393.17684.0589.2779.0589.11602 0 .21894-.0196.30877-.0589.0917-.0412.16842-.10385.23017-.18807.0618-.0842.10854-.19181.14035-.3228.0318-.13099.0477-.28725.0477-.46877"/>
      <path d="m110.6676 274.90373v1.70386c0 .11789.009.22643.0281.32561.0187.0973.0496.18152.0926.25263.043.0692.0982.12351.16561.16281.0692.0393.15345.059.25263.059.0954 0 .18152-.0206.25825-.0618.0786-.043.14596-.10292.2021-.17965.0561-.0786.0992-.17122.12912-.27789.0318-.10854.0477-.22737.0477-.35649v-1.62807h.78877v2.35789.20211c.002.0692.004.13567.006.19929.004.0618.007.1179.008.16842.004.0487.007.0851.008.10948h-.75228c-.002-.0225-.006-.058-.0112-.10667-.004-.0505-.007-.10573-.0112-.16561-.002-.0599-.005-.11977-.008-.17965-.002-.0599-.003-.11041-.003-.15158h-.014c-.1048.23018-.2386.39766-.4014.50246-.16094.10479-.35275.15719-.57544.15719-.18152 0-.33591-.0299-.46316-.0898s-.23111-.14128-.31158-.24421c-.0786-.10479-.13567-.2283-.17122-.37052-.0356-.14222-.0533-.29567-.0533-.46035v-1.92842h.78877"/>
      <path d="m103.85975 277.94092v-2.32421c0-.0655-.00093-.13473-.003-.20772 0-.073-.002-.14222-.006-.20772-.002-.0674-.004-.12724-.006-.17964-.002-.0543-.005-.0936-.008-.1179h.75228c.004.0225.007.0618.0112.1179.004.0543.007.11415.0112.17964.004.0655.007.131.008.1965.004.0636.006.11509.006.15438h.0112c.0393-.11041.0786-.20865.11789-.29474.0393-.0879.0852-.16186.13754-.22175.0543-.0618.11883-.10853.19369-.14035.0748-.0337.16748-.0505.27789-.0505.0468.00001.0926.005.13755.014.0468.007.0823.0168.10666.0281v.65965c-.0505-.0112-.10199-.0206-.15438-.0281-.0505-.009-.11135-.014-.18246-.014-.19649 0-.34994.0795-.46035.2386-.10854.15906-.16281.39485-.16281.70736v1.49053h-.78877"/>
      <path d="m116.15401 276.40829c-.00001.23018-.0234.44257-.0702.63719-.0449.19462-.11509.36211-.21052.50246-.0954.14035-.21708.25076-.36492.33122-.14596.0786-.31906.1179-.51929.1179-.0898 0-.17965-.009-.26948-.0281-.088-.0187-.17216-.0487-.25263-.0898-.0805-.043-.15532-.0982-.22456-.16561-.0674-.0692-.12538-.15439-.17403-.25544h-.0169c.002.009.004.0328.006.0702s.004.0814.006.13193c.002.0487.003.10105.003.15719.002.0543.003.10479.003.15158v1.16491h-.78877v-3.53122c0-.15532-.003-.2938-.008-.41544-.004-.12163-.008-.21614-.014-.28351h.76631c.004.0131.007.0384.0112.0758.006.0374.009.0805.0112.12912.004.0487.007.0992.008.15158.002.0524.003.0983.003.13755h.0112c.0954-.20024.22643-.34339.39298-.42948.16655-.0861.35929-.12912.57824-.12912.19275 0 .3593.0393.49965.11789.14035.0786.25544.18714.34526.32562.0917.13848.15906.30409.20211.49684.0449.19088.0674.40047.0674.62877m-.82246 0c0-.3462-.0524-.60257-.15719-.76912-.1048-.16842-.26105-.25263-.46877-.25263-.0786 0-.1572.0168-.23579.0505-.0767.0318-.14597.088-.20772.16842-.0599.0786-.10947.18527-.14877.32-.0374.13287-.0561.30129-.0561.50527 0 .19836.0187.36397.0561.49684.0374.13099.0861.23579.14596.31438.0618.0786.131.13474.20772.16842.0767.0318.15439.0477.23298.0477.10105 0 .19088-.0196.26948-.0589.0786-.0412.14409-.10385.19649-.18807.0543-.0861.0954-.19555.12351-.32842.0281-.13286.0421-.29099.0421-.47438"/>
      <path d="m116.75948 277.94092v-.58667h.97964v-2.69754l-.94877.59228v-.62035l.99088-.6428h.74666v3.36841h.90667v.58667z"/>
    </g>
  </g>
</svg>
