<svg height="256" width="256" xmlns="http://www.w3.org/2000/svg" xmlns:xlink="http://www.w3.org/1999/xlink">
  <defs>
    <linearGradient id="linearGradient3260">
      <stop offset="0" stop-color="#fff"/>
      <stop offset="1" stop-color="#fff" stop-opacity="0"/>
    </linearGradient>
    <linearGradient id="linearGradient3449">
      <stop offset="0"/>
      <stop offset="1" stop-opacity="0"/>
    </linearGradient>
    <linearGradient id="linearGradient3516" gradientTransform="matrix(.9792 0 0 .9725 133.0002 20.8762)" gradientUnits="userSpaceOnUse" x1="64.088867" x2="64.088867" y1="9.679421" y2="123.90625">
      <stop offset="0" stop-color="#124dde"/>
      <stop offset=".35530001" stop-color="#113ec9"/>
      <stop offset=".61940002" stop-color="#1148b7"/>
      <stop offset=".75739998" stop-color="#0e47a5"/>
      <stop offset="1" stop-color="#0b1b5e"/>
    </linearGradient>
    <radialGradient id="radialGradient3524" cx="67.09375264688" cy="116.90625475313" gradientUnits="userSpaceOnUse" r="71.5909656">
      <stop offset="0" stop-color="#2571e5"/>
      <stop offset=".35530001" stop-color="#113581"/>
      <stop offset=".61940002" stop-color="#3874f5"/>
      <stop offset=".75739998" stop-color="#216edf"/>
      <stop offset="1" stop-color="#2f5fa8"/>
    </radialGradient>
    <radialGradient id="radialGradient3535" cx="99.726295" cy="27.418272" fx="64.689766" fy="68.231934" gradientTransform="matrix(.693735 .05867125 -.0362428 .4285387 33.939389 26.8809)" gradientUnits="userSpaceOnUse" r="56">
      <stop offset="0" stop-color="#2c5fd2"/>
      <stop offset="1" stop-color="#0049ff" stop-opacity="0"/>
    </radialGradient>
    <linearGradient id="linearGradient3548" gradientUnits="userSpaceOnUse" x1="75.09375" x2="75.09375" y1="4.531704" y2="80.172485">
      <stop offset="0" stop-color="#c2cee8"/>
      <stop offset="1" stop-color="#c2d0e8" stop-opacity="0"/>
    </linearGradient>
    <linearGradient id="linearGradient3581" gradientUnits="userSpaceOnUse" x1="75.097966" x2="75.097966" xlink:href="#linearGradient3260" y1="4.533675" y2="80.174456"/>
    <linearGradient id="linearGradient3613" gradientUnits="userSpaceOnUse" x1="71.59375" x2="88.89941" y1="130.40625" y2="64.905899">
      <stop offset="0" stop-color="#c2cae8"/>
      <stop offset="1" stop-color="#c2d0e8" stop-opacity="0"/>
    </linearGradient>
    <radialGradient id="radialGradient3654" cx="-10.165252" cy="66.906013" gradientTransform="matrix(.4582893 -.00000002 .00000005 1.0000813 20.447953 -.005197)" gradientUnits="userSpaceOnUse" r="59.995121" xlink:href="#linearGradient3449"/>
    <radialGradient id="radialGradient3658" cx="167.67001" cy="80.404922" gradientTransform="matrix(.2676699 .521376 -.7037472 .3612977 108.99386 -36.062981)" gradientUnits="userSpaceOnUse" r="59.995121" xlink:href="#linearGradient3449"/>
    <linearGradient id="linearGradient3676" gradientUnits="userSpaceOnUse" spreadMethod="reflect" x1="117.234073" x2="122.475233" xlink:href="#linearGradient3260" y1="15.397923" y2="17.272923"/>
    <filter id="filter3738" height="1.397879" width="1.301924" x="-.150962" y="-.198939">
      <feGaussianBlur stdDeviation=".39257441"/>
    </filter>
    <radialGradient id="radialGradient3744" cx="46.25367" cy="86.72467" fx="46.253662" gradientTransform="matrix(-.00000024 1.1093034 -1.0633726 -.00000014 156.30951 -2.406116)" gradientUnits="userSpaceOnUse" r="59.995121" xlink:href="#linearGradient3449"/>
    <radialGradient id="radialGradient3757" cx="66.01458" cy="126.69183" gradientTransform="matrix(.675025 0 0 .3583625 19.527377 41.004647)" gradientUnits="userSpaceOnUse" r="59.995121">
      <stop offset="0" stop-color="#2c59d2"/>
      <stop offset="1" stop-color="#0059ff" stop-opacity="0"/>
    </radialGradient>
    <radialGradient id="radialGradient3767" cx="64.088867" cy="7.410843" gradientTransform="matrix(.3093869 0 0 .4779247 44.260611 3.864422)" gradientUnits="userSpaceOnUse" r="59.995121" xlink:href="#linearGradient3260"/>
    <linearGradient id="linearGradient3771" gradientUnits="userSpaceOnUse" spreadMethod="reflect" x1="120.0625" x2="125.30366" y1="12.569496" y2="14.444496">
      <stop offset="0" stop-color="#4584ff"/>
      <stop offset="1" stop-color="#fff" stop-opacity="0"/>
    </linearGradient>
    <filter id="filter3630" height="1.036044" width="1.035128" x="-.017564" y="-.018022">
      <feGaussianBlur stdDeviation=".89883985"/>
    </filter>
    <filter id="filter3378" height="1.033143" width="1.032327" x="-.016163" y="-.016572">
      <feGaussianBlur stdDeviation=".565"/>
    </filter>
    <mask id="mask1967" maskUnits="userSpaceOnUse">
      <g transform="matrix(1.3362647 1.3362647 -1.3362647 1.3362647 65.729948 -26.449052)">
        <path d="m63.445836 63.44595a41.83387 41.83387 0 0 1 -46.249286 8.788784 41.83387 41.83387 0 0 1 -25.1410891-39.801567 41.83387 41.83387 0 0 1 27.8050231-37.9884176 41.83387 41.83387 0 0 1 45.539694 11.9321169l-31.535356 27.4880707z" fill="#fff"/>
        <rect fill="url(#linearGradient1975)" height="34.123039" transform="matrix(.14911331 -.98882012 .98882012 .14911331 0 0)" width="33.428257" x="-53.517632" y="43.78373"/>
      </g>
    </mask>
    <linearGradient id="linearGradient1975" gradientUnits="userSpaceOnUse" x1="-39.506415" x2="-26.492232" xlink:href="#linearGradient3260" y1="61.656047" y2="61.743205"/>
    <filter id="filter3834" color-interpolation-filters="sRGB" height="1.064318" width="1.080929" x="-.040464" y="-.032159">
      <feGaussianBlur stdDeviation="1.50075"/>
    </filter>
    <filter id="filter3826" color-interpolation-filters="sRGB" height="1.044321" width="1.055874" x="-.027937" y="-.02216">
      <feGaussianBlur stdDeviation="1.036"/>
    </filter>
    <linearGradient id="linearGradient4524-4" gradientTransform="matrix(2 0 0 -2 -159.82538 189.61018)" gradientUnits="userSpaceOnUse" x1="72" x2="72" y1="0" y2="116.40091">
      <stop offset="0" stop-color="#eeecec"/>
      <stop offset=".40000001" stop-color="#f4f4f4"/>
      <stop offset="1" stop-color="#f6f5f5"/>
    </linearGradient>
    <filter id="filter1164" color-interpolation-filters="sRGB" height="1.096" width="1.090435" x="-.045217" y="-.048">
      <feGaussianBlur stdDeviation=".65000024"/>
    </filter>
    <radialGradient id="radialGradient5988-0" cx="64" cy="64.004021" fx="63.793392" fy="47.274845" gradientTransform="matrix(3.368421 .16859038 .13772678 -2.7517692 -256.21938 226.93665)" gradientUnits="userSpaceOnUse" r="47.5" xlink:href="#linearGradient3260"/>
    <clipPath id="clipPath6093-7">
      <path d="m17.000001 8-.000001 112h61.5c1.675283 0 3.914297-.56468 7-3.6 8.870045-8.72523 16.24047-13.8518 23.49904-21.175957 2.44056-2.462612 3.00096-4.47117 3.00096-6.724043v-80.5z"/>
    </clipPath>
    <filter id="filter6171-8" color-interpolation-filters="sRGB" height="2.02159" width="1.956141" x="-.47807" y="-.510795">
      <feGaussianBlur stdDeviation="10.140743"/>
    </filter>
    <linearGradient id="linearGradient3895-3" gradientTransform="matrix(2.0239716 0 0 -2.0239716 -153.61646 179.5845)" gradientUnits="userSpaceOnUse" x1="86.73793" x2="93.189758" y1="93.621468" y2="100.45876">
      <stop offset="0" stop-color="#fcfcfc"/>
      <stop offset=".52275378" stop-color="#f8f8f8"/>
      <stop offset=".72337759" stop-color="#f0efef"/>
      <stop offset=".89024991" stop-color="#e3e1e1"/>
      <stop offset="1" stop-color="#cecbcb"/>
    </linearGradient>
  </defs>
  <g mask="url(#mask1967)" transform="matrix(2.0000001 0 0 2.0000001 -3.007 -.11168)">
    <path d="m119.88582 12.693927c.79339.713112 1.30096 1.945659 1.30096 3.806224l5.72591 38.421309c0 3.595749-2.65466 6.811318-6.45926 6.249333l-38.297009-5.656854c-2.660127-.392933-3.700928-1.343815-4.209496-2.524593-.564116-1.309747-.376489-2.559661 1.679379-4.615529l7.499199-7.499198c-1.144385-1.144386-2.781963-2.172499-4.685964-3.075639a31.957149 31.957149 0 0 0 -36.61211-.516519 31.957149 31.957149 0 0 0 -11.342711 39.140846 31.957149 31.957149 0 0 0 36.328992 18.460735 31.957149 31.957149 0 0 0 24.645157-27.125555l28.041203 4.803354c-4.06964 29.127459-29.117551 51.343959-59.406637 51.343959-33.125157 0-59.9991152-26.873953-59.9991153-59.999112-.0000001-33.125161 26.8753373-60.0004961 60.0004963-60.000496 16.562583 0 31.576737 6.703701 42.436076 17.563041l7.36661-7.366616c2.07388-2.073876 3.79288-2.473214 5.10719-1.95283.31974.126596.61666.306436.88113.54414z" fill="url(#linearGradient3516)"/>
    <path d="m119.88582 12.693927c.79339.713112 1.30096 1.945659 1.30096 3.806224l5.72591 38.421309c0 3.595749-2.65466 6.811319-6.45926 6.249333l-38.297009-5.656854c-2.660127-.392934-3.700928-1.343815-4.209496-2.524593-.564116-1.309747-.376489-2.559661 1.679379-4.615529l7.499199-7.499198c-1.144385-1.144386-2.781963-2.172499-4.685964-3.075639a31.957149 31.957149 0 0 0 -36.61211-.516519 31.957149 31.957149 0 0 0 -11.342711 39.140846 31.957149 31.957149 0 0 0 36.328992 18.460735 31.957149 31.957149 0 0 0 24.645157-27.125555l28.041203 4.803354c-4.06964 29.127459-29.117551 51.343959-59.406637 51.343959-33.125157 0-59.9991152-26.873953-59.9991153-59.999112-.0000001-33.125161 26.8753373-60.0004961 60.0004963-60.000496 16.562583 0 31.576737 6.703701 42.436076 17.563041l7.36661-7.366616c2.07388-2.073876 3.79288-2.473214 5.10719-1.95283.31974.126596.61666.306436.88113.54414z" fill="url(#radialGradient3757)" opacity=".797753"/>
    <path d="m119.88582 12.693927c.79339.713112 1.30096 1.945659 1.30096 3.806224l5.72591 38.421309c0 3.595749-2.65466 6.811319-6.45926 6.249333l-38.297009-5.656854c-2.660127-.392934-3.700928-1.343815-4.209496-2.524593-.564116-1.309747-.376489-2.559661 1.679379-4.615529l7.499199-7.499198c-.534027-.358539-1.35395-.742619-2.303621-1.138a31.957149 31.957149 0 0 0 -38.994453-2.454158 31.957149 31.957149 0 0 0 -11.342711 39.140846 31.957149 31.957149 0 0 0 36.328992 18.460735 31.957149 31.957149 0 0 0 24.645157-27.125555l28.041203 4.803354c-4.06964 29.127459-29.117551 51.343959-59.406637 51.343959-33.125157 0-59.9991152-26.873953-59.9991153-59.999112-.0000001-33.125161 26.8753373-60.0004961 60.0004963-60.000496 16.562583 0 31.576737 6.703701 42.436076 17.563041l7.36661-7.366616c2.07388-2.073876 3.79288-2.473214 5.10719-1.95283.31974.126596.61666.306436.88113.54414z" fill="url(#radialGradient3658)" opacity=".689139"/>
    <path d="m119.88582 12.693927c.79339.713112 1.30096 1.945659 1.30096 3.806224l5.72591 38.421309c0 3.595749-2.65466 6.811319-6.45926 6.249333l-38.297009-5.656854c-2.660127-.392934-3.700928-1.343815-4.209496-2.524593-.564116-1.309747-.376489-2.559661 1.679379-4.615529l7.499199-7.499198c-1.181467-1.181467-2.887153-2.240324-4.871027-3.164027a31.957149 31.957149 0 0 0 -36.427047-.428131 31.957149 31.957149 0 0 0 -11.342711 39.140846 31.957149 31.957149 0 0 0 36.328992 18.460735 31.957149 31.957149 0 0 0 24.592676-27.133841l28.093684 4.81164c-4.06964 29.127459-29.117551 51.343959-59.406637 51.343959-33.125157 0-59.9991152-26.873953-59.9991153-59.999112-.0000001-33.125161 26.8753373-60.0004961 60.0004963-60.000496 16.562583 0 31.576737 6.703701 42.436076 17.563041l7.36661-7.366616c2.07388-2.073876 3.79288-2.473214 5.10719-1.95283.31974.126596.61666.306436.88113.54414z" fill="url(#radialGradient3654)"/>
    <path d="m119.88582 12.693927c.79339.713112 1.30096 1.945659 1.30096 3.806224l5.72591 38.421309c0 3.595749-2.65466 6.811319-6.45926 6.249333l-38.297009-5.656854c-2.660127-.392933-3.700928-1.343815-4.209496-2.524593-.564116-1.309747-.376489-2.559661 1.679379-4.615529l7.499199-7.499198c-1.181467-1.181467-2.887153-2.240324-4.871027-3.164027a31.957149 31.957149 0 0 0 -36.427047-.428131 31.957149 31.957149 0 0 0 -11.342711 39.140846 31.957149 31.957149 0 0 0 36.328992 18.460735 31.957149 31.957149 0 0 0 24.592676-27.133841l28.093684 4.81164c-4.06964 29.127459-29.117551 51.343959-59.406637 51.343959-33.125157 0-59.9991152-26.873953-59.9991153-59.999112-.0000001-33.125161 26.8753373-60.0004961 60.0004963-60.000496 16.562583 0 31.576737 6.703701 42.436076 17.563041l7.36661-7.366616c2.07388-2.073876 3.79288-2.473214 5.10719-1.95283.31974.126596.61666.306436.88113.54414z" fill="url(#radialGradient3744)" opacity=".797753"/>
    <path d="m119.88582 12.693927c.79339.713112 1.30096 1.945659 1.30096 3.806224l5.72591 38.421309c0 3.595749-2.65466 6.811319-6.45926 6.249333l-38.297009-5.656854c-2.660127-.392934-3.700928-1.343815-4.209496-2.524593-.564116-1.309747-.376489-2.559661 1.679379-4.615529l7.499199-7.499198c-1.181467-1.181467-2.887153-2.240324-4.871027-3.164027a31.957149 31.957149 0 0 0 -36.427047-.428131 31.957149 31.957149 0 0 0 -11.342711 39.140846 31.957149 31.957149 0 0 0 36.328992 18.460735 31.957149 31.957149 0 0 0 24.592676-27.133841l28.093684 4.81164c-4.06964 29.127459-29.117551 51.343959-59.406637 51.343959-33.125157 0-59.9991152-26.873953-59.9991153-59.999112-.0000001-33.125161 26.8739563-59.7008043 59.9991153-59.7008042 16.562582 0 31.578118 6.4040092 42.437457 17.2633492l7.36661-7.366616c2.07388-2.073876 3.79288-2.473214 5.10719-1.95283.31974.126596.61666.306436.88113.54414z" fill="url(#radialGradient3767)" filter="url(#filter3630)" opacity=".745318"/>
    <path d="m114.85908 13.578428.9375 4.375 1.25.875 4-2.625c.24688-1.723751-.35117-3.347429-1.9375-4.000001-1.58634-.652571-3.16128.126704-4.25 1.375001z" fill="url(#linearGradient3676)" fill-rule="evenodd" filter="url(#filter3738)" opacity=".820225"/>
    <path d="m117.17202 16.484959 5.74938 38.436501c0 1.657835-.48413 2.542919-2.46797 2.24976l-38.280437-5.656854 7.796129-7.796129c.759463-.751408 1.187718-1.776637 1.187718-2.845-.000003-1.068362-.428255-2.090829-1.187718-2.842237-2.766493-2.766493-7.737028-4.946903-12.961323-6.398488a34.727116 34.727116 0 0 0 -32.738215 3.360138 34.727116 34.727116 0 0 0 -12.326031 42.532749 34.727116 34.727116 0 0 0 39.477827 20.062774 34.727116 34.727116 0 0 0 26.078705-25.495895l21.124815 3.81451c-5.40951 25.193222-27.598598 43.999442-54.531467 43.999442-30.961665 0-55.9995425-25.037875-55.9995426-55.999542-.0000001-30.96167 25.0378756-55.9995423 55.9995426-55.9995422 15.483341 0 29.456182 6.2680492 39.593837 16.4057062.75141.759463 1.77526 1.186337 2.84362 1.186337s2.09221-.426874 2.84362-1.186337z" fill="url(#radialGradient3524)"/>
    <path d="m64.09375 7.90625c-30.961698-.0000001-56.0000001 25.038299-56 56 .0000001 30.961698 25.038304 56 56 56 26.932896 0 49.12173-18.80675 54.53125-44l-21.468146-3.875c-3.438564 11.897301-20.097233 26.125604-33.063104 26.125604-15.737346-.000001-34.250604-18.513255-34.250604-34.250604.000001-15.737351 18.513256-34.250604 34.250604-34.250604 7.872416-.000001 20.708408 3.207804 25.875604 8.375.759464.751409 1.187497 1.775386 1.1875 2.84375 0 1.068364-.428036 2.092341-1.1875 2.84375l-7.796573 7.796573 38.280649 5.656854c1.98384.293159 2.46875-.592164 2.46875-2.25l-5.75061-38.436896-7.79657 7.827823c-.75141.759464-1.77539 1.1875-2.84375 1.1875s-2.09234-.428036-2.84375-1.1875c-10.137665-10.137667-24.110394-16.40625-39.59375-16.40625z" fill="url(#radialGradient3535)"/>
    <path d="m117.17202 16.484959 5.14309 34.106853c-4.12776 3.325236-24.076826 1.184051-36.399423 1.336874l16.256553-6.163706c-1.8059-3.561629-3.79899-6.3681-6.562837-9.250393-3.949441-4.118703-9.010269-7.154818-14.589601-9.126097-12.886623-6.132174-28.055718-4.989567-39.878337 3.003823-11.995429 8.16261-18.675441 22.144582-17.488463 36.605205-6.229463-.256634-9.556846-.727502-15.5287281-1.403165-.0167279-.563768-.0303835-1.119793-.0303835-1.687665-.0000001-30.96167 25.0378756-55.9995423 55.9995426-55.9995422 15.483341 0 29.456182 6.2680492 39.593837 16.4057062.75141.759463 1.77526 1.186337 2.84362 1.186337s2.09221-.426874 2.84362-1.186337z" fill="url(#linearGradient3548)" opacity=".833333"/>
    <path d="m64.099866 7.9087646c-30.96169-.0000002-55.9999999 25.0382984-55.9999999 55.9999994.00001.178712-.00249.354295 0 .53125.25324-30.743505 25.1959799-55.5312495 55.9999999-55.5312494 15.48337-.0000001 29.45608 6.2685824 39.593744 16.4062494.75142.759465 1.77539 1.1875 2.84375 1.1875 1.06837.000001 2.09234-.428036 2.84375-1.1875l7.29657-7.327823 5.34425 32.699505c-4.50581 3.215576-23.805189.783015-36.100996 1.24475 10.593901-.101868 30.612046 3.351171 36.200996-1.1385l-4.9442-33.305755v-1l-.5.5-7.29657 7.327823c-.7514.759465-1.77539 1.1875-2.84375 1.1875-1.06835.000001-2.09234-.428036-2.84375-1.1875-.0105-.01047-.0208-.02079-.0312-.03125-.0524-.05229-.10367-.104166-.15625-.15625-.5738-.567871-1.15087-1.11515-1.75-1.65625-.0815-.07412-.16804-.145107-.25-.21875-9.916144-8.910179-23.009684-14.3437494-37.406344-14.3437494zm-.79165 15.1997444c-9.23817.25052-19.344674 3.267752-28.286777 11.878078-8.936918 8.605333-12.239605 20.699646-11.3125 30.047177-.361563-9.839656 3.147907-20.77719 11.8125-29.640927 13.924418-14.244452 37.804157-15.557735 53.813104-4.1875-11.202491-7.783003-17.951287-8.315808-26.026327-8.096828z" fill="url(#linearGradient3581)"/>
    <path d="m116.67207 16.484959 5.74939 38.436501c0 1.657834-.46624 2.128694-2.46797 2.24976l-38.280443-5.656854 7.796128-7.796129c.75946-.751407 1.187719-1.776638 1.187719-2.845 0-1.06836-.428259-2.09083-1.187719-2.842237-1.792767-1.792767-4.51755-3.343897-7.629019-4.612767a35.306866 35.306866 0 0 0 -37.896504 1.093806 35.306866 35.306866 0 0 0 -12.533192 43.24538 35.306866 35.306866 0 0 0 40.139359 20.395611 35.306866 35.306866 0 0 0 26.495788-25.871546l20.079343 3.625304c-5.4095 25.193192-27.598616 43.999442-54.531464 43.999442-30.961638 0-55.9995421-25.037906-55.9995421-55.999542 0-30.961639 25.0379041-55.9995423 55.9995421-55.9995422 15.48333 0 29.4562 6.2680592 39.593834 16.4057062.75141.759462 1.77526 1.186337 2.84362 1.186337s2.09221-.426875 2.84362-1.186337z" style="fill:none;stroke-linecap:round;stroke-linejoin:round;stroke-dashoffset:1.0878;stroke:url(#linearGradient3613);filter:url(#filter3378)"/>
    <path d="m119.88582 12.693927c.79339.713112 1.30096 1.945659 1.30096 3.806224l5.72591 38.421309c0 3.595749-2.65466 6.811319-6.45926 6.249333l-38.297009-5.656854c-2.660127-.392934-3.700928-1.343815-4.209496-2.524593-.564116-1.309747-.376489-2.559661 1.679379-4.615529l7.499199-7.499198c-.5801-.389472-1.459183-.808048-2.524592-1.240199a31.957149 31.957149 0 0 0 -38.773482-2.351959 31.957149 31.957149 0 0 0 -11.342711 39.140846 31.957149 31.957149 0 0 0 36.328992 18.460735 31.957149 31.957149 0 0 0 24.592676-27.133841l28.093684 4.81164c-4.06964 29.127459-29.117551 51.343959-59.406637 51.343959-33.125157 0-59.9991152-26.873953-59.9991153-59.999112-.0000001-33.125161 26.8753373-60.0004961 60.0004963-60.000496 16.562583 0 31.576737 6.703701 42.436076 17.563041l7.36661-7.366616c2.07388-2.073876 3.79288-2.473214 5.10719-1.95283.31974.126596.61666.306436.88113.54414zm-65.280324 19.113981c-3.283265-.682937-4.213058-.83672 0 0z" fill="url(#radialGradient3658)" opacity=".689139"/>
    <path d="m117.6875 10.75 2.1875 3.125.5-.125 3.5-.375c.24688-1.723751-.35117-3.347429-1.9375-4.0000001-1.58634-.6525714-3.16128.1267033-4.25 1.3750001z" fill="url(#linearGradient3771)" fill-rule="evenodd" filter="url(#filter3738)" opacity=".820225" transform="matrix(0 1 1 0 68.848866 -68.84887)"/>
  </g>
  <g transform="matrix(.69128127 0 0 .69128127 145.60574 86.101323)">
    <path d="m-128.8111-19.056071v112h56.187504c5.114947-.238308 32.613203-27.078301 32.775-30.612499.08138-25.126708.0375-56.2589983.0375-81.387501z" filter="url(#filter3834)" opacity=".262376" transform="matrix(2 0 0 -2 143.79682 134.49804)"/>
    <path d="m-128.8111-19.556071v112.2h55.746422c3.098719 0 24.709876-18.512112 30.003672-24.699929 1.602664-1.873324 3.24991-3.03751 3.24991-7.20007v-80.300001z" fill-opacity=".700535" filter="url(#filter3826)" transform="matrix(2 0 0 -2 143.79682 134.49804)"/>
    <path d="m-113.82538 173.61018v-223.999998h111.000008c3.350566 0 7.828594 1.12936 14 7.2 17.74009 17.45046 32.48094 27.703618 46.99808 42.351918 4.88112 4.92522 6.00192 8.94234 6.00192 13.44808v161z" fill="#fff" stroke-width="2"/>
    <path d="m-110.82538 171.61018c-.67968 0-1-.46923-1-1v-215.937498c0-1.64316 1.35864-3 3-3h103.375008c.10614 0 1.620768-.0468 3-.0626 3.555328.0802 6.263948 1.50748 8.71207 3.18656 2.103732.58206 33.29967 27.239178 51.54191 45.618478 2.72478 2.74524 4.37092 7.89634 4.37092 9.79122l.0001 160.40384c0 .64544-.32644 1-1 1z" fill="url(#linearGradient4524-4)" stroke-width="2"/>
    <path d="m-39.811096 59.94691c0 4.46531-3.067448 5.978576-5.549678 7.662246-5.10854 3.46508-13.669156 1.756744-19.450326 1.837764-.081 5.78116 1.723142 12.231893-1.741938 17.340433-1.68367 2.48224-4.847792 5.659577-7.758062 5.659577 2.31803 0 4.74284-1.334761 7.58402-4.084811 9.14197-8.84873 14.36714-11.135349 22.673154-20.297529 1.91895-2.11675 4.24283-3.64188 4.24283-8.11768z" filter="url(#filter1164)" opacity=".4" transform="matrix(2 0 0 -2 143.79682 134.49804)"/>
    <path d="m-110.82538 171.61018c-.67968 0-1-.46923-1-1v-215.937498c0-1.64316 1.35864-2.999022 3-3l105.000008-.0626c.10614-.000064 6.547768.016 7.927-.0001 13.081944 9.00722 37.2746 31.906578 55.16506 49.910198 2.9537 3.31296.9152.74012 2.90782 3.2149l.00012 165.875c0 .64544-.32644 1-1 1z" fill="url(#radialGradient5988-0)" opacity=".846535" stroke-width="2"/>
    <path clip-path="url(#clipPath6093-7)" d="m114.4 82.502986c0 4.465301-4.99749 12.609952-7.47972 14.293625-5.10854 3.465079-12.739114 1.52536-18.520284 1.60638-.081 5.781159 1.96586 11.304599-1.49922 16.413139-1.68367 2.48224-9.79051 8.68687-12.70078 8.68687-2.091359 1.5337 3.488204 8.21101 6.734971 5.31989 9.501888-8.46107 35.131683-30.022704 43.350823-39.262889 2.04044-2.29392-4.90514-9.844666-9.88579-7.057015z" filter="url(#filter6171-8)" opacity=".277228" transform="matrix(2 0 0 -2 -159.82538 189.61018)"/>
    <path d="m64.174628 12.60422c0-8.93062-5.59498-12.81992-10.55944-16.18726-10.21708-6.93016-21.878228-6.65072-33.440568-6.81276-.162-11.56232.33172-19.009198-6.59844-29.226278-3.36734-4.96448-10.58102-10.773742-16.40156-10.773742 4.63606 0 8.887852 3.363424 15.16804 8.169622 19.078702 14.60084 26.409368 20.968606 43.346308 38.595058 3.95915 4.12033 8.48566 7.28376 8.48566 16.23536z" fill="url(#linearGradient3895-3)"/>
    <path d="m64.212128 11.18518c-.63286-7.7982-7.04582-11.80562-11.7-14.9625-10.21708-6.93016-22.67516-4.65046-34.2375-4.8125-.162-11.56232 1.70516-20.632918-5.225-30.849998-2.946422-4.34392-8.198912-9.3202-13.525-10.500002 3.960918.724602 7.769862 3.322782 12.5375 7.937502.678234.77706 1.148594 1.3579 2.2125 3 6.93016 10.21708 5.847374 16.931438 6.009374 28.493758 11.56234.162 23.436046-.42392 33.653126 6.50624.93084.63138 3.18798 2.3755 4.0125 3.2 3.07258 3.07258 5.80342 5.22684 6.2625 11.9875zm-64.6875-61.125c-.315316-.0698-.626874-.0828-.9375-.125.313982.0338.620886.067.9375.125z" fill="#fff"/>
    <path d="m15.56339 150.61017h35.62305m-49.62305 0h10.79102m-35.16797 0h21.16797m-38.6582 0h14.39257m-40.12695 0h22.52734m-32.79296 0h7.05859m-15.05859 0h4.79296m-21.30273 0h13.30273m5.86524-12h-19.16797m28.90234 0h-6.52539m23.99414 0h-14.26172m26.79297 0h-9.32421m23.32421 0h-10.79101m23.58984 0h-9.58984m31.58984 0h-18.79297m36.79297 0h-14.79297m22.25977 0h-4.25977m23.0918 0h-15.62305m-27.07031-12h18.69336m-37.22461 0h15.32422m-30.39453 0h11.86328m-32.12891 0h17.0586m-49.98243 0h29.7168m-52.23242 0h19.30859m-5.74804-12h-13.56055m32.35742 0h-15.58984m43.1914 0h-24.39453m31.9961 0h-4.39453m23.99609 0h-16.39453m25.86328 0h-6.26172m29.73047 0h-20.26172m44.16211 0h-20.69336m13.3418-12h15.35156m-33.35156 0h14.79297m-34.26172 0h16.26172m-19.46875 0h-18.12696m-14.26758 0h11.0586m-31.32422 0h17.05859m-23.99414 0h3.72852m-30.66602 0h23.73047m-33.16992 0h6.23242m82.41602-24h23.35156m-48.82031 0h22.26172m-40.39454 0h14.92579m-36.26172 0h18.1289m-41.83984 0h20.50391m-20.50391-12h25.83984m8 0h-4.79297m46.95313 0h-38.95313m61.19141 0h-19.1914m28.52734 0h-6.12891m20.39453 0h-11.05859m41.21875 0h-26.95312m2-12h16.95312m-34.95312 0h14.79296m-28.79296 0h10.79296m-29.45703 0h15.45703m-23.45703 0h4.79297m-20.39453 0h12.39453m-26.52734 0h10.92578m-49.57422 0h35.44141m-21.86719-12h-13.57422m35.57422 0h-18.79297m36.26172 0h-14.26172m30.26172 0h-12.79297m25.86328 0h-9.86328m36.39453 0h-23.32422m36.79297 0h-10.26172m24.14844 0h-10.67969m26.67969-12h-7.21094m-13.46875 0h10.26172m-31.73047 0h18.26172m-28.1289 0h6.66015m-19.32422 0h9.45703m-20.2539 0h7.58984m-18.78516 0h7.98829m-19.58985 0h8.39453m-25.99609 0h14.39453m-29.05859 0h11.45703m-19.05274 0h4.38868m-18.25391 0h10.6582m52.27735-24h6.39453m59.87109 12h18.79883m-24.79883-12h28.79883m-48.93164 0h16.92578m-36.92578 0h16.79297m15.87109 12h10.26172m-28.52734 0h15.05859m-29.99609 0h11.73047m-25.19727 0h10.25977m-6.78516-12h7.32422m-32.79883 12h18.79297m-41.19141 0h19.19141m-29.19141 0h6.79102m-21.45508 0h11.45508m32.41797-12h15.85547m-29.32422 0h10.26172m-20.26172 0h6.79297m-27.19727 0h17.19727m3.46875-12h-20.66602m30.93164 0h-7.05859m31.05859 0h-20.79297m30.79297 0h-6.79297m14.79297 0h-4.79297m23.45703 0h-15.45703m33.45703 0h-14.79297m-2-12.000002h19.19141m-32.92578 0h10.52734m-24.52734 0h10.79297m-28.79297 0h14.79297m-28.79297 0h10.79297m-43.86133 0h29.86133m44.0039-12h32.12891m-47.86328 0h12.52734m-19.99414 0h4.25977m-18.91797 0h11.44922m-28.1211 0h13.46485m-32.79883 0h16.12695" fill="none" stroke="#b6b6b6" stroke-width="6"/>
  </g>
</svg>
