<svg height="256pt" viewBox="0 0 256 256" width="256pt" xmlns="http://www.w3.org/2000/svg" xmlns:xlink="http://www.w3.org/1999/xlink">
  <defs>
    <linearGradient id="linearGradient167">
      <stop offset="0" stop-color="#fff" stop-opacity=".65"/>
      <stop offset="1" stop-color="#fff" stop-opacity="0"/>
    </linearGradient>
    <linearGradient id="linearGradient162">
      <stop offset="0" stop-color="#ffa63f"/>
      <stop offset="1" stop-color="#ff0"/>
    </linearGradient>
    <linearGradient id="linearGradient153">
      <stop offset="0" stop-color="#ffeed7"/>
      <stop offset="1" stop-color="#bdbfc2"/>
    </linearGradient>
    <linearGradient id="linearGradient138">
      <stop offset="0" stop-color="#fff" stop-opacity=".8"/>
      <stop offset="1" stop-color="#fff" stop-opacity="0"/>
    </linearGradient>
    <radialGradient id="radialGradient1399" cx="446.77762" cy="1219.4125" gradientTransform="matrix(.49394227 0 0 .13226563 -92.682264 55.647105)" gradientUnits="userSpaceOnUse" r="195.07191">
      <stop offset="0" stop-color="#3f2600" stop-opacity=".6"/>
      <stop offset="1" stop-color="#3f2600" stop-opacity="0"/>
    </radialGradient>
    <linearGradient id="linearGradient1401" gradientTransform="matrix(-.32164624 -.00430519 -.01223999 .85230761 311.44253 -116.08989)" gradientUnits="userSpaceOnUse" x1="400.57785" x2="400.84448" xlink:href="#linearGradient153" y1="369.53015" y2="304.07886"/>
    <linearGradient id="linearGradient1403" gradientTransform="matrix(.47107868 -.0265501 -.01373256 .35712808 -12.369798 -60.337894)" gradientUnits="userSpaceOnUse" x1="303.01761" x2="297.0856" xlink:href="#linearGradient138" y1="237.93179" y2="330.09561"/>
    <linearGradient id="linearGradient1405" gradientTransform="matrix(.3550265 -.02055738 .03148617 .54810151 -31.498464 -77.623227)" gradientUnits="userSpaceOnUse" x1="378.93771" x2="380.27319" xlink:href="#linearGradient153" y1="278.60202" y2="243.91606"/>
    <linearGradient id="linearGradient1407" gradientTransform="matrix(-.49284303 .01347512 .01295469 .63414386 322.73587 -113.34323)" gradientUnits="userSpaceOnUse" x1="381.38742" x2="380.5517" xlink:href="#linearGradient153" y1="277.495" y2="245.68338"/>
    <linearGradient id="linearGradient1409" gradientTransform="matrix(-.13072743 -.00992152 -.01910335 .19416519 191.41453 10.586572)" gradientUnits="userSpaceOnUse" x1="379.09573" x2="376.79556" xlink:href="#linearGradient167" y1="240.92712" y2="281.01636"/>
    <linearGradient id="linearGradient1411" gradientTransform="matrix(.09713865 -.0111101 .01687011 .16270479 70.027202 19.912772)" gradientUnits="userSpaceOnUse" x1="389.63535" x2="387.06866" xlink:href="#linearGradient167" y1="242.28218" y2="281.32513"/>
    <linearGradient id="linearGradient1413" gradientTransform="matrix(.33868958 0 0 .51259666 -17.932798 -74.494227)" gradientUnits="userSpaceOnUse" spreadMethod="reflect" x1="437.57941" x2="437.57941" xlink:href="#linearGradient153" y1="528.87177" y2="394.10361"/>
    <linearGradient id="linearGradient1415" gradientTransform="matrix(.30092797 -.02405804 .05243335 .66798652 -43.613131 -73.730227)" gradientUnits="userSpaceOnUse" x1="375.17325" x2="377.48541" xlink:href="#linearGradient153" y1="419.78485" y2="324.03815"/>
    <linearGradient id="linearGradient1417" gradientTransform="matrix(.46649458 0 0 .37999413 -23.070131 -69.603227)" gradientUnits="userSpaceOnUse" x1="320.75104" x2="321.32224" xlink:href="#linearGradient138" y1="498.17776" y2="614.50439"/>
    <linearGradient id="linearGradient1419" gradientTransform="matrix(.4260616 0 0 .33026268 -9.543131 -51.776894)" gradientUnits="userSpaceOnUse" x1="322.48257" x2="323.2514" xlink:href="#linearGradient167" y1="435.26761" y2="488.48251"/>
    <linearGradient id="linearGradient1421" gradientTransform="matrix(.23821125 0 0 .72881124 -17.932798 -74.25256)" gradientUnits="userSpaceOnUse" x1="411.2215" x2="411.2215" xlink:href="#linearGradient167" y1="242.94365" y2="331.44858"/>
    <linearGradient id="linearGradient1423" gradientTransform="matrix(.23861125 0 0 .72758916 -17.932798 -74.25256)" gradientUnits="userSpaceOnUse" x1="867.34546" x2="867.33453" xlink:href="#linearGradient167" y1="234.73897" y2="314.83911"/>
    <linearGradient id="linearGradient1425" gradientTransform="matrix(.42146416 0 0 .41192374 -17.932798 -74.25256)" gradientUnits="userSpaceOnUse" x1="236.25362" x2="212.5099" xlink:href="#linearGradient162" y1="657.11133" y2="737.41229"/>
    <linearGradient id="linearGradient1427" gradientTransform="matrix(.21246263 .09539199 -.07496422 .19309035 153.77187 28.403772)" gradientUnits="userSpaceOnUse" x1="381.56607" x2="279.64313" xlink:href="#linearGradient153" y1="655.73102" y2="386.66583"/>
    <linearGradient id="linearGradient1429" gradientTransform="matrix(-.39333696 .1424378 .15688221 .38447252 163.0302 -89.691227)" gradientUnits="userSpaceOnUse" x1="218.11714" x2="203.12654" xlink:href="#linearGradient162" y1="630.30475" y2="737.8537"/>
    <linearGradient id="linearGradient1431" gradientTransform="matrix(-.31746531 .1154667 .14027516 .31624327 158.35853 -39.864894)" gradientUnits="userSpaceOnUse" x1="117.88966" x2="182.24524" xlink:href="#linearGradient167" y1="587.23602" y2="704.73077"/>
    <linearGradient id="linearGradient1433" gradientTransform="matrix(.33460395 -.01742003 -.00580288 .34875623 1.646202 -27.905994)" gradientUnits="userSpaceOnUse" x1="223.10072" x2="230.53499" xlink:href="#linearGradient167" y1="570.41809" y2="710.97723"/>
    <linearGradient id="linearGradient1435" gradientTransform="matrix(.12474543 .05308423 -.04031161 .10745165 161.75653 87.679438)" gradientUnits="userSpaceOnUse" x1="316.93988" x2="371.60889" xlink:href="#linearGradient167" y1="474.01779" y2="582.63507"/>
    <linearGradient id="linearGradient1437" gradientTransform="matrix(.50778499 0 0 .34189874 -17.932798 -74.25256)" gradientUnits="userSpaceOnUse" x1="284.68652" x2="285.45923" xlink:href="#linearGradient162" y1="410.46326" y2="485.69934"/>
    <linearGradient id="linearGradient1439" gradientTransform="matrix(.25574614 0 0 .16249173 51.037868 -1.145128)" gradientUnits="userSpaceOnUse" x1="288.82358" x2="288.37628" xlink:href="#linearGradient167" y1="398.85422" y2="482.55939"/>
  </defs>
  <path d="m224.35421 216.93345a96.35422 25.801308 0 1 1 -192.708439 0 96.35422 25.801308 0 1 1 192.708439 0z" fill="url(#radialGradient1399)"/>
  <path d="m75.245117 189.18077c-9.328333-13.42625-11.1475-57.07667 10.619583-83.92917 10.785833-12.882496 13.5375-21.860413 14.38792-33.913746.57875-13.741249-9.718753-54.767499 29.11791-57.893332 39.33584-3.138333 37.22334 35.691666 36.99709 56.239582-.18792 17.35 12.73916 27.18375 21.58166 40.706246 16.36625 24.84584 14.98209 67.625-3.08291 90.78-22.88209 28.98667-42.48042 16.41584-55.49584 17.47084-24.37208 1.33416-25.17791 14.32958-54.125413-29.46042z"/>
  <path d="m170.26184 112.92942c6.75521 6.21839 24.33665 34.20807-3.46426 51.62157-9.80048 6.06398 8.73795 29.29296 17.6393 18.04134 15.70825-20.19898 5.69067-52.36709-3.73249-63.89341-6.39889-8.17078-16.1837-11.33679-10.44255-5.7695z" fill="url(#linearGradient1401)"/>
  <path d="m168.35141 109.11245c11.13613 8.9987 31.41268 40.67929 1.83859 61.2574-9.71301 6.41596 8.60751 26.64665 18.89481 16.29843 35.76704-35.97042-.93328-77.33184-13.56691-91.55138-11.29103-12.366166-21.29258 2.921518-7.16649 13.99555z" stroke="#000" stroke-width=".520834"/>
  <path d="m152.32621 33.053232a18.500538 24.821879 79.822179 1 1 -49.27713 2.77727 18.500538 24.821879 79.822179 1 1 49.27713-2.77727z" fill="url(#linearGradient1403)"/>
  <path d="m119.73992 57.591365a12.161862 7.8779098 86.731111 1 1 -15.72947.910796 12.161862 7.8779098 86.731111 1 1 15.72947-.910796z" fill="url(#linearGradient1405)"/>
  <path d="m127.6234 58.104878a14.051345 10.921147 89.433791 1 0 21.83545-.597016 14.051345 10.921147 89.433791 1 0 -21.83545.597016z" fill="url(#linearGradient1407)"/>
  <path d="m132.61891 59.858913a4.9616245 7.7140173 2.0031812 1 0 9.92636.02124 4.9616245 7.7140173 2.0031812 1 0 -9.92636-.02124z"/>
  <path d="m115.2437 59.903805a6.4145228 3.6085215 85.064337 1 1 -7.16722.871767 6.4145228 3.6085215 85.064337 1 1 7.16722-.871767z"/>
  <path d="m133.75969 57.423454a2.902955 4.3229078 6.6703624 1 0 5.79189.439574 2.902955 4.3229078 6.6703624 1 0 -5.79189-.439574z" fill="url(#linearGradient1409)"/>
  <path d="m113.56871 58.034503a3.6237644 2.1657109 84.416721 1 1 -4.30374.492234 3.6237644 2.1657109 84.416721 1 1 4.30374-.492234z" fill="url(#linearGradient1411)"/>
  <path d="m89.8597 131.93285c5.348334-12.12625 16.71417-33.427496 16.95625-49.899163 0-13.100833 39.24125-16.229583 42.39042-3.149166 3.14916 13.080416 11.14208 32.701249 16.22916 42.148329 5.08667 9.44667 19.92042 39.45625 4.11834 65.64417-14.23209 23.185-57.38542 41.5275-80.420836-3.14875-7.75125-15.50292-6.36875-34.71458.726666-51.59542z" fill="url(#linearGradient1413)"/>
  <path d="m85.024066 122.93411c-4.569909 8.64958-14.079379 31.39772 9.097662 43.84379 24.949482 13.21374 24.829512 40.40879-5.117086 27.46921-27.377626-11.69576-15.274118-58.95625-7.617127-70.26403 5.020507-7.91994 12.550169-17.61416 3.636551-1.04897z" fill="url(#linearGradient1415)"/>
  <path d="m88.947617 113.13077c-7.277083 11.87833-24.740416 39.92208-1.37 54.46792 31.487083 19.31458 22.572083 38.62958-6.16625 21.23916-40.462083-24.27666-4.927083-73.17333 11.304583-91.807496 18.51833-20.916666 3.564167 3.786246-3.768333 16.100416z" stroke="#000" stroke-width=".520833"/>
  <path d="m159.86527 136.53569c0 13.2376-12.70493 30.43357-34.51754 30.27919-22.49491.18583-32.096085-17.04159-32.096085-30.27919s14.921515-23.981 33.307025-23.981c18.38508 0 33.3066 10.7434 33.3066 23.981z" fill="url(#linearGradient1417)"/>
  <path d="m147.99547 94.87262c-.24211 13.7198-9.17001 16.95626-20.46834 16.95626-11.29874 0-19.49992-2.02532-20.46874-16.95626 0-9.359714 9.17-14.776212 20.46874-14.776212 11.29833 0 20.46834 5.416498 20.46834 14.776212z" fill="url(#linearGradient1419)"/>
  <path d="m79.68595 115.94535c7.381667-11.24833 22.92292-28.484996 2.907084 2.42209-16.229583 25.43458-6.00125 41.78041-.726667 46.26625 15.219583 13.5675 14.569167 22.64541 2.664583 15.5025-25.677083-15.26084-20.347916-40.93667-4.845-64.19084z" fill="url(#linearGradient1421)"/>
  <path d="m186.5097 120.54744c-6.38292-13.20875-26.7225-46.625836.96917-7.75125 25.19208 35.12375 7.50916 59.58875 4.36 62.01125-3.14875 2.42208-13.80709 7.26666-10.65792-1.21125 3.14875-8.47792 18.8475-24.57209 5.32875-53.04875z" fill="url(#linearGradient1423)"/>
  <path d="m74.115117 224.46452c-16.850833-8.92333-41.354999 1.71833-32.459166-22.5275 1.781667-5.51583-2.65625-13.75333.242083-19.13583 3.39125-6.54084 10.658334-5.08709 15.01875-9.4475 4.299167-4.53792 7.024583-12.35375 15.018333-11.1425 7.993333 1.21125 13.310417 11.02541 18.893333 23.01208 4.117917 8.59917 18.72542 20.69333 17.77083 30.31583-1.12333 14.79167-17.927913 17.57917-34.484163 8.92542z" fill="url(#linearGradient1425)" stroke="#e68c3f" stroke-width="2.60417"/>
  <path d="m196.93924 167.56166c-2.58895 4.85489-13.26171 12.5588-20.3745 10.55081-7.25772-1.96941-10.52616-12.95495-9.10488-21.26906 1.31942-9.36297 9.10466-9.82832 18.86763-5.20984 10.49621 5.11222 13.67034 9.49381 10.61175 15.92809z" fill="url(#linearGradient1427)"/>
  <path d="m191.04823 220.30481c12.35956-14.98815 39.7967-11.91368 21.29298-32.46421-3.91501-4.40578-2.74642-13.95725-7.50235-17.99166-5.65714-4.94692-11.89755-.88987-17.63162-3.47694-5.74429-2.7732-11.74817-8.16451-18.76018-4.32983-7.01162 3.83454-7.76605 13.81046-8.42731 26.86983-.5798 9.40689-9.15178 25.1371-4.60071 33.78043 6.67427 13.40297 23.84486 11.62842 35.62919-2.38762z" fill="url(#linearGradient1429)" stroke="#e68c3f" stroke-width="2.60417"/>
  <path d="m185.673 200.26973c19.13149-28.24027 4.87272-28.03459.0966-30.17054-4.79003-2.28855-9.87049-6.72391-15.50345-3.59924-5.63264 3.12455-5.95498 11.29998-6.10949 22.00322-.1961 7.70945-6.65029 20.52337-2.76836 27.67817 4.65636 8.33983 15.95703-3.77306 24.28471-15.91161z" fill="url(#linearGradient1431)"/>
  <path d="m70.198904 204.33626c-28.634465-18.53647-15.239526-24.82967-10.892678-27.74122 5.212786-3.734 5.253263-11.01136 11.658965-10.33239 6.405367.67898 10.134388 8.56496 14.453116 18.35948 3.188832 7.02182 14.131472 16.30152 13.349105 24.40392-1.032996 9.49569-16.164424 3.23703-28.568508-4.68979z" fill="url(#linearGradient1433)"/>
  <path d="m195.22131 167.29796c-2.23137 3.89099-11.43003 10.06534-17.56042 8.45602-6.25531-1.57841-9.07233-10.38285-7.84737-17.04626 1.13717-7.50402 7.84713-7.87698 16.26168-4.17546 9.04651 4.09723 11.78224 7.60889 9.14611 12.7657z"/>
  <path d="m189.05786 165.1186c-1.42181 2.70166-7.48416 6.98876-11.64101 5.87134-4.24025-1.09595-6.31471-7.20923-5.62642-11.83589.61211-5.21035 5.11846-5.4693 10.85453-2.89919 6.16928 2.84488 8.08122 5.28316 6.4129 8.86374z" fill="url(#linearGradient1435)"/>
  <path d="m111.2147 66.884521c2.97792-2.820833 10.33792-11.2775 24.15042-2.397917 2.5675 1.670834 4.65083 1.82375 9.59208 3.939584 9.88583 4.062083 5.15917 13.857916-5.31 17.128333-4.4825 1.45375-8.55667 6.898333-16.72042 6.432916-6.9725-.407083-8.79958-4.9475-13.0825-7.460833-7.61208-4.29625-8.73541-10.105833-4.625-13.18875 4.11084-3.082916 5.71875-4.19125 5.99542-4.453333z" fill="url(#linearGradient1437)" stroke="#e68c3f" stroke-width="1.5625"/>
  <path d="m145.08845 74.766188c-4.11792.242083-13.08042 9.204583-22.5275 9.204583s-15.01833-8.720417-16.47167-8.720417" fill="none" stroke="#e68c3f" stroke-width="1.04167"/>
  <path d="m115.90969 66.111321c1.49583-1.34422 6.21418-5.032981 12.47147-1.256459 1.31835.74776 2.67981 1.561638 4.70453 2.673349 4.01051 2.332628 2.0241 5.69417-2.78069 7.821095-2.18043.892506-5.77508 2.862175-8.51224 2.724378-3.04168-.279566-5.00947-2.263333-7.0254-3.555332-3.69824-2.442826-3.47367-4.415275-1.75578-6.057526 1.29868-1.127596 2.75914-2.224614 2.89811-2.349505z" fill="url(#linearGradient1439)"/>
</svg>
