<svg height="256" width="256" xmlns="http://www.w3.org/2000/svg" xmlns:xlink="http://www.w3.org/1999/xlink">
  <defs>
    <linearGradient id="linearGradient6446">
      <stop offset="0" stop-color="#fff"/>
      <stop offset="1" stop-color="#fff" stop-opacity="0"/>
    </linearGradient>
    <linearGradient id="linearGradient1514">
      <stop offset="0" stop-color="#606060"/>
      <stop offset="1" stop-color="#888" stop-opacity="0"/>
    </linearGradient>
    <filter id="filter3319-0-6" height="1.069342" width="1.069342" x="-.034671" y="-.034671">
      <feGaussianBlur stdDeviation="1.6179775"/>
    </filter>
    <filter id="filter6458-2-9" height="1.145266" width="1.152245" x="-.076123" y="-.072633">
      <feGaussianBlur stdDeviation=".28444187"/>
    </filter>
    <filter id="filter3281-7-9" height="1.02533" width="1.024842" x="-.012421" y="-.012665">
      <feGaussianBlur stdDeviation=".32872878"/>
    </filter>
    <linearGradient id="linearGradient2516" gradientUnits="userSpaceOnUse" x1="60.402065" x2="60.402065" xlink:href="#linearGradient1514" y1="64.076149" y2="-20.962214"/>
    <linearGradient id="linearGradient2518" gradientUnits="userSpaceOnUse" x1="39.741936" x2="11.458064" y1="113.54839" y2="13.006452">
      <stop offset="0" stop-color="#3c3c3c"/>
      <stop offset="1" stop-color="#616161"/>
    </linearGradient>
    <linearGradient id="linearGradient2520" gradientUnits="userSpaceOnUse" x1="19.096775" x2="80.047699" xlink:href="#linearGradient1514" y1="50.580647" y2="66.897575"/>
    <radialGradient id="radialGradient2522" cx="-63.99999971388" cy="91.78952376597" gradientUnits="userSpaceOnUse" r="50.60662935693" spreadMethod="pad">
      <stop offset="0" stop-color="#808080"/>
      <stop offset="1" stop-color="#474747"/>
    </radialGradient>
    <linearGradient id="linearGradient2524" gradientUnits="userSpaceOnUse" spreadMethod="reflect" x1="13.507897" x2="7.602036" xlink:href="#linearGradient6446" y1="13.721349" y2="19.627209"/>
    <linearGradient id="linearGradient2526" gradientUnits="userSpaceOnUse" spreadMethod="reflect" x1="21.507897" x2="15.539791" xlink:href="#linearGradient6446" y1="21.721349" y2="27.689454"/>
    <linearGradient id="linearGradient2528" gradientUnits="userSpaceOnUse" x1="55.329033" x2="55.329033" y1="112" y2="74.913147">
      <stop offset="0" stop-color="#383838"/>
      <stop offset="1" stop-color="#606060" stop-opacity="0"/>
    </linearGradient>
    <linearGradient id="linearGradient2530" gradientUnits="userSpaceOnUse" spreadMethod="reflect" x1="21.507897" x2="14.373943" xlink:href="#linearGradient6446" y1="21.721349" y2="28.855302"/>
    <linearGradient id="linearGradient2534" gradientUnits="userSpaceOnUse" x1="62.038712" x2="62.038712" y1="15.91371" y2="50.728985">
      <stop offset="0" stop-color="#b2b2b2"/>
      <stop offset="1" stop-color="#dfdfdf" stop-opacity="0"/>
    </linearGradient>
    <linearGradient id="linearGradient2536" gradientUnits="userSpaceOnUse" x1="59.48817" x2="59.48817" xlink:href="#linearGradient6446" y1="7.897322" y2="46.228859"/>
    <linearGradient id="linearGradient2538" gradientUnits="userSpaceOnUse" x1="116.000003" x2="31.609901" xlink:href="#linearGradient6446" y1="72.000002" y2="21.946344"/>
    <linearGradient id="linearGradient2540" gradientUnits="userSpaceOnUse" x1="-60.945251" x2="-59.415245" y1="105.83054" y2="45.631207">
      <stop offset="0" stop-color="#c5c5c5"/>
      <stop offset="1" stop-color="#fff" stop-opacity="0"/>
    </linearGradient>
    <linearGradient id="linearGradient2542" gradientUnits="userSpaceOnUse" x1="59.225807" x2="59.225807" xlink:href="#linearGradient6446" y1="-31.712746" y2="98.167175"/>
  </defs>
  <g id="g2514" opacity=".97" transform="matrix(.55284674 0 0 .55284674 92.617808 92.617806)">
    <path d="m18.083601 8h91.832799c5.58631 0 10.0836 4.497286 10.0836 10.083601v91.832799c0 5.58631-4.49729 10.0836-10.0836 10.0836h-91.832799c-5.586315 0-10.083601-4.49729-10.083601-10.0836v-91.832799c0-5.586315 4.497286-10.083601 10.083601-10.083601z" fill="url(#linearGradient2516)" filter="url(#filter3319-0-6)"/>
    <path d="m18.083601 8h91.832799c5.58631 0 10.0836 4.497286 10.0836 10.083601v91.832799c0 5.58631-4.49729 10.0836-10.0836 10.0836h-91.832799c-5.586315 0-10.083601-4.49729-10.083601-10.0836v-91.832799c0-5.586315 4.497286-10.083601 10.083601-10.083601z" fill="url(#linearGradient2518)"/>
    <path d="m18.083601 8h91.832799c5.58631 0 10.0836 4.497286 10.0836 10.083601v91.832799c0 5.58631-4.49729 10.0836-10.0836 10.0836h-91.832799c-5.586315 0-10.083601-4.49729-10.083601-10.0836v-91.832799c0-5.586315 4.497286-10.083601 10.083601-10.083601z" fill="url(#linearGradient2520)" opacity=".082902"/>
    <path d="m-109.38386 12.614708h89.767721c3.878793 0 7.001431 3.122638 7.001431 7.001431v88.767721c0 3.87879-3.122638 7.00143-7.001431 7.00143h-89.767721c-3.87879 0-7.00143-3.12264-7.00143-7.00143v-88.767721c0-3.878793 3.12264-7.001431 7.00143-7.001431z" fill="url(#radialGradient2522)" transform="scale(-1 1)"/>
    <path d="m17.906944 8.299378c-4.690175 0-9.397509 3.568001-9.397509 9.39874l4.267305-.05891c.452373-2.129835 2.851964-4.270962 4.526605-4.603385z" fill="url(#linearGradient2524)" filter="url(#filter6458-2-9)" opacity=".887641"/>
    <path d="m25.397509 16.46919c-4.690175 0-8.967908 3.654709-8.967908 9.485448l4.347139-.315433c.452373-2.129835 2.851964-4.270962 4.526605-4.603385z" fill="url(#linearGradient2526)" filter="url(#filter6458-2-9)" opacity=".868914" transform="matrix(-1 0 0 1 135.86741 -8)"/>
    <path d="m8 105.875v4.03125c0 5.58631 4.507435 10.09375 10.09375 10.09375h91.8125c5.58631 0 10.09375-4.50743 10.09375-10.09375v-4.03125c0 5.58631-4.50744 10.09375-10.09375 10.09375h-91.8125c-5.586315 0-10.09375-4.50744-10.09375-10.09375z" fill="url(#linearGradient2528)" opacity=".082902"/>
    <path d="m26.246568 16.978625c-4.690175 0-9.477343 3.654709-9.477343 9.485448l4.007515-.824868c.452373-2.129835 2.851964-4.270962 4.526605-4.603385z" fill="url(#linearGradient2530)" filter="url(#filter6458-2-9)" opacity=".326425" transform="matrix(1 0 0 -1 -8 136.08786)"/>
    <path d="m26.246568 16.978625c-4.690175 0-9.477343 3.654709-9.477343 9.485448l4.007515-.824868c.452373-2.129835 2.851964-4.270962 4.526605-4.603385z" fill="url(#linearGradient2530)" filter="url(#filter6458-2-9)" opacity=".176166" transform="matrix(-1 0 -0 -1 135.86741 136.08786)"/>
    <path d="m8 22.03871v-4.03125c0-5.58631 4.507435-10.09375 10.09375-10.09375h91.8125c5.58631 0 10.09375 4.50743 10.09375 10.09375v4.03125c0-5.58631-4.50744-10.09375-10.09375-10.09375h-91.8125c-5.586315 0-10.09375 4.50744-10.09375 10.09375z" fill="url(#linearGradient2534)" opacity=".388601"/>
    <path d="m19.441303 12.28125c-3.990225 0-7.1875 3.197275-7.1875 7.1875v1c0-3.990225 3.197275-7.1875 7.1875-7.1875h89.624997c3.99023 0 7.1875 3.197275 7.1875 7.1875v-1c0-3.990225-3.19727-7.1875-7.1875-7.1875z" fill="url(#linearGradient2536)"/>
    <path d="m112.21077 13.946344c1.59536 1.314795 2.625 3.286748 2.625 5.53125v34.5c-.19337.328038-.43674.667319-.71875 1-27.247777 10.486527-73.312207 13.488327-101.874997 6.625v.5625c28.98107 7.306633 75.58549 4.377686 103.281247-6.28125.28202-.332683.52538-.671962.71875-1v-34.5c0-2.853011-1.64104-5.274084-4.03125-6.4375z" fill="url(#linearGradient2538)"/>
    <path d="m-109.38386 13.614708h89.767721c3.878793 0 7.001431 3.122638 7.001431 7.001431v87.767721c0 3.87879-3.122638 7.00143-7.001431 7.00143h-89.767721c-3.87879 0-7.00143-3.12264-7.00143-7.00143v-87.767721c0-3.878793 3.12264-7.001431 7.00143-7.001431z" fill="none" filter="url(#filter3281-7-9)" stroke="url(#linearGradient2540)" stroke-linecap="round" stroke-linejoin="round" transform="scale(-1 1)"/>
    <path d="m19.1875 12.28125c-3.990225 0-7.1875 3.197275-7.1875 7.1875v41.78125c28.981077 7.306633 75.585499 4.377686 103.28125-6.28125.28202-.332683.52538-.671962.71875-1v-34.5c0-3.990225-3.19727-7.1875-7.1875-7.1875z" fill="url(#linearGradient2542)" opacity="1"/>
  </g>
  <use id="use2126" transform="translate(-0 -85.953468)" xlink:href="#g2514"/>
  <use transform="translate(-0 171.90694)" xlink:href="#use2126"/>
</svg>
