<svg height="256" width="256" xmlns="http://www.w3.org/2000/svg" xmlns:xlink="http://www.w3.org/1999/xlink">
  <defs>
    <linearGradient id="linearGradient6446">
      <stop offset="0" stop-color="#fff"/>
      <stop offset="1" stop-color="#fff" stop-opacity="0"/>
    </linearGradient>
    <linearGradient id="linearGradient5803">
      <stop offset="0" stop-color="#d3d3d3"/>
      <stop offset="1" stop-color="#5b5b5b"/>
    </linearGradient>
    <linearGradient id="linearGradient5652">
      <stop offset="0" stop-color="#fff"/>
      <stop offset="1" stop-color="#c5c5c5"/>
    </linearGradient>
    <radialGradient id="radialGradient1595" cx="28.467358" cy="17.961319" gradientTransform="matrix(1.9584771 .03057981 -.03170036 2.0302419 -37.223575 -20.780725)" gradientUnits="userSpaceOnUse" r="5.786662" xlink:href="#linearGradient5803"/>
    <linearGradient id="linearGradient1861" gradientUnits="userSpaceOnUse" spreadMethod="pad" x1="19.153015" x2="18.952278" xlink:href="#linearGradient6446" y1="26.156735" y2="16.890619"/>
    <radialGradient id="radialGradient1874" cx="27.209053" cy="26.297878" gradientTransform="matrix(1.7901845 -.00929975 .00960982 1.8498679 -31.518252 -14.059701)" gradientUnits="userSpaceOnUse" r="5.786662" spreadMethod="reflect" xlink:href="#linearGradient5652"/>
    <linearGradient id="linearGradient2986" gradientUnits="userSpaceOnUse" spreadMethod="pad" x1="19.732151" x2="19.996166" xlink:href="#linearGradient6446" y1="64.548992" y2="55.786724"/>
    <radialGradient id="radialGradient2993" cx="29.694408" cy="35.788319" gradientTransform="matrix(1.9584771 .03057981 -.03170036 2.0302419 -37.223575 -20.780725)" gradientUnits="userSpaceOnUse" r="5.786662" xlink:href="#linearGradient5803"/>
    <radialGradient id="radialGradient2995" cx="27.109364" cy="47.656044" gradientTransform="matrix(2.3739788 .0118593 -.01146057 2.2941731 -46.340411 -35.807137)" gradientUnits="userSpaceOnUse" r="5.786662" spreadMethod="reflect" xlink:href="#linearGradient5652"/>
    <radialGradient id="radialGradient3259" cx="29.444786" cy="56.858788" gradientTransform="matrix(1.9584771 .03057981 -.03170036 2.0302419 -37.223575 -20.780725)" gradientUnits="userSpaceOnUse" r="5.786662" xlink:href="#linearGradient5803"/>
    <radialGradient id="radialGradient3310" cx="27.536089" cy="64.482239" gradientTransform="matrix(2.3739788 .0118593 -.01146057 2.2941731 -46.340411 -35.807137)" gradientUnits="userSpaceOnUse" r="5.786662" spreadMethod="reflect" xlink:href="#linearGradient5652"/>
    <linearGradient id="linearGradient3536" gradientUnits="userSpaceOnUse" spreadMethod="pad" x1="19.632251" x2="19.175968" xlink:href="#linearGradient6446" y1="103.239506" y2="91.022701"/>
    <filter id="filter1096" color-interpolation-filters="sRGB" height="1.147912" width="1.318921" x="-.159461" y="-.073956">
      <feGaussianBlur stdDeviation=".85595929"/>
    </filter>
    <filter id="filter1151" color-interpolation-filters="sRGB" height="1.192216" width="1.278067" x="-.139033" y="-.096108">
      <feGaussianBlur stdDeviation=".94898436"/>
    </filter>
    <filter id="filter1207" color-interpolation-filters="sRGB" height="1.157177" width="1.233951" x="-.116975" y="-.078589">
      <feGaussianBlur stdDeviation=".96860768"/>
    </filter>
    <filter id="filter5929" color-interpolation-filters="sRGB" height="2.042" width="1.125053" x="-.062526" y="-.521">
      <feGaussianBlur stdDeviation="3.96"/>
    </filter>
  </defs>
  <g id="g3088" transform="matrix(2 0 0 2 -22.899714 -1.365843)">
    <path d="m168.37695 218.34766h35.62305m-49.62305 0h10.79102m-35.16797 0h21.16797m-38.6582 0h14.39257m-40.126949 0h22.527339m-32.792964 0h7.058593m-15.058593 0h4.792968m-21.302734 0h13.302734m5.865235-12h-19.167969m28.902344 0h-6.525391m23.994141 0h-14.261719m26.792965 0h-9.32421m23.32421 0h-10.79101m23.58984 0h-9.58984m31.58984 0h-18.79297m36.79297 0h-14.79297m22.25977 0h-4.25977m23.0918 0h-15.62305m-27.07031-12h18.69336m-37.22461 0h15.32422m-30.39453 0h11.86328m-32.12891 0h17.0586m-49.982425 0h29.716795m-52.23242 0h19.308594" fill="#8bff75" filter="url(#filter5929)" stroke="#8bff75" stroke-width="6" transform="matrix(.5 0 0 .5 27.18365 -78.140361)"/>
    <path d="m111.37212 29.833469v3h17.81153v-3zm-7 0v3h5.39552v-3zm-12.18847 0v3h10.58399v-3zm-8.745115 0v3h7.196285v-3zm-12.867189 0v3h11.263669v-3zm-5.132813 0v3h3.529296v-3zm-4 0v3h2.396484v-3zm-8.254883 0v3h6.651367v-3zm0-6v3h9.583984v-3zm11.188477 0v3h3.262695v-3zm4.86621 0v3h7.13086v-3zm8.734378 0v3h4.662105v-3zm6.2666 0v3h5.395505v-3zm7 0v3h4.79492v-3zm6.398435 0v3h9.39649v-3zm11 0v3h7.39649v-3zm9 0v3h2.12989v-3zm3.73438 0v3h7.81152v-3zm-13.53516-6v3h9.34668v-3zm-9.265625 0v3h7.662115v-3zm-7.535155 0v3h5.93164v-3zm-10.132815 0v3h8.5293v-3zm-16.461913 0v3h14.858398v-3zm-11.257812 0v3h9.654297v-3z" fill="#126d00" fill-opacity=".972549" opacity=".7" stroke="#baffa0" stroke-width=".6"/>
  </g>
  <g transform="matrix(2 0 0 2 3.983978 -1.172753)">
    <path d="m17.726562 11.048828a.65455819.65455819 0 0 0 -.632812.488281c-.37264 1.422809-1.134007 2.434168-2.349609 3.146485s-2.918651 1.105469-5.119141 1.105468a.65455819.65455819 0 0 0 -.6542969.654297v3.472657a.65455819.65455819 0 0 0 .6542969.654296h5.693359v17.601563a.65455819.65455819 0 0 0 .654297.654297h5.226563a.65455819.65455819 0 0 0 .654297-.654297v-26.46875a.65455819.65455819 0 0 0 -.654297-.654297z" filter="url(#filter1096)" stroke-width="2.25"/>
    <path d="m15.972119 19.915593v18.255985h5.226663v-26.469311h-3.471998c-.821332 3.135997-3.546663 4.741329-8.101326 4.741329v3.471997z" fill="none" stroke="url(#radialGradient1595)" stroke-width="2.25"/>
    <path d="m15.972119 19.915593v18.255985h5.226663v-26.469311h-3.471998c-.821332 3.135997-3.546663 4.741329-8.101326 4.741329v3.471997z" fill="url(#radialGradient1874)" stroke="#fff" stroke-opacity=".347072"/>
    <path d="m17.726562 11.703125c-.821331 3.135994-3.546904 4.740234-8.101562 4.740234v3.472656h6.347656v7.003906a23.325834 19.82835 0 0 0 5.226563-.802734v-14.414062z" fill="url(#linearGradient1861)"/>
  </g>
  <g transform="matrix(2 0 0 2 -.016022 -1.172753)">
    <path d="m18.269531 49.583984c-2.928578 0-5.383464.885963-7.074219 2.603516-1.6907537 1.717553-2.5605464 4.202891-2.5605464 7.181641v.93164a.93525141.93525141 0 0 0 .9355469.935547h5.0410155a.93525141.93525141 0 0 0 .935547-.935547v-.857422c0-1.328791.314558-2.274732.78125-2.853515s1.082286-.878907 2.052734-.878906c.940897 0 1.572815.292518 2.033203.816406.460389.523887.765626 1.347484.765626 2.505859 0 1.379941-.133147 2.036605-.970704 3.048828-.837557 1.012224-2.493178 2.318814-5.429687 4.400391l.01367-.0078c-2.293616 1.567305-3.882602 3.000258-4.9160159 4.746094-1.0334138 1.745837-1.4605122 3.740644-1.5761719 6.285156a.93525141.93525141 0 0 0 .9335938.978516h17.996094a.93525141.93525141 0 0 0 .935547-.935547v-4.666016a.93525141.93525141 0 0 0 -.935547-.935546h-9.363281c.116713-.122017.12607-.220992.277343-.361328.717966-.666056 1.875419-1.55315 3.808594-2.947266a.93525141.93525141 0 0 0 .0059-.0039c2.331557-1.706017 3.901853-3.094845 4.916016-4.619141s1.402344-3.169386 1.402344-5.095703c0-2.773505-.986619-5.159033-2.763672-6.804688s-4.296106-2.53125-7.244141-2.53125z" filter="url(#filter1151)" stroke="#fff" stroke-opacity=".347072"/>
    <path d="m27.22975 72.882923h-11.237333c.709333-1.418667 1.530666-2.202667 5.413333-5.002667 4.592-3.36 5.936-5.338666 5.936-8.96 0-5.114666-3.546667-8.399999-9.072-8.399999-5.488 0-8.698666 3.248-8.698666 8.847999v.933334h5.039999v-.858667c0-2.949333 1.381334-4.666666 3.770667-4.666666 2.314666 0 3.733333 1.605333 3.733333 4.255999 0 2.949334-.896 4.032-6.794666 8.213333-4.48 3.061334-5.861333 5.376-6.085333 10.304h17.994666z" fill="none" stroke="url(#radialGradient2993)" stroke-width="2.25"/>
    <path d="m27.22975 72.882923h-11.237333c.709333-1.418667 1.530666-2.202667 5.413333-5.002667 4.592-3.36 5.936-5.338666 5.936-8.96 0-5.114666-3.546667-8.399999-9.072-8.399999-5.488 0-8.698666 3.248-8.698666 8.847999v.933334h5.039999v-.858667c0-2.949333 1.381334-4.666666 3.770667-4.666666 2.314666 0 3.733333 1.605333 3.733333 4.255999 0 2.949334-.896 4.032-6.794666 8.213333-4.48 3.061334-5.861333 5.376-6.085333 10.304h17.994666z" fill="url(#radialGradient2995)" stroke="#fff" stroke-opacity=".347072"/>
    <path d="m18.269531 50.519531c-5.487994 0-8.6992185 3.249616-8.6992185 8.84961v.93164h5.0410155v-.857422c0-2.94933 1.380201-4.667968 3.769531-4.667968 2.314664 0 3.734375 1.607149 3.734375 4.257812 0 2.558661-.678913 3.714194-4.708984 6.705078a23.325834 19.82835 0 0 0 8.119141-1.486328c1.337326-1.619979 1.816406-3.18803 1.816406-5.332031 0-5.114661-3.546938-8.400391-9.072266-8.400391z" fill="url(#linearGradient2986)"/>
  </g>
  <g transform="matrix(2 0 0 2 -.016022 -1.172753)">
    <path d="m18.121094 88.273438c-4.091848 0-7.437501 1.853011-8.7382815 5.083984a.84643835.84643835 0 0 0 -.00586.01367c-.5100778 1.334052-.6894525 2.39187-.6894525 4.632814a.84643835.84643835 0 0 0 .8457031.845703h4.8535159a.84643835.84643835 0 0 0 .845703-.824218c.03613-1.373202.136379-1.940766.351562-2.498047.343399-.809919 1.158838-1.34375 2.423828-1.34375.873959 0 1.430679.244314 1.810547.646484.379869.40217.628907 1.032126.628907 1.980469 0 1.183394-.303098 1.884574-.859375 2.363281-.556278.478708-1.493413.785156-2.923829.785156h-.447265a.84643835.84643835 0 0 0 -.845703.845706v3.50976a.84643835.84643835 0 0 0 .845703.84571c2.016436 0 1.91635-.0279 2.832031.22851a.84643835.84643835 0 0 0 .002.002c1.402731.388 2.25586 1.52687 2.25586 3.14258 0 1.95795-1.203745 3.14844-3.074219 3.14844-1.069508 0-1.751873-.28262-2.234375-.78906-.482503-.50644-.809435-1.32443-.876953-2.55664a.84643835.84643835 0 0 0 -.845703-.79883h-5.0781724a.84643835.84643835 0 0 0 -.8457031.85156c.019945 2.83225.9657701 5.23598 2.6894535 6.90235 1.723683 1.66636 4.182716 2.5625 7.080078 2.5625 2.984945 0 5.523453-.88669 7.314453-2.52735 1.791-1.64065 2.789062-4.01871 2.789062-6.79297 0-2.90563-1.304879-5.08827-3.710937-6.63672 1.859341-1.49364 2.851562-3.303179 2.851562-5.572261 0-2.41296-.929969-4.486651-2.576172-5.896485-1.646202-1.409833-3.956205-2.154296-6.667968-2.154296z" filter="url(#filter1207)" stroke-width="2.25"/>
    <path d="m16.216417 104.31374c2.016 0 2.128 0 3.061333.26133 1.754666.48534 2.874666 2.016 2.874666 3.95733 0 2.352-1.642666 3.99467-3.919999 3.99467-2.464 0-3.808-1.41867-3.957334-4.144h-5.0773328c.037333 5.30133 3.4719998 8.624 8.9226668 8.624 5.637333 0 9.258666-3.32267 9.258666-8.47467 0-3.09866-1.344-5.11466-4.330667-6.57066 2.426667-1.53067 3.472-3.210668 3.472-5.637335 0-4.405333-3.285333-7.205333-8.399999-7.205333-3.845334 0-6.794667 1.68-7.952 4.554667-.4853335 1.269333-.6346668 2.128-.6346668 4.330666h4.8533328c.03733-1.418666.149334-2.128.410667-2.8.485333-1.157333 1.68-1.866666 3.210667-1.866666 2.090666 0 3.285333 1.269333 3.285333 3.472 0 2.688-1.530667 3.994671-4.629333 3.994671h-.448z" fill="none" stroke="url(#radialGradient3259)" stroke-width="2.25"/>
    <path d="m16.216417 104.31374c2.016 0 2.128 0 3.061333.26133 1.754666.48534 2.874666 2.016 2.874666 3.95733 0 2.352-1.642666 3.99467-3.919999 3.99467-2.464 0-3.808-1.41867-3.957334-4.144h-5.0773328c.037333 5.30133 3.4719998 8.624 8.9226668 8.624 5.637333 0 9.258666-3.32267 9.258666-8.47467 0-3.09866-1.344-5.11466-4.330667-6.57066 2.426667-1.53067 3.472-3.210668 3.472-5.637335 0-4.405333-3.285333-7.205333-8.399999-7.205333-3.845334 0-6.794667 1.68-7.952 4.554667-.4853335 1.269333-.6346668 2.128-.6346668 4.330666h4.8533328c.03733-1.418666.149334-2.128.410667-2.8.485333-1.157333 1.68-1.866666 3.210667-1.866666 2.090666 0 3.285333 1.269333 3.285333 3.472 0 2.688-1.530667 3.994671-4.629333 3.994671h-.448z" fill="url(#radialGradient3310)" stroke="#fff" stroke-opacity=".347072"/>
    <path d="m18.121094 89.119141c-3.84533 0-6.795793 1.680023-7.953125 4.554687-.485333 1.269332-.634766 2.127414-.634766 4.330078h4.853516c.03733-1.418664.148823-2.126829.410156-2.798828.485333-1.157332 1.680272-1.867187 3.210937-1.867187 2.090664 0 3.285157 1.269991 3.285157 3.472656 0 2.687997-1.530244 3.994143-4.628907 3.994143h-.447265v3.50976c2.015998 0 2.127215-.002 3.060547.25977.493767.13657.935922.3585 1.318359.64648a23.325834 19.82835 0 0 0 5.232422-1.24218c-.685088-.77987-1.602127-1.44371-2.779297-2.01758 2.426665-1.53067 3.470703-3.210057 3.470703-5.636721 0-4.405329-3.283776-7.205078-8.398437-7.205078z" fill="url(#linearGradient3536)"/>
  </g>
  <use id="use1609" transform="translate(0 156.25231)" xlink:href="#g3088"/>
  <use transform="translate(0 -78.056304)" xlink:href="#use1609"/>
</svg>
