<svg height="256" width="256" xmlns="http://www.w3.org/2000/svg" xmlns:xlink="http://www.w3.org/1999/xlink">
  <defs>
    <linearGradient id="lg1">
      <stop offset="0" stop-color="#fff"/>
      <stop offset="1" stop-color="#fff" stop-opacity="0"/>
    </linearGradient>
    <linearGradient id="linearGradient6391" gradientUnits="userSpaceOnUse" x1="223.979051" x2="223.979051" xlink:href="#lg1" y1="7.422799" y2="-6.814803"/>
    <filter id="filter5876" height="1.035335" width="1.018171" x="-.009085" y="-.017668">
      <feGaussianBlur stdDeviation=".11909804"/>
    </filter>
    <filter id="filter5718" height="1.144494" width="1.074305" x="-.037152" y="-.072247">
      <feGaussianBlur stdDeviation=".48701799"/>
    </filter>
    <filter id="filter5836" height="1.035335" width="1.018171" x="-.009085" y="-.017668">
      <feGaussianBlur stdDeviation=".12356379"/>
    </filter>
    <radialGradient id="radialGradient6361" cx="64.101105" cy="61.470516" fx="63.292271" fy="74.81649" gradientTransform="matrix(1.1118445 .00000019 -.00000018 1.0614159 152.69879 -70.882696)" gradientUnits="userSpaceOnUse" r="22.686441" xlink:href="#linearGradient6666"/>
    <linearGradient id="linearGradient6666">
      <stop offset="0" stop-color="#9fc1f2"/>
      <stop offset=".5" stop-color="#587eb5"/>
      <stop offset="1" stop-color="#0c2a58"/>
    </linearGradient>
    <radialGradient id="radialGradient6363" cx="64.101105" cy="61.470516" fx="76.59713" fy="74.429352" gradientTransform="matrix(1.2934799 0 0 1.234813 141.05575 -81.541495)" gradientUnits="userSpaceOnUse" r="22.686441" xlink:href="#linearGradient6666"/>
    <linearGradient id="linearGradient6365" gradientUnits="userSpaceOnUse" x1="71.964134" x2="79.398361" xlink:href="#lg1" y1="26.784721" y2="63.955555"/>
    <clipPath id="clipPath5947">
      <ellipse cx="59.380135" cy="39.357106" rx="40.03013" ry="20.015065"/>
    </clipPath>
    <filter id="filter6019" height="1.127927" width="1.127927" x="-.063964" y="-.063964">
      <feGaussianBlur stdDeviation="1.196414"/>
    </filter>
    <radialGradient id="radialGradient6367" cx="267.42477" cy="81.257088" gradientTransform="matrix(.9679843 -.1075536 .2763828 2.487449 -15.584867 -92.434168)" gradientUnits="userSpaceOnUse" r="23.279442">
      <stop offset="0" stop-color="#d7d7d7"/>
      <stop offset="1" stop-color="#fff"/>
    </radialGradient>
    <clipPath id="clipPath6103">
      <path d="m200.1619 45.294924c-5.42224.212474-9.70739 4.671813-9.70376 10.098216v25.245539c.0171 3.487235 1.83207 6.718917 4.80092 8.54838 2.96888 1.829463 6.67151 1.997824 9.79416.445344l25.24554-12.62277c3.37866-1.725896 5.50499-5.199776 5.50499-8.993723 0-3.793948-2.12633-7.267827-5.50499-8.993724l-25.24554-12.62277c-1.51165-.77352-3.19397-1.153395-4.89132-1.104492z"/>
    </clipPath>
    <filter id="filter6085" height="1.051695" width="1.027616" x="-.013808" y="-.025847">
      <feGaussianBlur stdDeviation=".26087548"/>
    </filter>
    <clipPath id="clipPath6097">
      <path d="m151.42888 45.294924c-5.42224.212474-9.70739 4.671813-9.70376 10.098216v25.245539c.0171 3.487235 1.83207 6.718917 4.80092 8.54838 2.96888 1.829463 6.67151 1.997824 9.79416.445344l25.24554-12.62277c3.37866-1.725896 5.50499-5.199776 5.50499-8.993723 0-3.793948-2.12633-7.267827-5.50499-8.993724l-25.24554-12.62277c-1.51165-.77352-3.19397-1.153395-4.89132-1.104492z"/>
    </clipPath>
    <filter id="filter6093" height="1.034499" width="1.0184" x="-.0092" y="-.01725">
      <feGaussianBlur stdDeviation=".17382035"/>
    </filter>
    <linearGradient id="linearGradient6372" gradientUnits="userSpaceOnUse" x1="223.542776" x2="222.220163" xlink:href="#lg1" y1="-5.750556" y2="-21.586177"/>
    <filter id="filter2826" height="1.096" width="1.096" x="-.048" y="-.048">
      <feGaussianBlur stdDeviation="2.40001"/>
    </filter>
    <radialGradient id="radialGradient2894" cx="205.22449" cy="-114.21429" gradientUnits="userSpaceOnUse" r="125.1714">
      <stop offset=".1775" stop-color="#f0f0f0"/>
      <stop offset=".5325" stop-color="#a5a5bb"/>
    </radialGradient>
    <linearGradient id="linearGradient2896" gradientUnits="userSpaceOnUse" x1="205.71429" x2="205.71429" xlink:href="#lg1" y1="-225.36909" y2="-118.00019"/>
    <linearGradient id="linearGradient2898" gradientUnits="userSpaceOnUse" x1="205.715289" x2="205.715289" y1="-144.21429" y2="-212.21379">
      <stop offset=".2959" stop-color="#fff"/>
      <stop offset="1" stop-color="#4a4a55"/>
    </linearGradient>
    <linearGradient id="linearGradient2900" gradientUnits="userSpaceOnUse" x1="205.715289" x2="205.715289" y1="-146.21429" y2="-210.21379">
      <stop offset=".1953" stop-color="#e9e9f0"/>
      <stop offset=".2597" stop-color="#dadae2"/>
      <stop offset=".461" stop-color="#b1b1bb"/>
      <stop offset=".6437" stop-color="#93939f"/>
      <stop offset=".7999" stop-color="#81818e"/>
      <stop offset=".9112" stop-color="#7a7a88"/>
      <stop offset="1" stop-color="#696975"/>
    </linearGradient>
    <linearGradient id="linearGradient2902-2" gradientUnits="userSpaceOnUse" x1="205.715289" x2="205.715289" y1="-152.21429" y2="-204.21379">
      <stop offset="0" stop-color="#bbb"/>
      <stop offset="1" stop-color="#555"/>
    </linearGradient>
    <linearGradient id="linearGradient3261" gradientUnits="userSpaceOnUse" x1="140.74953" x2="140.74953" y1="173.26631" y2="92.802666">
      <stop offset="0" stop-color="#0b0b0c"/>
      <stop offset="1" stop-color="#1b1a1f"/>
    </linearGradient>
    <pattern id="pattern3258" patternTransform="matrix(.22136062 0 0 .22136062 -95.733558 -192.09502)"/>
    <clipPath id="clipPath106">
      <path d="m-129.0625 87.776322c-6.39198 2.70134-13.59757 4.967432-18.34375 7.098678-2.89584 1.300355-3.06287 2.739506-3.90625 5.031252-2.57225 6.989448-1.90625 16.926968-1.90625 16.926968l1.5 1.75002c8.87549 5.05266 19.50434 7.09734 29.5 7.93749-3.97357-8.51995-5.97787-17.16755-9.0625-26.33323l3.375-4.874999-5.6875-1.468748c2.05169-2.782604 3.45493-4.382729 4.53125-6.067431zm6.84375 38.744408c1.81382.15246 3.5851.26084 5.34375.34375-1.75385-.0861-3.53236-.1915-5.34375-.34375zm5.34375.34375c1.75392.0827 3.48529.1529 5.15625.18751-1.67321-.0347-3.4024-.10142-5.15625-.18751zm44.843748-38.994408c1.062292 1.665609 2.458709 3.247568 4.468752 5.973681l-5.687499 1.468748 3.375 4.874999c-3.084631 9.16568-5.088929 17.81328-9.062503 26.33323 9.955865-.85459 20.505112-2.90581 29.343753-7.93749l1.499998-1.75002s.666001-9.93752-1.906248-16.926968c-.843383-2.291746-1.01041-3.730897-3.906251-5.031252-4.691991-2.106912-11.787232-4.334016-18.125002-7.004928zm-6.90625 38.650658c-.713445.0612-1.417827.10547-2.124998.15624.70761-.0494 1.410278-.0949 2.124998-.15624z"/>
    </clipPath>
    <filter id="filter4766-1" color-interpolation-filters="sRGB" height="1.040104" width="1.048613" x="-.024307" y="-.020052">
      <feGaussianBlur stdDeviation=".31803701"/>
    </filter>
    <radialGradient id="radialGradient3324-9" cx="-146.25349" cy="108.85666" gradientTransform="matrix(3.1926015 -.00000015 .00000026 5.2645424 485.37663 -468.01882)" gradientUnits="userSpaceOnUse" r="2.68274">
      <stop offset="0" stop-color="#f5f5f5"/>
      <stop offset="1" stop-color="#f5f5f5" stop-opacity="0"/>
    </radialGradient>
    <filter id="filter4824-7" color-interpolation-filters="sRGB" height="1.050011" width="1.220838" x="-.110419" y="-.025005">
      <feGaussianBlur stdDeviation=".24685475"/>
    </filter>
    <radialGradient id="radialGradient3326-6" cx="-146.25349" cy="108.85666" gradientTransform="matrix(3.1926015 -.00000015 .00000026 5.2645424 320.6756 -464.22387)" gradientUnits="userSpaceOnUse" r="2.68274">
      <stop offset="0" stop-color="#252525"/>
      <stop offset=".29354507" stop-color="#252525"/>
      <stop offset=".45366704" stop-color="#252525"/>
      <stop offset="1"/>
    </radialGradient>
    <linearGradient id="linearGradient3328-8" gradientUnits="userSpaceOnUse" x1="76.53524" x2="76.53524" y1="34.147495" y2="-71.927269">
      <stop offset="0" stop-color="#fff"/>
      <stop offset="1" stop-color="#aeaeae"/>
    </linearGradient>
    <clipPath id="clipPath104">
      <path d="m78.35953-11.752731c-.511073 16.9732885-.02228 37.30968-2.766716 52.050823 13.394501-.265954 29.766406-1.67761 42.674636-9.026052l1.59283-1.858297s.70722-11.610715-2.02422-19.032737c-.89558-2.4335732-1.07294-3.9618015-4.148-5.3426222-8.9149-4.0031862-28.004732-9.973406-33.835253-14.3023113zm-28.795421.298656-1.32736 2.1901475c-5.830509 4.3289053-24.920352 10.2991251-33.835244 14.3023113-3.075058 1.3808207-3.252426 2.909049-4.148001 5.3426222-2.7314422 7.422022-2.0242245 19.032737-2.0242245 19.032737l1.5928325 1.858297c12.84064 7.309957 29.117401 8.716147 42.475534 8.992868-2.724288-14.645215-2.215591-34.8685099-2.733537-51.718983zm2.733537 51.718983c3.420989.07088 6.700808.102853 9.623359.09955-2.922551.0037-6.20237-.02862-9.623359-.09955z"/>
    </clipPath>
    <filter id="filter4993-9" color-interpolation-filters="sRGB" height="1.10718" width="1.049901" x="-.02495" y="-.05359">
      <feGaussianBlur stdDeviation="1.1621363"/>
    </filter>
    <linearGradient id="linearGradient3336-8" gradientUnits="userSpaceOnUse" x1="-67.473473" x2="-67.473473" y1="110.179" y2="121.49758">
      <stop offset="0" stop-color="#54555f" stop-opacity=".960784"/>
      <stop offset="1" stop-color="#3b3944"/>
    </linearGradient>
    <clipPath id="clipPath105">
      <path d="m-129.0625 87.467112c-6.39198 2.70134-13.59757 5.276639-18.34375 7.407885-2.89584 1.300355-3.06287 2.739511-3.90625 5.031257-2.57225 6.989446-1.90625 16.926976-1.90625 16.926976l1.5 1.75c8.87549 5.05267 19.50434 7.09735 29.5 7.9375-3.97357-8.51996-5.97787-17.16755-9.0625-26.33323l3.375-4.875002-5.6875-1.468748c2.05169-2.782604 3.45493-4.691941 4.53125-6.376638zm6.84375 39.053618c1.81382.15246 3.5851.26084 5.34375.34375-1.75385-.0861-3.53236-.1915-5.34375-.34375zm5.34375.34375c1.75392.0827 3.48529.15289 5.15625.1875-1.67321-.0347-3.4024-.10142-5.15625-.1875zm44.843748-39.303623c1.062292 1.665614 2.458709 3.55678 4.468752 6.282893l-5.687499 1.468748 3.375 4.875002c-3.084631 9.16568-5.088929 17.81327-9.062503 26.33323 9.955865-.85459 20.505112-2.90581 29.343753-7.9375l1.499998-1.75s.666001-9.93753-1.906248-16.926976c-.843383-2.291746-1.01041-3.730902-3.906251-5.031257-4.691991-2.106907-11.787232-4.643223-18.125002-7.31414zm-6.90625 38.959873c-.713445.0612-1.417827.10546-2.124998.15625.70761-.0494 1.410273-.0949 2.124998-.15625z"/>
    </clipPath>
    <linearGradient id="linearGradient3588" gradientUnits="userSpaceOnUse" x1="-58.751709" x2="-66.822746" y1="119.95746" y2="138.63513">
      <stop offset="0" stop-color="#c8cddc"/>
      <stop offset="1" stop-color="#c8cddc" stop-opacity="0"/>
    </linearGradient>
    <linearGradient id="linearGradient3590" gradientUnits="userSpaceOnUse" x1="-58.751709" x2="-66.822746" y1="119.95746" y2="138.63513">
      <stop offset="0"/>
      <stop offset="1" stop-opacity="0"/>
    </linearGradient>
    <filter id="filter3574" height="1.162519" width="1.42919" x="-.214595" y="-.081259">
      <feGaussianBlur stdDeviation=".57604943"/>
    </filter>
    <linearGradient id="linearGradient3585" gradientUnits="userSpaceOnUse" x1="270.50647" x2="299.28384" y1="482.53894" y2="441.53894">
      <stop offset="0" stop-color="#a5b2f2"/>
      <stop offset="1" stop-color="#dadcf2" stop-opacity="0"/>
    </linearGradient>
    <filter id="filter3493" height="1.136466" width="1.128576" x="-.064288" y="-.068233">
      <feGaussianBlur stdDeviation="1.105682"/>
    </filter>
    <linearGradient id="linearGradient3582" gradientUnits="userSpaceOnUse" x1="374.22318" x2="349.12091" y1="479.5892" y2="460.85086">
      <stop offset="0" stop-color="#6f93ff"/>
      <stop offset="1" stop-color="#bbc1d4" stop-opacity="0"/>
    </linearGradient>
    <filter id="filter3339" height="2.137828" width="1.139326" x="-.069663" y="-.568914">
      <feGaussianBlur stdDeviation=".50285367"/>
    </filter>
    <linearGradient id="linearGradient3579" gradientUnits="userSpaceOnUse" x1="-56.776821" x2="-81.879089" y1="128.5892" y2="109.85086">
      <stop offset="0" stop-color="#6f92eb"/>
      <stop offset="1" stop-color="#91aaee" stop-opacity="0"/>
    </linearGradient>
    <clipPath id="clipPath3289">
      <path d="m463.75 435.375c-1.27779.21006-2.03383 1.22613-2 2-.0793.0317-.87749 1.12269-.95711 1.15441 1.25202 4.0018 5.15727 8.27208 16.75 7.96875 11.50018-.3009 15.9101-5.26943 17.17586-8.93566-.15115-.06-.3189-.12753-.46875-.1875.0338-.77387-.72221-1.78994-2-2-2.41363 3.74264-4.00719 7.40137-14.25 7.6875-10.24281.28614-13.36749-3.94879-14.25-7.6875zm-4.625 3.03125c-5.44302 2.09883-11.45793 4.26384-17.21875 6.875 5.89563-2.22917 11.62166-3.16524 16.85447-5.12684-.0106-.22696.25035-1.50511.36428-1.74816zm38.34375.21875c.0532.16802.10109.31159.0937.46875 4.20807 1.57746 8.83741 3.15593 13.5625 4.875-4.63354-1.95913-9.30506-3.67529-13.65625-5.34375z" filter="url(#filter3283)"/>
    </clipPath>
    <filter id="filter3283" height="1.305135" width="1.061275" x="-.031253" y="-.152903">
      <feGaussianBlur stdDeviation=".60896269"/>
    </filter>
    <linearGradient id="linearGradient3576" gradientUnits="userSpaceOnUse" x1="-46.5" x2="-61.968048" y1="151.90894" y2="105.23987">
      <stop offset="0" stop-color="#0030a5" stop-opacity=".486901"/>
      <stop offset="1" stop-color="#0b216a" stop-opacity="0"/>
    </linearGradient>
    <filter id="filter3393" height="1.076301" width="1.023519" x="-.011759" y="-.03815">
      <feGaussianBlur stdDeviation=".49977699"/>
    </filter>
    <linearGradient id="linearGradient3574" gradientUnits="userSpaceOnUse" x1="414.41586" x2="461.90625" y1="458.62646" y2="458.62646">
      <stop offset="0" stop-color="#244cb5"/>
      <stop offset="1" stop-color="#5172d5" stop-opacity="0"/>
    </linearGradient>
    <clipPath id="clipPath4063">
      <path d="m410.16587 443.06739c-10.24281.28613-13.36749-3.95368-14.25-7.69239-1.27779.21006-2.03383 1.22613-2 2-7.08333 2.83488-15.64784 5.69235-23.25 9.5-2.82182 1.41335-6.03661 5.72037-6.875 8-2.55698 6.95256-5.375 16.75-5.375 16.75l1.5 1.75c15.64476 8.91215 36.87916 8.5 50.25 8.5s34.60524.41215 50.25-8.5l1.5-1.75s-2.81802-9.79744-5.375-16.75c-.83839-2.27963-4.05318-6.58665-6.875-8-7.60216-3.80765-16.16667-6.66512-23.25-9.5.0338-.77387-.72221-1.78994-2-2-2.41363 3.74264-4.00719 7.40626-14.25 7.69239z"/>
    </clipPath>
    <filter id="filter4059" height="1.159471" width="1.071651" x="-.035825" y="-.079736">
      <feGaussianBlur stdDeviation="1.5449742"/>
    </filter>
    <linearGradient id="linearGradient3572" gradientUnits="userSpaceOnUse" x1="-88.99353" x2="-59.71616" y1="138.53894" y2="118.53894">
      <stop offset="0" stop-color="#9db3f3"/>
      <stop offset="1" stop-color="#8aa4ef" stop-opacity="0"/>
    </linearGradient>
    <linearGradient id="linearGradient3570" gradientTransform="matrix(2.011929 0 0 2.010611 -488.9285 -968.60569)" gradientUnits="userSpaceOnUse" x1="325.29688" x2="325.29688" y1="481.87405" y2="426.80276">
      <stop offset="0" stop-color="#055cff"/>
      <stop offset="1" stop-color="#7c8ef6"/>
    </linearGradient>
    <linearGradient id="linearGradient3568" gradientTransform="matrix(.5366445 0 0 1.8634309 -372.5 -324.5)" gradientUnits="userSpaceOnUse" x1="563.64667" x2="568.98871" y1="214.96599" y2="214.96599">
      <stop offset="0" stop-color="#e2e2e2"/>
      <stop offset="1" stop-color="#fff"/>
    </linearGradient>
    <filter id="filter3775" height="1.127547" width="1.44289" x="-.221445" y="-.063773">
      <feGaussianBlur stdDeviation=".26451311"/>
    </filter>
    <linearGradient id="linearGradient3566" gradientUnits="userSpaceOnUse" x1="-19.05484" x2="-32.732151" y1="66.362183" y2="49.112179">
      <stop offset="0" stop-color="#dfcbba"/>
      <stop offset="1" stop-color="#dfcbba" stop-opacity="0"/>
    </linearGradient>
    <filter id="filter3569" height="1.208924" width="1.234645" x="-.117322" y="-.104462">
      <feGaussianBlur stdDeviation=".6238629"/>
    </filter>
    <linearGradient id="linearGradient3564" gradientUnits="userSpaceOnUse" x1="-42.406651" x2="-52.135769" xlink:href="#lg1" y1="82.890106" y2="42.891819"/>
    <filter id="filter3625" height="1.122954" width="1.064636" x="-.032318" y="-.061477">
      <feGaussianBlur stdDeviation=".34264273"/>
    </filter>
    <linearGradient id="linearGradient3562" gradientUnits="userSpaceOnUse" x1="304.88663" x2="345.62039" y1="385.86127" y2="384.62384">
      <stop offset="0" stop-color="#765c44"/>
      <stop offset="1" stop-color="#765c44" stop-opacity="0"/>
    </linearGradient>
    <filter id="filter3479" height="1.122034" width="1.056215" x="-.028108" y="-.061017">
      <feGaussianBlur stdDeviation=".4439284"/>
    </filter>
    <radialGradient id="radialGradient3560" cx="332.49338" cy="369.61789" gradientTransform="matrix(-1.4040866 -.2213556 .16771962 -1.0624742 584.88199 246.44471)" gradientUnits="userSpaceOnUse" r="22.779818">
      <stop offset="0" stop-color="#e5d3c3"/>
      <stop offset="1" stop-color="#e5d3c3" stop-opacity="0"/>
    </radialGradient>
    <linearGradient id="linearGradient3558" gradientUnits="userSpaceOnUse" x1="324.65039" x2="325.7691" xlink:href="#lg1" y1="398.85446" y2="370.57019"/>
    <clipPath id="clipPath3429">
      <path d="m303.70236 398.81874-.17678-13.25825 2.65166-7.24784 5.3033-1.76777 8.48528 2.65165 7.42462 1.41421 7.24784-3.71231h5.3033l3.71231 5.12653 1.94455 8.13172-.17678 5.3033.35355 1.94455-7.77817-15.02602-9.54594 3.71231-6.89429.17678-10.42983-4.94975z"/>
    </clipPath>
    <filter id="filter3420" height="1.15899" width="1.117046" x="-.058523" y="-.079495">
      <feGaussianBlur stdDeviation="1.110954"/>
    </filter>
    <radialGradient id="radialGradient3556" cx="303.71942" cy="397.17728" gradientTransform="matrix(1 0 0 2.5768702 -372.5 -950.79699)" gradientUnits="userSpaceOnUse" r=".796219" xlink:href="#linearGradient3837"/>
    <linearGradient id="linearGradient3837">
      <stop offset="0" stop-color="#f1e4d4"/>
      <stop offset="1" stop-color="#f1e4d4" stop-opacity="0"/>
    </linearGradient>
    <filter id="filter3833" height="1.123527" width="1.318313" x="-.159156" y="-.061763">
      <feGaussianBlur stdDeviation=".10560268"/>
    </filter>
    <radialGradient id="radialGradient3554" cx="303.71942" cy="397.17728" gradientTransform="matrix(1 0 0 2.5768702 43.133514 -626.29699)" gradientUnits="userSpaceOnUse" r=".796219" xlink:href="#linearGradient3837"/>
    <linearGradient id="linearGradient3552" gradientUnits="userSpaceOnUse" x1="-55.487492" x2="-41.07938" y1="106.6243" y2="94.158836">
      <stop offset="0" stop-color="#f9eee2"/>
      <stop offset="1" stop-color="#f9eee2" stop-opacity="0"/>
    </linearGradient>
    <filter id="filter3325" height="1.081823" width="1.03098" x="-.01549" y="-.040911">
      <feGaussianBlur stdDeviation=".16076312"/>
    </filter>
    <linearGradient id="linearGradient3550" gradientUnits="userSpaceOnUse" x1="412.78592" x2="412.78592" y1="400.84558" y2="422.63611">
      <stop offset="0" stop-color="#fff5e4"/>
      <stop offset=".25" stop-color="#ffecd0"/>
      <stop offset=".5" stop-color="#ffd390"/>
      <stop offset="1" stop-color="#ffc46a"/>
    </linearGradient>
    <mask id="mask3287" maskUnits="userSpaceOnUse">
      <path d="m412.56716 362.7206c-7.77656.205-16.77771 5.86053-19.90625 12.8125-3.18672 7.08121-2.72281 15.53626-.8125 25.3125 1.91032 9.77623 8.18827 19.94656 11.375 23.625 3.0204 3.48645 6.88924 2.85632 9.34375 2.78125.1258 0 .30234-.004.4375 0 2.45451.0751 6.32335.7052 9.34375-2.78125 3.18673-3.67844 9.46468-13.84877 11.375-23.625 1.91033-9.77624 2.37422-18.23129-.8125-25.3125-3.12855-6.95197-12.12969-12.6075-19.90625-12.8125z" fill="url(#radialGradient3291)" fill-rule="evenodd"/>
    </mask>
    <radialGradient id="radialGradient3291" cx="412.43237" cy="395.73904" gradientTransform="matrix(1 0 0 1.4395859 .353553 -174.66839)" gradientUnits="userSpaceOnUse" r="22.444885">
      <stop offset="0" stop-color="#671800"/>
      <stop offset="1" stop-color="#7b3900" stop-opacity="0"/>
    </radialGradient>
    <radialGradient id="radialGradient3548" cx="324.39758" cy="396.09259" fx="330.04404" fy="392.75388" gradientTransform="matrix(2.011929 0 0 2.8944468 -487.92215 -1318.7494)" gradientUnits="userSpaceOnUse" r="22.444885">
      <stop offset="0" stop-color="#faf0e5"/>
      <stop offset=".591133" stop-color="#f7e7d6"/>
      <stop offset="1" stop-color="#efcfac"/>
    </radialGradient>
    <clipPath id="clipPath3705">
      <path d="m341.25 409.625c-1.51321 7.20236-5.74124 23.3964-.5 27.25-.64647 6.99978-7.0786 9.64392-15 11.1875h-1.5c-7.9214-1.54358-14.35353-4.18772-15-11.1875 5.24124-3.8536 1.01321-20.04764-.5-27.25l16.25 7.40625z"/>
    </clipPath>
    <filter id="filter3694" height="1.121862" width="1.196436" x="-.098218" y="-.060931">
      <feGaussianBlur stdDeviation="1.640636"/>
    </filter>
    <radialGradient id="radialGradient3546" cx="312" cy="431.38034" fx="311.27777" fy="433.70554" gradientTransform="matrix(-1.392874 0 0 2.377934 625.68007 -1126.1299)" gradientUnits="userSpaceOnUse" r="16.25" xlink:href="#linearGradient3654"/>
    <linearGradient id="linearGradient3654">
      <stop offset="0" stop-color="#f9ede0"/>
      <stop offset=".5" stop-color="#f9ede0" stop-opacity=".805755"/>
      <stop offset="1" stop-color="#f9ede0" stop-opacity="0"/>
    </linearGradient>
    <radialGradient id="radialGradient3544" cx="312" cy="431.38034" fx="311.27777" fy="433.70554" gradientTransform="matrix(1.392874 0 0 2.377934 -295.78331 -1126.1299)" gradientUnits="userSpaceOnUse" r="16.25" xlink:href="#linearGradient3654"/>
    <filter id="filter3624" height="1.141565" width="1.052513" x="-.026257" y="-.070782">
      <feGaussianBlur stdDeviation="1.1236176"/>
    </filter>
    <filter id="filter3319" height="1.195051" width="1.025816" x="-.012908" y="-.097526">
      <feGaussianBlur stdDeviation=".58883353"/>
    </filter>
  </defs>
  <g transform="translate(-36.742607 247.50728)">
    <ellipse cx="63.32914" cy="118.07128" fill="#8994b5" filter="url(#filter3319)" rx="54.742138" ry="7.245283" transform="matrix(1.9019608 0 0 3.111111 44.613934 -387.28493)"/>
    <path d="m-98.9545 147.40533 1.14644 1.21967c15.64476 8.91215 36.43722 8.5 49.80806 8.5s34.60524.41215 50.25-8.5l1.5-1.75c-32.9308-25.78368-88.77254-47.21838-102.7045.53033z" fill="#c8cddc" fill-rule="evenodd" filter="url(#filter3624)" transform="matrix(2.011929 0 0 2.010611 260.51496 -316.16249)"/>
    <path d="m201.21168-151.45298c3.84669-.32587 7.59849-3.04256 11.91466-23.28061.4177-4.21334-5.20373-4.61222-5.51274-.88857-4.17962 8.0564-6.01098 16.11282-6.40192 24.16918z" fill="#ddc2a4" fill-rule="evenodd"/>
    <path d="m126.36699-148.60955c-3.8467-.32586-7.5985-3.04262-11.91467-23.28058-.4177-4.21335 5.20373-4.61228 5.51274-.88858 4.17963 8.05641 6.01099 16.11273 6.40193 24.16916z" fill="#ddc2a4" fill-rule="evenodd"/>
    <path d="m132.25452-145.00924c3.04447 14.48111 11.55096 47.04103 1.00596 54.78914 1.30065 14.07385 14.24164 19.39019 30.17893 22.49371h3.01789c15.9373-3.10352 28.87828-8.41986 30.17894-22.49371-10.54501-7.74811-2.03851-40.30803 1.00595-54.78914l-32.69383 14.89106z" fill="#cbb7a2" fill-rule="evenodd"/>
    <path d="m132.25452-145.00924c3.04447 14.48111 11.55096 47.04103 1.00596 54.78914 1.30065 14.07385 14.24164 19.39019 30.17893 22.49371h3.01789c15.9373-3.10352 28.87828-8.41986 30.17894-22.49371-10.54501-7.74811-2.03851-40.30803 1.00595-54.78914l-32.69383 14.89106z" fill="url(#radialGradient3544)" fill-rule="evenodd"/>
    <path d="m197.64219-145.00924c-3.04446 14.48111-11.55096 47.04103-1.00595 54.78914-1.30066 14.07385-14.24164 19.39019-30.17894 22.49371h-3.01789c-15.93729-3.10352-28.87828-8.41986-30.17893-22.49371 10.545-7.74811 2.03851-40.30803-1.00596-54.78914l32.69384 14.89106z" fill="url(#radialGradient3546)" fill-rule="evenodd" opacity=".749064"/>
    <path clip-path="url(#clipPath3705)" d="m324.17882 363.78125c-7.77656.205-13.87771 5.86053-17.00625 12.8125-3.18672 7.08121-2.72281 15.53626-.8125 25.3125 1.91032 9.77623 5.28827 19.94656 8.475 23.625 3.0204 3.48645 6.88924 2.85632 9.34375 2.78125.1258 0 .30234-.004.4375 0 2.45451.0751 6.32335.7052 9.34375-2.78125 3.18673-3.67844 7.56468-13.84877 9.475-23.625 1.91033-9.77624 2.37422-18.23129-.8125-25.3125-3.12855-6.95197-10.22969-12.6075-18.00625-12.8125z" fill="#382509" fill-rule="evenodd" filter="url(#filter3694)" transform="matrix(2.011929 0 0 2.010611 -488.52605 -968.60569)"/>
    <path d="m164.30249-237.24599c-15.64588.41214-33.75555 11.78321-40.04995 25.76092-6.41145 14.23755-5.4781 31.23737-1.63469 50.89361 3.84343 19.65619 16.47421 40.1047 22.88568 47.50065 6.07683 7.00989 13.86066 5.74295 18.79896 5.59199.2531 0 .60828-.008.88022 0 4.9383.15096 12.72213 1.4179 18.79896-5.59199 6.41147-7.39595 19.04226-27.84446 22.88568-47.50065 3.84346-19.65624 4.77677-36.65606-1.63469-50.89361-6.29442-13.97771-24.40407-25.34878-40.04995-25.76092z" fill="url(#radialGradient3548)" fill-rule="evenodd"/>
    <path d="m391.84841 400.84559c3.67809 10.12978 8.18827 19.94656 11.375 23.625 3.0204 3.48645 6.88924 2.85632 9.34375 2.78125.1258 0 .30234-.004.4375 0 2.45451.0751 6.32335.7052 9.34375-2.78125 3.18673-3.67844 8.05047-13.84877 11.375-23.625z" fill="url(#linearGradient3550)" fill-rule="evenodd" mask="url(#mask3287)" transform="matrix(2.011929 0 0 2.010611 -666.26363 -966.49455)"/>
    <path d="m-34.57938 94.15885c-2.03036 3.63213-3.0434 3.30165-5.10812 5.8099-2.86612 3.30838-6.79588 2.25873-9.125 2.1875-.12825-.004-.28689-.00001-.40625 0-2.32915.0712-6.30889.68335-9.175-2.625-.32265-.37242-.71291-.83899-1.09375-1.34375.74015 1.06708 1.48636 2.02247 2.0625 2.6875 2.86612 3.30835 6.81462 2.69624 9.14375 2.625.11936.00001.30924-.004.4375 0 2.32911.0713 5.97763.68336 8.84375-2.625 1.4015-1.61776 2.41748-3.10243 4.42062-6.71615z" fill="url(#linearGradient3552)" fill-rule="evenodd" filter="url(#filter3325)" transform="matrix(2.011929 0 0 2.010611 260.51496 -316.16249)"/>
    <path d="m347.29991 395.43789c-.0925-.73861-1.15458-.0553-1.23744.88388-.0829.93913.75464 3.21422.90599 2.87262 1.21215-2.73577.46272-2.70792.33145-3.7565z" fill="url(#radialGradient3554)" fill-rule="evenodd" filter="url(#filter3833)" transform="matrix(-2.011929 0 0 2.010611 903.28861 -971.44913)"/>
    <path d="m-68.3336 70.93789c-.09247-.73861-1.15458-.05525-1.23744.88388s.75464 3.21422.90599 2.87262c1.21215-2.73577.46272-2.70792.33145-3.7565z" fill="url(#radialGradient3556)" fill-rule="evenodd" filter="url(#filter3833)" transform="matrix(2.011929 0 0 2.010611 260.51496 -316.16249)"/>
    <path clip-path="url(#clipPath3429)" d="m324.5 363.375c-12.558 0-22.74999 10.19201-22.75 22.75 0 3.49706-.34202 6.96567 1.0697 9.92678l1.1803.86351c2.57247-4.54407.92256-8.09951 2-12.04029 1-2.5 2.58874-4.663 5-5.5 4.29826-1.49201 10.81729 4.17868 13.5 4.25 2.90006.0771 9.05852-5.34646 13.46875-4.05 2.43629.71618 4.44027 3.0071 5 5.5 1.04798 4.66743 1.59553 6.25655 2.0026 11.27963l1.18306-.60463c1.37425-2.92891 1.09559-6.17758 1.09559-9.625 0-12.558-10.19199-22.74999-22.75-22.75z" fill="url(#linearGradient3558)" filter="url(#filter3420)" transform="matrix(2.011929 0 0 2.010611 -489.27813 -968.60569)"/>
    <path d="m163.94239-238c-25.2658 0-45.77134 20.49217-45.77136 45.74141 0 7.0312-.68813 14.00521 2.15216 19.95891l2.37467 1.73615c5.17563-9.13638 1.85613-17.29026 4.02386-25.21364 2.01193-5.02654 5.20836-9.37549 10.05963-11.05837 8.6478-2.99983 21.76362 8.40172 27.16104 8.54513 5.83472.155 18.22509-4.27111 27.09816-1.66446 4.90165 1.43998 8.93351 6.04612 10.05965 11.05836 2.10846 9.38438 3.21009 7.10624 4.02909 17.2057l2.38023-1.21569c2.76489-5.88887 2.20425-12.42067 2.20425-19.35209 0-25.24923-20.50556-45.74141-45.77138-45.74141z" fill="#b09278"/>
    <path d="m163.94239-238c-16.14532 8.76874-19.53611 13.98139-27.16104 31.16446 8.6478-2.99983 21.76362 8.40172 27.16104 8.54513 5.83472.155 19.40849-5.02368 28.28155-2.41704 4.90165 1.43999 8.93351 6.04613 10.05965 11.05836 2.10846 9.38439 2.0267 7.85882 2.8457 17.95828l2.38023-1.21569c2.7649-5.88887 2.20425-12.42067 2.20425-19.35209 0-25.24923-20.50555-45.74141-45.77138-45.74141z" fill="url(#radialGradient3560)"/>
    <path d="m312.54197 377.13598c-.59485-.0263-1.18147.0448-1.71875.21875-2.41126.78087-4.44194 3.60538-5.44194 6.08211-.92612 4.1784.39346 5.94573-.49464 11.15501.84705-3.03043.69815-9.51676.93658-10.42462 1-2.50001 2.58874-4.663 5-5.5 4.29826-1.49202 10.81729 4.17868 13.5 4.25 2.90006.0771 9.05852-2.12428 13.46875-.82782 2.43629.71617 4.44027 3.0071 5 5.5v-.5625c-.55973-2.50593-2.56371-4.8521-5-5.625-4.41023-1.39914-10.12675-.66589-13.02681-.81051-2.34737-.11705-8.05923-3.27163-12.22319-3.45542z" fill="url(#linearGradient3562)" filter="url(#filter3479)" transform="matrix(2.011929 0 0 2.010611 -489.95046 -968.60569)"/>
    <path d="m-39.6875 56.221855c5.490352-.197478-5.37217-1.720195-9.01956-2.301355-5.891562-.938737-13.74889-4.05702-14.84149-6.96579-.71516-1.90391 4.892-4.76519 4.54855-3.84253-.65577 1.86233-1.47583 3.56833 3.125 7.625 2.30198 1.77729 4.87994 3.83927 8.375 4.125 2.5.26777 5.3125 1.832065 7.8125 1.359675z" fill="url(#linearGradient3564)" fill-rule="evenodd" filter="url(#filter3625)" opacity=".88015" transform="matrix(2.011929 0 0 2.010611 260.51496 -316.16249)"/>
    <path d="m-29.75 50.61218 2.25 4.5c1.52892 6.14118.92245 5.35732.73483 8.33318-1.77685-4.41667-.45637-7.16651-6.23483-10.33318l-6.25-4z" fill="url(#linearGradient3566)" fill-rule="evenodd" filter="url(#filter3569)" transform="matrix(2.011929 0 0 2.010611 258.82058 -316.16249)"/>
    <path d="m-68.53033 81.05152 1.375-2.5s-1.25-3.125-1.25-4-.88886-3.4545-.88886-3.4545l-.72791.47032z" fill="url(#linearGradient3568)" fill-rule="evenodd" filter="url(#filter3775)" opacity=".333333" transform="matrix(2.011929 0 0 2.010611 260.51496 -316.16249)"/>
    <path d="m165.54566-77.77752c-20.6078.57529-26.89444-7.9493-28.66998-15.46636-2.57082.42234-4.09191 2.46528-4.02385 4.0212-14.25115 5.69981-31.48234 11.44516-46.77734 19.10079-5.6773 2.84172-12.145232 11.50144-13.83201 16.08493-5.144464 13.97889-10.814122 33.67767-10.814122 33.67767l3.017896 3.51864c31.47614 17.91884 74.198236 17.0902 101.099406 17.0902s69.62328.82864 101.0994-17.0902l3.0179-3.51864s-5.66966-19.69878-10.81412-33.67767c-1.68678-4.58349-8.1547-13.24321-13.832-16.08493-15.29501-7.65563-32.52619-13.40099-46.77734-19.10079.0681-1.55592-1.45304-3.59886-4.02386-4.0212-4.85605 7.52497-8.06218 14.89107-28.66998 15.46636z" fill="url(#linearGradient3570)" fill-rule="evenodd"/>
    <path d="m-78.34358 152.98437c-3.91725-13.01958-5.49592-19.83203 3.53553-26.87006l19.09189-5.65686-8.48528-6.36395-19.79899 7.77817c-4.22715 2.41809-7.762683 6.66073-10.6066 12.72792 0 0-4.24265 9.8995-1.41422 11.31371 2.82843 1.41422 9.8995 5.65686 9.8995 5.65686z" fill="url(#linearGradient3572)" fill-rule="evenodd" filter="url(#filter3493)" opacity=".322097" transform="matrix(2.011929 0 0 2.010611 260.51496 -316.16249)"/>
    <path clip-path="url(#clipPath4063)" d="m395.90625 435.375c-1.27778.21006-2.03383 1.22613-2 2-7.08332 2.83488-15.64784 5.69235-23.25 9.5-2.82181 1.41335-6.03661 5.72037-6.875 8-2.55697 6.95256-5.375 16.75-5.375 16.75l1.5 1.75c15.64477 8.91215 36.87916 8.5 50.25 8.5 13.37085 0 34.60524.41215 50.25-8.5l1.5-1.75c.00001 0-2.81802-9.79744-5.375-16.75-.83838-2.27963-4.05318-6.58665-6.875-8-7.60215-3.80765-16.16667-6.66512-23.25-9.5.0338-.77387-.72221-1.78994-2-2-2.41362 3.74264-4.00719 7.40137-14.25 7.6875-.64018.0179-1.25799.0163-1.84375 0 .80243.0468 1.64422.0883 2.5625.0625 9.79135-.27525 11.31776-3.80588 13.625-7.40625 1.22147.20208 1.93858 1.19304 1.90625 1.9375 6.77112 2.72711 14.95165 5.46211 22.21875 9.125 2.69745 1.35963 5.79232 5.52579 6.59375 7.71875 2.44429 6.68826 5.12499 16.09377 5.125 16.09375l-1.4375 1.6875c-14.95522 8.57336-35.24974 8.18749-48.03125 8.1875-12.78153 0-34.57865 1.62329-49.53385-6.95006l-1.52589-3.01333s3.74138-14.97395 6.89277-17.2428c1.89483-1.36419 3.71952-5.12167 6.41697-6.48131 7.2671-3.6629 15.44762-6.39789 22.21875-9.125-.0206-.47514.25339-1.06595.78125-1.46875-.0867-.26793-.15627-.54781-.21875-.8125z" fill="url(#linearGradient3574)" fill-rule="evenodd" filter="url(#filter4059)" transform="matrix(2.011929 0 0 2.010611 -659.66056 -968.60569)"/>
    <path d="m-84.125 124.875-1 1.75c4.03714 8.1176 5.20663 18.14697 7.4375 27.46875-6.98354-1.21816-13.72843-3.25291-19.8125-6.71875v.4375c15.64477 8.91216 36.87916 8.5 50.25 8.5 13.37085.00001 34.60524.41215 50.25-8.5l1.5-1.75-1.833441 1.48405c-15.64475 8.91216-36.545719 8.46226-49.916559 8.46226-7.45098 0-17.33699-.57992-27.34375-2.00881-3.17708-14.39161-6.35417-22.16587-9.53125-29.125z" fill="url(#linearGradient3576)" fill-rule="evenodd" filter="url(#filter3393)" transform="matrix(2.011929 0 0 2.010611 260.51496 -316.16249)"/>
    <path d="m463.75 435.375c-1.27779.21006-2.03383 1.22613-2 2-.0793.0317-.17038.062-.25.0937 1.25202 4.0018 5.15727 8.27208 16.75 7.96875 11.50018-.3009 13.82799-3.95877 16.46875-7.875-.15115-.06-.3189-.12753-.46875-.1875.0338-.77387-.72221-1.78994-2-2-2.41363 3.74264-4.00719 7.40137-14.25 7.6875-10.24281.28614-13.36749-3.94879-14.25-7.6875zm33.71875 3.25c.0532.16802.10109.31159.0937.46875 4.20807 1.57746 8.83741 3.15593 13.5625 4.875-4.63354-1.95913-9.30506-3.67529-13.65625-5.34375z" style="fill:#3359c4;fill-rule:evenodd;stroke:#98a2bf;stroke-width:.145287;clip-path:url(#clipPath3289);filter:url(#filter3283)" transform="matrix(2.011929 0 0 2.010611 -796.15622 -968.59783)"/>
    <path d="m-59.25169 118.68969-17.32412.70711 15.20279-2.12132z" fill="url(#linearGradient3579)" fill-rule="evenodd" filter="url(#filter3339)" transform="matrix(2.011929 0 0 2.010611 260.51496 -316.16249)"/>
    <path d="m371.74831 469.68969-17.32412.70711 15.20279-2.12132z" fill="url(#linearGradient3582)" fill-rule="evenodd" filter="url(#filter3339)" transform="matrix(.6834828 1.8910368 1.8922762 -.683035 -1027.147 -389.98426)"/>
    <path d="m294.15642 477.48437c-3.91725-13.01958-5.49592-19.83203 3.53553-26.87006l19.09189-5.65686-8.48528-6.36395-19.79899 7.77817-10.6066 12.72792s-4.24265 9.8995-1.41422 11.31371c2.82843 1.41422 9.8995 5.65686 9.8995 5.65686z" fill="url(#linearGradient3585)" fill-rule="evenodd" filter="url(#filter3493)" opacity=".322097" transform="matrix(-2.011929 0 0 2.010611 820.41523 -968.60569)"/>
    <path d="m-59.2517 120.45746-7.07106 17.67767z" style="opacity:.06367;fill-rule:evenodd;stroke-width:.290574;fill:url(#linearGradient3588);stroke:url(#linearGradient3590);filter:url(#filter3574)" transform="matrix(2.011929 0 0 2.010611 260.51496 -316.16249)"/>
    <g transform="matrix(.95841466 0 0 .95841466 53.79931 -176.90153)">
      <path d="m144.34707 82.218534c-1.00788 33.472536-3.74948 73.577376-9.1618 102.647976 26.41496-.52446 62.40722-3.30836 87.86322-17.8l3.14118-3.6647s1.39468-22.89718-3.99194-37.53394c-1.76612-4.7992-2.11588-7.81296-8.18016-10.53604-17.58084-7.89458-55.22742-19.668276-66.72566-28.205216zm-56.786733.58896-2.617654 4.31912c-11.498198 8.53694-49.144756 20.310636-66.725594 28.205216-6.064238 2.72308-6.414022 5.73684-8.180156 10.53604-5.38662 14.63676-3.991932 37.53394-3.991932 37.53394l3.141198 3.6647c25.322668 14.41578 61.127278 17.18886 87.470482 17.73458-5.3725-28.88144-8.0749-68.76324-9.096344-101.993596zm9.096344 101.993596c6.746459.1398 11.595689.20302 17.359169.1964-5.76348.004-10.61271-.0564-17.359169-.1964z" fill="#2d2d35" fill-rule="evenodd"/>
      <path d="m144.34708 82.218534c-1.00788 33.472536-3.74948 73.577376-9.1618 102.647976 26.41496-.52446 62.40721-3.30836 87.86321-17.8l3.14118-3.6647s1.39468-22.89718-3.99194-37.53394c-1.76612-4.7992-2.11588-7.81296-8.18016-10.53604-17.58084-7.89458-55.22741-19.668276-66.72565-28.205216zm-56.786743.58896-2.617654 4.31912c-11.498198 8.53694-49.144756 20.310636-66.725594 28.205216-6.064238 2.72308-6.414022 5.73684-8.180156 10.53604-5.38662 14.63676-3.991932 37.53394-3.991932 37.53394l3.141198 3.6647c25.322668 14.41578 61.127278 17.18886 87.470482 17.73458-5.3725-28.88144-8.0749-68.76324-9.096344-101.993596zm9.096344 101.993596c6.746459.1398 9.508909.20302 15.272389.1964-5.76348.004-8.52593-.0564-15.272389-.1964z" fill="url(#linearGradient3261)" fill-rule="evenodd"/>
      <path d="m144.34708 83.023594c-1.00788 33.472556-3.74948 73.577376-9.1618 102.647996 26.41496-.52448 62.40721-3.30836 87.86321-17.8l3.14118-3.66472s1.39468-22.89718-3.99194-37.53394c-1.76612-4.7992-2.11588-7.81296-8.18016-10.53604-17.58084-7.89456-55.22741-19.668276-66.72565-28.205196zm-56.786743.58898-2.617654 4.31912c-11.498198 8.53692-49.144756 20.310636-66.725594 28.205196-6.064238 2.72308-6.414022 5.73684-8.180156 10.53604-5.38662 14.63676-3.991932 37.53394-3.991932 37.53394l3.1411976 3.66472c25.3226684 14.41576 61.1272784 17.18884 87.4704824 17.73458-5.3725-28.88146-8.0749-68.76324-9.096344-101.993596zm9.096344 101.993596c6.746459.1398 9.508909.203 15.272389.1962-5.76348.004-8.52593-.0564-15.272389-.1962z" fill="url(#pattern3258)" fill-rule="evenodd" opacity=".067633"/>
      <path clip-path="url(#clipPath106)" d="m-100.59375 67.65625v.03125l-24.53125 12.96875c-2.14416 3.571992-3.10864 5.917867-8.46875 13.1875l5.6875 1.46875-3.375 4.875c3.26574 9.70383 5.28273 18.42979 9.75 27.83323l20.9375 2.63552h.0313l20.9375-2.63552c4.467267-9.40344 6.48426-18.1294 9.75-27.83323l-3.375-4.875 5.6875-1.46875c-5.360167-7.269633-6.29339-9.615508-8.43755-13.1875l-24.5625-12.96875-.0313-.03125z" fill="none" filter="url(#filter4766-1)" opacity=".292079" stroke="#000" transform="matrix(2.0941218 0 0 2.0941218 326.90385 -82.376687)"/>
      <path d="m15.764792 93.215284c4.07273 8.363956 4.92103 15.874306 5.36548 23.692856-.11239-8.24549-2.35313-22.894818-5.36548-23.692856z" fill="url(#radialGradient3324-9)" fill-rule="evenodd" filter="url(#filter4824-7)" opacity=".178218" transform="matrix(2.0941218 0 0 2.0941218 -18.000287 -75.400896)"/>
      <path d="m-148.93624 97.010239c4.07273 8.363951 4.92103 15.874301 5.36548 23.692851-.11239-8.24549-2.35313-22.894813-5.36548-23.692851z" fill="url(#radialGradient3326-6)" fill-rule="evenodd" filter="url(#filter4824-7)" opacity=".668317" transform="matrix(-2.0941218 0 0 2.0941218 -94.513883 -83.347992)"/>
      <path clip-path="url(#clipPath104)" d="m78.359392-12.011334c-.51107 16.9732796-1.911777 37.30402-4.65625 52.04516.06083-.0012.12655.0013.1875 0 2.623917-14.47037 3.969128-34.4520844 4.46875-51.04516l1.5 2.4687496c5.830513 4.328908 24.901648 10.309316 33.816548 14.3125 3.07506 1.38083 3.26067 2.910178 4.15625 5.3437504 1.70715 4.63877 2.06087 9.24864 2.09375 12.0625.0438-2.59995-.15414-7.79207-2.09375-13.0625-.89558-2.4335724-1.08119-3.9629204-4.15625-5.3437504-8.9149-4.003184-27.986035-9.983592-33.816548-14.3125zm-28.804412.28125-1.3125 2.1874996c-5.83051 4.328905-24.932904 10.309318-33.847794 14.3125-3.07506 1.380828-3.26068 2.910175-4.15625 5.3437504-1.8523704 5.03338-2.1112404 9.98205-2.0937504 12.6875.05851-2.83738.45481-7.23408 2.0937504-11.6875.89557-2.4335754 1.08119-3.9629224 4.15625-5.3437504 8.91489-4.003182 28.017284-9.983595 33.847794-14.3125l1.3125-2.1874996c.506281 16.4709586 1.833942 36.35829 4.4375 50.73266.06113.0013.126493-.0013.1875 0-2.724282-14.64522-4.107054-34.8821854-4.625-51.73266z" fill="url(#linearGradient3328-8)" fill-rule="evenodd" filter="url(#filter4993-9)" opacity=".683168" transform="matrix(1.9720738 0 0 1.9720738 -10.183743 105.35867)"/>
      <path clip-path="url(#clipPath105)" d="m-100.59375 67.65625v.03125l-24.53125 12.96875c-2.14416 3.571992-3.10864 5.917867-8.46875 13.1875l5.6875 1.46875-3.375 4.875c3.26574 9.70383 5.28273 19.42629 9.75 28.82973l20.9375 5.625h.0313l20.9375-5.625c4.467267-9.40344 6.48426-19.1259 9.75-28.82973l-3.375-4.875 5.6875-1.46875c-5.360167-7.269633-6.29339-9.615508-8.43755-13.1875l-24.5625-12.96875-.0313-.03125z" fill="none" stroke="url(#linearGradient3336-8)" stroke-opacity=".960784" stroke-width=".178053" transform="matrix(2.0941218 0 0 2.0941218 326.90385 -82.376691)"/>
    </g>
  </g>
  <g transform="matrix(.91378575 0 0 .9137933 1.930185 351.84616)">
    <path d="m265.71479-171.21229v-12.002l-12.439-.415c-.552-4.127-1.622-8.089-3.153-11.816l10.555-6.572-6-10.394-10.981 5.861c-2.503-3.236-5.408-6.142-8.645-8.645l5.861-10.981-10.393-5.999-6.572 10.555c-3.728-1.532-7.689-2.603-11.817-3.155l-.416-12.439h-12l-.415 12.439c-4.128.552-8.09 1.623-11.817 3.154l-6.572-10.554-10.393 6 5.861 10.981c-3.236 2.503-6.142 5.409-8.646 8.646l-10.981-5.861-6 10.392 10.556 6.573c-1.532 3.727-2.603 7.689-3.154 11.817l-12.439.413-.001 12 12.44.415c.552 4.128 1.623 8.09 3.154 11.817l-10.555 6.573 5.999 10.393 10.983-5.862c2.503 3.236 5.409 6.143 8.646 8.646l-5.862 10.982 10.392 6 6.573-10.557c3.727 1.531 7.689 2.603 11.817 3.154l.414 12.439h12l.415-12.439c4.128-.552 8.09-1.622 11.816-3.154l6.572 10.556 10.393-6-5.861-10.983c3.235-2.503 6.142-5.409 8.645-8.645l10.981 5.861 6.001-10.393-10.556-6.572c1.531-3.727 2.603-7.688 3.154-11.816zm-60 23.998c-16.542 0-30-13.458-30-30s13.458-30 30-30 30 13.458 30 30-13.458 30-30 30z" filter="url(#filter2826)"/>
    <path d="m265.71479-172.21229v-12.002l-12.439-.415c-.552-4.127-1.622-8.089-3.153-11.816l10.555-6.572-6-10.394-10.981 5.861c-2.503-3.236-5.408-6.142-8.645-8.645l5.861-10.981-10.393-5.999-6.572 10.555c-3.728-1.532-7.689-2.603-11.817-3.155l-.416-12.439h-12l-.415 12.439c-4.128.552-8.09 1.623-11.817 3.154l-6.572-10.554-10.393 6 5.861 10.981c-3.236 2.503-6.142 5.409-8.646 8.646l-10.981-5.861-6 10.392 10.556 6.573c-1.532 3.727-2.603 7.689-3.154 11.817l-12.439.413-.001 12 12.44.415c.552 4.128 1.623 8.09 3.154 11.817l-10.555 6.573 5.999 10.393 10.983-5.862c2.503 3.236 5.409 6.143 8.646 8.646l-5.862 10.982 10.392 6 6.573-10.557c3.727 1.531 7.689 2.603 11.817 3.154l.414 12.439h12l.415-12.439c4.128-.552 8.09-1.622 11.816-3.154l6.572 10.556 10.393-6-5.861-10.983c3.235-2.503 6.142-5.409 8.645-8.645l10.981 5.861 6.001-10.393-10.556-6.572c1.531-3.727 2.603-7.688 3.154-11.816zm-60 23.998c-16.542 0-30-13.458-30-30s13.458-30 30-30 30 13.458 30 30-13.458 30-30 30z" fill="url(#radialGradient2894)"/>
    <path d="m200.68179-237.21429c-.055 1.645-.382 11.473-.382 11.473-.016.488-.383.893-.867.958-3.989.533-7.881 1.572-11.569 3.088-.452.186-.972.018-1.229-.396 0 0-5.191-8.338-6.061-9.734-1.292.746-7.425 4.287-8.717 5.033.775 1.452 5.406 10.128 5.406 10.128.08.149.118.311.118.47 0 .301-.136.597-.388.792-3.167 2.45-6.016 5.299-8.466 8.466-.298.386-.832.5-1.262.271 0 0-8.677-4.631-10.128-5.406-.746 1.292-4.287 7.425-5.033 8.717 1.396.87 9.734 6.061 9.734 6.061.301.188.472.513.472.85 0 .127-.024.256-.075.38-1.517 3.689-2.556 7.582-3.088 11.569-.064.484-.47.851-.958.867 0 0-9.828.328-11.473.382v3.171c8.88 1.789 18.332 3.162 28.128 4.095-.06-1.024-.129-2.235-.129-2.235 0-17.093 13.907-31 31-31 17.094 0 31 13.907 31 31 0 0-.07 1.223-.129 2.251 9.789-.925 19.24-2.292 28.129-4.074 0-.887 0-2.208 0-3.209-1.645-.055-11.473-.382-11.473-.382-.488-.016-.894-.383-.958-.867-.533-3.988-1.572-7.88-3.087-11.568-.051-.124-.075-.252-.075-.379 0-.337.171-.662.472-.85 0 0 8.337-5.191 9.733-6.061-.746-1.292-4.287-7.426-5.033-8.718-1.451.774-10.128 5.406-10.128 5.406-.43.229-.963.115-1.262-.271-2.45-3.168-5.299-6.017-8.465-8.466-.253-.195-.389-.49-.389-.792 0-.16.038-.321.118-.47 0 0 4.631-8.676 5.405-10.128-1.292-.746-7.425-4.288-8.717-5.034-.87 1.396-6.062 9.734-6.062 9.734-.258.414-.777.582-1.229.396-3.689-1.516-7.582-2.555-11.57-3.088-.483-.065-.851-.47-.866-.958 0 0-.328-9.828-.383-11.473-1.49.001-8.572.001-10.064.001z" fill="url(#linearGradient2896)"/>
    <path d="m205.71479-212.21429c-18.777 0-34 15.223-34 34 0 18.778 15.223 34 34 34 18.778 0 34-15.222 34-34 0-18.777-15.222-34-34-34zm0 59c-13.785 0-25-11.215-25-25s11.215-25 25-25 25 11.215 25 25-11.215 25-25 25z" fill="url(#linearGradient2898)"/>
    <path d="m205.71479-210.21429c-17.645 0-32 14.355-32 32s14.355 32 32 32 32-14.355 32-32-14.355-32-32-32zm0 57c-13.785 0-25-11.215-25-25s11.215-25 25-25 25 11.215 25 25-11.215 25-25 25z" fill="url(#linearGradient2900)"/>
    <path d="m205.71479-204.21429c-14.336 0-26 11.664-26 26 0 14.337 11.664 26 26 26 14.337 0 26-11.663 26-26 0-14.336-11.663-26-26-26zm0 50c-13.233 0-24-10.767-24-24s10.767-24 24-24 24 10.767 24 24-10.767 24-24 24z" fill="url(#linearGradient2902-2)"/>
    <path d="m161.00579-159.79329-10.253 6.384.425.735 10.131-6.308c-.11-.266-.199-.543-.303-.811z" fill="#fff"/>
    <path d="m180.91079-232.17529 6.572 10.555c3.727-1.532 7.689-2.603 11.817-3.154l.415-12.44h12l.415 12.439c4.128.552 8.09 1.623 11.817 3.155l6.572-10.555 9.984 5.766.408-.765-10.391-6.001-6.572 10.555c-3.728-1.532-7.689-2.603-11.817-3.155l-.416-12.439h-12l-.415 12.439c-4.128.552-8.09 1.623-11.817 3.154l-6.572-10.554-10.393 6 .408.765z" fill="#fff"/>
    <path d="m235.42079-215.88729-.37.694c3.236 2.503 6.142 5.409 8.645 8.645l10.981-5.861 5.575 9.658.425-.265-6-10.394-10.981 5.861c-2.406-3.108-5.19-5.903-8.275-8.338z" fill="#fff"/>
    <path d="m176.00979-139.53929-5.491 10.288.408.235 5.454-10.218c-.127-.097-.245-.207-.371-.305z" fill="#fff"/>
    <path d="m249.69579-176.83029c-.394 23.923-19.966 43.267-43.981 43.267-24.016 0-43.587-19.344-43.981-43.267-.004.244-.019.487-.019.732 0 24.262 19.738 44 44 44s44-19.738 44-44c0-.245-.015-.488-.019-.732z" fill="#fff" opacity=".5"/>
    <path d="m253.27579-184.62829c-.513-3.833-1.489-7.514-2.85-11.005l-.304.189c1.531 3.727 2.602 7.688 3.153 11.816l12.44.414v-1z" fill="#fff"/>
    <path d="m250.12079-158.98229 10.131 6.308.425-.735-10.252-6.384c-.106.268-.194.545-.304.811z" fill="#fff"/>
    <path d="m156.75279-212.41029 10.981 5.861c2.503-3.236 5.409-6.142 8.646-8.646l-.371-.694c-3.084 2.435-5.87 5.23-8.275 8.339l-10.981-5.861-6 10.392.425.265z" fill="#fff"/>
    <path d="m235.04979-139.23429 5.453 10.217.408-.235-5.491-10.287c-.125.098-.243.208-.37.305z" fill="#fff"/>
    <path d="m145.71479-183.21429 12.439-.415c.551-4.128 1.623-8.09 3.154-11.817l-.303-.189c-1.361 3.491-2.339 7.173-2.851 11.006l-12.439.415-.001 12z" fill="#fff"/>
  </g>
  <g transform="matrix(.931903 0 0 .931903 -18.80865 197.59571)">
    <path d="m208.29585-8.7556656c-.005.158737-.0472.311795-.0472.471676 0 8.67652397 7.07743 15.70679 15.75395 15.70679 8.67653 0 15.7068-7.03026303 15.70679-15.70679 0-.159881-.0424-.312939-.0472-.471676-.22836 8.47771997-7.12708 15.282283-15.65962 15.282283s-15.47841-6.80456303-15.70679-15.282283z" fill="url(#linearGradient6391)" filter="url(#filter5876)" opacity=".873606"/>
    <path d="m239.66226-8.9563466c.005-.158737.0472-.311795.0472-.471676 0-8.6765244-7.07744-15.7067904-15.75396-15.7067904s-15.70679 7.030263-15.70679 15.7067904c0 .159881.0424.312939.0472.471676.22837-8.4777204 7.12709-15.2822834 15.65962-15.2822834 8.53254 0 15.47842 6.804563 15.70679 15.2822834z" fill="#565656" filter="url(#filter5718)" opacity=".873606"/>
    <path d="m240.25032-8.6497116c.005-.164689.0489-.323486.0489-.489362 0-9.0018634-7.34281-16.2957394-16.34467-16.2957394s-16.29574 7.293873-16.29574 16.2957394c0 .165876.044.324673.0489.489362.23693-8.7956044 7.39433-16.2703134 16.2468-16.2703134 8.85248 0 16.05881 7.474709 16.29574 16.2703134z" fill="#fff" filter="url(#filter5836)" opacity=".873606"/>
    <path d="m208.29585-8.7556656c-.005.158737-.0472.311795-.0472.471676 0 8.67652397 7.07743 16.70679 15.75395 16.70679 8.67653 0 15.7068-8.03026303 15.70679-16.70679 0-.159881-.0424-.312939-.0472-.471676-.22836 8.47771997-7.12708 15.282283-15.65962 15.282283s-15.47841-6.80456303-15.70679-15.282283z" fill="url(#linearGradient6391)" filter="url(#filter5876)" opacity=".345725"/>
    <circle cx="223.96924" cy="-9.069039" fill="url(#radialGradient6361)" r="31.747278"/>
    <circle cx="223.96924" cy="-9.069039" fill="url(#radialGradient6363)" r="31.747278"/>
    <circle clip-path="url(#clipPath5947)" cx="64.101105" cy="58.236969" fill="url(#linearGradient6365)" filter="url(#filter6019)" r="22.445498" transform="matrix(1.4144163 0 0 1.4144163 133.3036 -91.440356)"/>
    <g transform="matrix(.6879621 0 0 .6879621 45.031317 -56.774301)">
      <path d="m249.70376 45.294924c-5.42224.212474-9.70739 4.671813-9.70376 10.098216v25.245539c.0171 3.487235 1.83207 6.718917 4.80092 8.54838 2.96888 1.829463 6.67151 1.997824 9.79416.445344l25.24554-12.62277c3.37866-1.725896 5.50499-5.199776 5.50499-8.993723 0-3.793948-2.12633-7.267827-5.50499-8.993724l-25.24554-12.62277c-1.51165-.77352-3.19397-1.153395-4.89132-1.104492z" fill="url(#radialGradient6367)" fill-rule="evenodd"/>
      <path clip-path="url(#clipPath6103)" d="m200.15625 43.880333c-5.42224.21247-9.69113 4.66734-9.6875 10.09375v3c-.004-5.42641 4.26526-9.88128 9.6875-10.09375 1.69735-.0489 3.3946.32023 4.90625 1.09375l25.25 12.625c2.92621 1.49478 4.89534 4.31054 5.375 7.5.0742-.49316.125-.99194.125-1.5-.00001-3.79394-2.12134-7.2741-5.5-9l-25.25-12.625c-1.51165-.77352-3.2089-1.14265-4.90625-1.09375z" fill="#121212" fill-opacity=".778107" fill-rule="evenodd" filter="url(#filter6085)" transform="translate(49.539651)"/>
      <path clip-path="url(#clipPath6097)" d="m186.9375 67.53447c-.47972 3.18935-2.44887 6.00526-5.375 7.5l-25.25 12.625c-3.12265 1.55248-6.81238 1.39197-9.78125-.4375-2.96885-1.82946-4.7954-5.07526-4.8125-8.5625v3c.0171 3.48724 1.84365 6.73304 4.8125 8.5625 2.96887 1.82947 6.6586 1.98998 9.78125.4375l25.25-12.625c3.37867-1.7259 5.5-5.20606 5.5-9 0-.50815-.0508-1.00676-.125-1.5z" fill="#fff" fill-rule="evenodd" filter="url(#filter6093)" transform="translate(98.3)"/>
    </g>
    <path d="m192.64957-10.387957c15.12716 4.7123804 46.8015 4.1036324 62.44824-4.48756l-.0285-.914927c-16.22466 8.5013814-47.18599 10.0885644-62.41974 5.402487z" fill="url(#linearGradient6372)" fill-rule="evenodd"/>
  </g>
</svg>
