<svg enable-background="new 0 0 128 128" height="256" viewBox="0 0 256 256" width="256" xmlns="http://www.w3.org/2000/svg" xmlns:xlink="http://www.w3.org/1999/xlink">
  <defs>
    <linearGradient id="linearGradient6556">
      <stop offset="0" stop-color="#fff"/>
      <stop offset="1" stop-color="#fff" stop-opacity="0"/>
    </linearGradient>
    <filter id="filter3395" height="1.177195" width="1.113849" x="-.056924" y="-.088597">
      <feGaussianBlur stdDeviation="2.3106204"/>
    </filter>
    <filter id="filter3357" height="1.1693" width="1.094505" x="-.047253" y="-.08465">
      <feGaussianBlur stdDeviation="2.4020058"/>
    </filter>
    <filter id="filter3323" height="1.084684" width="1.037504" x="-.018752" y="-.042342">
      <feGaussianBlur stdDeviation=".76083033"/>
    </filter>
    <filter id="filter3272" height="1.055294" width="1.035611" x="-.017805" y="-.027647">
      <feGaussianBlur stdDeviation=".86270686"/>
    </filter>
    <filter id="filter3223" height="1.220072" width="1.142245" x="-.071123" y="-.110036">
      <feGaussianBlur stdDeviation="3.4970547"/>
    </filter>
    <filter id="filter3098" height="1.07891" width="1.079741" x="-.03987" y="-.039455">
      <feGaussianBlur stdDeviation="1.8302414"/>
    </filter>
    <filter id="filter3068" height="1.083466" width="1.090071" x="-.045035" y="-.041733">
      <feGaussianBlur stdDeviation="2.0377368"/>
    </filter>
    <linearGradient id="linearGradient2962">
      <stop offset="0"/>
      <stop offset="1" stop-opacity="0"/>
    </linearGradient>
    <filter id="filter6401" height="1.108914" width="1.049692" x="-.024846" y="-.054457">
      <feGaussianBlur stdDeviation=".89646"/>
    </filter>
    <clipPath id="clipPath6441">
      <path d="m22.439952 87.515684s17.743324-23.206517 39.132853-19.021923c21.389529 4.184602 47.457915 38.141109 47.457915 38.141109-7.61683 11.67867-26.706068 15.82616-41.655108 16.98935 15.587282-.0492 36.482638 4.10681 53.521638-15.55 0 0-28.44074-46.664692-57.029307-51.472685-28.588558-4.808001-52.161621 31.447106-52.161621 31.447106 8.785892 20.233149 27.807104 28.995419 49.712587 34.525209-18.509454-8.99599-31.999795-17.03048-38.978957-35.058166z"/>
    </clipPath>
    <clipPath id="clipPath6451">
      <path d="m10.817467 61.753265c39.998456-53.3312759 82.663475-17.777091 108.440253 22.221364-32.846914-64.013106-71.997216-86.2188946-108.440253-22.221364z"/>
    </clipPath>
    <filter id="filter6459" height="1.069996" width="1.036523" x="-.018261" y="-.034998">
      <feGaussianBlur stdDeviation=".83079885"/>
    </filter>
    <radialGradient id="radialGradient6488" cx="-318.59558" cy="-88.287811" gradientTransform="matrix(.7081184 -.1021672 .21772748 2.0406358 291.1223 239.07756)" gradientUnits="userSpaceOnUse" r="65.186401">
      <stop offset="0" stop-color="#646464"/>
      <stop offset="1" stop-color="#e3e3e3"/>
    </radialGradient>
    <radialGradient id="radialGradient6490" cx="-675.3678" cy="-51.796902" gradientTransform="matrix(1 0 0 1.0237352 0 1.229408)" gradientUnits="userSpaceOnUse" r="55.901997">
      <stop offset="0" stop-color="#7a7a7a"/>
      <stop offset="1" stop-color="#649191" stop-opacity="0"/>
    </radialGradient>
    <linearGradient id="linearGradient6492" gradientTransform="matrix(.44809686 -.2255045 .22690754 .26357572 206.94614 21.998989)" gradientUnits="userSpaceOnUse" x1="-267.98022" x2="-329.33154" xlink:href="#linearGradient6556" y1="-226.54375" y2="78.231689"/>
    <radialGradient id="radialGradient6494" cx="-313.77863" cy="-75.845619" fx="-343.31003" fy="-124.01205" gradientTransform="matrix(.7044143 -.1313034 .12055556 .8162045 281.36308 121.69255)" gradientUnits="userSpaceOnUse" r="65.186401">
      <stop offset="0" stop-color="#fff" stop-opacity="0"/>
      <stop offset=".38366336" stop-opacity="0"/>
      <stop offset=".81882757" stop-opacity=".08"/>
      <stop offset="1"/>
    </radialGradient>
    <radialGradient id="radialGradient6496" cx="-313.77863" cy="-75.845619" gradientTransform="matrix(.27198578 -.05013642 .02729176 .31165658 134.32395 106.65766)" gradientUnits="userSpaceOnUse" r="65.186401" xlink:href="#linearGradient2962"/>
    <radialGradient id="radialGradient6498" cx="-313.77863" cy="-75.845619" fx="-327.88126" fy="-122.29082" gradientTransform="matrix(.2683242 -.04946146 .02692436 .30746094 133.14716 106.55123)" gradientUnits="userSpaceOnUse" r="65.186401">
      <stop offset="0" stop-color="#fff" stop-opacity=".872727"/>
      <stop offset="1" stop-color="#fff" stop-opacity="0"/>
    </radialGradient>
    <radialGradient id="radialGradient6515" cx="52.792747" cy="85.201317" gradientTransform="matrix(2 0 0 6.4343102 -64.331602 -448.4026)" gradientUnits="userSpaceOnUse" r="56.78125">
      <stop offset="0" stop-color="#bababa"/>
      <stop offset="1" stop-color="#969696"/>
    </radialGradient>
    <radialGradient id="radialGradient6529" cx="-9.625694" cy="-67.683014" fx="-35.087757" fy="-78.957077" gradientTransform="matrix(.85064436 0 0 .7098291 73.637446 159.43124)" gradientUnits="userSpaceOnUse" r="115.80503">
      <stop offset="0" stop-color="#fff"/>
      <stop offset=".5" stop-color="#ededed"/>
      <stop offset=".75" stop-color="#e3e3e3"/>
      <stop offset="1" stop-color="#8c8c8c"/>
    </radialGradient>
    <radialGradient id="radialGradient6562" cx="-673.01239" cy="-56.807011" gradientTransform="matrix(1.5841831 .2374271 -.28448622 1.7867905 377.00167 204.32421)" gradientUnits="userSpaceOnUse" r="56.163616" xlink:href="#linearGradient6556"/>
    <filter id="filter3898" height="1.070939" width="1.033488" x="-.016744" y="-.03547">
      <feGaussianBlur stdDeviation=".75652406"/>
    </filter>
    <linearGradient id="linearGradient3208" gradientUnits="userSpaceOnUse" x1="-74.63976435917" x2="-74.63976435917" y1="-63.46131621307" y2="-119.20123123259">
      <stop offset="0" stop-color="#810000"/>
      <stop offset="1" stop-color="#c50000"/>
    </linearGradient>
    <clipPath id="clipPath3559">
      <path d="m-64.510272 10.75c-1.042316.0084-2.040208.423209-2.78125 1.15625l-16.96875 16.96875c-1.561474 1.562119-1.561474 4.094131 0 5.65625l25.4375 25.46875-25.4375 25.46875c-1.561474 1.562119-1.561474 4.094131 0 5.65625l16.96875 16.96875c1.562119 1.56147 4.094131 1.56147 5.65625 0l25.46875-25.4375 25.46875 25.4375c1.5621191 1.56147 4.0941311 1.56147 5.6562501 0l16.9687499-16.96875c1.56147-1.562119 1.56147-4.094131 0-5.65625l-25.4375-25.46875 25.4375-25.46875c1.56147-1.562119 1.56147-4.094131 0-5.65625l-16.9687499-16.96875c-1.562119-1.561474-4.094131-1.561474-5.6562501 0l-25.46875 25.4375-25.46875-25.4375c-.764077-.756011-1.800247-1.172731-2.875-1.15625zm31.1875 63.40625c-.751409-.759464-1.775386-1.18681-2.84375-1.18681s-2.092341.427346-2.84375 1.18681z"/>
    </clipPath>
    <filter id="filter3549" height="1.318829" width="1.245312" x="-.122653" y="-.162916">
      <feGaussianBlur stdDeviation="2.5695681"/>
    </filter>
    <linearGradient id="linearGradient9397" gradientTransform="scale(1.0975951 .9110828)" gradientUnits="userSpaceOnUse" x1="26.091133" x2="31.500689" xlink:href="#linearGradient6556" y1="14.856744" y2="14.856744"/>
    <filter id="filter3477" height="1.28034" width="1.232702" x="-.116351" y="-.14017">
      <feGaussianBlur stdDeviation=".28784801"/>
    </filter>
    <linearGradient id="linearGradient5179" gradientUnits="userSpaceOnUse" x1="304.88663" x2="345.62039" y1="385.86127" y2="384.62384">
      <stop offset="0" stop-color="#765c44"/>
      <stop offset="1" stop-color="#765c44" stop-opacity="0"/>
    </linearGradient>
    <linearGradient id="linearGradient3200" gradientUnits="userSpaceOnUse" x1="-76.8531758363" x2="-76.8531758363" y1="-57.50843928828" y2="-88.19514330964">
      <stop offset="0" stop-color="#f00"/>
      <stop offset="1" stop-color="#7f0000"/>
    </linearGradient>
    <linearGradient id="linearGradient5130" gradientUnits="userSpaceOnUse" spreadMethod="reflect" x1="88.60625" x2="91.575107" xlink:href="#linearGradient3366" y1="13.510336" y2="13.510336"/>
    <linearGradient id="linearGradient3366">
      <stop offset="0" stop-color="#ff8787"/>
      <stop offset="1" stop-color="#ff8787" stop-opacity="0"/>
    </linearGradient>
    <radialGradient id="radialGradient5265" cx="-36.592777" cy="90.072952" gradientTransform="matrix(.4576062 0 0 .782313 -19.847694 18.82067)" gradientUnits="userSpaceOnUse" r="25.986174" xlink:href="#linearGradient2962"/>
    <linearGradient id="linearGradient5120" gradientUnits="userSpaceOnUse" spreadMethod="reflect" x1="31.60625" x2="34.575107" xlink:href="#linearGradient3207" y1="13.510336" y2="13.510336"/>
    <linearGradient id="linearGradient3207">
      <stop offset="0" stop-color="#fff"/>
      <stop offset="1" stop-color="#790000" stop-opacity="0"/>
    </linearGradient>
    <linearGradient id="linearGradient5126" gradientUnits="userSpaceOnUse" spreadMethod="reflect" x1="88.60625" x2="91.575107" xlink:href="#linearGradient3207" y1="13.510336" y2="13.510336"/>
    <linearGradient id="linearGradient5100" gradientUnits="userSpaceOnUse" x1="59.999996" x2="57.434441" y1="92.973083" y2="55.07938">
      <stop offset="0" stop-color="#fff5e4"/>
      <stop offset=".25" stop-color="#ffecd0"/>
      <stop offset=".5" stop-color="#ffd390"/>
      <stop offset="1" stop-color="#ffc46a"/>
    </linearGradient>
    <filter id="filter3354" height="1.044866" width="1.044866" x="-.022433" y="-.022433">
      <feGaussianBlur stdDeviation=".45754832"/>
    </filter>
    <linearGradient id="linearGradient3194" gradientTransform="matrix(.83975136 0 0 .41783313 -109.43648 -109.90811)" gradientUnits="userSpaceOnUse" x1="68.313011" x2="51.544849" y1="109.97649" y2="32.750854">
      <stop offset="0" stop-color="#f4f5f8"/>
      <stop offset="1" stop-color="#fdfdfe"/>
    </linearGradient>
    <linearGradient id="linearGradient3191" gradientUnits="userSpaceOnUse" x1="-81.43966675127" x2="-81.43966675127" xlink:href="#linearGradient3366" y1="-97.03138129896" y2="-68.23213156883"/>
    <linearGradient id="linearGradient3188" gradientUnits="userSpaceOnUse" x1="-75.27775461153" x2="-75.80090381101" y1="-66.62236301952" y2="-97.10595214095">
      <stop offset="0" stop-color="#fff" stop-opacity="0"/>
      <stop offset="1" stop-color="#fff"/>
    </linearGradient>
  </defs>
  <g transform="translate(63.668396 61.981228)">
    <path d="m340.05181 154.59069s19.96201-26.10834 44.02616-21.40049c24.06415 4.70786 53.39222 42.91041 53.39222 42.91041-8.56927 13.13901-30.05846 17.80511-46.87679 19.11375l-6.68857-1.18171c-20.82394-10.12088-36.00116-19.16003-43.85302-39.44196z" fill-rule="evenodd" filter="url(#filter3395)" opacity=".568773" transform="matrix(1.8338723 0 0 1.8338723 -649.7751 -192.30474)"/>
    <path d="m20.438369 84.983841s19.175821-26.108334 42.292212-21.400483c23.116393 4.70786 51.289399 42.910402 51.289399 42.910402-8.23178 13.13901-28.862168 17.80511-45.018109 19.11375 16.845708-.0554 39.428039 4.62034 57.842669-17.49442 0 0-30.736886-52.499807-61.633524-57.909011-30.896631-5.409204-56.3728469 35.379362-56.3728469 35.379362 9.4952189 22.763169 30.0520849 32.621109 53.7260879 38.842359-20.003794-10.12088-34.583264-19.16003-42.125888-39.441959z" fill-rule="evenodd" filter="url(#filter3223)" opacity=".360595" transform="matrix(1.9090596 0 0 1.8338723 -65.181587 -64.654676)"/>
    <path d="m-26.163514 91.194839s36.607776-47.87936 80.738354-39.245766c44.130576 8.633614 97.9145 78.692207 97.9145 78.692207-15.71492 24.09526-55.123364 32.6523-85.966034 35.05218l-12.265982-2.1671c-38.188446-18.5604-66.02153-35.13705-80.420838-72.331521z" fill="url(#radialGradient6529)" fill-rule="evenodd"/>
    <path d="m97.10755 92.428015a53.897454 46.576652 88.043614 1 1 -91.8364703 17.118395 53.897454 46.576652 88.043614 1 1 91.8364703-17.118395z" fill="url(#radialGradient6488)"/>
    <g transform="matrix(.70382226 .0871914 -.10925932 .72014646 483.37136 194.32106)">
      <path d="m-618.74997-55.593742c9.375-9.375 45.31249-35.937498 45.31249-35.937498l-42.18749 42.187497h47.65624l-49.21874 3.90625 45.31249 39.0624987-48.43749-32.8124987 17.96875 46.0937478-7.8125-57.8124978-45.3125 42.1874987 35.9375-56.2499977-3.90625 17.968749h-53.125l49.21875-13.281249-.78125 17.187499-29.6875-57.812497 37.5 54.687497-10.15625-64.062497 17.96875 60.156247 15.625-51.562497-30.46875 48.437498 54.68749-6.25-51.56249 8.593749 44.53125 17.1875-42.1875-13.28125-14.0625 41.4062487 22.65625-42.1874987-48.4375 8.59375 57.8125 2.34375z" fill="#060606" fill-rule="evenodd" filter="url(#filter3068)" opacity=".576208"/>
      <path d="m-675.78122-64.187492c9.375-9.375 45.31249-35.937498 45.31249-35.937498l-42.18749 42.187497h47.65624l-49.21874 3.90625 45.31249 39.062499-48.43749-32.812499 17.96875 46.0937481-7.8125-57.8124981-45.3125 42.187499 35.9375-56.249998-3.90625 17.968749-55.4296-18.613271 51.52335 5.332022-.78125 17.187499-29.6875-57.812497 37.5 54.687497-10.15625-64.062497 17.96875 60.156247 15.625-51.562497-30.46875 48.437498 54.68749-6.25-51.56249 8.593749 44.53125 17.1875-42.1875-13.28125-14.0625 41.406249 22.65625-42.187499-67.5863 10.635141 76.9613.302359z" fill="#d5d5d5" fill-opacity=".722543" fill-rule="evenodd" filter="url(#filter3098)" opacity=".933085" transform="matrix(-.99989801 .01428189 -.01428189 -.99989801 -1302.354197 -102.260938)"/>
      <path d="m-675.78122-64.187492c9.375-9.375 52.85724-13.590169 52.85724-13.590169l-49.73224 19.840168 51.6994 4.64305-53.2619-.7368 32.78062 49.9611671-35.90562-43.7111671 46.11396 32.554808-35.95771-44.273558-29.89574 58.88871202 20.52074-72.95121102-3.90625 17.968749-50.65989-5.16432 46.75364-8.116929-.78125 17.187499-44.62257-40.607769 52.43507 37.482769 1.78505-52.650327 6.02745 48.744077 29.13389-30.169284-43.97764 27.044285 58.73065-1.60695-55.60565 3.950699 51.49455 33.423812-49.1508-29.517562 1.45559 59.4627574 7.13816-60.2440074-39.86844 49.0534819 49.24344-38.1159819z" fill="url(#radialGradient6490)" fill-rule="evenodd" filter="url(#filter3098)" opacity=".933085" transform="matrix(-.99989801 .01428189 -.01428189 -.99989801 -1302.354197 -102.260938)"/>
      <path d="m-676.09577-56.549223c9.375-9.375 53.68975-34.927045 53.68975-34.927045l-50.2502 33.538775 57.69232-6.804075-59.25482 10.710325 50.09461 43.738004-47.74822-37.687194 20.0201 55.0933915-15.33524-66.6129515-66.7243 27.636738 55.78712-23.480132-2.34407-.250356-38.98683-53.772697 47.64518 50.830678-13.34585 6.848269 72.21757-.776839-64.40507-2.348161-10.15625-64.062497 16.50054 60.888914 5.91442-61.539954-10.63049 60.600101 39.54521-50.278761-45.07968 49.704697 67.83395 23.318163-65.4902-19.411913-28.16874 50.7464279 36.76249-51.5276779-71.01097-13.715156 79.83169 18.736597z" fill="url(#radialGradient6562)" fill-rule="evenodd" opacity=".933085" transform="matrix(-.99989801 .01428189 -.01428189 -.99989801 -1302.354197 -102.260938)"/>
      <path d="m-676.09577-56.549223c9.375-9.375 5.25822-67.244397 5.25822-67.244397l-1.81867 65.856127-61.45279-40.274008 59.89029 44.180258 36.04927 54.46965382-33.70288-48.41884382-13.57161 53.2425418 18.25647-64.7621018-66.7243 27.636738 55.78712-23.480132-2.34407-.250356-38.98683-53.772697 47.64518 50.830678-13.34585 6.848269 64.07657 16.386909-56.26407-19.511909-10.15625-64.062497 16.50054 60.888914 56.82326 4.191415-61.53933-5.131268 50.33451-36.762698-55.86898 36.188634 57.05207 37.504274-54.70832-33.598024-28.16874 50.7464279 36.76249-51.5276779-71.01097-13.715156 79.83169 18.736597z" fill="url(#radialGradient6562)" fill-rule="evenodd" opacity=".933085" transform="matrix(-.99989801 .01428189 -.01428189 -.99989801 -1302.354197 -102.260938)"/>
    </g>
    <path d="m65.714528 95.285405a18.769499 21.934402 11.189389 1 1 -37.607714 6.932405 18.769499 21.934402 11.189389 1 1 37.607714-6.932405z" fill="#393939"/>
    <path d="m75.430132 59.532389a23.684688 31.280498 87.887539 1 1 -52.594306 26.468056 23.684688 31.280498 87.887539 1 1 52.594306-26.468056z" fill="url(#linearGradient6492)"/>
    <path d="m97.10755 92.428015a53.897454 46.576652 88.043614 1 1 -91.8364703 17.118395 53.897454 46.576652 88.043614 1 1 91.8364703-17.118395z" fill="url(#radialGradient6494)" opacity=".357488"/>
    <path d="m64.640444 95.483397a17.69738 20.681502 11.189394 1 1 -35.45955 6.536423 17.69738 20.681502 11.189394 1 1 35.45955-6.536423z" fill="url(#radialGradient6496)"/>
    <path d="m55.717237 67.256091c-18.65241.459046-33.21875 19.53125-33.21875 19.53125.08683.22429.19241.43504.28125.65625 1.43813-1.82379 18.4071-22.691787 38.875-18.6875 20.519524 4.014396 45.076933 35.107429 47.062503 37.656249.12203-.17541.2583-.35232.375-.53125 0 0-26.047974-33.940397-47.437503-38.124999-2.005269-.392306-4.007941-.547488-5.9375-.5zm-43.65625 20.65625c-.04972.07477-.28125.40625-.28125.40625 8.78589 20.233139 27.81326 29.001459 49.71875 34.531249-1.498641-.72837-2.974207-1.46592-4.40625-2.1875-19.8169-5.53761-36.73628-14.29957-45.03125-32.749999zm108.531253 19.843749c-14.35911 16.2234-31.349112 15.76992-45.625003 15.28125-2.570576.36397-5.111421.65546-7.53125.84375 15.587282-.0492 36.492253 4.12556 53.531253-15.53125 0 0-.30038-.47338-.375-.59375z" fill-rule="evenodd" filter="url(#filter6459)" transform="matrix(2.063186 0 0 2.063186 -72.46131 -89.366295)"/>
    <path d="m64.40176 95.527393a17.459131 20.40308 11.189387 1 1 -34.98218 6.448427 17.459131 20.40308 11.189387 1 1 34.98218-6.448427z" fill="url(#radialGradient6498)" opacity=".603865"/>
    <path d="m326.97601 126.60685c45-60.000003 93-20 122 25-36.95421-72.017526-81-97.000003-122-25z" fill="#101010" fill-rule="evenodd" filter="url(#filter3357)" opacity=".502415" transform="matrix(1.8338723 0 0 1.8338723 -649.7751 -192.30474)"/>
    <path d="m46.605898-40.999937c-32.312616-.726776-65.02974 23.358628-96.75 79.0625 82.524254-110.032341 170.567712-36.7117516 223.750002 45.8125-39.17912-76.3535136-82.71975-123.879046-127.000002-124.875zm1.75 67.5c-53.9441843.04422-96.6875 65.8125-96.6875 65.8125 18.12693 41.744737 57.3674137 59.778517 102.5625 71.187497-38.188446-18.5604-65.97569-35.11803-80.375-72.312497 0 0 36.619424-47.883596 80.75-39.25 44.130576 8.633612 97.875002 78.687497 97.875002 78.687497-15.71494 24.09526-55.094852 32.66262-85.937502 35.0625 32.159462-.1014 75.282882 8.49316 110.437502-32.0625 0 0-58.70397-96.267713-117.687502-106.187497-3.68647-.619988-7.341222-.940448-10.9375-.9375z" fill="url(#radialGradient6515)" fill-rule="evenodd"/>
    <path d="m59.781315 50.846503c-27.838843.023762-49.906727 35.344184-49.906727 35.344184.16578.397424.350811.78044.523389 1.169929 2.673794-4.110378 26.338992-39.071966 55.017471-34.051104 28.468719 4.984138 56.486672 50.000328 60.035852 55.879528.23482-.27172.47464-.52009.70812-.80048 0 0-30.304489-51.720287-60.743972-57.049455-1.902466-.333073-3.778211-.494186-5.634133-.492602zm-40.461132 34.952299c-.204341.26338-.492602.64654-.492602.64654 6.332929 17.029098 17.707469 26.026908 33.127476 34.482128 2.736559.86973 5.532327 1.6854 8.374232 2.43222-19.268098-9.74865-33.4422-18.50222-41.009106-37.560888zm94.977407 21.835578c-8.53315 12.1356-28.152598 16.5111-43.626052 17.76446 3.842127-.0126 7.988191.23699 12.315046.33866 12.871534-2.43061 25.907426-7.42442 32.019126-17.17949 0 0-.43881-.5679-.70812-.92363z" fill="#b3b3b3" fill-rule="evenodd" filter="url(#filter3272)" transform="matrix(1.9090596 0 0 1.8338723 -65.181587 -64.654676)"/>
    <path d="m380.01351 82.723181c-.68571-.01987-1.37608.0071-2.0625.02953-13.81089.451187-27.74012 9.556006-41.375 29.237599 1.31332-1.28804 2.62216-2.52057 3.9375-3.66208 29.93366-38.598786 61.1039-27.309277 89.03125 12.75822 1.49936 1.54223 2.9593 3.13848 4.40625 4.7548-17.00302-26.545018-35.32913-42.578961-53.9375-43.118069z" fill="#c3c3c3" fill-rule="evenodd" filter="url(#filter3323)" transform="matrix(1.8338723 0 0 1.8338723 -649.7751 -192.30474)"/>
    <path clip-path="url(#clipPath6441)" d="m55.403054 66.761395c-18.65241.459046-33.21875 19.53125-33.21875 19.53125l2.15625 1.78125s16.87394-22.073956 37.21875-18.09375c20.344803 3.980214 45.124996 36.281245 45.124996 36.281245l2.09375-.875s-26.047967-33.940393-47.437496-38.124995c-2.005269-.392306-4.007941-.547488-5.9375-.5z" fill="#1f1f1f" fill-rule="evenodd" filter="url(#filter6401)" transform="matrix(2.063186 0 0 2.063186 -72.46131 -89.366295)"/>
    <path clip-path="url(#clipPath6451)" d="m54.306528 32.98125c-12.557446.111728-25.56471 6.190533-38.375 20.9375-1.63308 2.5123-3.25186 5.180866-4.875 8.03125 39.998453-53.3312759 82.660722-17.779705 108.437502 22.21875-1.71674-3.34563-3.46887-6.545361-5.21875-9.65625-16.057329-22.503312-37.281783-41.733105-59.968752-41.53125z" fill="#424242" fill-rule="evenodd" filter="url(#filter3898)" transform="matrix(2.063186 0 0 2.063186 -72.46131 -89.366295)"/>
  </g>
  <g transform="matrix(2 0 0 2 339.42736 339.80842)">
    <path d="m-90.684971-103.54036c-.617413.005-1.208516.25068-1.647467.6849l-10.051402 10.051401c-.92494.925313-.92494 2.425149 0 3.350465l15.067848 15.086365-15.067848 15.086358c-.92494.92531-.92494 2.425146 0 3.350462l10.051403 10.051402c.925312.92494 2.425149.92494 3.350468.000006l15.086357-15.067848 15.086361 15.067848c.925316.924934 2.425152.924934 3.350468-.000006l10.0514-10.051402c.924933-.925316.924933-2.425146 0-3.350468l-15.067849-15.086352 15.067855-15.086365c.924927-.925316.924927-2.425152-.000006-3.350468l-10.0514-10.051398c-.925316-.92494-2.425152-.92494-3.350468 0l-15.086361 15.067844-15.086361-15.067844c-.4526-.44783-1.066369-.69467-1.702998-.6849zm18.47385 37.558552c-.445098-.44987-1.051644-.703005-1.684491-.703005-.63284 0-1.239393.253135-1.68449.703005z" fill="url(#linearGradient3208)"/>
    <path clip-path="url(#clipPath3559)" d="m-62.57895 106.7868 26.162951-26.870061 25.809397 26.516501-25.809397-40.305083z" fill-rule="evenodd" filter="url(#filter3549)" stroke="#000" stroke-width=".493731" transform="matrix(.59234787 0 0 .59234787 -52.440727 -109.90811)"/>
    <path d="m31.7 16 2.875-3.375c-1.051205-1.695758-3.935136-2.288018-5.9375-.3125l2.8125 3.375z" fill="url(#linearGradient9397)" fill-rule="evenodd" filter="url(#filter3477)" opacity=".498127" transform="matrix(0 1.1042792 -1.1042792 0 -33.434901 -92.496543)"/>
    <path d="m31.7 16 2.875-3.375c-1.051205-1.695758-3.935136-2.288018-5.9375-.3125l2.8125 3.375z" fill="url(#linearGradient9397)" fill-rule="evenodd" filter="url(#filter3477)" opacity=".790262" transform="matrix(1.090564 0 0 -1.090564 -125.13225 -33.668145)"/>
    <path d="m31.7 16 2.875-3.375c-1.051205-1.695758-3.935136-2.288018-5.9375-.3125l2.8125 3.375z" fill="url(#linearGradient5179)" fill-rule="evenodd" filter="url(#filter3477)" opacity=".498127" transform="matrix(0 .9999793 .9999793 0 -113.24523 -89.210691)"/>
    <path d="m-57.141486-99.027626-16.754126 16.754124-16.754125-16.754122-7.906265 7.906265 16.754125 16.754124-16.75413 16.754129 7.90627 7.90626 16.754125-16.754123 16.754126 16.754123 7.906261-7.906266-16.754127-16.754123 16.754127-16.754124z" fill="url(#linearGradient3200)" opacity=".921348"/>
    <path d="m88.7 16 2.875-3.375c-1.051205-1.695758-3.935136-2.288018-5.9375-.3125l2.8125 3.375z" fill="url(#linearGradient5130)" fill-rule="evenodd" filter="url(#filter3477)" opacity=".790262" transform="matrix(.9999793 0 0 -.9999793 -145.51347 -34.523814)"/>
    <path clip-path="url(#clipPath3559)" d="m-62.57895 106.7868 26.162951-26.870061 25.809397 26.516501-25.809397-40.305083z" fill="url(#radialGradient5265)" fill-rule="evenodd" filter="url(#filter3549)" transform="matrix(.59234787 0 0 -.59234787 -52.440727 -39.105711)"/>
    <path d="m31.7 16 2.875-3.375c-1.051205-1.695758-3.935136-2.288018-5.9375-.3125l2.8125 3.375z" fill="url(#linearGradient5120)" fill-rule="evenodd" filter="url(#filter3477)" opacity=".790262" transform="matrix(.90939458 0 0 .90939458 -119.4247 -112.90295)"/>
    <path d="m88.7 16 2.875-3.375c-1.051205-1.695758-3.935136-2.288018-5.9375-.3125l2.8125 3.375z" fill="url(#linearGradient5126)" fill-rule="evenodd" filter="url(#filter3477)" opacity=".790262" transform="matrix(.9336354 0 0 .9336354 -139.64177 -113.13194)"/>
    <path d="m88.284271 18.368396-28.284271 28.28427-28.284271-28.28427-13.347333 13.347333 28.28427 28.284271-28.28427 28.284271 13.347333 13.347339 28.284271-28.284276 28.284271 28.284276 13.347339-13.347339-28.284276-28.284271 28.284276-28.284271z" style="opacity:.921348;fill:none;stroke-width:1.53953;stroke-linecap:round;stroke-linejoin:round;stroke-dashoffset:1.0878;stroke:url(#linearGradient5100);filter:url(#filter3354)" transform="matrix(.59234787 0 0 .59234787 -109.43648 -109.90811)"/>
    <path d="m-90.658718-99.065732-.44426.444261-7.46093 7.460929 7.757102-7.164757 16.911997 16.053554 16.592683-16.053553 6.646452 6.646454c-.05812.300641-.136614.592236-.222135.888517l-7.201249 8.38595c-6.49469 3.237857-15.550664 6.431655-25.2869 6.441784l.166595.166592c.279342.003.55213.01854.832993.01854 9.765457 0 16.48042-2.01103 22.991546-5.257088l9.570648-9.570646c.0394-.136523.07595-.271367.111068-.40724.0411-.158999.07972-.319165.111067-.481283l-7.571999-7.571992-.444258.444261-16.296511 16.349726z" fill="url(#linearGradient3194)"/>
    <path d="m-90.647952-99.024763-7.905189 7.905191 15.364549 15.364547c.279336.003.552125.01848.832988.01848 9.765458 0 16.480421-2.011036 22.991547-5.257088l9.570654-9.570639c.08552-.296288.163997-.587882.222129-.888529l-7.571999-7.571964-16.752339 16.752337z" fill="url(#linearGradient3191)"/>
    <path d="m-90.658718-99.065732-.44426.444261-7.46093 7.460929 7.757102-7.164757 16.915888 17.171076-.0036-1.117522.0061 1.10892 16.586793-17.162473 6.646458 6.646454c-.05812.300641-.136614.592236-.222136.888517l-7.201249 8.38595c-6.494696 3.237857-15.550663 6.431655-25.2869 6.441784l.166595.166592c.279342.003.55213.01854.832993.01854 9.765458 0 16.48042-2.01103 22.991547-5.257088l9.570636-9.570646c.03939-.136523.07595-.271367.111067-.40724.0411-.158999.07972-.319165.111068-.481283l-7.571999-7.571992-.444259.444261-16.296511 16.349726z" fill="url(#linearGradient3188)"/>
  </g>
</svg>
