<svg height="256" width="256" xmlns="http://www.w3.org/2000/svg" xmlns:xlink="http://www.w3.org/1999/xlink">
  <defs>
    <linearGradient id="linearGradient7912" gradientTransform="matrix(.242914 0 0 .351321 -7.762237 -169.08361)" gradientUnits="userSpaceOnUse" x1="399.77466" x2="399.77466" y1="727.07941" y2="480.60214">
      <stop offset="0" stop-color="#cbcbcd"/>
      <stop offset=".5" stop-color="#e0e0e2"/>
      <stop offset="1" stop-color="#f2f2f2"/>
    </linearGradient>
    <linearGradient id="linearGradient12912" gradientTransform="matrix(2.371406 0 0 2.3714056 -2274.542 1186.9429)" gradientUnits="userSpaceOnUse" x1="1055.3002" x2="1055.3002" y1="-473.54486" y2="-483.66544">
      <stop offset="0" stop-color="#2bc50f"/>
      <stop offset="1" stop-color="#b9ffb4"/>
    </linearGradient>
    <filter id="filter4400" height="1.055767" width="1.047076" x="-.023538" y="-.027883">
      <feGaussianBlur stdDeviation="1.177891"/>
    </filter>
    <linearGradient id="linearGradient2194" gradientTransform="matrix(2.371406 0 0 2.3714056 -2306.542 1186.9429)" gradientUnits="userSpaceOnUse" x1="1055.3002" x2="1055.3002" y1="-473.54486" y2="-483.66544">
      <stop offset="0" stop-color="#e3ba0e"/>
      <stop offset="1" stop-color="#fff3ca"/>
    </linearGradient>
    <linearGradient id="linearGradient2213" gradientTransform="matrix(2.371406 0 0 2.3714056 -2338.542 1186.9429)" gradientUnits="userSpaceOnUse" x1="1055.3002" x2="1055.3002" y1="-473.54486" y2="-483.66544">
      <stop offset="0" stop-color="#df0000"/>
      <stop offset="1" stop-color="#ffc7c7"/>
    </linearGradient>
    <linearGradient id="linearGradient2219" gradientTransform="matrix(2.371406 0 0 2.3714056 -2466.542 1186.9429)" gradientUnits="userSpaceOnUse" x1="1055.3002" x2="1055.3002" y1="-473.54486" y2="-481.76657">
      <stop offset="0" stop-color="#656565"/>
      <stop offset="1" stop-color="#fff"/>
    </linearGradient>
    <filter id="filter2275" color-interpolation-filters="sRGB" height="1.105069" width="1.088372" x="-.044186" y="-.052535">
      <feGaussianBlur stdDeviation="2.160153"/>
    </filter>
    <filter id="filter2281" color-interpolation-filters="sRGB" height="1.096" width="1.096" x="-.048" y="-.048">
      <feGaussianBlur stdDeviation=".23999996"/>
    </filter>
    <linearGradient id="linearGradient4222">
      <stop offset="0" stop-color="#fff"/>
      <stop offset="1" stop-color="#fff" stop-opacity="0"/>
    </linearGradient>
    <linearGradient id="linearGradient4284-6" gradientTransform="matrix(1.2499998 0 0 1.2499998 292.33017 207.43877)" gradientUnits="userSpaceOnUse" x1="-13.757333" x2="-62.424866" xlink:href="#XMLID_4_-3" y1="76.708466" y2="104.80668"/>
    <radialGradient id="XMLID_4_-3" cx="48" cy="-.2148" gradientTransform="matrix(.9792 0 0 .9725 133.0002 20.8762)" gradientUnits="userSpaceOnUse" r="55.147999">
      <stop offset="0" stop-color="#72d13d"/>
      <stop offset=".3553" stop-color="#35ac1c"/>
      <stop offset=".6194" stop-color="#0f9508"/>
      <stop offset=".7574" stop-color="#008c00"/>
      <stop offset="1" stop-color="#007a00"/>
    </radialGradient>
    <linearGradient id="linearGradient5574" gradientUnits="userSpaceOnUse" spreadMethod="reflect" x1="73.742638" x2="80" xlink:href="#linearGradient4222" y1="15.336544" y2="19.281664"/>
    <filter id="filter3387-7" height="1.189411" width="1.172683" x="-.086341" y="-.094706">
      <feGaussianBlur stdDeviation=".44655691"/>
    </filter>
    <linearGradient id="linearGradient4420" gradientTransform="scale(1.039383 .9621093)" gradientUnits="userSpaceOnUse" x1="64.341988" x2="76.284439" y1="18.50366" y2="18.50366">
      <stop offset="0" stop-color="#fff"/>
      <stop offset="1" stop-color="#252525" stop-opacity="0"/>
    </linearGradient>
    <radialGradient id="radialGradient4275-6" cx="237.3301788" cy="312.4387532" fx="217.330182" fy="332.43875" gradientUnits="userSpaceOnUse" r="29.9999952">
      <stop offset="0" stop-opacity=".779026"/>
      <stop offset="1" stop-opacity="0"/>
    </radialGradient>
    <radialGradient id="radialGradient4271-1" cx="-44" cy="84" fx="-40" fy="96" gradientTransform="matrix(1.2499998 0 0 1.2499998 292.33017 207.43877)" gradientUnits="userSpaceOnUse" r="20" xlink:href="#XMLID_4_-3"/>
    <linearGradient id="linearGradient4268-2" gradientUnits="userSpaceOnUse" x1="228.57211266379" x2="228.57211266379" y1="283.11288664214" y2="342.45174839792">
      <stop offset="0" stop-color="#cbff9c"/>
      <stop offset="1" stop-color="#65c171" stop-opacity="0"/>
    </linearGradient>
    <linearGradient id="linearGradient4265-9" gradientUnits="userSpaceOnUse" x1="222.33016241047" x2="228.55944266379" xlink:href="#linearGradient4222" y1="272.4387596" y2="327.44054329971"/>
    <linearGradient id="linearGradient4262-3" gradientUnits="userSpaceOnUse" x1="247.33015966047" x2="232.33016081047" xlink:href="#linearGradient4222" y1="327.4387508" y2="297.4387556"/>
    <linearGradient id="linearGradient4259-6" gradientUnits="userSpaceOnUse" x1="61.622575" x2="62.09794" xlink:href="#linearGradient4222" y1="57.512504" y2="85.106242"/>
    <filter id="filter3191-0" height="1.0368" width="1.0368" x="-.0184" y="-.0184">
      <feGaussianBlur stdDeviation=".2025"/>
    </filter>
  </defs>
  <path d="m87.62845 247.5457c-1.303794 0-2.6666 1.0425-2.6666 2.6666v93.3517c0 1.62218 1.375348 2.6666 2.6666 2.6666h111.9972c1.478 0 2.6666-1.2163 2.6666-2.6666v-93.3517c0-1.49059-1.20393-2.6666-2.6666-2.6666zm1.96875 2.67187 108.0597.0336c1.09166 0 1.96875 1.02406 1.96875 2.29688l.026 88.71912c0 1.2728-.87709 2.29687-1.96875 2.29687l-108.0857.0416c-1.091657 0-1.96875-1.02407-1.96875-2.29687v-88.79428c0-1.27282.877093-2.29688 1.96875-2.29688z" fill="#fff" filter="url(#filter2275)" transform="matrix(2 0 0 2 -159.2541 -465.77629)"/>
  <rect filter="url(#filter4400)" height="101.384" opacity=".4" rx="3.595974" transform="matrix(2 0 0 2.0071684 -159.2541 -460.29154)" width="120.1011" x="83.54525" y="242.45522"/>
  <rect fill="url(#linearGradient7912)" height="197.3284" rx="5.385861" width="234.6608" x="10.669606" y="29.315123"/>
  <use transform="translate(32)" xlink:href="#use2287"/>
  <ellipse cx="228.00325" cy="51.975983" fill="url(#linearGradient12912)" rx="11.999999" ry="11.999997"/>
  <use id="use2287" transform="translate(32)" xlink:href="#use2285"/>
  <ellipse cx="196.00325" cy="51.975983" fill="url(#linearGradient2194)" rx="11.999999" ry="11.999997"/>
  <use id="use2285" transform="translate(128)" xlink:href="#ellipse2279"/>
  <ellipse cx="164.00327" cy="51.975983" fill="url(#linearGradient2213)" rx="11.999999" ry="11.999997"/>
  <ellipse id="ellipse2279" cx="97.628677" cy="258.87613" filter="url(#filter2281)" rx="6" ry="5.999999" transform="matrix(2 0 0 2 -159.2541 -465.77629)"/>
  <ellipse cx="36.003246" cy="51.975983" fill="url(#linearGradient2219)" rx="11.999999" ry="11.999997"/>
  <path d="m14.669599 87.98031h226.660801v134.6632h-226.660801z" fill="#fff" opacity=".6"/>
  <path d="m16.002799 29.31511c-2.607588 0-5.3332 2.085-5.3332 5.3332v186.7034c0 3.24436 2.750696 5.3332 5.3332 5.3332h223.994401c2.956 0 5.3332-2.4326 5.3332-5.3332v-186.7034c0-2.98118-2.40786-5.3332-5.3332-5.3332zm3.9375 5.34374 216.119401.0672c2.18332 0 3.9375 2.04812 3.9375 4.59376l.052 177.43824c0 2.5456-1.75418 4.59374-3.9375 4.59374l-216.171401.0832c-2.183314 0-3.9375-2.04814-3.9375-4.59374v-177.58856c0-2.54564 1.754186-4.59376 3.9375-4.59376z" fill="#fff"/>
  <g transform="matrix(2 0 0 2 -286 -436.26083)">
    <path d="m234.90829 282.43876c-4.1469 0-7.57812 3.43122-7.57812 7.57812v12.42188h-12.42188c-4.1469 0-7.57812 3.43122-7.57812 7.57812v4.84375c0 4.14691 3.43122 7.57812 7.57812 7.57812h12.42188v12.42188c0 4.1469 3.43122 7.57813 7.57812 7.57813h4.84375c4.1469 0 7.57813-3.43123 7.57813-7.57813v-12.42188h12.42187c4.14691 0 7.57813-3.43121 7.57813-7.57812v-4.84375c0-4.14691-3.43122-7.57812-7.57813-7.57812h-12.42187v-12.42188c0-4.1469-3.43123-7.57812-7.57813-7.57812z" fill="url(#linearGradient4284-6)"/>
    <path d="m69.875971 12.057888c-1.077088.06528-2.528221.219164-3 .9375l1.589684 11.138061 10.534345-.759359v-.46875c1.740958-2.57016-4.780448-10.906792-9.124029-10.847452z" fill="url(#linearGradient5574)" fill-rule="evenodd" filter="url(#filter3387-7)" transform="matrix(-.62499995 0 0 .62499995 277.33017 275.38772)"/>
    <path d="m69.875971 12.057888c-1.077088.06528-2.528221.219164-3 .9375l1.296715 8.794311 10.827314 1.584391v-.46875c1.740958-2.57016-4.780448-10.906792-9.124029-10.847452z" fill="url(#linearGradient5574)" fill-rule="evenodd" filter="url(#filter3387-7)" transform="matrix(.62499995 0 0 .62499995 197.7747 275.38772)"/>
    <path d="m69.875971 12.057888c-1.077088.06528-2.528221.219164-3 .9375l2.175622 10.747436 9.948407-.368734v-.46875c1.740958-2.57016-4.780448-10.906792-9.124029-10.847452z" fill="url(#linearGradient5574)" fill-rule="evenodd" filter="url(#filter3387-7)" opacity=".681648" transform="matrix(-.62499995 0 0 -.62499995 277.33017 349.97473)"/>
    <path d="m69.875971 12.057888c-1.077088.06528-2.528221.219164-3 .9375l.90609 10.552124 11.217939-.173422v-.46875c1.740958-2.57016-4.780448-10.906792-9.124029-10.847452z" fill="url(#linearGradient4420)" fill-rule="evenodd" filter="url(#filter3387-7)" opacity=".707865" transform="matrix(.62499995 0 0 -.62499995 197.77471 349.97473)"/>
    <path d="m69.875971 12.057888c-1.077088.06528-2.528221.219164-3 .9375l1.589684 11.138061 10.534345-.759359v-.46875c1.740958-2.57016-4.780448-10.906792-9.124029-10.847452z" fill="url(#linearGradient5574)" fill-rule="evenodd" filter="url(#filter3387-7)" opacity=".550562" transform="matrix(.62499995 0 0 .62499995 217.7747 294.90278)"/>
    <path d="m234.90829 282.43876c-4.1469 0-7.57812 3.43122-7.57812 7.57812v12.42188h-12.42188c-4.1469 0-7.57812 1.56738-7.57812 5.71429 0-1.18285 0 4.23891 0 6.70758 0 4.14691 3.43122 7.57812 7.57812 7.57812h12.42188v12.42188c0 4.1469 3.43122 7.57813 7.57812 7.57813h4.84375c4.14691 0 7.57813-3.43123 7.57813-7.57813v-12.42188h12.42187c4.14691 0 7.57813-3.43121 7.57813-7.57812v-4.84375c0-4.14691-3.43122-7.57812-7.57813-7.57812h-12.42187v-12.42188c0-4.1469-3.43122-7.57812-7.57813-7.57812z" fill="url(#radialGradient4275-6)" opacity=".580524"/>
    <path d="m69.875971 12.057888c-1.077088.06528-2.528221.219164-3 .9375l1.589684 11.138061 10.534345-.759359v-.46875c1.740958-2.57016-4.780448-10.906792-9.124029-10.847452z" fill="url(#linearGradient5574)" fill-rule="evenodd" filter="url(#filter3387-7)" opacity=".550562" transform="matrix(-.62499995 0 0 .62499995 256.88562 294.90278)"/>
    <path d="m234.90829 287.43876c-1.41746 0-2.57812 1.16066-2.57812 2.57812v17.42188h-17.42188c-1.41746 0-2.57812 1.16066-2.57812 2.57812v4.84375c0 1.41746 1.16066 2.57812 2.57812 2.57812h17.42188v17.42188c0 1.41747 1.16066 2.57813 2.57812 2.57813h4.84375c1.41747 0 2.57813-1.16066 2.57813-2.57813v-17.42188h17.42187c1.41747 0 2.57813-1.16066 2.57813-2.57812v-4.84375c0-1.41746-1.16066-2.57812-2.57813-2.57812h-17.42187v-17.42188c0-1.41746-1.16066-2.57812-2.57813-2.57812z" fill="url(#radialGradient4271-1)"/>
    <path d="m234.90829 287.43876c-1.41746 0-2.57812 1.16066-2.57812 2.57812v17.42188h-17.42188c-1.41746 0-2.57812 1.16066-2.57812 2.57812v4.84375c0 .13725.0572.25902.0781.39063 4.07211.58695 8.36418.9375 12.8125.9375 14.37696 0 27.2573-3.28729 35.74219-8.4375-.36155-.19394-.77418-.3125-1.21094-.3125h-17.42188v-17.42188c0-1.41746-1.16066-2.57812-2.57812-2.57812z" fill="url(#linearGradient4268-2)"/>
    <path d="m234.90829 287.43876c-1.41746 0-2.57812 1.16066-2.57812 2.57812v1.25c0-1.41746 1.66066-3.32812 3.07812-3.32812h4.84376c.35436 0 .70748.0643 1.01562.19531.13782.3119.60937 1.40573.60937 1.76562l.45313 17.53907.039-17.42188c0-.71953-.30132-1.36697-.78125-1.83594-.10971-.10971-.22378-.22377-.35156-.3125-.01-.007-.0293.006-.0391 0-.1276-.0864-.24834-.17158-.39062-.23437-.0108-.005-.0281.005-.0391 0-.14324-.0609-.31388-.12203-.46874-.15625-.0128-.002-.0262.002-.0391 0-.15458-.0319-.30568-.0365-.46875-.0391h-.0391-.58594zm-20 20c-1.41746 0-2.57812 1.16066-2.57812 2.57812v1.25c0-1.41746 1.16066-3.32812 2.57812-3.32812l17.42188-.5zm27.42188 0 17.1997.63965c-8.44899 4.53387-22.27807 7.99317-35.63721 7.99316-2.22416 0-4.42442-.11244-6.56249-.27344 2.57549.23365 5.22426.39063 7.92969.39063 13.46257 0 25.60468-2.90464 34.0625-7.5.01-.005.0291.005.039 0 .5532-.30154 1.08078-.6214 1.60156-.9375-.17038-.0914-.35662-.18098-.54687-.23438-.0125-.004-.0265.003-.039 0-.19047-.0506-.38172-.0747-.58594-.0781h-.039-.58594z" fill="url(#linearGradient4265-9)"/>
    <path d="m234.90829 287.43876c-1.41746 0-2.57812 1.16066-2.57812 2.57812v1.25c0-1.41746 1.66066-3.32812 3.07812-3.32812h4.84376c.35436 0 .70748.0643 1.01562.19531.13782.3119.60937 1.40573.60937 1.76562l.45313 17.53907.039-17.42188c0-.71953-.30132-1.36697-.78125-1.83594-.10971-.10971-.22378-.22377-.35156-.3125-.01-.007-.0293.006-.0391 0-.1276-.0864-.24834-.17158-.39062-.23437-.0108-.005-.0281.005-.0391 0-.14324-.0609-.31388-.12203-.46874-.15625-.0128-.002-.0262.002-.0391 0-.15458-.0319-.30568-.0365-.46875-.0391h-.0391-.58594zm-20 20c-1.41746 0-2.57812 1.16066-2.57812 2.57812v1.25c0-1.41746 1.16066-3.32812 2.57812-3.32812l17.42188-.5zm27.42188 0 17.32177.63965c-8.44898 4.53387-22.40014 7.99317-35.75927 7.99316-2.22416 0-4.42443-.11244-6.5625-.27344 2.57549.23365 5.22426.39063 7.92969.39063 13.46257 0 25.60468-2.90464 34.0625-7.5.01-.005.0291.005.039 0 .5532-.30154 1.08078-.6214 1.60156-.9375-.17038-.0914-.35662-.18098-.54687-.23438-.0125-.004-.0265.003-.039 0-.19047-.0506-.38172-.0747-.58593-.0781h-.039-.58594z" fill="url(#linearGradient4262-3)"/>
    <path d="m62.0625 43.999992c-1.13397 0-2.062504.928531-2.062504 2.0625v13.9375h-13.9375c-1.133969 0-2.0625.928528-2.0625 2.062498v3.875c0 1.13397.928531 2.0625 2.0625 2.0625h13.9375v13.93751c0 1.13397.928534 2.0625 2.062504 2.0625h3.875c1.13397 0 2.0625-.92853 2.0625-2.0625v-13.93751h13.9375c1.13397 0 2.0625-.92853 2.0625-2.0625v-3.875c0-1.13397-.92853-2.062498-2.0625-2.062498h-13.9375v-13.9375c0-1.133969-.92853-2.0625-2.0625-2.0625z" style="fill:none;stroke-width:.5;stroke-linecap:round;stroke-linejoin:round;stroke-dashoffset:1.0878;stroke:url(#linearGradient4259-6);filter:url(#filter3191-0)" transform="matrix(1.2499998 0 0 1.2499998 157.33018 232.43878)"/>
  </g>
</svg>
