<svg height="256" width="256" xmlns="http://www.w3.org/2000/svg" xmlns:xlink="http://www.w3.org/1999/xlink">
  <defs>
    <linearGradient id="linearGradient3327">
      <stop offset="0" stop-color="#fff"/>
      <stop offset="1" stop-color="#fff" stop-opacity="0"/>
    </linearGradient>
    <filter id="filter3681" height="1.157943" width="1.244782" x="-.122391" y="-.078971">
      <feGaussianBlur stdDeviation=".321914"/>
    </filter>
    <filter id="filter3722" height="1.598266" width="1.90393" x="-.451965" y="-.299133">
      <feGaussianBlur stdDeviation="1.3476562"/>
    </filter>
    <filter id="filter3435" height="1.030587" width="1.042437" x="-.02247" y="-.015293">
      <feGaussianBlur stdDeviation=".395"/>
    </filter>
    <filter id="filter3467" height="1.029683" width="1.045411" x="-.022705" y="-.014847">
      <feGaussianBlur stdDeviation=".4349886"/>
    </filter>
    <radialGradient id="radialGradient4035" cx="71.775223" cy="16.0865" gradientTransform="matrix(.9650814 .2619502 -.9201984 3.3902106 17.309062 -57.693239)" gradientUnits="userSpaceOnUse" r="3.15625">
      <stop offset="0" stop-color="#f0ff80"/>
      <stop offset="1" stop-color="#f0ff80" stop-opacity="0"/>
    </radialGradient>
    <radialGradient id="radialGradient4037" cx="11.578125" cy="64.53125" gradientTransform="matrix(6.5079869 0 0 1.510917 -63.772161 -32.970115)" gradientUnits="userSpaceOnUse" r="3.578125" xlink:href="#linearGradient3327"/>
    <radialGradient id="radialGradient4088" cx="71.775223" cy="16.0865" gradientTransform="matrix(.9650814 .2619502 -.9201984 3.3902106 9.309062 -57.693239)" gradientUnits="userSpaceOnUse" r="3.15625" xlink:href="#linearGradient3327"/>
    <linearGradient id="linearGradient3296" gradientUnits="userSpaceOnUse" x1="258.8274845" x2="258.8274845" y1="212.648984" y2="101.141912">
      <stop offset="0" stop-color="#002a0d"/>
      <stop offset="1" stop-color="#002a0d" stop-opacity="0"/>
    </linearGradient>
    <linearGradient id="linearGradient3310" gradientUnits="userSpaceOnUse" x1="215.707406" x2="177.6067115" y1="217.615289" y2="75.421556">
      <stop offset="0" stop-color="#0f0"/>
      <stop offset="1" stop-color="#004d00"/>
    </linearGradient>
    <radialGradient id="radialGradient3312" cx="47.934944" cy="77.572655" fx="48.230755" fy="84.389229" gradientTransform="matrix(2.1644844 .00000012 -.00000011 2.0779052 68.719931 -15.155374)" gradientUnits="userSpaceOnUse" r="50">
      <stop offset="0" stop-color="#0d0"/>
      <stop offset="1" stop-color="#000e00"/>
    </radialGradient>
    <linearGradient id="linearGradient3314" gradientUnits="userSpaceOnUse" x1="115.785248" x2="115.992706" y1="112.5" y2="44.287056">
      <stop offset="0" stop-color="#e0ffe0"/>
      <stop offset="1" stop-color="#bfffbf" stop-opacity="0"/>
    </linearGradient>
    <linearGradient id="linearGradient3316" gradientUnits="userSpaceOnUse" x1="143.712143" x2="160.405961" y1="49.2268565" y2="138.24878">
      <stop offset="0" stop-color="#bfffbf"/>
      <stop offset="1" stop-color="#bfffbf" stop-opacity="0"/>
    </linearGradient>
    <linearGradient id="linearGradient3344" gradientUnits="userSpaceOnUse" x1="174.2678" x2="141.7859315" xlink:href="#linearGradient3327" y1="132.86438" y2="92.2649765"/>
    <linearGradient id="linearGradient3356" gradientUnits="userSpaceOnUse" x1="154.0905215" x2="160.405961" xlink:href="#linearGradient3327" y1="52.8898145" y2="138.24878"/>
  </defs>
  <path d="m63.875 12c-.865503.02693-1.698899.33398-2.375.875l-60 48c-.949856.75913-1.5 1.90906-1.5 3.125s.550144 2.36587 1.5 3.125l60 48c1.200963.96113 2.832437 1.13525 4.21875.46875 1.386317-.6665 2.281892-2.05554 2.28125-3.59375v-17.28125-61.4375-17.28125c.000417-1.08285-.441373-2.12118-1.21875-2.875s-1.823927-1.15873-2.90625-1.125z" style="opacity:.536946;fill:#004d00;fill-rule:evenodd;stroke:#004d00;stroke-linejoin:round;filter:url(#filter3467)" transform="matrix(1.5 0 0 1.5 78.2678 32.007164)"/>
  <path d="m174.0803 50.007164c-1.29825.04039-2.54835.50097-3.5625 1.3125l-90 71.999996c-1.424784 1.1387-2.25 2.86359-2.25 4.6875s.825216 3.54881 2.25 4.6875l90 72c1.80144 1.4417 4.24866 1.70288 6.32812.70313 2.07948-.99975 3.42284-3.08331 3.42188-5.39063v-25.92187-15.375-.89063-8.71875-42.1875-7.406246-2.203125-15.375-25.921875c.00063-1.624275-.66206-3.18177-1.82813-4.3125-1.16606-1.13073-2.73589-1.738095-4.35937-1.6875zm-5.8125 18.46875v23.0625l-8.10938 6.46875h-14.39062c-.831 0-1.5.669-1.5 1.5v11.203126l-15.75 12.60937c-1.42478 1.1387-2.25 2.86359-2.25 4.6875s.82522 3.54881 2.25 4.6875l15.75 12.60938v12.51562c0 .831.669 1.5 1.5 1.5h16.03125l6.46875 5.15625v23.0625l-74.390625-59.53125zm-24 57.609376v3.84375l-2.39063-1.92188z" fill="url(#linearGradient3310)" fill-rule="evenodd"/>
  <path d="m174.0803 50.007164c-1.29825.04039-2.54835.50097-3.5625 1.3125l-90 71.999996c-1.424784 1.1387-2.25 2.86359-2.25 4.6875s.825216 3.54881 2.25 4.6875l90 72c1.80144 1.4417 4.24866 1.70288 6.32812.70313 2.07948-.99975 3.42284-3.08331 3.42188-5.39063v-25.92187-15.375-.89063-1.03125-7.6875-42.1875-7.406246-.28125-1.921875-15.375-25.921875c.00063-1.624275-.66206-3.18177-1.82813-4.3125-1.16606-1.13073-2.73589-1.738095-4.35937-1.6875zm-5.8125 18.46875v23.0625l-8.10938 6.46875h-14.39062c-.831 0-1.5.669-1.5 1.5v11.203126l-15.75 12.60937c-1.42478 1.1387-2.25 2.86359-2.25 4.6875s.82522 3.54881 2.25 4.6875l15.75 12.60938v12.51562c0 .831.669 1.5 1.5 1.5h16.03125l6.46875 5.15625v23.0625l-74.390625-59.53125zm-24 57.609376v3.84375l-2.39063-1.92188z" fill="url(#linearGradient3296)" fill-rule="evenodd" opacity=".536946"/>
  <path d="m174.2678 56.007164-90 71.999996 90 72v-38.39062-67.218751z" fill="url(#radialGradient3312)" fill-rule="evenodd"/>
  <path d="m64 16-60 48 60 48v-25.59375-44.8125z" fill="none" filter="url(#filter3435)" stroke="url(#linearGradient3314)" stroke-width=".5" transform="matrix(1.5 0 0 1.5 78.2678 32.007164)"/>
  <path d="m63.875 12c-.799041.02487-1.572946.283948-2.21875.75l.96875 9.03125 5.34375-6.15625c-.08779-.946211-.499493-1.832841-1.1875-2.5-.777377-.75382-1.823927-1.158727-2.90625-1.125z" fill="url(#radialGradient4088)" fill-rule="evenodd" filter="url(#filter3681)" opacity=".85" transform="matrix(1.5 0 0 1.5 78.2678 32.007164)"/>
  <path d="m71.875 12c-.799041.02487-1.572946.283948-2.21875.75l.96875 9.03125 5.34375-6.15625c-.08779-.946211-.499493-1.832841-1.1875-2.5-.777377-.75382-1.823927-1.158727-2.90625-1.125z" fill="url(#radialGradient4035)" fill-rule="evenodd" filter="url(#filter3681)" opacity=".35" transform="matrix(1.5 0 0 -1.5 66.2678 223.67611)"/>
  <path d="m11.6875 59.125-2.1875 1.75c-.9498559.759129-1.5 1.909063-1.5 3.125.0000001 1.215937.5501441 2.365871 1.5 3.125l3.53125 2.8125 2.125-5.625z" fill="url(#radialGradient4037)" fill-rule="evenodd" filter="url(#filter3722)" opacity=".5" transform="matrix(1.5 0 0 -1.5 66.2678 224.85091)"/>
  <path d="m174.2678 56.007164-89.71875 71.765626c12.077011.48757 24.48892.75 37.07812.75 18.0837 0 35.68844-.55249 52.64063-1.54688v-32.578121z" fill="url(#linearGradient3316)" fill-rule="evenodd"/>
  <path d="m174.2678 56.007164-.51563.421875v37.640625 32.296876c-16.85847.98602-34.32878 1.54687-52.3125 1.54687-12.25988 0-24.366065-.23877-36.14062-.70312l-.75.5625c12.077011.48757 24.48892.75 37.07812.75 18.0837 0 35.68844-.55249 52.64063-1.54688v-32.578121z" fill="url(#linearGradient3344)" fill-rule="evenodd"/>
  <path d="m174.2678 56.007164-89.71875 71.765626 89.34375-70.406251v37.6875 31.921871c.12348-.007.25158.007.375 0v-32.578121z" fill="url(#linearGradient3356)" fill-rule="evenodd"/>
</svg>
