<svg height="256" width="256" xmlns="http://www.w3.org/2000/svg" xmlns:xlink="http://www.w3.org/1999/xlink">
  <defs>
    <linearGradient id="linearGradient3327">
      <stop offset="0" stop-color="#fff"/>
      <stop offset="1" stop-color="#fff" stop-opacity="0"/>
    </linearGradient>
    <filter id="filter3681" height="1.157943" width="1.244782" x="-.122391" y="-.078971">
      <feGaussianBlur stdDeviation=".321914"/>
    </filter>
    <filter id="filter3722" height="1.598266" width="1.90393" x="-.451965" y="-.299133">
      <feGaussianBlur stdDeviation="1.3476562"/>
    </filter>
    <filter id="filter3435" height="1.030587" width="1.042437" x="-.02247" y="-.015293">
      <feGaussianBlur stdDeviation=".395"/>
    </filter>
    <filter id="filter3467" height="1.029683" width="1.045411" x="-.022705" y="-.014847">
      <feGaussianBlur stdDeviation=".4349886"/>
    </filter>
    <radialGradient id="radialGradient4035" cx="71.775223" cy="16.0865" gradientTransform="matrix(.9650814 .2619502 -.9201984 3.3902106 17.309062 -57.693239)" gradientUnits="userSpaceOnUse" r="3.15625">
      <stop offset="0" stop-color="#f0ff80"/>
      <stop offset="1" stop-color="#f0ff80" stop-opacity="0"/>
    </radialGradient>
    <radialGradient id="radialGradient4037" cx="11.578125" cy="64.53125" gradientTransform="matrix(6.5079869 0 0 1.510917 -63.772161 -32.970115)" gradientUnits="userSpaceOnUse" r="3.578125" xlink:href="#linearGradient3327"/>
    <radialGradient id="radialGradient4088" cx="71.775223" cy="16.0865" gradientTransform="matrix(.9650814 .2619502 -.9201984 3.3902106 9.309062 -57.693239)" gradientUnits="userSpaceOnUse" r="3.15625" xlink:href="#linearGradient3327"/>
    <linearGradient id="linearGradient3296" gradientTransform="matrix(0 -1.5 1.5 0 32.007165 141.7322)" gradientUnits="userSpaceOnUse" x1="96.373123" x2="96.373123" y1="120.42788" y2="46.089832">
      <stop offset="0" stop-color="#002a0d"/>
      <stop offset="1" stop-color="#002a0d" stop-opacity="0"/>
    </linearGradient>
    <linearGradient id="linearGradient3310" gradientTransform="matrix(0 -1.5 1.5 0 32.007165 147.7322)" gradientUnits="userSpaceOnUse" x1="71.626404" x2="46.225941" y1="123.73875" y2="28.942928">
      <stop offset="0" stop-color="#0f0"/>
      <stop offset="1" stop-color="#004d00"/>
    </linearGradient>
    <radialGradient id="radialGradient3312" cx="47.934944" cy="77.572655" fx="48.230755" fy="84.389229" gradientTransform="matrix(.00000012 -2.1644844 2.0779052 .00000011 -15.155373 187.28007)" gradientUnits="userSpaceOnUse" r="50">
      <stop offset="0" stop-color="#0d0"/>
      <stop offset="1" stop-color="#000e00"/>
    </radialGradient>
    <linearGradient id="linearGradient3314" gradientUnits="userSpaceOnUse" x1="115.785248" x2="115.992706" y1="112.5" y2="44.287056">
      <stop offset="0" stop-color="#e0ffe0"/>
      <stop offset="1" stop-color="#bfffbf" stop-opacity="0"/>
    </linearGradient>
    <linearGradient id="linearGradient3316" gradientTransform="matrix(0 -1.5 1.5 0 32.007165 165.7322)" gradientUnits="userSpaceOnUse" x1="35.629562" x2="46.758774" y1="11.479795" y2="70.827744">
      <stop offset="0" stop-color="#bfffbf"/>
      <stop offset="1" stop-color="#bfffbf" stop-opacity="0"/>
    </linearGradient>
    <linearGradient id="linearGradient3344" gradientTransform="matrix(0 -1.5 1.5 0 32.007165 165.7322)" gradientUnits="userSpaceOnUse" x1="56" x2="34.345421" xlink:href="#linearGradient3327" y1="67.238144" y2="40.171875"/>
    <linearGradient id="linearGradient3356" gradientTransform="matrix(0 -1.5 1.5 0 32.007165 165.7322)" gradientUnits="userSpaceOnUse" x1="42.548481" x2="46.758774" xlink:href="#linearGradient3327" y1="13.921767" y2="70.827744"/>
  </defs>
  <path d="m63.875 12c-.865503.02693-1.698899.33398-2.375.875l-60 48c-.949856.75913-1.5 1.90906-1.5 3.125s.550144 2.36587 1.5 3.125l60 48c1.200963.96113 2.832437 1.13525 4.21875.46875 1.386317-.6665 2.281892-2.05554 2.28125-3.59375v-17.28125-61.4375-17.28125c.000417-1.08285-.441373-2.12118-1.21875-2.875s-1.823927-1.15873-2.90625-1.125z" style="opacity:.536946;fill:#004d00;fill-rule:evenodd;stroke:#004d00;stroke-linejoin:round;filter:url(#filter3467)" transform="matrix(0 -1.5 1.5 0 32.007165 177.7322)"/>
  <path d="m50.007165 81.9197c.04039 1.298255.50097 2.548349 1.3125 3.5625l72.000005 90c1.13869 1.42478 2.86358 2.25 4.68749 2.25s3.54881-.82522 4.6875-2.25l72-90c1.4417-1.801444 1.70288-4.248655.70313-6.328125-.99975-2.079475-3.08331-3.422838-5.39063-3.421875h-25.92187-15.375-.89063-8.71875-42.18749-7.406255-2.203125-15.375-25.921875c-1.624275-.000625-3.18177.66206-4.3125 1.828125-1.13073 1.166066-1.738095 2.735891-1.6875 4.359375zm18.46875 5.8125h23.0625l6.46875 8.109375v14.390625c0 .831.669 1.5 1.5 1.5h11.203125l12.60938 15.75c1.13869 1.42478 2.86358 2.25 4.68749 2.25s3.54881-.82522 4.6875-2.25l12.60938-15.75h12.51562c.831 0 1.5-.669 1.5-1.5v-16.03125l5.15625-6.46875h23.0625l-59.53125 74.39062zm57.609375 24h3.84375l-1.92188 2.39063z" fill="url(#linearGradient3310)" fill-rule="evenodd"/>
  <path d="m50.007165 81.9197c.04039 1.298255.50097 2.548349 1.3125 3.5625l72.000005 90c1.13869 1.42478 2.86358 2.25 4.68749 2.25s3.54881-.82522 4.6875-2.25l72-90c1.4417-1.801444 1.70288-4.248655.70313-6.328125-.99975-2.079475-3.08331-3.422838-5.39063-3.421875h-25.92187-15.375-.89063-1.03125-7.6875-42.18749-7.406255-.28125-1.921875-15.375-25.921875c-1.624275-.000625-3.18177.66206-4.3125 1.828125-1.13073 1.166066-1.738095 2.735891-1.6875 4.359375zm18.46875 5.8125h23.0625l6.46875 8.109375v14.390625c0 .831.669 1.5 1.5 1.5h11.203125l12.60938 15.75c1.13869 1.42478 2.86358 2.25 4.68749 2.25s3.54881-.82522 4.6875-2.25l12.60938-15.75h12.51562c.831 0 1.5-.669 1.5-1.5v-16.03125l5.15625-6.46875h23.0625l-59.53125 74.39062zm57.609375 24h3.84375l-1.92188 2.39063z" fill="url(#linearGradient3296)" fill-rule="evenodd" opacity=".536946"/>
  <path d="m56.007165 81.7322 71.999995 90 72-90h-38.39062-67.21875z" fill="url(#radialGradient3312)" fill-rule="evenodd"/>
  <path d="m64 16-60 48 60 48v-25.59375-44.8125z" fill="none" filter="url(#filter3435)" stroke="url(#linearGradient3314)" stroke-width=".5" transform="matrix(0 -1.5 1.5 0 32.007165 177.7322)"/>
  <path d="m63.875 12c-.799041.02487-1.572946.283948-2.21875.75l.96875 9.03125 5.34375-6.15625c-.08779-.946211-.499493-1.832841-1.1875-2.5-.777377-.75382-1.823927-1.158727-2.90625-1.125z" fill="url(#radialGradient4088)" fill-rule="evenodd" filter="url(#filter3681)" opacity=".85" transform="matrix(0 -1.5 1.5 0 32.007165 177.7322)"/>
  <path d="m71.875 12c-.799041.02487-1.572946.283948-2.21875.75l.96875 9.03125 5.34375-6.15625c-.08779-.946211-.499493-1.832841-1.1875-2.5-.777377-.75382-1.823927-1.158727-2.90625-1.125z" fill="url(#radialGradient4035)" fill-rule="evenodd" filter="url(#filter3681)" opacity=".35" transform="matrix(0 -1.5 -1.5 0 223.67611 189.7322)"/>
  <path d="m11.6875 59.125-2.1875 1.75c-.9498559.759129-1.5 1.909063-1.5 3.125.0000001 1.215937.5501441 2.365871 1.5 3.125l3.53125 2.8125 2.125-5.625z" fill="url(#radialGradient4037)" fill-rule="evenodd" filter="url(#filter3722)" opacity=".5" transform="matrix(0 -1.5 -1.5 0 224.85091 189.7322)"/>
  <path d="m56.007165 81.7322 71.765625 89.71875c.48757-12.07701.75-24.48892.75-37.07813 0-18.08369-.55249-35.688426-1.54687-52.64062h-32.57813z" fill="url(#linearGradient3316)" fill-rule="evenodd"/>
  <path d="m56.007165 81.7322.421875.515625h37.640625 32.296875c.98602 16.858471 1.54687 34.328785 1.54688 52.312495 0 12.25989-.23878 24.36608-.70313 36.14063l.5625.75c.48757-12.07701.75-24.48892.75-37.07813 0-18.08369-.55249-35.688426-1.54687-52.64062h-32.57813z" fill="url(#linearGradient3344)" fill-rule="evenodd"/>
  <path d="m56.007165 81.7322 71.765625 89.71875-70.40625-89.34375h37.6875 31.92188c-.007-.12348.007-.251583 0-.375h-32.57813z" fill="url(#linearGradient3356)" fill-rule="evenodd"/>
</svg>
